<svg xmlns="http://www.w3.org/2000/svg" width="794.391" height="333.755" viewBox="0 0 794.391 333.755">
  <g id="Grupo_93152" data-name="Grupo 93152" transform="translate(8.469 -2851.5)">
    <rect id="Rect치ngulo_31816" data-name="Rect치ngulo 31816" width="780.844" height="326.255" transform="translate(5.078 2859)" fill="#6595bf"/>
    <g id="Grupo_89142" data-name="Grupo 89142" transform="translate(-7.969 2852)">
      <rect id="Rect치ngulo_31778" data-name="Rect치ngulo 31778" width="788.205" height="328.029" transform="translate(0)" fill="#fff" stroke="#12263f" stroke-miterlimit="10" stroke-width="1"/>
    </g>
    <g id="Grupo_89143" data-name="Grupo 89143" transform="translate(100 -5)">
      <path id="Trazado_148583" data-name="Trazado 148583" d="M9.893-6.035H4.5v3.4h6.367V0H1.074V-14.219h9.814v2.646H4.5v3H9.893Zm7.891,2.168,2.832-10.352h3.828L19.658,0h-3.75L11.162-14.219h3.8ZM32.822-2.656h-4.7L27.3,0H23.643l5.215-14.219H32.08L37.334,0H33.652ZM28.945-5.3H32l-1.533-4.932ZM52.568-7.051H43.525V-9.59h9.043Zm0,4.287H43.525V-5.3h9.043ZM71.191-14.219v9.307a5.349,5.349,0,0,1-.674,2.739A4.365,4.365,0,0,1,68.584-.41,6.812,6.812,0,0,1,65.605.2a5.885,5.885,0,0,1-4.092-1.348A4.806,4.806,0,0,1,59.99-4.844v-9.375h3.447v9.443q.059,2.334,2.168,2.334a2.1,2.1,0,0,0,1.611-.586,2.739,2.739,0,0,0,.547-1.9v-9.287Zm14.18,7.4A8.385,8.385,0,0,1,84.6-3.135,5.7,5.7,0,0,1,82.407-.669,6.1,6.1,0,0,1,79.17.2,6.191,6.191,0,0,1,75.947-.64a5.692,5.692,0,0,1-2.192-2.388,8.144,8.144,0,0,1-.825-3.564v-.8a8.422,8.422,0,0,1,.767-3.687,5.688,5.688,0,0,1,2.2-2.466,6.147,6.147,0,0,1,3.257-.869,6.087,6.087,0,0,1,3.223.859,5.79,5.79,0,0,1,2.2,2.446,8.18,8.18,0,0,1,.8,3.638Zm-3.486-.6a5.979,5.979,0,0,0-.708-3.218,2.271,2.271,0,0,0-2.026-1.1q-2.578,0-2.725,3.867l-.01,1.045A6.149,6.149,0,0,0,77.109-3.6,2.268,2.268,0,0,0,79.17-2.48a2.24,2.24,0,0,0,2-1.1,5.982,5.982,0,0,0,.713-3.174ZM90.791,0H87.373V-14.219h3.418Zm2.383,0V-14.219h4.58a6.737,6.737,0,0,1,3.389.854,6.006,6.006,0,0,1,2.349,2.412,7.283,7.283,0,0,1,.854,3.491v.654a7.325,7.325,0,0,1-.825,3.5A6.032,6.032,0,0,1,101.2-.884,6.589,6.589,0,0,1,97.852,0ZM96.6-11.572v8.936h1.191a2.666,2.666,0,0,0,2.266-1.05,5.145,5.145,0,0,0,.791-3.12v-.615a5.1,5.1,0,0,0-.791-3.105,2.713,2.713,0,0,0-2.3-1.045ZM109.756,0h-3.418V-14.219h3.418ZM123.4-4.863h-5.869V-7.4H123.4Zm7.793-.918a14.924,14.924,0,0,1,.635-4.434,10.7,10.7,0,0,1,1.753-3.477,6.225,6.225,0,0,1,2.485-1.992l.625,1.621a6.367,6.367,0,0,0-2.114,3.14,15.313,15.313,0,0,0-.757,5v.43a15.612,15.612,0,0,0,.747,5.1,6.34,6.34,0,0,0,2.124,3.164l-.625,1.621a6.163,6.163,0,0,1-2.485-2,10.538,10.538,0,0,1-1.753-3.462,15,15,0,0,1-.635-4.277Zm18.467.967a5.193,5.193,0,0,1-.8,2.622A4.833,4.833,0,0,1,146.8-.43,7,7,0,0,1,143.779.2a5.584,5.584,0,0,1-4.414-1.826,7.54,7.54,0,0,1-1.611-5.156v-.7a8.607,8.607,0,0,1,.728-3.657,5.513,5.513,0,0,1,2.095-2.422,5.844,5.844,0,0,1,3.164-.854,6.129,6.129,0,0,1,4.16,1.362,5.383,5.383,0,0,1,1.787,3.755H146.27a2.547,2.547,0,0,0-.654-1.865,2.691,2.691,0,0,0-1.875-.566,2.048,2.048,0,0,0-1.875.957,6.151,6.151,0,0,0-.625,3.057v1.006a6.806,6.806,0,0,0,.571,3.252,2.091,2.091,0,0,0,1.968.977,2.632,2.632,0,0,0,1.807-.557,2.363,2.363,0,0,0,.664-1.768Zm5.049-.01V0h-3.428V-14.219h5.674a6.609,6.609,0,0,1,2.886.6,4.526,4.526,0,0,1,1.943,1.709,4.667,4.667,0,0,1,.688,2.515,4.114,4.114,0,0,1-1.489,3.325,6.179,6.179,0,0,1-4.087,1.245Zm0-2.646h2.246a2.118,2.118,0,0,0,1.519-.5,1.85,1.85,0,0,0,.522-1.406,2.287,2.287,0,0,0-.537-1.592,1.9,1.9,0,0,0-1.465-.605h-2.285Zm13.018,2.646V0H164.3V-14.219h5.674a6.609,6.609,0,0,1,2.886.6,4.526,4.526,0,0,1,1.943,1.709,4.667,4.667,0,0,1,.688,2.515A4.114,4.114,0,0,1,174-6.069a6.179,6.179,0,0,1-4.087,1.245Zm0-2.646h2.246a2.118,2.118,0,0,0,1.519-.5,1.85,1.85,0,0,0,.522-1.406,2.287,2.287,0,0,0-.537-1.592,1.9,1.9,0,0,0-1.465-.605h-2.285Zm21.094,2.656a5.193,5.193,0,0,1-.8,2.622A4.833,4.833,0,0,1,185.962-.43,7,7,0,0,1,182.939.2a5.584,5.584,0,0,1-4.414-1.826,7.54,7.54,0,0,1-1.611-5.156v-.7a8.607,8.607,0,0,1,.728-3.657,5.513,5.513,0,0,1,2.095-2.422,5.844,5.844,0,0,1,3.164-.854,6.129,6.129,0,0,1,4.16,1.362,5.383,5.383,0,0,1,1.787,3.755H185.43a2.547,2.547,0,0,0-.654-1.865,2.691,2.691,0,0,0-1.875-.566,2.048,2.048,0,0,0-1.875.957,6.151,6.151,0,0,0-.625,3.057v1.006a6.806,6.806,0,0,0,.571,3.252,2.091,2.091,0,0,0,1.968.977,2.632,2.632,0,0,0,1.807-.557,2.363,2.363,0,0,0,.664-1.768Zm8.965-4.526-3.184-.878.635-1.844,3.115,1.278-.244-3.434h2.09l-.254,3.5,3.027-1.249L203.6-10.1l-3.223.878,2.139,2.588L200.83-5.483l-1.787-2.871-1.8,2.773-1.689-1.1ZM221.2-4.814a5.193,5.193,0,0,1-.8,2.622A4.833,4.833,0,0,1,218.345-.43,7,7,0,0,1,215.322.2a5.584,5.584,0,0,1-4.414-1.826A7.54,7.54,0,0,1,209.3-6.787v-.7a8.607,8.607,0,0,1,.728-3.657,5.513,5.513,0,0,1,2.095-2.422,5.844,5.844,0,0,1,3.164-.854,6.129,6.129,0,0,1,4.16,1.362,5.383,5.383,0,0,1,1.787,3.755h-3.418a2.547,2.547,0,0,0-.654-1.865,2.691,2.691,0,0,0-1.875-.566,2.048,2.048,0,0,0-1.875.957,6.151,6.151,0,0,0-.625,3.057v1.006a6.806,6.806,0,0,0,.571,3.252,2.091,2.091,0,0,0,1.968.977,2.632,2.632,0,0,0,1.807-.557,2.363,2.363,0,0,0,.664-1.768ZM226.475,0h-3.418V-14.219h3.418Zm14.258,0h-3.408l-5.039-8.848V0h-3.428V-14.219h3.428l5.029,8.848v-8.848h3.418Zm7.207-5.508a13.925,13.925,0,0,1-.674,4.355,11.12,11.12,0,0,1-1.86,3.54,6.193,6.193,0,0,1-2.563,2.007l-.625-1.621a6.43,6.43,0,0,0,2.1-3.125,15.085,15.085,0,0,0,.771-4.854v-.6a15.612,15.612,0,0,0-.747-5.1,6.34,6.34,0,0,0-2.124-3.164l.625-1.621a6.307,6.307,0,0,1,2.544,1.987,10.984,10.984,0,0,1,1.855,3.486,13.807,13.807,0,0,1,.7,4.272Z" transform="translate(164.031 2937)" fill="#12263f"/>
    </g>
    <path id="Trazado_148585" data-name="Trazado 148585" d="M1.074,0V-14.219h4.58a6.737,6.737,0,0,1,3.389.854,6.006,6.006,0,0,1,2.349,2.412,7.283,7.283,0,0,1,.854,3.491v.654a7.325,7.325,0,0,1-.825,3.5A6.032,6.032,0,0,1,9.1-.884,6.589,6.589,0,0,1,5.752,0ZM4.5-11.572v8.936H5.693a2.666,2.666,0,0,0,2.266-1.05,5.145,5.145,0,0,0,.791-3.12v-.615a5.1,5.1,0,0,0-.791-3.105,2.713,2.713,0,0,0-2.3-1.045Zm8.936,6.191A6.236,6.236,0,0,1,14.053-8.2a4.4,4.4,0,0,1,1.768-1.9,5.323,5.323,0,0,1,2.705-.664,4.858,4.858,0,0,1,3.74,1.47,5.64,5.64,0,0,1,1.367,4v.117a5.472,5.472,0,0,1-1.372,3.921A4.871,4.871,0,0,1,18.545.2a4.927,4.927,0,0,1-3.623-1.353,5.29,5.29,0,0,1-1.475-3.667Zm3.291.205a3.932,3.932,0,0,0,.459,2.148,1.529,1.529,0,0,0,1.357.684q1.758,0,1.8-2.705v-.332q0-2.842-1.816-2.842-1.65,0-1.787,2.451Zm11.377-5.391.107,1.24a3.583,3.583,0,0,1,3.018-1.436,3.015,3.015,0,0,1,2.466.986,4.7,4.7,0,0,1,.845,2.969V0h-3.3V-6.67a1.783,1.783,0,0,0-.322-1.177,1.491,1.491,0,0,0-1.172-.376,1.569,1.569,0,0,0-1.436.762V0H25.02V-10.566Zm7.842,5.205a6.455,6.455,0,0,1,1.084-3.955,3.568,3.568,0,0,1,3.027-1.445,3.035,3.035,0,0,1,2.383,1.113V-15h3.3V0H42.783l-.166-1.133A3.116,3.116,0,0,1,40.039.2,3.562,3.562,0,0,1,37.051-1.25,6.659,6.659,0,0,1,35.947-5.361Zm3.291.205q0,2.813,1.641,2.813a1.62,1.62,0,0,0,1.563-.918V-7.285A1.576,1.576,0,0,0,40.9-8.223q-1.523,0-1.65,2.461ZM52.725.2a5.432,5.432,0,0,1-3.936-1.45,5.008,5.008,0,0,1-1.5-3.774V-5.3a6.489,6.489,0,0,1,.6-2.861,4.395,4.395,0,0,1,1.753-1.919,5.292,5.292,0,0,1,2.734-.679A4.574,4.574,0,0,1,55.889-9.38a5.43,5.43,0,0,1,1.289,3.853v1.279H50.635a2.372,2.372,0,0,0,.771,1.4,2.3,2.3,0,0,0,1.543.508,2.958,2.958,0,0,0,2.441-1.094l1.5,1.777A4.2,4.2,0,0,1,55.151-.308,5.891,5.891,0,0,1,52.725.2Zm-.371-8.418q-1.445,0-1.719,1.914h3.32v-.254a1.63,1.63,0,0,0-.4-1.226A1.593,1.593,0,0,0,52.354-8.223Zm8.193,5.029a1.874,1.874,0,0,1,1.3.464,1.522,1.522,0,0,1,.518,1.187,1.522,1.522,0,0,1-.518,1.187,1.874,1.874,0,0,1-1.3.464,1.858,1.858,0,0,1-1.3-.469,1.533,1.533,0,0,1-.513-1.182,1.533,1.533,0,0,1,.513-1.182A1.858,1.858,0,0,1,60.547-3.193Zm0-7.793a1.874,1.874,0,0,1,1.3.464,1.522,1.522,0,0,1,.518,1.187,1.522,1.522,0,0,1-.518,1.187,1.874,1.874,0,0,1-1.3.464,1.858,1.858,0,0,1-1.3-.469,1.533,1.533,0,0,1-.513-1.182,1.533,1.533,0,0,1,.513-1.182A1.858,1.858,0,0,1,60.547-10.986Z" transform="translate(31.031 3067)" fill="#12263f"/>
    <path id="Trazado_145297" data-name="Trazado 145297" d="M-3458.651-9387.567h707.927" transform="translate(3492.031 12354)" fill="none" stroke="#12263f" stroke-width="1" stroke-dasharray="2"/>
    <path id="Trazado_148584" data-name="Trazado 148584" d="M7.914,12.172H3.6v2.719H8.7V17H.859V5.625H8.711V7.742H3.6v2.4H7.914Zm6.313,1.734,2.266-8.281h3.063L15.727,17h-3L8.93,5.625h3.039Zm12.031.969H22.5L21.844,17h-2.93L23.086,5.625h2.578L29.867,17H26.922Zm-3.1-2.117H25.6L24.375,8.813Zm18.9-1.4H34.82V9.328h7.234Zm0,3.43H34.82V12.758h7.234Zm13.031-2.617H50.773v2.719h5.094V17H48.031V5.625h7.852V7.742H50.773v2.4h4.313Zm5.2,2.953a1.171,1.171,0,0,0,.859-.3,1.1,1.1,0,0,0,.3-.84h2.469a2.922,2.922,0,0,1-1,2.281,3.705,3.705,0,0,1-2.566.891A3.751,3.751,0,0,1,57.445,16a4.556,4.556,0,0,1-1.062-3.2v-.109a5.149,5.149,0,0,1,.473-2.262,3.441,3.441,0,0,1,1.363-1.508,4.065,4.065,0,0,1,2.109-.527,3.658,3.658,0,0,1,2.617.914,3.242,3.242,0,0,1,.969,2.477H61.445a1.445,1.445,0,0,0-.32-1.008,1.106,1.106,0,0,0-.859-.352q-1.023,0-1.2,1.3a9.206,9.206,0,0,0-.055,1.141,3.616,3.616,0,0,0,.3,1.766A1.055,1.055,0,0,0,60.289,15.125ZM64.7,12.7a4.989,4.989,0,0,1,.492-2.254A3.52,3.52,0,0,1,66.6,8.922a4.259,4.259,0,0,1,2.164-.531,3.887,3.887,0,0,1,2.992,1.176,4.512,4.512,0,0,1,1.094,3.2v.094A4.378,4.378,0,0,1,71.754,16a3.9,3.9,0,0,1-2.973,1.16,3.942,3.942,0,0,1-2.9-1.082,4.232,4.232,0,0,1-1.18-2.934Zm2.633.164a3.145,3.145,0,0,0,.367,1.719,1.223,1.223,0,0,0,1.086.547q1.406,0,1.438-2.164V12.7q0-2.273-1.453-2.273-1.32,0-1.43,1.961Zm9.1-4.312.086.992A2.867,2.867,0,0,1,78.93,8.391,2.412,2.412,0,0,1,80.9,9.18a3.757,3.757,0,0,1,.676,2.375V17H78.938V11.664a1.426,1.426,0,0,0-.258-.941,1.193,1.193,0,0,0-.937-.3,1.256,1.256,0,0,0-1.148.609V17H73.961V8.547ZM82.7,12.7a4.989,4.989,0,0,1,.492-2.254,3.52,3.52,0,0,1,1.414-1.52,4.259,4.259,0,0,1,2.164-.531,3.887,3.887,0,0,1,2.992,1.176,4.512,4.512,0,0,1,1.094,3.2v.094A4.378,4.378,0,0,1,89.762,16a3.9,3.9,0,0,1-2.973,1.16,3.942,3.942,0,0,1-2.9-1.082,4.232,4.232,0,0,1-1.18-2.934Zm2.633.164a3.145,3.145,0,0,0,.367,1.719,1.223,1.223,0,0,0,1.086.547q1.406,0,1.438-2.164V12.7q0-2.273-1.453-2.273-1.32,0-1.43,1.961Zm9.172-4.312.086.992a2.906,2.906,0,0,1,2.414-1.148,2.14,2.14,0,0,1,2.164,1.273,2.813,2.813,0,0,1,2.484-1.273q2.57,0,2.641,3.109V17h-2.641V11.664a1.611,1.611,0,0,0-.219-.945.931.931,0,0,0-.8-.3,1.247,1.247,0,0,0-1.164.7l.008.109V17H96.844V11.68a1.694,1.694,0,0,0-.211-.961.928.928,0,0,0-.8-.3,1.263,1.263,0,0,0-1.156.7V17H92.039V8.547ZM108.578,17h-2.641V8.547h2.641Zm-2.8-10.633a1.175,1.175,0,0,1,.406-.922,1.727,1.727,0,0,1,2.109,0,1.175,1.175,0,0,1,.406.922,1.175,1.175,0,0,1-.406.922,1.727,1.727,0,0,1-2.109,0A1.175,1.175,0,0,1,105.781,6.367Zm7.992,8.758a1.171,1.171,0,0,0,.859-.3,1.1,1.1,0,0,0,.3-.84H117.4a2.922,2.922,0,0,1-1,2.281,3.705,3.705,0,0,1-2.566.891A3.751,3.751,0,0,1,110.93,16a4.556,4.556,0,0,1-1.062-3.2v-.109a5.149,5.149,0,0,1,.473-2.262A3.441,3.441,0,0,1,111.7,8.918a4.065,4.065,0,0,1,2.109-.527,3.658,3.658,0,0,1,2.617.914,3.242,3.242,0,0,1,.969,2.477H114.93a1.445,1.445,0,0,0-.32-1.008,1.106,1.106,0,0,0-.859-.352q-1.023,0-1.2,1.3a9.206,9.206,0,0,0-.055,1.141,3.616,3.616,0,0,0,.3,1.766A1.055,1.055,0,0,0,113.773,15.125Zm13.258-1.219L129.3,5.625h3.063L128.531,17h-3l-3.8-11.375h3.039ZM137.469,17a2.973,2.973,0,0,1-.25-.758,2.448,2.448,0,0,1-2.031.914,3,3,0,0,1-2.031-.723,2.3,2.3,0,0,1-.836-1.816,2.364,2.364,0,0,1,1.016-2.078,5.174,5.174,0,0,1,2.953-.7h.813v-.448q0-1.17-1.008-1.17a.824.824,0,0,0-.937.926h-2.633a2.36,2.36,0,0,1,1.043-1.99,4.383,4.383,0,0,1,2.66-.765,3.843,3.843,0,0,1,2.555.789,2.743,2.743,0,0,1,.961,2.164v3.742a3.832,3.832,0,0,0,.359,1.781V17Zm-1.648-1.719a1.469,1.469,0,0,0,.816-.211,1.322,1.322,0,0,0,.465-.477V13.242h-.766q-1.375,0-1.375,1.234a.754.754,0,0,0,.242.582A.876.876,0,0,0,135.82,15.281ZM143.977,17h-2.641V5h2.641Zm6.656-.914a2.714,2.714,0,0,1-2.258,1.07,2.662,2.662,0,0,1-2.105-.809,3.4,3.4,0,0,1-.715-2.324V8.547h2.633v5.492a.946.946,0,0,0,1.055,1.086,1.376,1.376,0,0,0,1.289-.648V8.547h2.648V17h-2.469Zm8.078,1.07A4.345,4.345,0,0,1,155.563,16a4.006,4.006,0,0,1-1.2-3.02v-.219a5.191,5.191,0,0,1,.48-2.289,3.516,3.516,0,0,1,1.4-1.535,4.233,4.233,0,0,1,2.188-.543A3.659,3.659,0,0,1,161.242,9.5a4.344,4.344,0,0,1,1.031,3.082V13.6h-5.234a1.9,1.9,0,0,0,.617,1.117,1.836,1.836,0,0,0,1.234.406,2.366,2.366,0,0,0,1.953-.875l1.2,1.422a3.363,3.363,0,0,1-1.395,1.082A4.713,4.713,0,0,1,158.711,17.156Zm-.3-6.734q-1.156,0-1.375,1.531H159.7v-.2a1.3,1.3,0,0,0-.32-.98A1.275,1.275,0,0,0,158.414,10.422ZM173.9,14.875h-3.758L169.484,17h-2.93l4.172-11.375H173.3L177.508,17h-2.945Zm-3.1-2.117h2.445l-1.227-3.945Zm7.086-.047a5.164,5.164,0,0,1,.867-3.164,2.854,2.854,0,0,1,2.422-1.156,2.428,2.428,0,0,1,1.906.891V5h2.641V17h-2.367l-.133-.906a2.493,2.493,0,0,1-2.062,1.063A2.849,2.849,0,0,1,178.766,16,5.327,5.327,0,0,1,177.883,12.711Zm2.633.164q0,2.25,1.313,2.25a1.3,1.3,0,0,0,1.25-.734V11.172a1.261,1.261,0,0,0-1.234-.75q-1.219,0-1.32,1.969Zm6.367-.164a5.164,5.164,0,0,1,.867-3.164,2.854,2.854,0,0,1,2.422-1.156,2.428,2.428,0,0,1,1.906.891V5h2.641V17h-2.367l-.133-.906a2.493,2.493,0,0,1-2.062,1.063A2.849,2.849,0,0,1,187.766,16,5.327,5.327,0,0,1,186.883,12.711Zm2.633.164q0,2.25,1.313,2.25a1.3,1.3,0,0,0,1.25-.734V11.172a1.261,1.261,0,0,0-1.234-.75q-1.219,0-1.32,1.969ZM200.3,17.156A4.345,4.345,0,0,1,197.156,16a4.006,4.006,0,0,1-1.2-3.02v-.219a5.191,5.191,0,0,1,.48-2.289,3.516,3.516,0,0,1,1.4-1.535,4.233,4.233,0,0,1,2.188-.543A3.659,3.659,0,0,1,202.836,9.5a4.344,4.344,0,0,1,1.031,3.082V13.6h-5.234a1.9,1.9,0,0,0,.617,1.117,1.836,1.836,0,0,0,1.234.406,2.366,2.366,0,0,0,1.953-.875l1.2,1.422a3.363,3.363,0,0,1-1.395,1.082A4.713,4.713,0,0,1,200.3,17.156Zm-.3-6.734q-1.156,0-1.375,1.531h2.656v-.2a1.3,1.3,0,0,0-.32-.98A1.275,1.275,0,0,0,200.008,10.422Zm4.586,2.289a5.164,5.164,0,0,1,.867-3.164,2.854,2.854,0,0,1,2.422-1.156,2.428,2.428,0,0,1,1.906.891V5h2.641V17h-2.367l-.133-.906a2.493,2.493,0,0,1-2.062,1.063A2.849,2.849,0,0,1,205.477,16,5.327,5.327,0,0,1,204.594,12.711Zm2.633.164q0,2.25,1.313,2.25a1.3,1.3,0,0,0,1.25-.734V11.172a1.261,1.261,0,0,0-1.234-.75q-1.219,0-1.32,1.969Zm10.883-.5a11.939,11.939,0,0,1,.508-3.547,8.56,8.56,0,0,1,1.4-2.781,4.98,4.98,0,0,1,1.988-1.594l.5,1.3a5.093,5.093,0,0,0-1.691,2.512,12.25,12.25,0,0,0-.605,4v.344a12.49,12.49,0,0,0,.6,4.078,5.072,5.072,0,0,0,1.7,2.531l-.5,1.3a4.931,4.931,0,0,1-1.988-1.6,8.43,8.43,0,0,1-1.4-2.77,12,12,0,0,1-.508-3.422Zm10.141,1.531,2.266-8.281h3.063L229.75,17h-3l-3.8-11.375h3.039ZM238.688,17a2.973,2.973,0,0,1-.25-.758,2.448,2.448,0,0,1-2.031.914,3,3,0,0,1-2.031-.723,2.3,2.3,0,0,1-.836-1.816,2.364,2.364,0,0,1,1.016-2.078,5.174,5.174,0,0,1,2.953-.7h.813v-.448q0-1.17-1.008-1.17a.824.824,0,0,0-.937.926h-2.633a2.36,2.36,0,0,1,1.043-1.99,4.383,4.383,0,0,1,2.66-.765A3.843,3.843,0,0,1,240,9.18a2.743,2.743,0,0,1,.961,2.164v3.742a3.832,3.832,0,0,0,.359,1.781V17Zm-1.648-1.719a1.469,1.469,0,0,0,.816-.211,1.322,1.322,0,0,0,.465-.477V13.242h-.766q-1.375,0-1.375,1.234a.754.754,0,0,0,.242.582A.876.876,0,0,0,237.039,15.281ZM245.2,17h-2.641V5H245.2Zm1.289-4.3a4.989,4.989,0,0,1,.492-2.254,3.52,3.52,0,0,1,1.414-1.52,4.259,4.259,0,0,1,2.164-.531,3.887,3.887,0,0,1,2.992,1.176,4.512,4.512,0,0,1,1.094,3.2v.094a4.378,4.378,0,0,1-1.1,3.137,3.9,3.9,0,0,1-2.973,1.16,3.942,3.942,0,0,1-2.9-1.082,4.232,4.232,0,0,1-1.18-2.934Zm2.633.164a3.145,3.145,0,0,0,.367,1.719,1.223,1.223,0,0,0,1.086.547q1.406,0,1.438-2.164V12.7q0-2.273-1.453-2.273-1.32,0-1.43,1.961Zm11.8-1.93-.867-.062a1.558,1.558,0,0,0-1.594.781V17H255.82V8.547h2.469l.086,1.086a2.039,2.039,0,0,1,1.852-1.242,2.567,2.567,0,0,1,.734.094Zm12.109,1.242h-4.312v2.719H273.8V17h-7.836V5.625h7.852V7.742h-5.109v2.4h4.313Zm5.2,2.953a1.171,1.171,0,0,0,.859-.3,1.1,1.1,0,0,0,.3-.84h2.469a2.922,2.922,0,0,1-1,2.281,3.705,3.705,0,0,1-2.566.891A3.751,3.751,0,0,1,275.383,16a4.556,4.556,0,0,1-1.062-3.2v-.109a5.149,5.149,0,0,1,.473-2.262,3.441,3.441,0,0,1,1.363-1.508,4.065,4.065,0,0,1,2.109-.527,3.658,3.658,0,0,1,2.617.914,3.242,3.242,0,0,1,.969,2.477h-2.469a1.445,1.445,0,0,0-.32-1.008,1.106,1.106,0,0,0-.859-.352q-1.023,0-1.2,1.3a9.2,9.2,0,0,0-.055,1.141,3.616,3.616,0,0,0,.3,1.766A1.055,1.055,0,0,0,278.227,15.125Zm4.406-2.43a4.989,4.989,0,0,1,.492-2.254,3.52,3.52,0,0,1,1.414-1.52,4.259,4.259,0,0,1,2.164-.531A3.887,3.887,0,0,1,289.7,9.566a4.512,4.512,0,0,1,1.094,3.2v.094a4.377,4.377,0,0,1-1.1,3.137,3.9,3.9,0,0,1-2.973,1.16,3.942,3.942,0,0,1-2.9-1.082,4.232,4.232,0,0,1-1.18-2.934Zm2.633.164a3.145,3.145,0,0,0,.367,1.719,1.223,1.223,0,0,0,1.086.547q1.406,0,1.438-2.164V12.7q0-2.273-1.453-2.273-1.32,0-1.43,1.961Zm9.1-4.312.086.992a2.867,2.867,0,0,1,2.414-1.148,2.412,2.412,0,0,1,1.973.789,3.756,3.756,0,0,1,.676,2.375V17h-2.641V11.664a1.426,1.426,0,0,0-.258-.941,1.193,1.193,0,0,0-.937-.3,1.256,1.256,0,0,0-1.148.609V17H291.9V8.547Zm6.273,4.148a4.989,4.989,0,0,1,.492-2.254,3.52,3.52,0,0,1,1.414-1.52,4.259,4.259,0,0,1,2.164-.531A3.887,3.887,0,0,1,307.7,9.566a4.512,4.512,0,0,1,1.094,3.2v.094A4.377,4.377,0,0,1,307.7,16a3.9,3.9,0,0,1-2.973,1.16,3.942,3.942,0,0,1-2.9-1.082,4.232,4.232,0,0,1-1.18-2.934Zm2.633.164a3.145,3.145,0,0,0,.367,1.719,1.223,1.223,0,0,0,1.086.547q1.406,0,1.438-2.164V12.7q0-2.273-1.453-2.273-1.32,0-1.43,1.961ZM305.07,5h2.781L305.68,7.453l-2.148,0Zm7.375,3.547.086.992a2.906,2.906,0,0,1,2.414-1.148,2.14,2.14,0,0,1,2.164,1.273,2.813,2.813,0,0,1,2.484-1.273q2.57,0,2.641,3.109V17h-2.641V11.664a1.611,1.611,0,0,0-.219-.945.931.931,0,0,0-.8-.3,1.247,1.247,0,0,0-1.164.7l.008.109V17h-2.641V11.68a1.694,1.694,0,0,0-.211-.961.928.928,0,0,0-.8-.3,1.263,1.263,0,0,0-1.156.7V17h-2.633V8.547ZM326.516,17h-2.641V8.547h2.641Zm-2.8-10.633a1.175,1.175,0,0,1,.406-.922,1.727,1.727,0,0,1,2.109,0,1.175,1.175,0,0,1,.406.922,1.175,1.175,0,0,1-.406.922,1.727,1.727,0,0,1-2.109,0A1.175,1.175,0,0,1,323.719,6.367Zm7.992,8.758a1.171,1.171,0,0,0,.859-.3,1.1,1.1,0,0,0,.3-.84h2.469a2.922,2.922,0,0,1-1,2.281,3.705,3.705,0,0,1-2.566.891A3.751,3.751,0,0,1,328.867,16a4.556,4.556,0,0,1-1.062-3.2v-.109a5.149,5.149,0,0,1,.473-2.262,3.441,3.441,0,0,1,1.363-1.508,4.065,4.065,0,0,1,2.109-.527,3.658,3.658,0,0,1,2.617.914,3.242,3.242,0,0,1,.969,2.477h-2.469a1.445,1.445,0,0,0-.32-1.008,1.106,1.106,0,0,0-.859-.352q-1.023,0-1.2,1.3a9.2,9.2,0,0,0-.055,1.141,3.616,3.616,0,0,0,.3,1.766A1.055,1.055,0,0,0,331.711,15.125Zm4.406-2.43a4.989,4.989,0,0,1,.492-2.254,3.52,3.52,0,0,1,1.414-1.52,4.259,4.259,0,0,1,2.164-.531,3.887,3.887,0,0,1,2.992,1.176,4.512,4.512,0,0,1,1.094,3.2v.094a4.377,4.377,0,0,1-1.1,3.137,3.9,3.9,0,0,1-2.973,1.16,3.942,3.942,0,0,1-2.9-1.082,4.232,4.232,0,0,1-1.18-2.934Zm2.633.164a3.145,3.145,0,0,0,.367,1.719,1.223,1.223,0,0,0,1.086.547q1.406,0,1.438-2.164V12.7q0-2.273-1.453-2.273-1.32,0-1.43,1.961ZM356,14.875h-3.758L351.586,17h-2.93l4.172-11.375h2.578L359.609,17h-2.945Zm-3.1-2.117h2.445l-1.227-3.945Zm7.109-.047a5.708,5.708,0,0,1,.422-2.266,3.4,3.4,0,0,1,1.211-1.52,3.192,3.192,0,0,1,1.836-.535,2.538,2.538,0,0,1,2.063.891l.094-.734h2.391V16.68a3.564,3.564,0,0,1-.52,1.941,3.334,3.334,0,0,1-1.5,1.266,5.528,5.528,0,0,1-2.281.441,4.769,4.769,0,0,1-1.8-.352,3.251,3.251,0,0,1-1.332-.914l1.1-1.547a2.414,2.414,0,0,0,1.938.867,1.568,1.568,0,0,0,1.75-1.8V16.32a2.472,2.472,0,0,1-1.914.836,3.055,3.055,0,0,1-2.5-1.184,4.9,4.9,0,0,1-.953-3.168Zm2.641.164a3.007,3.007,0,0,0,.391,1.645,1.232,1.232,0,0,0,1.094.605,1.4,1.4,0,0,0,1.242-.57V11a1.363,1.363,0,0,0-1.227-.578,1.241,1.241,0,0,0-1.1.629A3.429,3.429,0,0,0,362.648,12.875Zm11.984-1.945-.867-.062a1.558,1.558,0,0,0-1.594.781V17h-2.633V8.547h2.469l.086,1.086a2.039,2.039,0,0,1,1.852-1.242,2.567,2.567,0,0,1,.734.094Zm5.039,6.227A4.345,4.345,0,0,1,376.523,16a4.006,4.006,0,0,1-1.2-3.02v-.219a5.191,5.191,0,0,1,.48-2.289,3.516,3.516,0,0,1,1.4-1.535,4.233,4.233,0,0,1,2.188-.543A3.659,3.659,0,0,1,382.2,9.5a4.344,4.344,0,0,1,1.031,3.082V13.6H378a1.9,1.9,0,0,0,.617,1.117,1.836,1.836,0,0,0,1.234.406,2.366,2.366,0,0,0,1.953-.875l1.2,1.422a3.363,3.363,0,0,1-1.395,1.082A4.713,4.713,0,0,1,379.672,17.156Zm-.3-6.734q-1.156,0-1.375,1.531h2.656v-.2a1.3,1.3,0,0,0-.32-.98A1.275,1.275,0,0,0,379.375,10.422Zm4.609,2.289a5.708,5.708,0,0,1,.422-2.266,3.4,3.4,0,0,1,1.211-1.52,3.192,3.192,0,0,1,1.836-.535,2.538,2.538,0,0,1,2.063.891l.094-.734H392V16.68a3.564,3.564,0,0,1-.52,1.941,3.334,3.334,0,0,1-1.5,1.266,5.528,5.528,0,0,1-2.281.441,4.769,4.769,0,0,1-1.8-.352,3.251,3.251,0,0,1-1.332-.914l1.1-1.547a2.414,2.414,0,0,0,1.938.867,1.568,1.568,0,0,0,1.75-1.8V16.32a2.472,2.472,0,0,1-1.914.836,3.055,3.055,0,0,1-2.5-1.184,4.9,4.9,0,0,1-.953-3.168Zm2.641.164a3.007,3.007,0,0,0,.391,1.645,1.232,1.232,0,0,0,1.094.605,1.4,1.4,0,0,0,1.242-.57V11a1.363,1.363,0,0,0-1.227-.578,1.241,1.241,0,0,0-1.1.629A3.429,3.429,0,0,0,386.625,12.875ZM398.258,17a2.972,2.972,0,0,1-.25-.758,2.448,2.448,0,0,1-2.031.914,3,3,0,0,1-2.031-.723,2.3,2.3,0,0,1-.836-1.816,2.364,2.364,0,0,1,1.016-2.078,5.174,5.174,0,0,1,2.953-.7h.813v-.448q0-1.17-1.008-1.17a.824.824,0,0,0-.937.926h-2.633a2.36,2.36,0,0,1,1.043-1.99,4.383,4.383,0,0,1,2.66-.765,3.843,3.843,0,0,1,2.555.789,2.743,2.743,0,0,1,.961,2.164v3.742a3.832,3.832,0,0,0,.359,1.781V17Zm-1.648-1.719a1.469,1.469,0,0,0,.816-.211,1.322,1.322,0,0,0,.465-.477V13.242h-.766q-1.375,0-1.375,1.234a.754.754,0,0,0,.242.582A.876.876,0,0,0,396.609,15.281Zm5.047-2.57a5.164,5.164,0,0,1,.867-3.164,2.854,2.854,0,0,1,2.422-1.156,2.428,2.428,0,0,1,1.906.891V5h2.641V17h-2.367l-.133-.906a2.493,2.493,0,0,1-2.062,1.063A2.849,2.849,0,0,1,402.539,16,5.327,5.327,0,0,1,401.656,12.711Zm2.633.164q0,2.25,1.313,2.25a1.3,1.3,0,0,0,1.25-.734V11.172a1.261,1.261,0,0,0-1.234-.75q-1.219,0-1.32,1.969Zm6.367-.18a4.989,4.989,0,0,1,.492-2.254,3.52,3.52,0,0,1,1.414-1.52,4.259,4.259,0,0,1,2.164-.531,3.887,3.887,0,0,1,2.992,1.176,4.512,4.512,0,0,1,1.094,3.2v.094a4.377,4.377,0,0,1-1.1,3.137,3.9,3.9,0,0,1-2.973,1.16,3.942,3.942,0,0,1-2.9-1.082,4.232,4.232,0,0,1-1.18-2.934Zm2.633.164a3.145,3.145,0,0,0,.367,1.719,1.223,1.223,0,0,0,1.086.547q1.406,0,1.438-2.164V12.7q0-2.273-1.453-2.273-1.32,0-1.43,1.961Zm10.836-.266a11.14,11.14,0,0,1-.539,3.484A8.9,8.9,0,0,1,422.1,18.91a4.955,4.955,0,0,1-2.051,1.605l-.5-1.3a5.144,5.144,0,0,0,1.68-2.5,12.068,12.068,0,0,0,.617-3.883v-.477a12.49,12.49,0,0,0-.6-4.078,5.072,5.072,0,0,0-1.7-2.531l.5-1.3a5.046,5.046,0,0,1,2.035,1.59,8.787,8.787,0,0,1,1.484,2.789,11.046,11.046,0,0,1,.559,3.418ZM9.781,45.625V53.07a4.279,4.279,0,0,1-.539,2.191A3.492,3.492,0,0,1,7.7,56.672a5.449,5.449,0,0,1-2.383.484,4.708,4.708,0,0,1-3.273-1.078A3.845,3.845,0,0,1,.82,53.125v-7.5H3.578V53.18q.047,1.867,1.734,1.867A1.679,1.679,0,0,0,6.6,54.578a2.191,2.191,0,0,0,.438-1.523v-7.43Zm11.344,5.922a6.708,6.708,0,0,1-.617,2.945,4.561,4.561,0,0,1-1.754,1.973,4.884,4.884,0,0,1-2.59.691,4.953,4.953,0,0,1-2.578-.668,4.554,4.554,0,0,1-1.754-1.91,6.515,6.515,0,0,1-.66-2.852v-.641a6.737,6.737,0,0,1,.613-2.949,4.55,4.55,0,0,1,1.758-1.973,4.918,4.918,0,0,1,2.605-.7,4.87,4.87,0,0,1,2.578.688,4.632,4.632,0,0,1,1.762,1.957,6.544,6.544,0,0,1,.637,2.91Zm-2.789-.477A4.783,4.783,0,0,0,17.77,48.5a1.817,1.817,0,0,0-1.621-.879q-2.062,0-2.18,3.094l-.008.836a4.92,4.92,0,0,0,.555,2.57,1.814,1.814,0,0,0,1.648.9,1.792,1.792,0,0,0,1.6-.883,4.785,4.785,0,0,0,.57-2.539ZM25.461,57H22.727V45.625h2.734Zm1.906,0V45.625h3.664a5.39,5.39,0,0,1,2.711.684,4.805,4.805,0,0,1,1.879,1.93,5.826,5.826,0,0,1,.684,2.793v.523a5.86,5.86,0,0,1-.66,2.8,4.826,4.826,0,0,1-1.859,1.938A5.271,5.271,0,0,1,31.109,57Zm2.742-9.258v7.148h.953a2.133,2.133,0,0,0,1.813-.84,4.116,4.116,0,0,0,.633-2.5v-.492a4.082,4.082,0,0,0-.633-2.484,2.17,2.17,0,0,0-1.844-.836ZM40.633,57H37.9V45.625h2.734ZM53.9,51.359H46.664V49.328H53.9Zm0,3.43H46.664V52.758H53.9Zm14.9-9.164V53.07a4.279,4.279,0,0,1-.539,2.191,3.492,3.492,0,0,1-1.547,1.41,5.449,5.449,0,0,1-2.383.484,4.708,4.708,0,0,1-3.273-1.078,3.845,3.845,0,0,1-1.219-2.953v-7.5h2.758V53.18q.047,1.867,1.734,1.867a1.679,1.679,0,0,0,1.289-.469,2.191,2.191,0,0,0,.438-1.523v-7.43Zm4.656.82v2.1h1.391v1.828H73.453v3.867a.987.987,0,0,0,.172.664.922.922,0,0,0,.68.188,3.862,3.862,0,0,0,.656-.047V56.93a4.859,4.859,0,0,1-1.484.227,2.758,2.758,0,0,1-2.008-.641,2.626,2.626,0,0,1-.648-1.945v-4.2H69.742V48.547H70.82v-2.1ZM78.656,57H76.016V48.547h2.641Zm-2.8-10.633a1.175,1.175,0,0,1,.406-.922,1.727,1.727,0,0,1,2.109,0,1.249,1.249,0,0,1,0,1.844,1.727,1.727,0,0,1-2.109,0A1.175,1.175,0,0,1,75.859,46.367ZM83.055,57H80.414V45h2.641Zm4.4,0H84.813V48.547h2.641Zm-2.8-10.633a1.175,1.175,0,0,1,.406-.922,1.727,1.727,0,0,1,2.109,0,1.249,1.249,0,0,1,0,1.844,1.727,1.727,0,0,1-2.109,0A1.175,1.175,0,0,1,84.656,46.367Zm4.086,6.344a5.164,5.164,0,0,1,.867-3.164,2.854,2.854,0,0,1,2.422-1.156,2.428,2.428,0,0,1,1.906.891V45h2.641V57H94.211l-.133-.906a2.493,2.493,0,0,1-2.062,1.063A2.849,2.849,0,0,1,89.625,56,5.327,5.327,0,0,1,88.742,52.711Zm2.633.164q0,2.25,1.313,2.25a1.3,1.3,0,0,0,1.25-.734V51.172a1.261,1.261,0,0,0-1.234-.75q-1.219,0-1.32,1.969ZM102.836,57a2.973,2.973,0,0,1-.25-.758,2.448,2.448,0,0,1-2.031.914,3,3,0,0,1-2.031-.723,2.3,2.3,0,0,1-.836-1.816A2.364,2.364,0,0,1,98.7,52.539a5.174,5.174,0,0,1,2.953-.7h.813v-.448q0-1.17-1.008-1.17a.824.824,0,0,0-.937.926H97.891a2.36,2.36,0,0,1,1.043-1.99,4.383,4.383,0,0,1,2.66-.765,3.843,3.843,0,0,1,2.555.789,2.743,2.743,0,0,1,.961,2.164v3.742a3.832,3.832,0,0,0,.359,1.781V57Zm-1.648-1.719A1.469,1.469,0,0,0,102,55.07a1.322,1.322,0,0,0,.465-.477V53.242H101.7q-1.375,0-1.375,1.234a.754.754,0,0,0,.242.582A.876.876,0,0,0,101.188,55.281Zm5.047-2.57a5.164,5.164,0,0,1,.867-3.164,2.854,2.854,0,0,1,2.422-1.156,2.428,2.428,0,0,1,1.906.891V45h2.641V57H111.7l-.133-.906a2.493,2.493,0,0,1-2.062,1.063A2.849,2.849,0,0,1,107.117,56,5.327,5.327,0,0,1,106.234,52.711Zm2.633.164q0,2.25,1.313,2.25a1.3,1.3,0,0,0,1.25-.734V51.172a1.261,1.261,0,0,0-1.234-.75q-1.219,0-1.32,1.969Zm10.352-.18a4.989,4.989,0,0,1,.492-2.254,3.52,3.52,0,0,1,1.414-1.52,4.259,4.259,0,0,1,2.164-.531,3.887,3.887,0,0,1,2.992,1.176,4.512,4.512,0,0,1,1.094,3.2v.094a4.378,4.378,0,0,1-1.1,3.137,3.9,3.9,0,0,1-2.973,1.16,3.942,3.942,0,0,1-2.9-1.082,4.232,4.232,0,0,1-1.18-2.934Zm2.633.164a3.145,3.145,0,0,0,.367,1.719,1.223,1.223,0,0,0,1.086.547q1.406,0,1.438-2.164V52.7q0-2.273-1.453-2.273-1.32,0-1.43,1.961Zm14.531-.023a5.1,5.1,0,0,1-.887,3.145,2.843,2.843,0,0,1-2.395,1.176,2.437,2.437,0,0,1-1.914-.852V60.25h-2.633v-11.7h2.461l.078.781a2.437,2.437,0,0,1,1.992-.937,2.866,2.866,0,0,1,2.43,1.152,5.16,5.16,0,0,1,.867,3.168Zm-2.633-.164q0-2.25-1.312-2.25a1.239,1.239,0,0,0-1.25.672v3.328a1.279,1.279,0,0,0,1.266.7q1.258,0,1.3-2.172Zm7.883,4.484A4.345,4.345,0,0,1,138.484,56a4.006,4.006,0,0,1-1.2-3.02v-.219a5.191,5.191,0,0,1,.48-2.289,3.516,3.516,0,0,1,1.4-1.535,4.233,4.233,0,0,1,2.188-.543,3.659,3.659,0,0,1,2.813,1.105,4.344,4.344,0,0,1,1.031,3.082V53.6h-5.234a1.9,1.9,0,0,0,.617,1.117,1.836,1.836,0,0,0,1.234.406,2.366,2.366,0,0,0,1.953-.875l1.2,1.422a3.363,3.363,0,0,1-1.395,1.082A4.713,4.713,0,0,1,141.633,57.156Zm-.3-6.734q-1.156,0-1.375,1.531h2.656v-.2a1.3,1.3,0,0,0-.32-.98A1.275,1.275,0,0,0,141.336,50.422Zm10.031.508-.867-.062a1.558,1.558,0,0,0-1.594.781V57h-2.633V48.547h2.469l.086,1.086a2.039,2.039,0,0,1,1.852-1.242,2.567,2.567,0,0,1,.734.094ZM156.844,57a2.973,2.973,0,0,1-.25-.758,2.448,2.448,0,0,1-2.031.914,3,3,0,0,1-2.031-.723,2.3,2.3,0,0,1-.836-1.816,2.364,2.364,0,0,1,1.016-2.078,5.174,5.174,0,0,1,2.953-.7h.813v-.448q0-1.17-1.008-1.17a.824.824,0,0,0-.937.926H151.9a2.36,2.36,0,0,1,1.043-1.99,4.383,4.383,0,0,1,2.66-.765,3.843,3.843,0,0,1,2.555.789,2.743,2.743,0,0,1,.961,2.164v3.742a3.832,3.832,0,0,0,.359,1.781V57ZM155.2,55.281a1.469,1.469,0,0,0,.816-.211,1.322,1.322,0,0,0,.465-.477V53.242h-.766q-1.375,0-1.375,1.234a.754.754,0,0,0,.242.582A.876.876,0,0,0,155.2,55.281Zm8.953-.156a1.171,1.171,0,0,0,.859-.3,1.1,1.1,0,0,0,.3-.84h2.469a2.923,2.923,0,0,1-1,2.281,3.705,3.705,0,0,1-2.566.891A3.751,3.751,0,0,1,161.3,56a4.556,4.556,0,0,1-1.062-3.2v-.109a5.149,5.149,0,0,1,.473-2.262,3.441,3.441,0,0,1,1.363-1.508,4.065,4.065,0,0,1,2.109-.527,3.658,3.658,0,0,1,2.617.914,3.242,3.242,0,0,1,.969,2.477H165.3a1.445,1.445,0,0,0-.32-1.008,1.106,1.106,0,0,0-.859-.352q-1.023,0-1.2,1.3a9.207,9.207,0,0,0-.055,1.141,3.616,3.616,0,0,0,.3,1.766A1.055,1.055,0,0,0,164.148,55.125ZM171.664,57h-2.641V48.547h2.641Zm-2.8-10.633a1.175,1.175,0,0,1,.406-.922,1.727,1.727,0,0,1,2.109,0,1.249,1.249,0,0,1,0,1.844,1.727,1.727,0,0,1-2.109,0A1.175,1.175,0,0,1,168.867,46.367Zm4.086,6.328a4.989,4.989,0,0,1,.492-2.254,3.52,3.52,0,0,1,1.414-1.52,4.259,4.259,0,0,1,2.164-.531,3.887,3.887,0,0,1,2.992,1.176,4.512,4.512,0,0,1,1.094,3.2v.094a4.378,4.378,0,0,1-1.1,3.137,3.9,3.9,0,0,1-2.973,1.16,3.942,3.942,0,0,1-2.9-1.082,4.232,4.232,0,0,1-1.18-2.934Zm2.633.164a3.145,3.145,0,0,0,.367,1.719,1.223,1.223,0,0,0,1.086.547q1.406,0,1.438-2.164V52.7q0-2.273-1.453-2.273-1.32,0-1.43,1.961Zm9.1-4.312.086.992a2.867,2.867,0,0,1,2.414-1.148,2.412,2.412,0,0,1,1.973.789,3.757,3.757,0,0,1,.676,2.375V57H187.2V51.664a1.426,1.426,0,0,0-.258-.941,1.193,1.193,0,0,0-.937-.3,1.256,1.256,0,0,0-1.148.609V57h-2.633V48.547ZM196.055,57a2.973,2.973,0,0,1-.25-.758,2.448,2.448,0,0,1-2.031.914,3,3,0,0,1-2.031-.723,2.3,2.3,0,0,1-.836-1.816,2.364,2.364,0,0,1,1.016-2.078,5.174,5.174,0,0,1,2.953-.7h.813v-.448q0-1.17-1.008-1.17a.824.824,0,0,0-.937.926h-2.633a2.36,2.36,0,0,1,1.043-1.99,4.383,4.383,0,0,1,2.66-.765,3.843,3.843,0,0,1,2.555.789,2.743,2.743,0,0,1,.961,2.164v3.742a3.832,3.832,0,0,0,.359,1.781V57Zm-1.648-1.719a1.469,1.469,0,0,0,.816-.211,1.322,1.322,0,0,0,.465-.477V53.242h-.766q-1.375,0-1.375,1.234a.754.754,0,0,0,.242.582A.876.876,0,0,0,194.406,55.281ZM202.563,57h-2.641V45h2.641Zm10.367,0a2.973,2.973,0,0,1-.25-.758,2.448,2.448,0,0,1-2.031.914,3,3,0,0,1-2.031-.723,2.3,2.3,0,0,1-.836-1.816,2.364,2.364,0,0,1,1.016-2.078,5.174,5.174,0,0,1,2.953-.7h.813v-.448q0-1.17-1.008-1.17a.824.824,0,0,0-.937.926h-2.633a2.36,2.36,0,0,1,1.043-1.99,4.383,4.383,0,0,1,2.66-.765,3.843,3.843,0,0,1,2.555.789,2.743,2.743,0,0,1,.961,2.164v3.742a3.832,3.832,0,0,0,.359,1.781V57Zm-1.648-1.719a1.469,1.469,0,0,0,.816-.211,1.322,1.322,0,0,0,.465-.477V53.242H211.8q-1.375,0-1.375,1.234a.754.754,0,0,0,.242.582A.876.876,0,0,0,211.281,55.281Zm7.8-6.734.086.992a2.867,2.867,0,0,1,2.414-1.148,2.412,2.412,0,0,1,1.973.789,3.757,3.757,0,0,1,.676,2.375V57h-2.641V51.664a1.426,1.426,0,0,0-.258-.941,1.193,1.193,0,0,0-.937-.3,1.256,1.256,0,0,0-1.148.609V57h-2.633V48.547Zm9.672-2.1v2.1h1.391v1.828H228.75v3.867a.987.987,0,0,0,.172.664.922.922,0,0,0,.68.188,3.862,3.862,0,0,0,.656-.047V56.93a4.859,4.859,0,0,1-1.484.227,2.758,2.758,0,0,1-2.008-.641,2.626,2.626,0,0,1-.648-1.945v-4.2h-1.078V48.547h1.078v-2.1Zm6.516,10.711A4.345,4.345,0,0,1,232.117,56a4.006,4.006,0,0,1-1.2-3.02v-.219a5.191,5.191,0,0,1,.48-2.289,3.516,3.516,0,0,1,1.4-1.535,4.233,4.233,0,0,1,2.188-.543A3.659,3.659,0,0,1,237.8,49.5a4.344,4.344,0,0,1,1.031,3.082V53.6h-5.234a1.9,1.9,0,0,0,.617,1.117,1.836,1.836,0,0,0,1.234.406,2.366,2.366,0,0,0,1.953-.875l1.2,1.422a3.363,3.363,0,0,1-1.395,1.082A4.713,4.713,0,0,1,235.266,57.156Zm-.3-6.734q-1.156,0-1.375,1.531h2.656v-.2a1.3,1.3,0,0,0-.32-.98A1.275,1.275,0,0,0,234.969,50.422Zm9.344,4.2a.608.608,0,0,0-.352-.539,5.347,5.347,0,0,0-1.336-.422A6.092,6.092,0,0,1,241,53.09a2.722,2.722,0,0,1-.977-.863,2.061,2.061,0,0,1-.336-1.164,2.336,2.336,0,0,1,.961-1.918,3.958,3.958,0,0,1,2.516-.754,4.386,4.386,0,0,1,2.688.758,2.37,2.37,0,0,1,1.016,1.992h-2.641q0-1.016-1.07-1.016a1.061,1.061,0,0,0-.7.23.714.714,0,0,0-.281.574.655.655,0,0,0,.344.57,3.248,3.248,0,0,0,1.1.359,9.485,9.485,0,0,1,1.324.336,2.406,2.406,0,0,1,1.906,2.352,2.214,2.214,0,0,1-1.027,1.883,4.505,4.505,0,0,1-2.66.727,4.6,4.6,0,0,1-1.937-.391A3.24,3.24,0,0,1,239.9,55.7a2.406,2.406,0,0,1-.477-1.414h2.461a1.017,1.017,0,0,0,.391.855,1.607,1.607,0,0,0,.961.27,1.264,1.264,0,0,0,.809-.219A.7.7,0,0,0,244.313,54.625Zm7.422-1.914a5.164,5.164,0,0,1,.867-3.164,2.854,2.854,0,0,1,2.422-1.156,2.428,2.428,0,0,1,1.906.891V45h2.641V57H257.2l-.133-.906a2.493,2.493,0,0,1-2.062,1.063A2.849,2.849,0,0,1,252.617,56,5.327,5.327,0,0,1,251.734,52.711Zm2.633.164q0,2.25,1.313,2.25a1.3,1.3,0,0,0,1.25-.734V51.172a1.261,1.261,0,0,0-1.234-.75q-1.219,0-1.32,1.969Zm10.789,4.281A4.345,4.345,0,0,1,262.008,56a4.006,4.006,0,0,1-1.2-3.02v-.219a5.191,5.191,0,0,1,.48-2.289,3.516,3.516,0,0,1,1.4-1.535,4.233,4.233,0,0,1,2.188-.543,3.659,3.659,0,0,1,2.813,1.105,4.344,4.344,0,0,1,1.031,3.082V53.6h-5.234a1.9,1.9,0,0,0,.617,1.117,1.836,1.836,0,0,0,1.234.406,2.366,2.366,0,0,0,1.953-.875l1.2,1.422a3.363,3.363,0,0,1-1.395,1.082A4.713,4.713,0,0,1,265.156,57.156Zm-.3-6.734q-1.156,0-1.375,1.531h2.656v-.2a1.3,1.3,0,0,0-.32-.98A1.275,1.275,0,0,0,264.859,50.422ZM276.539,57H273.9V48.547h2.641Zm-2.8-10.633a1.175,1.175,0,0,1,.406-.922,1.727,1.727,0,0,1,2.109,0,1.249,1.249,0,0,1,0,1.844,1.727,1.727,0,0,1-2.109,0A1.175,1.175,0,0,1,273.742,46.367Zm6.836,2.18.086.992a2.867,2.867,0,0,1,2.414-1.148,2.412,2.412,0,0,1,1.973.789,3.756,3.756,0,0,1,.676,2.375V57h-2.641V51.664a1.426,1.426,0,0,0-.258-.941,1.193,1.193,0,0,0-.937-.3,1.256,1.256,0,0,0-1.148.609V57h-2.633V48.547Zm9.672-2.1v2.1h1.391v1.828H290.25v3.867a.987.987,0,0,0,.172.664.922.922,0,0,0,.68.188,3.862,3.862,0,0,0,.656-.047V56.93a4.859,4.859,0,0,1-1.484.227,2.758,2.758,0,0,1-2.008-.641,2.626,2.626,0,0,1-.648-1.945v-4.2h-1.078V48.547h1.078v-2.1Zm6.516,10.711A4.345,4.345,0,0,1,293.617,56a4.006,4.006,0,0,1-1.2-3.02v-.219a5.191,5.191,0,0,1,.48-2.289,3.516,3.516,0,0,1,1.4-1.535,4.233,4.233,0,0,1,2.188-.543A3.659,3.659,0,0,1,299.3,49.5a4.344,4.344,0,0,1,1.031,3.082V53.6h-5.234a1.9,1.9,0,0,0,.617,1.117,1.836,1.836,0,0,0,1.234.406,2.366,2.366,0,0,0,1.953-.875l1.2,1.422a3.363,3.363,0,0,1-1.395,1.082A4.713,4.713,0,0,1,296.766,57.156Zm-.3-6.734q-1.156,0-1.375,1.531h2.656v-.2a1.3,1.3,0,0,0-.32-.98A1.275,1.275,0,0,0,296.469,50.422Zm10.031.508-.867-.062a1.558,1.558,0,0,0-1.594.781V57h-2.633V48.547h2.469l.086,1.086a2.039,2.039,0,0,1,1.852-1.242,2.567,2.567,0,0,1,.734.094Zm5.039,6.227A4.345,4.345,0,0,1,308.391,56a4.006,4.006,0,0,1-1.2-3.02v-.219a5.191,5.191,0,0,1,.48-2.289,3.516,3.516,0,0,1,1.4-1.535,4.233,4.233,0,0,1,2.188-.543A3.659,3.659,0,0,1,314.07,49.5a4.344,4.344,0,0,1,1.031,3.082V53.6h-5.234a1.9,1.9,0,0,0,.617,1.117,1.836,1.836,0,0,0,1.234.406,2.366,2.366,0,0,0,1.953-.875l1.2,1.422a3.363,3.363,0,0,1-1.395,1.082A4.713,4.713,0,0,1,311.539,57.156Zm-.3-6.734q-1.156,0-1.375,1.531h2.656v-.2a1.3,1.3,0,0,0-.32-.98A1.275,1.275,0,0,0,311.242,50.422Zm9.344,4.2a.608.608,0,0,0-.352-.539,5.347,5.347,0,0,0-1.336-.422,6.092,6.092,0,0,1-1.625-.574,2.722,2.722,0,0,1-.977-.863,2.061,2.061,0,0,1-.336-1.164,2.336,2.336,0,0,1,.961-1.918,3.958,3.958,0,0,1,2.516-.754,4.386,4.386,0,0,1,2.688.758,2.37,2.37,0,0,1,1.016,1.992H320.5q0-1.016-1.07-1.016a1.061,1.061,0,0,0-.7.23.714.714,0,0,0-.281.574.655.655,0,0,0,.344.57,3.248,3.248,0,0,0,1.1.359,9.486,9.486,0,0,1,1.324.336,2.406,2.406,0,0,1,1.906,2.352A2.214,2.214,0,0,1,322.1,56.43a4.505,4.505,0,0,1-2.66.727,4.6,4.6,0,0,1-1.937-.391,3.24,3.24,0,0,1-1.328-1.062,2.406,2.406,0,0,1-.477-1.414h2.461a1.017,1.017,0,0,0,.391.855,1.607,1.607,0,0,0,.961.27,1.264,1.264,0,0,0,.809-.219A.7.7,0,0,0,320.586,54.625Zm7.859,2.531A4.345,4.345,0,0,1,325.3,56a4.006,4.006,0,0,1-1.2-3.02v-.219a5.191,5.191,0,0,1,.48-2.289,3.516,3.516,0,0,1,1.4-1.535,4.233,4.233,0,0,1,2.188-.543,3.659,3.659,0,0,1,2.813,1.105,4.344,4.344,0,0,1,1.031,3.082V53.6h-5.234a1.9,1.9,0,0,0,.617,1.117,1.836,1.836,0,0,0,1.234.406,2.366,2.366,0,0,0,1.953-.875l1.2,1.422a3.363,3.363,0,0,1-1.395,1.082A4.713,4.713,0,0,1,328.445,57.156Zm-.3-6.734q-1.156,0-1.375,1.531h2.656v-.2a1.3,1.3,0,0,0-.32-.98A1.275,1.275,0,0,0,328.148,50.422Zm9.344,4.2a.608.608,0,0,0-.352-.539,5.347,5.347,0,0,0-1.336-.422,6.092,6.092,0,0,1-1.625-.574,2.722,2.722,0,0,1-.977-.863,2.061,2.061,0,0,1-.336-1.164,2.336,2.336,0,0,1,.961-1.918,3.958,3.958,0,0,1,2.516-.754,4.386,4.386,0,0,1,2.688.758,2.37,2.37,0,0,1,1.016,1.992h-2.641q0-1.016-1.07-1.016a1.061,1.061,0,0,0-.7.23.714.714,0,0,0-.281.574.655.655,0,0,0,.344.57,3.248,3.248,0,0,0,1.1.359,9.486,9.486,0,0,1,1.324.336,2.406,2.406,0,0,1,1.906,2.352A2.214,2.214,0,0,1,339,56.43a4.505,4.505,0,0,1-2.66.727,4.6,4.6,0,0,1-1.937-.391,3.24,3.24,0,0,1-1.328-1.062,2.406,2.406,0,0,1-.477-1.414h2.461a1.017,1.017,0,0,0,.391.855,1.607,1.607,0,0,0,.961.27,1.264,1.264,0,0,0,.809-.219A.7.7,0,0,0,337.492,54.625Zm11.133-1.312,1.406-4.766h2.82l-3.445,9.867-.148.359a2.617,2.617,0,0,1-2.594,1.641,4.126,4.126,0,0,1-1.086-.156V58.383h.344a1.8,1.8,0,0,0,.848-.16.973.973,0,0,0,.434-.575l.211-.563-2.937-8.538h2.813Zm8.563-.6a5.164,5.164,0,0,1,.867-3.164,2.854,2.854,0,0,1,2.422-1.156,2.428,2.428,0,0,1,1.906.891V45h2.641V57h-2.367l-.133-.906a2.493,2.493,0,0,1-2.062,1.063A2.849,2.849,0,0,1,358.07,56,5.327,5.327,0,0,1,357.188,52.711Zm2.633.164q0,2.25,1.313,2.25a1.3,1.3,0,0,0,1.25-.734V51.172a1.261,1.261,0,0,0-1.234-.75q-1.219,0-1.32,1.969Zm10.789,4.281A4.345,4.345,0,0,1,367.461,56a4.006,4.006,0,0,1-1.2-3.02v-.219a5.191,5.191,0,0,1,.48-2.289,3.516,3.516,0,0,1,1.4-1.535,4.233,4.233,0,0,1,2.188-.543,3.659,3.659,0,0,1,2.813,1.105,4.344,4.344,0,0,1,1.031,3.082V53.6h-5.234a1.9,1.9,0,0,0,.617,1.117,1.836,1.836,0,0,0,1.234.406,2.366,2.366,0,0,0,1.953-.875l1.2,1.422a3.363,3.363,0,0,1-1.395,1.082A4.713,4.713,0,0,1,370.609,57.156Zm-.3-6.734q-1.156,0-1.375,1.531h2.656v-.2a1.3,1.3,0,0,0-.32-.98A1.275,1.275,0,0,0,370.313,50.422Zm9.344,4.2a.608.608,0,0,0-.352-.539,5.347,5.347,0,0,0-1.336-.422,6.092,6.092,0,0,1-1.625-.574,2.722,2.722,0,0,1-.977-.863,2.061,2.061,0,0,1-.336-1.164,2.336,2.336,0,0,1,.961-1.918,3.958,3.958,0,0,1,2.516-.754,4.386,4.386,0,0,1,2.688.758,2.37,2.37,0,0,1,1.016,1.992H379.57q0-1.016-1.07-1.016a1.061,1.061,0,0,0-.7.23.714.714,0,0,0-.281.574.655.655,0,0,0,.344.57,3.248,3.248,0,0,0,1.1.359,9.486,9.486,0,0,1,1.324.336,2.406,2.406,0,0,1,1.906,2.352,2.214,2.214,0,0,1-1.027,1.883,4.505,4.505,0,0,1-2.66.727,4.6,4.6,0,0,1-1.937-.391,3.24,3.24,0,0,1-1.328-1.062,2.406,2.406,0,0,1-.477-1.414h2.461a1.017,1.017,0,0,0,.391.855,1.607,1.607,0,0,0,.961.27,1.264,1.264,0,0,0,.809-.219A.7.7,0,0,0,379.656,54.625Zm11.617-1.789a5.1,5.1,0,0,1-.887,3.145,2.843,2.843,0,0,1-2.395,1.176,2.437,2.437,0,0,1-1.914-.852V60.25h-2.633v-11.7h2.461l.078.781a2.437,2.437,0,0,1,1.992-.937,2.866,2.866,0,0,1,2.43,1.152,5.16,5.16,0,0,1,.867,3.168Zm-2.633-.164q0-2.25-1.312-2.25a1.239,1.239,0,0,0-1.25.672v3.328a1.279,1.279,0,0,0,1.266.7q1.258,0,1.3-2.172Zm8.828,3.414a2.714,2.714,0,0,1-2.258,1.07,2.662,2.662,0,0,1-2.105-.809,3.4,3.4,0,0,1-.715-2.324V48.547h2.633v5.492a.946.946,0,0,0,1.055,1.086,1.376,1.376,0,0,0,1.289-.648v-5.93h2.648V57h-2.469Zm8.078,1.07A4.345,4.345,0,0,1,402.4,56a4.006,4.006,0,0,1-1.2-3.02v-.219a5.191,5.191,0,0,1,.48-2.289,3.516,3.516,0,0,1,1.4-1.535,4.233,4.233,0,0,1,2.188-.543,3.659,3.659,0,0,1,2.813,1.105,4.344,4.344,0,0,1,1.031,3.082V53.6h-5.234a1.9,1.9,0,0,0,.617,1.117,1.836,1.836,0,0,0,1.234.406,2.366,2.366,0,0,0,1.953-.875l1.2,1.422a3.363,3.363,0,0,1-1.395,1.082A4.713,4.713,0,0,1,405.547,57.156Zm-.3-6.734q-1.156,0-1.375,1.531h2.656v-.2a1.3,1.3,0,0,0-.32-.98A1.275,1.275,0,0,0,405.25,50.422Zm-.031-5.43H408l-2.172,2.453-2.148,0Zm9.375,9.633a.608.608,0,0,0-.352-.539,5.347,5.347,0,0,0-1.336-.422,6.092,6.092,0,0,1-1.625-.574,2.722,2.722,0,0,1-.977-.863,2.061,2.061,0,0,1-.336-1.164,2.336,2.336,0,0,1,.961-1.918,3.958,3.958,0,0,1,2.516-.754,4.386,4.386,0,0,1,2.688.758,2.37,2.37,0,0,1,1.016,1.992h-2.641q0-1.016-1.07-1.016a1.061,1.061,0,0,0-.7.23.714.714,0,0,0-.281.574.655.655,0,0,0,.344.57,3.248,3.248,0,0,0,1.1.359,9.486,9.486,0,0,1,1.324.336,2.406,2.406,0,0,1,1.906,2.352,2.214,2.214,0,0,1-1.027,1.883,4.505,4.505,0,0,1-2.66.727,4.6,4.6,0,0,1-1.937-.391A3.24,3.24,0,0,1,410.18,55.7a2.406,2.406,0,0,1-.477-1.414h2.461a1.017,1.017,0,0,0,.391.855,1.607,1.607,0,0,0,.961.27,1.264,1.264,0,0,0,.809-.219A.7.7,0,0,0,414.594,54.625Zm7.422-1.914a5.164,5.164,0,0,1,.867-3.164,2.854,2.854,0,0,1,2.422-1.156,2.428,2.428,0,0,1,1.906.891V45h2.641V57h-2.367l-.133-.906a2.493,2.493,0,0,1-2.062,1.063A2.849,2.849,0,0,1,422.9,56,5.327,5.327,0,0,1,422.016,52.711Zm2.633.164q0,2.25,1.313,2.25a1.3,1.3,0,0,0,1.25-.734V51.172a1.261,1.261,0,0,0-1.234-.75q-1.219,0-1.32,1.969Zm10.789,4.281A4.345,4.345,0,0,1,432.289,56a4.006,4.006,0,0,1-1.2-3.02v-.219a5.191,5.191,0,0,1,.48-2.289,3.516,3.516,0,0,1,1.4-1.535,4.233,4.233,0,0,1,2.188-.543,3.659,3.659,0,0,1,2.813,1.105A4.344,4.344,0,0,1,439,52.578V53.6h-5.234a1.9,1.9,0,0,0,.617,1.117,1.836,1.836,0,0,0,1.234.406,2.366,2.366,0,0,0,1.953-.875l1.2,1.422a3.363,3.363,0,0,1-1.395,1.082A4.713,4.713,0,0,1,435.438,57.156Zm-.3-6.734q-1.156,0-1.375,1.531h2.656v-.2a1.3,1.3,0,0,0-.32-.98A1.275,1.275,0,0,0,435.141,50.422ZM446.82,57H444.18V48.547h2.641Zm-2.8-10.633a1.175,1.175,0,0,1,.406-.922,1.727,1.727,0,0,1,2.109,0,1.249,1.249,0,0,1,0,1.844,1.727,1.727,0,0,1-2.109,0A1.175,1.175,0,0,1,444.023,46.367Zm6.906,2.18.086.992a2.906,2.906,0,0,1,2.414-1.148,2.14,2.14,0,0,1,2.164,1.273,2.813,2.813,0,0,1,2.484-1.273q2.57,0,2.641,3.109V57h-2.641V51.664a1.611,1.611,0,0,0-.219-.945.931.931,0,0,0-.8-.3,1.247,1.247,0,0,0-1.164.7l.008.109V57h-2.641V51.68a1.694,1.694,0,0,0-.211-.961.928.928,0,0,0-.8-.3,1.263,1.263,0,0,0-1.156.7V57h-2.633V48.547Zm19.141,4.289a5.1,5.1,0,0,1-.887,3.145,2.843,2.843,0,0,1-2.395,1.176,2.437,2.437,0,0,1-1.914-.852V60.25h-2.633v-11.7H464.7l.078.781a2.437,2.437,0,0,1,1.992-.937,2.866,2.866,0,0,1,2.43,1.152,5.16,5.16,0,0,1,.867,3.168Zm-2.633-.164q0-2.25-1.312-2.25a1.239,1.239,0,0,0-1.25.672v3.328a1.279,1.279,0,0,0,1.266.7q1.258,0,1.3-2.172Zm8.828,3.414a2.714,2.714,0,0,1-2.258,1.07,2.662,2.662,0,0,1-2.105-.809,3.4,3.4,0,0,1-.715-2.324V48.547h2.633v5.492a.946.946,0,0,0,1.055,1.086,1.376,1.376,0,0,0,1.289-.648v-5.93h2.648V57h-2.469Zm8.078,1.07A4.345,4.345,0,0,1,481.2,56a4.006,4.006,0,0,1-1.2-3.02v-.219a5.191,5.191,0,0,1,.48-2.289,3.516,3.516,0,0,1,1.4-1.535,4.233,4.233,0,0,1,2.188-.543,3.659,3.659,0,0,1,2.813,1.105,4.344,4.344,0,0,1,1.031,3.082V53.6h-5.234a1.9,1.9,0,0,0,.617,1.117,1.836,1.836,0,0,0,1.234.406,2.366,2.366,0,0,0,1.953-.875l1.2,1.422a3.363,3.363,0,0,1-1.395,1.082A4.713,4.713,0,0,1,484.344,57.156Zm-.3-6.734q-1.156,0-1.375,1.531h2.656v-.2a1.3,1.3,0,0,0-.32-.98A1.275,1.275,0,0,0,484.047,50.422Zm9.344,4.2a.608.608,0,0,0-.352-.539,5.347,5.347,0,0,0-1.336-.422,6.092,6.092,0,0,1-1.625-.574,2.722,2.722,0,0,1-.977-.863,2.061,2.061,0,0,1-.336-1.164,2.336,2.336,0,0,1,.961-1.918,3.958,3.958,0,0,1,2.516-.754,4.386,4.386,0,0,1,2.688.758,2.37,2.37,0,0,1,1.016,1.992H493.3q0-1.016-1.07-1.016a1.061,1.061,0,0,0-.7.23.714.714,0,0,0-.281.574.655.655,0,0,0,.344.57,3.248,3.248,0,0,0,1.1.359,9.486,9.486,0,0,1,1.324.336,2.406,2.406,0,0,1,1.906,2.352A2.214,2.214,0,0,1,494.9,56.43a4.505,4.505,0,0,1-2.66.727,4.6,4.6,0,0,1-1.937-.391,3.24,3.24,0,0,1-1.328-1.062,2.406,2.406,0,0,1-.477-1.414h2.461a1.017,1.017,0,0,0,.391.855,1.607,1.607,0,0,0,.961.27,1.264,1.264,0,0,0,.809-.219A.7.7,0,0,0,493.391,54.625Zm6.836-8.18v2.1h1.391v1.828h-1.391v3.867a.987.987,0,0,0,.172.664.922.922,0,0,0,.68.188,3.862,3.862,0,0,0,.656-.047V56.93a4.859,4.859,0,0,1-1.484.227,2.758,2.758,0,0,1-2.008-.641,2.626,2.626,0,0,1-.648-1.945v-4.2h-1.078V48.547h1.078v-2.1Zm1.859,6.25a4.989,4.989,0,0,1,.492-2.254,3.52,3.52,0,0,1,1.414-1.52,4.259,4.259,0,0,1,2.164-.531,3.887,3.887,0,0,1,2.992,1.176,4.512,4.512,0,0,1,1.094,3.2v.094a4.377,4.377,0,0,1-1.1,3.137,3.9,3.9,0,0,1-2.973,1.16,3.941,3.941,0,0,1-2.9-1.082,4.232,4.232,0,0,1-1.18-2.934Zm2.633.164a3.145,3.145,0,0,0,.367,1.719,1.223,1.223,0,0,0,1.086.547q1.406,0,1.438-2.164V52.7q0-2.273-1.453-2.273-1.32,0-1.43,1.961Zm11.109,1.766a.608.608,0,0,0-.352-.539,5.347,5.347,0,0,0-1.336-.422,6.092,6.092,0,0,1-1.625-.574,2.722,2.722,0,0,1-.977-.863,2.061,2.061,0,0,1-.336-1.164,2.336,2.336,0,0,1,.961-1.918,3.958,3.958,0,0,1,2.516-.754,4.386,4.386,0,0,1,2.688.758,2.37,2.37,0,0,1,1.016,1.992h-2.641q0-1.016-1.07-1.016a1.061,1.061,0,0,0-.7.23.714.714,0,0,0-.281.574.655.655,0,0,0,.344.57,3.248,3.248,0,0,0,1.1.359,9.484,9.484,0,0,1,1.324.336,2.406,2.406,0,0,1,1.906,2.352,2.214,2.214,0,0,1-1.027,1.883,4.505,4.505,0,0,1-2.66.727,4.6,4.6,0,0,1-1.937-.391,3.24,3.24,0,0,1-1.328-1.062,2.406,2.406,0,0,1-.477-1.414H513.4a1.018,1.018,0,0,0,.391.855,1.607,1.607,0,0,0,.961.27,1.264,1.264,0,0,0,.809-.219A.7.7,0,0,0,515.828,54.625Zm5.4-.18a1.5,1.5,0,0,1,1.039.371,1.3,1.3,0,0,1,0,1.9,1.639,1.639,0,0,1-2.082,0,1.294,1.294,0,0,1,0-1.891A1.486,1.486,0,0,1,521.227,54.445ZM10.063,93.148a4.154,4.154,0,0,1-.641,2.1,3.866,3.866,0,0,1-1.645,1.41,5.6,5.6,0,0,1-2.418.5A4.467,4.467,0,0,1,1.828,95.7,6.032,6.032,0,0,1,.539,91.57v-.562a6.885,6.885,0,0,1,.582-2.926A4.41,4.41,0,0,1,2.8,86.145a4.676,4.676,0,0,1,2.531-.684,4.9,4.9,0,0,1,3.328,1.09,4.306,4.306,0,0,1,1.43,3H7.352a2.037,2.037,0,0,0-.523-1.492,2.153,2.153,0,0,0-1.5-.453,1.638,1.638,0,0,0-1.5.766,4.921,4.921,0,0,0-.5,2.445v.8a5.445,5.445,0,0,0,.457,2.6,1.672,1.672,0,0,0,1.574.781A2.106,2.106,0,0,0,6.8,94.563a1.89,1.89,0,0,0,.531-1.414Zm4.039-.008V97H11.359V85.625H15.9a5.287,5.287,0,0,1,2.309.48,3.621,3.621,0,0,1,1.555,1.367,3.734,3.734,0,0,1,.551,2.012,3.291,3.291,0,0,1-1.191,2.66,4.943,4.943,0,0,1-3.27,1Zm0-2.117h1.8a1.7,1.7,0,0,0,1.215-.4,1.48,1.48,0,0,0,.418-1.125,1.83,1.83,0,0,0-.43-1.273,1.522,1.522,0,0,0-1.172-.484H14.1Zm10.414,2.117V97H21.773V85.625h4.539a5.287,5.287,0,0,1,2.309.48,3.621,3.621,0,0,1,1.555,1.367,3.734,3.734,0,0,1,.551,2.012,3.291,3.291,0,0,1-1.191,2.66,4.943,4.943,0,0,1-3.27,1Zm0-2.117h1.8a1.7,1.7,0,0,0,1.215-.4,1.48,1.48,0,0,0,.418-1.125,1.83,1.83,0,0,0-.43-1.273,1.522,1.522,0,0,0-1.172-.484H24.516Zm16.875,2.125a4.154,4.154,0,0,1-.641,2.1,3.866,3.866,0,0,1-1.645,1.41,5.6,5.6,0,0,1-2.418.5A4.467,4.467,0,0,1,33.156,95.7a6.032,6.032,0,0,1-1.289-4.125v-.562a6.885,6.885,0,0,1,.582-2.926,4.41,4.41,0,0,1,1.676-1.937,4.676,4.676,0,0,1,2.531-.684,4.9,4.9,0,0,1,3.328,1.09,4.306,4.306,0,0,1,1.43,3H38.68a2.037,2.037,0,0,0-.523-1.492,2.153,2.153,0,0,0-1.5-.453,1.638,1.638,0,0,0-1.5.766,4.921,4.921,0,0,0-.5,2.445v.8a5.445,5.445,0,0,0,.457,2.6,1.672,1.672,0,0,0,1.574.781,2.106,2.106,0,0,0,1.445-.445,1.89,1.89,0,0,0,.531-1.414Zm12.656-1.789H46.813V89.328h7.234Zm0,3.43H46.813V92.758h7.234Zm15.18-1.641a4.154,4.154,0,0,1-.641,2.1,3.866,3.866,0,0,1-1.645,1.41,5.6,5.6,0,0,1-2.418.5A4.467,4.467,0,0,1,60.992,95.7,6.032,6.032,0,0,1,59.7,91.57v-.562a6.885,6.885,0,0,1,.582-2.926,4.41,4.41,0,0,1,1.676-1.937,4.676,4.676,0,0,1,2.531-.684,4.9,4.9,0,0,1,3.328,1.09,4.306,4.306,0,0,1,1.43,3H66.516a2.037,2.037,0,0,0-.523-1.492,2.153,2.153,0,0,0-1.5-.453,1.638,1.638,0,0,0-1.5.766,4.921,4.921,0,0,0-.5,2.445v.8a5.445,5.445,0,0,0,.457,2.6,1.672,1.672,0,0,0,1.574.781,2.106,2.106,0,0,0,1.445-.445,1.89,1.89,0,0,0,.531-1.414Zm.844-.453a4.989,4.989,0,0,1,.492-2.254,3.52,3.52,0,0,1,1.414-1.52,4.259,4.259,0,0,1,2.164-.531,3.887,3.887,0,0,1,2.992,1.176,4.512,4.512,0,0,1,1.094,3.2v.094A4.378,4.378,0,0,1,77.129,96a3.9,3.9,0,0,1-2.973,1.16,3.942,3.942,0,0,1-2.9-1.082,4.232,4.232,0,0,1-1.18-2.934Zm2.633.164a3.145,3.145,0,0,0,.367,1.719,1.223,1.223,0,0,0,1.086.547q1.406,0,1.438-2.164V92.7q0-2.273-1.453-2.273-1.32,0-1.43,1.961Zm11.109,1.766a.608.608,0,0,0-.352-.539,5.348,5.348,0,0,0-1.336-.422A6.092,6.092,0,0,1,80.5,93.09a2.722,2.722,0,0,1-.977-.863,2.061,2.061,0,0,1-.336-1.164,2.336,2.336,0,0,1,.961-1.918,3.958,3.958,0,0,1,2.516-.754,4.386,4.386,0,0,1,2.688.758,2.37,2.37,0,0,1,1.016,1.992H83.727q0-1.016-1.07-1.016a1.061,1.061,0,0,0-.7.23.714.714,0,0,0-.281.574.655.655,0,0,0,.344.57,3.248,3.248,0,0,0,1.1.359,9.485,9.485,0,0,1,1.324.336,2.406,2.406,0,0,1,1.906,2.352,2.214,2.214,0,0,1-1.027,1.883,4.505,4.505,0,0,1-2.66.727,4.6,4.6,0,0,1-1.937-.391A3.24,3.24,0,0,1,79.4,95.7a2.406,2.406,0,0,1-.477-1.414h2.461a1.017,1.017,0,0,0,.391.855,1.607,1.607,0,0,0,.961.27,1.264,1.264,0,0,0,.809-.219A.7.7,0,0,0,83.813,94.625Zm6.836-8.18v2.1h1.391v1.828H90.648v3.867a.987.987,0,0,0,.172.664.922.922,0,0,0,.68.188,3.862,3.862,0,0,0,.656-.047V96.93a4.859,4.859,0,0,1-1.484.227,2.758,2.758,0,0,1-2.008-.641,2.626,2.626,0,0,1-.648-1.945v-4.2H86.938V88.547h1.078v-2.1Zm1.859,6.25A4.989,4.989,0,0,1,93,90.441a3.52,3.52,0,0,1,1.414-1.52,4.259,4.259,0,0,1,2.164-.531,3.887,3.887,0,0,1,2.992,1.176,4.512,4.512,0,0,1,1.094,3.2v.094A4.378,4.378,0,0,1,99.566,96a3.9,3.9,0,0,1-2.973,1.16,3.942,3.942,0,0,1-2.9-1.082,4.232,4.232,0,0,1-1.18-2.934Zm2.633.164a3.145,3.145,0,0,0,.367,1.719,1.223,1.223,0,0,0,1.086.547q1.406,0,1.438-2.164V92.7q0-2.273-1.453-2.273-1.32,0-1.43,1.961Zm18.516-.023a5.1,5.1,0,0,1-.887,3.145,2.843,2.843,0,0,1-2.395,1.176,2.437,2.437,0,0,1-1.914-.852v3.945h-2.633v-11.7h2.461l.078.781a2.437,2.437,0,0,1,1.992-.937,2.866,2.866,0,0,1,2.43,1.152,5.16,5.16,0,0,1,.867,3.168Zm-2.633-.164q0-2.25-1.312-2.25a1.239,1.239,0,0,0-1.25.672v3.328a1.279,1.279,0,0,0,1.266.7q1.258,0,1.3-2.172Zm8.906-1.742-.867-.062a1.558,1.558,0,0,0-1.594.781V97h-2.633V88.547H117.3l.086,1.086a2.039,2.039,0,0,1,1.852-1.242,2.567,2.567,0,0,1,.734.094Zm.336,1.766a4.989,4.989,0,0,1,.492-2.254,3.52,3.52,0,0,1,1.414-1.52,4.259,4.259,0,0,1,2.164-.531,3.887,3.887,0,0,1,2.992,1.176,4.512,4.512,0,0,1,1.094,3.2v.094a4.378,4.378,0,0,1-1.1,3.137,3.9,3.9,0,0,1-2.973,1.16,3.942,3.942,0,0,1-2.9-1.082,4.232,4.232,0,0,1-1.18-2.934Zm2.633.164a3.145,3.145,0,0,0,.367,1.719,1.223,1.223,0,0,0,1.086.547q1.406,0,1.438-2.164V92.7q0-2.273-1.453-2.273-1.32,0-1.43,1.961Zm9.172-4.312.086.992a2.906,2.906,0,0,1,2.414-1.148,2.14,2.14,0,0,1,2.164,1.273,2.813,2.813,0,0,1,2.484-1.273q2.57,0,2.641,3.109V97h-2.641V91.664a1.612,1.612,0,0,0-.219-.945.931.931,0,0,0-.8-.3,1.247,1.247,0,0,0-1.164.7l.008.109V97h-2.641V91.68a1.694,1.694,0,0,0-.211-.961.929.929,0,0,0-.8-.3,1.263,1.263,0,0,0-1.156.7V97H129.6V88.547Zm15.383,8.609A4.345,4.345,0,0,1,144.3,96a4.006,4.006,0,0,1-1.2-3.02v-.219a5.191,5.191,0,0,1,.48-2.289,3.516,3.516,0,0,1,1.4-1.535,4.233,4.233,0,0,1,2.188-.543,3.659,3.659,0,0,1,2.813,1.105,4.344,4.344,0,0,1,1.031,3.082V93.6h-5.234a1.9,1.9,0,0,0,.617,1.117,1.836,1.836,0,0,0,1.234.406,2.366,2.366,0,0,0,1.953-.875l1.2,1.422a3.363,3.363,0,0,1-1.395,1.082A4.713,4.713,0,0,1,147.453,97.156Zm-.3-6.734q-1.156,0-1.375,1.531h2.656v-.2a1.3,1.3,0,0,0-.32-.98A1.275,1.275,0,0,0,147.156,90.422Zm4.586,2.289a5.164,5.164,0,0,1,.867-3.164,2.854,2.854,0,0,1,2.422-1.156,2.428,2.428,0,0,1,1.906.891V85h2.641V97h-2.367l-.133-.906a2.493,2.493,0,0,1-2.062,1.063A2.849,2.849,0,0,1,152.625,96,5.327,5.327,0,0,1,151.742,92.711Zm2.633.164q0,2.25,1.313,2.25a1.3,1.3,0,0,0,1.25-.734V91.172a1.261,1.261,0,0,0-1.234-.75q-1.219,0-1.32,1.969ZM163.852,97h-2.641V88.547h2.641Zm-2.8-10.633a1.175,1.175,0,0,1,.406-.922,1.727,1.727,0,0,1,2.109,0,1.249,1.249,0,0,1,0,1.844,1.727,1.727,0,0,1-2.109,0A1.175,1.175,0,0,1,161.055,86.367Zm4.086,6.328a4.989,4.989,0,0,1,.492-2.254,3.52,3.52,0,0,1,1.414-1.52,4.259,4.259,0,0,1,2.164-.531,3.887,3.887,0,0,1,2.992,1.176,4.512,4.512,0,0,1,1.094,3.2v.094A4.378,4.378,0,0,1,172.2,96a3.9,3.9,0,0,1-2.973,1.16,3.942,3.942,0,0,1-2.9-1.082,4.232,4.232,0,0,1-1.18-2.934Zm2.633.164a3.145,3.145,0,0,0,.367,1.719,1.223,1.223,0,0,0,1.086.547q1.406,0,1.438-2.164V92.7q0-2.273-1.453-2.273-1.32,0-1.43,1.961Zm18.516-.023a5.1,5.1,0,0,1-.887,3.145,2.843,2.843,0,0,1-2.395,1.176,2.437,2.437,0,0,1-1.914-.852v3.945h-2.633v-11.7h2.461l.078.781a2.437,2.437,0,0,1,1.992-.937,2.866,2.866,0,0,1,2.43,1.152,5.16,5.16,0,0,1,.867,3.168Zm-2.633-.164q0-2.25-1.312-2.25a1.239,1.239,0,0,0-1.25.672v3.328a1.279,1.279,0,0,0,1.266.7q1.258,0,1.3-2.172Zm3.461.023a4.989,4.989,0,0,1,.492-2.254,3.52,3.52,0,0,1,1.414-1.52,4.259,4.259,0,0,1,2.164-.531,3.887,3.887,0,0,1,2.992,1.176,4.512,4.512,0,0,1,1.094,3.2v.094a4.378,4.378,0,0,1-1.1,3.137,3.9,3.9,0,0,1-2.973,1.16,3.942,3.942,0,0,1-2.9-1.082,4.232,4.232,0,0,1-1.18-2.934Zm2.633.164a3.145,3.145,0,0,0,.367,1.719,1.223,1.223,0,0,0,1.086.547q1.406,0,1.438-2.164V92.7q0-2.273-1.453-2.273-1.32,0-1.43,1.961Zm9.1-4.312.086.992a2.867,2.867,0,0,1,2.414-1.148,2.412,2.412,0,0,1,1.973.789A3.757,3.757,0,0,1,204,91.555V97h-2.641V91.664a1.426,1.426,0,0,0-.258-.941,1.193,1.193,0,0,0-.937-.3,1.256,1.256,0,0,0-1.148.609V97h-2.633V88.547Zm6.273,4.164a5.164,5.164,0,0,1,.867-3.164,2.854,2.854,0,0,1,2.422-1.156,2.428,2.428,0,0,1,1.906.891V85h2.641V97h-2.367l-.133-.906a2.493,2.493,0,0,1-2.062,1.063A2.849,2.849,0,0,1,206.008,96,5.327,5.327,0,0,1,205.125,92.711Zm2.633.164q0,2.25,1.313,2.25a1.3,1.3,0,0,0,1.25-.734V91.172a1.261,1.261,0,0,0-1.234-.75q-1.219,0-1.32,1.969Zm10.789,4.281A4.345,4.345,0,0,1,215.4,96a4.006,4.006,0,0,1-1.2-3.02v-.219a5.191,5.191,0,0,1,.48-2.289,3.516,3.516,0,0,1,1.4-1.535,4.233,4.233,0,0,1,2.188-.543,3.659,3.659,0,0,1,2.813,1.105,4.344,4.344,0,0,1,1.031,3.082V93.6h-5.234a1.9,1.9,0,0,0,.617,1.117,1.836,1.836,0,0,0,1.234.406,2.366,2.366,0,0,0,1.953-.875l1.2,1.422a3.363,3.363,0,0,1-1.395,1.082A4.713,4.713,0,0,1,218.547,97.156Zm-.3-6.734q-1.156,0-1.375,1.531h2.656v-.2a1.3,1.3,0,0,0-.32-.98A1.275,1.275,0,0,0,218.25,90.422Zm10.031.508-.867-.062a1.558,1.558,0,0,0-1.594.781V97h-2.633V88.547h2.469l.086,1.086a2.039,2.039,0,0,1,1.852-1.242,2.567,2.567,0,0,1,.734.094ZM233.758,97a2.973,2.973,0,0,1-.25-.758,2.448,2.448,0,0,1-2.031.914,3,3,0,0,1-2.031-.723,2.3,2.3,0,0,1-.836-1.816,2.364,2.364,0,0,1,1.016-2.078,5.174,5.174,0,0,1,2.953-.7h.813v-.448q0-1.17-1.008-1.17a.824.824,0,0,0-.937.926h-2.633a2.36,2.36,0,0,1,1.043-1.99,4.383,4.383,0,0,1,2.66-.765,3.843,3.843,0,0,1,2.555.789,2.743,2.743,0,0,1,.961,2.164v3.742a3.832,3.832,0,0,0,.359,1.781V97Zm-1.648-1.719a1.469,1.469,0,0,0,.816-.211,1.322,1.322,0,0,0,.465-.477V93.242h-.766q-1.375,0-1.375,1.234a.754.754,0,0,0,.242.582A.876.876,0,0,0,232.109,95.281Zm5.047-2.57a5.164,5.164,0,0,1,.867-3.164,2.854,2.854,0,0,1,2.422-1.156,2.428,2.428,0,0,1,1.906.891V85h2.641V97h-2.367l-.133-.906a2.493,2.493,0,0,1-2.062,1.063A2.849,2.849,0,0,1,238.039,96,5.327,5.327,0,0,1,237.156,92.711Zm2.633.164q0,2.25,1.313,2.25a1.3,1.3,0,0,0,1.25-.734V91.172a1.261,1.261,0,0,0-1.234-.75q-1.219,0-1.32,1.969Zm6.367-.18a4.989,4.989,0,0,1,.492-2.254,3.52,3.52,0,0,1,1.414-1.52,4.259,4.259,0,0,1,2.164-.531,3.887,3.887,0,0,1,2.992,1.176,4.512,4.512,0,0,1,1.094,3.2v.094a4.378,4.378,0,0,1-1.1,3.137,3.9,3.9,0,0,1-2.973,1.16,3.942,3.942,0,0,1-2.9-1.082,4.232,4.232,0,0,1-1.18-2.934Zm2.633.164a3.145,3.145,0,0,0,.367,1.719,1.223,1.223,0,0,0,1.086.547q1.406,0,1.438-2.164V92.7q0-2.273-1.453-2.273-1.32,0-1.43,1.961Zm10.336-.148a5.164,5.164,0,0,1,.867-3.164,2.854,2.854,0,0,1,2.422-1.156,2.428,2.428,0,0,1,1.906.891V85h2.641V97h-2.367l-.133-.906a2.493,2.493,0,0,1-2.062,1.063A2.849,2.849,0,0,1,260.008,96,5.327,5.327,0,0,1,259.125,92.711Zm2.633.164q0,2.25,1.313,2.25a1.3,1.3,0,0,0,1.25-.734V91.172a1.261,1.261,0,0,0-1.234-.75q-1.219,0-1.32,1.969Zm10.789,4.281A4.345,4.345,0,0,1,269.4,96a4.006,4.006,0,0,1-1.2-3.02v-.219a5.191,5.191,0,0,1,.48-2.289,3.516,3.516,0,0,1,1.4-1.535,4.234,4.234,0,0,1,2.188-.543,3.659,3.659,0,0,1,2.813,1.105,4.344,4.344,0,0,1,1.031,3.082V93.6h-5.234a1.9,1.9,0,0,0,.617,1.117,1.836,1.836,0,0,0,1.234.406,2.366,2.366,0,0,0,1.953-.875l1.2,1.422a3.363,3.363,0,0,1-1.395,1.082A4.713,4.713,0,0,1,272.547,97.156Zm-.3-6.734q-1.156,0-1.375,1.531h2.656v-.2a1.3,1.3,0,0,0-.32-.98A1.275,1.275,0,0,0,272.25,90.422Zm12.477,4.7a1.171,1.171,0,0,0,.859-.3,1.1,1.1,0,0,0,.3-.84h2.469a2.922,2.922,0,0,1-1,2.281,3.705,3.705,0,0,1-2.566.891A3.751,3.751,0,0,1,281.883,96a4.556,4.556,0,0,1-1.062-3.2v-.109a5.149,5.149,0,0,1,.473-2.262,3.441,3.441,0,0,1,1.363-1.508,4.065,4.065,0,0,1,2.109-.527,3.658,3.658,0,0,1,2.617.914,3.242,3.242,0,0,1,.969,2.477h-2.469a1.445,1.445,0,0,0-.32-1.008,1.106,1.106,0,0,0-.859-.352q-1.023,0-1.2,1.3a9.2,9.2,0,0,0-.055,1.141,3.616,3.616,0,0,0,.3,1.766A1.055,1.055,0,0,0,284.727,95.125Zm9.5,1.875a2.972,2.972,0,0,1-.25-.758,2.448,2.448,0,0,1-2.031.914,3,3,0,0,1-2.031-.723,2.3,2.3,0,0,1-.836-1.816,2.364,2.364,0,0,1,1.016-2.078,5.174,5.174,0,0,1,2.953-.7h.813v-.448q0-1.17-1.008-1.17a.824.824,0,0,0-.937.926h-2.633a2.36,2.36,0,0,1,1.043-1.99,4.383,4.383,0,0,1,2.66-.765,3.843,3.843,0,0,1,2.555.789,2.743,2.743,0,0,1,.961,2.164v3.742a3.832,3.832,0,0,0,.359,1.781V97Zm-1.648-1.719a1.469,1.469,0,0,0,.816-.211,1.322,1.322,0,0,0,.465-.477V93.242h-.766q-1.375,0-1.375,1.234a.754.754,0,0,0,.242.582A.876.876,0,0,0,292.578,95.281ZM305.8,92.836a5.1,5.1,0,0,1-.887,3.145,2.843,2.843,0,0,1-2.395,1.176,2.437,2.437,0,0,1-1.914-.852v3.945h-2.633v-11.7h2.461l.078.781a2.437,2.437,0,0,1,1.992-.937,2.866,2.866,0,0,1,2.43,1.152,5.16,5.16,0,0,1,.867,3.168Zm-2.633-.164q0-2.25-1.312-2.25a1.239,1.239,0,0,0-1.25.672v3.328a1.279,1.279,0,0,0,1.266.7q1.258,0,1.3-2.172ZM309.742,97H307.1V88.547h2.641Zm-2.8-10.633a1.175,1.175,0,0,1,.406-.922,1.727,1.727,0,0,1,2.109,0,1.249,1.249,0,0,1,0,1.844,1.727,1.727,0,0,1-2.109,0A1.175,1.175,0,0,1,306.945,86.367Zm7.484.078v2.1h1.391v1.828H314.43v3.867a.987.987,0,0,0,.172.664.922.922,0,0,0,.68.188,3.862,3.862,0,0,0,.656-.047V96.93a4.859,4.859,0,0,1-1.484.227,2.758,2.758,0,0,1-2.008-.641,2.626,2.626,0,0,1-.648-1.945v-4.2h-1.078V88.547H311.8v-2.1ZM321.617,97a2.972,2.972,0,0,1-.25-.758,2.448,2.448,0,0,1-2.031.914,3,3,0,0,1-2.031-.723,2.3,2.3,0,0,1-.836-1.816,2.364,2.364,0,0,1,1.016-2.078,5.174,5.174,0,0,1,2.953-.7h.813v-.448q0-1.17-1.008-1.17a.824.824,0,0,0-.937.926h-2.633a2.36,2.36,0,0,1,1.043-1.99,4.383,4.383,0,0,1,2.66-.765,3.843,3.843,0,0,1,2.555.789,2.743,2.743,0,0,1,.961,2.164v3.742a3.832,3.832,0,0,0,.359,1.781V97Zm-1.648-1.719a1.469,1.469,0,0,0,.816-.211,1.322,1.322,0,0,0,.465-.477V93.242h-.766q-1.375,0-1.375,1.234a.754.754,0,0,0,.242.582A.876.876,0,0,0,319.969,95.281ZM328.125,97h-2.641V85h2.641Zm3.25-2.555a1.5,1.5,0,0,1,1.039.371,1.3,1.3,0,0,1,0,1.9,1.639,1.639,0,0,1-2.082,0,1.294,1.294,0,0,1,0-1.891A1.486,1.486,0,0,1,331.375,94.445Zm-321.312,38.7a4.154,4.154,0,0,1-.641,2.1,3.866,3.866,0,0,1-1.645,1.41,5.6,5.6,0,0,1-2.418.5A4.467,4.467,0,0,1,1.828,135.7,6.032,6.032,0,0,1,.539,131.57v-.562a6.885,6.885,0,0,1,.582-2.926A4.41,4.41,0,0,1,2.8,126.145a4.676,4.676,0,0,1,2.531-.684,4.9,4.9,0,0,1,3.328,1.09,4.306,4.306,0,0,1,1.43,3H7.352a2.037,2.037,0,0,0-.523-1.492,2.153,2.153,0,0,0-1.5-.453,1.638,1.638,0,0,0-1.5.766,4.921,4.921,0,0,0-.5,2.445v.8a5.445,5.445,0,0,0,.457,2.6,1.672,1.672,0,0,0,1.574.781,2.106,2.106,0,0,0,1.445-.445,1.89,1.89,0,0,0,.531-1.414ZM14.281,137H11.547V125.625h2.734Zm11.406,0H22.961l-4.031-7.078V137H16.188V125.625H18.93l4.023,7.078v-7.078h2.734Zm13.094-5.641H31.547v-2.031h7.234Zm0,3.43H31.547v-2.031h7.234Zm15.18-1.641a4.154,4.154,0,0,1-.641,2.1,3.866,3.866,0,0,1-1.645,1.41,5.6,5.6,0,0,1-2.418.5,4.467,4.467,0,0,1-3.531-1.461,6.032,6.032,0,0,1-1.289-4.125v-.562a6.885,6.885,0,0,1,.582-2.926,4.41,4.41,0,0,1,1.676-1.937,4.676,4.676,0,0,1,2.531-.684,4.9,4.9,0,0,1,3.328,1.09,4.306,4.306,0,0,1,1.43,3H51.25a2.037,2.037,0,0,0-.523-1.492,2.153,2.153,0,0,0-1.5-.453,1.638,1.638,0,0,0-1.5.766,4.921,4.921,0,0,0-.5,2.445v.8a5.445,5.445,0,0,0,.457,2.6,1.672,1.672,0,0,0,1.574.781,2.106,2.106,0,0,0,1.445-.445,1.89,1.89,0,0,0,.531-1.414ZM59.9,137a2.973,2.973,0,0,1-.25-.758,2.448,2.448,0,0,1-2.031.914,3,3,0,0,1-2.031-.723,2.3,2.3,0,0,1-.836-1.816,2.364,2.364,0,0,1,1.016-2.078,5.174,5.174,0,0,1,2.953-.7h.813v-.448q0-1.17-1.008-1.17a.824.824,0,0,0-.937.926H54.953A2.36,2.36,0,0,1,56,129.155a4.383,4.383,0,0,1,2.66-.765,3.843,3.843,0,0,1,2.555.789,2.743,2.743,0,0,1,.961,2.164v3.742a3.832,3.832,0,0,0,.359,1.781V137Zm-1.648-1.719a1.469,1.469,0,0,0,.816-.211,1.322,1.322,0,0,0,.465-.477v-1.352h-.766q-1.375,0-1.375,1.234a.754.754,0,0,0,.242.582A.876.876,0,0,0,58.25,135.281Zm13.227-2.445a5.1,5.1,0,0,1-.887,3.145,2.843,2.843,0,0,1-2.395,1.176,2.437,2.437,0,0,1-1.914-.852v3.945H63.648v-11.7h2.461l.078.781a2.437,2.437,0,0,1,1.992-.937,2.866,2.866,0,0,1,2.43,1.152,5.16,5.16,0,0,1,.867,3.168Zm-2.633-.164q0-2.25-1.312-2.25a1.239,1.239,0,0,0-1.25.672v3.328a1.279,1.279,0,0,0,1.266.7q1.258,0,1.3-2.172ZM75.414,137H72.773v-8.453h2.641Zm-2.8-10.633a1.175,1.175,0,0,1,.406-.922,1.727,1.727,0,0,1,2.109,0,1.249,1.249,0,0,1,0,1.844,1.727,1.727,0,0,1-2.109,0A1.175,1.175,0,0,1,72.617,126.367Zm7.484.078v2.1h1.391v1.828H80.1v3.867a.987.987,0,0,0,.172.664.922.922,0,0,0,.68.188,3.862,3.862,0,0,0,.656-.047v1.883a4.859,4.859,0,0,1-1.484.227,2.758,2.758,0,0,1-2.008-.641,2.626,2.626,0,0,1-.648-1.945v-4.2H76.391v-1.828h1.078v-2.1ZM87.289,137a2.973,2.973,0,0,1-.25-.758,2.448,2.448,0,0,1-2.031.914,3,3,0,0,1-2.031-.723,2.3,2.3,0,0,1-.836-1.816,2.364,2.364,0,0,1,1.016-2.078,5.174,5.174,0,0,1,2.953-.7h.813v-.448q0-1.17-1.008-1.17a.824.824,0,0,0-.937.926H82.344a2.36,2.36,0,0,1,1.043-1.99,4.383,4.383,0,0,1,2.66-.765,3.843,3.843,0,0,1,2.555.789,2.743,2.743,0,0,1,.961,2.164v3.742a3.832,3.832,0,0,0,.359,1.781V137Zm-1.648-1.719a1.469,1.469,0,0,0,.816-.211,1.322,1.322,0,0,0,.465-.477v-1.352h-.766q-1.375,0-1.375,1.234a.754.754,0,0,0,.242.582A.876.876,0,0,0,85.641,135.281ZM93.8,137H91.156V125H93.8Zm8.383,0H99.539v-8.453h2.641Zm-2.8-10.633a1.175,1.175,0,0,1,.406-.922,1.727,1.727,0,0,1,2.109,0,1.249,1.249,0,0,1,0,1.844,1.727,1.727,0,0,1-2.109,0A1.175,1.175,0,0,1,99.383,126.367Zm6.836,2.18.086.992a2.867,2.867,0,0,1,2.414-1.148,2.412,2.412,0,0,1,1.973.789,3.757,3.757,0,0,1,.676,2.375V137h-2.641v-5.336a1.426,1.426,0,0,0-.258-.941,1.193,1.193,0,0,0-.937-.3,1.256,1.256,0,0,0-1.148.609V137H103.75v-8.453Zm9.977,5.32,1.336-5.32H120.3L117.547,137h-2.687l-2.758-8.453h2.781Zm8.984,3.289a4.345,4.345,0,0,1-3.148-1.16,4.006,4.006,0,0,1-1.2-3.02v-.219a5.191,5.191,0,0,1,.48-2.289,3.516,3.516,0,0,1,1.4-1.535,4.233,4.233,0,0,1,2.188-.543,3.659,3.659,0,0,1,2.813,1.105,4.344,4.344,0,0,1,1.031,3.082V133.6h-5.234a1.9,1.9,0,0,0,.617,1.117,1.836,1.836,0,0,0,1.234.406,2.366,2.366,0,0,0,1.953-.875l1.2,1.422a3.363,3.363,0,0,1-1.395,1.082A4.712,4.712,0,0,1,125.18,137.156Zm-.3-6.734q-1.156,0-1.375,1.531h2.656v-.2a1.3,1.3,0,0,0-.32-.98A1.275,1.275,0,0,0,124.883,130.422Zm10.031.508-.867-.062a1.558,1.558,0,0,0-1.594.781V137H129.82v-8.453h2.469l.086,1.086a2.039,2.039,0,0,1,1.852-1.242,2.567,2.567,0,0,1,.734.094Zm4.406-4.484v2.1h1.391v1.828H139.32v3.867a.987.987,0,0,0,.172.664.922.922,0,0,0,.68.188,3.862,3.862,0,0,0,.656-.047v1.883a4.859,4.859,0,0,1-1.484.227,2.758,2.758,0,0,1-2.008-.641,2.626,2.626,0,0,1-.648-1.945v-4.2h-1.078v-1.828h1.078v-2.1Zm5.2,10.555h-2.641v-8.453h2.641Zm-2.8-10.633a1.175,1.175,0,0,1,.406-.922,1.727,1.727,0,0,1,2.109,0,1.249,1.249,0,0,1,0,1.844,1.727,1.727,0,0,1-2.109,0A1.175,1.175,0,0,1,141.727,126.367Zm4.086,6.344a5.164,5.164,0,0,1,.867-3.164,2.854,2.854,0,0,1,2.422-1.156,2.428,2.428,0,0,1,1.906.891V125h2.641v12h-2.367l-.133-.906a2.493,2.493,0,0,1-2.062,1.063A2.849,2.849,0,0,1,146.7,136,5.327,5.327,0,0,1,145.813,132.711Zm2.633.164q0,2.25,1.313,2.25a1.3,1.3,0,0,0,1.25-.734v-3.219a1.261,1.261,0,0,0-1.234-.75q-1.219,0-1.32,1.969Zm6.367-.18a4.989,4.989,0,0,1,.492-2.254,3.52,3.52,0,0,1,1.414-1.52,4.259,4.259,0,0,1,2.164-.531,3.887,3.887,0,0,1,2.992,1.176,4.512,4.512,0,0,1,1.094,3.2v.094a4.378,4.378,0,0,1-1.1,3.137,3.9,3.9,0,0,1-2.973,1.16,3.942,3.942,0,0,1-2.9-1.082,4.232,4.232,0,0,1-1.18-2.934Zm2.633.164a3.145,3.145,0,0,0,.367,1.719,1.223,1.223,0,0,0,1.086.547q1.406,0,1.438-2.164V132.7q0-2.273-1.453-2.273-1.32,0-1.43,1.961Zm10.336-.164a4.989,4.989,0,0,1,.492-2.254,3.52,3.52,0,0,1,1.414-1.52,4.259,4.259,0,0,1,2.164-.531,3.887,3.887,0,0,1,2.992,1.176,4.512,4.512,0,0,1,1.094,3.2v.094a4.378,4.378,0,0,1-1.1,3.137,3.9,3.9,0,0,1-2.973,1.16,3.942,3.942,0,0,1-2.9-1.082,4.232,4.232,0,0,1-1.18-2.934Zm2.633.164a3.145,3.145,0,0,0,.367,1.719,1.223,1.223,0,0,0,1.086.547q1.406,0,1.438-2.164V132.7q0-2.273-1.453-2.273-1.32,0-1.43,1.961ZM185.844,137a2.973,2.973,0,0,1-.25-.758,2.448,2.448,0,0,1-2.031.914,3,3,0,0,1-2.031-.723,2.3,2.3,0,0,1-.836-1.816,2.364,2.364,0,0,1,1.016-2.078,5.174,5.174,0,0,1,2.953-.7h.813v-.448q0-1.17-1.008-1.17a.824.824,0,0,0-.937.926H180.9a2.36,2.36,0,0,1,1.043-1.99,4.383,4.383,0,0,1,2.66-.765,3.843,3.843,0,0,1,2.555.789,2.743,2.743,0,0,1,.961,2.164v3.742a3.832,3.832,0,0,0,.359,1.781V137Zm-1.648-1.719a1.469,1.469,0,0,0,.816-.211,1.322,1.322,0,0,0,.465-.477v-1.352h-.766q-1.375,0-1.375,1.234a.754.754,0,0,0,.242.582A.876.876,0,0,0,184.2,135.281Zm8.953-.156a1.171,1.171,0,0,0,.859-.3,1.1,1.1,0,0,0,.3-.84h2.469a2.923,2.923,0,0,1-1,2.281,3.705,3.705,0,0,1-2.566.891A3.751,3.751,0,0,1,190.3,136a4.556,4.556,0,0,1-1.062-3.2v-.109a5.149,5.149,0,0,1,.473-2.262,3.441,3.441,0,0,1,1.363-1.508,4.065,4.065,0,0,1,2.109-.527,3.658,3.658,0,0,1,2.617.914,3.242,3.242,0,0,1,.969,2.477H194.3a1.445,1.445,0,0,0-.32-1.008,1.106,1.106,0,0,0-.859-.352q-1.023,0-1.2,1.3a9.207,9.207,0,0,0-.055,1.141,3.616,3.616,0,0,0,.3,1.766A1.055,1.055,0,0,0,193.148,135.125Zm7.8-8.68v2.1h1.391v1.828h-1.391v3.867a.987.987,0,0,0,.172.664.922.922,0,0,0,.68.188,3.862,3.862,0,0,0,.656-.047v1.883a4.859,4.859,0,0,1-1.484.227,2.758,2.758,0,0,1-2.008-.641,2.626,2.626,0,0,1-.648-1.945v-4.2h-1.078v-1.828h1.078v-2.1Zm5.2,10.555h-2.641v-8.453h2.641Zm-2.8-10.633a1.175,1.175,0,0,1,.406-.922,1.727,1.727,0,0,1,2.109,0,1.249,1.249,0,0,1,0,1.844,1.727,1.727,0,0,1-2.109,0A1.175,1.175,0,0,1,203.359,126.367Zm7.789,7.5,1.336-5.32h2.773L212.5,137h-2.687l-2.758-8.453h2.781Zm4.445-1.172a4.989,4.989,0,0,1,.492-2.254,3.52,3.52,0,0,1,1.414-1.52,4.259,4.259,0,0,1,2.164-.531,3.887,3.887,0,0,1,2.992,1.176,4.512,4.512,0,0,1,1.094,3.2v.094a4.378,4.378,0,0,1-1.1,3.137,3.9,3.9,0,0,1-2.973,1.16,3.942,3.942,0,0,1-2.9-1.082,4.232,4.232,0,0,1-1.18-2.934Zm2.633.164a3.145,3.145,0,0,0,.367,1.719,1.223,1.223,0,0,0,1.086.547q1.406,0,1.438-2.164V132.7q0-2.273-1.453-2.273-1.32,0-1.43,1.961Zm13.086-4.312.086.992a2.867,2.867,0,0,1,2.414-1.148,2.412,2.412,0,0,1,1.973.789,3.757,3.757,0,0,1,.676,2.375V137H233.82v-5.336a1.426,1.426,0,0,0-.258-.941,1.193,1.193,0,0,0-.937-.3,1.256,1.256,0,0,0-1.148.609V137h-2.633v-8.453Zm10.7,8.609a4.345,4.345,0,0,1-3.148-1.16,4.006,4.006,0,0,1-1.2-3.02v-.219a5.191,5.191,0,0,1,.48-2.289,3.516,3.516,0,0,1,1.4-1.535,4.233,4.233,0,0,1,2.188-.543,3.659,3.659,0,0,1,2.813,1.105,4.344,4.344,0,0,1,1.031,3.082V133.6h-5.234a1.9,1.9,0,0,0,.617,1.117,1.836,1.836,0,0,0,1.234.406,2.366,2.366,0,0,0,1.953-.875l1.2,1.422a3.363,3.363,0,0,1-1.395,1.082A4.712,4.712,0,0,1,242.008,137.156Zm-.3-6.734q-1.156,0-1.375,1.531h2.656v-.2a1.3,1.3,0,0,0-.32-.98A1.275,1.275,0,0,0,241.711,130.422Zm7.984-3.977v2.1h1.391v1.828H249.7v3.867a.987.987,0,0,0,.172.664.922.922,0,0,0,.68.188,3.862,3.862,0,0,0,.656-.047v1.883a4.859,4.859,0,0,1-1.484.227,2.758,2.758,0,0,1-2.008-.641,2.626,2.626,0,0,1-.648-1.945v-4.2h-1.078v-1.828h1.078v-2.1Zm1.859,6.25a4.989,4.989,0,0,1,.492-2.254,3.52,3.52,0,0,1,1.414-1.52,4.259,4.259,0,0,1,2.164-.531,3.887,3.887,0,0,1,2.992,1.176,4.512,4.512,0,0,1,1.094,3.2v.094a4.377,4.377,0,0,1-1.1,3.137,3.9,3.9,0,0,1-2.973,1.16,3.942,3.942,0,0,1-2.9-1.082,4.232,4.232,0,0,1-1.18-2.934Zm2.633.164a3.145,3.145,0,0,0,.367,1.719,1.223,1.223,0,0,0,1.086.547q1.406,0,1.438-2.164V132.7q0-2.273-1.453-2.273-1.32,0-1.43,1.961ZM265.469,137v-6.625h-1.227v-1.828h1.227v-.281a3.228,3.228,0,0,1,1.109-2.586,4.433,4.433,0,0,1,2.883-.844,10.23,10.23,0,0,1,2.75.453l-.359,2.078-.437-.117a6.962,6.962,0,0,0-1.8-.227q-1.508,0-1.508,1.375v.148h1.656v1.828h-1.656V137Zm7.953,0h-2.648v-8.453h2.648Zm4.023-8.453.086.992a2.867,2.867,0,0,1,2.414-1.148,2.412,2.412,0,0,1,1.973.789,3.756,3.756,0,0,1,.676,2.375V137h-2.641v-5.336a1.426,1.426,0,0,0-.258-.941,1.193,1.193,0,0,0-.937-.3,1.256,1.256,0,0,0-1.148.609V137h-2.633v-8.453ZM288.813,137a2.972,2.972,0,0,1-.25-.758,2.448,2.448,0,0,1-2.031.914,3,3,0,0,1-2.031-.723,2.3,2.3,0,0,1-.836-1.816,2.364,2.364,0,0,1,1.016-2.078,5.174,5.174,0,0,1,2.953-.7h.813v-.448q0-1.17-1.008-1.17a.824.824,0,0,0-.937.926h-2.633a2.36,2.36,0,0,1,1.043-1.99,4.383,4.383,0,0,1,2.66-.765,3.843,3.843,0,0,1,2.555.789,2.743,2.743,0,0,1,.961,2.164v3.742a3.832,3.832,0,0,0,.359,1.781V137Zm-1.648-1.719a1.469,1.469,0,0,0,.816-.211,1.322,1.322,0,0,0,.465-.477v-1.352h-.766q-1.375,0-1.375,1.234a.754.754,0,0,0,.242.582A.876.876,0,0,0,287.164,135.281Zm7.8-6.734.086.992a2.867,2.867,0,0,1,2.414-1.148,2.412,2.412,0,0,1,1.973.789,3.756,3.756,0,0,1,.676,2.375V137h-2.641v-5.336a1.426,1.426,0,0,0-.258-.941,1.193,1.193,0,0,0-.937-.3,1.256,1.256,0,0,0-1.148.609V137h-2.633v-8.453Zm10.18,6.578a1.171,1.171,0,0,0,.859-.3,1.1,1.1,0,0,0,.3-.84h2.469a2.923,2.923,0,0,1-1,2.281,3.705,3.705,0,0,1-2.566.891A3.751,3.751,0,0,1,302.3,136a4.556,4.556,0,0,1-1.062-3.2v-.109a5.149,5.149,0,0,1,.473-2.262,3.441,3.441,0,0,1,1.363-1.508,4.065,4.065,0,0,1,2.109-.527,3.658,3.658,0,0,1,2.617.914,3.242,3.242,0,0,1,.969,2.477H306.3a1.445,1.445,0,0,0-.32-1.008,1.106,1.106,0,0,0-.859-.352q-1.023,0-1.2,1.3a9.2,9.2,0,0,0-.055,1.141,3.616,3.616,0,0,0,.3,1.766A1.055,1.055,0,0,0,305.141,135.125ZM312.656,137h-2.641v-8.453h2.641Zm-2.8-10.633a1.175,1.175,0,0,1,.406-.922,1.727,1.727,0,0,1,2.109,0,1.249,1.249,0,0,1,0,1.844,1.727,1.727,0,0,1-2.109,0A1.175,1.175,0,0,1,309.859,126.367ZM319.039,137a2.972,2.972,0,0,1-.25-.758,2.448,2.448,0,0,1-2.031.914,3,3,0,0,1-2.031-.723,2.3,2.3,0,0,1-.836-1.816,2.364,2.364,0,0,1,1.016-2.078,5.174,5.174,0,0,1,2.953-.7h.813v-.448q0-1.17-1.008-1.17a.824.824,0,0,0-.937.926h-2.633a2.36,2.36,0,0,1,1.043-1.99,4.383,4.383,0,0,1,2.66-.765,3.843,3.843,0,0,1,2.555.789,2.743,2.743,0,0,1,.961,2.164v3.742a3.832,3.832,0,0,0,.359,1.781V137Zm-1.648-1.719a1.469,1.469,0,0,0,.816-.211,1.322,1.322,0,0,0,.465-.477v-1.352h-.766q-1.375,0-1.375,1.234a.754.754,0,0,0,.242.582A.876.876,0,0,0,317.391,135.281Zm5.047-2.57a5.164,5.164,0,0,1,.867-3.164,2.854,2.854,0,0,1,2.422-1.156,2.428,2.428,0,0,1,1.906.891V125h2.641v12h-2.367l-.133-.906a2.493,2.493,0,0,1-2.062,1.063A2.849,2.849,0,0,1,323.32,136,5.327,5.327,0,0,1,322.438,132.711Zm2.633.164q0,2.25,1.313,2.25a1.3,1.3,0,0,0,1.25-.734v-3.219a1.261,1.261,0,0,0-1.234-.75q-1.219,0-1.32,1.969Zm6.367-.18a4.989,4.989,0,0,1,.492-2.254,3.52,3.52,0,0,1,1.414-1.52,4.259,4.259,0,0,1,2.164-.531,3.887,3.887,0,0,1,2.992,1.176,4.512,4.512,0,0,1,1.094,3.2v.094A4.377,4.377,0,0,1,338.5,136a3.9,3.9,0,0,1-2.973,1.16,3.941,3.941,0,0,1-2.9-1.082,4.232,4.232,0,0,1-1.18-2.934Zm2.633.164a3.145,3.145,0,0,0,.367,1.719,1.223,1.223,0,0,0,1.086.547q1.406,0,1.438-2.164V132.7q0-2.273-1.453-2.273-1.32,0-1.43,1.961Zm10.867-.484a11.939,11.939,0,0,1,.508-3.547,8.56,8.56,0,0,1,1.4-2.781,4.98,4.98,0,0,1,1.988-1.594l.5,1.3a5.093,5.093,0,0,0-1.691,2.512,12.251,12.251,0,0,0-.605,4v.344a12.49,12.49,0,0,0,.6,4.078,5.072,5.072,0,0,0,1.7,2.531l-.5,1.3a4.931,4.931,0,0,1-1.988-1.6,8.43,8.43,0,0,1-1.4-2.77,12,12,0,0,1-.508-3.422Zm12.031,2.5h-3.758L352.555,137h-2.93l4.172-11.375h2.578l4.2,11.375h-2.945Zm-3.1-2.117h2.445l-1.227-3.945ZM370.906,137H368.18l-4.031-7.078V137h-2.742V125.625h2.742l4.023,7.078v-7.078h2.734Zm8.9-4.531h-4.422V137h-2.742V125.625h7.609v2.117h-4.867v2.617H379.8Zm5.617.125a11.14,11.14,0,0,1-.539,3.484,8.9,8.9,0,0,1-1.488,2.832,4.955,4.955,0,0,1-2.051,1.605l-.5-1.3a5.144,5.144,0,0,0,1.68-2.5,12.068,12.068,0,0,0,.617-3.883v-.477a12.49,12.49,0,0,0-.6-4.078,5.072,5.072,0,0,0-1.7-2.531l.5-1.3a5.046,5.046,0,0,1,2.035,1.59,8.787,8.787,0,0,1,1.484,2.789,11.046,11.046,0,0,1,.559,3.418Zm3.109,1.852a1.5,1.5,0,0,1,1.039.371,1.3,1.3,0,0,1,0,1.9,1.639,1.639,0,0,1-2.082,0,1.294,1.294,0,0,1,0-1.891A1.486,1.486,0,0,1,388.531,134.445Z" transform="translate(193.031 2996)" fill="#12263f"/>
  </g>
</svg>
