<svg xmlns="http://www.w3.org/2000/svg" width="522.802" height="397.116" viewBox="0 0 522.802 397.116">
  <g id="Grupo_93177" data-name="Grupo 93177" transform="translate(-1149.188 1525.468)">
    <g id="Grupo_93169" data-name="Grupo 93169" transform="translate(1005.51 -4100.968)">
      <rect id="Rectángulo_31816" data-name="Rectángulo 31816" width="382.625" height="114.498" transform="translate(220.131 2858.118)" fill="#6595bf"/>
      <g id="Grupo_89142" data-name="Grupo 89142" transform="translate(209.076 2852)">
        <rect id="Rectángulo_31778" data-name="Rectángulo 31778" width="389.32" height="116.049" transform="translate(0 0)" fill="#fff" stroke="#12263f" stroke-miterlimit="10" stroke-width="1"/>
      </g>
      <g id="Grupo_89143" data-name="Grupo 89143" transform="translate(134.872 2883.465)">
        <path id="Trazado_148618" data-name="Trazado 148618" d="M3.827-4.1V0H.913V-12.086H5.736a5.617,5.617,0,0,1,2.453.51,3.847,3.847,0,0,1,1.652,1.453,3.967,3.967,0,0,1,.585,2.137A3.5,3.5,0,0,1,9.16-5.159,5.252,5.252,0,0,1,5.686-4.1Zm0-2.25H5.736a1.8,1.8,0,0,0,1.291-.423,1.573,1.573,0,0,0,.444-1.2,1.944,1.944,0,0,0-.457-1.353,1.617,1.617,0,0,0-1.245-.515H3.827Zm7.562,1.776a5.3,5.3,0,0,1,.523-2.395,3.74,3.74,0,0,1,1.5-1.615,4.525,4.525,0,0,1,2.3-.564A4.13,4.13,0,0,1,18.893-7.9a4.794,4.794,0,0,1,1.162,3.4v.1a4.651,4.651,0,0,1-1.166,3.333A4.141,4.141,0,0,1,15.73.166a4.188,4.188,0,0,1-3.08-1.15A4.5,4.5,0,0,1,11.4-4.1Zm2.8.174a3.342,3.342,0,0,0,.39,1.826,1.3,1.3,0,0,0,1.154.581q1.494,0,1.527-2.3v-.282q0-2.416-1.544-2.416-1.4,0-1.519,2.083Zm9.67-4.582.091,1.054a3.046,3.046,0,0,1,2.565-1.22,2.562,2.562,0,0,1,2.1.838,3.991,3.991,0,0,1,.718,2.523V0H26.521V-5.669a1.516,1.516,0,0,0-.274-1,1.267,1.267,0,0,0-1-.32,1.334,1.334,0,0,0-1.22.647V0h-2.8V-8.981Zm6.666,4.424a5.486,5.486,0,0,1,.921-3.362,3.033,3.033,0,0,1,2.573-1.229,2.579,2.579,0,0,1,2.025.946V-12.75h2.806V0H36.333l-.141-.963A2.649,2.649,0,0,1,34,.166a3.027,3.027,0,0,1-2.54-1.229A5.66,5.66,0,0,1,30.522-4.557Zm2.8.174q0,2.391,1.395,2.391a1.377,1.377,0,0,0,1.328-.78v-3.42a1.34,1.34,0,0,0-1.312-.8q-1.295,0-1.4,2.092ZM44.783.166a4.617,4.617,0,0,1-3.345-1.233,4.257,4.257,0,0,1-1.278-3.208v-.232a5.516,5.516,0,0,1,.51-2.432,3.735,3.735,0,0,1,1.49-1.631,4.5,4.5,0,0,1,2.324-.577,3.888,3.888,0,0,1,2.988,1.175,4.616,4.616,0,0,1,1.1,3.275v1.087H43.006a2.016,2.016,0,0,0,.656,1.187,1.951,1.951,0,0,0,1.312.432,2.514,2.514,0,0,0,2.075-.93l1.278,1.511a3.573,3.573,0,0,1-1.482,1.15A5.007,5.007,0,0,1,44.783.166Zm-.315-7.155q-1.229,0-1.461,1.627h2.822v-.216a1.386,1.386,0,0,0-.34-1.042A1.354,1.354,0,0,0,44.467-6.989Zm10.658.54L54.2-6.516a1.655,1.655,0,0,0-1.693.83V0h-2.8V-8.981h2.623l.091,1.154A2.166,2.166,0,0,1,54.4-9.147a2.728,2.728,0,0,1,.78.1ZM60.944,0a3.158,3.158,0,0,1-.266-.805,2.6,2.6,0,0,1-2.158.971A3.187,3.187,0,0,1,56.362-.6a2.444,2.444,0,0,1-.888-1.93A2.512,2.512,0,0,1,56.553-4.74a5.5,5.5,0,0,1,3.138-.747h.863v-.475q0-1.243-1.071-1.243a.875.875,0,0,0-1,.984h-2.8A2.508,2.508,0,0,1,56.8-8.335a4.657,4.657,0,0,1,2.826-.813,4.083,4.083,0,0,1,2.714.838,2.915,2.915,0,0,1,1.021,2.3v3.976a4.072,4.072,0,0,0,.382,1.893V0ZM59.193-1.826a1.56,1.56,0,0,0,.867-.224,1.4,1.4,0,0,0,.494-.506V-3.993h-.813q-1.461,0-1.461,1.312a.8.8,0,0,0,.257.618A.931.931,0,0,0,59.193-1.826Zm9.513-.166a1.244,1.244,0,0,0,.913-.32,1.172,1.172,0,0,0,.315-.892h2.623A3.105,3.105,0,0,1,71.5-.78a3.937,3.937,0,0,1-2.727.946,3.986,3.986,0,0,1-3.088-1.229,4.841,4.841,0,0,1-1.129-3.4v-.116a5.471,5.471,0,0,1,.5-2.4,3.656,3.656,0,0,1,1.448-1.6,4.319,4.319,0,0,1,2.241-.56,3.887,3.887,0,0,1,2.781.971,3.445,3.445,0,0,1,1.029,2.631H69.934a1.536,1.536,0,0,0-.34-1.071,1.175,1.175,0,0,0-.913-.374q-1.087,0-1.27,1.386a9.782,9.782,0,0,0-.058,1.212,3.842,3.842,0,0,0,.324,1.876A1.121,1.121,0,0,0,68.706-1.992ZM76.691,0H73.885V-8.981h2.806ZM73.719-11.3a1.249,1.249,0,0,1,.432-.979,1.629,1.629,0,0,1,1.121-.382,1.629,1.629,0,0,1,1.121.382,1.249,1.249,0,0,1,.432.979,1.249,1.249,0,0,1-.432.979,1.629,1.629,0,0,1-1.121.382,1.629,1.629,0,0,1-1.121-.382A1.249,1.249,0,0,1,73.719-11.3Zm4.341,6.724a5.3,5.3,0,0,1,.523-2.395,3.74,3.74,0,0,1,1.5-1.615,4.525,4.525,0,0,1,2.3-.564A4.13,4.13,0,0,1,85.564-7.9a4.794,4.794,0,0,1,1.162,3.4v.1A4.651,4.651,0,0,1,85.56-1.067,4.141,4.141,0,0,1,82.4.166a4.188,4.188,0,0,1-3.08-1.15A4.5,4.5,0,0,1,78.069-4.1Zm2.8.174a3.342,3.342,0,0,0,.39,1.826,1.3,1.3,0,0,0,1.154.581q1.494,0,1.527-2.3v-.282q0-2.416-1.544-2.416-1.4,0-1.519,2.083Zm1.909-8.351h2.955l-2.308,2.606-2.283,0Zm7.761,3.769.091,1.054a3.046,3.046,0,0,1,2.565-1.22,2.562,2.562,0,0,1,2.1.838A3.991,3.991,0,0,1,96-5.786V0H93.193V-5.669a1.516,1.516,0,0,0-.274-1,1.267,1.267,0,0,0-1-.32,1.334,1.334,0,0,0-1.22.647V0h-2.8V-8.981Zm10.9,4.408a5.3,5.3,0,0,1,.523-2.395,3.74,3.74,0,0,1,1.5-1.615,4.525,4.525,0,0,1,2.3-.564A4.13,4.13,0,0,1,108.931-7.9a4.794,4.794,0,0,1,1.162,3.4v.1a4.651,4.651,0,0,1-1.166,3.333A4.141,4.141,0,0,1,105.769.166a4.188,4.188,0,0,1-3.08-1.15A4.5,4.5,0,0,1,101.436-4.1Zm2.8.174a3.342,3.342,0,0,0,.39,1.826,1.3,1.3,0,0,0,1.154.581q1.494,0,1.527-2.3v-.282q0-2.416-1.544-2.416-1.4,0-1.519,2.083Zm15.439-.017a5.474,5.474,0,0,1-.913,3.4A3.058,3.058,0,0,1,116.178.166,2.654,2.654,0,0,1,113.97-.921L113.854,0h-2.507V-12.75h2.8v4.491a2.561,2.561,0,0,1,2.017-.888,3.059,3.059,0,0,1,2.59,1.2,5.5,5.5,0,0,1,.913,3.387Zm-2.806-.178a3.651,3.651,0,0,0-.344-1.844,1.161,1.161,0,0,0-1.058-.551,1.339,1.339,0,0,0-1.312.721V-2.7a1.347,1.347,0,0,0,1.328.713,1.188,1.188,0,0,0,1.253-.961A6.9,6.9,0,0,0,116.858-4.594ZM123.848,0h-2.806V-12.75h2.806Zm4.673,0h-2.806V-8.981h2.806Zm-2.972-11.3a1.249,1.249,0,0,1,.432-.979,1.629,1.629,0,0,1,1.121-.382,1.629,1.629,0,0,1,1.121.382,1.249,1.249,0,0,1,.432.979,1.249,1.249,0,0,1-.432.979,1.629,1.629,0,0,1-1.121.382,1.629,1.629,0,0,1-1.121-.382A1.249,1.249,0,0,1,125.549-11.3Zm4.366,6.74a6.064,6.064,0,0,1,.448-2.407,3.609,3.609,0,0,1,1.287-1.615,3.392,3.392,0,0,1,1.951-.569,2.7,2.7,0,0,1,2.191.946l.1-.78h2.54V-.34a3.787,3.787,0,0,1-.552,2.063,3.542,3.542,0,0,1-1.6,1.345,5.873,5.873,0,0,1-2.424.469,5.067,5.067,0,0,1-1.913-.374,3.454,3.454,0,0,1-1.415-.971L131.7.548a2.565,2.565,0,0,0,2.059.921A1.666,1.666,0,0,0,135.618-.44V-.722a2.627,2.627,0,0,1-2.034.888,3.246,3.246,0,0,1-2.656-1.258,5.21,5.21,0,0,1-1.013-3.366Zm2.806.174a3.2,3.2,0,0,0,.415,1.747,1.309,1.309,0,0,0,1.162.643,1.486,1.486,0,0,0,1.32-.606V-6.375a1.449,1.449,0,0,0-1.3-.614,1.318,1.318,0,0,0-1.17.668A3.644,3.644,0,0,0,132.721-4.383ZM145.081,0a3.158,3.158,0,0,1-.266-.805,2.6,2.6,0,0,1-2.158.971A3.187,3.187,0,0,1,140.5-.6a2.444,2.444,0,0,1-.888-1.93A2.512,2.512,0,0,1,140.69-4.74a5.5,5.5,0,0,1,3.138-.747h.863v-.475q0-1.243-1.071-1.243a.875.875,0,0,0-1,.984h-2.8a2.508,2.508,0,0,1,1.108-2.114,4.657,4.657,0,0,1,2.826-.813,4.083,4.083,0,0,1,2.714.838,2.915,2.915,0,0,1,1.021,2.3v3.976a4.072,4.072,0,0,0,.382,1.893V0ZM143.33-1.826a1.56,1.56,0,0,0,.867-.224,1.4,1.4,0,0,0,.494-.506V-3.993h-.813q-1.461,0-1.461,1.312a.8.8,0,0,0,.257.618A.931.931,0,0,0,143.33-1.826Zm9.513-.166a1.244,1.244,0,0,0,.913-.32,1.172,1.172,0,0,0,.315-.892h2.623A3.105,3.105,0,0,1,155.635-.78a3.937,3.937,0,0,1-2.727.946,3.986,3.986,0,0,1-3.088-1.229,4.84,4.84,0,0,1-1.129-3.4v-.116a5.471,5.471,0,0,1,.5-2.4,3.656,3.656,0,0,1,1.448-1.6,4.319,4.319,0,0,1,2.241-.56,3.887,3.887,0,0,1,2.781.971,3.445,3.445,0,0,1,1.029,2.631h-2.623a1.536,1.536,0,0,0-.34-1.071,1.175,1.175,0,0,0-.913-.374q-1.087,0-1.27,1.386a9.781,9.781,0,0,0-.058,1.212,3.842,3.842,0,0,0,.324,1.876A1.121,1.121,0,0,0,152.842-1.992ZM160.828,0h-2.806V-8.981h2.806Zm-2.972-11.3a1.249,1.249,0,0,1,.432-.979,1.629,1.629,0,0,1,1.121-.382,1.629,1.629,0,0,1,1.121.382,1.249,1.249,0,0,1,.432.979,1.249,1.249,0,0,1-.432.979,1.629,1.629,0,0,1-1.121.382,1.629,1.629,0,0,1-1.121-.382A1.249,1.249,0,0,1,157.856-11.3ZM162.2-4.574a5.3,5.3,0,0,1,.523-2.395,3.74,3.74,0,0,1,1.5-1.615,4.525,4.525,0,0,1,2.3-.564A4.13,4.13,0,0,1,169.7-7.9a4.794,4.794,0,0,1,1.162,3.4v.1A4.651,4.651,0,0,1,169.7-1.067,4.141,4.141,0,0,1,166.539.166a4.188,4.188,0,0,1-3.08-1.15A4.5,4.5,0,0,1,162.206-4.1Zm2.8.174a3.342,3.342,0,0,0,.39,1.826,1.3,1.3,0,0,0,1.154.581q1.494,0,1.527-2.3v-.282q0-2.416-1.544-2.416-1.4,0-1.519,2.083Zm9.67-4.582.091,1.054a3.046,3.046,0,0,1,2.565-1.22,2.562,2.562,0,0,1,2.1.838,3.991,3.991,0,0,1,.718,2.523V0H177.33V-5.669a1.516,1.516,0,0,0-.274-1,1.267,1.267,0,0,0-1-.32,1.334,1.334,0,0,0-1.22.647V0h-2.8V-8.981ZM186.029.166a4.617,4.617,0,0,1-3.345-1.233,4.257,4.257,0,0,1-1.278-3.208v-.232a5.516,5.516,0,0,1,.51-2.432,3.735,3.735,0,0,1,1.49-1.631,4.5,4.5,0,0,1,2.324-.577,3.888,3.888,0,0,1,2.988,1.175,4.616,4.616,0,0,1,1.1,3.275v1.087h-5.562a2.016,2.016,0,0,0,.656,1.187,1.951,1.951,0,0,0,1.312.432,2.514,2.514,0,0,0,2.075-.93l1.278,1.511a3.573,3.573,0,0,1-1.482,1.15A5.007,5.007,0,0,1,186.029.166Zm-.315-7.155q-1.229,0-1.461,1.627h2.822v-.216a1.386,1.386,0,0,0-.34-1.042A1.354,1.354,0,0,0,185.713-6.989Zm9.928,4.466a.646.646,0,0,0-.374-.573,5.682,5.682,0,0,0-1.419-.448,6.473,6.473,0,0,1-1.727-.61,2.892,2.892,0,0,1-1.038-.917,2.19,2.19,0,0,1-.357-1.237,2.482,2.482,0,0,1,1.021-2.038,4.206,4.206,0,0,1,2.673-.8,4.66,4.66,0,0,1,2.855.805,2.518,2.518,0,0,1,1.079,2.117H195.55q0-1.079-1.137-1.079a1.127,1.127,0,0,0-.739.245.758.758,0,0,0-.3.61.7.7,0,0,0,.365.606,3.451,3.451,0,0,0,1.166.382,10.079,10.079,0,0,1,1.407.357,2.556,2.556,0,0,1,2.025,2.5,2.352,2.352,0,0,1-1.092,2,4.787,4.787,0,0,1-2.826.772,4.885,4.885,0,0,1-2.059-.415,3.442,3.442,0,0,1-1.411-1.129,2.556,2.556,0,0,1-.506-1.5h2.615a1.081,1.081,0,0,0,.415.909,1.707,1.707,0,0,0,1.021.286,1.343,1.343,0,0,0,.859-.232A.743.743,0,0,0,195.641-2.523Zm16.2-3.47h-7.687V-8.151h7.687Zm0,3.644h-7.687V-4.507h7.687ZM222.419-5.9l.739-6.182h7.064v2.175h-4.79l-.274,2.4a3.3,3.3,0,0,1,.784-.308,3.579,3.579,0,0,1,.95-.133,3.546,3.546,0,0,1,2.768,1.067,4.3,4.3,0,0,1,.967,2.992,4.289,4.289,0,0,1-.519,2.1A3.566,3.566,0,0,1,228.653-.34a4.6,4.6,0,0,1-2.216.506A4.949,4.949,0,0,1,224.3-.3a3.827,3.827,0,0,1-1.561-1.286,3.124,3.124,0,0,1-.556-1.845h2.806a1.587,1.587,0,0,0,.423,1.052,1.344,1.344,0,0,0,1,.389q1.411,0,1.411-2.088,0-1.93-1.727-1.93a1.723,1.723,0,0,0-1.461.63Zm10.708,9.158-1.411-.664L232,2.025A4.6,4.6,0,0,0,232.6-.033V-2.108h2.241l-.008,1.8a4.5,4.5,0,0,1-.49,1.942A4.935,4.935,0,0,1,233.127,3.254ZM245.114,0H236.68V-1.826l3.885-4.084A4.637,4.637,0,0,0,242-8.508a1.807,1.807,0,0,0-.34-1.187,1.215,1.215,0,0,0-.988-.407,1.23,1.23,0,0,0-1.038.544,2.234,2.234,0,0,0-.4,1.357h-2.806a3.969,3.969,0,0,1,.556-2.054,3.9,3.9,0,0,1,1.544-1.473,4.586,4.586,0,0,1,2.208-.531,4.512,4.512,0,0,1,3.017.9,3.23,3.23,0,0,1,1.058,2.6,3.773,3.773,0,0,1-.266,1.39,6.1,6.1,0,0,1-.826,1.419,20.805,20.805,0,0,1-1.805,1.988l-1.561,1.8h4.756Zm9.845,0h-8.434V-1.826L250.41-5.91a4.637,4.637,0,0,0,1.436-2.6,1.807,1.807,0,0,0-.34-1.187,1.215,1.215,0,0,0-.988-.407,1.23,1.23,0,0,0-1.038.544,2.234,2.234,0,0,0-.4,1.357h-2.806a3.969,3.969,0,0,1,.556-2.054,3.9,3.9,0,0,1,1.544-1.473,4.586,4.586,0,0,1,2.208-.531,4.512,4.512,0,0,1,3.017.9,3.23,3.23,0,0,1,1.058,2.6,3.773,3.773,0,0,1-.266,1.39,6.1,6.1,0,0,1-.826,1.419,20.805,20.805,0,0,1-1.805,1.988l-1.561,1.8h4.756Zm1.419-9.762a2.372,2.372,0,0,1,.73-1.81,2.739,2.739,0,0,1,1.959-.689,2.742,2.742,0,0,1,1.967.685,2.435,2.435,0,0,1,.722,1.855v.6a2.359,2.359,0,0,1-.722,1.8,2.729,2.729,0,0,1-1.951.681,2.8,2.8,0,0,1-1.963-.677,2.384,2.384,0,0,1-.743-1.855Zm1.8.637a1,1,0,0,0,.241.7.847.847,0,0,0,.664.268q.872,0,.872-1.105V-9.76a1.058,1.058,0,0,0-.232-.705.81.81,0,0,0-.656-.276.827.827,0,0,0-.647.268,1.052,1.052,0,0,0-.241.73Zm3.943,6.161a2.349,2.349,0,0,1,.735-1.81,2.762,2.762,0,0,1,1.955-.681,2.792,2.792,0,0,1,1.967.672,2.422,2.422,0,0,1,.73,1.876v.581a2.37,2.37,0,0,1-.722,1.81,2.74,2.74,0,0,1-1.959.681,2.8,2.8,0,0,1-1.963-.677,2.384,2.384,0,0,1-.743-1.855Zm1.793.637a.981.981,0,0,0,.266.68.842.842,0,0,0,.647.293.763.763,0,0,0,.872-.759l.008-.85a1.015,1.015,0,0,0-.241-.705.837.837,0,0,0-.656-.268.844.844,0,0,0-.639.252,1,1,0,0,0-.257.68ZM259.615-.9l-1.3-.656,5.9-9.446,1.3.656Z" transform="translate(134 37.851)" fill="#12263f"/>
      </g>
    </g>
    <g id="Grupo_93170" data-name="Grupo 93170" transform="translate(955.51 -4376.968)">
      <rect id="Rectángulo_31816-2" data-name="Rectángulo 31816" width="511.247" height="114.498" transform="translate(205.233 2858.118)" fill="#6595bf"/>
      <g id="Grupo_89142-2" data-name="Grupo 89142" transform="translate(194.177 2852)">
        <rect id="Rectángulo_31778-2" data-name="Rectángulo 31778" width="517.942" height="116.049" transform="translate(0 0)" fill="#fff" stroke="#12263f" stroke-miterlimit="10" stroke-width="1"/>
      </g>
      <g id="Grupo_89143-2" data-name="Grupo 89143" transform="translate(134.872 2883.465)">
        <path id="Trazado_148616" data-name="Trazado 148616" d="M3.827-4.1V0H.913V-12.086H5.736a5.617,5.617,0,0,1,2.453.51,3.847,3.847,0,0,1,1.652,1.453,3.967,3.967,0,0,1,.585,2.137A3.5,3.5,0,0,1,9.16-5.159,5.252,5.252,0,0,1,5.686-4.1Zm0-2.25H5.736a1.8,1.8,0,0,0,1.291-.423,1.573,1.573,0,0,0,.444-1.2,1.944,1.944,0,0,0-.457-1.353,1.617,1.617,0,0,0-1.245-.515H3.827Zm7.562,1.776a5.3,5.3,0,0,1,.523-2.395,3.74,3.74,0,0,1,1.5-1.615,4.525,4.525,0,0,1,2.3-.564A4.13,4.13,0,0,1,18.893-7.9a4.794,4.794,0,0,1,1.162,3.4v.1a4.651,4.651,0,0,1-1.166,3.333A4.141,4.141,0,0,1,15.73.166a4.188,4.188,0,0,1-3.08-1.15A4.5,4.5,0,0,1,11.4-4.1Zm2.8.174a3.342,3.342,0,0,0,.39,1.826,1.3,1.3,0,0,0,1.154.581q1.494,0,1.527-2.3v-.282q0-2.416-1.544-2.416-1.4,0-1.519,2.083Zm9.67-4.582.091,1.054a3.046,3.046,0,0,1,2.565-1.22,2.562,2.562,0,0,1,2.1.838,3.991,3.991,0,0,1,.718,2.523V0H26.521V-5.669a1.516,1.516,0,0,0-.274-1,1.267,1.267,0,0,0-1-.32,1.334,1.334,0,0,0-1.22.647V0h-2.8V-8.981Zm6.666,4.424a5.486,5.486,0,0,1,.921-3.362,3.033,3.033,0,0,1,2.573-1.229,2.579,2.579,0,0,1,2.025.946V-12.75h2.806V0H36.333l-.141-.963A2.649,2.649,0,0,1,34,.166a3.027,3.027,0,0,1-2.54-1.229A5.66,5.66,0,0,1,30.522-4.557Zm2.8.174q0,2.391,1.395,2.391a1.377,1.377,0,0,0,1.328-.78v-3.42a1.34,1.34,0,0,0-1.312-.8q-1.295,0-1.4,2.092ZM44.783.166a4.617,4.617,0,0,1-3.345-1.233,4.257,4.257,0,0,1-1.278-3.208v-.232a5.516,5.516,0,0,1,.51-2.432,3.735,3.735,0,0,1,1.49-1.631,4.5,4.5,0,0,1,2.324-.577,3.888,3.888,0,0,1,2.988,1.175,4.616,4.616,0,0,1,1.1,3.275v1.087H43.006a2.016,2.016,0,0,0,.656,1.187,1.951,1.951,0,0,0,1.312.432,2.514,2.514,0,0,0,2.075-.93l1.278,1.511a3.573,3.573,0,0,1-1.482,1.15A5.007,5.007,0,0,1,44.783.166Zm-.315-7.155q-1.229,0-1.461,1.627h2.822v-.216a1.386,1.386,0,0,0-.34-1.042A1.354,1.354,0,0,0,44.467-6.989Zm10.658.54L54.2-6.516a1.655,1.655,0,0,0-1.693.83V0h-2.8V-8.981h2.623l.091,1.154A2.166,2.166,0,0,1,54.4-9.147a2.728,2.728,0,0,1,.78.1ZM60.944,0a3.158,3.158,0,0,1-.266-.805,2.6,2.6,0,0,1-2.158.971A3.187,3.187,0,0,1,56.362-.6a2.444,2.444,0,0,1-.888-1.93A2.512,2.512,0,0,1,56.553-4.74a5.5,5.5,0,0,1,3.138-.747h.863v-.475q0-1.243-1.071-1.243a.875.875,0,0,0-1,.984h-2.8A2.508,2.508,0,0,1,56.8-8.335a4.657,4.657,0,0,1,2.826-.813,4.083,4.083,0,0,1,2.714.838,2.915,2.915,0,0,1,1.021,2.3v3.976a4.072,4.072,0,0,0,.382,1.893V0ZM59.193-1.826a1.56,1.56,0,0,0,.867-.224,1.4,1.4,0,0,0,.494-.506V-3.993h-.813q-1.461,0-1.461,1.312a.8.8,0,0,0,.257.618A.931.931,0,0,0,59.193-1.826Zm9.513-.166a1.244,1.244,0,0,0,.913-.32,1.172,1.172,0,0,0,.315-.892h2.623A3.105,3.105,0,0,1,71.5-.78a3.937,3.937,0,0,1-2.727.946,3.986,3.986,0,0,1-3.088-1.229,4.841,4.841,0,0,1-1.129-3.4v-.116a5.471,5.471,0,0,1,.5-2.4,3.656,3.656,0,0,1,1.448-1.6,4.319,4.319,0,0,1,2.241-.56,3.887,3.887,0,0,1,2.781.971,3.445,3.445,0,0,1,1.029,2.631H69.934a1.536,1.536,0,0,0-.34-1.071,1.175,1.175,0,0,0-.913-.374q-1.087,0-1.27,1.386a9.782,9.782,0,0,0-.058,1.212,3.842,3.842,0,0,0,.324,1.876A1.121,1.121,0,0,0,68.706-1.992ZM76.691,0H73.885V-8.981h2.806ZM73.719-11.3a1.249,1.249,0,0,1,.432-.979,1.629,1.629,0,0,1,1.121-.382,1.629,1.629,0,0,1,1.121.382,1.249,1.249,0,0,1,.432.979,1.249,1.249,0,0,1-.432.979,1.629,1.629,0,0,1-1.121.382,1.629,1.629,0,0,1-1.121-.382A1.249,1.249,0,0,1,73.719-11.3Zm4.341,6.724a5.3,5.3,0,0,1,.523-2.395,3.74,3.74,0,0,1,1.5-1.615,4.525,4.525,0,0,1,2.3-.564A4.13,4.13,0,0,1,85.564-7.9a4.794,4.794,0,0,1,1.162,3.4v.1A4.651,4.651,0,0,1,85.56-1.067,4.141,4.141,0,0,1,82.4.166a4.188,4.188,0,0,1-3.08-1.15A4.5,4.5,0,0,1,78.069-4.1Zm2.8.174a3.342,3.342,0,0,0,.39,1.826,1.3,1.3,0,0,0,1.154.581q1.494,0,1.527-2.3v-.282q0-2.416-1.544-2.416-1.4,0-1.519,2.083Zm1.909-8.351h2.955l-2.308,2.606-2.283,0Zm7.761,3.769.091,1.054a3.046,3.046,0,0,1,2.565-1.22,2.562,2.562,0,0,1,2.1.838A3.991,3.991,0,0,1,96-5.786V0H93.193V-5.669a1.516,1.516,0,0,0-.274-1,1.267,1.267,0,0,0-1-.32,1.334,1.334,0,0,0-1.22.647V0h-2.8V-8.981Zm10.9,4.408a5.3,5.3,0,0,1,.523-2.395,3.74,3.74,0,0,1,1.5-1.615,4.525,4.525,0,0,1,2.3-.564A4.13,4.13,0,0,1,108.931-7.9a4.794,4.794,0,0,1,1.162,3.4v.1a4.651,4.651,0,0,1-1.166,3.333A4.141,4.141,0,0,1,105.769.166a4.188,4.188,0,0,1-3.08-1.15A4.5,4.5,0,0,1,101.436-4.1Zm2.8.174a3.342,3.342,0,0,0,.39,1.826,1.3,1.3,0,0,0,1.154.581q1.494,0,1.527-2.3v-.282q0-2.416-1.544-2.416-1.4,0-1.519,2.083Zm15.439-.017a5.474,5.474,0,0,1-.913,3.4A3.058,3.058,0,0,1,116.178.166,2.654,2.654,0,0,1,113.97-.921L113.854,0h-2.507V-12.75h2.8v4.491a2.561,2.561,0,0,1,2.017-.888,3.059,3.059,0,0,1,2.59,1.2,5.5,5.5,0,0,1,.913,3.387Zm-2.806-.178a3.651,3.651,0,0,0-.344-1.844,1.161,1.161,0,0,0-1.058-.551,1.339,1.339,0,0,0-1.312.721V-2.7a1.347,1.347,0,0,0,1.328.713,1.188,1.188,0,0,0,1.253-.961A6.9,6.9,0,0,0,116.858-4.594ZM123.848,0h-2.806V-12.75h2.806Zm4.673,0h-2.806V-8.981h2.806Zm-2.972-11.3a1.249,1.249,0,0,1,.432-.979,1.629,1.629,0,0,1,1.121-.382,1.629,1.629,0,0,1,1.121.382,1.249,1.249,0,0,1,.432.979,1.249,1.249,0,0,1-.432.979,1.629,1.629,0,0,1-1.121.382,1.629,1.629,0,0,1-1.121-.382A1.249,1.249,0,0,1,125.549-11.3Zm4.366,6.74a6.064,6.064,0,0,1,.448-2.407,3.609,3.609,0,0,1,1.287-1.615,3.392,3.392,0,0,1,1.951-.569,2.7,2.7,0,0,1,2.191.946l.1-.78h2.54V-.34a3.787,3.787,0,0,1-.552,2.063,3.542,3.542,0,0,1-1.6,1.345,5.873,5.873,0,0,1-2.424.469,5.067,5.067,0,0,1-1.913-.374,3.454,3.454,0,0,1-1.415-.971L131.7.548a2.565,2.565,0,0,0,2.059.921A1.666,1.666,0,0,0,135.618-.44V-.722a2.627,2.627,0,0,1-2.034.888,3.246,3.246,0,0,1-2.656-1.258,5.21,5.21,0,0,1-1.013-3.366Zm2.806.174a3.2,3.2,0,0,0,.415,1.747,1.309,1.309,0,0,0,1.162.643,1.486,1.486,0,0,0,1.32-.606V-6.375a1.449,1.449,0,0,0-1.3-.614,1.318,1.318,0,0,0-1.17.668A3.644,3.644,0,0,0,132.721-4.383ZM145.081,0a3.158,3.158,0,0,1-.266-.805,2.6,2.6,0,0,1-2.158.971A3.187,3.187,0,0,1,140.5-.6a2.444,2.444,0,0,1-.888-1.93A2.512,2.512,0,0,1,140.69-4.74a5.5,5.5,0,0,1,3.138-.747h.863v-.475q0-1.243-1.071-1.243a.875.875,0,0,0-1,.984h-2.8a2.508,2.508,0,0,1,1.108-2.114,4.657,4.657,0,0,1,2.826-.813,4.083,4.083,0,0,1,2.714.838,2.915,2.915,0,0,1,1.021,2.3v3.976a4.072,4.072,0,0,0,.382,1.893V0ZM143.33-1.826a1.56,1.56,0,0,0,.867-.224,1.4,1.4,0,0,0,.494-.506V-3.993h-.813q-1.461,0-1.461,1.312a.8.8,0,0,0,.257.618A.931.931,0,0,0,143.33-1.826Zm9.513-.166a1.244,1.244,0,0,0,.913-.32,1.172,1.172,0,0,0,.315-.892h2.623A3.105,3.105,0,0,1,155.635-.78a3.937,3.937,0,0,1-2.727.946,3.986,3.986,0,0,1-3.088-1.229,4.84,4.84,0,0,1-1.129-3.4v-.116a5.471,5.471,0,0,1,.5-2.4,3.656,3.656,0,0,1,1.448-1.6,4.319,4.319,0,0,1,2.241-.56,3.887,3.887,0,0,1,2.781.971,3.445,3.445,0,0,1,1.029,2.631h-2.623a1.536,1.536,0,0,0-.34-1.071,1.175,1.175,0,0,0-.913-.374q-1.087,0-1.27,1.386a9.781,9.781,0,0,0-.058,1.212,3.842,3.842,0,0,0,.324,1.876A1.121,1.121,0,0,0,152.842-1.992ZM160.828,0h-2.806V-8.981h2.806Zm-2.972-11.3a1.249,1.249,0,0,1,.432-.979,1.629,1.629,0,0,1,1.121-.382,1.629,1.629,0,0,1,1.121.382,1.249,1.249,0,0,1,.432.979,1.249,1.249,0,0,1-.432.979,1.629,1.629,0,0,1-1.121.382,1.629,1.629,0,0,1-1.121-.382A1.249,1.249,0,0,1,157.856-11.3ZM162.2-4.574a5.3,5.3,0,0,1,.523-2.395,3.74,3.74,0,0,1,1.5-1.615,4.525,4.525,0,0,1,2.3-.564A4.13,4.13,0,0,1,169.7-7.9a4.794,4.794,0,0,1,1.162,3.4v.1A4.651,4.651,0,0,1,169.7-1.067,4.141,4.141,0,0,1,166.539.166a4.188,4.188,0,0,1-3.08-1.15A4.5,4.5,0,0,1,162.206-4.1Zm2.8.174a3.342,3.342,0,0,0,.39,1.826,1.3,1.3,0,0,0,1.154.581q1.494,0,1.527-2.3v-.282q0-2.416-1.544-2.416-1.4,0-1.519,2.083Zm9.67-4.582.091,1.054a3.046,3.046,0,0,1,2.565-1.22,2.562,2.562,0,0,1,2.1.838,3.991,3.991,0,0,1,.718,2.523V0H177.33V-5.669a1.516,1.516,0,0,0-.274-1,1.267,1.267,0,0,0-1-.32,1.334,1.334,0,0,0-1.22.647V0h-2.8V-8.981ZM186.029.166a4.617,4.617,0,0,1-3.345-1.233,4.257,4.257,0,0,1-1.278-3.208v-.232a5.516,5.516,0,0,1,.51-2.432,3.735,3.735,0,0,1,1.49-1.631,4.5,4.5,0,0,1,2.324-.577,3.888,3.888,0,0,1,2.988,1.175,4.616,4.616,0,0,1,1.1,3.275v1.087h-5.562a2.016,2.016,0,0,0,.656,1.187,1.951,1.951,0,0,0,1.312.432,2.514,2.514,0,0,0,2.075-.93l1.278,1.511a3.573,3.573,0,0,1-1.482,1.15A5.007,5.007,0,0,1,186.029.166Zm-.315-7.155q-1.229,0-1.461,1.627h2.822v-.216a1.386,1.386,0,0,0-.34-1.042A1.354,1.354,0,0,0,185.713-6.989Zm9.928,4.466a.646.646,0,0,0-.374-.573,5.682,5.682,0,0,0-1.419-.448,6.473,6.473,0,0,1-1.727-.61,2.892,2.892,0,0,1-1.038-.917,2.19,2.19,0,0,1-.357-1.237,2.482,2.482,0,0,1,1.021-2.038,4.206,4.206,0,0,1,2.673-.8,4.66,4.66,0,0,1,2.855.805,2.518,2.518,0,0,1,1.079,2.117H195.55q0-1.079-1.137-1.079a1.127,1.127,0,0,0-.739.245.758.758,0,0,0-.3.61.7.7,0,0,0,.365.606,3.451,3.451,0,0,0,1.166.382,10.079,10.079,0,0,1,1.407.357,2.556,2.556,0,0,1,2.025,2.5,2.352,2.352,0,0,1-1.092,2,4.787,4.787,0,0,1-2.826.772,4.885,4.885,0,0,1-2.059-.415,3.442,3.442,0,0,1-1.411-1.129,2.556,2.556,0,0,1-.506-1.5h2.615a1.081,1.081,0,0,0,.415.909,1.707,1.707,0,0,0,1.021.286,1.343,1.343,0,0,0,.859-.232A.743.743,0,0,0,195.641-2.523Zm16.2-3.47h-7.687V-8.151h7.687Zm0,3.644h-7.687V-4.507h7.687Zm19.573-7.487H227.79V0h-2.914V-9.836h-3.561v-2.25h10.1ZM235.75,0h-2.905V-12.086h2.905Zm12.26-5.794a7.127,7.127,0,0,1-.656,3.129,4.847,4.847,0,0,1-1.864,2.1,5.189,5.189,0,0,1-2.752.735A5.262,5.262,0,0,1,240-.544a4.838,4.838,0,0,1-1.864-2.03,6.922,6.922,0,0,1-.7-3.03v-.681a7.159,7.159,0,0,1,.652-3.134,4.835,4.835,0,0,1,1.868-2.1,5.225,5.225,0,0,1,2.768-.739,5.174,5.174,0,0,1,2.739.73,4.922,4.922,0,0,1,1.872,2.079,6.953,6.953,0,0,1,.677,3.092ZM245.047-6.3a5.082,5.082,0,0,0-.6-2.735,1.93,1.93,0,0,0-1.722-.934q-2.191,0-2.316,3.287l-.008.888a5.227,5.227,0,0,0,.589,2.731,1.927,1.927,0,0,0,1.751.955,1.9,1.9,0,0,0,1.7-.938,5.084,5.084,0,0,0,.606-2.7ZM255.755-7.94l-2.706-.746.54-1.567,2.648,1.086-.208-2.919h1.776l-.216,2.977,2.573-1.061.54,1.584-2.739.746,1.818,2.2-1.436.979L256.826-7.1,255.3-4.744l-1.436-.938Zm18.336,3.515a5.416,5.416,0,0,1-.942,3.341A3.021,3.021,0,0,1,270.605.166a2.589,2.589,0,0,1-2.034-.9V3.453h-2.8V-8.981h2.615l.083.83a2.589,2.589,0,0,1,2.117-1,3.045,3.045,0,0,1,2.582,1.224,5.483,5.483,0,0,1,.921,3.366Zm-2.8-.174q0-2.391-1.395-2.391a1.316,1.316,0,0,0-1.328.714v3.536a1.359,1.359,0,0,0,1.345.747q1.336,0,1.378-2.308ZM280.384,0a3.159,3.159,0,0,1-.266-.805,2.6,2.6,0,0,1-2.158.971A3.187,3.187,0,0,1,275.8-.6a2.444,2.444,0,0,1-.888-1.93,2.512,2.512,0,0,1,1.079-2.208,5.5,5.5,0,0,1,3.138-.747h.863v-.475q0-1.243-1.071-1.243a.875.875,0,0,0-1,.984h-2.8a2.508,2.508,0,0,1,1.108-2.114,4.657,4.657,0,0,1,2.826-.813,4.083,4.083,0,0,1,2.714.838,2.915,2.915,0,0,1,1.021,2.3v3.976a4.072,4.072,0,0,0,.382,1.893V0Zm-1.751-1.826a1.56,1.56,0,0,0,.867-.224,1.4,1.4,0,0,0,.494-.506V-3.993h-.813q-1.461,0-1.461,1.312a.8.8,0,0,0,.257.618A.931.931,0,0,0,278.632-1.826ZM289.78-6.45l-.921-.066a1.655,1.655,0,0,0-1.693.83V0h-2.8V-8.981h2.623l.091,1.154a2.166,2.166,0,0,1,1.967-1.32,2.728,2.728,0,0,1,.78.1Zm4.682-4.765v2.233h1.478v1.942h-1.478V-2.93a1.049,1.049,0,0,0,.183.706.979.979,0,0,0,.722.2,4.1,4.1,0,0,0,.7-.05v2a5.163,5.163,0,0,1-1.577.241,2.93,2.93,0,0,1-2.133-.681,2.79,2.79,0,0,1-.689-2.067V-7.039h-1.146V-8.981h1.146v-2.233ZM299.99,0h-2.806V-8.981h2.806Zm-2.972-11.3a1.249,1.249,0,0,1,.432-.979,1.629,1.629,0,0,1,1.121-.382,1.629,1.629,0,0,1,1.121.382,1.249,1.249,0,0,1,.432.979,1.249,1.249,0,0,1-.432.979,1.629,1.629,0,0,1-1.121.382,1.629,1.629,0,0,1-1.121-.382A1.249,1.249,0,0,1,297.019-11.3Zm8.492,9.305a1.244,1.244,0,0,0,.913-.32,1.172,1.172,0,0,0,.315-.892h2.623A3.105,3.105,0,0,1,308.3-.78a3.937,3.937,0,0,1-2.727.946,3.986,3.986,0,0,1-3.088-1.229,4.841,4.841,0,0,1-1.129-3.4v-.116a5.471,5.471,0,0,1,.5-2.4,3.657,3.657,0,0,1,1.448-1.6,4.319,4.319,0,0,1,2.241-.56,3.887,3.887,0,0,1,2.781.971,3.445,3.445,0,0,1,1.029,2.631h-2.623a1.535,1.535,0,0,0-.34-1.071,1.175,1.175,0,0,0-.913-.374q-1.087,0-1.27,1.386a9.784,9.784,0,0,0-.058,1.212,3.842,3.842,0,0,0,.324,1.876A1.121,1.121,0,0,0,305.51-1.992ZM313.5,0H310.69V-8.981H313.5Zm-2.972-11.3a1.249,1.249,0,0,1,.432-.979,1.629,1.629,0,0,1,1.121-.382,1.629,1.629,0,0,1,1.121.382,1.249,1.249,0,0,1,.432.979,1.249,1.249,0,0,1-.432.979,1.629,1.629,0,0,1-1.121.382,1.629,1.629,0,0,1-1.121-.382A1.249,1.249,0,0,1,310.524-11.3Zm13.032,6.873a5.416,5.416,0,0,1-.942,3.341A3.021,3.021,0,0,1,320.07.166a2.589,2.589,0,0,1-2.034-.9V3.453h-2.8V-8.981h2.615l.083.83a2.589,2.589,0,0,1,2.117-1,3.045,3.045,0,0,1,2.582,1.224,5.483,5.483,0,0,1,.921,3.366Zm-2.8-.174q0-2.391-1.395-2.391a1.316,1.316,0,0,0-1.328.714v3.536a1.359,1.359,0,0,0,1.345.747q1.336,0,1.378-2.308ZM329.848,0a3.159,3.159,0,0,1-.266-.805,2.6,2.6,0,0,1-2.158.971A3.187,3.187,0,0,1,325.266-.6a2.444,2.444,0,0,1-.888-1.93,2.512,2.512,0,0,1,1.079-2.208,5.5,5.5,0,0,1,3.138-.747h.863v-.475q0-1.243-1.071-1.243a.875.875,0,0,0-1,.984h-2.8A2.508,2.508,0,0,1,325.7-8.335a4.657,4.657,0,0,1,2.826-.813,4.083,4.083,0,0,1,2.714.838,2.915,2.915,0,0,1,1.021,2.3v3.976a4.072,4.072,0,0,0,.382,1.893V0ZM328.1-1.826a1.56,1.56,0,0,0,.867-.224,1.4,1.4,0,0,0,.494-.506V-3.993h-.813q-1.461,0-1.461,1.312a.8.8,0,0,0,.257.618A.931.931,0,0,0,328.1-1.826Zm9.513-.166a1.244,1.244,0,0,0,.913-.32,1.172,1.172,0,0,0,.315-.892h2.623A3.105,3.105,0,0,1,340.4-.78a3.937,3.937,0,0,1-2.727.946,3.986,3.986,0,0,1-3.088-1.229,4.841,4.841,0,0,1-1.129-3.4v-.116a5.471,5.471,0,0,1,.5-2.4,3.657,3.657,0,0,1,1.448-1.6,4.319,4.319,0,0,1,2.241-.56,3.887,3.887,0,0,1,2.781.971,3.445,3.445,0,0,1,1.029,2.631h-2.623a1.535,1.535,0,0,0-.34-1.071,1.175,1.175,0,0,0-.913-.374q-1.087,0-1.27,1.386a9.784,9.784,0,0,0-.058,1.212,3.842,3.842,0,0,0,.324,1.876A1.121,1.121,0,0,0,337.609-1.992ZM345.595,0h-2.806V-8.981h2.806Zm-2.972-11.3a1.249,1.249,0,0,1,.432-.979,1.629,1.629,0,0,1,1.121-.382,1.629,1.629,0,0,1,1.121.382,1.249,1.249,0,0,1,.432.979,1.249,1.249,0,0,1-.432.979,1.629,1.629,0,0,1-1.121.382,1.629,1.629,0,0,1-1.121-.382A1.249,1.249,0,0,1,342.623-11.3Zm4.341,6.724a5.3,5.3,0,0,1,.523-2.395,3.74,3.74,0,0,1,1.5-1.615,4.525,4.525,0,0,1,2.3-.564A4.13,4.13,0,0,1,354.468-7.9a4.794,4.794,0,0,1,1.162,3.4v.1a4.651,4.651,0,0,1-1.166,3.333A4.141,4.141,0,0,1,351.306.166a4.188,4.188,0,0,1-3.08-1.15A4.5,4.5,0,0,1,346.973-4.1Zm2.8.174a3.342,3.342,0,0,0,.39,1.826,1.3,1.3,0,0,0,1.154.581q1.494,0,1.527-2.3v-.282q0-2.416-1.544-2.416-1.4,0-1.519,2.083Zm1.909-8.351h2.955l-2.308,2.606-2.283,0Zm7.761,3.769.091,1.054a3.046,3.046,0,0,1,2.565-1.22,2.562,2.562,0,0,1,2.1.838,3.991,3.991,0,0,1,.718,2.523V0H362.1V-5.669a1.516,1.516,0,0,0-.274-1,1.267,1.267,0,0,0-1-.32,1.334,1.334,0,0,0-1.22.647V0h-2.8V-8.981Z" transform="translate(130 37.851)" fill="#12263f"/>
      </g>
    </g>
    <g id="Grupo_93171" data-name="Grupo 93171" transform="translate(955.51 -4238.968)">
      <rect id="Rectángulo_31816-3" data-name="Rectángulo 31816" width="440.882" height="114.498" transform="translate(240.415 2858.118)" fill="#6595bf"/>
      <g id="Grupo_89142-3" data-name="Grupo 89142" transform="translate(194.177 2852)">
        <rect id="Rectángulo_31778-3" data-name="Rectángulo 31778" width="447.577" height="116.049" transform="translate(35.183)" fill="#fff" stroke="#12263f" stroke-miterlimit="10" stroke-width="1"/>
      </g>
      <g id="Grupo_89143-3" data-name="Grupo 89143" transform="translate(142.872 2883.465)">
        <path id="Trazado_148617" data-name="Trazado 148617" d="M3.827-4.1V0H.913V-12.086H5.736a5.617,5.617,0,0,1,2.453.51,3.847,3.847,0,0,1,1.652,1.453,3.967,3.967,0,0,1,.585,2.137A3.5,3.5,0,0,1,9.16-5.159,5.252,5.252,0,0,1,5.686-4.1Zm0-2.25H5.736a1.8,1.8,0,0,0,1.291-.423,1.573,1.573,0,0,0,.444-1.2,1.944,1.944,0,0,0-.457-1.353,1.617,1.617,0,0,0-1.245-.515H3.827Zm7.562,1.776a5.3,5.3,0,0,1,.523-2.395,3.74,3.74,0,0,1,1.5-1.615,4.525,4.525,0,0,1,2.3-.564A4.13,4.13,0,0,1,18.893-7.9a4.794,4.794,0,0,1,1.162,3.4v.1a4.651,4.651,0,0,1-1.166,3.333A4.141,4.141,0,0,1,15.73.166a4.188,4.188,0,0,1-3.08-1.15A4.5,4.5,0,0,1,11.4-4.1Zm2.8.174a3.342,3.342,0,0,0,.39,1.826,1.3,1.3,0,0,0,1.154.581q1.494,0,1.527-2.3v-.282q0-2.416-1.544-2.416-1.4,0-1.519,2.083Zm9.67-4.582.091,1.054a3.046,3.046,0,0,1,2.565-1.22,2.562,2.562,0,0,1,2.1.838,3.991,3.991,0,0,1,.718,2.523V0H26.521V-5.669a1.516,1.516,0,0,0-.274-1,1.267,1.267,0,0,0-1-.32,1.334,1.334,0,0,0-1.22.647V0h-2.8V-8.981Zm6.666,4.424a5.486,5.486,0,0,1,.921-3.362,3.033,3.033,0,0,1,2.573-1.229,2.579,2.579,0,0,1,2.025.946V-12.75h2.806V0H36.333l-.141-.963A2.649,2.649,0,0,1,34,.166a3.027,3.027,0,0,1-2.54-1.229A5.66,5.66,0,0,1,30.522-4.557Zm2.8.174q0,2.391,1.395,2.391a1.377,1.377,0,0,0,1.328-.78v-3.42a1.34,1.34,0,0,0-1.312-.8q-1.295,0-1.4,2.092ZM44.783.166a4.617,4.617,0,0,1-3.345-1.233,4.257,4.257,0,0,1-1.278-3.208v-.232a5.516,5.516,0,0,1,.51-2.432,3.735,3.735,0,0,1,1.49-1.631,4.5,4.5,0,0,1,2.324-.577,3.888,3.888,0,0,1,2.988,1.175,4.616,4.616,0,0,1,1.1,3.275v1.087H43.006a2.016,2.016,0,0,0,.656,1.187,1.951,1.951,0,0,0,1.312.432,2.514,2.514,0,0,0,2.075-.93l1.278,1.511a3.573,3.573,0,0,1-1.482,1.15A5.007,5.007,0,0,1,44.783.166Zm-.315-7.155q-1.229,0-1.461,1.627h2.822v-.216a1.386,1.386,0,0,0-.34-1.042A1.354,1.354,0,0,0,44.467-6.989Zm10.658.54L54.2-6.516a1.655,1.655,0,0,0-1.693.83V0h-2.8V-8.981h2.623l.091,1.154A2.166,2.166,0,0,1,54.4-9.147a2.728,2.728,0,0,1,.78.1ZM60.944,0a3.158,3.158,0,0,1-.266-.805,2.6,2.6,0,0,1-2.158.971A3.187,3.187,0,0,1,56.362-.6a2.444,2.444,0,0,1-.888-1.93A2.512,2.512,0,0,1,56.553-4.74a5.5,5.5,0,0,1,3.138-.747h.863v-.475q0-1.243-1.071-1.243a.875.875,0,0,0-1,.984h-2.8A2.508,2.508,0,0,1,56.8-8.335a4.657,4.657,0,0,1,2.826-.813,4.083,4.083,0,0,1,2.714.838,2.915,2.915,0,0,1,1.021,2.3v3.976a4.072,4.072,0,0,0,.382,1.893V0ZM59.193-1.826a1.56,1.56,0,0,0,.867-.224,1.4,1.4,0,0,0,.494-.506V-3.993h-.813q-1.461,0-1.461,1.312a.8.8,0,0,0,.257.618A.931.931,0,0,0,59.193-1.826Zm9.513-.166a1.244,1.244,0,0,0,.913-.32,1.172,1.172,0,0,0,.315-.892h2.623A3.105,3.105,0,0,1,71.5-.78a3.937,3.937,0,0,1-2.727.946,3.986,3.986,0,0,1-3.088-1.229,4.841,4.841,0,0,1-1.129-3.4v-.116a5.471,5.471,0,0,1,.5-2.4,3.656,3.656,0,0,1,1.448-1.6,4.319,4.319,0,0,1,2.241-.56,3.887,3.887,0,0,1,2.781.971,3.445,3.445,0,0,1,1.029,2.631H69.934a1.536,1.536,0,0,0-.34-1.071,1.175,1.175,0,0,0-.913-.374q-1.087,0-1.27,1.386a9.782,9.782,0,0,0-.058,1.212,3.842,3.842,0,0,0,.324,1.876A1.121,1.121,0,0,0,68.706-1.992ZM76.691,0H73.885V-8.981h2.806ZM73.719-11.3a1.249,1.249,0,0,1,.432-.979,1.629,1.629,0,0,1,1.121-.382,1.629,1.629,0,0,1,1.121.382,1.249,1.249,0,0,1,.432.979,1.249,1.249,0,0,1-.432.979,1.629,1.629,0,0,1-1.121.382,1.629,1.629,0,0,1-1.121-.382A1.249,1.249,0,0,1,73.719-11.3Zm4.341,6.724a5.3,5.3,0,0,1,.523-2.395,3.74,3.74,0,0,1,1.5-1.615,4.525,4.525,0,0,1,2.3-.564A4.13,4.13,0,0,1,85.564-7.9a4.794,4.794,0,0,1,1.162,3.4v.1A4.651,4.651,0,0,1,85.56-1.067,4.141,4.141,0,0,1,82.4.166a4.188,4.188,0,0,1-3.08-1.15A4.5,4.5,0,0,1,78.069-4.1Zm2.8.174a3.342,3.342,0,0,0,.39,1.826,1.3,1.3,0,0,0,1.154.581q1.494,0,1.527-2.3v-.282q0-2.416-1.544-2.416-1.4,0-1.519,2.083Zm1.909-8.351h2.955l-2.308,2.606-2.283,0Zm7.761,3.769.091,1.054a3.046,3.046,0,0,1,2.565-1.22,2.562,2.562,0,0,1,2.1.838A3.991,3.991,0,0,1,96-5.786V0H93.193V-5.669a1.516,1.516,0,0,0-.274-1,1.267,1.267,0,0,0-1-.32,1.334,1.334,0,0,0-1.22.647V0h-2.8V-8.981Zm10.9,4.408a5.3,5.3,0,0,1,.523-2.395,3.74,3.74,0,0,1,1.5-1.615,4.525,4.525,0,0,1,2.3-.564A4.13,4.13,0,0,1,108.931-7.9a4.794,4.794,0,0,1,1.162,3.4v.1a4.651,4.651,0,0,1-1.166,3.333A4.141,4.141,0,0,1,105.769.166a4.188,4.188,0,0,1-3.08-1.15A4.5,4.5,0,0,1,101.436-4.1Zm2.8.174a3.342,3.342,0,0,0,.39,1.826,1.3,1.3,0,0,0,1.154.581q1.494,0,1.527-2.3v-.282q0-2.416-1.544-2.416-1.4,0-1.519,2.083Zm15.439-.017a5.474,5.474,0,0,1-.913,3.4A3.058,3.058,0,0,1,116.178.166,2.654,2.654,0,0,1,113.97-.921L113.854,0h-2.507V-12.75h2.8v4.491a2.561,2.561,0,0,1,2.017-.888,3.059,3.059,0,0,1,2.59,1.2,5.5,5.5,0,0,1,.913,3.387Zm-2.806-.178a3.651,3.651,0,0,0-.344-1.844,1.161,1.161,0,0,0-1.058-.551,1.339,1.339,0,0,0-1.312.721V-2.7a1.347,1.347,0,0,0,1.328.713,1.188,1.188,0,0,0,1.253-.961A6.9,6.9,0,0,0,116.858-4.594ZM123.848,0h-2.806V-12.75h2.806Zm4.673,0h-2.806V-8.981h2.806Zm-2.972-11.3a1.249,1.249,0,0,1,.432-.979,1.629,1.629,0,0,1,1.121-.382,1.629,1.629,0,0,1,1.121.382,1.249,1.249,0,0,1,.432.979,1.249,1.249,0,0,1-.432.979,1.629,1.629,0,0,1-1.121.382,1.629,1.629,0,0,1-1.121-.382A1.249,1.249,0,0,1,125.549-11.3Zm4.366,6.74a6.064,6.064,0,0,1,.448-2.407,3.609,3.609,0,0,1,1.287-1.615,3.392,3.392,0,0,1,1.951-.569,2.7,2.7,0,0,1,2.191.946l.1-.78h2.54V-.34a3.787,3.787,0,0,1-.552,2.063,3.542,3.542,0,0,1-1.6,1.345,5.873,5.873,0,0,1-2.424.469,5.067,5.067,0,0,1-1.913-.374,3.454,3.454,0,0,1-1.415-.971L131.7.548a2.565,2.565,0,0,0,2.059.921A1.666,1.666,0,0,0,135.618-.44V-.722a2.627,2.627,0,0,1-2.034.888,3.246,3.246,0,0,1-2.656-1.258,5.21,5.21,0,0,1-1.013-3.366Zm2.806.174a3.2,3.2,0,0,0,.415,1.747,1.309,1.309,0,0,0,1.162.643,1.486,1.486,0,0,0,1.32-.606V-6.375a1.449,1.449,0,0,0-1.3-.614,1.318,1.318,0,0,0-1.17.668A3.644,3.644,0,0,0,132.721-4.383ZM145.081,0a3.158,3.158,0,0,1-.266-.805,2.6,2.6,0,0,1-2.158.971A3.187,3.187,0,0,1,140.5-.6a2.444,2.444,0,0,1-.888-1.93A2.512,2.512,0,0,1,140.69-4.74a5.5,5.5,0,0,1,3.138-.747h.863v-.475q0-1.243-1.071-1.243a.875.875,0,0,0-1,.984h-2.8a2.508,2.508,0,0,1,1.108-2.114,4.657,4.657,0,0,1,2.826-.813,4.083,4.083,0,0,1,2.714.838,2.915,2.915,0,0,1,1.021,2.3v3.976a4.072,4.072,0,0,0,.382,1.893V0ZM143.33-1.826a1.56,1.56,0,0,0,.867-.224,1.4,1.4,0,0,0,.494-.506V-3.993h-.813q-1.461,0-1.461,1.312a.8.8,0,0,0,.257.618A.931.931,0,0,0,143.33-1.826Zm9.513-.166a1.244,1.244,0,0,0,.913-.32,1.172,1.172,0,0,0,.315-.892h2.623A3.105,3.105,0,0,1,155.635-.78a3.937,3.937,0,0,1-2.727.946,3.986,3.986,0,0,1-3.088-1.229,4.84,4.84,0,0,1-1.129-3.4v-.116a5.471,5.471,0,0,1,.5-2.4,3.656,3.656,0,0,1,1.448-1.6,4.319,4.319,0,0,1,2.241-.56,3.887,3.887,0,0,1,2.781.971,3.445,3.445,0,0,1,1.029,2.631h-2.623a1.536,1.536,0,0,0-.34-1.071,1.175,1.175,0,0,0-.913-.374q-1.087,0-1.27,1.386a9.781,9.781,0,0,0-.058,1.212,3.842,3.842,0,0,0,.324,1.876A1.121,1.121,0,0,0,152.842-1.992ZM160.828,0h-2.806V-8.981h2.806Zm-2.972-11.3a1.249,1.249,0,0,1,.432-.979,1.629,1.629,0,0,1,1.121-.382,1.629,1.629,0,0,1,1.121.382,1.249,1.249,0,0,1,.432.979,1.249,1.249,0,0,1-.432.979,1.629,1.629,0,0,1-1.121.382,1.629,1.629,0,0,1-1.121-.382A1.249,1.249,0,0,1,157.856-11.3ZM162.2-4.574a5.3,5.3,0,0,1,.523-2.395,3.74,3.74,0,0,1,1.5-1.615,4.525,4.525,0,0,1,2.3-.564A4.13,4.13,0,0,1,169.7-7.9a4.794,4.794,0,0,1,1.162,3.4v.1A4.651,4.651,0,0,1,169.7-1.067,4.141,4.141,0,0,1,166.539.166a4.188,4.188,0,0,1-3.08-1.15A4.5,4.5,0,0,1,162.206-4.1Zm2.8.174a3.342,3.342,0,0,0,.39,1.826,1.3,1.3,0,0,0,1.154.581q1.494,0,1.527-2.3v-.282q0-2.416-1.544-2.416-1.4,0-1.519,2.083Zm9.67-4.582.091,1.054a3.046,3.046,0,0,1,2.565-1.22,2.562,2.562,0,0,1,2.1.838,3.991,3.991,0,0,1,.718,2.523V0H177.33V-5.669a1.516,1.516,0,0,0-.274-1,1.267,1.267,0,0,0-1-.32,1.334,1.334,0,0,0-1.22.647V0h-2.8V-8.981ZM186.029.166a4.617,4.617,0,0,1-3.345-1.233,4.257,4.257,0,0,1-1.278-3.208v-.232a5.516,5.516,0,0,1,.51-2.432,3.735,3.735,0,0,1,1.49-1.631,4.5,4.5,0,0,1,2.324-.577,3.888,3.888,0,0,1,2.988,1.175,4.616,4.616,0,0,1,1.1,3.275v1.087h-5.562a2.016,2.016,0,0,0,.656,1.187,1.951,1.951,0,0,0,1.312.432,2.514,2.514,0,0,0,2.075-.93l1.278,1.511a3.573,3.573,0,0,1-1.482,1.15A5.007,5.007,0,0,1,186.029.166Zm-.315-7.155q-1.229,0-1.461,1.627h2.822v-.216a1.386,1.386,0,0,0-.34-1.042A1.354,1.354,0,0,0,185.713-6.989Zm9.928,4.466a.646.646,0,0,0-.374-.573,5.682,5.682,0,0,0-1.419-.448,6.473,6.473,0,0,1-1.727-.61,2.892,2.892,0,0,1-1.038-.917,2.19,2.19,0,0,1-.357-1.237,2.482,2.482,0,0,1,1.021-2.038,4.206,4.206,0,0,1,2.673-.8,4.66,4.66,0,0,1,2.855.805,2.518,2.518,0,0,1,1.079,2.117H195.55q0-1.079-1.137-1.079a1.127,1.127,0,0,0-.739.245.758.758,0,0,0-.3.61.7.7,0,0,0,.365.606,3.451,3.451,0,0,0,1.166.382,10.079,10.079,0,0,1,1.407.357,2.556,2.556,0,0,1,2.025,2.5,2.352,2.352,0,0,1-1.092,2,4.787,4.787,0,0,1-2.826.772,4.885,4.885,0,0,1-2.059-.415,3.442,3.442,0,0,1-1.411-1.129,2.556,2.556,0,0,1-.506-1.5h2.615a1.081,1.081,0,0,0,.415.909,1.707,1.707,0,0,0,1.021.286,1.343,1.343,0,0,0,.859-.232A.743.743,0,0,0,195.641-2.523Zm16.2-3.47h-7.687V-8.151h7.687Zm0,3.644h-7.687V-4.507h7.687ZM230.687,0h-8.434V-1.826l3.885-4.084a4.637,4.637,0,0,0,1.436-2.6,1.807,1.807,0,0,0-.34-1.187,1.215,1.215,0,0,0-.988-.407,1.23,1.23,0,0,0-1.038.544,2.234,2.234,0,0,0-.4,1.357H222a3.969,3.969,0,0,1,.556-2.054,3.9,3.9,0,0,1,1.544-1.473,4.586,4.586,0,0,1,2.208-.531,4.512,4.512,0,0,1,3.017.9,3.23,3.23,0,0,1,1.058,2.6,3.773,3.773,0,0,1-.266,1.39,6.1,6.1,0,0,1-.826,1.419,20.805,20.805,0,0,1-1.805,1.988l-1.561,1.8h4.756ZM238.3,0h-2.806V-8.932l-2.756.805v-2.125l5.3-1.834h.257Zm3.652-9.762a2.372,2.372,0,0,1,.73-1.81,2.739,2.739,0,0,1,1.959-.689,2.742,2.742,0,0,1,1.967.685,2.435,2.435,0,0,1,.722,1.855v.6a2.359,2.359,0,0,1-.722,1.8,2.729,2.729,0,0,1-1.951.681,2.8,2.8,0,0,1-1.963-.677,2.383,2.383,0,0,1-.743-1.855Zm1.8.637a1,1,0,0,0,.241.7.847.847,0,0,0,.664.268q.872,0,.872-1.105V-9.76a1.058,1.058,0,0,0-.232-.705.81.81,0,0,0-.656-.276.827.827,0,0,0-.647.268,1.052,1.052,0,0,0-.241.73ZM247.7-2.963a2.349,2.349,0,0,1,.735-1.81,2.762,2.762,0,0,1,1.955-.681,2.792,2.792,0,0,1,1.967.672,2.422,2.422,0,0,1,.73,1.876v.581a2.37,2.37,0,0,1-.722,1.81A2.74,2.74,0,0,1,250.4.166a2.8,2.8,0,0,1-1.963-.677,2.383,2.383,0,0,1-.743-1.855Zm1.793.637a.982.982,0,0,0,.266.68.842.842,0,0,0,.647.293.763.763,0,0,0,.872-.759l.008-.85a1.015,1.015,0,0,0-.241-.705.837.837,0,0,0-.656-.268.844.844,0,0,0-.639.252,1,1,0,0,0-.257.68ZM245.188-.9l-1.3-.656,5.9-9.446,1.3.656ZM260.977-7.94l-2.706-.746.54-1.567,2.648,1.086-.208-2.919h1.776l-.216,2.977,2.573-1.061.54,1.584-2.739.746L265-5.64l-1.436.979L262.047-7.1,260.52-4.744l-1.436-.938ZM279.363,0h-8.434V-1.826l3.885-4.084a4.636,4.636,0,0,0,1.436-2.6,1.807,1.807,0,0,0-.34-1.187,1.215,1.215,0,0,0-.988-.407,1.23,1.23,0,0,0-1.038.544,2.234,2.234,0,0,0-.4,1.357H270.68a3.969,3.969,0,0,1,.556-2.054,3.9,3.9,0,0,1,1.544-1.473,4.586,4.586,0,0,1,2.208-.531,4.512,4.512,0,0,1,3.017.9,3.23,3.23,0,0,1,1.058,2.6,3.773,3.773,0,0,1-.266,1.39,6.1,6.1,0,0,1-.826,1.419,20.805,20.805,0,0,1-1.805,1.988l-1.561,1.8h4.756Zm8.8-4.723h1.229v2.158h-1.229V0h-2.8V-2.565h-4.673l-.166-1.71,4.839-7.786v-.025h2.8Zm-4.972,0h2.175V-8.442l-.174.282Zm8.458,7.977-1.411-.664.282-.564a4.6,4.6,0,0,0,.606-2.059V-2.108h2.241l-.008,1.8a4.5,4.5,0,0,1-.49,1.942A4.935,4.935,0,0,1,291.648,3.254Zm11.7-12.111a2.79,2.79,0,0,1-.436,1.552,3.174,3.174,0,0,1-1.2,1.079,3.493,3.493,0,0,1,1.37,1.158,2.988,2.988,0,0,1,.506,1.739,3.163,3.163,0,0,1-1.116,2.557A4.636,4.636,0,0,1,299.4.166a4.721,4.721,0,0,1-3.1-.942,3.141,3.141,0,0,1-1.137-2.552,3.026,3.026,0,0,1,.5-1.718,3.387,3.387,0,0,1,1.411-1.179A3.192,3.192,0,0,1,295.856-7.3a2.771,2.771,0,0,1-.44-1.552,3.1,3.1,0,0,1,1.071-2.49,4.3,4.3,0,0,1,2.889-.913,4.331,4.331,0,0,1,2.905.913A3.1,3.1,0,0,1,303.352-8.857Zm-2.565,5.3A1.6,1.6,0,0,0,300.4-4.7a1.344,1.344,0,0,0-1.017-.4,1.358,1.358,0,0,0-1.021.4,1.585,1.585,0,0,0-.39,1.15,1.6,1.6,0,0,0,.394,1.141,1.353,1.353,0,0,0,1.033.419,1.3,1.3,0,0,0,1-.415A1.628,1.628,0,0,0,300.787-3.553ZM299.376-10.1a1.034,1.034,0,0,0-.859.369,1.6,1.6,0,0,0-.295,1.025,1.7,1.7,0,0,0,.3,1.046,1.031,1.031,0,0,0,.88.4.989.989,0,0,0,.859-.4,1.753,1.753,0,0,0,.286-1.046,1.607,1.607,0,0,0-.295-1.021A1.048,1.048,0,0,0,299.376-10.1Zm14.07-.49L308.93,0h-2.955L310.5-9.928h-5.761v-2.158h8.708Zm1.453.83a2.372,2.372,0,0,1,.73-1.81,2.739,2.739,0,0,1,1.959-.689,2.742,2.742,0,0,1,1.967.685,2.435,2.435,0,0,1,.722,1.855v.6a2.359,2.359,0,0,1-.722,1.8,2.729,2.729,0,0,1-1.951.681,2.8,2.8,0,0,1-1.963-.677,2.384,2.384,0,0,1-.743-1.855Zm1.8.637a1,1,0,0,0,.241.7.847.847,0,0,0,.664.268q.872,0,.872-1.105V-9.76a1.058,1.058,0,0,0-.232-.705.81.81,0,0,0-.656-.276.827.827,0,0,0-.647.268,1.052,1.052,0,0,0-.241.73Zm3.943,6.161a2.349,2.349,0,0,1,.735-1.81,2.762,2.762,0,0,1,1.955-.681,2.792,2.792,0,0,1,1.967.672,2.422,2.422,0,0,1,.73,1.876v.581a2.37,2.37,0,0,1-.722,1.81,2.74,2.74,0,0,1-1.959.681,2.8,2.8,0,0,1-1.963-.677,2.384,2.384,0,0,1-.743-1.855Zm1.793.637a.981.981,0,0,0,.266.68.842.842,0,0,0,.647.293.763.763,0,0,0,.872-.759l.008-.85a1.015,1.015,0,0,0-.241-.705.837.837,0,0,0-.656-.268.844.844,0,0,0-.639.252,1,1,0,0,0-.257.68ZM318.136-.9l-1.3-.656,5.9-9.446,1.3.656Z" transform="translate(140 37.851)" fill="#12263f"/>
      </g>
    </g>
  </g>
</svg>
