<svg xmlns="http://www.w3.org/2000/svg" width="522.802" height="397.116" viewBox="0 0 522.802 397.116">
  <g id="Grupo_93168" data-name="Grupo 93168" transform="translate(-1126.188 2122.616)">
    <g id="Grupo_93165" data-name="Grupo 93165" transform="translate(982.51 -4698.116)">
      <rect id="Rectángulo_31816" data-name="Rectángulo 31816" width="382.625" height="114.498" transform="translate(220.131 2858.118)" fill="#6595bf"/>
      <g id="Grupo_89142" data-name="Grupo 89142" transform="translate(209.076 2852)">
        <rect id="Rectángulo_31778" data-name="Rectángulo 31778" width="389.32" height="116.049" transform="translate(0 0)" fill="#fff" stroke="#12263f" stroke-miterlimit="10" stroke-width="1"/>
      </g>
      <g id="Grupo_89143" data-name="Grupo 89143" transform="translate(134.872 2883.465)">
        <path id="Trazado_148615" data-name="Trazado 148615" d="M3.827-4.1V0H.913V-12.086H5.736a5.617,5.617,0,0,1,2.453.51,3.847,3.847,0,0,1,1.652,1.453,3.967,3.967,0,0,1,.585,2.137A3.5,3.5,0,0,1,9.16-5.159,5.252,5.252,0,0,1,5.686-4.1Zm0-2.25H5.736a1.8,1.8,0,0,0,1.291-.423,1.573,1.573,0,0,0,.444-1.2,1.944,1.944,0,0,0-.457-1.353,1.617,1.617,0,0,0-1.245-.515H3.827ZM16.817,0a3.159,3.159,0,0,1-.266-.805,2.6,2.6,0,0,1-2.158.971A3.187,3.187,0,0,1,12.235-.6a2.444,2.444,0,0,1-.888-1.93A2.512,2.512,0,0,1,12.426-4.74a5.5,5.5,0,0,1,3.138-.747h.863v-.475q0-1.243-1.071-1.243a.875.875,0,0,0-1,.984h-2.8a2.508,2.508,0,0,1,1.108-2.114A4.657,4.657,0,0,1,15.5-9.147a4.083,4.083,0,0,1,2.714.838,2.915,2.915,0,0,1,1.021,2.3v3.976a4.072,4.072,0,0,0,.382,1.893V0ZM15.066-1.826a1.56,1.56,0,0,0,.867-.224,1.4,1.4,0,0,0,.494-.506V-3.993h-.813q-1.461,0-1.461,1.312a.8.8,0,0,0,.257.618A.931.931,0,0,0,15.066-1.826ZM26.214-6.45l-.921-.066a1.655,1.655,0,0,0-1.693.83V0H20.8V-8.981h2.623l.091,1.154a2.166,2.166,0,0,1,1.967-1.32,2.728,2.728,0,0,1,.78.1ZM30.9-11.214v2.233h1.478v1.942H30.9V-2.93a1.049,1.049,0,0,0,.183.706.98.98,0,0,0,.722.2,4.1,4.1,0,0,0,.7-.05v2A5.163,5.163,0,0,1,30.92.166a2.93,2.93,0,0,1-2.133-.681A2.79,2.79,0,0,1,28.1-2.582V-7.039H26.953V-8.981H28.1v-2.233ZM36.424,0H33.618V-8.981h2.806ZM33.452-11.3a1.249,1.249,0,0,1,.432-.979A1.629,1.629,0,0,1,35-12.659a1.629,1.629,0,0,1,1.121.382,1.249,1.249,0,0,1,.432.979,1.249,1.249,0,0,1-.432.979A1.629,1.629,0,0,1,35-9.936a1.629,1.629,0,0,1-1.121-.382A1.249,1.249,0,0,1,33.452-11.3Zm8.492,9.305a1.244,1.244,0,0,0,.913-.32,1.172,1.172,0,0,0,.315-.892H45.8A3.105,3.105,0,0,1,44.737-.78,3.937,3.937,0,0,1,42.01.166a3.986,3.986,0,0,1-3.088-1.229,4.841,4.841,0,0,1-1.129-3.4v-.116a5.471,5.471,0,0,1,.5-2.4,3.656,3.656,0,0,1,1.448-1.6,4.319,4.319,0,0,1,2.241-.56,3.887,3.887,0,0,1,2.781.971A3.445,3.445,0,0,1,45.8-5.545H43.172a1.536,1.536,0,0,0-.34-1.071,1.175,1.175,0,0,0-.913-.374q-1.087,0-1.27,1.386a9.781,9.781,0,0,0-.058,1.212,3.842,3.842,0,0,0,.324,1.876A1.121,1.121,0,0,0,41.944-1.992ZM49.929,0H47.124V-8.981h2.806ZM46.958-11.3a1.249,1.249,0,0,1,.432-.979,1.629,1.629,0,0,1,1.121-.382,1.629,1.629,0,0,1,1.121.382,1.249,1.249,0,0,1,.432.979,1.249,1.249,0,0,1-.432.979,1.629,1.629,0,0,1-1.121.382,1.629,1.629,0,0,1-1.121-.382A1.249,1.249,0,0,1,46.958-11.3ZM59.99-4.424a5.416,5.416,0,0,1-.942,3.341A3.021,3.021,0,0,1,56.5.166a2.589,2.589,0,0,1-2.034-.9V3.453h-2.8V-8.981h2.615l.083.83a2.589,2.589,0,0,1,2.117-1,3.045,3.045,0,0,1,2.582,1.224,5.483,5.483,0,0,1,.921,3.366Zm-2.8-.174q0-2.391-1.395-2.391a1.316,1.316,0,0,0-1.328.714v3.536a1.359,1.359,0,0,0,1.345.747q1.336,0,1.378-2.308ZM66.282,0a3.159,3.159,0,0,1-.266-.805,2.6,2.6,0,0,1-2.158.971A3.187,3.187,0,0,1,61.7-.6a2.444,2.444,0,0,1-.888-1.93A2.512,2.512,0,0,1,61.891-4.74a5.5,5.5,0,0,1,3.138-.747h.863v-.475q0-1.243-1.071-1.243a.875.875,0,0,0-1,.984h-2.8a2.508,2.508,0,0,1,1.108-2.114,4.657,4.657,0,0,1,2.826-.813,4.083,4.083,0,0,1,2.714.838A2.915,2.915,0,0,1,68.7-6.01v3.976a4.072,4.072,0,0,0,.382,1.893V0ZM64.53-1.826A1.56,1.56,0,0,0,65.4-2.05a1.4,1.4,0,0,0,.494-.506V-3.993h-.813q-1.461,0-1.461,1.312a.8.8,0,0,0,.257.618A.931.931,0,0,0,64.53-1.826Zm9.513-.166a1.244,1.244,0,0,0,.913-.32,1.172,1.172,0,0,0,.315-.892h2.623A3.105,3.105,0,0,1,76.836-.78a3.937,3.937,0,0,1-2.727.946,3.986,3.986,0,0,1-3.088-1.229,4.841,4.841,0,0,1-1.129-3.4v-.116a5.471,5.471,0,0,1,.5-2.4,3.656,3.656,0,0,1,1.448-1.6,4.319,4.319,0,0,1,2.241-.56,3.887,3.887,0,0,1,2.781.971,3.445,3.445,0,0,1,1.029,2.631H75.271a1.536,1.536,0,0,0-.34-1.071,1.175,1.175,0,0,0-.913-.374q-1.087,0-1.27,1.386a9.782,9.782,0,0,0-.058,1.212,3.842,3.842,0,0,0,.324,1.876A1.121,1.121,0,0,0,74.043-1.992ZM82.028,0H79.223V-8.981h2.806ZM79.057-11.3a1.249,1.249,0,0,1,.432-.979,1.629,1.629,0,0,1,1.121-.382,1.629,1.629,0,0,1,1.121.382,1.249,1.249,0,0,1,.432.979,1.249,1.249,0,0,1-.432.979,1.629,1.629,0,0,1-1.121.382,1.629,1.629,0,0,1-1.121-.382A1.249,1.249,0,0,1,79.057-11.3ZM83.4-4.574a5.3,5.3,0,0,1,.523-2.395,3.74,3.74,0,0,1,1.5-1.615,4.525,4.525,0,0,1,2.3-.564A4.13,4.13,0,0,1,90.9-7.9a4.794,4.794,0,0,1,1.162,3.4v.1A4.651,4.651,0,0,1,90.9-1.067,4.141,4.141,0,0,1,87.739.166a4.188,4.188,0,0,1-3.08-1.15A4.5,4.5,0,0,1,83.406-4.1Zm2.8.174a3.342,3.342,0,0,0,.39,1.826,1.3,1.3,0,0,0,1.154.581q1.494,0,1.527-2.3v-.282q0-2.416-1.544-2.416-1.4,0-1.519,2.083ZM88.1-12.75H91.06l-2.308,2.606-2.283,0Zm7.761,3.769.091,1.054a3.046,3.046,0,0,1,2.565-1.22,2.562,2.562,0,0,1,2.1.838,3.991,3.991,0,0,1,.718,2.523V0H98.53V-5.669a1.516,1.516,0,0,0-.274-1,1.267,1.267,0,0,0-1-.32,1.334,1.334,0,0,0-1.22.647V0h-2.8V-8.981Zm19.59,4.557a5.416,5.416,0,0,1-.942,3.341A3.021,3.021,0,0,1,111.969.166a2.589,2.589,0,0,1-2.034-.9V3.453h-2.8V-8.981h2.615l.083.83a2.589,2.589,0,0,1,2.117-1,3.045,3.045,0,0,1,2.582,1.224,5.483,5.483,0,0,1,.921,3.366Zm-2.8-.174q0-2.391-1.395-2.391a1.316,1.316,0,0,0-1.328.714v3.536a1.359,1.359,0,0,0,1.345.747q1.336,0,1.378-2.308ZM121.748,0a3.159,3.159,0,0,1-.266-.805,2.6,2.6,0,0,1-2.158.971A3.187,3.187,0,0,1,117.166-.6a2.444,2.444,0,0,1-.888-1.93,2.512,2.512,0,0,1,1.079-2.208,5.5,5.5,0,0,1,3.138-.747h.863v-.475q0-1.243-1.071-1.243a.875.875,0,0,0-1,.984h-2.8A2.508,2.508,0,0,1,117.6-8.335a4.657,4.657,0,0,1,2.826-.813,4.083,4.083,0,0,1,2.714.838,2.915,2.915,0,0,1,1.021,2.3v3.976a4.072,4.072,0,0,0,.382,1.893V0ZM120-1.826a1.56,1.56,0,0,0,.867-.224,1.4,1.4,0,0,0,.494-.506V-3.993h-.813q-1.461,0-1.461,1.312a.8.8,0,0,0,.257.618A.931.931,0,0,0,120-1.826Zm8.973-9.388v2.233h1.478v1.942h-1.478V-2.93a1.049,1.049,0,0,0,.183.706.98.98,0,0,0,.722.2,4.1,4.1,0,0,0,.7-.05v2a5.163,5.163,0,0,1-1.577.241,2.93,2.93,0,0,1-2.133-.681,2.79,2.79,0,0,1-.689-2.067V-7.039h-1.146V-8.981h1.146v-2.233Zm8.01,4.765-.921-.066a1.655,1.655,0,0,0-1.693.83V0h-2.8V-8.981h2.623l.091,1.154a2.166,2.166,0,0,1,1.967-1.32,2.728,2.728,0,0,1,.78.1ZM140.939,0h-2.806V-8.981h2.806Zm-2.972-11.3a1.249,1.249,0,0,1,.432-.979,1.629,1.629,0,0,1,1.121-.382,1.629,1.629,0,0,1,1.121.382,1.249,1.249,0,0,1,.432.979,1.249,1.249,0,0,1-.432.979,1.629,1.629,0,0,1-1.121.382,1.629,1.629,0,0,1-1.121-.382A1.249,1.249,0,0,1,137.967-11.3Zm7.338,2.316.091,1.054a3.088,3.088,0,0,1,2.565-1.22,2.273,2.273,0,0,1,2.3,1.353,2.989,2.989,0,0,1,2.64-1.353q2.731,0,2.806,3.3V0H152.9V-5.669a1.712,1.712,0,0,0-.232-1,.989.989,0,0,0-.847-.315,1.325,1.325,0,0,0-1.237.739l.008.116V0h-2.806V-5.653a1.8,1.8,0,0,0-.224-1.021.987.987,0,0,0-.855-.315,1.342,1.342,0,0,0-1.229.739V0h-2.8V-8.981Zm11.646,4.408a5.3,5.3,0,0,1,.523-2.395,3.74,3.74,0,0,1,1.5-1.615,4.525,4.525,0,0,1,2.3-.564A4.13,4.13,0,0,1,164.455-7.9a4.794,4.794,0,0,1,1.162,3.4v.1a4.651,4.651,0,0,1-1.166,3.333A4.141,4.141,0,0,1,161.292.166a4.188,4.188,0,0,1-3.08-1.15A4.5,4.5,0,0,1,156.959-4.1Zm2.8.174a3.342,3.342,0,0,0,.39,1.826,1.3,1.3,0,0,0,1.154.581q1.494,0,1.527-2.3v-.282q0-2.416-1.544-2.416-1.4,0-1.519,2.083Zm9.67-4.582.091,1.054a3.046,3.046,0,0,1,2.565-1.22,2.562,2.562,0,0,1,2.1.838,3.991,3.991,0,0,1,.718,2.523V0h-2.806V-5.669a1.516,1.516,0,0,0-.274-1,1.267,1.267,0,0,0-1-.32,1.334,1.334,0,0,0-1.22.647V0h-2.8V-8.981ZM179.388,0h-2.806V-8.981h2.806Zm-2.972-11.3a1.249,1.249,0,0,1,.432-.979,1.629,1.629,0,0,1,1.121-.382,1.629,1.629,0,0,1,1.121.382,1.249,1.249,0,0,1,.432.979,1.249,1.249,0,0,1-.432.979,1.629,1.629,0,0,1-1.121.382,1.629,1.629,0,0,1-1.121-.382A1.249,1.249,0,0,1,176.417-11.3Zm4.341,6.724a5.3,5.3,0,0,1,.523-2.395,3.74,3.74,0,0,1,1.5-1.615,4.525,4.525,0,0,1,2.3-.564A4.13,4.13,0,0,1,188.262-7.9a4.794,4.794,0,0,1,1.162,3.4v.1a4.651,4.651,0,0,1-1.166,3.333A4.141,4.141,0,0,1,185.1.166a4.188,4.188,0,0,1-3.08-1.15A4.5,4.5,0,0,1,180.766-4.1Zm2.8.174a3.342,3.342,0,0,0,.39,1.826,1.3,1.3,0,0,0,1.154.581q1.494,0,1.527-2.3v-.282q0-2.416-1.544-2.416-1.4,0-1.519,2.083Zm19.3-1.594h-7.687V-8.151h7.687Zm0,3.644h-7.687V-4.507h7.687Zm14.576-8.243L212.915,0H209.96l4.524-9.928h-5.761v-2.158h8.708Zm1.61,4.688.739-6.182h7.064v2.175h-4.79l-.274,2.4a3.3,3.3,0,0,1,.784-.308,3.579,3.579,0,0,1,.95-.133,3.546,3.546,0,0,1,2.768,1.067,4.3,4.3,0,0,1,.967,2.992,4.289,4.289,0,0,1-.519,2.1A3.566,3.566,0,0,1,225.275-.34a4.6,4.6,0,0,1-2.216.506A4.949,4.949,0,0,1,220.925-.3a3.827,3.827,0,0,1-1.561-1.286,3.124,3.124,0,0,1-.556-1.845h2.806a1.587,1.587,0,0,0,.423,1.052,1.344,1.344,0,0,0,1,.389q1.411,0,1.411-2.088,0-1.93-1.727-1.93a1.723,1.723,0,0,0-1.461.63ZM230.5-2.714a1.593,1.593,0,0,1,1.1.394,1.294,1.294,0,0,1,.44,1.009A1.294,1.294,0,0,1,231.6-.3a1.593,1.593,0,0,1-1.1.394,1.579,1.579,0,0,1-1.108-.4,1.3,1.3,0,0,1-.436-1,1.3,1.3,0,0,1,.436-1A1.579,1.579,0,0,1,230.5-2.714ZM240.059,0h-2.806V-8.932l-2.756.805v-2.125l5.3-1.834h.257Zm6.2-7.213h1.32a1.372,1.372,0,0,0,1.569-1.536,1.328,1.328,0,0,0-.374-.975,1.416,1.416,0,0,0-1.054-.378,1.516,1.516,0,0,0-.967.324.988.988,0,0,0-.411.805h-2.8a2.863,2.863,0,0,1,.531-1.7,3.508,3.508,0,0,1,1.473-1.166,5.037,5.037,0,0,1,2.071-.419,4.95,4.95,0,0,1,3.171.921,3.063,3.063,0,0,1,1.154,2.532,2.553,2.553,0,0,1-.477,1.473,3.4,3.4,0,0,1-1.39,1.125,3.249,3.249,0,0,1,1.511,1.058,2.787,2.787,0,0,1,.548,1.756,3.119,3.119,0,0,1-1.245,2.59,5.168,5.168,0,0,1-3.271.971,5.36,5.36,0,0,1-2.2-.452,3.453,3.453,0,0,1-1.54-1.253,3.259,3.259,0,0,1-.523-1.822h2.814a1.26,1.26,0,0,0,.448.963,1.582,1.582,0,0,0,1.1.407A1.658,1.658,0,0,0,248.9-2.4a1.373,1.373,0,0,0,.44-1.05,1.606,1.606,0,0,0-.457-1.295,1.909,1.909,0,0,0-1.262-.382h-1.361Zm7.3-2.548a2.372,2.372,0,0,1,.73-1.81,2.739,2.739,0,0,1,1.959-.689,2.742,2.742,0,0,1,1.967.685,2.435,2.435,0,0,1,.722,1.855v.6a2.359,2.359,0,0,1-.722,1.8,2.729,2.729,0,0,1-1.951.681,2.8,2.8,0,0,1-1.963-.677,2.383,2.383,0,0,1-.743-1.855Zm1.8.637a1,1,0,0,0,.241.7.847.847,0,0,0,.664.268q.872,0,.872-1.105V-9.76a1.058,1.058,0,0,0-.232-.705.81.81,0,0,0-.656-.276.827.827,0,0,0-.647.268,1.052,1.052,0,0,0-.241.73ZM259.3-2.963a2.349,2.349,0,0,1,.735-1.81,2.762,2.762,0,0,1,1.955-.681,2.792,2.792,0,0,1,1.967.672,2.422,2.422,0,0,1,.73,1.876v.581a2.37,2.37,0,0,1-.722,1.81,2.74,2.74,0,0,1-1.959.681,2.8,2.8,0,0,1-1.963-.677,2.384,2.384,0,0,1-.743-1.855Zm1.793.637a.981.981,0,0,0,.266.68.842.842,0,0,0,.647.293.763.763,0,0,0,.872-.759l.008-.85a1.015,1.015,0,0,0-.241-.705.837.837,0,0,0-.656-.268.844.844,0,0,0-.639.252,1,1,0,0,0-.257.68ZM256.793-.9l-1.3-.656,5.9-9.446,1.3.656Z" transform="translate(134 37.851)" fill="#12263f"/>
      </g>
    </g>
    <g id="Grupo_93166" data-name="Grupo 93166" transform="translate(932.51 -4974.116)">
      <rect id="Rectángulo_31816-2" data-name="Rectángulo 31816" width="511.247" height="114.498" transform="translate(205.233 2858.118)" fill="#6595bf"/>
      <g id="Grupo_89142-2" data-name="Grupo 89142" transform="translate(194.177 2852)">
        <rect id="Rectángulo_31778-2" data-name="Rectángulo 31778" width="517.942" height="116.049" transform="translate(0 0)" fill="#fff" stroke="#12263f" stroke-miterlimit="10" stroke-width="1"/>
      </g>
      <g id="Grupo_89143-2" data-name="Grupo 89143" transform="translate(134.872 2883.465)">
        <path id="Trazado_148610" data-name="Trazado 148610" d="M3.827-4.1V0H.913V-12.086H5.736a5.617,5.617,0,0,1,2.453.51,3.847,3.847,0,0,1,1.652,1.453,3.967,3.967,0,0,1,.585,2.137A3.5,3.5,0,0,1,9.16-5.159,5.252,5.252,0,0,1,5.686-4.1Zm0-2.25H5.736a1.8,1.8,0,0,0,1.291-.423,1.573,1.573,0,0,0,.444-1.2,1.944,1.944,0,0,0-.457-1.353,1.617,1.617,0,0,0-1.245-.515H3.827ZM16.817,0a3.159,3.159,0,0,1-.266-.805,2.6,2.6,0,0,1-2.158.971A3.187,3.187,0,0,1,12.235-.6a2.444,2.444,0,0,1-.888-1.93A2.512,2.512,0,0,1,12.426-4.74a5.5,5.5,0,0,1,3.138-.747h.863v-.475q0-1.243-1.071-1.243a.875.875,0,0,0-1,.984h-2.8a2.508,2.508,0,0,1,1.108-2.114A4.657,4.657,0,0,1,15.5-9.147a4.083,4.083,0,0,1,2.714.838,2.915,2.915,0,0,1,1.021,2.3v3.976a4.072,4.072,0,0,0,.382,1.893V0ZM15.066-1.826a1.56,1.56,0,0,0,.867-.224,1.4,1.4,0,0,0,.494-.506V-3.993h-.813q-1.461,0-1.461,1.312a.8.8,0,0,0,.257.618A.931.931,0,0,0,15.066-1.826ZM26.214-6.45l-.921-.066a1.655,1.655,0,0,0-1.693.83V0H20.8V-8.981h2.623l.091,1.154a2.166,2.166,0,0,1,1.967-1.32,2.728,2.728,0,0,1,.78.1ZM30.9-11.214v2.233h1.478v1.942H30.9V-2.93a1.049,1.049,0,0,0,.183.706.98.98,0,0,0,.722.2,4.1,4.1,0,0,0,.7-.05v2A5.163,5.163,0,0,1,30.92.166a2.93,2.93,0,0,1-2.133-.681A2.79,2.79,0,0,1,28.1-2.582V-7.039H26.953V-8.981H28.1v-2.233ZM36.424,0H33.618V-8.981h2.806ZM33.452-11.3a1.249,1.249,0,0,1,.432-.979A1.629,1.629,0,0,1,35-12.659a1.629,1.629,0,0,1,1.121.382,1.249,1.249,0,0,1,.432.979,1.249,1.249,0,0,1-.432.979A1.629,1.629,0,0,1,35-9.936a1.629,1.629,0,0,1-1.121-.382A1.249,1.249,0,0,1,33.452-11.3Zm8.492,9.305a1.244,1.244,0,0,0,.913-.32,1.172,1.172,0,0,0,.315-.892H45.8A3.105,3.105,0,0,1,44.737-.78,3.937,3.937,0,0,1,42.01.166a3.986,3.986,0,0,1-3.088-1.229,4.841,4.841,0,0,1-1.129-3.4v-.116a5.471,5.471,0,0,1,.5-2.4,3.656,3.656,0,0,1,1.448-1.6,4.319,4.319,0,0,1,2.241-.56,3.887,3.887,0,0,1,2.781.971A3.445,3.445,0,0,1,45.8-5.545H43.172a1.536,1.536,0,0,0-.34-1.071,1.175,1.175,0,0,0-.913-.374q-1.087,0-1.27,1.386a9.781,9.781,0,0,0-.058,1.212,3.842,3.842,0,0,0,.324,1.876A1.121,1.121,0,0,0,41.944-1.992ZM49.929,0H47.124V-8.981h2.806ZM46.958-11.3a1.249,1.249,0,0,1,.432-.979,1.629,1.629,0,0,1,1.121-.382,1.629,1.629,0,0,1,1.121.382,1.249,1.249,0,0,1,.432.979,1.249,1.249,0,0,1-.432.979,1.629,1.629,0,0,1-1.121.382,1.629,1.629,0,0,1-1.121-.382A1.249,1.249,0,0,1,46.958-11.3ZM59.99-4.424a5.416,5.416,0,0,1-.942,3.341A3.021,3.021,0,0,1,56.5.166a2.589,2.589,0,0,1-2.034-.9V3.453h-2.8V-8.981h2.615l.083.83a2.589,2.589,0,0,1,2.117-1,3.045,3.045,0,0,1,2.582,1.224,5.483,5.483,0,0,1,.921,3.366Zm-2.8-.174q0-2.391-1.395-2.391a1.316,1.316,0,0,0-1.328.714v3.536a1.359,1.359,0,0,0,1.345.747q1.336,0,1.378-2.308ZM66.282,0a3.159,3.159,0,0,1-.266-.805,2.6,2.6,0,0,1-2.158.971A3.187,3.187,0,0,1,61.7-.6a2.444,2.444,0,0,1-.888-1.93A2.512,2.512,0,0,1,61.891-4.74a5.5,5.5,0,0,1,3.138-.747h.863v-.475q0-1.243-1.071-1.243a.875.875,0,0,0-1,.984h-2.8a2.508,2.508,0,0,1,1.108-2.114,4.657,4.657,0,0,1,2.826-.813,4.083,4.083,0,0,1,2.714.838A2.915,2.915,0,0,1,68.7-6.01v3.976a4.072,4.072,0,0,0,.382,1.893V0ZM64.53-1.826A1.56,1.56,0,0,0,65.4-2.05a1.4,1.4,0,0,0,.494-.506V-3.993h-.813q-1.461,0-1.461,1.312a.8.8,0,0,0,.257.618A.931.931,0,0,0,64.53-1.826Zm9.513-.166a1.244,1.244,0,0,0,.913-.32,1.172,1.172,0,0,0,.315-.892h2.623A3.105,3.105,0,0,1,76.836-.78a3.937,3.937,0,0,1-2.727.946,3.986,3.986,0,0,1-3.088-1.229,4.841,4.841,0,0,1-1.129-3.4v-.116a5.471,5.471,0,0,1,.5-2.4,3.656,3.656,0,0,1,1.448-1.6,4.319,4.319,0,0,1,2.241-.56,3.887,3.887,0,0,1,2.781.971,3.445,3.445,0,0,1,1.029,2.631H75.271a1.536,1.536,0,0,0-.34-1.071,1.175,1.175,0,0,0-.913-.374q-1.087,0-1.27,1.386a9.782,9.782,0,0,0-.058,1.212,3.842,3.842,0,0,0,.324,1.876A1.121,1.121,0,0,0,74.043-1.992ZM82.028,0H79.223V-8.981h2.806ZM79.057-11.3a1.249,1.249,0,0,1,.432-.979,1.629,1.629,0,0,1,1.121-.382,1.629,1.629,0,0,1,1.121.382,1.249,1.249,0,0,1,.432.979,1.249,1.249,0,0,1-.432.979,1.629,1.629,0,0,1-1.121.382,1.629,1.629,0,0,1-1.121-.382A1.249,1.249,0,0,1,79.057-11.3ZM83.4-4.574a5.3,5.3,0,0,1,.523-2.395,3.74,3.74,0,0,1,1.5-1.615,4.525,4.525,0,0,1,2.3-.564A4.13,4.13,0,0,1,90.9-7.9a4.794,4.794,0,0,1,1.162,3.4v.1A4.651,4.651,0,0,1,90.9-1.067,4.141,4.141,0,0,1,87.739.166a4.188,4.188,0,0,1-3.08-1.15A4.5,4.5,0,0,1,83.406-4.1Zm2.8.174a3.342,3.342,0,0,0,.39,1.826,1.3,1.3,0,0,0,1.154.581q1.494,0,1.527-2.3v-.282q0-2.416-1.544-2.416-1.4,0-1.519,2.083ZM88.1-12.75H91.06l-2.308,2.606-2.283,0Zm7.761,3.769.091,1.054a3.046,3.046,0,0,1,2.565-1.22,2.562,2.562,0,0,1,2.1.838,3.991,3.991,0,0,1,.718,2.523V0H98.53V-5.669a1.516,1.516,0,0,0-.274-1,1.267,1.267,0,0,0-1-.32,1.334,1.334,0,0,0-1.22.647V0h-2.8V-8.981Zm19.59,4.557a5.416,5.416,0,0,1-.942,3.341A3.021,3.021,0,0,1,111.969.166a2.589,2.589,0,0,1-2.034-.9V3.453h-2.8V-8.981h2.615l.083.83a2.589,2.589,0,0,1,2.117-1,3.045,3.045,0,0,1,2.582,1.224,5.483,5.483,0,0,1,.921,3.366Zm-2.8-.174q0-2.391-1.395-2.391a1.316,1.316,0,0,0-1.328.714v3.536a1.359,1.359,0,0,0,1.345.747q1.336,0,1.378-2.308ZM121.748,0a3.159,3.159,0,0,1-.266-.805,2.6,2.6,0,0,1-2.158.971A3.187,3.187,0,0,1,117.166-.6a2.444,2.444,0,0,1-.888-1.93,2.512,2.512,0,0,1,1.079-2.208,5.5,5.5,0,0,1,3.138-.747h.863v-.475q0-1.243-1.071-1.243a.875.875,0,0,0-1,.984h-2.8A2.508,2.508,0,0,1,117.6-8.335a4.657,4.657,0,0,1,2.826-.813,4.083,4.083,0,0,1,2.714.838,2.915,2.915,0,0,1,1.021,2.3v3.976a4.072,4.072,0,0,0,.382,1.893V0ZM120-1.826a1.56,1.56,0,0,0,.867-.224,1.4,1.4,0,0,0,.494-.506V-3.993h-.813q-1.461,0-1.461,1.312a.8.8,0,0,0,.257.618A.931.931,0,0,0,120-1.826Zm8.973-9.388v2.233h1.478v1.942h-1.478V-2.93a1.049,1.049,0,0,0,.183.706.98.98,0,0,0,.722.2,4.1,4.1,0,0,0,.7-.05v2a5.163,5.163,0,0,1-1.577.241,2.93,2.93,0,0,1-2.133-.681,2.79,2.79,0,0,1-.689-2.067V-7.039h-1.146V-8.981h1.146v-2.233Zm8.01,4.765-.921-.066a1.655,1.655,0,0,0-1.693.83V0h-2.8V-8.981h2.623l.091,1.154a2.166,2.166,0,0,1,1.967-1.32,2.728,2.728,0,0,1,.78.1ZM140.939,0h-2.806V-8.981h2.806Zm-2.972-11.3a1.249,1.249,0,0,1,.432-.979,1.629,1.629,0,0,1,1.121-.382,1.629,1.629,0,0,1,1.121.382,1.249,1.249,0,0,1,.432.979,1.249,1.249,0,0,1-.432.979,1.629,1.629,0,0,1-1.121.382,1.629,1.629,0,0,1-1.121-.382A1.249,1.249,0,0,1,137.967-11.3Zm7.338,2.316.091,1.054a3.088,3.088,0,0,1,2.565-1.22,2.273,2.273,0,0,1,2.3,1.353,2.989,2.989,0,0,1,2.64-1.353q2.731,0,2.806,3.3V0H152.9V-5.669a1.712,1.712,0,0,0-.232-1,.989.989,0,0,0-.847-.315,1.325,1.325,0,0,0-1.237.739l.008.116V0h-2.806V-5.653a1.8,1.8,0,0,0-.224-1.021.987.987,0,0,0-.855-.315,1.342,1.342,0,0,0-1.229.739V0h-2.8V-8.981Zm11.646,4.408a5.3,5.3,0,0,1,.523-2.395,3.74,3.74,0,0,1,1.5-1.615,4.525,4.525,0,0,1,2.3-.564A4.13,4.13,0,0,1,164.455-7.9a4.794,4.794,0,0,1,1.162,3.4v.1a4.651,4.651,0,0,1-1.166,3.333A4.141,4.141,0,0,1,161.292.166a4.188,4.188,0,0,1-3.08-1.15A4.5,4.5,0,0,1,156.959-4.1Zm2.8.174a3.342,3.342,0,0,0,.39,1.826,1.3,1.3,0,0,0,1.154.581q1.494,0,1.527-2.3v-.282q0-2.416-1.544-2.416-1.4,0-1.519,2.083Zm9.67-4.582.091,1.054a3.046,3.046,0,0,1,2.565-1.22,2.562,2.562,0,0,1,2.1.838,3.991,3.991,0,0,1,.718,2.523V0h-2.806V-5.669a1.516,1.516,0,0,0-.274-1,1.267,1.267,0,0,0-1-.32,1.334,1.334,0,0,0-1.22.647V0h-2.8V-8.981ZM179.388,0h-2.806V-8.981h2.806Zm-2.972-11.3a1.249,1.249,0,0,1,.432-.979,1.629,1.629,0,0,1,1.121-.382,1.629,1.629,0,0,1,1.121.382,1.249,1.249,0,0,1,.432.979,1.249,1.249,0,0,1-.432.979,1.629,1.629,0,0,1-1.121.382,1.629,1.629,0,0,1-1.121-.382A1.249,1.249,0,0,1,176.417-11.3Zm4.341,6.724a5.3,5.3,0,0,1,.523-2.395,3.74,3.74,0,0,1,1.5-1.615,4.525,4.525,0,0,1,2.3-.564A4.13,4.13,0,0,1,188.262-7.9a4.794,4.794,0,0,1,1.162,3.4v.1a4.651,4.651,0,0,1-1.166,3.333A4.141,4.141,0,0,1,185.1.166a4.188,4.188,0,0,1-3.08-1.15A4.5,4.5,0,0,1,180.766-4.1Zm2.8.174a3.342,3.342,0,0,0,.39,1.826,1.3,1.3,0,0,0,1.154.581q1.494,0,1.527-2.3v-.282q0-2.416-1.544-2.416-1.4,0-1.519,2.083Zm19.3-1.594h-7.687V-8.151h7.687Zm0,3.644h-7.687V-4.507h7.687Z" transform="translate(100 37.851)" fill="#12263f"/>
        <text id="_" data-name="—————————" transform="translate(313.327 37.859)" fill="#12263f" font-size="25" font-family="Roboto-Black, Roboto" font-weight="800"><tspan x="0" y="0">—————————</tspan></text>
        <path id="Trazado_148609" data-name="Trazado 148609" d="M3.827-4.1V0H.913V-12.086H5.736a5.617,5.617,0,0,1,2.453.51,3.847,3.847,0,0,1,1.652,1.453,3.967,3.967,0,0,1,.585,2.137A3.5,3.5,0,0,1,9.16-5.159,5.252,5.252,0,0,1,5.686-4.1Zm0-2.25H5.736a1.8,1.8,0,0,0,1.291-.423,1.573,1.573,0,0,0,.444-1.2,1.944,1.944,0,0,0-.457-1.353,1.617,1.617,0,0,0-1.245-.515H3.827ZM16.817,0a3.159,3.159,0,0,1-.266-.805,2.6,2.6,0,0,1-2.158.971A3.187,3.187,0,0,1,12.235-.6a2.444,2.444,0,0,1-.888-1.93A2.512,2.512,0,0,1,12.426-4.74a5.5,5.5,0,0,1,3.138-.747h.863v-.475q0-1.243-1.071-1.243a.875.875,0,0,0-1,.984h-2.8a2.508,2.508,0,0,1,1.108-2.114A4.657,4.657,0,0,1,15.5-9.147a4.083,4.083,0,0,1,2.714.838,2.915,2.915,0,0,1,1.021,2.3v3.976a4.072,4.072,0,0,0,.382,1.893V0ZM15.066-1.826a1.56,1.56,0,0,0,.867-.224,1.4,1.4,0,0,0,.494-.506V-3.993h-.813q-1.461,0-1.461,1.312a.8.8,0,0,0,.257.618A.931.931,0,0,0,15.066-1.826Zm8.973-9.388v2.233h1.478v1.942H24.039V-2.93a1.049,1.049,0,0,0,.183.706.98.98,0,0,0,.722.2,4.1,4.1,0,0,0,.7-.05v2a5.163,5.163,0,0,1-1.577.241,2.93,2.93,0,0,1-2.133-.681,2.79,2.79,0,0,1-.689-2.067V-7.039H20.1V-8.981h1.146v-2.233Zm8.01,4.765-.921-.066a1.655,1.655,0,0,0-1.693.83V0h-2.8V-8.981H29.26l.091,1.154a2.166,2.166,0,0,1,1.967-1.32,2.728,2.728,0,0,1,.78.1ZM36.009,0H33.2V-8.981h2.806ZM33.037-11.3a1.249,1.249,0,0,1,.432-.979,1.629,1.629,0,0,1,1.121-.382,1.629,1.629,0,0,1,1.121.382,1.249,1.249,0,0,1,.432.979,1.249,1.249,0,0,1-.432.979,1.629,1.629,0,0,1-1.121.382,1.629,1.629,0,0,1-1.121-.382A1.249,1.249,0,0,1,33.037-11.3Zm7.338,2.316.091,1.054a3.088,3.088,0,0,1,2.565-1.22,2.273,2.273,0,0,1,2.3,1.353,2.989,2.989,0,0,1,2.64-1.353q2.731,0,2.806,3.3V0H47.97V-5.669a1.712,1.712,0,0,0-.232-1,.989.989,0,0,0-.847-.315,1.325,1.325,0,0,0-1.237.739l.008.116V0H42.857V-5.653a1.8,1.8,0,0,0-.224-1.021.987.987,0,0,0-.855-.315,1.342,1.342,0,0,0-1.229.739V0h-2.8V-8.981ZM52.021-4.574a5.3,5.3,0,0,1,.523-2.395,3.74,3.74,0,0,1,1.5-1.615,4.525,4.525,0,0,1,2.3-.564A4.13,4.13,0,0,1,59.525-7.9a4.794,4.794,0,0,1,1.162,3.4v.1a4.651,4.651,0,0,1-1.166,3.333A4.141,4.141,0,0,1,56.362.166a4.188,4.188,0,0,1-3.08-1.15A4.5,4.5,0,0,1,52.029-4.1Zm2.8.174a3.342,3.342,0,0,0,.39,1.826,1.3,1.3,0,0,0,1.154.581q1.494,0,1.527-2.3v-.282q0-2.416-1.544-2.416-1.4,0-1.519,2.083Zm9.67-4.582.091,1.054a3.046,3.046,0,0,1,2.565-1.22,2.562,2.562,0,0,1,2.1.838,3.991,3.991,0,0,1,.718,2.523V0H67.153V-5.669a1.516,1.516,0,0,0-.274-1,1.267,1.267,0,0,0-1-.32,1.334,1.334,0,0,0-1.22.647V0h-2.8V-8.981ZM74.458,0H71.652V-8.981h2.806ZM71.486-11.3a1.249,1.249,0,0,1,.432-.979,1.629,1.629,0,0,1,1.121-.382,1.629,1.629,0,0,1,1.121.382,1.249,1.249,0,0,1,.432.979,1.249,1.249,0,0,1-.432.979,1.629,1.629,0,0,1-1.121.382,1.629,1.629,0,0,1-1.121-.382A1.249,1.249,0,0,1,71.486-11.3Zm4.341,6.724a5.3,5.3,0,0,1,.523-2.395,3.74,3.74,0,0,1,1.5-1.615,4.525,4.525,0,0,1,2.3-.564A4.13,4.13,0,0,1,83.332-7.9a4.794,4.794,0,0,1,1.162,3.4v.1a4.651,4.651,0,0,1-1.166,3.333A4.141,4.141,0,0,1,80.169.166a4.188,4.188,0,0,1-3.08-1.15A4.5,4.5,0,0,1,75.836-4.1Zm2.8.174a3.342,3.342,0,0,0,.39,1.826,1.3,1.3,0,0,0,1.154.581q1.494,0,1.527-2.3v-.282q0-2.416-1.544-2.416-1.4,0-1.519,2.083Z" transform="translate(360.754 16)" fill="#12263f"/>
        <path id="Trazado_148611" data-name="Trazado 148611" d="M10.691-4.092a4.414,4.414,0,0,1-.681,2.229,4.108,4.108,0,0,1-1.747,1.5A5.947,5.947,0,0,1,5.694.166,4.746,4.746,0,0,1,1.942-1.386,6.409,6.409,0,0,1,.573-5.769v-.6a7.316,7.316,0,0,1,.618-3.109,4.686,4.686,0,0,1,1.781-2.059,4.968,4.968,0,0,1,2.689-.726A5.209,5.209,0,0,1,9.2-11.1a4.575,4.575,0,0,1,1.519,3.192H7.811A2.165,2.165,0,0,0,7.255-9.5a2.287,2.287,0,0,0-1.594-.481,1.74,1.74,0,0,0-1.594.813,5.228,5.228,0,0,0-.531,2.6v.855a5.785,5.785,0,0,0,.486,2.764,1.777,1.777,0,0,0,1.673.83A2.237,2.237,0,0,0,7.23-2.59a2.008,2.008,0,0,0,.564-1.5ZM17,0a3.159,3.159,0,0,1-.266-.805,2.6,2.6,0,0,1-2.158.971A3.187,3.187,0,0,1,12.418-.6a2.444,2.444,0,0,1-.888-1.93A2.512,2.512,0,0,1,12.609-4.74a5.5,5.5,0,0,1,3.138-.747h.863v-.475q0-1.243-1.071-1.243a.875.875,0,0,0-1,.984h-2.8a2.508,2.508,0,0,1,1.108-2.114,4.657,4.657,0,0,1,2.826-.813,4.083,4.083,0,0,1,2.714.838,2.915,2.915,0,0,1,1.021,2.3v3.976A4.072,4.072,0,0,0,19.8-.141V0ZM15.249-1.826a1.56,1.56,0,0,0,.867-.224,1.4,1.4,0,0,0,.494-.506V-3.993H15.8q-1.461,0-1.461,1.312a.8.8,0,0,0,.257.618A.931.931,0,0,0,15.249-1.826ZM29.3-4.424a5.416,5.416,0,0,1-.942,3.341A3.021,3.021,0,0,1,25.815.166a2.589,2.589,0,0,1-2.034-.9V3.453h-2.8V-8.981H23.6l.083.83a2.589,2.589,0,0,1,2.117-1A3.045,3.045,0,0,1,28.38-7.923,5.483,5.483,0,0,1,29.3-4.557ZM26.5-4.6q0-2.391-1.395-2.391a1.316,1.316,0,0,0-1.328.714v3.536a1.359,1.359,0,0,0,1.345.747q1.336,0,1.378-2.308ZM33.485,0H30.68V-8.981h2.806ZM30.514-11.3a1.249,1.249,0,0,1,.432-.979,1.629,1.629,0,0,1,1.121-.382,1.629,1.629,0,0,1,1.121.382,1.249,1.249,0,0,1,.432.979,1.249,1.249,0,0,1-.432.979,1.629,1.629,0,0,1-1.121.382,1.629,1.629,0,0,1-1.121-.382A1.249,1.249,0,0,1,30.514-11.3Zm7.952.083v2.233h1.478v1.942H38.466V-2.93a1.049,1.049,0,0,0,.183.706.98.98,0,0,0,.722.2,4.1,4.1,0,0,0,.7-.05v2a5.163,5.163,0,0,1-1.577.241,2.93,2.93,0,0,1-2.133-.681,2.79,2.79,0,0,1-.689-2.067V-7.039H34.523V-8.981h1.146v-2.233ZM46.1,0a3.158,3.158,0,0,1-.266-.805,2.6,2.6,0,0,1-2.158.971A3.187,3.187,0,0,1,41.521-.6a2.444,2.444,0,0,1-.888-1.93A2.512,2.512,0,0,1,41.711-4.74a5.5,5.5,0,0,1,3.138-.747h.863v-.475q0-1.243-1.071-1.243a.875.875,0,0,0-1,.984h-2.8a2.508,2.508,0,0,1,1.108-2.114,4.657,4.657,0,0,1,2.826-.813,4.083,4.083,0,0,1,2.714.838,2.915,2.915,0,0,1,1.021,2.3v3.976A4.072,4.072,0,0,0,48.9-.141V0ZM44.351-1.826a1.56,1.56,0,0,0,.867-.224,1.4,1.4,0,0,0,.494-.506V-3.993H44.9q-1.461,0-1.461,1.312a.8.8,0,0,0,.257.618A.931.931,0,0,0,44.351-1.826ZM53.017,0H50.211V-12.75h2.806Zm8.907,0H59.118V-8.981h2.806ZM58.952-11.3a1.249,1.249,0,0,1,.432-.979,1.629,1.629,0,0,1,1.121-.382,1.629,1.629,0,0,1,1.121.382,1.249,1.249,0,0,1,.432.979,1.249,1.249,0,0,1-.432.979,1.629,1.629,0,0,1-1.121.382,1.629,1.629,0,0,1-1.121-.382A1.249,1.249,0,0,1,58.952-11.3Zm7.263,2.316.091,1.054a3.046,3.046,0,0,1,2.565-1.22,2.562,2.562,0,0,1,2.1.838,3.991,3.991,0,0,1,.718,2.523V0H68.88V-5.669a1.516,1.516,0,0,0-.274-1,1.267,1.267,0,0,0-1-.32,1.334,1.334,0,0,0-1.22.647V0h-2.8V-8.981Zm10.6,5.653,1.419-5.653h2.947L78.251,0H75.4l-2.93-8.981h2.955ZM86.361.166a4.617,4.617,0,0,1-3.345-1.233,4.257,4.257,0,0,1-1.278-3.208v-.232a5.516,5.516,0,0,1,.51-2.432,3.735,3.735,0,0,1,1.49-1.631,4.5,4.5,0,0,1,2.324-.577,3.888,3.888,0,0,1,2.988,1.175,4.616,4.616,0,0,1,1.1,3.275v1.087H84.585a2.016,2.016,0,0,0,.656,1.187,1.951,1.951,0,0,0,1.312.432,2.514,2.514,0,0,0,2.075-.93l1.278,1.511a3.573,3.573,0,0,1-1.482,1.15A5.007,5.007,0,0,1,86.361.166Zm-.315-7.155q-1.229,0-1.461,1.627h2.822v-.216a1.386,1.386,0,0,0-.34-1.042A1.354,1.354,0,0,0,86.046-6.989ZM96.7-6.45l-.921-.066a1.655,1.655,0,0,0-1.693.83V0h-2.8V-8.981h2.623l.091,1.154a2.166,2.166,0,0,1,1.967-1.32,2.728,2.728,0,0,1,.78.1Zm4.682-4.765v2.233h1.478v1.942h-1.478V-2.93a1.049,1.049,0,0,0,.183.706.98.98,0,0,0,.722.2,4.1,4.1,0,0,0,.7-.05v2a5.163,5.163,0,0,1-1.577.241,2.93,2.93,0,0,1-2.133-.681,2.79,2.79,0,0,1-.689-2.067V-7.039H97.443V-8.981h1.146v-2.233ZM106.914,0h-2.806V-8.981h2.806Zm-2.972-11.3a1.249,1.249,0,0,1,.432-.979,1.629,1.629,0,0,1,1.121-.382,1.629,1.629,0,0,1,1.121.382,1.249,1.249,0,0,1,.432.979,1.249,1.249,0,0,1-.432.979,1.629,1.629,0,0,1-1.121.382,1.629,1.629,0,0,1-1.121-.382A1.249,1.249,0,0,1,103.942-11.3Zm4.341,6.74a5.486,5.486,0,0,1,.921-3.362,3.033,3.033,0,0,1,2.573-1.229A2.579,2.579,0,0,1,113.8-8.2V-12.75h2.806V0h-2.515l-.141-.963A2.649,2.649,0,0,1,111.762.166a3.027,3.027,0,0,1-2.54-1.229A5.66,5.66,0,0,1,108.284-4.557Zm2.8.174q0,2.391,1.395,2.391a1.377,1.377,0,0,0,1.328-.78v-3.42a1.34,1.34,0,0,0-1.312-.8q-1.295,0-1.4,2.092Zm6.765-.191a5.3,5.3,0,0,1,.523-2.395,3.74,3.74,0,0,1,1.5-1.615,4.525,4.525,0,0,1,2.3-.564A4.13,4.13,0,0,1,125.35-7.9a4.794,4.794,0,0,1,1.162,3.4v.1a4.651,4.651,0,0,1-1.166,3.333A4.141,4.141,0,0,1,122.188.166a4.188,4.188,0,0,1-3.08-1.15A4.5,4.5,0,0,1,117.854-4.1Zm2.8.174a3.342,3.342,0,0,0,.39,1.826,1.3,1.3,0,0,0,1.154.581q1.494,0,1.527-2.3v-.282q0-2.416-1.544-2.416-1.4,0-1.519,2.083Z" transform="translate(337.312 54.457)" fill="#12263f"/>
      </g>
    </g>
    <g id="Grupo_93167" data-name="Grupo 93167" transform="translate(932.51 -4836.116)">
      <rect id="Rectángulo_31816-3" data-name="Rectángulo 31816" width="511.247" height="114.498" transform="translate(205.233 2858.118)" fill="#6595bf"/>
      <g id="Grupo_89142-3" data-name="Grupo 89142" transform="translate(194.177 2852)">
        <rect id="Rectángulo_31778-3" data-name="Rectángulo 31778" width="517.942" height="116.049" transform="translate(0 0)" fill="#fff" stroke="#12263f" stroke-miterlimit="10" stroke-width="1"/>
      </g>
      <g id="Grupo_89143-3" data-name="Grupo 89143" transform="translate(142.872 2883.465)">
        <path id="Trazado_148612" data-name="Trazado 148612" d="M3.827-4.1V0H.913V-12.086H5.736a5.617,5.617,0,0,1,2.453.51,3.847,3.847,0,0,1,1.652,1.453,3.967,3.967,0,0,1,.585,2.137A3.5,3.5,0,0,1,9.16-5.159,5.252,5.252,0,0,1,5.686-4.1Zm0-2.25H5.736a1.8,1.8,0,0,0,1.291-.423,1.573,1.573,0,0,0,.444-1.2,1.944,1.944,0,0,0-.457-1.353,1.617,1.617,0,0,0-1.245-.515H3.827ZM16.817,0a3.159,3.159,0,0,1-.266-.805,2.6,2.6,0,0,1-2.158.971A3.187,3.187,0,0,1,12.235-.6a2.444,2.444,0,0,1-.888-1.93A2.512,2.512,0,0,1,12.426-4.74a5.5,5.5,0,0,1,3.138-.747h.863v-.475q0-1.243-1.071-1.243a.875.875,0,0,0-1,.984h-2.8a2.508,2.508,0,0,1,1.108-2.114A4.657,4.657,0,0,1,15.5-9.147a4.083,4.083,0,0,1,2.714.838,2.915,2.915,0,0,1,1.021,2.3v3.976a4.072,4.072,0,0,0,.382,1.893V0ZM15.066-1.826a1.56,1.56,0,0,0,.867-.224,1.4,1.4,0,0,0,.494-.506V-3.993h-.813q-1.461,0-1.461,1.312a.8.8,0,0,0,.257.618A.931.931,0,0,0,15.066-1.826ZM26.214-6.45l-.921-.066a1.655,1.655,0,0,0-1.693.83V0H20.8V-8.981h2.623l.091,1.154a2.166,2.166,0,0,1,1.967-1.32,2.728,2.728,0,0,1,.78.1ZM30.9-11.214v2.233h1.478v1.942H30.9V-2.93a1.049,1.049,0,0,0,.183.706.98.98,0,0,0,.722.2,4.1,4.1,0,0,0,.7-.05v2A5.163,5.163,0,0,1,30.92.166a2.93,2.93,0,0,1-2.133-.681A2.79,2.79,0,0,1,28.1-2.582V-7.039H26.953V-8.981H28.1v-2.233ZM36.424,0H33.618V-8.981h2.806ZM33.452-11.3a1.249,1.249,0,0,1,.432-.979A1.629,1.629,0,0,1,35-12.659a1.629,1.629,0,0,1,1.121.382,1.249,1.249,0,0,1,.432.979,1.249,1.249,0,0,1-.432.979A1.629,1.629,0,0,1,35-9.936a1.629,1.629,0,0,1-1.121-.382A1.249,1.249,0,0,1,33.452-11.3Zm8.492,9.305a1.244,1.244,0,0,0,.913-.32,1.172,1.172,0,0,0,.315-.892H45.8A3.105,3.105,0,0,1,44.737-.78,3.937,3.937,0,0,1,42.01.166a3.986,3.986,0,0,1-3.088-1.229,4.841,4.841,0,0,1-1.129-3.4v-.116a5.471,5.471,0,0,1,.5-2.4,3.656,3.656,0,0,1,1.448-1.6,4.319,4.319,0,0,1,2.241-.56,3.887,3.887,0,0,1,2.781.971A3.445,3.445,0,0,1,45.8-5.545H43.172a1.536,1.536,0,0,0-.34-1.071,1.175,1.175,0,0,0-.913-.374q-1.087,0-1.27,1.386a9.781,9.781,0,0,0-.058,1.212,3.842,3.842,0,0,0,.324,1.876A1.121,1.121,0,0,0,41.944-1.992ZM49.929,0H47.124V-8.981h2.806ZM46.958-11.3a1.249,1.249,0,0,1,.432-.979,1.629,1.629,0,0,1,1.121-.382,1.629,1.629,0,0,1,1.121.382,1.249,1.249,0,0,1,.432.979,1.249,1.249,0,0,1-.432.979,1.629,1.629,0,0,1-1.121.382,1.629,1.629,0,0,1-1.121-.382A1.249,1.249,0,0,1,46.958-11.3ZM59.99-4.424a5.416,5.416,0,0,1-.942,3.341A3.021,3.021,0,0,1,56.5.166a2.589,2.589,0,0,1-2.034-.9V3.453h-2.8V-8.981h2.615l.083.83a2.589,2.589,0,0,1,2.117-1,3.045,3.045,0,0,1,2.582,1.224,5.483,5.483,0,0,1,.921,3.366Zm-2.8-.174q0-2.391-1.395-2.391a1.316,1.316,0,0,0-1.328.714v3.536a1.359,1.359,0,0,0,1.345.747q1.336,0,1.378-2.308ZM66.282,0a3.159,3.159,0,0,1-.266-.805,2.6,2.6,0,0,1-2.158.971A3.187,3.187,0,0,1,61.7-.6a2.444,2.444,0,0,1-.888-1.93A2.512,2.512,0,0,1,61.891-4.74a5.5,5.5,0,0,1,3.138-.747h.863v-.475q0-1.243-1.071-1.243a.875.875,0,0,0-1,.984h-2.8a2.508,2.508,0,0,1,1.108-2.114,4.657,4.657,0,0,1,2.826-.813,4.083,4.083,0,0,1,2.714.838A2.915,2.915,0,0,1,68.7-6.01v3.976a4.072,4.072,0,0,0,.382,1.893V0ZM64.53-1.826A1.56,1.56,0,0,0,65.4-2.05a1.4,1.4,0,0,0,.494-.506V-3.993h-.813q-1.461,0-1.461,1.312a.8.8,0,0,0,.257.618A.931.931,0,0,0,64.53-1.826Zm9.513-.166a1.244,1.244,0,0,0,.913-.32,1.172,1.172,0,0,0,.315-.892h2.623A3.105,3.105,0,0,1,76.836-.78a3.937,3.937,0,0,1-2.727.946,3.986,3.986,0,0,1-3.088-1.229,4.841,4.841,0,0,1-1.129-3.4v-.116a5.471,5.471,0,0,1,.5-2.4,3.656,3.656,0,0,1,1.448-1.6,4.319,4.319,0,0,1,2.241-.56,3.887,3.887,0,0,1,2.781.971,3.445,3.445,0,0,1,1.029,2.631H75.271a1.536,1.536,0,0,0-.34-1.071,1.175,1.175,0,0,0-.913-.374q-1.087,0-1.27,1.386a9.782,9.782,0,0,0-.058,1.212,3.842,3.842,0,0,0,.324,1.876A1.121,1.121,0,0,0,74.043-1.992ZM82.028,0H79.223V-8.981h2.806ZM79.057-11.3a1.249,1.249,0,0,1,.432-.979,1.629,1.629,0,0,1,1.121-.382,1.629,1.629,0,0,1,1.121.382,1.249,1.249,0,0,1,.432.979,1.249,1.249,0,0,1-.432.979,1.629,1.629,0,0,1-1.121.382,1.629,1.629,0,0,1-1.121-.382A1.249,1.249,0,0,1,79.057-11.3ZM83.4-4.574a5.3,5.3,0,0,1,.523-2.395,3.74,3.74,0,0,1,1.5-1.615,4.525,4.525,0,0,1,2.3-.564A4.13,4.13,0,0,1,90.9-7.9a4.794,4.794,0,0,1,1.162,3.4v.1A4.651,4.651,0,0,1,90.9-1.067,4.141,4.141,0,0,1,87.739.166a4.188,4.188,0,0,1-3.08-1.15A4.5,4.5,0,0,1,83.406-4.1Zm2.8.174a3.342,3.342,0,0,0,.39,1.826,1.3,1.3,0,0,0,1.154.581q1.494,0,1.527-2.3v-.282q0-2.416-1.544-2.416-1.4,0-1.519,2.083ZM88.1-12.75H91.06l-2.308,2.606-2.283,0Zm7.761,3.769.091,1.054a3.046,3.046,0,0,1,2.565-1.22,2.562,2.562,0,0,1,2.1.838,3.991,3.991,0,0,1,.718,2.523V0H98.53V-5.669a1.516,1.516,0,0,0-.274-1,1.267,1.267,0,0,0-1-.32,1.334,1.334,0,0,0-1.22.647V0h-2.8V-8.981Zm19.59,4.557a5.416,5.416,0,0,1-.942,3.341A3.021,3.021,0,0,1,111.969.166a2.589,2.589,0,0,1-2.034-.9V3.453h-2.8V-8.981h2.615l.083.83a2.589,2.589,0,0,1,2.117-1,3.045,3.045,0,0,1,2.582,1.224,5.483,5.483,0,0,1,.921,3.366Zm-2.8-.174q0-2.391-1.395-2.391a1.316,1.316,0,0,0-1.328.714v3.536a1.359,1.359,0,0,0,1.345.747q1.336,0,1.378-2.308ZM121.748,0a3.159,3.159,0,0,1-.266-.805,2.6,2.6,0,0,1-2.158.971A3.187,3.187,0,0,1,117.166-.6a2.444,2.444,0,0,1-.888-1.93,2.512,2.512,0,0,1,1.079-2.208,5.5,5.5,0,0,1,3.138-.747h.863v-.475q0-1.243-1.071-1.243a.875.875,0,0,0-1,.984h-2.8A2.508,2.508,0,0,1,117.6-8.335a4.657,4.657,0,0,1,2.826-.813,4.083,4.083,0,0,1,2.714.838,2.915,2.915,0,0,1,1.021,2.3v3.976a4.072,4.072,0,0,0,.382,1.893V0ZM120-1.826a1.56,1.56,0,0,0,.867-.224,1.4,1.4,0,0,0,.494-.506V-3.993h-.813q-1.461,0-1.461,1.312a.8.8,0,0,0,.257.618A.931.931,0,0,0,120-1.826Zm8.973-9.388v2.233h1.478v1.942h-1.478V-2.93a1.049,1.049,0,0,0,.183.706.98.98,0,0,0,.722.2,4.1,4.1,0,0,0,.7-.05v2a5.163,5.163,0,0,1-1.577.241,2.93,2.93,0,0,1-2.133-.681,2.79,2.79,0,0,1-.689-2.067V-7.039h-1.146V-8.981h1.146v-2.233Zm8.01,4.765-.921-.066a1.655,1.655,0,0,0-1.693.83V0h-2.8V-8.981h2.623l.091,1.154a2.166,2.166,0,0,1,1.967-1.32,2.728,2.728,0,0,1,.78.1ZM140.939,0h-2.806V-8.981h2.806Zm-2.972-11.3a1.249,1.249,0,0,1,.432-.979,1.629,1.629,0,0,1,1.121-.382,1.629,1.629,0,0,1,1.121.382,1.249,1.249,0,0,1,.432.979,1.249,1.249,0,0,1-.432.979,1.629,1.629,0,0,1-1.121.382,1.629,1.629,0,0,1-1.121-.382A1.249,1.249,0,0,1,137.967-11.3Zm7.338,2.316.091,1.054a3.088,3.088,0,0,1,2.565-1.22,2.273,2.273,0,0,1,2.3,1.353,2.989,2.989,0,0,1,2.64-1.353q2.731,0,2.806,3.3V0H152.9V-5.669a1.712,1.712,0,0,0-.232-1,.989.989,0,0,0-.847-.315,1.325,1.325,0,0,0-1.237.739l.008.116V0h-2.806V-5.653a1.8,1.8,0,0,0-.224-1.021.987.987,0,0,0-.855-.315,1.342,1.342,0,0,0-1.229.739V0h-2.8V-8.981Zm11.646,4.408a5.3,5.3,0,0,1,.523-2.395,3.74,3.74,0,0,1,1.5-1.615,4.525,4.525,0,0,1,2.3-.564A4.13,4.13,0,0,1,164.455-7.9a4.794,4.794,0,0,1,1.162,3.4v.1a4.651,4.651,0,0,1-1.166,3.333A4.141,4.141,0,0,1,161.292.166a4.188,4.188,0,0,1-3.08-1.15A4.5,4.5,0,0,1,156.959-4.1Zm2.8.174a3.342,3.342,0,0,0,.39,1.826,1.3,1.3,0,0,0,1.154.581q1.494,0,1.527-2.3v-.282q0-2.416-1.544-2.416-1.4,0-1.519,2.083Zm9.67-4.582.091,1.054a3.046,3.046,0,0,1,2.565-1.22,2.562,2.562,0,0,1,2.1.838,3.991,3.991,0,0,1,.718,2.523V0h-2.806V-5.669a1.516,1.516,0,0,0-.274-1,1.267,1.267,0,0,0-1-.32,1.334,1.334,0,0,0-1.22.647V0h-2.8V-8.981ZM179.388,0h-2.806V-8.981h2.806Zm-2.972-11.3a1.249,1.249,0,0,1,.432-.979,1.629,1.629,0,0,1,1.121-.382,1.629,1.629,0,0,1,1.121.382,1.249,1.249,0,0,1,.432.979,1.249,1.249,0,0,1-.432.979,1.629,1.629,0,0,1-1.121.382,1.629,1.629,0,0,1-1.121-.382A1.249,1.249,0,0,1,176.417-11.3Zm4.341,6.724a5.3,5.3,0,0,1,.523-2.395,3.74,3.74,0,0,1,1.5-1.615,4.525,4.525,0,0,1,2.3-.564A4.13,4.13,0,0,1,188.262-7.9a4.794,4.794,0,0,1,1.162,3.4v.1a4.651,4.651,0,0,1-1.166,3.333A4.141,4.141,0,0,1,185.1.166a4.188,4.188,0,0,1-3.08-1.15A4.5,4.5,0,0,1,180.766-4.1Zm2.8.174a3.342,3.342,0,0,0,.39,1.826,1.3,1.3,0,0,0,1.154.581q1.494,0,1.527-2.3v-.282q0-2.416-1.544-2.416-1.4,0-1.519,2.083Zm19.3-1.594h-7.687V-8.151h7.687Zm0,3.644h-7.687V-4.507h7.687Z" transform="translate(100 37.851)" fill="#12263f"/>
        <text id="_2" data-name="—————————" transform="translate(313.327 37.859)" fill="#12263f" font-size="25" font-family="Roboto-Black, Roboto" font-weight="800"><tspan x="0" y="0">—————————</tspan></text>
        <path id="Trazado_148613" data-name="Trazado 148613" d="M6.309-3.2a1.52,1.52,0,0,0-.324-1.029,3.024,3.024,0,0,0-1.137-.706q-.813-.332-1.5-.672A5.211,5.211,0,0,1,2.158-6.4a3.1,3.1,0,0,1-.764-1.038,3.461,3.461,0,0,1-.266-1.428,3.067,3.067,0,0,1,.946-2.312A4.072,4.072,0,0,1,4.6-12.235v-1.751h1.32V-12.2A3.707,3.707,0,0,1,8.3-10.953a3.889,3.889,0,0,1,.867,2.6H6.367a2.263,2.263,0,0,0-.332-1.328,1.093,1.093,0,0,0-.946-.465,1.073,1.073,0,0,0-.851.344,1.39,1.39,0,0,0-.3.95,1.345,1.345,0,0,0,.349.975A3.434,3.434,0,0,0,5.4-7.184q.772.328,1.457.681a5.569,5.569,0,0,1,1.183.8,3.278,3.278,0,0,1,.78,1.046,3.34,3.34,0,0,1,.282,1.436A3.126,3.126,0,0,1,8.205-.9,3.877,3.877,0,0,1,5.752.141V1.81H4.433V.133A4.222,4.222,0,0,1,1.656-1.108,3.925,3.925,0,0,1,.689-3.876h2.8a2.171,2.171,0,0,0,.419,1.44A1.476,1.476,0,0,0,5.1-1.942a1.175,1.175,0,0,0,.888-.336A1.279,1.279,0,0,0,6.309-3.2ZM18.735-8.857A2.79,2.79,0,0,1,18.3-7.3a3.174,3.174,0,0,1-1.2,1.079,3.493,3.493,0,0,1,1.37,1.158,2.988,2.988,0,0,1,.506,1.739A3.163,3.163,0,0,1,17.859-.772a4.636,4.636,0,0,1-3.075.938,4.721,4.721,0,0,1-3.1-.942,3.141,3.141,0,0,1-1.137-2.552,3.026,3.026,0,0,1,.5-1.718,3.387,3.387,0,0,1,1.411-1.179A3.192,3.192,0,0,1,11.239-7.3a2.771,2.771,0,0,1-.44-1.552,3.1,3.1,0,0,1,1.071-2.49,4.3,4.3,0,0,1,2.889-.913,4.331,4.331,0,0,1,2.905.913A3.1,3.1,0,0,1,18.735-8.857Zm-2.565,5.3a1.6,1.6,0,0,0-.386-1.15,1.344,1.344,0,0,0-1.017-.4,1.358,1.358,0,0,0-1.021.4,1.585,1.585,0,0,0-.39,1.15,1.6,1.6,0,0,0,.394,1.141,1.353,1.353,0,0,0,1.033.419,1.3,1.3,0,0,0,1-.415A1.628,1.628,0,0,0,16.17-3.553ZM14.759-10.1a1.034,1.034,0,0,0-.859.369A1.6,1.6,0,0,0,13.6-8.708a1.7,1.7,0,0,0,.3,1.046,1.031,1.031,0,0,0,.88.4.989.989,0,0,0,.859-.4,1.753,1.753,0,0,0,.286-1.046,1.607,1.607,0,0,0-.295-1.021A1.048,1.048,0,0,0,14.759-10.1Zm14.07-.49L24.313,0H21.358l4.524-9.928H20.121v-2.158h8.708Zm3.221,7.877a1.593,1.593,0,0,1,1.1.394,1.294,1.294,0,0,1,.44,1.009A1.294,1.294,0,0,1,33.153-.3a1.593,1.593,0,0,1-1.1.394,1.579,1.579,0,0,1-1.108-.4,1.3,1.3,0,0,1-.436-1,1.3,1.3,0,0,1,.436-1A1.579,1.579,0,0,1,32.049-2.714ZM43.8-4.939a5.771,5.771,0,0,1-1.1,3.777A3.8,3.8,0,0,1,39.6.166,3.821,3.821,0,0,1,36.482-1.17a5.762,5.762,0,0,1-1.1-3.769V-7.147a5.771,5.771,0,0,1,1.1-3.777,3.81,3.81,0,0,1,3.109-1.328A3.812,3.812,0,0,1,42.7-10.916a5.776,5.776,0,0,1,1.1,3.777ZM41.006-7.5a4.311,4.311,0,0,0-.34-1.947,1.138,1.138,0,0,0-1.079-.643,1.111,1.111,0,0,0-1.05.6,4.061,4.061,0,0,0-.353,1.81V-4.6a4.343,4.343,0,0,0,.34,1.98,1.142,1.142,0,0,0,1.079.627,1.127,1.127,0,0,0,1.054-.61,4.146,4.146,0,0,0,.349-1.913ZM53.648-4.939a5.771,5.771,0,0,1-1.1,3.777,3.8,3.8,0,0,1-3.1,1.328A3.821,3.821,0,0,1,46.327-1.17a5.762,5.762,0,0,1-1.1-3.769V-7.147a5.771,5.771,0,0,1,1.1-3.777,3.81,3.81,0,0,1,3.109-1.328,3.812,3.812,0,0,1,3.113,1.336,5.776,5.776,0,0,1,1.1,3.777ZM50.851-7.5a4.311,4.311,0,0,0-.34-1.947,1.138,1.138,0,0,0-1.079-.643,1.111,1.111,0,0,0-1.05.6,4.061,4.061,0,0,0-.353,1.81V-4.6a4.343,4.343,0,0,0,.34,1.98,1.142,1.142,0,0,0,1.079.627A1.127,1.127,0,0,0,50.5-2.6a4.146,4.146,0,0,0,.349-1.913Zm6.807.291h1.32a1.372,1.372,0,0,0,1.569-1.536,1.328,1.328,0,0,0-.374-.975,1.416,1.416,0,0,0-1.054-.378,1.516,1.516,0,0,0-.967.324.988.988,0,0,0-.411.805h-2.8a2.864,2.864,0,0,1,.531-1.7,3.508,3.508,0,0,1,1.473-1.166,5.037,5.037,0,0,1,2.071-.419,4.95,4.95,0,0,1,3.171.921,3.063,3.063,0,0,1,1.154,2.532,2.553,2.553,0,0,1-.477,1.473,3.4,3.4,0,0,1-1.39,1.125,3.249,3.249,0,0,1,1.511,1.058A2.787,2.787,0,0,1,63.534-3.4a3.119,3.119,0,0,1-1.245,2.59,5.168,5.168,0,0,1-3.271.971,5.36,5.36,0,0,1-2.2-.452,3.453,3.453,0,0,1-1.54-1.253,3.259,3.259,0,0,1-.523-1.822h2.814a1.26,1.26,0,0,0,.448.963,1.582,1.582,0,0,0,1.1.407A1.658,1.658,0,0,0,60.3-2.4a1.373,1.373,0,0,0,.44-1.05,1.606,1.606,0,0,0-.457-1.295,1.909,1.909,0,0,0-1.262-.382H57.657Zm9.064,4.5a1.593,1.593,0,0,1,1.1.394,1.294,1.294,0,0,1,.44,1.009A1.294,1.294,0,0,1,67.826-.3a1.593,1.593,0,0,1-1.1.394,1.579,1.579,0,0,1-1.108-.4,1.3,1.3,0,0,1-.436-1,1.3,1.3,0,0,1,.436-1A1.579,1.579,0,0,1,66.722-2.714ZM78.517,0H70.083V-1.826L73.968-5.91a4.637,4.637,0,0,0,1.436-2.6,1.807,1.807,0,0,0-.34-1.187,1.215,1.215,0,0,0-.988-.407,1.23,1.23,0,0,0-1.038.544,2.234,2.234,0,0,0-.4,1.357H69.834a3.969,3.969,0,0,1,.556-2.054,3.9,3.9,0,0,1,1.544-1.473,4.586,4.586,0,0,1,2.208-.531,4.512,4.512,0,0,1,3.017.9,3.23,3.23,0,0,1,1.058,2.6,3.773,3.773,0,0,1-.266,1.39,6.1,6.1,0,0,1-.826,1.419,20.805,20.805,0,0,1-1.805,1.988l-1.561,1.8h4.756Zm9.8-4.939a5.771,5.771,0,0,1-1.1,3.777A3.8,3.8,0,0,1,84.12.166,3.821,3.821,0,0,1,81-1.17a5.762,5.762,0,0,1-1.1-3.769V-7.147a5.771,5.771,0,0,1,1.1-3.777A3.81,3.81,0,0,1,84.1-12.252a3.812,3.812,0,0,1,3.113,1.336,5.776,5.776,0,0,1,1.1,3.777ZM85.523-7.5a4.311,4.311,0,0,0-.34-1.947,1.138,1.138,0,0,0-1.079-.643,1.111,1.111,0,0,0-1.05.6,4.061,4.061,0,0,0-.353,1.81V-4.6a4.343,4.343,0,0,0,.34,1.98,1.142,1.142,0,0,0,1.079.627,1.127,1.127,0,0,0,1.054-.61,4.146,4.146,0,0,0,.349-1.913ZM98.165-4.939a5.771,5.771,0,0,1-1.1,3.777,3.8,3.8,0,0,1-3.1,1.328A3.821,3.821,0,0,1,90.844-1.17a5.762,5.762,0,0,1-1.1-3.769V-7.147a5.771,5.771,0,0,1,1.1-3.777,3.81,3.81,0,0,1,3.109-1.328,3.812,3.812,0,0,1,3.113,1.336,5.776,5.776,0,0,1,1.1,3.777ZM95.368-7.5a4.311,4.311,0,0,0-.34-1.947,1.138,1.138,0,0,0-1.079-.643,1.111,1.111,0,0,0-1.05.6,4.061,4.061,0,0,0-.353,1.81V-4.6a4.343,4.343,0,0,0,.34,1.98,1.142,1.142,0,0,0,1.079.627,1.127,1.127,0,0,0,1.054-.61,4.146,4.146,0,0,0,.349-1.913Z" transform="translate(351.754 16)" fill="#12263f"/>
        <path id="Trazado_148614" data-name="Trazado 148614" d="M6.309-3.2a1.52,1.52,0,0,0-.324-1.029,3.024,3.024,0,0,0-1.137-.706q-.813-.332-1.5-.672A5.211,5.211,0,0,1,2.158-6.4a3.1,3.1,0,0,1-.764-1.038,3.461,3.461,0,0,1-.266-1.428,3.067,3.067,0,0,1,.946-2.312A4.072,4.072,0,0,1,4.6-12.235v-1.751h1.32V-12.2A3.707,3.707,0,0,1,8.3-10.953a3.889,3.889,0,0,1,.867,2.6H6.367a2.263,2.263,0,0,0-.332-1.328,1.093,1.093,0,0,0-.946-.465,1.073,1.073,0,0,0-.851.344,1.39,1.39,0,0,0-.3.95,1.345,1.345,0,0,0,.349.975A3.434,3.434,0,0,0,5.4-7.184q.772.328,1.457.681a5.569,5.569,0,0,1,1.183.8,3.278,3.278,0,0,1,.78,1.046,3.34,3.34,0,0,1,.282,1.436A3.126,3.126,0,0,1,8.205-.9,3.877,3.877,0,0,1,5.752.141V1.81H4.433V.133A4.222,4.222,0,0,1,1.656-1.108,3.925,3.925,0,0,1,.689-3.876h2.8a2.171,2.171,0,0,0,.419,1.44A1.476,1.476,0,0,0,5.1-1.942a1.175,1.175,0,0,0,.888-.336A1.279,1.279,0,0,0,6.309-3.2ZM16.784,0H13.979V-8.932l-2.756.805v-2.125l5.3-1.834h.257Zm9.845,0H23.823V-8.932l-2.756.805v-2.125l5.3-1.834h.257Zm3.81-5.9.739-6.182h7.064v2.175h-4.79l-.274,2.4a3.3,3.3,0,0,1,.784-.308,3.579,3.579,0,0,1,.95-.133,3.546,3.546,0,0,1,2.768,1.067,4.3,4.3,0,0,1,.967,2.992,4.289,4.289,0,0,1-.519,2.1A3.566,3.566,0,0,1,36.673-.34a4.6,4.6,0,0,1-2.216.506A4.949,4.949,0,0,1,32.323-.3a3.827,3.827,0,0,1-1.561-1.286,3.124,3.124,0,0,1-.556-1.845h2.806a1.587,1.587,0,0,0,.423,1.052,1.344,1.344,0,0,0,1,.389q1.411,0,1.411-2.088,0-1.93-1.727-1.93a1.723,1.723,0,0,0-1.461.63ZM41.894-2.714A1.593,1.593,0,0,1,43-2.32a1.294,1.294,0,0,1,.44,1.009A1.294,1.294,0,0,1,43-.3a1.593,1.593,0,0,1-1.1.394,1.579,1.579,0,0,1-1.108-.4,1.3,1.3,0,0,1-.436-1,1.3,1.3,0,0,1,.436-1A1.579,1.579,0,0,1,41.894-2.714ZM53.407-8.857A2.79,2.79,0,0,1,52.971-7.3a3.174,3.174,0,0,1-1.2,1.079,3.493,3.493,0,0,1,1.37,1.158,2.988,2.988,0,0,1,.506,1.739A3.163,3.163,0,0,1,52.531-.772a4.636,4.636,0,0,1-3.075.938,4.721,4.721,0,0,1-3.1-.942,3.141,3.141,0,0,1-1.137-2.552,3.026,3.026,0,0,1,.5-1.718,3.387,3.387,0,0,1,1.411-1.179A3.192,3.192,0,0,1,45.912-7.3a2.771,2.771,0,0,1-.44-1.552,3.1,3.1,0,0,1,1.071-2.49,4.3,4.3,0,0,1,2.889-.913,4.331,4.331,0,0,1,2.905.913A3.1,3.1,0,0,1,53.407-8.857Zm-2.565,5.3a1.6,1.6,0,0,0-.386-1.15,1.344,1.344,0,0,0-1.017-.4,1.358,1.358,0,0,0-1.021.4,1.585,1.585,0,0,0-.39,1.15,1.6,1.6,0,0,0,.394,1.141,1.353,1.353,0,0,0,1.033.419,1.3,1.3,0,0,0,1-.415A1.628,1.628,0,0,0,50.842-3.553ZM49.431-10.1a1.034,1.034,0,0,0-.859.369,1.6,1.6,0,0,0-.295,1.025,1.7,1.7,0,0,0,.3,1.046,1.031,1.031,0,0,0,.88.4.989.989,0,0,0,.859-.4A1.753,1.753,0,0,0,50.6-8.708a1.606,1.606,0,0,0-.295-1.021A1.048,1.048,0,0,0,49.431-10.1ZM63.493-4.939a5.771,5.771,0,0,1-1.1,3.777,3.8,3.8,0,0,1-3.1,1.328A3.821,3.821,0,0,1,56.171-1.17a5.762,5.762,0,0,1-1.1-3.769V-7.147a5.771,5.771,0,0,1,1.1-3.777,3.81,3.81,0,0,1,3.109-1.328,3.812,3.812,0,0,1,3.113,1.336,5.776,5.776,0,0,1,1.1,3.777ZM60.7-7.5a4.311,4.311,0,0,0-.34-1.947,1.138,1.138,0,0,0-1.079-.643,1.111,1.111,0,0,0-1.05.6,4.061,4.061,0,0,0-.353,1.81V-4.6a4.343,4.343,0,0,0,.34,1.98,1.142,1.142,0,0,0,1.079.627,1.127,1.127,0,0,0,1.054-.61A4.146,4.146,0,0,0,60.7-4.516Zm6.807.291h1.32a1.372,1.372,0,0,0,1.569-1.536,1.328,1.328,0,0,0-.374-.975,1.416,1.416,0,0,0-1.054-.378A1.516,1.516,0,0,0,68-9.778a.988.988,0,0,0-.411.805h-2.8a2.864,2.864,0,0,1,.531-1.7,3.508,3.508,0,0,1,1.473-1.166,5.037,5.037,0,0,1,2.071-.419,4.95,4.95,0,0,1,3.171.921,3.063,3.063,0,0,1,1.154,2.532,2.553,2.553,0,0,1-.477,1.473,3.4,3.4,0,0,1-1.39,1.125,3.249,3.249,0,0,1,1.511,1.058A2.787,2.787,0,0,1,73.379-3.4a3.119,3.119,0,0,1-1.245,2.59,5.168,5.168,0,0,1-3.271.971,5.36,5.36,0,0,1-2.2-.452A3.453,3.453,0,0,1,65.12-1.54,3.259,3.259,0,0,1,64.6-3.362h2.814a1.26,1.26,0,0,0,.448.963,1.582,1.582,0,0,0,1.1.407A1.658,1.658,0,0,0,70.142-2.4a1.373,1.373,0,0,0,.44-1.05,1.606,1.606,0,0,0-.457-1.295,1.909,1.909,0,0,0-1.262-.382H67.5Zm9.064,4.5a1.593,1.593,0,0,1,1.1.394,1.294,1.294,0,0,1,.44,1.009A1.294,1.294,0,0,1,77.67-.3a1.593,1.593,0,0,1-1.1.394,1.579,1.579,0,0,1-1.108-.4,1.3,1.3,0,0,1-.436-1,1.3,1.3,0,0,1,.436-1A1.579,1.579,0,0,1,76.566-2.714ZM88.362,0H79.928V-1.826L83.813-5.91a4.637,4.637,0,0,0,1.436-2.6,1.807,1.807,0,0,0-.34-1.187,1.215,1.215,0,0,0-.988-.407,1.23,1.23,0,0,0-1.038.544,2.234,2.234,0,0,0-.4,1.357H79.679a3.969,3.969,0,0,1,.556-2.054,3.9,3.9,0,0,1,1.544-1.473,4.586,4.586,0,0,1,2.208-.531,4.512,4.512,0,0,1,3.017.9,3.23,3.23,0,0,1,1.058,2.6,3.773,3.773,0,0,1-.266,1.39,6.1,6.1,0,0,1-.826,1.419,20.805,20.805,0,0,1-1.805,1.988l-1.561,1.8h4.756Zm9.8-4.939a5.771,5.771,0,0,1-1.1,3.777,3.8,3.8,0,0,1-3.1,1.328A3.821,3.821,0,0,1,90.844-1.17a5.762,5.762,0,0,1-1.1-3.769V-7.147a5.771,5.771,0,0,1,1.1-3.777,3.81,3.81,0,0,1,3.109-1.328,3.812,3.812,0,0,1,3.113,1.336,5.776,5.776,0,0,1,1.1,3.777ZM95.368-7.5a4.311,4.311,0,0,0-.34-1.947,1.138,1.138,0,0,0-1.079-.643,1.111,1.111,0,0,0-1.05.6,4.061,4.061,0,0,0-.353,1.81V-4.6a4.343,4.343,0,0,0,.34,1.98,1.142,1.142,0,0,0,1.079.627,1.127,1.127,0,0,0,1.054-.61,4.146,4.146,0,0,0,.349-1.913ZM108.01-4.939a5.771,5.771,0,0,1-1.1,3.777,3.8,3.8,0,0,1-3.1,1.328,3.821,3.821,0,0,1-3.121-1.336,5.762,5.762,0,0,1-1.1-3.769V-7.147a5.771,5.771,0,0,1,1.1-3.777,3.81,3.81,0,0,1,3.109-1.328,3.812,3.812,0,0,1,3.113,1.336,5.776,5.776,0,0,1,1.1,3.777Zm-2.8-2.565a4.311,4.311,0,0,0-.34-1.947,1.138,1.138,0,0,0-1.079-.643,1.111,1.111,0,0,0-1.05.6,4.061,4.061,0,0,0-.353,1.81V-4.6a4.343,4.343,0,0,0,.34,1.98,1.142,1.142,0,0,0,1.079.627,1.127,1.127,0,0,0,1.054-.61,4.146,4.146,0,0,0,.349-1.913Z" transform="translate(351.312 54.457)" fill="#12263f"/>
      </g>
    </g>
  </g>
</svg>
