<svg xmlns="http://www.w3.org/2000/svg" width="522.802" height="535.116" viewBox="0 0 522.802 535.116">
  <g id="Grupo_93176" data-name="Grupo 93176" transform="translate(-1173.188 971.927)">
    <g id="Grupo_93172" data-name="Grupo 93172" transform="translate(1029.51 -3547.427)">
      <rect id="Rectángulo_31816" data-name="Rectángulo 31816" width="382.625" height="114.498" transform="translate(220.131 2858.118)" fill="#6595bf"/>
      <g id="Grupo_89142" data-name="Grupo 89142" transform="translate(209.076 2852)">
        <rect id="Rectángulo_31778" data-name="Rectángulo 31778" width="389.32" height="116.049" transform="translate(0 0)" fill="#fff" stroke="#12263f" stroke-miterlimit="10" stroke-width="1"/>
      </g>
      <g id="Grupo_89143" data-name="Grupo 89143" transform="translate(134.872 2883.465)">
        <path id="Trazado_148621" data-name="Trazado 148621" d="M3.827-4.1V0H.913V-12.086H5.736a5.617,5.617,0,0,1,2.453.51,3.847,3.847,0,0,1,1.652,1.453,3.967,3.967,0,0,1,.585,2.137A3.5,3.5,0,0,1,9.16-5.159,5.252,5.252,0,0,1,5.686-4.1Zm0-2.25H5.736a1.8,1.8,0,0,0,1.291-.423,1.573,1.573,0,0,0,.444-1.2,1.944,1.944,0,0,0-.457-1.353,1.617,1.617,0,0,0-1.245-.515H3.827Zm7.562,1.776a5.3,5.3,0,0,1,.523-2.395,3.74,3.74,0,0,1,1.5-1.615,4.525,4.525,0,0,1,2.3-.564A4.13,4.13,0,0,1,18.893-7.9a4.794,4.794,0,0,1,1.162,3.4v.1a4.651,4.651,0,0,1-1.166,3.333A4.141,4.141,0,0,1,15.73.166a4.188,4.188,0,0,1-3.08-1.15A4.5,4.5,0,0,1,11.4-4.1Zm2.8.174a3.342,3.342,0,0,0,.39,1.826,1.3,1.3,0,0,0,1.154.581q1.494,0,1.527-2.3v-.282q0-2.416-1.544-2.416-1.4,0-1.519,2.083Zm9.67-4.582.091,1.054a3.046,3.046,0,0,1,2.565-1.22,2.562,2.562,0,0,1,2.1.838,3.991,3.991,0,0,1,.718,2.523V0H26.521V-5.669a1.516,1.516,0,0,0-.274-1,1.267,1.267,0,0,0-1-.32,1.334,1.334,0,0,0-1.22.647V0h-2.8V-8.981Zm6.666,4.424a5.486,5.486,0,0,1,.921-3.362,3.033,3.033,0,0,1,2.573-1.229,2.579,2.579,0,0,1,2.025.946V-12.75h2.806V0H36.333l-.141-.963A2.649,2.649,0,0,1,34,.166a3.027,3.027,0,0,1-2.54-1.229A5.66,5.66,0,0,1,30.522-4.557Zm2.8.174q0,2.391,1.395,2.391a1.377,1.377,0,0,0,1.328-.78v-3.42a1.34,1.34,0,0,0-1.312-.8q-1.295,0-1.4,2.092ZM44.783.166a4.617,4.617,0,0,1-3.345-1.233,4.257,4.257,0,0,1-1.278-3.208v-.232a5.516,5.516,0,0,1,.51-2.432,3.735,3.735,0,0,1,1.49-1.631,4.5,4.5,0,0,1,2.324-.577,3.888,3.888,0,0,1,2.988,1.175,4.616,4.616,0,0,1,1.1,3.275v1.087H43.006a2.016,2.016,0,0,0,.656,1.187,1.951,1.951,0,0,0,1.312.432,2.514,2.514,0,0,0,2.075-.93l1.278,1.511a3.573,3.573,0,0,1-1.482,1.15A5.007,5.007,0,0,1,44.783.166Zm-.315-7.155q-1.229,0-1.461,1.627h2.822v-.216a1.386,1.386,0,0,0-.34-1.042A1.354,1.354,0,0,0,44.467-6.989Zm10.658.54L54.2-6.516a1.655,1.655,0,0,0-1.693.83V0h-2.8V-8.981h2.623l.091,1.154A2.166,2.166,0,0,1,54.4-9.147a2.728,2.728,0,0,1,.78.1ZM60.944,0a3.158,3.158,0,0,1-.266-.805,2.6,2.6,0,0,1-2.158.971A3.187,3.187,0,0,1,56.362-.6a2.444,2.444,0,0,1-.888-1.93A2.512,2.512,0,0,1,56.553-4.74a5.5,5.5,0,0,1,3.138-.747h.863v-.475q0-1.243-1.071-1.243a.875.875,0,0,0-1,.984h-2.8A2.508,2.508,0,0,1,56.8-8.335a4.657,4.657,0,0,1,2.826-.813,4.083,4.083,0,0,1,2.714.838,2.915,2.915,0,0,1,1.021,2.3v3.976a4.072,4.072,0,0,0,.382,1.893V0ZM59.193-1.826a1.56,1.56,0,0,0,.867-.224,1.4,1.4,0,0,0,.494-.506V-3.993h-.813q-1.461,0-1.461,1.312a.8.8,0,0,0,.257.618A.931.931,0,0,0,59.193-1.826Zm9.513-.166a1.244,1.244,0,0,0,.913-.32,1.172,1.172,0,0,0,.315-.892h2.623A3.105,3.105,0,0,1,71.5-.78a3.937,3.937,0,0,1-2.727.946,3.986,3.986,0,0,1-3.088-1.229,4.841,4.841,0,0,1-1.129-3.4v-.116a5.471,5.471,0,0,1,.5-2.4,3.656,3.656,0,0,1,1.448-1.6,4.319,4.319,0,0,1,2.241-.56,3.887,3.887,0,0,1,2.781.971,3.445,3.445,0,0,1,1.029,2.631H69.934a1.536,1.536,0,0,0-.34-1.071,1.175,1.175,0,0,0-.913-.374q-1.087,0-1.27,1.386a9.782,9.782,0,0,0-.058,1.212,3.842,3.842,0,0,0,.324,1.876A1.121,1.121,0,0,0,68.706-1.992ZM76.691,0H73.885V-8.981h2.806ZM73.719-11.3a1.249,1.249,0,0,1,.432-.979,1.629,1.629,0,0,1,1.121-.382,1.629,1.629,0,0,1,1.121.382,1.249,1.249,0,0,1,.432.979,1.249,1.249,0,0,1-.432.979,1.629,1.629,0,0,1-1.121.382,1.629,1.629,0,0,1-1.121-.382A1.249,1.249,0,0,1,73.719-11.3Zm4.341,6.724a5.3,5.3,0,0,1,.523-2.395,3.74,3.74,0,0,1,1.5-1.615,4.525,4.525,0,0,1,2.3-.564A4.13,4.13,0,0,1,85.564-7.9a4.794,4.794,0,0,1,1.162,3.4v.1A4.651,4.651,0,0,1,85.56-1.067,4.141,4.141,0,0,1,82.4.166a4.188,4.188,0,0,1-3.08-1.15A4.5,4.5,0,0,1,78.069-4.1Zm2.8.174a3.342,3.342,0,0,0,.39,1.826,1.3,1.3,0,0,0,1.154.581q1.494,0,1.527-2.3v-.282q0-2.416-1.544-2.416-1.4,0-1.519,2.083Zm1.909-8.351h2.955l-2.308,2.606-2.283,0Zm7.761,3.769.091,1.054a3.046,3.046,0,0,1,2.565-1.22,2.562,2.562,0,0,1,2.1.838A3.991,3.991,0,0,1,96-5.786V0H93.193V-5.669a1.516,1.516,0,0,0-.274-1,1.267,1.267,0,0,0-1-.32,1.334,1.334,0,0,0-1.22.647V0h-2.8V-8.981Zm19.59,4.557a5.416,5.416,0,0,1-.942,3.341A3.021,3.021,0,0,1,106.632.166a2.589,2.589,0,0,1-2.034-.9V3.453h-2.8V-8.981h2.615l.083.83a2.589,2.589,0,0,1,2.117-1A3.045,3.045,0,0,1,109.2-7.923a5.483,5.483,0,0,1,.921,3.366Zm-2.8-.174q0-2.391-1.395-2.391a1.316,1.316,0,0,0-1.328.714v3.536a1.359,1.359,0,0,0,1.345.747q1.336,0,1.378-2.308ZM116.41,0a3.159,3.159,0,0,1-.266-.805,2.6,2.6,0,0,1-2.158.971A3.187,3.187,0,0,1,111.828-.6a2.444,2.444,0,0,1-.888-1.93,2.512,2.512,0,0,1,1.079-2.208,5.5,5.5,0,0,1,3.138-.747h.863v-.475q0-1.243-1.071-1.243a.875.875,0,0,0-1,.984h-2.8a2.508,2.508,0,0,1,1.108-2.114,4.657,4.657,0,0,1,2.826-.813,4.083,4.083,0,0,1,2.714.838,2.915,2.915,0,0,1,1.021,2.3v3.976a4.072,4.072,0,0,0,.382,1.893V0Zm-1.751-1.826a1.56,1.56,0,0,0,.867-.224,1.4,1.4,0,0,0,.494-.506V-3.993h-.813q-1.461,0-1.461,1.312a.8.8,0,0,0,.257.618A.931.931,0,0,0,114.659-1.826Zm8.973-9.388v2.233h1.478v1.942h-1.478V-2.93a1.049,1.049,0,0,0,.183.706.98.98,0,0,0,.722.2,4.1,4.1,0,0,0,.7-.05v2a5.163,5.163,0,0,1-1.577.241,2.93,2.93,0,0,1-2.133-.681,2.79,2.79,0,0,1-.689-2.067V-7.039h-1.146V-8.981h1.146v-2.233Zm8.01,4.765-.921-.066a1.655,1.655,0,0,0-1.693.83V0h-2.8V-8.981h2.623l.091,1.154a2.166,2.166,0,0,1,1.967-1.32,2.728,2.728,0,0,1,.78.1ZM135.6,0H132.8V-8.981H135.6ZM132.63-11.3a1.249,1.249,0,0,1,.432-.979,1.629,1.629,0,0,1,1.121-.382,1.629,1.629,0,0,1,1.121.382,1.249,1.249,0,0,1,.432.979,1.249,1.249,0,0,1-.432.979,1.629,1.629,0,0,1-1.121.382,1.629,1.629,0,0,1-1.121-.382A1.249,1.249,0,0,1,132.63-11.3Zm7.338,2.316.091,1.054a3.088,3.088,0,0,1,2.565-1.22,2.273,2.273,0,0,1,2.3,1.353,2.989,2.989,0,0,1,2.64-1.353q2.731,0,2.806,3.3V0h-2.806V-5.669a1.712,1.712,0,0,0-.232-1,.989.989,0,0,0-.847-.315,1.325,1.325,0,0,0-1.237.739l.008.116V0H142.45V-5.653a1.8,1.8,0,0,0-.224-1.021.987.987,0,0,0-.855-.315,1.342,1.342,0,0,0-1.229.739V0h-2.8V-8.981Zm11.646,4.408a5.3,5.3,0,0,1,.523-2.395,3.74,3.74,0,0,1,1.5-1.615,4.525,4.525,0,0,1,2.3-.564A4.13,4.13,0,0,1,159.118-7.9a4.794,4.794,0,0,1,1.162,3.4v.1a4.651,4.651,0,0,1-1.166,3.333A4.141,4.141,0,0,1,155.955.166a4.188,4.188,0,0,1-3.08-1.15A4.5,4.5,0,0,1,151.622-4.1Zm2.8.174a3.342,3.342,0,0,0,.39,1.826,1.3,1.3,0,0,0,1.154.581q1.494,0,1.527-2.3v-.282q0-2.416-1.544-2.416-1.4,0-1.519,2.083Zm9.67-4.582.091,1.054a3.046,3.046,0,0,1,2.565-1.22,2.562,2.562,0,0,1,2.1.838,3.991,3.991,0,0,1,.718,2.523V0h-2.806V-5.669a1.516,1.516,0,0,0-.274-1,1.267,1.267,0,0,0-1-.32,1.334,1.334,0,0,0-1.22.647V0h-2.8V-8.981ZM174.051,0h-2.806V-8.981h2.806Zm-2.972-11.3a1.249,1.249,0,0,1,.432-.979,1.629,1.629,0,0,1,1.121-.382,1.629,1.629,0,0,1,1.121.382,1.249,1.249,0,0,1,.432.979,1.249,1.249,0,0,1-.432.979,1.629,1.629,0,0,1-1.121.382,1.629,1.629,0,0,1-1.121-.382A1.249,1.249,0,0,1,171.079-11.3Zm4.341,6.724a5.3,5.3,0,0,1,.523-2.395,3.74,3.74,0,0,1,1.5-1.615,4.525,4.525,0,0,1,2.3-.564A4.13,4.13,0,0,1,182.924-7.9a4.794,4.794,0,0,1,1.162,3.4v.1a4.651,4.651,0,0,1-1.166,3.333A4.141,4.141,0,0,1,179.762.166a4.188,4.188,0,0,1-3.08-1.15A4.5,4.5,0,0,1,175.429-4.1Zm2.8.174a3.342,3.342,0,0,0,.39,1.826,1.3,1.3,0,0,0,1.154.581q1.494,0,1.527-2.3v-.282q0-2.416-1.544-2.416-1.4,0-1.519,2.083Zm19.3-1.594h-7.687V-8.151h7.687Zm0,3.644h-7.687V-4.507h7.687ZM216.36,0h-8.434V-1.826l3.885-4.084a4.637,4.637,0,0,0,1.436-2.6,1.807,1.807,0,0,0-.34-1.187,1.215,1.215,0,0,0-.988-.407,1.23,1.23,0,0,0-1.038.544,2.234,2.234,0,0,0-.4,1.357h-2.806a3.969,3.969,0,0,1,.556-2.054,3.9,3.9,0,0,1,1.544-1.473,4.586,4.586,0,0,1,2.208-.531,4.512,4.512,0,0,1,3.017.9,3.23,3.23,0,0,1,1.058,2.6,3.773,3.773,0,0,1-.266,1.39,6.1,6.1,0,0,1-.826,1.419,20.805,20.805,0,0,1-1.805,1.988l-1.561,1.8h4.756ZM226.2,0h-8.434V-1.826l3.885-4.084a4.637,4.637,0,0,0,1.436-2.6,1.807,1.807,0,0,0-.34-1.187,1.215,1.215,0,0,0-.988-.407,1.23,1.23,0,0,0-1.038.544,2.234,2.234,0,0,0-.4,1.357h-2.806a3.969,3.969,0,0,1,.556-2.054,3.9,3.9,0,0,1,1.544-1.473,4.586,4.586,0,0,1,2.208-.531,4.512,4.512,0,0,1,3.017.9,3.23,3.23,0,0,1,1.058,2.6,3.773,3.773,0,0,1-.266,1.39,6.1,6.1,0,0,1-.826,1.419,20.805,20.805,0,0,1-1.805,1.988l-1.561,1.8H226.2Zm2.44,3.254-1.411-.664.282-.564a4.6,4.6,0,0,0,.606-2.059V-2.108h2.241l-.008,1.8a4.5,4.5,0,0,1-.49,1.942A4.935,4.935,0,0,1,228.645,3.254ZM232.364-5.9l.739-6.182h7.064v2.175h-4.79l-.274,2.4a3.3,3.3,0,0,1,.784-.308,3.579,3.579,0,0,1,.95-.133,3.546,3.546,0,0,1,2.768,1.067,4.3,4.3,0,0,1,.967,2.992,4.289,4.289,0,0,1-.519,2.1A3.566,3.566,0,0,1,238.6-.34a4.6,4.6,0,0,1-2.216.506A4.949,4.949,0,0,1,234.248-.3a3.827,3.827,0,0,1-1.561-1.286,3.124,3.124,0,0,1-.556-1.845h2.806a1.587,1.587,0,0,0,.423,1.052,1.344,1.344,0,0,0,1,.389q1.411,0,1.411-2.088,0-1.93-1.727-1.93a1.723,1.723,0,0,0-1.461.63ZM249.43-4.723h1.229v2.158H249.43V0h-2.8V-2.565h-4.673l-.166-1.71,4.839-7.786v-.025h2.8Zm-4.972,0h2.175V-8.442l-.174.282ZM251.9-9.762a2.372,2.372,0,0,1,.73-1.81,2.739,2.739,0,0,1,1.959-.689,2.742,2.742,0,0,1,1.967.685,2.435,2.435,0,0,1,.722,1.855v.6a2.359,2.359,0,0,1-.722,1.8,2.729,2.729,0,0,1-1.951.681,2.8,2.8,0,0,1-1.963-.677,2.383,2.383,0,0,1-.743-1.855Zm1.8.637a1,1,0,0,0,.241.7.847.847,0,0,0,.664.268q.872,0,.872-1.105V-9.76a1.058,1.058,0,0,0-.232-.705.81.81,0,0,0-.656-.276.827.827,0,0,0-.647.268,1.052,1.052,0,0,0-.241.73Zm3.943,6.161a2.349,2.349,0,0,1,.735-1.81,2.762,2.762,0,0,1,1.955-.681,2.792,2.792,0,0,1,1.967.672,2.422,2.422,0,0,1,.73,1.876v.581a2.37,2.37,0,0,1-.722,1.81,2.74,2.74,0,0,1-1.959.681,2.8,2.8,0,0,1-1.963-.677,2.384,2.384,0,0,1-.743-1.855Zm1.793.637a.981.981,0,0,0,.266.68.842.842,0,0,0,.647.293.763.763,0,0,0,.872-.759l.008-.85a1.015,1.015,0,0,0-.241-.705.837.837,0,0,0-.656-.268.844.844,0,0,0-.639.252,1,1,0,0,0-.257.68ZM255.133-.9l-1.3-.656,5.9-9.446,1.3.656Z" transform="translate(134 37.851)" fill="#12263f"/>
      </g>
    </g>
    <g id="Grupo_93173" data-name="Grupo 93173" transform="translate(1029.51 -3409.427)">
      <rect id="Rectángulo_31816-2" data-name="Rectángulo 31816" width="251.785" height="114.498" transform="translate(285.551 2858.118)" fill="#6595bf"/>
      <g id="Grupo_89142-2" data-name="Grupo 89142" transform="translate(209.076 2852)">
        <rect id="Rectángulo_31778-2" data-name="Rectángulo 31778" width="258.48" height="116.049" transform="translate(65.42)" fill="#fff" stroke="#12263f" stroke-miterlimit="10" stroke-width="1"/>
      </g>
      <g id="Grupo_89143-2" data-name="Grupo 89143" transform="translate(134.872 2879.465)">
        <path id="Trazado_148622" data-name="Trazado 148622" d="M-81.169-4.092a4.414,4.414,0,0,1-.681,2.229A4.108,4.108,0,0,1-83.6-.365a5.947,5.947,0,0,1-2.569.531,4.746,4.746,0,0,1-3.752-1.552,6.409,6.409,0,0,1-1.37-4.383v-.6a7.316,7.316,0,0,1,.618-3.109,4.686,4.686,0,0,1,1.781-2.059A4.968,4.968,0,0,1-86.2-12.26,5.209,5.209,0,0,1-82.663-11.1a4.575,4.575,0,0,1,1.519,3.192H-84.05A2.165,2.165,0,0,0-84.606-9.5,2.287,2.287,0,0,0-86.2-9.978a1.74,1.74,0,0,0-1.594.813,5.228,5.228,0,0,0-.531,2.6v.855a5.785,5.785,0,0,0,.486,2.764,1.777,1.777,0,0,0,1.673.83,2.237,2.237,0,0,0,1.536-.473,2.008,2.008,0,0,0,.564-1.5Zm4.292-.008V0h-2.914V-12.086h4.823a5.617,5.617,0,0,1,2.453.51,3.847,3.847,0,0,1,1.652,1.453,3.967,3.967,0,0,1,.585,2.137,3.5,3.5,0,0,1-1.266,2.826A5.252,5.252,0,0,1-75.018-4.1Zm0-2.25h1.909a1.8,1.8,0,0,0,1.291-.423,1.573,1.573,0,0,0,.444-1.2,1.944,1.944,0,0,0-.457-1.353,1.617,1.617,0,0,0-1.245-.515h-1.942ZM-65.813-4.1V0h-2.914V-12.086H-63.9a5.617,5.617,0,0,1,2.453.51A3.847,3.847,0,0,1-59.8-10.123a3.967,3.967,0,0,1,.585,2.137,3.5,3.5,0,0,1-1.266,2.826A5.252,5.252,0,0,1-63.953-4.1Zm0-2.25H-63.9a1.8,1.8,0,0,0,1.291-.423,1.573,1.573,0,0,0,.444-1.2,1.944,1.944,0,0,0-.457-1.353,1.617,1.617,0,0,0-1.245-.515h-1.942Zm17.93,2.258a4.414,4.414,0,0,1-.681,2.229,4.108,4.108,0,0,1-1.747,1.5A5.947,5.947,0,0,1-52.88.166a4.746,4.746,0,0,1-3.752-1.552A6.409,6.409,0,0,1-58-5.769v-.6a7.316,7.316,0,0,1,.618-3.109A4.686,4.686,0,0,1-55.6-11.534a4.968,4.968,0,0,1,2.689-.726A5.209,5.209,0,0,1-49.377-11.1a4.575,4.575,0,0,1,1.519,3.192h-2.905A2.165,2.165,0,0,0-51.32-9.5a2.287,2.287,0,0,0-1.594-.481,1.74,1.74,0,0,0-1.594.813,5.228,5.228,0,0,0-.531,2.6v.855a5.785,5.785,0,0,0,.486,2.764,1.777,1.777,0,0,0,1.673.83,2.237,2.237,0,0,0,1.536-.473,2.008,2.008,0,0,0,.564-1.5Zm13.447-1.9h-7.687V-8.151h7.687Zm0,3.644h-7.687V-4.507h7.687ZM-28.094-5.9l.739-6.182h7.064v2.175h-4.79l-.274,2.4a3.3,3.3,0,0,1,.784-.308,3.579,3.579,0,0,1,.95-.133,3.546,3.546,0,0,1,2.768,1.067,4.3,4.3,0,0,1,.967,2.992,4.289,4.289,0,0,1-.519,2.1A3.566,3.566,0,0,1-21.86-.34a4.6,4.6,0,0,1-2.216.506A4.949,4.949,0,0,1-26.21-.3,3.827,3.827,0,0,1-27.77-1.588a3.124,3.124,0,0,1-.556-1.845h2.806A1.587,1.587,0,0,0-25.1-2.382a1.344,1.344,0,0,0,1,.389q1.411,0,1.411-2.088,0-1.93-1.727-1.93a1.723,1.723,0,0,0-1.461.63Zm10.708,9.158L-18.8,2.59l.282-.564a4.6,4.6,0,0,0,.606-2.059V-2.108h2.241l-.008,1.8a4.5,4.5,0,0,1-.49,1.942A4.935,4.935,0,0,1-17.386,3.254ZM-5.4,0h-8.434V-1.826L-9.948-5.91a4.637,4.637,0,0,0,1.436-2.6A1.807,1.807,0,0,0-8.853-9.7a1.215,1.215,0,0,0-.988-.407,1.23,1.23,0,0,0-1.038.544,2.234,2.234,0,0,0-.4,1.357h-2.806a3.969,3.969,0,0,1,.556-2.054,3.9,3.9,0,0,1,1.544-1.473,4.586,4.586,0,0,1,2.208-.531,4.512,4.512,0,0,1,3.017.9A3.23,3.23,0,0,1-5.7-8.757a3.773,3.773,0,0,1-.266,1.39A6.1,6.1,0,0,1-6.79-5.948,20.805,20.805,0,0,1-8.6-3.959l-1.561,1.8H-5.4ZM4.445,0H-3.989V-1.826L-.1-5.91a4.637,4.637,0,0,0,1.436-2.6A1.807,1.807,0,0,0,.992-9.7,1.215,1.215,0,0,0,0-10.1a1.23,1.23,0,0,0-1.038.544,2.234,2.234,0,0,0-.4,1.357H-4.238a3.969,3.969,0,0,1,.556-2.054,3.9,3.9,0,0,1,1.544-1.473A4.586,4.586,0,0,1,.071-12.26a4.512,4.512,0,0,1,3.017.9,3.23,3.23,0,0,1,1.058,2.6,3.773,3.773,0,0,1-.266,1.39,6.1,6.1,0,0,1-.826,1.419A20.805,20.805,0,0,1,1.249-3.959l-1.561,1.8H4.445ZM5.865-9.762a2.372,2.372,0,0,1,.73-1.81,2.739,2.739,0,0,1,1.959-.689,2.742,2.742,0,0,1,1.967.685,2.435,2.435,0,0,1,.722,1.855v.6a2.359,2.359,0,0,1-.722,1.8,2.729,2.729,0,0,1-1.951.681,2.8,2.8,0,0,1-1.963-.677,2.383,2.383,0,0,1-.743-1.855Zm1.8.637a1,1,0,0,0,.241.7.847.847,0,0,0,.664.268q.872,0,.872-1.105V-9.76a1.058,1.058,0,0,0-.232-.705.81.81,0,0,0-.656-.276.827.827,0,0,0-.647.268,1.052,1.052,0,0,0-.241.73Zm3.943,6.161a2.349,2.349,0,0,1,.735-1.81A2.762,2.762,0,0,1,14.3-5.454a2.792,2.792,0,0,1,1.967.672A2.422,2.422,0,0,1,17-2.905v.581a2.37,2.37,0,0,1-.722,1.81,2.74,2.74,0,0,1-1.959.681A2.8,2.8,0,0,1,12.352-.51a2.383,2.383,0,0,1-.743-1.855Zm1.793.637a.982.982,0,0,0,.266.68.842.842,0,0,0,.647.293.763.763,0,0,0,.872-.759l.008-.85a1.015,1.015,0,0,0-.241-.705.837.837,0,0,0-.656-.268.844.844,0,0,0-.639.252A1,1,0,0,0,13.4-3ZM9.1-.9,7.8-1.561l5.9-9.446,1.3.656ZM27.8-6.856h2.831v2.4H27.8v3.246H25.18V-4.458H22.342v-2.4H25.18v-3.154H27.8ZM44.455,0H36.021V-1.826L39.906-5.91a4.637,4.637,0,0,0,1.436-2.6A1.807,1.807,0,0,0,41-9.7a1.215,1.215,0,0,0-.988-.407,1.23,1.23,0,0,0-1.038.544,2.234,2.234,0,0,0-.4,1.357H35.772a3.969,3.969,0,0,1,.556-2.054,3.9,3.9,0,0,1,1.544-1.473,4.586,4.586,0,0,1,2.208-.531,4.512,4.512,0,0,1,3.017.9,3.23,3.23,0,0,1,1.058,2.6,3.773,3.773,0,0,1-.266,1.39,6.1,6.1,0,0,1-.826,1.419,20.805,20.805,0,0,1-1.805,1.988L39.7-2.158h4.756ZM54.3,0H45.866V-1.826L49.751-5.91a4.637,4.637,0,0,0,1.436-2.6,1.807,1.807,0,0,0-.34-1.187,1.215,1.215,0,0,0-.988-.407,1.23,1.23,0,0,0-1.038.544,2.234,2.234,0,0,0-.4,1.357H45.617a3.969,3.969,0,0,1,.556-2.054,3.9,3.9,0,0,1,1.544-1.473,4.586,4.586,0,0,1,2.208-.531,4.512,4.512,0,0,1,3.017.9A3.23,3.23,0,0,1,54-8.757a3.773,3.773,0,0,1-.266,1.39,6.1,6.1,0,0,1-.826,1.419A20.805,20.805,0,0,1,51.1-3.959l-1.561,1.8H54.3Zm2.44,3.254L55.329,2.59l.282-.564a4.6,4.6,0,0,0,.606-2.059V-2.108h2.241l-.008,1.8a4.5,4.5,0,0,1-.49,1.942A4.935,4.935,0,0,1,56.74,3.254ZM60.459-5.9l.739-6.182h7.064v2.175h-4.79L63.2-7.51a3.3,3.3,0,0,1,.784-.308,3.579,3.579,0,0,1,.95-.133A3.546,3.546,0,0,1,67.7-6.885a4.3,4.3,0,0,1,.967,2.992,4.289,4.289,0,0,1-.519,2.1A3.566,3.566,0,0,1,66.693-.34a4.6,4.6,0,0,1-2.216.506A4.949,4.949,0,0,1,62.343-.3a3.827,3.827,0,0,1-1.561-1.286,3.124,3.124,0,0,1-.556-1.845h2.806a1.587,1.587,0,0,0,.423,1.052,1.344,1.344,0,0,0,1,.389q1.411,0,1.411-2.088,0-1.93-1.727-1.93a1.723,1.723,0,0,0-1.461.63ZM77.525-4.723h1.229v2.158H77.525V0h-2.8V-2.565H70.054l-.166-1.71,4.839-7.786v-.025h2.8Zm-4.972,0h2.175V-8.442l-.174.282ZM79.99-9.762a2.372,2.372,0,0,1,.73-1.81,2.739,2.739,0,0,1,1.959-.689,2.742,2.742,0,0,1,1.967.685,2.435,2.435,0,0,1,.722,1.855v.6a2.359,2.359,0,0,1-.722,1.8,2.729,2.729,0,0,1-1.951.681,2.8,2.8,0,0,1-1.963-.677,2.383,2.383,0,0,1-.743-1.855Zm1.8.637a1,1,0,0,0,.241.7.847.847,0,0,0,.664.268q.872,0,.872-1.105V-9.76a1.058,1.058,0,0,0-.232-.705.81.81,0,0,0-.656-.276.827.827,0,0,0-.647.268,1.052,1.052,0,0,0-.241.73Zm3.943,6.161a2.349,2.349,0,0,1,.735-1.81,2.762,2.762,0,0,1,1.955-.681,2.792,2.792,0,0,1,1.967.672,2.422,2.422,0,0,1,.73,1.876v.581A2.37,2.37,0,0,1,90.4-.515a2.74,2.74,0,0,1-1.959.681A2.8,2.8,0,0,1,86.478-.51a2.383,2.383,0,0,1-.743-1.855Zm1.793.637a.981.981,0,0,0,.266.68.842.842,0,0,0,.647.293.763.763,0,0,0,.872-.759l.008-.85a1.015,1.015,0,0,0-.241-.705.837.837,0,0,0-.656-.268.844.844,0,0,0-.639.252,1,1,0,0,0-.257.68ZM83.228-.9l-1.3-.656,5.9-9.446,1.3.656ZM-49.029,28.908a4.414,4.414,0,0,1-.681,2.229,4.108,4.108,0,0,1-1.747,1.5,5.947,5.947,0,0,1-2.569.531,4.746,4.746,0,0,1-3.752-1.552,6.409,6.409,0,0,1-1.37-4.383v-.6a7.316,7.316,0,0,1,.618-3.109,4.686,4.686,0,0,1,1.781-2.059,4.968,4.968,0,0,1,2.689-.726A5.209,5.209,0,0,1-50.523,21.9,4.575,4.575,0,0,1-49,25.089h-2.905a2.165,2.165,0,0,0-.556-1.585,2.287,2.287,0,0,0-1.594-.481,1.74,1.74,0,0,0-1.594.813,5.228,5.228,0,0,0-.531,2.6v.855a5.785,5.785,0,0,0,.486,2.764,1.777,1.777,0,0,0,1.673.83,2.237,2.237,0,0,0,1.536-.473,2.008,2.008,0,0,0,.564-1.5Zm4.292-.008V33h-2.914V20.914h4.823a5.617,5.617,0,0,1,2.453.51,3.847,3.847,0,0,1,1.652,1.453,3.967,3.967,0,0,1,.585,2.137A3.5,3.5,0,0,1-39.4,27.841,5.252,5.252,0,0,1-42.878,28.9Zm0-2.25h1.909a1.8,1.8,0,0,0,1.291-.423,1.573,1.573,0,0,0,.444-1.2,1.944,1.944,0,0,0-.457-1.353,1.617,1.617,0,0,0-1.245-.515h-1.942Zm11.065,2.25V33h-2.914V20.914h4.823a5.617,5.617,0,0,1,2.453.51,3.847,3.847,0,0,1,1.652,1.453,3.967,3.967,0,0,1,.585,2.137,3.5,3.5,0,0,1-1.266,2.826A5.252,5.252,0,0,1-31.813,28.9Zm0-2.25h1.909a1.8,1.8,0,0,0,1.291-.423,1.573,1.573,0,0,0,.444-1.2,1.944,1.944,0,0,0-.457-1.353,1.617,1.617,0,0,0-1.245-.515h-1.942Zm17.93,2.258a4.414,4.414,0,0,1-.681,2.229,4.108,4.108,0,0,1-1.747,1.5,5.947,5.947,0,0,1-2.569.531,4.746,4.746,0,0,1-3.752-1.552,6.409,6.409,0,0,1-1.37-4.383v-.6a7.316,7.316,0,0,1,.618-3.109,4.686,4.686,0,0,1,1.781-2.059,4.968,4.968,0,0,1,2.689-.726A5.209,5.209,0,0,1-17.237,21.9a4.575,4.575,0,0,1,1.519,3.192h-2.905a2.165,2.165,0,0,0-.556-1.585,2.287,2.287,0,0,0-1.594-.481,1.74,1.74,0,0,0-1.594.813,5.228,5.228,0,0,0-.531,2.6v.855a5.785,5.785,0,0,0,.486,2.764,1.777,1.777,0,0,0,1.673.83A2.237,2.237,0,0,0-19.2,30.41a2.008,2.008,0,0,0,.564-1.5Zm13.447-1.9H-9.982V24.849H-2.3Zm0,3.644H-9.982V28.493H-2.3ZM12.314,33H3.881V31.174L7.765,27.09a4.637,4.637,0,0,0,1.436-2.6,1.807,1.807,0,0,0-.34-1.187,1.215,1.215,0,0,0-.988-.407,1.23,1.23,0,0,0-1.038.544,2.234,2.234,0,0,0-.4,1.357H3.632a3.969,3.969,0,0,1,.556-2.054,3.9,3.9,0,0,1,1.544-1.473A4.586,4.586,0,0,1,7.94,20.74a4.512,4.512,0,0,1,3.017.9,3.23,3.23,0,0,1,1.058,2.6,3.773,3.773,0,0,1-.266,1.39,6.1,6.1,0,0,1-.826,1.419,20.805,20.805,0,0,1-1.805,1.988l-1.561,1.8h4.756Zm9.812-10.592L17.61,33H14.655l4.524-9.928H13.418V20.914h8.708ZM24.6,36.254l-1.411-.664.282-.564a4.6,4.6,0,0,0,.606-2.059V30.892h2.241l-.008,1.8a4.5,4.5,0,0,1-.49,1.942A4.935,4.935,0,0,1,24.6,36.254ZM36.552,22.408,32.037,33H29.082l4.524-9.928H27.845V20.914h8.708Zm8.2-1.668v2.2h-.125a4.2,4.2,0,0,0-2.577.751,3.172,3.172,0,0,0-1.241,2.088,3.271,3.271,0,0,1,2.391-.93,3.051,3.051,0,0,1,2.5,1.146,4.62,4.62,0,0,1,.93,3,4.231,4.231,0,0,1-.544,2.117,3.88,3.88,0,0,1-1.519,1.507,4.365,4.365,0,0,1-2.162.544,4.511,4.511,0,0,1-2.3-.585,4.023,4.023,0,0,1-1.577-1.673,5.508,5.508,0,0,1-.581-2.507V27.281a6.977,6.977,0,0,1,.8-3.358,5.807,5.807,0,0,1,2.287-2.337,6.538,6.538,0,0,1,3.3-.847ZM42.23,26.99a1.6,1.6,0,0,0-.93.257,1.634,1.634,0,0,0-.556.631v.838q0,2.291,1.585,2.291a1.286,1.286,0,0,0,1.067-.573A2.334,2.334,0,0,0,43.824,29a2.291,2.291,0,0,0-.436-1.448A1.394,1.394,0,0,0,42.23,26.99Zm5.62-3.752a2.372,2.372,0,0,1,.73-1.81,3.149,3.149,0,0,1,3.926,0,2.435,2.435,0,0,1,.722,1.855v.6a2.359,2.359,0,0,1-.722,1.8,2.729,2.729,0,0,1-1.951.681,2.8,2.8,0,0,1-1.963-.677,2.383,2.383,0,0,1-.743-1.855Zm1.8.637a1,1,0,0,0,.241.7.847.847,0,0,0,.664.268q.872,0,.872-1.105V23.24a1.058,1.058,0,0,0-.232-.705.81.81,0,0,0-.656-.276.827.827,0,0,0-.647.268,1.052,1.052,0,0,0-.241.73Zm3.943,6.161a2.349,2.349,0,0,1,.735-1.81,2.762,2.762,0,0,1,1.955-.681,2.792,2.792,0,0,1,1.967.672,2.422,2.422,0,0,1,.73,1.876v.581a2.37,2.37,0,0,1-.722,1.81,2.74,2.74,0,0,1-1.959.681,2.8,2.8,0,0,1-1.963-.677,2.383,2.383,0,0,1-.743-1.855Zm1.793.637a.982.982,0,0,0,.266.68.842.842,0,0,0,.647.293.763.763,0,0,0,.872-.759l.008-.85a1.015,1.015,0,0,0-.241-.705.937.937,0,0,0-1.295-.016,1,1,0,0,0-.257.68Zm-4.3,1.422-1.3-.656,5.9-9.446,1.3.656Z" transform="translate(269 22.851)" fill="#12263f"/>
      </g>
    </g>
    <g id="Grupo_93174" data-name="Grupo 93174" transform="translate(979.51 -3823.427)">
      <rect id="Rectángulo_31816-3" data-name="Rectángulo 31816" width="511.247" height="114.498" transform="translate(205.233 2858.118)" fill="#6595bf"/>
      <g id="Grupo_89142-3" data-name="Grupo 89142" transform="translate(194.177 2852)">
        <rect id="Rectángulo_31778-3" data-name="Rectángulo 31778" width="517.942" height="116.049" transform="translate(0 0)" fill="#fff" stroke="#12263f" stroke-miterlimit="10" stroke-width="1"/>
      </g>
      <g id="Grupo_89143-3" data-name="Grupo 89143" transform="translate(134.872 2883.465)">
        <path id="Trazado_148619" data-name="Trazado 148619" d="M3.827-4.1V0H.913V-12.086H5.736a5.617,5.617,0,0,1,2.453.51,3.847,3.847,0,0,1,1.652,1.453,3.967,3.967,0,0,1,.585,2.137A3.5,3.5,0,0,1,9.16-5.159,5.252,5.252,0,0,1,5.686-4.1Zm0-2.25H5.736a1.8,1.8,0,0,0,1.291-.423,1.573,1.573,0,0,0,.444-1.2,1.944,1.944,0,0,0-.457-1.353,1.617,1.617,0,0,0-1.245-.515H3.827Zm7.562,1.776a5.3,5.3,0,0,1,.523-2.395,3.74,3.74,0,0,1,1.5-1.615,4.525,4.525,0,0,1,2.3-.564A4.13,4.13,0,0,1,18.893-7.9a4.794,4.794,0,0,1,1.162,3.4v.1a4.651,4.651,0,0,1-1.166,3.333A4.141,4.141,0,0,1,15.73.166a4.188,4.188,0,0,1-3.08-1.15A4.5,4.5,0,0,1,11.4-4.1Zm2.8.174a3.342,3.342,0,0,0,.39,1.826,1.3,1.3,0,0,0,1.154.581q1.494,0,1.527-2.3v-.282q0-2.416-1.544-2.416-1.4,0-1.519,2.083Zm9.67-4.582.091,1.054a3.046,3.046,0,0,1,2.565-1.22,2.562,2.562,0,0,1,2.1.838,3.991,3.991,0,0,1,.718,2.523V0H26.521V-5.669a1.516,1.516,0,0,0-.274-1,1.267,1.267,0,0,0-1-.32,1.334,1.334,0,0,0-1.22.647V0h-2.8V-8.981Zm6.666,4.424a5.486,5.486,0,0,1,.921-3.362,3.033,3.033,0,0,1,2.573-1.229,2.579,2.579,0,0,1,2.025.946V-12.75h2.806V0H36.333l-.141-.963A2.649,2.649,0,0,1,34,.166a3.027,3.027,0,0,1-2.54-1.229A5.66,5.66,0,0,1,30.522-4.557Zm2.8.174q0,2.391,1.395,2.391a1.377,1.377,0,0,0,1.328-.78v-3.42a1.34,1.34,0,0,0-1.312-.8q-1.295,0-1.4,2.092ZM44.783.166a4.617,4.617,0,0,1-3.345-1.233,4.257,4.257,0,0,1-1.278-3.208v-.232a5.516,5.516,0,0,1,.51-2.432,3.735,3.735,0,0,1,1.49-1.631,4.5,4.5,0,0,1,2.324-.577,3.888,3.888,0,0,1,2.988,1.175,4.616,4.616,0,0,1,1.1,3.275v1.087H43.006a2.016,2.016,0,0,0,.656,1.187,1.951,1.951,0,0,0,1.312.432,2.514,2.514,0,0,0,2.075-.93l1.278,1.511a3.573,3.573,0,0,1-1.482,1.15A5.007,5.007,0,0,1,44.783.166Zm-.315-7.155q-1.229,0-1.461,1.627h2.822v-.216a1.386,1.386,0,0,0-.34-1.042A1.354,1.354,0,0,0,44.467-6.989Zm10.658.54L54.2-6.516a1.655,1.655,0,0,0-1.693.83V0h-2.8V-8.981h2.623l.091,1.154A2.166,2.166,0,0,1,54.4-9.147a2.728,2.728,0,0,1,.78.1ZM60.944,0a3.158,3.158,0,0,1-.266-.805,2.6,2.6,0,0,1-2.158.971A3.187,3.187,0,0,1,56.362-.6a2.444,2.444,0,0,1-.888-1.93A2.512,2.512,0,0,1,56.553-4.74a5.5,5.5,0,0,1,3.138-.747h.863v-.475q0-1.243-1.071-1.243a.875.875,0,0,0-1,.984h-2.8A2.508,2.508,0,0,1,56.8-8.335a4.657,4.657,0,0,1,2.826-.813,4.083,4.083,0,0,1,2.714.838,2.915,2.915,0,0,1,1.021,2.3v3.976a4.072,4.072,0,0,0,.382,1.893V0ZM59.193-1.826a1.56,1.56,0,0,0,.867-.224,1.4,1.4,0,0,0,.494-.506V-3.993h-.813q-1.461,0-1.461,1.312a.8.8,0,0,0,.257.618A.931.931,0,0,0,59.193-1.826Zm9.513-.166a1.244,1.244,0,0,0,.913-.32,1.172,1.172,0,0,0,.315-.892h2.623A3.105,3.105,0,0,1,71.5-.78a3.937,3.937,0,0,1-2.727.946,3.986,3.986,0,0,1-3.088-1.229,4.841,4.841,0,0,1-1.129-3.4v-.116a5.471,5.471,0,0,1,.5-2.4,3.656,3.656,0,0,1,1.448-1.6,4.319,4.319,0,0,1,2.241-.56,3.887,3.887,0,0,1,2.781.971,3.445,3.445,0,0,1,1.029,2.631H69.934a1.536,1.536,0,0,0-.34-1.071,1.175,1.175,0,0,0-.913-.374q-1.087,0-1.27,1.386a9.782,9.782,0,0,0-.058,1.212,3.842,3.842,0,0,0,.324,1.876A1.121,1.121,0,0,0,68.706-1.992ZM76.691,0H73.885V-8.981h2.806ZM73.719-11.3a1.249,1.249,0,0,1,.432-.979,1.629,1.629,0,0,1,1.121-.382,1.629,1.629,0,0,1,1.121.382,1.249,1.249,0,0,1,.432.979,1.249,1.249,0,0,1-.432.979,1.629,1.629,0,0,1-1.121.382,1.629,1.629,0,0,1-1.121-.382A1.249,1.249,0,0,1,73.719-11.3Zm4.341,6.724a5.3,5.3,0,0,1,.523-2.395,3.74,3.74,0,0,1,1.5-1.615,4.525,4.525,0,0,1,2.3-.564A4.13,4.13,0,0,1,85.564-7.9a4.794,4.794,0,0,1,1.162,3.4v.1A4.651,4.651,0,0,1,85.56-1.067,4.141,4.141,0,0,1,82.4.166a4.188,4.188,0,0,1-3.08-1.15A4.5,4.5,0,0,1,78.069-4.1Zm2.8.174a3.342,3.342,0,0,0,.39,1.826,1.3,1.3,0,0,0,1.154.581q1.494,0,1.527-2.3v-.282q0-2.416-1.544-2.416-1.4,0-1.519,2.083Zm1.909-8.351h2.955l-2.308,2.606-2.283,0Zm7.761,3.769.091,1.054a3.046,3.046,0,0,1,2.565-1.22,2.562,2.562,0,0,1,2.1.838A3.991,3.991,0,0,1,96-5.786V0H93.193V-5.669a1.516,1.516,0,0,0-.274-1,1.267,1.267,0,0,0-1-.32,1.334,1.334,0,0,0-1.22.647V0h-2.8V-8.981Zm19.59,4.557a5.416,5.416,0,0,1-.942,3.341A3.021,3.021,0,0,1,106.632.166a2.589,2.589,0,0,1-2.034-.9V3.453h-2.8V-8.981h2.615l.083.83a2.589,2.589,0,0,1,2.117-1A3.045,3.045,0,0,1,109.2-7.923a5.483,5.483,0,0,1,.921,3.366Zm-2.8-.174q0-2.391-1.395-2.391a1.316,1.316,0,0,0-1.328.714v3.536a1.359,1.359,0,0,0,1.345.747q1.336,0,1.378-2.308ZM116.41,0a3.159,3.159,0,0,1-.266-.805,2.6,2.6,0,0,1-2.158.971A3.187,3.187,0,0,1,111.828-.6a2.444,2.444,0,0,1-.888-1.93,2.512,2.512,0,0,1,1.079-2.208,5.5,5.5,0,0,1,3.138-.747h.863v-.475q0-1.243-1.071-1.243a.875.875,0,0,0-1,.984h-2.8a2.508,2.508,0,0,1,1.108-2.114,4.657,4.657,0,0,1,2.826-.813,4.083,4.083,0,0,1,2.714.838,2.915,2.915,0,0,1,1.021,2.3v3.976a4.072,4.072,0,0,0,.382,1.893V0Zm-1.751-1.826a1.56,1.56,0,0,0,.867-.224,1.4,1.4,0,0,0,.494-.506V-3.993h-.813q-1.461,0-1.461,1.312a.8.8,0,0,0,.257.618A.931.931,0,0,0,114.659-1.826Zm8.973-9.388v2.233h1.478v1.942h-1.478V-2.93a1.049,1.049,0,0,0,.183.706.98.98,0,0,0,.722.2,4.1,4.1,0,0,0,.7-.05v2a5.163,5.163,0,0,1-1.577.241,2.93,2.93,0,0,1-2.133-.681,2.79,2.79,0,0,1-.689-2.067V-7.039h-1.146V-8.981h1.146v-2.233Zm8.01,4.765-.921-.066a1.655,1.655,0,0,0-1.693.83V0h-2.8V-8.981h2.623l.091,1.154a2.166,2.166,0,0,1,1.967-1.32,2.728,2.728,0,0,1,.78.1ZM135.6,0H132.8V-8.981H135.6ZM132.63-11.3a1.249,1.249,0,0,1,.432-.979,1.629,1.629,0,0,1,1.121-.382,1.629,1.629,0,0,1,1.121.382,1.249,1.249,0,0,1,.432.979,1.249,1.249,0,0,1-.432.979,1.629,1.629,0,0,1-1.121.382,1.629,1.629,0,0,1-1.121-.382A1.249,1.249,0,0,1,132.63-11.3Zm7.338,2.316.091,1.054a3.088,3.088,0,0,1,2.565-1.22,2.273,2.273,0,0,1,2.3,1.353,2.989,2.989,0,0,1,2.64-1.353q2.731,0,2.806,3.3V0h-2.806V-5.669a1.712,1.712,0,0,0-.232-1,.989.989,0,0,0-.847-.315,1.325,1.325,0,0,0-1.237.739l.008.116V0H142.45V-5.653a1.8,1.8,0,0,0-.224-1.021.987.987,0,0,0-.855-.315,1.342,1.342,0,0,0-1.229.739V0h-2.8V-8.981Zm11.646,4.408a5.3,5.3,0,0,1,.523-2.395,3.74,3.74,0,0,1,1.5-1.615,4.525,4.525,0,0,1,2.3-.564A4.13,4.13,0,0,1,159.118-7.9a4.794,4.794,0,0,1,1.162,3.4v.1a4.651,4.651,0,0,1-1.166,3.333A4.141,4.141,0,0,1,155.955.166a4.188,4.188,0,0,1-3.08-1.15A4.5,4.5,0,0,1,151.622-4.1Zm2.8.174a3.342,3.342,0,0,0,.39,1.826,1.3,1.3,0,0,0,1.154.581q1.494,0,1.527-2.3v-.282q0-2.416-1.544-2.416-1.4,0-1.519,2.083Zm9.67-4.582.091,1.054a3.046,3.046,0,0,1,2.565-1.22,2.562,2.562,0,0,1,2.1.838,3.991,3.991,0,0,1,.718,2.523V0h-2.806V-5.669a1.516,1.516,0,0,0-.274-1,1.267,1.267,0,0,0-1-.32,1.334,1.334,0,0,0-1.22.647V0h-2.8V-8.981ZM174.051,0h-2.806V-8.981h2.806Zm-2.972-11.3a1.249,1.249,0,0,1,.432-.979,1.629,1.629,0,0,1,1.121-.382,1.629,1.629,0,0,1,1.121.382,1.249,1.249,0,0,1,.432.979,1.249,1.249,0,0,1-.432.979,1.629,1.629,0,0,1-1.121.382,1.629,1.629,0,0,1-1.121-.382A1.249,1.249,0,0,1,171.079-11.3Zm4.341,6.724a5.3,5.3,0,0,1,.523-2.395,3.74,3.74,0,0,1,1.5-1.615,4.525,4.525,0,0,1,2.3-.564A4.13,4.13,0,0,1,182.924-7.9a4.794,4.794,0,0,1,1.162,3.4v.1a4.651,4.651,0,0,1-1.166,3.333A4.141,4.141,0,0,1,179.762.166a4.188,4.188,0,0,1-3.08-1.15A4.5,4.5,0,0,1,175.429-4.1Zm2.8.174a3.342,3.342,0,0,0,.39,1.826,1.3,1.3,0,0,0,1.154.581q1.494,0,1.527-2.3v-.282q0-2.416-1.544-2.416-1.4,0-1.519,2.083Zm19.3-1.594h-7.687V-8.151h7.687Zm0,3.644h-7.687V-4.507h7.687ZM217.09-9.836h-3.627V0h-2.914V-9.836h-3.561v-2.25h10.1ZM221.423,0h-2.905V-12.086h2.905Zm12.26-5.794a7.127,7.127,0,0,1-.656,3.129,4.847,4.847,0,0,1-1.864,2.1,5.189,5.189,0,0,1-2.752.735,5.262,5.262,0,0,1-2.739-.71,4.838,4.838,0,0,1-1.864-2.03,6.922,6.922,0,0,1-.7-3.03v-.681a7.159,7.159,0,0,1,.652-3.134,4.835,4.835,0,0,1,1.868-2.1,5.225,5.225,0,0,1,2.768-.739,5.174,5.174,0,0,1,2.739.73,4.922,4.922,0,0,1,1.872,2.079,6.953,6.953,0,0,1,.677,3.092ZM230.72-6.3a5.082,5.082,0,0,0-.6-2.735,1.93,1.93,0,0,0-1.722-.934q-2.191,0-2.316,3.287l-.008.888a5.227,5.227,0,0,0,.589,2.731,1.927,1.927,0,0,0,1.751.955,1.9,1.9,0,0,0,1.7-.938,5.084,5.084,0,0,0,.606-2.7ZM241.428-7.94l-2.706-.746.54-1.567,2.648,1.086-.208-2.919h1.776l-.216,2.977,2.573-1.061.54,1.584-2.739.746,1.818,2.2-1.436.979L242.5-7.1l-1.527,2.357-1.436-.938Zm18.336,3.515a5.416,5.416,0,0,1-.942,3.341A3.021,3.021,0,0,1,256.278.166a2.589,2.589,0,0,1-2.034-.9V3.453h-2.8V-8.981h2.615l.083.83a2.589,2.589,0,0,1,2.117-1,3.045,3.045,0,0,1,2.582,1.224,5.483,5.483,0,0,1,.921,3.366Zm-2.8-.174q0-2.391-1.395-2.391a1.317,1.317,0,0,0-1.328.714v3.536a1.359,1.359,0,0,0,1.345.747q1.336,0,1.378-2.308ZM266.057,0a3.159,3.159,0,0,1-.266-.805,2.6,2.6,0,0,1-2.158.971A3.187,3.187,0,0,1,261.475-.6a2.444,2.444,0,0,1-.888-1.93,2.512,2.512,0,0,1,1.079-2.208,5.5,5.5,0,0,1,3.138-.747h.863v-.475q0-1.243-1.071-1.243a.875.875,0,0,0-1,.984h-2.8a2.508,2.508,0,0,1,1.108-2.114,4.657,4.657,0,0,1,2.826-.813,4.083,4.083,0,0,1,2.714.838,2.915,2.915,0,0,1,1.021,2.3v3.976a4.072,4.072,0,0,0,.382,1.893V0Zm-1.751-1.826a1.56,1.56,0,0,0,.867-.224,1.4,1.4,0,0,0,.494-.506V-3.993h-.813q-1.461,0-1.461,1.312a.8.8,0,0,0,.257.618A.931.931,0,0,0,264.305-1.826ZM275.453-6.45l-.921-.066a1.655,1.655,0,0,0-1.693.83V0h-2.8V-8.981h2.623l.091,1.154a2.166,2.166,0,0,1,1.967-1.32,2.728,2.728,0,0,1,.78.1Zm4.682-4.765v2.233h1.478v1.942h-1.478V-2.93a1.049,1.049,0,0,0,.183.706.979.979,0,0,0,.722.2,4.1,4.1,0,0,0,.7-.05v2a5.163,5.163,0,0,1-1.577.241,2.93,2.93,0,0,1-2.133-.681,2.79,2.79,0,0,1-.689-2.067V-7.039h-1.146V-8.981h1.146v-2.233ZM285.663,0h-2.806V-8.981h2.806Zm-2.972-11.3a1.249,1.249,0,0,1,.432-.979,1.629,1.629,0,0,1,1.121-.382,1.629,1.629,0,0,1,1.121.382,1.249,1.249,0,0,1,.432.979,1.249,1.249,0,0,1-.432.979,1.629,1.629,0,0,1-1.121.382,1.629,1.629,0,0,1-1.121-.382A1.249,1.249,0,0,1,282.691-11.3Zm8.492,9.305a1.244,1.244,0,0,0,.913-.32,1.172,1.172,0,0,0,.315-.892h2.623A3.105,3.105,0,0,1,293.976-.78a3.937,3.937,0,0,1-2.727.946,3.986,3.986,0,0,1-3.088-1.229,4.841,4.841,0,0,1-1.129-3.4v-.116a5.471,5.471,0,0,1,.5-2.4,3.657,3.657,0,0,1,1.448-1.6,4.319,4.319,0,0,1,2.241-.56,3.887,3.887,0,0,1,2.781.971,3.445,3.445,0,0,1,1.029,2.631h-2.623a1.535,1.535,0,0,0-.34-1.071,1.175,1.175,0,0,0-.913-.374q-1.087,0-1.27,1.386a9.784,9.784,0,0,0-.058,1.212,3.842,3.842,0,0,0,.324,1.876A1.121,1.121,0,0,0,291.183-1.992ZM299.168,0h-2.806V-8.981h2.806ZM296.2-11.3a1.249,1.249,0,0,1,.432-.979,1.629,1.629,0,0,1,1.121-.382,1.629,1.629,0,0,1,1.121.382,1.249,1.249,0,0,1,.432.979,1.249,1.249,0,0,1-.432.979,1.629,1.629,0,0,1-1.121.382,1.629,1.629,0,0,1-1.121-.382A1.249,1.249,0,0,1,296.2-11.3Zm13.032,6.873a5.416,5.416,0,0,1-.942,3.341A3.021,3.021,0,0,1,305.743.166a2.589,2.589,0,0,1-2.034-.9V3.453h-2.8V-8.981h2.615l.083.83a2.589,2.589,0,0,1,2.117-1,3.045,3.045,0,0,1,2.582,1.224,5.483,5.483,0,0,1,.921,3.366Zm-2.8-.174q0-2.391-1.395-2.391a1.316,1.316,0,0,0-1.328.714v3.536a1.359,1.359,0,0,0,1.345.747q1.336,0,1.378-2.308ZM315.521,0a3.159,3.159,0,0,1-.266-.805A2.6,2.6,0,0,1,313.1.166,3.187,3.187,0,0,1,310.939-.6a2.444,2.444,0,0,1-.888-1.93A2.512,2.512,0,0,1,311.13-4.74a5.5,5.5,0,0,1,3.138-.747h.863v-.475q0-1.243-1.071-1.243a.875.875,0,0,0-1,.984h-2.8a2.508,2.508,0,0,1,1.108-2.114,4.657,4.657,0,0,1,2.826-.813,4.083,4.083,0,0,1,2.714.838,2.915,2.915,0,0,1,1.021,2.3v3.976a4.072,4.072,0,0,0,.382,1.893V0ZM313.77-1.826a1.56,1.56,0,0,0,.867-.224,1.4,1.4,0,0,0,.494-.506V-3.993h-.813q-1.461,0-1.461,1.312a.8.8,0,0,0,.257.618A.931.931,0,0,0,313.77-1.826Zm9.513-.166a1.244,1.244,0,0,0,.913-.32,1.172,1.172,0,0,0,.315-.892h2.623A3.105,3.105,0,0,1,326.075-.78a3.937,3.937,0,0,1-2.727.946,3.986,3.986,0,0,1-3.088-1.229,4.841,4.841,0,0,1-1.129-3.4v-.116a5.471,5.471,0,0,1,.5-2.4,3.657,3.657,0,0,1,1.448-1.6,4.319,4.319,0,0,1,2.241-.56,3.887,3.887,0,0,1,2.781.971,3.445,3.445,0,0,1,1.029,2.631h-2.623a1.535,1.535,0,0,0-.34-1.071,1.175,1.175,0,0,0-.913-.374q-1.087,0-1.27,1.386a9.784,9.784,0,0,0-.058,1.212,3.842,3.842,0,0,0,.324,1.876A1.121,1.121,0,0,0,323.282-1.992ZM331.268,0h-2.806V-8.981h2.806ZM328.3-11.3a1.249,1.249,0,0,1,.432-.979,1.629,1.629,0,0,1,1.121-.382,1.629,1.629,0,0,1,1.121.382,1.249,1.249,0,0,1,.432.979,1.249,1.249,0,0,1-.432.979,1.629,1.629,0,0,1-1.121.382,1.629,1.629,0,0,1-1.121-.382A1.249,1.249,0,0,1,328.3-11.3Zm4.341,6.724a5.3,5.3,0,0,1,.523-2.395,3.74,3.74,0,0,1,1.5-1.615,4.525,4.525,0,0,1,2.3-.564A4.13,4.13,0,0,1,340.141-7.9,4.794,4.794,0,0,1,341.3-4.5v.1a4.651,4.651,0,0,1-1.166,3.333A4.141,4.141,0,0,1,336.979.166a4.188,4.188,0,0,1-3.08-1.15A4.5,4.5,0,0,1,332.646-4.1Zm2.8.174a3.342,3.342,0,0,0,.39,1.826,1.3,1.3,0,0,0,1.154.581q1.494,0,1.527-2.3v-.282q0-2.416-1.544-2.416-1.4,0-1.519,2.083Zm1.909-8.351H340.3l-2.308,2.606-2.283,0ZM345.1-8.981l.091,1.054a3.046,3.046,0,0,1,2.565-1.22,2.562,2.562,0,0,1,2.1.838,3.991,3.991,0,0,1,.718,2.523V0H347.77V-5.669a1.516,1.516,0,0,0-.274-1,1.267,1.267,0,0,0-1-.32,1.334,1.334,0,0,0-1.22.647V0h-2.8V-8.981Z" transform="translate(130 37.851)" fill="#12263f"/>
      </g>
    </g>
    <g id="Grupo_93175" data-name="Grupo 93175" transform="translate(979.51 -3685.427)">
      <rect id="Rectángulo_31816-4" data-name="Rectángulo 31816" width="440.882" height="114.498" transform="translate(240.415 2858.118)" fill="#6595bf"/>
      <g id="Grupo_89142-4" data-name="Grupo 89142" transform="translate(194.177 2852)">
        <rect id="Rectángulo_31778-4" data-name="Rectángulo 31778" width="447.577" height="116.049" transform="translate(35.183)" fill="#fff" stroke="#12263f" stroke-miterlimit="10" stroke-width="1"/>
      </g>
      <g id="Grupo_89143-4" data-name="Grupo 89143" transform="translate(142.872 2883.465)">
        <path id="Trazado_148620" data-name="Trazado 148620" d="M3.827-4.1V0H.913V-12.086H5.736a5.617,5.617,0,0,1,2.453.51,3.847,3.847,0,0,1,1.652,1.453,3.967,3.967,0,0,1,.585,2.137A3.5,3.5,0,0,1,9.16-5.159,5.252,5.252,0,0,1,5.686-4.1Zm0-2.25H5.736a1.8,1.8,0,0,0,1.291-.423,1.573,1.573,0,0,0,.444-1.2,1.944,1.944,0,0,0-.457-1.353,1.617,1.617,0,0,0-1.245-.515H3.827Zm7.562,1.776a5.3,5.3,0,0,1,.523-2.395,3.74,3.74,0,0,1,1.5-1.615,4.525,4.525,0,0,1,2.3-.564A4.13,4.13,0,0,1,18.893-7.9a4.794,4.794,0,0,1,1.162,3.4v.1a4.651,4.651,0,0,1-1.166,3.333A4.141,4.141,0,0,1,15.73.166a4.188,4.188,0,0,1-3.08-1.15A4.5,4.5,0,0,1,11.4-4.1Zm2.8.174a3.342,3.342,0,0,0,.39,1.826,1.3,1.3,0,0,0,1.154.581q1.494,0,1.527-2.3v-.282q0-2.416-1.544-2.416-1.4,0-1.519,2.083Zm9.67-4.582.091,1.054a3.046,3.046,0,0,1,2.565-1.22,2.562,2.562,0,0,1,2.1.838,3.991,3.991,0,0,1,.718,2.523V0H26.521V-5.669a1.516,1.516,0,0,0-.274-1,1.267,1.267,0,0,0-1-.32,1.334,1.334,0,0,0-1.22.647V0h-2.8V-8.981Zm6.666,4.424a5.486,5.486,0,0,1,.921-3.362,3.033,3.033,0,0,1,2.573-1.229,2.579,2.579,0,0,1,2.025.946V-12.75h2.806V0H36.333l-.141-.963A2.649,2.649,0,0,1,34,.166a3.027,3.027,0,0,1-2.54-1.229A5.66,5.66,0,0,1,30.522-4.557Zm2.8.174q0,2.391,1.395,2.391a1.377,1.377,0,0,0,1.328-.78v-3.42a1.34,1.34,0,0,0-1.312-.8q-1.295,0-1.4,2.092ZM44.783.166a4.617,4.617,0,0,1-3.345-1.233,4.257,4.257,0,0,1-1.278-3.208v-.232a5.516,5.516,0,0,1,.51-2.432,3.735,3.735,0,0,1,1.49-1.631,4.5,4.5,0,0,1,2.324-.577,3.888,3.888,0,0,1,2.988,1.175,4.616,4.616,0,0,1,1.1,3.275v1.087H43.006a2.016,2.016,0,0,0,.656,1.187,1.951,1.951,0,0,0,1.312.432,2.514,2.514,0,0,0,2.075-.93l1.278,1.511a3.573,3.573,0,0,1-1.482,1.15A5.007,5.007,0,0,1,44.783.166Zm-.315-7.155q-1.229,0-1.461,1.627h2.822v-.216a1.386,1.386,0,0,0-.34-1.042A1.354,1.354,0,0,0,44.467-6.989Zm10.658.54L54.2-6.516a1.655,1.655,0,0,0-1.693.83V0h-2.8V-8.981h2.623l.091,1.154A2.166,2.166,0,0,1,54.4-9.147a2.728,2.728,0,0,1,.78.1ZM60.944,0a3.158,3.158,0,0,1-.266-.805,2.6,2.6,0,0,1-2.158.971A3.187,3.187,0,0,1,56.362-.6a2.444,2.444,0,0,1-.888-1.93A2.512,2.512,0,0,1,56.553-4.74a5.5,5.5,0,0,1,3.138-.747h.863v-.475q0-1.243-1.071-1.243a.875.875,0,0,0-1,.984h-2.8A2.508,2.508,0,0,1,56.8-8.335a4.657,4.657,0,0,1,2.826-.813,4.083,4.083,0,0,1,2.714.838,2.915,2.915,0,0,1,1.021,2.3v3.976a4.072,4.072,0,0,0,.382,1.893V0ZM59.193-1.826a1.56,1.56,0,0,0,.867-.224,1.4,1.4,0,0,0,.494-.506V-3.993h-.813q-1.461,0-1.461,1.312a.8.8,0,0,0,.257.618A.931.931,0,0,0,59.193-1.826Zm9.513-.166a1.244,1.244,0,0,0,.913-.32,1.172,1.172,0,0,0,.315-.892h2.623A3.105,3.105,0,0,1,71.5-.78a3.937,3.937,0,0,1-2.727.946,3.986,3.986,0,0,1-3.088-1.229,4.841,4.841,0,0,1-1.129-3.4v-.116a5.471,5.471,0,0,1,.5-2.4,3.656,3.656,0,0,1,1.448-1.6,4.319,4.319,0,0,1,2.241-.56,3.887,3.887,0,0,1,2.781.971,3.445,3.445,0,0,1,1.029,2.631H69.934a1.536,1.536,0,0,0-.34-1.071,1.175,1.175,0,0,0-.913-.374q-1.087,0-1.27,1.386a9.782,9.782,0,0,0-.058,1.212,3.842,3.842,0,0,0,.324,1.876A1.121,1.121,0,0,0,68.706-1.992ZM76.691,0H73.885V-8.981h2.806ZM73.719-11.3a1.249,1.249,0,0,1,.432-.979,1.629,1.629,0,0,1,1.121-.382,1.629,1.629,0,0,1,1.121.382,1.249,1.249,0,0,1,.432.979,1.249,1.249,0,0,1-.432.979,1.629,1.629,0,0,1-1.121.382,1.629,1.629,0,0,1-1.121-.382A1.249,1.249,0,0,1,73.719-11.3Zm4.341,6.724a5.3,5.3,0,0,1,.523-2.395,3.74,3.74,0,0,1,1.5-1.615,4.525,4.525,0,0,1,2.3-.564A4.13,4.13,0,0,1,85.564-7.9a4.794,4.794,0,0,1,1.162,3.4v.1A4.651,4.651,0,0,1,85.56-1.067,4.141,4.141,0,0,1,82.4.166a4.188,4.188,0,0,1-3.08-1.15A4.5,4.5,0,0,1,78.069-4.1Zm2.8.174a3.342,3.342,0,0,0,.39,1.826,1.3,1.3,0,0,0,1.154.581q1.494,0,1.527-2.3v-.282q0-2.416-1.544-2.416-1.4,0-1.519,2.083Zm1.909-8.351h2.955l-2.308,2.606-2.283,0Zm7.761,3.769.091,1.054a3.046,3.046,0,0,1,2.565-1.22,2.562,2.562,0,0,1,2.1.838A3.991,3.991,0,0,1,96-5.786V0H93.193V-5.669a1.516,1.516,0,0,0-.274-1,1.267,1.267,0,0,0-1-.32,1.334,1.334,0,0,0-1.22.647V0h-2.8V-8.981Zm19.59,4.557a5.416,5.416,0,0,1-.942,3.341A3.021,3.021,0,0,1,106.632.166a2.589,2.589,0,0,1-2.034-.9V3.453h-2.8V-8.981h2.615l.083.83a2.589,2.589,0,0,1,2.117-1A3.045,3.045,0,0,1,109.2-7.923a5.483,5.483,0,0,1,.921,3.366Zm-2.8-.174q0-2.391-1.395-2.391a1.316,1.316,0,0,0-1.328.714v3.536a1.359,1.359,0,0,0,1.345.747q1.336,0,1.378-2.308ZM116.41,0a3.159,3.159,0,0,1-.266-.805,2.6,2.6,0,0,1-2.158.971A3.187,3.187,0,0,1,111.828-.6a2.444,2.444,0,0,1-.888-1.93,2.512,2.512,0,0,1,1.079-2.208,5.5,5.5,0,0,1,3.138-.747h.863v-.475q0-1.243-1.071-1.243a.875.875,0,0,0-1,.984h-2.8a2.508,2.508,0,0,1,1.108-2.114,4.657,4.657,0,0,1,2.826-.813,4.083,4.083,0,0,1,2.714.838,2.915,2.915,0,0,1,1.021,2.3v3.976a4.072,4.072,0,0,0,.382,1.893V0Zm-1.751-1.826a1.56,1.56,0,0,0,.867-.224,1.4,1.4,0,0,0,.494-.506V-3.993h-.813q-1.461,0-1.461,1.312a.8.8,0,0,0,.257.618A.931.931,0,0,0,114.659-1.826Zm8.973-9.388v2.233h1.478v1.942h-1.478V-2.93a1.049,1.049,0,0,0,.183.706.98.98,0,0,0,.722.2,4.1,4.1,0,0,0,.7-.05v2a5.163,5.163,0,0,1-1.577.241,2.93,2.93,0,0,1-2.133-.681,2.79,2.79,0,0,1-.689-2.067V-7.039h-1.146V-8.981h1.146v-2.233Zm8.01,4.765-.921-.066a1.655,1.655,0,0,0-1.693.83V0h-2.8V-8.981h2.623l.091,1.154a2.166,2.166,0,0,1,1.967-1.32,2.728,2.728,0,0,1,.78.1ZM135.6,0H132.8V-8.981H135.6ZM132.63-11.3a1.249,1.249,0,0,1,.432-.979,1.629,1.629,0,0,1,1.121-.382,1.629,1.629,0,0,1,1.121.382,1.249,1.249,0,0,1,.432.979,1.249,1.249,0,0,1-.432.979,1.629,1.629,0,0,1-1.121.382,1.629,1.629,0,0,1-1.121-.382A1.249,1.249,0,0,1,132.63-11.3Zm7.338,2.316.091,1.054a3.088,3.088,0,0,1,2.565-1.22,2.273,2.273,0,0,1,2.3,1.353,2.989,2.989,0,0,1,2.64-1.353q2.731,0,2.806,3.3V0h-2.806V-5.669a1.712,1.712,0,0,0-.232-1,.989.989,0,0,0-.847-.315,1.325,1.325,0,0,0-1.237.739l.008.116V0H142.45V-5.653a1.8,1.8,0,0,0-.224-1.021.987.987,0,0,0-.855-.315,1.342,1.342,0,0,0-1.229.739V0h-2.8V-8.981Zm11.646,4.408a5.3,5.3,0,0,1,.523-2.395,3.74,3.74,0,0,1,1.5-1.615,4.525,4.525,0,0,1,2.3-.564A4.13,4.13,0,0,1,159.118-7.9a4.794,4.794,0,0,1,1.162,3.4v.1a4.651,4.651,0,0,1-1.166,3.333A4.141,4.141,0,0,1,155.955.166a4.188,4.188,0,0,1-3.08-1.15A4.5,4.5,0,0,1,151.622-4.1Zm2.8.174a3.342,3.342,0,0,0,.39,1.826,1.3,1.3,0,0,0,1.154.581q1.494,0,1.527-2.3v-.282q0-2.416-1.544-2.416-1.4,0-1.519,2.083Zm9.67-4.582.091,1.054a3.046,3.046,0,0,1,2.565-1.22,2.562,2.562,0,0,1,2.1.838,3.991,3.991,0,0,1,.718,2.523V0h-2.806V-5.669a1.516,1.516,0,0,0-.274-1,1.267,1.267,0,0,0-1-.32,1.334,1.334,0,0,0-1.22.647V0h-2.8V-8.981ZM174.051,0h-2.806V-8.981h2.806Zm-2.972-11.3a1.249,1.249,0,0,1,.432-.979,1.629,1.629,0,0,1,1.121-.382,1.629,1.629,0,0,1,1.121.382,1.249,1.249,0,0,1,.432.979,1.249,1.249,0,0,1-.432.979,1.629,1.629,0,0,1-1.121.382,1.629,1.629,0,0,1-1.121-.382A1.249,1.249,0,0,1,171.079-11.3Zm4.341,6.724a5.3,5.3,0,0,1,.523-2.395,3.74,3.74,0,0,1,1.5-1.615,4.525,4.525,0,0,1,2.3-.564A4.13,4.13,0,0,1,182.924-7.9a4.794,4.794,0,0,1,1.162,3.4v.1a4.651,4.651,0,0,1-1.166,3.333A4.141,4.141,0,0,1,179.762.166a4.188,4.188,0,0,1-3.08-1.15A4.5,4.5,0,0,1,175.429-4.1Zm2.8.174a3.342,3.342,0,0,0,.39,1.826,1.3,1.3,0,0,0,1.154.581q1.494,0,1.527-2.3v-.282q0-2.416-1.544-2.416-1.4,0-1.519,2.083Zm19.3-1.594h-7.687V-8.151h7.687Zm0,3.644h-7.687V-4.507h7.687Zm12.966-4.864h1.32a1.372,1.372,0,0,0,1.569-1.536A1.328,1.328,0,0,0,213-9.724a1.416,1.416,0,0,0-1.054-.378,1.516,1.516,0,0,0-.967.324.988.988,0,0,0-.411.805h-2.8a2.863,2.863,0,0,1,.531-1.7,3.508,3.508,0,0,1,1.473-1.166,5.037,5.037,0,0,1,2.071-.419,4.95,4.95,0,0,1,3.171.921,3.063,3.063,0,0,1,1.154,2.532,2.553,2.553,0,0,1-.477,1.473,3.4,3.4,0,0,1-1.39,1.125,3.249,3.249,0,0,1,1.511,1.058A2.787,2.787,0,0,1,216.36-3.4a3.119,3.119,0,0,1-1.245,2.59,5.168,5.168,0,0,1-3.271.971,5.36,5.36,0,0,1-2.2-.452A3.453,3.453,0,0,1,208.1-1.54a3.259,3.259,0,0,1-.523-1.822h2.814a1.26,1.26,0,0,0,.448.963,1.582,1.582,0,0,0,1.1.407,1.658,1.658,0,0,0,1.179-.411,1.373,1.373,0,0,0,.44-1.05,1.606,1.606,0,0,0-.457-1.295,1.909,1.909,0,0,0-1.262-.382h-1.361Zm15.68,2.274a5.771,5.771,0,0,1-1.1,3.777,3.8,3.8,0,0,1-3.1,1.328,3.821,3.821,0,0,1-3.121-1.336,5.762,5.762,0,0,1-1.1-3.769V-7.147a5.771,5.771,0,0,1,1.1-3.777,3.81,3.81,0,0,1,3.109-1.328,3.812,3.812,0,0,1,3.113,1.336,5.776,5.776,0,0,1,1.1,3.777Zm-2.8-2.565a4.311,4.311,0,0,0-.34-1.947,1.138,1.138,0,0,0-1.079-.643,1.111,1.111,0,0,0-1.05.6,4.061,4.061,0,0,0-.353,1.81V-4.6a4.343,4.343,0,0,0,.34,1.98,1.142,1.142,0,0,0,1.079.627,1.127,1.127,0,0,0,1.054-.61,4.146,4.146,0,0,0,.349-1.913Zm4.258-2.258a2.372,2.372,0,0,1,.73-1.81,2.739,2.739,0,0,1,1.959-.689,2.742,2.742,0,0,1,1.967.685A2.435,2.435,0,0,1,233-9.72v.6a2.359,2.359,0,0,1-.722,1.8,2.729,2.729,0,0,1-1.951.681,2.8,2.8,0,0,1-1.963-.677,2.383,2.383,0,0,1-.743-1.855Zm1.8.637a1,1,0,0,0,.241.7.847.847,0,0,0,.664.268q.872,0,.872-1.105V-9.76a1.058,1.058,0,0,0-.232-.705.81.81,0,0,0-.656-.276.827.827,0,0,0-.647.268,1.052,1.052,0,0,0-.241.73Zm3.943,6.161a2.349,2.349,0,0,1,.735-1.81,2.762,2.762,0,0,1,1.955-.681,2.792,2.792,0,0,1,1.967.672,2.422,2.422,0,0,1,.73,1.876v.581a2.37,2.37,0,0,1-.722,1.81,2.74,2.74,0,0,1-1.959.681,2.8,2.8,0,0,1-1.963-.677,2.383,2.383,0,0,1-.743-1.855Zm1.793.637a.982.982,0,0,0,.266.68.842.842,0,0,0,.647.293.763.763,0,0,0,.872-.759l.008-.85a1.015,1.015,0,0,0-.241-.705.837.837,0,0,0-.656-.268.844.844,0,0,0-.639.252,1,1,0,0,0-.257.68ZM230.861-.9l-1.3-.656,5.9-9.446,1.3.656ZM246.649-7.94l-2.706-.746.54-1.567,2.648,1.086-.208-2.919H248.7l-.216,2.977,2.573-1.061.54,1.584-2.739.746,1.818,2.2-1.436.979L247.72-7.1l-1.527,2.357-1.436-.938ZM265-10.592,260.487,0h-2.955l4.524-9.928h-5.761v-2.158H265Zm1.61,4.688.739-6.182h7.064v2.175h-4.79l-.274,2.4a3.3,3.3,0,0,1,.784-.308,3.579,3.579,0,0,1,.95-.133,3.546,3.546,0,0,1,2.768,1.067,4.3,4.3,0,0,1,.967,2.992,4.289,4.289,0,0,1-.519,2.1A3.566,3.566,0,0,1,272.847-.34a4.6,4.6,0,0,1-2.216.506A4.949,4.949,0,0,1,268.5-.3a3.827,3.827,0,0,1-1.561-1.286,3.124,3.124,0,0,1-.556-1.845h2.806a1.587,1.587,0,0,0,.423,1.052,1.344,1.344,0,0,0,1,.389q1.411,0,1.411-2.088,0-1.93-1.727-1.93a1.723,1.723,0,0,0-1.461.63Zm10.708,9.158L275.91,2.59l.282-.564A4.6,4.6,0,0,0,276.8-.033V-2.108h2.241l-.008,1.8a4.5,4.5,0,0,1-.49,1.942A4.935,4.935,0,0,1,277.321,3.254ZM287.074,0h-2.806V-8.932l-2.756.805v-2.125l5.3-1.834h.257Zm6.2-7.213h1.32a1.372,1.372,0,0,0,1.569-1.536,1.328,1.328,0,0,0-.374-.975,1.416,1.416,0,0,0-1.054-.378,1.516,1.516,0,0,0-.967.324.988.988,0,0,0-.411.805h-2.8a2.864,2.864,0,0,1,.531-1.7,3.508,3.508,0,0,1,1.473-1.166,5.037,5.037,0,0,1,2.071-.419,4.95,4.95,0,0,1,3.171.921,3.063,3.063,0,0,1,1.154,2.532,2.553,2.553,0,0,1-.477,1.473,3.4,3.4,0,0,1-1.39,1.125A3.249,3.249,0,0,1,298.6-5.151a2.787,2.787,0,0,1,.548,1.756,3.119,3.119,0,0,1-1.245,2.59,5.168,5.168,0,0,1-3.271.971,5.36,5.36,0,0,1-2.2-.452,3.453,3.453,0,0,1-1.54-1.253,3.259,3.259,0,0,1-.523-1.822h2.814a1.26,1.26,0,0,0,.448.963,1.582,1.582,0,0,0,1.1.407,1.658,1.658,0,0,0,1.179-.411,1.373,1.373,0,0,0,.44-1.05,1.606,1.606,0,0,0-.457-1.295,1.909,1.909,0,0,0-1.262-.382h-1.361Zm7.3-2.548a2.372,2.372,0,0,1,.73-1.81,2.739,2.739,0,0,1,1.959-.689,2.742,2.742,0,0,1,1.967.685,2.435,2.435,0,0,1,.722,1.855v.6a2.359,2.359,0,0,1-.722,1.8,2.729,2.729,0,0,1-1.951.681,2.8,2.8,0,0,1-1.963-.677,2.384,2.384,0,0,1-.743-1.855Zm1.8.637a1,1,0,0,0,.241.7.847.847,0,0,0,.664.268q.872,0,.872-1.105V-9.76a1.058,1.058,0,0,0-.232-.705.81.81,0,0,0-.656-.276.827.827,0,0,0-.647.268,1.052,1.052,0,0,0-.241.73Zm3.943,6.161a2.349,2.349,0,0,1,.735-1.81A2.762,2.762,0,0,1,309-5.454a2.792,2.792,0,0,1,1.967.672,2.422,2.422,0,0,1,.73,1.876v.581a2.37,2.37,0,0,1-.722,1.81,2.74,2.74,0,0,1-1.959.681,2.8,2.8,0,0,1-1.963-.677,2.384,2.384,0,0,1-.743-1.855Zm1.793.637a.981.981,0,0,0,.266.68.842.842,0,0,0,.647.293.763.763,0,0,0,.872-.759l.008-.85a1.015,1.015,0,0,0-.241-.705A.837.837,0,0,0,309-3.935a.844.844,0,0,0-.639.252,1,1,0,0,0-.257.68ZM303.809-.9l-1.3-.656,5.9-9.446,1.3.656Z" transform="translate(140 37.851)" fill="#12263f"/>
      </g>
    </g>
  </g>
</svg>
