<svg xmlns="http://www.w3.org/2000/svg" xmlns:xlink="http://www.w3.org/1999/xlink" width="183.348" height="183.348" viewBox="0 0 183.348 183.348">
  <defs>
    <radialGradient id="radial-gradient" cx="0.076" cy="0.019" r="1.465" gradientTransform="translate(0.001)" gradientUnits="objectBoundingBox">
      <stop offset="0" stop-color="#f6f6f7"/>
      <stop offset="0.477" stop-color="#f9f9fa"/>
      <stop offset="0.715" stop-color="#fff"/>
    </radialGradient>
  </defs>
  <g id="Grupo_49868" data-name="Grupo 49868" transform="translate(0 0.001)">
    <g id="Grupo_18531" data-name="Grupo 18531" transform="translate(0 0)">
      <g id="Grupo_18423" data-name="Grupo 18423" transform="translate(0 0)">
        <g id="Grupo_18421" data-name="Grupo 18421">
          <g id="Grupo_18420" data-name="Grupo 18420">
            <g id="Grupo_18419" data-name="Grupo 18419">
              <path id="Trazado_40936" data-name="Trazado 40936" d="M377.97,2237.392a91.673,91.673,0,1,1-91.672-91.671A91.672,91.672,0,0,1,377.97,2237.392Z" transform="translate(-194.623 -2145.721)" fill="#fff"/>
            </g>
          </g>
        </g>
        <path id="Trazado_40937" data-name="Trazado 40937" d="M376.482,2235.77a91.671,91.671,0,1,0-91.672,91.676A91.311,91.311,0,0,0,376.482,2235.77Z" transform="translate(-193.135 -2144.099)" fill="url(#radial-gradient)"/>
        <path id="Trazado_40938" data-name="Trazado 40938" d="M341.45,2222.48a69.974,69.974,0,1,0-69.974,69.974A69.714,69.714,0,0,0,341.45,2222.48Z" transform="translate(-179.525 -2130.503)" fill="none" stroke="#a66d58" stroke-miterlimit="10" stroke-width="4"/>
        <g id="Grupo_18422" data-name="Grupo 18422" transform="translate(16.241 51.468)">
          <path id="Trazado_40939" data-name="Trazado 40939" d="M358.381,2164.488a91.684,91.684,0,0,1-157.836,91.294,91.393,91.393,0,0,0,157.836-91.294Z" transform="translate(-200.545 -2164.488)" fill="#eceef0"/>
        </g>
      </g>
    </g>
    <g id="FKMLjy.tif" transform="translate(2083.525 7.932)">
      <g id="Grupo_77966" data-name="Grupo 77966" transform="translate(-2028.997 41.405)">
        <path id="Trazado_138576" data-name="Trazado 138576" d="M-1997.681,41.4c.422.207.865.38,1.262.626a4.212,4.212,0,0,1,2.1,3.643c.039,1.43.008,2.861.008,4.377h1c5.868,0,11.737.013,17.6-.009a4.952,4.952,0,0,1,3.716,1.514q4.714,4.742,9.457,9.455a4.757,4.757,0,0,1,1.439,3.569c-.021,7.335-.01,14.671-.01,22.007v1.02c1.187.215,2.335.354,3.446.636a20.144,20.144,0,0,1,15.184,17.118,1.6,1.6,0,0,0,.156.376v4.232a2.281,2.281,0,0,0-.16.464,20.147,20.147,0,0,1-18.557,17.6,19.838,19.838,0,0,1-17.627-8,1.4,1.4,0,0,0-1.256-.609c-9.42.015-18.84-.043-28.259.044a4.692,4.692,0,0,1-4.957-4.916c.1-8.629.034-17.26.034-25.89V87.628h-1.048c-3.469,0-6.938.012-10.407,0A4.273,4.273,0,0,1-2029,83.13q0-18.614,0-37.228a5.384,5.384,0,0,1,.113-1.17,4.643,4.643,0,0,1,3.265-3.326Zm-12.533,46.223v1.013q0,12.861,0,25.722c0,1.752.4,2.158,2.125,2.158q13.115,0,26.229,0c.3,0,.595-.025.984-.042-2.8-6.5-2.651-12.826.9-18.87s9.039-9.225,15.938-9.955V64.566h-.955c-1.946,0-3.892,0-5.838-.011a4.392,4.392,0,0,1-4.729-4.682c-.016-1.974-.029-3.949.022-5.922.019-.753-.166-1.008-.971-1-5.64.036-11.281.019-16.922.019h-.878v1.123c0,9.533-.053,19.066.034,28.6a4.666,4.666,0,0,1-4.984,4.972C-2002.861,87.522-2006.472,87.628-2010.214,87.628Zm65,20.309a17.4,17.4,0,0,0-17.34-17.415,17.4,17.4,0,0,0-17.33,17.166,17.4,17.4,0,0,0,17.249,17.507A17.422,17.422,0,0,0-1945.211,107.937Zm-80.9-43.513q0,9.1,0,18.193c0,1.676.443,2.13,2.084,2.13l24.962,0c1.31,0,1.84-.528,1.841-1.853q.006-18.277,0-36.554c0-1.6-.457-2.046-2.079-2.046h-24.708c-1.661,0-2.1.445-2.1,2.11Q-2026.117,55.412-2026.116,64.424Zm53.485-9.165c0,1.711-.028,3.391.014,5.07a1.158,1.158,0,0,0,1.091,1.21c1.73.065,3.464.022,5.154.022Z" transform="translate(2028.997 -41.405)" fill="#a66d58"/>
        <path id="Trazado_138577" data-name="Trazado 138577" d="M-1881.21,342.257c-3.3,0-6.6.008-9.895,0-1.182,0-1.959-.848-1.59-1.81a2.523,2.523,0,0,1,1.073-1.035,2.09,2.09,0,0,1,1-.079q9.387,0,18.775,0c.253,0,.509-.007.76.017a1.4,1.4,0,0,1,1.412,1.471,1.43,1.43,0,0,1-1.467,1.431c-1.127.035-2.255.011-3.383.012Z" transform="translate(1915.891 -288.778)" fill="#a66d58"/>
        <path id="Trazado_138578" data-name="Trazado 138578" d="M-1788.434,257.057c-2.988,0-5.975.012-8.963-.006-1.438-.008-2.23-1.1-1.615-2.178a1.633,1.633,0,0,1,1.584-.768q5.835.006,11.669,0c2.171,0,4.341,0,6.511.007a1.5,1.5,0,0,1,1.685,1.2c.18.986-.485,1.714-1.655,1.734-1.578.027-3.157.008-4.735.008Z" transform="translate(1838.198 -218.025)" fill="#a66d58"/>
        <path id="Trazado_138579" data-name="Trazado 138579" d="M-1788.36,214.535c-3.044,0-6.089.009-9.134,0-1.32-.006-2.078-1.065-1.544-2.12a1.5,1.5,0,0,1,1.466-.811q2.2-.005,4.4,0l13.278-.011c.141,0,.282,0,.423,0,1.267.013,1.959.535,1.955,1.475s-.69,1.465-1.962,1.466q-4.44,0-8.88,0Z" transform="translate(1838.188 -182.719)" fill="#a66d58"/>
        <path id="Trazado_138580" data-name="Trazado 138580" d="M-1788.375,299.784q-4.609,0-9.218,0a1.408,1.408,0,0,1-1.5-1.1,1.316,1.316,0,0,1,.666-1.579,1.776,1.776,0,0,1,.884-.2q9.217-.02,18.435-.013a1.46,1.46,0,0,1,1.64,1.424,1.441,1.441,0,0,1-1.6,1.457c-3.1.01-6.2,0-9.3,0Z" transform="translate(1838.143 -253.555)" fill="#a66d58"/>
        <path id="Trazado_138581" data-name="Trazado 138581" d="M-1882.7,381.876c2.735,0,5.469-.006,8.2.007a2.843,2.843,0,0,1,1.069.17,1.172,1.172,0,0,1,.8,1.414,2.757,2.757,0,0,1-.968,1.232c-.245.189-.7.132-1.067.132q-7.992.01-15.984,0c-1.455,0-2.216-.537-2.182-1.527.033-.969.738-1.432,2.18-1.432Z" transform="translate(1915.93 -324.124)" fill="#a66d58"/>
        <path id="Trazado_138582" data-name="Trazado 138582" d="M-1883.354,427.552c-2.619,0-5.238.007-7.856-.006a1.4,1.4,0,0,1-1.517-1.273,1.377,1.377,0,0,1,.95-1.518,2.133,2.133,0,0,1,.747-.08q7.688-.006,15.375,0c1.047,0,1.716.575,1.712,1.444s-.665,1.431-1.723,1.434C-1878.229,427.558-1880.792,427.553-1883.354,427.552Z" transform="translate(1915.849 -359.661)" fill="#a66d58"/>
        <path id="Trazado_138583" data-name="Trazado 138583" d="M-1671.276,352.646v8.383a7.588,7.588,0,0,1,4.262,2.709,7.22,7.22,0,0,1-3.493,11.3,1.165,1.165,0,0,0-.913.8,1.994,1.994,0,0,1-1.3.966,1.164,1.164,0,0,1-1.377-.977c-.114-.531-.389-.64-.812-.776a7.176,7.176,0,0,1-5.05-6.689,1.47,1.47,0,0,1,1.4-1.662c.855-.022,1.418.579,1.488,1.588a4.043,4.043,0,0,0,2.844,3.79v-8.352a7.234,7.234,0,0,1-5.518-5.3,7.172,7.172,0,0,1,4.876-8.742c.407-.129.64-.244.748-.726a1.311,1.311,0,0,1,1.375-1.038,1.312,1.312,0,0,1,1.368,1.046c.1.494.352.6.751.727a7.154,7.154,0,0,1,5.093,6.653c.007,1.032-.485,1.652-1.352,1.7-.9.052-1.48-.557-1.548-1.612A4.129,4.129,0,0,0-1671.276,352.646Zm-.029,11.555v7.9a4.123,4.123,0,0,0,2.878-3.919A4.129,4.129,0,0,0-1671.3,364.2Zm-2.927-11.531a4.143,4.143,0,0,0-2.833,4.223c.133,1.728,1.465,3.413,2.833,3.6Z" transform="translate(1739.194 -295.926)" fill="#a66d58"/>
        <path id="Trazado_138584" data-name="Trazado 138584" d="M-1983.475,75.382q4.187,0,8.374,0a2.935,2.935,0,0,1,3.192,3.139q.019,5.54,0,11.081a2.944,2.944,0,0,1-3.106,3.157q-8.5.032-17,0a2.916,2.916,0,0,1-3.053-3.11q-.008-5.583.007-11.165a2.9,2.9,0,0,1,3.129-3.1C-1989.114,75.377-1986.295,75.382-1983.475,75.382Zm8.569,2.954H-1992.1V89.742h17.195Z" transform="translate(2000.827 -69.618)" fill="#a66d58"/>
        <path id="Trazado_138585" data-name="Trazado 138585" d="M-1992.131,197.447c-.477,0-.956.031-1.43-.007a1.476,1.476,0,0,1-1.439-1.468,1.4,1.4,0,0,1,1.366-1.429,25.4,25.4,0,0,1,3.026,0,1.378,1.378,0,0,1,1.381,1.49,1.431,1.431,0,0,1-1.474,1.415c-.475.03-.954.005-1.431.005Z" transform="translate(2000.767 -168.529)" fill="#a66d58"/>
        <path id="Trazado_138586" data-name="Trazado 138586" d="M-1941.133,197.407c-.449,0-.9.022-1.348,0a1.532,1.532,0,0,1-1.55-1.466,1.453,1.453,0,0,1,1.453-1.457,26.492,26.492,0,0,1,2.947.013,1.438,1.438,0,0,1,1.421,1.479,1.5,1.5,0,0,1-1.49,1.43C-1940.176,197.433-1940.655,197.407-1941.133,197.407Z" transform="translate(1958.443 -168.486)" fill="#a66d58"/>
        <path id="Trazado_138587" data-name="Trazado 138587" d="M-1889.987,197.436c-.45,0-.9.025-1.349-.005A1.5,1.5,0,0,1-1892.83,196a1.434,1.434,0,0,1,1.418-1.481,26.462,26.462,0,0,1,2.948,0,1.443,1.443,0,0,1,1.457,1.451,1.526,1.526,0,0,1-1.547,1.47c-.476.027-.955,0-1.433,0Z" transform="translate(1915.928 -168.516)" fill="#a66d58"/>
        <path id="Trazado_138588" data-name="Trazado 138588" d="M-1890.014,231.6c-.449,0-.9.018-1.348,0a1.486,1.486,0,0,1-1.525-1.474,1.443,1.443,0,0,1,1.471-1.425c.982-.034,1.967-.029,2.948.016a1.427,1.427,0,0,1,1.405,1.4,1.489,1.489,0,0,1-1.434,1.479c-.5.034-1.011.006-1.517.006Z" transform="translate(1915.974 -196.909)" fill="#a66d58"/>
        <path id="Trazado_138589" data-name="Trazado 138589" d="M-1890,265.713c-.451,0-.9.016-1.354,0a1.462,1.462,0,0,1-1.485-1.424,1.431,1.431,0,0,1,1.448-1.448c.958-.029,1.918-.027,2.876,0a1.451,1.451,0,0,1,1.492,1.412,1.494,1.494,0,0,1-1.539,1.464C-1889.036,265.726-1889.516,265.713-1890,265.713Z" transform="translate(1915.931 -225.259)" fill="#a66d58"/>
        <path id="Trazado_138590" data-name="Trazado 138590" d="M-1992.1,231.6c-.477,0-.955.021-1.431,0a1.471,1.471,0,0,1-1.473-1.428,1.391,1.391,0,0,1,1.409-1.464c.98-.045,1.965-.05,2.945-.012a1.381,1.381,0,0,1,1.42,1.448,1.428,1.428,0,0,1-1.439,1.447c-.475.028-.954.005-1.431.005Z" transform="translate(2000.771 -196.903)" fill="#a66d58"/>
        <path id="Trazado_138591" data-name="Trazado 138591" d="M-1941.145,231.625c-.451,0-.9.021-1.354,0a1.5,1.5,0,0,1-1.491-1.437,1.44,1.44,0,0,1,1.453-1.45c.986-.037,1.975-.037,2.961,0a1.413,1.413,0,0,1,1.4,1.409,1.465,1.465,0,0,1-1.445,1.472C-1940.127,231.65-1940.636,231.624-1941.145,231.625Z" transform="translate(1958.409 -196.936)" fill="#a66d58"/>
        <path id="Trazado_138592" data-name="Trazado 138592" d="M-1941.08,265.7c-.477,0-.955.017-1.432,0a1.487,1.487,0,0,1-1.479-1.427,1.443,1.443,0,0,1,1.437-1.451c.982-.032,1.966-.037,2.947-.008a1.428,1.428,0,0,1,1.432,1.453,1.458,1.458,0,0,1-1.473,1.425c-.476.021-.954,0-1.432,0Z" transform="translate(1958.41 -225.239)" fill="#a66d58"/>
        <path id="Trazado_138593" data-name="Trazado 138593" d="M-1992.175,265.712c-.451,0-.9.016-1.353,0a1.456,1.456,0,0,1-1.478-1.426,1.4,1.4,0,0,1,1.439-1.446c.986-.03,1.974-.032,2.96,0a1.352,1.352,0,0,1,1.377,1.405,1.4,1.4,0,0,1-1.422,1.461C-1991.159,265.732-1991.668,265.712-1992.175,265.712Z" transform="translate(2000.772 -225.259)" fill="#a66d58"/>
      </g>
    </g>
  </g>
</svg>
