<svg xmlns="http://www.w3.org/2000/svg" xmlns:xlink="http://www.w3.org/1999/xlink" width="494.239" height="490" viewBox="0 0 494.239 490">
  <defs>
    <clipPath id="clip-path">
      <path id="SVGID" d="M-6264.425,14333.9a2.3,2.3,0,0,1-.485.819c-3.5,3.312-18.424,6.984-31.246,9.63-10.621,2.205-19.757,3.7-19.757,3.7s-7.034-58.454-7.034-64.6-11.342-105.624-11.342-105.624l27.186-1.176,36.067-1.562s.218,2.658.583,7.3C-6268.072,14211.963-6259.892,14322.231-6264.425,14333.9Z" transform="translate(6334.29 -14175.085)" fill="none" opacity="0"/>
    </clipPath>
    <clipPath id="clip-path-2">
      <path id="SVGID-2" data-name="SVGID" d="M-6288.479,14167.424l72.433,19.105s-25.457,77.264-30.625,86.846l-8.633,67.354s-46.272-2.035-67.553-8.467c0,0,13.457-70.139,14.176-79.494S-6288.479,14167.424-6288.479,14167.424Z" transform="translate(6322.856 -14167.424)" fill="none" opacity="0"/>
    </clipPath>
  </defs>
  <g id="Grupo_92228" data-name="Grupo 92228" transform="translate(6496.846 -14104.429)">
    <rect id="Rectángulo_33077" data-name="Rectángulo 33077" width="490" height="490" transform="translate(-6492.607 14104.429)" fill="#aed3f2" opacity="0"/>
    <g id="Grupo_92227" data-name="Grupo 92227" transform="translate(-6465.793 14152.236)">
      <g id="freepik--background-simple--inject-80">
        <path id="Trazado_147146" data-name="Trazado 147146" d="M-6050.254,14428.23c9.255-81.611-35.552-190.065-82.009-234.852-83.856-80.859-153.531-65.227-207.713-36.275s-61.928,125.657-99.351,169.4-58.7,102.582-1.932,161.162,102.57,28.812,161.922,25.09,138.086,25.534,180.623.105C-6068.977,14495.119-6054.338,14464.345-6050.254,14428.23Z" transform="translate(6476.137 -14133.689)" fill="#aed3f2"/>
      </g>
      <g id="Grupo_92226" data-name="Grupo 92226" transform="translate(31.996 3.481)">
        <circle id="Elipse_4343" data-name="Elipse 4343" cx="181.933" cy="181.933" r="181.933" transform="translate(14.371 10.106)" fill="#aed3f2" stroke="#aed3f2" stroke-miterlimit="10" stroke-width="5"/>
        <g id="freepik--hand-1--inject-2">
          <path id="Trazado_147147" data-name="Trazado 147147" d="M-6333,14289.109s-22.662-24.957-24.223-26.486-2.736-28.145-7.045-39.861-6.391-80.512-6.391-80.512-4.1-5.078-15.658-2.344-22.888-2.35-35.78,5.08,12.111,113.686,12.111,113.686l25.377,80.879Z" transform="translate(6476.053 -14133.743)" fill="rgba(52,65,84,0.7)" opacity="0.2" style="isolation: isolate"/>
          <path id="Trazado_147148" data-name="Trazado 147148" d="M-6297.928,14291.373s-10.155,64.876-20.746,73.468c-6.112,4.942-15.646,7.212-24.1,6.916-6.125-.217-11.7-1.757-14.977-4.555-7.814-6.648-18.769-10.165-24.224-14.462s-5.472-19.54-8.989-32.442-8.6-13.287-9.771-26.179-5.867-52.357-14.363-63.313-8.693-19.54-12.21-30.685-29.242-51.459-29.242-51.459l62.711-12.841s6.164,25.518,12.764,46.331c3.131,9.877,6.361,18.711,9.068,23.235a194.438,194.438,0,0,1,13.464,27.353c7.094,7.431,10.975,23.888,12.152,38.3h0l16.794,9.364C-6316.687,14283.934-6297.928,14291.373-6297.928,14291.373Z" transform="translate(6456.553 -14135.821)" fill="#ffbf9d"/>
          <path id="Trazado_147149" data-name="Trazado 147149" d="M-6326.857,14273.393s-10.155,64.876-20.746,73.468c-6.113,4.942-15.646,7.212-24.1,6.916-20.054-4.939-25.448-16.122-28.164-18.828-3.616-3.606-8.368-25.579-5.76-38.361s.73-17.513-1.423-23.758c-4.772-13.83,9.78-21.277,11.281-26.516s.988-34.516-5.561-44.04c-3.477-5.065-12.439-31.187-8.665-38.081,3.132,9.877,6.362,18.709,9.07,23.233a194.413,194.413,0,0,1,13.463,27.355c7.094,7.428,10.976,23.887,12.152,38.3h0l16.794,9.366C-6345.616,14265.953-6326.857,14273.393-6326.857,14273.393Z" transform="translate(6485.482 -14117.84)" fill="#d9a171" opacity="0.4" style="isolation: isolate"/>
          <path id="Trazado_147150" data-name="Trazado 147150" d="M-6403.752,14228.235s-3.538,4.159-6.659,4.159" transform="translate(6485.797 -14077.246)" fill="none" stroke="#263238" stroke-linecap="round" stroke-linejoin="round" stroke-width="1" opacity="0"/>
          <path id="Trazado_147151" data-name="Trazado 147151" d="M-6397.794,14236.841s-3.8,8.082-9.877,9.878" transform="translate(6487.533 -14071.794)" fill="none" stroke="#263238" stroke-linecap="round" stroke-linejoin="round" stroke-width="1" opacity="0"/>
          <path id="Trazado_147152" data-name="Trazado 147152" d="M-6405.761,14269.7s8.6-3.716,9.968-9.969" transform="translate(6488.744 -14057.291)" fill="none" stroke="#263238" stroke-linecap="round" stroke-linejoin="round" stroke-width="1" opacity="0"/>
          <path id="Trazado_147153" data-name="Trazado 147153" d="M-6378,14224.324s-2.153,2.737-2.153,4.938" transform="translate(6504.974 -14079.728)" fill="none" stroke="#263238" stroke-linecap="round" stroke-linejoin="round" stroke-width="1" opacity="0"/>
          <path id="Trazado_147154" data-name="Trazado 147154" d="M-6393.8,14135.821s13.415,55.489,21.832,69.6a194.547,194.547,0,0,1,13.466,27.356c7.092,7.429,10.974,23.9,12.151,38.309h0l16.792,9.364c12.893,3.52,31.613,10.948,31.613,10.948s-10.155,64.874-20.745,73.466-31.168,8.953-39.071,2.313-18.769-10.166-24.223-14.463-5.473-19.54-8.989-32.442-8.605-13.287-9.772-26.177-5.866-52.358-14.362-63.314-8.694-19.54-12.212-30.685-29.231-51.439-29.231-51.439" transform="translate(6456.553 -14135.821)" fill="none" stroke="#263238" stroke-linecap="round" stroke-linejoin="round" stroke-width="1" opacity="0"/>
          <path id="Trazado_147155" data-name="Trazado 147155" d="M-6304.685,14229.912l-9.583,162.754-94.136-3.092,7.429-124.711,2.312-38.725,41.017,1.648Z" transform="translate(6487.069 -14078.578)" fill="none" stroke="#263238" stroke-linecap="round" stroke-linejoin="round" stroke-width="1" opacity="0"/>
          <g id="Grupo_92219" data-name="Grupo 92219" transform="translate(63.387 136.139)">
            <g id="Grupo_92197" data-name="Grupo 92197">
              <g id="Grupo_92194" data-name="Grupo 92194" transform="translate(0 0.198)">
                <path id="Trazado_147156" data-name="Trazado 147156" d="M-6417.755,14236.227l23.519,244.383,181.955-17.138-26.239-244.2Z" transform="translate(6417.755 -14219.27)" fill="#fff"/>
              </g>
              <g id="Grupo_92196" data-name="Grupo 92196">
                <g id="Grupo_92195" data-name="Grupo 92195">
                  <path id="Trazado_147157" data-name="Trazado 147157" d="M-6417.755,14236.3c1.5-.144,70.587-6.752,179.216-17.138l.181-.017.019.179c7.377,68.551,16.464,152.991,26.28,244.193l.024.228-.226.021c-.407.04-.848.079-1.29.123-64.874,6.1-126.351,11.887-180.668,16.994l-.2.021-.019-.2c-13.806-144.7-23.147-242.621-23.317-244.4l23.721,244.362-.221-.181c54.316-5.124,115.791-10.921,180.664-17.041l1.289-.121-.2.247c-9.785-91.206-18.844-175.647-26.2-244.2l.2.162Z" transform="translate(6417.755 -14219.148)" fill="#344154"/>
                </g>
              </g>
            </g>
            <g id="Grupo_92206" data-name="Grupo 92206" transform="translate(139.543 175.744)">
              <g id="Grupo_92199" data-name="Grupo 92199">
                <g id="Grupo_92198" data-name="Grupo 92198">
                  <path id="Trazado_147158" data-name="Trazado 147158" d="M-6332.346,14353.471a26.849,26.849,0,0,1,26.883-26.754,26.849,26.849,0,0,1,26.756,26.882,26.85,26.85,0,0,1-26.882,26.755A26.849,26.849,0,0,1-6332.346,14353.471Zm53.146.126a26.359,26.359,0,0,0-26.265-26.39,26.357,26.357,0,0,0-26.387,26.266,26.355,26.355,0,0,0,26.264,26.388A26.357,26.357,0,0,0-6279.2,14353.6Z" transform="translate(6332.346 -14326.717)" fill="#839eb6"/>
                </g>
              </g>
              <g id="Grupo_92201" data-name="Grupo 92201" transform="translate(3.059 3.429)">
                <g id="Grupo_92200" data-name="Grupo 92200">
                  <path id="Trazado_147159" data-name="Trazado 147159" d="M-6330.473,14352.149a23.414,23.414,0,0,1,23.445-23.335,23.416,23.416,0,0,1,23.336,23.444,23.419,23.419,0,0,1-23.445,23.337A23.417,23.417,0,0,1-6330.473,14352.149Zm43.33.1a19.959,19.959,0,0,0-19.893-19.986,19.961,19.961,0,0,0-19.986,19.893,19.959,19.959,0,0,0,19.893,19.986A19.96,19.96,0,0,0-6287.143,14352.251Z" transform="translate(6330.473 -14328.814)" fill="#839eb6"/>
                </g>
              </g>
              <g id="Grupo_92203" data-name="Grupo 92203" transform="translate(8.814 19.347)">
                <g id="Grupo_92202" data-name="Grupo 92202">
                  <path id="Trazado_147160" data-name="Trazado 147160" d="M-6326.95,14346.317a17.142,17.142,0,0,1,1.855-7.759l3.078,1.559a13.7,13.7,0,0,0-1.481,6.211,13.866,13.866,0,0,0,13.82,13.883,13.8,13.8,0,0,0,7.251-2.025l1.8,2.943a17.262,17.262,0,0,1-9.06,2.533A17.322,17.322,0,0,1-6326.95,14346.317Z" transform="translate(6326.95 -14338.559)" fill="#839eb6"/>
                </g>
              </g>
              <g id="Grupo_92205" data-name="Grupo 92205" transform="translate(18.132 9.843)">
                <g id="Grupo_92204" data-name="Grupo 92204">
                  <path id="Trazado_147161" data-name="Trazado 147161" d="M-6321.247,14334.688a17.385,17.385,0,0,1,8.027-1.948,17.326,17.326,0,0,1,17.264,17.348,17.274,17.274,0,0,1-2.658,9.178l-2.92-1.843a13.8,13.8,0,0,0,2.128-7.346,13.874,13.874,0,0,0-13.822-13.887,13.732,13.732,0,0,0-6.424,1.559Z" transform="translate(6321.247 -14332.739)" fill="#839eb6"/>
                </g>
              </g>
            </g>
            <g id="Grupo_92208" data-name="Grupo 92208" transform="translate(20.859 61.138)">
              <g id="Grupo_92207" data-name="Grupo 92207">
                <path id="Trazado_147162" data-name="Trazado 147162" d="M-6334.169,14256.576c.011.125-15.835,1.721-35.388,3.567s-35.421,3.245-35.432,3.119,15.83-1.717,35.391-3.565S-6334.181,14256.454-6334.169,14256.576Z" transform="translate(6404.989 -14256.568)" fill="#344154"/>
              </g>
            </g>
            <g id="Grupo_92210" data-name="Grupo 92210" transform="translate(39.333 224.254)">
              <g id="Grupo_92209" data-name="Grupo 92209">
                <path id="Trazado_147163" data-name="Trazado 147163" d="M-6338.032,14356.418c.012.124-12.44,1.281-27.8,2.587s-27.833,2.262-27.845,2.139,12.438-1.279,27.808-2.587S-6338.042,14356.295-6338.032,14356.418Z" transform="translate(6393.682 -14356.407)" fill="#d9a171"/>
              </g>
            </g>
            <g id="Grupo_92212" data-name="Grupo 92212" transform="translate(39.832 233.755)">
              <g id="Grupo_92211" data-name="Grupo 92211">
                <path id="Trazado_147164" data-name="Trazado 147164" d="M-6362.137,14362.242c.009.121-6.975.816-15.6,1.549s-15.627,1.224-15.638,1.1,6.974-.817,15.6-1.549S-6362.149,14362.118-6362.137,14362.242Z" transform="translate(6393.376 -14362.224)" fill="#d9a171"/>
              </g>
            </g>
            <g id="Grupo_92214" data-name="Grupo 92214" transform="translate(32.401 163.679)">
              <g id="Grupo_92213" data-name="Grupo 92213">
                <path id="Trazado_147165" data-name="Trazado 147165" d="M-6361.172,14319.345c.012.124-8.207,1.034-18.354,2.033s-18.387,1.713-18.4,1.588,8.2-1.032,18.354-2.031S-6361.184,14319.222-6361.172,14319.345Z" transform="translate(6397.923 -14319.331)" fill="#d9a171"/>
              </g>
            </g>
            <g id="Grupo_92215" data-name="Grupo 92215" transform="translate(19.195 202.879)" opacity="0.3">
              <path id="Trazado_147166" data-name="Trazado 147166" d="M-6405.432,14360.635l16.7-3.229,9.339-14.082-26.617,8.742Z" transform="translate(6406.007 -14343.324)" fill="#d9a171"/>
            </g>
            <g id="Grupo_92217" data-name="Grupo 92217" transform="translate(44.097 203.707)">
              <g id="Grupo_92216" data-name="Grupo 92216">
                <path id="Trazado_147167" data-name="Trazado 147167" d="M-6319.174,14343.832a1.231,1.231,0,0,1,.154.051,2.018,2.018,0,0,1,.435.2,6.2,6.2,0,0,1,1.434,1.215,20.489,20.489,0,0,1,3.613,6.23,26.087,26.087,0,0,1,1.874,11.22,16.758,16.758,0,0,1-.609,3.42,22.78,22.78,0,0,1-1.37,3.436,22.994,22.994,0,0,1-4.762,6.432,23.783,23.783,0,0,1-7.367,4.82,20.2,20.2,0,0,1-9.41,1.481,20.647,20.647,0,0,1-16.524-11.8,16.815,16.815,0,0,1-1.495-5.462,12.83,12.83,0,0,1,.6-5.763,9.261,9.261,0,0,1,3.432-4.811,6.679,6.679,0,0,1,2.861-1.07,6.843,6.843,0,0,1,3.061.358,9.031,9.031,0,0,1,4.715,3.912,14.487,14.487,0,0,1,1.869,5.958,26,26,0,0,1-1.834,12.513,24.622,24.622,0,0,1-7.56,10.125,22.694,22.694,0,0,1-11.377,4.576,21.346,21.346,0,0,1-11.679-1.9,19.947,19.947,0,0,1-8.308-7.717,19.371,19.371,0,0,1-2.811-10.423,14.157,14.157,0,0,1,1-5.13,10.188,10.188,0,0,1,2.94-4.125,6.068,6.068,0,0,1,4.66-1.38,6.98,6.98,0,0,1,4.111,2.288,8.771,8.771,0,0,1,2.064,4.034,11.413,11.413,0,0,1-.007,4.337,22.539,22.539,0,0,1-3.059,7.4,35.645,35.645,0,0,1-4.294,5.709,38.793,38.793,0,0,1-4.573,4.212,39.125,39.125,0,0,1-4.351,2.893,33.393,33.393,0,0,1-6.6,2.914c-1.574.5-2.425.676-2.425.676s.2-.075.61-.2,1.014-.273,1.787-.565a34.464,34.464,0,0,0,6.543-2.978,39.726,39.726,0,0,0,4.307-2.911,38.709,38.709,0,0,0,4.518-4.212,35.564,35.564,0,0,0,4.235-5.687,22.248,22.248,0,0,0,2.991-7.308,11.023,11.023,0,0,0-.007-4.212,8.425,8.425,0,0,0-1.993-3.869,6.637,6.637,0,0,0-3.9-2.165,5.715,5.715,0,0,0-4.382,1.312,9.812,9.812,0,0,0-2.816,3.98,13.757,13.757,0,0,0-.963,5,18.984,18.984,0,0,0,2.772,10.2,19.533,19.533,0,0,0,8.139,7.542,20.918,20.918,0,0,0,11.442,1.851,22.283,22.283,0,0,0,11.155-4.492,24.184,24.184,0,0,0,7.417-9.944,25.606,25.606,0,0,0,1.808-12.291,14.069,14.069,0,0,0-1.807-5.779,8.591,8.591,0,0,0-4.479-3.726,6.413,6.413,0,0,0-2.865-.341,6.2,6.2,0,0,0-2.67,1,8.843,8.843,0,0,0-3.271,4.587,12.406,12.406,0,0,0-.587,5.582,16.47,16.47,0,0,0,1.453,5.335,20.267,20.267,0,0,0,16.181,11.6,19.845,19.845,0,0,0,9.247-1.429,23.547,23.547,0,0,0,7.279-4.729,22.763,22.763,0,0,0,4.728-6.33,22.847,22.847,0,0,0,1.367-3.383,16.621,16.621,0,0,0,.616-3.363,26.068,26.068,0,0,0-1.788-11.138,20.887,20.887,0,0,0-3.517-6.235,6.5,6.5,0,0,0-1.393-1.234A6.063,6.063,0,0,0-6319.174,14343.832Z" transform="translate(6390.765 -14343.832)" fill="#d9a171"/>
              </g>
            </g>
            <g id="Grupo_92218" data-name="Grupo 92218" transform="translate(30.913 74.622)">
              <rect id="Rectángulo_33078" data-name="Rectángulo 33078" width="129.615" height="9.97" transform="translate(2.647 31.545) rotate(-5.512)" fill="#ffbf9d"/>
              <rect id="Rectángulo_33079" data-name="Rectángulo 33079" width="129.615" height="9.97" transform="translate(1.689 21.621) rotate(-5.512)" fill="#d9a171"/>
              <rect id="Rectángulo_33080" data-name="Rectángulo 33080" width="129.615" height="9.97" transform="translate(3.603 41.457) rotate(-5.512)" fill="#dbdbdb"/>
              <rect id="Rectángulo_33081" data-name="Rectángulo 33081" width="129.615" height="9.97" transform="translate(4.561 51.381) rotate(-5.512)" fill="#ffbf9d"/>
              <rect id="Rectángulo_33082" data-name="Rectángulo 33082" width="129.615" height="9.97" transform="translate(5.519 61.305) rotate(-5.512)" fill="#dbdbdb"/>
              <rect id="Rectángulo_33083" data-name="Rectángulo 33083" width="129.615" height="9.97" transform="translate(6.475 71.218) rotate(-5.512)" fill="#ffbf9d"/>
              <rect id="Rectángulo_33084" data-name="Rectángulo 33084" width="129.615" height="9.97" transform="translate(7.433 81.142) rotate(-5.512)" fill="#dbdbdb"/>
              <rect id="Rectángulo_33085" data-name="Rectángulo 33085" width="90.755" height="9.97" transform="translate(47.072 87.333) rotate(-5.512)" fill="#d9a171"/>
              <rect id="Rectángulo_33086" data-name="Rectángulo 33086" width="38.86" height="69.767" transform="translate(1.689 21.622) rotate(-5.512)" fill="#c7c7c7"/>
              <path id="Trazado_147168" data-name="Trazado 147168" d="M-6396.628,14295.028l64.5-6.347,64.52-6.105-64.5,6.357Z" transform="translate(6400.232 -14253.569)" fill="#344154"/>
              <path id="Trazado_147169" data-name="Trazado 147169" d="M-6396.043,14301.1l64.5-6.344,64.518-6.105-64.495,6.355Z" transform="translate(6400.604 -14249.719)" fill="#344154"/>
              <path id="Trazado_147170" data-name="Trazado 147170" d="M-6395.457,14307.175l64.495-6.355,64.521-6.095-64.5,6.347Z" transform="translate(6400.976 -14245.869)" fill="#344154"/>
              <path id="Trazado_147171" data-name="Trazado 147171" d="M-6394.872,14313.241l64.5-6.345,64.519-6.1-64.495,6.354Z" transform="translate(6401.347 -14242.024)" fill="#344154"/>
              <path id="Trazado_147172" data-name="Trazado 147172" d="M-6394.285,14319.315l64.5-6.345,64.521-6.105-64.5,6.356Z" transform="translate(6401.718 -14238.173)" fill="#344154"/>
              <path id="Trazado_147173" data-name="Trazado 147173" d="M-6393.7,14325.391l64.5-6.356,64.52-6.094-64.5,6.347Z" transform="translate(6402.09 -14234.325)" fill="#344154"/>
              <path id="Trazado_147174" data-name="Trazado 147174" d="M-6393.277,14281.593c4.093-.6,8.215-1.014,12.326-1.441s8.24-.794,12.388-.942c-4.1.608-8.217,1.016-12.339,1.443S-6389.141,14281.429-6393.277,14281.593Z" transform="translate(6402.356 -14255.703)" fill="#344154"/>
              <path id="Trazado_147175" data-name="Trazado 147175" d="M-6392.69,14287.455c3.091-.509,6.21-.823,9.317-1.153s6.232-.6,9.376-.65c-3.1.513-6.209.822-9.327,1.153S-6389.558,14287.366-6392.69,14287.455Z" transform="translate(6402.728 -14251.621)" fill="#344154"/>
              <path id="Trazado_147176" data-name="Trazado 147176" d="M-6392.1,14293.754c4.093-.608,8.216-1.016,12.328-1.443s8.236-.794,12.385-.94c-4.1.606-8.215,1.016-12.336,1.443S-6387.973,14293.558-6392.1,14293.754Z" transform="translate(6403.101 -14247.996)" fill="#344154"/>
              <path id="Trazado_147177" data-name="Trazado 147177" d="M-6391.519,14299.658c3.363-.526,6.752-.875,10.141-1.234s6.781-.652,10.2-.728c-3.37.537-6.762.876-10.151,1.23S-6388.117,14299.543-6391.519,14299.658Z" transform="translate(6403.471 -14243.987)" fill="#344154"/>
              <path id="Trazado_147178" data-name="Trazado 147178" d="M-6390.933,14305.895c4.1-.607,8.217-1.016,12.329-1.443s8.238-.794,12.386-.94c-4.1.608-8.216,1.016-12.338,1.441S-6386.8,14305.71-6390.933,14305.895Z" transform="translate(6403.843 -14240.3)" fill="#344154"/>
              <path id="Trazado_147179" data-name="Trazado 147179" d="M-6390.345,14311.971c4.092-.608,8.216-1.018,12.327-1.443s8.238-.8,12.385-.943c-4.1.61-8.216,1.016-12.338,1.443S-6386.213,14311.773-6390.345,14311.971Z" transform="translate(6404.214 -14236.451)" fill="#344154"/>
              <path id="Trazado_147180" data-name="Trazado 147180" d="M-6389.761,14317.676c2.481-.432,5-.727,7.473-.977s5.021-.422,7.529-.473c-2.48.441-4.995.725-7.481.977S-6387.243,14317.635-6389.761,14317.676Z" transform="translate(6404.585 -14232.243)" fill="#344154"/>
              <path id="Trazado_147181" data-name="Trazado 147181" d="M-6368.3,14278.954c3.07-.5,6.169-.819,9.257-1.147s6.2-.6,9.314-.645c-3.07.509-6.169.816-9.267,1.147S-6365.168,14278.885-6368.3,14278.954Z" transform="translate(6418.188 -14257.002)" fill="#344154"/>
              <path id="Trazado_147182" data-name="Trazado 147182" d="M-6367.712,14285.039c3.07-.507,6.169-.818,9.257-1.146s6.2-.6,9.315-.646c-3.07.509-6.17.819-9.267,1.149S-6364.582,14284.95-6367.712,14285.039Z" transform="translate(6418.56 -14253.144)" fill="#344154"/>
              <path id="Trazado_147183" data-name="Trazado 147183" d="M-6367.126,14291.113c3.07-.506,6.169-.818,9.257-1.146s6.2-.6,9.316-.645c-3.071.508-6.17.818-9.267,1.146S-6364,14291.014-6367.126,14291.113Z" transform="translate(6418.931 -14249.294)" fill="#344154"/>
              <path id="Trazado_147184" data-name="Trazado 147184" d="M-6366.541,14297.183c3.07-.5,6.169-.819,9.257-1.147s6.2-.6,9.315-.646c-3.071.509-6.17.818-9.268,1.146S-6363.41,14297.091-6366.541,14297.183Z" transform="translate(6419.302 -14245.447)" fill="#344154"/>
              <path id="Trazado_147185" data-name="Trazado 147185" d="M-6365.955,14303.255c3.07-.509,6.169-.819,9.257-1.146s6.2-.6,9.316-.646c-3.072.509-6.171.819-9.269,1.147S-6362.824,14303.165-6365.955,14303.255Z" transform="translate(6419.673 -14241.598)" fill="#344154"/>
              <path id="Trazado_147186" data-name="Trazado 147186" d="M-6365.37,14309.329c3.07-.509,6.17-.818,9.257-1.147s6.2-.6,9.316-.645c-3.07.509-6.169.819-9.266,1.147S-6362.239,14309.229-6365.37,14309.329Z" transform="translate(6420.046 -14237.749)" fill="#344154"/>
              <path id="Trazado_147187" data-name="Trazado 147187" d="M-6364.784,14315.4c3.073-.5,6.172-.816,9.257-1.147s6.2-.6,9.316-.645c-3.07.509-6.169.817-9.267,1.147S-6361.652,14315.308-6364.784,14315.4Z" transform="translate(6420.416 -14233.901)" fill="#344154"/>
              <path id="Trazado_147188" data-name="Trazado 147188" d="M-6351.872,14277.368c3.082-.5,6.169-.818,9.266-1.149s6.19-.594,9.307-.643c-3.07.507-6.169.817-9.257,1.146S-6348.749,14277.3-6351.872,14277.368Z" transform="translate(6428.6 -14258.005)" fill="#344154"/>
              <path id="Trazado_147189" data-name="Trazado 147189" d="M-6344.455,14312.98a17.722,17.722,0,0,1,5.928-.573A17.666,17.666,0,0,1-6344.455,14312.98Z" transform="translate(6433.3 -14234.69)" fill="#344154"/>
              <path id="Trazado_147190" data-name="Trazado 147190" d="M-6345.041,14306.912a17.69,17.69,0,0,1,5.931-.571A17.838,17.838,0,0,1-6345.041,14306.912Z" transform="translate(6432.929 -14238.535)" fill="#344154"/>
              <path id="Trazado_147191" data-name="Trazado 147191" d="M-6345.627,14300.843a16.613,16.613,0,0,1,2.987-.541,15.542,15.542,0,0,1,2.984-.034,17.7,17.7,0,0,1-5.929.571Z" transform="translate(6432.558 -14242.391)" fill="#344154"/>
              <path id="Trazado_147192" data-name="Trazado 147192" d="M-6346.212,14294.766a17.776,17.776,0,0,1,5.929-.574A17.725,17.725,0,0,1-6346.212,14294.766Z" transform="translate(6432.186 -14246.235)" fill="#344154"/>
              <path id="Trazado_147193" data-name="Trazado 147193" d="M-6346.8,14288.7a17.632,17.632,0,0,1,5.931-.572A17.789,17.789,0,0,1-6346.8,14288.7Z" transform="translate(6431.815 -14250.083)" fill="#344154"/>
              <path id="Trazado_147194" data-name="Trazado 147194" d="M-6347.385,14282.627a16.573,16.573,0,0,1,2.986-.542,15.783,15.783,0,0,1,2.984-.034,15.667,15.667,0,0,1-2.936.537A16.658,16.658,0,0,1-6347.385,14282.627Z" transform="translate(6431.444 -14253.935)" fill="#344154"/>
              <path id="Trazado_147195" data-name="Trazado 147195" d="M-6342.819,14319.1a51.2,51.2,0,0,1,5.213-.756,49.243,49.243,0,0,1,5.272-.256A54.866,54.866,0,0,1-6342.819,14319.1Z" transform="translate(6434.337 -14231.058)" fill="#344154"/>
              <path id="Trazado_147196" data-name="Trazado 147196" d="M-6335.444,14275.782c3.081-.5,6.17-.819,9.269-1.147s6.19-.6,9.3-.645c-3.07.509-6.169.819-9.257,1.147S-6332.32,14275.713-6335.444,14275.782Z" transform="translate(6439.012 -14259.01)" fill="#344154"/>
              <path id="Trazado_147197" data-name="Trazado 147197" d="M-6334.855,14281.869c3.079-.509,6.169-.817,9.266-1.147s6.19-.6,9.307-.645c-3.071.509-6.172.818-9.257,1.146S-6331.734,14281.781-6334.855,14281.869Z" transform="translate(6439.383 -14255.154)" fill="#344154"/>
              <path id="Trazado_147198" data-name="Trazado 147198" d="M-6334.27,14287.942c3.08-.511,6.169-.817,9.267-1.147s6.191-.6,9.307-.645c-3.07.509-6.17.818-9.257,1.146S-6331.15,14287.845-6334.27,14287.942Z" transform="translate(6439.756 -14251.304)" fill="#344154"/>
              <path id="Trazado_147199" data-name="Trazado 147199" d="M-6333.686,14294.011c3.082-.5,6.171-.819,9.269-1.147s6.19-.6,9.305-.645c-3.07.509-6.169.816-9.257,1.147S-6330.563,14293.921-6333.686,14294.011Z" transform="translate(6440.127 -14247.459)" fill="#344154"/>
              <path id="Trazado_147200" data-name="Trazado 147200" d="M-6333.1,14300.083c3.08-.509,6.17-.817,9.268-1.146s6.19-.6,9.306-.646c-3.071.511-6.17.819-9.258,1.147S-6329.977,14300-6333.1,14300.083Z" transform="translate(6440.499 -14243.606)" fill="#344154"/>
              <path id="Trazado_147201" data-name="Trazado 147201" d="M-6332.512,14306.157c3.08-.509,6.17-.816,9.268-1.147s6.19-.6,9.306-.645c-3.07.509-6.171.819-9.257,1.147S-6329.393,14306.061-6332.512,14306.157Z" transform="translate(6440.87 -14239.757)" fill="#344154"/>
              <path id="Trazado_147202" data-name="Trazado 147202" d="M-6331.926,14312.229c3.081-.5,6.17-.818,9.267-1.149s6.191-.6,9.305-.645c-3.07.509-6.169.819-9.257,1.146S-6328.8,14312.138-6331.926,14312.229Z" transform="translate(6441.241 -14235.913)" fill="#344154"/>
              <path id="Trazado_147203" data-name="Trazado 147203" d="M-6331.34,14318.3c3.081-.509,6.171-.817,9.269-1.147s6.19-.6,9.3-.645c-3.07.509-6.169.816-9.257,1.145S-6328.219,14318.212-6331.34,14318.3Z" transform="translate(6441.612 -14232.065)" fill="#344154"/>
              <path id="Trazado_147204" data-name="Trazado 147204" d="M-6398.835,14268.943c3.547-.5,7.092-.916,10.65-1.32s7.123-.688,10.678-1.112,7.114-.687,10.683-.948,7.127-.558,10.7-.74c-3.547.5-7.092.916-10.649,1.319s-7.124.689-10.667,1.111-7.126.688-10.7.95S-6395.256,14268.748-6398.835,14268.943Z" transform="translate(6398.835 -14264.822)" fill="#344154"/>
              <path id="Trazado_147205" data-name="Trazado 147205" d="M-6398.585,14270.934c2.213-.365,4.442-.661,6.665-.935s4.465-.434,6.7-.728,4.465-.432,6.7-.567,4.479-.29,6.73-.355c-2.222.378-4.444.661-6.675.939s-4.459.488-6.684.735-4.465.43-6.71.556S-6396.343,14270.871-6398.585,14270.934Z" transform="translate(6398.994 -14262.587)" fill="#344154"/>
              <path id="Trazado_147206" data-name="Trazado 147206" d="M-6398.335,14273.912c3.1-.45,6.19-.819,9.294-1.18s6.205-.661,9.312-.989,6.222-.6,9.332-.809,6.234-.471,9.348-.62c-3.084.46-6.187.831-9.293,1.191s-6.2.659-9.312.989-6.212.6-9.33.809S-6395.209,14273.772-6398.335,14273.912Z" transform="translate(6399.151 -14261.341)" fill="#344154"/>
              <path id="Trazado_147207" data-name="Trazado 147207" d="M-6392.661,14332.348c2.272-.381,4.543-.673,6.826-.952s4.57-.5,6.844-.752,4.576-.442,6.871-.572,4.578-.31,6.882-.37c-2.273.37-4.554.673-6.825.952s-4.571.49-6.856.744-4.565.439-6.86.569S-6390.354,14332.317-6392.661,14332.348Z" transform="translate(6402.748 -14223.702)" fill="#344154"/>
              <path id="Trazado_147208" data-name="Trazado 147208" d="M-6392.412,14335.079c2.622-.414,5.266-.738,7.9-1.055s5.278-.511,7.919-.855,5.276-.509,7.935-.675,5.291-.379,7.955-.473c-2.634.416-5.266.738-7.9,1.055s-5.283.562-7.92.845-5.286.511-7.934.684S-6389.727,14334.993-6392.412,14335.079Z" transform="translate(6402.905 -14222.23)" fill="#344154"/>
            </g>
          </g>
          <path id="Trazado_147209" data-name="Trazado 147209" d="M-6361.561,14321.868a9.257,9.257,0,0,1-8.436.13,12.1,12.1,0,0,1-5.245-5.4c-3.9-7.034-14.463-23.056-16.41-27.66s-6.251-17.623-10.551-23.086-6.647-13.685-6.647-13.685l-1.561-79.719c2.341,11.527,8.792,24.615,8.792,24.615a36.932,36.932,0,0,1,13.83,12.507,23.078,23.078,0,0,1,2.7,3.486c6.382,9.882,9.474,27.662,9.809,41.492.4,15.639,5.474,22.723,13.683,36.345S-6356.226,14318.836-6361.561,14321.868Z" transform="translate(6485.797 -14112.606)" fill="#ffbf9d"/>
          <path id="Trazado_147210" data-name="Trazado 147210" d="M-6371.4,14306.118a9.484,9.484,0,0,1-8.437.13c4.484-1.227,10.372-3.527,9.021-6.917-2.125-5.412-8.337,2.617-11.46,0s-14.462-17.635-7.261-24.242,4.939-17.694,0-20.815-1.73-10.561-.168-22.267c.987-7.084-2.4-23.126-5.187-34.7,6.382,9.88,9.474,27.66,9.811,41.492.393,15.635,5.471,22.721,13.681,36.345S-6366.063,14303.274-6371.4,14306.118Z" transform="translate(6495.634 -14096.855)" fill="#d9a171" opacity="0.4" style="isolation: isolate"/>
          <path id="Trazado_147211" data-name="Trazado 147211" d="M-6410.411,14172.419c2.341,11.529,8.792,24.62,8.792,24.62a36.927,36.927,0,0,1,13.83,12.5c8.209,8.6,12.123,29.312,12.505,44.94s5.474,22.721,13.683,36.346,5.928,27.826,0,31.058c-4.13,2.262-9.77,1.768-13.683-5.266s-14.461-23.056-16.407-27.661-6.252-17.622-10.552-23.085-6.647-13.685-6.647-13.685" transform="translate(6485.797 -14112.623)" fill="none" stroke="#263238" stroke-linecap="round" stroke-linejoin="round" stroke-width="1" opacity="0"/>
          <path id="Trazado_147212" data-name="Trazado 147212" d="M-6394.877,14244.014s6.383-.574,9.306-2.964" transform="translate(6495.642 -14069.128)" fill="none" stroke="#263238" stroke-linecap="round" stroke-linejoin="round" stroke-width="1" opacity="0"/>
          <path id="Trazado_147213" data-name="Trazado 147213" d="M-6410.852,14222.207s-1.245,2.966,5.275,5.93" transform="translate(6485.458 -14081.067)" fill="none" stroke="#263238" stroke-linecap="round" stroke-linejoin="round" stroke-width="1" opacity="0"/>
        </g>
        <g id="freepik--hand-2--inject-2" transform="translate(199.753 51.632)">
          <path id="Trazado_147214" data-name="Trazado 147214" d="M-6304.431,14286.036s-3.517,42.557,1.57,52.88,7.637,80.859,5.354,89.729c0,0,16.379,4.131,22.859-1.737s16.45-.219,32.868-5.927,4.574-132.448,4.574-132.448l.5-46.1-27.078-24.126Z" transform="translate(6352.462 -14135.174)" fill="rgba(52,65,84,0.7)" opacity="0.2" style="isolation: isolate"/>
          <path id="Trazado_147215" data-name="Trazado 147215" d="M-6264.425,14333.9a2.3,2.3,0,0,1-.485.819c-3.5,3.312-18.424,6.984-31.246,9.63-10.621,2.205-19.757,3.7-19.757,3.7s-7.034-58.454-7.034-64.6-11.342-105.624-11.342-105.624l27.186-1.176,36.067-1.562s.218,2.658.583,7.3C-6268.072,14211.963-6259.892,14322.231-6264.425,14333.9Z" transform="translate(6334.29 -14162.568)" fill="#d9a171"/>
          <g id="Grupo_92222" data-name="Grupo 92222" transform="translate(0 12.517)">
            <g id="Grupo_92221" data-name="Grupo 92221" clip-path="url(#clip-path)">
              <g id="Grupo_92220" data-name="Grupo 92220" transform="translate(4.228)">
                <path id="Trazado_147216" data-name="Trazado 147216" d="M-6266.065,14332.392l-31.731,6.49-11.985,2.459c-3.249-3.19-5.729-3.249-5.729-3.249l-.986-8.941-1.553-14.631-13.652-128.72c2.963-2.046,4.426-6.521,4.426-6.521l18.275-.662,31.661-1.153,5.228,3.379C-6269.712,14210.456-6261.532,14320.725-6266.065,14332.392Z" transform="translate(6331.702 -14173.579)" fill="rgba(52,65,84,0.7)" opacity="0.2" style="isolation: isolate"/>
                <path id="Trazado_147217" data-name="Trazado 147217" d="M-6266.065,14332.392l-31.731,6.49-11.985,2.459c-3.249-3.19-5.729-3.249-5.729-3.249l-.986-8.941-1.553-14.631-13.652-128.72c2.963-2.046,4.426-6.521,4.426-6.521l18.275-.662,31.661-1.153,5.228,3.379C-6269.712,14210.456-6261.532,14320.725-6266.065,14332.392Z" transform="translate(6331.702 -14173.579)" fill="none" stroke="#263238" stroke-linecap="round" stroke-linejoin="round" stroke-width="1" opacity="0"/>
                <path id="Trazado_147218" data-name="Trazado 147218" d="M-6320.764,14249.1l10.59-.022.009,3.313-2.943,1.046-6.787.74Z" transform="translate(6338.635 -14128.184)" fill="#d9a171" stroke="#263238" stroke-linecap="round" stroke-linejoin="round" stroke-width="1"/>
                <path id="Trazado_147219" data-name="Trazado 147219" d="M-6320.365,14253.37l7.785-.266,2,.946-.1,4.4-9.089.1Z" transform="translate(6338.888 -14125.637)" fill="#d9a171" stroke="#263238" stroke-linecap="round" stroke-linejoin="round" stroke-width="1"/>
                <path id="Trazado_147220" data-name="Trazado 147220" d="M-6319.583,14257.814l8.89-.641-.1,3.328-4.3,1.522-4.543-.258Z" transform="translate(6339.351 -14123.058)" fill="#d9a171" stroke="#263238" stroke-linecap="round" stroke-linejoin="round" stroke-width="1"/>
                <path id="Trazado_147221" data-name="Trazado 147221" d="M-6318.988,14261l7.182.365.651,1.838-1.047,2.023-6.421.415-1.107-3.13Z" transform="translate(6339.291 -14120.632)" fill="#d9a171" stroke="#263238" stroke-linecap="round" stroke-linejoin="round" stroke-width="1"/>
                <path id="Trazado_147222" data-name="Trazado 147222" d="M-6311.034,14264.938l.987,2.875a2.15,2.15,0,0,1,0,1.974,1.633,1.633,0,0,1-1.5.535c-.552-.049-1.1-.237-1.649-.266-1.67-.07-3.2,1.3-4.841.985-.642-1.777-2.262-4.384-.07-5.185C-6317.7,14265.727-6310.8,14265.589-6311.034,14264.938Z" transform="translate(6339.613 -14118.136)" fill="#d9a171" stroke="#263238" stroke-linecap="round" stroke-linejoin="round" stroke-width="1"/>
                <path id="Trazado_147223" data-name="Trazado 147223" d="M-6311.3,14269.889a16.073,16.073,0,0,1,.335,2.076,2.64,2.64,0,0,1-.73,2.477,2.95,2.95,0,0,1-1.375.367l-5.71.513a26.267,26.267,0,0,1-.049-3.239c.337-1.283.1-1.176,1.314-1.7C-6315.584,14269.563-6313.272,14270.866-6311.3,14269.889Z" transform="translate(6339.846 -14114.998)" fill="#d9a171" stroke="#263238" stroke-linecap="round" stroke-linejoin="round" stroke-width="1"/>
                <path id="Trazado_147224" data-name="Trazado 147224" d="M-6326.937,14184.354s2.154,20.813,2.252,24.933" transform="translate(6334.722 -14169.209)" fill="none" stroke="#263238" stroke-linecap="round" stroke-linejoin="round" stroke-width="1" opacity="0"/>
                <line id="Línea_2063" data-name="Línea 2063" x2="1.008" y2="11.469" transform="translate(12.428 15.373)" fill="none" stroke="#263238" stroke-linecap="round" stroke-linejoin="round" stroke-width="1" opacity="0"/>
                <path id="Trazado_147225" data-name="Trazado 147225" d="M-6314.246,14181.839l1.3,13.445,1.828.178-.593-13.5Z" transform="translate(6342.766 -14170.803)" fill="#d9a171" stroke="#263238" stroke-linecap="round" stroke-linejoin="round" stroke-width="1"/>
                <path id="Trazado_147226" data-name="Trazado 147226" d="M-6270.887,14333.9a2.291,2.291,0,0,1-.485.819c-3.5,3.312-18.424,6.984-31.246,9.63v-8.889l-18.662-4.781-2.815-.722,1.266-13.909,4.828-53.148,4.219-82.735.178-3.517,36.106-1.562s.218,2.658.584,7.3C-6274.534,14211.963-6266.354,14322.231-6270.887,14333.9Z" transform="translate(6336.524 -14175.085)" fill="rgba(52,65,84,0.7)" opacity="0.2" style="isolation: isolate"/>
              </g>
            </g>
          </g>
          <path id="Trazado_147227" data-name="Trazado 147227" d="M-6264.425,14333.9a2.3,2.3,0,0,1-.485.819c-3.5,3.312-18.424,6.984-31.246,9.63-10.621,2.205-19.757,3.7-19.757,3.7s-7.034-58.454-7.034-64.6-11.342-105.624-11.342-105.624l27.186-1.176,36.067-1.562s.218,2.658.583,7.3C-6268.072,14211.963-6259.892,14322.231-6264.425,14333.9Z" transform="translate(6334.29 -14162.568)" fill="none" stroke="#263238" stroke-linecap="round" stroke-linejoin="round" stroke-width="1" opacity="0"/>
          <path id="Trazado_147228" data-name="Trazado 147228" d="M-6266.023,14441.186c.227-2.084-3.054-31.985-3.112-35.235-.158-8.893-2.678-20.56-2.678-20.56-3.517-8.989-6.252-29.706-15.637-42.992s-9.375-28.915-10.937-42.182-1.175-12.122-.781-23.9a173.5,173.5,0,0,0-1.174-26.485c-.782-7.824-2.341-21.585,0-28s8.465-7.9,15.172-1.482,9.446,32.75,9.446,36,0,13.4,2.351,17.318c0,0,13.287-6.8,13.287-8.674s-.4-18.464,1.561-19.352l-7.814-25.293,14.817-5.264a38.541,38.541,0,0,1,7.153,8.595,46.332,46.332,0,0,1,4.18,8.39c6.252,16.585,16.3,28.15,18.374,32.924s0,42.666,0,49.71-4.544,39.517-4.426,44.978c.089,3.952,2.756,18.652,5.414,29.924.988,4.349,6.984,35.84,7.9,38.339Z" transform="translate(6355.022 -14137.213)" fill="#ffbf9d"/>
          <path id="Trazado_147229" data-name="Trazado 147229" d="M-6254.327,14243.974c-.1,2.126,2.439,19.058,2.439,19.058,1.76,4.218-7.843,18.6-7.843,18.6-2.074,1.166-2.964,8.4-2.964,8.4-6.5-1.442-21.387-16.408-21.387-16.408s-1.759,6.134-3.735,21.318,10.552,51.25,15.886,76.156,2.8,34.821,2.8,34.821c-.158-8.891-2.678-20.558-2.678-20.558-3.517-8.99-6.252-29.706-15.637-42.99s-9.375-28.887-10.937-42.153-1.175-12.122-.781-23.9a173.5,173.5,0,0,0-1.174-26.485c-.782-7.824-2.341-21.585,0-28s8.465-7.9,15.172-1.482,9.446,32.75,9.446,36,0,13.4,2.351,17.318c0,0,13.287-6.8,13.287-8.674s-.4-18.464,1.561-19.352l-7.814-25.293,14.817-5.264a38.541,38.541,0,0,1,7.153,8.595C-6249.16,14233.265-6254.229,14242.651-6254.327,14243.974Z" transform="translate(6355.022 -14137.213)" fill="#d9a171" opacity="0.4" style="isolation: isolate"/>
          <path id="Trazado_147230" data-name="Trazado 147230" d="M-6257.362,14342.963c.653-5.926,2.6-20.016,3.833-28.807-1.511,6.863-3.951,10.342-3.951,10.342s4.209-50.383,4.625-53.455,4.662-16.883,3.1-25.436c2.074,4.76,0,42.666,0,49.709s-4.543,39.514-4.426,44.979c.09,3.951,4.328,29.131,6.984,40.4C-6252.907,14372.4-6258.014,14348.918-6257.362,14342.963Z" transform="translate(6382.972 -14117.871)" fill="#d9a171" opacity="0.4" style="isolation: isolate"/>
          <path id="Trazado_147231" data-name="Trazado 147231" d="M-6212.956,14427.919c-3.122-8.989-13.149-62.829-13.269-68.261s4.426-37.947,4.426-44.979,2.075-44.948,0-49.71-12.122-16.34-18.373-32.929a43.159,43.159,0,0,0-11.332-16.981l-14.819,5.266,7.815,25.289c-1.975.892-1.561,17.479-1.561,19.355s-13.287,8.674-13.287,8.674c-2.352-3.953-2.352-14.069-2.352-17.318s-2.737-29.589-9.444-36-12.843-4.937-15.175,1.483-.78,20.171,0,28a173.378,173.378,0,0,1,1.177,26.516c-.4,11.776-.791,10.609.779,23.9s1.562,28.918,10.937,42.2,12.122,34,15.639,42.993c0,0,6.639,47.982,5.788,55.795" transform="translate(6355.034 -14137.233)" fill="none" stroke="#263238" stroke-linecap="round" stroke-linejoin="round" stroke-width="1" opacity="0"/>
          <path id="Trazado_147232" data-name="Trazado 147232" d="M-6284.314,14250.915s2.341,10.936,7.616,16.409" transform="translate(6365.963 -14114.507)" fill="none" stroke="#263238" stroke-linecap="round" stroke-linejoin="round" stroke-width="1" opacity="0"/>
          <path id="Trazado_147233" data-name="Trazado 147233" d="M-6283.443,14253.969s9.877,3.023,14.008,3.21" transform="translate(6366.515 -14112.572)" fill="none" stroke="#263238" stroke-linecap="round" stroke-linejoin="round" stroke-width="1" opacity="0"/>
          <path id="Trazado_147234" data-name="Trazado 147234" d="M-6276.182,14246.353s7.033-3.251,11.528-1.293" transform="translate(6371.118 -14118.618)" fill="none" stroke="#263238" stroke-linecap="round" stroke-linejoin="round" stroke-width="1" opacity="0"/>
          <path id="Trazado_147235" data-name="Trazado 147235" d="M-6275.226,14235.016s5.473-.5,6.637-3.237" transform="translate(6371.723 -14126.636)" fill="none" stroke="#263238" stroke-linecap="round" stroke-linejoin="round" stroke-width="1" opacity="0"/>
          <path id="Trazado_147236" data-name="Trazado 147236" d="M-6291.825,14294.717s10.512,13.052,13.634,19.688" transform="translate(6361.204 -14086.746)" fill="none" stroke="#263238" stroke-linecap="round" stroke-linejoin="round" stroke-width="1" opacity="0"/>
          <path id="Trazado_147237" data-name="Trazado 147237" d="M-6252.518,14259.762c-1.759,10.364-4.109,38.7-4.89,43.771" transform="translate(6383.017 -14108.9)" fill="none" stroke="#263238" stroke-linecap="round" stroke-linejoin="round" stroke-width="1" opacity="0"/>
          <path id="Trazado_147238" data-name="Trazado 147238" d="M-6251.592,14247.8c.3,9.385-1.976,14.264-1.976,14.264" transform="translate(6385.451 -14116.481)" fill="none" stroke="#263238" stroke-linecap="round" stroke-linejoin="round" stroke-width="1" opacity="0"/>
          <path id="Trazado_147239" data-name="Trazado 147239" d="M-6288.479,14167.424l72.433,19.105s-25.457,77.264-30.625,86.846l-8.633,67.354s-46.272-2.035-67.553-8.467c0,0,13.457-70.139,14.176-79.494S-6288.479,14167.424-6288.479,14167.424Z" transform="translate(6341.537 -14167.424)" fill="#d9a171"/>
          <g id="Grupo_92225" data-name="Grupo 92225" transform="translate(18.681)">
            <g id="Grupo_92224" data-name="Grupo 92224" clip-path="url(#clip-path-2)">
              <g id="Grupo_92223" data-name="Grupo 92223" transform="translate(6.293 6.423)">
                <path id="Trazado_147240" data-name="Trazado 147240" d="M-6306.5,14246.127l15.964-68.255s6.866-3.407,9.523-6.517l51.9,14.757s.156,5.088,3.13,8.349l-26.188,75.463-6.352,55.629s-8.447.673-9.257,6.914c0,0-27.385,1.482-45.749-3.358,0,0-2.165-6.746-5.473-11.015Z" transform="translate(6319.003 -14171.355)" fill="rgba(52,65,84,0.7)" opacity="0.2" style="isolation: isolate"/>
                <path id="Trazado_147241" data-name="Trazado 147241" d="M-6306.5,14246.127l15.964-68.255s6.866-3.407,9.523-6.517l51.9,14.757s.156,5.088,3.13,8.349l-26.188,75.463-6.352,55.629s-8.447.673-9.257,6.914c0,0-27.385,1.482-45.749-3.358,0,0-2.165-6.746-5.473-11.015Z" transform="translate(6319.003 -14171.355)" fill="none" stroke="#263238" stroke-linecap="round" stroke-linejoin="round" stroke-width="1" opacity="0"/>
                <path id="Trazado_147242" data-name="Trazado 147242" d="M-6302.968,14225.1s4.713-17.78,21.31-14.59,7.221,25.1,7.221,25.1.1,17.686-13.366,15.242C-6299.481,14248.738-6305.7,14242.329-6302.968,14225.1Z" transform="translate(6328.761 -14146.782)" fill="#d9a171" stroke="#263238" stroke-linecap="round" stroke-linejoin="round" stroke-width="1"/>
                <path id="Trazado_147243" data-name="Trazado 147243" d="M-6295.265,14179.317s-5.02,20.321-6.313,24.233" transform="translate(6330.048 -14166.309)" fill="none" stroke="#263238" stroke-linecap="round" stroke-linejoin="round" stroke-width="1" opacity="0"/>
                <line id="Línea_2064" data-name="Línea 2064" x1="2.924" y2="11.143" transform="translate(36.156 14.768)" fill="none" stroke="#263238" stroke-linecap="round" stroke-linejoin="round" stroke-width="1" opacity="0"/>
                <path id="Trazado_147244" data-name="Trazado 147244" d="M-6272.316,14185.177l9.988,3.52-1.1,3.129h-3.122l-6.648-1.561Z" transform="translate(6348.037 -14162.596)" fill="#d9a171" stroke="#263238" stroke-linecap="round" stroke-linejoin="round" stroke-width="1"/>
                <path id="Trazado_147245" data-name="Trazado 147245" d="M-6273.216,14189.245l7.429,2.341,1.561,1.562-1.561,4.11-8.6-2.936Z" transform="translate(6347.278 -14160.016)" fill="#d9a171" stroke="#263238" stroke-linecap="round" stroke-linejoin="round" stroke-width="1"/>
                <path id="Trazado_147246" data-name="Trazado 147246" d="M-6273.863,14193.551l8.6,2.371-1.215,3.1h-4.555l-4.2-1.758Z" transform="translate(6346.749 -14157.287)" fill="#d9a171" stroke="#263238" stroke-linecap="round" stroke-linejoin="round" stroke-width="1"/>
                <path id="Trazado_147247" data-name="Trazado 147247" d="M-6274.759,14196.9l6.639,2.736v1.946l-1.659,1.571-6.185-1.76v-3.326Z" transform="translate(6346.282 -14155.163)" fill="#d9a171" stroke="#263238" stroke-linecap="round" stroke-linejoin="round" stroke-width="1"/>
                <path id="Trazado_147248" data-name="Trazado 147248" d="M-6268.39,14202.887v3.043a2.167,2.167,0,0,1-.6,1.855,1.666,1.666,0,0,1-1.6,0c-.5-.234-.987-.592-1.46-.8-1.553-.621-3.459.16-4.941-.668,0-1.887-.662-4.881,1.669-4.939C-6274.939,14201.4-6268.39,14203.578-6268.39,14202.887Z" transform="translate(6345.573 -14152.33)" fill="#d9a171" stroke="#263238" stroke-linecap="round" stroke-linejoin="round" stroke-width="1"/>
                <path id="Trazado_147249" data-name="Trazado 147249" d="M-6270,14207.6a14.381,14.381,0,0,1-.376,2.063c-.217.879-.642,1.858-1.521,2.1a2.883,2.883,0,0,1-1.413-.12l-5.551-1.461a26.667,26.667,0,0,1,.988-3.062c.75-1.095.493-1.077,1.807-1.166C-6273.931,14205.867-6272.191,14207.87-6270,14207.6Z" transform="translate(6344.445 -14149.43)" fill="#d9a171" stroke="#263238" stroke-linecap="round" stroke-linejoin="round" stroke-width="1"/>
                <path id="Trazado_147250" data-name="Trazado 147250" d="M-6283.622,14181.234l-3.33,13.09,1.659.782,4.012-12.9Z" transform="translate(6339.318 -14165.095)" fill="#d9a171" stroke="#263238" stroke-linecap="round" stroke-linejoin="round" stroke-width="1"/>
                <path id="Trazado_147251" data-name="Trazado 147251" d="M-6310.276,14235.036l10.254,2.66-.829,3.2-3.112.275-6.757-1Z" transform="translate(6324.254 -14130.993)" fill="#d9a171" stroke="#263238" stroke-linecap="round" stroke-linejoin="round" stroke-width="1"/>
                <path id="Trazado_147252" data-name="Trazado 147252" d="M-6310.829,14239.178l7.6,1.7,1.7,1.423-1.205,4.229-8.823-2.193Z" transform="translate(6323.721 -14128.369)" fill="#d9a171" stroke="#263238" stroke-linecap="round" stroke-linejoin="round" stroke-width="1"/>
                <path id="Trazado_147253" data-name="Trazado 147253" d="M-6311.051,14243.53l8.771,1.622-.947,3.19-4.535.4-4.338-1.393Z" transform="translate(6323.38 -14125.608)" fill="#d9a171" stroke="#263238" stroke-linecap="round" stroke-linejoin="round" stroke-width="1"/>
                <path id="Trazado_147254" data-name="Trazado 147254" d="M-6311.583,14246.935l6.855,2.165.169,1.946-1.522,1.7-6.312-1.225-.287-3.31Z" transform="translate(6323.013 -14123.451)" fill="#d9a171" stroke="#263238" stroke-linecap="round" stroke-linejoin="round" stroke-width="1"/>
                <path id="Trazado_147255" data-name="Trazado 147255" d="M-6304.775,14252.363l.266,3.03a2.158,2.158,0,0,1-.444,1.907,1.646,1.646,0,0,1-1.59.13c-.524-.188-.988-.5-1.533-.662-1.589-.493-3.428.445-4.938-.258-.179-1.875-1.077-4.8,1.235-5.027C-6311.423,14251.464-6304.716,14253.053-6304.775,14252.363Z" transform="translate(6322.597 -14120.569)" fill="#d9a171" stroke="#263238" stroke-linecap="round" stroke-linejoin="round" stroke-width="1"/>
                <path id="Trazado_147256" data-name="Trazado 147256" d="M-6306.022,14257.245a14.751,14.751,0,0,1-.2,2.145c-.147.888-.483,1.905-1.333,2.214a2.925,2.925,0,0,1-1.423,0l-5.65-.989a26.69,26.69,0,0,1,.759-3.141c.653-1.155.4-1.116,1.7-1.313C-6310.092,14255.853-6308.195,14257.7-6306.022,14257.245Z" transform="translate(6321.778 -14117.63)" fill="#d9a171" stroke="#263238" stroke-linecap="round" stroke-linejoin="round" stroke-width="1"/>
                <path id="Trazado_147257" data-name="Trazado 147257" d="M-6284.314,14273.875s2.35-26.218,2.35-28.856" transform="translate(6340.989 -14124.667)" fill="none" stroke="#263238" stroke-linecap="round" stroke-linejoin="round" stroke-width="1" opacity="0"/>
                <path id="Trazado_147258" data-name="Trazado 147258" d="M-6287.186,14268.172s.988-13.635,1.165-16.006" transform="translate(6339.168 -14120.137)" fill="none" stroke="#263238" stroke-linecap="round" stroke-linejoin="round" stroke-width="1" opacity="0"/>
                <path id="Trazado_147259" data-name="Trazado 147259" d="M-6297.172,14255.936l-3.171,15.518h3.171l2.3-15.518Z" transform="translate(6330.829 -14117.751)" fill="#d9a171" stroke="#263238" stroke-linecap="round" stroke-linejoin="round" stroke-width="1"/>
                <path id="Trazado_147260" data-name="Trazado 147260" d="M-6252.125,14255.419c-6.855-1.434-12.971-3.537-17.495-6.57,0,0,3.278,9.426,14.906,25.488l-6.252,48.822s-30.2-1.324-53.019-5.229c7.014-19.757,19.757-57.2,18.246-64.616-2.045-10.186,5.176-22.208,5.176-22.208,22.83-4.11,44.968-21.366,60.162-35.959C-6238.136,14218.019-6248.7,14248.641-6252.125,14255.419Z" transform="translate(6322.185 -14156.274)" fill="rgba(52,65,84,0.7)" opacity="0.2" style="isolation: isolate"/>
              </g>
            </g>
          </g>
          <path id="Trazado_147261" data-name="Trazado 147261" d="M-6288.479,14167.424l72.433,19.105s-25.457,77.264-30.625,86.846l-8.633,67.354s-46.272-2.035-67.553-8.467c0,0,13.457-70.139,14.176-79.494S-6288.479,14167.424-6288.479,14167.424Z" transform="translate(6341.537 -14167.424)" fill="none" stroke="#263238" stroke-linecap="round" stroke-linejoin="round" stroke-width="1" opacity="0"/>
          <path id="Trazado_147262" data-name="Trazado 147262" d="M-6261.8,14290.572l-10.2,73.852c-2.273-4.831-8.467-13.07-11.667-17.189-1.187-1.54-1.977-2.5-1.977-2.5l-1.807-2.785c-9.376-13.287-9.376-28.915-10.936-42.2s-1.176-12.119-.781-23.9a173.257,173.257,0,0,0-1.165-26.464c-.782-7.824-2.341-21.586,0-28,1.144-3.14,3.209-5.1,5.8-5.512s5.927.772,9.374,4.03c6.708,6.413,9.446,32.75,9.446,36s0,13.4,2.351,17.318C-6273.373,14273.174-6267.07,14285.1-6261.8,14290.572Z" transform="translate(6355.022 -14136.766)" fill="#ffbf9d"/>
          <path id="Trazado_147263" data-name="Trazado 147263" d="M-6288.232,14336.653c2.135,2.727,3.587,6.659,4.554,10.551-1.185-1.54-1.975-2.5-1.975-2.5l-1.807-2.785c-9.376-13.287-9.376-28.915-10.936-42.2s-1.176-12.119-.781-23.9a173.257,173.257,0,0,0-1.165-26.464c-.782-7.824-2.341-21.586,0-28,1.144-3.14,3.209-5.1,5.8-5.512,4.94,1.4,9.88,6.432,11.6,15.036,2.963,14.442-10.4,2.775-13.5,15.017s1.4,15.538,3.251,18.621-.514,9.878-3.251,19.008S-6294.09,14329.156-6288.232,14336.653Z" transform="translate(6355.022 -14136.735)" fill="#d9a171" opacity="0.4" style="isolation: isolate"/>
          <path id="Trazado_147264" data-name="Trazado 147264" d="M-6261.806,14290.6c-5.275-5.476-11.568-17.4-11.568-17.4-2.351-3.952-2.351-14.069-2.351-17.318s-2.737-29.588-9.446-36-12.841-4.938-15.172,1.483-.782,20.171,0,28a173.245,173.245,0,0,1,1.174,26.515c-.394,11.777-.79,10.609.78,23.9s1.562,28.917,10.937,42.2l1.807,2.785s10.512,13.052,13.634,19.688" transform="translate(6355.024 -14136.792)" fill="none" stroke="#263238" stroke-linecap="round" stroke-linejoin="round" stroke-width="1" opacity="0"/>
          <path id="Trazado_147265" data-name="Trazado 147265" d="M-6298.4,14244.084s8.96-4.633,13.445-4.236" transform="translate(6357.036 -14121.538)" fill="none" stroke="#263238" stroke-linecap="round" stroke-linejoin="round" stroke-width="1" opacity="0"/>
        </g>
      </g>
    </g>
    <g id="Grupo_92236" data-name="Grupo 92236" transform="translate(-20519.396 8966.026)">
      <g id="Grupo_90206" data-name="Grupo 90206">
        <circle id="Elipse_4290" data-name="Elipse 4290" cx="38.473" cy="38.473" r="38.473" transform="matrix(0.997, -0.083, 0.083, 0.997, 14025.665, 5385.542)" fill="#344154"/>
        <circle id="Elipse_4291" data-name="Elipse 4291" cx="38.473" cy="38.473" r="38.473" transform="matrix(0.31, -0.951, 0.951, 0.31, 14022.55, 5442.567)" fill="#aed3f2"/>
        <path id="Trazado_143998" data-name="Trazado 143998" d="M14071.08,5451.42a33.348,33.348,0,1,1,15.059-3.635A33.365,33.365,0,0,1,14071.08,5451.42Zm-.088-65.6a32.289,32.289,0,1,0,14.693,61.069h0a32.288,32.288,0,0,0-14.693-61.069Z" fill="#fff" stroke="#5e6178" stroke-miterlimit="10" stroke-width="0"/>
        <g id="Grupo_90205" data-name="Grupo 90205">
          <g id="Grupo_90204" data-name="Grupo 90204">
            <path id="Trazado_143999" data-name="Trazado 143999" d="M14063.616,5431.019a21.27,21.27,0,0,1-4.681-3.348,18.9,18.9,0,0,1-3.113-3.75,2.232,2.232,0,0,1-.2-2.12,2.2,2.2,0,0,1,1.212-1.184,2.118,2.118,0,0,1,1.735.027,3.1,3.1,0,0,1,1.223,1.008,23.781,23.781,0,0,0,2.947,3.355,13.764,13.764,0,0,0,3.977,2.549,14.674,14.674,0,0,0,1.726.633,9.861,9.861,0,0,0,1.682.344,6.739,6.739,0,0,0,1.594,0,5.439,5.439,0,0,0,1.4-.359,3.449,3.449,0,0,0,1.163-.8,4.339,4.339,0,0,0,.856-1.305,3.3,3.3,0,0,0,0-2.8,8.435,8.435,0,0,0-2.6-2.913l-4.18-3.248q-1.236-.981-2.029-1.649t-1.661-1.521a11.572,11.572,0,0,1-1.347-1.538,9.154,9.154,0,0,1-.868-1.549,4.908,4.908,0,0,1-.438-1.717,7.726,7.726,0,0,1,.139-1.874,10.022,10.022,0,0,1,.688-2.159,8.259,8.259,0,0,1,1.126-1.883,6.961,6.961,0,0,1,1.467-1.379,7.868,7.868,0,0,1,1.749-.9,8.561,8.561,0,0,1,2-.466,11.391,11.391,0,0,1,2.2-.025,17.036,17.036,0,0,1,2.337.358,20.59,20.59,0,0,1,2.453.714l2.549-5.843a1.928,1.928,0,0,1,1.124-1.138,1.975,1.975,0,0,1,1.479.068,2.115,2.115,0,0,1,1.094,1.071,1.861,1.861,0,0,1-.021,1.6l-2.573,5.9a20.24,20.24,0,0,1,2.683,1.781,20.981,20.981,0,0,1,2.015,1.761q.751.768,1.419,1.569a2.308,2.308,0,0,1,.5,2.591,2.158,2.158,0,0,1-.334.533,1.792,1.792,0,0,1-.48.4,2.891,2.891,0,0,1-.564.246,1.635,1.635,0,0,1-.652.055,2.364,2.364,0,0,1-.7-.186,1.971,1.971,0,0,1-.314-.172c-.1-.064-.2-.138-.312-.22s-.215-.168-.312-.255q-.029-.014-.623-.594t-.858-.833q-.264-.25-.962-.827t-1.234-.945q-.533-.368-1.316-.829a15,15,0,0,0-1.581-.808,12.988,12.988,0,0,0-3.079-.953,5.248,5.248,0,0,0-2.628.194,2.887,2.887,0,0,0-1.738,1.65,2.834,2.834,0,0,0-.08,2.6,11.814,11.814,0,0,0,2.985,2.879l4.12,3.154q3.987,3.063,5.127,5.9a7.667,7.667,0,0,1-.293,6.114,8.36,8.36,0,0,1-5.252,5,13.19,13.19,0,0,1-8.039-.351l-2.512,5.757a1.865,1.865,0,0,1-1.16,1.1,2.154,2.154,0,0,1-1.558-.085,2.068,2.068,0,0,1-.768-.573,1.841,1.841,0,0,1-.4-.919,2.047,2.047,0,0,1,.178-1.144Z" fill="#fff" stroke="#5e6178" stroke-miterlimit="10" stroke-width="0"/>
          </g>
        </g>
      </g>
      <g id="Grupo_90209" data-name="Grupo 90209">
        <circle id="Elipse_4292" data-name="Elipse 4292" cx="23.704" cy="23.704" r="23.704" transform="translate(14104.111 5502.765) rotate(-83.545)" fill="#344154"/>
        <circle id="Elipse_4293" data-name="Elipse 4293" cx="23.704" cy="23.704" r="23.704" transform="translate(14106.089 5500.604) rotate(-83.545)" fill="#aed3f2"/>
        <path id="Trazado_144000" data-name="Trazado 144000" d="M14132.375,5500.549a21.014,21.014,0,0,1-2.368-.134,20.7,20.7,0,1,1,15.229-4.38h0A20.542,20.542,0,0,1,14132.375,5500.549Zm-.079-40.413a19.7,19.7,0,1,0,12.316,35.117h0a19.7,19.7,0,0,0-10.063-34.99A20.337,20.337,0,0,0,14132.3,5460.136Z" fill="#fff" stroke="#5e6178" stroke-miterlimit="10" stroke-width="0"/>
        <g id="Grupo_90208" data-name="Grupo 90208">
          <g id="Grupo_90207" data-name="Grupo 90207">
            <path id="Trazado_144001" data-name="Trazado 144001" d="M14129.447,5488.552a13.111,13.111,0,0,1-3.239-1.441,11.648,11.648,0,0,1-2.343-1.878,1.371,1.371,0,0,1-.38-1.256,1.355,1.355,0,0,1,.585-.865,1.308,1.308,0,0,1,1.051-.2,1.922,1.922,0,0,1,.862.457,14.564,14.564,0,0,0,2.193,1.66,8.479,8.479,0,0,0,2.716,1.047,9.318,9.318,0,0,0,1.119.169,6.179,6.179,0,0,0,1.059,0,4.151,4.151,0,0,0,.962-.2,3.365,3.365,0,0,0,.8-.389,2.135,2.135,0,0,0,.6-.626,2.685,2.685,0,0,0,.356-.894,2.039,2.039,0,0,0-.347-1.689,5.2,5.2,0,0,0-1.928-1.438l-2.926-1.443q-.866-.438-1.428-.744t-1.19-.713a7.1,7.1,0,0,1-1-.761,5.705,5.705,0,0,1-.716-.828,3.058,3.058,0,0,1-.477-.982,4.736,4.736,0,0,1-.148-1.148,6.2,6.2,0,0,1,.148-1.388,5.094,5.094,0,0,1,.446-1.277,4.273,4.273,0,0,1,.715-1.013,4.808,4.808,0,0,1,.944-.759,5.244,5.244,0,0,1,1.151-.53,7.016,7.016,0,0,1,1.324-.287,10.639,10.639,0,0,1,1.454-.073,12.993,12.993,0,0,1,1.569.127l.815-3.842a1.188,1.188,0,0,1,.538-.826,1.214,1.214,0,0,1,.9-.141,1.3,1.3,0,0,1,.793.511,1.151,1.151,0,0,1,.187.97l-.824,3.879a12.418,12.418,0,0,1,1.84.743,13.039,13.039,0,0,1,1.434.813q.548.372,1.051.772a1.423,1.423,0,0,1,.622,1.5,1.344,1.344,0,0,1-.137.363,1.1,1.1,0,0,1-.239.3,1.813,1.813,0,0,1-.312.218,1,1,0,0,1-.387.114,1.448,1.448,0,0,1-.445-.026,1.265,1.265,0,0,1-.211-.065c-.065-.027-.138-.058-.215-.094a2.445,2.445,0,0,1-.22-.116c-.014,0-.163-.1-.45-.281s-.494-.317-.621-.4-.354-.206-.683-.38-.616-.314-.861-.418-.545-.217-.9-.337a9.242,9.242,0,0,0-1.054-.293,8.066,8.066,0,0,0-1.976-.194,3.246,3.246,0,0,0-1.563.442,1.779,1.779,0,0,0-.845,1.211,1.747,1.747,0,0,0,.272,1.576,7.277,7.277,0,0,0,2.158,1.369l2.877,1.394a9.377,9.377,0,0,1,3.824,2.927,4.723,4.723,0,0,1,.58,3.726,5.151,5.151,0,0,1-2.551,3.67,8.129,8.129,0,0,1-4.9.782l-.8,3.786a1.143,1.143,0,0,1-.564.81,1.318,1.318,0,0,1-.949.141,1.263,1.263,0,0,1-.535-.25,1.127,1.127,0,0,1-.353-.506,1.259,1.259,0,0,1-.035-.712Z" fill="#fff" stroke="#5e6178" stroke-miterlimit="10" stroke-width="0"/>
          </g>
        </g>
      </g>
      <g id="Grupo_90212" data-name="Grupo 90212">
        <circle id="Elipse_4294" data-name="Elipse 4294" cx="19.55" cy="19.55" r="19.55" transform="translate(14038.177 5507.572) rotate(-75.044)" fill="#5574d8"/>
        <circle id="Elipse_4295" data-name="Elipse 4295" cx="19.55" cy="19.55" r="19.55" transform="matrix(0.998, -0.06, 0.06, 0.998, 14043.434, 5474.034)" fill="#344154"/>
        <path id="Trazado_144002" data-name="Trazado 144002" d="M14064.122,5509.662a17.18,17.18,0,1,1,7.219-1.6h0A17.117,17.117,0,0,1,14064.122,5509.662Zm-.034-33.335a16.163,16.163,0,1,0,6.831,30.823h0a16.163,16.163,0,0,0-6.831-30.823Z" fill="#fff" stroke="#5e6178" stroke-miterlimit="10" stroke-width="0"/>
        <g id="Grupo_90211" data-name="Grupo 90211">
          <g id="Grupo_90210" data-name="Grupo 90210">
            <path id="Trazado_144003" data-name="Trazado 144003" d="M14060.1,5498.909a10.835,10.835,0,0,1-2.314-1.786,9.537,9.537,0,0,1-1.513-1.961,1.134,1.134,0,0,1-.061-1.08,1.114,1.114,0,0,1,.637-.579,1.08,1.08,0,0,1,.881.045,1.592,1.592,0,0,1,.6.535,12.079,12.079,0,0,0,1.436,1.757,6.981,6.981,0,0,0,1.973,1.367,7.543,7.543,0,0,0,.865.353,4.981,4.981,0,0,0,.848.205,3.372,3.372,0,0,0,.809.029,2.777,2.777,0,0,0,.716-.156,1.755,1.755,0,0,0,.6-.385,2.213,2.213,0,0,0,.459-.647,1.674,1.674,0,0,0,.051-1.421,4.275,4.275,0,0,0-1.265-1.527l-2.064-1.726q-.608-.521-1-.874t-.815-.8a5.9,5.9,0,0,1-.656-.806,4.714,4.714,0,0,1-.413-.8,2.5,2.5,0,0,1-.19-.88,3.872,3.872,0,0,1,.1-.949,5.149,5.149,0,0,1,.388-1.084,4.163,4.163,0,0,1,.607-.936,3.52,3.52,0,0,1,.77-.673,3.957,3.957,0,0,1,.9-.425,4.294,4.294,0,0,1,1.025-.2,5.8,5.8,0,0,1,1.117.028,8.655,8.655,0,0,1,1.181.224,10.661,10.661,0,0,1,1.233.407l1.4-2.92a.976.976,0,0,1,.591-.558,1,1,0,0,1,.75.062,1.066,1.066,0,0,1,.536.564.942.942,0,0,1-.04.813l-1.414,2.949a10.4,10.4,0,0,1,1.33.954,10.685,10.685,0,0,1,.991.93c.245.27.475.544.692.823a1.175,1.175,0,0,1,.205,1.325,1.124,1.124,0,0,1-.18.265.93.93,0,0,1-.251.195,1.527,1.527,0,0,1-.292.114.8.8,0,0,1-.332.016,1.211,1.211,0,0,1-.351-.107.981.981,0,0,1-.157-.093c-.048-.035-.1-.074-.154-.118a1.968,1.968,0,0,1-.153-.135c-.011,0-.112-.109-.307-.313s-.334-.35-.42-.438-.245-.234-.474-.438-.434-.371-.609-.5-.395-.28-.653-.445a7.615,7.615,0,0,0-.788-.439,6.527,6.527,0,0,0-1.546-.54,2.674,2.674,0,0,0-1.34.05,1.468,1.468,0,0,0-.912.806,1.444,1.444,0,0,0-.088,1.316,6.016,6.016,0,0,0,1.463,1.517l2.035,1.677a7.739,7.739,0,0,1,2.5,3.09,3.893,3.893,0,0,1-.26,3.1,4.249,4.249,0,0,1-2.758,2.445,6.705,6.705,0,0,1-4.077-.325l-1.38,2.878a.943.943,0,0,1-.609.54,1.094,1.094,0,0,1-.79-.072,1.054,1.054,0,0,1-.379-.305.934.934,0,0,1-.185-.474,1.041,1.041,0,0,1,.11-.577Z" fill="#fff" stroke="#5e6178" stroke-miterlimit="10" stroke-width="0"/>
          </g>
        </g>
      </g>
    </g>
  </g>
</svg>
