<svg xmlns="http://www.w3.org/2000/svg" xmlns:xlink="http://www.w3.org/1999/xlink" width="453.999" height="415" viewBox="0 0 453.999 415">
  <defs>
    <clipPath id="clip-path">
      <path id="SVGID" d="M-6412.787,13905.295s-2.976,4.75-2.151,8.658,8.091,20.922,13.485,36.551,4.313,32.643,4.313,37.68-.268,8.646,3.511,10.6,9.707.844,11.324-2.785,2.7-26.771-.269-40.746-13.485-38.5-16.182-44.086S-6402.8,13897.76-6412.787,13905.295Z" transform="translate(6415.083 -13902.184)" fill="none" opacity="0"/>
    </clipPath>
    <clipPath id="clip-path-2">
      <rect id="SVGID-2" data-name="SVGID" width="58.511" height="15.605" rx="3.038" transform="matrix(1, -0.03, 0.03, 1, 0, 1.755)" fill="none" opacity="0"/>
    </clipPath>
  </defs>
  <g id="Grupo_92235" data-name="Grupo 92235" transform="translate(-922 -20401)">
    <g id="Grupo_92193" data-name="Grupo 92193" transform="translate(7414.458 6652.72)">
      <rect id="Rectángulo_33058" data-name="Rectángulo 33058" width="415" height="415" transform="translate(-6492.458 13748.28)" fill="#aed3f2" opacity="0"/>
      <g id="Grupo_92192" data-name="Grupo 92192" transform="translate(-6469.977 13788.791)">
        <g id="freepik--background-simple--inject-80" transform="translate(0.114)">
          <path id="Trazado_147073" data-name="Trazado 147073" d="M-6115.255,14027.127c7.843-69.154-30.126-161.057-69.492-199.006-71.059-68.52-130.1-55.271-176.011-30.74s-52.476,106.48-84.187,143.545-49.739,86.924-1.636,136.564,86.914,24.412,137.208,21.26,117.011,21.637,153.056.09C-6131.122,14083.807-6118.716,14057.727-6115.255,14027.127Z" transform="translate(6476.137 -13777.541)" fill="#aed3f2"/>
        </g>
        <g id="freepik--Clouds--inject-80" transform="translate(40.16 52.07)">
          <path id="Trazado_147074" data-name="Trazado 147074" d="M-6306.432,13869.962c-6.317-3.451-9.192-.574-11.492-3.451s6.325-10.342-10.908-17.848c0,0-1.15-16.094-24.711-16.67s-17.234,16.094-23.561,20.109-8.041-2.289-14.368,1.727-3.441,12.066-8.616,13.217-12.068-5.166-18.386-1.15-6.327,7.479-9.193,7.479-8.626-2.3-12.066,0-7.477,5.166-7.477,5.166h145.379S-6300.126,13873.413-6306.432,13869.962Z" transform="translate(6447.21 -13808.684)" fill="#d9a171"/>
          <path id="Trazado_147075" data-name="Trazado 147075" d="M-6262,13830.56c-2.558-1.408-3.729-.238-4.66-1.408s2.567-4.193-4.434-7.229c0,0-.465-6.525-10.024-6.764s-7,6.535-9.56,8.16-3.271-.932-5.83.705-1.4,4.9-3.5,5.365-4.9-2.1-7.466-.467-2.559,3.035-3.729,3.035-3.5-.934-4.9,0-3.024,2.092-3.024,2.092h59.01S-6259.435,13831.958-6262,13830.56Z" transform="translate(6496.449 -13815.153)" fill="#d9a171"/>
          <path id="Trazado_147076" data-name="Trazado 147076" d="M-6321.915,13918c-2.568-1.4-3.729-.227-4.661-1.4s2.559-4.193-4.433-7.229c0,0-.466-6.533-10.025-6.762s-7,6.533-9.569,8.16-3.262-.932-5.829.7-1.4,4.9-3.49,5.365-4.9-2.1-7.468-.465-2.568,3.045-3.729,3.045-3.5-.934-4.9,0-3.034,2.1-3.034,2.1h59S-6319.388,13919.416-6321.915,13918Z" transform="translate(6473.414 -13781.534)" fill="#d9a171"/>
          <g id="Grupo_92183" data-name="Grupo 92183" transform="translate(0 23.295)" opacity="0.4">
            <path id="Trazado_147077" data-name="Trazado 147077" d="M-6306.432,13869.962c-6.317-3.451-9.192-.574-11.492-3.451s6.325-10.342-10.908-17.848c0,0-1.15-16.094-24.711-16.67s-17.234,16.094-23.561,20.109-8.041-2.289-14.368,1.727-3.441,12.066-8.616,13.217-12.068-5.166-18.386-1.15-6.327,7.479-9.193,7.479-8.626-2.3-12.066,0-7.477,5.166-7.477,5.166h145.379S-6300.126,13873.413-6306.432,13869.962Z" transform="translate(6447.21 -13831.979)" fill="#fff" stroke="#5e6178" stroke-miterlimit="10" stroke-width="0"/>
          </g>
          <g id="Grupo_92184" data-name="Grupo 92184" transform="translate(177.319)" opacity="0.4">
            <path id="Trazado_147078" data-name="Trazado 147078" d="M-6262,13830.56c-2.558-1.408-3.729-.238-4.66-1.408s2.567-4.193-4.434-7.229c0,0-.465-6.525-10.024-6.764s-7,6.535-9.56,8.16-3.271-.932-5.83.705-1.4,4.9-3.5,5.365-4.9-2.1-7.466-.467-2.559,3.035-3.729,3.035-3.5-.934-4.9,0-3.024,2.092-3.024,2.092h59.01S-6259.435,13831.958-6262,13830.56Z" transform="translate(6319.129 -13815.153)" fill="#fff" stroke="#5e6178" stroke-miterlimit="10" stroke-width="0"/>
          </g>
          <g id="Grupo_92185" data-name="Grupo 92185" transform="translate(94.362 121.067)" opacity="0.4">
            <path id="Trazado_147079" data-name="Trazado 147079" d="M-6321.915,13918c-2.568-1.4-3.729-.227-4.661-1.4s2.559-4.193-4.433-7.229c0,0-.466-6.533-10.025-6.762s-7,6.533-9.569,8.16-3.262-.932-5.829.7-1.4,4.9-3.49,5.365-4.9-2.1-7.468-.465-2.568,3.045-3.729,3.045-3.5-.934-4.9,0-3.034,2.1-3.034,2.1h59S-6319.388,13919.416-6321.915,13918Z" transform="translate(6379.052 -13902.602)" fill="#fff" stroke="#5e6178" stroke-miterlimit="10" stroke-width="0"/>
          </g>
        </g>
        <g id="freepik--Window--inject-80" transform="translate(1.487 20.088)">
          <rect id="Rectángulo_33059" data-name="Rectángulo 33059" width="368.878" height="3.362" transform="translate(0 183.121)" fill="#344154"/>
          <line id="Línea_2056" data-name="Línea 2056" y1="160.64" transform="translate(282.936 24.463)" fill="none" stroke="#263238" stroke-linecap="round" stroke-linejoin="round" stroke-width="1" opacity="0"/>
          <line id="Línea_2057" data-name="Línea 2057" y1="185.103" transform="translate(116.346)" fill="none" stroke="#263238" stroke-linecap="round" stroke-linejoin="round" stroke-width="1" opacity="0"/>
          <line id="Línea_2058" data-name="Línea 2058" x2="345.565" transform="translate(9.995 93.668)" fill="none" stroke="#263238" stroke-linecap="round" stroke-linejoin="round" stroke-width="1" opacity="0"/>
        </g>
        <g id="freepik--Lamp--inject-80" transform="translate(154.532 1.04)">
          <path id="Trazado_147080" data-name="Trazado 147080" d="M-6343.627,13796.263h9.916a3.294,3.294,0,0,1,3.293,3.293h0v10.016h-16.531v-10.016a3.293,3.293,0,0,1,3.292-3.293Z" transform="translate(6371.383 -13771.385)" fill="#344154"/>
          <circle id="Elipse_4338" data-name="Elipse 4338" cx="7.685" cy="7.685" r="7.685" transform="translate(24.78 42.847)" fill="#d9a171"/>
          <circle id="Elipse_4339" data-name="Elipse 4339" cx="7.685" cy="7.685" r="7.685" transform="translate(24.78 42.847)" fill="#fff" stroke="#5e6178" stroke-miterlimit="10" stroke-width="0" opacity="0.4" style="isolation: isolate"/>
          <path id="Trazado_147081" data-name="Trazado 147081" d="M-6299.241,13818.766H-6364.6l24.513-13.35h16.272Z" transform="translate(6364.598 -13767.864)" fill="#344154"/>
          <rect id="Rectángulo_33060" data-name="Rectángulo 33060" width="2.767" height="26.714" transform="translate(31.296)" fill="#344154"/>
        </g>
        <g id="freepik--Plant--inject-80" transform="translate(294.534 127.088)">
          <path id="Trazado_147082" data-name="Trazado 147082" d="M-6261.278,13878.973a12.168,12.168,0,0,0,3.57.4s-.545-1.656-.595-1.756c-.556-1.17-2.311-3.084-3.738-2.895a1.7,1.7,0,0,0-1.409,1.957,1.467,1.467,0,0,0,.041.184A3.56,3.56,0,0,0-6261.278,13878.973Z" transform="translate(6263.472 -13867.278)" fill="#344154"/>
          <path id="Trazado_147083" data-name="Trazado 147083" d="M-6228.13,13872.42c-1.429-.16-3.135,1.813-3.659,2.973,0,.109-.564,1.775-.545,1.775h0l-.863.992c-.565.693-1.19,1.477-1.814,2.369a34.152,34.152,0,0,0-1.885,2.975,23.206,23.206,0,0,0-1.605,3.619h0v-1.7c-.169-1.279-1.24-3.648-2.658-3.906a1.7,1.7,0,0,0-1.96,1.381,1.781,1.781,0,0,0-.022.215,3.528,3.528,0,0,0,1.368,2.678,11.945,11.945,0,0,0,3.232,1.477,30.67,30.67,0,0,0-.991,3.967c-.139.773-.248,1.559-.357,2.34v-.744c-.159-1.27-1.229-3.648-2.646-3.906a1.716,1.716,0,0,0-1.965,1.424,1.624,1.624,0,0,0-.02.184,3.575,3.575,0,0,0,1.369,2.666,11.262,11.262,0,0,0,3.143,1.449l-.119.9c-.169,1.447-.336,2.895-.545,4.3-.069.506-.158.992-.248,1.479v-.635c-.169-1.279-1.239-3.65-2.657-3.918a1.707,1.707,0,0,0-1.963,1.4,1.745,1.745,0,0,0-.021.2,3.572,3.572,0,0,0,1.369,2.676,10.9,10.9,0,0,0,3.043,1.41c-.1.5-.208.992-.336,1.477-.09.328-.16.645-.268.99s-.2.635-.309.994c-.208.594-.437,1.209-.654,1.783-.158.4-.307.783-.466,1.16.079-.5.209-1.469.209-1.547a6.609,6.609,0,0,0-.883-3.223,2.7,2.7,0,0,0,0-.377,1.705,1.705,0,0,0-1.905-1.479,1.759,1.759,0,0,0-.177.031c-1.4.367-2.28,2.814-2.34,4.105a11.868,11.868,0,0,0,.078,1.418c-.068-.3-.128-.6-.209-.9-.147-.615-.308-1.23-.485-1.885-.089-.316-.188-.633-.287-.99s-.229-.646-.337-.992c-.277-.754-.6-1.508-.922-2.252a11.016,11.016,0,0,0,3.213-1.209,3.585,3.585,0,0,0,1.565-2.559,1.716,1.716,0,0,0-1.68-1.75c-.055,0-.109,0-.165,0-1.437.16-2.677,2.439-2.975,3.7,0,.08-.1.992-.129,1.518-.208-.447-.415-.9-.634-1.348-.646-1.289-1.329-2.58-1.983-3.859l-.615-1.189a11.867,11.867,0,0,0,3.332-1.229,3.578,3.578,0,0,0,1.567-2.559,1.706,1.706,0,0,0-1.669-1.74,1.747,1.747,0,0,0-.176,0c-1.437.15-2.678,2.439-2.975,3.7,0,.088-.14,1.428-.159,1.766-.446-.873-.893-1.734-1.289-2.617a30.428,30.428,0,0,1-1.408-3.629,12.111,12.111,0,0,0,3.353-1.242,3.591,3.591,0,0,0,1.565-2.557,1.714,1.714,0,0,0-1.67-1.76,1.721,1.721,0,0,0-.174,0c-1.437.158-2.678,2.439-2.976,3.709,0,.1-.147,1.525-.147,1.795a1.833,1.833,0,0,0-.079-.219,22.851,22.851,0,0,1-.725-3.838c-.08-.725-.118-1.408-.14-2.082a11.062,11.062,0,0,0,3.382-.852,3.583,3.583,0,0,0,1.845-2.371,1.713,1.713,0,0,0-1.426-1.961,1.385,1.385,0,0,0-.221-.021c-1.437,0-2.925,2.131-3.321,3.361,0,.07-.169.764-.268,1.279v-.9c0-1.092.068-2.092.139-2.975a10.386,10.386,0,0,1,.139-1.379,11.486,11.486,0,0,0,2.6-2.311,3.538,3.538,0,0,0,.535-2.975,1.717,1.717,0,0,0-2.182-1.061c-.057.021-.113.043-.168.068-1.278.666-1.616,3.242-1.407,4.512,0,.109.5,1.795.524,1.775h0c-.06.406-.109.844-.169,1.318-.079.883-.177,1.883-.2,2.975a30.6,30.6,0,0,0,.081,3.541,23.191,23.191,0,0,0,.653,3.9v.051a15.134,15.134,0,0,0-.991-1.4c-.844-.992-3.044-2.361-4.373-1.795a1.706,1.706,0,0,0-.848,2.258,1.589,1.589,0,0,0,.084.162,3.577,3.577,0,0,0,2.618,1.475,12.226,12.226,0,0,0,3.52-.553,28.971,28.971,0,0,0,1.369,3.787c.308.725.644,1.438.991,2.152-.207-.309-.4-.576-.427-.605-.843-.99-3.044-2.359-4.373-1.795a1.706,1.706,0,0,0-.835,2.264,1.484,1.484,0,0,0,.081.156,3.577,3.577,0,0,0,2.618,1.479,11.605,11.605,0,0,0,3.411-.525l.407.813c.653,1.3,1.309,2.6,1.914,3.9.218.445.416.9.6,1.359-.179-.268-.338-.488-.367-.516-.843-.992-3.044-2.361-4.363-1.8a1.714,1.714,0,0,0-.845,2.273,1.493,1.493,0,0,0,.082.156,3.58,3.58,0,0,0,2.618,1.467,10.754,10.754,0,0,0,3.32-.5c.189.477.377.992.536,1.418.1.318.219.615.308.99l.268.992c.149.615.3,1.25.438,1.855.088.426.167.824.247,1.229-.209-.455-.636-1.338-.674-1.406-.686-1.092-2.648-2.8-4.047-2.441a1.706,1.706,0,0,0-1.181,2.1,1.689,1.689,0,0,0,.061.18,3.572,3.572,0,0,0,2.37,1.854,11.753,11.753,0,0,0,3.53,0c.139.674.258,1.318.367,1.98.376,2.145.614,3.967.753,5.2a1.777,1.777,0,0,0,.069.615h-4.343l1.586,30.92h7.4l1.587-30.92h-4.046l.089-.187c.556-1.16,1.329-2.816,2.162-4.85.258-.643.525-1.338.8-2.043a11.785,11.785,0,0,0,3.521.268,3.579,3.579,0,0,0,2.5-1.666,1.715,1.715,0,0,0-.789-2.293,1.439,1.439,0,0,0-.154-.066c-1.367-.455-3.461,1.09-4.224,2.131,0,.061-.457.775-.715,1.23.109-.289.22-.564.328-.873.218-.594.416-1.189.634-1.832.1-.318.188-.637.288-.994s.168-.662.258-.992c.188-.781.337-1.586.467-2.389a11.293,11.293,0,0,0,3.352.764,3.559,3.559,0,0,0,2.717-1.27,1.714,1.714,0,0,0-.43-2.387,1.515,1.515,0,0,0-.146-.092c-1.278-.654-3.58.555-4.492,1.467-.06.059-.635.783-.991,1.191.079-.486.157-.992.217-1.467.18-1.439.318-2.887.457-4.336a12.008,12.008,0,0,1,.139-1.328,12.069,12.069,0,0,0,3.461.814,3.591,3.591,0,0,0,2.716-1.281,1.7,1.7,0,0,0-.422-2.373,1.3,1.3,0,0,0-.152-.094c-1.279-.666-3.58.555-4.492,1.467-.069.068-.9,1.109-1.1,1.389.1-.992.209-1.984.357-2.9a29.786,29.786,0,0,1,.833-3.807,12.187,12.187,0,0,0,3.48.813,3.562,3.562,0,0,0,2.716-1.27,1.716,1.716,0,0,0-.427-2.389c-.049-.031-.1-.062-.147-.09-1.279-.654-3.58.557-4.492,1.467-.069.07-.991,1.2-1.12,1.408a1.642,1.642,0,0,0,.06-.219,21.9,21.9,0,0,1,1.508-3.6c.327-.646.684-1.24.991-1.816a11.344,11.344,0,0,0,3.292,1.16,3.57,3.57,0,0,0,2.845-.992,1.714,1.714,0,0,0-.16-2.42,1.424,1.424,0,0,0-.136-.107c-1.2-.793-3.62.158-4.631.99l-.922.922.485-.764c.6-.9,1.209-1.693,1.754-2.4.318-.395.605-.742.884-1.07a11.6,11.6,0,0,0,3.44-.484,3.6,3.6,0,0,0,2.072-2.174A1.7,1.7,0,0,0-6228.13,13872.42Zm-15.865,38.521c-.862,1.984-1.667,3.629-2.231,4.76l-.317.615h-.1a5.456,5.456,0,0,0-.1-.734c-.169-1.27-.447-3.084-.873-5.236-.139-.684-.287-1.406-.456-2.15a20.982,20.982,0,0,0,1.982-.922,12.766,12.766,0,0,0,2.866,1.854c-.277.625-.524,1.26-.782,1.814Z" transform="translate(6263.484 -13869.34)" fill="#344154"/>
          <path id="Trazado_147084" data-name="Trazado 147084" d="M-6242.429,13880s.466-1.678.477-1.8c.178-1.27-.229-3.836-1.527-4.471a1.718,1.718,0,0,0-2.27.861c-.019.043-.036.086-.052.131a3.572,3.572,0,0,0,.615,2.973A12.208,12.208,0,0,0-6242.429,13880Z" transform="translate(6270.228 -13867.708)" fill="#344154"/>
        </g>
        <g id="freepik--Characters--inject-80" transform="translate(60.58 78.583)">
          <path id="Trazado_147085" data-name="Trazado 147085" d="M-6383.731,13897.857l-8,23.59-7.794,53.289-28.9,71.891h9.083l42.024-68.639,12.95-42.391,18.146,44.3,3.2,67.262h9.589l5.89-71.525-11.75-55.342-2.5-11.752Z" transform="translate(6434.013 -13809.872)" fill="#344154" stroke="#263238" stroke-linecap="round" stroke-linejoin="round" stroke-width="1"/>
          <path id="Trazado_147086" data-name="Trazado 147086" d="M-6336.3,13852.82s-14.615-2.439-27.9.438-30.969,8.527-43.928,17.711a57.766,57.766,0,0,0-7.328,6.475l9.688,7.268s15.678-4.264,20.824-4.3a74.633,74.633,0,0,0,8.924-.8l-12.662,35.936s-.674,8.637,8.637,12.406,26.595,5.85,33.536.5c3.658-2.807,21.1-47.945,21.1-47.945s5.106,26.535,6.653,30.521a26.362,26.362,0,0,0,4.66,7.309l9.738-7.309s-5.335-26.1-7.328-34.705S-6321.257,13854.15-6336.3,13852.82Z" transform="translate(6438.997 -13827.554)" fill="#d9a171" stroke="#263238" stroke-linecap="round" stroke-linejoin="round" stroke-width="1"/>
          <path id="Trazado_147087" data-name="Trazado 147087" d="M-6371.636,13870.467l-15.28,1.994,11.959,3.1" transform="translate(6449.969 -13820.4)" fill="none" stroke="#263238" stroke-linecap="round" stroke-linejoin="round" stroke-width="1" opacity="0"/>
          <path id="Trazado_147088" data-name="Trazado 147088" d="M-6376.2,13854.631s5.325,8.865.446,17.938" transform="translate(6454.089 -13826.489)" fill="none" stroke="#263238" stroke-linecap="round" stroke-linejoin="round" stroke-width="1" opacity="0"/>
          <line id="Línea_2059" data-name="Línea 2059" y1="1.557" x2="10.184" transform="translate(113.556 51.396)" fill="none" stroke="#263238" stroke-linecap="round" stroke-linejoin="round" stroke-width="1" opacity="0"/>
          <line id="Línea_2060" data-name="Línea 2060" x2="13.516" y2="1.993" transform="translate(113.992 53.835)" fill="none" stroke="#263238" stroke-linecap="round" stroke-linejoin="round" stroke-width="1" opacity="0"/>
          <path id="Trazado_147089" data-name="Trazado 147089" d="M-6356.134,13850.635s-7.08,2.211-8.854,4.422-1.766,23.262-1.766,23.262l9.083-1.98,7.755,5.947s-.446-12.621-1.775-21.268S-6356.134,13850.635-6356.134,13850.635Z" transform="translate(6457.721 -13828.025)" fill="#d9a171" stroke="#263238" stroke-linecap="round" stroke-linejoin="round" stroke-width="1"/>
          <path id="Trazado_147090" data-name="Trazado 147090" d="M-6355.008,13846.912s-5.751,8.2-7.08,9.916-.446,11.3.219,14.627a43.888,43.888,0,0,0,1.982,6.643l9.083-9.527s-3.55-4.205-2.885-9.52,3.58-11.047,3.342-12.574S-6355.008,13846.912-6355.008,13846.912Z" transform="translate(6459.249 -13829.845)" fill="#ffe6d8" stroke="#263238" stroke-linecap="round" stroke-linejoin="round" stroke-width="1"/>
          <path id="Trazado_147091" data-name="Trazado 147091" d="M-6356.427,13855.123s-3.967,9.748-3.1,13.289,10.193,11.74,14.626,10.412,5.086-9.529,5.086-9.529,1.984.893,2.659.447.891-5.949.891-5.949a41.9,41.9,0,0,0,2.876-3.543,20.47,20.47,0,0,0,1.548-2.885s7.318-.217,6.653-6.861-13.07-16.172-21.935-16.172-12.176,10.184-12.176,13.268S-6356.427,13855.123-6356.427,13855.123Z" transform="translate(6460.45 -13834.291)" fill="#ffe6d8" stroke="#263238" stroke-linecap="round" stroke-linejoin="round" stroke-width="1"/>
          <path id="Trazado_147092" data-name="Trazado 147092" d="M-6343.47,13855.149a7.775,7.775,0,0,0-5.284-2.488" transform="translate(6464.641 -13827.245)" fill="#fff" stroke="#5e6178" stroke-linecap="round" stroke-linejoin="round" stroke-width="1"/>
          <path id="Trazado_147093" data-name="Trazado 147093" d="M-6345.385,13855.3l-.794,1.338s-1.864.486-2.567-.652" transform="translate(6464.643 -13826.233)" fill="#fff" stroke="#5e6178" stroke-linecap="round" stroke-linejoin="round" stroke-width="1"/>
          <path id="Trazado_147094" data-name="Trazado 147094" d="M-6324.708,13850.477c-.665-6.645-13.07-16.174-21.935-16.174s-12.177,10.225-12.177,13.309,2.876,7.523,2.876,7.523-3.967,9.748-3.1,13.289,10.193,11.74,14.626,10.412c3.49-1.051,4.641-6.355,4.958-8.557-3.152-3.4-7.863.209-10.51.99-2.876.883-5.763-3.1-5.763-5.324s2.887-8.191,3.551-9.3,4.205-.217,6.2-.437-.883-3.549-.437-5.543,7.08,4.879,9.738,6.426a5.958,5.958,0,0,0,5.315.219S-6324.054,13857.129-6324.708,13850.477Zm-19.277,21.715c3.322-.445,3.322.883,3.322.883-1.2,2.807-1.765,2.223-2.876,1.775S-6347.307,13872.639-6343.986,13872.191Z" transform="translate(6460.634 -13834.303)" fill="#344154" stroke="#263238" stroke-linecap="round" stroke-linejoin="round" stroke-width="1"/>
          <path id="Trazado_147095" data-name="Trazado 147095" d="M-6354.853,13852.152s.663-4.432-1.984-4.867-2.875,3.322-2.875,5.75,2.875,2.441,4.205,1.984" transform="translate(6460.427 -13829.327)" fill="#fff" stroke="#5e6178" stroke-linecap="round" stroke-linejoin="round" stroke-width="1"/>
          <path id="Trazado_147096" data-name="Trazado 147096" d="M-6357.029,13841.838a4.769,4.769,0,0,0-1.358,1.3" transform="translate(6460.936 -13831.406)" fill="none" stroke="#fff" stroke-linecap="round" stroke-linejoin="round" stroke-width="0.5" opacity="0"/>
          <path id="Trazado_147097" data-name="Trazado 147097" d="M-6340.18,13850.477a23.041,23.041,0,0,1-8.488-6.256c-2.36-2.729-5.077-3.373-7.249-2.975" transform="translate(6461.887 -13831.676)" fill="none" stroke="#fff" stroke-linecap="round" stroke-linejoin="round" stroke-width="0.5" opacity="0"/>
          <path id="Trazado_147098" data-name="Trazado 147098" d="M-6348.239,13850.17s-1.981-6.863-10.291-4.641" transform="translate(6460.881 -13830.159)" fill="none" stroke="#fff" stroke-linecap="round" stroke-linejoin="round" stroke-width="0.5" opacity="0"/>
          <path id="Trazado_147099" data-name="Trazado 147099" d="M-6416.541,13882.191s2.975-4.7,6.7-3.371a24.829,24.829,0,0,1,7.308,4.648l3.322-5.314s.664-5.533-5.315-8.406-9.3-.447-9.3-.447C-6416.105,13869.727-6418.972,13880.912-6416.541,13882.191Z" transform="translate(6438.224 -13821.217)" fill="#d9a171" stroke="#263238" stroke-linecap="round" stroke-linejoin="round" stroke-width="1"/>
          <path id="Trazado_147100" data-name="Trazado 147100" d="M-6330.589,13891.4a35.2,35.2,0,0,0-9.748,4.43,11.515,11.515,0,0,0-4.65,6.645s5.1,5.533,6.2,5.533,9.529-9.3,10.41-10.184S-6330.589,13891.4-6330.589,13891.4Z" transform="translate(6466.089 -13812.355)" fill="#d9a171" stroke="#263238" stroke-linecap="round" stroke-linejoin="round" stroke-width="1"/>
          <path id="Trazado_147101" data-name="Trazado 147101" d="M-6304.265,13910.2s-.217,3.105-1.109,3.77-4.869,0-4.869,0-2.657-3.77-1.557-5.314,3.1-1.113,4.432-.664A10.9,10.9,0,0,1-6304.265,13910.2Z" transform="translate(6478.744 -13806.135)" fill="#fff" stroke="#5e6178" stroke-linecap="round" stroke-linejoin="round" stroke-width="1"/>
          <path id="Trazado_147102" data-name="Trazado 147102" d="M-6330.466,13896.037l23.661,12.178,8.637,1.109s10.63,5.314,10.63,6.2-1.1,1.34-1.982,1.111-7.309-2.875-8.637-2.875-2.44.438-2.212,1.547,3.321,5.76,1.547,5.76-3.54-4.432-4.433-4.879a34.251,34.251,0,0,1-3.967-3.756s-20.378-4.215-25.027-4.881a17.036,17.036,0,0,1-7.309-2.658Z" transform="translate(6468.175 -13810.57)" fill="#ffe6d8" stroke="#263238" stroke-linecap="round" stroke-linejoin="round" stroke-width="1"/>
          <path id="Trazado_147103" data-name="Trazado 147103" d="M-6417.8,14005.321l2.847,4.076a12.888,12.888,0,0,0,4.621,4.035l5.513,2.848a1.129,1.129,0,0,1,.615.99h0a1.141,1.141,0,0,1-1.14,1.143c-.02,0-.04,0-.061,0-5.175-.268-25.455-1.3-26.157-1.3s-1.081-1.082-.814-4.332,5.5-7.479,5.5-7.479Z" transform="translate(6432.461 -13768.565)" fill="#fff" stroke="#5e6178" stroke-linecap="round" stroke-linejoin="round" stroke-width="1"/>
          <path id="Trazado_147104" data-name="Trazado 147104" d="M-6355.769,14005.321l2.846,4.076a12.884,12.884,0,0,0,4.62,4.035l5.5,2.848a1.117,1.117,0,0,1,.624.99h0a1.142,1.142,0,0,1-1.14,1.143c-.019,0-.04,0-.061,0-5.176-.268-25.454-1.3-26.159-1.3s-1.09-1.082-.812-4.332,5.5-7.479,5.5-7.479Z" transform="translate(6456.305 -13768.565)" fill="#fff" stroke="#5e6178" stroke-linecap="round" stroke-linejoin="round" stroke-width="1"/>
          <path id="Trazado_147105" data-name="Trazado 147105" d="M-6412.787,13905.295s-2.976,4.75-2.151,8.658,8.091,20.922,13.485,36.551,4.313,32.643,4.313,37.68-.268,8.646,3.511,10.6,9.707.844,11.324-2.785,2.7-26.771-.269-40.746-13.485-38.5-16.182-44.086S-6402.8,13897.76-6412.787,13905.295Z" transform="translate(6439.142 -13808.206)" fill="#fff" stroke="#5e6178" stroke-miterlimit="10" stroke-width="0"/>
          <g id="Grupo_92188" data-name="Grupo 92188" transform="translate(24.059 93.978)">
            <g id="Grupo_92187" data-name="Grupo 92187" clip-path="url(#clip-path)">
              <g id="Grupo_92186" data-name="Grupo 92186" transform="translate(-3.967)">
                <path id="Trazado_147106" data-name="Trazado 147106" d="M-6412.787,13905.295s-2.976,4.75-2.151,8.658,8.091,20.922,13.485,36.551,4.313,32.643,4.313,37.68-.268,8.646,3.511,10.6,9.707.844,11.324-2.785,2.7-26.771-.269-40.746-13.485-38.5-16.182-44.086S-6402.8,13897.76-6412.787,13905.295Z" transform="translate(6419.05 -13902.184)" fill="#344154" opacity="0.25" style="isolation: isolate"/>
                <path id="Trazado_147107" data-name="Trazado 147107" d="M-6415.652,13907.443s-2.975,4.75-2.151,8.658,8.091,20.922,13.485,36.551,4.313,32.645,4.313,37.68-.268,8.648,3.51,10.6,9.708.842,11.325-2.787,2.7-26.773-.269-40.746-13.485-38.5-16.183-44.084S-6405.667,13899.908-6415.652,13907.443Z" transform="translate(6417.948 -13901.358)" fill="#344154" opacity="0.25" style="isolation: isolate"/>
              </g>
            </g>
          </g>
          <path id="Trazado_147108" data-name="Trazado 147108" d="M-6412.787,13905.295s-2.976,4.75-2.151,8.658,8.091,20.922,13.485,36.551,4.313,32.643,4.313,37.68-.268,8.646,3.511,10.6,9.707.844,11.324-2.785,2.7-26.771-.269-40.746-13.485-38.5-16.182-44.086S-6402.8,13897.76-6412.787,13905.295Z" transform="translate(6439.142 -13808.206)" fill="none" stroke="#263238" stroke-linecap="round" stroke-linejoin="round" stroke-width="1" opacity="0"/>
          <path id="Trazado_147109" data-name="Trazado 147109" d="M-6416.24,13876.327a37.291,37.291,0,0,0,2.19,15.289c1.736,4.74,10.988,19.693,10.988,19.693s-7.756,2.887-9.966,4.879-4.88,8.408-3.55,8.637,6.207-5.314,7.317-5.762,7.525-.883,7.525-.883-1.327,1.816-2.358,3.492a7.681,7.681,0,0,0-1.182,2.488c0,1.1,1.548.881,2.431-.895s3.55-1.545,4.433-5.529a19.312,19.312,0,0,0-.446-8.42l-3.878-28.57S-6406.751,13872.726-6416.24,13876.327Z" transform="translate(6438.43 -13818.505)" fill="#ffe6d8" stroke="#263238" stroke-linecap="round" stroke-linejoin="round" stroke-width="1"/>
          <path id="Trazado_147110" data-name="Trazado 147110" d="M-6416.676,13913.258s3.073-6.613,6.455-7.744" transform="translate(6438.528 -13806.929)" fill="none" stroke="#263238" stroke-linecap="round" stroke-linejoin="round" stroke-width="1" opacity="0"/>
          <path id="Trazado_147111" data-name="Trazado 147111" d="M-6416.082,13909.852a24.7,24.7,0,0,1,5.067-5.355" transform="translate(6438.757 -13807.318)" fill="none" stroke="#263238" stroke-linecap="round" stroke-linejoin="round" stroke-width="1" opacity="0"/>
          <rect id="Rectángulo_33061" data-name="Rectángulo 33061" width="3.619" height="34.875" transform="translate(79.9 187.314)" fill="#fff" stroke="#5e6178" stroke-linecap="round" stroke-linejoin="round" stroke-width="1"/>
          <path id="Trazado_147112" data-name="Trazado 147112" d="M-6357.36,13997.459v-5.881h-9.192v5.93l-36.759,14.123v6.959h2.509v-5.295l38.98-8.23,37.948,8.23v5.295h2.439v-6.959Z" transform="translate(6443.667 -13773.841)" fill="#fff" stroke="#5e6178" stroke-linecap="round" stroke-linejoin="round" stroke-width="1"/>
          <rect id="Rectángulo_33062" data-name="Rectángulo 33062" width="18.097" height="11.136" transform="translate(72.662 187.314)" fill="#fff" stroke="#5e6178" stroke-linecap="round" stroke-linejoin="round" stroke-width="1"/>
          <circle id="Elipse_4340" data-name="Elipse 4340" cx="3.897" cy="3.897" r="3.897" transform="translate(32.561 241.129)" fill="#344154" stroke="#263238" stroke-linecap="round" stroke-linejoin="round" stroke-width="1"/>
          <path id="Trazado_147113" data-name="Trazado 147113" d="M-6403.985,14011.756a1.677,1.677,0,0,0-1.676-1.678,1.678,1.678,0,0,0-1.676,1.678,1.676,1.676,0,0,0,1.676,1.674,1.675,1.675,0,0,0,1.676-1.674Z" transform="translate(6442.119 -13766.728)" fill="#fff" stroke="#5e6178" stroke-linecap="round" stroke-linejoin="round" stroke-width="1"/>
          <circle id="Elipse_4341" data-name="Elipse 4341" cx="3.897" cy="3.897" r="3.897" transform="translate(122.51 241.129)" fill="#344154" stroke="#263238" stroke-linecap="round" stroke-linejoin="round" stroke-width="1"/>
          <circle id="Elipse_4342" data-name="Elipse 4342" cx="1.676" cy="1.676" r="1.676" transform="translate(124.731 243.35)" fill="#fff" stroke="#5e6178" stroke-linecap="round" stroke-linejoin="round" stroke-width="1"/>
          <path id="Trazado_147114" data-name="Trazado 147114" d="M-6370.958,14017.49h-3.063l-1.527-20.883h6.128Z" transform="translate(6454.339 -13771.909)" fill="#fff" stroke="#5e6178" stroke-linecap="round" stroke-linejoin="round" stroke-width="1"/>
          <rect id="Rectángulo_33063" data-name="Rectángulo 33063" width="3.064" height="8.637" transform="translate(80.178 241.129)" fill="#344154" stroke="#263238" stroke-linecap="round" stroke-linejoin="round" stroke-width="1"/>
          <path id="Trazado_147115" data-name="Trazado 147115" d="M-6363.335,13927.742s24.464-3.846,26.773-4.234,6.743,2.7,8.856,4.234,11.75,7.318,10.6,7.705-5.008-1.15-7.517-2.113-4.434-1.734-4.434-1.734a31.37,31.37,0,0,0,3.085,3.66c.991.773.586,1.348-2.112.188a13.2,13.2,0,0,1-5.8-4.621c-.991-1.537-2.509-4.234-2.509-4.234s-21.181,7.934-24.651,9.053-8.864,1.15-8.666-2.508S-6363.335,13927.742-6363.335,13927.742Z" transform="translate(6456.582 -13800.023)" fill="#fff" stroke="#5e6178" stroke-linecap="round" stroke-linejoin="round" stroke-width="1"/>
          <path id="Trazado_147116" data-name="Trazado 147116" d="M-6332.635,13927.742c-2.113-1.535-6.546-4.621-8.856-4.234-1.229.211-8.666,1.379-15.4,2.439l.863,6.1c6.941-2.539,14.726-5.455,14.726-5.455s1.547,2.7,2.509,4.234a13.207,13.207,0,0,0,5.78,4.621c2.7,1.16,3.075.586,2.112-.187a31.37,31.37,0,0,1-3.085-3.66s1.935.775,4.434,1.734,6.355,2.5,7.517,2.113S-6330.514,13929.289-6332.635,13927.742Z" transform="translate(6461.512 -13800.023)" fill="#fff" stroke="#5e6178" stroke-linecap="round" stroke-linejoin="round" stroke-width="1"/>
          <line id="Línea_2061" data-name="Línea 2061" x2="9.252" y2="5.583" transform="translate(130.224 129.842)" fill="none" stroke="#263238" stroke-linecap="round" stroke-linejoin="round" stroke-width="1" opacity="0"/>
          <path id="Trazado_147117" data-name="Trazado 147117" d="M-6339.271,13887.043s5.394-3.471,4.432-7.318-16.945-9.639-24.651-7.932-10.213,9.629-12.335,15.408-10.779,30.631-10.779,30.631,6.356,7.121,14.448,3.461,15.409-23.492,19.068-27.537S-6339.271,13887.043-6339.271,13887.043Z" transform="translate(6451.626 -13820.01)" fill="#344154" stroke="#263238" stroke-linecap="round" stroke-linejoin="round" stroke-width="1"/>
          <path id="Trazado_147118" data-name="Trazado 147118" d="M-6355.294,13873.7s3.431,2.42,4.443,4.641-.208,3.432-.208,3.432" transform="translate(6462.126 -13819.158)" fill="none" stroke="#fff" stroke-linecap="round" stroke-linejoin="round" stroke-width="0.5" opacity="0"/>
          <path id="Trazado_147119" data-name="Trazado 147119" d="M-6344.843,13875.3a47.894,47.894,0,0,1-14.339,10.293c-8.281,3.641-13.934,6.662-16.561,9.7" transform="translate(6454.264 -13818.543)" fill="none" stroke="#fff" stroke-linecap="round" stroke-linejoin="round" stroke-width="0.5" opacity="0"/>
          <path id="Trazado_147120" data-name="Trazado 147120" d="M-6377.384,13893.423a29.853,29.853,0,0,0-1.131,2.975" transform="translate(6453.199 -13811.575)" fill="none" stroke="#fff" stroke-linecap="round" stroke-linejoin="round" stroke-width="0.5" opacity="0"/>
          <path id="Trazado_147121" data-name="Trazado 147121" d="M-6354.459,13875.926a53.089,53.089,0,0,1-5.713,4.789c-5.611,4.125-12.573,9.6-16.687,17.084" transform="translate(6453.835 -13818.303)" fill="none" stroke="#fff" stroke-linecap="round" stroke-linejoin="round" stroke-width="0.5" opacity="0"/>
          <path id="Trazado_147122" data-name="Trazado 147122" d="M-6358.074,13873.26a13.083,13.083,0,0,1-1.131,1.508" transform="translate(6460.622 -13819.326)" fill="none" stroke="#fff" stroke-linecap="round" stroke-linejoin="round" stroke-width="0.5" opacity="0"/>
          <path id="Trazado_147123" data-name="Trazado 147123" d="M-6366.416,13897.377s-13.883,5.949-17.918,8.092-4.81,6.355-4.81,10.016,5.215,31.205,5.215,31.205h22.709s4.046-8.092,6.94-10.787,5.2-8.084,4.046-11.752-2.319-5.582-2.319-9.24-.765-8.281-3.659-11.176S-6360.636,13896.227-6366.416,13897.377Z" transform="translate(6449.113 -13810.126)" fill="#fff" stroke="#5e6178" stroke-linecap="round" stroke-linejoin="round" stroke-width="1"/>
          <path id="Trazado_147124" data-name="Trazado 147124" d="M-6336.693,13981.5c.5,2.52,2.509,5.643,3.5,8.031,1.983,4.85,5.633,12.535,7.834,17.3,3.124,6.8,5.464,15.607,5.037,16.2a14.8,14.8,0,0,0-1.457,4.811c0,1.2.832,11.4.832,11.4h1.468l1.041-6.01s3.333.209,4.374,1.2,2.291,3.2,4.164,4.205,10.412,1.4,10.412,1.4,1.458-.793-.416-2.4-4.789-3.8-6.456-6.2-6.456-8.2-6.456-8.2-10.837-59.408-11.671-61.967-3.539-8.2-6.038-8.795-11.047-1.457-11.047-1.457l-.406,10.252s1.983-.395,4.254,4.2C-6336.317,13968.226-6338.132,13974.1-6336.693,13981.5Z" transform="translate(6467.245 -13789.43)" fill="#ffe6d8" stroke="#263238" stroke-linecap="round" stroke-linejoin="round" stroke-width="1"/>
          <path id="Trazado_147125" data-name="Trazado 147125" d="M-6309.2,14013.924c-4.959,1.645-10.086-3.271-12.347-5.85a13.674,13.674,0,0,0-5.225-3.531,11,11,0,0,0-.615,2.738c0,1.2.832,11.4.832,11.4h1.468l1.041-6.01s3.333.209,4.374,1.2,2.291,3.2,4.164,4.205,10.412,1.4,10.412,1.4,1.458-.793-.416-2.4C-6306.524,14016.2-6307.913,14015.084-6309.2,14013.924Z" transform="translate(6472.854 -13768.857)" fill="#344154" stroke="#263238" stroke-linecap="round" stroke-linejoin="round" stroke-width="1"/>
          <path id="Trazado_147126" data-name="Trazado 147126" d="M-6325.679,13949.227s9.073,2.539,8.509,4.492-14.19,42.738-19.3,52.307-7,17.186-6.436,19.527,5.306,9.963,6.813,11.135,5.294,3.123,4.729,3.322a82.952,82.952,0,0,1-12.107,0c-.934-.111-6.238-6.447-7.189-6.844l-.991-.387v7.031h-2l-.754-10.738a16.39,16.39,0,0,1,2.836-5.475c1.895-2.143,3.778-4.492,5.483-10.344s7.934-35.906,8.924-41.963a47.671,47.671,0,0,1,3.343-11.295Z" transform="translate(6462.467 -13790.124)" fill="#ffe6d8" stroke="#263238" stroke-linecap="round" stroke-linejoin="round" stroke-width="1"/>
          <path id="Trazado_147127" data-name="Trazado 147127" d="M-6336.076,14015.7a9.023,9.023,0,0,1-1.35-1.537,9.322,9.322,0,0,1-4.312-.785c-2.46-1.367-4.731-4.49-6.813-6.84a12.972,12.972,0,0,0-3.906-2.729,18.12,18.12,0,0,0-1.982,4.295l.753,10.738h2.082v-7.051l.991.387c.993.4,6.258,6.732,7.189,6.844a82.965,82.965,0,0,0,12.108,0C-6330.782,14018.826-6334.561,14016.873-6336.076,14015.7Z" transform="translate(6462.454 -13769.138)" fill="#344154" stroke="#263238" stroke-linecap="round" stroke-linejoin="round" stroke-width="1"/>
          <path id="Trazado_147128" data-name="Trazado 147128" d="M-6384.824,13932.957s-1.754,21.41-1.982,28.35,5.582,13.676,13.486,14.449,54.935-5.623,54.935-5.623l7.705-14.061s-22.729-5.781-30.434-7.934-15.021-3.471-15.021-3.471l-5.951-11.75Z" transform="translate(6450.008 -13796.394)" fill="#6595bf" stroke="#263238" stroke-linecap="round" stroke-linejoin="round" stroke-width="1"/>
          <path id="Trazado_147129" data-name="Trazado 147129" d="M-6366.011,13906.794l3.856,6.742s-1.349-7.121-2.122-9.629-2.885-1.734-2.885-.387a18.842,18.842,0,0,0,.793,3.967" transform="translate(6457.563 -13808.178)" fill="#d9a171" stroke="#263238" stroke-linecap="round" stroke-linejoin="round" stroke-width="1"/>
          <path id="Trazado_147130" data-name="Trazado 147130" d="M-6364.107,13888.863l-6.644,10.629,5.762,13.506s3.54-8.189,5.314-10.184,4.869-4.879,4.869-4.879-5.533-6.643-5.949-8.408S-6363.66,13887.088-6364.107,13888.863Z" transform="translate(6456.184 -13813.729)" fill="#ffe6d8" stroke="#263238" stroke-linecap="round" stroke-linejoin="round" stroke-width="1"/>
          <path id="Trazado_147131" data-name="Trazado 147131" d="M-6370.655,13894.826l-3.461,3.461,6.158,17.73,4.62-6.367Z" transform="translate(6454.889 -13811.036)" fill="#d9a171" stroke="#263238" stroke-linecap="round" stroke-linejoin="round" stroke-width="1"/>
          <path id="Trazado_147132" data-name="Trazado 147132" d="M-6387.06,13919.546s10.015,22.539,12.138,27.16,6.743,5.582,10.978,5.582,30.779-.754,30.779-.754,14.636.576,17.145,0,6.545-4.045,7.318-4.045,5.007,3.848,5.949,3.848,1.548-.576.773-1.924-3.857-7.318-5.95-7.508-11.175,5.771-11.175,5.771-15.022-2.111-22.915-4.234-20.229-6.939-20.229-6.939a162.728,162.728,0,0,1-7.13-14.873c-2.122-5.623-2.5-13.1-6.355-16.184s-8.667.387-8.667.387" transform="translate(6449.914 -13807.445)" fill="#fff" stroke="#5e6178" stroke-linecap="round" stroke-linejoin="round" stroke-width="1"/>
          <path id="Trazado_147133" data-name="Trazado 147133" d="M-6322.682,13931.423c-2.122-.2-11.175,5.771-11.175,5.771s-7.525-1.062-14.725-2.43l.188,6.295h.436s14.636.576,17.145,0,6.545-4.045,7.318-4.045,5.007,3.848,5.949,3.848,1.548-.576.773-1.924S-6320.569,13931.61-6322.682,13931.423Z" transform="translate(6464.706 -13796.972)" fill="#fff" stroke="#5e6178" stroke-linecap="round" stroke-linejoin="round" stroke-width="1"/>
          <path id="Trazado_147134" data-name="Trazado 147134" d="M-6330.152,13933.921s5.2,3.658,6.355,5.395" transform="translate(6471.791 -13796.008)" fill="none" stroke="#263238" stroke-linecap="round" stroke-linejoin="round" stroke-width="1" opacity="0"/>
          <line id="Línea_2062" data-name="Línea 2062" x2="4.621" y2="3.857" transform="translate(142.213 136.177)" fill="none" stroke="#263238" stroke-linecap="round" stroke-linejoin="round" stroke-width="1" opacity="0"/>
          <path id="Trazado_147135" data-name="Trazado 147135" d="M-6346.6,13879.449a61.38,61.38,0,0,1,1.469,6.484c.218,1.984-1.329,3.1-.664,4.205s2.368,4.582,1.486,5.018a6.845,6.845,0,0,1-2.438.445s-4.056,7.547-4.958,8.926-7.09-1.766-9.977-3.094-3.094-7.756-3.094-7.756l-.228-4.432S-6351.024,13884.1-6346.6,13879.449Z" transform="translate(6458.393 -13816.947)" fill="#ffe6d8" stroke="#263238" stroke-linecap="round" stroke-linejoin="round" stroke-width="1"/>
          <path id="Trazado_147136" data-name="Trazado 147136" d="M-6354.062,13885.133c2.876-3.49,2.836.367,2.836.367" transform="translate(6462.6 -13815.325)" fill="#fff" stroke="#5e6178" stroke-linecap="round" stroke-linejoin="round" stroke-width="1"/>
          <path id="Trazado_147137" data-name="Trazado 147137" d="M-6352.694,13888.174c-.258.813-.724,1.389-1.051,1.291s-.378-.844-.13-1.656.724-1.389,1.052-1.279S-6352.447,13887.371-6352.694,13888.174Z" transform="translate(6462.611 -13814.23)" fill="#344154"/>
          <path id="Trazado_147138" data-name="Trazado 147138" d="M-6362.453,13889.043s-1.556-5.543-3.32-4.432-2.658,5.314-.894,7.535,4.65.885,4.65.885" transform="translate(6457.386 -13815.02)" fill="#ffe6d8" stroke="#263238" stroke-linecap="round" stroke-linejoin="round" stroke-width="1"/>
          <rect id="Rectángulo_33064" data-name="Rectángulo 33064" width="58.511" height="15.605" rx="3.038" transform="matrix(1, -0.03, 0.03, 1, 52.945, 177.429)" fill="#fff" stroke="#5e6178" stroke-miterlimit="10" stroke-width="0"/>
          <g id="Grupo_92191" data-name="Grupo 92191" transform="translate(52.945 175.674)">
            <g id="Grupo_92190" data-name="Grupo 92190" clip-path="url(#clip-path-2)">
              <g id="Grupo_92189" data-name="Grupo 92189">
                <rect id="Rectángulo_33065" data-name="Rectángulo 33065" width="58.511" height="15.605" rx="3.038" transform="matrix(1, -0.03, 0.03, 1, 0, 1.755)" fill="#344154" opacity="0.25" style="isolation: isolate"/>
                <rect id="Rectángulo_33066" data-name="Rectángulo 33066" width="58.485" height="15.598" rx="3.037" transform="translate(0.439 5.443) rotate(-1.81)" fill="#344154" opacity="0.25" style="isolation: isolate"/>
              </g>
            </g>
          </g>
          <rect id="Rectángulo_33067" data-name="Rectángulo 33067" width="58.511" height="15.605" rx="3.038" transform="matrix(1, -0.03, 0.03, 1, 52.945, 177.429)" fill="none" stroke="#263238" stroke-linecap="round" stroke-linejoin="round" stroke-width="1" opacity="0"/>
          <path id="Trazado_147139" data-name="Trazado 147139" d="M-6353.455,13977.387a1.955,1.955,0,0,1-.774-.158,1.981,1.981,0,0,1-1.117-2.57l.028-.066c3.252-7.834,6.94-21.816,3.162-25.98-.892-.615-6.267-1.924-35.241.734l-2.1.188c-1.983.158-3.758,2.738-4.205,3.629a2.022,2.022,0,0,1-2.712.9,2.022,2.022,0,0,1-.9-2.713c.279-.555,2.876-5.482,7.5-5.84l2.053-.18c30.869-2.836,36.789-1.406,38.583.547,6.8,7.426-1.448,27.953-2.409,30.273A1.98,1.98,0,0,1-6353.455,13977.387Z" transform="translate(6445.89 -13792.233)" fill="#fff" stroke="#5e6178" stroke-linecap="round" stroke-linejoin="round" stroke-width="1"/>
        </g>
        <g id="freepik--Desk--inject-80" transform="translate(166.907 166.045)">
          <rect id="Rectángulo_33068" data-name="Rectángulo 33068" width="158.955" height="11.136" transform="translate(3.907 58.652)" fill="#d9a171" stroke="#263238" stroke-linecap="round" stroke-linejoin="round" stroke-width="1"/>
          <rect id="Rectángulo_33069" data-name="Rectángulo 33069" width="34.607" height="7.536" transform="translate(33.923 54.159)" fill="#fff" stroke="#5e6178" stroke-linecap="round" stroke-linejoin="round" stroke-width="1"/>
          <rect id="Rectángulo_33070" data-name="Rectángulo 33070" width="34.607" height="5.583" transform="translate(101.045 47.04)" fill="#fff" stroke="#5e6178" stroke-linecap="round" stroke-linejoin="round" stroke-width="1"/>
          <rect id="Rectángulo_33071" data-name="Rectángulo 33071" width="34.607" height="5.583" transform="translate(102.443 41.457)" fill="#fff" stroke="#5e6178" stroke-linecap="round" stroke-linejoin="round" stroke-width="1"/>
          <rect id="Rectángulo_33072" data-name="Rectángulo 33072" width="34.607" height="9.212" transform="translate(103.137 52.484)" fill="#fff" stroke="#5e6178" stroke-linecap="round" stroke-linejoin="round" stroke-width="1"/>
          <rect id="Rectángulo_33073" data-name="Rectángulo 33073" width="158.955" height="5.305" transform="translate(3.907 58.899)" fill="#344154" stroke="#263238" stroke-linecap="round" stroke-linejoin="round" stroke-width="1"/>
          <path id="Trazado_147140" data-name="Trazado 147140" d="M-6351.7,14043.526h0a1.111,1.111,0,0,1-1.11-1.1l-.725-102.4h3.659l-.724,102.4a1.1,1.1,0,0,1-1.1,1.1Z" transform="translate(6356.477 -13881.123)" fill="#d9a171" stroke="#263238" stroke-linecap="round" stroke-linejoin="round" stroke-width="1"/>
          <path id="Trazado_147141" data-name="Trazado 147141" d="M-6238.209,14043.526h0a1.1,1.1,0,0,1-1.1-1.1l-.725-102.4h3.659l-.724,102.4A1.12,1.12,0,0,1-6238.209,14043.526Z" transform="translate(6400.109 -13881.123)" fill="#d9a171" stroke="#263238" stroke-linecap="round" stroke-linejoin="round" stroke-width="1"/>
          <path id="Trazado_147142" data-name="Trazado 147142" d="M-6285.656,13946.928h-17.136a1.239,1.239,0,0,1-1.238-1.24,1.239,1.239,0,0,1,1.238-1.238h17.136a2.967,2.967,0,0,0,2.171-.99,2.982,2.982,0,0,0,.655-2.76l-6.078-21.812a1.241,1.241,0,0,1,.861-1.529h0a1.251,1.251,0,0,1,1.527.863l6.077,21.814a5.414,5.414,0,0,1-3.768,6.666,5.411,5.411,0,0,1-1.447.2Z" transform="translate(6375.506 -13889.853)" fill="#fff" stroke="#5e6178" stroke-linecap="round" stroke-linejoin="round" stroke-width="1"/>
          <rect id="Rectángulo_33074" data-name="Rectángulo 33074" width="50.512" height="3.907" transform="matrix(0.119, -0.993, 0.993, 0.119, 77.811, 50.153)" fill="#fff" stroke="#5e6178" stroke-linecap="round" stroke-linejoin="round" stroke-width="1"/>
          <path id="Trazado_147143" data-name="Trazado 147143" d="M-6290.592,13897.8a75.644,75.644,0,0,1-6.019,50.156Z" transform="translate(6378.359 -13897.355)" fill="#344154" stroke="#263238" stroke-linecap="round" stroke-linejoin="round" stroke-width="1"/>
          <path id="Trazado_147144" data-name="Trazado 147144" d="M-6314.549,13939.115a4.591,4.591,0,0,1-2.062-.547,5.384,5.384,0,0,1-2.974-5.137,3.39,3.39,0,0,1,1.368-2.557c1.716-1.23,4.313-.637,4.611-.557a.993.993,0,0,1,.719,1.205.992.992,0,0,1-1.205.719,4.422,4.422,0,0,0-2.975.238,1.363,1.363,0,0,0-.535,1.109,3.394,3.394,0,0,0,1.894,3.225,1.744,1.744,0,0,0,1.784.117,1,1,0,0,1,1.4.129.992.992,0,0,1-.129,1.4A2.979,2.979,0,0,1-6314.549,13939.115Z" transform="translate(6369.523 -13884.936)" fill="#fff" stroke="#5e6178" stroke-linecap="round" stroke-linejoin="round" stroke-width="1"/>
          <path id="Trazado_147145" data-name="Trazado 147145" d="M-6306.9,13941.1c-1.289,1.07-5.415,1.07-6.7,0-2.3-1.914-2.229-11.762-2.229-11.762h11.165S-6304.6,13939.19-6306.9,13941.1Z" transform="translate(6370.968 -13885.229)" fill="#fff" stroke="#5e6178" stroke-linecap="round" stroke-linejoin="round" stroke-width="1"/>
          <rect id="Rectángulo_33075" data-name="Rectángulo 33075" width="166.768" height="4.621" transform="translate(0 56.47)" fill="#d9a171" stroke="#263238" stroke-linecap="round" stroke-linejoin="round" stroke-width="1"/>
        </g>
        <g id="freepik--Floor--inject-80" transform="translate(0 327.675)">
          <rect id="Rectángulo_33076" data-name="Rectángulo 33076" width="366.419" height="6.634" fill="#344154"/>
        </g>
      </g>
    </g>
    <g id="Grupo_92233" data-name="Grupo 92233" transform="translate(2050.249 17353.217)">
      <rect id="Rectángulo_33126" data-name="Rectángulo 33126" width="175.933" height="110.202" transform="translate(-889.182 3132.759)" fill="#fff"/>
      <rect id="Rectángulo_33127" data-name="Rectángulo 33127" width="175.933" height="10.099" transform="translate(-889.182 3132.759)" fill="#5e6178"/>
      <rect id="Rectángulo_33128" data-name="Rectángulo 33128" width="176" height="19.869" transform="translate(-889.248 3240.772)" fill="#aed3f2"/>
      <path id="Trazado_147403" data-name="Trazado 147403" d="M-862.491,3271.356l-1.292-.188-.58-1.172-.577,1.172-1.294.188.937.912-.012.063-.21,1.225,1.156-.609,1.156.609-.22-1.288.044-.044Z" transform="translate(-3.633 -21.666)" fill="none" opacity="0"/>
      <path id="Trazado_147404" data-name="Trazado 147404" d="M-874.078,3270.357a.774.774,0,0,0-.775.774.775.775,0,0,0,.775.775.775.775,0,0,0,.774-.775A.774.774,0,0,0-874.078,3270.357Z" transform="translate(-2.273 -21.723)" fill="none" opacity="0"/>
      <path id="Trazado_147405" data-name="Trazado 147405" d="M-846.442,3272.017h1.574l.5,1.03h.339l-1.576-3.289h-.087l-1.579,3.289h.342Zm.789-1.64.637,1.333h-1.276Z" transform="translate(-6.626 -21.628)" fill="#344154"/>
      <rect id="Rectángulo_33129" data-name="Rectángulo 33129" width="3.727" height="0.263" transform="translate(-854.153 3252.119)" fill="#344154"/>
      <path id="Trazado_147406" data-name="Trazado 147406" d="M-874.077,3269.539h-.252a1.387,1.387,0,0,0-1.309,1.413,5.869,5.869,0,0,0,1.309,2.8s.1.172.252,0a5.869,5.869,0,0,0,1.309-2.8A1.387,1.387,0,0,0-874.077,3269.539Zm-.125,2.238a.775.775,0,0,1-.775-.775.774.774,0,0,1,.775-.774.774.774,0,0,1,.774.774A.775.775,0,0,1-874.2,3271.777Z" transform="translate(-2.149 -21.594)" fill="#344154"/>
      <path id="Trazado_147407" data-name="Trazado 147407" d="M-853.4,3272.826a.8.8,0,0,1-.8.8.8.8,0,0,1-.8-.8v-2.577a.517.517,0,0,1,.516-.516.517.517,0,0,1,.516.516v2.186h0a.3.3,0,0,1-.286.229.3.3,0,0,1-.287-.233v-1.683h-.193v1.609h0v.078h.008a.483.483,0,0,0,.472.412.484.484,0,0,0,.472-.412h0v-.044c0-.012,0-.024,0-.035h0v-2.131h0a.709.709,0,0,0-.707-.686.71.71,0,0,0-.708.686h0v2.691h0a.993.993,0,0,0,.986.9.991.991,0,0,0,.985-.9h.005v-2.169h-.193Z" transform="translate(-5.378 -21.594)" fill="#344154"/>
      <path id="Trazado_147408" data-name="Trazado 147408" d="M-863.721,3270.845l-.738-1.494-.739,1.494-1.65.241,1.194,1.164-.282,1.644,1.476-.776,1.476.776-.282-1.644,1.194-1.164Zm.419,2.61-1.156-.61-1.156.61.21-1.225.012-.062-.936-.913,1.294-.189.577-1.171.579,1.171,1.292.189-.89.868-.045.045Z" transform="translate(-3.537 -21.564)" fill="#344154"/>
      <path id="Trazado_147409" data-name="Trazado 147409" d="M-828.677,3267.17h-.241v7.658h.241Zm-.12,7.658v0Z" transform="translate(-9.525 -21.22)" fill="#344154"/>
      <rect id="Rectángulo_33130" data-name="Rectángulo 33130" width="3.049" height="3.249" transform="translate(-845.938 3248.66)" fill="#344154"/>
      <path id="Trazado_147410" data-name="Trazado 147410" d="M-836.856,3269.485v.25h1.123v-.25h.963v.5h-3.049v-.5Z" transform="translate(-8.119 -21.585)" fill="#344154"/>
      <rect id="Rectángulo_33131" data-name="Rectángulo 33131" width="1.123" height="0.25" transform="translate(-844.975 3247.649)" fill="#344154"/>
      <rect id="Rectángulo_33132" data-name="Rectángulo 33132" width="1.123" height="0.25" transform="translate(-844.975 3247.899)" fill="#344154"/>
      <path id="Trazado_147411" data-name="Trazado 147411" d="M-820.633,3272.28l.936-.936.114.114-1.05,1.05-1.05-1.05.113-.114Z" transform="translate(-10.667 -21.879)" fill="#344154"/>
      <g id="Grupo_92230" data-name="Grupo 92230" transform="translate(-885.348 3136.715)">
        <circle id="Elipse_4353" data-name="Elipse 4353" cx="1.093" cy="1.093" r="1.093" fill="#fff"/>
        <circle id="Elipse_4354" data-name="Elipse 4354" cx="1.093" cy="1.093" r="1.093" transform="translate(3.892)" fill="#fff"/>
        <circle id="Elipse_4355" data-name="Elipse 4355" cx="1.093" cy="1.093" r="1.093" transform="translate(7.784)" fill="#fff"/>
      </g>
      <g id="Grupo_92232" data-name="Grupo 92232" transform="translate(-872.612 3155.904)">
        <rect id="Rectángulo_33133" data-name="Rectángulo 33133" width="101.385" height="10.598" transform="translate(0 10.598)" fill="#ffbf9d"/>
        <rect id="Rectángulo_33134" data-name="Rectángulo 33134" width="101.385" height="10.598" fill="#d9a171"/>
        <rect id="Rectángulo_33135" data-name="Rectángulo 33135" width="101.385" height="10.598" transform="translate(0 21.185)" fill="#dbdbdb"/>
        <rect id="Rectángulo_33136" data-name="Rectángulo 33136" width="101.385" height="10.598" transform="translate(0 31.783)" fill="#ffbf9d"/>
        <rect id="Rectángulo_33137" data-name="Rectángulo 33137" width="101.385" height="10.598" transform="translate(0 42.381)" fill="#dbdbdb"/>
        <rect id="Rectángulo_33138" data-name="Rectángulo 33138" width="30.397" height="53.107" fill="#c7c7c7"/>
        <path id="Trazado_147412" data-name="Trazado 147412" d="M-869.494,3185.375l50.693-.128,50.693.128-50.693.139Z" transform="translate(869.494 -3164.19)" fill="#344154"/>
        <path id="Trazado_147413" data-name="Trazado 147413" d="M-869.494,3197.96l50.693-.128,50.693.128-50.693.139Z" transform="translate(869.494 -3166.177)" fill="#344154"/>
        <path id="Trazado_147414" data-name="Trazado 147414" d="M-869.494,3210.542l50.693-.139,50.693.139-50.693.129Z" transform="translate(869.494 -3168.161)" fill="#344154"/>
        <path id="Trazado_147415" data-name="Trazado 147415" d="M-869.494,3223.116l50.693-.129,50.693.129-50.693.139Z" transform="translate(869.494 -3170.148)" fill="#344154"/>
        <path id="Trazado_147416" data-name="Trazado 147416" d="M-863.042,3166.451c3.233-.215,6.473-.236,9.706-.268s6.474,0,9.714.268c-3.24.225-6.474.236-9.714.268S-859.809,3166.7-863.042,3166.451Z" transform="translate(868.475 -3161.178)" fill="#344154"/>
        <path id="Trazado_147417" data-name="Trazado 147417" d="M-863.042,3174.09c2.444-.166,4.9-.173,7.341-.2s4.9,0,7.348.2c-2.451.166-4.9.174-7.348.2S-860.6,3174.256-863.042,3174.09Z" transform="translate(868.475 -3162.396)" fill="#344154"/>
        <path id="Trazado_147418" data-name="Trazado 147418" d="M-824.962,3166.451c2.429-.215,4.865-.236,7.294-.268a59.446,59.446,0,0,1,7.3.268c-2.429.225-4.865.236-7.3.268A63.908,63.908,0,0,1-824.962,3166.451Z" transform="translate(862.463 -3161.178)" fill="#344154"/>
        <path id="Trazado_147419" data-name="Trazado 147419" d="M-824.962,3179.061c2.429-.225,4.865-.236,7.294-.268a59.446,59.446,0,0,1,7.3.268c-2.429.225-4.865.236-7.3.268A69.378,69.378,0,0,1-824.962,3179.061Z" transform="translate(862.463 -3163.169)" fill="#344154"/>
        <path id="Trazado_147420" data-name="Trazado 147420" d="M-824.962,3191.646c2.429-.226,4.865-.236,7.294-.268a59.254,59.254,0,0,1,7.3.268c-2.429.225-4.865.236-7.3.268A72.554,72.554,0,0,1-824.962,3191.646Z" transform="translate(862.463 -3165.156)" fill="#344154"/>
        <path id="Trazado_147421" data-name="Trazado 147421" d="M-824.962,3204.218c2.429-.215,4.865-.236,7.294-.269a59.3,59.3,0,0,1,7.3.269c-2.429.225-4.865.236-7.3.268A69.247,69.247,0,0,1-824.962,3204.218Z" transform="translate(862.463 -3167.141)" fill="#344154"/>
        <path id="Trazado_147422" data-name="Trazado 147422" d="M-824.962,3216.8c2.429-.225,4.865-.236,7.294-.268a59.446,59.446,0,0,1,7.3.268c-2.429.225-4.865.236-7.3.268A69.116,69.116,0,0,1-824.962,3216.8Z" transform="translate(862.463 -3169.128)" fill="#344154"/>
        <path id="Trazado_147423" data-name="Trazado 147423" d="M-799.915,3166.451c2.436-.215,4.865-.236,7.3-.268a59.268,59.268,0,0,1,7.294.268c-2.429.225-4.865.236-7.294.268A64.033,64.033,0,0,1-799.915,3166.451Z" transform="translate(858.509 -3161.178)" fill="#344154"/>
        <path id="Trazado_147424" data-name="Trazado 147424" d="M-793.97,3216.8a9.657,9.657,0,0,1,2.365-.268,9.072,9.072,0,0,1,2.326.268,10.272,10.272,0,0,1-4.66,0Z" transform="translate(857.57 -3169.129)" fill="#344154"/>
        <path id="Trazado_147425" data-name="Trazado 147425" d="M-793.97,3204.22a10.248,10.248,0,0,1,4.66,0A10.268,10.268,0,0,1-793.97,3204.22Z" transform="translate(857.57 -3167.143)" fill="#344154"/>
        <path id="Trazado_147426" data-name="Trazado 147426" d="M-793.97,3191.648a10.268,10.268,0,0,1,4.66,0A10.275,10.275,0,0,1-793.97,3191.648Z" transform="translate(857.57 -3165.158)" fill="#344154"/>
        <path id="Trazado_147427" data-name="Trazado 147427" d="M-793.97,3179.063a9.61,9.61,0,0,1,2.365-.268,9.072,9.072,0,0,1,2.326.268,9.072,9.072,0,0,1-2.326.268A9.633,9.633,0,0,1-793.97,3179.063Z" transform="translate(857.57 -3163.171)" fill="#344154"/>
        <path id="Trazado_147428" data-name="Trazado 147428" d="M-774.869,3166.451c2.436-.215,4.865-.236,7.3-.268a59.256,59.256,0,0,1,7.294.268c-2.428.225-4.865.236-7.294.268A64.041,64.041,0,0,1-774.869,3166.451Z" transform="translate(854.555 -3161.178)" fill="#344154"/>
        <path id="Trazado_147429" data-name="Trazado 147429" d="M-774.869,3179.061c2.436-.225,4.865-.236,7.3-.268a59.256,59.256,0,0,1,7.294.268c-2.428.225-4.865.236-7.294.268A69.523,69.523,0,0,1-774.869,3179.061Z" transform="translate(854.555 -3163.169)" fill="#344154"/>
        <path id="Trazado_147430" data-name="Trazado 147430" d="M-774.869,3191.646c2.436-.226,4.865-.236,7.3-.268a59.064,59.064,0,0,1,7.294.268c-2.428.225-4.865.236-7.294.268A72.705,72.705,0,0,1-774.869,3191.646Z" transform="translate(854.555 -3165.156)" fill="#344154"/>
        <path id="Trazado_147431" data-name="Trazado 147431" d="M-774.869,3204.218c2.436-.215,4.865-.236,7.3-.269a59.112,59.112,0,0,1,7.294.269c-2.428.225-4.865.236-7.294.268A69.391,69.391,0,0,1-774.869,3204.218Z" transform="translate(854.555 -3167.141)" fill="#344154"/>
        <path id="Trazado_147432" data-name="Trazado 147432" d="M-774.869,3216.8c2.436-.225,4.865-.236,7.3-.268a59.256,59.256,0,0,1,7.294.268c-2.428.225-4.865.236-7.294.268A69.26,69.26,0,0,1-774.869,3216.8Z" transform="translate(854.555 -3169.128)" fill="#344154"/>
        <path id="Trazado_147433" data-name="Trazado 147433" d="M-863.042,3166.451c3.233-.215,6.473-.236,9.706-.268s6.474,0,9.714.268c-3.24.225-6.474.236-9.714.268S-859.809,3166.7-863.042,3166.451Z" transform="translate(868.475 -3141.18)" fill="#344154"/>
        <path id="Trazado_147434" data-name="Trazado 147434" d="M-863.042,3174.09c2.444-.166,4.9-.173,7.341-.2s4.9,0,7.348.2c-2.451.166-4.9.174-7.348.2S-860.6,3174.256-863.042,3174.09Z" transform="translate(868.475 -3142.396)" fill="#344154"/>
        <path id="Trazado_147435" data-name="Trazado 147435" d="M-863.042,3166.451c3.233-.215,6.473-.236,9.706-.268s6.474,0,9.714.268c-3.24.225-6.474.236-9.714.268S-859.809,3166.7-863.042,3166.451Z" transform="translate(868.475 -3121.18)" fill="#344154"/>
        <path id="Trazado_147436" data-name="Trazado 147436" d="M-863.042,3174.09c2.444-.166,4.9-.173,7.341-.2s4.9,0,7.348.2c-2.451.166-4.9.174-7.348.2S-860.6,3174.256-863.042,3174.09Z" transform="translate(868.475 -3122.396)" fill="#344154"/>
      </g>
    </g>
    <g id="Grupo_92234" data-name="Grupo 92234" transform="translate(-12743.113 15109.572)">
      <g id="Grupo_90206" data-name="Grupo 90206" transform="translate(14022.55 5369.403)">
        <circle id="Elipse_4290" data-name="Elipse 4290" cx="27.321" cy="27.321" r="27.321" transform="matrix(0.997, -0.083, 0.083, 0.997, 2.212, 11.461)" fill="#344154"/>
        <circle id="Elipse_4291" data-name="Elipse 4291" cx="27.321" cy="27.321" r="27.321" transform="matrix(0.31, -0.951, 0.951, 0.31, 0, 51.957)" fill="#aed3f2"/>
        <path id="Trazado_143998" data-name="Trazado 143998" d="M14061.421,5432.116a23.683,23.683,0,1,1,10.694-2.582A23.7,23.7,0,0,1,14061.421,5432.116Zm-.062-46.582a22.93,22.93,0,1,0,10.435,43.367h0a22.929,22.929,0,0,0-10.435-43.367Z" transform="translate(-14026.958 -5373.873)" fill="#fff" stroke="#5e6178" stroke-miterlimit="10" stroke-width="0"/>
        <g id="Grupo_90205" data-name="Grupo 90205" transform="translate(23.359 17.772)">
          <g id="Grupo_90204" data-name="Grupo 90204">
            <path id="Trazado_143999" data-name="Trazado 143999" d="M14061.248,5420.413a15.083,15.083,0,0,1-3.324-2.377,13.387,13.387,0,0,1-2.211-2.663,1.581,1.581,0,0,1-.139-1.505,1.56,1.56,0,0,1,.859-.841,1.505,1.505,0,0,1,1.232.019,2.207,2.207,0,0,1,.869.716,16.889,16.889,0,0,0,2.092,2.383,9.8,9.8,0,0,0,2.824,1.81,10.491,10.491,0,0,0,1.227.45,7.037,7.037,0,0,0,1.193.244,4.774,4.774,0,0,0,1.133,0,3.878,3.878,0,0,0,.99-.255,2.465,2.465,0,0,0,.826-.567,3.071,3.071,0,0,0,.607-.927,2.343,2.343,0,0,0,0-1.988,5.984,5.984,0,0,0-1.844-2.069l-2.969-2.306q-.876-.7-1.439-1.171t-1.18-1.08a8.265,8.265,0,0,1-.957-1.092,6.553,6.553,0,0,1-.617-1.1,3.5,3.5,0,0,1-.311-1.219,5.544,5.544,0,0,1,.1-1.331,7.3,7.3,0,0,1,.488-1.533,5.919,5.919,0,0,1,.8-1.337,4.963,4.963,0,0,1,1.041-.979,5.589,5.589,0,0,1,1.242-.639,6.062,6.062,0,0,1,1.422-.331,8.085,8.085,0,0,1,1.561-.018,12.077,12.077,0,0,1,1.66.254,14.615,14.615,0,0,1,1.742.507l1.811-4.149a1.371,1.371,0,0,1,.8-.809,1.4,1.4,0,0,1,1.049.048,1.5,1.5,0,0,1,.777.761,1.322,1.322,0,0,1-.014,1.138l-1.828,4.189a14.393,14.393,0,0,1,1.9,1.264,14.835,14.835,0,0,1,1.432,1.251q.533.545,1.008,1.114a1.639,1.639,0,0,1,.354,1.84,1.571,1.571,0,0,1-.236.378,1.308,1.308,0,0,1-.342.285,2.074,2.074,0,0,1-.4.175,1.165,1.165,0,0,1-.465.039,1.684,1.684,0,0,1-.5-.132,1.516,1.516,0,0,1-.223-.122c-.068-.046-.143-.1-.221-.157a2.838,2.838,0,0,1-.223-.181c-.014-.007-.162-.147-.443-.422s-.484-.473-.609-.591-.352-.314-.682-.587-.623-.5-.877-.671-.564-.371-.936-.589a10.687,10.687,0,0,0-1.123-.574,9.224,9.224,0,0,0-2.186-.677,3.736,3.736,0,0,0-1.867.138,2.052,2.052,0,0,0-1.234,1.172,2.013,2.013,0,0,0-.057,1.843,8.4,8.4,0,0,0,2.121,2.044l2.926,2.24a10.842,10.842,0,0,1,3.641,4.189,5.449,5.449,0,0,1-.209,4.342,5.936,5.936,0,0,1-3.729,3.553,9.367,9.367,0,0,1-5.709-.25l-1.785,4.089a1.323,1.323,0,0,1-.822.785,1.535,1.535,0,0,1-1.107-.061,1.477,1.477,0,0,1-.545-.407,1.323,1.323,0,0,1-.281-.652,1.451,1.451,0,0,1,.127-.812Z" transform="translate(-14055.443 -5394.429)" fill="#fff" stroke="#5e6178" stroke-miterlimit="10" stroke-width="0"/>
          </g>
        </g>
      </g>
      <g id="Grupo_90209" data-name="Grupo 90209" transform="translate(14080.47 5429.12)">
        <circle id="Elipse_4292" data-name="Elipse 4292" cx="16.833" cy="16.833" r="16.833" transform="translate(0 34.988) rotate(-83.545)" fill="#344154"/>
        <circle id="Elipse_4293" data-name="Elipse 4293" cx="16.833" cy="16.833" r="16.833" transform="translate(1.404 33.453) rotate(-83.545)" fill="#aed3f2"/>
        <path id="Trazado_144000" data-name="Trazado 144000" d="M14126.365,5488.545a14.984,14.984,0,0,1-1.682-.095,14.7,14.7,0,1,1,10.813-3.11h0A14.583,14.583,0,0,1,14126.365,5488.545Zm-.057-28.7a13.993,13.993,0,1,0,8.746,24.938h0a13.992,13.992,0,0,0-7.146-24.848A14.476,14.476,0,0,0,14126.309,5459.847Z" transform="translate(-14106.294 -5455.13)" fill="#fff" stroke="#5e6178" stroke-miterlimit="10" stroke-width="0"/>
        <g id="Grupo_90208" data-name="Grupo 90208" transform="translate(13.736 7.711)">
          <g id="Grupo_90207" data-name="Grupo 90207">
            <path id="Trazado_144001" data-name="Trazado 144001" d="M14127.71,5481.538a9.3,9.3,0,0,1-2.3-1.023,8.256,8.256,0,0,1-1.663-1.334.974.974,0,0,1,.146-1.506.925.925,0,0,1,.746-.141,1.368,1.368,0,0,1,.612.324,10.284,10.284,0,0,0,1.558,1.179,6,6,0,0,0,1.929.744,6.594,6.594,0,0,0,.795.12,4.432,4.432,0,0,0,.751,0,2.98,2.98,0,0,0,.684-.14,2.422,2.422,0,0,0,.566-.276,1.525,1.525,0,0,0,.428-.444,1.9,1.9,0,0,0,.253-.635,1.449,1.449,0,0,0-.246-1.2,3.686,3.686,0,0,0-1.369-1.021l-2.077-1.025q-.615-.311-1.014-.528t-.846-.506a4.99,4.99,0,0,1-.713-.541,4.015,4.015,0,0,1-.509-.588,2.175,2.175,0,0,1-.338-.7,3.363,3.363,0,0,1-.105-.815,4.365,4.365,0,0,1,.105-.985,3.648,3.648,0,0,1,.316-.907,3.054,3.054,0,0,1,.508-.719,3.418,3.418,0,0,1,.671-.539,3.737,3.737,0,0,1,.817-.377,5.01,5.01,0,0,1,.94-.2,7.516,7.516,0,0,1,1.033-.052,9.242,9.242,0,0,1,1.114.09l.579-2.729a.841.841,0,0,1,.382-.586.863.863,0,0,1,.64-.1.922.922,0,0,1,.563.363.814.814,0,0,1,.133.689l-.585,2.755a8.743,8.743,0,0,1,1.307.527,9.346,9.346,0,0,1,1.018.577q.39.264.746.549a1.008,1.008,0,0,1,.441,1.066.924.924,0,0,1-.1.258.771.771,0,0,1-.17.214,1.331,1.331,0,0,1-.221.155.718.718,0,0,1-.275.081,1.03,1.03,0,0,1-.315-.018.917.917,0,0,1-.15-.046c-.046-.019-.1-.042-.152-.067a1.68,1.68,0,0,1-.156-.082c-.01,0-.115-.068-.319-.2s-.352-.226-.441-.281-.252-.146-.484-.271-.437-.223-.612-.3-.387-.154-.638-.239a6.645,6.645,0,0,0-.748-.208,5.754,5.754,0,0,0-1.4-.138,2.3,2.3,0,0,0-1.11.314,1.265,1.265,0,0,0-.6.86,1.24,1.24,0,0,0,.193,1.119,5.163,5.163,0,0,0,1.533.972l2.043.99a6.653,6.653,0,0,1,2.715,2.079,3.35,3.35,0,0,1,.412,2.646,3.658,3.658,0,0,1-1.812,2.606,5.766,5.766,0,0,1-3.477.555l-.57,2.689a.812.812,0,0,1-.4.575.938.938,0,0,1-.675.1.907.907,0,0,1-.38-.177.809.809,0,0,1-.25-.36.893.893,0,0,1-.025-.505Z" transform="translate(-14123.453 -5464.354)" fill="#fff" stroke="#5e6178" stroke-miterlimit="10" stroke-width="0"/>
          </g>
        </g>
      </g>
      <g id="Grupo_90212" data-name="Grupo 90212" transform="translate(14033.647 5440.696)">
        <circle id="Elipse_4294" data-name="Elipse 4294" cx="13.883" cy="13.883" r="13.883" transform="translate(0 26.826) rotate(-75.044)" fill="#5574d8"/>
        <circle id="Elipse_4295" data-name="Elipse 4295" cx="13.883" cy="13.883" r="13.883" transform="matrix(0.998, -0.06, 0.06, 0.998, 3.733, 3.01)" fill="#344154"/>
        <path id="Trazado_144002" data-name="Trazado 144002" d="M14059.145,5499.71a12.2,12.2,0,1,1,5.127-1.14h0A12.158,12.158,0,0,1,14059.145,5499.71Zm-.023-23.672a11.478,11.478,0,1,0,4.851,21.888h0a11.477,11.477,0,0,0-4.851-21.888Z" transform="translate(-14040.72 -5471.399)" fill="#fff" stroke="#5e6178" stroke-miterlimit="10" stroke-width="0"/>
        <g id="Grupo_90211" data-name="Grupo 90211" transform="translate(12.733 7.697)">
          <g id="Grupo_90210" data-name="Grupo 90210">
            <path id="Trazado_144003" data-name="Trazado 144003" d="M14058.944,5493.612a7.682,7.682,0,0,1-1.644-1.269,6.787,6.787,0,0,1-1.074-1.393.808.808,0,0,1-.043-.767.792.792,0,0,1,.452-.411.769.769,0,0,1,.626.032,1.13,1.13,0,0,1,.428.38,8.53,8.53,0,0,0,1.02,1.248,4.967,4.967,0,0,0,1.4.971,5.521,5.521,0,0,0,.614.251,3.606,3.606,0,0,0,.6.146,2.417,2.417,0,0,0,.574.021,1.978,1.978,0,0,0,.508-.111,1.239,1.239,0,0,0,.43-.274,1.575,1.575,0,0,0,.326-.459,1.19,1.19,0,0,0,.036-1.009,3.044,3.044,0,0,0-.9-1.085l-1.466-1.226q-.432-.369-.71-.621c-.186-.167-.378-.358-.579-.57a4.238,4.238,0,0,1-.467-.572,3.427,3.427,0,0,1-.293-.57,1.775,1.775,0,0,1-.135-.625,2.7,2.7,0,0,1,.074-.674,3.6,3.6,0,0,1,.275-.77,2.928,2.928,0,0,1,.431-.665,2.508,2.508,0,0,1,.547-.478,2.8,2.8,0,0,1,.642-.3,3.039,3.039,0,0,1,.729-.143,4.1,4.1,0,0,1,.793.02,6.215,6.215,0,0,1,.839.159,7.767,7.767,0,0,1,.876.289l.994-2.074a.694.694,0,0,1,.42-.4.712.712,0,0,1,.532.044.753.753,0,0,1,.381.4.669.669,0,0,1-.028.577l-1,2.095a7.36,7.36,0,0,1,.944.677,7.736,7.736,0,0,1,.7.661c.174.191.337.386.491.584a.834.834,0,0,1,.146.941.777.777,0,0,1-.127.188.646.646,0,0,1-.179.138,1.047,1.047,0,0,1-.207.081.581.581,0,0,1-.236.012.9.9,0,0,1-.249-.076.69.69,0,0,1-.111-.066c-.034-.025-.07-.053-.109-.084a1.4,1.4,0,0,1-.109-.1c-.007,0-.079-.077-.218-.222s-.236-.248-.3-.311-.174-.166-.336-.311-.309-.263-.433-.356-.28-.2-.465-.316a5.21,5.21,0,0,0-.56-.312,4.624,4.624,0,0,0-1.1-.384,1.9,1.9,0,0,0-.951.036,1.039,1.039,0,0,0-.647.573,1.022,1.022,0,0,0-.062.934,4.266,4.266,0,0,0,1.039,1.078l1.444,1.19a5.493,5.493,0,0,1,1.773,2.194,2.77,2.77,0,0,1-.185,2.2,3.019,3.019,0,0,1-1.959,1.737,4.763,4.763,0,0,1-2.9-.231l-.979,2.044a.67.67,0,0,1-.433.384.779.779,0,0,1-.562-.051.758.758,0,0,1-.269-.216.662.662,0,0,1-.131-.337.733.733,0,0,1,.078-.41Z" transform="translate(-14056.106 -5480.635)" fill="#fff" stroke="#5e6178" stroke-miterlimit="10" stroke-width="0"/>
          </g>
        </g>
      </g>
    </g>
  </g>
</svg>
