<svg xmlns="http://www.w3.org/2000/svg" xmlns:xlink="http://www.w3.org/1999/xlink" width="490" height="490" viewBox="0 0 490 490">
  <defs>
    <clipPath id="clip-path">
      <path id="SVGID" d="M-6296.5,13513.425s12.249,26.142,12.249,27.521-10.867,7.291-12.939,8.532a50.561,50.561,0,0,1-4.956,2.474l1.243,12.108s18.71-4.265,26.553-8.534,7.567-9.083,5.75-16.235-13.9-34.8-13.9-34.8Z" transform="translate(6302.151 -13504.49)" fill="none" opacity="0"/>
    </clipPath>
    <clipPath id="clip-path-2">
      <path id="SVGID-2" data-name="SVGID" d="M-6349.179,13506.426s-8.937,32.74-9.2,38.524,17.744,17.191,18.4,17.882-1.023-19.895-1.023-19.895l6.105-29.9Z" transform="translate(6358.382 -13506.426)" fill="none" opacity="0"/>
    </clipPath>
    <clipPath id="clip-path-3">
      <path id="SVGID-3" data-name="SVGID" d="M-6334.983,13485.1s3.577,12.651,10.349,20.092,9.2,9.2,12.8,8.659,7.43-5.22,12.789-14.949,5.749-17.19,6.2-17.884-1.151-14.443-8.81-20.366-16.237-8.521-23.667-2.057S-6337.468,13475.606-6334.983,13485.1Z" transform="translate(6335.652 -13454.821)" fill="none" opacity="0"/>
    </clipPath>
  </defs>
  <g id="Grupo_92181" data-name="Grupo 92181" transform="translate(6470.156 -13379.623)">
    <rect id="Rectángulo_33056" data-name="Rectángulo 33056" width="490" height="490" transform="translate(-6470.156 13379.623)" fill="#aed3f2" opacity="0"/>
    <g id="Grupo_92180" data-name="Grupo 92180" transform="translate(-6470.156 13379.623)">
      <rect id="Rectángulo_33057" data-name="Rectángulo 33057" width="490" height="490" fill="#aed3f2" opacity="0"/>
      <g id="Grupo_92179" data-name="Grupo 92179" transform="translate(47.196 22.823)">
        <g id="freepik--background-simple--inject-1--inject-91" transform="translate(0 45.054)">
          <path id="Trazado_146979" data-name="Trazado 146979" d="M-6045.4,13557.008c1.761-47.631-15.351-95.84-53.071-118.781-18.619-11.329-40.387-17.963-62.168-16.985-23.368,1.046-45.368,10.558-67.4,18.4s-45.9,14.111-68.609,8.544c-16.433-4.023-30.887-13.972-47.148-18.5-64.065-17.837-119.852,54.854-88.5,112.641,7.693,14.168,19.549,25.529,29.521,38.214s18.33,28,16.984,44.067c-1.149,13.306-8.693,25.151-11.834,38.122-6,24.851,5.911,52.188,26.508,67.332s48.379,18.677,73.221,12.443,46.689-21.482,63.9-40.365c9.2-10.12,18.215-21.942,31.453-25.38,12.706-3.289,25.8,2.069,38.7,4.531a89.118,89.118,0,0,0,68.734-15.641C-6064,13642.635-6046.984,13600.054-6045.4,13557.008Z" transform="translate(6441.284 -13421.146)" fill="#aed3f2"/>
        </g>
        <g id="freepik--Shadow--inject-1--inject-91" transform="translate(35.493 382.567)">
          <ellipse id="Elipse_4330" data-name="Elipse 4330" cx="155.49" cy="31.096" rx="155.49" ry="31.096" fill="#d9a171"/>
          <ellipse id="Elipse_4331" data-name="Elipse 4331" cx="155.49" cy="31.096" rx="155.49" ry="31.096" fill="#fff" stroke="#5e6178" stroke-miterlimit="10" stroke-width="0" opacity="0.5" style="isolation: isolate"/>
        </g>
        <g id="freepik--graphics-2--inject-1--inject-91" transform="translate(237.005)">
          <line id="Línea_2032" data-name="Línea 2032" x2="50.691" transform="translate(6.866 73.393)" fill="none" stroke="#263238" stroke-linecap="round" stroke-linejoin="round" stroke-width="1" opacity="0"/>
          <line id="Línea_2033" data-name="Línea 2033" x2="50.691" transform="translate(6.866 79.935)" fill="none" stroke="#263238" stroke-linecap="round" stroke-linejoin="round" stroke-width="1" opacity="0"/>
          <line id="Línea_2034" data-name="Línea 2034" x2="50.691" transform="translate(6.866 86.478)" fill="none" stroke="#263238" stroke-linecap="round" stroke-linejoin="round" stroke-width="1" opacity="0"/>
          <line id="Línea_2035" data-name="Línea 2035" x2="50.691" transform="translate(6.866 93.022)" fill="none" stroke="#263238" stroke-linecap="round" stroke-linejoin="round" stroke-width="1" opacity="0"/>
          <line id="Línea_2036" data-name="Línea 2036" x2="50.691" transform="translate(6.866 99.565)" fill="none" stroke="#263238" stroke-linecap="round" stroke-linejoin="round" stroke-width="1" opacity="0"/>
          <line id="Línea_2037" data-name="Línea 2037" x2="50.691" transform="translate(6.866 106.121)" fill="none" stroke="#263238" stroke-linecap="round" stroke-linejoin="round" stroke-width="1" opacity="0"/>
          <line id="Línea_2038" data-name="Línea 2038" x2="50.691" transform="translate(6.866 112.663)" fill="none" stroke="#263238" stroke-linecap="round" stroke-linejoin="round" stroke-width="1" opacity="0"/>
          <line id="Línea_2039" data-name="Línea 2039" x2="50.691" transform="translate(6.866 119.207)" fill="none" stroke="#263238" stroke-linecap="round" stroke-linejoin="round" stroke-width="1" opacity="0"/>
          <line id="Línea_2040" data-name="Línea 2040" x2="50.691" transform="translate(6.866 125.75)" fill="none" stroke="#263238" stroke-linecap="round" stroke-linejoin="round" stroke-width="1" opacity="0"/>
          <line id="Línea_2041" data-name="Línea 2041" x2="50.692" transform="translate(66.469 73.393)" fill="none" stroke="#263238" stroke-linecap="round" stroke-linejoin="round" stroke-width="1" opacity="0"/>
          <line id="Línea_2042" data-name="Línea 2042" x2="50.692" transform="translate(66.469 79.935)" fill="none" stroke="#263238" stroke-linecap="round" stroke-linejoin="round" stroke-width="1" opacity="0"/>
          <line id="Línea_2043" data-name="Línea 2043" x2="50.692" transform="translate(66.469 86.478)" fill="none" stroke="#263238" stroke-linecap="round" stroke-linejoin="round" stroke-width="1" opacity="0"/>
          <line id="Línea_2044" data-name="Línea 2044" x2="50.692" transform="translate(66.469 93.022)" fill="none" stroke="#263238" stroke-linecap="round" stroke-linejoin="round" stroke-width="1" opacity="0"/>
          <line id="Línea_2045" data-name="Línea 2045" x2="50.692" transform="translate(66.469 99.565)" fill="none" stroke="#263238" stroke-linecap="round" stroke-linejoin="round" stroke-width="1" opacity="0"/>
          <line id="Línea_2046" data-name="Línea 2046" x2="50.692" transform="translate(66.469 106.121)" fill="none" stroke="#263238" stroke-linecap="round" stroke-linejoin="round" stroke-width="1" opacity="0"/>
          <line id="Línea_2047" data-name="Línea 2047" x2="50.692" transform="translate(66.469 112.663)" fill="none" stroke="#263238" stroke-linecap="round" stroke-linejoin="round" stroke-width="1" opacity="0"/>
          <line id="Línea_2048" data-name="Línea 2048" x2="50.692" transform="translate(66.469 119.207)" fill="none" stroke="#263238" stroke-linecap="round" stroke-linejoin="round" stroke-width="1" opacity="0"/>
          <line id="Línea_2049" data-name="Línea 2049" x2="50.692" transform="translate(66.469 125.75)" fill="none" stroke="#263238" stroke-linecap="round" stroke-linejoin="round" stroke-width="1" opacity="0"/>
          <path id="Trazado_146984" data-name="Trazado 146984" d="M-6204.816,13494.452h-50.266a7.452,7.452,0,0,0-7.453,7.452h0v26.888a7.452,7.452,0,0,0,7.453,7.45h1.542c-1.564,3.45-4.6,8.741-9.4,11.879,0,0,10.2-.714,20.825-11.879h37.273a7.451,7.451,0,0,0,7.451-7.45h0V13501.9A7.451,7.451,0,0,0-6204.816,13494.452Z" transform="translate(6317.469 -13329.566)" fill="#344154" stroke="#263238" stroke-linecap="round" stroke-linejoin="round" stroke-width="1"/>
          <path id="Trazado_146985" data-name="Trazado 146985" d="M-6245.062,13508.147a3.839,3.839,0,0,0-3.83-3.854,3.838,3.838,0,0,0-3.851,3.828,3.843,3.843,0,0,0,3.829,3.854h.022A3.841,3.841,0,0,0-6245.062,13508.147Z" transform="translate(6323.939 -13323.32)" fill="#d9a171" stroke="#263238" stroke-linecap="round" stroke-linejoin="round" stroke-width="1"/>
          <path id="Trazado_146986" data-name="Trazado 146986" d="M-6237.1,13508.139a3.832,3.832,0,0,0-3.83-3.832,3.831,3.831,0,0,0-3.829,3.832,3.827,3.827,0,0,0,3.829,3.828h0A3.841,3.841,0,0,0-6237.1,13508.139Z" transform="translate(6329.007 -13323.312)" fill="#d9a171" stroke="#263238" stroke-linecap="round" stroke-linejoin="round" stroke-width="1"/>
          <path id="Trazado_146987" data-name="Trazado 146987" d="M-6229.115,13508.147a3.839,3.839,0,0,0-3.828-3.854,3.839,3.839,0,0,0-3.852,3.828,3.842,3.842,0,0,0,3.829,3.854h.013A3.849,3.849,0,0,0-6229.115,13508.147Z" transform="translate(6334.062 -13323.32)" fill="#d9a171" stroke="#263238" stroke-linecap="round" stroke-linejoin="round" stroke-width="1"/>
          <g id="Grupo_92182" data-name="Grupo 92182" transform="translate(1.107 12.521)">
            <g id="Grupo_79085" data-name="Grupo 79085" transform="translate(0)">
              <rect id="Rectángulo_30234" data-name="Rectángulo 30234" width="114.994" height="110.718" rx="8.41" fill="#e6e6e6"/>
            </g>
            <g id="Grupo_79114" data-name="Grupo 79114" transform="translate(8.036 11.696)">
              <g id="Grupo_79108" data-name="Grupo 79108">
                <g id="Grupo_79086" data-name="Grupo 79086" transform="translate(0 64.152)">
                  <rect id="Rectángulo_30235" data-name="Rectángulo 30235" width="3.774" height="1.087" fill="#263238"/>
                </g>
                <g id="Grupo_79087" data-name="Grupo 79087" transform="translate(8.538 69.966)">
                  <rect id="Rectángulo_30236" data-name="Rectángulo 30236" width="4.826" height="1.088" fill="#263238"/>
                </g>
                <g id="Grupo_79088" data-name="Grupo 79088" transform="translate(25.34 69.966)">
                  <rect id="Rectángulo_30237" data-name="Rectángulo 30237" width="4.826" height="1.088" fill="#263238"/>
                </g>
                <g id="Grupo_79089" data-name="Grupo 79089" transform="translate(42.141 69.966)">
                  <rect id="Rectángulo_30238" data-name="Rectángulo 30238" width="4.826" height="1.088" fill="#263238"/>
                </g>
                <g id="Grupo_79090" data-name="Grupo 79090" transform="translate(58.943 69.966)">
                  <rect id="Rectángulo_30239" data-name="Rectángulo 30239" width="4.826" height="1.088" fill="#263238"/>
                </g>
                <g id="Grupo_79091" data-name="Grupo 79091" transform="translate(75.744 69.966)">
                  <rect id="Rectángulo_30240" data-name="Rectángulo 30240" width="4.826" height="1.088" fill="#263238"/>
                </g>
                <g id="Grupo_79092" data-name="Grupo 79092" transform="translate(92.546 69.966)">
                  <rect id="Rectángulo_30241" data-name="Rectángulo 30241" width="4.826" height="1.088" fill="#263238"/>
                </g>
                <g id="Grupo_79093" data-name="Grupo 79093" transform="translate(0 49.627)">
                  <rect id="Rectángulo_30242" data-name="Rectángulo 30242" width="3.774" height="1.088" fill="#263238"/>
                </g>
                <g id="Grupo_79094" data-name="Grupo 79094" transform="translate(0 22.289)">
                  <rect id="Rectángulo_30243" data-name="Rectángulo 30243" width="3.774" height="1.088" fill="#263238"/>
                </g>
                <g id="Grupo_79095" data-name="Grupo 79095" transform="translate(0 8.551)">
                  <rect id="Rectángulo_30244" data-name="Rectángulo 30244" width="3.774" height="1.087" fill="#263238"/>
                </g>
                <g id="Grupo_79096" data-name="Grupo 79096" transform="translate(0.191 35.958)">
                  <rect id="Rectángulo_30245" data-name="Rectángulo 30245" width="3.774" height="1.087" fill="#263238"/>
                </g>
                <g id="Grupo_79098" data-name="Grupo 79098" transform="translate(5.566)">
                  <g id="Grupo_79097" data-name="Grupo 79097">
                    <path id="Trazado_138854" data-name="Trazado 138854" d="M460.755,331.969s-.137.012-.4.019l-1.188.018-4.567.033L437.8,332.1l-55.41.052-13.131,0h-.177v-.177c.024-18.528.045-34.833.06-46.521.023-5.828.041-10.5.053-13.738.013-1.6.023-2.841.031-3.7.007-.412.012-.729.016-.958s.017-.325.017-.325.011.11.016.325.009.546.016.958c.007.857.017,2.1.03,3.7.013,3.234.031,7.91.054,13.738.015,11.688.036,27.993.06,46.521l-.177-.177,13.131,0,55.41.052,16.794.057,4.567.034,1.188.017C460.617,331.956,460.755,331.969,460.755,331.969Z" transform="translate(-369.084 -266.729)" fill="#263238"/>
                  </g>
                </g>
                <g id="Grupo_79100" data-name="Grupo 79100" transform="translate(9.393 36.323)">
                  <g id="Grupo_79099" data-name="Grupo 79099">
                    <path id="Trazado_138855" data-name="Trazado 138855" d="M463.561,319.782c0,.1-19.9.179-44.451.179s-44.455-.08-44.455-.179,19.9-.179,44.455-.179S463.561,319.683,463.561,319.782Z" transform="translate(-374.655 -319.603)" fill="#263238"/>
                  </g>
                </g>
                <g id="Grupo_79102" data-name="Grupo 79102" transform="translate(9.393 22.654)">
                  <g id="Grupo_79101" data-name="Grupo 79101">
                    <path id="Trazado_138856" data-name="Trazado 138856" d="M463.561,299.884c0,.1-19.9.179-44.451.179s-44.455-.08-44.455-.179,19.9-.179,44.455-.179S463.561,299.785,463.561,299.884Z" transform="translate(-374.655 -299.705)" fill="#263238"/>
                  </g>
                </g>
                <g id="Grupo_79104" data-name="Grupo 79104" transform="translate(9.393 8.916)">
                  <g id="Grupo_79103" data-name="Grupo 79103">
                    <path id="Trazado_138857" data-name="Trazado 138857" d="M463.561,279.886c0,.1-19.9.179-44.451.179s-44.455-.08-44.455-.179,19.9-.179,44.455-.179S463.561,279.787,463.561,279.886Z" transform="translate(-374.655 -279.707)" fill="#263238"/>
                  </g>
                </g>
                <g id="Grupo_79106" data-name="Grupo 79106" transform="translate(9.393 49.992)">
                  <g id="Grupo_79105" data-name="Grupo 79105">
                    <path id="Trazado_138858" data-name="Trazado 138858" d="M463.561,339.679c0,.1-19.9.179-44.451.179s-44.455-.08-44.455-.179,19.9-.179,44.455-.179S463.561,339.58,463.561,339.679Z" transform="translate(-374.655 -339.5)" fill="#263238"/>
                  </g>
                </g>
                <g id="Grupo_79107" data-name="Grupo 79107" transform="translate(10.31 1.008)">
                  <path id="Trazado_138859" data-name="Trazado 138859" d="M375.989,329.486V317.359l7.559-11.735,5.13,3.936,10.528-16.354,6.21,4.373,8.639-15.087,7.019,5.718L431.6,268.2l11.339,22.368,9.179-11.192,10.8-3.09v53.2Z" transform="translate(-375.989 -268.196)" fill="#aed3f2"/>
                </g>
              </g>
              <g id="Grupo_79110" data-name="Grupo 79110" transform="translate(10.31 4.689)">
                <g id="Grupo_79109" data-name="Grupo 79109">
                  <path id="Trazado_138860" data-name="Trazado 138860" d="M463.979,273.654a.935.935,0,0,1-.19.014l-.563.014-2.191.025-8.286.047.079-.038-8.878,11.606-.043.055h-.07l-22.231.031.148-.083-9.347,15.56c-3.183,5.292-6.266,10.414-9.177,15.252l-.134.223-.153-.211L390.9,299.589l.24-.008L380.156,316.7c-1.317,2.033-2.35,3.63-3.064,4.731l-.813,1.235c-.185.278-.291.414-.291.414s.08-.153.253-.438l.777-1.258,3-4.774,10.88-17.182.115-.181.126.173,12.084,16.528-.287.012L412.1,300.7l9.358-15.553.051-.084h.1l22.231.031-.112.055,8.945-11.555.031-.039h.048l8.286.047,2.191.025.563.013A1.092,1.092,0,0,1,463.979,273.654Z" transform="translate(-375.989 -273.554)" fill="#263238"/>
                </g>
              </g>
              <g id="Grupo_79111" data-name="Grupo 79111" transform="translate(27.278 33.704)">
                <path id="Trazado_138861" data-name="Trazado 138861" d="M402.395,316.611a.853.853,0,1,1-.853-.821A.838.838,0,0,1,402.395,316.611Z" transform="translate(-400.689 -315.79)" fill="#263238"/>
              </g>
              <g id="Grupo_79112" data-name="Grupo 79112" transform="translate(52.92 19.129)">
                <path id="Trazado_138862" data-name="Trazado 138862" d="M439.722,295.395a.853.853,0,1,1-.853-.821A.838.838,0,0,1,439.722,295.395Z" transform="translate(-438.016 -294.574)" fill="#263238"/>
              </g>
              <g id="Grupo_79113" data-name="Grupo 79113" transform="translate(72.855 15.548)">
                <path id="Trazado_138863" data-name="Trazado 138863" d="M468.74,290.183a.853.853,0,1,1-.853-.822A.837.837,0,0,1,468.74,290.183Z" transform="translate(-467.034 -289.361)" fill="#263238"/>
              </g>
            </g>
            <g id="Grupo_79115" data-name="Grupo 79115" transform="translate(16.574 90.884)">
              <ellipse id="Elipse_4180" data-name="Elipse 4180" cx="5.516" cy="5.31" rx="5.516" ry="5.31" fill="#fff"/>
            </g>
            <g id="Grupo_79116" data-name="Grupo 79116" transform="translate(35.789 92.638)">
              <rect id="Rectángulo_30246" data-name="Rectángulo 30246" width="64.793" height="1.988" fill="#fff"/>
            </g>
            <g id="Grupo_79117" data-name="Grupo 79117" transform="translate(35.789 97.601)">
              <rect id="Rectángulo_30247" data-name="Rectángulo 30247" width="26.903" height="1.988" fill="#fff"/>
            </g>
          </g>
        </g>
        <g id="freepik--Character--inject-1--inject-91" transform="translate(82.585 70.195)">
          <path id="Trazado_146992" data-name="Trazado 146992" d="M-6296.5,13513.425s12.249,26.142,12.249,27.521-10.867,7.291-12.939,8.532a50.561,50.561,0,0,1-4.956,2.474l1.243,12.108s18.71-4.265,26.553-8.534,7.567-9.083,5.75-16.235-13.9-34.8-13.9-34.8Z" transform="translate(6447.003 -13393.39)" fill="#ffbf9d"/>
          <g id="Grupo_92172" data-name="Grupo 92172" transform="translate(144.852 111.101)">
            <g id="Grupo_92171" data-name="Grupo 92171" clip-path="url(#clip-path)">
              <g id="Grupo_92170" data-name="Grupo 92170" transform="translate(8.729)">
                <path id="Trazado_146993" data-name="Trazado 146993" d="M-6277.778,13555.525c7.841-4.267,7.566-9.083,5.749-16.235s-13.9-34.8-13.9-34.8l-1.956,1.242-.621,1.15s11.281,27.688,11.959,36.915c.461,6.2-12.017,13.925-20.261,18.341C-6290.693,13560.517-6282.367,13558.023-6277.778,13555.525Z" transform="translate(6296.81 -13504.49)" fill="#d9a171" opacity="0.5" style="isolation: isolate"/>
              </g>
            </g>
          </g>
          <path id="Trazado_146994" data-name="Trazado 146994" d="M-6296.5,13513.425s12.249,26.142,12.249,27.521-10.867,7.291-12.939,8.532a50.561,50.561,0,0,1-4.956,2.474l1.243,12.108s18.71-4.265,26.553-8.534,7.567-9.083,5.75-16.235-13.9-34.8-13.9-34.8Z" transform="translate(6447.003 -13393.39)" fill="none" stroke="#263238" stroke-linecap="round" stroke-linejoin="round" stroke-width="1" opacity="0"/>
          <path id="Trazado_146995" data-name="Trazado 146995" d="M-6349.179,13506.426s-8.937,32.74-9.2,38.524,17.744,17.191,18.4,17.882-1.023-19.895-1.023-19.895l6.105-29.9Z" transform="translate(6411.313 -13392.162)" fill="#ffbf9d"/>
          <g id="Grupo_92175" data-name="Grupo 92175" transform="translate(52.931 114.263)">
            <g id="Grupo_92174" data-name="Grupo 92174" clip-path="url(#clip-path-2)">
              <g id="Grupo_92173" data-name="Grupo 92173">
                <path id="Trazado_146996" data-name="Trazado 146996" d="M-6345.086,13509.105l-.2-.886-3.9-1.794s-8.937,32.74-9.2,38.524,17.744,17.191,18.4,17.882c.265.274.161-2.807-.059-6.613-5.358-4.542-13.051-10.935-13.948-13.625" transform="translate(6358.382 -13506.426)" fill="#d9a171" opacity="0.5" style="isolation: isolate"/>
              </g>
            </g>
          </g>
          <path id="Trazado_146997" data-name="Trazado 146997" d="M-6349.179,13506.426s-8.937,32.74-9.2,38.524,17.744,17.191,18.4,17.882-1.023-19.895-1.023-19.895l6.105-29.9Z" transform="translate(6411.313 -13392.162)" fill="none" stroke="#263238" stroke-linecap="round" stroke-linejoin="round" stroke-width="1" opacity="0"/>
          <path id="Trazado_146998" data-name="Trazado 146998" d="M-6308.281,13487.294s-3.449,2.482-10.178,2.76-7.049-4.6-15.409-4.6c-10.131,0-22.839,32.05-22.839,32.05s6.325,6.2,12.523,8.809a44.507,44.507,0,0,0,10.73,3.165l.966,21.055h68.24l.816-21.055,21.331-13.835s-10.463-18.711-15.547-25.725-13.627-4.407-16.238-2.623-10.35,2.207-13.2,1.794a113.731,113.731,0,0,1-11.018-3.026S-6302.5,13482.407-6308.281,13487.294Z" transform="translate(6412.378 -13405.921)" fill="#d9a171" stroke="#263238" stroke-linecap="round" stroke-linejoin="round" stroke-width="1"/>
          <line id="Línea_2054" data-name="Línea 2054" x1="0.276" y2="34.948" transform="translate(79.338 88.803)" fill="none" stroke="#263238" stroke-linecap="round" stroke-linejoin="round" stroke-width="0.5" opacity="0"/>
          <path id="Trazado_146999" data-name="Trazado 146999" d="M-6340.547,13492.792s.965,17.055,4.6,26.554" transform="translate(6422.633 -13400.816)" fill="none" stroke="#263238" stroke-linecap="round" stroke-linejoin="round" stroke-width="0.5" opacity="0"/>
          <path id="Trazado_147000" data-name="Trazado 147000" d="M-6337.347,13509.872a47.03,47.03,0,0,0,2.887,6.739" transform="translate(6424.665 -13389.974)" fill="none" stroke="#263238" stroke-linecap="round" stroke-linejoin="round" stroke-width="0.5" opacity="0"/>
          <path id="Trazado_147001" data-name="Trazado 147001" d="M-6339.2,13491.611a109.167,109.167,0,0,0,5.509,18.156" transform="translate(6423.486 -13401.566)" fill="none" stroke="#263238" stroke-linecap="round" stroke-linejoin="round" stroke-width="0.5" opacity="0"/>
          <path id="Trazado_147002" data-name="Trazado 147002" d="M-6300.511,13493.459s-3.3,13.488-6.2,19.553" transform="translate(6444.109 -13400.391)" fill="none" stroke="#263238" stroke-linecap="round" stroke-linejoin="round" stroke-width="0.5" opacity="0"/>
          <line id="Línea_2055" data-name="Línea 2055" x1="0.138" y1="27.243" transform="translate(148.808 96.369)" fill="none" stroke="#263238" stroke-linecap="round" stroke-linejoin="round" stroke-width="0.5" opacity="0"/>
          <path id="Trazado_147003" data-name="Trazado 147003" d="M-6297.255,13495.816s-2.484,17.249-8.533,26.276" transform="translate(6444.695 -13398.895)" fill="none" stroke="#263238" stroke-linecap="round" stroke-linejoin="round" stroke-width="0.5" opacity="0"/>
          <path id="Trazado_147004" data-name="Trazado 147004" d="M-6300.6,13509.789s-2.761,5.231-4.679,7.981" transform="translate(6445.016 -13390.03)" fill="none" stroke="#263238" stroke-linecap="round" stroke-linejoin="round" stroke-width="0.5" opacity="0"/>
          <path id="Trazado_147005" data-name="Trazado 147005" d="M-6329.439,13487.571s1.931,11.833,4.681,17.882,7.566,7.291,11.694,5.509,7.153-10.6,6.9-21.85" transform="translate(6429.685 -13404.128)" fill="none" stroke="#263238" stroke-linecap="round" stroke-linejoin="round" stroke-width="0.5" opacity="0"/>
          <path id="Trazado_147006" data-name="Trazado 147006" d="M-6333.361,13473.532s-2.621-4.531-4.679-2.2,1.655,7.705,3.714,9.488,3.576.688,3.449-1.231S-6333.361,13473.532-6333.361,13473.532Z" transform="translate(6423.842 -13414.86)" fill="#d9a171" stroke="#263238" stroke-linecap="round" stroke-linejoin="round" stroke-width="1"/>
          <path id="Trazado_147007" data-name="Trazado 147007" d="M-6333.361,13473.532s-2.621-4.531-4.679-2.2,1.655,7.705,3.714,9.488,3.576.688,3.449-1.231S-6333.361,13473.532-6333.361,13473.532Z" transform="translate(6423.842 -13414.86)" fill="#fff" stroke="#5e6178" stroke-miterlimit="10" stroke-width="0" opacity="0.5" style="isolation: isolate"/>
          <path id="Trazado_147008" data-name="Trazado 147008" d="M-6333.361,13473.532s-2.621-4.531-4.679-2.2,1.655,7.705,3.714,9.488,3.576.688,3.449-1.231S-6333.361,13473.532-6333.361,13473.532Z" transform="translate(6423.842 -13414.86)" fill="none" stroke="#263238" stroke-linecap="round" stroke-linejoin="round" stroke-width="1" opacity="0"/>
          <path id="Trazado_147009" data-name="Trazado 147009" d="M-6308.986,13473.532s2.611-4.531,4.682-2.2-1.656,7.705-3.716,9.488-3.588.688-3.449-1.231S-6308.986,13473.532-6308.986,13473.532Z" transform="translate(6441.084 -13414.86)" fill="#d9a171" stroke="#263238" stroke-linecap="round" stroke-linejoin="round" stroke-width="1"/>
          <path id="Trazado_147010" data-name="Trazado 147010" d="M-6308.986,13473.532s2.611-4.531,4.682-2.2-1.656,7.705-3.716,9.488-3.588.688-3.449-1.231S-6308.986,13473.532-6308.986,13473.532Z" transform="translate(6441.084 -13414.86)" fill="#fff" stroke="#5e6178" stroke-miterlimit="10" stroke-width="0" opacity="0.5" style="isolation: isolate"/>
          <path id="Trazado_147011" data-name="Trazado 147011" d="M-6308.986,13473.532s2.611-4.531,4.682-2.2-1.656,7.705-3.716,9.488-3.588.688-3.449-1.231S-6308.986,13473.532-6308.986,13473.532Z" transform="translate(6441.084 -13414.86)" fill="none" stroke="#263238" stroke-linecap="round" stroke-linejoin="round" stroke-width="1" opacity="0"/>
          <path id="Trazado_147012" data-name="Trazado 147012" d="M-6327.842,13485.721a148.113,148.113,0,0,0,4.957,17.329c2.483,6.188,7.152,6.188,9.083,2.2s3.164-18.859,3.164-18.859S-6323.577,13488.193-6327.842,13485.721Z" transform="translate(6430.697 -13405.303)" fill="#fff" stroke="#5e6178" stroke-linecap="round" stroke-linejoin="round" stroke-width="1"/>
          <path id="Trazado_147013" data-name="Trazado 147013" d="M-6334.983,13485.1s3.577,12.651,10.349,20.092,9.2,9.2,12.8,8.659,7.43-5.22,12.789-14.949,5.749-17.19,6.2-17.884-1.151-14.443-8.81-20.366-16.237-8.521-23.667-2.057S-6337.468,13475.606-6334.983,13485.1Z" transform="translate(6425.741 -13424.913)" fill="#ffbf9d"/>
          <g id="Grupo_92178" data-name="Grupo 92178" transform="translate(90.089 29.908)">
            <g id="Grupo_92177" data-name="Grupo 92177" clip-path="url(#clip-path-3)">
              <g id="Grupo_92176" data-name="Grupo 92176" transform="translate(-0.003 -0.042)">
                <path id="Trazado_147014" data-name="Trazado 147014" d="M-6301.69,13460.626c-7.706-5.912-16.237-8.521-23.667-2.061s-12.11,17.057-9.625,26.553a58.727,58.727,0,0,0,2.023,5.753,4.331,4.331,0,0,1,.172-1.255c1.644-5.209,6.5-15.3,22.828-10.672,12.971,3.658,11.383,15.064,10.178,21.148l.7-1.263c5.37-9.766,5.748-17.193,6.2-17.884S-6293.986,13466.549-6301.69,13460.626Z" transform="translate(6335.653 -13454.796)" fill="#d9a171" opacity="0.5" style="isolation: isolate"/>
              </g>
            </g>
          </g>
          <path id="Trazado_147015" data-name="Trazado 147015" d="M-6334.983,13485.1s3.577,12.651,10.349,20.092,9.2,9.2,12.8,8.659,7.43-5.22,12.789-14.949,5.749-17.19,6.2-17.884-1.151-14.443-8.81-20.366-16.237-8.521-23.667-2.057S-6337.468,13475.606-6334.983,13485.1Z" transform="translate(6425.741 -13424.913)" fill="none" stroke="#263238" stroke-linecap="round" stroke-linejoin="round" stroke-width="1" opacity="0"/>
          <path id="Trazado_147016" data-name="Trazado 147016" d="M-6319.714,13477.386a56.165,56.165,0,0,0-.689,8.117c.138,2.75.967,3.579-.276,3.854s-2.611-1.655-2.611-1.655" transform="translate(6433.586 -13410.595)" fill="none" stroke="#263238" stroke-linecap="round" stroke-linejoin="round" stroke-width="1" opacity="0"/>
          <path id="Trazado_147017" data-name="Trazado 147017" d="M-6329.523,13478.736a4.88,4.88,0,0,0,5.509.139" transform="translate(6429.63 -13409.736)" fill="none" stroke="#263238" stroke-linecap="round" stroke-linejoin="round" stroke-width="1" opacity="0"/>
          <path id="Trazado_147018" data-name="Trazado 147018" d="M-6318.831,13478.736a4.866,4.866,0,0,0,5.5.139" transform="translate(6436.417 -13409.736)" fill="none" stroke="#263238" stroke-linecap="round" stroke-linejoin="round" stroke-width="1" opacity="0"/>
          <path id="Trazado_147019" data-name="Trazado 147019" d="M-6319.769,13477.553s-2.622-6.475-11.281-3.45" transform="translate(6428.662 -13413.188)" fill="none" stroke="#263238" stroke-linecap="round" stroke-linejoin="round" stroke-width="1" opacity="0"/>
          <path id="Trazado_147020" data-name="Trazado 147020" d="M-6319.738,13476.888s2.2-6.339,10.039-2.624" transform="translate(6435.842 -13413.314)" fill="none" stroke="#263238" stroke-linecap="round" stroke-linejoin="round" stroke-width="1" opacity="0"/>
          <path id="Trazado_147021" data-name="Trazado 147021" d="M-6316.079,13480.972c0,3.54-4.059,6.405-9.075,6.405s-9.083-2.865-9.083-6.405,3.794-5.017,8.808-5.017S-6316.079,13477.441-6316.079,13480.972Z" transform="translate(6426.64 -13411.498)" fill="none" stroke="#263238" stroke-linecap="round" stroke-linejoin="round" stroke-width="1" opacity="0"/>
          <path id="Trazado_147022" data-name="Trazado 147022" d="M-6303.283,13480.972c0,3.54-4.072,6.405-9.084,6.405s-9.074-2.865-9.074-6.405,3.784-5.017,8.8-5.017S-6303.283,13477.441-6303.283,13480.972Z" transform="translate(6434.761 -13411.498)" fill="none" stroke="#263238" stroke-linecap="round" stroke-linejoin="round" stroke-width="1" opacity="0"/>
          <path id="Trazado_147023" data-name="Trazado 147023" d="M-6381.047,13546.509l-.564,139.414a1.656,1.656,0,0,0,1.655,1.656h0a1.646,1.646,0,0,0,1.645-1.6l3.979-139.277Z" transform="translate(6396.572 -13366.72)" fill="#fff" stroke="#5e6178" stroke-linecap="round" stroke-linejoin="round" stroke-width="1"/>
          <path id="Trazado_147024" data-name="Trazado 147024" d="M-6386.8,13566.447l-.54,144.127a1.644,1.644,0,0,0,1.633,1.656h.023a1.656,1.656,0,0,0,1.656-1.587l3.968-144.015Z" transform="translate(6392.938 -13354.067)" fill="#fff" stroke="#5e6178" stroke-linecap="round" stroke-linejoin="round" stroke-width="1"/>
          <path id="Trazado_147025" data-name="Trazado 147025" d="M-6260.757,13546.509l.563,139.414a1.646,1.646,0,0,1-1.633,1.656h-.011a1.656,1.656,0,0,1-1.657-1.6l-3.967-139.277Z" transform="translate(6469.021 -13366.72)" fill="#fff" stroke="#5e6178" stroke-linecap="round" stroke-linejoin="round" stroke-width="1"/>
          <path id="Trazado_147026" data-name="Trazado 147026" d="M-6255.005,13566.447l.563,144.127a1.644,1.644,0,0,1-1.633,1.656h-.023a1.645,1.645,0,0,1-1.645-1.587l-3.979-144.015Z" transform="translate(6472.663 -13354.067)" fill="#fff" stroke="#5e6178" stroke-linecap="round" stroke-linejoin="round" stroke-width="1"/>
          <path id="Trazado_147027" data-name="Trazado 147027" d="M-6346.9,13570.112l-.333,127.926a1.239,1.239,0,0,0,1.045,1.366h0a1.226,1.226,0,0,0,1.058-1.31l2.5-127.833Z" transform="translate(6418.385 -13351.741)" fill="#fff" stroke="#5e6178" stroke-linecap="round" stroke-linejoin="round" stroke-width="1"/>
          <path id="Trazado_147028" data-name="Trazado 147028" d="M-6296.1,13567.593l.311,111.641a1.057,1.057,0,0,1-.9,1.15h0a1.045,1.045,0,0,1-.885-1.15l-2.129-111.548Z" transform="translate(6448.557 -13353.339)" fill="#fff" stroke="#5e6178" stroke-linecap="round" stroke-linejoin="round" stroke-width="1"/>
          <path id="Trazado_147029" data-name="Trazado 147029" d="M-6346.4,13567.593l.311,111.641a1.057,1.057,0,0,1-.9,1.15h0a1.047,1.047,0,0,1-.886-1.15l-2.128-111.548Z" transform="translate(6416.632 -13353.339)" fill="#fff" stroke="#5e6178" stroke-linecap="round" stroke-linejoin="round" stroke-width="1"/>
          <path id="Trazado_147030" data-name="Trazado 147030" d="M-6297.267,13570.112l.357,127.926a1.238,1.238,0,0,1-1.046,1.366h0a1.24,1.24,0,0,1-1.058-1.31l-2.5-127.833Z" transform="translate(6447.408 -13351.741)" fill="#fff" stroke="#5e6178" stroke-linecap="round" stroke-linejoin="round" stroke-width="1"/>
          <ellipse id="Elipse_4335" data-name="Elipse 4335" cx="51.174" cy="11.695" rx="51.174" ry="11.695" transform="translate(59.075 203.939)" fill="#fff" stroke="#5e6178" stroke-linecap="round" stroke-linejoin="round" stroke-width="1"/>
          <path id="Trazado_147031" data-name="Trazado 147031" d="M-6337.1,13630.306s-2.68,3.843-.759,5.75,3.829,1.15,3.633,3.07-3.254,8.429-5.933,15.33,2.875,13.8,8.049,11.889,4.6-21.088,5.36-24.538,1.346-4.025,1.15-7.28-.38-6.7-2.876-7.094S-6335.955,13628.973-6337.1,13630.306Z" transform="translate(6422.435 -13315.394)" fill="#fff" stroke="#5e6178" stroke-linecap="round" stroke-linejoin="round" stroke-width="1"/>
          <path id="Trazado_147032" data-name="Trazado 147032" d="M-6328.985,13648.367c-3.449-1.312-8.739-1.047-11.717-.747,1,4.336,4.83,7.383,8.485,6.036C-6330.687,13653.094-6329.686,13651.047-6328.985,13648.367Z" transform="translate(6422.536 -13302.704)" fill="#d9a171" stroke="#263238" stroke-linecap="round" stroke-linejoin="round" stroke-width="1"/>
          <path id="Trazado_147033" data-name="Trazado 147033" d="M-6342.194,13625.131s5.555,9.4,7.084,11.879,6.715,1.725,7.291-1.726-2.116-13.028-2.116-13.028l-11.5,2.875Z" transform="translate(6421.589 -13318.648)" fill="#fff" stroke="#5e6178" stroke-linecap="round" stroke-linejoin="round" stroke-width="1"/>
          <path id="Trazado_147034" data-name="Trazado 147034" d="M-6349.9,13617.474s-1.542,2.5-.769,4.219,2.873,6.705,4.219,9.2,7.475,4.025,14.559,2.876,11.122-4.416,11.315-7.291-1.149-6.7-2.115-11.3-3.451-4.405-6.9-4.405S-6347.025,13614.793-6349.9,13617.474Z" transform="translate(6416.071 -13325.94)" fill="#d9a171" stroke="#263238" stroke-linecap="round" stroke-linejoin="round" stroke-width="1"/>
          <path id="Trazado_147035" data-name="Trazado 147035" d="M-6323.619,13592.109c.1-4.716,2.828-7.039,3.036-10.27a40.677,40.677,0,0,0-1.045-12.73l-5.245-7.163c-15.088.2-25.9.447-26.069.5-.576.185-.967,3.452-1.346,6.13,0,0-6.406.816-5.256,18.642.161,2.482,6.625,31.221,7.1,34.5,2.874,20.021,9.28,30.05,9.28,30.05s.575,2.493,8.051,1.921,14.948-5.556,14.948-5.556S-6324.01,13609.164-6323.619,13592.109Z" transform="translate(6410.49 -13356.926)" fill="#344154" stroke="#263238" stroke-linecap="round" stroke-linejoin="round" stroke-width="1"/>
          <path id="Trazado_147036" data-name="Trazado 147036" d="M-6351.261,13564.58s-7.923,1.15-12.775,6.693-.737,9.2,8.693,8.21,20.31-10.637,20.769-11.155S-6344.408,13561.256-6351.261,13564.58Z" transform="translate(6406.425 -13355.845)" fill="#fff" stroke="#5e6178" stroke-linecap="round" stroke-linejoin="round" stroke-width="1"/>
          <path id="Trazado_147037" data-name="Trazado 147037" d="M-6347.338,13569.007a74.914,74.914,0,0,1,14.95,2.3c6.522,1.92,18.019,5.751,20.7,5.751s1.919-9.972,1.919-11.88-34.5-3.072-38.719-3.072S-6347.338,13569.007-6347.338,13569.007Z" transform="translate(6416.568 -13356.822)" fill="#fff" stroke="#5e6178" stroke-linecap="round" stroke-linejoin="round" stroke-width="1"/>
          <path id="Trazado_147038" data-name="Trazado 147038" d="M-6323.181,13563.988s-3.07,1.527-4.22,7.278-2.68,8.821-.381,10.349,12.272,2.681,13.8,1.15,5.749-9.2,6.52-14.18S-6323.181,13563.988-6323.181,13563.988Z" transform="translate(6429.979 -13355.632)" fill="#d9a171" stroke="#263238" stroke-linecap="round" stroke-linejoin="round" stroke-width="1"/>
          <path id="Trazado_147039" data-name="Trazado 147039" d="M-6315.079,13569.107a24.063,24.063,0,0,0-4.21,6.9,64.638,64.638,0,0,0-1.92,8.051,74.546,74.546,0,0,1,10.731,3.843c6.141,2.678,16.49,4.6,26.448,6.9s12.65,4.6,16.1,4.6,7.672-2.692,13.042-9.2.759-20.32-4.6-24.54-34.122-7.659-37.95-6.511S-6315.079,13569.107-6315.079,13569.107Z" transform="translate(6434.907 -13358.843)" fill="#344154" stroke="#263238" stroke-linecap="round" stroke-linejoin="round" stroke-width="1"/>
          <path id="Trazado_147040" data-name="Trazado 147040" d="M-6358.518,13577.056a23.086,23.086,0,0,0-4.484-9.42c-.355.334-.7.678-1.035,1.058C-6368.3,13573.548-6365.635,13577-6358.518,13577.056Z" transform="translate(6406.425 -13353.313)" fill="#d9a171" stroke="#263238" stroke-linecap="round" stroke-linejoin="round" stroke-width="1"/>
          <path id="Trazado_147041" data-name="Trazado 147041" d="M-6333.31,13575.255s-3.956,42.332-12.028,48.92" transform="translate(6419.594 -13348.478)" fill="none" stroke="#fff" stroke-linecap="round" stroke-linejoin="round" stroke-width="0.5" opacity="0"/>
          <path id="Trazado_147042" data-name="Trazado 147042" d="M-6335.273,13599.836s-3.14,13.8-11.375,19.285" transform="translate(6418.763 -13332.878)" fill="none" stroke="#fff" stroke-linecap="round" stroke-linejoin="round" stroke-width="0.5" opacity="0"/>
          <path id="Trazado_147043" data-name="Trazado 147043" d="M-6305.845,13570.549s-12.269.772-4.218,6.13,22.618,8.821,22.618,8.821" transform="translate(6440.243 -13351.465)" fill="none" stroke="#fff" stroke-linecap="round" stroke-linejoin="round" stroke-width="0.5" opacity="0"/>
          <path id="Trazado_147044" data-name="Trazado 147044" d="M-6167.286,13572.371l-4.139-3.726-9.567-20.7a5.512,5.512,0,0,0-5.015-3.116h-185.839a5.507,5.507,0,0,0-5.024,3.116l-11.925,25.781-1.966-.722v5.9l.091-.069a3.275,3.275,0,0,0,3.3,2.794H-6170.5a3.227,3.227,0,0,0,3.3-3.048Z" transform="translate(6390.762 -13367.789)" fill="#344154" stroke="#263238" stroke-linecap="round" stroke-linejoin="round" stroke-width="1"/>
          <path id="Trazado_147045" data-name="Trazado 147045" d="M-6170.531,13578.329h-216.876a3.174,3.174,0,0,1-3.3-3.046,3.165,3.165,0,0,1,.262-1.394l13.535-29.243a5.484,5.484,0,0,1,5.024-3.117h185.839a5.486,5.486,0,0,1,5.015,3.117l13.534,29.243a3.172,3.172,0,0,1-1.642,4.177A3.154,3.154,0,0,1-6170.531,13578.329Z" transform="translate(6390.799 -13369.881)" fill="#fff" stroke="#5e6178" stroke-linecap="round" stroke-linejoin="round" stroke-width="1"/>
          <path id="Trazado_147046" data-name="Trazado 147046" d="M-6380.864,13557.466s-4.909,3.368-1.838,4.6,38.364.312,42.665-.919,9.2-12.582,9.2-14.42-6.186-3.163-8.463-3.267-32.362,1.724-32.362,1.724Z" transform="translate(6395.238 -13368.661)" fill="#d9a171" opacity="0.5" style="isolation: isolate"/>
          <ellipse id="Elipse_4336" data-name="Elipse 4336" cx="12.581" cy="5.221" rx="12.581" ry="5.221" transform="translate(177.351 184.193)" fill="#d9a171" opacity="0.5" style="isolation: isolate"/>
          <ellipse id="Elipse_4337" data-name="Elipse 4337" cx="45.114" cy="8.441" rx="45.114" ry="8.441" transform="translate(64.721 184.204)" fill="#d9a171" opacity="0.5" style="isolation: isolate"/>
          <path id="Trazado_147047" data-name="Trazado 147047" d="M-6277.927,13540.775s-.827-3.3-3.576-2.2-2.471,8.394-1.93,12.523,4.265,2.2,4.265,2.2v-2.472s-1.369,1.093-2.059-.414-.551-9.087.139-8.948,2.059,2.472,2.059,2.472S-6278.617,13543.671-6277.927,13540.775Z" transform="translate(6458.658 -13371.898)" fill="#d9a171" stroke="#263238" stroke-linecap="round" stroke-linejoin="round" stroke-width="1"/>
          <path id="Trazado_147048" data-name="Trazado 147048" d="M-6281.412,13540.171v18.079c0,2.128,4.888,3.854,10.925,3.854s10.916-1.726,10.916-3.854v-18.079Z" transform="translate(6460.166 -13370.744)" fill="#d9a171" stroke="#263238" stroke-linecap="round" stroke-linejoin="round" stroke-width="1"/>
          <path id="Trazado_147049" data-name="Trazado 147049" d="M-6259.571,13541.461c0,1.841-4.888,3.324-10.916,3.324s-10.925-1.483-10.925-3.324,4.888-3.322,10.925-3.322S-6259.571,13539.633-6259.571,13541.461Z" transform="translate(6460.166 -13372.035)" fill="#fff" stroke="#5e6178" stroke-linecap="round" stroke-linejoin="round" stroke-width="1"/>
          <path id="Trazado_147050" data-name="Trazado 147050" d="M-6261.553,13541.292c0,1.6-4.255,2.888-9.488,2.888s-9.5-1.289-9.5-2.888,4.255-2.884,9.5-2.884S-6261.553,13539.694-6261.553,13541.292Z" transform="translate(6460.72 -13371.866)" fill="#fff" stroke="#5e6178" stroke-linecap="round" stroke-linejoin="round" stroke-width="1"/>
          <path id="Trazado_147051" data-name="Trazado 147051" d="M-6279.21,13541.7a26.121,26.121,0,0,0,14.64,0A26.157,26.157,0,0,0-6279.21,13541.7Z" transform="translate(6461.563 -13370.437)" fill="#344154" stroke="#263238" stroke-linecap="round" stroke-linejoin="round" stroke-width="1"/>
          <path id="Trazado_147052" data-name="Trazado 147052" d="M-6382.8,13545.438l.137,6.185,41.688.416v-7.153Z" transform="translate(6395.817 -13367.753)" fill="#fff" stroke="#5e6178" stroke-linecap="round" stroke-linejoin="round" stroke-width="1"/>
          <path id="Trazado_147053" data-name="Trazado 147053" d="M-6357.106,13555.829l6.062-13.064v-3.852l-6.337,11Z" transform="translate(6411.949 -13371.544)" fill="#fff" stroke="#5e6178" stroke-linecap="round" stroke-linejoin="round" stroke-width="1"/>
          <path id="Trazado_147054" data-name="Trazado 147054" d="M-6382.8,13548.88l.137,6.2,41.688.413v-7.152Z" transform="translate(6395.817 -13365.56)" fill="#fff" stroke="#5e6178" stroke-linecap="round" stroke-linejoin="round" stroke-width="1"/>
          <path id="Trazado_147055" data-name="Trazado 147055" d="M-6357.106,13559.287l6.062-13.075v-3.851l-6.337,11Z" transform="translate(6411.949 -13369.357)" fill="#fff" stroke="#5e6178" stroke-linecap="round" stroke-linejoin="round" stroke-width="1"/>
          <path id="Trazado_147056" data-name="Trazado 147056" d="M-6364.013,13536.772s.966-1.92-.414-2.749-2.888,1.152-3.715,1.784-18.157,12.109-18.709,13.9,0,5.751,3.714,6.188,7.014-2.057,8.671-2.473,2.3-.552,2.3-.552l11.419-15.409Z" transform="translate(6393.13 -13374.773)" fill="#fff" stroke="#5e6178" stroke-linecap="round" stroke-linejoin="round" stroke-width="1"/>
          <path id="Trazado_147057" data-name="Trazado 147057" d="M-6383.129,13549.957c3.714.412,7.014-2.061,8.671-2.475s2.3-.551,2.3-.551l.414-.564-10.73-2.187a3.6,3.6,0,0,0-4.4-.412C-6387.4,13545.539-6386.843,13549.529-6383.129,13549.957Z" transform="translate(6393.123 -13368.821)" fill="#fff" stroke="#5e6178" stroke-linecap="round" stroke-linejoin="round" stroke-width="1"/>
          <path id="Trazado_147058" data-name="Trazado 147058" d="M-6384.228,13549h32.2c10.052,0,13.076-.553,13.076-.553l6.186-12.8s-19.551,1.24-25.587.827a45.767,45.767,0,0,1-7.43-.827Z" transform="translate(6394.91 -13373.615)" fill="#fff" stroke="#5e6178" stroke-linecap="round" stroke-linejoin="round" stroke-width="1"/>
          <path id="Trazado_147059" data-name="Trazado 147059" d="M-6384.228,13544.034l.552,2.473s26.139.137,33.017.137,12.109.276,12.109.276l-.414-3.45Z" transform="translate(6394.91 -13368.648)" fill="#fff" stroke="#5e6178" stroke-linecap="round" stroke-linejoin="round" stroke-width="1"/>
          <path id="Trazado_147060" data-name="Trazado 147060" d="M-6356.123,13551.865l5.772-13.214v-3.024l-6.187,12.8Z" transform="translate(6412.485 -13373.629)" fill="#fff" stroke="#5e6178" stroke-linecap="round" stroke-linejoin="round" stroke-width="1"/>
          <path id="Trazado_147061" data-name="Trazado 147061" d="M-6268.346,13556.042h-78.831a1.322,1.322,0,0,1-1.334-1.312v-.011h0a1.321,1.321,0,0,1,1.322-1.322h78.843a1.309,1.309,0,0,1,1.322,1.3.044.044,0,0,1,0,.022h0a1.309,1.309,0,0,1-1.3,1.322Z" transform="translate(6417.58 -13362.349)" fill="#fff" stroke="#5e6178" stroke-linecap="round" stroke-linejoin="round" stroke-width="1"/>
          <path id="Trazado_147062" data-name="Trazado 147062" d="M-6265.79,13574.642h-80.177a1.154,1.154,0,0,1-1.151-1.081l-4.358-52.383a1.148,1.148,0,0,1,1-1.277.818.818,0,0,1,.146-.011h88.906a1.15,1.15,0,0,1,1.158,1.142.968.968,0,0,1-.008.146l-4.358,52.383A1.15,1.15,0,0,1-6265.79,13574.642Z" transform="translate(6415.691 -13383.615)" fill="#fff" stroke="#5e6178" stroke-linecap="round" stroke-linejoin="round" stroke-width="1"/>
          <path id="Trazado_147063" data-name="Trazado 147063" d="M-6313.077,13539.381c0,3.127-3.394,5.66-7.566,5.66s-7.579-2.533-7.579-5.66,3.392-5.646,7.579-5.646S-6313.077,13536.265-6313.077,13539.381Z" transform="translate(6430.456 -13374.83)" fill="#fff" stroke="#5e6178" stroke-linecap="round" stroke-linejoin="round" stroke-width="1"/>
          <path id="Trazado_147064" data-name="Trazado 147064" d="M-6271.027,13514.986a6.837,6.837,0,0,0,2.448-3.83,7.09,7.09,0,0,0-.081-3.45" transform="translate(6466.755 -13391.351)" fill="none" stroke="#263238" stroke-linecap="round" stroke-linejoin="round" stroke-width="1" opacity="0"/>
          <path id="Trazado_147065" data-name="Trazado 147065" d="M-6274.4,13552.5s7.648-4.6,5.152-9.855-10.937-8.739-10.937-16.927c0-7.062,7.51-9.671,12.409-12.5" transform="translate(6460.947 -13387.854)" fill="none" stroke="#263238" stroke-linecap="round" stroke-linejoin="round" stroke-width="1" opacity="0"/>
          <path id="Trazado_147066" data-name="Trazado 147066" d="M-6271.069,13543.838s4.267-2.84,4.267-7.348c0-3.026-3.23-5-7.5-9.868" transform="translate(6464.68 -13379.343)" fill="none" stroke="#263238" stroke-linecap="round" stroke-linejoin="round" stroke-width="1" opacity="0"/>
          <path id="Trazado_147067" data-name="Trazado 147067" d="M-6275.163,13527.277s-2.793-2.2-.735-6.325" transform="translate(6463.185 -13382.941)" fill="none" stroke="#263238" stroke-linecap="round" stroke-linejoin="round" stroke-width="1" opacity="0"/>
          <path id="Trazado_147068" data-name="Trazado 147068" d="M-6300.7,13460.4c1.368-.287,4.3-1.414,6.279-6a.575.575,0,0,0-.3-.758l0,0a.587.587,0,0,0-.76.3c-1.816,4.21-4.416,5.142-5.5,5.348a13.2,13.2,0,0,0,3.024-8.313c0-7.981-7.4-14.443-16.514-14.443s-16.513,6.462-16.513,14.443a13.2,13.2,0,0,0,2.759,8.051c-1.736-.092-4.669.643-8.384,4.979a.587.587,0,0,0,0,.816.615.615,0,0,0,.381.139.573.573,0,0,0,.437-.208c4.748-5.532,7.889-4.6,8.521-4.347a16.827,16.827,0,0,0-3,2.1c-5.3,4.774-8.533,13.8-8.119,21.321a27.732,27.732,0,0,0,5.232,13.8,32.1,32.1,0,0,0,9.349-10.466,87.709,87.709,0,0,0,4.6-9.395c0,3.371.438,7.438,2.208,10.349a14.676,14.676,0,0,0,12.9,7.546,12.251,12.251,0,0,0,2.7-.265.582.582,0,0,0,.37-.288c4.438.942,8.854.86,9.534-.079,1.091-1.507,2.644-6.213,3.161-11.961C-6287.386,13473.313-6293.528,13464.849-6300.7,13460.4Zm-15.227,27.014c-2.231-3.646-2.161-9.592-1.9-13.006l.151-.393a23.415,23.415,0,0,0,9.348,18.021,16.929,16.929,0,0,0,5.1,2.38c-2.819.2-8.613-.346-12.7-7Z" transform="translate(6423.982 -13436.526)" fill="#344154"/>
          <path id="Trazado_147069" data-name="Trazado 147069" d="M-6324.531,13456.581s-.943,6.97,7.911,13.8,17.25,4.139,17.25,4.139" transform="translate(6432.781 -13423.795)" fill="none" stroke="#fff" stroke-linecap="round" stroke-linejoin="round" stroke-width="0.5" opacity="0"/>
          <path id="Trazado_147070" data-name="Trazado 147070" d="M-6323.748,13455.176s9.326,13.582,22.206,10.039" transform="translate(6433.296 -13424.69)" fill="none" stroke="#fff" stroke-linecap="round" stroke-linejoin="round" stroke-width="0.5" opacity="0"/>
          <path id="Trazado_147071" data-name="Trazado 147071" d="M-6320.059,13452.79a9.012,9.012,0,0,0-9.328.711c-4.956,3.3-7.439,11.1-7.439,11.1" transform="translate(6424.996 -13426.823)" fill="none" stroke="#fff" stroke-linecap="round" stroke-linejoin="round" stroke-width="0.5" opacity="0"/>
          <path id="Trazado_147072" data-name="Trazado 147072" d="M-6322.7,13454.814s-4.015-1.07-6.5,1.415a16.009,16.009,0,0,0-3.072,3.781" transform="translate(6427.884 -13425.063)" fill="none" stroke="#fff" stroke-linecap="round" stroke-linejoin="round" stroke-width="0.5" opacity="0"/>
        </g>
      </g>
    </g>
  </g>
</svg>
