<svg xmlns="http://www.w3.org/2000/svg" width="628.008" height="350.297" viewBox="0 0 628.008 350.297">
  <g id="Grupo_92229" data-name="Grupo 92229" transform="translate(6559.917 -11760.475)">
    <g id="freepik--background-simple--inject-79" transform="translate(-6511.618 11793.378)">
      <path id="Trazado_147266" data-name="Trazado 147266" d="M-6451.415,12101.975c2.028,3.553,4.057,7.344,5.462,10.1h475.546c4.039-8.262,19.341-44.575,13.77-110.154-6.426-75.272-88.124-169.821-167.986-198.278s-109.236,23.867-155.134,54.159-108.318-.918-170.739,37.637-66.093,112.908-45.9,151.462S-6455.086,12095.549-6451.415,12101.975Z" transform="translate(6507.345 -11795.436)" fill="#dfedfa"/>
    </g>
    <g id="freepik--Window--inject-79" transform="translate(-6545.207 11813.423)">
      <rect id="Rectángulo_33087" data-name="Rectángulo 33087" width="595.89" height="3.112" transform="translate(0 170.592)" fill="#344154"/>
      <line id="Línea_2065" data-name="Línea 2065" y1="120.5" transform="translate(407.131)" fill="none" stroke="#263238" stroke-linecap="round" stroke-linejoin="round" stroke-width="1" opacity="0"/>
      <line id="Línea_2066" data-name="Línea 2066" y1="46.072" transform="translate(407.131 126.356)" fill="none" stroke="#263238" stroke-linecap="round" stroke-linejoin="round" stroke-width="1" opacity="0"/>
      <line id="Línea_2067" data-name="Línea 2067" y1="32.89" transform="translate(252.915 1.074)" fill="none" stroke="#263238" stroke-linecap="round" stroke-linejoin="round" stroke-width="1" opacity="0"/>
      <line id="Línea_2068" data-name="Línea 2068" y1="132.608" transform="translate(252.915 39.821)" fill="none" stroke="#263238" stroke-linecap="round" stroke-linejoin="round" stroke-width="1" opacity="0"/>
      <line id="Línea_2069" data-name="Línea 2069" y1="26.162" transform="translate(561.66)" fill="none" stroke="#263238" stroke-linecap="round" stroke-linejoin="round" stroke-width="1" opacity="0"/>
      <line id="Línea_2070" data-name="Línea 2070" y1="140.419" transform="translate(561.66 32.009)" fill="none" stroke="#263238" stroke-linecap="round" stroke-linejoin="round" stroke-width="1" opacity="0"/>
      <line id="Línea_2071" data-name="Línea 2071" y1="171.355" transform="translate(98.387 1.074)" fill="none" stroke="#263238" stroke-linecap="round" stroke-linejoin="round" stroke-width="1" opacity="0"/>
      <line id="Línea_2072" data-name="Línea 2072" x2="28.301" transform="translate(552.847 87.784)" fill="none" stroke="#263238" stroke-linecap="round" stroke-linejoin="round" stroke-width="1" opacity="0"/>
      <line id="Línea_2073" data-name="Línea 2073" x2="376.738" transform="translate(171.557 87.784)" fill="none" stroke="#263238" stroke-linecap="round" stroke-linejoin="round" stroke-width="1" opacity="0"/>
      <line id="Línea_2074" data-name="Línea 2074" x2="82.074" transform="translate(84.929 87.784)" fill="none" stroke="#263238" stroke-linecap="round" stroke-linejoin="round" stroke-width="1" opacity="0"/>
      <line id="Línea_2075" data-name="Línea 2075" x1="2.12" y2="1.294" transform="translate(347.785 56.619)" fill="none" stroke="#263238" stroke-linecap="round" stroke-linejoin="round" stroke-width="0.5" opacity="0"/>
      <line id="Línea_2076" data-name="Línea 2076" x1="32.799" y2="20.213" transform="translate(352.742 34.653)" fill="none" stroke="#263238" stroke-linecap="round" stroke-linejoin="round" stroke-width="0.5" opacity="0"/>
      <line id="Línea_2077" data-name="Línea 2077" x1="26.272" y2="16.193" transform="translate(363.593 36.021)" fill="none" stroke="#263238" stroke-linecap="round" stroke-linejoin="round" stroke-width="0.5" opacity="0"/>
      <line id="Línea_2078" data-name="Línea 2078" x1="7.931" y2="4.884" transform="translate(393.408 28.952)" fill="none" stroke="#263238" stroke-linecap="round" stroke-linejoin="round" stroke-width="0.5" opacity="0"/>
      <line id="Línea_2079" data-name="Línea 2079" x1="2.111" y2="1.294" transform="translate(138.538 56.619)" fill="none" stroke="#263238" stroke-linecap="round" stroke-linejoin="round" stroke-width="0.5" opacity="0"/>
      <line id="Línea_2080" data-name="Línea 2080" x1="32.799" y2="20.213" transform="translate(143.486 34.653)" fill="none" stroke="#263238" stroke-linecap="round" stroke-linejoin="round" stroke-width="0.5" opacity="0"/>
      <line id="Línea_2081" data-name="Línea 2081" x1="26.272" y2="16.193" transform="translate(154.336 36.021)" fill="none" stroke="#263238" stroke-linecap="round" stroke-linejoin="round" stroke-width="0.5" opacity="0"/>
      <line id="Línea_2082" data-name="Línea 2082" x1="7.931" y2="4.884" transform="translate(184.151 28.952)" fill="none" stroke="#263238" stroke-linecap="round" stroke-linejoin="round" stroke-width="0.5" opacity="0"/>
      <line id="Línea_2083" data-name="Línea 2083" x1="2.111" y2="1.294" transform="translate(472.701 56.619)" fill="none" stroke="#263238" stroke-linecap="round" stroke-linejoin="round" stroke-width="0.5" opacity="0"/>
      <line id="Línea_2084" data-name="Línea 2084" x1="32.798" y2="20.213" transform="translate(477.649 34.653)" fill="none" stroke="#263238" stroke-linecap="round" stroke-linejoin="round" stroke-width="0.5" opacity="0"/>
      <line id="Línea_2085" data-name="Línea 2085" x1="26.272" y2="16.193" transform="translate(488.499 36.021)" fill="none" stroke="#263238" stroke-linecap="round" stroke-linejoin="round" stroke-width="0.5" opacity="0"/>
      <line id="Línea_2086" data-name="Línea 2086" x1="7.931" y2="4.884" transform="translate(518.314 28.952)" fill="none" stroke="#263238" stroke-linecap="round" stroke-linejoin="round" stroke-width="0.5" opacity="0"/>
      <line id="Línea_2087" data-name="Línea 2087" x1="61.888" y2="38.141" transform="translate(152.839 129.339)" fill="none" stroke="#263238" stroke-linecap="round" stroke-linejoin="round" stroke-width="0.5" opacity="0"/>
      <line id="Línea_2088" data-name="Línea 2088" x1="49.579" y2="30.559" transform="translate(173.31 131.919)" fill="none" stroke="#263238" stroke-linecap="round" stroke-linejoin="round" stroke-width="0.5" opacity="0"/>
      <line id="Línea_2089" data-name="Línea 2089" x1="14.972" y2="9.225" transform="translate(229.572 118.572)" fill="none" stroke="#263238" stroke-linecap="round" stroke-linejoin="round" stroke-width="0.5" opacity="0"/>
      <line id="Línea_2090" data-name="Línea 2090" x1="3.993" y2="2.46" transform="translate(367.136 167.527)" fill="none" stroke="#263238" stroke-linecap="round" stroke-linejoin="round" stroke-width="0.5" opacity="0"/>
      <line id="Línea_2091" data-name="Línea 2091" x1="61.888" y2="38.141" transform="translate(376.49 126.091)" fill="none" stroke="#263238" stroke-linecap="round" stroke-linejoin="round" stroke-width="0.5" opacity="0"/>
      <line id="Línea_2092" data-name="Línea 2092" x1="49.579" y2="30.559" transform="translate(396.96 128.661)" fill="none" stroke="#263238" stroke-linecap="round" stroke-linejoin="round" stroke-width="0.5" opacity="0"/>
      <line id="Línea_2093" data-name="Línea 2093" x1="14.972" y2="9.225" transform="translate(453.222 115.323)" fill="none" stroke="#263238" stroke-linecap="round" stroke-linejoin="round" stroke-width="0.5" opacity="0"/>
    </g>
    <g id="freepik--Lamps--inject-79" transform="translate(-6388.835 11770.344)">
      <path id="Trazado_147267" data-name="Trazado 147267" d="M-6345.58,11811.885v-11.512h-14.687v11.539a21.938,21.938,0,0,0-13.319,20.507v.5h41.308v-.5A21.932,21.932,0,0,0-6345.58,11811.885Z" transform="translate(6373.588 -11772.808)" fill="#344154" stroke="#263238" stroke-linecap="round" stroke-linejoin="round" stroke-width="1"/>
      <line id="Línea_2094" data-name="Línea 2094" y1="27.539" transform="translate(20.665)" fill="none" stroke="#263238" stroke-linecap="round" stroke-linejoin="round" stroke-width="1" opacity="0"/>
      <path id="Trazado_147268" data-name="Trazado 147268" d="M-6029.58,11811.885v-11.512h-14.687v11.539a21.937,21.937,0,0,0-13.319,20.507v.5h41.308v-.5A21.931,21.931,0,0,0-6029.58,11811.885Z" transform="translate(6347.662 -11772.808)" fill="#344154" stroke="#263238" stroke-linecap="round" stroke-linejoin="round" stroke-width="1"/>
      <line id="Línea_2095" data-name="Línea 2095" y1="27.539" transform="translate(310.739)" fill="none" stroke="#263238" stroke-linecap="round" stroke-linejoin="round" stroke-width="1" opacity="0"/>
    </g>
    <g id="freepik--Floor--inject-79" transform="translate(-6559.417 12109.987)">
      <line id="Línea_2096" data-name="Línea 2096" x2="622.373" fill="none" stroke="#263238" stroke-linecap="round" stroke-linejoin="round" stroke-width="1" opacity="0"/>
    </g>
    <g id="freepik--Plant--inject-79" transform="translate(-5984.201 11941.337)">
      <line id="Línea_2097" data-name="Línea 2097" x2="10.52" y2="100.782" transform="translate(11.513 35.307)" fill="none" stroke="#263238" stroke-miterlimit="10" stroke-width="2" opacity="0"/>
      <line id="Línea_2098" data-name="Línea 2098" x1="4.764" y1="5.04" transform="translate(15.571 111.764)" fill="none" stroke="#263238" stroke-miterlimit="10" stroke-width="2" opacity="0"/>
      <path id="Trazado_147269" data-name="Trazado 147269" d="M-5915.159,12079.445a5.4,5.4,0,0,0-1.9-4.048c-1.221-1.093-7.665-3.8-8.262-1.533C-5926,12076.333-5919.409,12081.181-5915.159,12079.445Z" transform="translate(5932.18 -11966.167)" fill="#d9a171" stroke="#263238" stroke-miterlimit="10" stroke-width="1"/>
      <line id="Línea_2099" data-name="Línea 2099" x1="6.132" y1="3.828" transform="translate(10.89 109.451)" fill="none" stroke="#263238" stroke-miterlimit="10" stroke-width="0.5" opacity="0"/>
      <line id="Línea_2100" data-name="Línea 2100" x1="4.773" y1="5.03" transform="translate(16.764 123.229)" fill="none" stroke="#263238" stroke-miterlimit="10" stroke-width="2" opacity="0"/>
      <path id="Trazado_147270" data-name="Trazado 147270" d="M-5913.858,12091.926a5.386,5.386,0,0,0-1.9-4.039c-1.221-1.092-7.665-3.81-8.262-1.533C-5924.7,12088.814-5918.1,12093.643-5913.858,12091.926Z" transform="translate(5932.074 -11967.191)" fill="#d9a171" stroke="#263238" stroke-miterlimit="10" stroke-width="1"/>
      <line id="Línea_2101" data-name="Línea 2101" x1="6.132" y1="3.819" transform="translate(12.083 120.916)" fill="none" stroke="#263238" stroke-miterlimit="10" stroke-width="0.5" opacity="0"/>
      <line id="Línea_2102" data-name="Línea 2102" x1="4.764" y1="5.04" transform="translate(12.652 83.794)" fill="none" stroke="#263238" stroke-miterlimit="10" stroke-width="2" opacity="0"/>
      <path id="Trazado_147271" data-name="Trazado 147271" d="M-5918.329,12048.975a5.4,5.4,0,0,0-1.9-4.048c-1.221-1.092-7.665-3.8-8.262-1.533C-5929.179,12045.863-5922.588,12050.71-5918.329,12048.975Z" transform="translate(5932.44 -11963.666)" fill="#d9a171" stroke="#263238" stroke-miterlimit="10" stroke-width="1"/>
      <line id="Línea_2103" data-name="Línea 2103" x1="6.132" y1="3.819" transform="translate(7.97 81.49)" fill="none" stroke="#263238" stroke-miterlimit="10" stroke-width="0.5" opacity="0"/>
      <line id="Línea_2104" data-name="Línea 2104" x1="4.773" y1="5.04" transform="translate(13.845 95.259)" fill="none" stroke="#263238" stroke-miterlimit="10" stroke-width="2" opacity="0"/>
      <path id="Trazado_147272" data-name="Trazado 147272" d="M-5917.039,12061.457a5.385,5.385,0,0,0-1.9-4.04c-1.221-1.092-7.665-3.8-8.262-1.532C-5927.879,12058.345-5921.279,12063.191-5917.039,12061.457Z" transform="translate(5932.334 -11964.692)" fill="#d9a171" stroke="#263238" stroke-miterlimit="10" stroke-width="1"/>
      <line id="Línea_2105" data-name="Línea 2105" x1="6.132" y1="3.819" transform="translate(9.163 92.946)" fill="none" stroke="#263238" stroke-miterlimit="10" stroke-width="0.5" opacity="0"/>
      <line id="Línea_2106" data-name="Línea 2106" x1="4.773" y1="5.04" transform="translate(10.706 65.177)" fill="none" stroke="#263238" stroke-miterlimit="10" stroke-width="2" opacity="0"/>
      <path id="Trazado_147273" data-name="Trazado 147273" d="M-5920.458,12028.7a5.4,5.4,0,0,0-1.9-4.048c-1.221-1.093-7.665-3.8-8.262-1.533C-5931.3,12025.583-5924.7,12030.421-5920.458,12028.7Z" transform="translate(5932.615 -11962.003)" fill="#d9a171" stroke="#263238" stroke-miterlimit="10" stroke-width="1"/>
      <line id="Línea_2107" data-name="Línea 2107" x1="6.132" y1="3.828" transform="translate(6.024 62.865)" fill="none" stroke="#263238" stroke-miterlimit="10" stroke-width="0.5" opacity="0"/>
      <line id="Línea_2108" data-name="Línea 2108" x1="4.764" y1="5.04" transform="translate(8.76 46.479)" fill="none" stroke="#263238" stroke-miterlimit="10" stroke-width="2" opacity="0"/>
      <path id="Trazado_147274" data-name="Trazado 147274" d="M-5922.579,12008.315a5.426,5.426,0,0,0-1.9-4.038c-1.23-1.093-7.665-3.8-8.262-1.533C-5933.419,12005.2-5926.829,12010.052-5922.579,12008.315Z" transform="translate(5932.789 -11960.332)" fill="#d9a171" stroke="#263238" stroke-miterlimit="10" stroke-width="1"/>
      <line id="Línea_2109" data-name="Línea 2109" x1="6.132" y1="3.819" transform="translate(4.078 44.166)" fill="none" stroke="#263238" stroke-miterlimit="10" stroke-width="0.5" opacity="0"/>
      <line id="Línea_2110" data-name="Línea 2110" y1="5.912" x2="3.626" transform="translate(19.537 104.108)" fill="none" stroke="#263238" stroke-miterlimit="10" stroke-width="2" opacity="0"/>
      <path id="Trazado_147275" data-name="Trazado 147275" d="M-5908.765,12071.234a5.364,5.364,0,0,1,1.019-4.342c.973-1.322,6.71-5.306,7.784-3.213C-5898.805,12065.956-5904.258,12072.061-5908.765,12071.234Z" transform="translate(5930.827 -11965.354)" fill="#d9a171" stroke="#263238" stroke-miterlimit="10" stroke-width="1"/>
      <line id="Línea_2111" data-name="Línea 2111" y1="5.269" x2="5.517" transform="translate(22.061 100.611)" fill="none" stroke="#263238" stroke-miterlimit="10" stroke-width="0.5" opacity="0"/>
      <line id="Línea_2112" data-name="Línea 2112" y1="5.912" x2="3.626" transform="translate(16.388 73.944)" fill="none" stroke="#263238" stroke-miterlimit="10" stroke-width="2" opacity="0"/>
      <path id="Trazado_147276" data-name="Trazado 147276" d="M-5912.2,12038.383a5.383,5.383,0,0,1,1.019-4.351c.973-1.322,6.71-5.307,7.784-3.213C-5902.235,12033.114-5907.688,12039.2-5912.2,12038.383Z" transform="translate(5931.108 -11962.659)" fill="#d9a171" stroke="#263238" stroke-miterlimit="10" stroke-width="1"/>
      <line id="Línea_2113" data-name="Línea 2113" y1="5.278" x2="5.517" transform="translate(18.912 70.447)" fill="none" stroke="#263238" stroke-miterlimit="10" stroke-width="0.5" opacity="0"/>
      <line id="Línea_2114" data-name="Línea 2114" y1="5.912" x2="3.617" transform="translate(15.011 60.689)" fill="none" stroke="#263238" stroke-miterlimit="10" stroke-width="2" opacity="0"/>
      <path id="Trazado_147277" data-name="Trazado 147277" d="M-5913.705,12023.943a5.387,5.387,0,0,1,1.019-4.352c.973-1.321,6.719-5.306,7.784-3.213C-5903.746,12018.656-5909.189,12024.761-5913.705,12023.943Z" transform="translate(5931.232 -11961.474)" fill="#d9a171" stroke="#263238" stroke-miterlimit="10" stroke-width="1"/>
      <line id="Línea_2115" data-name="Línea 2115" y1="5.278" x2="5.526" transform="translate(17.526 57.191)" fill="none" stroke="#263238" stroke-miterlimit="10" stroke-width="0.5" opacity="0"/>
      <line id="Línea_2116" data-name="Línea 2116" y1="5.912" x2="3.626" transform="translate(12.982 41.265)" fill="none" stroke="#263238" stroke-miterlimit="10" stroke-width="2" opacity="0"/>
      <path id="Trazado_147278" data-name="Trazado 147278" d="M-5915.915,12002.773a5.394,5.394,0,0,1,1.019-4.352c.973-1.321,6.719-5.3,7.784-3.213C-5905.956,11997.5-5911.4,12003.572-5915.915,12002.773Z" transform="translate(5931.413 -11959.737)" fill="#d9a171" stroke="#263238" stroke-miterlimit="10" stroke-width="1"/>
      <line id="Línea_2117" data-name="Línea 2117" y1="5.278" x2="5.526" transform="translate(15.498 37.758)" fill="none" stroke="#263238" stroke-miterlimit="10" stroke-width="0.5" opacity="0"/>
      <path id="Trazado_147279" data-name="Trazado 147279" d="M-5920.345,11993.744a5.393,5.393,0,0,1,1.019-4.351c.973-1.322,6.71-5.3,7.784-3.2C-5910.385,11988.466-5915.829,11994.57-5920.345,11993.744Z" transform="translate(5931.776 -11958.997)" fill="#d9a171" stroke="#263238" stroke-miterlimit="10" stroke-width="1"/>
      <line id="Línea_2118" data-name="Línea 2118" y1="5.278" x2="5.517" transform="translate(11.431 29.47)" fill="none" stroke="#263238" stroke-miterlimit="10" stroke-width="0.5" opacity="0"/>
      <path id="Trazado_147280" data-name="Trazado 147280" d="M-5920.641,11993.861a5.4,5.4,0,0,1-4.223-1.469c-1.211-1.11-4.59-7.233-2.377-8.077C-5924.855,11983.442-5919.356,11989.455-5920.641,11993.861Z" transform="translate(5932.394 -11958.886)" fill="#d9a171" stroke="#263238" stroke-miterlimit="10" stroke-width="1"/>
      <line id="Línea_2119" data-name="Línea 2119" x1="4.672" y1="6.049" transform="translate(7.08 28.928)" fill="none" stroke="#263238" stroke-miterlimit="10" stroke-width="0.5" opacity="0"/>
      <line id="Línea_2120" data-name="Línea 2120" x1="10.456" y2="100.791" transform="translate(28.799 49.187)" fill="none" stroke="#263238" stroke-miterlimit="10" stroke-width="2" opacity="0"/>
      <line id="Línea_2121" data-name="Línea 2121" x1="3.626" y1="5.902" transform="translate(27.486 124.844)" fill="none" stroke="#263238" stroke-miterlimit="10" stroke-width="2" opacity="0"/>
      <path id="Trazado_147281" data-name="Trazado 147281" d="M-5902.447,12093.824a5.4,5.4,0,0,0-1.019-4.351c-.973-1.322-6.72-5.3-7.784-3.2C-5912.407,12088.546-5906.954,12094.65-5902.447,12093.824Z" transform="translate(5931.034 -11967.208)" fill="#d9a171" stroke="#263238" stroke-miterlimit="10" stroke-width="1"/>
      <line id="Línea_2122" data-name="Línea 2122" x1="5.214" y1="5.003" transform="translate(23.374 121.614)" fill="none" stroke="#263238" stroke-miterlimit="10" stroke-width="0.5" opacity="0"/>
      <line id="Línea_2123" data-name="Línea 2123" x1="3.626" y1="5.902" transform="translate(30.387 96.875)" fill="none" stroke="#263238" stroke-miterlimit="10" stroke-width="2" opacity="0"/>
      <path id="Trazado_147282" data-name="Trazado 147282" d="M-5899.287,12063.354a5.4,5.4,0,0,0-1.019-4.352c-.973-1.321-6.719-5.3-7.784-3.2C-5909.247,12058.112-5903.812,12064.181-5899.287,12063.354Z" transform="translate(5930.775 -11964.708)" fill="#d9a171" stroke="#263238" stroke-miterlimit="10" stroke-width="1"/>
      <line id="Línea_2124" data-name="Línea 2124" x1="5.214" y1="5.003" transform="translate(26.274 93.644)" fill="none" stroke="#263238" stroke-miterlimit="10" stroke-width="0.5" opacity="0"/>
      <line id="Línea_2125" data-name="Línea 2125" x1="3.635" y1="5.912" transform="translate(29.193 108.331)" fill="none" stroke="#263238" stroke-miterlimit="10" stroke-width="2" opacity="0"/>
      <path id="Trazado_147283" data-name="Trazado 147283" d="M-5900.578,12075.844a5.422,5.422,0,0,0-1.028-4.352c-.973-1.322-6.719-5.3-7.784-3.2C-5910.547,12070.565-5905.094,12076.66-5900.578,12075.844Z" transform="translate(5930.882 -11965.732)" fill="#d9a171" stroke="#263238" stroke-miterlimit="10" stroke-width="1"/>
      <line id="Línea_2126" data-name="Línea 2126" x1="5.214" y1="5.003" transform="translate(25.09 105.108)" fill="none" stroke="#263238" stroke-miterlimit="10" stroke-width="0.5" opacity="0"/>
      <line id="Línea_2127" data-name="Línea 2127" x1="3.635" y1="5.912" transform="translate(32.314 78.249)" fill="none" stroke="#263238" stroke-miterlimit="10" stroke-width="2" opacity="0"/>
      <path id="Trazado_147284" data-name="Trazado 147284" d="M-5897.217,12043.073a5.415,5.415,0,0,0-1.028-4.35c-.973-1.322-6.719-5.3-7.785-3.2C-5907.149,12037.795-5901.7,12043.892-5897.217,12043.073Z" transform="translate(5930.605 -11963.044)" fill="#d9a171" stroke="#263238" stroke-miterlimit="10" stroke-width="1"/>
      <line id="Línea_2128" data-name="Línea 2128" x1="5.214" y1="5.003" transform="translate(28.211 75.028)" fill="none" stroke="#263238" stroke-miterlimit="10" stroke-width="0.5" opacity="0"/>
      <line id="Línea_2129" data-name="Línea 2129" x1="3.626" y1="5.912" transform="translate(34.261 59.55)" fill="none" stroke="#263238" stroke-miterlimit="10" stroke-width="2" opacity="0"/>
      <path id="Trazado_147285" data-name="Trazado 147285" d="M-5895.067,12022.694a5.371,5.371,0,0,0-1.019-4.342c-.973-1.322-6.719-5.306-7.785-3.213C-5905.027,12017.425-5899.574,12023.566-5895.067,12022.694Z" transform="translate(5930.429 -11961.372)" fill="#d9a171" stroke="#263238" stroke-miterlimit="10" stroke-width="1"/>
      <line id="Línea_2130" data-name="Línea 2130" x1="5.214" y1="5.003" transform="translate(30.148 56.32)" fill="none" stroke="#263238" stroke-miterlimit="10" stroke-width="0.5" opacity="0"/>
      <line id="Línea_2131" data-name="Línea 2131" y1="5.04" x2="4.764" transform="translate(31.727 118.915)" fill="none" stroke="#263238" stroke-miterlimit="10" stroke-width="2" opacity="0"/>
      <path id="Trazado_147286" data-name="Trazado 147286" d="M-5894.616,12087.226a5.406,5.406,0,0,1,1.891-4.049c1.23-1.092,7.665-3.8,8.262-1.532C-5883.775,12084.077-5890.366,12088.961-5894.616,12087.226Z" transform="translate(5929.657 -11966.806)" fill="#d9a171" stroke="#263238" stroke-miterlimit="10" stroke-width="1"/>
      <line id="Línea_2132" data-name="Línea 2132" y1="4.03" x2="6.49" transform="translate(35.041 116.39)" fill="none" stroke="#263238" stroke-miterlimit="10" stroke-width="0.5" opacity="0"/>
      <line id="Línea_2133" data-name="Línea 2133" y1="5.04" x2="4.764" transform="translate(34.857 88.751)" fill="none" stroke="#263238" stroke-miterlimit="10" stroke-width="2" opacity="0"/>
      <path id="Trazado_147287" data-name="Trazado 147287" d="M-5891.206,12054.365a5.413,5.413,0,0,1,1.891-4.048c1.23-1.093,7.665-3.8,8.262-1.533C-5880.383,12051.253-5886.956,12056.1-5891.206,12054.365Z" transform="translate(5929.377 -11964.109)" fill="#d9a171" stroke="#263238" stroke-miterlimit="10" stroke-width="1"/>
      <line id="Línea_2134" data-name="Línea 2134" y1="4.03" x2="6.49" transform="translate(38.171 86.227)" fill="none" stroke="#263238" stroke-miterlimit="10" stroke-width="0.5" opacity="0"/>
      <line id="Línea_2135" data-name="Línea 2135" y1="5.04" x2="4.764" transform="translate(36.225 75.495)" fill="none" stroke="#263238" stroke-miterlimit="10" stroke-width="2" opacity="0"/>
      <path id="Trazado_147288" data-name="Trazado 147288" d="M-5889.706,12039.926a5.4,5.4,0,0,1,1.891-4.049c1.23-1.092,7.665-3.8,8.261-1.533C-5878.874,12036.813-5885.465,12041.643-5889.706,12039.926Z" transform="translate(5929.254 -11962.924)" fill="#d9a171" stroke="#263238" stroke-miterlimit="10" stroke-width="1"/>
      <line id="Línea_2136" data-name="Línea 2136" y1="4.03" x2="6.49" transform="translate(39.548 72.971)" fill="none" stroke="#263238" stroke-miterlimit="10" stroke-width="0.5" opacity="0"/>
      <line id="Línea_2137" data-name="Línea 2137" y1="5.04" x2="4.764" transform="translate(38.244 56.062)" fill="none" stroke="#263238" stroke-miterlimit="10" stroke-width="2" opacity="0"/>
      <path id="Trazado_147289" data-name="Trazado 147289" d="M-5887.516,12018.8a5.409,5.409,0,0,1,1.9-4.049c1.221-1.092,7.665-3.8,8.262-1.532C-5876.675,12015.647-5883.266,12020.493-5887.516,12018.8Z" transform="translate(5929.075 -11961.191)" fill="#d9a171" stroke="#263238" stroke-miterlimit="10" stroke-width="1"/>
      <line id="Línea_2138" data-name="Línea 2138" y1="4.03" x2="6.49" transform="translate(41.558 53.538)" fill="none" stroke="#263238" stroke-miterlimit="10" stroke-width="0.5" opacity="0"/>
      <path id="Trazado_147290" data-name="Trazado 147290" d="M-5890,12009a5.377,5.377,0,0,1,1.9-4.039c1.22-1.092,7.665-3.809,8.261-1.542C-5879.155,12005.894-5885.746,12010.74-5890,12009Z" transform="translate(5929.278 -11960.389)" fill="#d9a171" stroke="#263238" stroke-miterlimit="10" stroke-width="1"/>
      <line id="Línea_2139" data-name="Línea 2139" y1="4.021" x2="6.49" transform="translate(39.282 44.597)" fill="none" stroke="#263238" stroke-miterlimit="10" stroke-width="0.5" opacity="0"/>
      <path id="Trazado_147291" data-name="Trazado 147291" d="M-5890.2,12008.944a5.411,5.411,0,0,1-3.819-2.313c-.918-1.331-2.983-8.013-.66-8.39C-5892.166,11997.837-5888.025,12004.905-5890.2,12008.944Z" transform="translate(5929.75 -11960.033)" fill="#d9a171" stroke="#263238" stroke-miterlimit="10" stroke-width="1"/>
      <line id="Línea_2140" data-name="Línea 2140" x1="3.323" y1="6.875" transform="translate(36.225 42.036)" fill="none" stroke="#263238" stroke-miterlimit="10" stroke-width="0.5" opacity="0"/>
      <line id="Línea_2141" data-name="Línea 2141" y2="127.449" transform="translate(27.275 8.145)" fill="none" stroke="#263238" stroke-miterlimit="10" stroke-width="2" opacity="0"/>
      <line id="Línea_2142" data-name="Línea 2142" x1="4.223" y1="5.508" transform="translate(23.153 110.928)" fill="none" stroke="#263238" stroke-miterlimit="10" stroke-width="2" opacity="0"/>
      <path id="Trazado_147292" data-name="Trazado 147292" d="M-5907.026,12078.606a5.407,5.407,0,0,0-1.469-4.222c-1.1-1.212-7.225-4.59-8.069-2.378C-5917.482,12074.385-5911.433,12079.893-5907.026,12078.606Z" transform="translate(5931.465 -11966.026)" fill="#d9a171" stroke="#263238" stroke-miterlimit="10" stroke-width="1"/>
      <line id="Línea_2143" data-name="Línea 2143" x1="5.701" y1="4.434" transform="translate(18.738 108.147)" fill="none" stroke="#263238" stroke-miterlimit="10" stroke-width="0.5" opacity="0"/>
      <line id="Línea_2144" data-name="Línea 2144" x1="4.223" y1="5.508" transform="translate(23.153 86.979)" fill="none" stroke="#263238" stroke-miterlimit="10" stroke-width="2" opacity="0"/>
      <path id="Trazado_147293" data-name="Trazado 147293" d="M-5907.026,12052.517a5.407,5.407,0,0,0-1.469-4.222c-1.1-1.212-7.225-4.59-8.069-2.388C-5917.482,12048.295-5911.433,12053.8-5907.026,12052.517Z" transform="translate(5931.465 -11963.886)" fill="#d9a171" stroke="#263238" stroke-miterlimit="10" stroke-width="1"/>
      <line id="Línea_2145" data-name="Línea 2145" x1="5.701" y1="4.434" transform="translate(18.738 84.198)" fill="none" stroke="#263238" stroke-miterlimit="10" stroke-width="0.5" opacity="0"/>
      <line id="Línea_2146" data-name="Línea 2146" x1="4.223" y1="5.499" transform="translate(23.153 58.862)" fill="none" stroke="#263238" stroke-miterlimit="10" stroke-width="2" opacity="0"/>
      <path id="Trazado_147294" data-name="Trazado 147294" d="M-5907.026,12021.888a5.409,5.409,0,0,0-1.469-4.223c-1.1-1.212-7.225-4.59-8.069-2.388C-5917.482,12017.665-5911.433,12023.163-5907.026,12021.888Z" transform="translate(5931.465 -11961.373)" fill="#d9a171" stroke="#263238" stroke-miterlimit="10" stroke-width="1"/>
      <line id="Línea_2147" data-name="Línea 2147" x1="5.701" y1="4.443" transform="translate(18.738 56.071)" fill="none" stroke="#263238" stroke-miterlimit="10" stroke-width="0.5" opacity="0"/>
      <line id="Línea_2148" data-name="Línea 2148" x1="4.223" y1="5.508" transform="translate(23.153 40.136)" fill="none" stroke="#263238" stroke-miterlimit="10" stroke-width="2" opacity="0"/>
      <path id="Trazado_147295" data-name="Trazado 147295" d="M-5907.026,12001.486a5.385,5.385,0,0,0-1.469-4.213c-1.1-1.221-7.225-4.59-8.069-2.387C-5917.482,11997.273-5911.433,12002.772-5907.026,12001.486Z" transform="translate(5931.465 -11959.699)" fill="#d9a171" stroke="#263238" stroke-miterlimit="10" stroke-width="1"/>
      <line id="Línea_2149" data-name="Línea 2149" x1="5.701" y1="4.434" transform="translate(18.738 37.355)" fill="none" stroke="#263238" stroke-miterlimit="10" stroke-width="0.5" opacity="0"/>
      <line id="Línea_2150" data-name="Línea 2150" x1="4.223" y1="5.508" transform="translate(23.153 21.336)" fill="none" stroke="#263238" stroke-miterlimit="10" stroke-width="2" opacity="0"/>
      <path id="Trazado_147296" data-name="Trazado 147296" d="M-5907.026,11981.007a5.409,5.409,0,0,0-1.469-4.223c-1.1-1.212-7.225-4.589-8.069-2.378C-5917.482,11976.784-5911.433,11982.292-5907.026,11981.007Z" transform="translate(5931.465 -11958.02)" fill="#d9a171" stroke="#263238" stroke-miterlimit="10" stroke-width="1"/>
      <line id="Línea_2151" data-name="Línea 2151" x1="5.701" y1="4.434" transform="translate(18.738 18.555)" fill="none" stroke="#263238" stroke-miterlimit="10" stroke-width="0.5" opacity="0"/>
      <line id="Línea_2152" data-name="Línea 2152" y1="5.508" x2="4.213" transform="translate(27.284 118.245)" fill="none" stroke="#263238" stroke-miterlimit="10" stroke-width="2" opacity="0"/>
      <path id="Trazado_147297" data-name="Trazado 147297" d="M-5899.878,12086.578a5.406,5.406,0,0,1,1.469-4.225c1.111-1.211,7.233-4.59,8.078-2.385C-5889.414,12082.354-5895.472,12087.861-5899.878,12086.578Z" transform="translate(5930.091 -11966.68)" fill="#d9a171" stroke="#263238" stroke-miterlimit="10" stroke-width="1"/>
      <line id="Línea_2153" data-name="Línea 2153" y1="4.672" x2="6.04" transform="translate(30.212 115.225)" fill="none" stroke="#263238" stroke-miterlimit="10" stroke-width="0.5" opacity="0"/>
      <line id="Línea_2154" data-name="Línea 2154" y1="5.508" x2="4.213" transform="translate(27.284 80.15)" fill="none" stroke="#263238" stroke-miterlimit="10" stroke-width="2" opacity="0"/>
      <path id="Trazado_147298" data-name="Trazado 147298" d="M-5899.878,12045.077a5.4,5.4,0,0,1,1.469-4.223c1.111-1.211,7.233-4.59,8.078-2.378C-5889.414,12040.854-5895.472,12046.362-5899.878,12045.077Z" transform="translate(5930.091 -11963.276)" fill="#d9a171" stroke="#263238" stroke-miterlimit="10" stroke-width="1"/>
      <line id="Línea_2155" data-name="Línea 2155" y1="4.672" x2="6.04" transform="translate(30.212 77.13)" fill="none" stroke="#263238" stroke-miterlimit="10" stroke-width="0.5" opacity="0"/>
      <line id="Línea_2156" data-name="Línea 2156" y1="5.508" x2="4.213" transform="translate(27.284 61.35)" fill="none" stroke="#263238" stroke-miterlimit="10" stroke-width="2" opacity="0"/>
      <path id="Trazado_147299" data-name="Trazado 147299" d="M-5899.878,12024.6a5.4,5.4,0,0,1,1.469-4.223c1.111-1.212,7.233-4.59,8.078-2.387C-5889.414,12020.374-5895.472,12025.882-5899.878,12024.6Z" transform="translate(5930.091 -11961.595)" fill="#d9a171" stroke="#263238" stroke-miterlimit="10" stroke-width="1"/>
      <line id="Línea_2157" data-name="Línea 2157" y1="4.672" x2="6.04" transform="translate(30.212 58.33)" fill="none" stroke="#263238" stroke-miterlimit="10" stroke-width="0.5" opacity="0"/>
      <line id="Línea_2158" data-name="Línea 2158" y1="5.499" x2="4.213" transform="translate(27.284 36.501)" fill="none" stroke="#263238" stroke-miterlimit="10" stroke-width="2" opacity="0"/>
      <path id="Trazado_147300" data-name="Trazado 147300" d="M-5899.878,11997.526a5.4,5.4,0,0,1,1.469-4.222c1.111-1.212,7.233-4.59,8.078-2.387C-5889.414,11993.3-5895.472,11998.813-5899.878,11997.526Z" transform="translate(5930.091 -11959.374)" fill="#d9a171" stroke="#263238" stroke-miterlimit="10" stroke-width="1"/>
      <line id="Línea_2159" data-name="Línea 2159" y1="4.682" x2="6.04" transform="translate(30.212 33.471)" fill="none" stroke="#263238" stroke-miterlimit="10" stroke-width="0.5" opacity="0"/>
      <line id="Línea_2160" data-name="Línea 2160" y1="5.499" x2="4.213" transform="translate(27.284 16.967)" fill="none" stroke="#263238" stroke-miterlimit="10" stroke-width="2" opacity="0"/>
      <path id="Trazado_147301" data-name="Trazado 147301" d="M-5899.878,11976.237a5.389,5.389,0,0,1,1.469-4.214c1.111-1.221,7.233-4.589,8.078-2.386C-5889.414,11972.023-5895.472,11977.522-5899.878,11976.237Z" transform="translate(5930.091 -11957.628)" fill="#d9a171" stroke="#263238" stroke-miterlimit="10" stroke-width="1"/>
      <line id="Línea_2161" data-name="Línea 2161" y1="4.672" x2="6.04" transform="translate(30.212 13.938)" fill="none" stroke="#263238" stroke-miterlimit="10" stroke-width="0.5" opacity="0"/>
      <path id="Trazado_147302" data-name="Trazado 147302" d="M-5903.348,11966.8a5.385,5.385,0,0,1,1.469-4.213c1.1-1.213,7.225-4.59,8.069-2.388C-5892.893,11962.585-5898.942,11968.082-5903.348,11966.8Z" transform="translate(5930.375 -11956.854)" fill="#d9a171" stroke="#263238" stroke-miterlimit="10" stroke-width="1"/>
      <line id="Línea_2162" data-name="Línea 2162" y1="4.672" x2="6.04" transform="translate(27.027 5.272)" fill="none" stroke="#263238" stroke-miterlimit="10" stroke-width="0.5" opacity="0"/>
      <path id="Trazado_147303" data-name="Trazado 147303" d="M-5903.6,11966.831a5.413,5.413,0,0,1-4.039-1.9c-1.093-1.229-3.8-7.673-1.524-8.261C-5906.714,11955.989-5901.858,11962.581-5903.6,11966.831Z" transform="translate(5930.923 -11956.62)" fill="#d9a171" stroke="#263238" stroke-miterlimit="10" stroke-width="1"/>
      <line id="Línea_2163" data-name="Línea 2163" x1="4.011" y1="6.499" transform="translate(23.309 3.711)" fill="none" stroke="#263238" stroke-miterlimit="10" stroke-width="0.5" opacity="0"/>
      <path id="Trazado_147304" data-name="Trazado 147304" d="M-5898.723,12137.307h-13.494l-1.689-34.094h16.872Z" transform="translate(5931.24 -11968.647)" fill="#344154" stroke="#263238" stroke-miterlimit="10" stroke-width="1"/>
    </g>
    <g id="freepik--file-cabinet--inject-79" transform="translate(-6537.386 11850.499)">
      <rect id="Rectángulo_33088" data-name="Rectángulo 33088" width="74.354" height="215.719" transform="translate(0 43.769)" fill="#fff" stroke="#5e6178" stroke-linecap="round" stroke-linejoin="round" stroke-width="1"/>
      <rect id="Rectángulo_33089" data-name="Rectángulo 33089" width="60.585" height="36.718" transform="translate(6.426 62.128)" fill="#fff" stroke="#5e6178" stroke-linecap="round" stroke-linejoin="round" stroke-width="1"/>
      <rect id="Rectángulo_33090" data-name="Rectángulo 33090" width="14.687" height="12.851" transform="translate(29.375 74.061)" fill="#6595bf" stroke="#263238" stroke-linecap="round" stroke-linejoin="round" stroke-width="1"/>
      <rect id="Rectángulo_33091" data-name="Rectángulo 33091" width="9.446" height="8.262" transform="translate(32 76.365)" fill="#fff" stroke="#5e6178" stroke-linecap="round" stroke-linejoin="round" stroke-width="1"/>
      <rect id="Rectángulo_33092" data-name="Rectángulo 33092" width="60.585" height="36.718" transform="translate(6.426 105.216)" fill="#fff" stroke="#5e6178" stroke-linecap="round" stroke-linejoin="round" stroke-width="1"/>
      <rect id="Rectángulo_33093" data-name="Rectángulo 33093" width="14.687" height="12.851" transform="translate(29.375 117.149)" fill="#344154" stroke="#263238" stroke-linecap="round" stroke-linejoin="round" stroke-width="1"/>
      <rect id="Rectángulo_33094" data-name="Rectángulo 33094" width="9.446" height="8.262" transform="translate(32 119.444)" fill="#6595bf" stroke="#263238" stroke-linecap="round" stroke-linejoin="round" stroke-width="1"/>
      <rect id="Rectángulo_33095" data-name="Rectángulo 33095" width="60.585" height="36.718" transform="translate(6.426 148.305)" fill="#fff" stroke="#5e6178" stroke-linecap="round" stroke-linejoin="round" stroke-width="1"/>
      <rect id="Rectángulo_33096" data-name="Rectángulo 33096" width="14.687" height="12.851" transform="translate(29.375 160.239)" fill="#6595bf" stroke="#263238" stroke-linecap="round" stroke-linejoin="round" stroke-width="1"/>
      <rect id="Rectángulo_33097" data-name="Rectángulo 33097" width="9.446" height="8.262" transform="translate(32 162.534)" fill="#fff" stroke="#5e6178" stroke-linecap="round" stroke-linejoin="round" stroke-width="1"/>
      <rect id="Rectángulo_33098" data-name="Rectángulo 33098" width="60.585" height="36.718" transform="translate(6.426 191.385)" fill="#fff" stroke="#5e6178" stroke-linecap="round" stroke-linejoin="round" stroke-width="1"/>
      <rect id="Rectángulo_33099" data-name="Rectángulo 33099" width="14.687" height="12.851" transform="translate(29.375 203.318)" fill="#344154" stroke="#263238" stroke-linecap="round" stroke-linejoin="round" stroke-width="1"/>
      <rect id="Rectángulo_33100" data-name="Rectángulo 33100" width="9.446" height="8.262" transform="translate(32 205.613)" fill="#6595bf" stroke="#263238" stroke-linecap="round" stroke-linejoin="round" stroke-width="1"/>
      <rect id="Rectángulo_33101" data-name="Rectángulo 33101" width="33.625" height="28.154" transform="translate(5.077 15.293)" fill="none" stroke="#263238" stroke-linecap="round" stroke-linejoin="round" stroke-width="1" opacity="0"/>
      <path id="Trazado_147305" data-name="Trazado 147305" d="M-6496.253,11891.132h-16.036l-7.041-16.423-.055-.386h-10.5v28.145h33.633Z" transform="translate(6534.963 -11859.03)" fill="#344154" stroke="#263238" stroke-linecap="round" stroke-linejoin="round" stroke-width="1"/>
      <rect id="Rectángulo_33102" data-name="Rectángulo 33102" width="11.731" height="14.467" transform="translate(54.738 29.366)" fill="#344154" stroke="#263238" stroke-linecap="round" stroke-linejoin="round" stroke-width="1"/>
      <path id="Trazado_147306" data-name="Trazado 147306" d="M-6470.108,11878.693s4.984-2.616,6.159-7.344-4.691-13.687-4.691-13.687-5.866,6.646-5.866,11.346S-6470.108,11878.693-6470.108,11878.693Z" transform="translate(6530.419 -11857.663)" fill="#d9a171" stroke="#263238" stroke-linecap="round" stroke-linejoin="round" stroke-width="1"/>
      <path id="Trazado_147307" data-name="Trazado 147307" d="M-6474.283,11885.92s.918-6.426-2.552-8.748-11.731-1.175-11.731-1.175,1.56,9.382,5.866,10.161A22.377,22.377,0,0,0-6474.283,11885.92Z" transform="translate(6531.573 -11859.144)" fill="#d9a171" stroke="#263238" stroke-linecap="round" stroke-linejoin="round" stroke-width="1"/>
      <path id="Trazado_147308" data-name="Trazado 147308" d="M-6463.417,11883.621a11.285,11.285,0,0,1,3.13-8.216c3.516-3.517,10.951-1.562,10.951-1.562s-1.569,6.646-5.865,9A10.329,10.329,0,0,1-6463.417,11883.621Z" transform="translate(6529.51 -11858.946)" fill="#d9a171" stroke="#263238" stroke-linecap="round" stroke-linejoin="round" stroke-width="1"/>
      <line id="Línea_2164" data-name="Línea 2164" x1="5.471" y1="6.655" transform="translate(53.958 23.105)" fill="none" stroke="#263238" stroke-linecap="round" stroke-linejoin="round" stroke-width="1" opacity="0"/>
      <path id="Trazado_147309" data-name="Trazado 147309" d="M-6469.4,11867.5v22.288l9.776-11.336" transform="translate(6530 -11858.471)" fill="none" stroke="#263238" stroke-linecap="round" stroke-linejoin="round" stroke-width="1" opacity="0"/>
    </g>
    <g id="freepik--character-3--inject-79" transform="translate(-6142.052 11925.992)">
      <path id="Trazado_147310" data-name="Trazado 147310" d="M-5984.3,11949.643s5.443.5,8.417,3.957,3.957,12.621,3.461,16.578a6.185,6.185,0,0,0,2.644,6.039c2.754,2.012,5.4,4.729,5.967,8.354.523,3.369-.478,9.428-3.672,11.338-3.672,2.23-8.657,6.682-6.187,8.416a7.451,7.451,0,0,0,4.7,1.488s.248,5.2-7.169,5.2-9.179-5.443-7.426-11.879,5.939-13.859,1.983-17.322-5.71-9.895-3.213-14.053,3.47-13.117,1.239-15.348S-5984.3,11949.643-5984.3,11949.643Z" transform="translate(6095.003 -11940.703)" fill="#344154" stroke="#263238" stroke-linecap="round" stroke-linejoin="round" stroke-width="1"/>
      <path id="Trazado_147311" data-name="Trazado 147311" d="M-6066.419,12057.446l6.921,60.044,7.445-.514,1.836-45.9,4.59-.515,29,1.836a42.381,42.381,0,0,1,4.59-.771c1.028,0,2.3-2.818-3.847-5.388s-48.761-10.869-49.78-10.869S-6066.419,12057.446-6066.419,12057.446Z" transform="translate(6101.607 -11949.377)" fill="#344154" stroke="#263238" stroke-linecap="round" stroke-linejoin="round" stroke-width="1"/>
      <path id="Trazado_147312" data-name="Trazado 147312" d="M-6027.854,12047.924s-26.621-8.821-52.6-3.074c-2.13.468-6.674,54.655-6.674,54.655l6.931,2.046,10.777-42.85s45.163,13.09,54.4,11.8S-6027.854,12047.924-6027.854,12047.924Z" transform="translate(6103.303 -11948.355)" fill="#344154" stroke="#263238" stroke-linecap="round" stroke-linejoin="round" stroke-width="1"/>
      <path id="Trazado_147313" data-name="Trazado 147313" d="M-6014.808,11948.927s-2.056,5.388-2.056,7.948a33.779,33.779,0,0,0,.257,4.36s-3.589,3.855-2.3,5.142l1.286,1.275s1.836,10.006,3.332,10.52,7.95-.762,7.95-.762l.1,14.146,12.7-10.832-1.028-8.216s3.084-4.36,6.673-9.491,1.542-13.319-.514-17.175-17.707-11.806-28.227,1.285Z" transform="translate(6097.729 -11939.903)" fill="#ffbf9d" stroke="#263238" stroke-linecap="round" stroke-linejoin="round" stroke-width="1"/>
      <path id="Trazado_147314" data-name="Trazado 147314" d="M-6005.216,11980.67l3.571-.928-3.314,6.628Z" transform="translate(6096.583 -11943.172)" fill="#344154" stroke="#263238" stroke-linecap="round" stroke-linejoin="round" stroke-width="1"/>
      <path id="Trazado_147315" data-name="Trazado 147315" d="M-5988.179,11945.843c-2.047-3.847-17.707-11.806-28.227,1.285l1.836,1.836,12.852,14.108s1.312-4.186,4.1-1.836c1.836,1.543,1.028,4.884.257,5.142s-2.571,2.818-2.571,2.818l5.646,3.332s3.084-4.36,6.673-9.493S-5986.123,11949.7-5988.179,11945.843Z" transform="translate(6097.501 -11939.904)" fill="#344154" stroke="#263238" stroke-linecap="round" stroke-linejoin="round" stroke-width="1"/>
      <ellipse id="Elipse_4344" data-name="Elipse 4344" cx="0.688" cy="1.579" rx="0.688" ry="1.579" transform="translate(82.609 19.873)" fill="#344154"/>
      <path id="Trazado_147316" data-name="Trazado 147316" d="M-6014.976,11958.961a2.914,2.914,0,0,1,2.965.79" transform="translate(6097.384 -11941.458)" fill="none" stroke="#263238" stroke-linecap="round" stroke-linejoin="round" stroke-width="1" opacity="0"/>
      <path id="Trazado_147317" data-name="Trazado 147317" d="M-6015.416,11971.813a5.37,5.37,0,0,0,3.754-.789" transform="translate(6097.419 -11942.457)" fill="none" stroke="#263238" stroke-linecap="round" stroke-linejoin="round" stroke-width="1" opacity="0"/>
      <path id="Trazado_147318" data-name="Trazado 147318" d="M-6017.975,12020.873l-27.612,2.23-8.876-.826s-12.227,4.158-9.84,4.957a9.581,9.581,0,0,0,5.159-.055,20.362,20.362,0,0,0,7.215,1.432,24.375,24.375,0,0,0,5.948-.8l30.807,4.636Z" transform="translate(6101.456 -11946.548)" fill="#344154" stroke="#263238" stroke-linecap="round" stroke-linejoin="round" stroke-width="1"/>
      <path id="Trazado_147319" data-name="Trazado 147319" d="M-5994.646,11982.649s-15.908,15.395-18.469,19.277-3.6,7.179-3.6,10.52,2.313,10.776,2.313,10.776l-3.084,11.016-8.932,8.2,14.109,22.582s6.425,1.285,10.786-1.285,7.178-13.595,7.178-18.983-1.028-16.937-1.028-16.937,5.9-18.478,7.7-25.4,2.056-13.09.257-16.423S-5992.075,11980.859-5994.646,11982.649Z" transform="translate(6098.322 -11943.354)" fill="#d9a171" stroke="#263238" stroke-linecap="round" stroke-linejoin="round" stroke-width="1"/>
      <path id="Trazado_147320" data-name="Trazado 147320" d="M-6060.389,12123l-8.739,9.749s-6.673,2.057-7.7,3.074,1.028,1.543,3.6,2.571,12.062-.515,15.137-.771,5.9,0,6.93-2.562,0-5.388-.258-6.426l-1.542-6.159Z" transform="translate(6102.48 -11954.883)" fill="#fff" stroke="#5e6178" stroke-linecap="round" stroke-linejoin="round" stroke-width="1"/>
      <path id="Trazado_147321" data-name="Trazado 147321" d="M-6069.54,12133.388c-1.487.468-6.426,2.074-7.27,2.937-1.019,1.028,1.028,1.543,3.6,2.571s12.062-.515,15.137-.771,5.9,0,6.931-2.562,0-5.388-.258-6.426a2.907,2.907,0,0,0-.129-.5c-4.479,2.81-12.1,5.894-13.769,5.894A14.4,14.4,0,0,1-6069.54,12133.388Z" transform="translate(6102.478 -11955.388)" fill="#d9a171" stroke="#263238" stroke-linecap="round" stroke-linejoin="round" stroke-width="1"/>
      <path id="Trazado_147322" data-name="Trazado 147322" d="M-6088.572,12104.593s-10.005,11.016-11.291,12.576-5.132,2.048-4.875,3.847,4.36,1.285,6.16,1.027,13.09-3.084,14.623-3.6,3.6-1.275,3.855-3.588-1.542-8.216-1.542-8.216Z" transform="translate(6104.749 -11953.416)" fill="#fff" stroke="#5e6178" stroke-linecap="round" stroke-linejoin="round" stroke-width="1"/>
      <path id="Trazado_147323" data-name="Trazado 147323" d="M-6080.1,12115.218a23.282,23.282,0,0,0-.982-6.215c-2.524,1.229-4.957,4.59-6.206,5.187-1.542.771-13.347,4.59-13.347,4.59l-.532-.3c-1.616.918-3.764,1.514-3.571,2.873.257,1.79,4.36,1.284,6.16,1.028s13.09-3.085,14.623-3.6S-6080.356,12117.53-6080.1,12115.218Z" transform="translate(6104.749 -11953.778)" fill="#d9a171" stroke="#263238" stroke-linecap="round" stroke-linejoin="round" stroke-width="1"/>
      <path id="Trazado_147324" data-name="Trazado 147324" d="M-6000.723,11996.368l-7.169,24-36.03-.184-.395,4.709s36.177,7.344,38.646,7.344,5.2-.734,6.187-2.47,11.383-27.465,11.878-33.156-.744-9.9-2.974-11.135-6.673.991-8.161,3.461" transform="translate(6099.791 -11943.614)" fill="#d9a171" stroke="#263238" stroke-linecap="round" stroke-linejoin="round" stroke-width="1"/>
      <path id="Trazado_147325" data-name="Trazado 147325" d="M-6045.738,12023.105s-10.2-2.25-11.686-2.213-9.042,4.9-9.033,5.645,2,.7,2,.7l3.451-.322,3.672-.826a23.66,23.66,0,0,0,4.718.918,21.04,21.04,0,0,0,3.672-.578l2.754,1.422Z" transform="translate(6101.607 -11946.549)" fill="#ffbf9d" stroke="#263238" stroke-linecap="round" stroke-linejoin="round" stroke-width="1"/>
      <path id="Trazado_147326" data-name="Trazado 147326" d="M-5975.181,11989.552l-4.131-.229s-10.557,30.522-11.934,42-.918,21.112-.229,24.325,4.36,9.409,4.36,9.409l4.59,1.147s-4.819-12.393-5.049-15.834.367-17.1.688-18.818C-5984.361,12018.238-5975.181,11989.552-5975.181,11989.552Z" transform="translate(6095.51 -11943.958)" fill="#fff" stroke="#5e6178" stroke-linecap="round" stroke-linejoin="round" stroke-width="1"/>
      <path id="Trazado_147327" data-name="Trazado 147327" d="M-6016,12117.073s-22.719,11.474-23.178,14.044a21.376,21.376,0,0,0,0,5.737l.8-.808,2.185-5.159,20.425-9.639Z" transform="translate(6099.385 -11954.44)" fill="#fff" stroke="#5e6178" stroke-linecap="round" stroke-linejoin="round" stroke-width="1"/>
      <circle id="Elipse_4345" data-name="Elipse 4345" cx="2.524" cy="2.524" r="2.524" transform="translate(59.284 178.927)" fill="#344154" stroke="#263238" stroke-linecap="round" stroke-linejoin="round" stroke-width="1"/>
      <path id="Trazado_147328" data-name="Trazado 147328" d="M-6006.686,12117.073s22.719,11.474,23.178,14.044a21.457,21.457,0,0,1,0,5.737l-.808-.808-2.176-5.159-20.424-9.684Z" transform="translate(6096.722 -11954.44)" fill="#fff" stroke="#5e6178" stroke-linecap="round" stroke-linejoin="round" stroke-width="1"/>
      <circle id="Elipse_4346" data-name="Elipse 4346" cx="2.524" cy="2.524" r="2.524" transform="translate(109.083 178.927)" fill="#344154" stroke="#263238" stroke-linecap="round" stroke-linejoin="round" stroke-width="1"/>
      <rect id="Rectángulo_33103" data-name="Rectángulo 33103" width="3.672" height="39.931" transform="translate(84.528 125.226)" fill="#fff" stroke="#5e6178" stroke-linecap="round" stroke-linejoin="round" stroke-width="1"/>
      <rect id="Rectángulo_33104" data-name="Rectángulo 33104" width="10.786" height="7.344" transform="translate(81.085 129.128)" fill="#344154" stroke="#263238" stroke-linecap="round" stroke-linejoin="round" stroke-width="1"/>
      <path id="Trazado_147329" data-name="Trazado 147329" d="M-5987.759,12072.383c-7.94-.835-33.551-3.057-56.5,0a1.048,1.048,0,0,0-.93,1.152,1.039,1.039,0,0,0,.361.684c2.441,2.3,9.179,6.489,26.74,7.637,18.111,1.185,27.364-4.369,30.962-7.343a1.174,1.174,0,0,0,.272-1.639A1.174,1.174,0,0,0-5987.759,12072.383Z" transform="translate(6099.862 -11950.646)" fill="#fff" stroke="#5e6178" stroke-linecap="round" stroke-linejoin="round" stroke-width="1"/>
      <path id="Trazado_147330" data-name="Trazado 147330" d="M-6044.848,12074.183h0a.986.986,0,0,0,.7.275h56.913a1.185,1.185,0,0,0,.143-1.669,1.187,1.187,0,0,0-.785-.416c-7.958-.825-33.551-3.047-56.5,0a1.048,1.048,0,0,0-.8,1.246A1.048,1.048,0,0,0-6044.848,12074.183Z" transform="translate(6099.864 -11950.646)" fill="#d9a171" stroke="#263238" stroke-linecap="round" stroke-linejoin="round" stroke-width="1"/>
      <rect id="Rectángulo_33105" data-name="Rectángulo 33105" width="8.491" height="8.95" transform="translate(82.233 158.961)" fill="#344154" stroke="#263238" stroke-linecap="round" stroke-linejoin="round" stroke-width="1"/>
      <rect id="Rectángulo_33106" data-name="Rectángulo 33106" width="1.267" height="20.544" transform="translate(85.565 163.432)" fill="#fff" stroke="#5e6178" stroke-linecap="round" stroke-linejoin="round" stroke-width="1"/>
      <rect id="Rectángulo_33107" data-name="Rectángulo 33107" width="2.221" height="5.379" transform="translate(85.069 178.615)" fill="#344154" stroke="#263238" stroke-linecap="round" stroke-linejoin="round" stroke-width="1"/>
      <path id="Trazado_147331" data-name="Trazado 147331" d="M-6001.9,12072.074h-5.049l-3.213-30.751h3.442Z" transform="translate(6096.988 -11948.226)" fill="#fff" stroke="#5e6178" stroke-linecap="round" stroke-linejoin="round" stroke-width="1"/>
      <path id="Trazado_147332" data-name="Trazado 147332" d="M-5994.763,12043.1h-34.653s2.524-4.59,4.131-5.049,27.768,0,27.768,0S-5994.763,12038.973-5994.763,12043.1Z" transform="translate(6098.568 -11947.94)" fill="#d9a171" stroke="#263238" stroke-linecap="round" stroke-linejoin="round" stroke-width="1"/>
      <path id="Trazado_147333" data-name="Trazado 147333" d="M-6029.416,12043.471h34.653a8.853,8.853,0,0,0-.083-1.147h-33.891C-6029.149,12042.983-6029.416,12043.471-6029.416,12043.471Z" transform="translate(6098.568 -11948.308)" fill="#fff" stroke="#5e6178" stroke-linecap="round" stroke-linejoin="round" stroke-width="1"/>
    </g>
    <g id="freepik--character-2--inject-79" transform="translate(-6278.337 11915.566)">
      <path id="Trazado_147334" data-name="Trazado 147334" d="M-6174.005,11987.823h-46.816a5.618,5.618,0,0,0-5.611,5.625c0,.046,0,.093,0,.139l1.68,59.025-1.836,13.034h58.464l-2.754-13.034,2.506-58.942a5.609,5.609,0,0,0-5.366-5.842C-6173.824,11987.824-6173.916,11987.823-6174.005,11987.823Z" transform="translate(6251.029 -11933.409)" fill="#fff" stroke="#5e6178" stroke-linecap="round" stroke-linejoin="round" stroke-width="1"/>
      <path id="Trazado_147335" data-name="Trazado 147335" d="M-6175.909,11991.692h-42.565a5.222,5.222,0,0,0-5.1,5.342c0,.056,0,.11.006.166l1.515,56-1.662,12.374h53.122l-2.5-12.374,2.276-55.949a5.233,5.233,0,0,0-4.9-5.545Z" transform="translate(6250.794 -11933.726)" fill="#d9a171" stroke="#263238" stroke-linecap="round" stroke-linejoin="round" stroke-width="1"/>
      <path id="Trazado_147336" data-name="Trazado 147336" d="M-6227.183,12042l-2.983,27.079h2.524l2.983-27.079Z" transform="translate(6251.323 -11937.854)" fill="#fff" stroke="#5e6178" stroke-linecap="round" stroke-linejoin="round" stroke-width="1"/>
      <path id="Trazado_147337" data-name="Trazado 147337" d="M-6163.142,12042l2.983,27.079h-2.524l-2.983-27.079Z" transform="translate(6246.031 -11937.854)" fill="#fff" stroke="#5e6178" stroke-linecap="round" stroke-linejoin="round" stroke-width="1"/>
      <rect id="Rectángulo_33108" data-name="Rectángulo 33108" width="7.904" height="5.535" rx="1.14" transform="translate(21.57 99.054)" fill="#fff" stroke="#5e6178" stroke-linecap="round" stroke-linejoin="round" stroke-width="1"/>
      <path id="Trazado_147338" data-name="Trazado 147338" d="M-6222.859,12036.453h-5.819a1.036,1.036,0,0,0-1.037,1.037v3.148h7.894v-3.14a1.037,1.037,0,0,0-1.028-1.046Z" transform="translate(6251.286 -11937.399)" fill="#d9a171" stroke="#263238" stroke-linecap="round" stroke-linejoin="round" stroke-width="1"/>
      <rect id="Rectángulo_33109" data-name="Rectángulo 33109" width="7.904" height="5.535" rx="1.14" transform="translate(77.721 99.054)" fill="#fff" stroke="#5e6178" stroke-linecap="round" stroke-linejoin="round" stroke-width="1"/>
      <path id="Trazado_147339" data-name="Trazado 147339" d="M-6161.69,12036.453h-5.82a1.046,1.046,0,0,0-1.046,1.046h0v3.14h7.9v-3.14A1.047,1.047,0,0,0-6161.69,12036.453Z" transform="translate(6246.269 -11937.399)" fill="#d9a171" stroke="#263238" stroke-linecap="round" stroke-linejoin="round" stroke-width="1"/>
      <path id="Trazado_147340" data-name="Trazado 147340" d="M-6197.955,12115.753s-22.719,11.474-23.178,14a21.376,21.376,0,0,0,0,5.737l.8-.8,2.185-5.168,20.425-9.639Z" transform="translate(6250.598 -11943.905)" fill="#fff" stroke="#5e6178" stroke-linecap="round" stroke-linejoin="round" stroke-width="1"/>
      <circle id="Elipse_4347" data-name="Elipse 4347" cx="2.524" cy="2.524" r="2.524" transform="translate(28.547 188.141)" fill="#344154" stroke="#263238" stroke-linecap="round" stroke-linejoin="round" stroke-width="1"/>
      <path id="Trazado_147341" data-name="Trazado 147341" d="M-6188.636,12115.753s22.719,11.474,23.178,14a21.416,21.416,0,0,1,0,5.737l-.808-.8-2.176-5.168-20.424-9.639Z" transform="translate(6247.935 -11943.905)" fill="#fff" stroke="#5e6178" stroke-linecap="round" stroke-linejoin="round" stroke-width="1"/>
      <circle id="Elipse_4348" data-name="Elipse 4348" cx="2.524" cy="2.524" r="2.524" transform="translate(78.346 188.141)" fill="#344154" stroke="#263238" stroke-linecap="round" stroke-linejoin="round" stroke-width="1"/>
      <rect id="Rectángulo_33110" data-name="Rectángulo 33110" width="3.672" height="39.931" transform="translate(53.79 134.441)" fill="#fff" stroke="#5e6178" stroke-linecap="round" stroke-linejoin="round" stroke-width="1"/>
      <rect id="Rectángulo_33111" data-name="Rectángulo 33111" width="10.786" height="7.344" transform="translate(50.348 138.342)" fill="#344154" stroke="#263238" stroke-linecap="round" stroke-linejoin="round" stroke-width="1"/>
      <path id="Trazado_147342" data-name="Trazado 147342" d="M-6165.755,12071.082c-8.922-.826-38.407-3.075-64.881,0a1.157,1.157,0,0,0-1,1.292,1.157,1.157,0,0,0,.444.773c3.048,2.341,10.96,6.288,30.43,7.39,20.81,1.185,31.44-4.37,35.58-7.344a1.148,1.148,0,0,0,.344-1.585A1.151,1.151,0,0,0-6165.755,12071.082Z" transform="translate(6251.445 -11940.11)" fill="#fff" stroke="#5e6178" stroke-linecap="round" stroke-linejoin="round" stroke-width="1"/>
      <path id="Trazado_147343" data-name="Trazado 147343" d="M-6231.211,12073.113l.091.064h65.946a1.148,1.148,0,0,0,.24-1.6,1.151,1.151,0,0,0-.819-.461c-8.932-.826-38.407-3.074-64.881,0a1.148,1.148,0,0,0-.961,1.308A1.14,1.14,0,0,0-6231.211,12073.113Z" transform="translate(6251.441 -11940.114)" fill="#d9a171" stroke="#263238" stroke-linecap="round" stroke-linejoin="round" stroke-width="1"/>
      <rect id="Rectángulo_33112" data-name="Rectángulo 33112" width="8.491" height="8.95" transform="translate(51.496 168.176)" fill="#344154" stroke="#263238" stroke-linecap="round" stroke-linejoin="round" stroke-width="1"/>
      <rect id="Rectángulo_33113" data-name="Rectángulo 33113" width="1.267" height="20.544" transform="translate(54.818 172.656)" fill="#fff" stroke="#5e6178" stroke-linecap="round" stroke-linejoin="round" stroke-width="1"/>
      <rect id="Rectángulo_33114" data-name="Rectángulo 33114" width="2.221" height="5.379" transform="translate(54.332 187.838)" fill="#344154" stroke="#263238" stroke-linecap="round" stroke-linejoin="round" stroke-width="1"/>
      <path id="Trazado_147344" data-name="Trazado 147344" d="M-6214.713,12028.693l-5.178,20.644s-8.555,8.768-9.317,13.77,19.865,50.983,19.865,50.983l8.785-1.147-4.93-45.989,15.66-.386-.156,46.357,8.785,1.147,14.559-45.365s1.634-5.435.358-8.52c-2.433-5.921-9.638-10.813-9.638-10.813l-7.114-20.663Z" transform="translate(6251.246 -11936.763)" fill="#6595bf" stroke="#263238" stroke-linecap="round" stroke-linejoin="round" stroke-width="1"/>
      <path id="Trazado_147345" data-name="Trazado 147345" d="M-6207.85,12121.579a42.372,42.372,0,0,1-.992,8.161c-.918,3.736-3.506,6.545-2.34,7.95s7.71,1.165,10.051.468,3.745-2.81,3.745-6.315-1.68-11.411-1.68-11.411Z" transform="translate(6249.79 -11944.288)" fill="#fff" stroke="#5e6178" stroke-linecap="round" stroke-linejoin="round" stroke-width="1"/>
      <path id="Trazado_147346" data-name="Trazado 147346" d="M-6211.183,12138.383c1.166,1.4,7.71,1.165,10.051.468s3.745-2.81,3.745-6.315a28.579,28.579,0,0,0-.321-3.672,5.12,5.12,0,0,1-4.36,3.672c-4.406.679-6.6.247-7.472,0C-6210.641,12135.207-6212.128,12137.253-6211.183,12138.383Z" transform="translate(6249.79 -11944.981)" fill="#d9a171" stroke="#263238" stroke-linecap="round" stroke-linejoin="round" stroke-width="1"/>
      <path id="Trazado_147347" data-name="Trazado 147347" d="M-6177.841,12121.579a41.388,41.388,0,0,0,.991,8.161c.918,3.736,3.507,6.545,2.341,7.95s-7.72,1.165-10.052.468-3.746-2.81-3.746-6.315,1.68-11.411,1.68-11.411Z" transform="translate(6247.889 -11944.288)" fill="#fff" stroke="#5e6178" stroke-linecap="round" stroke-linejoin="round" stroke-width="1"/>
      <path id="Trazado_147348" data-name="Trazado 147348" d="M-6174.509,12138.383c-1.175,1.4-7.72,1.165-10.052.468s-3.746-2.81-3.746-6.315a29.846,29.846,0,0,1,.313-3.672,5.131,5.131,0,0,0,4.36,3.672c4.416.679,6.6.247,7.472,0C-6175.06,12135.207-6173.572,12137.253-6174.509,12138.383Z" transform="translate(6247.889 -11944.981)" fill="#d9a171" stroke="#263238" stroke-linecap="round" stroke-linejoin="round" stroke-width="1"/>
      <path id="Trazado_147349" data-name="Trazado 147349" d="M-6210.339,11976.039s-14.467,4.434-15.816,6.168-19.681,27.594-22.389,30.485a10.361,10.361,0,0,0-3.084,7.527c.193,1.359,2.121,4.59,2.121,4.59h7.913l5.6-8.491,13.815-14.568,5.627,22.546h31.642l4.718-23.325s9.988,16.926,10.181,17.523,3.084,5.6,8.481,5.214,4.636-7.527,2.13-13.5-12.347-26.234-15.248-28.942-18.515-6.169-18.515-6.169Z" transform="translate(6253.087 -11932.365)" fill="#d9a171" stroke="#263238" stroke-linecap="round" stroke-linejoin="round" stroke-width="1"/>
      <path id="Trazado_147350" data-name="Trazado 147350" d="M-6164.342,12020.9s-2.524-.321,1.7-2.919,10.1-2.524,11.933-2.112,2.194,1.616,3.25,4.3.569,5.122-.569,6.26-.973,1.625-4.792.651a38.361,38.361,0,0,1-9.5-4.23A4.683,4.683,0,0,1-6164.342,12020.9Z" transform="translate(6245.984 -11935.693)" fill="#fff" stroke="#5e6178" stroke-linecap="round" stroke-linejoin="round" stroke-width="1"/>
      <path id="Trazado_147351" data-name="Trazado 147351" d="M-6164,12021.708s6.913-2.314,9.511-2.957,5.36,1.295,6.012,4.379-.33,6.013-3.672,6.747a12.256,12.256,0,0,1-8.528-1.386c-1.836-1.13-5.039-2.837-5.039-2.837Z" transform="translate(6246.035 -11935.936)" fill="#ffbf9d" stroke="#263238" stroke-linecap="round" stroke-linejoin="round" stroke-width="1"/>
      <path id="Trazado_147352" data-name="Trazado 147352" d="M-6172.353,12021.592s-2.029.808-2.433,1.057-2.359,2.35-3.571,2.836-3.011.5-1.625,1.836,3.084.321,3.893-.247a7.955,7.955,0,0,1,2.359-1.212,20.542,20.542,0,0,1,2.194.32c.321.083,5.361,1.386,6.655,1.708s2.029.569,2.928-1.056-.487-3.9-1.542-4.59S-6172.353,12021.592-6172.353,12021.592Z" transform="translate(6247.247 -11936.179)" fill="#fff" stroke="#5e6178" stroke-linecap="round" stroke-linejoin="round" stroke-width="1"/>
      <path id="Trazado_147353" data-name="Trazado 147353" d="M-6169.282,12020.227s-2.7-.771-2.7.192-.771,7.344.963,6.757S-6169.282,12020.227-6169.282,12020.227Z" transform="translate(6246.563 -11936.044)" fill="#fff" stroke="#5e6178" stroke-linecap="round" stroke-linejoin="round" stroke-width="1"/>
      <path id="Trazado_147354" data-name="Trazado 147354" d="M-6169.1,12020.206s-1.542,6.757-.386,6.949,2.506-4.636,2.7-6.179S-6168.539,12019.4-6169.1,12020.206Z" transform="translate(6246.38 -11936.023)" fill="#fff" stroke="#5e6178" stroke-linecap="round" stroke-linejoin="round" stroke-width="1"/>
      <path id="Trazado_147355" data-name="Trazado 147355" d="M-6166.439,12021.1s-1.551,6.748-.386,6.94,2.506-4.59,2.7-6.168S-6165.861,12020.325-6166.439,12021.1Z" transform="translate(6246.162 -11936.096)" fill="#fff" stroke="#5e6178" stroke-linecap="round" stroke-linejoin="round" stroke-width="1"/>
      <path id="Trazado_147356" data-name="Trazado 147356" d="M-6163.591,12022.838s-1.579,5.25-.395,5.4,2.57-3.6,2.754-4.8S-6163,12022.24-6163.591,12022.838Z" transform="translate(6245.93 -11936.249)" fill="#fff" stroke="#5e6178" stroke-linecap="round" stroke-linejoin="round" stroke-width="1"/>
      <path id="Trazado_147357" data-name="Trazado 147357" d="M-6251,12019.479a18.8,18.8,0,0,1,1.451-4.884c.918-1.588,3.571-2.12,5.149-2.754s6.215,1.184,7.8,2.9a6.227,6.227,0,0,1,1.45,5.811c-.532,1.717-3.3,3.306-3.672,3.306s-2.91-4.094-5.287-4.36A55.234,55.234,0,0,0-6251,12019.479Z" transform="translate(6253.032 -11935.369)" fill="#fff" stroke="#5e6178" stroke-linecap="round" stroke-linejoin="round" stroke-width="1"/>
      <path id="Trazado_147358" data-name="Trazado 147358" d="M-6251.034,12019.762a6.9,6.9,0,0,1,6.866-4.59c5.554,0,6.472,5.425,6.472,6.609s-1.579,5.947-2.754,6.343-7.867.752-9.023.046S-6252.227,12022.276-6251.034,12019.762Z" transform="translate(6253.07 -11935.652)" fill="#ffbf9d" stroke="#263238" stroke-linecap="round" stroke-linejoin="round" stroke-width="1"/>
      <path id="Trazado_147359" data-name="Trazado 147359" d="M-6236.917,12026.5a8.682,8.682,0,0,0,3.965,1.588c2.754.533,4.489,1.193,2.644,1.836a9.617,9.617,0,0,1-4.59.257,12.017,12.017,0,0,1-2.249-.661Z" transform="translate(6251.896 -11936.583)" fill="#ffbf9d" stroke="#263238" stroke-linecap="round" stroke-linejoin="round" stroke-width="1"/>
      <path id="Trazado_147360" data-name="Trazado 147360" d="M-6241.388,12022.763s3.039,1.46,4.094,3.434a9.393,9.393,0,0,1,1.056,3.966h-5.508Z" transform="translate(6252.273 -11936.276)" fill="#fff" stroke="#5e6178" stroke-linecap="round" stroke-linejoin="round" stroke-width="1"/>
      <path id="Trazado_147361" data-name="Trazado 147361" d="M-6243.384,12021.359s-1.717-.523-2.25.395-7.4,3.966-7.527,5.288-.128,3.166,1.193,3.433a69.976,69.976,0,0,0,10.694-.129c.4-.266-1.056-7.133-1.056-7.664S-6242.6,12021.359-6243.384,12021.359Z" transform="translate(6253.214 -11936.148)" fill="#ffbf9d" stroke="#263238" stroke-linecap="round" stroke-linejoin="round" stroke-width="1"/>
      <line id="Línea_2165" data-name="Línea 2165" x2="1.193" y2="7.665" transform="translate(7.58 86.221)" fill="none" stroke="#263238" stroke-linecap="round" stroke-linejoin="round" stroke-width="1" opacity="0"/>
      <line id="Línea_2166" data-name="Línea 2166" x2="1.46" y2="6.205" transform="translate(4.147 87.947)" fill="none" stroke="#263238" stroke-linecap="round" stroke-linejoin="round" stroke-width="1" opacity="0"/>
      <line id="Línea_2167" data-name="Línea 2167" x2="1.193" y2="4.36" transform="translate(1.77 89.259)" fill="none" stroke="#263238" stroke-linecap="round" stroke-linejoin="round" stroke-width="1" opacity="0"/>
      <path id="Trazado_147362" data-name="Trazado 147362" d="M-6213.251,11944.607s-4.25,14.99-3.965,19.58,13.026,10.188,20.948,11.318,18.965-8.207,19.818-11.318.56-12.172-2.267-18.359-8.491-16.982-15.284-17.267S-6210.424,11931.591-6213.251,11944.607Z" transform="translate(6250.262 -11928.545)" fill="#344154" stroke="#263238" stroke-linecap="round" stroke-linejoin="round" stroke-width="1"/>
      <path id="Trazado_147363" data-name="Trazado 147363" d="M-6199.59,11971.922s-5.792.771-5.792,1.542-2.313,2.507-2.313,2.507l1.927,14.853,11.383-6.555,9.84,6.939.385-14.467-5.783-4.819Z" transform="translate(6249.479 -11932.104)" fill="#fff" stroke="#5e6178" stroke-linecap="round" stroke-linejoin="round" stroke-width="1"/>
      <path id="Trazado_147364" data-name="Trazado 147364" d="M-6202.708,11967.713l-.579,10.034,8.3,12.153,7.334-12.153-.771-9.647Z" transform="translate(6249.118 -11931.76)" fill="#fff" stroke="#5e6178" stroke-linecap="round" stroke-linejoin="round" stroke-width="1"/>
      <path id="Trazado_147365" data-name="Trazado 147365" d="M-6206.416,11954.457a95.846,95.846,0,0,1,9.648-6.94c3.47-1.928,5.205-7.344,5.205-7.344s.578,5.4,2.515,7.527a22.294,22.294,0,0,1,3.277,5.205l.771,1.734s.193,9.841-.192,10.419-5.214,6.37-7.344,6.756-4.59.192-5.784-.771-6.37-5.021-6.756-6.37S-6206.416,11954.457-6206.416,11954.457Z" transform="translate(6249.375 -11929.5)" fill="#ffbf9d" stroke="#263238" stroke-linecap="round" stroke-linejoin="round" stroke-width="1"/>
      <path id="Trazado_147366" data-name="Trazado 147366" d="M-6199.009,11957.639c0,.707-.33,1.275-.743,1.275s-.744-.568-.744-1.275.34-1.275.744-1.275S-6199.009,11956.933-6199.009,11957.639Z" transform="translate(6248.889 -11930.828)" fill="#344154"/>
      <ellipse id="Elipse_4349" data-name="Elipse 4349" cx="0.744" cy="1.276" rx="0.744" ry="1.276" transform="translate(57.627 25.535)" fill="#344154"/>
      <path id="Trazado_147367" data-name="Trazado 147367" d="M-6196.326,11965.153s2.543,1.275,4.241,0" transform="translate(6248.547 -11931.55)" fill="none" stroke="#263238" stroke-linecap="round" stroke-linejoin="round" stroke-width="1" opacity="0"/>
      <path id="Trazado_147368" data-name="Trazado 147368" d="M-6197.256,11967.914s3.607,1.268,5.948-.211" transform="translate(6248.623 -11931.759)" fill="none" stroke="#263238" stroke-linecap="round" stroke-linejoin="round" stroke-width="1" opacity="0"/>
      <path id="Trazado_147369" data-name="Trazado 147369" d="M-6202.576,11955.3a3.6,3.6,0,0,1,3.819-1.487" transform="translate(6249.06 -11930.611)" fill="none" stroke="#263238" stroke-linecap="round" stroke-linejoin="round" stroke-width="1" opacity="0"/>
      <path id="Trazado_147370" data-name="Trazado 147370" d="M-6190.776,11954.029s1.487-1.065,3.4,1.064" transform="translate(6248.092 -11930.615)" fill="none" stroke="#263238" stroke-linecap="round" stroke-linejoin="round" stroke-width="1" opacity="0"/>
    </g>
    <g id="freepik--character-1--inject-79" transform="translate(-6438.476 11911.166)">
      <path id="Trazado_147371" data-name="Trazado 147371" d="M-6325.63,12066.413l7.114,53.7-9.639.918-8.262-30.063Z" transform="translate(6420.179 -11935.458)" fill="#344154" stroke="#263238" stroke-linecap="round" stroke-linejoin="round" stroke-width="1"/>
      <path id="Trazado_147372" data-name="Trazado 147372" d="M-6375.035,12045.163s40.39,5.278,45.668,8.491.918,8.721.918,9.639-14.687,56.225-14.687,56.225l-10.786-2.295,4.819-50.258-10.557.918s-38.784-.229-44.521-2.065-6.426-11.7-5.278-15.376.918-4.59.918-4.59Z" transform="translate(6426.21 -11933.714)" fill="#344154" stroke="#263238" stroke-linecap="round" stroke-linejoin="round" stroke-width="1"/>
      <path id="Trazado_147373" data-name="Trazado 147373" d="M-6378.146,12018.263l31.385,3.819,9.822-2.91s9.519,4.1,8.124,5.38-6.279-1.616-6.279-1.616-5.508,5.646-7.684,4.589a13.108,13.108,0,0,0-4.507-1.137l-27.851,1.836Z" transform="translate(6423.603 -11931.507)" fill="#344154" stroke="#263238" stroke-linecap="round" stroke-linejoin="round" stroke-width="1"/>
      <path id="Trazado_147374" data-name="Trazado 147374" d="M-6401.665,11972.344s-8.262,8.031-9.868,14.916a48.192,48.192,0,0,0-1.147,14.688c.229.918,3.212,35.8,3.9,37.865s10.327,3.213,16.064,3.213,15.6-1.836,17.441-3.9.918-9.867-.688-13.539-8.261-37.178-8.72-41.079-.688-4.59-3.442-7.573S-6396.846,11971-6401.665,11972.344Z" transform="translate(6426.449 -11927.712)" fill="#d9a171" stroke="#263238" stroke-linecap="round" stroke-linejoin="round" stroke-width="1"/>
      <path id="Trazado_147375" data-name="Trazado 147375" d="M-6379.1,11934s4.131,4.36,4.131,6.655-.918,5.049-.688,5.737,3.442,4.13,3.442,5.277-2.065,2.754-2.065,2.754-1.147,6.655-2.065,8.262-8.262,2.065-8.262,2.065l-4.131,7.8-11.016-5.967,1.377-9.18s-6.655-11.7-7.8-17.67,5.737-11.475,7.344-11.475a7.486,7.486,0,0,0,2.983-.688s-1.147-1.606.229-1.836,5.508.918,5.508.918-3.672-3.672,3.213-2.754S-6372.9,11931.665-6379.1,11934Z" transform="translate(6425.914 -11923.752)" fill="#ffbf9d" stroke="#263238" stroke-linecap="round" stroke-linejoin="round" stroke-width="1"/>
      <path id="Trazado_147376" data-name="Trazado 147376" d="M-6378.689,11967.752a14.721,14.721,0,0,0-3.039-.533,17.867,17.867,0,0,1-4.829-1.606l2.148,4.461,1.423-1.891Z" transform="translate(6424.293 -11927.187)" fill="#344154" stroke="#263238" stroke-linecap="round" stroke-linejoin="round" stroke-width="1"/>
      <path id="Trazado_147377" data-name="Trazado 147377" d="M-6379.1,11934c6.2-2.295-.918-9.18-7.8-10.1s-3.213,2.754-3.213,2.754-4.131-1.147-5.508-.918-.229,1.836-.229,1.836a7.486,7.486,0,0,1-2.983.688c-1.606,0-8.491,5.508-7.344,11.475,1.074,5.59,6.986,16.22,7.729,17.532,1.358-.716,2.589-2.028,2.139-3.534-.688-2.295,1.606-6.654,1.606-6.654a10.343,10.343,0,0,0,2.065,2.523c1.147.918,1.836,0,1.836,0l-.459-3.671a19.384,19.384,0,0,1,4.36-4.819c2.524-1.836-3.213-2.065-3.672-3.672S-6379.1,11934-6379.1,11934Z" transform="translate(6425.914 -11923.752)" fill="#344154" stroke="#263238" stroke-linecap="round" stroke-linejoin="round" stroke-width="1"/>
      <path id="Trazado_147378" data-name="Trazado 147378" d="M-6390.879,11952.094s-2.295-3.9-4.131-2.983-1.147,7.344,1.147,7.573a5.952,5.952,0,0,0,3.442-.459" transform="translate(6425.073 -11925.822)" fill="#ffbf9d" stroke="#263238" stroke-linecap="round" stroke-linejoin="round" stroke-width="1"/>
      <ellipse id="Elipse_4350" data-name="Elipse 4350" cx="0.808" cy="1.496" rx="0.808" ry="1.496" transform="translate(46.586 21.022)" fill="#344154"/>
      <path id="Trazado_147379" data-name="Trazado 147379" d="M-6378.416,11945.8s1.606-2.065,3.671-.918" transform="translate(6423.625 -11925.458)" fill="none" stroke="#263238" stroke-linecap="round" stroke-linejoin="round" stroke-width="1" opacity="0"/>
      <path id="Trazado_147380" data-name="Trazado 147380" d="M-6377.416,11957.662a5.262,5.262,0,0,0,3.442,1.377" transform="translate(6423.543 -11926.534)" fill="none" stroke="#263238" stroke-linecap="round" stroke-linejoin="round" stroke-width="1" opacity="0"/>
      <path id="Trazado_147381" data-name="Trazado 147381" d="M-6400.872,11967.162l-2.295,4.59,16.982,7.8,1.147-5.967Z" transform="translate(6425.656 -11927.313)" fill="#d9a171" stroke="#263238" stroke-linecap="round" stroke-linejoin="round" stroke-width="1"/>
      <path id="Trazado_147382" data-name="Trazado 147382" d="M-6338.4,12125.958l3.672,7.573s8.721,3.213,8.491,4.59-10.786.688-10.786.688-14.917-2.754-15.146-4.819,2.983-10.327,2.983-10.327Z" transform="translate(6421.473 -11940.154)" fill="#fff" stroke="#5e6178" stroke-linecap="round" stroke-linejoin="round" stroke-width="1"/>
      <path id="Trazado_147383" data-name="Trazado 147383" d="M-6317.839,12124.913s7.343,3.442,8.032,3.9,8.721,2.524,9.409,2.754.918,1.836.918,1.836-13.081,2.754-14,2.754-7.344-.688-8.95-.688h-5.737l.688-9.639Z" transform="translate(6419.502 -11940.257)" fill="#fff" stroke="#5e6178" stroke-linecap="round" stroke-linejoin="round" stroke-width="1"/>
      <path id="Trazado_147384" data-name="Trazado 147384" d="M-6403.666,11993.915s6.885,37.178,9.18,38.325,46.127-7.114,46.127-7.114l-.367-5.27-35.847-1.6s-2.983-33.5-6.425-37.636-10.557-3.672-11.934-.688" transform="translate(6425.697 -11928.172)" fill="#d9a171" stroke="#263238" stroke-linecap="round" stroke-linejoin="round" stroke-width="1"/>
      <path id="Trazado_147385" data-name="Trazado 147385" d="M-6343.866,12023.419s10.759-2.68,12.236-2.616,8.941,5.094,8.914,5.838-2.01.652-2.01.652l-3.452-.395-3.671-.918s-2.928,2.487-4.416,2.423a21.484,21.484,0,0,1-3.672-.66l-3.516.927Z" transform="translate(6420.791 -11931.716)" fill="#ffbf9d" stroke="#263238" stroke-linecap="round" stroke-linejoin="round" stroke-width="1"/>
      <path id="Trazado_147386" data-name="Trazado 147386" d="M-6427.666,11986.643l4.131-.229s10.557,30.521,11.933,42,.918,21.113.229,24.326-4.36,9.409-4.36,9.409l-4.36,1.34s4.59-12.622,4.819-16.064-.367-17.1-.688-18.817C-6418.486,12015.329-6427.666,11986.643-6427.666,11986.643Z" transform="translate(6427.666 -11928.894)" fill="#fff" stroke="#5e6178" stroke-linecap="round" stroke-linejoin="round" stroke-width="1"/>
      <path id="Trazado_147387" data-name="Trazado 147387" d="M-6387.437,12114.163s22.72,11.475,23.179,14a21.457,21.457,0,0,1,0,5.737l-.8-.808-2.185-5.159-20.425-9.639Z" transform="translate(6424.384 -11939.375)" fill="#fff" stroke="#5e6178" stroke-linecap="round" stroke-linejoin="round" stroke-width="1"/>
      <circle id="Elipse_4351" data-name="Elipse 4351" cx="2.524" cy="2.524" r="2.524" transform="translate(55.995 191.082)" fill="#344154" stroke="#263238" stroke-linecap="round" stroke-linejoin="round" stroke-width="1"/>
      <path id="Trazado_147388" data-name="Trazado 147388" d="M-6396.755,12114.163s-22.719,11.475-23.178,13.962a21.376,21.376,0,0,0,0,5.737l.808-.808,2.176-5.159,20.424-9.6Z" transform="translate(6427.047 -11939.375)" fill="#fff" stroke="#5e6178" stroke-linecap="round" stroke-linejoin="round" stroke-width="1"/>
      <circle id="Elipse_4352" data-name="Elipse 4352" cx="2.524" cy="2.524" r="2.524" transform="translate(6.196 191.082)" fill="#344154" stroke="#263238" stroke-linecap="round" stroke-linejoin="round" stroke-width="1"/>
      <rect id="Rectángulo_33115" data-name="Rectángulo 33115" width="3.672" height="39.931" transform="translate(32.128 137.372)" fill="#fff" stroke="#5e6178" stroke-linecap="round" stroke-linejoin="round" stroke-width="1"/>
      <rect id="Rectángulo_33116" data-name="Rectángulo 33116" width="10.786" height="7.344" transform="translate(28.456 141.274)" fill="#344154" stroke="#263238" stroke-linecap="round" stroke-linejoin="round" stroke-width="1"/>
      <path id="Trazado_147389" data-name="Trazado 147389" d="M-6418.953,12069.481c7.8-.826,33.717-3.1,56.868,0a.917.917,0,0,1,.822,1,.912.912,0,0,1-.29.584c-2.276,2.259-8.932,6.637-26.923,7.821-18.295,1.193-27.539-4.488-31.073-7.463a1.118,1.118,0,0,1-.091-1.58A1.119,1.119,0,0,1-6418.953,12069.481Z" transform="translate(6427.03 -11935.58)" fill="#fff" stroke="#5e6178" stroke-linecap="round" stroke-linejoin="round" stroke-width="1"/>
      <path id="Trazado_147390" data-name="Trazado 147390" d="M-6362.032,12071.544H-6419.4l-.156-.128a1.128,1.128,0,0,1-.111-1.593,1.137,1.137,0,0,1,.726-.382c7.738-.816,33.276-3.065,56.261-.045a1.211,1.211,0,0,1,1.1,1.317A1.214,1.214,0,0,1-6362.032,12071.544Z" transform="translate(6427.033 -11935.577)" fill="#d9a171" stroke="#263238" stroke-linecap="round" stroke-linejoin="round" stroke-width="1"/>
      <rect id="Rectángulo_33117" data-name="Rectángulo 33117" width="8.491" height="8.95" transform="translate(29.604 171.107)" fill="#344154" stroke="#263238" stroke-linecap="round" stroke-linejoin="round" stroke-width="1"/>
      <rect id="Rectángulo_33118" data-name="Rectángulo 33118" width="1.267" height="20.544" transform="translate(33.505 175.587)" fill="#fff" stroke="#5e6178" stroke-linecap="round" stroke-linejoin="round" stroke-width="1"/>
      <rect id="Rectángulo_33119" data-name="Rectángulo 33119" width="2.221" height="5.379" transform="translate(33.028 190.77)" fill="#344154" stroke="#263238" stroke-linecap="round" stroke-linejoin="round" stroke-width="1"/>
      <path id="Trazado_147391" data-name="Trazado 147391" d="M-6400.167,12069.164h5.049l3.213-30.752h-3.442Z" transform="translate(6425.41 -11933.159)" fill="#fff" stroke="#5e6178" stroke-linecap="round" stroke-linejoin="round" stroke-width="1"/>
      <path id="Trazado_147392" data-name="Trazado 147392" d="M-6409.666,12040.193h34.653s-2.524-4.59-4.131-5.049-27.768,0-27.768,0S-6409.666,12036.063-6409.666,12040.193Z" transform="translate(6426.189 -11932.875)" fill="#d9a171" stroke="#263238" stroke-linecap="round" stroke-linejoin="round" stroke-width="1"/>
      <path id="Trazado_147393" data-name="Trazado 147393" d="M-6375.013,12040.561h-34.653a8.686,8.686,0,0,1,.083-1.148h33.892C-6375.279,12040.074-6375.013,12040.561-6375.013,12040.561Z" transform="translate(6426.189 -11933.241)" fill="#fff" stroke="#5e6178" stroke-linecap="round" stroke-linejoin="round" stroke-width="1"/>
    </g>
    <g id="freepik--Devices--inject-79" transform="translate(-6358.623 11950.537)">
      <rect id="Rectángulo_33120" data-name="Rectángulo 33120" width="51.626" height="1.808" transform="translate(110.705 57.676)" fill="#fff" stroke="#5e6178" stroke-linecap="round" stroke-linejoin="round" stroke-width="1"/>
      <rect id="Rectángulo_33121" data-name="Rectángulo 33121" width="61.393" height="53.113" rx="3.75" transform="translate(103.784 0.101)" fill="#fff" stroke="#5e6178" stroke-linecap="round" stroke-linejoin="round" stroke-width="1"/>
      <rect id="Rectángulo_33122" data-name="Rectángulo 33122" width="9.905" height="30.338" transform="translate(129.523 29.109)" fill="#344154" stroke="#263238" stroke-linecap="round" stroke-linejoin="round" stroke-width="1"/>
      <rect id="Rectángulo_33123" data-name="Rectángulo 33123" width="28.86" height="1.717" transform="translate(247.122 57.713)" fill="#fff" stroke="#5e6178" stroke-linecap="round" stroke-linejoin="round" stroke-width="1"/>
      <path id="Trazado_147394" data-name="Trazado 147394" d="M-6091.914,12028.413H-6104.5a4.175,4.175,0,0,1-4.167-3.946,4.395,4.395,0,0,1,.165-1.387l7.885-22.683a.918.918,0,0,1,1.17-.564.921.921,0,0,1,.564,1.171l-7.876,22.637a2.506,2.506,0,0,0-.073.726,2.339,2.339,0,0,0,2.332,2.211h12.585a.919.919,0,0,1,.918.918.917.917,0,0,1-.918.918Z" transform="translate(6321.641 -11969.36)" fill="#344154" stroke="#263238" stroke-linecap="round" stroke-linejoin="round" stroke-width="1"/>
      <path id="Trazado_147395" data-name="Trazado 147395" d="M-6094.409,11966.643l13.907,53.241-1.478,1.121s-17.5-13.687-17.5-25.1,3.048-28.907,3.048-28.907Z" transform="translate(6320.887 -11966.643)" fill="#fff" stroke="#5e6178" stroke-linecap="round" stroke-linejoin="round" stroke-width="1"/>
      <path id="Trazado_147396" data-name="Trazado 147396" d="M-6094.142,11966.644l-2.074.357,14.458,54,1.523-1.139Z" transform="translate(6320.619 -11966.643)" fill="#344154" stroke="#263238" stroke-linecap="round" stroke-linejoin="round" stroke-width="1"/>
      <rect id="Rectángulo_33124" data-name="Rectángulo 33124" width="28.86" height="1.717" transform="translate(0 57.722)" fill="#fff" stroke="#5e6178" stroke-linecap="round" stroke-linejoin="round" stroke-width="1"/>
      <path id="Trazado_147397" data-name="Trazado 147397" d="M-6290.368,12028.413h12.585a4.167,4.167,0,0,0,4.168-3.946,4.481,4.481,0,0,0-.165-1.387l-7.886-22.683a.919.919,0,0,0-1.17-.564.919.919,0,0,0-.564,1.171l7.875,22.637a2.558,2.558,0,0,1,.074.726,2.34,2.34,0,0,1-2.332,2.211h-12.585a.918.918,0,0,0-.918.918.917.917,0,0,0,.918.918Z" transform="translate(6336.624 -11969.36)" fill="#344154" stroke="#263238" stroke-linecap="round" stroke-linejoin="round" stroke-width="1"/>
      <path id="Trazado_147398" data-name="Trazado 147398" d="M-6287.988,11966.643l-13.9,53.241,1.515,1.139s17.5-13.687,17.5-25.1-3.038-28.906-3.038-28.906Z" transform="translate(6337.494 -11966.643)" fill="#fff" stroke="#5e6178" stroke-linecap="round" stroke-linejoin="round" stroke-width="1"/>
      <path id="Trazado_147399" data-name="Trazado 147399" d="M-6287.989,11966.644l2.075.357-14.458,54-1.515-1.139Z" transform="translate(6337.494 -11966.643)" fill="#344154" stroke="#263238" stroke-linecap="round" stroke-linejoin="round" stroke-width="1"/>
    </g>
    <g id="freepik--Table--inject-79" transform="translate(-6368.941 12009.93)">
      <path id="Trazado_147400" data-name="Trazado 147400" d="M-6344.748,12036.786l3.911,10.1a22.707,22.707,0,0,1,1.56,10.868l-9.18,72.711a1.406,1.406,0,0,0,1.219,1.569,1.59,1.59,0,0,0,.167.01h0a1.413,1.413,0,0,0,1.386-1.147l17.459-93.136h-6.426l-1.129,5.352a.92.92,0,0,1-1.113.67.922.922,0,0,1-.64-.577l-2.121-6.83Z" transform="translate(6351.634 -12031.757)" fill="#fff" stroke="#5e6178" stroke-linecap="round" stroke-linejoin="round" stroke-width="1"/>
      <path id="Trazado_147401" data-name="Trazado 147401" d="M-6040.408,12036.787l-3.911,10.1a22.928,22.928,0,0,0-1.561,10.868l9.179,72.711a1.414,1.414,0,0,1-1.239,1.569,1.4,1.4,0,0,1-.156.01h0a1.412,1.412,0,0,1-1.377-1.147l-17.515-93.136h6.426l1.129,5.352a.916.916,0,0,0,1.122.65.922.922,0,0,0,.622-.558l2.175-6.821Z" transform="translate(6327.719 -12031.757)" fill="#fff" stroke="#5e6178" stroke-linecap="round" stroke-linejoin="round" stroke-width="1"/>
      <path id="Trazado_147402" data-name="Trazado 147402" d="M-6193.61,12131.978h0a2.285,2.285,0,0,1-2.286-2.24l-1.79-94.825h8.151l-1.836,94.825A2.279,2.279,0,0,1-6193.61,12131.978Z" transform="translate(6339.262 -12031.636)" fill="#fff" stroke="#5e6178" stroke-linecap="round" stroke-linejoin="round" stroke-width="1"/>
      <rect id="Rectángulo_33125" data-name="Rectángulo 33125" width="294.663" height="5.967" fill="#fff" stroke="#5e6178" stroke-linecap="round" stroke-linejoin="round" stroke-width="1"/>
    </g>
    <g id="Grupo_92237" data-name="Grupo 92237" transform="translate(-20316.561 6391.072)">
      <g id="Grupo_90206" data-name="Grupo 90206">
        <circle id="Elipse_4290" data-name="Elipse 4290" cx="38.473" cy="38.473" r="38.473" transform="matrix(0.997, -0.083, 0.083, 0.997, 14025.665, 5385.542)" fill="#344154"/>
        <circle id="Elipse_4291" data-name="Elipse 4291" cx="38.473" cy="38.473" r="38.473" transform="matrix(0.31, -0.951, 0.951, 0.31, 14022.55, 5442.567)" fill="#aed3f2"/>
        <path id="Trazado_143998" data-name="Trazado 143998" d="M14071.08,5451.42a33.348,33.348,0,1,1,15.059-3.635A33.365,33.365,0,0,1,14071.08,5451.42Zm-.088-65.6a32.289,32.289,0,1,0,14.693,61.069h0a32.288,32.288,0,0,0-14.693-61.069Z" fill="#fff" stroke="#5e6178" stroke-miterlimit="10" stroke-width="0"/>
        <g id="Grupo_90205" data-name="Grupo 90205">
          <g id="Grupo_90204" data-name="Grupo 90204">
            <path id="Trazado_143999" data-name="Trazado 143999" d="M14063.616,5431.019a21.27,21.27,0,0,1-4.681-3.348,18.9,18.9,0,0,1-3.113-3.75,2.232,2.232,0,0,1-.2-2.12,2.2,2.2,0,0,1,1.212-1.184,2.118,2.118,0,0,1,1.735.027,3.1,3.1,0,0,1,1.223,1.008,23.781,23.781,0,0,0,2.947,3.355,13.764,13.764,0,0,0,3.977,2.549,14.674,14.674,0,0,0,1.726.633,9.861,9.861,0,0,0,1.682.344,6.739,6.739,0,0,0,1.594,0,5.439,5.439,0,0,0,1.4-.359,3.449,3.449,0,0,0,1.163-.8,4.339,4.339,0,0,0,.856-1.305,3.3,3.3,0,0,0,0-2.8,8.435,8.435,0,0,0-2.6-2.913l-4.18-3.248q-1.236-.981-2.029-1.649t-1.661-1.521a11.572,11.572,0,0,1-1.347-1.538,9.154,9.154,0,0,1-.868-1.549,4.908,4.908,0,0,1-.438-1.717,7.726,7.726,0,0,1,.139-1.874,10.022,10.022,0,0,1,.688-2.159,8.259,8.259,0,0,1,1.126-1.883,6.961,6.961,0,0,1,1.467-1.379,7.868,7.868,0,0,1,1.749-.9,8.561,8.561,0,0,1,2-.466,11.391,11.391,0,0,1,2.2-.025,17.036,17.036,0,0,1,2.337.358,20.59,20.59,0,0,1,2.453.714l2.549-5.843a1.928,1.928,0,0,1,1.124-1.138,1.975,1.975,0,0,1,1.479.068,2.115,2.115,0,0,1,1.094,1.071,1.861,1.861,0,0,1-.021,1.6l-2.573,5.9a20.24,20.24,0,0,1,2.683,1.781,20.981,20.981,0,0,1,2.015,1.761q.751.768,1.419,1.569a2.308,2.308,0,0,1,.5,2.591,2.158,2.158,0,0,1-.334.533,1.792,1.792,0,0,1-.48.4,2.891,2.891,0,0,1-.564.246,1.635,1.635,0,0,1-.652.055,2.364,2.364,0,0,1-.7-.186,1.971,1.971,0,0,1-.314-.172c-.1-.064-.2-.138-.312-.22s-.215-.168-.312-.255q-.029-.014-.623-.594t-.858-.833q-.264-.25-.962-.827t-1.234-.945q-.533-.368-1.316-.829a15,15,0,0,0-1.581-.808,12.988,12.988,0,0,0-3.079-.953,5.248,5.248,0,0,0-2.628.194,2.887,2.887,0,0,0-1.738,1.65,2.834,2.834,0,0,0-.08,2.6,11.814,11.814,0,0,0,2.985,2.879l4.12,3.154q3.987,3.063,5.127,5.9a7.667,7.667,0,0,1-.293,6.114,8.36,8.36,0,0,1-5.252,5,13.19,13.19,0,0,1-8.039-.351l-2.512,5.757a1.865,1.865,0,0,1-1.16,1.1,2.154,2.154,0,0,1-1.558-.085,2.068,2.068,0,0,1-.768-.573,1.841,1.841,0,0,1-.4-.919,2.047,2.047,0,0,1,.178-1.144Z" fill="#fff" stroke="#5e6178" stroke-miterlimit="10" stroke-width="0"/>
          </g>
        </g>
      </g>
      <g id="Grupo_90209" data-name="Grupo 90209">
        <circle id="Elipse_4292" data-name="Elipse 4292" cx="23.704" cy="23.704" r="23.704" transform="translate(14104.111 5502.765) rotate(-83.545)" fill="#344154"/>
        <circle id="Elipse_4293" data-name="Elipse 4293" cx="23.704" cy="23.704" r="23.704" transform="translate(14106.089 5500.604) rotate(-83.545)" fill="#aed3f2"/>
        <path id="Trazado_144000" data-name="Trazado 144000" d="M14132.375,5500.549a21.014,21.014,0,0,1-2.368-.134,20.7,20.7,0,1,1,15.229-4.38h0A20.542,20.542,0,0,1,14132.375,5500.549Zm-.079-40.413a19.7,19.7,0,1,0,12.316,35.117h0a19.7,19.7,0,0,0-10.063-34.99A20.337,20.337,0,0,0,14132.3,5460.136Z" fill="#fff" stroke="#5e6178" stroke-miterlimit="10" stroke-width="0"/>
        <g id="Grupo_90208" data-name="Grupo 90208">
          <g id="Grupo_90207" data-name="Grupo 90207">
            <path id="Trazado_144001" data-name="Trazado 144001" d="M14129.447,5488.552a13.111,13.111,0,0,1-3.239-1.441,11.648,11.648,0,0,1-2.343-1.878,1.371,1.371,0,0,1-.38-1.256,1.355,1.355,0,0,1,.585-.865,1.308,1.308,0,0,1,1.051-.2,1.922,1.922,0,0,1,.862.457,14.564,14.564,0,0,0,2.193,1.66,8.479,8.479,0,0,0,2.716,1.047,9.318,9.318,0,0,0,1.119.169,6.179,6.179,0,0,0,1.059,0,4.151,4.151,0,0,0,.962-.2,3.365,3.365,0,0,0,.8-.389,2.135,2.135,0,0,0,.6-.626,2.685,2.685,0,0,0,.356-.894,2.039,2.039,0,0,0-.347-1.689,5.2,5.2,0,0,0-1.928-1.438l-2.926-1.443q-.866-.438-1.428-.744t-1.19-.713a7.1,7.1,0,0,1-1-.761,5.705,5.705,0,0,1-.716-.828,3.058,3.058,0,0,1-.477-.982,4.736,4.736,0,0,1-.148-1.148,6.2,6.2,0,0,1,.148-1.388,5.094,5.094,0,0,1,.446-1.277,4.273,4.273,0,0,1,.715-1.013,4.808,4.808,0,0,1,.944-.759,5.244,5.244,0,0,1,1.151-.53,7.016,7.016,0,0,1,1.324-.287,10.639,10.639,0,0,1,1.454-.073,12.993,12.993,0,0,1,1.569.127l.815-3.842a1.188,1.188,0,0,1,.538-.826,1.214,1.214,0,0,1,.9-.141,1.3,1.3,0,0,1,.793.511,1.151,1.151,0,0,1,.187.97l-.824,3.879a12.418,12.418,0,0,1,1.84.743,13.039,13.039,0,0,1,1.434.813q.548.372,1.051.772a1.423,1.423,0,0,1,.622,1.5,1.344,1.344,0,0,1-.137.363,1.1,1.1,0,0,1-.239.3,1.813,1.813,0,0,1-.312.218,1,1,0,0,1-.387.114,1.448,1.448,0,0,1-.445-.026,1.265,1.265,0,0,1-.211-.065c-.065-.027-.138-.058-.215-.094a2.445,2.445,0,0,1-.22-.116c-.014,0-.163-.1-.45-.281s-.494-.317-.621-.4-.354-.206-.683-.38-.616-.314-.861-.418-.545-.217-.9-.337a9.242,9.242,0,0,0-1.054-.293,8.066,8.066,0,0,0-1.976-.194,3.246,3.246,0,0,0-1.563.442,1.779,1.779,0,0,0-.845,1.211,1.747,1.747,0,0,0,.272,1.576,7.277,7.277,0,0,0,2.158,1.369l2.877,1.394a9.377,9.377,0,0,1,3.824,2.927,4.723,4.723,0,0,1,.58,3.726,5.151,5.151,0,0,1-2.551,3.67,8.129,8.129,0,0,1-4.9.782l-.8,3.786a1.143,1.143,0,0,1-.564.81,1.318,1.318,0,0,1-.949.141,1.263,1.263,0,0,1-.535-.25,1.127,1.127,0,0,1-.353-.506,1.259,1.259,0,0,1-.035-.712Z" fill="#fff" stroke="#5e6178" stroke-miterlimit="10" stroke-width="0"/>
          </g>
        </g>
      </g>
      <g id="Grupo_90212" data-name="Grupo 90212">
        <circle id="Elipse_4294" data-name="Elipse 4294" cx="19.55" cy="19.55" r="19.55" transform="translate(14038.177 5507.572) rotate(-75.044)" fill="#5574d8"/>
        <circle id="Elipse_4295" data-name="Elipse 4295" cx="19.55" cy="19.55" r="19.55" transform="matrix(0.998, -0.06, 0.06, 0.998, 14043.434, 5474.034)" fill="#344154"/>
        <path id="Trazado_144002" data-name="Trazado 144002" d="M14064.122,5509.662a17.18,17.18,0,1,1,7.219-1.6h0A17.117,17.117,0,0,1,14064.122,5509.662Zm-.034-33.335a16.163,16.163,0,1,0,6.831,30.823h0a16.163,16.163,0,0,0-6.831-30.823Z" fill="#fff" stroke="#5e6178" stroke-miterlimit="10" stroke-width="0"/>
        <g id="Grupo_90211" data-name="Grupo 90211">
          <g id="Grupo_90210" data-name="Grupo 90210">
            <path id="Trazado_144003" data-name="Trazado 144003" d="M14060.1,5498.909a10.835,10.835,0,0,1-2.314-1.786,9.537,9.537,0,0,1-1.513-1.961,1.134,1.134,0,0,1-.061-1.08,1.114,1.114,0,0,1,.637-.579,1.08,1.08,0,0,1,.881.045,1.592,1.592,0,0,1,.6.535,12.079,12.079,0,0,0,1.436,1.757,6.981,6.981,0,0,0,1.973,1.367,7.543,7.543,0,0,0,.865.353,4.981,4.981,0,0,0,.848.205,3.372,3.372,0,0,0,.809.029,2.777,2.777,0,0,0,.716-.156,1.755,1.755,0,0,0,.6-.385,2.213,2.213,0,0,0,.459-.647,1.674,1.674,0,0,0,.051-1.421,4.275,4.275,0,0,0-1.265-1.527l-2.064-1.726q-.608-.521-1-.874t-.815-.8a5.9,5.9,0,0,1-.656-.806,4.714,4.714,0,0,1-.413-.8,2.5,2.5,0,0,1-.19-.88,3.872,3.872,0,0,1,.1-.949,5.149,5.149,0,0,1,.388-1.084,4.163,4.163,0,0,1,.607-.936,3.52,3.52,0,0,1,.77-.673,3.957,3.957,0,0,1,.9-.425,4.294,4.294,0,0,1,1.025-.2,5.8,5.8,0,0,1,1.117.028,8.655,8.655,0,0,1,1.181.224,10.661,10.661,0,0,1,1.233.407l1.4-2.92a.976.976,0,0,1,.591-.558,1,1,0,0,1,.75.062,1.066,1.066,0,0,1,.536.564.942.942,0,0,1-.04.813l-1.414,2.949a10.4,10.4,0,0,1,1.33.954,10.685,10.685,0,0,1,.991.93c.245.27.475.544.692.823a1.175,1.175,0,0,1,.205,1.325,1.124,1.124,0,0,1-.18.265.93.93,0,0,1-.251.195,1.527,1.527,0,0,1-.292.114.8.8,0,0,1-.332.016,1.211,1.211,0,0,1-.351-.107.981.981,0,0,1-.157-.093c-.048-.035-.1-.074-.154-.118a1.968,1.968,0,0,1-.153-.135c-.011,0-.112-.109-.307-.313s-.334-.35-.42-.438-.245-.234-.474-.438-.434-.371-.609-.5-.395-.28-.653-.445a7.615,7.615,0,0,0-.788-.439,6.527,6.527,0,0,0-1.546-.54,2.674,2.674,0,0,0-1.34.05,1.468,1.468,0,0,0-.912.806,1.444,1.444,0,0,0-.088,1.316,6.016,6.016,0,0,0,1.463,1.517l2.035,1.677a7.739,7.739,0,0,1,2.5,3.09,3.893,3.893,0,0,1-.26,3.1,4.249,4.249,0,0,1-2.758,2.445,6.705,6.705,0,0,1-4.077-.325l-1.38,2.878a.943.943,0,0,1-.609.54,1.094,1.094,0,0,1-.79-.072,1.054,1.054,0,0,1-.379-.305.934.934,0,0,1-.185-.474,1.041,1.041,0,0,1,.11-.577Z" fill="#fff" stroke="#5e6178" stroke-miterlimit="10" stroke-width="0"/>
          </g>
        </g>
      </g>
    </g>
  </g>
</svg>
