<svg xmlns="http://www.w3.org/2000/svg" xmlns:xlink="http://www.w3.org/1999/xlink" width="515.01" height="487.698" viewBox="0 0 515.01 487.698">
  <defs>
    <linearGradient id="linear-gradient" x1="0.5" x2="0.5" y2="1" gradientUnits="objectBoundingBox">
      <stop offset="0" stop-color="#fff"/>
      <stop offset="1" stop-color="#f8f8f8"/>
    </linearGradient>
  </defs>
  <g id="Grupo_93224" data-name="Grupo 93224" transform="translate(1291 -12518.85)">
    <g id="Grupo_93216" data-name="Grupo 93216" transform="translate(-1261.508 12518.85)">
      <g id="Grupo_57070" data-name="Grupo 57070" transform="translate(-29.492 0)">
        <g id="Grupo_57069" data-name="Grupo 57069" opacity="0.7" style="mix-blend-mode: multiply;isolation: isolate">
          <rect id="Rectángulo_29501" data-name="Rectángulo 29501" width="255.99" height="106.698" rx="9.04" transform="translate(0 0)" fill="#fff" opacity="0"/>
          <rect id="Rectángulo_29502" data-name="Rectángulo 29502" width="253.328" height="104.387" rx="9.04" transform="translate(1.331 1.156)" fill="#f3f3f3" opacity="0.048"/>
          <rect id="Rectángulo_29503" data-name="Rectángulo 29503" width="250.665" height="102.075" rx="9.04" transform="translate(2.662 2.312)" fill="#e7e7e7" opacity="0.095"/>
          <rect id="Rectángulo_29504" data-name="Rectángulo 29504" width="248.003" height="99.763" rx="9.04" transform="translate(3.993 3.468)" fill="#dbdbdb" opacity="0.143"/>
          <rect id="Rectángulo_29505" data-name="Rectángulo 29505" width="245.341" height="97.451" rx="9.04" transform="translate(5.324 4.624)" fill="#cecece" opacity="0.19"/>
          <rect id="Rectángulo_29506" data-name="Rectángulo 29506" width="242.679" height="95.14" rx="9.04" transform="translate(6.655 5.779)" fill="#c2c2c2" opacity="0.238"/>
          <rect id="Rectángulo_29507" data-name="Rectángulo 29507" width="240.017" height="92.828" rx="9.04" transform="translate(7.986 6.935)" fill="#b6b6b6" opacity="0.286"/>
          <rect id="Rectángulo_29508" data-name="Rectángulo 29508" width="237.355" height="90.516" rx="9.04" transform="translate(9.318 8.091)" fill="#aaa" opacity="0.333"/>
          <rect id="Rectángulo_29509" data-name="Rectángulo 29509" width="234.692" height="88.204" rx="9.04" transform="translate(10.649 9.247)" fill="#9e9e9e" opacity="0.381"/>
          <rect id="Rectángulo_29510" data-name="Rectángulo 29510" width="232.03" height="85.893" rx="9.04" transform="translate(11.98 10.403)" fill="#929292" opacity="0.429"/>
          <rect id="Rectángulo_29511" data-name="Rectángulo 29511" width="229.368" height="83.581" rx="9.04" transform="translate(13.311 11.559)" fill="#868686" opacity="0.476"/>
          <rect id="Rectángulo_29512" data-name="Rectángulo 29512" width="226.706" height="81.269" rx="9.04" transform="translate(14.642 12.715)" fill="#797979" opacity="0.524"/>
          <rect id="Rectángulo_29513" data-name="Rectángulo 29513" width="224.044" height="78.957" rx="9.04" transform="translate(15.973 13.87)" fill="#6d6d6d" opacity="0.571"/>
          <rect id="Rectángulo_29514" data-name="Rectángulo 29514" width="221.382" height="76.646" rx="9.04" transform="translate(17.304 15.026)" fill="#616161" opacity="0.619"/>
          <rect id="Rectángulo_29515" data-name="Rectángulo 29515" width="218.719" height="74.334" rx="9.04" transform="translate(18.635 16.182)" fill="#555" opacity="0.667"/>
          <rect id="Rectángulo_29516" data-name="Rectángulo 29516" width="216.057" height="72.022" rx="9.04" transform="translate(19.966 17.338)" fill="#494949" opacity="0.714"/>
          <rect id="Rectángulo_29517" data-name="Rectángulo 29517" width="213.395" height="69.71" rx="9.04" transform="translate(21.297 18.494)" fill="#3d3d3d" opacity="0.762"/>
          <rect id="Rectángulo_29518" data-name="Rectángulo 29518" width="210.733" height="67.399" rx="9.04" transform="translate(22.628 19.65)" fill="#313131" opacity="0.81"/>
          <rect id="Rectángulo_29519" data-name="Rectángulo 29519" width="208.071" height="65.087" rx="9.04" transform="translate(23.959 20.806)" fill="#242424" opacity="0.857"/>
          <rect id="Rectángulo_29520" data-name="Rectángulo 29520" width="205.409" height="62.775" rx="9.04" transform="translate(25.291 21.961)" fill="#181818" opacity="0.905"/>
          <rect id="Rectángulo_29521" data-name="Rectángulo 29521" width="202.746" height="60.463" rx="9.04" transform="translate(26.622 23.117)" fill="#0c0c0c" opacity="0.952"/>
          <rect id="Rectángulo_29522" data-name="Rectángulo 29522" width="200.084" height="58.152" rx="9.04" transform="translate(27.953 24.273)"/>
        </g>
        <rect id="Rectángulo_29523" data-name="Rectángulo 29523" width="234.484" height="88.024" rx="10" transform="translate(9.465 9.633)" fill="url(#linear-gradient)"/>
        <path id="Trazado_123976" data-name="Trazado 123976" d="M181.42,981.515H416.611v12.017l-101.8.738-13.665,11.517-14.7-11.767-105.028-.488Z" transform="translate(-171.956 -971.88)" fill="#d9a171"/>
        <path id="Trazado_123977" data-name="Trazado 123977" d="M277.9,988.778l-9.79,9.182a2.468,2.468,0,0,1-3.458.025L254.3,988.517" transform="translate(-137.118 -972.291)" fill="none" stroke="#12263f" stroke-linecap="round" stroke-miterlimit="10" stroke-width="0.806"/>
        <path id="Trazado_148693" data-name="Trazado 148693" d="M55.415,14.939a4.708,4.708,0,0,1-1.5,3.133,4.911,4.911,0,0,1-3.353,1.1,4.509,4.509,0,0,1-3.634-1.626A6.542,6.542,0,0,1,45.562,13.2v-1.23A7.291,7.291,0,0,1,46.2,8.831a4.76,4.76,0,0,1,1.806-2.079,5.029,5.029,0,0,1,2.707-.725,4.624,4.624,0,0,1,3.27,1.138,4.765,4.765,0,0,1,1.433,3.151h-1.7a3.677,3.677,0,0,0-.954-2.222,2.885,2.885,0,0,0-2.052-.688,3.019,3.019,0,0,0-2.536,1.2,5.492,5.492,0,0,0-.918,3.4v1.24a5.645,5.645,0,0,0,.87,3.316A2.812,2.812,0,0,0,50.563,17.8a3.247,3.247,0,0,0,2.158-.637,3.536,3.536,0,0,0,1-2.219Zm1.617-.782a5.617,5.617,0,0,1,.549-2.514A4.1,4.1,0,0,1,59.11,9.921a4.163,4.163,0,0,1,2.237-.606,4.01,4.01,0,0,1,3.142,1.345,5.174,5.174,0,0,1,1.2,3.577v.114a5.666,5.666,0,0,1-.532,2.492,4.038,4.038,0,0,1-1.521,1.718,4.211,4.211,0,0,1-2.272.615,4,4,0,0,1-3.133-1.345,5.147,5.147,0,0,1-1.2-3.56Zm1.635.193a4.068,4.068,0,0,0,.734,2.54,2.487,2.487,0,0,0,3.933-.013,4.449,4.449,0,0,0,.729-2.72,4.061,4.061,0,0,0-.743-2.536,2.361,2.361,0,0,0-1.973-.971,2.335,2.335,0,0,0-1.942.958A4.416,4.416,0,0,0,58.667,14.351Zm10.6-4.86.053,1.2a3.465,3.465,0,0,1,2.848-1.371q3.015,0,3.041,3.4V19H73.582V12.707a2.189,2.189,0,0,0-.47-1.521,1.884,1.884,0,0,0-1.437-.492,2.347,2.347,0,0,0-1.389.422,2.865,2.865,0,0,0-.932,1.107V19H67.728V9.49ZM78.2,19V10.747H76.7V9.49h1.5V8.682a3.3,3.3,0,0,1,.91-2.479,3.528,3.528,0,0,1,2.571-.888,7.741,7.741,0,0,1,2.487.536L83.9,7.223a5.634,5.634,0,0,0-2.092-.439,2.047,2.047,0,0,0-1.507.47,1.938,1.938,0,0,0-.461,1.411V9.49h1.942v1.257H79.839V19Zm6.776,0H83.346V9.49h1.635ZM93.5,19a3.416,3.416,0,0,1-.229-1,3.628,3.628,0,0,1-2.707,1.178,3.357,3.357,0,0,1-2.307-.8,2.573,2.573,0,0,1-.9-2.017,2.688,2.688,0,0,1,1.129-2.307,5.325,5.325,0,0,1,3.177-.822h1.582v-.747a1.826,1.826,0,0,0-.51-1.358,2.049,2.049,0,0,0-1.5-.505,2.371,2.371,0,0,0-1.459.439,1.3,1.3,0,0,0-.589,1.063H87.547a2.244,2.244,0,0,1,.505-1.375A3.449,3.449,0,0,1,89.424,9.7a4.613,4.613,0,0,1,1.9-.387,3.759,3.759,0,0,1,2.575.822,2.964,2.964,0,0,1,.967,2.263v4.377a5.351,5.351,0,0,0,.334,2.083V19Zm-2.7-1.239a2.858,2.858,0,0,0,1.45-.4,2.392,2.392,0,0,0,.993-1.028V14.386H91.968q-2.988,0-2.988,1.749a1.48,1.48,0,0,0,.51,1.2A1.959,1.959,0,0,0,90.8,17.761Zm14.669-3.41a5.654,5.654,0,0,1-1,3.5,3.2,3.2,0,0,1-2.689,1.323A3.315,3.315,0,0,1,98.991,17.9L98.912,19H97.417V5.5h1.626v5.036a3.3,3.3,0,0,1,2.716-1.222,3.221,3.221,0,0,1,2.72,1.31,5.824,5.824,0,0,1,.989,3.586Zm-1.626-.185A4.394,4.394,0,0,0,103.2,11.6a2.124,2.124,0,0,0-1.846-.905,2.387,2.387,0,0,0-2.312,1.494V16.3a2.454,2.454,0,0,0,2.329,1.494,2.112,2.112,0,0,0,1.819-.905A4.672,4.672,0,0,0,103.842,14.166ZM109.283,19h-1.626V9.49h1.626ZM107.525,6.968a.971.971,0,0,1,.242-.668.907.907,0,0,1,.716-.272.922.922,0,0,1,.721.272.96.96,0,0,1,.246.668.929.929,0,0,1-.246.659.938.938,0,0,1-.721.264.924.924,0,0,1-.716-.264A.938.938,0,0,1,107.525,6.968ZM113.651,19h-1.626V5.5h1.626Zm4.368,0h-1.626V9.49h1.626ZM116.261,6.968A.971.971,0,0,1,116.5,6.3a.907.907,0,0,1,.716-.272.922.922,0,0,1,.721.272.96.96,0,0,1,.246.668.929.929,0,0,1-.246.659.938.938,0,0,1-.721.264.924.924,0,0,1-.716-.264A.938.938,0,0,1,116.261,6.968Zm3.964,7.2a5.571,5.571,0,0,1,1.037-3.52,3.529,3.529,0,0,1,5.361-.189V5.5h1.626V19h-1.494l-.079-1.02a3.311,3.311,0,0,1-2.716,1.2,3.248,3.248,0,0,1-2.694-1.354,5.634,5.634,0,0,1-1.042-3.533Zm1.626.185a4.218,4.218,0,0,0,.668,2.531,2.159,2.159,0,0,0,1.846.914,2.372,2.372,0,0,0,2.259-1.389V12.039a2.39,2.39,0,0,0-2.241-1.345,2.17,2.17,0,0,0-1.863.923A4.644,4.644,0,0,0,121.851,14.351ZM136.643,19a3.416,3.416,0,0,1-.229-1,3.628,3.628,0,0,1-2.707,1.178,3.357,3.357,0,0,1-2.307-.8,2.573,2.573,0,0,1-.9-2.017,2.688,2.688,0,0,1,1.129-2.307,5.325,5.325,0,0,1,3.177-.822h1.582v-.747a1.826,1.826,0,0,0-.51-1.358,2.049,2.049,0,0,0-1.5-.505,2.371,2.371,0,0,0-1.459.439,1.3,1.3,0,0,0-.589,1.063h-1.635a2.244,2.244,0,0,1,.505-1.375,3.449,3.449,0,0,1,1.371-1.05,4.613,4.613,0,0,1,1.9-.387,3.759,3.759,0,0,1,2.575.822,2.964,2.964,0,0,1,.967,2.263v4.377a5.351,5.351,0,0,0,.334,2.083V19Zm-2.7-1.239a2.858,2.858,0,0,0,1.45-.4,2.392,2.392,0,0,0,.993-1.028V14.386h-1.274q-2.988,0-2.988,1.749a1.48,1.48,0,0,0,.51,1.2A1.959,1.959,0,0,0,133.945,17.761Zm6.223-3.595a5.571,5.571,0,0,1,1.037-3.52,3.529,3.529,0,0,1,5.361-.189V5.5h1.626V19H146.7l-.079-1.02a3.311,3.311,0,0,1-2.716,1.2,3.248,3.248,0,0,1-2.694-1.354,5.634,5.634,0,0,1-1.042-3.533Zm1.626.185a4.218,4.218,0,0,0,.668,2.531,2.159,2.159,0,0,0,1.846.914,2.372,2.372,0,0,0,2.259-1.389V12.039a2.39,2.39,0,0,0-2.241-1.345,2.17,2.17,0,0,0-1.863.923A4.644,4.644,0,0,0,141.793,14.351Z" transform="translate(31.954 53.705)" fill="#12263f"/>
      </g>
    </g>
    <g id="Grupo_93217" data-name="Grupo 93217" transform="translate(-1261.508 12645.85)">
      <g id="Grupo_57070-2" data-name="Grupo 57070" transform="translate(-29.492 0)">
        <g id="Grupo_57069-2" data-name="Grupo 57069" opacity="0.7" style="mix-blend-mode: multiply;isolation: isolate">
          <rect id="Rectángulo_29501-2" data-name="Rectángulo 29501" width="255.99" height="106.698" rx="9.04" transform="translate(0 0)" fill="#fff" opacity="0"/>
          <rect id="Rectángulo_29502-2" data-name="Rectángulo 29502" width="253.328" height="104.387" rx="9.04" transform="translate(1.331 1.156)" fill="#f3f3f3" opacity="0.048"/>
          <rect id="Rectángulo_29503-2" data-name="Rectángulo 29503" width="250.665" height="102.075" rx="9.04" transform="translate(2.662 2.312)" fill="#e7e7e7" opacity="0.095"/>
          <rect id="Rectángulo_29504-2" data-name="Rectángulo 29504" width="248.003" height="99.763" rx="9.04" transform="translate(3.993 3.468)" fill="#dbdbdb" opacity="0.143"/>
          <rect id="Rectángulo_29505-2" data-name="Rectángulo 29505" width="245.341" height="97.451" rx="9.04" transform="translate(5.324 4.624)" fill="#cecece" opacity="0.19"/>
          <rect id="Rectángulo_29506-2" data-name="Rectángulo 29506" width="242.679" height="95.14" rx="9.04" transform="translate(6.655 5.779)" fill="#c2c2c2" opacity="0.238"/>
          <rect id="Rectángulo_29507-2" data-name="Rectángulo 29507" width="240.017" height="92.828" rx="9.04" transform="translate(7.986 6.935)" fill="#b6b6b6" opacity="0.286"/>
          <rect id="Rectángulo_29508-2" data-name="Rectángulo 29508" width="237.355" height="90.516" rx="9.04" transform="translate(9.318 8.091)" fill="#aaa" opacity="0.333"/>
          <rect id="Rectángulo_29509-2" data-name="Rectángulo 29509" width="234.692" height="88.204" rx="9.04" transform="translate(10.649 9.247)" fill="#9e9e9e" opacity="0.381"/>
          <rect id="Rectángulo_29510-2" data-name="Rectángulo 29510" width="232.03" height="85.893" rx="9.04" transform="translate(11.98 10.403)" fill="#929292" opacity="0.429"/>
          <rect id="Rectángulo_29511-2" data-name="Rectángulo 29511" width="229.368" height="83.581" rx="9.04" transform="translate(13.311 11.559)" fill="#868686" opacity="0.476"/>
          <rect id="Rectángulo_29512-2" data-name="Rectángulo 29512" width="226.706" height="81.269" rx="9.04" transform="translate(14.642 12.715)" fill="#797979" opacity="0.524"/>
          <rect id="Rectángulo_29513-2" data-name="Rectángulo 29513" width="224.044" height="78.957" rx="9.04" transform="translate(15.973 13.87)" fill="#6d6d6d" opacity="0.571"/>
          <rect id="Rectángulo_29514-2" data-name="Rectángulo 29514" width="221.382" height="76.646" rx="9.04" transform="translate(17.304 15.026)" fill="#616161" opacity="0.619"/>
          <rect id="Rectángulo_29515-2" data-name="Rectángulo 29515" width="218.719" height="74.334" rx="9.04" transform="translate(18.635 16.182)" fill="#555" opacity="0.667"/>
          <rect id="Rectángulo_29516-2" data-name="Rectángulo 29516" width="216.057" height="72.022" rx="9.04" transform="translate(19.966 17.338)" fill="#494949" opacity="0.714"/>
          <rect id="Rectángulo_29517-2" data-name="Rectángulo 29517" width="213.395" height="69.71" rx="9.04" transform="translate(21.297 18.494)" fill="#3d3d3d" opacity="0.762"/>
          <rect id="Rectángulo_29518-2" data-name="Rectángulo 29518" width="210.733" height="67.399" rx="9.04" transform="translate(22.628 19.65)" fill="#313131" opacity="0.81"/>
          <rect id="Rectángulo_29519-2" data-name="Rectángulo 29519" width="208.071" height="65.087" rx="9.04" transform="translate(23.959 20.806)" fill="#242424" opacity="0.857"/>
          <rect id="Rectángulo_29520-2" data-name="Rectángulo 29520" width="205.409" height="62.775" rx="9.04" transform="translate(25.291 21.961)" fill="#181818" opacity="0.905"/>
          <rect id="Rectángulo_29521-2" data-name="Rectángulo 29521" width="202.746" height="60.463" rx="9.04" transform="translate(26.622 23.117)" fill="#0c0c0c" opacity="0.952"/>
          <rect id="Rectángulo_29522-2" data-name="Rectángulo 29522" width="200.084" height="58.152" rx="9.04" transform="translate(27.953 24.273)"/>
        </g>
        <rect id="Rectángulo_29523-2" data-name="Rectángulo 29523" width="234.484" height="88.024" rx="10" transform="translate(9.465 9.633)" fill="url(#linear-gradient)"/>
        <path id="Trazado_123976-2" data-name="Trazado 123976" d="M181.42,981.515H416.611v12.017l-101.8.738-13.665,11.517-14.7-11.767-105.028-.488Z" transform="translate(-171.956 -971.88)" fill="#d9a171"/>
        <path id="Trazado_123977-2" data-name="Trazado 123977" d="M277.9,988.778l-9.79,9.182a2.468,2.468,0,0,1-3.458.025L254.3,988.517" transform="translate(-137.118 -972.291)" fill="none" stroke="#12263f" stroke-linecap="round" stroke-miterlimit="10" stroke-width="0.806"/>
        <path id="Trazado_148695" data-name="Trazado 148695" d="M77.119,6.2v8.7a4.082,4.082,0,0,1-1.138,2.962,4.586,4.586,0,0,1-3.063,1.292l-.448.018a4.79,4.79,0,0,1-3.349-1.134,4.055,4.055,0,0,1-1.266-3.12V6.2h1.67v8.666a2.927,2.927,0,0,0,.765,2.158,3.5,3.5,0,0,0,4.373,0,2.921,2.921,0,0,0,.76-2.153V6.2Zm4.614.984v2.3h1.775v1.257H81.733v5.9a1.32,1.32,0,0,0,.237.858,1,1,0,0,0,.809.286,3.937,3.937,0,0,0,.773-.105V19a4.742,4.742,0,0,1-1.248.175,2.025,2.025,0,0,1-1.644-.659,2.832,2.832,0,0,1-.554-1.872v-5.9H78.376V9.49h1.731v-2.3ZM87.174,19H85.548V9.49h1.626ZM85.416,6.968a.971.971,0,0,1,.242-.668.907.907,0,0,1,.716-.272.922.922,0,0,1,.721.272.96.96,0,0,1,.246.668.929.929,0,0,1-.246.659.938.938,0,0,1-.721.264.924.924,0,0,1-.716-.264A.938.938,0,0,1,85.416,6.968ZM91.542,19H89.916V5.5h1.626Zm4.368,0H94.284V9.49H95.91ZM94.152,6.968a.971.971,0,0,1,.242-.668.907.907,0,0,1,.716-.272.922.922,0,0,1,.721.272.96.96,0,0,1,.246.668.929.929,0,0,1-.246.659.938.938,0,0,1-.721.264.924.924,0,0,1-.716-.264A.938.938,0,0,1,94.152,6.968Zm3.964,7.2a5.571,5.571,0,0,1,1.037-3.52,3.529,3.529,0,0,1,5.361-.189V5.5h1.626V19h-1.494l-.079-1.02a3.311,3.311,0,0,1-2.716,1.2,3.248,3.248,0,0,1-2.694-1.354,5.634,5.634,0,0,1-1.042-3.533Zm1.626.185a4.218,4.218,0,0,0,.668,2.531,2.159,2.159,0,0,0,1.846.914,2.372,2.372,0,0,0,2.259-1.389V12.039a2.39,2.39,0,0,0-2.241-1.345,2.17,2.17,0,0,0-1.863.923A4.644,4.644,0,0,0,99.742,14.351ZM114.534,19a3.416,3.416,0,0,1-.229-1,3.628,3.628,0,0,1-2.707,1.178,3.357,3.357,0,0,1-2.307-.8,2.573,2.573,0,0,1-.9-2.017,2.688,2.688,0,0,1,1.129-2.307,5.325,5.325,0,0,1,3.177-.822h1.582v-.747a1.826,1.826,0,0,0-.51-1.358,2.049,2.049,0,0,0-1.5-.505,2.371,2.371,0,0,0-1.459.439,1.3,1.3,0,0,0-.589,1.063h-1.635a2.244,2.244,0,0,1,.505-1.375A3.449,3.449,0,0,1,110.46,9.7a4.613,4.613,0,0,1,1.9-.387,3.759,3.759,0,0,1,2.575.822,2.964,2.964,0,0,1,.967,2.263v4.377a5.351,5.351,0,0,0,.334,2.083V19Zm-2.7-1.239a2.858,2.858,0,0,0,1.45-.4,2.392,2.392,0,0,0,.993-1.028V14.386H113q-2.988,0-2.988,1.749a1.48,1.48,0,0,0,.51,1.2A1.959,1.959,0,0,0,111.836,17.761Zm6.223-3.595a5.571,5.571,0,0,1,1.037-3.52,3.529,3.529,0,0,1,5.361-.189V5.5h1.626V19h-1.494l-.079-1.02a3.311,3.311,0,0,1-2.716,1.2,3.248,3.248,0,0,1-2.694-1.354,5.634,5.634,0,0,1-1.042-3.533Zm1.626.185a4.218,4.218,0,0,0,.668,2.531,2.159,2.159,0,0,0,1.846.914,2.372,2.372,0,0,0,2.259-1.389V12.039a2.39,2.39,0,0,0-2.241-1.345,2.17,2.17,0,0,0-1.863.923A4.644,4.644,0,0,0,119.685,14.351Z" transform="translate(31.954 53.705)" fill="#12263f"/>
      </g>
    </g>
    <g id="Grupo_93218" data-name="Grupo 93218" transform="translate(-1005.518 12518.85)">
      <g id="Grupo_57070-3" data-name="Grupo 57070" transform="translate(-29.492 0)">
        <g id="Grupo_57069-3" data-name="Grupo 57069" opacity="0.7" style="mix-blend-mode: multiply;isolation: isolate">
          <rect id="Rectángulo_29501-3" data-name="Rectángulo 29501" width="255.99" height="106.698" rx="9.04" transform="translate(0 0)" fill="#fff" opacity="0"/>
          <rect id="Rectángulo_29502-3" data-name="Rectángulo 29502" width="253.328" height="104.387" rx="9.04" transform="translate(1.331 1.156)" fill="#f3f3f3" opacity="0.048"/>
          <rect id="Rectángulo_29503-3" data-name="Rectángulo 29503" width="250.665" height="102.075" rx="9.04" transform="translate(2.662 2.312)" fill="#e7e7e7" opacity="0.095"/>
          <rect id="Rectángulo_29504-3" data-name="Rectángulo 29504" width="248.003" height="99.763" rx="9.04" transform="translate(3.993 3.468)" fill="#dbdbdb" opacity="0.143"/>
          <rect id="Rectángulo_29505-3" data-name="Rectángulo 29505" width="245.341" height="97.451" rx="9.04" transform="translate(5.324 4.624)" fill="#cecece" opacity="0.19"/>
          <rect id="Rectángulo_29506-3" data-name="Rectángulo 29506" width="242.679" height="95.14" rx="9.04" transform="translate(6.655 5.779)" fill="#c2c2c2" opacity="0.238"/>
          <rect id="Rectángulo_29507-3" data-name="Rectángulo 29507" width="240.017" height="92.828" rx="9.04" transform="translate(7.986 6.935)" fill="#b6b6b6" opacity="0.286"/>
          <rect id="Rectángulo_29508-3" data-name="Rectángulo 29508" width="237.355" height="90.516" rx="9.04" transform="translate(9.318 8.091)" fill="#aaa" opacity="0.333"/>
          <rect id="Rectángulo_29509-3" data-name="Rectángulo 29509" width="234.692" height="88.204" rx="9.04" transform="translate(10.649 9.247)" fill="#9e9e9e" opacity="0.381"/>
          <rect id="Rectángulo_29510-3" data-name="Rectángulo 29510" width="232.03" height="85.893" rx="9.04" transform="translate(11.98 10.403)" fill="#929292" opacity="0.429"/>
          <rect id="Rectángulo_29511-3" data-name="Rectángulo 29511" width="229.368" height="83.581" rx="9.04" transform="translate(13.311 11.559)" fill="#868686" opacity="0.476"/>
          <rect id="Rectángulo_29512-3" data-name="Rectángulo 29512" width="226.706" height="81.269" rx="9.04" transform="translate(14.642 12.715)" fill="#797979" opacity="0.524"/>
          <rect id="Rectángulo_29513-3" data-name="Rectángulo 29513" width="224.044" height="78.957" rx="9.04" transform="translate(15.973 13.87)" fill="#6d6d6d" opacity="0.571"/>
          <rect id="Rectángulo_29514-3" data-name="Rectángulo 29514" width="221.382" height="76.646" rx="9.04" transform="translate(17.304 15.026)" fill="#616161" opacity="0.619"/>
          <rect id="Rectángulo_29515-3" data-name="Rectángulo 29515" width="218.719" height="74.334" rx="9.04" transform="translate(18.635 16.182)" fill="#555" opacity="0.667"/>
          <rect id="Rectángulo_29516-3" data-name="Rectángulo 29516" width="216.057" height="72.022" rx="9.04" transform="translate(19.966 17.338)" fill="#494949" opacity="0.714"/>
          <rect id="Rectángulo_29517-3" data-name="Rectángulo 29517" width="213.395" height="69.71" rx="9.04" transform="translate(21.297 18.494)" fill="#3d3d3d" opacity="0.762"/>
          <rect id="Rectángulo_29518-3" data-name="Rectángulo 29518" width="210.733" height="67.399" rx="9.04" transform="translate(22.628 19.65)" fill="#313131" opacity="0.81"/>
          <rect id="Rectángulo_29519-3" data-name="Rectángulo 29519" width="208.071" height="65.087" rx="9.04" transform="translate(23.959 20.806)" fill="#242424" opacity="0.857"/>
          <rect id="Rectángulo_29520-3" data-name="Rectángulo 29520" width="205.409" height="62.775" rx="9.04" transform="translate(25.291 21.961)" fill="#181818" opacity="0.905"/>
          <rect id="Rectángulo_29521-3" data-name="Rectángulo 29521" width="202.746" height="60.463" rx="9.04" transform="translate(26.622 23.117)" fill="#0c0c0c" opacity="0.952"/>
          <rect id="Rectángulo_29522-3" data-name="Rectángulo 29522" width="200.084" height="58.152" rx="9.04" transform="translate(27.953 24.273)"/>
        </g>
        <rect id="Rectángulo_29523-3" data-name="Rectángulo 29523" width="234.484" height="88.024" rx="10" transform="translate(9.465 9.633)" fill="url(#linear-gradient)"/>
        <path id="Trazado_123976-3" data-name="Trazado 123976" d="M181.42,981.515H416.611v12.017l-101.8.738-13.665,11.517-14.7-11.767-105.028-.488Z" transform="translate(-171.956 -971.88)" fill="#d9a171"/>
        <path id="Trazado_123977-3" data-name="Trazado 123977" d="M277.9,988.778l-9.79,9.182a2.468,2.468,0,0,1-3.458.025L254.3,988.517" transform="translate(-137.118 -972.291)" fill="none" stroke="#12263f" stroke-linecap="round" stroke-miterlimit="10" stroke-width="0.806"/>
        <path id="Trazado_148694" data-name="Trazado 148694" d="M52.668,13.823H49.662V19h-1.7V6.2H52.2a5.014,5.014,0,0,1,3.327.984,3.542,3.542,0,0,1,1.165,2.865,3.445,3.445,0,0,1-.646,2.083,3.856,3.856,0,0,1-1.8,1.327l3.006,5.432V19H55.445Zm-3.006-1.38h2.593a2.924,2.924,0,0,0,2-.652A2.2,2.2,0,0,0,55,10.048a2.32,2.32,0,0,0-.708-1.823,3,3,0,0,0-2.043-.643H49.662Zm13.087,6.732a4.155,4.155,0,0,1-3.146-1.27,4.714,4.714,0,0,1-1.213-3.4v-.3a5.707,5.707,0,0,1,.541-2.527,4.217,4.217,0,0,1,1.512-1.74,3.8,3.8,0,0,1,2.1-.628,3.562,3.562,0,0,1,2.883,1.222,5.289,5.289,0,0,1,1.028,3.5v.677H60.016a3.38,3.38,0,0,0,.822,2.272,2.583,2.583,0,0,0,2,.866A2.832,2.832,0,0,0,64.3,17.5a3.666,3.666,0,0,0,1.046-.932l.993.773A3.993,3.993,0,0,1,62.749,19.176Zm-.2-8.525a2.169,2.169,0,0,0-1.652.716,3.482,3.482,0,0,0-.826,2.008h4.764v-.123a3.1,3.1,0,0,0-.668-1.92A2.042,2.042,0,0,0,62.547,10.65ZM70.105,19H68.479V5.5h1.626Zm6.548.176a4.155,4.155,0,0,1-3.146-1.27,4.714,4.714,0,0,1-1.213-3.4v-.3a5.707,5.707,0,0,1,.541-2.527,4.217,4.217,0,0,1,1.512-1.74,3.8,3.8,0,0,1,2.1-.628,3.562,3.562,0,0,1,2.883,1.222,5.289,5.289,0,0,1,1.028,3.5v.677H73.92a3.38,3.38,0,0,0,.822,2.272,2.583,2.583,0,0,0,2,.866A2.832,2.832,0,0,0,78.2,17.5a3.666,3.666,0,0,0,1.046-.932l.993.773A3.993,3.993,0,0,1,76.653,19.176Zm-.2-8.525a2.169,2.169,0,0,0-1.652.716,3.482,3.482,0,0,0-.826,2.008h4.764v-.123a3.1,3.1,0,0,0-.668-1.92A2.042,2.042,0,0,0,76.451,10.65Zm8.815,6.144,2.355-7.3h1.661L85.873,19H84.634L81.188,9.49H82.85ZM96.587,19a3.416,3.416,0,0,1-.229-1,3.628,3.628,0,0,1-2.707,1.178,3.357,3.357,0,0,1-2.307-.8,2.573,2.573,0,0,1-.9-2.017,2.688,2.688,0,0,1,1.129-2.307,5.325,5.325,0,0,1,3.177-.822h1.582v-.747a1.826,1.826,0,0,0-.51-1.358,2.049,2.049,0,0,0-1.5-.505,2.371,2.371,0,0,0-1.459.439,1.3,1.3,0,0,0-.589,1.063H90.637a2.244,2.244,0,0,1,.505-1.375A3.449,3.449,0,0,1,92.513,9.7a4.613,4.613,0,0,1,1.9-.387,3.759,3.759,0,0,1,2.575.822,2.964,2.964,0,0,1,.967,2.263v4.377a5.351,5.351,0,0,0,.334,2.083V19Zm-2.7-1.239a2.858,2.858,0,0,0,1.45-.4,2.392,2.392,0,0,0,.993-1.028V14.386H95.058q-2.988,0-2.988,1.749a1.48,1.48,0,0,0,.51,1.2A1.959,1.959,0,0,0,93.889,17.761Zm8.156-8.271.053,1.2a3.465,3.465,0,0,1,2.848-1.371q3.015,0,3.041,3.4V19H106.36V12.707a2.189,2.189,0,0,0-.47-1.521,1.884,1.884,0,0,0-1.437-.492,2.347,2.347,0,0,0-1.389.422,2.865,2.865,0,0,0-.932,1.107V19h-1.626V9.49Zm12.208,8.358a2.342,2.342,0,0,0,1.521-.527A1.855,1.855,0,0,0,116.494,16h1.538a2.949,2.949,0,0,1-.562,1.556,3.7,3.7,0,0,1-1.384,1.178,3.994,3.994,0,0,1-1.833.439,3.918,3.918,0,0,1-3.089-1.3,5.163,5.163,0,0,1-1.147-3.546v-.272a5.725,5.725,0,0,1,.51-2.47,3.883,3.883,0,0,1,1.463-1.679,4.157,4.157,0,0,1,2.254-.6,3.814,3.814,0,0,1,2.659.958,3.424,3.424,0,0,1,1.129,2.487h-1.538a2.241,2.241,0,0,0-.7-1.516,2.174,2.174,0,0,0-1.551-.593,2.276,2.276,0,0,0-1.92.892,4.19,4.19,0,0,0-.681,2.58v.308a4.106,4.106,0,0,0,.677,2.531A2.287,2.287,0,0,0,114.253,17.849ZM121.627,19H120V9.49h1.626ZM119.869,6.968a.971.971,0,0,1,.242-.668.907.907,0,0,1,.716-.272.922.922,0,0,1,.721.272.96.96,0,0,1,.246.668.929.929,0,0,1-.246.659.938.938,0,0,1-.721.264.924.924,0,0,1-.716-.264A.938.938,0,0,1,119.869,6.968ZM130.1,19a3.416,3.416,0,0,1-.229-1,3.628,3.628,0,0,1-2.707,1.178,3.357,3.357,0,0,1-2.307-.8,2.573,2.573,0,0,1-.9-2.017,2.688,2.688,0,0,1,1.129-2.307,5.325,5.325,0,0,1,3.177-.822h1.582v-.747a1.826,1.826,0,0,0-.51-1.358,2.049,2.049,0,0,0-1.5-.505,2.371,2.371,0,0,0-1.459.439,1.3,1.3,0,0,0-.589,1.063h-1.635a2.244,2.244,0,0,1,.505-1.375,3.449,3.449,0,0,1,1.371-1.05,4.613,4.613,0,0,1,1.9-.387,3.759,3.759,0,0,1,2.575.822,2.964,2.964,0,0,1,.967,2.263v4.377a5.351,5.351,0,0,0,.334,2.083V19Zm-2.7-1.239a2.858,2.858,0,0,0,1.45-.4,2.392,2.392,0,0,0,.993-1.028V14.386H128.57q-2.988,0-2.988,1.749a1.48,1.48,0,0,0,.51,1.2A1.959,1.959,0,0,0,127.4,17.761Zm10.644-3.6a5.617,5.617,0,0,1,.549-2.514,4.1,4.1,0,0,1,1.529-1.723,4.163,4.163,0,0,1,2.237-.606,4.01,4.01,0,0,1,3.142,1.345,5.174,5.174,0,0,1,1.2,3.577v.114a5.666,5.666,0,0,1-.532,2.492,4.038,4.038,0,0,1-1.521,1.718,4.211,4.211,0,0,1-2.272.615,4,4,0,0,1-3.133-1.345,5.147,5.147,0,0,1-1.2-3.56Zm1.635.193a4.068,4.068,0,0,0,.734,2.54,2.487,2.487,0,0,0,3.933-.013,4.449,4.449,0,0,0,.729-2.72,4.061,4.061,0,0,0-.743-2.536,2.361,2.361,0,0,0-1.973-.971,2.335,2.335,0,0,0-1.942.958A4.416,4.416,0,0,0,139.68,14.351ZM18.294,33.49l.044,1.055a3.512,3.512,0,0,1,2.821-1.23,2.719,2.719,0,0,1,2.716,1.529,3.6,3.6,0,0,1,1.235-1.107,3.647,3.647,0,0,1,1.8-.422q3.129,0,3.182,3.313V43H28.463V36.725A2.184,2.184,0,0,0,28,35.2a2.051,2.051,0,0,0-1.564-.505,2.156,2.156,0,0,0-1.5.541,2.193,2.193,0,0,0-.694,1.455V43H22.6V36.769a1.814,1.814,0,0,0-2.03-2.074,2.175,2.175,0,0,0-2.188,1.362V43H16.756V33.49ZM38.412,43a3.416,3.416,0,0,1-.229-1,3.628,3.628,0,0,1-2.707,1.178,3.357,3.357,0,0,1-2.307-.8,2.573,2.573,0,0,1-.9-2.017A2.688,2.688,0,0,1,33.4,38.056a5.325,5.325,0,0,1,3.177-.822h1.582v-.747a1.826,1.826,0,0,0-.51-1.358,2.049,2.049,0,0,0-1.5-.505,2.371,2.371,0,0,0-1.459.439,1.3,1.3,0,0,0-.589,1.063H32.462a2.244,2.244,0,0,1,.505-1.375,3.449,3.449,0,0,1,1.371-1.05,4.613,4.613,0,0,1,1.9-.387,3.759,3.759,0,0,1,2.575.822,2.964,2.964,0,0,1,.967,2.263v4.377a5.351,5.351,0,0,0,.334,2.083V43Zm-2.7-1.239a2.858,2.858,0,0,0,1.45-.4,2.392,2.392,0,0,0,.993-1.028V38.386H36.883q-2.988,0-2.988,1.749a1.48,1.48,0,0,0,.51,1.2A1.959,1.959,0,0,0,35.714,41.761Zm8.824-10.573v2.3h1.775v1.257H44.538v5.9a1.32,1.32,0,0,0,.237.858,1,1,0,0,0,.809.286,3.937,3.937,0,0,0,.773-.105V43a4.742,4.742,0,0,1-1.248.175,2.025,2.025,0,0,1-1.644-.659,2.832,2.832,0,0,1-.554-1.872v-5.9H41.181V33.49h1.731v-2.3Zm7.62,11.988a4.155,4.155,0,0,1-3.146-1.27,4.714,4.714,0,0,1-1.213-3.4v-.3a5.707,5.707,0,0,1,.541-2.527,4.217,4.217,0,0,1,1.512-1.74,3.8,3.8,0,0,1,2.1-.628,3.562,3.562,0,0,1,2.883,1.222,5.289,5.289,0,0,1,1.028,3.5v.677H49.425a3.38,3.38,0,0,0,.822,2.272,2.583,2.583,0,0,0,2,.866,2.832,2.832,0,0,0,1.459-.352,3.666,3.666,0,0,0,1.046-.932l.993.773A3.993,3.993,0,0,1,52.158,43.176Zm-.2-8.525a2.169,2.169,0,0,0-1.652.716,3.482,3.482,0,0,0-.826,2.008h4.764v-.123a3.1,3.1,0,0,0-.668-1.92A2.042,2.042,0,0,0,51.956,34.65Zm10.389.3a4.873,4.873,0,0,0-.8-.062,2.143,2.143,0,0,0-2.171,1.362V43H57.748V33.49H59.33l.026,1.1a2.532,2.532,0,0,1,2.268-1.274,1.661,1.661,0,0,1,.721.123ZM65.605,43H63.979V33.49h1.626ZM63.848,30.968a.971.971,0,0,1,.242-.668.907.907,0,0,1,.716-.272.922.922,0,0,1,.721.272.96.96,0,0,1,.246.668.929.929,0,0,1-.246.659.938.938,0,0,1-.721.264.924.924,0,0,1-.716-.264A.938.938,0,0,1,63.848,30.968ZM74.078,43a3.416,3.416,0,0,1-.229-1,3.628,3.628,0,0,1-2.707,1.178,3.357,3.357,0,0,1-2.307-.8,2.573,2.573,0,0,1-.9-2.017,2.688,2.688,0,0,1,1.129-2.307,5.325,5.325,0,0,1,3.177-.822h1.582v-.747a1.826,1.826,0,0,0-.51-1.358,2.049,2.049,0,0,0-1.5-.505,2.371,2.371,0,0,0-1.459.439,1.3,1.3,0,0,0-.589,1.063H68.128a2.244,2.244,0,0,1,.505-1.375A3.449,3.449,0,0,1,70,33.7a4.613,4.613,0,0,1,1.9-.387,3.759,3.759,0,0,1,2.575.822,2.964,2.964,0,0,1,.967,2.263v4.377a5.351,5.351,0,0,0,.334,2.083V43Zm-2.7-1.239a2.858,2.858,0,0,0,1.45-.4,2.392,2.392,0,0,0,.993-1.028V38.386H72.549q-2.988,0-2.988,1.749a1.48,1.48,0,0,0,.51,1.2A1.959,1.959,0,0,0,71.38,41.761ZM79.765,43H78.139V29.5h1.626Zm4.368,0H82.507V33.49h1.626ZM82.375,30.968a.971.971,0,0,1,.242-.668.907.907,0,0,1,.716-.272.922.922,0,0,1,.721.272.96.96,0,0,1,.246.668.929.929,0,0,1-.246.659.938.938,0,0,1-.721.264.924.924,0,0,1-.716-.264A.938.938,0,0,1,82.375,30.968Zm3.964,7.2a5.571,5.571,0,0,1,1.037-3.52,3.529,3.529,0,0,1,5.361-.189V29.5h1.626V43H92.869l-.079-1.02a3.311,3.311,0,0,1-2.716,1.2,3.248,3.248,0,0,1-2.694-1.354,5.634,5.634,0,0,1-1.042-3.533Zm1.626.185a4.218,4.218,0,0,0,.668,2.531,2.159,2.159,0,0,0,1.846.914,2.372,2.372,0,0,0,2.259-1.389V36.039A2.39,2.39,0,0,0,90.5,34.694a2.17,2.17,0,0,0-1.863.923A4.644,4.644,0,0,0,87.965,38.351ZM102.757,43a3.416,3.416,0,0,1-.229-1,3.628,3.628,0,0,1-2.707,1.178,3.357,3.357,0,0,1-2.307-.8,2.573,2.573,0,0,1-.9-2.017,2.688,2.688,0,0,1,1.129-2.307,5.325,5.325,0,0,1,3.177-.822H102.5v-.747a1.826,1.826,0,0,0-.51-1.358,2.049,2.049,0,0,0-1.5-.505,2.371,2.371,0,0,0-1.459.439,1.3,1.3,0,0,0-.589,1.063H96.807a2.244,2.244,0,0,1,.505-1.375,3.449,3.449,0,0,1,1.371-1.05,4.613,4.613,0,0,1,1.9-.387,3.759,3.759,0,0,1,2.575.822,2.964,2.964,0,0,1,.967,2.263v4.377a5.351,5.351,0,0,0,.334,2.083V43Zm-2.7-1.239a2.858,2.858,0,0,0,1.45-.4,2.392,2.392,0,0,0,.993-1.028V38.386h-1.274q-2.988,0-2.988,1.749a1.48,1.48,0,0,0,.51,1.2A1.959,1.959,0,0,0,100.059,41.761Zm6.223-3.595a5.571,5.571,0,0,1,1.037-3.52,3.529,3.529,0,0,1,5.361-.189V29.5h1.626V43h-1.494l-.079-1.02a3.311,3.311,0,0,1-2.716,1.2,3.248,3.248,0,0,1-2.694-1.354,5.634,5.634,0,0,1-1.042-3.533Zm1.626.185a4.218,4.218,0,0,0,.668,2.531,2.159,2.159,0,0,0,1.846.914,2.372,2.372,0,0,0,2.259-1.389V36.039a2.39,2.39,0,0,0-2.241-1.345,2.17,2.17,0,0,0-1.863.923A4.644,4.644,0,0,0,107.907,38.351Zm17.974-3.4a4.873,4.873,0,0,0-.8-.062,2.143,2.143,0,0,0-2.171,1.362V43h-1.626V33.49h1.582l.026,1.1a2.532,2.532,0,0,1,2.268-1.274,1.661,1.661,0,0,1,.721.123Zm5.44,8.227a4.155,4.155,0,0,1-3.146-1.27,4.714,4.714,0,0,1-1.213-3.4v-.3a5.707,5.707,0,0,1,.541-2.527,4.217,4.217,0,0,1,1.512-1.74,3.8,3.8,0,0,1,2.1-.628A3.562,3.562,0,0,1,134,34.536a5.289,5.289,0,0,1,1.028,3.5v.677h-6.442a3.38,3.38,0,0,0,.822,2.272,2.583,2.583,0,0,0,2,.866,2.832,2.832,0,0,0,1.459-.352,3.666,3.666,0,0,0,1.046-.932l.993.773A3.993,3.993,0,0,1,131.321,43.176Zm-.2-8.525a2.169,2.169,0,0,0-1.652.716,3.482,3.482,0,0,0-.826,2.008H133.4v-.123a3.1,3.1,0,0,0-.668-1.92A2.042,2.042,0,0,0,131.119,34.65ZM138.678,43h-1.626V29.5h1.626Zm8.473,0a3.416,3.416,0,0,1-.229-1,3.628,3.628,0,0,1-2.707,1.178,3.357,3.357,0,0,1-2.307-.8,2.573,2.573,0,0,1-.9-2.017,2.688,2.688,0,0,1,1.129-2.307,5.325,5.325,0,0,1,3.177-.822H146.9v-.747a1.826,1.826,0,0,0-.51-1.358,2.049,2.049,0,0,0-1.5-.505,2.371,2.371,0,0,0-1.459.439,1.3,1.3,0,0,0-.589,1.063H141.2a2.244,2.244,0,0,1,.505-1.375,3.449,3.449,0,0,1,1.371-1.05,4.613,4.613,0,0,1,1.9-.387,3.759,3.759,0,0,1,2.575.822,2.964,2.964,0,0,1,.967,2.263v4.377a5.351,5.351,0,0,0,.334,2.083V43Zm-2.7-1.239a2.858,2.858,0,0,0,1.45-.4,2.392,2.392,0,0,0,.993-1.028V38.386h-1.274q-2.988,0-2.988,1.749a1.48,1.48,0,0,0,.51,1.2A1.959,1.959,0,0,0,144.452,41.761Zm8.824-10.573v2.3h1.775v1.257h-1.775v5.9a1.32,1.32,0,0,0,.237.858,1,1,0,0,0,.809.286,3.937,3.937,0,0,0,.773-.105V43a4.742,4.742,0,0,1-1.248.175,2.025,2.025,0,0,1-1.644-.659,2.832,2.832,0,0,1-.554-1.872v-5.9h-1.731V33.49h1.731v-2.3ZM158.717,43h-1.626V33.49h1.626Zm-1.758-12.032a.971.971,0,0,1,.242-.668.907.907,0,0,1,.716-.272.922.922,0,0,1,.721.272.96.96,0,0,1,.246.668.929.929,0,0,1-.246.659.938.938,0,0,1-.721.264.924.924,0,0,1-.716-.264A.938.938,0,0,1,156.959,30.968Zm7.5,9.826,2.355-7.3h1.661L165.063,43h-1.239l-3.445-9.51h1.661ZM175.776,43a3.416,3.416,0,0,1-.229-1,3.628,3.628,0,0,1-2.707,1.178,3.357,3.357,0,0,1-2.307-.8,2.573,2.573,0,0,1-.9-2.017,2.688,2.688,0,0,1,1.129-2.307,5.325,5.325,0,0,1,3.177-.822h1.582v-.747a1.826,1.826,0,0,0-.51-1.358,2.049,2.049,0,0,0-1.5-.505,2.371,2.371,0,0,0-1.459.439,1.3,1.3,0,0,0-.589,1.063h-1.635a2.244,2.244,0,0,1,.505-1.375A3.449,3.449,0,0,1,171.7,33.7a4.613,4.613,0,0,1,1.9-.387,3.759,3.759,0,0,1,2.575.822,2.964,2.964,0,0,1,.967,2.263v4.377a5.351,5.351,0,0,0,.334,2.083V43Zm-2.7-1.239a2.858,2.858,0,0,0,1.45-.4,2.392,2.392,0,0,0,.993-1.028V38.386h-1.274q-2.988,0-2.988,1.749a1.48,1.48,0,0,0,.51,1.2A1.959,1.959,0,0,0,173.078,41.761Z" transform="translate(31.954 41.705)" fill="#12263f"/>
      </g>
    </g>
    <g id="Grupo_93219" data-name="Grupo 93219" transform="translate(-1005.518 12645.85)">
      <g id="Grupo_57070-4" data-name="Grupo 57070" transform="translate(-29.492 0)">
        <g id="Grupo_57069-4" data-name="Grupo 57069" opacity="0.7" style="mix-blend-mode: multiply;isolation: isolate">
          <rect id="Rectángulo_29501-4" data-name="Rectángulo 29501" width="255.99" height="106.698" rx="9.04" transform="translate(0 0)" fill="#fff" opacity="0"/>
          <rect id="Rectángulo_29502-4" data-name="Rectángulo 29502" width="253.328" height="104.387" rx="9.04" transform="translate(1.331 1.156)" fill="#f3f3f3" opacity="0.048"/>
          <rect id="Rectángulo_29503-4" data-name="Rectángulo 29503" width="250.665" height="102.075" rx="9.04" transform="translate(2.662 2.312)" fill="#e7e7e7" opacity="0.095"/>
          <rect id="Rectángulo_29504-4" data-name="Rectángulo 29504" width="248.003" height="99.763" rx="9.04" transform="translate(3.993 3.468)" fill="#dbdbdb" opacity="0.143"/>
          <rect id="Rectángulo_29505-4" data-name="Rectángulo 29505" width="245.341" height="97.451" rx="9.04" transform="translate(5.324 4.624)" fill="#cecece" opacity="0.19"/>
          <rect id="Rectángulo_29506-4" data-name="Rectángulo 29506" width="242.679" height="95.14" rx="9.04" transform="translate(6.655 5.779)" fill="#c2c2c2" opacity="0.238"/>
          <rect id="Rectángulo_29507-4" data-name="Rectángulo 29507" width="240.017" height="92.828" rx="9.04" transform="translate(7.986 6.935)" fill="#b6b6b6" opacity="0.286"/>
          <rect id="Rectángulo_29508-4" data-name="Rectángulo 29508" width="237.355" height="90.516" rx="9.04" transform="translate(9.318 8.091)" fill="#aaa" opacity="0.333"/>
          <rect id="Rectángulo_29509-4" data-name="Rectángulo 29509" width="234.692" height="88.204" rx="9.04" transform="translate(10.649 9.247)" fill="#9e9e9e" opacity="0.381"/>
          <rect id="Rectángulo_29510-4" data-name="Rectángulo 29510" width="232.03" height="85.893" rx="9.04" transform="translate(11.98 10.403)" fill="#929292" opacity="0.429"/>
          <rect id="Rectángulo_29511-4" data-name="Rectángulo 29511" width="229.368" height="83.581" rx="9.04" transform="translate(13.311 11.559)" fill="#868686" opacity="0.476"/>
          <rect id="Rectángulo_29512-4" data-name="Rectángulo 29512" width="226.706" height="81.269" rx="9.04" transform="translate(14.642 12.715)" fill="#797979" opacity="0.524"/>
          <rect id="Rectángulo_29513-4" data-name="Rectángulo 29513" width="224.044" height="78.957" rx="9.04" transform="translate(15.973 13.87)" fill="#6d6d6d" opacity="0.571"/>
          <rect id="Rectángulo_29514-4" data-name="Rectángulo 29514" width="221.382" height="76.646" rx="9.04" transform="translate(17.304 15.026)" fill="#616161" opacity="0.619"/>
          <rect id="Rectángulo_29515-4" data-name="Rectángulo 29515" width="218.719" height="74.334" rx="9.04" transform="translate(18.635 16.182)" fill="#555" opacity="0.667"/>
          <rect id="Rectángulo_29516-4" data-name="Rectángulo 29516" width="216.057" height="72.022" rx="9.04" transform="translate(19.966 17.338)" fill="#494949" opacity="0.714"/>
          <rect id="Rectángulo_29517-4" data-name="Rectángulo 29517" width="213.395" height="69.71" rx="9.04" transform="translate(21.297 18.494)" fill="#3d3d3d" opacity="0.762"/>
          <rect id="Rectángulo_29518-4" data-name="Rectángulo 29518" width="210.733" height="67.399" rx="9.04" transform="translate(22.628 19.65)" fill="#313131" opacity="0.81"/>
          <rect id="Rectángulo_29519-4" data-name="Rectángulo 29519" width="208.071" height="65.087" rx="9.04" transform="translate(23.959 20.806)" fill="#242424" opacity="0.857"/>
          <rect id="Rectángulo_29520-4" data-name="Rectángulo 29520" width="205.409" height="62.775" rx="9.04" transform="translate(25.291 21.961)" fill="#181818" opacity="0.905"/>
          <rect id="Rectángulo_29521-4" data-name="Rectángulo 29521" width="202.746" height="60.463" rx="9.04" transform="translate(26.622 23.117)" fill="#0c0c0c" opacity="0.952"/>
          <rect id="Rectángulo_29522-4" data-name="Rectángulo 29522" width="200.084" height="58.152" rx="9.04" transform="translate(27.953 24.273)"/>
        </g>
        <rect id="Rectángulo_29523-4" data-name="Rectángulo 29523" width="234.484" height="88.024" rx="10" transform="translate(9.465 9.633)" fill="url(#linear-gradient)"/>
        <path id="Trazado_123976-4" data-name="Trazado 123976" d="M181.42,981.515H416.611v12.017l-101.8.738-13.665,11.517-14.7-11.767-105.028-.488Z" transform="translate(-171.956 -971.88)" fill="#d9a171"/>
        <path id="Trazado_123977-4" data-name="Trazado 123977" d="M277.9,988.778l-9.79,9.182a2.468,2.468,0,0,1-3.458.025L254.3,988.517" transform="translate(-137.118 -972.291)" fill="none" stroke="#12263f" stroke-linecap="round" stroke-miterlimit="10" stroke-width="0.806"/>
        <path id="Trazado_148696" data-name="Trazado 148696" d="M63.461,13.015a7.916,7.916,0,0,1-.633,3.283,4.793,4.793,0,0,1-1.793,2.14,4.948,4.948,0,0,1-7.2-2.123,7.6,7.6,0,0,1-.664-3.186v-.923a7.822,7.822,0,0,1,.642-3.261,4.745,4.745,0,0,1,4.5-2.918,4.961,4.961,0,0,1,2.711.743,4.784,4.784,0,0,1,1.806,2.153,7.955,7.955,0,0,1,.633,3.283Zm-1.679-.826a5.738,5.738,0,0,0-.914-3.494,3.015,3.015,0,0,0-2.558-1.217,2.982,2.982,0,0,0-2.518,1.217,5.62,5.62,0,0,0-.945,3.379v.94a5.746,5.746,0,0,0,.927,3.467,3.249,3.249,0,0,0,5.084.07,5.714,5.714,0,0,0,.923-3.415Zm12.006,2.162a5.654,5.654,0,0,1-1,3.5A3.2,3.2,0,0,1,70.1,19.176,3.315,3.315,0,0,1,67.311,17.9L67.231,19H65.737V5.5h1.626v5.036a3.3,3.3,0,0,1,2.716-1.222,3.221,3.221,0,0,1,2.72,1.31,5.824,5.824,0,0,1,.989,3.586Zm-1.626-.185a4.394,4.394,0,0,0-.642-2.566,2.124,2.124,0,0,0-1.846-.905,2.387,2.387,0,0,0-2.312,1.494V16.3A2.454,2.454,0,0,0,69.692,17.8a2.112,2.112,0,0,0,1.819-.905A4.672,4.672,0,0,0,72.162,14.166ZM77.515,9.49V20.1q0,2.742-2.487,2.742a3.034,3.034,0,0,1-.993-.157V21.391a3.144,3.144,0,0,0,.738.07,1.1,1.1,0,0,0,.831-.295,1.457,1.457,0,0,0,.286-1.025V9.49ZM75.722,6.968a.975.975,0,0,1,.242-.664.889.889,0,0,1,.708-.277.922.922,0,0,1,.721.272.96.96,0,0,1,.246.668.929.929,0,0,1-.246.659.938.938,0,0,1-.721.264.909.909,0,0,1-.712-.264A.949.949,0,0,1,75.722,6.968ZM84.08,19.176a4.155,4.155,0,0,1-3.146-1.27,4.714,4.714,0,0,1-1.213-3.4v-.3a5.707,5.707,0,0,1,.541-2.527,4.217,4.217,0,0,1,1.512-1.74,3.8,3.8,0,0,1,2.1-.628,3.562,3.562,0,0,1,2.883,1.222,5.289,5.289,0,0,1,1.028,3.5v.677H81.347a3.38,3.38,0,0,0,.822,2.272,2.583,2.583,0,0,0,2,.866,2.832,2.832,0,0,0,1.459-.352,3.666,3.666,0,0,0,1.046-.932l.993.773A3.993,3.993,0,0,1,84.08,19.176Zm-.2-8.525a2.169,2.169,0,0,0-1.652.716,3.482,3.482,0,0,0-.826,2.008h4.764v-.123a3.1,3.1,0,0,0-.668-1.92A2.042,2.042,0,0,0,83.878,10.65Zm8-3.463v2.3h1.775v1.257H91.876v5.9a1.32,1.32,0,0,0,.237.858,1,1,0,0,0,.809.286,3.937,3.937,0,0,0,.773-.105V19a4.742,4.742,0,0,1-1.248.175,2.025,2.025,0,0,1-1.644-.659,2.832,2.832,0,0,1-.554-1.872v-5.9H88.519V9.49H90.25v-2.3ZM97.316,19H95.69V9.49h1.626ZM95.559,6.968A.971.971,0,0,1,95.8,6.3a.907.907,0,0,1,.716-.272.922.922,0,0,1,.721.272.96.96,0,0,1,.246.668.929.929,0,0,1-.246.659.938.938,0,0,1-.721.264.924.924,0,0,1-.716-.264A.938.938,0,0,1,95.559,6.968Zm7.5,9.826,2.355-7.3h1.661L103.662,19h-1.239L98.978,9.49h1.661ZM110.4,19h-1.626V9.49H110.4ZM108.646,6.968a.971.971,0,0,1,.242-.668.907.907,0,0,1,.716-.272.922.922,0,0,1,.721.272.96.96,0,0,1,.246.668.929.929,0,0,1-.246.659.938.938,0,0,1-.721.264.924.924,0,0,1-.716-.264A.938.938,0,0,1,108.646,6.968Zm3.964,7.2a5.571,5.571,0,0,1,1.037-3.52,3.529,3.529,0,0,1,5.361-.189V5.5h1.626V19H119.14l-.079-1.02a3.311,3.311,0,0,1-2.716,1.2,3.248,3.248,0,0,1-2.694-1.354,5.634,5.634,0,0,1-1.042-3.533Zm1.626.185a4.218,4.218,0,0,0,.668,2.531,2.159,2.159,0,0,0,1.846.914,2.372,2.372,0,0,0,2.259-1.389V12.039a2.39,2.39,0,0,0-2.241-1.345,2.17,2.17,0,0,0-1.863.923A4.644,4.644,0,0,0,114.235,14.351ZM129.027,19a3.416,3.416,0,0,1-.229-1,3.628,3.628,0,0,1-2.707,1.178,3.357,3.357,0,0,1-2.307-.8,2.573,2.573,0,0,1-.9-2.017,2.688,2.688,0,0,1,1.129-2.307,5.325,5.325,0,0,1,3.177-.822h1.582v-.747a1.826,1.826,0,0,0-.51-1.358,2.049,2.049,0,0,0-1.5-.505,2.371,2.371,0,0,0-1.459.439,1.3,1.3,0,0,0-.589,1.063h-1.635a2.244,2.244,0,0,1,.505-1.375,3.449,3.449,0,0,1,1.371-1.05,4.613,4.613,0,0,1,1.9-.387,3.759,3.759,0,0,1,2.575.822A2.964,2.964,0,0,1,130.4,12.4v4.377a5.351,5.351,0,0,0,.334,2.083V19Zm-2.7-1.239a2.858,2.858,0,0,0,1.45-.4,2.392,2.392,0,0,0,.993-1.028V14.386H127.5q-2.988,0-2.988,1.749a1.48,1.48,0,0,0,.51,1.2A1.959,1.959,0,0,0,126.329,17.761Zm6.223-3.595a5.571,5.571,0,0,1,1.037-3.52,3.529,3.529,0,0,1,5.361-.189V5.5h1.626V19h-1.494L139,17.98a3.311,3.311,0,0,1-2.716,1.2,3.248,3.248,0,0,1-2.694-1.354,5.634,5.634,0,0,1-1.042-3.533Zm1.626.185a4.218,4.218,0,0,0,.668,2.531,2.159,2.159,0,0,0,1.846.914,2.372,2.372,0,0,0,2.259-1.389V12.039a2.39,2.39,0,0,0-2.241-1.345,2.17,2.17,0,0,0-1.863.923A4.644,4.644,0,0,0,134.178,14.351Z" transform="translate(31.954 53.705)" fill="#12263f"/>
      </g>
    </g>
    <g id="Grupo_93220" data-name="Grupo 93220" transform="translate(-1261.508 12772.85)">
      <g id="Grupo_57070-5" data-name="Grupo 57070" transform="translate(-29.492 0)">
        <g id="Grupo_57069-5" data-name="Grupo 57069" opacity="0.7" style="mix-blend-mode: multiply;isolation: isolate">
          <rect id="Rectángulo_29501-5" data-name="Rectángulo 29501" width="255.99" height="106.698" rx="9.04" transform="translate(0 0)" fill="#fff" opacity="0"/>
          <rect id="Rectángulo_29502-5" data-name="Rectángulo 29502" width="253.328" height="104.387" rx="9.04" transform="translate(1.331 1.156)" fill="#f3f3f3" opacity="0.048"/>
          <rect id="Rectángulo_29503-5" data-name="Rectángulo 29503" width="250.665" height="102.075" rx="9.04" transform="translate(2.662 2.312)" fill="#e7e7e7" opacity="0.095"/>
          <rect id="Rectángulo_29504-5" data-name="Rectángulo 29504" width="248.003" height="99.763" rx="9.04" transform="translate(3.993 3.468)" fill="#dbdbdb" opacity="0.143"/>
          <rect id="Rectángulo_29505-5" data-name="Rectángulo 29505" width="245.341" height="97.451" rx="9.04" transform="translate(5.324 4.624)" fill="#cecece" opacity="0.19"/>
          <rect id="Rectángulo_29506-5" data-name="Rectángulo 29506" width="242.679" height="95.14" rx="9.04" transform="translate(6.655 5.779)" fill="#c2c2c2" opacity="0.238"/>
          <rect id="Rectángulo_29507-5" data-name="Rectángulo 29507" width="240.017" height="92.828" rx="9.04" transform="translate(7.986 6.935)" fill="#b6b6b6" opacity="0.286"/>
          <rect id="Rectángulo_29508-5" data-name="Rectángulo 29508" width="237.355" height="90.516" rx="9.04" transform="translate(9.318 8.091)" fill="#aaa" opacity="0.333"/>
          <rect id="Rectángulo_29509-5" data-name="Rectángulo 29509" width="234.692" height="88.204" rx="9.04" transform="translate(10.649 9.247)" fill="#9e9e9e" opacity="0.381"/>
          <rect id="Rectángulo_29510-5" data-name="Rectángulo 29510" width="232.03" height="85.893" rx="9.04" transform="translate(11.98 10.403)" fill="#929292" opacity="0.429"/>
          <rect id="Rectángulo_29511-5" data-name="Rectángulo 29511" width="229.368" height="83.581" rx="9.04" transform="translate(13.311 11.559)" fill="#868686" opacity="0.476"/>
          <rect id="Rectángulo_29512-5" data-name="Rectángulo 29512" width="226.706" height="81.269" rx="9.04" transform="translate(14.642 12.715)" fill="#797979" opacity="0.524"/>
          <rect id="Rectángulo_29513-5" data-name="Rectángulo 29513" width="224.044" height="78.957" rx="9.04" transform="translate(15.973 13.87)" fill="#6d6d6d" opacity="0.571"/>
          <rect id="Rectángulo_29514-5" data-name="Rectángulo 29514" width="221.382" height="76.646" rx="9.04" transform="translate(17.304 15.026)" fill="#616161" opacity="0.619"/>
          <rect id="Rectángulo_29515-5" data-name="Rectángulo 29515" width="218.719" height="74.334" rx="9.04" transform="translate(18.635 16.182)" fill="#555" opacity="0.667"/>
          <rect id="Rectángulo_29516-5" data-name="Rectángulo 29516" width="216.057" height="72.022" rx="9.04" transform="translate(19.966 17.338)" fill="#494949" opacity="0.714"/>
          <rect id="Rectángulo_29517-5" data-name="Rectángulo 29517" width="213.395" height="69.71" rx="9.04" transform="translate(21.297 18.494)" fill="#3d3d3d" opacity="0.762"/>
          <rect id="Rectángulo_29518-5" data-name="Rectángulo 29518" width="210.733" height="67.399" rx="9.04" transform="translate(22.628 19.65)" fill="#313131" opacity="0.81"/>
          <rect id="Rectángulo_29519-5" data-name="Rectángulo 29519" width="208.071" height="65.087" rx="9.04" transform="translate(23.959 20.806)" fill="#242424" opacity="0.857"/>
          <rect id="Rectángulo_29520-5" data-name="Rectángulo 29520" width="205.409" height="62.775" rx="9.04" transform="translate(25.291 21.961)" fill="#181818" opacity="0.905"/>
          <rect id="Rectángulo_29521-5" data-name="Rectángulo 29521" width="202.746" height="60.463" rx="9.04" transform="translate(26.622 23.117)" fill="#0c0c0c" opacity="0.952"/>
          <rect id="Rectángulo_29522-5" data-name="Rectángulo 29522" width="200.084" height="58.152" rx="9.04" transform="translate(27.953 24.273)"/>
        </g>
        <rect id="Rectángulo_29523-5" data-name="Rectángulo 29523" width="234.484" height="88.024" rx="10" transform="translate(9.465 9.633)" fill="url(#linear-gradient)"/>
        <path id="Trazado_123976-5" data-name="Trazado 123976" d="M181.42,981.515H416.611v12.017l-101.8.738-13.665,11.517-14.7-11.767-105.028-.488Z" transform="translate(-171.956 -971.88)" fill="#d9a171"/>
        <path id="Trazado_123977-5" data-name="Trazado 123977" d="M277.9,988.778l-9.79,9.182a2.468,2.468,0,0,1-3.458.025L254.3,988.517" transform="translate(-137.118 -972.291)" fill="none" stroke="#12263f" stroke-linecap="round" stroke-miterlimit="10" stroke-width="0.806"/>
        <path id="Trazado_148697" data-name="Trazado 148697" d="M58.6,13.015a7.916,7.916,0,0,1-.633,3.283,4.793,4.793,0,0,1-1.793,2.14,4.948,4.948,0,0,1-7.2-2.123,7.6,7.6,0,0,1-.664-3.186v-.923a7.822,7.822,0,0,1,.642-3.261,4.745,4.745,0,0,1,4.5-2.918,4.961,4.961,0,0,1,2.711.743,4.784,4.784,0,0,1,1.806,2.153,7.955,7.955,0,0,1,.633,3.283Zm-1.679-.826A5.738,5.738,0,0,0,56,8.695a3.015,3.015,0,0,0-2.558-1.217,2.982,2.982,0,0,0-2.518,1.217,5.62,5.62,0,0,0-.945,3.379v.94a5.746,5.746,0,0,0,.927,3.467,3.249,3.249,0,0,0,5.084.07,5.714,5.714,0,0,0,.923-3.415Zm11.988,2.162a5.694,5.694,0,0,1-.993,3.5,3.183,3.183,0,0,1-2.689,1.327,3.488,3.488,0,0,1-2.725-1.1v4.579H60.873V9.49h1.485l.079,1.055a3.35,3.35,0,0,1,2.76-1.23,3.243,3.243,0,0,1,2.711,1.292,5.756,5.756,0,0,1,1,3.595Zm-1.626-.185a4.2,4.2,0,0,0-.686-2.54,2.208,2.208,0,0,0-1.881-.932A2.39,2.39,0,0,0,62.5,12v4.544a2.4,2.4,0,0,0,2.232,1.3,2.2,2.2,0,0,0,1.859-.927A4.587,4.587,0,0,0,67.28,14.166Zm3.261-.009a5.617,5.617,0,0,1,.549-2.514,4.1,4.1,0,0,1,1.529-1.723,4.163,4.163,0,0,1,2.237-.606A4.01,4.01,0,0,1,78,10.659a5.174,5.174,0,0,1,1.2,3.577v.114a5.666,5.666,0,0,1-.532,2.492,4.038,4.038,0,0,1-1.521,1.718,4.211,4.211,0,0,1-2.272.615,4,4,0,0,1-3.133-1.345,5.147,5.147,0,0,1-1.2-3.56Zm1.635.193a4.068,4.068,0,0,0,.734,2.54,2.487,2.487,0,0,0,3.933-.013,4.449,4.449,0,0,0,.729-2.72,4.061,4.061,0,0,0-.743-2.536,2.361,2.361,0,0,0-1.973-.971,2.335,2.335,0,0,0-1.942.958A4.416,4.416,0,0,0,72.175,14.351Zm13.658-3.4a4.873,4.873,0,0,0-.8-.062,2.143,2.143,0,0,0-2.171,1.362V19H81.237V9.49h1.582l.026,1.1a2.532,2.532,0,0,1,2.268-1.274,1.661,1.661,0,0,1,.721.123Zm4.14-3.762v2.3h1.775v1.257H89.973v5.9a1.32,1.32,0,0,0,.237.858,1,1,0,0,0,.809.286,3.937,3.937,0,0,0,.773-.105V19a4.742,4.742,0,0,1-1.248.175,2.025,2.025,0,0,1-1.644-.659,2.832,2.832,0,0,1-.554-1.872v-5.9H86.616V9.49h1.731v-2.3ZM99.518,18.06a3.454,3.454,0,0,1-2.786,1.116,2.956,2.956,0,0,1-2.316-.883,3.823,3.823,0,0,1-.8-2.615V9.49h1.626v6.144Q95.238,17.8,97,17.8a2.434,2.434,0,0,0,2.479-1.389V9.49H101.1V19H99.553Zm5.59-8.569.053,1.2a3.465,3.465,0,0,1,2.848-1.371q3.015,0,3.041,3.4V19h-1.626V12.707a2.189,2.189,0,0,0-.47-1.521,1.884,1.884,0,0,0-1.437-.492,2.347,2.347,0,0,0-1.389.422,2.865,2.865,0,0,0-.932,1.107V19H103.57V9.49ZM115.268,19h-1.626V9.49h1.626ZM113.51,6.968a.971.971,0,0,1,.242-.668.907.907,0,0,1,.716-.272.922.922,0,0,1,.721.272.96.96,0,0,1,.246.668.929.929,0,0,1-.246.659.938.938,0,0,1-.721.264.924.924,0,0,1-.716-.264A.938.938,0,0,1,113.51,6.968Zm3.964,7.2a5.571,5.571,0,0,1,1.037-3.52,3.529,3.529,0,0,1,5.361-.189V5.5H125.5V19H124l-.079-1.02a3.311,3.311,0,0,1-2.716,1.2,3.248,3.248,0,0,1-2.694-1.354,5.634,5.634,0,0,1-1.042-3.533Zm1.626.185a4.218,4.218,0,0,0,.668,2.531,2.159,2.159,0,0,0,1.846.914,2.372,2.372,0,0,0,2.259-1.389V12.039a2.39,2.39,0,0,0-2.241-1.345,2.17,2.17,0,0,0-1.863.923A4.644,4.644,0,0,0,119.1,14.351ZM133.892,19a3.416,3.416,0,0,1-.229-1,3.628,3.628,0,0,1-2.707,1.178,3.357,3.357,0,0,1-2.307-.8,2.573,2.573,0,0,1-.9-2.017,2.688,2.688,0,0,1,1.129-2.307,5.325,5.325,0,0,1,3.177-.822h1.582v-.747a1.826,1.826,0,0,0-.51-1.358,2.049,2.049,0,0,0-1.5-.505,2.371,2.371,0,0,0-1.459.439,1.3,1.3,0,0,0-.589,1.063h-1.635a2.244,2.244,0,0,1,.505-1.375,3.449,3.449,0,0,1,1.371-1.05,4.613,4.613,0,0,1,1.9-.387,3.759,3.759,0,0,1,2.575.822,2.964,2.964,0,0,1,.967,2.263v4.377a5.351,5.351,0,0,0,.334,2.083V19Zm-2.7-1.239a2.858,2.858,0,0,0,1.45-.4,2.392,2.392,0,0,0,.993-1.028V14.386h-1.274q-2.988,0-2.988,1.749a1.48,1.48,0,0,0,.51,1.2A1.959,1.959,0,0,0,131.194,17.761Zm6.223-3.595a5.571,5.571,0,0,1,1.037-3.52,3.529,3.529,0,0,1,5.361-.189V5.5h1.626V19h-1.494l-.079-1.02a3.311,3.311,0,0,1-2.716,1.2,3.248,3.248,0,0,1-2.694-1.354,5.634,5.634,0,0,1-1.042-3.533Zm1.626.185a4.218,4.218,0,0,0,.668,2.531,2.159,2.159,0,0,0,1.846.914,2.372,2.372,0,0,0,2.259-1.389V12.039a2.39,2.39,0,0,0-2.241-1.345,2.17,2.17,0,0,0-1.863.923A4.644,4.644,0,0,0,139.042,14.351Z" transform="translate(31.954 53.705)" fill="#12263f"/>
      </g>
    </g>
    <g id="Grupo_93221" data-name="Grupo 93221" transform="translate(-1261.508 12899.85)">
      <g id="Grupo_57070-6" data-name="Grupo 57070" transform="translate(-29.492 0)">
        <g id="Grupo_57069-6" data-name="Grupo 57069" opacity="0.7" style="mix-blend-mode: multiply;isolation: isolate">
          <rect id="Rectángulo_29501-6" data-name="Rectángulo 29501" width="255.99" height="106.698" rx="9.04" transform="translate(0 0)" fill="#fff" opacity="0"/>
          <rect id="Rectángulo_29502-6" data-name="Rectángulo 29502" width="253.328" height="104.387" rx="9.04" transform="translate(1.331 1.156)" fill="#f3f3f3" opacity="0.048"/>
          <rect id="Rectángulo_29503-6" data-name="Rectángulo 29503" width="250.665" height="102.075" rx="9.04" transform="translate(2.662 2.312)" fill="#e7e7e7" opacity="0.095"/>
          <rect id="Rectángulo_29504-6" data-name="Rectángulo 29504" width="248.003" height="99.763" rx="9.04" transform="translate(3.993 3.468)" fill="#dbdbdb" opacity="0.143"/>
          <rect id="Rectángulo_29505-6" data-name="Rectángulo 29505" width="245.341" height="97.451" rx="9.04" transform="translate(5.324 4.624)" fill="#cecece" opacity="0.19"/>
          <rect id="Rectángulo_29506-6" data-name="Rectángulo 29506" width="242.679" height="95.14" rx="9.04" transform="translate(6.655 5.779)" fill="#c2c2c2" opacity="0.238"/>
          <rect id="Rectángulo_29507-6" data-name="Rectángulo 29507" width="240.017" height="92.828" rx="9.04" transform="translate(7.986 6.935)" fill="#b6b6b6" opacity="0.286"/>
          <rect id="Rectángulo_29508-6" data-name="Rectángulo 29508" width="237.355" height="90.516" rx="9.04" transform="translate(9.318 8.091)" fill="#aaa" opacity="0.333"/>
          <rect id="Rectángulo_29509-6" data-name="Rectángulo 29509" width="234.692" height="88.204" rx="9.04" transform="translate(10.649 9.247)" fill="#9e9e9e" opacity="0.381"/>
          <rect id="Rectángulo_29510-6" data-name="Rectángulo 29510" width="232.03" height="85.893" rx="9.04" transform="translate(11.98 10.403)" fill="#929292" opacity="0.429"/>
          <rect id="Rectángulo_29511-6" data-name="Rectángulo 29511" width="229.368" height="83.581" rx="9.04" transform="translate(13.311 11.559)" fill="#868686" opacity="0.476"/>
          <rect id="Rectángulo_29512-6" data-name="Rectángulo 29512" width="226.706" height="81.269" rx="9.04" transform="translate(14.642 12.715)" fill="#797979" opacity="0.524"/>
          <rect id="Rectángulo_29513-6" data-name="Rectángulo 29513" width="224.044" height="78.957" rx="9.04" transform="translate(15.973 13.87)" fill="#6d6d6d" opacity="0.571"/>
          <rect id="Rectángulo_29514-6" data-name="Rectángulo 29514" width="221.382" height="76.646" rx="9.04" transform="translate(17.304 15.026)" fill="#616161" opacity="0.619"/>
          <rect id="Rectángulo_29515-6" data-name="Rectángulo 29515" width="218.719" height="74.334" rx="9.04" transform="translate(18.635 16.182)" fill="#555" opacity="0.667"/>
          <rect id="Rectángulo_29516-6" data-name="Rectángulo 29516" width="216.057" height="72.022" rx="9.04" transform="translate(19.966 17.338)" fill="#494949" opacity="0.714"/>
          <rect id="Rectángulo_29517-6" data-name="Rectángulo 29517" width="213.395" height="69.71" rx="9.04" transform="translate(21.297 18.494)" fill="#3d3d3d" opacity="0.762"/>
          <rect id="Rectángulo_29518-6" data-name="Rectángulo 29518" width="210.733" height="67.399" rx="9.04" transform="translate(22.628 19.65)" fill="#313131" opacity="0.81"/>
          <rect id="Rectángulo_29519-6" data-name="Rectángulo 29519" width="208.071" height="65.087" rx="9.04" transform="translate(23.959 20.806)" fill="#242424" opacity="0.857"/>
          <rect id="Rectángulo_29520-6" data-name="Rectángulo 29520" width="205.409" height="62.775" rx="9.04" transform="translate(25.291 21.961)" fill="#181818" opacity="0.905"/>
          <rect id="Rectángulo_29521-6" data-name="Rectángulo 29521" width="202.746" height="60.463" rx="9.04" transform="translate(26.622 23.117)" fill="#0c0c0c" opacity="0.952"/>
          <rect id="Rectángulo_29522-6" data-name="Rectángulo 29522" width="200.084" height="58.152" rx="9.04" transform="translate(27.953 24.273)"/>
        </g>
        <rect id="Rectángulo_29523-6" data-name="Rectángulo 29523" width="234.484" height="88.024" rx="10" transform="translate(9.465 9.633)" fill="url(#linear-gradient)"/>
        <path id="Trazado_123976-6" data-name="Trazado 123976" d="M181.42,981.515H416.611v12.017l-101.8.738-13.665,11.517-14.7-11.767-105.028-.488Z" transform="translate(-171.956 -971.88)" fill="#d9a171"/>
        <path id="Trazado_123977-6" data-name="Trazado 123977" d="M277.9,988.778l-9.79,9.182a2.468,2.468,0,0,1-3.458.025L254.3,988.517" transform="translate(-137.118 -972.291)" fill="none" stroke="#12263f" stroke-linecap="round" stroke-miterlimit="10" stroke-width="0.806"/>
        <path id="Trazado_148699" data-name="Trazado 148699" d="M44.661,14.939a4.708,4.708,0,0,1-1.5,3.133,4.911,4.911,0,0,1-3.353,1.1,4.509,4.509,0,0,1-3.634-1.626A6.542,6.542,0,0,1,34.809,13.2v-1.23a7.291,7.291,0,0,1,.637-3.138,4.76,4.76,0,0,1,1.806-2.079,5.029,5.029,0,0,1,2.707-.725,4.624,4.624,0,0,1,3.27,1.138,4.765,4.765,0,0,1,1.433,3.151h-1.7a3.677,3.677,0,0,0-.954-2.222,2.885,2.885,0,0,0-2.052-.688,3.019,3.019,0,0,0-2.536,1.2,5.492,5.492,0,0,0-.918,3.4v1.24a5.645,5.645,0,0,0,.87,3.316A2.812,2.812,0,0,0,39.81,17.8a3.247,3.247,0,0,0,2.158-.637,3.536,3.536,0,0,0,1-2.219Zm1.617-.782a5.617,5.617,0,0,1,.549-2.514,4.1,4.1,0,0,1,1.529-1.723,4.163,4.163,0,0,1,2.237-.606,4.01,4.01,0,0,1,3.142,1.345,5.174,5.174,0,0,1,1.2,3.577v.114a5.666,5.666,0,0,1-.532,2.492,4.038,4.038,0,0,1-1.521,1.718,4.211,4.211,0,0,1-2.272.615,4,4,0,0,1-3.133-1.345,5.147,5.147,0,0,1-1.2-3.56Zm1.635.193a4.068,4.068,0,0,0,.734,2.54,2.487,2.487,0,0,0,3.933-.013,4.449,4.449,0,0,0,.729-2.72,4.061,4.061,0,0,0-.743-2.536,2.361,2.361,0,0,0-1.973-.971,2.335,2.335,0,0,0-1.942.958A4.416,4.416,0,0,0,47.913,14.351ZM58.5,9.49l.044,1.055a3.512,3.512,0,0,1,2.821-1.23,2.719,2.719,0,0,1,2.716,1.529A3.6,3.6,0,0,1,65.32,9.736a3.647,3.647,0,0,1,1.8-.422q3.129,0,3.182,3.313V19H68.673V12.725a2.184,2.184,0,0,0-.466-1.525,2.051,2.051,0,0,0-1.564-.505,2.156,2.156,0,0,0-1.5.541,2.193,2.193,0,0,0-.694,1.455V19H62.811V12.769a1.814,1.814,0,0,0-2.03-2.074,2.175,2.175,0,0,0-2.188,1.362V19H56.966V9.49Zm22.28,4.86a5.694,5.694,0,0,1-.993,3.5A3.183,3.183,0,0,1,77.1,19.176a3.488,3.488,0,0,1-2.725-1.1v4.579H72.751V9.49h1.485l.079,1.055a3.35,3.35,0,0,1,2.76-1.23,3.243,3.243,0,0,1,2.711,1.292,5.756,5.756,0,0,1,1,3.595Zm-1.626-.185a4.2,4.2,0,0,0-.686-2.54,2.208,2.208,0,0,0-1.881-.932A2.39,2.39,0,0,0,74.377,12v4.544a2.4,2.4,0,0,0,2.232,1.3,2.2,2.2,0,0,0,1.859-.927A4.587,4.587,0,0,0,79.158,14.166ZM88.721,19a3.416,3.416,0,0,1-.229-1,3.628,3.628,0,0,1-2.707,1.178,3.357,3.357,0,0,1-2.307-.8,2.573,2.573,0,0,1-.9-2.017,2.688,2.688,0,0,1,1.129-2.307,5.325,5.325,0,0,1,3.177-.822h1.582v-.747a1.826,1.826,0,0,0-.51-1.358,2.049,2.049,0,0,0-1.5-.505,2.371,2.371,0,0,0-1.459.439,1.3,1.3,0,0,0-.589,1.063H82.771a2.244,2.244,0,0,1,.505-1.375A3.449,3.449,0,0,1,84.647,9.7a4.613,4.613,0,0,1,1.9-.387,3.759,3.759,0,0,1,2.575.822,2.964,2.964,0,0,1,.967,2.263v4.377a5.351,5.351,0,0,0,.334,2.083V19Zm-2.7-1.239a2.858,2.858,0,0,0,1.45-.4,2.392,2.392,0,0,0,.993-1.028V14.386H87.191q-2.988,0-2.988,1.749a1.48,1.48,0,0,0,.51,1.2A1.959,1.959,0,0,0,86.022,17.761Zm11.215-6.812a4.873,4.873,0,0,0-.8-.062,2.143,2.143,0,0,0-2.171,1.362V19H92.641V9.49h1.582l.026,1.1a2.532,2.532,0,0,1,2.268-1.274,1.661,1.661,0,0,1,.721.123ZM104.251,19a3.416,3.416,0,0,1-.229-1,3.628,3.628,0,0,1-2.707,1.178,3.357,3.357,0,0,1-2.307-.8,2.573,2.573,0,0,1-.9-2.017,2.688,2.688,0,0,1,1.129-2.307,5.325,5.325,0,0,1,3.177-.822H104v-.747a1.826,1.826,0,0,0-.51-1.358,2.049,2.049,0,0,0-1.5-.505,2.371,2.371,0,0,0-1.459.439,1.3,1.3,0,0,0-.589,1.063H98.3a2.244,2.244,0,0,1,.505-1.375,3.449,3.449,0,0,1,1.371-1.05,4.613,4.613,0,0,1,1.9-.387,3.759,3.759,0,0,1,2.575.822,2.964,2.964,0,0,1,.967,2.263v4.377a5.351,5.351,0,0,0,.334,2.083V19Zm-2.7-1.239a2.858,2.858,0,0,0,1.45-.4A2.392,2.392,0,0,0,104,16.337V14.386h-1.274q-2.988,0-2.988,1.749a1.48,1.48,0,0,0,.51,1.2A1.959,1.959,0,0,0,101.553,17.761Zm14.669-3.41a5.654,5.654,0,0,1-1,3.5,3.2,3.2,0,0,1-2.689,1.323,3.315,3.315,0,0,1-2.786-1.274l-.079,1.1h-1.494V5.5H109.8v5.036a3.3,3.3,0,0,1,2.716-1.222,3.221,3.221,0,0,1,2.72,1.31,5.824,5.824,0,0,1,.989,3.586Zm-1.626-.185a4.394,4.394,0,0,0-.642-2.566,2.124,2.124,0,0,0-1.846-.905,2.387,2.387,0,0,0-2.312,1.494V16.3a2.454,2.454,0,0,0,2.329,1.494,2.112,2.112,0,0,0,1.819-.905A4.672,4.672,0,0,0,114.6,14.166ZM120.036,19H118.41V9.49h1.626ZM118.278,6.968a.971.971,0,0,1,.242-.668.907.907,0,0,1,.716-.272.922.922,0,0,1,.721.272.96.96,0,0,1,.246.668.929.929,0,0,1-.246.659.938.938,0,0,1-.721.264.924.924,0,0,1-.716-.264A.938.938,0,0,1,118.278,6.968ZM124.4,19h-1.626V5.5H124.4Zm4.368,0h-1.626V9.49h1.626ZM127.015,6.968a.971.971,0,0,1,.242-.668.907.907,0,0,1,.716-.272.922.922,0,0,1,.721.272.96.96,0,0,1,.246.668.929.929,0,0,1-.246.659.938.938,0,0,1-.721.264.924.924,0,0,1-.716-.264A.938.938,0,0,1,127.015,6.968Zm3.964,7.2a5.571,5.571,0,0,1,1.037-3.52,3.529,3.529,0,0,1,5.361-.189V5.5H139V19h-1.494l-.079-1.02a3.311,3.311,0,0,1-2.716,1.2,3.248,3.248,0,0,1-2.694-1.354,5.634,5.634,0,0,1-1.042-3.533Zm1.626.185a4.218,4.218,0,0,0,.668,2.531,2.159,2.159,0,0,0,1.846.914,2.372,2.372,0,0,0,2.259-1.389V12.039a2.39,2.39,0,0,0-2.241-1.345,2.17,2.17,0,0,0-1.863.923A4.644,4.644,0,0,0,132.6,14.351ZM147.4,19a3.416,3.416,0,0,1-.229-1,3.628,3.628,0,0,1-2.707,1.178,3.357,3.357,0,0,1-2.307-.8,2.573,2.573,0,0,1-.9-2.017,2.688,2.688,0,0,1,1.129-2.307,5.325,5.325,0,0,1,3.177-.822h1.582v-.747a1.826,1.826,0,0,0-.51-1.358,2.049,2.049,0,0,0-1.5-.505,2.371,2.371,0,0,0-1.459.439,1.3,1.3,0,0,0-.589,1.063h-1.635a2.244,2.244,0,0,1,.505-1.375,3.449,3.449,0,0,1,1.371-1.05,4.613,4.613,0,0,1,1.9-.387,3.759,3.759,0,0,1,2.575.822,2.964,2.964,0,0,1,.967,2.263v4.377a5.351,5.351,0,0,0,.334,2.083V19Zm-2.7-1.239a2.858,2.858,0,0,0,1.45-.4,2.392,2.392,0,0,0,.993-1.028V14.386h-1.274q-2.988,0-2.988,1.749a1.48,1.48,0,0,0,.51,1.2A1.959,1.959,0,0,0,144.7,17.761Zm6.223-3.595a5.571,5.571,0,0,1,1.037-3.52,3.529,3.529,0,0,1,5.361-.189V5.5h1.626V19h-1.494l-.079-1.02a3.311,3.311,0,0,1-2.716,1.2,3.248,3.248,0,0,1-2.694-1.354,5.634,5.634,0,0,1-1.042-3.533Zm1.626.185a4.218,4.218,0,0,0,.668,2.531,2.159,2.159,0,0,0,1.846.914,2.372,2.372,0,0,0,2.259-1.389V12.039a2.39,2.39,0,0,0-2.241-1.345,2.17,2.17,0,0,0-1.863.923A4.644,4.644,0,0,0,152.547,14.351Z" transform="translate(31.954 53.705)" fill="#12263f"/>
      </g>
    </g>
    <g id="Grupo_93222" data-name="Grupo 93222" transform="translate(-1002.487 12772.85)">
      <g id="Grupo_57070-7" data-name="Grupo 57070" transform="translate(-29.492 0)">
        <g id="Grupo_57069-7" data-name="Grupo 57069" opacity="0.7" style="mix-blend-mode: multiply;isolation: isolate">
          <rect id="Rectángulo_29501-7" data-name="Rectángulo 29501" width="255.99" height="106.698" rx="9.04" transform="translate(0 0)" fill="#fff" opacity="0"/>
          <rect id="Rectángulo_29502-7" data-name="Rectángulo 29502" width="253.328" height="104.387" rx="9.04" transform="translate(1.331 1.156)" fill="#f3f3f3" opacity="0.048"/>
          <rect id="Rectángulo_29503-7" data-name="Rectángulo 29503" width="250.665" height="102.075" rx="9.04" transform="translate(2.662 2.312)" fill="#e7e7e7" opacity="0.095"/>
          <rect id="Rectángulo_29504-7" data-name="Rectángulo 29504" width="248.003" height="99.763" rx="9.04" transform="translate(3.993 3.468)" fill="#dbdbdb" opacity="0.143"/>
          <rect id="Rectángulo_29505-7" data-name="Rectángulo 29505" width="245.341" height="97.451" rx="9.04" transform="translate(5.324 4.624)" fill="#cecece" opacity="0.19"/>
          <rect id="Rectángulo_29506-7" data-name="Rectángulo 29506" width="242.679" height="95.14" rx="9.04" transform="translate(6.655 5.779)" fill="#c2c2c2" opacity="0.238"/>
          <rect id="Rectángulo_29507-7" data-name="Rectángulo 29507" width="240.017" height="92.828" rx="9.04" transform="translate(7.986 6.935)" fill="#b6b6b6" opacity="0.286"/>
          <rect id="Rectángulo_29508-7" data-name="Rectángulo 29508" width="237.355" height="90.516" rx="9.04" transform="translate(9.318 8.091)" fill="#aaa" opacity="0.333"/>
          <rect id="Rectángulo_29509-7" data-name="Rectángulo 29509" width="234.692" height="88.204" rx="9.04" transform="translate(10.649 9.247)" fill="#9e9e9e" opacity="0.381"/>
          <rect id="Rectángulo_29510-7" data-name="Rectángulo 29510" width="232.03" height="85.893" rx="9.04" transform="translate(11.98 10.403)" fill="#929292" opacity="0.429"/>
          <rect id="Rectángulo_29511-7" data-name="Rectángulo 29511" width="229.368" height="83.581" rx="9.04" transform="translate(13.311 11.559)" fill="#868686" opacity="0.476"/>
          <rect id="Rectángulo_29512-7" data-name="Rectángulo 29512" width="226.706" height="81.269" rx="9.04" transform="translate(14.642 12.715)" fill="#797979" opacity="0.524"/>
          <rect id="Rectángulo_29513-7" data-name="Rectángulo 29513" width="224.044" height="78.957" rx="9.04" transform="translate(15.973 13.87)" fill="#6d6d6d" opacity="0.571"/>
          <rect id="Rectángulo_29514-7" data-name="Rectángulo 29514" width="221.382" height="76.646" rx="9.04" transform="translate(17.304 15.026)" fill="#616161" opacity="0.619"/>
          <rect id="Rectángulo_29515-7" data-name="Rectángulo 29515" width="218.719" height="74.334" rx="9.04" transform="translate(18.635 16.182)" fill="#555" opacity="0.667"/>
          <rect id="Rectángulo_29516-7" data-name="Rectángulo 29516" width="216.057" height="72.022" rx="9.04" transform="translate(19.966 17.338)" fill="#494949" opacity="0.714"/>
          <rect id="Rectángulo_29517-7" data-name="Rectángulo 29517" width="213.395" height="69.71" rx="9.04" transform="translate(21.297 18.494)" fill="#3d3d3d" opacity="0.762"/>
          <rect id="Rectángulo_29518-7" data-name="Rectángulo 29518" width="210.733" height="67.399" rx="9.04" transform="translate(22.628 19.65)" fill="#313131" opacity="0.81"/>
          <rect id="Rectángulo_29519-7" data-name="Rectángulo 29519" width="208.071" height="65.087" rx="9.04" transform="translate(23.959 20.806)" fill="#242424" opacity="0.857"/>
          <rect id="Rectángulo_29520-7" data-name="Rectángulo 29520" width="205.409" height="62.775" rx="9.04" transform="translate(25.291 21.961)" fill="#181818" opacity="0.905"/>
          <rect id="Rectángulo_29521-7" data-name="Rectángulo 29521" width="202.746" height="60.463" rx="9.04" transform="translate(26.622 23.117)" fill="#0c0c0c" opacity="0.952"/>
          <rect id="Rectángulo_29522-7" data-name="Rectángulo 29522" width="200.084" height="58.152" rx="9.04" transform="translate(27.953 24.273)"/>
        </g>
        <rect id="Rectángulo_29523-7" data-name="Rectángulo 29523" width="234.484" height="88.024" rx="10" transform="translate(9.465 9.633)" fill="url(#linear-gradient)"/>
        <path id="Trazado_123976-7" data-name="Trazado 123976" d="M181.42,981.515H416.611v12.017l-101.8.738-13.665,11.517-14.7-11.767-105.028-.488Z" transform="translate(-171.956 -971.88)" fill="#d9a171"/>
        <path id="Trazado_123977-7" data-name="Trazado 123977" d="M277.9,988.778l-9.79,9.182a2.468,2.468,0,0,1-3.458.025L254.3,988.517" transform="translate(-137.118 -972.291)" fill="none" stroke="#12263f" stroke-linecap="round" stroke-miterlimit="10" stroke-width="0.806"/>
        <path id="Trazado_148698" data-name="Trazado 148698" d="M45.76,16.759,49.416,6.2h1.846L46.516,19H45.021L40.284,6.2h1.837Zm10.907,2.417a4.155,4.155,0,0,1-3.146-1.27,4.714,4.714,0,0,1-1.213-3.4v-.3a5.707,5.707,0,0,1,.541-2.527,4.217,4.217,0,0,1,1.512-1.74,3.8,3.8,0,0,1,2.1-.628,3.562,3.562,0,0,1,2.883,1.222,5.289,5.289,0,0,1,1.028,3.5v.677H53.934a3.38,3.38,0,0,0,.822,2.272,2.583,2.583,0,0,0,2,.866,2.832,2.832,0,0,0,1.459-.352,3.666,3.666,0,0,0,1.046-.932l.993.773A3.993,3.993,0,0,1,56.667,19.176Zm-.2-8.525a2.169,2.169,0,0,0-1.652.716,3.482,3.482,0,0,0-.826,2.008H58.75v-.123a3.1,3.1,0,0,0-.668-1.92A2.042,2.042,0,0,0,56.465,10.65Zm10.389.3a4.873,4.873,0,0,0-.8-.062,2.143,2.143,0,0,0-2.171,1.362V19H62.257V9.49h1.582l.026,1.1a2.532,2.532,0,0,1,2.268-1.274,1.661,1.661,0,0,1,.721.123ZM70.114,19H68.488V9.49h1.626ZM68.356,6.968A.971.971,0,0,1,68.6,6.3a.907.907,0,0,1,.716-.272.922.922,0,0,1,.721.272.96.96,0,0,1,.246.668.929.929,0,0,1-.246.659.938.938,0,0,1-.721.264.924.924,0,0,1-.716-.264A.938.938,0,0,1,68.356,6.968ZM73.261,19V10.747h-1.5V9.49h1.5V8.682A3.3,3.3,0,0,1,74.17,6.2a3.528,3.528,0,0,1,2.571-.888,7.741,7.741,0,0,1,2.487.536l-.272,1.371a5.634,5.634,0,0,0-2.092-.439,2.047,2.047,0,0,0-1.507.47A1.938,1.938,0,0,0,74.9,8.664V9.49h1.942v1.257H74.9V19Zm6.776,0H78.4V9.49h1.635Zm6.46-1.151a2.342,2.342,0,0,0,1.521-.527A1.855,1.855,0,0,0,88.738,16h1.538a2.949,2.949,0,0,1-.562,1.556,3.7,3.7,0,0,1-1.384,1.178,3.994,3.994,0,0,1-1.833.439,3.918,3.918,0,0,1-3.089-1.3,5.163,5.163,0,0,1-1.147-3.546v-.272a5.725,5.725,0,0,1,.51-2.47,3.883,3.883,0,0,1,1.463-1.679,4.157,4.157,0,0,1,2.254-.6,3.814,3.814,0,0,1,2.659.958,3.424,3.424,0,0,1,1.129,2.487H88.738a2.241,2.241,0,0,0-.7-1.516,2.174,2.174,0,0,0-1.551-.593,2.276,2.276,0,0,0-1.92.892,4.19,4.19,0,0,0-.681,2.58v.308a4.106,4.106,0,0,0,.677,2.531A2.287,2.287,0,0,0,86.5,17.849ZM97.976,19a3.416,3.416,0,0,1-.229-1,3.628,3.628,0,0,1-2.707,1.178,3.357,3.357,0,0,1-2.307-.8,2.573,2.573,0,0,1-.9-2.017,2.688,2.688,0,0,1,1.129-2.307,5.325,5.325,0,0,1,3.177-.822h1.582v-.747a1.826,1.826,0,0,0-.51-1.358,2.049,2.049,0,0,0-1.5-.505,2.371,2.371,0,0,0-1.459.439,1.3,1.3,0,0,0-.589,1.063H92.025a2.244,2.244,0,0,1,.505-1.375A3.449,3.449,0,0,1,93.9,9.7a4.613,4.613,0,0,1,1.9-.387,3.759,3.759,0,0,1,2.575.822,2.964,2.964,0,0,1,.967,2.263v4.377a5.351,5.351,0,0,0,.334,2.083V19Zm-2.7-1.239a2.858,2.858,0,0,0,1.45-.4,2.392,2.392,0,0,0,.993-1.028V14.386H96.446q-2.988,0-2.988,1.749a1.48,1.48,0,0,0,.51,1.2A1.959,1.959,0,0,0,95.277,17.761Zm14.669-3.41a5.654,5.654,0,0,1-1,3.5,3.2,3.2,0,0,1-2.689,1.323,3.315,3.315,0,0,1-2.786-1.274L103.39,19H101.9V5.5h1.626v5.036a3.3,3.3,0,0,1,2.716-1.222,3.221,3.221,0,0,1,2.72,1.31,5.824,5.824,0,0,1,.989,3.586Zm-1.626-.185a4.394,4.394,0,0,0-.642-2.566,2.124,2.124,0,0,0-1.846-.905,2.387,2.387,0,0,0-2.312,1.494V16.3a2.454,2.454,0,0,0,2.329,1.494,2.112,2.112,0,0,0,1.819-.905A4.672,4.672,0,0,0,108.32,14.166ZM113.761,19h-1.626V9.49h1.626ZM112,6.968a.971.971,0,0,1,.242-.668.907.907,0,0,1,.716-.272.922.922,0,0,1,.721.272.96.96,0,0,1,.246.668.929.929,0,0,1-.246.659.938.938,0,0,1-.721.264.924.924,0,0,1-.716-.264A.938.938,0,0,1,112,6.968ZM118.129,19H116.5V5.5h1.626Zm4.368,0h-1.626V9.49H122.5ZM120.739,6.968a.971.971,0,0,1,.242-.668.907.907,0,0,1,.716-.272.922.922,0,0,1,.721.272.96.96,0,0,1,.246.668.929.929,0,0,1-.246.659.938.938,0,0,1-.721.264.924.924,0,0,1-.716-.264A.938.938,0,0,1,120.739,6.968Zm3.964,7.2a5.571,5.571,0,0,1,1.037-3.52,3.529,3.529,0,0,1,5.361-.189V5.5h1.626V19h-1.494l-.079-1.02a3.311,3.311,0,0,1-2.716,1.2,3.248,3.248,0,0,1-2.694-1.354,5.634,5.634,0,0,1-1.042-3.533Zm1.626.185A4.218,4.218,0,0,0,127,16.882a2.159,2.159,0,0,0,1.846.914,2.372,2.372,0,0,0,2.259-1.389V12.039a2.39,2.39,0,0,0-2.241-1.345,2.17,2.17,0,0,0-1.863.923A4.644,4.644,0,0,0,126.329,14.351ZM141.121,19a3.416,3.416,0,0,1-.229-1,3.628,3.628,0,0,1-2.707,1.178,3.357,3.357,0,0,1-2.307-.8,2.573,2.573,0,0,1-.9-2.017,2.688,2.688,0,0,1,1.129-2.307,5.325,5.325,0,0,1,3.177-.822h1.582v-.747a1.826,1.826,0,0,0-.51-1.358,2.049,2.049,0,0,0-1.5-.505,2.371,2.371,0,0,0-1.459.439,1.3,1.3,0,0,0-.589,1.063h-1.635a2.244,2.244,0,0,1,.505-1.375,3.449,3.449,0,0,1,1.371-1.05,4.613,4.613,0,0,1,1.9-.387,3.759,3.759,0,0,1,2.575.822,2.964,2.964,0,0,1,.967,2.263v4.377a5.351,5.351,0,0,0,.334,2.083V19Zm-2.7-1.239a2.858,2.858,0,0,0,1.45-.4,2.392,2.392,0,0,0,.993-1.028V14.386h-1.274q-2.988,0-2.988,1.749a1.48,1.48,0,0,0,.51,1.2A1.959,1.959,0,0,0,138.423,17.761Zm6.223-3.595a5.571,5.571,0,0,1,1.037-3.52,3.529,3.529,0,0,1,5.361-.189V5.5h1.626V19h-1.494l-.079-1.02a3.311,3.311,0,0,1-2.716,1.2,3.248,3.248,0,0,1-2.694-1.354,5.634,5.634,0,0,1-1.042-3.533Zm1.626.185a4.218,4.218,0,0,0,.668,2.531,2.159,2.159,0,0,0,1.846.914,2.372,2.372,0,0,0,2.259-1.389V12.039a2.39,2.39,0,0,0-2.241-1.345,2.17,2.17,0,0,0-1.863.923A4.644,4.644,0,0,0,146.271,14.351Z" transform="translate(31.954 53.705)" fill="#12263f"/>
      </g>
    </g>
    <g id="Grupo_93223" data-name="Grupo 93223" transform="translate(-1002.487 12899.85)">
      <g id="Grupo_57070-8" data-name="Grupo 57070" transform="translate(-29.492 0)">
        <g id="Grupo_57069-8" data-name="Grupo 57069" opacity="0.7" style="mix-blend-mode: multiply;isolation: isolate">
          <rect id="Rectángulo_29501-8" data-name="Rectángulo 29501" width="255.99" height="106.698" rx="9.04" transform="translate(0 0)" fill="#fff" opacity="0"/>
          <rect id="Rectángulo_29502-8" data-name="Rectángulo 29502" width="253.328" height="104.387" rx="9.04" transform="translate(1.331 1.156)" fill="#f3f3f3" opacity="0.048"/>
          <rect id="Rectángulo_29503-8" data-name="Rectángulo 29503" width="250.665" height="102.075" rx="9.04" transform="translate(2.662 2.312)" fill="#e7e7e7" opacity="0.095"/>
          <rect id="Rectángulo_29504-8" data-name="Rectángulo 29504" width="248.003" height="99.763" rx="9.04" transform="translate(3.993 3.468)" fill="#dbdbdb" opacity="0.143"/>
          <rect id="Rectángulo_29505-8" data-name="Rectángulo 29505" width="245.341" height="97.451" rx="9.04" transform="translate(5.324 4.624)" fill="#cecece" opacity="0.19"/>
          <rect id="Rectángulo_29506-8" data-name="Rectángulo 29506" width="242.679" height="95.14" rx="9.04" transform="translate(6.655 5.779)" fill="#c2c2c2" opacity="0.238"/>
          <rect id="Rectángulo_29507-8" data-name="Rectángulo 29507" width="240.017" height="92.828" rx="9.04" transform="translate(7.986 6.935)" fill="#b6b6b6" opacity="0.286"/>
          <rect id="Rectángulo_29508-8" data-name="Rectángulo 29508" width="237.355" height="90.516" rx="9.04" transform="translate(9.318 8.091)" fill="#aaa" opacity="0.333"/>
          <rect id="Rectángulo_29509-8" data-name="Rectángulo 29509" width="234.692" height="88.204" rx="9.04" transform="translate(10.649 9.247)" fill="#9e9e9e" opacity="0.381"/>
          <rect id="Rectángulo_29510-8" data-name="Rectángulo 29510" width="232.03" height="85.893" rx="9.04" transform="translate(11.98 10.403)" fill="#929292" opacity="0.429"/>
          <rect id="Rectángulo_29511-8" data-name="Rectángulo 29511" width="229.368" height="83.581" rx="9.04" transform="translate(13.311 11.559)" fill="#868686" opacity="0.476"/>
          <rect id="Rectángulo_29512-8" data-name="Rectángulo 29512" width="226.706" height="81.269" rx="9.04" transform="translate(14.642 12.715)" fill="#797979" opacity="0.524"/>
          <rect id="Rectángulo_29513-8" data-name="Rectángulo 29513" width="224.044" height="78.957" rx="9.04" transform="translate(15.973 13.87)" fill="#6d6d6d" opacity="0.571"/>
          <rect id="Rectángulo_29514-8" data-name="Rectángulo 29514" width="221.382" height="76.646" rx="9.04" transform="translate(17.304 15.026)" fill="#616161" opacity="0.619"/>
          <rect id="Rectángulo_29515-8" data-name="Rectángulo 29515" width="218.719" height="74.334" rx="9.04" transform="translate(18.635 16.182)" fill="#555" opacity="0.667"/>
          <rect id="Rectángulo_29516-8" data-name="Rectángulo 29516" width="216.057" height="72.022" rx="9.04" transform="translate(19.966 17.338)" fill="#494949" opacity="0.714"/>
          <rect id="Rectángulo_29517-8" data-name="Rectángulo 29517" width="213.395" height="69.71" rx="9.04" transform="translate(21.297 18.494)" fill="#3d3d3d" opacity="0.762"/>
          <rect id="Rectángulo_29518-8" data-name="Rectángulo 29518" width="210.733" height="67.399" rx="9.04" transform="translate(22.628 19.65)" fill="#313131" opacity="0.81"/>
          <rect id="Rectángulo_29519-8" data-name="Rectángulo 29519" width="208.071" height="65.087" rx="9.04" transform="translate(23.959 20.806)" fill="#242424" opacity="0.857"/>
          <rect id="Rectángulo_29520-8" data-name="Rectángulo 29520" width="205.409" height="62.775" rx="9.04" transform="translate(25.291 21.961)" fill="#181818" opacity="0.905"/>
          <rect id="Rectángulo_29521-8" data-name="Rectángulo 29521" width="202.746" height="60.463" rx="9.04" transform="translate(26.622 23.117)" fill="#0c0c0c" opacity="0.952"/>
          <rect id="Rectángulo_29522-8" data-name="Rectángulo 29522" width="200.084" height="58.152" rx="9.04" transform="translate(27.953 24.273)"/>
        </g>
        <rect id="Rectángulo_29523-8" data-name="Rectángulo 29523" width="234.484" height="88.024" rx="10" transform="translate(9.465 9.633)" fill="url(#linear-gradient)"/>
        <path id="Trazado_123976-8" data-name="Trazado 123976" d="M181.42,981.515H416.611v12.017l-101.8.738-13.665,11.517-14.7-11.767-105.028-.488Z" transform="translate(-171.956 -971.88)" fill="#d9a171"/>
        <path id="Trazado_123977-8" data-name="Trazado 123977" d="M277.9,988.778l-9.79,9.182a2.468,2.468,0,0,1-3.458.025L254.3,988.517" transform="translate(-137.118 -972.291)" fill="none" stroke="#12263f" stroke-linecap="round" stroke-miterlimit="10" stroke-width="0.806"/>
        <path id="Trazado_148700" data-name="Trazado 148700" d="M37.718,14.939a4.708,4.708,0,0,1-1.5,3.133,4.911,4.911,0,0,1-3.353,1.1,4.509,4.509,0,0,1-3.634-1.626A6.542,6.542,0,0,1,27.865,13.2v-1.23A7.291,7.291,0,0,1,28.5,8.831a4.76,4.76,0,0,1,1.806-2.079,5.029,5.029,0,0,1,2.707-.725,4.624,4.624,0,0,1,3.27,1.138,4.765,4.765,0,0,1,1.433,3.151h-1.7a3.677,3.677,0,0,0-.954-2.222,2.885,2.885,0,0,0-2.052-.688A3.019,3.019,0,0,0,30.48,8.6a5.492,5.492,0,0,0-.918,3.4v1.24a5.645,5.645,0,0,0,.87,3.316A2.812,2.812,0,0,0,32.866,17.8a3.247,3.247,0,0,0,2.158-.637,3.536,3.536,0,0,0,1-2.219Zm1.617-.782a5.617,5.617,0,0,1,.549-2.514,4.1,4.1,0,0,1,1.529-1.723,4.163,4.163,0,0,1,2.237-.606,4.01,4.01,0,0,1,3.142,1.345,5.174,5.174,0,0,1,1.2,3.577v.114a5.666,5.666,0,0,1-.532,2.492,4.038,4.038,0,0,1-1.521,1.718,4.211,4.211,0,0,1-2.272.615,4,4,0,0,1-3.133-1.345,5.147,5.147,0,0,1-1.2-3.56Zm1.635.193a4.068,4.068,0,0,0,.734,2.54,2.487,2.487,0,0,0,3.933-.013,4.449,4.449,0,0,0,.729-2.72,4.061,4.061,0,0,0-.743-2.536,2.361,2.361,0,0,0-1.973-.971,2.335,2.335,0,0,0-1.942.958A4.416,4.416,0,0,0,40.97,14.351ZM51.561,9.49l.044,1.055a3.512,3.512,0,0,1,2.821-1.23,2.719,2.719,0,0,1,2.716,1.529,3.6,3.6,0,0,1,1.235-1.107,3.647,3.647,0,0,1,1.8-.422q3.129,0,3.182,3.313V19H61.729V12.725a2.184,2.184,0,0,0-.466-1.525,2.051,2.051,0,0,0-1.564-.505,2.156,2.156,0,0,0-1.5.541,2.193,2.193,0,0,0-.694,1.455V19H55.867V12.769a1.814,1.814,0,0,0-2.03-2.074,2.175,2.175,0,0,0-2.188,1.362V19H50.022V9.49Zm22.28,4.86a5.694,5.694,0,0,1-.993,3.5,3.183,3.183,0,0,1-2.689,1.327,3.488,3.488,0,0,1-2.725-1.1v4.579H65.808V9.49h1.485l.079,1.055a3.35,3.35,0,0,1,2.76-1.23,3.243,3.243,0,0,1,2.711,1.292,5.756,5.756,0,0,1,1,3.595Zm-1.626-.185a4.2,4.2,0,0,0-.686-2.54,2.208,2.208,0,0,0-1.881-.932A2.39,2.39,0,0,0,67.434,12v4.544a2.4,2.4,0,0,0,2.232,1.3,2.2,2.2,0,0,0,1.859-.927A4.587,4.587,0,0,0,72.215,14.166ZM80.5,10.949a4.873,4.873,0,0,0-.8-.062,2.143,2.143,0,0,0-2.171,1.362V19H75.906V9.49h1.582l.026,1.1a2.532,2.532,0,0,1,2.268-1.274,1.661,1.661,0,0,1,.721.123Zm5.44,8.227a4.155,4.155,0,0,1-3.146-1.27,4.714,4.714,0,0,1-1.213-3.4v-.3a5.707,5.707,0,0,1,.541-2.527,4.217,4.217,0,0,1,1.512-1.74,3.8,3.8,0,0,1,2.1-.628,3.562,3.562,0,0,1,2.883,1.222,5.289,5.289,0,0,1,1.028,3.5v.677H83.21a3.38,3.38,0,0,0,.822,2.272,2.583,2.583,0,0,0,2,.866A2.832,2.832,0,0,0,87.49,17.5a3.666,3.666,0,0,0,1.046-.932l.993.773A3.993,3.993,0,0,1,85.943,19.176Zm-.2-8.525a2.169,2.169,0,0,0-1.652.716,3.482,3.482,0,0,0-.826,2.008h4.764v-.123a3.1,3.1,0,0,0-.668-1.92A2.042,2.042,0,0,0,85.741,10.65Zm7.33-1.16.053,1.2a3.465,3.465,0,0,1,2.848-1.371q3.015,0,3.041,3.4V19H97.387V12.707a2.189,2.189,0,0,0-.47-1.521,1.884,1.884,0,0,0-1.437-.492,2.347,2.347,0,0,0-1.389.422,2.865,2.865,0,0,0-.932,1.107V19H91.533V9.49ZM107,16.478a1.2,1.2,0,0,0-.5-1.024,4.78,4.78,0,0,0-1.731-.628,8.186,8.186,0,0,1-1.96-.633,2.788,2.788,0,0,1-1.072-.879,2.1,2.1,0,0,1-.347-1.213,2.467,2.467,0,0,1,.989-1.978,3.861,3.861,0,0,1,2.527-.809,3.974,3.974,0,0,1,2.624.835,2.652,2.652,0,0,1,1.006,2.136h-1.635a1.468,1.468,0,0,0-.567-1.151,2.124,2.124,0,0,0-1.428-.483,2.223,2.223,0,0,0-1.389.387,1.217,1.217,0,0,0-.5,1.011.986.986,0,0,0,.466.888,5.731,5.731,0,0,0,1.683.571,8.77,8.77,0,0,1,1.973.65,2.878,2.878,0,0,1,1.121.91,2.237,2.237,0,0,1,.365,1.3,2.434,2.434,0,0,1-1.02,2.043,4.277,4.277,0,0,1-2.646.769,4.789,4.789,0,0,1-2.021-.4,3.288,3.288,0,0,1-1.375-1.129,2.722,2.722,0,0,1-.5-1.569H102.7a1.683,1.683,0,0,0,.655,1.3,2.54,2.54,0,0,0,1.613.479,2.622,2.622,0,0,0,1.481-.374A1.148,1.148,0,0,0,107,16.478ZM112.513,19h-1.626V9.49h1.626ZM110.755,6.968A.971.971,0,0,1,111,6.3a.907.907,0,0,1,.716-.272.922.922,0,0,1,.721.272.96.96,0,0,1,.246.668.929.929,0,0,1-.246.659.938.938,0,0,1-.721.264A.924.924,0,0,1,111,7.627.938.938,0,0,1,110.755,6.968Zm12.41,7.383a5.654,5.654,0,0,1-1,3.5,3.2,3.2,0,0,1-2.689,1.323,3.315,3.315,0,0,1-2.786-1.274l-.079,1.1h-1.494V5.5h1.626v5.036a3.3,3.3,0,0,1,2.716-1.222,3.221,3.221,0,0,1,2.72,1.31,5.824,5.824,0,0,1,.989,3.586Zm-1.626-.185A4.394,4.394,0,0,0,120.9,11.6a2.124,2.124,0,0,0-1.846-.905,2.387,2.387,0,0,0-2.312,1.494V16.3a2.454,2.454,0,0,0,2.329,1.494,2.112,2.112,0,0,0,1.819-.905A4.672,4.672,0,0,0,121.539,14.166ZM126.979,19h-1.626V9.49h1.626ZM125.222,6.968a.971.971,0,0,1,.242-.668.907.907,0,0,1,.716-.272.922.922,0,0,1,.721.272.96.96,0,0,1,.246.668.929.929,0,0,1-.246.659.938.938,0,0,1-.721.264.924.924,0,0,1-.716-.264A.938.938,0,0,1,125.222,6.968ZM131.348,19h-1.626V5.5h1.626Zm4.368,0H134.09V9.49h1.626ZM133.958,6.968A.971.971,0,0,1,134.2,6.3a.907.907,0,0,1,.716-.272.922.922,0,0,1,.721.272.96.96,0,0,1,.246.668.929.929,0,0,1-.246.659.938.938,0,0,1-.721.264.924.924,0,0,1-.716-.264A.938.938,0,0,1,133.958,6.968Zm3.964,7.2a5.571,5.571,0,0,1,1.037-3.52,3.529,3.529,0,0,1,5.361-.189V5.5h1.626V19h-1.494l-.079-1.02a3.311,3.311,0,0,1-2.716,1.2,3.248,3.248,0,0,1-2.694-1.354,5.634,5.634,0,0,1-1.042-3.533Zm1.626.185a4.218,4.218,0,0,0,.668,2.531,2.159,2.159,0,0,0,1.846.914,2.372,2.372,0,0,0,2.259-1.389V12.039a2.39,2.39,0,0,0-2.241-1.345,2.17,2.17,0,0,0-1.863.923A4.644,4.644,0,0,0,139.548,14.351ZM154.34,19a3.416,3.416,0,0,1-.229-1,3.628,3.628,0,0,1-2.707,1.178,3.357,3.357,0,0,1-2.307-.8,2.573,2.573,0,0,1-.9-2.017,2.688,2.688,0,0,1,1.129-2.307,5.325,5.325,0,0,1,3.177-.822h1.582v-.747a1.826,1.826,0,0,0-.51-1.358,2.049,2.049,0,0,0-1.5-.505,2.371,2.371,0,0,0-1.459.439,1.3,1.3,0,0,0-.589,1.063H148.39a2.244,2.244,0,0,1,.505-1.375,3.449,3.449,0,0,1,1.371-1.05,4.613,4.613,0,0,1,1.9-.387,3.759,3.759,0,0,1,2.575.822,2.964,2.964,0,0,1,.967,2.263v4.377a5.351,5.351,0,0,0,.334,2.083V19Zm-2.7-1.239a2.858,2.858,0,0,0,1.45-.4,2.392,2.392,0,0,0,.993-1.028V14.386h-1.274q-2.988,0-2.988,1.749a1.48,1.48,0,0,0,.51,1.2A1.959,1.959,0,0,0,151.642,17.761Zm6.223-3.595a5.571,5.571,0,0,1,1.037-3.52,3.529,3.529,0,0,1,5.361-.189V5.5h1.626V19h-1.494l-.079-1.02a3.311,3.311,0,0,1-2.716,1.2,3.248,3.248,0,0,1-2.694-1.354,5.634,5.634,0,0,1-1.042-3.533Zm1.626.185a4.218,4.218,0,0,0,.668,2.531A2.159,2.159,0,0,0,162,17.8a2.372,2.372,0,0,0,2.259-1.389V12.039a2.39,2.39,0,0,0-2.241-1.345,2.17,2.17,0,0,0-1.863.923A4.644,4.644,0,0,0,159.49,14.351Z" transform="translate(31.954 53.705)" fill="#12263f"/>
      </g>
    </g>
  </g>
</svg>
