<svg xmlns="http://www.w3.org/2000/svg" width="497.348" height="431.352" viewBox="0 0 497.348 431.352">
  <g id="Capa_2" data-name="Capa 2" transform="translate(-30.807 -67.083)">
    <g id="Capa_1" data-name="Capa 1" transform="translate(31.307 67.631)">
      <rect id="Rectángulo_6607" data-name="Rectángulo 6607" width="94.312" height="124.54" transform="translate(150.537 17.511)" fill="none" stroke="#1a2e35" stroke-linecap="round" stroke-linejoin="round" stroke-width="1"/>
      <rect id="Rectángulo_6608" data-name="Rectángulo 6608" width="72.342" height="95.521" transform="translate(161.528 32.021)" fill="none" stroke="#1a2e35" stroke-linecap="round" stroke-linejoin="round" stroke-width="1"/>
      <rect id="Rectángulo_6609" data-name="Rectángulo 6609" width="94.312" height="124.54" transform="translate(9.068 81.595)" fill="none" stroke="#1a2e35" stroke-linecap="round" stroke-linejoin="round" stroke-width="1"/>
      <rect id="Rectángulo_6610" data-name="Rectángulo 6610" width="72.342" height="95.521" transform="translate(20.059 96.105)" fill="none" stroke="#1a2e35" stroke-linecap="round" stroke-linejoin="round" stroke-width="1"/>
      <circle id="Elipse_4087" data-name="Elipse 4087" cx="54.459" cy="54.459" r="54.459" transform="matrix(0.995, -0.1, 0.1, 0.995, 320.594, 10.856)" fill="none" stroke="#1a2e35" stroke-linecap="round" stroke-linejoin="round" stroke-width="1"/>
      <circle id="Elipse_4088" data-name="Elipse 4088" cx="45.183" cy="45.183" r="45.183" transform="translate(329.678 20.665) rotate(-8.616)" fill="none" stroke="#1a2e35" stroke-linecap="round" stroke-linejoin="round" stroke-width="1.001"/>
      <path id="Trazado_106783" data-name="Trazado 106783" d="M338.56,152.84h28.789v41.534" transform="translate(12.874 -93.215)" fill="none" stroke="#1a2e35" stroke-linecap="round" stroke-linejoin="round" stroke-width="1"/>
      <path id="Trazado_106784" data-name="Trazado 106784" d="M338.752,367.32l19.1,30.772a5.889,5.889,0,0,1-5.006,9H313.832a5.888,5.888,0,0,0,5.018-8.972l-18.5-30.107Z" transform="translate(4.883 -48.361)" fill="#fff" stroke="#1a2e35" stroke-linecap="round" stroke-linejoin="round" stroke-width="1"/>
      <path id="Trazado_106785" data-name="Trazado 106785" d="M338.752,367.32l-38.4.689,7.122,11.571h38.9Z" transform="translate(4.883 -48.361)" fill="#344154" stroke="#1a2e35" stroke-linecap="round" stroke-linejoin="round" stroke-width="1"/>
      <rect id="Rectángulo_6611" data-name="Rectángulo 6611" width="163.184" height="137.817" rx="2.91" transform="translate(401.238 325.815) rotate(180)" fill="#fff" stroke="#1a2e35" stroke-linecap="round" stroke-linejoin="round" stroke-width="1"/>
      <rect id="Rectángulo_6612" data-name="Rectángulo 6612" width="163.184" height="137.817" rx="2.91" transform="translate(395.059 325.815) rotate(180)" fill="#fff" stroke="#1a2e35" stroke-linecap="round" stroke-linejoin="round" stroke-width="1"/>
      <path id="Trazado_106786" data-name="Trazado 106786" d="M245.166,259H397.383a5.489,5.489,0,0,1,5.489,5.489V372.1H239.64V264.49A5.477,5.477,0,0,1,245.166,259Z" transform="translate(-7.814 -71.014)" fill="#344154" stroke="#1a2e35" stroke-linecap="round" stroke-linejoin="round" stroke-width="1"/>
      <rect id="Rectángulo_6613" data-name="Rectángulo 6613" width="149.473" height="100.104" transform="translate(388.203 293.58) rotate(180)" fill="#fff" stroke="#1a2e35" stroke-linecap="round" stroke-linejoin="round" stroke-width="1"/>
      <rect id="Rectángulo_6614" data-name="Rectángulo 6614" width="137.962" height="8.536" transform="translate(244.946 220.343)" fill="#d9a171"/>
      <path id="Trazado_106787" data-name="Trazado 106787" d="M250.86,347.079V297.65H387.48v51.231" transform="translate(-5.467 -62.931)" fill="none" stroke="#1a2e35" stroke-miterlimit="10" stroke-width="1"/>
      <line id="Línea_290" data-name="Línea 290" x2="135.725" transform="translate(245.84 251.345)" fill="none" stroke="#1a2e35" stroke-miterlimit="10" stroke-width="1"/>
      <line id="Línea_291" data-name="Línea 291" y2="51.594" transform="translate(344.263 234.356)" fill="none" stroke="#1a2e35" stroke-miterlimit="10" stroke-width="1"/>
      <rect id="Rectángulo_6615" data-name="Rectángulo 6615" width="4.752" height="1.584" transform="translate(167.078 351.836)" fill="#fff" stroke="#1a2e35" stroke-linecap="round" stroke-linejoin="round" stroke-width="1"/>
      <rect id="Rectángulo_6616" data-name="Rectángulo 6616" width="4.752" height="1.584" transform="translate(173.401 351.836)" fill="#fff" stroke="#1a2e35" stroke-linecap="round" stroke-linejoin="round" stroke-width="1"/>
      <rect id="Rectángulo_6617" data-name="Rectángulo 6617" width="4.752" height="1.584" transform="translate(179.737 351.836)" fill="#fff" stroke="#1a2e35" stroke-linecap="round" stroke-linejoin="round" stroke-width="1"/>
      <rect id="Rectángulo_6618" data-name="Rectángulo 6618" width="4.752" height="1.584" transform="translate(186.061 351.836)" fill="#fff" stroke="#1a2e35" stroke-linecap="round" stroke-linejoin="round" stroke-width="1"/>
      <rect id="Rectángulo_6619" data-name="Rectángulo 6619" width="4.752" height="1.584" transform="translate(192.397 351.836)" fill="#fff" stroke="#1a2e35" stroke-linecap="round" stroke-linejoin="round" stroke-width="1"/>
      <rect id="Rectángulo_6620" data-name="Rectángulo 6620" width="4.752" height="1.584" transform="translate(198.72 351.836)" fill="#fff" stroke="#1a2e35" stroke-linecap="round" stroke-linejoin="round" stroke-width="1"/>
      <rect id="Rectángulo_6621" data-name="Rectángulo 6621" width="4.752" height="1.584" transform="translate(205.056 351.836)" fill="#fff" stroke="#1a2e35" stroke-linecap="round" stroke-linejoin="round" stroke-width="1"/>
      <rect id="Rectángulo_6622" data-name="Rectángulo 6622" width="4.752" height="1.584" transform="translate(211.38 351.836)" fill="#fff" stroke="#1a2e35" stroke-linecap="round" stroke-linejoin="round" stroke-width="1"/>
      <rect id="Rectángulo_6623" data-name="Rectángulo 6623" width="4.752" height="1.584" transform="translate(217.716 351.836)" fill="#fff" stroke="#1a2e35" stroke-linecap="round" stroke-linejoin="round" stroke-width="1"/>
      <rect id="Rectángulo_6624" data-name="Rectángulo 6624" width="4.752" height="1.584" transform="translate(224.04 351.836)" fill="#fff" stroke="#1a2e35" stroke-linecap="round" stroke-linejoin="round" stroke-width="1"/>
      <rect id="Rectángulo_6625" data-name="Rectángulo 6625" width="4.752" height="1.584" transform="translate(230.376 351.836)" fill="#fff" stroke="#1a2e35" stroke-linecap="round" stroke-linejoin="round" stroke-width="1"/>
      <rect id="Rectángulo_6626" data-name="Rectángulo 6626" width="4.752" height="1.584" transform="translate(236.699 351.836)" fill="#fff" stroke="#1a2e35" stroke-linecap="round" stroke-linejoin="round" stroke-width="1"/>
      <rect id="Rectángulo_6627" data-name="Rectángulo 6627" width="4.752" height="1.584" transform="translate(243.035 351.836)" fill="#fff" stroke="#1a2e35" stroke-linecap="round" stroke-linejoin="round" stroke-width="1"/>
      <rect id="Rectángulo_6628" data-name="Rectángulo 6628" width="4.752" height="1.584" transform="translate(249.359 351.836)" fill="#fff" stroke="#1a2e35" stroke-linecap="round" stroke-linejoin="round" stroke-width="1"/>
      <rect id="Rectángulo_6629" data-name="Rectángulo 6629" width="4.752" height="1.584" transform="translate(255.695 351.836)" fill="#fff" stroke="#1a2e35" stroke-linecap="round" stroke-linejoin="round" stroke-width="1"/>
      <rect id="Rectángulo_6630" data-name="Rectángulo 6630" width="4.752" height="1.584" transform="translate(262.018 351.836)" fill="#fff" stroke="#1a2e35" stroke-linecap="round" stroke-linejoin="round" stroke-width="1"/>
      <rect id="Rectángulo_6631" data-name="Rectángulo 6631" width="4.752" height="1.584" transform="translate(268.354 351.836)" fill="#fff" stroke="#1a2e35" stroke-linecap="round" stroke-linejoin="round" stroke-width="1"/>
      <rect id="Rectángulo_6632" data-name="Rectángulo 6632" width="4.752" height="1.584" transform="translate(274.678 351.836)" fill="#fff" stroke="#1a2e35" stroke-linecap="round" stroke-linejoin="round" stroke-width="1"/>
      <rect id="Rectángulo_6633" data-name="Rectángulo 6633" width="4.752" height="1.584" transform="translate(281.014 351.836)" fill="#fff" stroke="#1a2e35" stroke-linecap="round" stroke-linejoin="round" stroke-width="1"/>
      <rect id="Rectángulo_6634" data-name="Rectángulo 6634" width="4.752" height="1.584" transform="translate(287.338 351.836)" fill="#fff" stroke="#1a2e35" stroke-linecap="round" stroke-linejoin="round" stroke-width="1"/>
      <rect id="Rectángulo_6635" data-name="Rectángulo 6635" width="4.752" height="1.584" transform="translate(293.673 351.836)" fill="#fff" stroke="#1a2e35" stroke-linecap="round" stroke-linejoin="round" stroke-width="1"/>
      <rect id="Rectángulo_6636" data-name="Rectángulo 6636" width="137.248" height="5.115" transform="translate(164.623 353.649)" fill="#fff" stroke="#1a2e35" stroke-linecap="round" stroke-linejoin="round" stroke-width="1"/>
      <rect id="Rectángulo_6637" data-name="Rectángulo 6637" width="33.481" height="5.115" transform="translate(268.391 353.649)" fill="#344154" stroke="#1a2e35" stroke-linecap="round" stroke-linejoin="round" stroke-width="1"/>
      <path id="Trazado_106788" data-name="Trazado 106788" d="M410.938,307.7V290.01h-12.7V307.7H389.79l14.8,25.634,14.8-25.634Z" transform="translate(23.587 -64.529)" fill="#344154"/>
      <line id="Línea_292" data-name="Línea 292" y1="1.814" transform="translate(336.743 178.325)" fill="none" stroke="#1a2e35" stroke-miterlimit="10" stroke-width="1"/>
      <path id="Trazado_106789" data-name="Trazado 106789" d="M326.41,251.73V238.974a8.464,8.464,0,0,1,8.464-8.464H409.84a8.464,8.464,0,0,1,8.464,8.464v55" transform="translate(10.333 -76.972)" fill="none" stroke="#1a2e35" stroke-miterlimit="10" stroke-width="1" stroke-dasharray="2.95 2.95"/>
      <line id="Línea_293" data-name="Línea 293" y2="1.814" transform="translate(428.637 218.831)" fill="none" stroke="#1a2e35" stroke-miterlimit="10" stroke-width="1"/>
      <path id="Trazado_106790" data-name="Trazado 106790" d="M367.467,334.51h76.78a7.557,7.557,0,0,1,7.557,7.557V403.14H359.91V342.067a7.557,7.557,0,0,1,7.557-7.557Z" transform="translate(17.339 -55.222)" fill="#344154" stroke="#1a2e35" stroke-miterlimit="10" stroke-width="1"/>
      <rect id="Rectángulo_6638" data-name="Rectángulo 6638" width="82.221" height="77.094" transform="translate(382.085 270.824)" fill="#fff" stroke="#1a2e35" stroke-miterlimit="10" stroke-width="1"/>
      <path id="Trazado_106791" data-name="Trazado 106791" d="M325.27,358.1H469.41a4.619,4.619,0,0,1,4.619,4.619v45.765H325.306V358.1Z" transform="translate(10.094 -50.289)" fill="#344154" stroke="#1a2e35" stroke-miterlimit="10" stroke-width="1"/>
      <path id="Trazado_106792" data-name="Trazado 106792" d="M309.964,358.1h142.98a2.89,2.89,0,0,1,2.89,2.89v47.495H307.11V360.99A2.89,2.89,0,0,1,310,358.1Z" transform="translate(6.296 -50.289)" fill="#636363" stroke="#1a2e35" stroke-miterlimit="10" stroke-width="1"/>
      <path id="Trazado_106793" data-name="Trazado 106793" d="M317.66,358.1H440.834v32.985a10.193,10.193,0,0,1-10.193,10.193H327.865a10.193,10.193,0,0,1-10.193-10.193V358.1Z" transform="translate(8.503 -50.289)" fill="#636363" stroke="#1a2e35" stroke-miterlimit="10" stroke-width="1"/>
      <rect id="Rectángulo_6639" data-name="Rectángulo 6639" width="77.578" height="50.384" transform="translate(348.967 307.811)" fill="#344154" stroke="#1a2e35" stroke-miterlimit="10" stroke-width="1"/>
      <path id="Trazado_106794" data-name="Trazado 106794" d="M348.868,379.78s2.648,12.539-3.3,17.17-35.657,3.627-35.657,3.627h97.069s11.886,2.974,11.233-18.488Z" transform="translate(6.882 -45.755)" fill="#fff" stroke="#1a2e35" stroke-miterlimit="10" stroke-width="1"/>
      <path id="Trazado_106795" data-name="Trazado 106795" d="M402.119,395.758H339.97l3.385-1.9h61.206Z" transform="translate(13.168 -42.81)" fill="#d9a171"/>
      <path id="Trazado_106796" data-name="Trazado 106796" d="M346.974,383.43c0,7.654-1.814,10.483-1.814,10.483h59.888s2.624-1.62,3.228-10.29" transform="translate(14.254 -44.992)" fill="none" stroke="#a3a3a3" stroke-miterlimit="10" stroke-width="1"/>
      <line id="Línea_294" data-name="Línea 294" x2="60.698" transform="translate(360.417 345.294)" fill="none" stroke="#a3a3a3" stroke-miterlimit="10" stroke-width="1"/>
      <line id="Línea_295" data-name="Línea 295" x2="60.904" transform="translate(361.022 341.461)" fill="none" stroke="#a3a3a3" stroke-miterlimit="10" stroke-width="1"/>
      <path id="Trazado_106797" data-name="Trazado 106797" d="M378.85,393.708s3.023-2.817,2.817-10.278" transform="translate(21.3 -44.992)" fill="none" stroke="#a3a3a3" stroke-miterlimit="10" stroke-width="1"/>
      <rect id="Rectángulo_6640" data-name="Rectángulo 6640" width="77.578" height="28.91" transform="translate(348.967 307.811)" fill="#636363" stroke="#1a2e35" stroke-miterlimit="10" stroke-width="1"/>
      <rect id="Rectángulo_6641" data-name="Rectángulo 6641" width="84.603" height="3.313" transform="translate(341.93 354.883)" fill="#344154" stroke="#1a2e35" stroke-miterlimit="10" stroke-width="1"/>
      <path id="Trazado_106798" data-name="Trazado 106798" d="M334.2,358.1h83.188v4a7.992,7.992,0,0,1-7.992,7.992h-67.2A7.992,7.992,0,0,1,334.2,362.1Z" transform="translate(11.962 -50.289)" fill="#344154" stroke="#1a2e35" stroke-miterlimit="10" stroke-width="1"/>
      <path id="Trazado_106799" data-name="Trazado 106799" d="M427.039,365.99a2.6,2.6,0,1,1-2.6-2.6A2.6,2.6,0,0,1,427.039,365.99Z" transform="translate(30.29 -49.183)" fill="#fff" stroke="#1a2e35" stroke-miterlimit="10" stroke-width="1"/>
      <path id="Trazado_106800" data-name="Trazado 106800" d="M427.039,375.575A2.6,2.6,0,1,1,424.452,373,2.6,2.6,0,0,1,427.039,375.575Z" transform="translate(30.29 -47.173)" fill="#fff" stroke="#1a2e35" stroke-miterlimit="10" stroke-width="1"/>
      <path id="Trazado_106801" data-name="Trazado 106801" d="M425.144,397.107h-1.572a2.164,2.164,0,0,1-2.152-2.164h0a2.152,2.152,0,0,1,2.152-2.152h1.572a2.152,2.152,0,0,1,2.152,2.152h0A2.164,2.164,0,0,1,425.144,397.107Z" transform="translate(30.202 -43.034)" fill="#344154" stroke="#1a2e35" stroke-miterlimit="10" stroke-width="1"/>
      <path id="Trazado_106802" data-name="Trazado 106802" d="M371.439,463.879V411.27H348.26v52.791" transform="translate(14.902 -39.169)" fill="#fff" stroke="#1a2e35" stroke-linecap="round" stroke-linejoin="round" stroke-width="1"/>
      <rect id="Rectángulo_6642" data-name="Rectángulo 6642" width="11.596" height="53.262" transform="translate(374.758 372.101)" fill="#344154" stroke="#1a2e35" stroke-linecap="round" stroke-linejoin="round" stroke-width="1"/>
      <path id="Trazado_106803" data-name="Trazado 106803" d="M457.3,463.879V411.27H434.12v52.791" transform="translate(32.858 -39.169)" fill="#fff" stroke="#1a2e35" stroke-linecap="round" stroke-linejoin="round" stroke-width="1"/>
      <rect id="Rectángulo_6643" data-name="Rectángulo 6643" width="11.596" height="53.262" transform="translate(478.574 372.101)" fill="#344154" stroke="#1a2e35" stroke-linecap="round" stroke-linejoin="round" stroke-width="1"/>
      <rect id="Rectángulo_6644" data-name="Rectángulo 6644" width="472.77" height="18.355" transform="translate(23.578 363.093)" fill="#fff" stroke="#1a2e35" stroke-miterlimit="10" stroke-width="1"/>
      <rect id="Rectángulo_6645" data-name="Rectángulo 6645" width="113.755" height="18.355" transform="translate(382.581 363.093)" fill="#344154" stroke="#1a2e35" stroke-miterlimit="10" stroke-width="1"/>
      <rect id="Rectángulo_6646" data-name="Rectángulo 6646" width="472.77" height="6.445" transform="translate(23.578 358.087)" fill="#fff" stroke="#1a2e35" stroke-miterlimit="10" stroke-width="1"/>
      <rect id="Rectángulo_6647" data-name="Rectángulo 6647" width="103.441" height="6.445" transform="translate(392.907 358.087)" fill="#344154" stroke="#1a2e35" stroke-miterlimit="10" stroke-width="1"/>
      <path id="Trazado_106804" data-name="Trazado 106804" d="M207.532,196.951s.858,7.46.29,10.326-3.736,4.595-3.446,6.6,7.46,12.333,4.014,15.719a16.928,16.928,0,0,1-6.312,4.3l-2.3,5.163s-13.772,8.9-19.213,11.185-.58,13.2-.58,13.2L165.926,260.3l-3.434,16.36s-10.616-10.338-24.968-14.921-19.793-4.026-19.793-4.026a90.066,90.066,0,0,0,5.163-17.726c2.007-10.616,3.156-34.146,3.156-35.863s9.177-28.124,17.218-33.287,40.736.58,57.954,4.837,9.758,16.638,9.758,16.638Z" transform="translate(-33.309 -89.879)" fill="#ffbf9d" stroke="#1a2e35" stroke-miterlimit="10" stroke-width="1"/>
      <path id="Trazado_106805" data-name="Trazado 106805" d="M192.954,200.061s-.871-3.156-4.595-2.007-4.595,3.156-3.156,3.156,4.837-1.717,5.743,0S192.664,202.068,192.954,200.061Z" transform="translate(-19.335 -83.812)" fill="#344154" stroke="#1a2e35" stroke-miterlimit="10" stroke-width="1"/>
      <path id="Trazado_106806" data-name="Trazado 106806" d="M187.678,208.21l-1.729.871s2.588,1.717,1.439,5.731-2.3,7.46-2.3,7.46" transform="translate(-19.222 -81.635)" fill="none" stroke="#1a2e35" stroke-miterlimit="10" stroke-width="1"/>
      <path id="Trazado_106807" data-name="Trazado 106807" d="M190.73,192.358s2.588,10.882,1.439,13.2-9.758,5.441-10.616,8.6-2.588,20.1-2.007,23.252,2.007,8.609,3.446,8.609,12.091-8.041,16.057-8.331,2.3,6.892.29,9.189-6.046,2.866-5.731,5.453,5.441,11.475-.29,19.213-12.345,6.046-19.225.58-8.041-14.63-6.046-19.793,5.163-18.657,5.441-24.678-1.137-13.772-5.441-12.091-.871,18.657-4.026,22.381-15.779,14.352-19.225,14.352-22.091-8.331-22.659-9.189,1.717-39.309-.58-54.508,3.156-26.117,20.664-31.28,49.345,4.3,49.345,4.3-3.156-5.163,3.736-7.46,23.239,4.014,24.388,14.34-4.837,10.616-4.014,14.062,11.765,10.048,6.046,15.5-14.884,2.043-14.884,2.043l-1.149-8.9S199.581,183.749,190.73,192.358Z" transform="translate(-32.612 -93.037)" fill="#344154" stroke="#1a2e35" stroke-miterlimit="10" stroke-width="1"/>
      <path id="Trazado_106808" data-name="Trazado 106808" d="M185.778,203.618l-27.254-.858s-5.743,1.427-6.312,4.583-1.209,10.616.568,10.882,1.717-1.693,1.717-4.292,0-6.6,2.3-8.029a16.844,16.844,0,0,1,6.312-1.729l23.239,2.3,21.764,1.717v-3.724Z" transform="translate(-26.222 -82.775)" fill="#5e5e5e" stroke="#1a2e35" stroke-miterlimit="10" stroke-width="1"/>
      <path id="Trazado_106809" data-name="Trazado 106809" d="M165.767,214.849s.859-9.177-3.724-11.765-7.751,4.595-8.041,10.882,4.026,14.062,9.468,12.623" transform="translate(-25.726 -82.821)" fill="#ffbf9d" stroke="#1a2e35" stroke-miterlimit="10" stroke-width="1"/>
      <path id="Trazado_106810" data-name="Trazado 106810" d="M199.323,207.26s.568,6.6-2.007,9.758a13.3,13.3,0,0,1-3.446,2.878" transform="translate(-17.385 -81.834)" fill="none" stroke="#1a2e35" stroke-miterlimit="10" stroke-width="1"/>
      <path id="Trazado_106811" data-name="Trazado 106811" d="M281.73,252.7l-11.547,40.373-8.657,23.07L252.155,341s-25.948-.351-37.483-2.515-32.272-9.54-32.272-9.54a209.059,209.059,0,0,0,23.578-52.6c4.9-17.121,8.694-30.857,8.694-30.857Z" transform="translate(-19.784 -73.839)" fill="#fff" stroke="#1a2e35" stroke-miterlimit="10" stroke-width="1"/>
      <path id="Trazado_106812" data-name="Trazado 106812" d="M218.874,266.75s-8.633,30.978-12.164,37.265l41.969,6.275s7.847-13.736,13.724-37.664Z" transform="translate(-14.7 -69.393)" fill="none" stroke="#a3a3a3" stroke-miterlimit="10" stroke-width="1"/>
      <line id="Línea_296" data-name="Línea 296" x2="43.541" y2="5.876" transform="translate(201.816 204.418)" fill="none" stroke="#a3a3a3" stroke-miterlimit="10" stroke-width="1"/>
      <line id="Línea_297" data-name="Línea 297" x2="41.824" y2="5.55" transform="translate(199.857 214.611)" fill="none" stroke="#a3a3a3" stroke-miterlimit="10" stroke-width="1"/>
      <line id="Línea_298" data-name="Línea 298" x2="41.969" y2="5.888" transform="translate(196.411 224.974)" fill="none" stroke="#a3a3a3" stroke-miterlimit="10" stroke-width="1"/>
      <path id="Trazado_106813" data-name="Trazado 106813" d="M234.4,292.85l-8.234,22.562,13.337,2.757,4.716-15.695" transform="translate(-10.631 -63.935)" fill="none" stroke="#a3a3a3" stroke-miterlimit="10" stroke-width="1"/>
      <line id="Línea_299" data-name="Línea 299" x2="17.254" y2="3.144" transform="translate(175.928 236.968)" fill="none" stroke="#a3a3a3" stroke-miterlimit="10" stroke-width="1"/>
      <line id="Línea_300" data-name="Línea 300" x2="17.266" y2="3.132" transform="translate(174.743 239.326)" fill="none" stroke="#a3a3a3" stroke-miterlimit="10" stroke-width="1"/>
      <line id="Línea_301" data-name="Línea 301" x2="17.266" y2="3.144" transform="translate(173.571 241.672)" fill="none" stroke="#a3a3a3" stroke-miterlimit="10" stroke-width="1"/>
      <path id="Trazado_106814" data-name="Trazado 106814" d="M211.509,247.82l-5.2,18.028L267,273.127l5.9-18.028Z" transform="translate(-14.784 -73.352)" fill="#d9a171"/>
      <path id="Trazado_106815" data-name="Trazado 106815" d="M256.927,258.969a4.546,4.546,0,1,1-4.51-3.978A4.268,4.268,0,0,1,256.927,258.969Z" transform="translate(-6.093 -71.854)" fill="#fff"/>
      <path id="Trazado_106827" data-name="Trazado 106827" d="M221.827,369.226s10.822-25.585,11.9-35.681,1.8-19.467,4.329-22.345,8.283-16.577,9.371-20.555,3.627-7.932,6.481-5.054,1.8,9.733.725,12.261-2.527,6.481-2.527,6.481l7.569-8.283,4.691-11.172s3.966,0,4.679,3.627,5.054,9.008,3.966,12.248a8.658,8.658,0,0,1-4.329,4.691s1.814,9.008,1.451,12.249a18.355,18.355,0,0,1-6.493,10.882c-3.627,2.878-13.7,12.248-13.7,12.248s5.054,38.209,0,56.95-14.05,24.509-20.555,25.585-19.1-13.3-19.1-13.3S223.629,403.106,221.827,369.226Z" transform="translate(-13.954 -65.659)" fill="#ffbf9d" stroke="#1a2e35" stroke-miterlimit="10" stroke-width="1"/>
      <line id="Línea_302" data-name="Línea 302" x1="5.755" y2="5.768" transform="translate(248.972 239.773)" fill="none" stroke="#1a2e35" stroke-miterlimit="10" stroke-width="1"/>
      <line id="Línea_303" data-name="Línea 303" y1="4.691" x2="5.768" transform="translate(245.719 225.711)" fill="none" stroke="#1a2e35" stroke-miterlimit="10" stroke-width="1"/>
      <path id="Trazado_106828" data-name="Trazado 106828" d="M117.409,236.417S127.481,234,142.8,240.455a70.311,70.311,0,0,1,28.608,21.353,63.033,63.033,0,0,1,8.065,14.51s-58.437-22.562-64.894-22.562H100.07S107.736,237.215,117.409,236.417Z" transform="translate(-37.002 -75.829)" fill="#aed3f2" stroke="#1a2e35" stroke-miterlimit="10" stroke-width="1"/>
      <path id="Trazado_106829" data-name="Trazado 106829" d="M325.39,464.262c-46.757-41.111-119.7-41.111-119.7-41.111L194.8,412.68H65.33v52.174" transform="translate(-44.267 -38.875)" fill="#fff" stroke="#1a2e35" stroke-miterlimit="10" stroke-width="1"/>
      <path id="Trazado_106830" data-name="Trazado 106830" d="M182.136,423.34s-6.046,26.2-17.726,37.483" transform="translate(-23.546 -36.645)" fill="none" stroke="#1a2e35" stroke-miterlimit="10" stroke-width="1"/>
      <path id="Trazado_106831" data-name="Trazado 106831" d="M179.763,421.68a59.151,59.151,0,0,1-21.353,25.392" transform="translate(-24.801 -36.992)" fill="none" stroke="#1a2e35" stroke-miterlimit="10" stroke-width="1"/>
      <path id="Trazado_106832" data-name="Trazado 106832" d="M110.961,246.777s8.863-2.019,26.19,1.608,42.731,18.536,54.012,23.372,20.156,5.248,22.163,12.5,24.183,75.764,33.856,83.43c14.268,11.305,27.81,31.135,12.091,47.567-9.262,9.673-21.764,10.483-27.4,8.464s-19.346-16.118-19.346-20.555v-5.647l-26.6-30.627s5.635,47.966,8.053,54.411,8.875,15.719,8.875,19.745-9.274,12.091-20.156,18.947-21.764,12.9-46.757,14.111-54.81-2.829-61.255-11.293-14.51-18.536-15.32-32.646-3.627-69.719-3.627-69.719,1.608-45.149,2.817-60.057,4.438-24.582,12.091-27.81S105.713,246.777,110.961,246.777Z" transform="translate(-46.273 -73.687)" fill="#6595bf" stroke="#1a2e35" stroke-miterlimit="10" stroke-width="1"/>
      <path id="Trazado_106833" data-name="Trazado 106833" d="M111.76,323.54a50.048,50.048,0,0,0,3.627,5.006" transform="translate(-34.557 -57.516)" fill="none" stroke="#1a2e35" stroke-miterlimit="10" stroke-width="1"/>
      <path id="Trazado_106834" data-name="Trazado 106834" d="M96.74,277s4.329,30.228,15.162,51.049" transform="translate(-37.698 -67.249)" fill="none" stroke="#1a2e35" stroke-miterlimit="10" stroke-width="1"/>
      <path id="Trazado_106835" data-name="Trazado 106835" d="M99.07,308.34s8.875,28.62,22.574,43.529" transform="translate(-37.211 -60.695)" fill="none" stroke="#1a2e35" stroke-miterlimit="10" stroke-width="1"/>
      <line id="Línea_304" data-name="Línea 304" x2="20.156" y2="24.183" transform="translate(119.498 269.01)" fill="none" stroke="#1a2e35" stroke-miterlimit="10" stroke-width="1"/>
      <line id="Línea_305" data-name="Línea 305" x2="3.144" y2="3.76" transform="translate(113.453 261.755)" fill="none" stroke="#1a2e35" stroke-miterlimit="10" stroke-width="1"/>
      <line id="Línea_306" data-name="Línea 306" x2="18.935" y2="13.699" transform="translate(114.263 272.638)" fill="none" stroke="#1a2e35" stroke-miterlimit="10" stroke-width="1"/>
      <path id="Trazado_106836" data-name="Trazado 106836" d="M167.947,285S149,303.137,149.411,324.091" transform="translate(-26.684 -65.576)" fill="none" stroke="#1a2e35" stroke-miterlimit="10" stroke-width="1"/>
      <path id="Trazado_106837" data-name="Trazado 106837" d="M220.064,346.68s6.856,13.3-3.216,22.974S185.41,376.5,185.41,376.5v5.635c0,4.438,13.7,18.536,19.346,20.555s18.137,1.209,27.4-8.464C247.91,377.8,234.331,357.949,220.064,346.68Z" transform="translate(-19.155 -52.677)" fill="#fff" stroke="#1a2e35" stroke-miterlimit="10" stroke-width="1"/>
      <line id="Línea_307" data-name="Línea 307" x1="21.764" y1="20.555" transform="translate(125.943 327.048)" fill="none" stroke="#1a2e35" stroke-miterlimit="10" stroke-width="1"/>
      <line id="Línea_308" data-name="Línea 308" x2="21.365" y2="15.32" transform="translate(113.852 315.356)" fill="none" stroke="#1a2e35" stroke-miterlimit="10" stroke-width="1"/>
      <path id="Trazado_106838" data-name="Trazado 106838" d="M116.75,382.18a40.3,40.3,0,0,0,4.837,3.023" transform="translate(-33.513 -45.253)" fill="none" stroke="#1a2e35" stroke-miterlimit="10" stroke-width="1"/>
      <path id="Trazado_106839" data-name="Trazado 106839" d="M78.07,353s24.267,18.935,39.7,30.228" transform="translate(-41.603 -51.355)" fill="none" stroke="#1a2e35" stroke-miterlimit="10" stroke-width="1"/>
      <path id="Trazado_106840" data-name="Trazado 106840" d="M82.07,363s17.738,12.9,20.555,14.51" transform="translate(-40.766 -49.264)" fill="none" stroke="#1a2e35" stroke-miterlimit="10" stroke-width="1"/>
      <path id="Trazado_106841" data-name="Trazado 106841" d="M67.094,370.51h95.521A11.184,11.184,0,0,1,173.8,381.694v81.616a8.162,8.162,0,0,1-8.162,8.161H64.072a8.162,8.162,0,0,1-8.162-8.161V381.694A11.184,11.184,0,0,1,67.094,370.51Z" transform="translate(-46.237 -47.694)" fill="#344154" stroke="#1a2e35" stroke-miterlimit="10" stroke-width="1"/>
      <path id="Trazado_106842" data-name="Trazado 106842" d="M59.094,370.51h95.521A11.184,11.184,0,0,1,165.8,381.694v81.616a8.162,8.162,0,0,1-8.162,8.161H56.072a8.162,8.162,0,0,1-8.162-8.161V381.694A11.184,11.184,0,0,1,59.094,370.51Z" transform="translate(-47.91 -47.694)" fill="#636363" stroke="#1a2e35" stroke-miterlimit="10" stroke-width="1"/>
      <path id="Trazado_106843" data-name="Trazado 106843" d="M67.665,474V395.627a3.627,3.627,0,0,0-7.255,0v78.364Z" transform="translate(-45.296 -43.199)" fill="#344154"/>
      <path id="Trazado_106844" data-name="Trazado 106844" d="M122.165,474V395.627a3.627,3.627,0,0,0-7.255,0v78.364Z" transform="translate(-33.898 -43.199)" fill="#344154"/>
      <text id="Patrimonio_y_obligaciones" data-name="Patrimonio y obligaciones" transform="translate(264.387 209.907)" fill="#12263f" font-size="10" font-family="Roboto-Regular, Roboto"><tspan x="0" y="0">Patrimonio y obligaciones</tspan></text>
    </g>
  </g>
</svg>
