<svg xmlns="http://www.w3.org/2000/svg" xmlns:xlink="http://www.w3.org/1999/xlink" width="255.99" height="285.021" viewBox="0 0 255.99 285.021">
  <defs>
    <linearGradient id="linear-gradient" x1="0.5" x2="0.5" y2="1" gradientUnits="objectBoundingBox">
      <stop offset="0" stop-color="#fff"/>
      <stop offset="1" stop-color="#f8f8f8"/>
    </linearGradient>
  </defs>
  <g id="Grupo_93211" data-name="Grupo 93211" transform="translate(29.492)">
    <g id="Grupo_57070" data-name="Grupo 57070" transform="translate(-29.492 0)">
      <g id="Grupo_57069" data-name="Grupo 57069" transform="translate(0 0)" opacity="0.7" style="mix-blend-mode: multiply;isolation: isolate">
        <rect id="Rectángulo_29501" data-name="Rectángulo 29501" width="255.99" height="285.021" rx="9.04" fill="#fff" opacity="0"/>
        <rect id="Rectángulo_29502" data-name="Rectángulo 29502" width="253.328" height="282.709" rx="9.04" transform="translate(1.331 1.156)" fill="#f3f3f3" opacity="0.048"/>
        <rect id="Rectángulo_29503" data-name="Rectángulo 29503" width="250.665" height="280.397" rx="9.04" transform="translate(2.662 2.312)" fill="#e7e7e7" opacity="0.095"/>
        <rect id="Rectángulo_29504" data-name="Rectángulo 29504" width="248.003" height="278.085" rx="9.04" transform="translate(3.993 3.468)" fill="#dbdbdb" opacity="0.143"/>
        <rect id="Rectángulo_29505" data-name="Rectángulo 29505" width="245.341" height="275.774" rx="9.04" transform="translate(5.324 4.624)" fill="#cecece" opacity="0.19"/>
        <rect id="Rectángulo_29506" data-name="Rectángulo 29506" width="242.679" height="273.462" rx="9.04" transform="translate(6.655 5.779)" fill="#c2c2c2" opacity="0.238"/>
        <rect id="Rectángulo_29507" data-name="Rectángulo 29507" width="240.017" height="271.15" rx="9.04" transform="translate(7.986 6.935)" fill="#b6b6b6" opacity="0.286"/>
        <rect id="Rectángulo_29508" data-name="Rectángulo 29508" width="237.355" height="268.838" rx="9.04" transform="translate(9.318 8.091)" fill="#aaa" opacity="0.333"/>
        <rect id="Rectángulo_29509" data-name="Rectángulo 29509" width="234.692" height="266.527" rx="9.04" transform="translate(10.649 9.247)" fill="#9e9e9e" opacity="0.381"/>
        <rect id="Rectángulo_29510" data-name="Rectángulo 29510" width="232.03" height="264.215" rx="9.04" transform="translate(11.98 10.403)" fill="#929292" opacity="0.429"/>
        <rect id="Rectángulo_29511" data-name="Rectángulo 29511" width="229.368" height="261.903" rx="9.04" transform="translate(13.311 11.559)" fill="#868686" opacity="0.476"/>
        <rect id="Rectángulo_29512" data-name="Rectángulo 29512" width="226.706" height="259.591" rx="9.04" transform="translate(14.642 12.715)" fill="#797979" opacity="0.524"/>
        <rect id="Rectángulo_29513" data-name="Rectángulo 29513" width="224.044" height="257.28" rx="9.04" transform="translate(15.973 13.87)" fill="#6d6d6d" opacity="0.571"/>
        <rect id="Rectángulo_29514" data-name="Rectángulo 29514" width="221.382" height="254.968" rx="9.04" transform="translate(17.304 15.026)" fill="#616161" opacity="0.619"/>
        <rect id="Rectángulo_29515" data-name="Rectángulo 29515" width="218.719" height="252.656" rx="9.04" transform="translate(18.635 16.182)" fill="#555" opacity="0.667"/>
        <rect id="Rectángulo_29516" data-name="Rectángulo 29516" width="216.057" height="250.344" rx="9.04" transform="translate(19.966 17.338)" fill="#494949" opacity="0.714"/>
        <rect id="Rectángulo_29517" data-name="Rectángulo 29517" width="213.395" height="248.033" rx="9.04" transform="translate(21.297 18.494)" fill="#3d3d3d" opacity="0.762"/>
        <rect id="Rectángulo_29518" data-name="Rectángulo 29518" width="210.733" height="245.721" rx="9.04" transform="translate(22.628 19.65)" fill="#313131" opacity="0.81"/>
        <rect id="Rectángulo_29519" data-name="Rectángulo 29519" width="208.071" height="243.409" rx="9.04" transform="translate(23.959 20.806)" fill="#242424" opacity="0.857"/>
        <rect id="Rectángulo_29520" data-name="Rectángulo 29520" width="205.409" height="241.097" rx="9.04" transform="translate(25.291 21.961)" fill="#181818" opacity="0.905"/>
        <rect id="Rectángulo_29521" data-name="Rectángulo 29521" width="202.746" height="238.786" rx="9.04" transform="translate(26.622 23.117)" fill="#0c0c0c" opacity="0.952"/>
        <rect id="Rectángulo_29522" data-name="Rectángulo 29522" width="200.084" height="236.474" rx="9.04" transform="translate(27.953 24.273)"/>
      </g>
      <rect id="Rectángulo_29523" data-name="Rectángulo 29523" width="234.484" height="266.346" rx="10" transform="translate(9.465 9.634)" fill="url(#linear-gradient)"/>
      <path id="Trazado_123976" data-name="Trazado 123976" d="M181.42,981.515H416.611v12.017l-101.8.738-13.665,11.517-14.7-11.767-105.028-.488Z" transform="translate(-171.956 -971.88)" fill="#d9a171"/>
      <path id="Trazado_123977" data-name="Trazado 123977" d="M277.9,988.778l-9.79,9.182a2.468,2.468,0,0,1-3.458.025L254.3,988.517" transform="translate(-137.118 -972.291)" fill="none" stroke="#12263f" stroke-linecap="round" stroke-miterlimit="10" stroke-width="0.806"/>
      <path id="Trazado_148688" data-name="Trazado 148688" d="M27,13.085H21.458V17.62H27.9V19h-8.13V6.2h8.042v1.38H21.458v4.122H27Zm8.279,3.393a1.2,1.2,0,0,0-.5-1.024,4.78,4.78,0,0,0-1.731-.628,8.186,8.186,0,0,1-1.96-.633,2.788,2.788,0,0,1-1.072-.879,2.1,2.1,0,0,1-.347-1.213,2.467,2.467,0,0,1,.989-1.978,3.861,3.861,0,0,1,2.527-.809,3.974,3.974,0,0,1,2.624.835,2.652,2.652,0,0,1,1.006,2.136H35.187a1.468,1.468,0,0,0-.567-1.151,2.124,2.124,0,0,0-1.428-.483,2.223,2.223,0,0,0-1.389.387,1.217,1.217,0,0,0-.5,1.011.986.986,0,0,0,.466.888,5.731,5.731,0,0,0,1.683.571,8.77,8.77,0,0,1,1.973.65,2.878,2.878,0,0,1,1.121.91,2.237,2.237,0,0,1,.365,1.3,2.434,2.434,0,0,1-1.02,2.043,4.277,4.277,0,0,1-2.646.769,4.789,4.789,0,0,1-2.021-.4,3.288,3.288,0,0,1-1.375-1.129,2.722,2.722,0,0,1-.5-1.569h1.626a1.683,1.683,0,0,0,.655,1.3,2.54,2.54,0,0,0,1.613.479,2.622,2.622,0,0,0,1.481-.374A1.148,1.148,0,0,0,35.283,16.478Zm5.95-9.29v2.3h1.775v1.257H41.233v5.9a1.32,1.32,0,0,0,.237.858,1,1,0,0,0,.809.286,3.937,3.937,0,0,0,.773-.105V19a4.742,4.742,0,0,1-1.248.175,2.025,2.025,0,0,1-1.644-.659,2.832,2.832,0,0,1-.554-1.872v-5.9H37.876V9.49h1.731v-2.3ZM50.778,19a3.416,3.416,0,0,1-.229-1,3.628,3.628,0,0,1-2.707,1.178,3.357,3.357,0,0,1-2.307-.8,2.573,2.573,0,0,1-.9-2.017,2.688,2.688,0,0,1,1.129-2.307,5.325,5.325,0,0,1,3.177-.822h1.582v-.747a1.826,1.826,0,0,0-.51-1.358,2.049,2.049,0,0,0-1.5-.505,2.371,2.371,0,0,0-1.459.439,1.3,1.3,0,0,0-.589,1.063H44.828a2.244,2.244,0,0,1,.505-1.375A3.449,3.449,0,0,1,46.7,9.7a4.613,4.613,0,0,1,1.9-.387,3.759,3.759,0,0,1,2.575.822,2.964,2.964,0,0,1,.967,2.263v4.377a5.351,5.351,0,0,0,.334,2.083V19Zm-2.7-1.239a2.858,2.858,0,0,0,1.45-.4,2.392,2.392,0,0,0,.993-1.028V14.386H49.249q-2.988,0-2.988,1.749a1.48,1.48,0,0,0,.51,1.2A1.959,1.959,0,0,0,48.08,17.761ZM54.3,14.166a5.571,5.571,0,0,1,1.037-3.52,3.529,3.529,0,0,1,5.361-.189V5.5h1.626V19H60.833l-.079-1.02a3.311,3.311,0,0,1-2.716,1.2,3.248,3.248,0,0,1-2.694-1.354A5.634,5.634,0,0,1,54.3,14.289Zm1.626.185a4.218,4.218,0,0,0,.668,2.531,2.159,2.159,0,0,0,1.846.914A2.372,2.372,0,0,0,60.7,16.407V12.039a2.39,2.39,0,0,0-2.241-1.345,2.17,2.17,0,0,0-1.863.923A4.644,4.644,0,0,0,55.929,14.351Zm8.49-.193a5.617,5.617,0,0,1,.549-2.514A4.1,4.1,0,0,1,66.5,9.921a4.163,4.163,0,0,1,2.237-.606,4.01,4.01,0,0,1,3.142,1.345,5.174,5.174,0,0,1,1.2,3.577v.114a5.666,5.666,0,0,1-.532,2.492,4.038,4.038,0,0,1-1.521,1.718,4.211,4.211,0,0,1-2.272.615,4,4,0,0,1-3.133-1.345,5.147,5.147,0,0,1-1.2-3.56Zm1.635.193a4.068,4.068,0,0,0,.734,2.54,2.487,2.487,0,0,0,3.933-.013,4.449,4.449,0,0,0,.729-2.72,4.061,4.061,0,0,0-.743-2.536,2.361,2.361,0,0,0-1.973-.971,2.335,2.335,0,0,0-1.942.958A4.416,4.416,0,0,0,66.054,14.351Zm13.122-.185a5.571,5.571,0,0,1,1.037-3.52,3.529,3.529,0,0,1,5.361-.189V5.5H87.2V19H85.706l-.079-1.02a3.311,3.311,0,0,1-2.716,1.2,3.248,3.248,0,0,1-2.694-1.354,5.634,5.634,0,0,1-1.042-3.533Zm1.626.185a4.218,4.218,0,0,0,.668,2.531,2.159,2.159,0,0,0,1.846.914,2.372,2.372,0,0,0,2.259-1.389V12.039a2.39,2.39,0,0,0-2.241-1.345,2.17,2.17,0,0,0-1.863.923A4.644,4.644,0,0,0,80.8,14.351Zm12.867,4.825a4.155,4.155,0,0,1-3.146-1.27,4.714,4.714,0,0,1-1.213-3.4v-.3a5.707,5.707,0,0,1,.541-2.527,4.217,4.217,0,0,1,1.512-1.74,3.8,3.8,0,0,1,2.1-.628,3.562,3.562,0,0,1,2.883,1.222,5.289,5.289,0,0,1,1.028,3.5v.677H90.936a3.38,3.38,0,0,0,.822,2.272,2.583,2.583,0,0,0,2,.866,2.832,2.832,0,0,0,1.459-.352,3.666,3.666,0,0,0,1.046-.932l.993.773A3.993,3.993,0,0,1,93.669,19.176Zm-.2-8.525a2.169,2.169,0,0,0-1.652.716,3.482,3.482,0,0,0-.826,2.008h4.764v-.123a3.1,3.1,0,0,0-.668-1.92A2.042,2.042,0,0,0,93.467,10.65Zm15.785,5.827a1.2,1.2,0,0,0-.5-1.024,4.78,4.78,0,0,0-1.731-.628,8.186,8.186,0,0,1-1.96-.633,2.788,2.788,0,0,1-1.072-.879,2.1,2.1,0,0,1-.347-1.213,2.467,2.467,0,0,1,.989-1.978,3.861,3.861,0,0,1,2.527-.809,3.974,3.974,0,0,1,2.624.835,2.652,2.652,0,0,1,1.006,2.136h-1.635a1.468,1.468,0,0,0-.567-1.151,2.124,2.124,0,0,0-1.428-.483,2.223,2.223,0,0,0-1.389.387,1.217,1.217,0,0,0-.5,1.011.986.986,0,0,0,.466.888,5.731,5.731,0,0,0,1.683.571,8.77,8.77,0,0,1,1.973.65,2.878,2.878,0,0,1,1.121.91,2.237,2.237,0,0,1,.365,1.3,2.434,2.434,0,0,1-1.02,2.043,4.277,4.277,0,0,1-2.646.769,4.789,4.789,0,0,1-2.021-.4,3.288,3.288,0,0,1-1.375-1.129,2.722,2.722,0,0,1-.5-1.569h1.626a1.683,1.683,0,0,0,.655,1.3,2.54,2.54,0,0,0,1.613.479,2.622,2.622,0,0,0,1.481-.374A1.148,1.148,0,0,0,109.252,16.478ZM114.763,19h-1.626V9.49h1.626ZM113,6.968a.971.971,0,0,1,.242-.668.907.907,0,0,1,.716-.272.922.922,0,0,1,.721.272.96.96,0,0,1,.246.668.929.929,0,0,1-.246.659.938.938,0,0,1-.721.264.924.924,0,0,1-.716-.264A.938.938,0,0,1,113,6.968Zm6.565.22v2.3h1.775v1.257H119.57v5.9a1.32,1.32,0,0,0,.237.858,1,1,0,0,0,.809.286,3.937,3.937,0,0,0,.773-.105V19a4.742,4.742,0,0,1-1.248.175,2.025,2.025,0,0,1-1.644-.659,2.832,2.832,0,0,1-.554-1.872v-5.9h-1.731V9.49h1.731v-2.3Zm9.545,10.872a3.454,3.454,0,0,1-2.786,1.116,2.956,2.956,0,0,1-2.316-.883,3.823,3.823,0,0,1-.8-2.615V9.49h1.626v6.144q0,2.162,1.758,2.162a2.434,2.434,0,0,0,2.479-1.389V9.49H130.7V19H129.15Zm9.923.94a3.416,3.416,0,0,1-.229-1,3.628,3.628,0,0,1-2.707,1.178,3.357,3.357,0,0,1-2.307-.8,2.573,2.573,0,0,1-.9-2.017,2.688,2.688,0,0,1,1.129-2.307,5.325,5.325,0,0,1,3.177-.822h1.582v-.747a1.826,1.826,0,0,0-.51-1.358,2.049,2.049,0,0,0-1.5-.505,2.371,2.371,0,0,0-1.459.439,1.3,1.3,0,0,0-.589,1.063h-1.635a2.244,2.244,0,0,1,.505-1.375,3.449,3.449,0,0,1,1.371-1.05,4.613,4.613,0,0,1,1.9-.387,3.759,3.759,0,0,1,2.575.822,2.964,2.964,0,0,1,.967,2.263v4.377a5.351,5.351,0,0,0,.334,2.083V19Zm-2.7-1.239a2.858,2.858,0,0,0,1.45-.4,2.392,2.392,0,0,0,.993-1.028V14.386h-1.274q-2.988,0-2.988,1.749a1.48,1.48,0,0,0,.51,1.2A1.959,1.959,0,0,0,136.34,17.761Zm10.433.088a2.342,2.342,0,0,0,1.521-.527A1.855,1.855,0,0,0,149.014,16h1.538a2.949,2.949,0,0,1-.562,1.556,3.7,3.7,0,0,1-1.384,1.178,3.994,3.994,0,0,1-1.833.439,3.918,3.918,0,0,1-3.089-1.3,5.163,5.163,0,0,1-1.147-3.546v-.272a5.725,5.725,0,0,1,.51-2.47,3.883,3.883,0,0,1,1.463-1.679,4.157,4.157,0,0,1,2.254-.6,3.814,3.814,0,0,1,2.659.958,3.424,3.424,0,0,1,1.129,2.487h-1.538a2.241,2.241,0,0,0-.7-1.516,2.174,2.174,0,0,0-1.551-.593,2.276,2.276,0,0,0-1.92.892,4.19,4.19,0,0,0-.681,2.58v.308a4.106,4.106,0,0,0,.677,2.531A2.287,2.287,0,0,0,146.772,17.849ZM154.146,19h-1.626V9.49h1.626ZM152.389,6.968a.971.971,0,0,1,.242-.668.907.907,0,0,1,.716-.272.922.922,0,0,1,.721.272.96.96,0,0,1,.246.668.929.929,0,0,1-.246.659.938.938,0,0,1-.721.264.924.924,0,0,1-.716-.264A.938.938,0,0,1,152.389,6.968Zm3.929,7.189a5.617,5.617,0,0,1,.549-2.514A4.1,4.1,0,0,1,158.4,9.921a4.163,4.163,0,0,1,2.237-.606,4.01,4.01,0,0,1,3.142,1.345,5.174,5.174,0,0,1,1.2,3.577v.114a5.666,5.666,0,0,1-.532,2.492,4.038,4.038,0,0,1-1.521,1.718,4.211,4.211,0,0,1-2.272.615,4,4,0,0,1-3.133-1.345,5.147,5.147,0,0,1-1.2-3.56Zm1.635.193a4.068,4.068,0,0,0,.734,2.54,2.487,2.487,0,0,0,3.933-.013,4.449,4.449,0,0,0,.729-2.72,4.061,4.061,0,0,0-.743-2.536,2.361,2.361,0,0,0-1.973-.971,2.335,2.335,0,0,0-1.942.958A4.416,4.416,0,0,0,157.952,14.351ZM161.371,5.5h1.969l-2.355,2.584-1.31,0Zm7.181,3.99.053,1.2a3.465,3.465,0,0,1,2.848-1.371q3.015,0,3.041,3.4V19h-1.626V12.707a2.189,2.189,0,0,0-.47-1.521,1.884,1.884,0,0,0-1.437-.492,2.347,2.347,0,0,0-1.389.422,2.865,2.865,0,0,0-.932,1.107V19h-1.626V9.49ZM59.537,43V34.747h-1.5V33.49h1.5v-.809a3.3,3.3,0,0,1,.91-2.479,3.528,3.528,0,0,1,2.571-.888,7.741,7.741,0,0,1,2.487.536l-.272,1.371a5.633,5.633,0,0,0-2.092-.439,2.047,2.047,0,0,0-1.507.47,1.938,1.938,0,0,0-.461,1.411v.826h1.942v1.257H61.171V43Zm6.776,0H64.678V33.49h1.635ZM70.5,33.49l.053,1.2A3.465,3.465,0,0,1,73.4,33.314q3.015,0,3.041,3.4V43H74.812V36.707a2.189,2.189,0,0,0-.47-1.521,1.884,1.884,0,0,0-1.437-.492,2.347,2.347,0,0,0-1.389.422,2.865,2.865,0,0,0-.932,1.107V43H68.958V33.49ZM84.761,43a3.416,3.416,0,0,1-.229-1,3.628,3.628,0,0,1-2.707,1.178,3.357,3.357,0,0,1-2.307-.8,2.573,2.573,0,0,1-.9-2.017,2.688,2.688,0,0,1,1.129-2.307,5.325,5.325,0,0,1,3.177-.822h1.582v-.747A1.826,1.826,0,0,0,84,35.129a2.049,2.049,0,0,0-1.5-.505,2.371,2.371,0,0,0-1.459.439,1.3,1.3,0,0,0-.589,1.063H78.811a2.244,2.244,0,0,1,.505-1.375,3.449,3.449,0,0,1,1.371-1.05,4.613,4.613,0,0,1,1.9-.387,3.759,3.759,0,0,1,2.575.822,2.964,2.964,0,0,1,.967,2.263v4.377a5.351,5.351,0,0,0,.334,2.083V43Zm-2.7-1.239a2.858,2.858,0,0,0,1.45-.4,2.392,2.392,0,0,0,.993-1.028V38.386H83.232q-2.988,0-2.988,1.749a1.48,1.48,0,0,0,.51,1.2A1.959,1.959,0,0,0,82.063,41.761Zm8.156-8.271.053,1.2a3.465,3.465,0,0,1,2.848-1.371q3.015,0,3.041,3.4V43H94.535V36.707a2.189,2.189,0,0,0-.47-1.521,1.884,1.884,0,0,0-1.437-.492,2.347,2.347,0,0,0-1.389.422,2.865,2.865,0,0,0-.932,1.107V43H88.681V33.49Zm12.208,8.358a2.342,2.342,0,0,0,1.521-.527A1.855,1.855,0,0,0,104.668,40h1.538a2.949,2.949,0,0,1-.562,1.556,3.7,3.7,0,0,1-1.384,1.178,3.994,3.994,0,0,1-1.833.439,3.918,3.918,0,0,1-3.089-1.3,5.163,5.163,0,0,1-1.147-3.546v-.272a5.725,5.725,0,0,1,.51-2.47,3.883,3.883,0,0,1,1.463-1.679,4.157,4.157,0,0,1,2.254-.6,3.814,3.814,0,0,1,2.659.958,3.424,3.424,0,0,1,1.129,2.487h-1.538a2.241,2.241,0,0,0-.7-1.516,2.174,2.174,0,0,0-1.551-.593,2.276,2.276,0,0,0-1.92.892,4.19,4.19,0,0,0-.681,2.58v.308a4.106,4.106,0,0,0,.677,2.531A2.287,2.287,0,0,0,102.427,41.849ZM109.8,43h-1.626V33.49H109.8Zm-1.758-12.032a.971.971,0,0,1,.242-.668.907.907,0,0,1,.716-.272.922.922,0,0,1,.721.272.96.96,0,0,1,.246.668.929.929,0,0,1-.246.659.938.938,0,0,1-.721.264.924.924,0,0,1-.716-.264A.938.938,0,0,1,108.043,30.968Zm8.306,12.208a4.155,4.155,0,0,1-3.146-1.27,4.714,4.714,0,0,1-1.213-3.4v-.3a5.707,5.707,0,0,1,.541-2.527,4.217,4.217,0,0,1,1.512-1.74,3.8,3.8,0,0,1,2.1-.628,3.562,3.562,0,0,1,2.883,1.222,5.289,5.289,0,0,1,1.028,3.5v.677h-6.442a3.38,3.38,0,0,0,.822,2.272,2.583,2.583,0,0,0,2,.866A2.832,2.832,0,0,0,117.9,41.5a3.666,3.666,0,0,0,1.046-.932l.993.773A3.993,3.993,0,0,1,116.349,43.176Zm-.2-8.525a2.169,2.169,0,0,0-1.652.716,3.482,3.482,0,0,0-.826,2.008h4.764v-.123a3.1,3.1,0,0,0-.668-1.92A2.042,2.042,0,0,0,116.147,34.65Zm10.389.3a4.873,4.873,0,0,0-.8-.062,2.143,2.143,0,0,0-2.171,1.362V43h-1.626V33.49h1.582l.026,1.1a2.532,2.532,0,0,1,2.268-1.274,1.661,1.661,0,0,1,.721.123ZM133.549,43a3.416,3.416,0,0,1-.229-1,3.628,3.628,0,0,1-2.707,1.178,3.357,3.357,0,0,1-2.307-.8,2.573,2.573,0,0,1-.9-2.017,2.688,2.688,0,0,1,1.129-2.307,5.325,5.325,0,0,1,3.177-.822h1.582v-.747a1.826,1.826,0,0,0-.51-1.358,2.049,2.049,0,0,0-1.5-.505,2.371,2.371,0,0,0-1.459.439,1.3,1.3,0,0,0-.589,1.063H127.6a2.244,2.244,0,0,1,.505-1.375,3.449,3.449,0,0,1,1.371-1.05,4.613,4.613,0,0,1,1.9-.387,3.759,3.759,0,0,1,2.575.822,2.964,2.964,0,0,1,.967,2.263v4.377a5.351,5.351,0,0,0,.334,2.083V43Zm-2.7-1.239a2.858,2.858,0,0,0,1.45-.4,2.392,2.392,0,0,0,.993-1.028V38.386H132.02q-2.988,0-2.988,1.749a1.48,1.48,0,0,0,.51,1.2A1.959,1.959,0,0,0,130.851,41.761Z" transform="translate(30.954 173.705)" fill="#12263f"/>
    </g>
    <line id="Línea_1692" data-name="Línea 1692" x2="49.703" transform="translate(72.469 262.762)" fill="none" stroke="#d9a171" stroke-linecap="round" stroke-miterlimit="10" stroke-width="0.806"/>
    <g id="UAojFh.tif" transform="translate(1826.555 -252.547)">
      <g id="Grupo_77965" data-name="Grupo 77965" transform="translate(-1787.316 320.636)">
        <path id="Trazado_138572" data-name="Trazado 138572" d="M-1757.58,349.2c-.146-.307-.243-.489-.322-.679q-2.557-6.172-5.12-12.341a2.866,2.866,0,0,0-.666-1.025c-.938-.838-2.03-.6-2.958.615q-10,13.083-19.982,26.174a4.669,4.669,0,0,0-.484.747,1.8,1.8,0,0,0,1.55,2.639c.989.066,1.495-.591,2.006-1.263q8.679-11.394,17.36-22.787c.241-.316.489-.626.811-1.036.346.82.637,1.5.918,2.179q2.259,5.476,4.516,10.953c.522,1.261,1.275,1.862,2.251,1.548a3.232,3.232,0,0,0,1.539-1.207q8.454-12.375,16.84-24.8c.189-.279.39-.549.663-.933.245.954.445,1.728.643,2.5q1.079,4.228,2.158,8.456a1.97,1.97,0,0,0,1.59,1.713c1.521.239,2.454-.983,2.022-2.679q-1.965-7.724-3.959-15.441c-.456-1.766-1.222-2.191-3.02-1.734q-5.136,1.305-10.272,2.609c-1.783.455-3.571.9-5.343,1.391a1.842,1.842,0,0,0-1.224,2.892,1.888,1.888,0,0,0,2.214.689c3.88-1,7.766-1.982,11.651-2.966.207-.052.423-.069.808-.13Z" transform="translate(1787.316 -320.636)" fill="#344154"/>
        <path id="Trazado_138573" data-name="Trazado 138573" d="M-1531.718,491.9c-1.278,4.049-4.665,5.628-8.226,6.962a41.808,41.808,0,0,1-10.961,2.275,60.151,60.151,0,0,1-19.668-1.214,22.71,22.71,0,0,1-9.438-4.207,6.6,6.6,0,0,1-2.573-5.34q.018-16.515,0-33.029c-.005-2.839,1.491-4.733,3.712-6.2a27.018,27.018,0,0,1,9.776-3.684,62.017,62.017,0,0,1,18.9-.789,41.053,41.053,0,0,1,11.747,2.766c2.322.981,4.5,2.208,5.867,4.452a16.225,16.225,0,0,1,.866,1.931Zm-25.449-41.908a47.38,47.38,0,0,0-15.354,2.267,21.128,21.128,0,0,0-4.9,2.454c-1.916,1.314-1.91,2.836.016,4.122a22.193,22.193,0,0,0,5.076,2.506,46.729,46.729,0,0,0,15.455,2.189,48.416,48.416,0,0,0,15.015-2.182,14.5,14.5,0,0,0,5.279-2.7c1.514-1.34,1.5-2.462-.015-3.788a14.546,14.546,0,0,0-5.119-2.625A49.557,49.557,0,0,0-1557.167,449.992Zm21.71,12.614c-6.873,3.764-14.24,4.638-21.761,4.627s-14.844-.976-21.649-4.725c0,1.755.036,3.361-.012,4.965a3.129,3.129,0,0,0,1.231,2.635,15.656,15.656,0,0,0,5.3,2.664,45.655,45.655,0,0,0,11.91,2.066,49.685,49.685,0,0,0,19.009-2.267,21.769,21.769,0,0,0,4.768-2.533,2.979,2.979,0,0,0,1.146-1.98C-1535.35,466.288-1535.458,464.493-1535.458,462.606Zm-43.41,11.289c0,1.764.026,3.42-.01,5.074a2.83,2.83,0,0,0,1.046,2.354,10.906,10.906,0,0,0,1.735,1.243,30.084,30.084,0,0,0,9.992,3.086,57.272,57.272,0,0,0,14.854.385,39.649,39.649,0,0,0,9.741-2.034,29.611,29.611,0,0,0,4.858-2.557,2.381,2.381,0,0,0,1.089-1.548c.132-1.931.051-3.876.051-5.87-6.81,3.743-14.158,4.613-21.64,4.611C-1564.665,478.637-1572.027,477.686-1578.868,473.9Zm43.4,11.492c-6.863,3.812-14.226,4.653-21.7,4.651-7.505,0-14.876-.952-21.7-4.741a35.777,35.777,0,0,1-.028,4.076c-.256,2.18.81,3.49,2.557,4.458.467.259.941.51,1.429.726a41.123,41.123,0,0,0,15.009,3.088,50.236,50.236,0,0,0,18.138-2.156,13.166,13.166,0,0,0,5.177-2.692,3.188,3.188,0,0,0,1.068-1.765C-1535.376,489.2-1535.467,487.359-1535.467,485.387Z" transform="translate(1619.221 -423.807)" fill="#344154"/>
        <path id="Trazado_138574" data-name="Trazado 138574" d="M-1757.58,349.2l16.191-23.909c-.385.06-.6.077-.808.13-3.885.984-7.771,1.962-11.651,2.966a1.888,1.888,0,0,1-2.214-.689,1.842,1.842,0,0,1,1.224-2.892c1.772-.495,3.56-.936,5.343-1.391q5.135-1.31,10.272-2.609c1.8-.457,2.564-.033,3.02,1.734q1.993,7.717,3.959,15.441c.432,1.7-.5,2.918-2.022,2.679a1.97,1.97,0,0,1-1.59-1.713q-1.086-4.226-2.158-8.456c-.2-.775-.4-1.55-.643-2.5-.273.383-.474.654-.663.933q-8.411,12.4-16.84,24.8a3.232,3.232,0,0,1-1.539,1.207c-.977.314-1.729-.286-2.251-1.548q-2.265-5.474-4.516-10.953c-.281-.681-.572-1.359-.918-2.179-.321.41-.57.72-.811,1.036q-8.681,11.393-17.36,22.787c-.512.672-1.017,1.329-2.006,1.263a1.8,1.8,0,0,1-1.55-2.639,4.669,4.669,0,0,1,.484-.747q9.987-13.09,19.982-26.174c.929-1.215,2.02-1.453,2.958-.615a2.866,2.866,0,0,1,.666,1.025q2.576,6.164,5.12,12.341C-1757.823,348.711-1757.726,348.894-1757.58,349.2Z" transform="translate(1787.316 -320.636)" fill="#344154"/>
        <path id="Trazado_138575" data-name="Trazado 138575" d="M-1461.069,476.772a8.765,8.765,0,0,1-2.123.157,7.853,7.853,0,0,1-1.893-.87v2.357c.592.13,1.23.232,1.845.414a8.01,8.01,0,0,1,1.818.688,1.781,1.781,0,0,1,.229,3.106,15.689,15.689,0,0,1-3.333,1.33,2.55,2.55,0,0,1-.566.068l-.178,1.148h-1.581c.2-1-.325-1.211-1.16-1.288a4.318,4.318,0,0,1-3.126-1.506,5.767,5.767,0,0,1-.5-.89,3.886,3.886,0,0,1,4.576,1.183l.125-.257v-2.485a13.249,13.249,0,0,1-1.681-.419,7,7,0,0,1-1.886-.947,1.7,1.7,0,0,1,.119-2.869,11.774,11.774,0,0,1,2.548-.961c.386-.129.838.042,1.078-.567.068-.174,1.033-.06,1.566.038.344.063.633.385.976.507a15.636,15.636,0,0,1,2.02.646,6.834,6.834,0,0,1,1.311,1.181Zm-4.016,3.518v2.24c1.184-.129,1.8-.544,1.8-1.167S-1463.934,480.36-1465.086,480.291Zm-1.812-4.3c-.679.193-1.458.324-1.357,1.06.059.432.743.779,1.146,1.164l.21-.192Z" transform="translate(1528.123 -446.617)" fill="#344154"/>
      </g>
    </g>
  </g>
</svg>
