<svg xmlns="http://www.w3.org/2000/svg" xmlns:xlink="http://www.w3.org/1999/xlink" width="255.99" height="285.021" viewBox="0 0 255.99 285.021">
  <defs>
    <linearGradient id="linear-gradient" x1="0.5" x2="0.5" y2="1" gradientUnits="objectBoundingBox">
      <stop offset="0" stop-color="#fff"/>
      <stop offset="1" stop-color="#f8f8f8"/>
    </linearGradient>
  </defs>
  <g id="Grupo_93215" data-name="Grupo 93215" transform="translate(29.492)">
    <g id="Grupo_57070" data-name="Grupo 57070" transform="translate(-29.492 0)">
      <g id="Grupo_57069" data-name="Grupo 57069" transform="translate(0 0)" opacity="0.7" style="mix-blend-mode: multiply;isolation: isolate">
        <rect id="Rectángulo_29501" data-name="Rectángulo 29501" width="255.99" height="285.021" rx="9.04" fill="#fff" opacity="0"/>
        <rect id="Rectángulo_29502" data-name="Rectángulo 29502" width="253.328" height="282.709" rx="9.04" transform="translate(1.331 1.156)" fill="#f3f3f3" opacity="0.048"/>
        <rect id="Rectángulo_29503" data-name="Rectángulo 29503" width="250.665" height="280.397" rx="9.04" transform="translate(2.662 2.312)" fill="#e7e7e7" opacity="0.095"/>
        <rect id="Rectángulo_29504" data-name="Rectángulo 29504" width="248.003" height="278.085" rx="9.04" transform="translate(3.993 3.468)" fill="#dbdbdb" opacity="0.143"/>
        <rect id="Rectángulo_29505" data-name="Rectángulo 29505" width="245.341" height="275.774" rx="9.04" transform="translate(5.324 4.624)" fill="#cecece" opacity="0.19"/>
        <rect id="Rectángulo_29506" data-name="Rectángulo 29506" width="242.679" height="273.462" rx="9.04" transform="translate(6.655 5.779)" fill="#c2c2c2" opacity="0.238"/>
        <rect id="Rectángulo_29507" data-name="Rectángulo 29507" width="240.017" height="271.15" rx="9.04" transform="translate(7.986 6.935)" fill="#b6b6b6" opacity="0.286"/>
        <rect id="Rectángulo_29508" data-name="Rectángulo 29508" width="237.355" height="268.838" rx="9.04" transform="translate(9.318 8.091)" fill="#aaa" opacity="0.333"/>
        <rect id="Rectángulo_29509" data-name="Rectángulo 29509" width="234.692" height="266.527" rx="9.04" transform="translate(10.649 9.247)" fill="#9e9e9e" opacity="0.381"/>
        <rect id="Rectángulo_29510" data-name="Rectángulo 29510" width="232.03" height="264.215" rx="9.04" transform="translate(11.98 10.403)" fill="#929292" opacity="0.429"/>
        <rect id="Rectángulo_29511" data-name="Rectángulo 29511" width="229.368" height="261.903" rx="9.04" transform="translate(13.311 11.559)" fill="#868686" opacity="0.476"/>
        <rect id="Rectángulo_29512" data-name="Rectángulo 29512" width="226.706" height="259.591" rx="9.04" transform="translate(14.642 12.715)" fill="#797979" opacity="0.524"/>
        <rect id="Rectángulo_29513" data-name="Rectángulo 29513" width="224.044" height="257.28" rx="9.04" transform="translate(15.973 13.87)" fill="#6d6d6d" opacity="0.571"/>
        <rect id="Rectángulo_29514" data-name="Rectángulo 29514" width="221.382" height="254.968" rx="9.04" transform="translate(17.304 15.026)" fill="#616161" opacity="0.619"/>
        <rect id="Rectángulo_29515" data-name="Rectángulo 29515" width="218.719" height="252.656" rx="9.04" transform="translate(18.635 16.182)" fill="#555" opacity="0.667"/>
        <rect id="Rectángulo_29516" data-name="Rectángulo 29516" width="216.057" height="250.344" rx="9.04" transform="translate(19.966 17.338)" fill="#494949" opacity="0.714"/>
        <rect id="Rectángulo_29517" data-name="Rectángulo 29517" width="213.395" height="248.033" rx="9.04" transform="translate(21.297 18.494)" fill="#3d3d3d" opacity="0.762"/>
        <rect id="Rectángulo_29518" data-name="Rectángulo 29518" width="210.733" height="245.721" rx="9.04" transform="translate(22.628 19.65)" fill="#313131" opacity="0.81"/>
        <rect id="Rectángulo_29519" data-name="Rectángulo 29519" width="208.071" height="243.409" rx="9.04" transform="translate(23.959 20.806)" fill="#242424" opacity="0.857"/>
        <rect id="Rectángulo_29520" data-name="Rectángulo 29520" width="205.409" height="241.097" rx="9.04" transform="translate(25.291 21.961)" fill="#181818" opacity="0.905"/>
        <rect id="Rectángulo_29521" data-name="Rectángulo 29521" width="202.746" height="238.786" rx="9.04" transform="translate(26.622 23.117)" fill="#0c0c0c" opacity="0.952"/>
        <rect id="Rectángulo_29522" data-name="Rectángulo 29522" width="200.084" height="236.474" rx="9.04" transform="translate(27.953 24.273)"/>
      </g>
      <rect id="Rectángulo_29523" data-name="Rectángulo 29523" width="234.484" height="266.346" rx="10" transform="translate(9.465 9.634)" fill="url(#linear-gradient)"/>
      <path id="Trazado_123976" data-name="Trazado 123976" d="M181.42,981.515H416.611v12.017l-101.8.738-13.665,11.517-14.7-11.767-105.028-.488Z" transform="translate(-171.956 -971.88)" fill="#d9a171"/>
      <path id="Trazado_123977" data-name="Trazado 123977" d="M277.9,988.778l-9.79,9.182a2.468,2.468,0,0,1-3.458.025L254.3,988.517" transform="translate(-137.118 -972.291)" fill="none" stroke="#12263f" stroke-linecap="round" stroke-miterlimit="10" stroke-width="0.806"/>
      <path id="Trazado_148692" data-name="Trazado 148692" d="M28.665,19h-1.7L20.526,9.139V19h-1.7V6.2h1.7l6.46,9.905V6.2h1.679Zm2.312-4.843a5.617,5.617,0,0,1,.549-2.514,4.1,4.1,0,0,1,1.529-1.723,4.163,4.163,0,0,1,2.237-.606,4.01,4.01,0,0,1,3.142,1.345,5.174,5.174,0,0,1,1.2,3.577v.114a5.666,5.666,0,0,1-.532,2.492,4.038,4.038,0,0,1-1.521,1.718,4.211,4.211,0,0,1-2.272.615,4,4,0,0,1-3.133-1.345,5.147,5.147,0,0,1-1.2-3.56Zm1.635.193a4.068,4.068,0,0,0,.734,2.54,2.487,2.487,0,0,0,3.933-.013,4.449,4.449,0,0,0,.729-2.72,4.061,4.061,0,0,0-.743-2.536,2.361,2.361,0,0,0-1.973-.971,2.335,2.335,0,0,0-1.942.958A4.416,4.416,0,0,0,32.611,14.351ZM43.879,7.188v2.3h1.775v1.257H43.879v5.9a1.32,1.32,0,0,0,.237.858,1,1,0,0,0,.809.286,3.937,3.937,0,0,0,.773-.105V19a4.742,4.742,0,0,1-1.248.175,2.025,2.025,0,0,1-1.644-.659,2.832,2.832,0,0,1-.554-1.872v-5.9H40.521V9.49h1.731v-2.3ZM53.424,19a3.416,3.416,0,0,1-.229-1,3.628,3.628,0,0,1-2.707,1.178,3.357,3.357,0,0,1-2.307-.8,2.573,2.573,0,0,1-.9-2.017,2.688,2.688,0,0,1,1.129-2.307,5.325,5.325,0,0,1,3.177-.822h1.582v-.747a1.826,1.826,0,0,0-.51-1.358,2.049,2.049,0,0,0-1.5-.505,2.371,2.371,0,0,0-1.459.439,1.3,1.3,0,0,0-.589,1.063H47.474a2.244,2.244,0,0,1,.505-1.375A3.449,3.449,0,0,1,49.35,9.7a4.613,4.613,0,0,1,1.9-.387,3.759,3.759,0,0,1,2.575.822,2.964,2.964,0,0,1,.967,2.263v4.377a5.351,5.351,0,0,0,.334,2.083V19Zm-2.7-1.239a2.858,2.858,0,0,0,1.45-.4,2.392,2.392,0,0,0,.993-1.028V14.386H51.895q-2.988,0-2.988,1.749a1.48,1.48,0,0,0,.51,1.2A1.959,1.959,0,0,0,50.726,17.761Zm12.155-1.283a1.2,1.2,0,0,0-.5-1.024,4.78,4.78,0,0,0-1.731-.628,8.186,8.186,0,0,1-1.96-.633,2.788,2.788,0,0,1-1.072-.879,2.1,2.1,0,0,1-.347-1.213,2.467,2.467,0,0,1,.989-1.978,3.861,3.861,0,0,1,2.527-.809,3.974,3.974,0,0,1,2.624.835,2.652,2.652,0,0,1,1.006,2.136H62.784a1.468,1.468,0,0,0-.567-1.151,2.124,2.124,0,0,0-1.428-.483,2.223,2.223,0,0,0-1.389.387,1.217,1.217,0,0,0-.5,1.011.986.986,0,0,0,.466.888,5.731,5.731,0,0,0,1.683.571,8.77,8.77,0,0,1,1.973.65,2.878,2.878,0,0,1,1.121.91,2.237,2.237,0,0,1,.365,1.3,2.434,2.434,0,0,1-1.02,2.043,4.277,4.277,0,0,1-2.646.769,4.789,4.789,0,0,1-2.021-.4,3.288,3.288,0,0,1-1.375-1.129,2.722,2.722,0,0,1-.5-1.569h1.626a1.683,1.683,0,0,0,.655,1.3,2.54,2.54,0,0,0,1.613.479,2.622,2.622,0,0,0,1.481-.374A1.148,1.148,0,0,0,62.881,16.478ZM76.952,19a3.416,3.416,0,0,1-.229-1,3.628,3.628,0,0,1-2.707,1.178,3.357,3.357,0,0,1-2.307-.8,2.573,2.573,0,0,1-.9-2.017,2.688,2.688,0,0,1,1.129-2.307,5.325,5.325,0,0,1,3.177-.822H76.7v-.747a1.826,1.826,0,0,0-.51-1.358,2.049,2.049,0,0,0-1.5-.505,2.371,2.371,0,0,0-1.459.439,1.3,1.3,0,0,0-.589,1.063H71a2.244,2.244,0,0,1,.505-1.375A3.449,3.449,0,0,1,72.878,9.7a4.613,4.613,0,0,1,1.9-.387,3.759,3.759,0,0,1,2.575.822,2.964,2.964,0,0,1,.967,2.263v4.377a5.351,5.351,0,0,0,.334,2.083V19Zm-2.7-1.239a2.858,2.858,0,0,0,1.45-.4,2.392,2.392,0,0,0,.993-1.028V14.386H75.423q-2.988,0-2.988,1.749a1.48,1.48,0,0,0,.51,1.2A1.959,1.959,0,0,0,74.254,17.761ZM87.095,19H85.469V5.5h1.626Zm2.171-4.843a5.617,5.617,0,0,1,.549-2.514,4.1,4.1,0,0,1,1.529-1.723,4.163,4.163,0,0,1,2.237-.606,4.01,4.01,0,0,1,3.142,1.345,5.174,5.174,0,0,1,1.2,3.577v.114a5.666,5.666,0,0,1-.532,2.492,4.038,4.038,0,0,1-1.521,1.718,4.211,4.211,0,0,1-2.272.615,4,4,0,0,1-3.133-1.345,5.147,5.147,0,0,1-1.2-3.56Zm1.635.193a4.068,4.068,0,0,0,.734,2.54,2.487,2.487,0,0,0,3.933-.013,4.449,4.449,0,0,0,.729-2.72,4.061,4.061,0,0,0-.743-2.536,2.361,2.361,0,0,0-1.973-.971,2.335,2.335,0,0,0-1.942.958A4.416,4.416,0,0,0,90.9,14.351Zm14.6,2.127a1.2,1.2,0,0,0-.5-1.024,4.78,4.78,0,0,0-1.731-.628,8.186,8.186,0,0,1-1.96-.633,2.788,2.788,0,0,1-1.072-.879,2.1,2.1,0,0,1-.347-1.213,2.467,2.467,0,0,1,.989-1.978,3.861,3.861,0,0,1,2.527-.809,3.974,3.974,0,0,1,2.624.835,2.652,2.652,0,0,1,1.006,2.136H105.4a1.468,1.468,0,0,0-.567-1.151,2.124,2.124,0,0,0-1.428-.483,2.223,2.223,0,0,0-1.389.387,1.217,1.217,0,0,0-.5,1.011.986.986,0,0,0,.466.888,5.731,5.731,0,0,0,1.683.571,8.77,8.77,0,0,1,1.973.65,2.878,2.878,0,0,1,1.121.91,2.237,2.237,0,0,1,.365,1.3,2.434,2.434,0,0,1-1.02,2.043,4.277,4.277,0,0,1-2.646.769,4.789,4.789,0,0,1-2.021-.4,3.288,3.288,0,0,1-1.375-1.129,2.722,2.722,0,0,1-.5-1.569h1.626a1.683,1.683,0,0,0,.655,1.3,2.54,2.54,0,0,0,1.613.479,2.622,2.622,0,0,0,1.481-.374A1.148,1.148,0,0,0,105.5,16.478Zm12.146,2.7a4.155,4.155,0,0,1-3.146-1.27,4.714,4.714,0,0,1-1.213-3.4v-.3a5.707,5.707,0,0,1,.541-2.527,4.217,4.217,0,0,1,1.512-1.74,3.8,3.8,0,0,1,2.1-.628,3.562,3.562,0,0,1,2.883,1.222,5.289,5.289,0,0,1,1.028,3.5v.677h-6.442a3.38,3.38,0,0,0,.822,2.272,2.583,2.583,0,0,0,2,.866,2.832,2.832,0,0,0,1.459-.352,3.666,3.666,0,0,0,1.046-.932l.993.773A3.993,3.993,0,0,1,117.646,19.176Zm-.2-8.525a2.169,2.169,0,0,0-1.652.716,3.482,3.482,0,0,0-.826,2.008h4.764v-.123a3.1,3.1,0,0,0-.668-1.92A2.042,2.042,0,0,0,117.443,10.65Zm11.329,5.827a1.2,1.2,0,0,0-.5-1.024,4.78,4.78,0,0,0-1.731-.628,8.186,8.186,0,0,1-1.96-.633,2.788,2.788,0,0,1-1.072-.879,2.1,2.1,0,0,1-.347-1.213,2.467,2.467,0,0,1,.989-1.978,3.861,3.861,0,0,1,2.527-.809,3.974,3.974,0,0,1,2.624.835,2.652,2.652,0,0,1,1.006,2.136h-1.635a1.468,1.468,0,0,0-.567-1.151,2.124,2.124,0,0,0-1.428-.483,2.223,2.223,0,0,0-1.389.387,1.217,1.217,0,0,0-.5,1.011.986.986,0,0,0,.466.888,5.731,5.731,0,0,0,1.683.571,8.77,8.77,0,0,1,1.973.65,2.878,2.878,0,0,1,1.121.91,2.237,2.237,0,0,1,.365,1.3,2.434,2.434,0,0,1-1.02,2.043,4.277,4.277,0,0,1-2.646.769,4.789,4.789,0,0,1-2.021-.4,3.288,3.288,0,0,1-1.375-1.129,2.722,2.722,0,0,1-.5-1.569h1.626a1.683,1.683,0,0,0,.655,1.3,2.54,2.54,0,0,0,1.613.479,2.622,2.622,0,0,0,1.481-.374A1.148,1.148,0,0,0,128.772,16.478Zm5.95-9.29v2.3H136.5v1.257h-1.775v5.9a1.32,1.32,0,0,0,.237.858,1,1,0,0,0,.809.286,3.937,3.937,0,0,0,.773-.105V19a4.742,4.742,0,0,1-1.248.175,2.025,2.025,0,0,1-1.644-.659,2.832,2.832,0,0,1-.554-1.872v-5.9h-1.731V9.49H133.1v-2.3ZM144.268,19a3.416,3.416,0,0,1-.229-1,3.628,3.628,0,0,1-2.707,1.178,3.357,3.357,0,0,1-2.307-.8,2.573,2.573,0,0,1-.9-2.017,2.688,2.688,0,0,1,1.129-2.307,5.325,5.325,0,0,1,3.177-.822h1.582v-.747a1.826,1.826,0,0,0-.51-1.358,2.049,2.049,0,0,0-1.5-.505,2.371,2.371,0,0,0-1.459.439,1.3,1.3,0,0,0-.589,1.063h-1.635a2.244,2.244,0,0,1,.505-1.375,3.449,3.449,0,0,1,1.371-1.05,4.613,4.613,0,0,1,1.9-.387,3.759,3.759,0,0,1,2.575.822,2.964,2.964,0,0,1,.967,2.263v4.377a5.351,5.351,0,0,0,.334,2.083V19Zm-2.7-1.239a2.858,2.858,0,0,0,1.45-.4,2.392,2.392,0,0,0,.993-1.028V14.386h-1.274q-2.988,0-2.988,1.749a1.48,1.48,0,0,0,.51,1.2A1.959,1.959,0,0,0,141.569,17.761Zm6.223-3.595a5.571,5.571,0,0,1,1.037-3.52,3.529,3.529,0,0,1,5.361-.189V5.5h1.626V19h-1.494l-.079-1.02a3.311,3.311,0,0,1-2.716,1.2,3.248,3.248,0,0,1-2.694-1.354,5.634,5.634,0,0,1-1.042-3.533Zm1.626.185a4.218,4.218,0,0,0,.668,2.531,2.159,2.159,0,0,0,1.846.914,2.372,2.372,0,0,0,2.259-1.389V12.039a2.39,2.39,0,0,0-2.241-1.345,2.17,2.17,0,0,0-1.863.923A4.644,4.644,0,0,0,149.418,14.351Zm8.49-.193a5.617,5.617,0,0,1,.549-2.514,4.1,4.1,0,0,1,1.529-1.723,4.163,4.163,0,0,1,2.237-.606,4.01,4.01,0,0,1,3.142,1.345,5.174,5.174,0,0,1,1.2,3.577v.114a5.666,5.666,0,0,1-.532,2.492,4.038,4.038,0,0,1-1.521,1.718,4.211,4.211,0,0,1-2.272.615,4,4,0,0,1-3.133-1.345,5.147,5.147,0,0,1-1.2-3.56Zm1.635.193a4.068,4.068,0,0,0,.734,2.54,2.487,2.487,0,0,0,3.933-.013,4.449,4.449,0,0,0,.729-2.72,4.061,4.061,0,0,0-.743-2.536,2.361,2.361,0,0,0-1.973-.971,2.335,2.335,0,0,0-1.942.958A4.416,4.416,0,0,0,159.543,14.351Zm14.6,2.127a1.2,1.2,0,0,0-.5-1.024,4.78,4.78,0,0,0-1.731-.628,8.186,8.186,0,0,1-1.96-.633,2.788,2.788,0,0,1-1.072-.879,2.1,2.1,0,0,1-.347-1.213,2.467,2.467,0,0,1,.989-1.978,3.861,3.861,0,0,1,2.527-.809,3.974,3.974,0,0,1,2.624.835,2.652,2.652,0,0,1,1.006,2.136h-1.635a1.468,1.468,0,0,0-.567-1.151,2.124,2.124,0,0,0-1.428-.483,2.223,2.223,0,0,0-1.389.387,1.217,1.217,0,0,0-.5,1.011.986.986,0,0,0,.466.888,5.731,5.731,0,0,0,1.683.571,8.77,8.77,0,0,1,1.973.65,2.878,2.878,0,0,1,1.121.91,2.237,2.237,0,0,1,.365,1.3,2.434,2.434,0,0,1-1.02,2.043,4.277,4.277,0,0,1-2.646.769,4.789,4.789,0,0,1-2.021-.4,3.288,3.288,0,0,1-1.375-1.129,2.722,2.722,0,0,1-.5-1.569h1.626a1.683,1.683,0,0,0,.655,1.3,2.54,2.54,0,0,0,1.613.479,2.622,2.622,0,0,0,1.481-.374A1.148,1.148,0,0,0,174.142,16.478ZM54.571,43V34.747h-1.5V33.49h1.5v-.809a3.3,3.3,0,0,1,.91-2.479,3.528,3.528,0,0,1,2.571-.888,7.741,7.741,0,0,1,2.487.536l-.272,1.371a5.633,5.633,0,0,0-2.092-.439,2.047,2.047,0,0,0-1.507.47,1.938,1.938,0,0,0-.461,1.411v.826h1.942v1.257H56.206V43Zm6.776,0H59.712V33.49h1.635Zm4.184-9.51.053,1.2a3.465,3.465,0,0,1,2.848-1.371q3.015,0,3.041,3.4V43H69.846V36.707a2.189,2.189,0,0,0-.47-1.521,1.884,1.884,0,0,0-1.437-.492,2.347,2.347,0,0,0-1.389.422,2.865,2.865,0,0,0-.932,1.107V43H63.993V33.49ZM79.8,43a3.416,3.416,0,0,1-.229-1,3.628,3.628,0,0,1-2.707,1.178,3.357,3.357,0,0,1-2.307-.8,2.573,2.573,0,0,1-.9-2.017,2.688,2.688,0,0,1,1.129-2.307,5.325,5.325,0,0,1,3.177-.822h1.582v-.747a1.826,1.826,0,0,0-.51-1.358,2.049,2.049,0,0,0-1.5-.505,2.371,2.371,0,0,0-1.459.439,1.3,1.3,0,0,0-.589,1.063H73.845a2.244,2.244,0,0,1,.505-1.375,3.449,3.449,0,0,1,1.371-1.05,4.613,4.613,0,0,1,1.9-.387,3.759,3.759,0,0,1,2.575.822,2.964,2.964,0,0,1,.967,2.263v4.377a5.351,5.351,0,0,0,.334,2.083V43Zm-2.7-1.239a2.858,2.858,0,0,0,1.45-.4,2.392,2.392,0,0,0,.993-1.028V38.386H78.266q-2.988,0-2.988,1.749a1.48,1.48,0,0,0,.51,1.2A1.959,1.959,0,0,0,77.1,41.761Zm8.156-8.271.053,1.2a3.465,3.465,0,0,1,2.848-1.371q3.015,0,3.041,3.4V43H89.569V36.707a2.189,2.189,0,0,0-.47-1.521,1.884,1.884,0,0,0-1.437-.492,2.347,2.347,0,0,0-1.389.422,2.865,2.865,0,0,0-.932,1.107V43H83.715V33.49Zm12.208,8.358a2.342,2.342,0,0,0,1.521-.527A1.855,1.855,0,0,0,99.7,40h1.538a2.949,2.949,0,0,1-.562,1.556,3.7,3.7,0,0,1-1.384,1.178,3.994,3.994,0,0,1-1.833.439,3.918,3.918,0,0,1-3.089-1.3,5.163,5.163,0,0,1-1.147-3.546v-.272a5.725,5.725,0,0,1,.51-2.47A3.883,3.883,0,0,1,95.2,33.912a4.157,4.157,0,0,1,2.254-.6,3.814,3.814,0,0,1,2.659.958,3.424,3.424,0,0,1,1.129,2.487H99.7a2.241,2.241,0,0,0-.7-1.516,2.174,2.174,0,0,0-1.551-.593,2.276,2.276,0,0,0-1.92.892,4.19,4.19,0,0,0-.681,2.58v.308a4.106,4.106,0,0,0,.677,2.531A2.287,2.287,0,0,0,97.461,41.849ZM104.835,43h-1.626V33.49h1.626Zm-1.758-12.032a.971.971,0,0,1,.242-.668.907.907,0,0,1,.716-.272.922.922,0,0,1,.721.272.96.96,0,0,1,.246.668.929.929,0,0,1-.246.659.938.938,0,0,1-.721.264.924.924,0,0,1-.716-.264A.938.938,0,0,1,103.078,30.968Zm8.306,12.208a4.155,4.155,0,0,1-3.146-1.27,4.714,4.714,0,0,1-1.213-3.4v-.3a5.707,5.707,0,0,1,.541-2.527,4.217,4.217,0,0,1,1.512-1.74,3.8,3.8,0,0,1,2.1-.628,3.562,3.562,0,0,1,2.883,1.222,5.289,5.289,0,0,1,1.028,3.5v.677H108.65a3.38,3.38,0,0,0,.822,2.272,2.583,2.583,0,0,0,2,.866,2.832,2.832,0,0,0,1.459-.352,3.666,3.666,0,0,0,1.046-.932l.993.773A3.993,3.993,0,0,1,111.383,43.176Zm-.2-8.525a2.169,2.169,0,0,0-1.652.716,3.482,3.482,0,0,0-.826,2.008h4.764v-.123a3.1,3.1,0,0,0-.668-1.92A2.042,2.042,0,0,0,111.181,34.65Zm10.389.3a4.873,4.873,0,0,0-.8-.062A2.143,2.143,0,0,0,118.6,36.25V43h-1.626V33.49h1.582l.026,1.1a2.532,2.532,0,0,1,2.268-1.274,1.661,1.661,0,0,1,.721.123Zm.888,3.208a5.617,5.617,0,0,1,.549-2.514,4.1,4.1,0,0,1,1.529-1.723,4.163,4.163,0,0,1,2.237-.606,4.01,4.01,0,0,1,3.142,1.345,5.174,5.174,0,0,1,1.2,3.577v.114a5.666,5.666,0,0,1-.532,2.492,4.038,4.038,0,0,1-1.521,1.718,4.211,4.211,0,0,1-2.272.615,4,4,0,0,1-3.133-1.345,5.147,5.147,0,0,1-1.2-3.56Zm1.635.193a4.068,4.068,0,0,0,.734,2.54,2.487,2.487,0,0,0,3.933-.013,4.449,4.449,0,0,0,.729-2.72,4.061,4.061,0,0,0-.743-2.536,2.361,2.361,0,0,0-1.973-.971,2.335,2.335,0,0,0-1.942.958A4.416,4.416,0,0,0,124.092,38.351Zm14.6,2.127a1.2,1.2,0,0,0-.5-1.024,4.78,4.78,0,0,0-1.731-.628,8.186,8.186,0,0,1-1.96-.633,2.788,2.788,0,0,1-1.072-.879,2.1,2.1,0,0,1-.347-1.213,2.467,2.467,0,0,1,.989-1.978,3.861,3.861,0,0,1,2.527-.809,3.974,3.974,0,0,1,2.624.835,2.652,2.652,0,0,1,1.006,2.136h-1.635a1.468,1.468,0,0,0-.567-1.151,2.124,2.124,0,0,0-1.428-.483,2.223,2.223,0,0,0-1.389.387,1.217,1.217,0,0,0-.5,1.011.986.986,0,0,0,.466.888,5.731,5.731,0,0,0,1.683.571,8.77,8.77,0,0,1,1.973.65,2.878,2.878,0,0,1,1.121.91,2.237,2.237,0,0,1,.365,1.3,2.434,2.434,0,0,1-1.02,2.043,4.277,4.277,0,0,1-2.646.769,4.789,4.789,0,0,1-2.021-.4,3.288,3.288,0,0,1-1.375-1.129,2.722,2.722,0,0,1-.5-1.569h1.626a1.683,1.683,0,0,0,.655,1.3,2.54,2.54,0,0,0,1.613.479,2.622,2.622,0,0,0,1.481-.374A1.148,1.148,0,0,0,138.691,40.478Z" transform="translate(30.954 173.705)" fill="#12263f"/>
    </g>
    <line id="Línea_1692" data-name="Línea 1692" x2="49.703" transform="translate(72.469 262.762)" fill="none" stroke="#d9a171" stroke-linecap="round" stroke-miterlimit="10" stroke-width="0.806"/>
    <g id="Grupo_92950" data-name="Grupo 92950" transform="translate(60.888 60.221)">
      <path id="Trazado_138576" data-name="Trazado 138576" d="M-2001.794,41.4c.367.179.751.33,1.1.544a3.658,3.658,0,0,1,1.825,3.165c.034,1.242.007,2.486.007,3.8h.864c5.1,0,10.2.011,15.293-.008a4.3,4.3,0,0,1,3.228,1.315q4.095,4.119,8.215,8.213a4.133,4.133,0,0,1,1.25,3.1c-.018,6.372-.009,12.744-.009,19.116v.886c1.031.187,2.028.307,2.993.553a17.5,17.5,0,0,1,13.189,14.869,1.392,1.392,0,0,0,.135.327v3.676a1.992,1.992,0,0,0-.139.4,17.5,17.5,0,0,1-16.119,15.291,17.232,17.232,0,0,1-15.312-6.95,1.214,1.214,0,0,0-1.091-.529c-8.183.013-16.366-.037-24.548.038a4.075,4.075,0,0,1-4.306-4.271c.085-7.5.03-14.993.03-22.49v-.9h-.91c-3.013,0-6.027.01-9.04,0a3.712,3.712,0,0,1-3.854-3.9q0-16.169,0-32.339a4.679,4.679,0,0,1,.1-1.017,4.033,4.033,0,0,1,2.836-2.89Zm-10.887,40.152v.88q0,11.172,0,22.344c0,1.521.345,1.874,1.846,1.874q11.392,0,22.784,0c.258,0,.517-.022.855-.037-2.428-5.644-2.3-11.141.781-16.392s7.852-8.013,13.845-8.648V61.524h-.83c-1.69,0-3.381,0-5.071-.01a3.815,3.815,0,0,1-4.107-4.067c-.014-1.715-.025-3.431.02-5.145.017-.655-.144-.876-.844-.871-4.9.032-9.8.017-14.7.017h-.763v.976c0,8.281-.047,16.562.03,24.843a4.053,4.053,0,0,1-4.33,4.319C-2006.293,81.466-2009.431,81.557-2012.681,81.557Zm56.466,17.641a15.113,15.113,0,0,0-15.063-15.127,15.116,15.116,0,0,0-15.054,14.912,15.111,15.111,0,0,0,14.984,15.208A15.134,15.134,0,0,0-1956.215,99.2Zm-70.279-37.8q0,7.9,0,15.8c0,1.456.385,1.85,1.81,1.85l21.684,0c1.137,0,1.6-.459,1.6-1.609q.005-15.877,0-31.754c0-1.391-.4-1.777-1.806-1.777h-21.463c-1.443,0-1.828.387-1.828,1.833Q-2026.5,53.572-2026.494,61.4Zm46.461-7.961c0,1.486-.024,2.946.012,4.4a1.006,1.006,0,0,0,.948,1.051c1.5.056,3.009.019,4.477.019Z" transform="translate(2028.997 -41.405)" fill="#344154"/>
      <path id="Trazado_138577" data-name="Trazado 138577" d="M-1882.73,341.87c-2.865,0-5.73.007-8.6,0-1.027,0-1.7-.737-1.381-1.572a2.191,2.191,0,0,1,.932-.9,1.816,1.816,0,0,1,.865-.069q8.154,0,16.309,0c.22,0,.442-.006.661.015a1.215,1.215,0,0,1,1.227,1.278,1.242,1.242,0,0,1-1.275,1.243c-.979.031-1.959.01-2.938.01Z" transform="translate(1912.857 -295.415)" fill="#344154"/>
      <path id="Trazado_138578" data-name="Trazado 138578" d="M-1789.851,256.669c-2.6,0-5.191.01-7.786,0-1.25-.007-1.937-.954-1.4-1.892a1.419,1.419,0,0,1,1.376-.667q5.068.006,10.136,0c1.885,0,3.771,0,5.656.006a1.3,1.3,0,0,1,1.464,1.045c.156.856-.422,1.488-1.437,1.506-1.371.024-2.742.007-4.113.007Z" transform="translate(1833.079 -222.764)" fill="#344154"/>
      <path id="Trazado_138579" data-name="Trazado 138579" d="M-1789.785,214.148c-2.645,0-5.29.008-7.934,0-1.147,0-1.805-.925-1.341-1.842a1.3,1.3,0,0,1,1.273-.7q1.91,0,3.82,0l11.534-.01c.122,0,.245,0,.367,0,1.1.011,1.7.464,1.7,1.281s-.6,1.273-1.7,1.274q-3.857,0-7.714,0Z" transform="translate(1833.069 -186.51)" fill="#344154"/>
      <path id="Trazado_138580" data-name="Trazado 138580" d="M-1789.791,299.4q-4,0-8.007,0a1.223,1.223,0,0,1-1.3-.956,1.143,1.143,0,0,1,.578-1.372,1.542,1.542,0,0,1,.768-.175q8.007-.017,16.014-.012a1.268,1.268,0,0,1,1.425,1.237,1.252,1.252,0,0,1-1.394,1.266c-2.694.009-5.387,0-8.081,0Z" transform="translate(1833.022 -259.246)" fill="#344154"/>
      <path id="Trazado_138581" data-name="Trazado 138581" d="M-1884.033,381.876c2.375,0,4.751-.005,7.126.006a2.469,2.469,0,0,1,.929.148,1.018,1.018,0,0,1,.694,1.229,2.394,2.394,0,0,1-.841,1.07c-.213.164-.612.115-.927.115q-6.943.009-13.885,0c-1.264,0-1.925-.467-1.9-1.327.029-.842.641-1.244,1.893-1.244Z" transform="translate(1912.897 -331.708)" fill="#344154"/>
      <path id="Trazado_138582" data-name="Trazado 138582" d="M-1884.586,427.174c-2.275,0-4.55.006-6.825-.005a1.215,1.215,0,0,1-1.318-1.106,1.2,1.2,0,0,1,.825-1.319,1.853,1.853,0,0,1,.649-.069q6.678-.005,13.356,0c.909,0,1.49.5,1.487,1.254s-.578,1.243-1.5,1.245C-1880.134,427.179-1882.36,427.175-1884.586,427.174Z" transform="translate(1912.813 -368.199)" fill="#344154"/>
      <path id="Trazado_138583" data-name="Trazado 138583" d="M-1672.422,352.025v7.282a6.591,6.591,0,0,1,3.7,2.354,6.272,6.272,0,0,1-3.034,9.813,1.012,1.012,0,0,0-.793.694,1.732,1.732,0,0,1-1.132.839,1.011,1.011,0,0,1-1.2-.849c-.1-.461-.338-.556-.705-.674a6.234,6.234,0,0,1-4.386-5.81,1.277,1.277,0,0,1,1.219-1.444c.743-.019,1.232.5,1.292,1.38a3.512,3.512,0,0,0,2.47,3.292v-7.255a6.284,6.284,0,0,1-4.793-4.6,6.23,6.23,0,0,1,4.236-7.594c.354-.112.556-.212.649-.631a1.139,1.139,0,0,1,1.194-.9,1.139,1.139,0,0,1,1.188.909c.089.429.305.521.652.631a6.215,6.215,0,0,1,4.424,5.779c.006.9-.422,1.435-1.175,1.479-.778.045-1.286-.484-1.344-1.4A3.586,3.586,0,0,0-1672.422,352.025Zm-.025,10.038v6.862a3.582,3.582,0,0,0,2.5-3.4A3.586,3.586,0,0,0-1672.447,362.062Zm-2.542-10.017a3.6,3.6,0,0,0-2.461,3.668,3.454,3.454,0,0,0,2.461,3.125Z" transform="translate(1731.42 -302.754)" fill="#344154"/>
      <path id="Trazado_138584" data-name="Trazado 138584" d="M-1985,75.382q3.637,0,7.274,0a2.549,2.549,0,0,1,2.773,2.727q.016,4.813,0,9.625a2.557,2.557,0,0,1-2.7,2.742q-7.385.027-14.769,0a2.533,2.533,0,0,1-2.652-2.7q-.007-4.849.006-9.7a2.519,2.519,0,0,1,2.719-2.692C-1989.9,75.378-1987.448,75.382-1985,75.382Zm7.443,2.566h-14.936v9.908h14.936Z" transform="translate(2000.072 -70.374)" fill="#344154"/>
      <path id="Trazado_138585" data-name="Trazado 138585" d="M-1992.508,197.06c-.414,0-.831.027-1.242-.006a1.282,1.282,0,0,1-1.25-1.275,1.211,1.211,0,0,1,1.187-1.241,22.066,22.066,0,0,1,2.629,0,1.2,1.2,0,0,1,1.2,1.294,1.243,1.243,0,0,1-1.28,1.229c-.413.026-.828,0-1.243,0Z" transform="translate(2000.009 -171.94)" fill="#344154"/>
      <path id="Trazado_138586" data-name="Trazado 138586" d="M-1941.513,197.018c-.39,0-.782.019-1.171,0a1.331,1.331,0,0,1-1.347-1.274,1.262,1.262,0,0,1,1.262-1.266,23.014,23.014,0,0,1,2.56.011,1.249,1.249,0,0,1,1.234,1.284,1.3,1.3,0,0,1-1.295,1.242C-1940.682,197.04-1941.1,197.018-1941.513,197.018Z" transform="translate(1956.55 -171.895)" fill="#344154"/>
      <path id="Trazado_138587" data-name="Trazado 138587" d="M-1890.36,197.048c-.391,0-.782.021-1.171,0a1.3,1.3,0,0,1-1.3-1.239,1.245,1.245,0,0,1,1.231-1.286,22.983,22.983,0,0,1,2.561,0,1.253,1.253,0,0,1,1.265,1.261,1.326,1.326,0,0,1-1.344,1.277c-.414.023-.83,0-1.245,0Z" transform="translate(1912.894 -171.926)" fill="#344154"/>
      <path id="Trazado_138588" data-name="Trazado 138588" d="M-1890.391,231.214c-.39,0-.782.016-1.171,0a1.291,1.291,0,0,1-1.324-1.281,1.254,1.254,0,0,1,1.278-1.238c.853-.029,1.709-.025,2.561.014a1.24,1.24,0,0,1,1.22,1.216,1.294,1.294,0,0,1-1.246,1.285c-.437.029-.878.005-1.317.005Z" transform="translate(1912.942 -201.08)" fill="#344154"/>
      <path id="Trazado_138589" data-name="Trazado 138589" d="M-1890.368,265.332c-.392,0-.785.014-1.176,0a1.27,1.27,0,0,1-1.29-1.237,1.243,1.243,0,0,1,1.258-1.258c.832-.026,1.666-.024,2.5,0a1.26,1.26,0,0,1,1.3,1.227,1.3,1.3,0,0,1-1.336,1.272C-1889.535,265.344-1889.952,265.332-1890.368,265.332Z" transform="translate(1912.897 -230.191)" fill="#344154"/>
      <path id="Trazado_138590" data-name="Trazado 138590" d="M-1992.482,231.215c-.414,0-.83.018-1.243,0a1.278,1.278,0,0,1-1.28-1.24,1.208,1.208,0,0,1,1.224-1.271c.851-.039,1.707-.043,2.558-.01a1.2,1.2,0,0,1,1.234,1.257,1.24,1.24,0,0,1-1.25,1.257c-.413.024-.829,0-1.243,0Z" transform="translate(2000.013 -201.075)" fill="#344154"/>
      <path id="Trazado_138591" data-name="Trazado 138591" d="M-1941.518,231.241c-.392,0-.785.019-1.176,0a1.307,1.307,0,0,1-1.3-1.248,1.251,1.251,0,0,1,1.262-1.26c.856-.032,1.716-.032,2.572,0a1.228,1.228,0,0,1,1.216,1.224,1.273,1.273,0,0,1-1.255,1.278C-1940.635,231.263-1941.077,231.241-1941.518,231.241Z" transform="translate(1956.515 -201.109)" fill="#344154"/>
      <path id="Trazado_138592" data-name="Trazado 138592" d="M-1941.462,265.318c-.415,0-.83.015-1.244,0a1.292,1.292,0,0,1-1.285-1.239,1.254,1.254,0,0,1,1.248-1.261c.853-.028,1.707-.032,2.56-.007a1.241,1.241,0,0,1,1.244,1.262,1.267,1.267,0,0,1-1.28,1.238c-.414.018-.829,0-1.243,0Z" transform="translate(1956.516 -230.171)" fill="#344154"/>
      <path id="Trazado_138593" data-name="Trazado 138593" d="M-1992.547,265.332c-.392,0-.784.014-1.176,0a1.265,1.265,0,0,1-1.283-1.238,1.215,1.215,0,0,1,1.25-1.256c.856-.026,1.715-.028,2.571,0a1.174,1.174,0,0,1,1.2,1.221,1.219,1.219,0,0,1-1.235,1.269C-1991.664,265.349-1992.106,265.331-1992.547,265.332Z" transform="translate(2000.015 -230.191)" fill="#344154"/>
    </g>
  </g>
</svg>
