<svg xmlns="http://www.w3.org/2000/svg" width="349.977" height="391.608" viewBox="0 0 349.977 391.608">
  <g id="Grupo_89177" data-name="Grupo 89177" transform="translate(-113.949 -119.483)">
    <g id="Grupo_87482" data-name="Grupo 87482" transform="translate(241.675 173.997)">
      <g id="Grupo_87436" data-name="Grupo 87436" transform="translate(0.005 0)">
        <rect id="Rectángulo_31670" data-name="Rectángulo 31670" width="222.245" height="320.668" rx="18.087" fill="#344154"/>
      </g>
      <g id="Grupo_87437" data-name="Grupo 87437" transform="translate(26.199 26.987)">
        <rect id="Rectángulo_31671" data-name="Rectángulo 31671" width="169.859" height="61.911" rx="6.46" fill="#fff"/>
      </g>
      <g id="Grupo_87438" data-name="Grupo 87438" transform="translate(0 104.775)">
        <path id="Trazado_141825" data-name="Trazado 141825" d="M440.141,249.117V442.781a22.22,22.22,0,0,1-1.737,8.643.011.011,0,0,1-.011.011,23.5,23.5,0,0,1-1.456,2.867.011.011,0,0,1-.011.011,23,23,0,0,1-2.55,3.409.011.011,0,0,1-.011.011c-.237.259-.485.519-.734.767a22.1,22.1,0,0,1-15.707,6.511h-177.8c-.407,0-.813-.012-1.219-.034-.294-.011-.575-.033-.858-.068-.147-.011-.294-.022-.429-.044-.294-.023-.587-.069-.88-.113-.317-.045-.644-.1-.971-.17l-.339-.068c-.281-.057-.553-.124-.834-.192-.011-.012-.023-.012-.045-.022-.35-.091-.688-.182-1.027-.295a20.758,20.758,0,0,1-2.042-.745,18,18,0,0,1-1.951-.936c-.3-.17-.622-.349-.925-.53s-.633-.4-.938-.609c-.281-.181-.553-.372-.812-.575-.3-.215-.586-.452-.869-.677s-.542-.463-.8-.7q-.525-.474-1.015-.982c-.193-.192-.385-.394-.564-.609a22.111,22.111,0,0,1-3.329-4.851c-.113-.226-.226-.452-.328-.677q-.186-.391-.338-.779c-.113-.248-.215-.52-.316-.779a22.234,22.234,0,0,1-1.4-7.774V249.117Z" transform="translate(-217.896 -249.117)" fill="#5d6776"/>
      </g>
      <g id="Grupo_87451" data-name="Grupo 87451" transform="translate(24.611 120.647)">
        <g id="Grupo_87442" data-name="Grupo 87442" transform="translate(0 0)">
          <g id="Grupo_87441" data-name="Grupo 87441">
            <path id="Trazado_141828" data-name="Trazado 141828" d="M264.282,284.953h-14.9a11.46,11.46,0,0,1-11.459-11.46h0a11.46,11.46,0,0,1,11.459-11.459h14.9a11.46,11.46,0,0,1,11.459,11.459h0A11.46,11.46,0,0,1,264.282,284.953Z" transform="translate(-237.925 -262.034)" fill="#fff"/>
          </g>
        </g>
        <g id="Grupo_87444" data-name="Grupo 87444" transform="translate(46.279 0)">
          <g id="Grupo_87443" data-name="Grupo 87443">
            <path id="Trazado_141829" data-name="Trazado 141829" d="M301.945,284.953h-14.9a11.46,11.46,0,0,1-11.459-11.46h0a11.459,11.459,0,0,1,11.459-11.459h14.9A11.46,11.46,0,0,1,313.4,273.493h0A11.46,11.46,0,0,1,301.945,284.953Z" transform="translate(-275.588 -262.034)" fill="#fff"/>
          </g>
        </g>
        <g id="Grupo_87446" data-name="Grupo 87446" transform="translate(92.558 0)">
          <g id="Grupo_87445" data-name="Grupo 87445">
            <path id="Trazado_141830" data-name="Trazado 141830" d="M339.607,284.953h-14.9a11.46,11.46,0,0,1-11.459-11.46h0a11.459,11.459,0,0,1,11.459-11.459h14.9a11.46,11.46,0,0,1,11.461,11.459h0A11.461,11.461,0,0,1,339.607,284.953Z" transform="translate(-313.251 -262.034)" fill="#fff"/>
          </g>
        </g>
        <g id="Grupo_87447" data-name="Grupo 87447" transform="translate(140.948)">
          <rect id="Rectángulo_31672" data-name="Rectángulo 31672" width="30.94" height="58.442" rx="3.859" fill="#fff"/>
        </g>
        <g id="Grupo_87448" data-name="Grupo 87448" transform="translate(140.948 64.009)">
          <rect id="Rectángulo_31673" data-name="Rectángulo 31673" width="30.94" height="32.086" rx="5.489" fill="#fff"/>
        </g>
        <g id="Grupo_87449" data-name="Grupo 87449" transform="translate(140.948 99.608)">
          <rect id="Rectángulo_31674" data-name="Rectángulo 31674" width="30.94" height="32.086" rx="5.489" fill="#fff"/>
        </g>
        <g id="Grupo_87450" data-name="Grupo 87450" transform="translate(140.948 137.581)">
          <rect id="Rectángulo_31675" data-name="Rectángulo 31675" width="30.94" height="32.086" rx="5.489" fill="#fff"/>
        </g>
      </g>
      <g id="Grupo_87454" data-name="Grupo 87454" transform="translate(26.188 156.255)">
        <g id="Grupo_87453" data-name="Grupo 87453">
          <g id="Grupo_87452" data-name="Grupo 87452">
            <rect id="Rectángulo_31676" data-name="Rectángulo 31676" width="37.815" height="37.815" rx="15.387" fill="#fff"/>
          </g>
        </g>
      </g>
      <g id="Grupo_87457" data-name="Grupo 87457" transform="translate(71.281 156.255)">
        <g id="Grupo_87456" data-name="Grupo 87456">
          <g id="Grupo_87455" data-name="Grupo 87455">
            <rect id="Rectángulo_31677" data-name="Rectángulo 31677" width="37.815" height="37.815" rx="15.387" fill="#fff"/>
          </g>
        </g>
      </g>
      <g id="Grupo_87460" data-name="Grupo 87460" transform="translate(116.373 156.255)">
        <g id="Grupo_87459" data-name="Grupo 87459">
          <g id="Grupo_87458" data-name="Grupo 87458">
            <rect id="Rectángulo_31678" data-name="Rectángulo 31678" width="37.815" height="37.815" rx="15.387" fill="#fff"/>
          </g>
        </g>
      </g>
      <g id="Grupo_87463" data-name="Grupo 87463" transform="translate(26.188 207.28)">
        <g id="Grupo_87462" data-name="Grupo 87462">
          <g id="Grupo_87461" data-name="Grupo 87461">
            <rect id="Rectángulo_31679" data-name="Rectángulo 31679" width="37.815" height="37.815" rx="15.387" fill="#fff"/>
          </g>
        </g>
      </g>
      <g id="Grupo_87466" data-name="Grupo 87466" transform="translate(71.281 207.28)">
        <g id="Grupo_87465" data-name="Grupo 87465">
          <g id="Grupo_87464" data-name="Grupo 87464">
            <rect id="Rectángulo_31680" data-name="Rectángulo 31680" width="37.815" height="37.815" rx="15.387" fill="#fff"/>
          </g>
        </g>
      </g>
      <g id="Grupo_87469" data-name="Grupo 87469" transform="translate(116.373 207.28)">
        <g id="Grupo_87468" data-name="Grupo 87468">
          <g id="Grupo_87467" data-name="Grupo 87467">
            <rect id="Rectángulo_31681" data-name="Rectángulo 31681" width="37.815" height="37.815" rx="15.387" fill="#fff"/>
          </g>
        </g>
      </g>
      <g id="Grupo_87472" data-name="Grupo 87472" transform="translate(26.188 258.306)">
        <g id="Grupo_87471" data-name="Grupo 87471" transform="translate(0 0)">
          <g id="Grupo_87470" data-name="Grupo 87470">
            <rect id="Rectángulo_31682" data-name="Rectángulo 31682" width="37.815" height="37.815" rx="15.387" fill="#fff"/>
          </g>
        </g>
      </g>
      <g id="Grupo_87475" data-name="Grupo 87475" transform="translate(71.281 258.306)">
        <g id="Grupo_87474" data-name="Grupo 87474" transform="translate(0 0)">
          <g id="Grupo_87473" data-name="Grupo 87473">
            <rect id="Rectángulo_31683" data-name="Rectángulo 31683" width="37.815" height="37.815" rx="15.387" fill="#fff"/>
          </g>
        </g>
      </g>
      <g id="Grupo_87478" data-name="Grupo 87478" transform="translate(116.373 258.306)">
        <g id="Grupo_87477" data-name="Grupo 87477" transform="translate(0 0)">
          <g id="Grupo_87476" data-name="Grupo 87476">
            <rect id="Rectángulo_31684" data-name="Rectángulo 31684" width="37.815" height="37.815" rx="15.387" fill="#fff"/>
          </g>
        </g>
      </g>
      <g id="Grupo_87479" data-name="Grupo 87479" transform="translate(143.613 7.938)">
        <path id="Trazado_141831" data-name="Trazado 141831" d="M379.221,179.832H339.535a4.762,4.762,0,0,1-4.763-4.763h0a4.762,4.762,0,0,1,4.763-4.761h39.687a4.763,4.763,0,0,1,4.763,4.761h0A4.763,4.763,0,0,1,379.221,179.832Z" transform="translate(-334.772 -170.308)" fill="#fff"/>
      </g>
      <g id="Grupo_87480" data-name="Grupo 87480" transform="translate(0.521 104.773)">
        <rect id="Rectángulo_31685" data-name="Rectángulo 31685" width="208.682" height="7.958" fill="#e1b48d"/>
      </g>
      <g id="Grupo_87481" data-name="Grupo 87481" transform="translate(50.453 43.329)">
        <path id="Trazado_141832" data-name="Trazado 141832" d="M276.148,199.11v30.513h-8.432V209.628a25.738,25.738,0,0,1-3.959,2.518,30.912,30.912,0,0,1-4.8,1.841v-6.836a20.245,20.245,0,0,0,6.611-3.294,13.453,13.453,0,0,0,3.685-4.747Z" transform="translate(-258.956 -199.11)" fill="#839eb6"/>
        <path id="Trazado_141833" data-name="Trazado 141833" d="M304.834,229.623H279.825a15.656,15.656,0,0,1,2.61-6.968q2.179-3.264,8.175-7.706a24.324,24.324,0,0,0,4.686-4.134,4.631,4.631,0,0,0,1.024-2.681,3.133,3.133,0,0,0-1.013-2.343,3.861,3.861,0,0,0-5.157.031,6.134,6.134,0,0,0-1.361,3.541l-8.349-.676a13.273,13.273,0,0,1,1.8-5.5,8.355,8.355,0,0,1,3.694-3.029,16.711,16.711,0,0,1,6.6-1.053,18.622,18.622,0,0,1,6.845,1,8.326,8.326,0,0,1,3.847,3.081,8.132,8.132,0,0,1,1.4,4.656,9.542,9.542,0,0,1-1.606,5.239,22.065,22.065,0,0,1-5.843,5.485q-2.518,1.738-3.367,2.434t-2,1.821h13.016Z" transform="translate(-254.182 -199.11)" fill="#839eb6"/>
        <path id="Trazado_141834" data-name="Trazado 141834" d="M311.206,208.3l-7.88-1.412a9.893,9.893,0,0,1,3.776-5.77q2.794-2.005,7.91-2.005,5.876,0,8.494,2.19a6.876,6.876,0,0,1,2.619,5.5,6.14,6.14,0,0,1-1.064,3.519,9.03,9.03,0,0,1-3.213,2.764,9.441,9.441,0,0,1,2.66,1,6.494,6.494,0,0,1,2.323,2.424,7.337,7.337,0,0,1,.829,3.593,10,10,0,0,1-1.371,5.024,9.183,9.183,0,0,1-3.95,3.7,15.106,15.106,0,0,1-6.774,1.3,17.553,17.553,0,0,1-6.456-.962,9.634,9.634,0,0,1-3.889-2.813,12.935,12.935,0,0,1-2.343-4.656l8.33-1.106a6.494,6.494,0,0,0,1.524,3.49,3.693,3.693,0,0,0,2.631.972,3.616,3.616,0,0,0,2.793-1.228,4.687,4.687,0,0,0,1.116-3.275,4.553,4.553,0,0,0-1.074-3.234,3.808,3.808,0,0,0-2.917-1.146,10.523,10.523,0,0,0-2.7.493l.429-5.956a7.873,7.873,0,0,0,1.085.1,3.8,3.8,0,0,0,2.732-1.043,3.311,3.311,0,0,0,1.1-2.477,2.96,2.96,0,0,0-.82-2.19,3.037,3.037,0,0,0-2.25-.818,3.3,3.3,0,0,0-2.4.891A5.4,5.4,0,0,0,311.206,208.3Z" transform="translate(-248.909 -199.11)" fill="#839eb6"/>
        <path id="Trazado_141835" data-name="Trazado 141835" d="M340.313,224.016H325.128v-6.856l15.185-18.049h7.266v18.439h3.765v6.467h-3.765v5.607h-7.266Zm0-6.467v-9.442l-8.024,9.442Z" transform="translate(-243.818 -199.11)" fill="#839eb6"/>
        <path id="Trazado_141836" data-name="Trazado 141836" d="M352.019,199.526H371.81v6.65h-13.4l-.718,4.5a14.429,14.429,0,0,1,2.752-.983,11.529,11.529,0,0,1,2.692-.327,10.048,10.048,0,0,1,7.306,2.722,9.16,9.16,0,0,1,2.8,6.857,11.629,11.629,0,0,1-1.443,5.586,9.776,9.776,0,0,1-4.093,4.093,14.368,14.368,0,0,1-6.784,1.412,20.045,20.045,0,0,1-5.086-.563,10.342,10.342,0,0,1-3.6-1.677,10.017,10.017,0,0,1-2.4-2.528,13.184,13.184,0,0,1-1.535-3.52l8.432-.922a5.115,5.115,0,0,0,1.432,3.081,3.788,3.788,0,0,0,2.681,1.054,3.633,3.633,0,0,0,2.877-1.32,5.9,5.9,0,0,0,1.135-3.939,5.679,5.679,0,0,0-1.146-3.93,3.935,3.935,0,0,0-3.049-1.248,4.936,4.936,0,0,0-2.333.594,6.758,6.758,0,0,0-1.842,1.556l-7.1-1.024Z" transform="translate(-238.518 -199.015)" fill="#839eb6"/>
      </g>
    </g>
    <g id="Grupo_87538" data-name="Grupo 87538" transform="translate(113.949 119.483)">
      <g id="Grupo_87537" data-name="Grupo 87537">
        <g id="Grupo_87484" data-name="Grupo 87484" transform="translate(46.574 156.356)">
          <g id="Grupo_87483" data-name="Grupo 87483">
            <path id="Trazado_141837" data-name="Trazado 141837" d="M210.844,369.266a227.775,227.775,0,0,0,12.895,79.76q2.5,7.194,5.543,14.39l-2.325,15.433h44.592l-28.785-17.172c-.657-4.1-1.2-8.341-1.667-12.651-3.029-29.175-1.737-61.407-.869-75.936a37.252,37.252,0,0,0-2.4-15.433c-7.751-20.206-28.585-76.261-35.3-110.927H153.581C145.2,302.2,167.79,326.119,210.844,369.266Z" transform="translate(-151.852 -246.73)" fill="#ffbf9d"/>
          </g>
        </g>
        <g id="Grupo_87486" data-name="Grupo 87486" transform="translate(46.573 156.356)">
          <g id="Grupo_87485" data-name="Grupo 87485">
            <path id="Trazado_141838" data-name="Trazado 141838" d="M175.26,330.962c9.372,11.888,21.35,24.053,35.584,38.3-.3,28.479,1.65,60.813,10.621,86.349l22.3-1.16c-3.03-29.175,2.089-77.909-2.471-96.355-5.193-21.009-32.044-76.7-38.761-111.37H153.581C147.967,283.875,156.235,306.885,175.26,330.962Z" transform="translate(-151.851 -246.73)" fill="#6595bf"/>
          </g>
        </g>
        <g id="Grupo_87488" data-name="Grupo 87488" transform="translate(69.958 194.668)">
          <g id="Grupo_87487" data-name="Grupo 87487">
            <path id="Trazado_141839" data-name="Trazado 141839" d="M170.883,323.737l.023.092c9.372,11.888,21.35,24.053,35.584,38.3-.3,28.479,1.65,60.813,10.621,86.349l6.612-.344c-9.3-24.047-11.893-55.55-10.832-87.662-48.621-39.6-16.346-53.868-31.464-82.567Z" transform="translate(-170.883 -277.909)" fill="#334b60"/>
          </g>
        </g>
        <g id="Grupo_87490" data-name="Grupo 87490" transform="translate(121.448 371.304)">
          <g id="Grupo_87489" data-name="Grupo 87489">
            <path id="Trazado_141840" data-name="Trazado 141840" d="M228.824,421.66c10.728,5.495,29.445,3.974,30.547,17.172H213.017c-.523-6.213-.219-12.042,1.6-17.172A43,43,0,0,0,228.824,421.66Z" transform="translate(-212.787 -421.66)" fill="#344154"/>
          </g>
        </g>
        <g id="Grupo_87499" data-name="Grupo 87499" transform="translate(0 154.621)">
          <g id="Grupo_87492" data-name="Grupo 87492" transform="translate(0.708 0.006)">
            <g id="Grupo_87491" data-name="Grupo 87491">
              <path id="Trazado_141841" data-name="Trazado 141841" d="M120.147,459.971c-1.928,4.181-3.746,8.059-5.622,12.129q18.677,4.457,37.347,8.938c-7.534-6.256-15.117-12.391-22.615-18.726,2.87-5.822,6.366-14.034,9.481-19.305,12.477-21.114,26.589-39.814,40.872-59.525a34.682,34.682,0,0,0,6.639-15.334c6.659-38.819,5.818-78.86,12.815-117.754-11.051-1.72-22.077-3.383-33.12-5.071-30.776,48.072-24.264,73.707-11.361,125.3-15.318,20.733-23.763,44.154-29.907,69.2C123.41,444.983,121.257,454.219,120.147,459.971Z" transform="translate(-114.525 -245.323)" fill="#ffbf9d"/>
            </g>
          </g>
          <g id="Grupo_87494" data-name="Grupo 87494" transform="translate(4.244)">
            <g id="Grupo_87493" data-name="Grupo 87493">
              <path id="Trazado_141842" data-name="Trazado 141842" d="M185.556,368.2c-1.081,6.125-2.856,10.073-6.705,15.461-16.19,22.658-28.875,48.444-43.121,72.481-6.154-1.4-12.211-2.862-18.327-4.287,7.075-28.043,18.948-57.731,36.515-81.206-12.886-51.625-19.412-77.212,11.346-125.291a.1.1,0,0,1,.021-.038l37.658,5.752c-.176.952-.347,1.906-.523,2.859,0,.02,0,.064,0,.085C195.728,291.914,192.24,330.329,185.556,368.2Z" transform="translate(-117.403 -245.318)" fill="#4c708f"/>
            </g>
          </g>
          <g id="Grupo_87496" data-name="Grupo 87496" transform="translate(4.234 0.039)">
            <g id="Grupo_87495" data-name="Grupo 87495">
              <path id="Trazado_141843" data-name="Trazado 141843" d="M195.323,255.493c-4.03,5.674-.233,17.036-4.656,23.219-11.447,16.006-26.845,4.142-36.754,10.593-16.859,10.972,1.868,60.992,5.576,74.533.112.409,2.713,9.426,4.425,9.235-7.777.936-5.02-4.546-14.958,12.31-4.483,7.6-27.68,52-28.553,66.089-1.986,1.928-1.86,0-3.009.393,7.1-28.09,18.95-57.736,36.526-81.229-12.885-51.62-19.419-77.212,11.349-125.287,12.236,2.8,27.524.923,39.473,3.7C206.151,249.373,197.948,251.8,195.323,255.493Z" transform="translate(-117.395 -245.35)" fill="#6595bf"/>
            </g>
          </g>
          <g id="Grupo_87498" data-name="Grupo 87498" transform="translate(0 210.805)">
            <g id="Grupo_87497" data-name="Grupo 87497">
              <path id="Trazado_141844" data-name="Trazado 141844" d="M131.335,419.306c10.479,7.333,25,9.524,25.961,23.752q-21.674-5.188-43.347-10.376a45.02,45.02,0,0,1,7.072-15.806C124.2,419.62,127.222,420.208,131.335,419.306Z" transform="translate(-113.949 -416.877)" fill="#344154"/>
            </g>
          </g>
        </g>
        <g id="Grupo_87509" data-name="Grupo 87509" transform="translate(89.605 48.809)">
          <g id="Grupo_87501" data-name="Grupo 87501" transform="translate(92.722 3.165)">
            <g id="Grupo_87500" data-name="Grupo 87500">
              <path id="Trazado_141845" data-name="Trazado 141845" d="M270.479,182.434s-3.246,1.7-4.259,2.379c-1.864-3.278-2.137-6.394-3.888-9.5,0,0,4.585-1.226,5.023-2.134,1.445-2.993,2.752-8.52,5.78-9.255,3.074-.745.585,6.653.585,6.653s7.2-2.052,11.467-6.02C296.533,154.009,292.84,176.483,270.479,182.434Z" transform="translate(-262.332 -161.781)" fill="#ffbf9d"/>
            </g>
          </g>
          <g id="Grupo_87503" data-name="Grupo 87503" transform="translate(0 0)">
            <g id="Grupo_87502" data-name="Grupo 87502">
              <path id="Trazado_141846" data-name="Trazado 141846" d="M286.579,184.927c-7.393,4.958-39.206,24.735-51.094,25.663-13.519,1.063-48.612-13.194-48.612-13.194l1.463-38.168c6.506-.978,46.734,31.52,46.734,31.52l46-17.518C282.825,176.33,284.715,181.648,286.579,184.927Z" transform="translate(-186.872 -159.205)" fill="#d9a171"/>
            </g>
          </g>
          <g id="Grupo_87508" data-name="Grupo 87508">
            <g id="Grupo_87505" data-name="Grupo 87505" transform="translate(1.46)">
              <g id="Grupo_87504" data-name="Grupo 87504">
                <path id="Trazado_141847" data-name="Trazado 141847" d="M208.335,170.615c-9.041-6.42-17.568-11.795-20.271-11.388l0,.071C192.657,160.964,200.479,165.585,208.335,170.615Z" transform="translate(-188.06 -159.205)" fill="#384c78"/>
              </g>
            </g>
            <g id="Grupo_87507" data-name="Grupo 87507" transform="translate(0 21.911)">
              <g id="Grupo_87506" data-name="Grupo 87506">
                <path id="Trazado_141848" data-name="Trazado 141848" d="M284.709,177.037c-8.168,6.081-38.218,24.631-49.7,26.184-12.01,1.631-41.913-7.981-48.133-10.043l0,.138s35.093,14.257,48.612,13.194c11.888-.928,43.7-20.7,51.094-25.663A39.217,39.217,0,0,1,284.709,177.037Z" transform="translate(-186.872 -177.037)" fill="#a37955"/>
              </g>
            </g>
          </g>
        </g>
        <g id="Grupo_87511" data-name="Grupo 87511" transform="translate(45.706 48.821)">
          <g id="Grupo_87510" data-name="Grupo 87510">
            <path id="Trazado_141849" data-name="Trazado 141849" d="M216.267,206.9l-13.574,59.9H153.741s-8.1-57.58,4.322-87.744c5.592-13.59,23.956-19.456,25.107-19.82l.052-.022,13.65.786Z" transform="translate(-151.146 -159.215)" fill="#ffbf9d"/>
          </g>
        </g>
        <g id="Grupo_87513" data-name="Grupo 87513" transform="translate(45.707 48.822)">
          <g id="Grupo_87512" data-name="Grupo 87512">
            <path id="Trazado_141850" data-name="Trazado 141850" d="M215.7,209.359l-11.442,50.494a8.858,8.858,0,0,1-8.6,6.954c-7.1,3.267-17.193,2.147-27.99,0a15.581,15.581,0,0,1-15.439-14.437c-1.552-19.064-2.677-52.633,5.848-73.322,4.379-10.626,16.578-16.54,22.219-18.779a15.1,15.1,0,0,1,5.576-1.053l10.556.025c1.621,0,19.6,45.164,19.6,45.164A15.945,15.945,0,0,1,215.7,209.359Z" transform="translate(-151.147 -159.216)" fill="#fff"/>
          </g>
        </g>
        <g id="Grupo_87515" data-name="Grupo 87515" transform="translate(56.819 151.834)">
          <g id="Grupo_87514" data-name="Grupo 87514">
            <rect id="Rectángulo_31686" data-name="Rectángulo 31686" width="51.944" height="7.708" fill="#182f57"/>
          </g>
        </g>
        <g id="Grupo_87517" data-name="Grupo 87517" transform="translate(87.024 48.805)">
          <g id="Grupo_87516" data-name="Grupo 87516">
            <path id="Trazado_141851" data-name="Trazado 141851" d="M186.05,296.489a7.208,7.208,0,0,0,5.026,4.984,22.277,22.277,0,0,0,9.513.5c.141-.023.258-.048.4-.071a41.337,41.337,0,0,0,7.563-2.027l.023-74.679s.319-13.727,0-18.288c-1.413-20.13.592-43.807-18.547-47.585a3.868,3.868,0,0,0-1.325-.1C203.308,221.028,179.12,270.833,186.05,296.489Z" transform="translate(-184.771 -159.202)" fill="#d9a171"/>
          </g>
        </g>
        <g id="Grupo_87519" data-name="Grupo 87519" transform="translate(30.221 48.822)">
          <g id="Grupo_87518" data-name="Grupo 87518">
            <path id="Trazado_141852" data-name="Trazado 141852" d="M142.128,303.861c10.272,2.236,21.765,1.215,30.6-.036a14.348,14.348,0,0,0,12.157-15.374c-3.076-42.494,9.147-84.121,1.215-129.235l-.047.023c-1.151.358-19.6,6.189-25.109,19.815-10.355,25.62-14.4,82.365-22.3,119.243A4.671,4.671,0,0,0,142.128,303.861Z" transform="translate(-138.544 -159.216)" fill="#d9a171"/>
          </g>
        </g>
        <g id="Grupo_87521" data-name="Grupo 87521" transform="translate(41.784 154.893)">
          <g id="Grupo_87520" data-name="Grupo 87520">
            <path id="Trazado_141853" data-name="Trazado 141853" d="M147.954,249.085a61.516,61.516,0,0,0,23.2,0v-3.546a84.827,84.827,0,0,1-23.2,0Z" transform="translate(-147.954 -245.539)" fill="#e1b48d"/>
          </g>
        </g>
        <g id="Grupo_87528" data-name="Grupo 87528" transform="translate(53.752 57.837)">
          <g id="Grupo_87523" data-name="Grupo 87523" transform="translate(114.594 70.567)">
            <g id="Grupo_87522" data-name="Grupo 87522">
              <path id="Trazado_141854" data-name="Trazado 141854" d="M258.248,242.01a41.757,41.757,0,0,0-7.294,0l.322-12.077s5.526,1.391,6.972.413c2.374-1.6,6.141-5.753,10.207-6.331s-2.176,6.617-2.176,6.617,8.772,2.153,16.038,0S288.038,246.371,258.248,242.01Z" transform="translate(-250.954 -223.982)" fill="#ffbf9d"/>
            </g>
          </g>
          <g id="Grupo_87525" data-name="Grupo 87525">
            <g id="Grupo_87524" data-name="Grupo 87524">
              <path id="Trazado_141855" data-name="Trazado 141855" d="M275.674,242.512v14.873c-14.617,1.371-53.358,2.247-66.582-2.233-16.712-5.67-51.4-56.671-51.4-56.671l18.4-31.929c14.264,16.694,44.307,66.6,44.307,66.6Z" transform="translate(-157.694 -166.552)" fill="#d9a171"/>
            </g>
          </g>
          <g id="Grupo_87527" data-name="Grupo 87527" transform="translate(0 31.929)">
            <g id="Grupo_87526" data-name="Grupo 87526">
              <path id="Trazado_141856" data-name="Trazado 141856" d="M211.23,241.943c-15.186-4.619-53.536-49.406-53.536-49.406s34.686,51,51.4,56.671c13.224,4.48,51.964,3.6,66.582,2.233V246.1C260.481,247.9,224.326,245.922,211.23,241.943Z" transform="translate(-157.694 -192.537)" fill="#a37955"/>
            </g>
          </g>
        </g>
        <g id="Grupo_87530" data-name="Grupo 87530" transform="translate(68.085)">
          <g id="Grupo_87529" data-name="Grupo 87529">
            <path id="Trazado_141857" data-name="Trazado 141857" d="M184.295,158.779s-11.689-.038-14.493-13.638,8.343-18.434,15.664-18.339a19.287,19.287,0,0,0,15.4-7.319s6.5,8.853,2.759,16.624C200.382,142.842,184.295,158.779,184.295,158.779Z" transform="translate(-169.359 -119.483)" fill="#344154"/>
          </g>
        </g>
        <g id="Grupo_87532" data-name="Grupo 87532" transform="translate(77.781 28.65)">
          <g id="Grupo_87531" data-name="Grupo 87531">
            <path id="Trazado_141858" data-name="Trazado 141858" d="M191.508,147.02l-.26,3.925-.689,10.531-.106,1.6c-.211,8.357-12.563,4.9-13.2-.106l2.032-8.314,1.492-6.092.521-2.138.886-3.63Z" transform="translate(-177.249 -142.799)" fill="#ffbf9d"/>
          </g>
        </g>
        <g id="Grupo_87534" data-name="Grupo 87534" transform="translate(79.813 32.28)">
          <g id="Grupo_87533" data-name="Grupo 87533">
            <path id="Trazado_141859" data-name="Trazado 141859" d="M190.869,150.269l-.689,10.53c-3.109-.64-7.822-2.089-10.214-5.332-.372-.5-.725-.992-1.063-1.484l1.492-6.092.521-2.138Z" transform="translate(-178.903 -145.753)" fill="#f0b4b4"/>
          </g>
        </g>
        <g id="Grupo_87536" data-name="Grupo 87536" transform="translate(75.419 14.55)">
          <g id="Grupo_87535" data-name="Grupo 87535">
            <path id="Trazado_141860" data-name="Trazado 141860" d="M196.409,131.776a3.138,3.138,0,0,1,4.721,2.605c.424,8.573.033,22.492-6.678,24.764-9.813,3.321-16.823-9.647-16.823-9.647s-4.206-6-1.246-8.059,5.763,3,5.763,3C182.632,134.912,190.539,135.407,196.409,131.776Z" transform="translate(-175.327 -131.324)" fill="#ffbf9d"/>
          </g>
        </g>
      </g>
      <path id="Trazado_141861" data-name="Trazado 141861" d="M192.109,146.475a4.119,4.119,0,0,0,3.406-.63,26.755,26.755,0,0,1-3.646-6.205Z" transform="translate(-96.124 -114.872)" fill="#ff9a6c"/>
      <path id="Trazado_141862" data-name="Trazado 141862" d="M187.95,138.818c.473,0,.883.672.9,1.325s-.388,1.229-.823,1.247-.817-.6-.9-1.317S187.467,138.812,187.95,138.818Z" transform="translate(-97.212 -115.06)" fill="#344154"/>
      <path id="Trazado_141863" data-name="Trazado 141863" d="M194.563,138.51c.483.006.875.587.891,1.315s-.345,1.325-.817,1.312-.871-.6-.888-1.322S194.092,138.5,194.563,138.51Z" transform="translate(-95.694 -115.13)" fill="#344154"/>
      <path id="Trazado_141864" data-name="Trazado 141864" d="M193.407,136.177a.434.434,0,0,0,.369.162,3.587,3.587,0,0,1,3,.949.41.41,0,0,0,.576.059l.011-.01h0a.435.435,0,0,0,.034-.6h0a4.4,4.4,0,0,0-3.737-1.183.437.437,0,0,0-.378.474A.57.57,0,0,0,193.407,136.177Z" transform="translate(-95.801 -115.819)" fill="#344154"/>
      <path id="Trazado_141865" data-name="Trazado 141865" d="M194.718,148.541a.435.435,0,0,0-.4-.026,3.589,3.589,0,0,1-3.141.139.41.41,0,0,0-.562.143l-.007.012h0a.437.437,0,0,0,.173.578h0a4.4,4.4,0,0,0,3.916-.173.435.435,0,0,0,.193-.575A.558.558,0,0,0,194.718,148.541Z" transform="translate(-96.423 -112.85)" fill="#344154"/>
      <path id="Trazado_141866" data-name="Trazado 141866" d="M186.005,138a.433.433,0,0,0,.386-.1,3.6,3.6,0,0,1,2.937-1.108.41.41,0,0,0,.491-.306l0-.012h0a.438.438,0,0,0-.347-.494h0a4.355,4.355,0,0,0-3.685,1.338.427.427,0,0,0,0,.6A.406.406,0,0,0,186.005,138Z" transform="translate(-97.543 -115.715)" fill="#344154"/>
    </g>
  </g>
</svg>
