<svg xmlns="http://www.w3.org/2000/svg" width="339.631" height="378.522" viewBox="0 0 339.631 378.522">
  <g id="Grupo_59419" data-name="Grupo 59419" transform="translate(0)">
    <g id="freepik--background-complete--inject-349" transform="translate(6.2 0)">
      <rect id="Rectángulo_5617" data-name="Rectángulo 5617" width="15.445" height="0.259" transform="translate(9.433 356.059)" fill="#ebebeb"/>
      <rect id="Rectángulo_5618" data-name="Rectángulo 5618" width="9.008" height="0.259" transform="translate(132.455 358.879)" fill="#ebebeb"/>
      <rect id="Rectángulo_5619" data-name="Rectángulo 5619" width="35.441" height="0.259" transform="translate(29.252 346.44)" fill="#ebebeb"/>
      <rect id="Rectángulo_5620" data-name="Rectángulo 5620" width="97.108" height="0.259" transform="translate(211.713 348.306)" fill="#ebebeb"/>
      <path id="Trazado_103697" data-name="Trazado 103697" d="M881.144,1565.06H1081.31a5.929,5.929,0,0,0,5.919-5.919V1277.779a5.931,5.931,0,0,0-5.919-5.867H881.144a5.919,5.919,0,0,0-5.9,5.867v281.362A5.919,5.919,0,0,0,881.144,1565.06ZM1081.31,1272.12a5.671,5.671,0,0,1,5.66,5.66v281.362a5.67,5.67,0,0,1-5.66,5.66H881.144a5.669,5.669,0,0,1-5.66-5.66V1277.779a5.67,5.67,0,0,1,5.66-5.66Z" transform="translate(-875.246 -1271.912)" fill="#ebebeb"/>
      <rect id="Rectángulo_5621" data-name="Rectángulo 5621" width="19.301" height="132.549" transform="translate(234.166 206.832)" fill="#e6e6e6"/>
      <path id="Trazado_103698" data-name="Trazado 103698" d="M842.338,1600.2h6.8v-25.189H835.216Z" transform="translate(-595.66 -1260.821)" fill="#f0f0f0"/>
      <rect id="Rectángulo_5622" data-name="Rectángulo 5622" width="19.301" height="132.549" transform="translate(30.04 206.832)" fill="#e6e6e6"/>
      <rect id="Rectángulo_5623" data-name="Rectángulo 5623" width="210.055" height="125.676" transform="translate(43.412 206.821)" fill="#f0f0f0"/>
      <path id="Trazado_103699" data-name="Trazado 103699" d="M1031.236,1600.2h-6.8v-25.189h13.921Z" transform="translate(-981.024 -1260.821)" fill="#f0f0f0"/>
      <rect id="Rectángulo_5624" data-name="Rectángulo 5624" width="62.268" height="103.96" transform="translate(50.399 217.239)" fill="#e6e6e6"/>
      <path id="Trazado_103700" data-name="Trazado 103700" d="M1007.98,1485.188H995.655a20.909,20.909,0,0,1-14.149-5.276h40.614A20.872,20.872,0,0,1,1007.98,1485.188Z" transform="translate(-920.285 -1264.301)" fill="#f0f0f0"/>
      <rect id="Rectángulo_5625" data-name="Rectángulo 5625" width="62.268" height="103.96" transform="translate(117.311 217.239)" fill="#e6e6e6"/>
      <path id="Trazado_103701" data-name="Trazado 103701" d="M942.81,1485.188H930.5a20.909,20.909,0,0,1-14.15-5.276H956.96A20.908,20.908,0,0,1,942.81,1485.188Z" transform="translate(-787.581 -1264.301)" fill="#f0f0f0"/>
      <rect id="Rectángulo_5626" data-name="Rectángulo 5626" width="62.268" height="103.96" transform="translate(184.212 217.239)" fill="#e6e6e6"/>
      <path id="Trazado_103702" data-name="Trazado 103702" d="M878.26,1485.188H865.946a20.887,20.887,0,0,1-14.15-5.276H892.41A20.909,20.909,0,0,1,878.26,1485.188Z" transform="translate(-656.119 -1264.301)" fill="#f0f0f0"/>
      <rect id="Rectángulo_5627" data-name="Rectángulo 5627" width="40.126" height="117.228" transform="translate(293.303 121.624)" fill="#f5f5f5"/>
      <rect id="Rectángulo_5628" data-name="Rectángulo 5628" width="139.67" height="131.025" transform="translate(48.564 43.309)" fill="#e6e6e6"/>
      <rect id="Rectángulo_5629" data-name="Rectángulo 5629" width="139.67" height="131.025" transform="translate(52.078 43.309)" fill="#f5f5f5"/>
      <rect id="Rectángulo_5630" data-name="Rectángulo 5630" width="151.353" height="7.588" transform="translate(48.564 174.334)" fill="#e6e6e6"/>
      <rect id="Rectángulo_5631" data-name="Rectángulo 5631" width="143.558" height="7.588" transform="translate(60.319 174.334)" fill="#f5f5f5"/>
      <rect id="Rectángulo_5632" data-name="Rectángulo 5632" width="127.034" height="117.394" transform="translate(58.401 50.12)" fill="#aed3f2"/>
      <rect id="Rectángulo_5633" data-name="Rectángulo 5633" width="7.038" height="117.394" transform="translate(118.399 50.12)" fill="#f5f5f5"/>
      <rect id="Rectángulo_5634" data-name="Rectángulo 5634" width="2.664" height="117.394" transform="translate(182.772 50.13)" fill="#e6e6e6"/>
      <rect id="Rectángulo_5635" data-name="Rectángulo 5635" width="2.664" height="117.394" transform="translate(115.735 50.12)" fill="#e6e6e6"/>
      <path id="Trazado_103703" data-name="Trazado 103703" d="M915.909,1446.472c2.571-26.62,4.354-69.8,2.965-84.254a1.744,1.744,0,0,0-.715-1.244h0a1.783,1.783,0,0,0-2.83,1.482c.249,7.163.529,25.055-1.037,55.914-.757,15.362-1.855,25.915-1.1,28.1Z" transform="translate(-746.447 -1268.666)" fill="#5e6178"/>
      <path id="Trazado_103704" data-name="Trazado 103704" d="M880.328,1384.752c7.256-8.127,22.245-13.9,37.473-13.87,5.971,0-18.182,9.443-28.226,19.861-7.806,8.086-16.586,21.7-19.6,29.253C871.911,1404.084,873.01,1392.868,880.328,1384.752Z" transform="translate(-701.288 -1268.291)" fill="#e6e6e6"/>
      <path id="Trazado_103705" data-name="Trazado 103705" d="M952.134,1387.206c-6.074-8.458-20.1-14.968-35.244-15.7-5.96-.29,16.7,10.366,25.158,21.208,6.572,8.448,13.31,22.453,15.155,30.123C957.6,1406.9,958.208,1395.665,952.134,1387.206Z" transform="translate(-787.595 -1268.268)" fill="#5e6178"/>
      <path id="Trazado_103706" data-name="Trazado 103706" d="M884.127,1356.067c6.219-6.883,18.845-11.776,31.73-11.745,5.069,0-15.393,8-23.9,16.813-6.6,6.852-14.056,18.379-16.586,24.775C877.037,1372.455,877.97,1362.939,884.127,1356.067Z" transform="translate(-704.797 -1269.262)" fill="#5e6178"/>
      <path id="Trazado_103707" data-name="Trazado 103707" d="M944.916,1365.932c-5.183-7.163-17.021-12.678-29.864-13.3-5.038-.238,14.149,8.749,21.3,17.964,5.567,7.152,11.268,19.011,12.843,25.51C949.57,1382.61,950.057,1373.094,944.916,1365.932Z" transform="translate(-777.827 -1268.958)" fill="#5e6178"/>
      <path id="Trazado_103708" data-name="Trazado 103708" d="M917.948,1472.762h0A15.134,15.134,0,0,0,933,1458.509l1.327-23.136h-32.86l1.337,23.136A15.123,15.123,0,0,0,917.948,1472.762Z" transform="translate(-749.522 -1265.931)" fill="#6595bf"/>
      <path id="Trazado_103709" data-name="Trazado 103709" d="M899.393,1440.782h37.12l1.057-9.63H898.336Z" transform="translate(-749.523 -1266.085)" fill="#6595bf"/>
    </g>
    <g id="freepik--Character--inject-349" transform="translate(171.969 36.854)">
      <path id="Trazado_103710" data-name="Trazado 103710" d="M863.226,1623.025l8.656.974,3.193-19.633-8.656-.974Z" transform="translate(-816.401 -1296.636)" fill="#ffc3bd"/>
      <path id="Trazado_103711" data-name="Trazado 103711" d="M901.626,1624.859h8.645l2.146-20.016h-8.645Z" transform="translate(-893.548 -1296.583)" fill="#ffc3bd"/>
      <path id="Trazado_103712" data-name="Trazado 103712" d="M900.571,1623.182H890.039a.756.756,0,0,0-.736.591l-1.71,7.681a1.265,1.265,0,0,0,.965,1.506,1.25,1.25,0,0,0,.3.028c3.39-.052,5.867-.249,10.138-.249,2.623,0,10.542.269,14.17.269s4.146-3.586,2.612-3.908c-6.655-1.461-11.672-3.473-13.808-5.39A2.073,2.073,0,0,0,900.571,1623.182Z" transform="translate(-883.142 -1295.912)" fill="#344154"/>
      <path id="Trazado_103713" data-name="Trazado 103713" d="M863.292,1621.879l-9.329-1.037a.746.746,0,0,0-.8.508l-2.56,7.432a1.255,1.255,0,0,0,.758,1.6,1.209,1.209,0,0,0,.279.064c3.39.332,8.293.684,12.553,1.171,4.976.56,5.8,1.9,11.661,1.752,3.556-.083,4.457-3.691,2.965-3.981-6.8-1.317-8.106-2.343-13.476-6.583A3.968,3.968,0,0,0,863.292,1621.879Z" transform="translate(-807.676 -1295.998)" fill="#344154"/>
      <path id="Trazado_103714" data-name="Trazado 103714" d="M794.346,1379.521c2.9,2.395,5.763,4.478,8.718,6.613s5.971,4.146,9.08,6.043,6.292,3.753,9.64,5.422a69.719,69.719,0,0,0,10.635,4.468c.964.3,1.907.56,3,.819a28.714,28.714,0,0,0,3.224.518c1.949.218,3.773.3,5.6.394,3.638.166,7.256.156,10.781.135,7.132-.083,14.2-.425,21.312-1.037l.1-6.489c-6.976-.891-13.984-1.669-20.918-2.446-3.462-.384-6.924-.8-10.293-1.244-1.69-.228-3.359-.5-4.893-.788a19.652,19.652,0,0,1-1.969-.456c-.6-.208-1.348-.446-2.073-.726a70.584,70.584,0,0,1-8.614-4.209c-2.871-1.648-5.732-3.421-8.552-5.3s-5.629-3.825-8.417-5.8-5.556-4.084-8.169-6.075Z" transform="translate(-746.359 -1305.2)" fill="#ffc3bd"/>
      <path id="Trazado_103715" data-name="Trazado 103715" d="M852.116,1372.482c1.244,8.168,18.441,20.659,18.441,20.659l12.346-15.311a205.213,205.213,0,0,0-17.176-16.337C860.181,1356.953,850.769,1363.588,852.116,1372.482Z" transform="translate(-812.578 -1305.541)" fill="#d9a171"/>
      <path id="Trazado_103716" data-name="Trazado 103716" d="M791.4,1396.215l4.9-3.493.539,11.04s-2.716,0-3.763-1.99Z" transform="translate(-663.706 -1304.345)" fill="#ffc3bd"/>
      <path id="Trazado_103717" data-name="Trazado 103717" d="M791.1,1389.622l1.005,10.812-4.9,3.442-.539-11.04Z" transform="translate(-654.073 -1304.458)" fill="#ffc3bd"/>
      <path id="Trazado_103718" data-name="Trazado 103718" d="M873.53,1604.377l-1.638,10.117-8.655-.974,1.638-10.117Z" transform="translate(-814.866 -1296.636)" opacity="0.2" style="isolation: isolate"/>
      <path id="Trazado_103719" data-name="Trazado 103719" d="M902.735,1604.843h8.645l-1.109,10.324h-8.645Z" transform="translate(-892.512 -1296.583)" opacity="0.2" style="isolation: isolate"/>
      <path id="Trazado_103720" data-name="Trazado 103720" d="M864.853,1361.8a4.935,4.935,0,0,0-3.743,5.89c.01.044.021.089.032.132a203.207,203.207,0,0,1,4.229,23.624c.819,6.7,1.306,13.092,1.607,18.887.726,13.579.425,23.935.829,27.449l46.118-3.193c4.685-36.7-.8-60.122-3.887-69.628a8.234,8.234,0,0,0-6.738-5.639c-1.773-.228-3.887-.456-6.126-.591-.778,0-1.576-.073-2.374-.093a171.567,171.567,0,0,0-19.623,1.316c-1.234.145-2.477.332-3.69.519C869.072,1360.9,866.76,1361.379,864.853,1361.8Z" transform="translate(-854.753 -1305.592)" fill="#344154"/>
      <path id="Trazado_103721" data-name="Trazado 103721" d="M880.8,1338.522c1.679,6.22,3.721,17.684-.394,22.2,10.688,7.194,17.508,17.311,19.478,15.113,1.036-1.151,1.472-14.512.124-16.482-7.153-1.192-7.339-6.417-6.458-11.4Z" transform="translate(-859.978 -1306.328)" fill="#ffc3bd"/>
      <path id="Trazado_103722" data-name="Trazado 103722" d="M882.783,1357.452s17.425,7.712,19.7,24.94c-4.789-5.556-15.393-11.6-15.393-11.6l4.675-1.337a47.828,47.828,0,0,0-9.184-2.478c.518-2.384-2.249-7.132-2.249-7.132Z" transform="translate(-861.529 -1305.635)" fill="#d9a171"/>
      <path id="Trazado_103723" data-name="Trazado 103723" d="M875.768,1357.182s-2.312,9.848,4.012,25.22c.985-5.867,5.121-15.684,5.121-15.684l-4.271,1.151s.218-1.98,3.67-4.623c-1.286-2.467-5.307-5.38-5.307-5.38Z" transform="translate(-838.8 -1305.645)" fill="#d9a171"/>
      <path id="Trazado_103724" data-name="Trazado 103724" d="M887.579,1342.232l7.546,5.577a19.63,19.63,0,0,0-.363,3.524c-2.716-.2-6.614-2.892-7.09-5.691A9.407,9.407,0,0,1,887.579,1342.232Z" transform="translate(-861.578 -1306.193)" opacity="0.2" style="isolation: isolate"/>
      <path id="Trazado_103725" data-name="Trazado 103725" d="M876.906,1321.142c4.219.177,6.541,7.443,2.27,13.476S871.236,1320.9,876.906,1321.142Z" transform="translate(-833.946 -1306.964)" fill="#344154"/>
      <path id="Trazado_103726" data-name="Trazado 103726" d="M875.685,1327.706c-.5,8.563-1.223,13.548,2.54,18.421,5.67,7.339,16.637,4.716,19.7-3.525,2.737-7.422,3.11-20.182-4.82-24.557a11.7,11.7,0,0,0-17.415,9.661Z" transform="translate(-853.509 -1307.133)" fill="#ffc3bd"/>
      <path id="Trazado_103727" data-name="Trazado 103727" d="M880.729,1334.61c6.489-4.146,8.78-9.609,9.278-12.356,2.519.59,15.02,6.344,18.866,0s-1.037-10.076-8.189-6.168c3.182-5.618.29-8.365-9.713-8.614s-8.655,5.556-8.655,5.556-7.567-3.3-10.252,2.508C868.964,1322.213,874.686,1333.6,880.729,1334.61Z" transform="translate(-859.808 -1307.464)" fill="#344154"/>
      <path id="Trazado_103728" data-name="Trazado 103728" d="M904.51,1311.472c-.093,0-3.783.892-8.044-3.389.757,3.649,7.37,6.085,7.37,6.085Z" transform="translate(-880.292 -1307.442)" fill="#344154"/>
      <path id="Trazado_103729" data-name="Trazado 103729" d="M895.614,1323.449c3.98-1.379,8.811,4.53,7.028,11.662S890.234,1325.3,895.614,1323.449Z" transform="translate(-876.362 -1306.887)" fill="#344154"/>
      <path id="Trazado_103730" data-name="Trazado 103730" d="M895.856,1334.342a8.1,8.1,0,0,0,3.317,5.266c2.343,1.638,4.457-.228,4.592-2.933.125-2.436-.954-6.22-3.68-6.779S895.431,1331.73,895.856,1334.342Z" transform="translate(-878.863 -1306.647)" fill="#ffc3bd"/>
      <path id="Trazado_103731" data-name="Trazado 103731" d="M867.863,1529.258c-2.073-25.272-17.311-95.252-17.311-95.252l30.32-2.094s11.693,69.452,12.584,95.822c.933,27.418-10.1,88.339-10.1,88.339l-14.513-1.659S869.957,1554.644,867.863,1529.258Z" transform="translate(-821.7 -1302.911)" fill="#d9a171"/>
      <path id="Trazado_103732" data-name="Trazado 103732" d="M867.863,1529.258c-2.073-25.272-17.311-95.252-17.311-95.252l30.32-2.094s11.693,69.452,12.584,95.822c.933,27.418-10.1,88.339-10.1,88.339l-14.513-1.659S869.957,1554.644,867.863,1529.258Z" transform="translate(-821.7 -1302.911)" fill="#fff" opacity="0.5" style="isolation: isolate"/>
      <path id="Trazado_103733" data-name="Trazado 103733" d="M880.934,1456.792c6.116,7.816,6.22,35.244,3.856,55.541-2.25-14.637-5.795-33.171-8.915-48.72Z" transform="translate(-840.659 -1302.001)" opacity="0.2" style="isolation: isolate"/>
      <path id="Trazado_103734" data-name="Trazado 103734" d="M915.418,1432.992s-3.276,73.992-6.924,99.046c-3.991,27.439-14.139,87.457-14.139,87.457H878.526s2.6-56.484,4.7-83.446c2.374-30.7,2.436-100.943,2.436-100.943Z" transform="translate(-872.604 -1302.871)" fill="#d9a171"/>
      <path id="Trazado_103735" data-name="Trazado 103735" d="M915.418,1432.992s-3.276,73.992-6.924,99.046c-3.991,27.439-14.139,87.457-14.139,87.457H878.526s2.6-56.484,4.7-83.446c2.374-30.7,2.436-100.943,2.436-100.943Z" transform="translate(-872.604 -1302.871)" fill="#fff" opacity="0.5" style="isolation: isolate"/>
      <path id="Trazado_103736" data-name="Trazado 103736" d="M913.534,1613.412H894.9v-5.567l20.835-.363Z" transform="translate(-889.886 -1296.486)" fill="#d9a171"/>
      <path id="Trazado_103737" data-name="Trazado 103737" d="M874.448,1611.4l-17.332-1.969.632-5.6,19.4,1.9Z" transform="translate(-812.146 -1296.62)" fill="#d9a171"/>
      <path id="Trazado_103738" data-name="Trazado 103738" d="M884.684,1331.133c-.083.694.218,1.306.674,1.358s.881-.467.974-1.161-.218-1.3-.674-1.347S884.767,1330.449,884.684,1331.133Z" transform="translate(-849.903 -1306.641)" fill="#344154"/>
      <path id="Trazado_103739" data-name="Trazado 103739" d="M877.167,1332.042c-.083.695.218,1.3.674,1.358s.881-.466.964-1.161-.218-1.3-.664-1.348S877.27,1331.348,877.167,1332.042Z" transform="translate(-834.58 -1306.607)" fill="#344154"/>
      <path id="Trazado_103740" data-name="Trazado 103740" d="M879.444,1332.052a24.95,24.95,0,0,0,2.6,6.313,4.033,4.033,0,0,1-3.39.218Z" transform="translate(-839.366 -1306.565)" fill="#ed847e"/>
      <path id="Trazado_103741" data-name="Trazado 103741" d="M884.984,1328.443a.4.4,0,0,0,.415-.1,3.277,3.277,0,0,1,2.768-1.036.414.414,0,0,0,.513-.283.437.437,0,0,0,.015-.09.4.4,0,0,0-.3-.471l-.033-.006a4.036,4.036,0,0,0-3.5,1.275.4.4,0,0,0-.009.572l.009.008A.465.465,0,0,0,884.984,1328.443Z" transform="translate(-852.328 -1306.771)" fill="#344154"/>
      <path id="Trazado_103742" data-name="Trazado 103742" d="M889.675,1341.163h0a6.277,6.277,0,0,1-4.478-3.68.218.218,0,0,1,.124-.28.229.229,0,0,1,.29.135,5.938,5.938,0,0,0,4.146,3.39.222.222,0,0,1-.083.435Z" transform="translate(-854.013 -1306.377)" fill="#344154"/>
      <path id="Trazado_103743" data-name="Trazado 103743" d="M877.314,1329.9a.332.332,0,0,0,.249,0,.415.415,0,0,0,.259-.518,4.087,4.087,0,0,0-2.643-2.643.4.4,0,0,0-.494.288l0,.013a.394.394,0,0,0,.276.484l.015,0h0a3.258,3.258,0,0,1,2.073,2.073A.371.371,0,0,0,877.314,1329.9Z" transform="translate(-831.027 -1306.76)" fill="#344154"/>
      <path id="Trazado_103744" data-name="Trazado 103744" d="M900.662,1624.718a2.6,2.6,0,0,0,1.659-.446,1.224,1.224,0,0,0,.425-1.037.635.635,0,0,0-.352-.581c-.954-.5-3.742,1.224-4.053,1.42a.187.187,0,0,0-.093.208.2.2,0,0,0,.156.166A10.053,10.053,0,0,0,900.662,1624.718Zm1.285-1.793a.607.607,0,0,1,.259.052.251.251,0,0,1,.135.239.839.839,0,0,1-.28.746c-.477.394-1.607.456-3.11.156A8.376,8.376,0,0,1,901.947,1622.925Z" transform="translate(-880.373 -1295.934)" fill="#d9a171"/>
      <path id="Trazado_103745" data-name="Trazado 103745" d="M900.132,1624.48a.178.178,0,0,0,.1,0c.891-.488,2.623-2.385,2.436-3.338a.675.675,0,0,0-.653-.539,1.1,1.1,0,0,0-.871.259c-1.036.819-1.213,3.317-1.213,3.421a.165.165,0,0,0,.2.2Zm1.71-3.5h.083c.269,0,.29.155.3.207.114.57-1.037,2-1.876,2.674a4.843,4.843,0,0,1,1.037-2.705A.721.721,0,0,1,901.843,1620.976Z" transform="translate(-882.061 -1296.007)" fill="#d9a171"/>
      <path id="Trazado_103746" data-name="Trazado 103746" d="M860.529,1623.121h0c1.348.436,3.773,1.037,4.81.321a1.122,1.122,0,0,0,.487-.943.655.655,0,0,0-.27-.581c-.974-.684-4.634.663-5.038.819a.216.216,0,0,0-.135.2A.194.194,0,0,0,860.529,1623.121Zm4.779-.891h0a.273.273,0,0,1,.1.238.735.735,0,0,1-.321.622c-.58.415-2,.332-3.866-.2,1.5-.467,3.483-.974,4.084-.664Z" transform="translate(-804.208 -1295.966)" fill="#d9a171"/>
      <path id="Trazado_103747" data-name="Trazado 103747" d="M862.262,1623.2a.227.227,0,0,0,.166,0c1.088-.342,3.348-1.97,3.3-2.954,0-.238-.135-.539-.684-.653a1.472,1.472,0,0,0-1.172.218c-1.192.777-1.69,3.11-1.71,3.11a.226.226,0,0,0,.062.2Zm2.913-3.109c.135.072.145.155.145.2,0,.591-1.534,1.887-2.664,2.405a4.788,4.788,0,0,1,1.441-2.519,1.041,1.041,0,0,1,.85-.166.73.73,0,0,1,.228.073Z" transform="translate(-805.941 -1296.045)" fill="#d9a171"/>
      <path id="Trazado_103748" data-name="Trazado 103748" d="M871.156,1373.745c.218,3.379.612,6.52,1.037,9.764s.964,6.427,1.575,9.641a113.559,113.559,0,0,0,5.318,19.26l1.037,2.415.259.6.062.156.1.228.311.643a10.446,10.446,0,0,0,1.43,2.073,12.6,12.6,0,0,0,3.11,2.571,18.434,18.434,0,0,0,2.975,1.441,38.847,38.847,0,0,0,10.636,2.229,89.1,89.1,0,0,0,19.778-.736l-.238-6.489-4.572-.518c-1.534-.176-3.058-.415-4.571-.622-3.027-.446-6.022-.943-8.883-1.607a33.809,33.809,0,0,1-7.64-2.529,4.22,4.22,0,0,1-1.669-1.275c0-.156.3.5-.083-.539l-.684-2a130.552,130.552,0,0,1-3.835-17.477c-.5-3.006-.912-6.043-1.327-9.091s-.736-6.147-1.036-9.06Z" transform="translate(-868.333 -1305.073)" fill="#ffc3bd"/>
      <path id="Trazado_103749" data-name="Trazado 103749" d="M898.949,1367.881c-4.229,7.09-.622,29.4-.622,29.4l22.183-4.146s1.2-12.771-3.027-22.577C912.892,1359.921,904.07,1359.278,898.949,1367.881Z" transform="translate(-896.894 -1305.471)" fill="#d9a171"/>
      <path id="Trazado_103750" data-name="Trazado 103750" d="M810.959,1437.443l11.765-54.732a11.071,11.071,0,0,1,10.293-8.469h45.071a11.092,11.092,0,0,0-10.293,8.469l-11.755,54.732a11.089,11.089,0,0,1-10.293,8.469H800.666A11.079,11.079,0,0,0,810.959,1437.443Z" transform="translate(-754.566 -1305.021)" fill="#344154"/>
      <path id="Trazado_103751" data-name="Trazado 103751" d="M810.959,1437.443l11.765-54.732a11.071,11.071,0,0,1,10.293-8.469h45.071a11.092,11.092,0,0,0-10.293,8.469l-11.755,54.732a11.089,11.089,0,0,1-10.293,8.469H800.666A11.079,11.079,0,0,0,810.959,1437.443Z" transform="translate(-754.566 -1305.021)" fill="#d9a171" opacity="0.7" style="isolation: isolate"/>
      <rect id="Rectángulo_5636" data-name="Rectángulo 5636" width="12.502" height="3.327" transform="translate(140.07 148.002) rotate(-95.143)" fill="#d9a171"/>
      <rect id="Rectángulo_5637" data-name="Rectángulo 5637" width="5.12" height="2.007" transform="matrix(-0.092, -0.996, 0.996, -0.092, 142.402, 159.586)" fill="#d9a171"/>
      <path id="Trazado_103752" data-name="Trazado 103752" d="M825.49,1374.242H780.419a9.465,9.465,0,0,1,9.236,8.469l11.693,127.169a9.473,9.473,0,0,0,9.246,8.469h28.133a7.608,7.608,0,0,0,7.75-7.464,7.736,7.736,0,0,0-.048-1l-11.693-127.169A9.475,9.475,0,0,0,825.49,1374.242Z" transform="translate(-701.966 -1305.021)" fill="#d9a171"/>
      <path id="Trazado_103753" data-name="Trazado 103753" d="M771.779,1505.092a7.609,7.609,0,0,1-6.7,8.421,7.487,7.487,0,0,1-1,.048h45.081a7.6,7.6,0,0,0,7.74-7.453,7.772,7.772,0,0,0-.049-1.016Z" transform="translate(-655.45 -1300.233)" fill="#344154"/>
      <path id="Trazado_103754" data-name="Trazado 103754" d="M771.779,1505.092a7.609,7.609,0,0,1-6.7,8.421,7.487,7.487,0,0,1-1,.048h45.081a7.6,7.6,0,0,0,7.74-7.453,7.772,7.772,0,0,0-.049-1.016Z" transform="translate(-655.45 -1300.233)" fill="#d9a171" opacity="0.7" style="isolation: isolate"/>
      <g id="Grupo_59418" data-name="Grupo 59418" transform="translate(93.483 79.784)" opacity="0.5">
        <path id="Trazado_103755" data-name="Trazado 103755" d="M798.615,1388.122h30.559a1.658,1.658,0,0,0,1.679-1.637,1.761,1.761,0,0,0-.01-.208h0a2.073,2.073,0,0,0-2.011-1.845H798.325a1.658,1.658,0,0,0-1.679,1.637,1.528,1.528,0,0,0,.011.208h0A2.072,2.072,0,0,0,798.615,1388.122Z" transform="translate(-796.646 -1384.432)" fill="#fff"/>
        <path id="Trazado_103756" data-name="Trazado 103756" d="M797.787,1397.743h30.507a1.659,1.659,0,0,0,1.69-1.626,1.737,1.737,0,0,0-.01-.219h0a2.074,2.074,0,0,0-2.011-1.845H797.456a1.659,1.659,0,0,0-1.69,1.627,1.679,1.679,0,0,0,.01.218h0A2.073,2.073,0,0,0,797.787,1397.743Z" transform="translate(-794.864 -1384.08)" fill="#fff"/>
        <path id="Trazado_103757" data-name="Trazado 103757" d="M796.907,1407.372h23.044a1.658,1.658,0,0,0,1.679-1.637,1.769,1.769,0,0,0-.01-.208h0a2.074,2.074,0,0,0-2.011-1.845H796.586a1.658,1.658,0,0,0-1.679,1.845h0A2.072,2.072,0,0,0,796.907,1407.372Z" transform="translate(-785.608 -1383.728)" fill="#fff"/>
        <path id="Trazado_103758" data-name="Trazado 103758" d="M796.039,1417.042h7.805a1.659,1.659,0,0,0,1.689-1.627,1.748,1.748,0,0,0-.009-.208h0a2.073,2.073,0,0,0-2.011-1.845H795.7a1.659,1.659,0,0,0-1.679,1.638,1.533,1.533,0,0,0,.01.207h0A2.072,2.072,0,0,0,796.039,1417.042Z" transform="translate(-768.6 -1383.373)" fill="#fff"/>
        <path id="Trazado_103759" data-name="Trazado 103759" d="M795.127,1426.622h30.528a1.658,1.658,0,0,0,1.679-1.637,1.776,1.776,0,0,0-.01-.208h0a2.074,2.074,0,0,0-2.011-1.845h-30.5a1.658,1.658,0,0,0-1.679,1.845h0A2.072,2.072,0,0,0,795.127,1426.622Z" transform="translate(-789.477 -1383.023)" fill="#fff"/>
        <path id="Trazado_103760" data-name="Trazado 103760" d="M794.276,1436.252h18.5a1.659,1.659,0,0,0,1.69-1.627,1.736,1.736,0,0,0-.01-.219h0a2.074,2.074,0,0,0-2.011-1.845H793.955a1.669,1.669,0,0,0-1.689,1.649,1.56,1.56,0,0,0,.009.2h0A2.073,2.073,0,0,0,794.276,1436.252Z" transform="translate(-775.721 -1382.671)" fill="#fff"/>
        <path id="Trazado_103761" data-name="Trazado 103761" d="M793.4,1445.872H823.9a1.658,1.658,0,0,0,1.679-1.637,1.79,1.79,0,0,0-.01-.208h0a2.073,2.073,0,0,0-2.011-1.845H793.085a1.669,1.669,0,0,0-1.689,1.649,1.538,1.538,0,0,0,.009.2h0A2.072,2.072,0,0,0,793.4,1445.872Z" transform="translate(-785.932 -1382.319)" fill="#fff"/>
        <path id="Trazado_103762" data-name="Trazado 103762" d="M792.537,1455.5H815.56a1.659,1.659,0,0,0,1.69-1.627,1.715,1.715,0,0,0-.01-.219h0a2.074,2.074,0,0,0-2.011-1.845H792.206a1.659,1.659,0,0,0-1.69,1.628,1.709,1.709,0,0,0,.01.218h0A2.073,2.073,0,0,0,792.537,1455.5Z" transform="translate(-776.688 -1381.967)" fill="#fff"/>
        <path id="Trazado_103763" data-name="Trazado 103763" d="M791.659,1465.132h7.816a1.668,1.668,0,0,0,1.688-1.648c0-.066,0-.132-.009-.2h0a2.074,2.074,0,0,0-2.021-1.845h-7.806a1.659,1.659,0,0,0-1.69,1.627,1.685,1.685,0,0,0,.01.218h0A2.073,2.073,0,0,0,791.659,1465.132Z" transform="translate(-759.69 -1381.614)" fill="#fff"/>
        <path id="Trazado_103764" data-name="Trazado 103764" d="M790.787,1474.752h30.5a1.659,1.659,0,0,0,1.69-1.626,1.7,1.7,0,0,0-.01-.218h0a2.073,2.073,0,0,0-2.011-1.845H790.445a1.659,1.659,0,0,0-1.679,1.638,1.5,1.5,0,0,0,.01.208h0A2.072,2.072,0,0,0,790.787,1474.752Z" transform="translate(-780.598 -1381.262)" fill="#fff"/>
        <path id="Trazado_103765" data-name="Trazado 103765" d="M789.907,1484.383H808.4a1.659,1.659,0,0,0,1.69-1.627,1.726,1.726,0,0,0-.01-.219h0a2.074,2.074,0,0,0-2.011-1.845H789.576a1.659,1.659,0,0,0-1.69,1.628,1.715,1.715,0,0,0,.01.218h0A2.073,2.073,0,0,0,789.907,1484.383Z" transform="translate(-766.802 -1380.91)" fill="#fff"/>
        <path id="Trazado_103766" data-name="Trazado 103766" d="M789.036,1494.042h30.5a1.659,1.659,0,0,0,1.69-1.626,1.715,1.715,0,0,0-.01-.219h0a2.075,2.075,0,0,0-2.011-1.835H788.694a1.659,1.659,0,0,0-1.678,1.639,1.549,1.549,0,0,0,.009.2h0A2.073,2.073,0,0,0,789.036,1494.042Z" transform="translate(-777.032 -1380.556)" fill="#fff"/>
      </g>
      <path id="Trazado_103767" data-name="Trazado 103767" d="M864.586,1416.735l6.624-5.753,3.11,10.594s-6.727,3.649-9.049.3Z" transform="translate(-817.055 -1303.677)" fill="#ffc3bd"/>
      <path id="Trazado_103768" data-name="Trazado 103768" d="M865.76,1410.582l2.156,8.884-6.261,2.125-3.1-10.594Z" transform="translate(-804.401 -1303.691)" fill="#ffc3bd"/>
    </g>
    <g id="Grupo_87379" data-name="Grupo 87379" transform="translate(16.972 218.856)">
      <g id="Grupo_58071" data-name="Grupo 58071">
        <g id="Grupo_58065" data-name="Grupo 58065">
          <g id="Grupo_58064" data-name="Grupo 58064">
            <path id="Trazado_102311" data-name="Trazado 102311" d="M404.439,5175.576a27.606,27.606,0,1,1-31.4-23.12A27.575,27.575,0,0,1,404.439,5175.576Z" transform="translate(-349.533 -5152.144)" fill="#f5f5f5"/>
          </g>
        </g>
        <g id="Grupo_58067" data-name="Grupo 58067" transform="translate(6.569 6.555)">
          <g id="Grupo_58066" data-name="Grupo 58066">
            <path id="Trazado_102312" data-name="Trazado 102312" d="M400.269,5178.877a21.037,21.037,0,1,1-23.931-17.618A21.014,21.014,0,0,1,400.269,5178.877Z" transform="translate(-358.428 -5161.021)" fill="#ececec"/>
          </g>
        </g>
        <g id="Grupo_58070" data-name="Grupo 58070" transform="translate(6.183 5.756)">
          <g id="Grupo_58069" data-name="Grupo 58069">
            <g id="Grupo_58068" data-name="Grupo 58068">
              <path id="Trazado_102313" data-name="Trazado 102313" d="M400.029,5177.942a12.319,12.319,0,0,1-.927-2.417,22.354,22.354,0,0,0-3.361-6.016,21.656,21.656,0,0,0-3.324-3.364,21.067,21.067,0,0,0-4.611-2.817,20.574,20.574,0,0,0-5.728-1.616,20.447,20.447,0,0,0-3.148-.168,22.768,22.768,0,0,0-3.23.33,22.417,22.417,0,0,0-3.138.837,20.47,20.47,0,0,0-2.885,1.27,20.671,20.671,0,0,0-4.785,3.539,21.079,21.079,0,0,0-3.314,4.269,21.525,21.525,0,0,0-1.917,4.325,22.321,22.321,0,0,0-1.011,6.814,12.292,12.292,0,0,1-.01,2.587,6.176,6.176,0,0,1-.617-2.551,19.469,19.469,0,0,1,.541-7.165,21.1,21.1,0,0,1,5.268-9.319,21.519,21.519,0,0,1,5.09-3.886,21.561,21.561,0,0,1,3.1-1.393,21.522,21.522,0,0,1,6.869-1.256,21.36,21.36,0,0,1,3.4.2,21.532,21.532,0,0,1,6.136,1.831,21.118,21.118,0,0,1,8.229,6.849,19.489,19.489,0,0,1,3.045,6.507A6.187,6.187,0,0,1,400.029,5177.942Z" transform="translate(-357.905 -5159.938)" fill="#e1e1e1"/>
            </g>
          </g>
        </g>
      </g>
      <g id="Grupo_58075" data-name="Grupo 58075" transform="translate(18.243 12.872)">
        <g id="Grupo_58074" data-name="Grupo 58074">
          <g id="Grupo_58073" data-name="Grupo 58073">
            <g id="Grupo_58072" data-name="Grupo 58072">
              <path id="Trazado_102314" data-name="Trazado 102314" d="M387.822,5196.3l.6,3.616-3.228.534-.582-3.517a15.516,15.516,0,0,1-8.464-1.251l1.123-4.233a13.236,13.236,0,0,0,6.642,1.254l-.893-5.392c-3.727-.276-7.927-.808-8.691-5.424-.566-3.42,1.433-6.771,6.437-8.2l-.593-3.583,3.228-.534.583,3.519a14.81,14.81,0,0,1,6.878.883l-.956,4.237a13.438,13.438,0,0,0-5.217-.86l.909,5.488c3.721.246,7.857.789,8.611,5.339C394.76,5191.537,392.788,5194.848,387.822,5196.3Zm-5.589-13.733-.76-4.583c-1.646.671-2.169,1.718-1.993,2.784C379.668,5181.9,380.737,5182.351,382.233,5182.567Zm6.839,6.86c-.187-1.13-1.225-1.587-2.693-1.844l.737,4.456C388.672,5191.418,389.244,5190.46,389.072,5189.427Z" transform="translate(-374.233 -5169.573)" fill="#e1e1e1"/>
            </g>
          </g>
        </g>
      </g>
    </g>
    <g id="Grupo_87380" data-name="Grupo 87380" transform="translate(205.613 312.085)">
      <path id="Trazado_141801" data-name="Trazado 141801" d="M830.478,1666.918s-4.161-7-.946-12.483.189-11.064-2.553-9.929-4.444,5.39-7.848,5.58-5.863-2.648-8.984-1.135.189,4.54-4.35,5.769,9.646,9.432,9.646,9.432l-.473,5.982Z" transform="translate(-787.042 -1644.357)" fill="#d9a171"/>
      <path id="Trazado_141802" data-name="Trazado 141802" d="M845.283,1689.974s-.284-6.809-5.863-6.714c-3.343.057-7.706,1.506-10.665,2.658a5.122,5.122,0,0,0-2.551,7.439l.073.116Z" transform="translate(-799.672 -1668.265)" fill="#a66d58"/>
      <path id="Trazado_141803" data-name="Trazado 141803" d="M847.331,1742.353H758.567s2.834-33.448,25.781-43.817h0a33.48,33.48,0,0,1,8.764-2.582C802.885,1694.447,829.933,1698.729,847.331,1742.353Z" transform="translate(-758.567 -1675.916)" fill="#d9a171"/>
      <g id="Grupo_87373" data-name="Grupo 87373" transform="translate(35.629 31.746)">
        <path id="Trazado_141804" data-name="Trazado 141804" d="M862.957,1740.8v-5.822a13.978,13.978,0,0,1,5.239,1.781l1.71-4.216a15.511,15.511,0,0,0-6.949-2.089v-3.733h-3.425v3.8c-5.414.616-8.048,3.733-8.048,7.361,0,4.9,4.244,6.163,8.048,7.091v5.718a13.894,13.894,0,0,1-6.646-2.431l-1.881,4.178a16.194,16.194,0,0,0,8.527,2.738v3.733h3.425v-3.837c5.376-.649,7.977-3.733,7.977-7.29C870.934,1742.953,866.756,1741.688,862.957,1740.8Zm-3.425-.857c-1.506-.479-2.534-1.132-2.534-2.331,0-1.128.72-2.122,2.534-2.534Zm3.425,10.615v-4.728c1.473.517,2.463,1.166,2.463,2.364C865.42,1749.291,864.667,1750.181,862.957,1750.555Z" transform="translate(-851.006 -1726.72)" fill="#fbcdc8"/>
      </g>
      <g id="Grupo_87374" data-name="Grupo 87374" transform="translate(0 22.62)" style="mix-blend-mode: multiply;isolation: isolate">
        <path id="Trazado_141805" data-name="Trazado 141805" d="M815.429,1746.861H758.567s2.834-33.448,25.781-43.817h0S745.179,1742.16,815.429,1746.861Z" transform="translate(-758.567 -1703.044)" fill="#a66d58"/>
      </g>
    </g>
    <g id="Grupo_87381" data-name="Grupo 87381" transform="translate(66.031 184.47) rotate(-43)">
      <g id="Grupo_81848" data-name="Grupo 81848" transform="translate(0 0)">
        <g id="Grupo_81829" data-name="Grupo 81829">
          <g id="Grupo_81828" data-name="Grupo 81828">
            <g id="Grupo_81827" data-name="Grupo 81827">
              <g id="Grupo_81826" data-name="Grupo 81826">
                <g id="Grupo_81825" data-name="Grupo 81825">
                  <g id="Grupo_81824" data-name="Grupo 81824">
                    <path id="Trazado_139735" data-name="Trazado 139735" d="M36.677,66.032,3.061,55.157A4.42,4.42,0,0,1,.216,49.59L15.267,3.062A4.421,4.421,0,0,1,20.834.216l21.32,6.9,11,22.348L42.244,63.186A4.421,4.421,0,0,1,36.677,66.032Z" fill="#d9a171"/>
                  </g>
                </g>
              </g>
            </g>
          </g>
        </g>
        <g id="Grupo_81835" data-name="Grupo 81835" transform="translate(37.716 7.113)">
          <g id="Grupo_81834" data-name="Grupo 81834" transform="translate(0 0)">
            <g id="Grupo_81833" data-name="Grupo 81833">
              <g id="Grupo_81832" data-name="Grupo 81832">
                <g id="Grupo_81831" data-name="Grupo 81831">
                  <g id="Grupo_81830" data-name="Grupo 81830">
                    <path id="Trazado_139736" data-name="Trazado 139736" d="M4.437,0,.2,13.1a4.111,4.111,0,0,0,2.646,5.177l12.591,4.075Z" fill="#f2e9e4"/>
                  </g>
                </g>
              </g>
            </g>
          </g>
        </g>
        <g id="Grupo_81841" data-name="Grupo 81841" transform="translate(37.505 21.412)" opacity="0.2">
          <g id="Grupo_81840" data-name="Grupo 81840" transform="translate(0 0)">
            <g id="Grupo_81839" data-name="Grupo 81839">
              <g id="Grupo_81838" data-name="Grupo 81838">
                <g id="Grupo_81837" data-name="Grupo 81837">
                  <g id="Grupo_81836" data-name="Grupo 81836">
                    <path id="Trazado_139737" data-name="Trazado 139737" d="M.212,0A4.572,4.572,0,0,0,2.3,5.337a4.381,4.381,0,0,0,.384.227c1.549.825,11.749,6.252,11.829,6,.088-.269,1.139-3.519,1.139-3.519L3.057,3.975S-.052,2.851.212,0Z"/>
                  </g>
                </g>
              </g>
            </g>
          </g>
        </g>
      </g>
      <g id="Grupo_81853" data-name="Grupo 81853" transform="translate(19.719 13.712)">
        <g id="Grupo_81852" data-name="Grupo 81852" transform="translate(0 0)">
          <g id="Grupo_81851" data-name="Grupo 81851">
            <g id="Grupo_81850" data-name="Grupo 81850">
              <g id="Grupo_81849" data-name="Grupo 81849">
                <path id="Trazado_139739" data-name="Trazado 139739" d="M15.553,5.049c-.055.168-3.581-.822-7.874-2.211S-.054.186,0,.019,3.58.84,7.876,2.229,15.607,4.881,15.553,5.049Z" fill="#fafafa"/>
              </g>
            </g>
          </g>
        </g>
      </g>
      <g id="Grupo_81858" data-name="Grupo 81858" transform="translate(17.324 21.123)">
        <g id="Grupo_81857" data-name="Grupo 81857" transform="translate(0 0)">
          <g id="Grupo_81856" data-name="Grupo 81856">
            <g id="Grupo_81855" data-name="Grupo 81855">
              <g id="Grupo_81854" data-name="Grupo 81854">
                <path id="Trazado_139740" data-name="Trazado 139740" d="M25.6,8.291c-.055.168-5.829-1.549-12.9-3.835S-.054.18,0,.011,5.828,1.56,12.9,3.847,25.651,8.124,25.6,8.291Z" fill="#fafafa"/>
              </g>
            </g>
          </g>
        </g>
      </g>
      <g id="Grupo_81863" data-name="Grupo 81863" transform="translate(15.323 27.306)">
        <g id="Grupo_81862" data-name="Grupo 81862" transform="translate(0 0)">
          <g id="Grupo_81861" data-name="Grupo 81861">
            <g id="Grupo_81860" data-name="Grupo 81860">
              <g id="Grupo_81859" data-name="Grupo 81859">
                <path id="Trazado_139741" data-name="Trazado 139741" d="M27.9,9.036c-.055.168-6.345-1.716-14.049-4.207S-.054.179,0,.01s6.344,1.715,14.05,4.208S27.956,8.868,27.9,9.036Z" fill="#fafafa"/>
              </g>
            </g>
          </g>
        </g>
      </g>
      <g id="Grupo_81868" data-name="Grupo 81868" transform="translate(13.436 33.139)">
        <g id="Grupo_81867" data-name="Grupo 81867" transform="translate(0 0)">
          <g id="Grupo_81866" data-name="Grupo 81866">
            <g id="Grupo_81865" data-name="Grupo 81865">
              <g id="Grupo_81864" data-name="Grupo 81864">
                <path id="Trazado_139742" data-name="Trazado 139742" d="M27.9,9.036c-.055.168-6.345-1.716-14.049-4.208S-.054.179,0,.01s6.344,1.716,14.05,4.209S27.957,8.868,27.9,9.036Z" fill="#fafafa"/>
              </g>
            </g>
          </g>
        </g>
      </g>
      <g id="Grupo_81873" data-name="Grupo 81873" transform="translate(11.55 38.973)">
        <g id="Grupo_81872" data-name="Grupo 81872" transform="translate(0 0)">
          <g id="Grupo_81871" data-name="Grupo 81871">
            <g id="Grupo_81870" data-name="Grupo 81870">
              <g id="Grupo_81869" data-name="Grupo 81869">
                <path id="Trazado_139743" data-name="Trazado 139743" d="M27.9,9.036c-.054.168-6.345-1.715-14.048-4.207S-.054.179,0,.01s6.344,1.715,14.05,4.208S27.956,8.868,27.9,9.036Z" fill="#fafafa"/>
              </g>
            </g>
          </g>
        </g>
      </g>
      <g id="Grupo_81878" data-name="Grupo 81878" transform="translate(9.663 44.805)">
        <g id="Grupo_81877" data-name="Grupo 81877" transform="translate(0 0)">
          <g id="Grupo_81876" data-name="Grupo 81876">
            <g id="Grupo_81875" data-name="Grupo 81875">
              <g id="Grupo_81874" data-name="Grupo 81874">
                <path id="Trazado_139744" data-name="Trazado 139744" d="M27.9,9.036c-.055.168-6.345-1.716-14.049-4.208S-.054.179,0,.01s6.344,1.716,14.05,4.209S27.956,8.868,27.9,9.036Z" fill="#fafafa"/>
              </g>
            </g>
          </g>
        </g>
      </g>
    </g>
    <g id="Grupo_87382" data-name="Grupo 87382" transform="translate(124.453 254.195) rotate(-90)">
      <path id="Trazado_141631" data-name="Trazado 141631" d="M28.256,22.5,14,0,0,22.5H5.747V51.265h16.76V22.5Z" fill="#aed3f2" stroke="#000" stroke-linecap="round" stroke-linejoin="round" stroke-width="1.5"/>
    </g>
    <g id="Grupo_87383" data-name="Grupo 87383" transform="translate(300.143 52.103) rotate(90)">
      <path id="Trazado_141631-2" data-name="Trazado 141631" d="M28.256,22.5,14,0,0,22.5H5.747V51.265h16.76V22.5Z" fill="#aed3f2" stroke="#000" stroke-linecap="round" stroke-linejoin="round" stroke-width="1.5"/>
    </g>
    <g id="Grupo_87384" data-name="Grupo 87384" transform="translate(0 27.917)">
      <g id="Grupo_82796" data-name="Grupo 82796">
        <g id="Grupo_82787" data-name="Grupo 82787">
          <g id="Grupo_82752" data-name="Grupo 82752">
            <g id="Grupo_82748" data-name="Grupo 82748" transform="translate(0.185 0.186)">
              <g id="Grupo_82747" data-name="Grupo 82747">
                <rect id="Rectángulo_30467" data-name="Rectángulo 30467" width="163.876" height="127.54" fill="#fff"/>
              </g>
            </g>
            <g id="Grupo_82751" data-name="Grupo 82751">
              <g id="Grupo_82750" data-name="Grupo 82750">
                <g id="Grupo_82749" data-name="Grupo 82749">
                  <path id="Trazado_139940" data-name="Trazado 139940" d="M362.453,194.246c0-1.273-.06-50.574-.153-127.54l.153.153-163.862.032h-.014l.185-.185c-.006,45.973-.013,89.455-.018,127.54l-.167-.166,163.876.167-163.876.166h-.166v-.167c-.006-38.084-.012-81.567-.019-127.54V66.52h.2l163.862.032h.153v.153C362.514,143.672,362.455,192.974,362.453,194.246Z" transform="translate(-198.392 -66.52)" fill="#263238"/>
                </g>
              </g>
            </g>
          </g>
          <g id="Grupo_82786" data-name="Grupo 82786" transform="translate(8.178 16.942)">
            <g id="Grupo_82754" data-name="Grupo 82754">
              <g id="Grupo_82753" data-name="Grupo 82753">
                <rect id="Rectángulo_30468" data-name="Rectángulo 30468" width="26.529" height="1.476" fill="#263238"/>
              </g>
            </g>
            <g id="Grupo_82756" data-name="Grupo 82756" transform="translate(0 3.455)">
              <g id="Grupo_82755" data-name="Grupo 82755">
                <rect id="Rectángulo_30469" data-name="Rectángulo 30469" width="13.109" height="1.476" fill="#263238"/>
              </g>
            </g>
            <g id="Grupo_82785" data-name="Grupo 82785" transform="translate(15.125 10.774)">
              <g id="Grupo_82779" data-name="Grupo 82779">
                <g id="Grupo_82757" data-name="Grupo 82757" transform="translate(0 81.685)">
                  <rect id="Rectángulo_30470" data-name="Rectángulo 30470" width="4.805" height="1.385" fill="#263238"/>
                </g>
                <g id="Grupo_82758" data-name="Grupo 82758" transform="translate(10.871 89.088)">
                  <rect id="Rectángulo_30471" data-name="Rectángulo 30471" width="6.145" height="1.385" fill="#263238"/>
                </g>
                <g id="Grupo_82759" data-name="Grupo 82759" transform="translate(32.265 89.088)">
                  <rect id="Rectángulo_30472" data-name="Rectángulo 30472" width="6.145" height="1.385" fill="#263238"/>
                </g>
                <g id="Grupo_82760" data-name="Grupo 82760" transform="translate(53.658 89.088)">
                  <rect id="Rectángulo_30473" data-name="Rectángulo 30473" width="6.145" height="1.385" fill="#263238"/>
                </g>
                <g id="Grupo_82761" data-name="Grupo 82761" transform="translate(75.051 89.088)">
                  <rect id="Rectángulo_30474" data-name="Rectángulo 30474" width="6.145" height="1.385" fill="#263238"/>
                </g>
                <g id="Grupo_82762" data-name="Grupo 82762" transform="translate(96.444 89.088)">
                  <rect id="Rectángulo_30475" data-name="Rectángulo 30475" width="6.145" height="1.385" fill="#263238"/>
                </g>
                <g id="Grupo_82763" data-name="Grupo 82763" transform="translate(117.837 89.088)">
                  <rect id="Rectángulo_30476" data-name="Rectángulo 30476" width="6.145" height="1.385" fill="#263238"/>
                </g>
                <g id="Grupo_82764" data-name="Grupo 82764" transform="translate(0 63.19)">
                  <rect id="Rectángulo_30477" data-name="Rectángulo 30477" width="4.805" height="1.385" fill="#263238"/>
                </g>
                <g id="Grupo_82765" data-name="Grupo 82765" transform="translate(0 28.381)">
                  <rect id="Rectángulo_30478" data-name="Rectángulo 30478" width="4.805" height="1.385" fill="#263238"/>
                </g>
                <g id="Grupo_82766" data-name="Grupo 82766" transform="translate(0 10.888)">
                  <rect id="Rectángulo_30479" data-name="Rectángulo 30479" width="4.805" height="1.385" fill="#263238"/>
                </g>
                <g id="Grupo_82767" data-name="Grupo 82767" transform="translate(0.244 45.785)">
                  <rect id="Rectángulo_30480" data-name="Rectángulo 30480" width="4.805" height="1.385" fill="#263238"/>
                </g>
                <g id="Grupo_82769" data-name="Grupo 82769" transform="translate(7.148)">
                  <g id="Grupo_82768" data-name="Grupo 82768">
                    <path id="Trazado_139941" data-name="Trazado 139941" d="M362.923,193.157s-.174.011-.515.017l-1.513.017-5.814.031-21.385.053-70.552.048-16.72,0h-.163v-.163c.022-23.6.041-44.359.055-59.235.021-7.428.038-13.382.05-17.492.012-2.043.022-3.626.028-4.709.006-.53.011-.935.015-1.219s.015-.415.015-.415.01.141.015.415.008.689.015,1.219c.006,1.083.016,2.665.028,4.709.011,4.109.028,10.064.049,17.492.014,14.875.034,35.639.056,59.235l-.164-.163,16.72,0,70.552.048,21.385.053,5.814.031,1.513.017C362.748,193.146,362.923,193.157,362.923,193.157Z" transform="translate(-246.261 -110.088)" fill="#263238"/>
                  </g>
                </g>
                <g id="Grupo_82771" data-name="Grupo 82771" transform="translate(11.96 46.312)">
                  <g id="Grupo_82770" data-name="Grupo 82770">
                    <path id="Trazado_139942" data-name="Trazado 139942" d="M367.029,183.055c0,.092-25.343.165-56.6.165s-56.6-.074-56.6-.165,25.338-.165,56.6-.165S367.029,182.964,367.029,183.055Z" transform="translate(-253.825 -182.89)" fill="#263238"/>
                  </g>
                </g>
                <g id="Grupo_82773" data-name="Grupo 82773" transform="translate(11.96 28.907)">
                  <g id="Grupo_82772" data-name="Grupo 82772">
                    <path id="Trazado_139943" data-name="Trazado 139943" d="M367.029,155.7c0,.092-25.343.166-56.6.166s-56.6-.074-56.6-.166,25.338-.165,56.6-.165S367.029,155.6,367.029,155.7Z" transform="translate(-253.825 -155.53)" fill="#263238"/>
                  </g>
                </g>
                <g id="Grupo_82775" data-name="Grupo 82775" transform="translate(11.96 11.415)">
                  <g id="Grupo_82774" data-name="Grupo 82774">
                    <path id="Trazado_139944" data-name="Trazado 139944" d="M367.029,128.2c0,.092-25.343.165-56.6.165s-56.6-.074-56.6-.165,25.338-.165,56.6-.165S367.029,128.106,367.029,128.2Z" transform="translate(-253.825 -128.032)" fill="#263238"/>
                  </g>
                </g>
                <g id="Grupo_82777" data-name="Grupo 82777" transform="translate(11.96 63.716)">
                  <g id="Grupo_82776" data-name="Grupo 82776">
                    <path id="Trazado_139945" data-name="Trazado 139945" d="M367.029,210.415c0,.091-25.343.165-56.6.165s-56.6-.074-56.6-.165,25.338-.166,56.6-.166S367.029,210.324,367.029,210.415Z" transform="translate(-253.825 -210.249)" fill="#263238"/>
                  </g>
                </g>
                <g id="Grupo_82778" data-name="Grupo 82778" transform="translate(13.127 1.284)">
                  <path id="Trazado_139946" data-name="Trazado 139946" d="M255.66,190.146V174.7l9.624-14.942,6.531,5.011,13.405-20.823,7.906,5.568,11-19.21,8.937,7.281,13.405-25.483,14.437,28.482,11.687-14.251,13.749-3.935v67.744Z" transform="translate(-255.66 -112.106)" fill="#5e6178"/>
                </g>
              </g>
              <g id="Grupo_82781" data-name="Grupo 82781" transform="translate(13.127 6.005)">
                <g id="Grupo_82780" data-name="Grupo 82780">
                  <path id="Trazado_139947" data-name="Trazado 139947" d="M367.7,119.62s-.081.009-.242.013l-.716.013-2.79.024-10.55.043.073-.036-11.316,14.769-.039.051h-.065l-28.306.029.136-.078-11.9,19.812-11.682,19.421-.124.206-.142-.195-15.34-21.079.223-.007-13.97,21.8-3.889,6.032-1.029,1.576c-.234.355-.363.532-.363.532s.106-.192.329-.555l.995-1.6,3.827-6.071,13.872-21.867.106-.167.117.16,15.379,21.05-.265.011,11.672-19.428,11.914-19.8.046-.078h.09l28.306.029-.1.051,11.379-14.722.028-.036h.045l10.55.043,2.79.024.716.012C367.615,119.612,367.7,119.62,367.7,119.62Z" transform="translate(-255.66 -119.528)" fill="#263238"/>
                </g>
              </g>
              <g id="Grupo_82782" data-name="Grupo 82782" transform="translate(34.732 42.915)">
                <path id="Trazado_139948" data-name="Trazado 139948" d="M291.795,178.595a1.087,1.087,0,1,1-1.086-1.046A1.066,1.066,0,0,1,291.795,178.595Z" transform="translate(-289.623 -177.549)" fill="#263238"/>
              </g>
              <g id="Grupo_82783" data-name="Grupo 82783" transform="translate(67.382 24.357)">
                <path id="Trazado_139949" data-name="Trazado 139949" d="M343.12,149.422a1.087,1.087,0,1,1-1.087-1.045A1.067,1.067,0,0,1,343.12,149.422Z" transform="translate(-340.948 -148.377)" fill="#263238"/>
              </g>
              <g id="Grupo_82784" data-name="Grupo 82784" transform="translate(92.765 19.797)">
                <ellipse id="Elipse_4214" data-name="Elipse 4214" cx="1.086" cy="1.046" rx="1.086" ry="1.046" fill="#263238"/>
              </g>
            </g>
          </g>
        </g>
        <g id="Grupo_82791" data-name="Grupo 82791" transform="translate(4.51 4.173)">
          <g id="Grupo_82788" data-name="Grupo 82788">
            <path id="Trazado_139950" data-name="Trazado 139950" d="M208,74.341a1.261,1.261,0,1,1-1.261-1.261A1.262,1.262,0,0,1,208,74.341Z" transform="translate(-205.481 -73.08)" fill="#263238"/>
          </g>
          <g id="Grupo_82789" data-name="Grupo 82789" transform="translate(3.669)">
            <path id="Trazado_139951" data-name="Trazado 139951" d="M213.772,74.341a1.262,1.262,0,1,1-1.262-1.261A1.262,1.262,0,0,1,213.772,74.341Z" transform="translate(-211.248 -73.08)" fill="#263238"/>
          </g>
          <g id="Grupo_82790" data-name="Grupo 82790" transform="translate(7.338)">
            <path id="Trazado_139952" data-name="Trazado 139952" d="M219.539,74.341a1.261,1.261,0,1,1-1.261-1.261A1.262,1.262,0,0,1,219.539,74.341Z" transform="translate(-217.016 -73.08)" fill="#263238"/>
          </g>
        </g>
        <g id="Grupo_82795" data-name="Grupo 82795" transform="translate(0.368 10.234)">
          <g id="Grupo_82792" data-name="Grupo 82792" transform="translate(0 0.166)">
            <line id="Línea_1799" data-name="Línea 1799" x2="163.556" fill="#263238"/>
          </g>
          <g id="Grupo_82794" data-name="Grupo 82794">
            <g id="Grupo_82793" data-name="Grupo 82793">
              <path id="Trazado_139953" data-name="Trazado 139953" d="M362.527,82.774c0,.092-36.616.165-81.774.165-45.174,0-81.782-.074-81.782-.165s36.609-.166,81.782-.166C325.911,82.608,362.527,82.682,362.527,82.774Z" transform="translate(-198.971 -82.608)" fill="#263238"/>
            </g>
          </g>
        </g>
      </g>
    </g>
  </g>
</svg>
