<svg xmlns="http://www.w3.org/2000/svg" width="406.887" height="138.5" viewBox="0 0 406.887 138.5">
  <g id="Grupo_93087" data-name="Grupo 93087" transform="translate(-305.113 -2851.5)">
    <rect id="Rect치ngulo_31816" data-name="Rect치ngulo 31816" width="393" height="131" transform="translate(319 2859)" fill="#6595bf"/>
    <g id="Grupo_89142" data-name="Grupo 89142" transform="translate(224 2852)">
      <rect id="Rect치ngulo_31778" data-name="Rect치ngulo 31778" width="401.973" height="132.775" transform="translate(81.613)" fill="#fff" stroke="#12263f" stroke-miterlimit="10" stroke-width="1"/>
    </g>
    <g id="Grupo_89143" data-name="Grupo 89143" transform="translate(118 -5)">
      <path id="Trazado_148453" data-name="Trazado 148453" d="M6.357-5.029H4.5V0H1.074V-14.219h5.6A6.246,6.246,0,0,1,10.625-13.1a3.8,3.8,0,0,1,1.426,3.17,4.616,4.616,0,0,1-.6,2.458,4.263,4.263,0,0,1-1.88,1.58L12.539-.147V0H8.867ZM4.5-7.666H6.67A1.946,1.946,0,0,0,8.14-8.18a1.987,1.987,0,0,0,.493-1.434,2.01,2.01,0,0,0-.5-1.444,1.928,1.928,0,0,0-1.465-.524H4.5ZM19.922,0a3.716,3.716,0,0,1-.312-.947A3.06,3.06,0,0,1,17.07.2a3.749,3.749,0,0,1-2.539-.9,2.875,2.875,0,0,1-1.045-2.271,2.955,2.955,0,0,1,1.27-2.6,6.468,6.468,0,0,1,3.691-.879h1.016v-.559q0-1.462-1.26-1.462a1.03,1.03,0,0,0-1.172,1.158H13.74a2.95,2.95,0,0,1,1.3-2.487,5.479,5.479,0,0,1,3.325-.956,4.8,4.8,0,0,1,3.193.986,3.429,3.429,0,0,1,1.2,2.705v4.678a4.79,4.79,0,0,0,.449,2.227V0ZM17.861-2.148a1.836,1.836,0,0,0,1.021-.264,1.653,1.653,0,0,0,.581-.6V-4.7h-.957q-1.719,0-1.719,1.543a.942.942,0,0,0,.3.728A1.1,1.1,0,0,0,17.861-2.148Zm10.605-.391h4.814V0H24.307V-1.836l4.688-6.191H24.512v-2.539h8.662v1.777Zm6-2.842A6.236,6.236,0,0,1,35.078-8.2a4.4,4.4,0,0,1,1.768-1.9,5.323,5.323,0,0,1,2.705-.664,4.858,4.858,0,0,1,3.74,1.47,5.64,5.64,0,0,1,1.367,4v.117a5.472,5.472,0,0,1-1.372,3.921A4.871,4.871,0,0,1,39.57.2a4.927,4.927,0,0,1-3.623-1.353,5.29,5.29,0,0,1-1.475-3.667Zm3.291.205a3.932,3.932,0,0,0,.459,2.148,1.529,1.529,0,0,0,1.357.684q1.758,0,1.8-2.705v-.332q0-2.842-1.816-2.842-1.65,0-1.787,2.451ZM40-15h3.477l-2.715,3.066-2.686,0Zm9.131,4.434.107,1.24a3.583,3.583,0,0,1,3.018-1.436,3.015,3.015,0,0,1,2.466.986,4.7,4.7,0,0,1,.845,2.969V0h-3.3V-6.67a1.783,1.783,0,0,0-.322-1.177,1.491,1.491,0,0,0-1.172-.376,1.569,1.569,0,0,0-1.436.762V0H46.045V-10.566ZM61.953-5.361a6.455,6.455,0,0,1,1.084-3.955,3.568,3.568,0,0,1,3.027-1.445,3.035,3.035,0,0,1,2.383,1.113V-15h3.3V0H68.789l-.166-1.133A3.116,3.116,0,0,1,66.045.2,3.562,3.562,0,0,1,63.057-1.25,6.659,6.659,0,0,1,61.953-5.361Zm3.291.205q0,2.813,1.641,2.813a1.62,1.62,0,0,0,1.563-.918V-7.285A1.576,1.576,0,0,0,66.9-8.223q-1.523,0-1.65,2.461ZM78.73.2a5.432,5.432,0,0,1-3.936-1.45,5.008,5.008,0,0,1-1.5-3.774V-5.3a6.489,6.489,0,0,1,.6-2.861,4.395,4.395,0,0,1,1.753-1.919,5.292,5.292,0,0,1,2.734-.679A4.574,4.574,0,0,1,81.895-9.38a5.43,5.43,0,0,1,1.289,3.853v1.279H76.641a2.372,2.372,0,0,0,.771,1.4,2.3,2.3,0,0,0,1.543.508A2.958,2.958,0,0,0,81.4-3.437L82.9-1.66A4.2,4.2,0,0,1,81.157-.308,5.891,5.891,0,0,1,78.73.2Zm-.371-8.418q-1.445,0-1.719,1.914h3.32v-.254a1.63,1.63,0,0,0-.4-1.226A1.593,1.593,0,0,0,78.359-8.223ZM89.072-5.361a6.455,6.455,0,0,1,1.084-3.955,3.568,3.568,0,0,1,3.027-1.445,3.035,3.035,0,0,1,2.383,1.113V-15h3.3V0H95.908l-.166-1.133A3.116,3.116,0,0,1,93.164.2,3.562,3.562,0,0,1,90.176-1.25,6.659,6.659,0,0,1,89.072-5.361Zm3.291.205q0,2.813,1.641,2.813a1.62,1.62,0,0,0,1.563-.918V-7.285a1.576,1.576,0,0,0-1.543-.937q-1.523,0-1.65,2.461ZM105.85.2a5.432,5.432,0,0,1-3.936-1.45,5.008,5.008,0,0,1-1.5-3.774V-5.3a6.489,6.489,0,0,1,.6-2.861,4.395,4.395,0,0,1,1.753-1.919,5.292,5.292,0,0,1,2.734-.679,4.574,4.574,0,0,1,3.516,1.382A5.43,5.43,0,0,1,110.3-5.527v1.279H103.76a2.372,2.372,0,0,0,.771,1.4,2.3,2.3,0,0,0,1.543.508,2.958,2.958,0,0,0,2.441-1.094l1.5,1.777a4.2,4.2,0,0,1-1.743,1.353A5.891,5.891,0,0,1,105.85.2Zm-.371-8.418q-1.445,0-1.719,1.914h3.32v-.254a1.63,1.63,0,0,0-.4-1.226A1.593,1.593,0,0,0,105.479-8.223Zm12.441,7.08A3.393,3.393,0,0,1,115.1.2a3.328,3.328,0,0,1-2.632-1.011,4.251,4.251,0,0,1-.894-2.905v-6.846h3.291V-3.7a1.183,1.183,0,0,0,1.318,1.357,1.72,1.72,0,0,0,1.611-.811v-7.412H121.1V0h-3.086Zm4.57-4.219a6.455,6.455,0,0,1,1.084-3.955,3.568,3.568,0,0,1,3.027-1.445,3.035,3.035,0,0,1,2.383,1.113V-15h3.3V0h-2.959l-.166-1.133A3.116,3.116,0,0,1,126.582.2a3.562,3.562,0,0,1-2.988-1.445A6.659,6.659,0,0,1,122.49-5.361Zm3.291.205q0,2.813,1.641,2.813a1.62,1.62,0,0,0,1.563-.918V-7.285a1.576,1.576,0,0,0-1.543-.937q-1.523,0-1.65,2.461ZM140.107,0a3.716,3.716,0,0,1-.312-.947A3.06,3.06,0,0,1,137.256.2a3.749,3.749,0,0,1-2.539-.9,2.875,2.875,0,0,1-1.045-2.271,2.955,2.955,0,0,1,1.27-2.6,6.468,6.468,0,0,1,3.691-.879h1.016v-.559q0-1.462-1.26-1.462a1.03,1.03,0,0,0-1.172,1.158h-3.291a2.95,2.95,0,0,1,1.3-2.487,5.479,5.479,0,0,1,3.325-.956,4.8,4.8,0,0,1,3.193.986,3.429,3.429,0,0,1,1.2,2.705v4.678A4.79,4.79,0,0,0,143.4-.166V0Zm-2.061-2.148a1.836,1.836,0,0,0,1.021-.264,1.652,1.652,0,0,0,.581-.6V-4.7h-.957q-1.719,0-1.719,1.543a.942.942,0,0,0,.3.728A1.1,1.1,0,0,0,138.047-2.148Zm21.074-4.9h-9.043V-9.59h9.043Zm0,4.287h-9.043V-5.3h9.043Zm2.48-4.182.869-7.273h8.311v2.559h-5.635l-.322,2.825a3.882,3.882,0,0,1,.923-.363,4.211,4.211,0,0,1,1.118-.157A4.171,4.171,0,0,1,170.122-8.1,5.055,5.055,0,0,1,171.26-4.58a5.046,5.046,0,0,1-.61,2.476,4.2,4.2,0,0,1-1.714,1.7,5.411,5.411,0,0,1-2.607.6,5.822,5.822,0,0,1-2.51-.551,4.5,4.5,0,0,1-1.836-1.512,3.675,3.675,0,0,1-.654-2.171h3.3a1.867,1.867,0,0,0,.5,1.238,1.581,1.581,0,0,0,1.182.458q1.66,0,1.66-2.456,0-2.271-2.031-2.271a2.027,2.027,0,0,0-1.719.741Zm21.27-5.515L177.559,0h-3.477L179.4-11.68h-6.777v-2.539h10.244Zm2.91,16.289-1.66-.781.332-.664a5.416,5.416,0,0,0,.713-2.422V-2.48H187.8l-.01,2.119a5.3,5.3,0,0,1-.576,2.285A5.806,5.806,0,0,1,185.781,3.828Zm14.053-9.639a6.789,6.789,0,0,1-1.294,4.443A4.471,4.471,0,0,1,194.893.2a4.5,4.5,0,0,1-3.672-1.572,6.779,6.779,0,0,1-1.3-4.434v-2.6a6.789,6.789,0,0,1,1.294-4.443,4.483,4.483,0,0,1,3.657-1.562,4.484,4.484,0,0,1,3.662,1.572,6.8,6.8,0,0,1,1.3,4.443Zm-3.291-3.018a5.071,5.071,0,0,0-.4-2.29,1.338,1.338,0,0,0-1.27-.757,1.307,1.307,0,0,0-1.235.7,4.777,4.777,0,0,0-.415,2.129V-5.41a5.11,5.11,0,0,0,.4,2.329,1.343,1.343,0,0,0,1.27.737,1.325,1.325,0,0,0,1.24-.718,4.878,4.878,0,0,0,.41-2.251ZM208.027-5.5a3.476,3.476,0,0,1-2.383.957,3.847,3.847,0,0,1-3.066-1.309,5.156,5.156,0,0,1-1.133-3.5,5.247,5.247,0,0,1,.635-2.539,4.763,4.763,0,0,1,1.782-1.855,4.859,4.859,0,0,1,2.534-.684,4.717,4.717,0,0,1,2.544.708,4.767,4.767,0,0,1,1.772,2,6.877,6.877,0,0,1,.654,2.983v1.26a8.548,8.548,0,0,1-.923,4.082,6.371,6.371,0,0,1-2.632,2.656A8.224,8.224,0,0,1,203.828.2h-.205V-2.441l.625-.01Q207.646-2.617,208.027-5.5Zm-1.494-1.416a1.6,1.6,0,0,0,1.543-.928V-9.209a3.555,3.555,0,0,0-.459-2.021,1.44,1.44,0,0,0-1.24-.654,1.361,1.361,0,0,0-1.162.742,3.3,3.3,0,0,0-.469,1.8,2.956,2.956,0,0,0,.479,1.772A1.531,1.531,0,0,0,206.533-6.914Zm6.6-4.57a2.791,2.791,0,0,1,.859-2.129,3.222,3.222,0,0,1,2.3-.811,3.226,3.226,0,0,1,2.314.806,2.865,2.865,0,0,1,.85,2.183v.7a2.776,2.776,0,0,1-.85,2.119,3.21,3.21,0,0,1-2.295.8,3.3,3.3,0,0,1-2.31-.8,2.8,2.8,0,0,1-.874-2.183Zm2.119.75a1.18,1.18,0,0,0,.283.82,1,1,0,0,0,.781.315q1.025,0,1.025-1.3v-.582a1.245,1.245,0,0,0-.273-.83.952.952,0,0,0-.771-.325.973.973,0,0,0-.762.315,1.238,1.238,0,0,0-.283.859Zm4.639,7.249a2.764,2.764,0,0,1,.864-2.129,3.249,3.249,0,0,1,2.3-.8,3.284,3.284,0,0,1,2.314.791,2.85,2.85,0,0,1,.859,2.207v.684a2.788,2.788,0,0,1-.85,2.129,3.224,3.224,0,0,1-2.3.8,3.3,3.3,0,0,1-2.31-.8,2.8,2.8,0,0,1-.874-2.183Zm2.109.75a1.155,1.155,0,0,0,.313.8.99.99,0,0,0,.762.344.9.9,0,0,0,1.025-.893l.01-1a1.2,1.2,0,0,0-.283-.83.985.985,0,0,0-.771-.315.993.993,0,0,0-.752.3,1.179,1.179,0,0,0-.3.8Zm-5.059,1.672-1.533-.771,6.943-11.113,1.533.771Z" transform="translate(278 2937)" fill="#12263f"/>
    </g>
  </g>
</svg>
