<svg xmlns="http://www.w3.org/2000/svg" width="260.647" height="449.95" viewBox="0 0 260.647 449.95">
  <g id="Grupo_89826" data-name="Grupo 89826" transform="translate(-11925.467 -7320.428)">
    <g id="Grupo_89589" data-name="Grupo 89589" transform="translate(12107.798 7362.288)">
      <rect id="Rectángulo_31945" data-name="Rectángulo 31945" width="13.377" height="53.437" fill="#839eb6"/>
      <rect id="Rectángulo_31946" data-name="Rectángulo 31946" width="13.377" height="41.781" transform="translate(19.674 11.657)" fill="#839eb6"/>
      <rect id="Rectángulo_31947" data-name="Rectángulo 31947" width="13.377" height="32.237" transform="translate(39.648 21.2)" fill="#839eb6"/>
      <rect id="Rectángulo_31948" data-name="Rectángulo 31948" width="13.377" height="19.144" transform="translate(58.139 34.293)" fill="#839eb6"/>
    </g>
    <g id="Grupo_89593" data-name="Grupo 89593" transform="translate(12080.338 7469.874)">
      <g id="Grupo_89592" data-name="Grupo 89592">
        <path id="Trazado_143704" data-name="Trazado 143704" d="M12155.574,7459.257a46.291,46.291,0,0,0-65.077,2.2,45.622,45.622,0,0,0,2.217,64.684,46.29,46.29,0,0,0,65.077-2.2A45.623,45.623,0,0,0,12155.574,7459.257Zm-15.342,48.381a22.134,22.134,0,0,1-31.116,1.053,21.814,21.814,0,0,1-1.061-30.928,22.136,22.136,0,0,1,31.117-1.053A21.814,21.814,0,0,1,12140.232,7507.638Z" transform="translate(-12078.122 -7446.956)" fill="#aed3f2"/>
        <g id="Grupo_89590" data-name="Grupo 89590" transform="translate(0 0.001)">
          <path id="Trazado_143705" data-name="Trazado 143705" d="M12090.5,7461.46a46.293,46.293,0,0,1,65.077-2.2l-16.4,17.453a22.135,22.135,0,0,0-31.115,1.053,21.814,21.814,0,0,0,1.062,30.928l-16.4,17.453A45.622,45.622,0,0,1,12090.5,7461.46Z" transform="translate(-12078.122 -7446.957)" fill="#aed3f2"/>
        </g>
        <g id="Grupo_89591" data-name="Grupo 89591" transform="translate(56.734 4.821)">
          <path id="Trazado_143706" data-name="Trazado 143706" d="M12144.994,7451.038c22.728,21.1,25.448,55.408,4.217,78l-23.055-19.971c10.15-10.8,12.356-25.225,1.49-35.314Z" transform="translate(-12126.156 -7451.038)" fill="#fafafa"/>
        </g>
      </g>
    </g>
    <g id="Grupo_89618" data-name="Grupo 89618" transform="translate(12079.422 7584.94)">
      <g id="Grupo_89617" data-name="Grupo 89617">
        <g id="Grupo_89611" data-name="Grupo 89611">
          <g id="Grupo_89594" data-name="Grupo 89594">
            <path id="Trazado_143707" data-name="Trazado 143707" d="M12062.8,7544.376l-2.389,185.438H12167.1V7546.9Z" transform="translate(-12060.412 -7544.376)" fill="#aed3f2"/>
          </g>
          <g id="Grupo_89595" data-name="Grupo 89595" transform="translate(58.924 1.393)">
            <path id="Trazado_143708" data-name="Trazado 143708" d="M12111.244,7545.556l-.943,184.045h47.768v-182.91Z" transform="translate(-12110.301 -7545.556)" fill="#839eb6"/>
          </g>
          <g id="Grupo_89600" data-name="Grupo 89600" transform="translate(5.743 3.338)">
            <g id="Grupo_89596" data-name="Grupo 89596">
              <path id="Trazado_143709" data-name="Trazado 143709" d="M12065.275,7547.2v37.929h50.537v-36.138Z" transform="translate(-12065.275 -7547.203)" fill="#839eb6"/>
            </g>
            <g id="Grupo_89599" data-name="Grupo 89599" transform="translate(17.422 9.925)">
              <g id="Grupo_89597" data-name="Grupo 89597">
                <path id="Trazado_143710" data-name="Trazado 143710" d="M12080.025,7556.115v5.6h15.462v-6.111Z" transform="translate(-12080.025 -7555.606)" fill="#aed3f2"/>
              </g>
              <g id="Grupo_89598" data-name="Grupo 89598" transform="translate(0 10.822)">
                <rect id="Rectángulo_31949" data-name="Rectángulo 31949" width="15.969" height="2.292" fill="#aed3f2"/>
              </g>
            </g>
          </g>
          <g id="Grupo_89605" data-name="Grupo 89605" transform="translate(5.743 136.249)">
            <g id="Grupo_89601" data-name="Grupo 89601">
              <path id="Trazado_143711" data-name="Trazado 143711" d="M12065.275,7659.731v37.929h50.537v-36.136Z" transform="translate(-12065.275 -7659.731)" fill="#839eb6"/>
            </g>
            <g id="Grupo_89604" data-name="Grupo 89604" transform="translate(17.422 9.925)">
              <g id="Grupo_89602" data-name="Grupo 89602">
                <path id="Trazado_143712" data-name="Trazado 143712" d="M12080.025,7668.644v5.6h15.462v-6.111Z" transform="translate(-12080.025 -7668.135)" fill="#aed3f2"/>
              </g>
              <g id="Grupo_89603" data-name="Grupo 89603" transform="translate(0 10.822)">
                <rect id="Rectángulo_31950" data-name="Rectángulo 31950" width="15.969" height="2.292" fill="#aed3f2"/>
              </g>
            </g>
          </g>
          <g id="Grupo_89610" data-name="Grupo 89610" transform="translate(5.743 46.094)">
            <g id="Grupo_89606" data-name="Grupo 89606">
              <path id="Trazado_143713" data-name="Trazado 143713" d="M12065.275,7583.4v37.929h50.537V7585.2Z" transform="translate(-12065.275 -7583.402)" fill="#839eb6"/>
            </g>
            <g id="Grupo_89609" data-name="Grupo 89609" transform="translate(17.422 9.925)">
              <g id="Grupo_89607" data-name="Grupo 89607">
                <path id="Trazado_143714" data-name="Trazado 143714" d="M12080.025,7592.315v5.6h15.462v-6.112Z" transform="translate(-12080.025 -7591.806)" fill="#aed3f2"/>
              </g>
              <g id="Grupo_89608" data-name="Grupo 89608" transform="translate(0 10.823)">
                <rect id="Rectángulo_31951" data-name="Rectángulo 31951" width="15.969" height="2.292" fill="#aed3f2"/>
              </g>
            </g>
          </g>
        </g>
        <g id="Grupo_89616" data-name="Grupo 89616" transform="translate(5.084 91.508)">
          <g id="Grupo_89615" data-name="Grupo 89615">
            <g id="Grupo_89612" data-name="Grupo 89612">
              <rect id="Rectángulo_31952" data-name="Rectángulo 31952" width="50.537" height="37.929" fill="#839eb6"/>
            </g>
            <g id="Grupo_89613" data-name="Grupo 89613" transform="translate(17.763 16.617)">
              <path id="Trazado_143715" data-name="Trazado 143715" d="M12079.756,7636.4v5.267h14.533v-5.744Z" transform="translate(-12079.756 -7635.92)" fill="#aed3f2"/>
            </g>
            <g id="Grupo_89614" data-name="Grupo 89614" transform="translate(17.763 26.788)">
              <rect id="Rectángulo_31953" data-name="Rectángulo 31953" width="15.011" height="2.154" fill="#aed3f2"/>
            </g>
          </g>
        </g>
      </g>
    </g>
    <g id="Grupo_89693" data-name="Grupo 89693" transform="translate(11925.467 7320.428)">
      <g id="Grupo_89627" data-name="Grupo 89627">
        <g id="Grupo_89623" data-name="Grupo 89623" transform="translate(0.308 0.307)">
          <g id="Grupo_89622" data-name="Grupo 89622">
            <rect id="Rectángulo_31954" data-name="Rectángulo 31954" width="181.469" height="207.105" fill="#fafafa"/>
          </g>
        </g>
        <g id="Grupo_89626" data-name="Grupo 89626">
          <g id="Grupo_89625" data-name="Grupo 89625">
            <g id="Grupo_89624" data-name="Grupo 89624">
              <path id="Trazado_143717" data-name="Trazado 143717" d="M12137.243,7527.841s-.009-.337-.015-.983-.01-1.614-.017-2.877c-.007-2.539-.017-6.29-.031-11.175-.017-9.775-.04-24.084-.072-42.255-.033-36.312-.081-88.055-.138-149.815l.272.271-181.449.035h-.02l.308-.307c-.019,76.355-.033,147.561-.047,207.1l-.261-.26,131.631.134,36.8.067,9.7.029c2.2.01,3.343.03,3.343.03s-1.108.019-3.287.028l-9.647.029-36.739.067-131.795.135h-.26v-.261c-.014-59.544-.03-130.749-.048-207.1v-.308h.327l181.449.035h.272v.272c-.056,61.833-.1,113.636-.137,149.991-.031,18.145-.055,32.432-.071,42.191-.014,4.863-.024,8.595-.032,11.123l-.015,2.847C12137.254,7527.524,12137.243,7527.841,12137.243,7527.841Z" transform="translate(-11955.467 -7320.428)" fill="#344154"/>
            </g>
          </g>
        </g>
      </g>
      <g id="Grupo_89680" data-name="Grupo 89680" transform="translate(14.826 16.865)">
        <g id="Grupo_89629" data-name="Grupo 89629">
          <g id="Grupo_89628" data-name="Grupo 89628">
            <rect id="Rectángulo_31955" data-name="Rectángulo 31955" width="147.009" height="117.93" fill="#839eb6"/>
          </g>
        </g>
        <g id="Grupo_89679" data-name="Grupo 89679" transform="translate(10.274 14.951)">
          <g id="Grupo_89669" data-name="Grupo 89669">
            <g id="Grupo_89631" data-name="Grupo 89631" transform="translate(0 82.013)">
              <g id="Grupo_89630" data-name="Grupo 89630">
                <rect id="Rectángulo_31956" data-name="Rectángulo 31956" width="4.825" height="1.39" fill="#344154"/>
              </g>
            </g>
            <g id="Grupo_89633" data-name="Grupo 89633" transform="translate(10.915 89.445)">
              <g id="Grupo_89632" data-name="Grupo 89632">
                <rect id="Rectángulo_31957" data-name="Rectángulo 31957" width="6.17" height="1.39" fill="#344154"/>
              </g>
            </g>
            <g id="Grupo_89635" data-name="Grupo 89635" transform="translate(32.394 89.445)">
              <g id="Grupo_89634" data-name="Grupo 89634">
                <rect id="Rectángulo_31958" data-name="Rectángulo 31958" width="6.17" height="1.39" fill="#344154"/>
              </g>
            </g>
            <g id="Grupo_89637" data-name="Grupo 89637" transform="translate(53.873 89.445)">
              <g id="Grupo_89636" data-name="Grupo 89636">
                <rect id="Rectángulo_31959" data-name="Rectángulo 31959" width="6.17" height="1.39" fill="#344154"/>
              </g>
            </g>
            <g id="Grupo_89639" data-name="Grupo 89639" transform="translate(75.352 89.445)">
              <g id="Grupo_89638" data-name="Grupo 89638">
                <rect id="Rectángulo_31960" data-name="Rectángulo 31960" width="6.17" height="1.39" fill="#344154"/>
              </g>
            </g>
            <g id="Grupo_89641" data-name="Grupo 89641" transform="translate(96.832 89.445)">
              <g id="Grupo_89640" data-name="Grupo 89640">
                <rect id="Rectángulo_31961" data-name="Rectángulo 31961" width="6.17" height="1.39" fill="#344154"/>
              </g>
            </g>
            <g id="Grupo_89643" data-name="Grupo 89643" transform="translate(118.31 89.445)">
              <g id="Grupo_89642" data-name="Grupo 89642">
                <rect id="Rectángulo_31962" data-name="Rectángulo 31962" width="6.17" height="1.39" fill="#344154"/>
              </g>
            </g>
            <g id="Grupo_89645" data-name="Grupo 89645" transform="translate(0 63.443)">
              <g id="Grupo_89644" data-name="Grupo 89644">
                <rect id="Rectángulo_31963" data-name="Rectángulo 31963" width="4.825" height="1.39" fill="#344154"/>
              </g>
            </g>
            <g id="Grupo_89647" data-name="Grupo 89647" transform="translate(0 28.495)">
              <g id="Grupo_89646" data-name="Grupo 89646">
                <rect id="Rectángulo_31964" data-name="Rectángulo 31964" width="4.825" height="1.39" fill="#344154"/>
              </g>
            </g>
            <g id="Grupo_89649" data-name="Grupo 89649" transform="translate(0 10.932)">
              <g id="Grupo_89648" data-name="Grupo 89648">
                <rect id="Rectángulo_31965" data-name="Rectángulo 31965" width="4.825" height="1.39" fill="#344154"/>
              </g>
            </g>
            <g id="Grupo_89651" data-name="Grupo 89651" transform="translate(0.245 45.969)">
              <g id="Grupo_89650" data-name="Grupo 89650">
                <rect id="Rectángulo_31966" data-name="Rectángulo 31966" width="4.825" height="1.39" fill="#344154"/>
              </g>
            </g>
            <g id="Grupo_89654" data-name="Grupo 89654" transform="translate(7.037)">
              <g id="Grupo_89653" data-name="Grupo 89653">
                <g id="Grupo_89652" data-name="Grupo 89652">
                  <path id="Trazado_143718" data-name="Trazado 143718" d="M12099.945,7430.767a3.17,3.17,0,0,1-.518.032l-1.518.03c-1.365.014-3.328.032-5.838.059-5.1.022-12.428.055-21.471.1l-70.836.091c-5.75,0-11.387,0-16.787,0h-.3v-.3c.041-23.679.078-44.518.1-59.472.039-7.441.07-13.415.092-17.563.023-2.033.041-3.619.053-4.727.012-.518.021-.923.027-1.225a2.444,2.444,0,0,1,.027-.416,2.285,2.285,0,0,1,.029.416c.006.3.016.707.027,1.225.014,1.107.029,2.693.053,4.727.021,4.148.053,10.122.09,17.563.027,14.954.064,35.793.105,59.472l-.3-.3,16.787,0,70.836.09,21.471.1,5.838.058,1.518.031A3.215,3.215,0,0,1,12099.945,7430.767Z" transform="translate(-11982.676 -7347.365)" fill="#344154"/>
                </g>
              </g>
            </g>
            <g id="Grupo_89657" data-name="Grupo 89657" transform="translate(12.007 46.356)">
              <g id="Grupo_89656" data-name="Grupo 89656">
                <g id="Grupo_89655" data-name="Grupo 89655">
                  <path id="Trazado_143719" data-name="Trazado 143719" d="M12100.543,7386.92c0,.17-25.445.308-56.827.308s-56.832-.138-56.832-.308,25.439-.308,56.832-.308S12100.543,7386.751,12100.543,7386.92Z" transform="translate(-11986.884 -7386.612)" fill="#344154"/>
                </g>
              </g>
            </g>
            <g id="Grupo_89660" data-name="Grupo 89660" transform="translate(12.007 28.882)">
              <g id="Grupo_89659" data-name="Grupo 89659">
                <g id="Grupo_89658" data-name="Grupo 89658">
                  <path id="Trazado_143720" data-name="Trazado 143720" d="M12100.543,7372.126c0,.17-25.445.307-56.827.307s-56.832-.137-56.832-.307,25.439-.309,56.832-.309S12100.543,7371.957,12100.543,7372.126Z" transform="translate(-11986.884 -7371.818)" fill="#344154"/>
                </g>
              </g>
            </g>
            <g id="Grupo_89663" data-name="Grupo 89663" transform="translate(12.007 11.32)">
              <g id="Grupo_89662" data-name="Grupo 89662">
                <g id="Grupo_89661" data-name="Grupo 89661">
                  <path id="Trazado_143721" data-name="Trazado 143721" d="M12100.543,7357.256c0,.17-25.445.308-56.827.308s-56.832-.138-56.832-.308,25.439-.307,56.832-.307S12100.543,7357.086,12100.543,7357.256Z" transform="translate(-11986.884 -7356.949)" fill="#344154"/>
                </g>
              </g>
            </g>
            <g id="Grupo_89666" data-name="Grupo 89666" transform="translate(12.007 63.832)">
              <g id="Grupo_89665" data-name="Grupo 89665">
                <g id="Grupo_89664" data-name="Grupo 89664">
                  <path id="Trazado_143722" data-name="Trazado 143722" d="M12100.543,7401.715c0,.17-25.445.309-56.827.309s-56.832-.139-56.832-.309,25.439-.307,56.832-.307S12100.543,7401.545,12100.543,7401.715Z" transform="translate(-11986.884 -7401.408)" fill="#344154"/>
                </g>
              </g>
            </g>
            <g id="Grupo_89668" data-name="Grupo 89668" transform="translate(13.179 1.288)">
              <g id="Grupo_89667" data-name="Grupo 89667">
                <path id="Trazado_143723" data-name="Trazado 143723" d="M11987.876,7426.81v-15.5l9.663-15,6.558,5.032,13.459-20.907,7.938,5.59,11.044-19.287,8.973,7.31,13.461-25.586,14.494,28.6,11.734-14.308,13.8-3.95v68.016Z" transform="translate(-11987.876 -7348.456)" fill="#5e6178"/>
              </g>
            </g>
          </g>
          <g id="Grupo_89672" data-name="Grupo 89672" transform="translate(13.179 5.95)">
            <g id="Grupo_89671" data-name="Grupo 89671">
              <g id="Grupo_89670" data-name="Grupo 89670">
                <path id="Trazado_143724" data-name="Trazado 143724" d="M12100.363,7352.574a.876.876,0,0,1-.244.023l-.72.024-2.8.044-10.592.08.135-.066-11.336,14.848-.071.095h-.121l-28.42.054.253-.144c-3.739,6.229-7.774,12.946-11.946,19.895-4.07,6.764-8.011,13.313-11.733,19.5l-.231.384-.262-.361c-5.61-7.721-10.8-14.862-15.385-21.176l.414-.013c-5.851,9.093-10.68,16.6-14.067,21.865l-3.932,6.039-1.047,1.573c-.239.354-.38.524-.38.524s.1-.2.314-.565l.985-1.614c.9-1.436,2.184-3.5,3.816-6.112,3.345-5.293,8.112-12.839,13.887-21.98l.2-.311.22.3c4.606,6.3,9.82,13.421,15.457,21.122l-.492.022c3.715-6.188,7.649-12.739,11.714-19.509,4.18-6.942,8.22-13.657,11.966-19.881l.087-.144h.167l28.42.053-.191.095,11.449-14.761.052-.067h.084l10.592.081,2.8.043.72.023A1.1,1.1,0,0,1,12100.363,7352.574Z" transform="translate(-11987.876 -7352.403)" fill="#d9a171"/>
              </g>
            </g>
          </g>
          <g id="Grupo_89674" data-name="Grupo 89674" transform="translate(34.872 43.087)">
            <g id="Grupo_89673" data-name="Grupo 89673">
              <path id="Trazado_143725" data-name="Trazado 143725" d="M12008.422,7384.893a1.091,1.091,0,1,1-1.09-1.048A1.071,1.071,0,0,1,12008.422,7384.893Z" transform="translate(-12006.242 -7383.845)" fill="#d9a171"/>
            </g>
          </g>
          <g id="Grupo_89676" data-name="Grupo 89676" transform="translate(67.653 24.455)">
            <g id="Grupo_89675" data-name="Grupo 89675">
              <path id="Trazado_143726" data-name="Trazado 143726" d="M12036.177,7369.12a1.091,1.091,0,1,1-1.091-1.05A1.071,1.071,0,0,1,12036.177,7369.12Z" transform="translate(-12033.996 -7368.07)" fill="#d9a171"/>
            </g>
          </g>
          <g id="Grupo_89678" data-name="Grupo 89678" transform="translate(93.137 19.877)">
            <g id="Grupo_89677" data-name="Grupo 89677">
              <path id="Trazado_143727" data-name="Trazado 143727" d="M12057.753,7365.244a1.092,1.092,0,1,1-1.09-1.05A1.071,1.071,0,0,1,12057.753,7365.244Z" transform="translate(-12055.571 -7364.194)" fill="#d9a171"/>
            </g>
          </g>
        </g>
      </g>
      <g id="Grupo_89683" data-name="Grupo 89683" transform="translate(16.646 152.02)">
        <g id="Grupo_89682" data-name="Grupo 89682">
          <g id="Grupo_89681" data-name="Grupo 89681">
            <path id="Trazado_143728" data-name="Trazado 143728" d="M12108.122,7449.442c0,.171-31.02.309-69.277.309s-69.284-.138-69.284-.309,31.015-.307,69.284-.307S12108.122,7449.273,12108.122,7449.442Z" transform="translate(-11969.561 -7449.136)" fill="#344154"/>
          </g>
        </g>
      </g>
      <g id="Grupo_89686" data-name="Grupo 89686" transform="translate(16.646 159.511)">
        <g id="Grupo_89685" data-name="Grupo 89685">
          <g id="Grupo_89684" data-name="Grupo 89684">
            <path id="Trazado_143729" data-name="Trazado 143729" d="M12108.122,7455.786c0,.169-31.02.308-69.277.308s-69.284-.139-69.284-.308,31.015-.308,69.284-.308S12108.122,7455.616,12108.122,7455.786Z" transform="translate(-11969.561 -7455.478)" fill="#344154"/>
          </g>
        </g>
      </g>
      <g id="Grupo_89689" data-name="Grupo 89689" transform="translate(16.646 167.002)">
        <g id="Grupo_89688" data-name="Grupo 89688">
          <g id="Grupo_89687" data-name="Grupo 89687">
            <path id="Trazado_143730" data-name="Trazado 143730" d="M12108.122,7462.128c0,.17-31.02.307-69.277.307s-69.284-.137-69.284-.307,31.015-.308,69.284-.308S12108.122,7461.958,12108.122,7462.128Z" transform="translate(-11969.561 -7461.82)" fill="#344154"/>
          </g>
        </g>
      </g>
      <g id="Grupo_89692" data-name="Grupo 89692" transform="translate(16.646 174.493)">
        <g id="Grupo_89691" data-name="Grupo 89691">
          <g id="Grupo_89690" data-name="Grupo 89690">
            <path id="Trazado_143731" data-name="Trazado 143731" d="M12108.122,7468.47c0,.17-31.02.309-69.277.309s-69.284-.139-69.284-.309,31.015-.307,69.284-.307S12108.122,7468.3,12108.122,7468.47Z" transform="translate(-11969.561 -7468.163)" fill="#344154"/>
          </g>
        </g>
      </g>
    </g>
    <g id="Grupo_89825" data-name="Grupo 89825" transform="translate(11974.051 7446.95)">
      <g id="Grupo_89737" data-name="Grupo 89737" transform="translate(43.478)">
        <g id="Grupo_89724" data-name="Grupo 89724">
          <g id="Grupo_89695" data-name="Grupo 89695" transform="translate(27.439 3.509)">
            <g id="Grupo_89694" data-name="Grupo 89694">
              <path id="Trazado_143732" data-name="Trazado 143732" d="M12042.232,7472.349c3.791-6.364,4.9-14.852,5.871-22.194.459-3.457,1.264-8.376-1.162-10.546-2.6-2.324-2.838-5.9-5.826-7.692a9.189,9.189,0,0,0-9.873.082" transform="translate(-12031.242 -7430.519)" fill="#344154"/>
            </g>
          </g>
          <g id="Grupo_89721" data-name="Grupo 89721">
            <g id="Grupo_89705" data-name="Grupo 89705" transform="translate(0.054)">
              <g id="Grupo_89702" data-name="Grupo 89702" transform="translate(7.007 7.003)">
                <g id="Grupo_89701" data-name="Grupo 89701">
                  <g id="Grupo_89700" data-name="Grupo 89700">
                    <g id="Grupo_89699" data-name="Grupo 89699">
                      <g id="Grupo_89698" data-name="Grupo 89698">
                        <g id="Grupo_89697" data-name="Grupo 89697">
                          <g id="Grupo_89696" data-name="Grupo 89696">
                            <path id="Trazado_143733" data-name="Trazado 143733" d="M12034.838,7494.362h0a10.23,10.23,0,0,1-11-9.808c-.215-5.568-.4-11.2-.4-11.2s-8.437-.791-9.051-9.142-.332-27.626-.332-27.626h0a29.1,29.1,0,0,1,29.408,1.89l-.521,29.389v15.811C12042.883,7488.982,12040.127,7493.956,12034.838,7494.362Z" transform="translate(-12013.989 -7433.476)" fill="#ffbf9d"/>
                          </g>
                        </g>
                      </g>
                    </g>
                  </g>
                </g>
              </g>
              <g id="Grupo_89704" data-name="Grupo 89704">
                <g id="Grupo_89703" data-name="Grupo 89703">
                  <path id="Trazado_143734" data-name="Trazado 143734" d="M12023.783,7455.1a4.278,4.278,0,0,1,5.706-1.245,4.855,4.855,0,0,1,1.617,6.068,6.4,6.4,0,0,1-4.1,3.1,3.2,3.2,0,0,0-2.51,3.452c.239,2.1,3.727,2.884,5.3,4.619,2.447,2.7,7.819,3.84,11.438,4.268,3.556.421,3.127.455,5.2-2.468a11.22,11.22,0,0,0,2.03-6.78q.192-9.236.383-18.47a26.489,26.489,0,0,0-.42-6.628,8.908,8.908,0,0,0-3.5-5.479c-2.031-1.337-4.6-1.451-6.917-2.2-2.894-.936-5.349-2.854-8.055-4.237s-6.023-2.211-8.738-.848c-1.951.978-3.258,2.924-5.154,4-2.7,1.536-6.375,1.188-7.686,5.157a6.72,6.72,0,0,0,.046,4.246c1.829,5.4,8.52,7.58,13.339,5.246.095.914-.806,2.949.157,5.841.308.924.419,2.332,1.861,2.358" transform="translate(-12008.058 -7427.548)" fill="#344154"/>
                </g>
              </g>
            </g>
            <g id="Grupo_89708" data-name="Grupo 89708" transform="translate(17.242 28.702)">
              <g id="Grupo_89707" data-name="Grupo 89707">
                <g id="Grupo_89706" data-name="Grupo 89706">
                  <path id="Trazado_143735" data-name="Trazado 143735" d="M12022.642,7455.907c.063-.053.348.44,1.043.4a1.942,1.942,0,0,0,1.562-1.906,2.088,2.088,0,0,0-1.433-2.078c-.687-.254-1.18-.123-1.2-.22-.037-.057.459-.377,1.322-.2a2.5,2.5,0,0,1,1.312.754,2.424,2.424,0,0,1,.615,1.772,2.3,2.3,0,0,1-2.173,2.31,1.248,1.248,0,0,1-.933-.469C12022.605,7456.065,12022.606,7455.92,12022.642,7455.907Z" transform="translate(-12022.609 -7451.849)" fill="#ff9a6c"/>
                </g>
              </g>
            </g>
            <g id="Grupo_89711" data-name="Grupo 89711" transform="translate(25.964 5.827)">
              <g id="Grupo_89710" data-name="Grupo 89710">
                <g id="Grupo_89709" data-name="Grupo 89709">
                  <path id="Trazado_143736" data-name="Trazado 143736" d="M12030,7434.236c-.022-.017.181-.318.7-.707a5.6,5.6,0,0,1,2.537-.984,7.3,7.3,0,0,1,4,.606,9.182,9.182,0,0,1,3.685,3.294,18.7,18.7,0,0,1,2.593,8.455,21.537,21.537,0,0,1,.22,3.646,21.225,21.225,0,0,1-.65-3.59,20.184,20.184,0,0,0-2.675-8.17,8.931,8.931,0,0,0-3.414-3.123,6.705,6.705,0,0,0-6.989.572Z" transform="translate(-12029.993 -7432.48)" fill="#5e6178"/>
                </g>
              </g>
            </g>
            <g id="Grupo_89714" data-name="Grupo 89714" transform="translate(0 4.065)">
              <g id="Grupo_89713" data-name="Grupo 89713">
                <g id="Grupo_89712" data-name="Grupo 89712">
                  <path id="Trazado_143737" data-name="Trazado 143737" d="M12010.461,7443.049c0,.018-.114.021-.317-.023a2.407,2.407,0,0,1-.831-.375,3.031,3.031,0,0,1-.97-1.089,2.771,2.771,0,0,1-.262-1.934,3.17,3.17,0,0,1,1.354-1.949,4.55,4.55,0,0,1,2.643-.519,3.64,3.64,0,0,0,2.52-.638,18.361,18.361,0,0,0,2.042-2.2,10.414,10.414,0,0,1,5.2-3,11.037,11.037,0,0,1,4.9-.108,9.424,9.424,0,0,1,3.078,1.182,3.586,3.586,0,0,1,.955.737,14.424,14.424,0,0,0-4.112-1.492,11.129,11.129,0,0,0-4.682.23,10.118,10.118,0,0,0-4.886,2.868,17.3,17.3,0,0,1-2.133,2.268,3.42,3.42,0,0,1-1.437.645,6.951,6.951,0,0,1-1.452.077,4.1,4.1,0,0,0-2.36.383,2.75,2.75,0,0,0-1.2,1.62,2.685,2.685,0,0,0,.951,2.728A6.6,6.6,0,0,0,12010.461,7443.049Z" transform="translate(-12008.01 -7430.989)" fill="#5e6178"/>
                </g>
              </g>
            </g>
            <g id="Grupo_89717" data-name="Grupo 89717" transform="translate(17.221 13.231)">
              <g id="Grupo_89716" data-name="Grupo 89716">
                <g id="Grupo_89715" data-name="Grupo 89715">
                  <path id="Trazado_143738" data-name="Trazado 143738" d="M12030.161,7464.876c-.02-.052.421-.208,1.1-.666a6.906,6.906,0,0,0,2.278-2.54,6.351,6.351,0,0,0,.383-4.894,6.286,6.286,0,0,0-1.516-2.51,12.084,12.084,0,0,0-2.609-1.908c-.977-.567-1.969-1.094-2.876-1.711a9.736,9.736,0,0,1-2.312-2.18,10.083,10.083,0,0,1-1.953-4.943,9.133,9.133,0,0,1,.272-3.566,5.132,5.132,0,0,1,.333-.913c.094-.2.15-.3.17-.3a12.4,12.4,0,0,0-.345,4.721,10,10,0,0,0,1.972,4.653,9.349,9.349,0,0,0,2.2,2.025c.874.586,1.854,1.1,2.847,1.678a12.349,12.349,0,0,1,2.731,2.021,6.786,6.786,0,0,1,1.625,2.761,6.651,6.651,0,0,1-3.076,7.807A2.958,2.958,0,0,1,12030.161,7464.876Z" transform="translate(-12022.591 -7438.749)" fill="#5e6178"/>
                </g>
              </g>
            </g>
            <g id="Grupo_89720" data-name="Grupo 89720" transform="translate(19.514 12.491)">
              <g id="Grupo_89719" data-name="Grupo 89719">
                <g id="Grupo_89718" data-name="Grupo 89718">
                  <path id="Trazado_143739" data-name="Trazado 143739" d="M12044.288,7452.737a3.764,3.764,0,0,1-1.076.241,15.709,15.709,0,0,1-3,.091,18.606,18.606,0,0,1-9.314-3.2c-3.226-2.187-5.461-5.171-6.11-7.688a6.348,6.348,0,0,1-.126-3.024,2.367,2.367,0,0,1,.416-1.029,7.372,7.372,0,0,0,.127,3.933c.716,2.352,2.913,5.18,6.038,7.3a19.585,19.585,0,0,0,9.006,3.279C12042.724,7452.9,12044.275,7452.612,12044.288,7452.737Z" transform="translate(-12024.533 -7438.123)" fill="#5e6178"/>
                </g>
              </g>
            </g>
          </g>
          <g id="Grupo_89723" data-name="Grupo 89723" transform="translate(39.328 16.151)">
            <g id="Grupo_89722" data-name="Grupo 89722">
              <path id="Trazado_143740" data-name="Trazado 143740" d="M12042.578,7446.455a14.752,14.752,0,0,1,11.51-5.215c4.354.245,8.6,3.251,9.66,7.479.8,3.182-.176,6.5-.59,9.754s-.014,7.06,2.643,8.987c1.6,1.16,3.67,1.373,5.592,1.841s3.975,1.43,4.635,3.293c.758,2.138-.795,4.566-2.875,5.47a10.584,10.584,0,0,1-6.682.093,5.594,5.594,0,0,1-2.477,6.693,7.4,7.4,0,0,1-7.416-.312,11.069,11.069,0,0,1-4.529-6.141c-1.428,2.514-5.187,3.044-7.6,1.443a7.965,7.965,0,0,1-3.072-7.635,14.9,14.9,0,0,1,3.848-7.632,18.824,18.824,0,0,0,2.689-3.423,4.365,4.365,0,0,0,.168-4.172c-.742-1.251-2.678-1.768-3.715-.746" transform="translate(-12041.307 -7441.222)" fill="#344154"/>
            </g>
          </g>
        </g>
        <g id="Grupo_89727" data-name="Grupo 89727" transform="translate(39.391 18.474)">
          <g id="Grupo_89726" data-name="Grupo 89726">
            <g id="Grupo_89725" data-name="Grupo 89725">
              <path id="Trazado_143741" data-name="Trazado 143741" d="M12047.593,7454.86a2.881,2.881,0,0,1-2.51-.029,6.042,6.042,0,0,1-3.643-4.754,6.234,6.234,0,0,1,.4-3.389,6.476,6.476,0,0,1,1.6-2.267,4.108,4.108,0,0,1,2.2-1.225,19.432,19.432,0,0,0-1.891,1.534,6.189,6.189,0,0,0-1.694,5.25,5.331,5.331,0,0,0,5.544,4.879Z" transform="translate(-12041.361 -7443.189)" fill="#d9a171"/>
            </g>
          </g>
        </g>
        <g id="Grupo_89730" data-name="Grupo 89730" transform="translate(7.109 38.716)">
          <g id="Grupo_89729" data-name="Grupo 89729">
            <g id="Grupo_89728" data-name="Grupo 89728">
              <path id="Trazado_143742" data-name="Trazado 143742" d="M12023.15,7468.355a3.954,3.954,0,0,1-1.907-.187,10.285,10.285,0,0,1-6.766-5.973,3.969,3.969,0,0,1-.425-1.868,11.8,11.8,0,0,1,.82,1.688,11.8,11.8,0,0,0,6.5,5.737A12.223,12.223,0,0,1,12023.15,7468.355Z" transform="translate(-12014.029 -7460.326)" fill="#ff9a6c"/>
            </g>
          </g>
        </g>
        <g id="Grupo_89733" data-name="Grupo 89733" transform="translate(40.407 24.163)">
          <g id="Grupo_89732" data-name="Grupo 89732">
            <g id="Grupo_89731" data-name="Grupo 89731">
              <path id="Trazado_143743" data-name="Trazado 143743" d="M12050.19,7477.431c0,.021-.145,0-.408-.061a4,4,0,0,1-1.088-.484,5.934,5.934,0,0,1-2.372-3.607,7.407,7.407,0,0,1-.1-3.036,12.2,12.2,0,0,1,1.1-3.286c1.052-2.2,2.713-4.293,3.94-6.722a11.915,11.915,0,0,0,1.235-3.718,7.19,7.19,0,0,0-4.638-7.741,7.678,7.678,0,0,0-4.133-.257c-.979.206-1.479.481-1.5.427-.009-.019.11-.1.346-.228a5.78,5.78,0,0,1,1.1-.432,7.408,7.408,0,0,1,8.955,4.472,7.634,7.634,0,0,1,.471,3.836,12.322,12.322,0,0,1-1.283,3.916c-1.273,2.512-2.939,4.576-3.981,6.7a8.926,8.926,0,0,0-1.084,5.973,5.913,5.913,0,0,0,2.085,3.51A11.03,11.03,0,0,0,12050.19,7477.431Z" transform="translate(-12042.222 -7448.006)" fill="#5e6178"/>
            </g>
          </g>
        </g>
        <g id="Grupo_89736" data-name="Grupo 89736" transform="translate(40.442 23.023)">
          <g id="Grupo_89735" data-name="Grupo 89735">
            <g id="Grupo_89734" data-name="Grupo 89734">
              <path id="Trazado_143744" data-name="Trazado 143744" d="M12062.785,7483.714a1.642,1.642,0,0,1-.525.031,5.857,5.857,0,0,1-1.492-.267,8.38,8.38,0,0,1-4.347-3.39,12.879,12.879,0,0,1-1.877-7.958c.111-3.123,1.024-6.423,1.609-9.889a23.206,23.206,0,0,0,.352-5.085,13.138,13.138,0,0,0-1.069-4.564,8.329,8.329,0,0,0-5.861-4.893,12.189,12.189,0,0,0-5.377.02c-1.258.28-1.926.56-1.945.508a1.642,1.642,0,0,1,.467-.245,10.33,10.33,0,0,1,1.421-.5,11.774,11.774,0,0,1,5.531-.21,8.862,8.862,0,0,1,3.531,1.586,9.006,9.006,0,0,1,2.748,3.5,13.466,13.466,0,0,1,1.155,4.762,23.148,23.148,0,0,1-.346,5.223c-.6,3.52-1.514,6.776-1.65,9.816a12.648,12.648,0,0,0,1.674,7.69,8.419,8.419,0,0,0,4.063,3.4A12.541,12.541,0,0,0,12062.785,7483.714Z" transform="translate(-12042.252 -7447.04)" fill="#5e6178"/>
            </g>
          </g>
        </g>
      </g>
      <path id="Trazado_143745" data-name="Trazado 143745" d="M12064.491,7510.29l-17.784,13.874,7.463,12.254,21.417-15.779Z" transform="translate(-11957.524 -7412.561)" fill="#ffbf9d"/>
      <path id="Trazado_143746" data-name="Trazado 143746" d="M12028.082,7472.685s.086-1.485-3.791-1.7a40.749,40.749,0,0,0-4.312-.146s-1.746-2.235-1.855-3.6a10.791,10.791,0,0,1,.83-3.653l3.925-.361-1.065-2.665-2.766.192-7.813.938-3.11,13.679-21.322,39.807a10.274,10.274,0,0,0,4.071,14.962h0c5.513,2.664,12.9-2.992,14.942-8.764l11.8-44.276,4.151-3.241,5.947-1.091" transform="translate(-11968.688 -7421.567)" fill="#ffbf9d"/>
      <path id="Trazado_143747" data-name="Trazado 143747" d="M11980.33,7724.836l29.033-167.029-.041-.011c.061-.247.123-.48.182-.724l.006-.03h0c4.938-19.593,12.555-25.872,12.555-25.872l44.434,2.787c3.777,6.792,4.256,23.085,4.256,23.085.518,2-9.387,163.841-9.387,163.841l-14.859-.409-8.061-153.122-43.238,158.119Z" transform="translate(-11969.548 -7408.779)" fill="#ffbf9d"/>
      <g id="Grupo_89788" data-name="Grupo 89788" transform="translate(0 316.048)">
        <g id="Grupo_89787" data-name="Grupo 89787">
          <g id="Grupo_89742" data-name="Grupo 89742" transform="translate(0.047)">
            <g id="Grupo_89739" data-name="Grupo 89739">
              <g id="Grupo_89738" data-name="Grupo 89738">
                <path id="Trazado_143748" data-name="Trazado 143748" d="M11981.627,7696.638l.058-1.509,15.284.441-.132,4.977-.945.031c-4.205.1-21.392.252-24.173-.613C11968.614,7699,11981.627,7696.638,11981.627,7696.638Z" transform="translate(-11971.24 -7695.129)" fill="#d9a171"/>
              </g>
            </g>
            <g id="Grupo_89741" data-name="Grupo 89741" transform="translate(20.083 1.235)" opacity="0.6">
              <g id="Grupo_89740" data-name="Grupo 89740">
                <path id="Trazado_143749" data-name="Trazado 143749" d="M11988.244,7700.1a4.884,4.884,0,0,1,2.036-2.964,5.417,5.417,0,0,1,3.588-.933l-.119,3.953Z" transform="translate(-11988.244 -7696.176)" fill="#fff"/>
              </g>
            </g>
          </g>
          <g id="Grupo_89744" data-name="Grupo 89744" transform="translate(0 2.871)" opacity="0.6">
            <g id="Grupo_89743" data-name="Grupo 89743">
              <path id="Trazado_143750" data-name="Trazado 143750" d="M11975.271,7697.561s-4.568,1.094-4.025,1.8,17.916,1.166,25.6.744l-.015-.317-20.269-.373S11976.156,7697.618,11975.271,7697.561Z" transform="translate(-11971.201 -7697.561)" fill="#fff"/>
            </g>
          </g>
          <g id="Grupo_89747" data-name="Grupo 89747" transform="translate(0.047 4.433)">
            <g id="Grupo_89746" data-name="Grupo 89746">
              <g id="Grupo_89745" data-name="Grupo 89745">
                <path id="Trazado_143751" data-name="Trazado 143751" d="M11997.062,7699.547a1.412,1.412,0,0,1-.263.021l-.752.022-2.769.038c-2.339.016-5.57,0-9.137-.092s-6.795-.239-9.129-.376l-2.762-.181-.751-.06a.132.132,0,1,1,0-.034l.75.028,2.767.125c2.334.105,5.562.233,9.126.326s6.794.126,9.132.141l2.769.017.752.011A1.484,1.484,0,0,1,11997.062,7699.547Z" transform="translate(-11971.24 -7698.883)" fill="#344154"/>
              </g>
            </g>
          </g>
          <g id="Grupo_89750" data-name="Grupo 89750" transform="translate(3.963 2.695)">
            <g id="Grupo_89749" data-name="Grupo 89749">
              <g id="Grupo_89748" data-name="Grupo 89748">
                <path id="Trazado_143752" data-name="Trazado 143752" d="M11975.95,7699.666a5.585,5.585,0,0,0-.479-1.241,5.873,5.873,0,0,0-.914-1.009,2.006,2.006,0,0,1,1.073.923A1.793,1.793,0,0,1,11975.95,7699.666Z" transform="translate(-11974.556 -7697.411)" fill="#344154"/>
              </g>
            </g>
          </g>
          <g id="Grupo_89753" data-name="Grupo 89753" transform="translate(9.135 1.749)">
            <g id="Grupo_89752" data-name="Grupo 89752">
              <g id="Grupo_89751" data-name="Grupo 89751">
                <path id="Trazado_143753" data-name="Trazado 143753" d="M11979.71,7697.81c-.044.024-.25-.225-.463-.556s-.348-.618-.3-.643.251.225.462.556S11979.754,7697.786,11979.71,7697.81Z" transform="translate(-11978.936 -7696.61)" fill="#344154"/>
              </g>
            </g>
          </g>
          <g id="Grupo_89756" data-name="Grupo 89756" transform="translate(10.232 1.554)">
            <g id="Grupo_89755" data-name="Grupo 89755">
              <g id="Grupo_89754" data-name="Grupo 89754">
                <path id="Trazado_143754" data-name="Trazado 143754" d="M11980.794,7697.268c-.036.033-.271-.121-.526-.347s-.435-.437-.4-.471.271.12.526.346S11980.828,7697.232,11980.794,7697.268Z" transform="translate(-11979.863 -7696.445)" fill="#344154"/>
              </g>
            </g>
          </g>
          <g id="Grupo_89759" data-name="Grupo 89759" transform="translate(10.391 0.961)">
            <g id="Grupo_89758" data-name="Grupo 89758">
              <g id="Grupo_89757" data-name="Grupo 89757">
                <path id="Trazado_143755" data-name="Trazado 143755" d="M11981.588,7696.043a3.736,3.736,0,1,1-.793-.1A1.912,1.912,0,0,1,11981.588,7696.043Z" transform="translate(-11979.999 -7695.944)" fill="#344154"/>
              </g>
            </g>
          </g>
          <g id="Grupo_89762" data-name="Grupo 89762" transform="translate(10.473 0.11)">
            <g id="Grupo_89761" data-name="Grupo 89761">
              <g id="Grupo_89760" data-name="Grupo 89760">
                <path id="Trazado_143756" data-name="Trazado 143756" d="M11981.872,7695.239a2.388,2.388,0,0,1-1.8.079,5.14,5.14,0,0,1,.9-.034A5.261,5.261,0,0,1,11981.872,7695.239Z" transform="translate(-11980.067 -7695.223)" fill="#344154"/>
              </g>
            </g>
          </g>
          <g id="Grupo_89765" data-name="Grupo 89765" transform="translate(6.59 0.378)">
            <g id="Grupo_89764" data-name="Grupo 89764">
              <g id="Grupo_89763" data-name="Grupo 89763">
                <path id="Trazado_143757" data-name="Trazado 143757" d="M11979.622,7696.773a3.056,3.056,0,0,1-.977-.031,6.127,6.127,0,0,1-1.034-.241,2.859,2.859,0,0,1-.589-.244.5.5,0,0,1-.234-.288.35.35,0,0,1,.159-.36,1.875,1.875,0,0,1,2.2.547,1.568,1.568,0,0,1,.3.614c.036.157.03.246.019.247a2.518,2.518,0,0,0-.421-.788,1.786,1.786,0,0,0-.821-.526,1.629,1.629,0,0,0-1.168.044c-.157.1-.1.273.067.374a2.952,2.952,0,0,0,.543.232,7.241,7.241,0,0,0,1,.271C11979.251,7696.734,11979.624,7696.745,11979.622,7696.773Z" transform="translate(-11976.779 -7695.449)" fill="#344154"/>
              </g>
            </g>
          </g>
          <g id="Grupo_89768" data-name="Grupo 89768" transform="translate(9.07 0.004)">
            <g id="Grupo_89767" data-name="Grupo 89767">
              <g id="Grupo_89766" data-name="Grupo 89766">
                <path id="Trazado_143758" data-name="Trazado 143758" d="M11978.988,7696.869a.851.851,0,0,1-.1-.635,1.474,1.474,0,0,1,.289-.658,1,1,0,0,1,.828-.441.363.363,0,0,1,.289.428.942.942,0,0,1-.18.4,2.89,2.89,0,0,1-.477.539,1.43,1.43,0,0,1-.572.353c-.016-.021.2-.158.479-.437a3.162,3.162,0,0,0,.426-.535c.141-.189.242-.532,0-.579a.892.892,0,0,0-.656.368,1.473,1.473,0,0,0-.293.584A2.825,2.825,0,0,0,11978.988,7696.869Z" transform="translate(-11978.879 -7695.133)" fill="#344154"/>
              </g>
            </g>
          </g>
          <g id="Grupo_89771" data-name="Grupo 89771" transform="translate(20.147 1.102)">
            <g id="Grupo_89770" data-name="Grupo 89770">
              <g id="Grupo_89769" data-name="Grupo 89769">
                <path id="Trazado_143759" data-name="Trazado 143759" d="M11993.787,7696.18c0,.032-.436-.049-1.125.008a5.162,5.162,0,0,0-2.482.876,4.6,4.6,0,0,0-1.593,1.973c-.25.6-.286,1.008-.32,1a.745.745,0,0,1,.009-.286,3.552,3.552,0,0,1,.188-.759,4.4,4.4,0,0,1,1.605-2.069,4.948,4.948,0,0,1,2.585-.858,4.25,4.25,0,0,1,.836.043A.951.951,0,0,1,11993.787,7696.18Z" transform="translate(-11988.258 -7696.063)" fill="#344154"/>
              </g>
            </g>
          </g>
          <g id="Grupo_89774" data-name="Grupo 89774" transform="translate(13.809 3.636)">
            <g id="Grupo_89773" data-name="Grupo 89773">
              <g id="Grupo_89772" data-name="Grupo 89772">
                <path id="Trazado_143760" data-name="Trazado 143760" d="M11987.341,7698.3a9.231,9.231,0,0,1-2.228.146,9.358,9.358,0,0,1-2.222-.225c.007-.05,1,.033,2.226.053S11987.336,7698.252,11987.341,7698.3Z" transform="translate(-11982.892 -7698.208)" fill="#344154"/>
              </g>
            </g>
          </g>
          <g id="Grupo_89777" data-name="Grupo 89777" transform="translate(20.784 3.797)">
            <g id="Grupo_89776" data-name="Grupo 89776">
              <g id="Grupo_89775" data-name="Grupo 89775">
                <path id="Trazado_143761" data-name="Trazado 143761" d="M11989.253,7698.351c.036.035-.086.193-.2.4s-.168.4-.22.391-.073-.226.055-.466S11989.222,7698.315,11989.253,7698.351Z" transform="translate(-11988.797 -7698.345)" fill="#344154"/>
              </g>
            </g>
          </g>
          <g id="Grupo_89780" data-name="Grupo 89780" transform="translate(21.809 2.525)">
            <g id="Grupo_89779" data-name="Grupo 89779">
              <g id="Grupo_89778" data-name="Grupo 89778">
                <path id="Trazado_143762" data-name="Trazado 143762" d="M11990.26,7697.274c.035.035-.067.179-.229.322s-.322.234-.357.2.066-.179.23-.324S11990.224,7697.24,11990.26,7697.274Z" transform="translate(-11989.666 -7697.267)" fill="#344154"/>
              </g>
            </g>
          </g>
          <g id="Grupo_89783" data-name="Grupo 89783" transform="translate(23.153 1.892)">
            <g id="Grupo_89782" data-name="Grupo 89782">
              <g id="Grupo_89781" data-name="Grupo 89781">
                <path id="Trazado_143763" data-name="Trazado 143763" d="M11991.68,7696.819c-.013.049-.214.041-.44.108s-.39.174-.429.142.095-.226.375-.306S11991.7,7696.777,11991.68,7696.819Z" transform="translate(-11990.804 -7696.731)" fill="#344154"/>
              </g>
            </g>
          </g>
          <g id="Grupo_89786" data-name="Grupo 89786" transform="translate(24.718 1.696)">
            <g id="Grupo_89785" data-name="Grupo 89785">
              <g id="Grupo_89784" data-name="Grupo 89784">
                <path id="Trazado_143764" data-name="Trazado 143764" d="M11992.593,7696.6c.018.044-.072.114-.2.157s-.246.04-.262,0,.072-.114.2-.157S11992.576,7696.555,11992.593,7696.6Z" transform="translate(-11992.129 -7696.565)" fill="#344154"/>
              </g>
            </g>
          </g>
        </g>
      </g>
      <g id="Grupo_89811" data-name="Grupo 89811" transform="translate(15.871 54.972)">
        <g id="Grupo_89790" data-name="Grupo 89790" transform="translate(69.209 0.843)">
          <g id="Grupo_89789" data-name="Grupo 89789">
            <path id="Trazado_143765" data-name="Trazado 143765" d="M12043.234,7474.8a29.307,29.307,0,0,1,11.76,4.631c14.049,9.106,37.541,28.364,35.594,37.283-1.658,7.591-19.984,16.81-19.984,16.81l-11.9-14.313,7.295-4.172-17.936-11.931Z" transform="translate(-12043.234 -7474.803)" fill="#344154"/>
          </g>
        </g>
        <g id="Grupo_89793" data-name="Grupo 89793">
          <g id="Grupo_89792" data-name="Grupo 89792">
            <g id="Grupo_89791" data-name="Grupo 89791">
              <path id="Trazado_143766" data-name="Trazado 143766" d="M12061.856,7503.926l-.583,2.136-2.065,9.87-.51,14.467c10.656,13.721,10.816,25.273,10.816,25.273l-53.826,6.287c.01-10.632,3.889-24.021,3.889-24.021,3.115-5.283,2.965-21.086,2.383-21.663-3.363-3.332-4.178-5.776-1.494-10.045,0,0-16.687,17.528-18.4,19.1-5.895,5.4-11.566,3.9-14.2,1.549-7.37-6.577.2-15.06.2-15.06l28.106-32.213a14,14,0,0,1,7.3-4.452c3-.707,6.02-1.067,6.02-1.067l18.767.16a31.555,31.555,0,0,1,5.592.683,13.422,13.422,0,0,1,8.194,10.158C12063.722,7493.157,12061.856,7503.926,12061.856,7503.926Z" transform="translate(-11984.638 -7474.089)" fill="#344154"/>
            </g>
          </g>
        </g>
        <g id="Grupo_89796" data-name="Grupo 89796" transform="translate(73.998 16.934)">
          <g id="Grupo_89795" data-name="Grupo 89795">
            <g id="Grupo_89794" data-name="Grupo 89794">
              <path id="Trazado_143767" data-name="Trazado 143767" d="M12051.1,7488.426a7.478,7.478,0,0,1,.115,1.56c.023,1,.006,2.463-.1,4.258a112.941,112.941,0,0,1-1.854,13.915c-.352,1.837-.723,3.605-1.109,5.245l.01-.058c-.168,4.181-.334,7.795-.475,10.365-.078,1.2-.141,2.2-.193,3.01a4.494,4.494,0,0,1-.139,1.081,4.275,4.275,0,0,1-.062-1.089q.009-1.222.02-3.015c.039-2.574.127-6.191.258-10.374v-.027l.006-.03c.369-1.627.732-3.4,1.082-5.224,1.025-5.366,1.705-10.27,2.023-13.833.162-1.782.246-3.228.3-4.229A7.6,7.6,0,0,1,12051.1,7488.426Z" transform="translate(-12047.289 -7488.426)" fill="#5e6178"/>
            </g>
          </g>
        </g>
        <g id="Grupo_89799" data-name="Grupo 89799" transform="translate(77.988 31.4)">
          <g id="Grupo_89798" data-name="Grupo 89798">
            <g id="Grupo_89797" data-name="Grupo 89797">
              <path id="Trazado_143768" data-name="Trazado 143768" d="M12050.668,7500.679c.1-.14,4.5,2.737,9.826,6.425s9.573,6.792,9.477,6.932-4.5-2.736-9.826-6.426S12050.571,7500.817,12050.668,7500.679Z" transform="translate(-12050.666 -7500.674)" fill="#5e6178"/>
            </g>
          </g>
        </g>
        <g id="Grupo_89802" data-name="Grupo 89802" transform="translate(30.445 10.308)">
          <g id="Grupo_89801" data-name="Grupo 89801">
            <g id="Grupo_89800" data-name="Grupo 89800">
              <path id="Trazado_143769" data-name="Trazado 143769" d="M12023.162,7482.819c.014-.015.107.057.275.209a5.687,5.687,0,0,1,.67.729,8.124,8.124,0,0,1,1.455,3.337,11.007,11.007,0,0,1-.3,5.393,22.047,22.047,0,0,1-3.021,5.868,20.989,20.989,0,0,1-2.219,2.609c-.783.795-1.619,1.449-2.352,2.118-1.488,1.333-2.771,2.6-3.832,3.68s-1.9,1.978-2.477,2.6a5.812,5.812,0,0,1-.941.931,5.247,5.247,0,0,1,.758-1.087c.527-.67,1.316-1.614,2.344-2.739s2.285-2.431,3.768-3.8c.74-.7,1.561-1.353,2.3-2.122a21.356,21.356,0,0,0,2.148-2.546,22.593,22.593,0,0,0,2.979-5.679,10.984,10.984,0,0,0,.418-5.144A9.672,9.672,0,0,0,12023.162,7482.819Z" transform="translate(-12010.413 -7482.817)" fill="#5e6178"/>
            </g>
          </g>
        </g>
        <g id="Grupo_89804" data-name="Grupo 89804" transform="translate(36.927 50.66)">
          <g id="Grupo_89803" data-name="Grupo 89803">
            <path id="Trazado_143770" data-name="Trazado 143770" d="M12015.9,7524.211l.623-7.23h36.709l-.2,5.649Z" transform="translate(-12015.902 -7516.981)" fill="#5e6178"/>
          </g>
        </g>
        <g id="Grupo_89807" data-name="Grupo 89807" transform="translate(6.872 37.202)">
          <g id="Grupo_89806" data-name="Grupo 89806">
            <g id="Grupo_89805" data-name="Grupo 89805">
              <path id="Trazado_143771" data-name="Trazado 143771" d="M11990.457,7505.587" transform="translate(-11990.457 -7505.587)" fill="none" stroke="#7a9198" stroke-miterlimit="10" stroke-width="0.05" opacity="0"/>
            </g>
          </g>
        </g>
        <g id="Grupo_89810" data-name="Grupo 89810" transform="translate(0.818 36.303)">
          <g id="Grupo_89809" data-name="Grupo 89809">
            <g id="Grupo_89808" data-name="Grupo 89808">
              <path id="Trazado_143772" data-name="Trazado 143772" d="M11990.123,7504.831c.068.092-.927.694-2.033,2.125a9.781,9.781,0,0,0,.521,12.826c1.218,1.337,2.26,1.856,2.2,1.954-.017.032-.291-.062-.75-.312a8.394,8.394,0,0,1-1.764-1.34,9.71,9.71,0,0,1-.544-13.4,8.354,8.354,0,0,1,1.65-1.479C11989.838,7504.915,11990.1,7504.8,11990.123,7504.831Z" transform="translate(-11985.331 -7504.826)" fill="#5e6178"/>
            </g>
          </g>
        </g>
      </g>
      <g id="Grupo_89814" data-name="Grupo 89814" transform="translate(76.964 311.694)">
        <path id="Trazado_143773" data-name="Trazado 143773" d="M12051.222,7691.853l4.163,9.685-18.629-.221-.395-9.873Z" transform="translate(-12036.361 -7691.444)" fill="#d9a171"/>
        <g id="Grupo_89812" data-name="Grupo 89812" transform="translate(0.256 7.907)">
          <path id="Trazado_143774" data-name="Trazado 143774" d="M12036.579,7698.43a17.129,17.129,0,0,0,2.608.133c1.614.027,3.842.02,6.3-.02,2.345-.05,4.467-.094,6.289-.131a19.735,19.735,0,0,0,2.605-.133,17.564,17.564,0,0,0-2.608-.127c-1.614-.025-3.843-.016-6.3.023l-6.287.127A19.884,19.884,0,0,0,12036.579,7698.43Z" transform="translate(-12036.579 -7698.138)" fill="#344154"/>
        </g>
        <g id="Grupo_89813" data-name="Grupo 89813" transform="translate(7.873 0.198)">
          <path id="Trazado_143775" data-name="Trazado 143775" d="M12043.177,7691.611a26.147,26.147,0,1,0,.513,3.9A13.309,13.309,0,0,0,12043.177,7691.611Z" transform="translate(-12043.028 -7691.611)" fill="#344154"/>
        </g>
        <path id="Trazado_143776" data-name="Trazado 143776" d="M12055.317,7700.528l-18.62-.624-.118-1.767,17.8.152.943,2.027" transform="translate(-12036.323 -7690.231)" fill="#fff" opacity="0.6"/>
      </g>
      <g id="Grupo_89824" data-name="Grupo 89824" transform="translate(3.388 111.281)">
        <g id="Grupo_89817" data-name="Grupo 89817">
          <g id="Grupo_89816" data-name="Grupo 89816">
            <g id="Grupo_89815" data-name="Grupo 89815">
              <path id="Trazado_143777" data-name="Trazado 143777" d="M12070.243,7537.711c14.016,44.232-4.053,97.927.279,149.468.426,5.063,2.481,11.122-2.254,14a7.738,7.738,0,0,1-4.273,1.044c-3.784-.126-6.945-2.087-10.323-3.436a30.667,30.667,0,0,0-20.313-.787c-4.472,1.394-8.907,3.857-13.539,3.157-6.15-.93-10.137-7.011-15.8-9.586-5.3-2.412-11.422-1.512-17.242-1.657l-.176-.006a13.065,13.065,0,0,1-12.064-16.543c8.46-30.986,36.52-131.648,48.941-150.024l37.133-1.581C12064.035,7525.9,12068.433,7532.076,12070.243,7537.711Z" transform="translate(-11974.07 -7521.764)" fill="#d9a171"/>
            </g>
          </g>
        </g>
        <g id="Grupo_89820" data-name="Grupo 89820" transform="translate(66.243 36.767)">
          <g id="Grupo_89819" data-name="Grupo 89819">
            <g id="Grupo_89818" data-name="Grupo 89818">
              <path id="Trazado_143778" data-name="Trazado 143778" d="M12047.076,7552.9a16.788,16.788,0,0,1-2.02,2.539,58.013,58.013,0,0,1-5.484,5.6,36.958,36.958,0,0,1-6.469,4.449,14.309,14.309,0,0,1-2.947,1.364c-.129-.214,4.41-2.326,9.014-6.278,2.281-1.991,4.166-4.009,5.564-5.434A17.4,17.4,0,0,1,12047.076,7552.9Z" transform="translate(-12030.153 -7552.893)" fill="#344154"/>
            </g>
          </g>
        </g>
        <g id="Grupo_89823" data-name="Grupo 89823" transform="translate(44.855 53.462)" opacity="0.1">
          <g id="Grupo_89822" data-name="Grupo 89822">
            <g id="Grupo_89821" data-name="Grupo 89821">
              <path id="Trazado_143779" data-name="Trazado 143779" d="M12033.958,7567.027a158.235,158.235,0,0,0-6.222,94.68c.666,2.7,1.347,5.776-.192,8.1-1.993,3-6.819,2.8-9.548.441s-3.819-6.066-4.5-9.606c-5.1-26.39,4.135-52.909,14.107-77.867" transform="translate(-12012.046 -7567.027)" fill="#d9a171"/>
            </g>
          </g>
        </g>
      </g>
    </g>
  </g>
</svg>
