<svg xmlns="http://www.w3.org/2000/svg" xmlns:xlink="http://www.w3.org/1999/xlink" width="469.257" height="471.791" viewBox="0 0 469.257 471.791">
  <defs>
    <clipPath id="clip-path">
      <path id="Trazado_143623" data-name="Trazado 143623" d="M8080.318,1712.231s-4.137,27.493-4.782,41.4,3.491,69.725,3.491,85.624,11.953,65.745,11.953,65.745l-3.275,2.618-.215,3.478,9.563,3.048c4.78,1.53,5.665,1.315,5.665,1.315s-1.087-10.244-1.087-33.123,3.706-64.7,3.92-83.233,6.969-36.16,6.969-36.16l2.833-2.391s11.416,59.314,11.416,63.892-10.674,76.5-11.332,78.212-1.529,2.618-1.529,5.021v6.754l16.126-6.323a20.888,20.888,0,0,0-.646-5.451,11.109,11.109,0,0,1-.658-4.136c0-.657,23.309-61.872,23.309-68.853a105.576,105.576,0,0,0-1.362-14.81l-2.618-62.314s3.049-6.539,1.746-12.2-8.5-22.437-9.8-23.525S8093.611,1723.993,8080.318,1712.231Z" transform="translate(-8075.467 -1712.231)" fill="none" opacity="0"/>
    </clipPath>
    <clipPath id="clip-path-2">
      <path id="Trazado_143628" data-name="Trazado 143628" d="M8026.711,1616.289s-9.156-11.332-9.156-13.508,68.854-30.721,69.94-30.721,19.616,12.85,19.832,13.95,1.3,6.969,1.3,7.842-3.263,2.606-3.263,2.606-4.147,3.933-5.236,3.933h-1.087a17.733,17.733,0,0,1-4.351,1.3,3.723,3.723,0,0,1-2.392-1.3s-6.1,1.518-5.665.43,7.41-5.451,7.41-5.451-8.056-5.009-9.562-8.272a44.763,44.763,0,0,1-2.391-6.539l-42.531,30.888Z" transform="translate(-8017.555 -1572.061)" fill="none" opacity="0"/>
    </clipPath>
    <clipPath id="clip-path-3">
      <path id="Trazado_143636" data-name="Trazado 143636" d="M8108.291,1632.867s-6.753-3.263-15-7.83-12.418-3.706-15.683-3.706-32.036-14.81-32.036-14.81l-12.885,13.065s51.2,37.474,52.069,40.307,2.834,62.314,1.96,66.94-2.391,6.539-1.518,8.284,11.954,11.547,31.378,11.332,33.111-5.666,34.415-8.284,1.314-3.706.441-5.666-1.745-4.351-1.745-4.351l6.957-47.121,6.981,35.729s3.479,1.96,10.889.657,10.676-3.275,10.676-3.275-11.763-54.03-14.165-60.784-3.921-6.108-11.548-8.929-27.673-9.156-27.673-9.156Z" transform="translate(-8032.686 -1606.521)" fill="none" opacity="0"/>
    </clipPath>
    <clipPath id="clip-path-4">
      <path id="Trazado_143659" data-name="Trazado 143659" d="M8076.676,1562.011H7868.828a25.375,25.375,0,0,0-24.409,25.461l4.375,95.629v256.44a21.062,21.062,0,0,0,21.062,21.062h203.367a23.3,23.3,0,0,0,22.27-22.269V1681.953l4.387-95.629a23.225,23.225,0,0,0-22.113-24.288Q8077.223,1562.011,8076.676,1562.011Z" transform="translate(-7844.396 -1562.011)" fill="none" opacity="0"/>
    </clipPath>
  </defs>
  <g id="Grupo_89567" data-name="Grupo 89567" transform="translate(-7822.746 -1527.08)">
    <g id="Grupo_89566" data-name="Grupo 89566" transform="translate(7824.579 1527.08)">
      <g id="freepik--background-simple--inject-2" transform="translate(5.201)">
        <path id="Trazado_143603" data-name="Trazado 143603" d="M7825.069,1703.4s-19.126,81.978,34.247,153.4,146.6,99.215,221.464,123.66,145.01-3.777,171.32-66.7-26.836-96.824-38.551-179.005-2.391-105.861-57.02-168.438-166.812-61.083-242.657,3.168S7825.069,1703.4,7825.069,1703.4Z" transform="translate(-7821.736 -1520.325)" fill="#d9a171"/>
        <path id="Trazado_143604" data-name="Trazado 143604" d="M7825.069,1703.4s-19.126,81.978,34.247,153.4,146.6,99.215,221.464,123.66,145.01-3.777,171.32-66.7-26.836-96.824-38.551-179.005-2.391-105.861-57.02-168.438-166.812-61.083-242.657,3.168S7825.069,1703.4,7825.069,1703.4Z" transform="translate(-7821.736 -1520.325)" fill="#fff" stroke="#5e6178" stroke-miterlimit="10" stroke-width="0" opacity="0.7" style="isolation: isolate"/>
      </g>
      <g id="freepik--Floor--inject-2" transform="translate(0 427.563)">
        <ellipse id="Elipse_4279" data-name="Elipse 4279" cx="215.762" cy="22.114" rx="215.762" ry="22.114" fill="#344154"/>
      </g>
      <g id="freepik--Character--inject-2" transform="translate(239.275 60.97)">
        <path id="Trazado_143617" data-name="Trazado 143617" d="M8145.89,1702.376l-8.715,23.907-5.881.873,4.136,16.125s6.323-7.854,8.284-10.687,21.158-33.494,21.158-33.494Z" transform="translate(-7995.334 -1546.37)" fill="#ffbf9d" stroke="#263238" stroke-linecap="round" stroke-linejoin="round" stroke-width="1"/>
        <path id="Trazado_143618" data-name="Trazado 143618" d="M8088.891,1877.731s-14.594,13.077-15.909,17.656,10.674,1.733,16.567-2.187a76.965,76.965,0,0,0,8.715-6.539l.645,1.745s3.49-.43,4.148-2.606-1.314-7.411-1.314-7.411Z" transform="translate(-8006.747 -1511.473)" fill="#fff" stroke="#5e6178" stroke-linecap="round" stroke-linejoin="round" stroke-width="1"/>
        <path id="Trazado_143619" data-name="Trazado 143619" d="M8121.739,1874.631s14.857,15.91,16.16,20.489-10.674,1.733-16.555-2.187a78.119,78.119,0,0,1-8.715-6.527l-.658,1.733s-3.489-.43-4.135-2.606,1.3-7.411,1.3-7.411Z" transform="translate(-7999.944 -1512.079)" fill="#fff" stroke="#5e6178" stroke-linecap="round" stroke-linejoin="round" stroke-width="1"/>
        <path id="Trazado_143620" data-name="Trazado 143620" d="M8080.318,1712.231s-4.137,27.493-4.782,41.4,3.491,69.725,3.491,85.624,11.953,65.745,11.953,65.745l-3.275,2.618-.215,3.478,9.563,3.048c4.78,1.53,5.665,1.315,5.665,1.315s-1.087-10.244-1.087-33.123,3.706-64.7,3.92-83.233,6.969-36.16,6.969-36.16l2.833-2.391s11.416,59.314,11.416,63.892-10.674,76.5-11.332,78.212-1.529,2.618-1.529,5.021v6.754l16.126-6.323a20.888,20.888,0,0,0-.646-5.451,11.109,11.109,0,0,1-.658-4.136c0-.657,23.309-61.872,23.309-68.853a105.576,105.576,0,0,0-1.362-14.81l-2.618-62.314s3.049-6.539,1.746-12.2-8.5-22.437-9.8-23.525S8093.611,1723.993,8080.318,1712.231Z" transform="translate(-8006.241 -1543.805)" fill="#d9a171"/>
        <g id="Grupo_89556" data-name="Grupo 89556" transform="translate(69.226 168.426)">
          <g id="Grupo_89555" data-name="Grupo 89555" clip-path="url(#clip-path)">
            <g id="Grupo_89554" data-name="Grupo 89554" transform="translate(-0.099 0.012)">
              <g id="Grupo_89553" data-name="Grupo 89553" opacity="0.2">
                <path id="Trazado_143621" data-name="Trazado 143621" d="M8127.377,1816.6c0-6.574,4.148-74.566,4.148-74.566l-22.4,12.743c1.565,8.224,11.332,59.636,11.332,63.844,0,4.578-10.675,76.5-11.332,78.212s-1.529,2.618-1.529,5.021v6.754l16.125-6.323a20.847,20.847,0,0,0-.646-5.451,11.189,11.189,0,0,1-.658-4.136c0-.526,15.086-40.236,20.979-59.385C8125.036,1837.313,8127.377,1823.029,8127.377,1816.6Z" transform="translate(-8069.092 -1706.421)" fill="#344154"/>
                <path id="Trazado_143622" data-name="Trazado 143622" d="M8105.664,1844.256l-1.842-9.276c.085-1.4.181-2.785.264-4.16l-.8,1.458-19.927-100.41,32.061-5.284c-12.563.3-35.084-14.344-35.084-14.344l-4.95,34.785,1.591,67.741,2.092,26.13c.071,1.506.2,3.24.419,5.128l.681,8.583a7.409,7.409,0,0,0,.885,2.486c3.407,20.656,9.97,47.958,9.97,47.958l-3.276,2.618-.215,3.479,9.563,3.048c4.78,1.53,5.666,1.315,5.666,1.315s-1.088-10.244-1.088-33.123c0-8.583.514-19.855,1.194-31.546A48.3,48.3,0,0,0,8105.664,1844.256Z" transform="translate(-8075.384 -1712.241)" fill="#344154"/>
              </g>
            </g>
          </g>
        </g>
        <path id="Trazado_143624" data-name="Trazado 143624" d="M8080.318,1712.231s-4.137,27.493-4.782,41.4,3.491,69.725,3.491,85.624,11.953,65.745,11.953,65.745l-3.275,2.618-.215,3.478,9.563,3.048c4.78,1.53,5.665,1.315,5.665,1.315s-1.087-10.244-1.087-33.123,3.706-64.7,3.92-83.233,6.969-36.16,6.969-36.16l2.833-2.391s11.416,59.314,11.416,63.892-10.674,76.5-11.332,78.212-1.529,2.618-1.529,5.021v6.754l16.126-6.323a20.888,20.888,0,0,0-.646-5.451,11.109,11.109,0,0,1-.658-4.136c0-.657,23.309-61.872,23.309-68.853a105.576,105.576,0,0,0-1.362-14.81l-2.618-62.314s3.049-6.539,1.746-12.2-8.5-22.437-9.8-23.525S8093.611,1723.993,8080.318,1712.231Z" transform="translate(-8006.241 -1543.805)" fill="none" stroke="#263238" stroke-linecap="round" stroke-linejoin="round" stroke-width="1" opacity="0"/>
        <line id="Línea_1951" data-name="Línea 1951" y1="12.85" x2="21.349" transform="translate(109.16 203.94)" fill="none" stroke="#263238" stroke-linecap="round" stroke-linejoin="round" stroke-width="1" opacity="0"/>
        <line id="Línea_1952" data-name="Línea 1952" y1="4.363" x2="11.105" transform="translate(115.483 210.909)" fill="none" stroke="#263238" stroke-linecap="round" stroke-linejoin="round" stroke-width="1" opacity="0"/>
        <line id="Línea_1953" data-name="Línea 1953" x2="0.215" y2="22.879" transform="translate(106.112 182.149)" fill="none" stroke="#263238" stroke-linecap="round" stroke-linejoin="round" stroke-width="1" opacity="0"/>
        <path id="Trazado_143625" data-name="Trazado 143625" d="M8109.089,1724.261l1.087,18.958-2.39,2.606" transform="translate(-7999.929 -1541.455)" fill="none" stroke="#263238" stroke-linecap="round" stroke-linejoin="round" stroke-width="1" opacity="0"/>
        <line id="Línea_1954" data-name="Línea 1954" x2="1.733" y2="16.556" transform="translate(123.982 181.061)" fill="none" stroke="#263238" stroke-linecap="round" stroke-linejoin="round" stroke-width="1" opacity="0"/>
        <line id="Línea_1955" data-name="Línea 1955" x2="4.148" y2="8.714" transform="translate(126.588 179.316)" fill="none" stroke="#263238" stroke-linecap="round" stroke-linejoin="round" stroke-width="1" opacity="0"/>
        <line id="Línea_1956" data-name="Línea 1956" x1="7.626" y2="25.927" transform="translate(80.615 181.061)" fill="none" stroke="#263238" stroke-linecap="round" stroke-linejoin="round" stroke-width="1" opacity="0"/>
        <line id="Línea_1957" data-name="Línea 1957" y2="19.174" transform="translate(88.899 182.591)" fill="none" stroke="#263238" stroke-linecap="round" stroke-linejoin="round" stroke-width="1" opacity="0"/>
        <path id="Trazado_143626" data-name="Trazado 143626" d="M8026.711,1616.289s-9.156-11.332-9.156-13.508,68.854-30.721,69.94-30.721,19.616,12.85,19.832,13.95,1.3,6.969,1.3,7.842-3.263,2.606-3.263,2.606-4.147,3.933-5.236,3.933h-1.087a17.733,17.733,0,0,1-4.351,1.3,3.723,3.723,0,0,1-2.392-1.3s-6.1,1.518-5.665.43,7.41-5.451,7.41-5.451-8.056-5.009-9.562-8.272a44.763,44.763,0,0,1-2.391-6.539l-42.531,30.888Z" transform="translate(-8017.555 -1571.188)" fill="#ffbf9d"/>
        <g id="Grupo_89559" data-name="Grupo 89559" transform="translate(0 0.873)">
          <g id="Grupo_89558" data-name="Grupo 89558" clip-path="url(#clip-path-2)">
            <g id="Grupo_89557" data-name="Grupo 89557" transform="translate(0 2.474)">
              <path id="Trazado_143627" data-name="Trazado 143627" d="M8081.076,1574.131c-17.285,6.969-63.521,26.465-63.521,28.246,0,2.176,9.156,13.508,9.156,13.508l12.851-4.781,42.423-30.888Z" transform="translate(-8017.555 -1574.131)" fill="#344154" opacity="0.2" style="isolation: isolate"/>
            </g>
          </g>
        </g>
        <path id="Trazado_143629" data-name="Trazado 143629" d="M8026.711,1616.289s-9.156-11.332-9.156-13.508,68.854-30.721,69.94-30.721,19.616,12.85,19.832,13.95,1.3,6.969,1.3,7.842-3.263,2.606-3.263,2.606-4.147,3.933-5.236,3.933h-1.087a17.733,17.733,0,0,1-4.351,1.3,3.723,3.723,0,0,1-2.392-1.3s-6.1,1.518-5.665.43,7.41-5.451,7.41-5.451-8.056-5.009-9.562-8.272a44.763,44.763,0,0,1-2.391-6.539l-42.531,30.888Z" transform="translate(-8017.555 -1571.188)" fill="none" stroke="#263238" stroke-linecap="round" stroke-linejoin="round" stroke-width="1" opacity="0"/>
        <path id="Trazado_143630" data-name="Trazado 143630" d="M8080.076,1597s4.6-.968,5.044-1.948,1.339-3.849.634-5.642" transform="translate(-8005.342 -1567.799)" fill="none" stroke="#263238" stroke-linecap="round" stroke-linejoin="round" stroke-width="1" opacity="0"/>
        <path id="Trazado_143631" data-name="Trazado 143631" d="M8085.725,1597.468s2.392-1.327,2.678-3.383a36.318,36.318,0,0,0-.622-7.065" transform="translate(-8004.237 -1568.266)" fill="none" stroke="#263238" stroke-linecap="round" stroke-linejoin="round" stroke-width="1" opacity="0"/>
        <path id="Trazado_143632" data-name="Trazado 143632" d="M8091.144,1593.989a6.983,6.983,0,0,0,.287-4.375c-.622-2.391-1.076-4.913-1.076-4.913" transform="translate(-8003.333 -1568.719)" fill="none" stroke="#263238" stroke-linecap="round" stroke-linejoin="round" stroke-width="1" opacity="0"/>
        <path id="Trazado_143633" data-name="Trazado 143633" d="M8108.291,1632.867s-6.753-3.263-15-7.83-12.418-3.706-15.683-3.706-32.036-14.81-32.036-14.81l-12.885,13.065s51.2,37.474,52.069,40.307,2.834,62.314,1.96,66.94-2.391,6.539-1.518,8.284,11.954,11.547,31.378,11.332,33.111-5.666,34.415-8.284,1.314-3.706.441-5.666-1.745-4.351-1.745-4.351l6.957-47.121,6.981,35.729s3.479,1.96,10.889.657,10.676-3.275,10.676-3.275-11.763-54.03-14.165-60.784-3.921-6.108-11.548-8.929-27.673-9.156-27.673-9.156Z" transform="translate(-8014.6 -1564.456)" fill="#aed3f2"/>
        <g id="Grupo_89562" data-name="Grupo 89562" transform="translate(18.086 42.065)">
          <g id="Grupo_89561" data-name="Grupo 89561" clip-path="url(#clip-path-3)">
            <g id="Grupo_89560" data-name="Grupo 89560" transform="translate(0 -0.024)">
              <path id="Trazado_143634" data-name="Trazado 143634" d="M8137.757,1742.891c-7.913,0-22.258-.992-27.7-4.949S8097.2,1705.3,8097.2,1705.3l14.345,19.783-24.5-102.8a25.031,25.031,0,0,0-9.468-.968c-3.274,0-32.035-14.81-32.035-14.81l-12.85,13.089s51.2,37.474,52.069,40.307,2.834,62.314,1.96,66.94-2.391,6.539-1.518,8.284,11.954,11.547,31.378,11.332a92.29,92.29,0,0,0,25.007-3.586C8140.363,1742.879,8139.084,1742.891,8137.757,1742.891Z" transform="translate(-8032.686 -1606.501)" fill="#344154" opacity="0.2" style="isolation: isolate"/>
              <path id="Trazado_143635" data-name="Trazado 143635" d="M8136.635,1672.533l3.825-11.882.849,5.941,8.056-5.092-6.035,44.682Z" transform="translate(-8012.377 -1595.922)" fill="#344154" opacity="0.2" style="isolation: isolate"/>
            </g>
          </g>
        </g>
        <path id="Trazado_143637" data-name="Trazado 143637" d="M8108.291,1632.867s-6.753-3.263-15-7.83-12.418-3.706-15.683-3.706-32.036-14.81-32.036-14.81l-12.885,13.065s51.2,37.474,52.069,40.307,2.834,62.314,1.96,66.94-2.391,6.539-1.518,8.284,11.954,11.547,31.378,11.332,33.111-5.666,34.415-8.284,1.314-3.706.441-5.666-1.745-4.351-1.745-4.351l6.957-47.121,6.981,35.729s3.479,1.96,10.889.657,10.676-3.275,10.676-3.275-11.763-54.03-14.165-60.784-3.921-6.108-11.548-8.929-27.673-9.156-27.673-9.156Z" transform="translate(-8014.6 -1564.456)" fill="none" stroke="#263238" stroke-linecap="round" stroke-linejoin="round" stroke-width="1" opacity="0"/>
        <path id="Trazado_143638" data-name="Trazado 143638" d="M8143.34,1657.4l-6.945,13.687,13.364-13.364" transform="translate(-7994.338 -1554.517)" fill="none" stroke="#263238" stroke-linecap="round" stroke-linejoin="round" stroke-width="1" opacity="0"/>
        <line id="Línea_1958" data-name="Línea 1958" x1="6.754" y1="26.585" transform="translate(63.402 68.852)" fill="none" stroke="#263238" stroke-linecap="round" stroke-linejoin="round" stroke-width="1" opacity="0"/>
        <line id="Línea_1959" data-name="Línea 1959" x1="13.938" y1="35.084" transform="translate(56.217 59.481)" fill="none" stroke="#263238" stroke-linecap="round" stroke-linejoin="round" stroke-width="1" opacity="0"/>
        <path id="Trazado_143639" data-name="Trazado 143639" d="M8076.945,1649.931s11.811,51.986,20.321,62.888" transform="translate(-8005.953 -1555.976)" fill="none" stroke="#263238" stroke-linecap="round" stroke-linejoin="round" stroke-width="1" opacity="0"/>
        <path id="Trazado_143640" data-name="Trazado 143640" d="M8080.134,1670.911s6.36,40.905,12.182,49.081" transform="translate(-8005.329 -1551.877)" fill="none" stroke="#263238" stroke-linecap="round" stroke-linejoin="round" stroke-width="1" opacity="0"/>
        <path id="Trazado_143641" data-name="Trazado 143641" d="M8094.115,1639.78l8.271,20.476-4.566,62.1,8.93,21.576,9.371-24.433-9.813-59.911,15.038-19.126-1.53-1.1s-4.567,3.49-8.93,7.626-8.272,4.578-10.459,1.53-4.137-11.547-4.137-11.547Z" transform="translate(-8002.599 -1558.508)" fill="#344154" stroke="#263238" stroke-linecap="round" stroke-linejoin="round" stroke-width="1"/>
        <path id="Trazado_143642" data-name="Trazado 143642" d="M8105.664,1620.255s-7.411.873-9.563,4.781-5.893,5.009-6.538,12.42-1.529,11.332-.657,11.332,10.244-6.539,10.244-6.539,3.263,9.372,4.578,10.017,3.479-.646,5.438-2.176,6.539-6.969,8.715-5.881,6.753,12.42,8.5,9.563,7.172-16.556,2.834-26.585S8105.664,1620.255,8105.664,1620.255Z" transform="translate(-8003.688 -1561.861)" fill="#fff" stroke="#5e6178" stroke-linecap="round" stroke-linejoin="round" stroke-width="1"/>
        <path id="Trazado_143643" data-name="Trazado 143643" d="M8099.214,1618.9s1.3,21.361,1.53,27.673,1.96,7.842,3.479,6.539,14.823-13.508,16.126-20.692,1.96-11.332,1.96-11.332Z" transform="translate(-8001.602 -1562.038)" fill="#ff9a6c" stroke="#263238" stroke-linecap="round" stroke-linejoin="round" stroke-width="1"/>
        <path id="Trazado_143644" data-name="Trazado 143644" d="M8098.06,1603.123s-2.176-6.981-4.781-5.893-3.492,8.941-1.746,12.42,6.538,3.706,7.172,2.188S8098.06,1603.123,8098.06,1603.123Z" transform="translate(-8003.279 -1566.294)" fill="#ffbf9d" stroke="#263238" stroke-linecap="round" stroke-linejoin="round" stroke-width="1"/>
        <path id="Trazado_143645" data-name="Trazado 143645" d="M8127.861,1600.86l11.105-9.156,4.148-.873-2.187,3.933-12.193,9.145S8127.2,1603.693,8127.861,1600.86Z" transform="translate(-7996.037 -1567.522)" fill="#d9a171" stroke="#263238" stroke-linecap="round" stroke-linejoin="round" stroke-width="1"/>
        <path id="Trazado_143646" data-name="Trazado 143646" d="M8137.2,1591.7l-.454.383,2.211,2.821.2-.143,2.188-3.933Z" transform="translate(-7994.27 -1567.522)" fill="#fff" stroke="#5e6178" stroke-linecap="round" stroke-linejoin="round" stroke-width="1"/>
        <path id="Trazado_143647" data-name="Trazado 143647" d="M8128.227,1601.225s4.352-4.363,5.882-.873.215,7.842-3.048,10.89-5.236,2.391-5.236.227S8128.227,1601.225,8128.227,1601.225Z" transform="translate(-7996.403 -1565.926)" fill="#ffbf9d" stroke="#263238" stroke-linecap="round" stroke-linejoin="round" stroke-width="1"/>
        <path id="Trazado_143648" data-name="Trazado 143648" d="M8104.153,1577.439s-8.271,1.518-8.929,5.881,1.53,37.475,2.617,42.7,10.461,15.7,17.859,15.253,12.862-9.145,14.822-14.165,7.842-34.426,7.842-41.18-12.2-14.6-21.517-14.6S8104.153,1577.439,8104.153,1577.439Z" transform="translate(-8002.405 -1571.331)" fill="#ffbf9d" stroke="#263238" stroke-linecap="round" stroke-linejoin="round" stroke-width="1"/>
        <path id="Trazado_143649" data-name="Trazado 143649" d="M8113.539,1602.771s3.489,8.284,2.176,10.029-8.5,2.606-8.5-1.315" transform="translate(-8000.039 -1565.189)" fill="none" stroke="#263238" stroke-linecap="round" stroke-linejoin="round" stroke-width="1" opacity="0"/>
        <path id="Trazado_143650" data-name="Trazado 143650" d="M8105.215,1614.261s4.578,5.439,13.722.215" transform="translate(-8000.431 -1562.944)" fill="none" stroke="#263238" stroke-linecap="round" stroke-linejoin="round" stroke-width="1" opacity="0"/>
        <path id="Trazado_143651" data-name="Trazado 143651" d="M8113,1603.107a7.626,7.626,0,1,0-7.626,7.626,7.626,7.626,0,0,0,7.626-7.626Z" transform="translate(-8001.889 -1566.613)" fill="#d0f8ff" stroke="#263238" stroke-linecap="round" stroke-linejoin="round" stroke-width="1"/>
        <path id="Trazado_143652" data-name="Trazado 143652" d="M8129.4,1604.259a7.627,7.627,0,1,0-7.639,7.614h.013A7.627,7.627,0,0,0,8129.4,1604.259Z" transform="translate(-7998.685 -1566.39)" fill="#d0f8ff" stroke="#263238" stroke-linecap="round" stroke-linejoin="round" stroke-width="1"/>
        <path id="Trazado_143653" data-name="Trazado 143653" d="M8110.505,1601.907s2.605-.873,4.351.442" transform="translate(-7999.397 -1565.413)" fill="none" stroke="#263238" stroke-linecap="round" stroke-linejoin="round" stroke-width="1" opacity="0"/>
        <path id="Trazado_143654" data-name="Trazado 143654" d="M8116.8,1571.331c-9.372,0-12.647,6.108-12.647,6.108s-8.271,1.518-8.929,5.881c-.335,2.236.071,12.073.706,21.815.238.167,1.47.908,1.47-.466s-.873-3.706.227-5.008,4.352-1.96,6.526-5.451,1.53-5.666,2.188-6.323,7.626-5.224,6.1-1.96-11.332,8.941-5.665,11.954,17.643,2.833,21.791-.215,7.172-9.814,6.539-6.754-2.618,8.057-1.961,9.563a33.526,33.526,0,0,1,1.087,6.1s-1.96,6.969-1.314,7.411a1.325,1.325,0,0,0,.86,0c2.236-10.5,4.591-23.907,4.591-28.127C8138.365,1579.173,8126.161,1571.331,8116.8,1571.331Z" transform="translate(-8002.405 -1571.331)" fill="#344154" stroke="#263238" stroke-linecap="round" stroke-linejoin="round" stroke-width="1"/>
        <path id="Trazado_143655" data-name="Trazado 143655" d="M8139.135,1696.567l.43,7.411s1.53,2.175,11.774,1.745,15.9-3.921,15.9-3.921l-2.174-9.8S8150.9,1697.225,8139.135,1696.567Z" transform="translate(-7993.804 -1547.757)" fill="#aed3f2" stroke="#263238" stroke-linecap="round" stroke-linejoin="round" stroke-width="1"/>
        <path id="Trazado_143656" data-name="Trazado 143656" d="M8046.367,1601.411l-25.712,9.8s11.117,13.065,11.763,12.85,19.125-14.6,18.958-16.125S8046.367,1601.411,8046.367,1601.411Z" transform="translate(-8016.95 -1565.455)" fill="#fff" stroke="#5e6178" stroke-linecap="round" stroke-linejoin="round" stroke-width="1"/>
      </g>
      <g id="freepik--Device--inject-2" transform="translate(32.288 49.83)">
        <path id="Trazado_143657" data-name="Trazado 143657" d="M8076.676,1562.011H7868.828a25.375,25.375,0,0,0-24.409,25.461l4.375,95.629v256.44a21.062,21.062,0,0,0,21.062,21.062h203.367a23.3,23.3,0,0,0,22.27-22.269V1681.953l4.387-95.629a23.225,23.225,0,0,0-22.113-24.288Q8077.223,1562.011,8076.676,1562.011Z" transform="translate(-7844.396 -1562.011)" fill="#fff" stroke="#5e6178" stroke-miterlimit="10" stroke-width="0"/>
        <g id="Grupo_89565" data-name="Grupo 89565">
          <g id="Grupo_89564" data-name="Grupo 89564" clip-path="url(#clip-path-4)">
            <g id="Grupo_89563" data-name="Grupo 89563" transform="translate(8.283 3.024)">
              <path id="Trazado_143658" data-name="Trazado 143658" d="M8086.787,1564.541a23.177,23.177,0,0,1,4.566,14.906l-4.387,95.629v256.392a23.3,23.3,0,0,1-22.27,22.27H7861.33a21.068,21.068,0,0,1-10-2.534,21.006,21.006,0,0,0,17.177,8.894h203.367a23.3,23.3,0,0,0,22.27-22.269V1681.459l4.387-95.629A23.246,23.246,0,0,0,8086.787,1564.541Z" transform="translate(-7851.325 -1564.541)" fill="#344154" opacity="0.2" style="isolation: isolate"/>
            </g>
          </g>
        </g>
        <path id="Trazado_143660" data-name="Trazado 143660" d="M8076.676,1562.011H7868.828a25.375,25.375,0,0,0-24.409,25.461l4.375,95.629v256.44a21.062,21.062,0,0,0,21.062,21.062h203.367a23.3,23.3,0,0,0,22.27-22.269V1681.953l4.387-95.629a23.225,23.225,0,0,0-22.113-24.288Q8077.223,1562.011,8076.676,1562.011Z" transform="translate(-7844.396 -1562.011)" fill="none" stroke="#263238" stroke-miterlimit="10" stroke-width="1" opacity="0"/>
        <path id="Trazado_143661" data-name="Trazado 143661" d="M8082.105,1676.929l4.027-89.245a14.238,14.238,0,0,0-13.577-14.868c-.215-.01-.432-.014-.647-.014H7869.4a14.236,14.236,0,0,0-14.239,14.234q0,.323.015.648l4.017,89.245Z" transform="translate(-7842.292 -1559.903)" fill="#344154" stroke="#263238" stroke-miterlimit="10" stroke-width="1"/>
        <rect id="Rectángulo_31922" data-name="Rectángulo 31922" width="206.092" height="69.701" transform="translate(24.839 36.064)" fill="#7d7d7d"/>
        <rect id="Rectángulo_31923" data-name="Rectángulo 31923" width="185.747" height="49.356" transform="translate(35.011 46.236)" fill="#bfbfbf"/>
        <rect id="Rectángulo_31924" data-name="Rectángulo 31924" width="103.984" height="30.518" rx="4.97" transform="translate(25.221 145.332)" fill="#7d7d7d" stroke="#263238" stroke-miterlimit="10" stroke-width="1"/>
        <line id="Línea_1960" data-name="Línea 1960" y2="30.135" transform="translate(47.072 145.714)" fill="none" stroke="#263238" stroke-miterlimit="10" stroke-width="1" opacity="0"/>
        <line id="Línea_1961" data-name="Línea 1961" y2="30.135" transform="translate(68.051 145.714)" fill="none" stroke="#263238" stroke-miterlimit="10" stroke-width="1" opacity="0"/>
        <line id="Línea_1962" data-name="Línea 1962" y2="30.135" transform="translate(89.017 145.714)" fill="none" stroke="#263238" stroke-miterlimit="10" stroke-width="1" opacity="0"/>
        <line id="Línea_1963" data-name="Línea 1963" y2="30.135" transform="translate(109.984 145.714)" fill="none" stroke="#263238" stroke-miterlimit="10" stroke-width="1" opacity="0"/>
        <rect id="Rectángulo_31925" data-name="Rectángulo 31925" width="36.996" height="23.955" rx="4.62" transform="translate(155.646 162.102)" fill="#d9d9d9" stroke="#263238" stroke-miterlimit="10" stroke-width="1"/>
        <rect id="Rectángulo_31926" data-name="Rectángulo 31926" width="36.996" height="28.199" rx="4.62" transform="translate(25.843 195.166)" fill="#d9d9d9" stroke="#263238" stroke-miterlimit="10" stroke-width="1"/>
        <rect id="Rectángulo_31927" data-name="Rectángulo 31927" width="36.996" height="28.199" rx="4.62" transform="translate(69.21 195.166)" fill="#d9d9d9" stroke="#263238" stroke-miterlimit="10" stroke-width="1"/>
        <path id="Trazado_143662" data-name="Trazado 143662" d="M7944.1,1725.281h25.939a5.534,5.534,0,0,1,5.534,5.535h0v17.141a5.535,5.535,0,0,1-5.522,5.535h-25.939a5.524,5.524,0,0,1-5.522-5.523V1730.8A5.522,5.522,0,0,1,7944.1,1725.281Z" transform="translate(-7825.995 -1530.115)" fill="#d9d9d9" stroke="#263238" stroke-miterlimit="10" stroke-width="1"/>
        <rect id="Rectángulo_31928" data-name="Rectángulo 31928" width="36.996" height="28.199" rx="4.62" transform="translate(155.945 195.166)" fill="#d9d9d9" stroke="#263238" stroke-miterlimit="10" stroke-width="1"/>
        <rect id="Rectángulo_31929" data-name="Rectángulo 31929" width="36.996" height="28.199" rx="4.62" transform="translate(199.313 195.166)" fill="#d9d9d9" stroke="#263238" stroke-miterlimit="10" stroke-width="1"/>
        <rect id="Rectángulo_31930" data-name="Rectángulo 31930" width="36.996" height="28.199" rx="4.62" transform="translate(25.843 233.071)" fill="#d9d9d9" stroke="#263238" stroke-miterlimit="10" stroke-width="1"/>
        <rect id="Rectángulo_31931" data-name="Rectángulo 31931" width="36.996" height="28.199" rx="4.62" transform="translate(69.21 233.071)" fill="#5e6178" stroke="#263238" stroke-miterlimit="10" stroke-width="1"/>
        <path id="Trazado_143663" data-name="Trazado 143663" d="M7944.1,1757.011h25.939a5.534,5.534,0,0,1,5.534,5.535h0v17.141a5.535,5.535,0,0,1-5.522,5.534h-25.939a5.524,5.524,0,0,1-5.522-5.522V1762.51A5.523,5.523,0,0,1,7944.1,1757.011Z" transform="translate(-7825.995 -1523.916)" fill="#5e6178" stroke="#263238" stroke-miterlimit="10" stroke-width="1"/>
        <rect id="Rectángulo_31932" data-name="Rectángulo 31932" width="36.996" height="28.199" rx="4.62" transform="translate(155.945 233.071)" fill="#5e6178" stroke="#263238" stroke-miterlimit="10" stroke-width="1"/>
        <rect id="Rectángulo_31933" data-name="Rectángulo 31933" width="36.996" height="28.199" rx="4.62" transform="translate(199.313 233.071)" fill="#d9d9d9" stroke="#263238" stroke-miterlimit="10" stroke-width="1"/>
        <rect id="Rectángulo_31934" data-name="Rectángulo 31934" width="36.996" height="28.199" rx="4.62" transform="translate(25.843 270.976)" fill="#d9d9d9" stroke="#263238" stroke-miterlimit="10" stroke-width="1"/>
        <rect id="Rectángulo_31935" data-name="Rectángulo 31935" width="36.996" height="28.199" rx="4.62" transform="translate(69.21 270.976)" fill="#5e6178" stroke="#263238" stroke-miterlimit="10" stroke-width="1"/>
        <path id="Trazado_143664" data-name="Trazado 143664" d="M7944.1,1788.7h25.939a5.534,5.534,0,0,1,5.534,5.535h0v17.141a5.535,5.535,0,0,1-5.522,5.535h-25.939a5.524,5.524,0,0,1-5.522-5.522v-17.153a5.523,5.523,0,0,1,5.511-5.535Z" transform="translate(-7825.995 -1517.725)" fill="#5e6178" stroke="#263238" stroke-miterlimit="10" stroke-width="1"/>
        <rect id="Rectángulo_31936" data-name="Rectángulo 31936" width="36.996" height="28.199" rx="4.62" transform="translate(155.945 270.976)" fill="#5e6178" stroke="#263238" stroke-miterlimit="10" stroke-width="1"/>
        <rect id="Rectángulo_31937" data-name="Rectángulo 31937" width="36.996" height="28.199" rx="4.62" transform="translate(199.313 270.976)" fill="#d9d9d9" stroke="#263238" stroke-miterlimit="10" stroke-width="1"/>
        <rect id="Rectángulo_31938" data-name="Rectángulo 31938" width="36.996" height="28.199" rx="4.62" transform="translate(25.843 308.881)" fill="#d9a171" stroke="#263238" stroke-miterlimit="10" stroke-width="1"/>
        <rect id="Rectángulo_31939" data-name="Rectángulo 31939" width="36.996" height="28.199" rx="4.62" transform="translate(69.21 308.881)" fill="#5e6178" stroke="#263238" stroke-miterlimit="10" stroke-width="1"/>
        <path id="Trazado_143665" data-name="Trazado 143665" d="M7944.1,1820.411h25.939a5.534,5.534,0,0,1,5.534,5.534h0v17.142a5.535,5.535,0,0,1-5.522,5.534h-25.939a5.524,5.524,0,0,1-5.522-5.523V1825.91A5.522,5.522,0,0,1,7944.1,1820.411Z" transform="translate(-7825.995 -1511.53)" fill="#5e6178" stroke="#263238" stroke-miterlimit="10" stroke-width="1"/>
        <rect id="Rectángulo_31940" data-name="Rectángulo 31940" width="36.996" height="28.199" rx="4.62" transform="translate(155.945 308.881)" fill="#5e6178" stroke="#263238" stroke-miterlimit="10" stroke-width="1"/>
        <rect id="Rectángulo_31941" data-name="Rectángulo 31941" width="36.996" height="28.199" rx="4.62" transform="translate(25.843 346.797)" fill="#d9a171" stroke="#263238" stroke-miterlimit="10" stroke-width="1"/>
        <rect id="Rectángulo_31942" data-name="Rectángulo 31942" width="36.996" height="28.199" rx="4.62" transform="translate(69.21 346.797)" fill="#5e6178" stroke="#263238" stroke-miterlimit="10" stroke-width="1"/>
        <path id="Trazado_143666" data-name="Trazado 143666" d="M7944.1,1852.131h25.939a5.534,5.534,0,0,1,5.534,5.534h0v17.142a5.535,5.535,0,0,1-5.522,5.534h-25.939a5.524,5.524,0,0,1-5.522-5.522v-17.165A5.522,5.522,0,0,1,7944.1,1852.131Z" transform="translate(-7825.995 -1505.333)" fill="#5e6178" stroke="#263238" stroke-miterlimit="10" stroke-width="1"/>
        <rect id="Rectángulo_31943" data-name="Rectángulo 31943" width="36.996" height="28.199" rx="4.62" transform="translate(155.945 346.797)" fill="#d9d9d9" stroke="#263238" stroke-miterlimit="10" stroke-width="1"/>
        <path id="Trazado_143667" data-name="Trazado 143667" d="M8042.514,1820.411h-25.771a5.617,5.617,0,0,0-5.606,5.618V1880.9a5.606,5.606,0,0,0,5.606,5.606h25.771a5.606,5.606,0,0,0,5.618-5.594v-54.879a5.618,5.618,0,0,0-5.618-5.618Z" transform="translate(-7811.823 -1511.53)" fill="#d9d9d9" stroke="#263238" stroke-miterlimit="10" stroke-width="1"/>
        <rect id="Rectángulo_31944" data-name="Rectángulo 31944" width="36.996" height="23.955" rx="4.62" transform="translate(199.313 162.102)" fill="#d9a171" stroke="#263238" stroke-miterlimit="10" stroke-width="1"/>
        <path id="Trazado_143668" data-name="Trazado 143668" d="M8017.38,1714.553a8.368,8.368,0,0,1,0-10.077,6.731,6.731,0,0,1,9.3,0,8.366,8.366,0,0,1,0,10.077A6.731,6.731,0,0,1,8017.38,1714.553Zm7.843-1.1a7.353,7.353,0,0,0,0-7.889,4.283,4.283,0,0,0-6.4,0,7.421,7.421,0,0,0,0,7.889,4.259,4.259,0,0,0,6.4,0Z" transform="translate(-7810.932 -1534.543)" fill="#fff" stroke="#5e6178" stroke-miterlimit="10" stroke-width="0"/>
        <path id="Trazado_143669" data-name="Trazado 143669" d="M8028.9,1715.956a.767.767,0,0,1-.264-.61v-11.368a1.19,1.19,0,0,1,.312-.885,1,1,0,0,1,.766-.323,1.41,1.41,0,0,1,.681.191,1.734,1.734,0,0,1,.6.55l6.838,9.946v-9.85a.767.767,0,0,1,.25-.609.872.872,0,0,1,.622-.227.849.849,0,0,1,.6.227.723.723,0,0,1,.262.609v11.4a1.127,1.127,0,0,1-1.146,1.219,1.376,1.376,0,0,1-.634-.167,1.391,1.391,0,0,1-.525-.454l-6.861-9.945v9.73a.731.731,0,0,1-.263.609.968.968,0,0,1-.622.227A.908.908,0,0,1,8028.9,1715.956Z" transform="translate(-7808.403 -1534.512)" fill="#fff" stroke="#5e6178" stroke-miterlimit="10" stroke-width="0"/>
        <path id="Trazado_143670" data-name="Trazado 143670" d="M7876.72,1745.574a1.493,1.493,0,0,1-.49-.61l-4.363-9.814v10.208a.561.561,0,0,1-.263.5,1.123,1.123,0,0,1-1.2,0,.563.563,0,0,1-.263-.5v-11.141a1.193,1.193,0,0,1,.43-.908,1.474,1.474,0,0,1,.992-.359,1.522,1.522,0,0,1,.886.275,1.831,1.831,0,0,1,.668.837l4.268,9.455,4.256-9.455a1.757,1.757,0,0,1,.658-.837,1.576,1.576,0,0,1,1.888.084,1.19,1.19,0,0,1,.431.908v11.1a.563.563,0,0,1-.263.5,1.016,1.016,0,0,1-.61.179,1.051,1.051,0,0,1-.608-.179.6.6,0,0,1-.264-.5v-10.208l-4.387,9.862a1.486,1.486,0,0,1-.491.61,1.086,1.086,0,0,1-.633.215A1.13,1.13,0,0,1,7876.72,1745.574Z" transform="translate(-7839.366 -1528.616)" fill="#fff" stroke="#5e6178" stroke-miterlimit="10" stroke-width="0"/>
        <path id="Trazado_143671" data-name="Trazado 143671" d="M7887.492,1745.5a5.793,5.793,0,0,1-2.14-2.462,8.162,8.162,0,0,1-.717-3.479,8.456,8.456,0,0,1,.441-2.714,6.828,6.828,0,0,1,1.2-2.2,5.735,5.735,0,0,1,2.009-1.494,6.548,6.548,0,0,1,2.677-.538,6.833,6.833,0,0,1,3.4.873.682.682,0,0,1,.407.646.729.729,0,0,1-.2.526.656.656,0,0,1-.5.227.816.816,0,0,1-.3-.084l-.239-.12-.311-.143-.37-.143-.49-.143-.586-.084c-.243-.012-.487-.012-.729,0a4.783,4.783,0,0,0-1.649.275,3.734,3.734,0,0,0-1.2.777,4.6,4.6,0,0,0-.861,1.2,6.157,6.157,0,0,0-.5,1.482,8.529,8.529,0,0,0,0,3.359,5.988,5.988,0,0,0,.5,1.47,4.314,4.314,0,0,0,.861,1.2,3.721,3.721,0,0,0,1.268.765,4.705,4.705,0,0,0,1.685.287,4.506,4.506,0,0,0,1.458-.227,8.5,8.5,0,0,0,1.364-.634.666.666,0,0,1,.357-.1.643.643,0,0,1,.49.215.7.7,0,0,1,.216.5.862.862,0,0,1-.479.729,6.578,6.578,0,0,1-3.692,1.028A6.084,6.084,0,0,1,7887.492,1745.5Z" transform="translate(-7836.536 -1528.683)" fill="#fff" stroke="#5e6178" stroke-miterlimit="10" stroke-width="0"/>
        <path id="Trazado_143672" data-name="Trazado 143672" d="M7880.556,1868.656H7874.1l-1.111,2.857a.872.872,0,0,1-.873.622,1.007,1.007,0,0,1-.646-.239.747.747,0,0,1-.287-.585,1.024,1.024,0,0,1,.073-.347l4.458-11.069a2.312,2.312,0,0,1,.681-1.052,1.842,1.842,0,0,1,1.854,0,2.294,2.294,0,0,1,.692,1.052l4.436,11.153a.79.79,0,0,1,.084.347.757.757,0,0,1-.3.586,1.02,1.02,0,0,1-.658.239.873.873,0,0,1-.86-.621Zm-3.228-8.284-2.7,6.933h5.392Z" transform="translate(-7839.162 -1504.071)" fill="#fff" stroke="#5e6178" stroke-miterlimit="10" stroke-width="0"/>
        <path id="Trazado_143673" data-name="Trazado 143673" d="M7885.742,1871.407a5.746,5.746,0,0,1-2.14-2.451,8.188,8.188,0,0,1-.717-3.478,8.349,8.349,0,0,1,.442-2.713,6.9,6.9,0,0,1,1.2-2.212,5.473,5.473,0,0,1,2.009-1.482,6.317,6.317,0,0,1,2.678-.55,6.835,6.835,0,0,1,3.395.873.707.707,0,0,1,.406.645.758.758,0,0,1-.2.526.647.647,0,0,1-.5.227.859.859,0,0,1-.31-.072l-.228-.12-.311-.155-.371-.132-.49-.143a5.115,5.115,0,0,0-.585-.1q-.365-.018-.729,0a4.492,4.492,0,0,0-1.649.287,3.439,3.439,0,0,0-1.2.777,4.531,4.531,0,0,0-.849,1.2,5.925,5.925,0,0,0-.5,1.47,8.487,8.487,0,0,0-.168,1.685,8.352,8.352,0,0,0,.168,1.685,5.667,5.667,0,0,0,.5,1.458,4.059,4.059,0,0,0,.861,1.2,3.72,3.72,0,0,0,1.267.777,5,5,0,0,0,1.687.275,4.534,4.534,0,0,0,1.457-.215,9.624,9.624,0,0,0,1.363-.633.693.693,0,0,1,.358-.108.642.642,0,0,1,.489.215.678.678,0,0,1,.2.5.885.885,0,0,1-.467.741,6.584,6.584,0,0,1-3.692,1.016A5.982,5.982,0,0,1,7885.742,1871.407Z" transform="translate(-7836.877 -1504.085)" fill="#fff" stroke="#5e6178" stroke-miterlimit="10" stroke-width="0"/>
        <path id="Trazado_143674" data-name="Trazado 143674" d="M7879.53,1839.407a5.721,5.721,0,0,1-2.128-2.451,8.16,8.16,0,0,1-.717-3.478,8.35,8.35,0,0,1,.431-2.714,6.883,6.883,0,0,1,1.2-2.212,5.418,5.418,0,0,1,2-1.482,6.419,6.419,0,0,1,2.69-.55,6.783,6.783,0,0,1,3.383.873.729.729,0,0,1,.368.964.75.75,0,0,1-.165.232.622.622,0,0,1-.489.227.781.781,0,0,1-.312-.072l-.228-.12-.323-.155-.37-.131-.489-.144a4.637,4.637,0,0,0-.586-.1,6.732,6.732,0,0,0-.729,0,4.6,4.6,0,0,0-1.649.287,3.374,3.374,0,0,0-1.2.777,4.878,4.878,0,0,0-.861,1.2,5.924,5.924,0,0,0-.5,1.47,8.41,8.41,0,0,0-.155,1.685,8.276,8.276,0,0,0,.155,1.686,5.674,5.674,0,0,0,.5,1.458,4.6,4.6,0,0,0,.861,1.2,3.85,3.85,0,0,0,1.267.777,4.993,4.993,0,0,0,1.687.275,4.468,4.468,0,0,0,1.457-.215,8.545,8.545,0,0,0,1.363-.634.775.775,0,0,1,.358-.108.691.691,0,0,1,.5.215.73.73,0,0,1,.2.5.884.884,0,0,1-.467.741,6.629,6.629,0,0,1-3.693,1.016A5.98,5.98,0,0,1,7879.53,1839.407Z" transform="translate(-7838.088 -1510.337)" fill="#fff" stroke="#5e6178" stroke-miterlimit="10" stroke-width="0"/>
        <path id="Trazado_143675" data-name="Trazado 143675" d="M7875.236,1770.3a4.409,4.409,0,0,1,0-5.236,2.845,2.845,0,0,1,2.391-1.052,3.232,3.232,0,0,1,1.435.311,2.727,2.727,0,0,1,1.016.849,4.234,4.234,0,0,1,.563,1.2,4.421,4.421,0,0,1,.191,1.327,3.959,3.959,0,0,1-.874,2.618,3.143,3.143,0,0,1-4.44.221c-.076-.071-.149-.144-.222-.221Zm3.382-.406a2.094,2.094,0,0,0,.586-.944,4.711,4.711,0,0,0,.156-1.279,4.484,4.484,0,0,0-.191-1.207,1.992,1.992,0,0,0-.586-.944,1.518,1.518,0,0,0-1.052-.382,1.484,1.484,0,0,0-1.04.382,2.1,2.1,0,0,0-.587.944,4.545,4.545,0,0,0-.154,1.267,4.747,4.747,0,0,0,.154,1.279,2.217,2.217,0,0,0,.587.944,1.484,1.484,0,0,0,1.04.383A1.515,1.515,0,0,0,7878.618,1769.891Zm-.92,7.854a.512.512,0,0,1-.167-.382.716.716,0,0,1,.107-.323l7.327-12.969a.612.612,0,0,1,.538-.359.527.527,0,0,1,.383.156.564.564,0,0,1,.155.394.882.882,0,0,1-.119.394l-7.3,12.886a.6.6,0,0,1-.513.359A.6.6,0,0,1,7877.7,1777.745Zm6.563-1.2a4.077,4.077,0,0,1-.85-2.642,3.892,3.892,0,0,1,.873-2.594,2.832,2.832,0,0,1,2.318-1.052,3.122,3.122,0,0,1,1.436.323,2.543,2.543,0,0,1,1,.837,4.121,4.121,0,0,1,.563,1.2,4.522,4.522,0,0,1,.191,1.327,4.358,4.358,0,0,1-.371,1.841,3.1,3.1,0,0,1-5.163.8Zm3.382-.418a2.1,2.1,0,0,0,.586-.932,4.8,4.8,0,0,0,.156-1.291,4.247,4.247,0,0,0-.1-.968,2.937,2.937,0,0,0-.286-.813,1.62,1.62,0,0,0-2.45-.43,1.987,1.987,0,0,0-.574.945,4.915,4.915,0,0,0,0,2.546,2,2,0,0,0,.574.944,1.515,1.515,0,0,0,1.051.382,1.478,1.478,0,0,0,1.04-.418Z" transform="translate(-7838.539 -1522.607)" fill="#fff" stroke="#5e6178" stroke-miterlimit="10" stroke-width="0"/>
        <path id="Trazado_143676" data-name="Trazado 143676" d="M7916.721,1776.959a.789.789,0,0,1-.287-.622.989.989,0,0,1,.1-.406l4.591-10.543h-6.182a.745.745,0,0,1-.561-.227.777.777,0,0,1,0-1.052.692.692,0,0,1,.561-.227h7.174a1.2,1.2,0,0,1,.776.239.806.806,0,0,1,.274.646,2.076,2.076,0,0,1-.167.8l-4.781,11.117a.8.8,0,0,1-.8.526A1,1,0,0,1,7916.721,1776.959Z" transform="translate(-7830.764 -1522.574)" fill="#fff" stroke="#5e6178" stroke-miterlimit="10" stroke-width="0"/>
        <path id="Trazado_143677" data-name="Trazado 143677" d="M7952.756,1777.037a3.65,3.65,0,0,1-1.649-1.3,3.439,3.439,0,0,1-.621-2.068,3.6,3.6,0,0,1,.692-2.176,3.22,3.22,0,0,1,1.974-1.2,3.026,3.026,0,0,1-1.829-1.1,3.182,3.182,0,0,1-.622-1.972,3.234,3.234,0,0,1,.609-1.972,3.482,3.482,0,0,1,1.579-1.2,5.982,5.982,0,0,1,2.222-.394,6.643,6.643,0,0,1,1.734.227,4.788,4.788,0,0,1,1.4.67,3.138,3.138,0,0,1,.956,1.135,3.48,3.48,0,0,1,.347,1.554,3.131,3.131,0,0,1-.633,1.984,3.068,3.068,0,0,1-1.806,1.088,3.578,3.578,0,0,1,1.984,1.2,3.415,3.415,0,0,1,.67,2.14,3.589,3.589,0,0,1-.622,2.068,3.738,3.738,0,0,1-1.662,1.3,6.88,6.88,0,0,1-4.722,0Zm4.34-1.59a2.082,2.082,0,0,0,.765-1.769,2.39,2.39,0,0,0-.776-1.889,3.269,3.269,0,0,0-3.933,0,2.388,2.388,0,0,0-.79,1.889,2.275,2.275,0,0,0,.383,1.339,2.173,2.173,0,0,0,.992.777,3.617,3.617,0,0,0,1.387.239,3.149,3.149,0,0,0,1.937-.586Zm0-6.574a2.046,2.046,0,0,0,.705-1.674,1.886,1.886,0,0,0-.753-1.65,3.136,3.136,0,0,0-1.877-.538,4.242,4.242,0,0,0-.98.12,2.92,2.92,0,0,0-.837.371,1.7,1.7,0,0,0-.6.693,2.215,2.215,0,0,0-.214,1,2.039,2.039,0,0,0,.7,1.674,3.516,3.516,0,0,0,3.85,0Z" transform="translate(-7823.671 -1522.617)" fill="#fff" stroke="#5e6178" stroke-miterlimit="10" stroke-width="0"/>
        <path id="Trazado_143678" data-name="Trazado 143678" d="M7986.78,1776.763a.6.6,0,0,1-.359-.586.977.977,0,0,1,.2-.586.62.62,0,0,1,.489-.275.551.551,0,0,1,.228.06,5.534,5.534,0,0,0,2.392.562,4.153,4.153,0,0,0,1.194-.143,2.925,2.925,0,0,0,.873-.395,2.467,2.467,0,0,0,.621-.645,3.953,3.953,0,0,0,.431-.837,5.46,5.46,0,0,0,.263-1.04,9.642,9.642,0,0,0,.132-1.2v-1.3a2.524,2.524,0,0,1-1.123,1.351,3.934,3.934,0,0,1-2.128.586,4.151,4.151,0,0,1-3.085-1.2,4.2,4.2,0,0,1-1.2-3.072,4.344,4.344,0,0,1,1.2-3.192,4.413,4.413,0,0,1,3.287-1.2,5.564,5.564,0,0,1,1.961.335,3.969,3.969,0,0,1,1.41.9,4.543,4.543,0,0,1,.908,1.363,6.451,6.451,0,0,1,.5,1.65,11,11,0,0,1,.144,1.853v1.53a9.1,9.1,0,0,1-.2,1.518,8.668,8.668,0,0,1-.407,1.446,5.426,5.426,0,0,1-.669,1.267,4.313,4.313,0,0,1-.98,1.04,4.54,4.54,0,0,1-1.362.669,6.537,6.537,0,0,1-1.8.239A6.447,6.447,0,0,1,7986.78,1776.763Zm5.511-6.562a2.992,2.992,0,0,0,.765-2.163,3.045,3.045,0,0,0-.718-2.068,2.5,2.5,0,0,0-2.02-.837,2.628,2.628,0,0,0-2.068.8,3.045,3.045,0,0,0-.717,2.128,3.259,3.259,0,0,0,.657,2.116,2.276,2.276,0,0,0,1.937.825A2.822,2.822,0,0,0,7992.291,1770.2Z" transform="translate(-7816.789 -1522.618)" fill="#fff" stroke="#5e6178" stroke-miterlimit="10" stroke-width="0"/>
        <path id="Trazado_143679" data-name="Trazado 143679" d="M7920.582,1808a.779.779,0,0,1-.275-.621v-2.068h-5.355a.874.874,0,0,1-.693-.3.961.961,0,0,1-.263-.681,1.2,1.2,0,0,1,.168-.586l5.127-8.045a1.723,1.723,0,0,1,1.53-.884,1.379,1.379,0,0,1,.933.323,1.19,1.19,0,0,1,.383.98v7.818h1.351a.66.66,0,0,1,.515.2.745.745,0,0,1,0,.968.66.66,0,0,1-.515.2h-1.362v2.068a.779.779,0,0,1-.275.621.933.933,0,0,1-.621.227A.993.993,0,0,1,7920.582,1808Zm-.275-4.064v-7.172l-4.482,7.172Z" transform="translate(-7830.799 -1516.532)" fill="#fff" stroke="#5e6178" stroke-miterlimit="10" stroke-width="0"/>
        <path id="Trazado_143680" data-name="Trazado 143680" d="M7952.979,1808.028a6.2,6.2,0,0,1-1.8-1.124.508.508,0,0,1-.179-.406.857.857,0,0,1,.25-.586.743.743,0,0,1,.538-.275.528.528,0,0,1,.335.12,4.375,4.375,0,0,0,2.976,1.124,2.767,2.767,0,0,0,2.1-.753,3,3,0,0,0,.717-2.128,2.875,2.875,0,0,0-.705-2.008,2.388,2.388,0,0,0-1.864-.765,3.573,3.573,0,0,0-1.494.346,3.24,3.24,0,0,0-1.2.861.5.5,0,0,1-.37.12,1.66,1.66,0,0,1-.765-.2c-.264-.143-.383-.3-.383-.49v-6.12c0-.562.3-.849.908-.849h6.145a.62.62,0,0,1,.514.215.776.776,0,0,1,.191.5.759.759,0,0,1-.18.5.686.686,0,0,1-.525.2h-5.535v4.53l.12-.12a2.45,2.45,0,0,1,.335-.263,4.788,4.788,0,0,1,.573-.323,4.15,4.15,0,0,1,.825-.263,5.245,5.245,0,0,1,1.075-.108,3.885,3.885,0,0,1,3,1.2,4.3,4.3,0,0,1,1.136,3.084,4.146,4.146,0,0,1-1.28,3.168,4.608,4.608,0,0,1-3.274,1.2A5.911,5.911,0,0,1,7952.979,1808.028Z" transform="translate(-7823.571 -1516.516)" fill="#fff" stroke="#5e6178" stroke-miterlimit="10" stroke-width="0"/>
        <path id="Trazado_143681" data-name="Trazado 143681" d="M7988.709,1808.113a3.688,3.688,0,0,1-1.411-.9,4.56,4.56,0,0,1-.908-1.351,6.872,6.872,0,0,1-.5-1.662,11.326,11.326,0,0,1-.144-1.853v-1.518a12.6,12.6,0,0,1,.215-1.518,7.829,7.829,0,0,1,.395-1.458,6.194,6.194,0,0,1,.67-1.267,4.157,4.157,0,0,1,2.391-1.7,5.953,5.953,0,0,1,1.793-.251,6.633,6.633,0,0,1,2.905.693.62.62,0,0,1,.347.6.988.988,0,0,1-.2.586.588.588,0,0,1-.49.263.458.458,0,0,1-.228-.06,5.694,5.694,0,0,0-2.39-.562,4.144,4.144,0,0,0-1.137.143,3.187,3.187,0,0,0-.86.406,2.412,2.412,0,0,0-.634.646,3.732,3.732,0,0,0-.43.837,5.169,5.169,0,0,0-.264,1.028,10.455,10.455,0,0,0-.132,1.2v1.3a2.4,2.4,0,0,1,1.124-1.351,3.79,3.79,0,0,1,2.128-.586,4.041,4.041,0,0,1,4.245,3.825c.008.147.006.3,0,.442a4.33,4.33,0,0,1-1.2,3.18,4.411,4.411,0,0,1-3.287,1.2A5.239,5.239,0,0,1,7988.709,1808.113Zm-.108-6.2a3.352,3.352,0,0,0,0,4.232,2.538,2.538,0,0,0,2.021.825,2.656,2.656,0,0,0,2.068-.789,3.072,3.072,0,0,0,.717-2.14,3.329,3.329,0,0,0-.646-2.116,2.391,2.391,0,0,0-1.948-.825A2.833,2.833,0,0,0,7988.6,1801.909Z" transform="translate(-7816.782 -1516.565)" fill="#fff" stroke="#5e6178" stroke-miterlimit="10" stroke-width="0"/>
        <path id="Trazado_143682" data-name="Trazado 143682" d="M7918.591,1840.472a.834.834,0,0,1-.275-.657v-10.471l-2.021,1.2a.7.7,0,0,1-.369.108.67.67,0,0,1-.359-1.2l3.216-2.008a.969.969,0,0,1,.515-.131.869.869,0,0,1,.633.239.884.884,0,0,1,.251.682v11.583a.826.826,0,0,1-.274.657,1.046,1.046,0,0,1-.67.239A1.02,1.02,0,0,1,7918.591,1840.472Z" transform="translate(-7830.543 -1510.182)" fill="#fff" stroke="#5e6178" stroke-miterlimit="10" stroke-width="0"/>
        <path id="Trazado_143683" data-name="Trazado 143683" d="M7958.766,1833.055a7.884,7.884,0,0,1-1.709,2.08l-4.279,4.172h5.642a.74.74,0,0,1,.55.2.714.714,0,0,1,.191.5.68.68,0,0,1-.191.5.706.706,0,0,1-.55.215h-6.455a1.41,1.41,0,0,1-.885-.275.866.866,0,0,1-.334-.693,1.285,1.285,0,0,1,.441-.92l4.878-4.937a7.277,7.277,0,0,0,1.11-1.434,2.66,2.66,0,0,0,.359-1.3,2.4,2.4,0,0,0-.717-1.793,2.445,2.445,0,0,0-1.758-.681,5.081,5.081,0,0,0-1.2.12,4.525,4.525,0,0,0-.74.2,5.2,5.2,0,0,0-.658.347l-.525.311a.7.7,0,0,1-.275.06.674.674,0,0,1-.515-.239.734.734,0,0,1-.227-.538.646.646,0,0,1,.358-.574,8.91,8.91,0,0,1,1.781-.861,6.244,6.244,0,0,1,2.092-.3,4.122,4.122,0,0,1,2.929,1.1,3.591,3.591,0,0,1,1.2,2.678A4.306,4.306,0,0,1,7958.766,1833.055Z" transform="translate(-7823.62 -1510.2)" fill="#fff" stroke="#5e6178" stroke-miterlimit="10" stroke-width="0"/>
        <path id="Trazado_143684" data-name="Trazado 143684" d="M7986.924,1840.258a.766.766,0,0,1-.49-.693.775.775,0,0,1,.216-.55.665.665,0,0,1,.5-.239,1,1,0,0,1,.238,0,6.093,6.093,0,0,0,2.583.622,3.237,3.237,0,0,0,2.02-.586,1.923,1.923,0,0,0,.776-1.638,2.387,2.387,0,0,0-.9-1.96,3.448,3.448,0,0,0-2.271-.729h-.682a.576.576,0,0,1-.49-.2.657.657,0,0,1-.179-.478.71.71,0,0,1,.179-.49.576.576,0,0,1,.49-.2h.609a3.426,3.426,0,0,0,2.1-.6,2.042,2.042,0,0,0,.79-1.733,1.915,1.915,0,0,0-.718-1.59,2.817,2.817,0,0,0-1.769-.562,6.03,6.03,0,0,0-2.749.645.594.594,0,0,1-.216,0,.638.638,0,0,1-.5-.275.914.914,0,0,1-.215-.586.589.589,0,0,1,.312-.538,5.562,5.562,0,0,1,1.434-.538,7.593,7.593,0,0,1,1.961-.275,6.055,6.055,0,0,1,2.2.382,3.579,3.579,0,0,1,1.565,1.2,3.407,3.407,0,0,1,.6,2.02,2.885,2.885,0,0,1-.622,1.877,3.589,3.589,0,0,1-1.649,1.1,3.166,3.166,0,0,1,1.889,1.2,3.581,3.581,0,0,1,.705,2.223,3.718,3.718,0,0,1-.383,1.7,3.121,3.121,0,0,1-1.039,1.2,4.822,4.822,0,0,1-1.447.657,6.694,6.694,0,0,1-1.72.215A6.488,6.488,0,0,1,7986.924,1840.258Z" transform="translate(-7816.682 -1510.231)" fill="#fff" stroke="#5e6178" stroke-miterlimit="10" stroke-width="0"/>
        <path id="Trazado_143685" data-name="Trazado 143685" d="M7916.914,1871.077a3.867,3.867,0,0,1-1.363-1.016,5.291,5.291,0,0,1-.848-1.542,8.643,8.643,0,0,1-.467-1.865,16.473,16.473,0,0,1-.132-2.092q0-6.921,4.723-6.921c3.132,0,4.709,2.307,4.709,6.921a16.272,16.272,0,0,1-.131,2.08,8.474,8.474,0,0,1-.467,1.865,4.985,4.985,0,0,1-.849,1.542,3.766,3.766,0,0,1-1.352,1.016,4.439,4.439,0,0,1-1.911.383A4.571,4.571,0,0,1,7916.914,1871.077Zm2.845-1.327a2.3,2.3,0,0,0,.706-.478,3.19,3.19,0,0,0,.489-.741,4.861,4.861,0,0,0,.335-.885,7.312,7.312,0,0,0,.191-1.016c0-.383.084-.729.1-1.052s0-.657,0-1.016v-1.076a4.235,4.235,0,0,0-.1-1.064,6.577,6.577,0,0,0-.2-1.016,4.78,4.78,0,0,0-.334-.885,2.456,2.456,0,0,0-.49-.717,2.084,2.084,0,0,0-.7-.466,2.483,2.483,0,0,0-1.854,0,2.159,2.159,0,0,0-.694.454,2.775,2.775,0,0,0-.5.717,5.16,5.16,0,0,0-.334.885c-.071.3-.131.645-.191,1.028a8.767,8.767,0,0,0-.1,1.064c-.012.335,0,.681,0,1.076v1.028a4.01,4.01,0,0,0,.1,1.04,7.036,7.036,0,0,0,.191,1.016,5.165,5.165,0,0,0,.334.9,2.648,2.648,0,0,0,.49.729,2.178,2.178,0,0,0,.706.478,2.329,2.329,0,0,0,.933.179,2.412,2.412,0,0,0,.932-.179Z" transform="translate(-7830.777 -1504.257)" fill="#fff" stroke="#5e6178" stroke-miterlimit="10" stroke-width="0"/>
        <path id="Trazado_143686" data-name="Trazado 143686" d="M7952.983,1865.861a2.122,2.122,0,0,1-.6-1.494,2.056,2.056,0,0,1,.658-1.518,2.28,2.28,0,0,1,1.721-.657,2.39,2.39,0,0,1,1.71.645,2.064,2.064,0,0,1,.656,1.53,2.143,2.143,0,0,1-.646,1.554,2.609,2.609,0,0,1-3.5-.06Z" transform="translate(-7823.3 -1503.369)" fill="#fff" stroke="#5e6178" stroke-miterlimit="10" stroke-width="0"/>
        <path id="Trazado_143687" data-name="Trazado 143687" d="M8025.588,1734.132a2.081,2.081,0,0,1-.047-2.942l.047-.047a2.536,2.536,0,0,1,3.336,0,2.023,2.023,0,0,1,.646,1.494,2.08,2.08,0,0,1-.635,1.506,2.523,2.523,0,0,1-3.347,0Z" transform="translate(-7809.122 -1529.092)" fill="#fff" stroke="#5e6178" stroke-miterlimit="10" stroke-width="0"/>
        <path id="Trazado_143688" data-name="Trazado 143688" d="M8025.588,1744.6a2.1,2.1,0,0,1-.633-1.518,2.024,2.024,0,0,1,.633-1.47,2.245,2.245,0,0,1,1.673-.634,2.274,2.274,0,0,1,1.663.622,2,2,0,0,1,.646,1.482,2.1,2.1,0,0,1-.635,1.518,2.523,2.523,0,0,1-3.347,0Z" transform="translate(-7809.123 -1527.048)" fill="#fff" stroke="#5e6178" stroke-miterlimit="10" stroke-width="0"/>
        <path id="Trazado_143689" data-name="Trazado 143689" d="M7984.44,1863.322a1.081,1.081,0,0,1-.335-.777,1.027,1.027,0,0,1,.348-.813,1.266,1.266,0,0,1,.883-.311h13.306a1.192,1.192,0,0,1,.859.311.976.976,0,0,1,.372.813.993.993,0,0,1-.372.789,1.284,1.284,0,0,1-.859.311h-13.388A1.192,1.192,0,0,1,7984.44,1863.322Zm0,6.132a1.006,1.006,0,0,1-.335-.765,1.066,1.066,0,0,1,.348-.813,1.325,1.325,0,0,1,.883-.311h13.354a1.191,1.191,0,0,1,.836.311,1.023,1.023,0,0,1,.348.813.987.987,0,0,1-.359.777,1.294,1.294,0,0,1-.86.311H7985.2a1.2,1.2,0,0,1-.765-.275Z" transform="translate(-7817.103 -1503.519)" fill="#fff" stroke="#5e6178" stroke-miterlimit="10" stroke-width="0"/>
        <path id="Trazado_143690" data-name="Trazado 143690" d="M8026.875,1771.8l-3.741,5.021a.934.934,0,0,1-.753.43.79.79,0,0,1-.574-.239.759.759,0,0,1-.251-.562.843.843,0,0,1,.179-.514l4.172-5.451-3.92-5.343a.588.588,0,0,1-.144-.406.86.86,0,0,1,.3-.634.953.953,0,0,1,.669-.275.858.858,0,0,1,.717.406l3.587,4.865,3.586-4.853a.954.954,0,0,1,.776-.43.78.78,0,0,1,.551.215.682.682,0,0,1,.227.514.8.8,0,0,1-.167.478l-4.028,5.415,4,5.475a.828.828,0,0,1,.167.478.768.768,0,0,1-.3.586,1.039,1.039,0,0,1-.669.251.814.814,0,0,1-.706-.37Z" transform="translate(-7809.787 -1522.588)" fill="#fff" stroke="#5e6178" stroke-miterlimit="10" stroke-width="0"/>
        <path id="Trazado_143691" data-name="Trazado 143691" d="M8027.094,1860.542a1.353,1.353,0,0,1-.371-.98v-6.2h-6.455a1.427,1.427,0,0,1-.992-.371,1.2,1.2,0,0,1-.158-1.683,1.231,1.231,0,0,1,.158-.158,1.416,1.416,0,0,1,1-.347h6.455v-6.264a1.339,1.339,0,0,1,.37-.968,1.193,1.193,0,0,1,.957-.406,1.263,1.263,0,0,1,.956.395,1.355,1.355,0,0,1,.371.98v6.264h6.467a1.5,1.5,0,0,1,1,.347,1.222,1.222,0,0,1,0,1.841,1.435,1.435,0,0,1-1,.371h-6.467v6.2a1.34,1.34,0,0,1-.371.956,1.2,1.2,0,0,1-.956.406A1.265,1.265,0,0,1,8027.094,1860.542Z" transform="translate(-7810.316 -1507.086)" fill="#fff" stroke="#5e6178" stroke-miterlimit="10" stroke-width="0"/>
        <path id="Trazado_143692" data-name="Trazado 143692" d="M7876.815,1806.782a.967.967,0,0,1-.275-.705v-4.518h-4.686a1.051,1.051,0,0,1-.729-.263.885.885,0,0,1-.092-1.248.934.934,0,0,1,.092-.091,1.1,1.1,0,0,1,.74-.263h4.688v-4.518a1.027,1.027,0,0,1,.273-.717.9.9,0,0,1,.693-.287.918.918,0,0,1,.693.287,1.016,1.016,0,0,1,.275.717v4.542h4.709a1.1,1.1,0,0,1,.718.263.835.835,0,0,1,.312.669.9.9,0,0,1-.3.669,1.052,1.052,0,0,1-.729.263h-4.709v4.518a1,1,0,0,1-.275.693.883.883,0,0,1-.693.3A.9.9,0,0,1,7876.815,1806.782Z" transform="translate(-7839.233 -1516.656)" fill="#fff" stroke="#5e6178" stroke-miterlimit="10" stroke-width="0"/>
        <path id="Trazado_143693" data-name="Trazado 143693" d="M8020.53,1801.723a.6.6,0,0,1,0-1.016,1.337,1.337,0,0,1,.813-.215h12.874a1.294,1.294,0,0,1,.8.215.656.656,0,0,1,.287.514.62.62,0,0,1-.287.5,1.31,1.31,0,0,1-.8.215h-12.874A1.353,1.353,0,0,1,8020.53,1801.723Z" transform="translate(-7810.042 -1515.422)" fill="#fff" stroke="#5e6178" stroke-miterlimit="10" stroke-width="0"/>
        <path id="Trazado_143694" data-name="Trazado 143694" d="M7883.779,1807.052a.706.706,0,0,1-.2-.5.726.726,0,0,1,.2-.514.688.688,0,0,1,.537-.215h8.7a.642.642,0,0,1,.537.227.728.728,0,0,1,.2.5.715.715,0,0,1-.74.717h-8.7A.692.692,0,0,1,7883.779,1807.052Z" transform="translate(-7836.742 -1514.381)" fill="#fff" stroke="#5e6178" stroke-miterlimit="10" stroke-width="0"/>
        <path id="Trazado_143695" data-name="Trazado 143695" d="M7879.7,1812.181a.624.624,0,0,1-.658.119c-.167-.1-.239-.311-.227-.621a2.7,2.7,0,0,1,.418-1.2l9.563-16.6a2.38,2.38,0,0,1,.79-.932.618.618,0,0,1,.657-.12c.167.1.238.311.215.622a2.739,2.739,0,0,1-.418,1.2l-9.563,16.6A2.771,2.771,0,0,1,7879.7,1812.181Z" transform="translate(-7837.672 -1516.928)" fill="#fff" stroke="#5e6178" stroke-miterlimit="10" stroke-width="0"/>
        <path id="Trazado_143696" data-name="Trazado 143696" d="M8020.53,1738.213a.6.6,0,0,1,0-1.016,1.338,1.338,0,0,1,.813-.215h12.874a1.3,1.3,0,0,1,.8.215.657.657,0,0,1,.287.514.62.62,0,0,1-.287.5,1.311,1.311,0,0,1-.8.215h-12.874A1.354,1.354,0,0,1,8020.53,1738.213Z" transform="translate(-7810.042 -1527.829)" fill="#fff" stroke="#5e6178" stroke-miterlimit="10" stroke-width="0"/>
        <path id="Trazado_143697" data-name="Trazado 143697" d="M7913.4,1745.574a1.493,1.493,0,0,1-.49-.61l-4.375-9.814v10.208a.586.586,0,0,1-.251.5,1.147,1.147,0,0,1-1.231,0,.6.6,0,0,1-.263-.5v-11.141a1.2,1.2,0,0,1,.431-.908,1.577,1.577,0,0,1,1.889-.084,1.835,1.835,0,0,1,.67.837l4.255,9.455,4.231-9.419a1.76,1.76,0,0,1,.657-.837,1.579,1.579,0,0,1,1.89.084,1.2,1.2,0,0,1,.43.908v11.1a.564.564,0,0,1-.264.5,1.078,1.078,0,0,1-.609.179,1.02,1.02,0,0,1-.61-.179.564.564,0,0,1-.262-.5V1735.15l-4.339,9.826a1.451,1.451,0,0,1-.479.61,1.123,1.123,0,0,1-.645.215A1.088,1.088,0,0,1,7913.4,1745.574Z" transform="translate(-7832.207 -1528.616)" fill="#fff" stroke="#5e6178" stroke-miterlimit="10" stroke-width="0"/>
        <path id="Trazado_143698" data-name="Trazado 143698" d="M7922.012,1745.932a.814.814,0,0,1-.286-.669v-11.571a.839.839,0,0,1,.286-.646.922.922,0,0,1,.67-.275h4.063a10.128,10.128,0,0,1,1.411.084,6.29,6.29,0,0,1,1.291.3,3.573,3.573,0,0,1,1.088.586,2.62,2.62,0,0,1,.717.98,3.313,3.313,0,0,1,.275,1.422,2.856,2.856,0,0,1-.706,1.972,3.579,3.579,0,0,1-2.115,1.088h0a3.072,3.072,0,0,1,2.487,3.012l.334,2.941a.424.424,0,0,1,0,.131.769.769,0,0,1-.263.61.9.9,0,0,1-.622.239,1.086,1.086,0,0,1-.681-.227.8.8,0,0,1-.347-.622l-.287-2.618a8.987,8.987,0,0,0-.227-1.327,1.8,1.8,0,0,0-.431-.8,1.418,1.418,0,0,0-.729-.43,5.281,5.281,0,0,0-1.2-.108h-3.131v5.224a.814.814,0,0,1-.287.669,1.044,1.044,0,0,1-.67.239A.97.97,0,0,1,7922.012,1745.932Zm4.341-7.339h.991a5.161,5.161,0,0,0,.884-.191,2.194,2.194,0,0,0,.742-.382,1.84,1.84,0,0,0,.478-.657,2.371,2.371,0,0,0,.191-.992,2.466,2.466,0,0,0-.132-.825,1.276,1.276,0,0,0-.37-.574,2.329,2.329,0,0,0-.5-.359,2.251,2.251,0,0,0-.657-.191l-.682-.167h-3.682v4.315Z" transform="translate(-7829.29 -1528.652)" fill="#fff" stroke="#5e6178" stroke-miterlimit="10" stroke-width="0"/>
        <path id="Trazado_143699" data-name="Trazado 143699" d="M7950.065,1745.574a1.375,1.375,0,0,1-.489-.61l-4.376-9.814v10.208a.56.56,0,0,1-.264.5,1.008,1.008,0,0,1-.608.179,1.087,1.087,0,0,1-.61-.179.563.563,0,0,1-.263-.5v-11.141a1.2,1.2,0,0,1,.431-.908,1.493,1.493,0,0,1,.992-.359,1.572,1.572,0,0,1,.9.275,1.832,1.832,0,0,1,.671.837l4.255,9.455,4.256-9.455a1.814,1.814,0,0,1,.657-.837,1.576,1.576,0,0,1,.908-.2,1.521,1.521,0,0,1,1,.359,1.2,1.2,0,0,1,.43.908v11.1a.6.6,0,0,1-.263.5,1.147,1.147,0,0,1-1.232,0,.587.587,0,0,1-.25-.5v-10.208l-4.387,9.79a1.39,1.39,0,0,1-.49.61,1.041,1.041,0,0,1-1.268,0Z" transform="translate(-7825.044 -1528.616)" fill="#fff" stroke="#5e6178" stroke-miterlimit="10" stroke-width="0"/>
        <path id="Trazado_143700" data-name="Trazado 143700" d="M7957.519,1740.415a.565.565,0,0,1-.2-.454.61.61,0,0,1,.2-.478.774.774,0,0,1,.549-.191h4.172a.73.73,0,0,1,.538.191.586.586,0,0,1,.215.478.535.535,0,0,1-.215.454.819.819,0,0,1-.538.179h-4.172A.821.821,0,0,1,7957.519,1740.415Z" transform="translate(-7822.336 -1527.378)" fill="#fff" stroke="#5e6178" stroke-miterlimit="10" stroke-width="0"/>
        <path id="Trazado_143701" data-name="Trazado 143701" d="M7986.719,1745.574a1.493,1.493,0,0,1-.49-.61l-4.362-9.814v10.208a.564.564,0,0,1-.264.5,1.121,1.121,0,0,1-1.194,0,.56.56,0,0,1-.264-.5v-11.141a1.2,1.2,0,0,1,.43-.908,1.475,1.475,0,0,1,.992-.359,1.519,1.519,0,0,1,.885.275,1.763,1.763,0,0,1,.67.837l4.268,9.455,4.255-9.455a1.827,1.827,0,0,1,.657-.837,1.579,1.579,0,0,1,1.89.084,1.192,1.192,0,0,1,.429.908v11.1a.558.558,0,0,1-.262.5,1.007,1.007,0,0,1-.6.179,1.065,1.065,0,0,1-.622-.179.6.6,0,0,1-.263-.5v-10.208l-4.387,9.862a1.484,1.484,0,0,1-.49.61,1.093,1.093,0,0,1-.633.215A1.131,1.131,0,0,1,7986.719,1745.574Z" transform="translate(-7817.876 -1528.616)" fill="#fff" stroke="#5e6178" stroke-miterlimit="10" stroke-width="0"/>
        <path id="Trazado_143702" data-name="Trazado 143702" d="M7999.189,1745.266a.692.692,0,0,1-.19-.5v-3.251h-3.383a.775.775,0,0,1-.525-.191.62.62,0,0,1-.216-.478.612.612,0,0,1,.216-.49.771.771,0,0,1,.525-.179H7999V1736.9a.722.722,0,0,1,.19-.514.643.643,0,0,1,.5-.2.63.63,0,0,1,.489.2.73.73,0,0,1,.2.514v3.275h3.382a.818.818,0,0,1,.527.179.608.608,0,0,1,.215.49.622.622,0,0,1-.215.478.755.755,0,0,1-.527.191h-3.382v3.251a.727.727,0,0,1-.2.5.676.676,0,0,1-.489.2A.613.613,0,0,1,7999.189,1745.266Z" transform="translate(-7814.998 -1527.986)" fill="#fff" stroke="#5e6178" stroke-miterlimit="10" stroke-width="0"/>
        <path id="Trazado_143703" data-name="Trazado 143703" d="M7984.886,1707.6l5.379,7.172,5.977-10.758h5.978" transform="translate(-7816.951 -1534.27)" fill="none" stroke="#fff" stroke-miterlimit="10" stroke-width="1" opacity="0"/>
      </g>
    </g>
    <g id="Grupo_89568" data-name="Grupo 89568" transform="translate(8179.015 1824.406)">
      <g id="Grupo_85665" data-name="Grupo 85665">
        <rect id="Rectángulo_30560" data-name="Rectángulo 30560" width="112.988" height="117.448" rx="3.956" fill="#f5f5f5"/>
      </g>
      <g id="Grupo_85716" data-name="Grupo 85716" transform="translate(26.283 26.497)">
        <g id="Grupo_85715" data-name="Grupo 85715">
          <g id="Grupo_85701" data-name="Grupo 85701">
            <g id="Grupo_85687" data-name="Grupo 85687">
              <g id="Grupo_85670" data-name="Grupo 85670">
                <g id="Grupo_85669" data-name="Grupo 85669">
                  <g id="Grupo_85668" data-name="Grupo 85668">
                    <g id="Grupo_85667" data-name="Grupo 85667">
                      <g id="Grupo_85666" data-name="Grupo 85666">
                        <path id="Trazado_140978" data-name="Trazado 140978" d="M80.061,62.781A31.242,31.242,0,1,0,111.3,94.024,31.242,31.242,0,0,0,80.061,62.781Zm.471,49.962A19.191,19.191,0,1,1,99.724,93.553,19.191,19.191,0,0,1,80.532,112.743Z" transform="translate(-48.819 -62.781)" fill="#e0e0e0"/>
                      </g>
                    </g>
                  </g>
                </g>
              </g>
              <g id="Grupo_85686" data-name="Grupo 85686" transform="translate(0 0.013)">
                <g id="Grupo_85675" data-name="Grupo 85675" transform="translate(31.718)">
                  <g id="Grupo_85674" data-name="Grupo 85674">
                    <g id="Grupo_85673" data-name="Grupo 85673">
                      <g id="Grupo_85672" data-name="Grupo 85672">
                        <g id="Grupo_85671" data-name="Grupo 85671">
                          <path id="Trazado_140979" data-name="Trazado 140979" d="M73.655,62.791c0,3.323,0,7.807,0,11.567a19.2,19.2,0,0,1,18.286,25.01l11.323,3.072A31.234,31.234,0,0,0,73.655,62.791Z" transform="translate(-73.652 -62.791)" fill="#fafafa"/>
                        </g>
                      </g>
                    </g>
                  </g>
                </g>
                <g id="Grupo_85680" data-name="Grupo 85680" transform="translate(0 2.438)">
                  <g id="Grupo_85679" data-name="Grupo 85679">
                    <g id="Grupo_85678" data-name="Grupo 85678">
                      <g id="Grupo_85677" data-name="Grupo 85677">
                        <g id="Grupo_85676" data-name="Grupo 85676">
                          <path id="Trazado_140980" data-name="Trazado 140980" d="M61.341,93.02A19.192,19.192,0,0,1,72.716,75.493L67.911,64.7A31.251,31.251,0,0,0,48.819,93.492c0,.439.015.875.033,1.31H61.427C61.372,94.215,61.341,93.621,61.341,93.02Z" transform="translate(-48.819 -64.7)" fill="#ebebeb"/>
                        </g>
                      </g>
                    </g>
                  </g>
                </g>
                <g id="Grupo_85685" data-name="Grupo 85685" transform="translate(25.542 36.577)">
                  <g id="Grupo_85684" data-name="Grupo 85684">
                    <g id="Grupo_85683" data-name="Grupo 85683">
                      <g id="Grupo_85682" data-name="Grupo 85682">
                        <g id="Grupo_85681" data-name="Grupo 85681">
                          <path id="Trazado_140981" data-name="Trazado 140981" d="M74.987,104.8a19.233,19.233,0,0,1-4.059-.434c-.483,2.784-1.395,8.18-2.111,12.428A31.212,31.212,0,0,0,104.6,94.5L93.279,91.428A19.2,19.2,0,0,1,74.987,104.8Z" transform="translate(-68.817 -91.428)" fill="#ebebeb"/>
                        </g>
                      </g>
                    </g>
                  </g>
                </g>
              </g>
            </g>
            <g id="Grupo_85700" data-name="Grupo 85700" transform="translate(20.985 26.594)">
              <g id="Grupo_85691" data-name="Grupo 85691" transform="translate(0 0.123)">
                <g id="Grupo_85690" data-name="Grupo 85690">
                  <g id="Grupo_85689" data-name="Grupo 85689">
                    <g id="Grupo_85688" data-name="Grupo 85688">
                      <path id="Trazado_140982" data-name="Trazado 140982" d="M71.832,89.306H70.675V90.8h-1.6V89.306H65.249V88.2L68.6,83.7H70.32l-3.1,4.27h1.907V86.64h1.552v1.328h1.157Z" transform="translate(-65.249 -83.698)" fill="#e0e0e0"/>
                    </g>
                  </g>
                </g>
              </g>
              <g id="Grupo_85695" data-name="Grupo 85695" transform="translate(7.067)">
                <g id="Grupo_85694" data-name="Grupo 85694">
                  <g id="Grupo_85693" data-name="Grupo 85693">
                    <g id="Grupo_85692" data-name="Grupo 85692">
                      <path id="Trazado_140983" data-name="Trazado 140983" d="M70.782,87.274c0-2.342,1.3-3.672,3.044-3.672s3.042,1.33,3.042,3.672-1.289,3.672-3.042,3.672S70.782,89.617,70.782,87.274Zm4.432,0c0-1.613-.567-2.282-1.388-2.282s-1.379.669-1.379,2.282.567,2.282,1.379,2.282S75.214,88.887,75.214,87.274Z" transform="translate(-70.782 -83.602)" fill="#e0e0e0"/>
                    </g>
                  </g>
                </g>
              </g>
              <g id="Grupo_85699" data-name="Grupo 85699" transform="translate(13.831 0.041)">
                <g id="Grupo_85698" data-name="Grupo 85698">
                  <g id="Grupo_85697" data-name="Grupo 85697">
                    <g id="Grupo_85696" data-name="Grupo 85696">
                      <path id="Trazado_140984" data-name="Trazado 140984" d="M76.078,85.592a1.769,1.769,0,1,1,1.764,1.958A1.767,1.767,0,0,1,76.078,85.592Zm2.5,0c0-.761-.294-1.127-.741-1.127s-.74.376-.74,1.127.3,1.125.74,1.125S78.583,86.352,78.583,85.592Zm3.489-1.876h1.207l-4.848,7.1H77.224Zm-1.166,5.223A1.77,1.77,0,1,1,82.66,90.9,1.764,1.764,0,0,1,80.906,88.938Zm2.494,0c0-.75-.294-1.125-.741-1.125s-.74.365-.74,1.125.3,1.127.74,1.127S83.4,89.689,83.4,88.938Z" transform="translate(-76.078 -83.634)" fill="#e0e0e0"/>
                    </g>
                  </g>
                </g>
              </g>
            </g>
          </g>
          <g id="Grupo_85714" data-name="Grupo 85714" transform="translate(5.39 70.07)">
            <g id="Grupo_85707" data-name="Grupo 85707">
              <g id="Grupo_85706" data-name="Grupo 85706">
                <g id="Grupo_85705" data-name="Grupo 85705">
                  <g id="Grupo_85704" data-name="Grupo 85704">
                    <g id="Grupo_85703" data-name="Grupo 85703">
                      <g id="Grupo_85702" data-name="Grupo 85702">
                        <path id="Trazado_140985" data-name="Trazado 140985" d="M104.742,117.937c0,.163-11.574.3-25.85.3s-25.853-.133-25.853-.3,11.573-.3,25.853-.3S104.742,117.774,104.742,117.937Z" transform="translate(-53.039 -117.641)" fill="#e0e0e0"/>
                      </g>
                    </g>
                  </g>
                </g>
              </g>
            </g>
            <g id="Grupo_85713" data-name="Grupo 85713" transform="translate(11.514 4.748)">
              <g id="Grupo_85712" data-name="Grupo 85712">
                <g id="Grupo_85711" data-name="Grupo 85711">
                  <g id="Grupo_85710" data-name="Grupo 85710">
                    <g id="Grupo_85709" data-name="Grupo 85709">
                      <g id="Grupo_85708" data-name="Grupo 85708">
                        <path id="Trazado_140986" data-name="Trazado 140986" d="M90.73,121.654c0,.163-6.419.3-14.337.3s-14.338-.133-14.338-.3,6.418-.3,14.338-.3S90.73,121.491,90.73,121.654Z" transform="translate(-62.054 -121.358)" fill="#e0e0e0"/>
                      </g>
                    </g>
                  </g>
                </g>
              </g>
            </g>
          </g>
        </g>
      </g>
      <g id="Grupo_85720" data-name="Grupo 85720" transform="translate(8.42 7.149)">
        <g id="Grupo_85717" data-name="Grupo 85717">
          <circle id="Elipse_4231" data-name="Elipse 4231" cx="2.843" cy="2.843" r="2.843" fill="#e0e0e0"/>
        </g>
        <g id="Grupo_85718" data-name="Grupo 85718" transform="translate(7.34)">
          <circle id="Elipse_4232" data-name="Elipse 4232" cx="2.843" cy="2.843" r="2.843" fill="#e0e0e0"/>
        </g>
        <g id="Grupo_85719" data-name="Grupo 85719" transform="translate(14.681 0.001)">
          <path id="Trazado_140987" data-name="Trazado 140987" d="M52.013,50.476a2.843,2.843,0,1,1-2.843-2.843A2.843,2.843,0,0,1,52.013,50.476Z" transform="translate(-46.327 -47.633)" fill="#e0e0e0"/>
        </g>
      </g>
    </g>
    <g id="Grupo_89569" data-name="Grupo 89569" transform="translate(8002.79 1531.941)">
      <g id="Grupo_58071" data-name="Grupo 58071">
        <g id="Grupo_58065" data-name="Grupo 58065">
          <g id="Grupo_58064" data-name="Grupo 58064">
            <path id="Trazado_102311" data-name="Trazado 102311" d="M414.994,5180.081a32.913,32.913,0,1,1-37.439-27.564A32.876,32.876,0,0,1,414.994,5180.081Z" transform="translate(-349.533 -5152.144)" fill="#f5f5f5"/>
          </g>
        </g>
        <g id="Grupo_58067" data-name="Grupo 58067" transform="translate(7.832 7.815)">
          <g id="Grupo_58066" data-name="Grupo 58066">
            <path id="Trazado_102312" data-name="Trazado 102312" d="M408.312,5182.31a25.081,25.081,0,1,1-28.531-21.006A25.055,25.055,0,0,1,408.312,5182.31Z" transform="translate(-358.428 -5161.02)" fill="#ececec"/>
          </g>
        </g>
        <g id="Grupo_58070" data-name="Grupo 58070" transform="translate(7.372 6.863)">
          <g id="Grupo_58069" data-name="Grupo 58069">
            <g id="Grupo_58068" data-name="Grupo 58068">
              <path id="Trazado_102313" data-name="Trazado 102313" d="M408.127,5181.4c-.15.029-.42-1.044-1.105-2.883a26.623,26.623,0,0,0-4.007-7.172,25.722,25.722,0,0,0-3.964-4.012,25.132,25.132,0,0,0-5.5-3.357,24.462,24.462,0,0,0-6.829-1.926,24.2,24.2,0,0,0-3.753-.2,24.511,24.511,0,0,0-7.592,1.388,24.58,24.58,0,0,0-3.439,1.517,24.524,24.524,0,0,0-5.7,4.221,25.057,25.057,0,0,0-3.951,5.087A25.713,25.713,0,0,0,360,5179.22a26.618,26.618,0,0,0-1.206,8.125c.011,1.961.139,3.06-.011,3.085-.11.022-.49-1.032-.735-3.043a23.2,23.2,0,0,1,.645-8.54,25.147,25.147,0,0,1,6.281-11.111,25.559,25.559,0,0,1,6.068-4.631,25.3,25.3,0,0,1,3.7-1.661,27.606,27.606,0,0,1,4.034-1.085,28.007,28.007,0,0,1,4.155-.414,25.416,25.416,0,0,1,4.048.246,25.643,25.643,0,0,1,7.315,2.183,25.131,25.131,0,0,1,9.811,8.166,23.219,23.219,0,0,1,3.631,7.758C408.219,5180.263,408.238,5181.385,408.127,5181.4Z" transform="translate(-357.905 -5159.937)" fill="#e1e1e1"/>
            </g>
          </g>
        </g>
      </g>
      <g id="Grupo_58075" data-name="Grupo 58075" transform="translate(21.75 15.347)">
        <g id="Grupo_58074" data-name="Grupo 58074">
          <g id="Grupo_58073" data-name="Grupo 58073">
            <g id="Grupo_58072" data-name="Grupo 58072">
              <path id="Trazado_102314" data-name="Trazado 102314" d="M390.434,5201.439l.714,4.311-3.849.636-.694-4.193c-3.848.4-7.7-.188-10.092-1.494l1.339-5.045a15.76,15.76,0,0,0,7.918,1.5l-1.065-6.428c-4.444-.33-9.45-.963-10.362-6.467-.675-4.081,1.708-8.072,7.674-9.772l-.707-4.272,3.848-.637.695,4.2a17.626,17.626,0,0,1,8.2,1.054l-1.14,5.052a15.979,15.979,0,0,0-6.22-1.026l1.084,6.543c4.436.293,9.368.941,10.266,6.366C398.706,5195.761,396.355,5199.708,390.434,5201.439Zm-6.663-16.373-.906-5.464c-1.962.8-2.585,2.049-2.376,3.32C380.712,5184.268,381.988,5184.809,383.771,5185.066Zm8.154,8.181c-.223-1.349-1.46-1.9-3.211-2.2l.879,5.313C391.448,5195.618,392.129,5194.477,391.925,5193.247Z" transform="translate(-374.233 -5169.574)" fill="#e1e1e1"/>
            </g>
          </g>
        </g>
      </g>
    </g>
    <g id="Grupo_89570" data-name="Grupo 89570" transform="translate(7822.746 1932.413)">
      <g id="Grupo_58071-2" data-name="Grupo 58071">
        <g id="Grupo_58065-2" data-name="Grupo 58065">
          <g id="Grupo_58064-2" data-name="Grupo 58064">
            <path id="Trazado_102311-2" data-name="Trazado 102311" d="M414.994,5180.081a32.913,32.913,0,1,1-37.439-27.564A32.876,32.876,0,0,1,414.994,5180.081Z" transform="translate(-349.533 -5152.144)" fill="#f5f5f5"/>
          </g>
        </g>
        <g id="Grupo_58067-2" data-name="Grupo 58067" transform="translate(7.832 7.815)">
          <g id="Grupo_58066-2" data-name="Grupo 58066">
            <path id="Trazado_102312-2" data-name="Trazado 102312" d="M408.312,5182.31a25.081,25.081,0,1,1-28.531-21.006A25.055,25.055,0,0,1,408.312,5182.31Z" transform="translate(-358.428 -5161.02)" fill="#ececec"/>
          </g>
        </g>
        <g id="Grupo_58070-2" data-name="Grupo 58070" transform="translate(7.372 6.863)">
          <g id="Grupo_58069-2" data-name="Grupo 58069">
            <g id="Grupo_58068-2" data-name="Grupo 58068">
              <path id="Trazado_102313-2" data-name="Trazado 102313" d="M408.127,5181.4c-.15.029-.42-1.044-1.105-2.883a26.623,26.623,0,0,0-4.007-7.172,25.722,25.722,0,0,0-3.964-4.012,25.132,25.132,0,0,0-5.5-3.357,24.462,24.462,0,0,0-6.829-1.926,24.2,24.2,0,0,0-3.753-.2,24.511,24.511,0,0,0-7.592,1.388,24.58,24.58,0,0,0-3.439,1.517,24.524,24.524,0,0,0-5.7,4.221,25.057,25.057,0,0,0-3.951,5.087A25.713,25.713,0,0,0,360,5179.22a26.618,26.618,0,0,0-1.206,8.125c.011,1.961.139,3.06-.011,3.085-.11.022-.49-1.032-.735-3.043a23.2,23.2,0,0,1,.645-8.54,25.147,25.147,0,0,1,6.281-11.111,25.559,25.559,0,0,1,6.068-4.631,25.3,25.3,0,0,1,3.7-1.661,27.606,27.606,0,0,1,4.034-1.085,28.007,28.007,0,0,1,4.155-.414,25.416,25.416,0,0,1,4.048.246,25.643,25.643,0,0,1,7.315,2.183,25.131,25.131,0,0,1,9.811,8.166,23.219,23.219,0,0,1,3.631,7.758C408.219,5180.263,408.238,5181.385,408.127,5181.4Z" transform="translate(-357.905 -5159.937)" fill="#e1e1e1"/>
            </g>
          </g>
        </g>
      </g>
      <g id="Grupo_58075-2" data-name="Grupo 58075" transform="translate(21.75 15.347)">
        <g id="Grupo_58074-2" data-name="Grupo 58074">
          <g id="Grupo_58073-2" data-name="Grupo 58073">
            <g id="Grupo_58072-2" data-name="Grupo 58072">
              <path id="Trazado_102314-2" data-name="Trazado 102314" d="M390.434,5201.439l.714,4.311-3.849.636-.694-4.193c-3.848.4-7.7-.188-10.092-1.494l1.339-5.045a15.76,15.76,0,0,0,7.918,1.5l-1.065-6.428c-4.444-.33-9.45-.963-10.362-6.467-.675-4.081,1.708-8.072,7.674-9.772l-.707-4.272,3.848-.637.695,4.2a17.626,17.626,0,0,1,8.2,1.054l-1.14,5.052a15.979,15.979,0,0,0-6.22-1.026l1.084,6.543c4.436.293,9.368.941,10.266,6.366C398.706,5195.761,396.355,5199.708,390.434,5201.439Zm-6.663-16.373-.906-5.464c-1.962.8-2.585,2.049-2.376,3.32C380.712,5184.268,381.988,5184.809,383.771,5185.066Zm8.154,8.181c-.223-1.349-1.46-1.9-3.211-2.2l.879,5.313C391.448,5195.618,392.129,5194.477,391.925,5193.247Z" transform="translate(-374.233 -5169.574)" fill="#e1e1e1"/>
            </g>
          </g>
        </g>
      </g>
    </g>
    <g id="freepik--speech-bubble--inject-3" transform="translate(8185.813 1538.874)">
      <path id="Trazado_143600" data-name="Trazado 143600" d="M5880.293,2036.734l8.1-1.24a24.8,24.8,0,1,0-6.424-6.136h0Z" transform="translate(-5877.147 -1989.93)" fill="#6595bf"/>
      <path id="Trazado_143601" data-name="Trazado 143601" d="M5880.2,2036.675l.1-.465.306-1.393c.274-1.254.683-3.107,1.208-5.513a.05.05,0,0,1,.058-.042h0l-.075.07a25.068,25.068,0,0,1-2.716-4.733,24.409,24.409,0,0,1-1.8-6.535,24.117,24.117,0,0,1-.222-3.855,27.884,27.884,0,0,1,.464-4.115,24.775,24.775,0,0,1,31.426-19.178,25.711,25.711,0,0,1,5.5,2.323l1.267.827.641.418c.209.144.4.311.6.464l1.2.976c.4.325.744.7,1.12,1.054a23.408,23.408,0,0,1,2.04,2.234l.245.283.219.307.428.618c.282.413.594.808.845,1.236s.488.864.734,1.3c.121.214.246.427.362.646l.3.678.6,1.343c.186.464.316.929.465,1.393a24.843,24.843,0,0,1-15.879,31.337q-.958.314-1.943.55l-1.031.232-.511.112-.516.061c-.683.079-1.351.172-2.011.237a34.032,34.032,0,0,1-3.846-.037,24.706,24.706,0,0,1-11.515-4.013h.037l-6.039.887-1.541.228-.516.069.534-.093,1.551-.246,6.005-.929h.033a24.937,24.937,0,0,0,4.891,2.485,24.566,24.566,0,0,0,6.582,1.468,32.546,32.546,0,0,0,3.818.028c.655-.07,1.324-.158,2-.242l.511-.061.5-.116,1.026-.232a24.619,24.619,0,0,0,18.206-29.675q-.24-.99-.556-1.957c-.158-.464-.293-.929-.464-1.394l-.595-1.333-.3-.669c-.111-.214-.237-.423-.358-.641q-.361-.631-.725-1.282c-.251-.423-.557-.813-.836-1.222l-.427-.608-.214-.307-.246-.283a23.083,23.083,0,0,0-2.058-2.216c-.371-.348-.719-.72-1.109-1.045l-1.185-.929c-.2-.153-.39-.321-.6-.464l-.636-.414-1.259-.818a25.645,25.645,0,0,0-5.434-2.322,24.39,24.39,0,0,0-21.147,3.46,24.744,24.744,0,0,0-6.792,7.176,24.48,24.48,0,0,0-3.25,8.361,27.572,27.572,0,0,0-.465,4.087,24.406,24.406,0,0,0,.205,3.827,24.771,24.771,0,0,0,4.51,11.2.056.056,0,0,1,0,.074.05.05,0,0,1-.06,0h0l.079-.028c-.548,2.387-.97,4.222-1.259,5.472-.145.618-.255,1.092-.33,1.417A1.979,1.979,0,0,1,5880.2,2036.675Z" transform="translate(-5877.053 -1989.872)" fill="#5e6178"/>
      <g id="Grupo_89549" data-name="Grupo 89549" transform="translate(11.422 6.619)">
        <path id="Trazado_143602" data-name="Trazado 143602" d="M5901.644,2010.6a6.2,6.2,0,0,1,1.873-4.683,6.791,6.791,0,0,1,4.908-1.8,6.9,6.9,0,0,1,4.953,1.776,6.316,6.316,0,0,1,1.873,4.812v1.551a6.119,6.119,0,0,1-1.873,4.672,7.734,7.734,0,0,1-9.85-.011,6.267,6.267,0,0,1-1.884-4.79Zm4.133,1.658a2.9,2.9,0,0,0,.743,2.078,2.555,2.555,0,0,0,1.948.786,2.442,2.442,0,0,0,1.917-.8,3.086,3.086,0,0,0,.71-2.131V2010.6a3.023,3.023,0,0,0-.71-2.089,2.769,2.769,0,0,0-3.876-.011,3.086,3.086,0,0,0-.732,2.186Zm3.918,21.314-3.035-1.636,15.308-24.5,3.036,1.636Zm6.933-5.339a6.116,6.116,0,0,1,1.9-4.682,6.884,6.884,0,0,1,4.908-1.777,6.964,6.964,0,0,1,4.942,1.755,6.285,6.285,0,0,1,1.883,4.833v1.55a6.166,6.166,0,0,1-1.852,4.661,6.825,6.825,0,0,1-4.93,1.776,6.907,6.907,0,0,1-4.975-1.787,6.246,6.246,0,0,1-1.873-4.737Zm4.134,1.679a2.879,2.879,0,0,0,.775,2.024,2.528,2.528,0,0,0,1.938.839q2.625,0,2.626-2.906v-1.636a2.928,2.928,0,0,0-.732-2.078,2.783,2.783,0,0,0-3.876,0,3.023,3.023,0,0,0-.731,2.142Z" transform="translate(-5901.644 -2004.121)" fill="#f2e9e4"/>
      </g>
    </g>
  </g>
</svg>
