<svg xmlns="http://www.w3.org/2000/svg" width="528" height="705.731" viewBox="0 0 528 705.731">
  <g id="Grupo_90192" data-name="Grupo 90192" transform="translate(-13542.094 -4857.153)">
    <g id="freepik--Tasks--inject-81" transform="translate(13797.946 4857.153)">
      <path id="Trazado_143865" data-name="Trazado 143865" d="M13988.44,5195.421h14.379s-31.541-222.062-29.775-284.721l-2.229,284.721Z" transform="translate(-13730.672 -4843.57)" fill="#aed3f2"/>
      <path id="Trazado_143866" data-name="Trazado 143866" d="M13957.958,4857.417s53.744-3.26,52.3,56.189c-4.164,172.129,16.082,301.608,16.082,301.608H13825V4863.572Z" transform="translate(-13767.663 -4857.095)" fill="#aed3f2"/>
      <path id="Trazado_143867" data-name="Trazado 143867" d="M13827.182,5299.817l139.7-.088a30.427,30.427,0,0,0,30.416-30.426l-.076-350.226a30.411,30.411,0,0,0-30.4-30.426h-.1l-139.7.088a30.4,30.4,0,0,0-30.414,30.389v.038l.063,350.226a30.427,30.427,0,0,0,30.426,30.427Z" transform="translate(-13774.865 -4849.164)" fill="#5e6178"/>
      <path id="Trazado_143868" data-name="Trazado 143868" d="M13825.307,4898.6h139.42a21.313,21.313,0,0,1,21.313,21.313h0l.063,341.838a21.313,21.313,0,0,1-21.312,21.313l-139.42.088a21.313,21.313,0,0,1-21.312-21.312h0l-.062-341.926a21.313,21.313,0,0,1,21.313-21.312Z" transform="translate(-13772.989 -4846.64)" fill="#aed3f2"/>
      <path id="Trazado_143869" data-name="Trazado 143869" d="M13841.442,4857.38l133.689,1.254c-19.605-.915-23.793,6.883-27.018,11.822-6.129,9.465-5.514,20.271,1.494,29.122a27.829,27.829,0,0,0,15.871,9.328h-146.492c-8.523-8.362-10.3-17.275-9.039-25.3C13812.354,4868.4,13825.933,4857.38,13841.442,4857.38Z" transform="translate(-13771.572 -4857.096)" fill="#aed3f2"/>
      <path id="Trazado_143870" data-name="Trazado 143870" d="M13962.867,4864.2a4.667,4.667,0,0,1-.852-.514,22.647,22.647,0,0,0-2.418-1.43,33.151,33.151,0,0,0-9.879-3.084,34.714,34.714,0,0,0-15.184.815,24.343,24.343,0,0,0-14,11.672,26.093,26.093,0,0,0-2.92,18.064,20.77,20.77,0,0,0,3.361,7.372,25.78,25.78,0,0,0,4.926,5.19,33.076,33.076,0,0,0,8.912,5.215c2.281.878,3.625,1.166,3.6,1.254a5.648,5.648,0,0,1-.965-.2,25.491,25.491,0,0,1-2.77-.814,31.46,31.46,0,0,1-9.115-5.09,26.4,26.4,0,0,1-5.014-5.24,21.029,21.029,0,0,1-3.5-7.521,26.421,26.421,0,0,1,2.934-18.518,24.821,24.821,0,0,1,14.393-11.935,34.744,34.744,0,0,1,15.434-.689,31.332,31.332,0,0,1,9.941,3.284,19.274,19.274,0,0,1,2.395,1.555A6.69,6.69,0,0,1,13962.867,4864.2Z" transform="translate(-13744.452 -4856.892)" fill="#344154"/>
      <path id="Trazado_143871" data-name="Trazado 143871" d="M13958,4865.49a17.218,17.218,0,0,1,2.957,2.056,42.069,42.069,0,0,1,7.008,7.522,43.829,43.829,0,0,1,3.949,6.344,33.624,33.624,0,0,1,3.021,8.362c.715,3.159.426,6.607.553,10.193s.213,7.421.324,11.42c.275,8.011.639,16.774,1.066,26.189,0,4.726,0,9.578-.076,14.605s0,10.179,0,15.483c0,21.174.451,44.467,1.367,68.952,1.768,48.894,5.379,93.01,8.551,124.891,1.629,15.947,3.07,28.834,4.111,37.723.525,4.438.941,7.886,1.254,10.243q.19,1.754.3,2.67a4.291,4.291,0,0,0,.076.915,4.219,4.219,0,0,0-.15-.9c-.15-.6-.2-1.5-.363-2.657-.3-2.37-.754-5.8-1.33-10.23-1.129-8.9-2.631-21.776-4.324-37.71-3.285-31.881-6.971-76.023-8.775-124.917-.916-24.434-1.254-47.727-1.254-68.952v-15.482c0-5.015.125-9.892.113-14.581-.414-9.415-.74-18.19-.99-26.2-.113-4-.213-7.811-.277-11.421s.189-7.033-.5-10.13a33.374,33.374,0,0,0-2.934-8.3,44.887,44.887,0,0,0-3.873-6.331,44.051,44.051,0,0,0-6.9-7.61,13.587,13.587,0,0,0-1.254-.978,10.719,10.719,0,0,0-.9-.664A8.083,8.083,0,0,1,13958,4865.49Z" transform="translate(-13733.925 -4855.039)" fill="#344154"/>
      <path id="Trazado_143872" data-name="Trazado 143872" d="M13991.142,5091.127s-1.756,138.067-12.787,158.213l-194.521-2.507,3.963-16.586L13991.2,4980.19Z" transform="translate(-13778.104 -4825.942)" fill="#aed3f2"/>
      <path id="Trazado_143873" data-name="Trazado 143873" d="M13992.228,4915.529s-3.484,306-23.117,332.763h-189.557s43.617-229.609,30.641-332.674Z" transform="translate(-13779.19 -4842.344)" fill="#e0eaf2"/>
      <path id="Trazado_143874" data-name="Trazado 143874" d="M13993.87,4915.529s-3.486,306-23.117,332.763h-191.2s30.4-226.137,30.4-327.76" transform="translate(-13779.19 -4842.344)" fill="#fafafa"/>
      <path id="Trazado_143875" data-name="Trazado 143875" d="M13810.027,4920.54v6.394c0,2.094,0,4.713-.111,7.8s-.062,6.657-.262,10.682c-.539,16.109-1.82,39.528-4.088,68.8-4.678,58.534-13.3,140.411-25.574,234.135l-.314-.363h191.148l-.252.125a30.747,30.747,0,0,0,3.461-8.086c.8-2.846,1.516-5.7,2.094-8.588,1.254-5.754,2.119-11.521,2.934-17.238,1.605-11.446,2.77-22.741,3.76-33.849,1.994-22.152,3.348-43.4,4.477-63.536,2.193-40.28,3.447-76.085,4.363-105.923s1.416-53.67,1.754-70.067c.152-8.187.275-14.518.365-18.805,0-2.144.074-3.761.088-4.864s0-1.655,0-1.655v6.519c-.064,4.288-.15,10.619-.252,18.805-.275,16.4-.727,40.255-1.566,70.08s-2.057,65.655-4.225,105.936c-1.1,20.146-2.445,41.371-4.426,63.561-1.016,11.083-2.168,22.378-3.762,33.849-.814,5.73-1.717,11.509-2.922,17.276-.588,2.9-1.252,5.779-2.117,8.638a30.836,30.836,0,0,1-3.549,8.287l-.088.138h-191.7v-.364c12.3-93.674,21.014-175.514,25.787-234.085,2.332-29.261,3.674-52.654,4.289-68.764.213-4.024.252-7.6.314-10.681s.111-5.692.162-7.8.076-3.761.1-4.776A13.977,13.977,0,0,1,13810.027,4920.54Z" transform="translate(-13779.264 -4842.353)" fill="#344154"/>
      <path id="Trazado_143876" data-name="Trazado 143876" d="M13986.064,4919.533s-.426-21.312-21.312-21.312h-144.3s-16.461,4.563-16.461,22.829l128.916,9.9Z" transform="translate(-13772.989 -4846.736)" fill="#fafafa"/>
      <path id="Trazado_143877" data-name="Trazado 143877" d="M13841.559,4857.437h-1.381a26.594,26.594,0,0,0-3.961.339,30.083,30.083,0,0,0-13.566,5.767,35.424,35.424,0,0,0-12.26,18.68,25.008,25.008,0,0,0,.564,13.565,27.173,27.173,0,0,0,3.133,6.669,29.65,29.65,0,0,0,4.852,5.942l-.2-.075h36.846l77.25.25,23.42.15,6.355.075h-107.025l-36.846-.088h-.125l-.076-.075a31.252,31.252,0,0,1-5.016-6.081,29.108,29.108,0,0,1-3.172-6.82,25.6,25.6,0,0,1-.512-13.866,35.474,35.474,0,0,1,12.535-18.805,28.253,28.253,0,0,1,7.523-4.112,27.775,27.775,0,0,1,6.268-1.554,22.876,22.876,0,0,1,3.986-.238A8.971,8.971,0,0,1,13841.559,4857.437Z" transform="translate(-13771.689 -4857.153)" fill="#344154"/>
      <path id="Trazado_143878" data-name="Trazado 143878" d="M13991.2,5013.81v16.6c0,10.682-.1,26.152-.3,45.258s-.514,41.86-1.354,67.109c-.426,12.625-1.027,25.888-2.307,39.578s-3.047,27.832-5.5,42.211c-.965,5.629-1.992,11.17-3.121,16.361l-.062.25h-.2c-54.512-.125-103.141-1.016-138.145-1.617l-41.309-.827-11.182-.264-2.9-.087h2.91l11.168.15,41.371.627c35.006.476,83.635,1.253,138.131,1.4l-.312.25c1.127-5.152,2.156-10.706,3.121-16.3,2.443-14.354,4.211-28.483,5.5-42.161s1.9-26.917,2.344-39.541c.879-25.236,1.191-47.991,1.492-67.1s.389-34.539.514-45.245c0-5.328.088-9.478.113-12.3v-3.209C13991.179,5014.261,13991.2,5013.81,13991.2,5013.81Z" transform="translate(-13778.104 -4817.414)" fill="#344154"/>
      <path id="Trazado_143879" data-name="Trazado 143879" d="M13942.734,4926.316a122.781,122.781,0,0,1-17.891,0A122.643,122.643,0,0,1,13942.734,4926.316Z" transform="translate(-13742.333 -4839.691)" fill="#344154"/>
      <path id="Trazado_143880" data-name="Trazado 143880" d="M13942.734,4922.586a122.781,122.781,0,0,1-17.891,0A122.781,122.781,0,0,1,13942.734,4922.586Z" transform="translate(-13742.333 -4840.638)" fill="#344154"/>
      <path id="Trazado_143881" data-name="Trazado 143881" d="M13942.734,4918.876a122.643,122.643,0,0,1-17.891,0A122.643,122.643,0,0,1,13942.734,4918.876Z" transform="translate(-13742.333 -4841.578)" fill="#344154"/>
      <path id="Trazado_143882" data-name="Trazado 143882" d="M13820.465,4931.794h1.455l3.949-.1-.115.113v-4.513a1.519,1.519,0,0,1,1.33-1.254h1.881a1.555,1.555,0,0,1,1.254,1.53v4.175l-.189-.176h5.016l-.187.188v-7.848a1.607,1.607,0,0,0-.7-1.178l-2.182-2.144-2.068-2.106-1.029-1c-.352-.338-.627-.69-1.027-.765a1.317,1.317,0,0,0-1.141.213c-.3.251-.627.615-.928.915l-1.791,1.806c-1.117,1.166-2.295,2.231-3.148,3.234a3.517,3.517,0,0,0-.25,1.868v7.046a3.443,3.443,0,0,1,0-.6v-7.409a2.088,2.088,0,0,1,.275-1.041c.928-1.128,2.018-2.131,3.158-3.322l1.768-1.818c.326-.326.59-.627.967-.965a1.69,1.69,0,0,1,1.441-.276,2.643,2.643,0,0,1,1.252.853l1.018,1,2.117,2.069,2.182,2.144a4.39,4.39,0,0,1,.553.6,1.669,1.669,0,0,1,.264.84v8.049h-5.68v-4.363a1.254,1.254,0,0,0-1.016-1.254h-1.8a1.257,1.257,0,0,0-1.066.979v4.563h-5.178Z" transform="translate(-13768.813 -4842.148)" fill="#344154"/>
      <path id="Trazado_143883" data-name="Trazado 143883" d="M13864.337,4922.48h-2.432v-1.78h7.107v1.78h-2.432v6.143h-2.244Z" transform="translate(-13758.3 -4841.033)" fill="#d9a171"/>
      <path id="Trazado_143885" data-name="Trazado 143885" d="M13874.584,4927.939l.738-1.655a5.019,5.019,0,0,0,2.609.777c.928,0,1.254-.263,1.254-.651,0-1.253-4.5-.338-4.5-3.272,0-1.417,1.154-2.507,3.51-2.507a5.777,5.777,0,0,1,2.871.69l-.689,1.654a4.711,4.711,0,0,0-2.193-.6c-.939,0-1.254.313-1.254.7,0,1.254,4.488.313,4.488,3.235,0,1.378-1.152,2.507-3.51,2.507A6.274,6.274,0,0,1,13874.584,4927.939Z" transform="translate(-13755.084 -4841.051)" fill="#d9a171"/>
      <path id="Trazado_143887" data-name="Trazado 143887" d="M13887.083,4927.939l.74-1.655a5.018,5.018,0,0,0,2.619.777c.93,0,1.254-.263,1.254-.651,0-1.253-4.512-.338-4.512-3.272,0-1.417,1.152-2.507,3.51-2.507a5.821,5.821,0,0,1,2.883.69l-.689,1.654a4.763,4.763,0,0,0-2.205-.6c-.941,0-1.254.313-1.254.7,0,1.254,4.5.313,4.5,3.235,0,1.378-1.152,2.507-3.51,2.507A6.363,6.363,0,0,1,13887.083,4927.939Z" transform="translate(-13751.912 -4841.051)" fill="#d9a171"/>
      <path id="Trazado_143888" data-name="Trazado 143888" d="M13983.746,4942.786c0,.175-40.469.326-90.365.326s-90.377-.15-90.377-.326,40.457-.326,90.377-.326S13983.746,4942.611,13983.746,4942.786Z" transform="translate(-13773.241 -4835.513)" fill="#aed3f2"/>
      <path id="Trazado_143889" data-name="Trazado 143889" d="M13984.985,4992.586c0,.176-40.457.326-90.365.326s-90.365-.15-90.365-.326,40.443-.326,90.365-.326S13984.985,4992.4,13984.985,4992.586Z" transform="translate(-13772.924 -4822.88)" fill="#aed3f2"/>
      <path id="Trazado_143890" data-name="Trazado 143890" d="M13984.92,5040.356c0,.176-42.162.326-94.152.326s-94.164-.15-94.164-.326,42.148-.326,94.164-.326S13984.92,5040.168,13984.92,5040.356Z" transform="translate(-13774.865 -4810.763)" fill="#aed3f2"/>
      <path id="Trazado_143891" data-name="Trazado 143891" d="M13983.858,5086.926c0,.188-43.252.326-96.533.326s-96.531-.138-96.531-.326,43.229-.326,96.531-.326S13983.858,5086.75,13983.858,5086.926Z" transform="translate(-13776.339 -4798.949)" fill="#aed3f2"/>
      <path id="Trazado_143892" data-name="Trazado 143892" d="M13979.229,5139.316c0,.188-43.416.325-96.947.325s-96.947-.138-96.947-.325,43.4-.326,96.947-.326S13979.229,5139.14,13979.229,5139.316Z" transform="translate(-13777.724 -4785.659)" fill="#aed3f2"/>
      <path id="Trazado_143893" data-name="Trazado 143893" d="M13836.807,4981.482a2.1,2.1,0,0,1,0-.414v-1.14c0-1.066,0-2.507-.074-4.275,0-3.761-.076-8.888-.137-15.044l.289.276h-20.9l.326-.326h0v20.848l-.289-.275,15.045.138,4.275.076h1.566a10.561,10.561,0,0,1-1.453.075l-4.213.063-15.232.15h-.275V4960.5h0l.326-.326h21.174v.288c0,6.269-.113,11.484-.137,15.232,0,1.756-.064,3.172-.076,4.213A4.488,4.488,0,0,1,13836.807,4981.482Z" transform="translate(-13770.011 -4831.021)" fill="#344154"/>
      <path id="Trazado_143894" data-name="Trazado 143894" d="M13949.992,4967.776c0,.176-23.82.326-53.27.326s-53.268-.15-53.268-.326,23.82-.326,53.268-.326S13949.992,4967.588,13949.992,4967.776Z" transform="translate(-13762.98 -4829.174)" fill="#344154"/>
      <path id="Trazado_143895" data-name="Trazado 143895" d="M13898.414,4974.376c0,.188-12.3.338-27.48.338s-27.48-.15-27.48-.338,12.3-.326,27.48-.326S13898.414,4974.2,13898.414,4974.376Z" transform="translate(-13762.979 -4827.5)" fill="#344154"/>
      <path id="Trazado_143896" data-name="Trazado 143896" d="M13836.22,4951.7c.863.225-.777,9.339-4.451,20.059-.463,1.341-.928,2.645-1.391,3.9l-.7,1.842-.352.891-.1.226a3.213,3.213,0,0,1-.187.414,3.791,3.791,0,0,1-.553.714,3.1,3.1,0,0,1-3.172.665,3.046,3.046,0,0,1-1.254-.94l-.213-.313-.111-.2-.213-.376c-.527-.978-.979-1.918-1.367-2.771-1.543-3.436-2.143-5.692-1.756-5.88s1.756,1.692,3.762,4.764l1.654,2.507.238.326.1.15h.1c.063,0,.15,0,.139-.087h0l.074-.213.3-.9c.2-.614.4-1.253.615-1.855l1.254-3.886C13832.28,4960.113,13835.317,4951.475,13836.22,4951.7Z" transform="translate(-13768.858 -4833.17)" fill="#d9a171"/>
      <path id="Trazado_143897" data-name="Trazado 143897" d="M13834.994,5031.7a2.93,2.93,0,0,1,0-.414v-1.14q0-1.6-.074-4.288c0-3.761-.09-8.876-.139-15.044l.275.275h-20.885l.326-.326h0v20.874l-.277-.276,15.045.139,4.273.075h1.143a1.678,1.678,0,0,1,.414,0,12.08,12.08,0,0,1-1.443.063l-4.211.075-15.232.15h-.289V5010.7h0c-.3.288.389-.4.326-.326h21.1v.288c-.062,6.269-.113,11.471-.15,15.232q0,2.633-.074,4.212A9.257,9.257,0,0,1,13834.994,5031.7Z" transform="translate(-13770.491 -4818.287)" fill="#344154"/>
      <path id="Trazado_143898" data-name="Trazado 143898" d="M13948.173,5017.976c0,.188-23.82.338-53.268.338s-53.281-.15-53.281-.338,23.82-.326,53.281-.326S13948.173,5017.851,13948.173,5017.976Z" transform="translate(-13763.443 -4816.44)" fill="#344154"/>
      <path id="Trazado_143899" data-name="Trazado 143899" d="M13832.4,5078.413v-1.555c0-1.065,0-2.507-.074-4.274,0-3.761-.076-8.889-.139-15.044l.275.275h-20.885l.326-.326h0v20.849l-.275-.276,15.043.139,4.273.075h1.555a9.862,9.862,0,0,1-1.439.075l-4.213.063-15.232.15h-.275v-21.137h0l.324-.326h21.176v.288c-.064,6.269-.113,11.471-.15,15.232,0,1.755,0,3.171-.062,4.212A10.265,10.265,0,0,1,13832.4,5078.413Z" transform="translate(-13771.129 -4806.433)" fill="#344154"/>
      <path id="Trazado_143900" data-name="Trazado 143900" d="M13945.553,5064.706c0,.175-23.82.326-53.27.326s-53.268-.15-53.268-.326,23.818-.326,53.268-.326S13945.553,5064.518,13945.553,5064.706Z" transform="translate(-13764.107 -4804.586)" fill="#344154"/>
      <path id="Trazado_143901" data-name="Trazado 143901" d="M13828.383,5127.863a2.085,2.085,0,0,1,0-.413v-1.141c0-1.066,0-2.507-.074-4.275,0-3.761-.088-8.888-.15-15.044l.291.276h-20.887c-.076.076.613-.614.313-.326h0v20.849l-.289-.276,15.043.138,4.275.075h1.568a9.943,9.943,0,0,1-1.441.075l-4.211.063-15.246.15h-.275v-21.137h0c-.289.289.4-.4.336-.326h21.178v.289c0,6.268-.1,11.483-.139,15.232,0,1.755,0,3.171-.074,4.212A11.655,11.655,0,0,1,13828.383,5127.863Z" transform="translate(-13772.169 -4793.889)" fill="#344154"/>
      <path id="Trazado_143902" data-name="Trazado 143902" d="M13941.554,5114.155c0,.176-23.818.327-53.268.327s-53.281-.151-53.281-.327,23.82-.325,53.281-.325S13941.554,5113.968,13941.554,5114.155Z" transform="translate(-13765.124 -4792.042)" fill="#344154"/>
      <path id="Trazado_143903" data-name="Trazado 143903" d="M13825.967,5174.75v-1.567c0-1.053,0-2.507-.076-4.275,0-3.761-.074-8.875-.135-15.044l.275.289h-20.887l.326-.326h0V5174.7l-.287-.289,15.043.151,4.275.075h1.555s-.479,0-1.441.063l-4.213.075-15.232.138h-.275v-21.036h0l.326-.326h21.174v.326c-.062,6.268-.113,11.484-.139,15.232q0,2.657-.074,4.212A10.4,10.4,0,0,1,13825.967,5174.75Z" transform="translate(-13772.762 -4781.966)" fill="#344154"/>
      <path id="Trazado_143904" data-name="Trazado 143904" d="M13942.124,5160.226c0,.175-23.818.326-53.268.326s-53.281-.151-53.281-.326,23.82-.326,53.281-.326S13942.124,5160.05,13942.124,5160.226Z" transform="translate(-13764.979 -4780.355)" fill="#344154"/>
      <path id="Trazado_143905" data-name="Trazado 143905" d="M13922.08,5071.115c0,.188-18.742.326-41.873.326s-41.873-.138-41.873-.326,18.807-.325,41.873-.325S13922.08,5070.94,13922.08,5071.115Z" transform="translate(-13764.278 -4802.959)" fill="#344154"/>
      <path id="Trazado_143906" data-name="Trazado 143906" d="M13869.474,5122.216c0,.188-7.584.326-16.949.326s-16.949-.138-16.949-.326,7.584-.326,16.949-.326S13869.474,5122.04,13869.474,5122.216Z" transform="translate(-13764.979 -4789.997)" fill="#344154"/>
      <path id="Trazado_143907" data-name="Trazado 143907" d="M13954.375,4857.636c0,.176-26.678.326-59.574.326s-59.586-.15-59.586-.326,26.678-.326,59.586-.326S13954.375,4857.46,13954.375,4857.636Z" transform="translate(-13765.07 -4857.114)" fill="#344154"/>
    </g>
    <g id="freepik--Character--inject-81" transform="translate(13542.094 5082.48)">
      <path id="Trazado_143908" data-name="Trazado 143908" d="M13691.574,5023.322s32.105,45.132,38.123,47.088c20.6,6.845,43.377-40.557,43.377-40.557l-12.246,2.7-22.48,14.179-24.533-33.548-22.24,12.8" transform="translate(-13501.606 -4907.943)" fill="#a57e6d"/>
      <path id="Trazado_143909" data-name="Trazado 143909" d="M13725.178,5053.607a5.175,5.175,0,0,1-.3-2.194,15.033,15.033,0,0,1,3.635-9.866,5.557,5.557,0,0,1,1.654-1.467,19.814,19.814,0,0,0-4.99,13.527Z" transform="translate(-13493.164 -4901.119)" fill="#755246"/>
      <path id="Trazado_143910" data-name="Trazado 143910" d="M13728.693,5264.082l4.59,21.576,15.105,1.354,6.369-7.159-5.828-25.763Z" transform="translate(-13492.19 -4846.831)" fill="#a57e6d"/>
      <path id="Trazado_143911" data-name="Trazado 143911" d="M13655.354,5259.017c-.213.7,0,27.581,0,27.581l8.475,5.015,11.068-6.645,2.346-25.988Z" transform="translate(-13510.819 -4845.59)" fill="#a57e6d"/>
      <path id="Trazado_143912" data-name="Trazado 143912" d="M13654.029,5074.069s-10.869,20.561-15.533,37.372-9.115,26.416-4.312,41.51,11.207,72.3,14.367,87.393c2.6,12.437,8.35,61.129,12.535,76.562h23.533l2.395-172.881s41.836,97.084,46.637,108.743,18.867,61.43,18.867,61.43l24.357-3.761s-14.754-86.09-19.217-106.675-17.15-76.474-22.291-94.025-4.613-29.624-11.91-38.137Z" transform="translate(-13516.69 -4893.123)" fill="#344154"/>
      <path id="Trazado_143913" data-name="Trazado 143913" d="M13678.706,5076.363a1.058,1.058,0,0,1,.463-.326,2.392,2.392,0,0,1,1.568,0,2.321,2.321,0,0,1,1.543,1.768,2.507,2.507,0,0,1-3.986,2.507,2.316,2.316,0,0,1-.916-2.156,2.266,2.266,0,0,1,.678-1.4c.264-.263.463-.313.486-.288a3.358,3.358,0,0,0-.7,1.718,1.863,1.863,0,0,0,.8,1.642,1.916,1.916,0,0,0,3.031-1.893,1.848,1.848,0,0,0-1.113-1.442A3.165,3.165,0,0,0,13678.706,5076.363Z" transform="translate(-13505.212 -4892.031)" fill="#5e6178"/>
      <path id="Trazado_143914" data-name="Trazado 143914" d="M13686.676,5121.463a2.765,2.765,0,0,1-.564.163,16.969,16.969,0,0,1-1.68.276,23.182,23.182,0,0,1-6.27-.1,17.342,17.342,0,0,1-2.068-.426,2.619,2.619,0,0,1-1.039-.614,2.121,2.121,0,0,1-.564-1.141c-.2-1.617-.189-3.222-.289-5.015-.15-3.485-.3-7.309-.477-11.283-.314-8.036-.564-15.307-.715-20.573,0-2.507-.113-4.664-.15-6.269v-1.692a1.753,1.753,0,0,1,0-.589,2.072,2.072,0,0,1,.088.589c0,.464.088,1.016.139,1.692.088,1.567.2,3.674.352,6.269.262,5.266.588,12.537.9,20.56.15,4.012.3,7.835.426,11.283.088,1.717.063,3.447.213,4.9a1.693,1.693,0,0,0,1.254,1.379,16.326,16.326,0,0,0,1.98.451,25.859,25.859,0,0,0,6.168.3A16.259,16.259,0,0,1,13686.676,5121.463Z" transform="translate(-13506.358 -4892.464)" fill="#5e6178"/>
      <path id="Trazado_143915" data-name="Trazado 143915" d="M13714.578,5091.81a3.785,3.785,0,0,1-.965.714,12.533,12.533,0,0,1-3.033,1.253,13.239,13.239,0,0,1-16.291-9.228c-.1-.347-.18-.7-.246-1.052a12.522,12.522,0,0,1-.213-3.285,3.748,3.748,0,0,1,.213-1.253,23.532,23.532,0,0,0,.453,4.375,13.188,13.188,0,0,0,15.736,10.012l.295-.071A23.2,23.2,0,0,0,13714.578,5091.81Z" transform="translate(-13501.042 -4891.256)" fill="#5e6178"/>
      <path id="Trazado_143916" data-name="Trazado 143916" d="M13686.258,5084.019a43.394,43.394,0,0,1-.338-10.519A41.87,41.87,0,0,1,13686.258,5084.019Z" transform="translate(-13503.086 -4892.641)" fill="#5e6178"/>
      <path id="Trazado_143917" data-name="Trazado 143917" d="M13689.428,5083.388a29.913,29.913,0,0,1,0-5.19,26.863,26.863,0,0,1,.3-5.177,16.519,16.519,0,0,1,.352,5.2A16.322,16.322,0,0,1,13689.428,5083.388Z" transform="translate(-13502.181 -4892.763)" fill="#5e6178"/>
      <path id="Trazado_143918" data-name="Trazado 143918" d="M13720.357,5079.11a3.387,3.387,0,0,1-.627.176l-1.816.376c-1.58.326-3.887.715-6.746,1.129a185.4,185.4,0,0,1-45.031.915c-2.871-.3-5.189-.6-6.781-.853l-1.832-.3a.329.329,0,1,1,.014-.15l1.855.175c1.592.176,3.924.4,6.793.64a222.706,222.706,0,0,0,22.48.728,219.7,219.7,0,0,0,22.439-1.643c2.857-.351,5.178-.665,6.77-.915l1.844-.251A3.453,3.453,0,0,1,13720.357,5079.11Z" transform="translate(-13510.407 -4891.219)" fill="#5e6178"/>
      <path id="Trazado_143919" data-name="Trazado 143919" d="M13662.5,5081.81a8.861,8.861,0,0,1-1.807,2.833,17.449,17.449,0,0,1-14.566,6.269,8.953,8.953,0,0,1-3.3-.664c0-.112,1.254.176,3.322.2a18.715,18.715,0,0,0,14.191-6.131C13661.751,5082.863,13662.4,5081.81,13662.5,5081.81Z" transform="translate(-13513.971 -4890.533)" fill="#5e6178"/>
      <path id="Trazado_143920" data-name="Trazado 143920" d="M13683.286,5111.178c-.186,0-.4-6.131-.477-13.678s0-13.69.176-13.69.389,6.118.479,13.678S13683.464,5111.178,13683.286,5111.178Z" transform="translate(-13503.838 -4890.025)" fill="#5e6178"/>
      <path id="Trazado_143921" data-name="Trazado 143921" d="M13676.1,5132.064a49.678,49.678,0,0,1-.176-8.049,51.2,51.2,0,0,1,.477-8.036,50.123,50.123,0,0,1,.174,8.049A49.594,49.594,0,0,1,13676.1,5132.064Z" transform="translate(-13505.599 -4881.865)" fill="#5e6178"/>
      <path id="Trazado_143922" data-name="Trazado 143922" d="M13712.408,5116.065a27.042,27.042,0,0,1-3.926.714c-2.432.389-5.791.928-9.479,1.6s-7.02,1.392-9.426,1.918a27.893,27.893,0,0,1-3.924.739,20.66,20.66,0,0,1,3.76-1.253c2.395-.639,5.717-1.417,9.416-2.106s7.084-1.153,9.541-1.417A20.753,20.753,0,0,1,13712.408,5116.065Z" transform="translate(-13503.109 -4881.85)" fill="#5e6178"/>
      <path id="Trazado_143923" data-name="Trazado 143923" d="M13716.219,5120.73a38.844,38.844,0,0,1-4.586.15c-2.836,0-6.746.138-11.059.364s-8.211.527-11.045.765a38.23,38.23,0,0,1-4.576.313,3.8,3.8,0,0,1,1.254-.276c.777-.15,1.918-.313,3.322-.489,2.82-.363,6.732-.751,11.057-.978s8.262-.226,11.1-.15c1.428,0,2.508.088,3.357.138A4.229,4.229,0,0,1,13716.219,5120.73Z" transform="translate(-13503.286 -4880.749)" fill="#5e6178"/>
      <path id="Trazado_143924" data-name="Trazado 143924" d="M13673.27,5118.987a24.779,24.779,0,0,1-3.234-1.253,77.914,77.914,0,0,0-7.861-2.771,76.375,76.375,0,0,0-8.109-1.855,24.058,24.058,0,0,1-3.41-.64,13.728,13.728,0,0,1,3.473.175,52.961,52.961,0,0,1,16.1,4.664A14.271,14.271,0,0,1,13673.27,5118.987Z" transform="translate(-13511.987 -4882.766)" fill="#5e6178"/>
      <path id="Trazado_143925" data-name="Trazado 143925" d="M13757.428,5272.73v1.68s28.922,10.669,29.387,16.085l-56.779,1.342.326-18.918C13738.947,5276.591,13747.787,5276.867,13757.428,5272.73Z" transform="translate(-13491.851 -4842.102)" fill="#d9a171"/>
      <g id="Grupo_90184" data-name="Grupo 90184" transform="translate(242.808 436.662)" opacity="0.6">
        <path id="Trazado_143926" data-name="Trazado 143926" d="M13735.318,5277.6a2.319,2.319,0,0,0-1.545,2.683,2.234,2.234,0,0,0,2.646,1.555,2.433,2.433,0,0,0,1.617-2.846,2.332,2.332,0,0,0-2.934-1.317" transform="translate(-13733.723 -5277.543)" fill="#ffbf9d"/>
      </g>
      <g id="Grupo_90185" data-name="Grupo 90185" transform="translate(238.233 445.183)" opacity="0.6">
        <path id="Trazado_143927" data-name="Trazado 143927" d="M13730.074,5288.891l.074-4.551,54.385.376s2.508,1.041,2.32,2.833Z" transform="translate(-13730.074 -5284.34)" fill="#ffbf9d"/>
      </g>
      <path id="Trazado_143928" data-name="Trazado 143928" d="M13753.117,5274.248c0,.275-1.379.426-2.721,1.354s-2.043,2.106-2.307,2.006.125-1.718,1.768-2.808S13753.18,5273.985,13753.117,5274.248Z" transform="translate(-13487.291 -4841.777)" fill="#344154"/>
      <path id="Trazado_143929" data-name="Trazado 143929" d="M13757.631,5276.074c.076.263-1.115.765-2.031,1.955s-1.166,2.445-1.441,2.445-.488-1.567.678-3.034S13757.619,5275.773,13757.631,5276.074Z" transform="translate(-13485.786 -4841.284)" fill="#344154"/>
      <path id="Trazado_143930" data-name="Trazado 143930" d="M13759.788,5282.648c-.252.063-.666-1.316,0-2.846s1.955-2.169,2.08-1.943-.664,1.066-1.254,2.332S13760.063,5282.61,13759.788,5282.648Z" transform="translate(-13484.395 -4840.812)" fill="#344154"/>
      <path id="Trazado_143931" data-name="Trazado 143931" d="M13678.236,5277.87s-15.045,10.694-22.379,1.429l-1.9,4.5-8.576,31.981a4.293,4.293,0,0,0,2.42,5.128,4.152,4.152,0,0,0,4.389-.841c6.193-5.892,28.908-27.718,28.684-30.677l-.088-7.848a3.984,3.984,0,0,0-2.508-3.673Z" transform="translate(-13513.369 -4840.798)" fill="#d9a171"/>
      <g id="Grupo_90186" data-name="Grupo 90186" transform="translate(135.169 445.86)" opacity="0.6">
        <path id="Trazado_143932" data-name="Trazado 143932" d="M13647.864,5319.344l32.346-34.464v1.718c.162,1.868-.639,2.595-1.531,3.761-2.617,3.535-9.854,11.421-27.039,27.906a4.09,4.09,0,0,1-3.762,1.054Z" transform="translate(-13647.864 -5284.88)" fill="#ffbf9d"/>
      </g>
      <g id="Grupo_90187" data-name="Grupo 90187" transform="translate(161.742 440.389)" opacity="0.6">
        <path id="Trazado_143933" data-name="Trazado 143933" d="M13670.095,5280.885a2.506,2.506,0,0,0-.7,3.272,2.434,2.434,0,0,0,3.248.727,2.634,2.634,0,0,0,.715-3.473,2.507,2.507,0,0,0-3.447-.376" transform="translate(-13669.061 -5280.516)" fill="#ffbf9d"/>
      </g>
      <path id="Trazado_143934" data-name="Trazado 143934" d="M13656.963,5299.243c-.236.1-1.141-2.018-3.547-3.171s-4.6-.652-4.652-.9.477-.414,1.43-.552a6.551,6.551,0,0,1,3.623.665,6.259,6.259,0,0,1,2.709,2.507C13657,5298.629,13657.064,5299.206,13656.963,5299.243Z" transform="translate(-13512.468 -4836.559)" fill="#344154"/>
      <path id="Trazado_143935" data-name="Trazado 143935" d="M13654.519,5303.2c-.2.176-1.492-1.14-3.586-1.755s-3.887-.275-3.947-.526,1.842-1.053,4.211-.326S13654.72,5303.085,13654.519,5303.2Z" transform="translate(-13512.918 -4835.11)" fill="#344154"/>
      <path id="Trazado_143936" data-name="Trazado 143936" d="M13661.9,5293.785c-.187.188-2.168-1.855-5.34-3.084s-5.992-1.153-6.006-1.417,2.947-.777,6.332.589S13662.1,5293.622,13661.9,5293.785Z" transform="translate(-13512.013 -4837.983)" fill="#344154"/>
      <path id="Trazado_143937" data-name="Trazado 143937" d="M13662.31,5285.354c-.1.251-2.344-.689-5.252-.814s-5.215.576-5.3.325,2.221-1.379,5.354-1.254S13662.448,5285.179,13662.31,5285.354Z" transform="translate(-13511.71 -4839.344)" fill="#344154"/>
      <path id="Trazado_143938" data-name="Trazado 143938" d="M13655.763,5285.78a3.584,3.584,0,0,1,.225-1.517,10.726,10.726,0,0,1,1.943-3.761,4.657,4.657,0,0,1,2.395-1.842,1.65,1.65,0,0,1,1.779.714,2.683,2.683,0,0,1,.3,1.905,5.868,5.868,0,0,1-6.055,4.388,6.8,6.8,0,0,1-5.906-4.727,2.3,2.3,0,0,1,.25-1.943,1.63,1.63,0,0,1,1.844-.539,5.8,5.8,0,0,1,2.355,1.855,11.732,11.732,0,0,1,2.146,3.6,3.624,3.624,0,0,1,.352,1.492,19.044,19.044,0,0,0-2.959-4.676,5.4,5.4,0,0,0-2.107-1.567.89.89,0,0,0-1,.289,1.609,1.609,0,0,0-.09,1.253,6.061,6.061,0,0,0,5.166,4.037,5.017,5.017,0,0,0,5.191-3.648,1.988,1.988,0,0,0-.139-1.341.893.893,0,0,0-.979-.4,4.19,4.19,0,0,0-2.066,1.517A16.021,16.021,0,0,0,13655.763,5285.78Z" transform="translate(-13512.068 -4840.673)" fill="#344154"/>
      <path id="Trazado_143939" data-name="Trazado 143939" d="M13702.355,4991.765c-2.357-1.881-5.115-3.2-7.521-4.952s-4.713-6.381-5.279-9.353l-19.344,1.692a75.943,75.943,0,0,0-2.508,23.456c.164,3.36.652,6.945,2.91,9.44,2.506,2.746,6.406,3.473,10.029,4.062l17.65,2.821c2.082.325,4.326.639,6.27-.276a8.252,8.252,0,0,0,3.76-4.7A19.958,19.958,0,0,0,13702.355,4991.765Z" transform="translate(-13507.687 -4917.004)" fill="#344154"/>
      <path id="Trazado_143940" data-name="Trazado 143940" d="M13638.381,5021.311c-1.031-5.729.076-11.559.6-17.288.775-8.35.324-16.975,0-25.525s-.654-17.187.461-25.424,3.762-16.085,8.238-20.51,10.92-4.689,15.385.752l-1.758,21.714a630.969,630.969,0,0,1,.953,92.608,48.876,48.876,0,0,1-17.877.175,3.759,3.759,0,0,1-3.26-2.419c-.727-2.106.275-4.4.664-6.606a20.358,20.358,0,0,0-.941-8.952A81.192,81.192,0,0,1,13638.381,5021.311Z" transform="translate(-13515.209 -4929.237)" fill="#344154"/>
      <path id="Trazado_143941" data-name="Trazado 143941" d="M13651.75,4934.776a15.067,15.067,0,0,1,6.27-3.761,5.115,5.115,0,0,1,2.934-.189,2.216,2.216,0,0,1,1.643,2.207l-5.793,8.2a3.987,3.987,0,0,1-4.4.2,4.1,4.1,0,0,1-2.406-2.57A4.736,4.736,0,0,1,13651.75,4934.776Z" transform="translate(-13512.157 -4928.867)" fill="#5e6178"/>
      <path id="Trazado_143942" data-name="Trazado 143942" d="M13677.155,4996.9" transform="translate(-13505.265 -4912.073)" fill="#ffbe9d"/>
      <path id="Trazado_143943" data-name="Trazado 143943" d="M13695.16,4957.122a22.992,22.992,0,0,0-23.256-21.062,22.326,22.326,0,0,0-22.043,22.608q.006.448.029.9l4.285,50.147a4.34,4.34,0,0,0,1.154,2.595,20.488,20.488,0,0,0,14.131,6.369,21.419,21.419,0,0,0,12.7-4.626,4.251,4.251,0,0,0,1.617-3.949l-1.566-12.926h0a29.5,29.5,0,0,0,3.32-.627c2.834-1.153,9.717-3.31,10.029-14.668A227.647,227.647,0,0,0,13695.16,4957.122Z" transform="translate(-13512.188 -4927.506)" fill="#a57e6d"/>
      <path id="Trazado_143944" data-name="Trazado 143944" d="M13675.253,4971a13.36,13.36,0,0,1,3.172-.814c.5-.088.979-.226,1.041-.564a2.58,2.58,0,0,0-.463-1.454c-.564-1.166-1.166-2.395-1.8-3.673-2.508-5.228-4.363-9.553-4.15-9.641s2.418,4.062,4.939,9.29c.6,1.253,1.178,2.507,1.742,3.761a2.894,2.894,0,0,1,.414,1.931,1.255,1.255,0,0,1-.777.791,3.629,3.629,0,0,1-.84.188A13.523,13.523,0,0,1,13675.253,4971Z" transform="translate(-13506.312 -4922.739)" fill="#344154"/>
      <path id="Trazado_143945" data-name="Trazado 143945" d="M13683.737,4958.826a1.807,1.807,0,0,1-1.631,1.956,1.767,1.767,0,0,1-2.027-1.462l0-.018a1.828,1.828,0,0,1,1.629-1.968,1.778,1.778,0,0,1,2.029,1.488Z" transform="translate(-13504.526 -4922.115)" fill="#344154"/>
      <path id="Trazado_143946" data-name="Trazado 143946" d="M13685.109,4956.011c-.176.313-1.768-.714-3.762-.414s-3.207,1.706-3.471,1.442,0-.665.551-1.254a4.332,4.332,0,0,1,2.707-1.518,4.415,4.415,0,0,1,3.047.69C13684.908,4955.372,13685.2,4955.86,13685.109,4956.011Z" transform="translate(-13505.109 -4922.897)" fill="#344154"/>
      <path id="Trazado_143947" data-name="Trazado 143947" d="M13668.9,4960.216a1.807,1.807,0,0,1-1.629,1.956,1.768,1.768,0,0,1-2.027-1.465l0-.027a1.8,1.8,0,0,1,1.629-1.955,1.779,1.779,0,0,1,2.031,1.488Z" transform="translate(-13508.29 -4921.762)" fill="#344154"/>
      <path id="Trazado_143948" data-name="Trazado 143948" d="M13669.971,4957.652c-.24.3-1.793-.94-3.937-.9s-3.686,1.254-3.924.965.111-.664.777-1.253a4.975,4.975,0,0,1,6.279-.05C13669.846,4957,13670.084,4957.527,13669.971,4957.652Z" transform="translate(-13509.101 -4922.62)" fill="#344154"/>
      <path id="Trazado_143949" data-name="Trazado 143949" d="M13679.268,4985.551s-7.773,1.253-17.8-3.661c0,0,3.975,9.653,18.24,7.246Z" transform="translate(-13509.245 -4915.88)" fill="#755246"/>
      <path id="Trazado_143950" data-name="Trazado 143950" d="M13675.625,4971.748a3.684,3.684,0,0,0-3.311-1.065,3.3,3.3,0,0,0-2.156,1.366,2.026,2.026,0,0,0,0,2.332,2.509,2.509,0,0,0,2.658.451,7.462,7.462,0,0,0,2.408-1.68,2.194,2.194,0,0,0,.525-.614.657.657,0,0,0,0-.728" transform="translate(-13507.134 -4918.738)" fill="#755246"/>
      <path id="Trazado_143951" data-name="Trazado 143951" d="M13671.015,4951.549c-.15.539-2.143.477-4.437.965s-4.113,1.254-4.463.84c-.164-.213.113-.739.814-1.253a7.6,7.6,0,0,1,3.234-1.467,7.88,7.88,0,0,1,3.561.075C13670.6,4950.9,13671.077,4951.286,13671.015,4951.549Z" transform="translate(-13509.091 -4923.851)" fill="#344154"/>
      <path id="Trazado_143952" data-name="Trazado 143952" d="M13684.852,4952.6c-.387.464-2.027.075-4,.138s-3.586.465-4,0c-.174-.226.063-.677.766-1.128a7.063,7.063,0,0,1,6.42-.062C13684.779,4951.927,13685.029,4952.378,13684.852,4952.6Z" transform="translate(-13505.354 -4923.765)" fill="#344154"/>
      <path id="Trazado_143953" data-name="Trazado 143953" d="M13674.459,4934.306a6.753,6.753,0,0,0-5.49-2.132c-8.9,0-17.854,6.607-21.664,14.655s-2.506,19.018,2.27,26.541l3.346.1c6.746-1.4,15.422-22.015,23.434-33.849C13677.355,4938.117,13675.576,4935.685,13674.459,4934.306Z" transform="translate(-13513.401 -4928.497)" fill="#344154"/>
      <path id="Trazado_143954" data-name="Trazado 143954" d="M13686.153,4937.592c-4.25-3.624-10.9-7.811-18.039-3.824-.8,2.281,1.842,4.7,3.949,6.03,3.084,1.956,5.7,3.185,7.746,4.614,4.139,2.871,9.467,7.835,10.732,14.028.088.389.176,12.6.551,12.474s1.518-15.044,1.631-18.542C13692.948,4944.963,13690.4,4941.2,13686.153,4937.592Z" transform="translate(-13507.596 -4928.498)" fill="#344154"/>
      <path id="Trazado_143955" data-name="Trazado 143955" d="M13654.235,4961.742c-.227-.075-8.775-2.093-8.012,6.444s9.152,6.055,9.139,5.8S13654.235,4961.742,13654.235,4961.742Z" transform="translate(-13513.122 -4921.057)" fill="#a57e6d"/>
      <path id="Trazado_143956" data-name="Trazado 143956" d="M13652.033,4970.4a3.01,3.01,0,0,1-.375.25,1.446,1.446,0,0,1-1.117.113,3.688,3.688,0,0,1-1.98-3.147,4.9,4.9,0,0,1,.238-2.169,1.741,1.741,0,0,1,1.029-1.253.753.753,0,0,1,.9.338c.139.226.1.4.15.414s.162-.163.063-.5a.938.938,0,0,0-.377-.514,1.1,1.1,0,0,0-.84-.138,2.1,2.1,0,0,0-1.441,1.454,5.037,5.037,0,0,0-.312,2.419,3.857,3.857,0,0,0,2.506,3.5,1.568,1.568,0,0,0,1.342-.338C13652.033,4970.6,13652.072,4970.415,13652.033,4970.4Z" transform="translate(-13512.677 -4920.479)" fill="#755246"/>
      <path id="Trazado_143957" data-name="Trazado 143957" d="M13687.428,4937.67a9.421,9.421,0,0,1-2.434.64,35.464,35.464,0,0,1-12.1,0,8.543,8.543,0,0,1-2.432-.615,17.047,17.047,0,0,1,2.508.251,54.091,54.091,0,0,0,5.992.326,51.762,51.762,0,0,0,5.992-.4A14.313,14.313,0,0,1,13687.428,4937.67Z" transform="translate(-13506.962 -4927.097)" fill="#5e6178"/>
      <path id="Trazado_143958" data-name="Trazado 143958" d="M13689.467,4942.456a4.766,4.766,0,0,1-1.791.677,14.282,14.282,0,0,1-9.09-.814,4.8,4.8,0,0,1-1.641-.979,19.553,19.553,0,0,0,12.521,1.116Z" transform="translate(-13505.318 -4926.167)" fill="#5e6178"/>
      <path id="Trazado_143959" data-name="Trazado 143959" d="M13646.284,4949.045c0-.113,1.869,0,4.826-.477a36.668,36.668,0,0,0,5.1-1.178,48.384,48.384,0,0,0,5.955-2.382,53.288,53.288,0,0,0,5.566-3.2,47.894,47.894,0,0,0,4.188-3.171c2.27-1.931,3.51-3.335,3.572-3.26a6.47,6.47,0,0,1-.814,1.016,15.275,15.275,0,0,1-1.041,1.128c-.426.427-.9.915-1.479,1.4a41.107,41.107,0,0,1-4.15,3.285,47.5,47.5,0,0,1-5.6,3.272,44.219,44.219,0,0,1-6.055,2.37,33.53,33.53,0,0,1-5.191,1.091,18.625,18.625,0,0,1-2.031.175,10.821,10.821,0,0,1-1.541,0A5.774,5.774,0,0,1,13646.284,4949.045Z" transform="translate(-13513.097 -4927.679)" fill="#5e6178"/>
      <path id="Trazado_143960" data-name="Trazado 143960" d="M13674.812,4937.81a7,7,0,0,1-.539,1.254,13.182,13.182,0,0,1-.727,1.441c-.314.54-.627,1.191-1.078,1.844a35.069,35.069,0,0,1-3.311,4.463,37.784,37.784,0,0,1-4.939,4.676,37,37,0,0,1-5.768,3.636,34.535,34.535,0,0,1-5.164,2.056c-.74.251-1.455.389-2.057.553s-1.141.237-1.578.313a8.4,8.4,0,0,1-1.367.162c0-.112,1.918-.4,4.889-1.392a37.614,37.614,0,0,0,5.016-2.131,36.579,36.579,0,0,0,10.557-8.2,38.368,38.368,0,0,0,3.357-4.338C13673.9,4939.527,13674.71,4937.81,13674.812,4937.81Z" transform="translate(-13512.588 -4927.062)" fill="#5e6178"/>
      <path id="Trazado_143961" data-name="Trazado 143961" d="M13664.135,4932.2a3.276,3.276,0,0,1,1.717-.1,7.426,7.426,0,0,1,3.76,1.755,6.235,6.235,0,0,1,.83.89,5.023,5.023,0,0,1,.551.978,12.012,12.012,0,0,1,.7,1.73,2.523,2.523,0,0,1,.09,1.718c-.09,0-.064-.652-.439-1.592a17.34,17.34,0,0,0-.791-1.629,4.676,4.676,0,0,0-.527-.89,6.324,6.324,0,0,0-.766-.8,8.074,8.074,0,0,0-3.484-1.78C13664.787,4932.254,13664.145,4932.292,13664.135,4932.2Z" transform="translate(-13508.568 -4928.527)" fill="#5e6178"/>
      <path id="Trazado_143962" data-name="Trazado 143962" d="M13647.668,4969.89a1.5,1.5,0,0,0-.127-.439c-.086-.289-.238-.689-.4-1.254a39.013,39.013,0,0,1-1.254-4.576,32.881,32.881,0,0,1-.641-6.971,27.571,27.571,0,0,1,1.43-8.412,21.718,21.718,0,0,1,1.881-4,23.452,23.452,0,0,1,2.508-3.3,28.417,28.417,0,0,1,5.3-4.551,40.758,40.758,0,0,1,4.074-2.408l1.152-.589a1.649,1.649,0,0,0,.391-.226l-.414.15c-.275.125-.689.275-1.191.526a33.918,33.918,0,0,0-4.162,2.307,28.171,28.171,0,0,0-5.43,4.539,23.486,23.486,0,0,0-2.506,3.347,21.088,21.088,0,0,0-1.93,4.074,27.179,27.179,0,0,0-1.418,8.538,31.774,31.774,0,0,0,.727,7.021,32.139,32.139,0,0,0,1.33,4.576c.188.539.375.928.477,1.253A2.719,2.719,0,0,0,13647.668,4969.89Z" transform="translate(-13513.439 -4928.239)" fill="#5e6178"/>
      <path id="Trazado_143963" data-name="Trazado 143963" d="M13676.982,4974.106c0-.263-1.943-.54-4.186-1.542s-3.836-2.507-3.963-2.27a7.637,7.637,0,0,0,3.762,3.084C13674.916,4974.432,13676.973,4974.319,13676.982,4974.106Z" transform="translate(-13507.376 -4918.828)" fill="#344154"/>
      <path id="Trazado_143964" data-name="Trazado 143964" d="M13697.408,4991.584l-12.262-1.454-29,3.748-14.807,8.249,25.725,10.844,18.719-3.835Z" transform="translate(-13514.349 -4913.79)" fill="#a57e6d"/>
      <path id="Trazado_143965" data-name="Trazado 143965" d="M13651.529,4997.281l-20.535,8.375,4.6,39.428s7.633-2.733,11.734,17.188,4.162,32.671,4.162,32.671l74.693-2.658s-2.721-47.752-4.088-58.4l-5.014-40.655-19.27-3.223S13679.248,5021.377,13651.529,4997.281Z" transform="translate(-13516.974 -4913.82)" fill="#5e6178"/>
      <path id="Trazado_143966" data-name="Trazado 143966" d="M13700.874,4992.581s9.1-.652,16.3,11.935c5.467,9.579,7.4,13.276,7.4,13.276l-21.162,12.361-8.461-23.1Z" transform="translate(-13500.753 -4913.169)" fill="#5e6178"/>
      <path id="Trazado_143967" data-name="Trazado 143967" d="M13635.664,5002.38s-8.186,4.639-12.537,10.644-9.551,17.025-9.551,17.025l25.072,13.94,3.762-7.159Z" transform="translate(-13521.395 -4910.683)" fill="#5e6178"/>
      <path id="Trazado_143968" data-name="Trazado 143968" d="M13637.493,5035.5c-.113,0,.539-1.717,1.115-4.538a33.618,33.618,0,0,0,.664-5.015,38.054,38.054,0,0,0-.15-6.169,40.365,40.365,0,0,0-1.254-6.042,34.856,34.856,0,0,0-1.768-4.726c-1.254-2.608-2.205-4.1-2.1-4.162a4.524,4.524,0,0,1,.775.99,23.384,23.384,0,0,1,1.742,2.971,31.151,31.151,0,0,1,1.932,4.751,35.539,35.539,0,0,1,1.252,6.155,33.949,33.949,0,0,1,.113,6.269A29.652,29.652,0,0,1,13639,5031a23.021,23.021,0,0,1-1.027,3.285A4.134,4.134,0,0,1,13637.493,5035.5Z" transform="translate(-13516.215 -4910.056)" fill="#344154"/>
      <path id="Trazado_143969" data-name="Trazado 143969" d="M13702.258,5011.07c-.2,0-.865-3.912-2.857-8.362q-1.945-3.98-4.275-7.748a8.691,8.691,0,0,1,1.729,1.981,30.693,30.693,0,0,1,5.1,11.521A7.947,7.947,0,0,1,13702.258,5011.07Z" transform="translate(-13500.707 -4912.564)" fill="#344154"/>
      <path id="Trazado_143970" data-name="Trazado 143970" d="M13699.926,4990.06a2.462,2.462,0,0,1-.2.64c-.176.4-.377,1.016-.752,1.756a29.957,29.957,0,0,1-3.762,5.941,33.085,33.085,0,0,1-7.686,7.033,32.471,32.471,0,0,1-34.25.815,30.253,30.253,0,0,1-5.629-4.2c-.615-.552-1.029-1.054-1.328-1.366s-.439-.5-.414-.514.678.613,1.918,1.692a33.224,33.224,0,0,0,5.678,3.986,33.746,33.746,0,0,0,9.6,3.585,31.486,31.486,0,0,0,24.084-4.5,33.882,33.882,0,0,0,7.66-6.82,33.279,33.279,0,0,0,3.861-5.767C13699.5,4990.888,13699.926,4990.047,13699.926,4990.06Z" transform="translate(-13513.192 -4913.807)" fill="#344154"/>
      <path id="Trazado_143971" data-name="Trazado 143971" d="M13665.854,5040.476a198.447,198.447,0,0,1-8.322-41.108c-.842-9.842-3.412-17.777-3.762-27.468l-5.605,9.917a270.953,270.953,0,0,0-6.129,37.886c-.363,4-.5,8.462,2.1,11.522,2.094,2.507,5.705,3.647,6.857,6.656,1.254,3.26-.576,8.074,2.508,9.7a4.084,4.084,0,0,0,4.676-1.166,12.05,12.05,0,0,0,2.258-4.6c.289,2.507,3.223,5.166,5.127,3.473C13666.768,5044.149,13666.369,5042.105,13665.854,5040.476Z" transform="translate(-13514.225 -4918.415)" fill="#344154"/>
      <path id="Trazado_143972" data-name="Trazado 143972" d="M13541.572,5155.766h0a20.274,20.274,0,0,0,26.463,11.033q.841-.344,1.645-.765l279.383-145.7,35.68-51.7L13823.4,4978l-272.963,152.371A20.261,20.261,0,0,0,13541.572,5155.766Z" transform="translate(-13540.047 -4919.244)" fill="#d9a171"/>
      <path id="Trazado_143973" data-name="Trazado 143973" d="M13550.438,5097.64a20.262,20.262,0,0,0-8.865,25.4h0a20.274,20.274,0,0,0,26.463,11.033c.561-.229,1.109-.486,1.645-.766Z" transform="translate(-13540.047 -4886.517)" fill="#344154"/>
      <g id="Grupo_90188" data-name="Grupo 90188" transform="translate(10.392 58.751)" opacity="0.4">
        <path id="Trazado_143974" data-name="Trazado 143974" d="M13821.283,4976.1l-272.949,152.371,3.283,6.093,274.029-150.328Z" transform="translate(-13548.334 -4976.1)" fill="#344154"/>
      </g>
      <g id="Grupo_90189" data-name="Grupo 90189" transform="translate(26.475 92.851)" opacity="0.4">
        <path id="Trazado_143975" data-name="Trazado 143975" d="M13838.9,5003.3l-277.738,148.083,3.16,5.855,279.379-145.7Z" transform="translate(-13561.164 -5003.3)" fill="#344154"/>
      </g>
      <g id="Grupo_90190" data-name="Grupo 90190" transform="translate(18.314 75.149)" opacity="0.4">
        <path id="Trazado_143976" data-name="Trazado 143976" d="M13829.522,4989.18l-274.869,150.642,4.377,8.124,275.168-150.378Z" transform="translate(-13554.653 -4989.18)" fill="#344154"/>
      </g>
      <g id="Grupo_90191" data-name="Grupo 90191" transform="translate(283.341 53.022)" opacity="0.4">
        <path id="Trazado_143977" data-name="Trazado 143977" d="M13791.729,5019.6l-25.674-42.336,37.549-5.729,11.545,14.117Z" transform="translate(-13766.055 -4971.529)" fill="#ffbf9d"/>
      </g>
      <path id="Trazado_143978" data-name="Trazado 143978" d="M13747.164,5038.142l5.016-5.291s-.59-12.047,1.467-15.044l1.064-1.78s-1.064-5.854,2.082-7.208c.889-2.219,2.043-3.121,3.609-1.88,0,0-.877-4.413,3.234-5.015s5.291,18.078,5.291,18.078,2.057,8.375-2.645,8.375c0,0-2.646,2.933-5.592,3.234,0,0-.877,5.015-5.014,4.7Z" transform="translate(-13487.505 -4910.802)" fill="#a57e6d"/>
      <path id="Trazado_143979" data-name="Trazado 143979" d="M13760.172,5023.88a1.556,1.556,0,0,1,.463.6,3.308,3.308,0,0,1,.238,2.068,4.634,4.634,0,0,1-1.541,2.671,9.334,9.334,0,0,1-3.285,1.792,23.13,23.13,0,0,1-6.545,1.254,7.941,7.941,0,0,1-2.758-.149,41.541,41.541,0,0,0,9.09-1.769,9.4,9.4,0,0,0,3.1-1.629,4.329,4.329,0,0,0,1.492-2.319A4.193,4.193,0,0,0,13760.172,5023.88Z" transform="translate(-13487.612 -4905.229)" fill="#755246"/>
      <path id="Trazado_143980" data-name="Trazado 143980" d="M13761.018,5021.888c-.2,0-.215-3.761-1.1-8.249s-2.293-7.974-2.107-8.049a7.706,7.706,0,0,1,1.09,2.207,33.442,33.442,0,0,1,1.658,5.717,35.815,35.815,0,0,1,.639,5.917A7.648,7.648,0,0,1,13761.018,5021.888Z" transform="translate(-13484.811 -4909.868)" fill="#755246"/>
      <path id="Trazado_143981" data-name="Trazado 143981" d="M13758.225,5023.477c-.189,0-.539-3.648-1.48-8.061s-2.08-7.923-1.906-7.986a28.218,28.218,0,0,1,2.508,7.848A28.637,28.637,0,0,1,13758.225,5023.477Z" transform="translate(-13485.563 -4909.401)" fill="#755246"/>
      <path id="Trazado_143982" data-name="Trazado 143982" d="M13763.022,5020.121c.148-.1.764,1.053.363,2.507s-1.506,2.156-1.582,1.993a20.2,20.2,0,0,0,.955-2.156C13763.073,5021.236,13762.847,5020.184,13763.022,5020.121Z" transform="translate(-13483.792 -4906.184)" fill="#755246"/>
      <path id="Trazado_143983" data-name="Trazado 143983" d="M13753.736,5022.665a24.8,24.8,0,0,1-.391-4.576,26.489,26.489,0,0,1-.186-4.588,12.17,12.17,0,0,1,.84,4.551A12.612,12.612,0,0,1,13753.736,5022.665Z" transform="translate(-13485.992 -4907.862)" fill="#755246"/>
      <path id="Trazado_143984" data-name="Trazado 143984" d="M13619.137,5024.45s-16.584,34.964-19.092,40.18-6.559,14.856,0,20.26,52.24,5.742,52.24,5.742l2.268-18.417-30.088-7.283,17.678-26.541Z" transform="translate(-13525.728 -4905.084)" fill="#a57e6d"/>
      <path id="Trazado_143985" data-name="Trazado 143985" d="M13647.6,5065.469a15.031,15.031,0,0,1,3.963-5.215c2.869-2.507,9.189-4.438,10.029-6.832s3.209-.527,2.645,2.444c-.352,1.905-4.262,6.883-4.262,6.883s4.588,1.141,7.646-.615,13.791-4.926,14.893-3.422-1.516,2.244-2.707,2.934c-.914.514-8.023,4.037-8.023,4.037s14.143-.477,15.922.2,0,2.432-.939,2.507c-.553,0-2.984,2.194-4.7,3.761a6.4,6.4,0,0,1-4.289,1.729h-3.283l10.029,1.053s1.717,1.58-.678,2.407c-1.078.364-31.342,4.727-33.7,4.865-4.061.238-10.48,1.254-10.48,1.254l1.629-18.805Z" transform="translate(-13514.774 -4898.012)" fill="#a57e6d"/>
      <path id="Trazado_143986" data-name="Trazado 143986" d="M13680.184,5065.2a21.52,21.52,0,0,1-6.768,2.018,22.019,22.019,0,0,1-7.021.414c0-.188,3.123-.376,6.908-1.054S13680.123,5065.029,13680.184,5065.2Z" transform="translate(-13507.996 -4894.751)" fill="#755246"/>
    </g>
    <g id="freepik--speech-bubble--inject-81" transform="translate(13714.441 4995.759)">
      <path id="Trazado_143987" data-name="Trazado 143987" d="M13703.066,4976.968l7.871-13.891a37.23,37.23,0,1,1,8.912,9.917h0Z" transform="translate(-13703.066 -4906.29)" fill="#ffbf9d"/>
      <path id="Trazado_143988" data-name="Trazado 143988" d="M13703.066,4976.971l16.836-3.761h.225l-.137-.188h0l-.215.2a37.2,37.2,0,0,0,17.852,7.522,33.788,33.788,0,0,0,5.893.3c1.016,0,2.045-.075,3.1-.163l3.135-.477a37.311,37.311,0,0,0,29.635-43.657c-.145-.747-.309-1.491-.5-2.228a36.543,36.543,0,0,0-7.984-15.32,37.4,37.4,0,0,0-14.342-10.242,38.072,38.072,0,0,0-16.7-2.57,36.643,36.643,0,0,0-15.32,4.538,37.8,37.8,0,0,0-17.664,21.751,40.128,40.128,0,0,0-1.617,12.111,37.044,37.044,0,0,0,5.578,18.454v-.15l-7.748,13.966,8-13.791v-.15a36.986,36.986,0,0,1-5.4-18.316,39.969,39.969,0,0,1,1.654-11.959,37.335,37.335,0,0,1,17.449-21.526,36.237,36.237,0,0,1,15.045-4.425,37.4,37.4,0,0,1,16.436,2.507,36.823,36.823,0,0,1,14.115,10.03,36,36,0,0,1,7.861,15.044,37.588,37.588,0,0,1,.451,16.3,37.139,37.139,0,0,1-29.1,28.972l-3.1.476c-1.029.088-2.057.113-3.059.176a31.8,31.8,0,0,1-5.818-.275,36.963,36.963,0,0,1-17.727-7.347l-.928-.714.715.915h0l.088-.238Z" transform="translate(-13703.066 -4906.293)" fill="#344154"/>
      <path id="Trazado_143989" data-name="Trazado 143989" d="M13719.743,4940.9l5.2-5.2,10.029,8.913,19.7-18.942,4.826,5.19-25.26,23.781Z" transform="translate(-13698.834 -4901.378)" fill="#d9a171"/>
    </g>
  </g>
</svg>
