<svg id="Grupo_89302" data-name="Grupo 89302" xmlns="http://www.w3.org/2000/svg" xmlns:xlink="http://www.w3.org/1999/xlink" width="234.75" height="312.521" viewBox="0 0 234.75 312.521">
  <defs>
    <linearGradient id="linear-gradient" x1="0.5" x2="0.5" y2="1" gradientUnits="objectBoundingBox">
      <stop offset="0" stop-color="#fff"/>
      <stop offset="1" stop-color="#f8f8f8"/>
    </linearGradient>
  </defs>
  <g id="Grupo_57070" data-name="Grupo 57070" transform="translate(0 0)">
    <g id="Grupo_57069" data-name="Grupo 57069" transform="translate(0)" opacity="0.7" style="mix-blend-mode: multiply;isolation: isolate">
      <rect id="Rectángulo_29501" data-name="Rectángulo 29501" width="234.75" height="312.521" rx="9.04" fill="#fff" opacity="0"/>
      <rect id="Rectángulo_29502" data-name="Rectángulo 29502" width="232.76" height="310.792" rx="9.04" transform="translate(0.995 0.864)" fill="#f3f3f3" opacity="0.048"/>
      <rect id="Rectángulo_29503" data-name="Rectángulo 29503" width="230.769" height="309.064" rx="9.04" transform="translate(1.99 1.728)" fill="#e7e7e7" opacity="0.095"/>
      <rect id="Rectángulo_29504" data-name="Rectángulo 29504" width="228.779" height="307.336" rx="9.04" transform="translate(2.986 2.593)" fill="#dbdbdb" opacity="0.143"/>
      <rect id="Rectángulo_29505" data-name="Rectángulo 29505" width="226.789" height="305.607" rx="9.04" transform="translate(3.981 3.457)" fill="#cecece" opacity="0.19"/>
      <rect id="Rectángulo_29506" data-name="Rectángulo 29506" width="224.798" height="303.879" rx="9.04" transform="translate(4.976 4.321)" fill="#c2c2c2" opacity="0.238"/>
      <rect id="Rectángulo_29507" data-name="Rectángulo 29507" width="222.808" height="302.151" rx="9.04" transform="translate(5.971 5.185)" fill="#b6b6b6" opacity="0.286"/>
      <rect id="Rectángulo_29508" data-name="Rectángulo 29508" width="220.818" height="300.422" rx="9.04" transform="translate(6.966 6.049)" fill="#aaa" opacity="0.333"/>
      <rect id="Rectángulo_29509" data-name="Rectángulo 29509" width="218.827" height="298.694" rx="9.04" transform="translate(7.961 6.913)" fill="#9e9e9e" opacity="0.381"/>
      <rect id="Rectángulo_29510" data-name="Rectángulo 29510" width="216.837" height="296.966" rx="9.04" transform="translate(8.956 7.778)" fill="#929292" opacity="0.429"/>
      <rect id="Rectángulo_29511" data-name="Rectángulo 29511" width="214.847" height="295.237" rx="9.04" transform="translate(9.952 8.642)" fill="#868686" opacity="0.476"/>
      <rect id="Rectángulo_29512" data-name="Rectángulo 29512" width="212.856" height="293.509" rx="9.04" transform="translate(10.947 9.506)" fill="#797979" opacity="0.524"/>
      <rect id="Rectángulo_29513" data-name="Rectángulo 29513" width="210.866" height="291.781" rx="9.04" transform="translate(11.942 10.37)" fill="#6d6d6d" opacity="0.571"/>
      <rect id="Rectángulo_29514" data-name="Rectángulo 29514" width="208.876" height="290.052" rx="9.04" transform="translate(12.937 11.234)" fill="#616161" opacity="0.619"/>
      <rect id="Rectángulo_29515" data-name="Rectángulo 29515" width="206.885" height="288.324" rx="9.04" transform="translate(13.932 12.098)" fill="#555" opacity="0.667"/>
      <rect id="Rectángulo_29516" data-name="Rectángulo 29516" width="204.895" height="286.596" rx="9.04" transform="translate(14.927 12.963)" fill="#494949" opacity="0.714"/>
      <rect id="Rectángulo_29517" data-name="Rectángulo 29517" width="202.905" height="284.867" rx="9.04" transform="translate(15.923 13.827)" fill="#3d3d3d" opacity="0.762"/>
      <rect id="Rectángulo_29518" data-name="Rectángulo 29518" width="200.914" height="283.139" rx="9.04" transform="translate(16.918 14.691)" fill="#313131" opacity="0.81"/>
      <rect id="Rectángulo_29519" data-name="Rectángulo 29519" width="198.924" height="281.411" rx="9.04" transform="translate(17.913 15.555)" fill="#242424" opacity="0.857"/>
      <rect id="Rectángulo_29520" data-name="Rectángulo 29520" width="196.934" height="279.682" rx="9.04" transform="translate(18.908 16.419)" fill="#181818" opacity="0.905"/>
      <rect id="Rectángulo_29521" data-name="Rectángulo 29521" width="194.943" height="277.954" rx="9.04" transform="translate(19.903 17.283)" fill="#0c0c0c" opacity="0.952"/>
      <rect id="Rectángulo_29522" data-name="Rectángulo 29522" width="192.953" height="276.226" rx="9.04" transform="translate(20.898 18.148)"/>
    </g>
    <rect id="Rectángulo_29523" data-name="Rectángulo 29523" width="218.672" height="298.559" rx="10" transform="translate(7.076 7.202)" fill="url(#linear-gradient)"/>
    <path id="Trazado_123976" data-name="Trazado 123976" d="M185.015,982.253H403.687v8.985H306.651l-12.736,8.61-13.7-8.8-95.2.187Z" transform="translate(-177.939 -975.05)" fill="#6595bf"/>
    <path id="Trazado_123977" data-name="Trazado 123977" d="M271.948,988.712l-7.319,6.865a1.845,1.845,0,0,1-2.586.019l-7.739-7.079" transform="translate(-147.512 -976.938)" fill="none" stroke="#12263f" stroke-linecap="round" stroke-miterlimit="10" stroke-width="0.806"/>
    <path id="Trazado_148411" data-name="Trazado 148411" d="M12.7,10.563a6.172,6.172,0,0,1-2.458-1.193,2.279,2.279,0,0,1-.769-1.747,2.408,2.408,0,0,1,.94-1.945,3.736,3.736,0,0,1,2.444-.769,4.078,4.078,0,0,1,1.829.4A3.007,3.007,0,0,1,15.934,6.4a2.8,2.8,0,0,1,.441,1.524H15.055A1.82,1.82,0,0,0,14.481,6.5a2.335,2.335,0,0,0-1.62-.518,2.391,2.391,0,0,0-1.514.428A1.428,1.428,0,0,0,10.8,7.6,1.285,1.285,0,0,0,11.32,8.63a5.062,5.062,0,0,0,1.757.77,8.152,8.152,0,0,1,1.941.77,2.946,2.946,0,0,1,1.039.981,2.5,2.5,0,0,1,.338,1.319,2.326,2.326,0,0,1-.943,1.938,4.022,4.022,0,0,1-2.522.728,4.678,4.678,0,0,1-1.914-.393,3.221,3.221,0,0,1-1.371-1.077,2.627,2.627,0,0,1-.482-1.552h1.319a1.714,1.714,0,0,0,.667,1.425,2.806,2.806,0,0,0,1.781.523,2.58,2.58,0,0,0,1.593-.424,1.377,1.377,0,0,0,.554-1.155,1.351,1.351,0,0,0-.513-1.131A5.911,5.911,0,0,0,12.7,10.563Zm8.244,4.573a3.232,3.232,0,0,1-2.447-.988,3.666,3.666,0,0,1-.943-2.642v-.232a4.438,4.438,0,0,1,.42-1.965,3.28,3.28,0,0,1,1.176-1.354,2.956,2.956,0,0,1,1.637-.489,2.77,2.77,0,0,1,2.242.95,4.114,4.114,0,0,1,.8,2.721v.526H18.822a2.629,2.629,0,0,0,.639,1.767,2.009,2.009,0,0,0,1.555.673,2.2,2.2,0,0,0,1.135-.273,2.851,2.851,0,0,0,.813-.725l.772.6A3.106,3.106,0,0,1,20.948,15.137Zm-.157-6.631a1.687,1.687,0,0,0-1.285.557,2.708,2.708,0,0,0-.643,1.562h3.705v-.1a2.409,2.409,0,0,0-.52-1.494A1.588,1.588,0,0,0,20.791,8.506Zm7.663,2.734A4.333,4.333,0,0,1,29.261,8.5a2.745,2.745,0,0,1,4.17-.147V4.5H34.7V15H33.533l-.062-.793a2.575,2.575,0,0,1-2.112.93,2.526,2.526,0,0,1-2.1-1.053,4.382,4.382,0,0,1-.81-2.748Zm1.265.144a3.281,3.281,0,0,0,.52,1.969,1.68,1.68,0,0,0,1.436.711,1.845,1.845,0,0,0,1.757-1.08v-3.4A1.859,1.859,0,0,0,31.687,8.54a1.687,1.687,0,0,0-1.449.718A3.612,3.612,0,0,0,29.719,11.384Zm10.008,3.753a3.232,3.232,0,0,1-2.447-.988,3.666,3.666,0,0,1-.943-2.642v-.232a4.438,4.438,0,0,1,.42-1.965,3.28,3.28,0,0,1,1.176-1.354,2.956,2.956,0,0,1,1.637-.489,2.77,2.77,0,0,1,2.242.95,4.114,4.114,0,0,1,.8,2.721v.526H37.6a2.629,2.629,0,0,0,.639,1.767,2.009,2.009,0,0,0,1.555.673,2.2,2.2,0,0,0,1.135-.273,2.851,2.851,0,0,0,.813-.725l.772.6A3.106,3.106,0,0,1,39.726,15.137Zm-.157-6.631a1.687,1.687,0,0,0-1.285.557,2.708,2.708,0,0,0-.643,1.562h3.705v-.1a2.409,2.409,0,0,0-.52-1.494A1.588,1.588,0,0,0,39.569,8.506Zm8.812,4.532a.931.931,0,0,0-.386-.8,3.718,3.718,0,0,0-1.347-.489,6.367,6.367,0,0,1-1.524-.492,2.169,2.169,0,0,1-.834-.684,1.635,1.635,0,0,1-.27-.943A1.919,1.919,0,0,1,44.788,8.1a3,3,0,0,1,1.965-.629,3.091,3.091,0,0,1,2.041.649,2.063,2.063,0,0,1,.783,1.661H48.305a1.142,1.142,0,0,0-.441-.9,1.652,1.652,0,0,0-1.111-.376,1.729,1.729,0,0,0-1.08.3.947.947,0,0,0-.39.786.767.767,0,0,0,.362.69,4.458,4.458,0,0,0,1.309.444,6.821,6.821,0,0,1,1.535.506,2.239,2.239,0,0,1,.872.708,1.74,1.74,0,0,1,.284,1.008,1.893,1.893,0,0,1-.793,1.589,3.326,3.326,0,0,1-2.058.6,3.725,3.725,0,0,1-1.572-.314,2.557,2.557,0,0,1-1.07-.878,2.117,2.117,0,0,1-.386-1.22h1.265a1.309,1.309,0,0,0,.509,1.008,1.976,1.976,0,0,0,1.254.373,2.039,2.039,0,0,0,1.152-.291A.893.893,0,0,0,48.381,13.038ZM55.859,15a2.657,2.657,0,0,1-.178-.779,2.822,2.822,0,0,1-2.105.916,2.611,2.611,0,0,1-1.794-.619,2,2,0,0,1-.7-1.569,2.091,2.091,0,0,1,.878-1.794,4.142,4.142,0,0,1,2.471-.639h1.23V9.935a1.42,1.42,0,0,0-.4-1.056A1.593,1.593,0,0,0,54.1,8.485a1.844,1.844,0,0,0-1.135.342,1.007,1.007,0,0,0-.458.827H51.231a1.745,1.745,0,0,1,.393-1.07,2.683,2.683,0,0,1,1.066-.817,3.588,3.588,0,0,1,1.48-.3,2.924,2.924,0,0,1,2,.639,2.306,2.306,0,0,1,.752,1.76v3.4a4.162,4.162,0,0,0,.26,1.62V15Zm-2.1-.964a2.223,2.223,0,0,0,1.128-.308,1.861,1.861,0,0,0,.772-.8V11.411H54.67q-2.324,0-2.324,1.36a1.151,1.151,0,0,0,.4.93A1.524,1.524,0,0,0,53.761,14.036Zm8.723-5.3a3.79,3.79,0,0,0-.622-.048,1.667,1.667,0,0,0-1.688,1.06V15H58.908V7.6h1.23l.021.854a1.969,1.969,0,0,1,1.764-.991,1.292,1.292,0,0,1,.561.1Zm4.737,0A3.79,3.79,0,0,0,66.6,8.69,1.667,1.667,0,0,0,64.91,9.75V15H63.645V7.6h1.23l.021.854a1.969,1.969,0,0,1,1.764-.991,1.292,1.292,0,0,1,.561.1Zm.69,2.5a4.369,4.369,0,0,1,.427-1.955,3.187,3.187,0,0,1,1.189-1.34,3.238,3.238,0,0,1,1.74-.472,3.119,3.119,0,0,1,2.444,1.046,4.024,4.024,0,0,1,.933,2.782v.089a4.407,4.407,0,0,1-.414,1.938,3.14,3.14,0,0,1-1.183,1.336,3.275,3.275,0,0,1-1.767.479,3.111,3.111,0,0,1-2.437-1.046,4,4,0,0,1-.933-2.769Zm1.271.15a3.164,3.164,0,0,0,.571,1.976,1.934,1.934,0,0,0,3.059-.01,3.46,3.46,0,0,0,.567-2.116A3.159,3.159,0,0,0,72.8,9.261a1.836,1.836,0,0,0-1.535-.755,1.816,1.816,0,0,0-1.511.745A3.435,3.435,0,0,0,69.182,11.384ZM77.6,15H76.34V4.5H77.6ZM81,15H79.737V4.5H81Zm6.59,0a2.657,2.657,0,0,1-.178-.779,2.822,2.822,0,0,1-2.105.916,2.611,2.611,0,0,1-1.794-.619,2,2,0,0,1-.7-1.569,2.091,2.091,0,0,1,.878-1.794,4.141,4.141,0,0,1,2.471-.639h1.23V9.935A1.42,1.42,0,0,0,87,8.878a1.593,1.593,0,0,0-1.169-.393,1.844,1.844,0,0,0-1.135.342,1.007,1.007,0,0,0-.458.827H82.964a1.745,1.745,0,0,1,.393-1.07,2.683,2.683,0,0,1,1.066-.817,3.588,3.588,0,0,1,1.48-.3,2.924,2.924,0,0,1,2,.639,2.306,2.306,0,0,1,.752,1.76v3.4a4.162,4.162,0,0,0,.26,1.62V15Zm-2.1-.964a2.223,2.223,0,0,0,1.128-.308,1.861,1.861,0,0,0,.772-.8V11.411H86.4q-2.324,0-2.324,1.36a1.151,1.151,0,0,0,.4.93A1.524,1.524,0,0,0,85.493,14.036Zm11.683,1.1a3.232,3.232,0,0,1-2.447-.988,3.666,3.666,0,0,1-.943-2.642v-.232a4.438,4.438,0,0,1,.42-1.965,3.28,3.28,0,0,1,1.176-1.354,2.956,2.956,0,0,1,1.637-.489,2.77,2.77,0,0,1,2.242.95,4.114,4.114,0,0,1,.8,2.721v.526H95.05a2.629,2.629,0,0,0,.639,1.767,2.009,2.009,0,0,0,1.555.673,2.2,2.2,0,0,0,1.135-.273,2.851,2.851,0,0,0,.813-.725l.772.6A3.106,3.106,0,0,1,97.176,15.137Zm-.157-6.631a1.687,1.687,0,0,0-1.285.557,2.708,2.708,0,0,0-.643,1.562H98.8v-.1a2.409,2.409,0,0,0-.52-1.494A1.588,1.588,0,0,0,97.018,8.506Zm5.7-.9.041.93a2.7,2.7,0,0,1,2.215-1.066q2.345,0,2.365,2.646V15h-1.265V10.105a1.7,1.7,0,0,0-.366-1.183,1.466,1.466,0,0,0-1.118-.383,1.825,1.825,0,0,0-1.08.328,2.228,2.228,0,0,0-.725.861V15h-1.265V7.6ZM114.088,15h-1.265V4.5h1.265Zm6.59,0a2.657,2.657,0,0,1-.178-.779,2.822,2.822,0,0,1-2.105.916,2.611,2.611,0,0,1-1.794-.619,2,2,0,0,1-.7-1.569,2.091,2.091,0,0,1,.878-1.794,4.141,4.141,0,0,1,2.471-.639h1.23V9.935a1.42,1.42,0,0,0-.4-1.056,1.593,1.593,0,0,0-1.169-.393,1.844,1.844,0,0,0-1.135.342,1.007,1.007,0,0,0-.458.827H116.05a1.745,1.745,0,0,1,.393-1.07,2.683,2.683,0,0,1,1.066-.817,3.588,3.588,0,0,1,1.48-.3,2.924,2.924,0,0,1,2,.639,2.306,2.306,0,0,1,.752,1.76v3.4a4.162,4.162,0,0,0,.26,1.62V15Zm-2.1-.964a2.223,2.223,0,0,0,1.128-.308,1.861,1.861,0,0,0,.772-.8V11.411h-.991q-2.324,0-2.324,1.36a1.151,1.151,0,0,0,.4.93A1.524,1.524,0,0,0,118.579,14.036Zm8.306-2.8a4.333,4.333,0,0,1,.807-2.738,2.745,2.745,0,0,1,4.17-.147V4.5h1.265V15h-1.162l-.062-.793a2.575,2.575,0,0,1-2.112.93,2.526,2.526,0,0,1-2.1-1.053,4.382,4.382,0,0,1-.81-2.748Zm1.265.144a3.281,3.281,0,0,0,.52,1.969,1.68,1.68,0,0,0,1.436.711,1.845,1.845,0,0,0,1.757-1.08v-3.4a1.859,1.859,0,0,0-1.743-1.046,1.687,1.687,0,0,0-1.449.718A3.612,3.612,0,0,0,128.149,11.384ZM136.462,15H135.2V7.6h1.265Zm-1.367-9.358a.755.755,0,0,1,.188-.52.706.706,0,0,1,.557-.212.717.717,0,0,1,.561.212.747.747,0,0,1,.191.52.722.722,0,0,1-.191.513.73.73,0,0,1-.561.205.718.718,0,0,1-.557-.205A.73.73,0,0,1,135.095,5.642Zm6.966,3.1a3.79,3.79,0,0,0-.622-.048,1.667,1.667,0,0,0-1.688,1.06V15h-1.265V7.6h1.23l.021.854a1.969,1.969,0,0,1,1.764-.991,1.292,1.292,0,0,1,.561.1Zm4.231,6.4a3.232,3.232,0,0,1-2.447-.988,3.666,3.666,0,0,1-.943-2.642v-.232a4.438,4.438,0,0,1,.42-1.965A3.279,3.279,0,0,1,144.5,7.956a2.956,2.956,0,0,1,1.637-.489,2.77,2.77,0,0,1,2.242.95,4.114,4.114,0,0,1,.8,2.721v.526h-5.011a2.629,2.629,0,0,0,.639,1.767,2.009,2.009,0,0,0,1.555.673,2.2,2.2,0,0,0,1.135-.273,2.851,2.851,0,0,0,.813-.725l.772.6A3.106,3.106,0,0,1,146.292,15.137Zm-.157-6.631a1.687,1.687,0,0,0-1.285.557,2.708,2.708,0,0,0-.643,1.562h3.705v-.1a2.409,2.409,0,0,0-.52-1.494A1.588,1.588,0,0,0,146.135,8.506Zm7.472,5.6a1.822,1.822,0,0,0,1.183-.41,1.443,1.443,0,0,0,.561-1.025h1.2a2.293,2.293,0,0,1-.437,1.21,2.881,2.881,0,0,1-1.077.916,3.107,3.107,0,0,1-1.425.342,3.047,3.047,0,0,1-2.4-1.008,4.016,4.016,0,0,1-.892-2.758v-.212a4.453,4.453,0,0,1,.4-1.921,3.02,3.02,0,0,1,1.138-1.306,3.233,3.233,0,0,1,1.753-.465,2.966,2.966,0,0,1,2.068.745,2.663,2.663,0,0,1,.878,1.935h-1.2a1.743,1.743,0,0,0-.543-1.179,1.691,1.691,0,0,0-1.207-.461,1.77,1.77,0,0,0-1.494.694,3.259,3.259,0,0,0-.53,2.006v.239a3.194,3.194,0,0,0,.526,1.969A1.779,1.779,0,0,0,153.606,14.1Zm7.328,0a1.822,1.822,0,0,0,1.183-.41,1.443,1.443,0,0,0,.561-1.025h1.2a2.293,2.293,0,0,1-.437,1.21,2.881,2.881,0,0,1-1.077.916,3.107,3.107,0,0,1-1.425.342,3.047,3.047,0,0,1-2.4-1.008,4.016,4.016,0,0,1-.892-2.758v-.212a4.453,4.453,0,0,1,.4-1.921,3.02,3.02,0,0,1,1.138-1.306,3.233,3.233,0,0,1,1.753-.465A2.966,2.966,0,0,1,163,8.212a2.663,2.663,0,0,1,.878,1.935h-1.2a1.743,1.743,0,0,0-.543-1.179,1.691,1.691,0,0,0-1.207-.461,1.77,1.77,0,0,0-1.494.694,3.259,3.259,0,0,0-.53,2.006v.239a3.194,3.194,0,0,0,.526,1.969A1.779,1.779,0,0,0,160.934,14.1Zm5.735.9h-1.265V7.6h1.265ZM165.3,5.642a.755.755,0,0,1,.188-.52.706.706,0,0,1,.557-.212.717.717,0,0,1,.561.212.747.747,0,0,1,.191.52.722.722,0,0,1-.191.513.73.73,0,0,1-.561.205.718.718,0,0,1-.557-.205A.73.73,0,0,1,165.3,5.642Zm3.056,5.592a4.369,4.369,0,0,1,.427-1.955,3.187,3.187,0,0,1,1.189-1.34,3.238,3.238,0,0,1,1.74-.472,3.119,3.119,0,0,1,2.444,1.046,4.024,4.024,0,0,1,.933,2.782v.089a4.407,4.407,0,0,1-.414,1.938,3.14,3.14,0,0,1-1.183,1.336,3.275,3.275,0,0,1-1.767.479,3.111,3.111,0,0,1-2.437-1.046,4,4,0,0,1-.933-2.769Zm1.271.15a3.164,3.164,0,0,0,.571,1.976,1.934,1.934,0,0,0,3.059-.01,3.46,3.46,0,0,0,.567-2.116,3.159,3.159,0,0,0-.578-1.972,1.836,1.836,0,0,0-1.535-.755,1.816,1.816,0,0,0-1.511.745A3.435,3.435,0,0,0,169.63,11.384ZM172.289,4.5h1.531l-1.832,2.01-1.019,0Zm5.585,3.1.041.93a2.7,2.7,0,0,1,2.215-1.066q2.345,0,2.365,2.646V15H181.23V10.105a1.7,1.7,0,0,0-.366-1.183,1.466,1.466,0,0,0-1.118-.383,1.825,1.825,0,0,0-1.08.328,2.228,2.228,0,0,0-.725.861V15h-1.265V7.6Zm6.487,9.379-.718-.492a3.3,3.3,0,0,0,.67-1.846V13.5h1.237v.991a3.114,3.114,0,0,1-.338,1.381A3.233,3.233,0,0,1,184.361,16.982ZM27.531,39H26.266V31.6h1.265Zm-1.367-9.358a.755.755,0,0,1,.188-.52.706.706,0,0,1,.557-.212.717.717,0,0,1,.561.212.747.747,0,0,1,.191.52.722.722,0,0,1-.191.513.73.73,0,0,1-.561.205.718.718,0,0,1-.557-.205A.73.73,0,0,1,26.164,29.642ZM30.751,31.6l.041.93a2.7,2.7,0,0,1,2.215-1.066q2.345,0,2.365,2.646V39H34.107V34.105a1.7,1.7,0,0,0-.366-1.183,1.466,1.466,0,0,0-1.118-.383,1.825,1.825,0,0,0-1.08.328,2.228,2.228,0,0,0-.725.861V39H29.554V31.6Zm9.5,6.5a1.822,1.822,0,0,0,1.183-.41,1.443,1.443,0,0,0,.561-1.025h1.2a2.293,2.293,0,0,1-.437,1.21,2.881,2.881,0,0,1-1.077.916,3.107,3.107,0,0,1-1.425.342,3.047,3.047,0,0,1-2.4-1.008,4.016,4.016,0,0,1-.892-2.758v-.212a4.453,4.453,0,0,1,.4-1.921,3.02,3.02,0,0,1,1.138-1.306,3.233,3.233,0,0,1,1.753-.465,2.966,2.966,0,0,1,2.068.745,2.663,2.663,0,0,1,.878,1.935h-1.2a1.743,1.743,0,0,0-.543-1.179,1.691,1.691,0,0,0-1.207-.461,1.77,1.77,0,0,0-1.494.694,3.259,3.259,0,0,0-.53,2.006v.239a3.194,3.194,0,0,0,.526,1.969A1.779,1.779,0,0,0,40.246,38.1Zm5.735.9H44.717V28.5h1.265Zm6.59-.731a2.686,2.686,0,0,1-2.167.868,2.3,2.3,0,0,1-1.8-.687,2.974,2.974,0,0,1-.625-2.034V31.6h1.265v4.778q0,1.682,1.367,1.682a1.893,1.893,0,0,0,1.928-1.08V31.6H53.8V39H52.6Zm5.571-1.121L59.865,31.6h1.354l-2.974,8.538q-.69,1.846-2.194,1.846l-.239-.021-.472-.089V40.853l.342.027a1.683,1.683,0,0,0,1-.26,1.88,1.88,0,0,0,.591-.95l.28-.752L54.916,31.6H56.3Zm7.273,1.989a3.232,3.232,0,0,1-2.447-.988,3.666,3.666,0,0,1-.943-2.642v-.232a4.438,4.438,0,0,1,.42-1.965,3.28,3.28,0,0,1,1.176-1.354,2.956,2.956,0,0,1,1.637-.489,2.77,2.77,0,0,1,2.242.95,4.114,4.114,0,0,1,.8,2.721v.526H63.29a2.629,2.629,0,0,0,.639,1.767,2.009,2.009,0,0,0,1.555.673,2.2,2.2,0,0,0,1.135-.273,2.851,2.851,0,0,0,.813-.725l.772.6A3.106,3.106,0,0,1,65.416,39.137Zm-.157-6.631a1.687,1.687,0,0,0-1.285.557,2.708,2.708,0,0,0-.643,1.562h3.705v-.1a2.409,2.409,0,0,0-.52-1.494A1.588,1.588,0,0,0,65.259,32.506ZM74.6,39H73.339V28.5H74.6Zm6.59,0a2.657,2.657,0,0,1-.178-.779,2.822,2.822,0,0,1-2.105.916,2.611,2.611,0,0,1-1.794-.619,2,2,0,0,1-.7-1.569,2.091,2.091,0,0,1,.878-1.794,4.142,4.142,0,0,1,2.471-.639h1.23v-.581a1.42,1.42,0,0,0-.4-1.056,1.593,1.593,0,0,0-1.169-.393,1.844,1.844,0,0,0-1.135.342,1.007,1.007,0,0,0-.458.827H76.565a1.745,1.745,0,0,1,.393-1.07,2.683,2.683,0,0,1,1.066-.817,3.588,3.588,0,0,1,1.48-.3,2.924,2.924,0,0,1,2,.639,2.306,2.306,0,0,1,.752,1.76v3.4a4.162,4.162,0,0,0,.26,1.62V39Zm-2.1-.964a2.223,2.223,0,0,0,1.128-.308,1.861,1.861,0,0,0,.772-.8V35.411H80q-2.324,0-2.324,1.36a1.151,1.151,0,0,0,.4.93A1.524,1.524,0,0,0,79.095,38.036Zm12.188-5.3a3.79,3.79,0,0,0-.622-.048,1.667,1.667,0,0,0-1.688,1.06V39H87.708V31.6h1.23l.021.854a1.969,1.969,0,0,1,1.764-.991,1.292,1.292,0,0,1,.561.1Zm4.231,6.4a3.232,3.232,0,0,1-2.447-.988,3.666,3.666,0,0,1-.943-2.642v-.232a4.438,4.438,0,0,1,.42-1.965,3.28,3.28,0,0,1,1.176-1.354,2.956,2.956,0,0,1,1.637-.489,2.77,2.77,0,0,1,2.242.95,4.114,4.114,0,0,1,.8,2.721v.526H93.388a2.629,2.629,0,0,0,.639,1.767,2.009,2.009,0,0,0,1.555.673,2.2,2.2,0,0,0,1.135-.273,2.851,2.851,0,0,0,.813-.725l.772.6A3.106,3.106,0,0,1,95.514,39.137Zm-.157-6.631a1.687,1.687,0,0,0-1.285.557,2.708,2.708,0,0,0-.643,1.562h3.705v-.1a2.409,2.409,0,0,0-.52-1.494A1.588,1.588,0,0,0,95.357,32.506ZM101.236,39H99.971V28.5h1.265Zm6.59,0a2.657,2.657,0,0,1-.178-.779,2.822,2.822,0,0,1-2.105.916,2.611,2.611,0,0,1-1.794-.619,2,2,0,0,1-.7-1.569,2.091,2.091,0,0,1,.878-1.794,4.142,4.142,0,0,1,2.471-.639h1.23v-.581a1.42,1.42,0,0,0-.4-1.056,1.593,1.593,0,0,0-1.169-.393,1.844,1.844,0,0,0-1.135.342,1.007,1.007,0,0,0-.458.827H103.2a1.745,1.745,0,0,1,.393-1.07,2.683,2.683,0,0,1,1.066-.817,3.588,3.588,0,0,1,1.48-.3,2.924,2.924,0,0,1,2,.639,2.306,2.306,0,0,1,.752,1.76v3.4a4.162,4.162,0,0,0,.26,1.62V39Zm-2.1-.964a2.223,2.223,0,0,0,1.128-.308,1.861,1.861,0,0,0,.772-.8V35.411h-.991q-2.324,0-2.324,1.36a1.151,1.151,0,0,0,.4.93A1.524,1.524,0,0,0,105.727,38.036Zm8.114.068a1.822,1.822,0,0,0,1.183-.41,1.443,1.443,0,0,0,.561-1.025h1.2a2.293,2.293,0,0,1-.437,1.21,2.881,2.881,0,0,1-1.077.916,3.107,3.107,0,0,1-1.425.342,3.047,3.047,0,0,1-2.4-1.008,4.016,4.016,0,0,1-.892-2.758v-.212a4.453,4.453,0,0,1,.4-1.921,3.02,3.02,0,0,1,1.138-1.306,3.233,3.233,0,0,1,1.753-.465,2.966,2.966,0,0,1,2.068.745,2.663,2.663,0,0,1,.878,1.935h-1.2a1.743,1.743,0,0,0-.543-1.179,1.691,1.691,0,0,0-1.207-.461,1.77,1.77,0,0,0-1.494.694,3.259,3.259,0,0,0-.53,2.006v.239a3.194,3.194,0,0,0,.526,1.969A1.779,1.779,0,0,0,113.842,38.1Zm5.735.9h-1.265V31.6h1.265Zm-1.367-9.358a.755.755,0,0,1,.188-.52.706.706,0,0,1,.557-.212.717.717,0,0,1,.561.212.747.747,0,0,1,.191.52.722.722,0,0,1-.191.513.73.73,0,0,1-.561.205.718.718,0,0,1-.557-.205A.73.73,0,0,1,118.21,29.642Zm3.056,5.592a4.369,4.369,0,0,1,.427-1.955,3.187,3.187,0,0,1,1.189-1.34,3.238,3.238,0,0,1,1.74-.472,3.119,3.119,0,0,1,2.444,1.046A4.024,4.024,0,0,1,128,35.295v.089a4.407,4.407,0,0,1-.414,1.938,3.14,3.14,0,0,1-1.183,1.336,3.275,3.275,0,0,1-1.767.479,3.111,3.111,0,0,1-2.437-1.046,4,4,0,0,1-.933-2.769Zm1.271.15a3.164,3.164,0,0,0,.571,1.976,1.934,1.934,0,0,0,3.059-.01,3.46,3.46,0,0,0,.567-2.116,3.159,3.159,0,0,0-.578-1.972,1.836,1.836,0,0,0-1.535-.755,1.816,1.816,0,0,0-1.511.745A3.435,3.435,0,0,0,122.537,35.384ZM125.2,28.5h1.531L124.9,30.51l-1.019,0Zm5.585,3.1.041.93a2.7,2.7,0,0,1,2.215-1.066q2.345,0,2.365,2.646V39h-1.265V34.105a1.7,1.7,0,0,0-.366-1.183,1.466,1.466,0,0,0-1.118-.383,1.825,1.825,0,0,0-1.08.328,2.228,2.228,0,0,0-.725.861V39h-1.265V31.6Zm9.687,3.637a4.333,4.333,0,0,1,.807-2.738,2.745,2.745,0,0,1,4.17-.147V28.5h1.265V39h-1.162l-.062-.793a2.575,2.575,0,0,1-2.112.93,2.526,2.526,0,0,1-2.1-1.053,4.382,4.382,0,0,1-.81-2.748Zm1.265.144a3.281,3.281,0,0,0,.52,1.969,1.68,1.68,0,0,0,1.436.711,1.845,1.845,0,0,0,1.757-1.08v-3.4A1.859,1.859,0,0,0,143.7,32.54a1.687,1.687,0,0,0-1.449.718A3.612,3.612,0,0,0,141.732,35.384Zm10.008,3.753a3.232,3.232,0,0,1-2.447-.988,3.666,3.666,0,0,1-.943-2.642v-.232a4.438,4.438,0,0,1,.42-1.965,3.279,3.279,0,0,1,1.176-1.354,2.956,2.956,0,0,1,1.637-.489,2.77,2.77,0,0,1,2.242.95,4.114,4.114,0,0,1,.8,2.721v.526h-5.011a2.629,2.629,0,0,0,.639,1.767,2.009,2.009,0,0,0,1.555.673,2.2,2.2,0,0,0,1.135-.273,2.851,2.851,0,0,0,.813-.725l.772.6A3.106,3.106,0,0,1,151.74,39.137Zm-.157-6.631a1.687,1.687,0,0,0-1.285.557,2.708,2.708,0,0,0-.643,1.562h3.705v-.1a2.409,2.409,0,0,0-.52-1.494A1.588,1.588,0,0,0,151.583,32.506ZM160.928,39h-1.265V28.5h1.265Zm6.59,0a2.657,2.657,0,0,1-.178-.779,2.822,2.822,0,0,1-2.105.916,2.611,2.611,0,0,1-1.794-.619,2,2,0,0,1-.7-1.569,2.091,2.091,0,0,1,.878-1.794,4.142,4.142,0,0,1,2.471-.639h1.23v-.581a1.42,1.42,0,0,0-.4-1.056,1.593,1.593,0,0,0-1.169-.393,1.844,1.844,0,0,0-1.135.342,1.007,1.007,0,0,0-.458.827h-1.271a1.745,1.745,0,0,1,.393-1.07,2.683,2.683,0,0,1,1.066-.817,3.588,3.588,0,0,1,1.48-.3,2.924,2.924,0,0,1,2,.639,2.306,2.306,0,0,1,.752,1.76v3.4a4.162,4.162,0,0,0,.26,1.62V39Zm-2.1-.964a2.223,2.223,0,0,0,1.128-.308,1.861,1.861,0,0,0,.772-.8V35.411h-.991q-2.324,0-2.324,1.36a1.151,1.151,0,0,0,.4.93A1.524,1.524,0,0,0,165.419,38.036ZM16.6,63.137a3.232,3.232,0,0,1-2.447-.988,3.666,3.666,0,0,1-.943-2.642v-.232a4.438,4.438,0,0,1,.42-1.965,3.28,3.28,0,0,1,1.176-1.354,2.956,2.956,0,0,1,1.637-.489,2.77,2.77,0,0,1,2.242.95,4.114,4.114,0,0,1,.8,2.721v.526H14.474a2.629,2.629,0,0,0,.639,1.767,2.009,2.009,0,0,0,1.555.673,2.2,2.2,0,0,0,1.135-.273,2.851,2.851,0,0,0,.813-.725l.772.6A3.106,3.106,0,0,1,16.6,63.137Zm-.157-6.631a1.687,1.687,0,0,0-1.285.557,2.708,2.708,0,0,0-.643,1.562h3.705v-.1a2.409,2.409,0,0,0-.52-1.494A1.588,1.588,0,0,0,16.443,56.506Zm5.694-.9.034.82a2.732,2.732,0,0,1,2.194-.957,2.115,2.115,0,0,1,2.112,1.189,2.8,2.8,0,0,1,.96-.861,2.837,2.837,0,0,1,1.4-.328q2.434,0,2.475,2.577V63H30.047V58.119a1.7,1.7,0,0,0-.362-1.186,1.6,1.6,0,0,0-1.217-.393,1.677,1.677,0,0,0-1.169.42,1.706,1.706,0,0,0-.54,1.131V63H25.487V58.153a1.411,1.411,0,0,0-1.579-1.613,1.692,1.692,0,0,0-1.7,1.06V63H20.941V55.6Zm17.329,3.78a4.429,4.429,0,0,1-.772,2.721A2.476,2.476,0,0,1,36.6,63.137a2.713,2.713,0,0,1-2.119-.854v3.562H33.219V55.6h1.155l.062.82a2.605,2.605,0,0,1,2.146-.957,2.522,2.522,0,0,1,2.109,1,4.477,4.477,0,0,1,.776,2.8ZM38.2,59.24a3.268,3.268,0,0,0-.533-1.976,1.718,1.718,0,0,0-1.463-.725,1.859,1.859,0,0,0-1.723,1.019v3.534A1.863,1.863,0,0,0,36.22,62.1a1.71,1.71,0,0,0,1.446-.721A3.567,3.567,0,0,0,38.2,59.24Zm6.446-2.5a3.79,3.79,0,0,0-.622-.048,1.667,1.667,0,0,0-1.688,1.06V63H41.073V55.6H42.3l.021.854a1.969,1.969,0,0,1,1.764-.991,1.292,1.292,0,0,1,.561.1Zm4.231,6.4a3.232,3.232,0,0,1-2.447-.988,3.666,3.666,0,0,1-.943-2.642v-.232a4.438,4.438,0,0,1,.42-1.965,3.28,3.28,0,0,1,1.176-1.354,2.956,2.956,0,0,1,1.637-.489,2.77,2.77,0,0,1,2.242.95,4.114,4.114,0,0,1,.8,2.721v.526H46.754a2.629,2.629,0,0,0,.639,1.767,2.009,2.009,0,0,0,1.555.673,2.2,2.2,0,0,0,1.135-.273,2.851,2.851,0,0,0,.813-.725l.772.6A3.106,3.106,0,0,1,48.88,63.137Zm-.157-6.631a1.687,1.687,0,0,0-1.285.557,2.708,2.708,0,0,0-.643,1.562H50.5v-.1a2.409,2.409,0,0,0-.52-1.494A1.588,1.588,0,0,0,48.722,56.506Zm8.812,4.532a.931.931,0,0,0-.386-.8,3.718,3.718,0,0,0-1.347-.489,6.367,6.367,0,0,1-1.524-.492,2.169,2.169,0,0,1-.834-.684,1.635,1.635,0,0,1-.27-.943,1.919,1.919,0,0,1,.769-1.538,3,3,0,0,1,1.965-.629,3.091,3.091,0,0,1,2.041.649,2.063,2.063,0,0,1,.783,1.661H57.459a1.142,1.142,0,0,0-.441-.9,1.652,1.652,0,0,0-1.111-.376,1.729,1.729,0,0,0-1.08.3.947.947,0,0,0-.39.786.767.767,0,0,0,.362.69,4.458,4.458,0,0,0,1.309.444,6.821,6.821,0,0,1,1.535.506,2.239,2.239,0,0,1,.872.708,1.74,1.74,0,0,1,.284,1.008,1.893,1.893,0,0,1-.793,1.589,3.326,3.326,0,0,1-2.058.6,3.725,3.725,0,0,1-1.572-.314,2.557,2.557,0,0,1-1.07-.878,2.117,2.117,0,0,1-.386-1.22h1.265a1.309,1.309,0,0,0,.509,1.008,1.976,1.976,0,0,0,1.254.373,2.039,2.039,0,0,0,1.152-.291A.893.893,0,0,0,57.534,61.038ZM65.012,63a2.657,2.657,0,0,1-.178-.779,2.822,2.822,0,0,1-2.105.916,2.611,2.611,0,0,1-1.794-.619,2,2,0,0,1-.7-1.569,2.091,2.091,0,0,1,.878-1.794,4.142,4.142,0,0,1,2.471-.639h1.23v-.581a1.42,1.42,0,0,0-.4-1.056,1.593,1.593,0,0,0-1.169-.393,1.844,1.844,0,0,0-1.135.342,1.007,1.007,0,0,0-.458.827H60.385a1.745,1.745,0,0,1,.393-1.07,2.683,2.683,0,0,1,1.066-.817,3.588,3.588,0,0,1,1.48-.3,2.924,2.924,0,0,1,2,.639,2.306,2.306,0,0,1,.752,1.76v3.4a4.162,4.162,0,0,0,.26,1.62V63Zm-2.1-.964a2.223,2.223,0,0,0,1.128-.308,1.861,1.861,0,0,0,.772-.8V59.411h-.991q-2.324,0-2.324,1.36a1.151,1.151,0,0,0,.4.93A1.524,1.524,0,0,0,62.914,62.036Zm11.58.068a1.822,1.822,0,0,0,1.183-.41,1.443,1.443,0,0,0,.561-1.025h1.2A2.293,2.293,0,0,1,77,61.879a2.881,2.881,0,0,1-1.077.916,3.107,3.107,0,0,1-1.425.342,3.047,3.047,0,0,1-2.4-1.008A4.016,4.016,0,0,1,71.2,59.37v-.212a4.453,4.453,0,0,1,.4-1.921,3.02,3.02,0,0,1,1.138-1.306,3.233,3.233,0,0,1,1.753-.465,2.966,2.966,0,0,1,2.068.745,2.663,2.663,0,0,1,.878,1.935h-1.2a1.743,1.743,0,0,0-.543-1.179,1.691,1.691,0,0,0-1.207-.461,1.77,1.77,0,0,0-1.494.694,3.259,3.259,0,0,0-.53,2.006v.239a3.194,3.194,0,0,0,.526,1.969A1.779,1.779,0,0,0,74.494,62.1Zm4.026-2.871a4.369,4.369,0,0,1,.427-1.955,3.187,3.187,0,0,1,1.189-1.34,3.238,3.238,0,0,1,1.74-.472,3.119,3.119,0,0,1,2.444,1.046,4.024,4.024,0,0,1,.933,2.782v.089a4.407,4.407,0,0,1-.414,1.938,3.14,3.14,0,0,1-1.183,1.336,3.275,3.275,0,0,1-1.767.479,3.111,3.111,0,0,1-2.437-1.046,4,4,0,0,1-.933-2.769Zm1.271.15a3.164,3.164,0,0,0,.571,1.976,1.934,1.934,0,0,0,3.059-.01,3.46,3.46,0,0,0,.567-2.116,3.159,3.159,0,0,0-.578-1.972,1.836,1.836,0,0,0-1.535-.755,1.816,1.816,0,0,0-1.511.745A3.435,3.435,0,0,0,79.792,59.384Zm8.244-3.78.041.93a2.7,2.7,0,0,1,2.215-1.066q2.345,0,2.365,2.646V63H91.392V58.105a1.7,1.7,0,0,0-.366-1.183,1.466,1.466,0,0,0-1.118-.383,1.825,1.825,0,0,0-1.08.328,2.228,2.228,0,0,0-.725.861V63H86.84V55.6ZM101.1,63.137a3.232,3.232,0,0,1-2.447-.988,3.666,3.666,0,0,1-.943-2.642v-.232a4.438,4.438,0,0,1,.42-1.965A3.28,3.28,0,0,1,99.3,55.956a2.956,2.956,0,0,1,1.637-.489,2.77,2.77,0,0,1,2.242.95,4.114,4.114,0,0,1,.8,2.721v.526H98.973a2.629,2.629,0,0,0,.639,1.767,2.009,2.009,0,0,0,1.555.673,2.2,2.2,0,0,0,1.135-.273,2.851,2.851,0,0,0,.813-.725l.772.6A3.106,3.106,0,0,1,101.1,63.137Zm-.157-6.631a1.687,1.687,0,0,0-1.285.557,2.708,2.708,0,0,0-.643,1.562h3.705v-.1a2.409,2.409,0,0,0-.52-1.494A1.588,1.588,0,0,0,100.942,56.506ZM106.821,63h-1.265V52.5h1.265Zm8.559.137a3.232,3.232,0,0,1-2.447-.988,3.666,3.666,0,0,1-.943-2.642v-.232a4.438,4.438,0,0,1,.42-1.965,3.28,3.28,0,0,1,1.176-1.354,2.956,2.956,0,0,1,1.637-.489,2.77,2.77,0,0,1,2.242.95,4.114,4.114,0,0,1,.8,2.721v.526h-5.011a2.629,2.629,0,0,0,.639,1.767,2.009,2.009,0,0,0,1.555.673,2.2,2.2,0,0,0,1.135-.273,2.851,2.851,0,0,0,.813-.725l.772.6A3.106,3.106,0,0,1,115.38,63.137Zm-.157-6.631a1.687,1.687,0,0,0-1.285.557,2.708,2.708,0,0,0-.643,1.562H117v-.1a2.409,2.409,0,0,0-.52-1.494A1.588,1.588,0,0,0,115.222,56.506Zm5.7-.9.041.93a2.7,2.7,0,0,1,2.215-1.066q2.345,0,2.365,2.646V63H124.28V58.105a1.7,1.7,0,0,0-.366-1.183,1.466,1.466,0,0,0-1.118-.383,1.825,1.825,0,0,0-1.08.328,2.228,2.228,0,0,0-.725.861V63h-1.265V55.6Zm8.244-1.791V55.6h1.381v.978h-1.381v4.593a1.027,1.027,0,0,0,.185.667.777.777,0,0,0,.629.222,3.062,3.062,0,0,0,.6-.082V63a3.688,3.688,0,0,1-.971.136,1.575,1.575,0,0,1-1.278-.513,2.2,2.2,0,0,1-.431-1.456V56.581h-1.347V55.6H127.9V53.813Zm2.386,5.421a4.369,4.369,0,0,1,.427-1.955,3.187,3.187,0,0,1,1.189-1.34,3.238,3.238,0,0,1,1.74-.472,3.119,3.119,0,0,1,2.444,1.046,4.024,4.024,0,0,1,.933,2.782v.089a4.407,4.407,0,0,1-.414,1.938,3.14,3.14,0,0,1-1.183,1.336,3.275,3.275,0,0,1-1.767.479,3.111,3.111,0,0,1-2.437-1.046,4,4,0,0,1-.933-2.769Zm1.271.15a3.164,3.164,0,0,0,.571,1.976,1.934,1.934,0,0,0,3.059-.01,3.46,3.46,0,0,0,.567-2.116,3.159,3.159,0,0,0-.578-1.972,1.836,1.836,0,0,0-1.535-.755,1.816,1.816,0,0,0-1.511.745A3.435,3.435,0,0,0,132.825,59.384Zm10.623-2.646a3.79,3.79,0,0,0-.622-.048,1.667,1.667,0,0,0-1.688,1.06V63h-1.265V55.6h1.23l.021.854a1.969,1.969,0,0,1,1.764-.991,1.292,1.292,0,0,1,.561.1Zm2.358-1.135.041.93a2.7,2.7,0,0,1,2.215-1.066q2.345,0,2.365,2.646V63h-1.265V58.105a1.7,1.7,0,0,0-.366-1.183,1.466,1.466,0,0,0-1.118-.383,1.825,1.825,0,0,0-1.08.328,2.228,2.228,0,0,0-.725.861V63H144.61V55.6ZM152,59.233a4.369,4.369,0,0,1,.427-1.955,3.187,3.187,0,0,1,1.189-1.34,3.238,3.238,0,0,1,1.74-.472,3.119,3.119,0,0,1,2.444,1.046,4.024,4.024,0,0,1,.933,2.782v.089a4.407,4.407,0,0,1-.414,1.938,3.14,3.14,0,0,1-1.183,1.336,3.275,3.275,0,0,1-1.767.479,3.111,3.111,0,0,1-2.437-1.046A4,4,0,0,1,152,59.322Zm1.271.15a3.164,3.164,0,0,0,.571,1.976,1.934,1.934,0,0,0,3.059-.01,3.46,3.46,0,0,0,.567-2.116,3.159,3.159,0,0,0-.578-1.972,1.836,1.836,0,0,0-1.535-.755,1.816,1.816,0,0,0-1.511.745A3.435,3.435,0,0,0,153.271,59.384Zm7.075,2.953a.792.792,0,0,1,.195-.547.742.742,0,0,1,.584-.219.765.765,0,0,1,.591.219.776.776,0,0,1,.2.547.734.734,0,0,1-.2.526.778.778,0,0,1-.591.212.7.7,0,0,1-.779-.738ZM170.6,58.563a6.172,6.172,0,0,1-2.458-1.193,2.279,2.279,0,0,1-.769-1.747,2.408,2.408,0,0,1,.94-1.945,3.736,3.736,0,0,1,2.444-.769,4.078,4.078,0,0,1,1.829.4A3.007,3.007,0,0,1,173.83,54.4a2.8,2.8,0,0,1,.441,1.524h-1.319a1.82,1.82,0,0,0-.574-1.423,2.335,2.335,0,0,0-1.62-.518,2.391,2.391,0,0,0-1.514.428A1.428,1.428,0,0,0,168.7,55.6a1.285,1.285,0,0,0,.516,1.031,5.062,5.062,0,0,0,1.757.77,8.151,8.151,0,0,1,1.941.77,2.946,2.946,0,0,1,1.039.981,2.5,2.5,0,0,1,.338,1.319,2.326,2.326,0,0,1-.943,1.938,4.022,4.022,0,0,1-2.522.728,4.678,4.678,0,0,1-1.914-.393,3.221,3.221,0,0,1-1.371-1.077,2.627,2.627,0,0,1-.482-1.552h1.319a1.714,1.714,0,0,0,.667,1.425,2.806,2.806,0,0,0,1.781.523,2.58,2.58,0,0,0,1.593-.424,1.377,1.377,0,0,0,.554-1.155,1.351,1.351,0,0,0-.513-1.131A5.911,5.911,0,0,0,170.6,58.563Zm8.244,4.573a3.232,3.232,0,0,1-2.447-.988,3.666,3.666,0,0,1-.943-2.642v-.232a4.438,4.438,0,0,1,.42-1.965,3.279,3.279,0,0,1,1.176-1.354,2.956,2.956,0,0,1,1.637-.489,2.77,2.77,0,0,1,2.242.95,4.114,4.114,0,0,1,.8,2.721v.526h-5.011a2.629,2.629,0,0,0,.639,1.767,2.009,2.009,0,0,0,1.555.673,2.2,2.2,0,0,0,1.135-.273,2.851,2.851,0,0,0,.813-.725l.772.6A3.106,3.106,0,0,1,178.845,63.137Zm-.157-6.631a1.687,1.687,0,0,0-1.285.557,2.708,2.708,0,0,0-.643,1.562h3.705v-.1a2.409,2.409,0,0,0-.52-1.494A1.588,1.588,0,0,0,178.687,56.506ZM33.075,79.6l.034.82a2.732,2.732,0,0,1,2.194-.957,2.115,2.115,0,0,1,2.112,1.189,2.8,2.8,0,0,1,.96-.861,2.837,2.837,0,0,1,1.4-.328q2.434,0,2.475,2.577V87H40.984V82.119a1.7,1.7,0,0,0-.362-1.186,1.6,1.6,0,0,0-1.217-.393,1.677,1.677,0,0,0-1.169.42,1.706,1.706,0,0,0-.54,1.131V87H36.425V82.153a1.411,1.411,0,0,0-1.579-1.613,1.692,1.692,0,0,0-1.7,1.06V87H31.879V79.6ZM48.722,87a2.657,2.657,0,0,1-.178-.779,2.822,2.822,0,0,1-2.105.916,2.611,2.611,0,0,1-1.794-.619,2,2,0,0,1-.7-1.569,2.091,2.091,0,0,1,.878-1.794,4.141,4.141,0,0,1,2.471-.639h1.23v-.581a1.42,1.42,0,0,0-.4-1.056,1.593,1.593,0,0,0-1.169-.393,1.844,1.844,0,0,0-1.135.342,1.007,1.007,0,0,0-.458.827H44.095a1.745,1.745,0,0,1,.393-1.07,2.683,2.683,0,0,1,1.066-.817,3.588,3.588,0,0,1,1.48-.3,2.924,2.924,0,0,1,2,.639,2.306,2.306,0,0,1,.752,1.76v3.4a4.162,4.162,0,0,0,.26,1.62V87Zm-2.1-.964a2.223,2.223,0,0,0,1.128-.308,1.861,1.861,0,0,0,.772-.8V83.411h-.991q-2.324,0-2.324,1.36a1.151,1.151,0,0,0,.4.93A1.524,1.524,0,0,0,46.624,86.036ZM52.968,79.6l.041.93a2.7,2.7,0,0,1,2.215-1.066q2.345,0,2.365,2.646V87H56.324V82.105a1.7,1.7,0,0,0-.366-1.183,1.466,1.466,0,0,0-1.118-.383,1.825,1.825,0,0,0-1.08.328,2.228,2.228,0,0,0-.725.861V87H51.771V79.6Zm9.6,7.533a3.232,3.232,0,0,1-2.447-.988,3.666,3.666,0,0,1-.943-2.642v-.232a4.438,4.438,0,0,1,.42-1.965,3.279,3.279,0,0,1,1.176-1.354,2.956,2.956,0,0,1,1.637-.489,2.77,2.77,0,0,1,2.242.95,4.114,4.114,0,0,1,.8,2.721v.526H60.439a2.629,2.629,0,0,0,.639,1.767,2.009,2.009,0,0,0,1.555.673,2.2,2.2,0,0,0,1.135-.273,2.851,2.851,0,0,0,.813-.725l.772.6A3.106,3.106,0,0,1,62.565,87.137Zm-.157-6.631a1.687,1.687,0,0,0-1.285.557,2.708,2.708,0,0,0-.643,1.562h3.705v-.1a2.409,2.409,0,0,0-.52-1.494A1.588,1.588,0,0,0,62.408,80.506Zm5.811-.9v8.251q0,2.133-1.935,2.133a2.36,2.36,0,0,1-.772-.122V88.859a2.445,2.445,0,0,0,.574.055.859.859,0,0,0,.646-.229,1.133,1.133,0,0,0,.222-.8V79.6Zm-1.395-1.962a.758.758,0,0,1,.188-.516.691.691,0,0,1,.55-.215.717.717,0,0,1,.561.212.747.747,0,0,1,.191.52.722.722,0,0,1-.191.513.73.73,0,0,1-.561.205.707.707,0,0,1-.554-.205A.738.738,0,0,1,66.824,77.642Zm8,9.358a2.657,2.657,0,0,1-.178-.779,2.822,2.822,0,0,1-2.105.916,2.611,2.611,0,0,1-1.794-.619,2,2,0,0,1-.7-1.569,2.091,2.091,0,0,1,.878-1.794,4.141,4.141,0,0,1,2.471-.639h1.23v-.581a1.42,1.42,0,0,0-.4-1.056,1.593,1.593,0,0,0-1.169-.393,1.844,1.844,0,0,0-1.135.342,1.007,1.007,0,0,0-.458.827H70.194a1.745,1.745,0,0,1,.393-1.07,2.683,2.683,0,0,1,1.066-.817,3.588,3.588,0,0,1,1.48-.3,2.924,2.924,0,0,1,2,.639,2.306,2.306,0,0,1,.752,1.76v3.4a4.162,4.162,0,0,0,.26,1.62V87Zm-2.1-.964a2.223,2.223,0,0,0,1.128-.308,1.861,1.861,0,0,0,.772-.8V83.411h-.991q-2.324,0-2.324,1.36a1.151,1.151,0,0,0,.4.93A1.524,1.524,0,0,0,72.723,86.036ZM85.9,87a2.657,2.657,0,0,1-.178-.779,2.822,2.822,0,0,1-2.105.916,2.611,2.611,0,0,1-1.794-.619,2,2,0,0,1-.7-1.569A2.091,2.091,0,0,1,82,83.155a4.141,4.141,0,0,1,2.471-.639H85.7v-.581a1.42,1.42,0,0,0-.4-1.056,1.593,1.593,0,0,0-1.169-.393A1.844,1.844,0,0,0,83,80.827a1.007,1.007,0,0,0-.458.827H81.275a1.745,1.745,0,0,1,.393-1.07,2.683,2.683,0,0,1,1.066-.817,3.588,3.588,0,0,1,1.48-.3,2.924,2.924,0,0,1,2,.639,2.306,2.306,0,0,1,.752,1.76v3.4a4.162,4.162,0,0,0,.26,1.62V87Zm-2.1-.964a2.223,2.223,0,0,0,1.128-.308,1.861,1.861,0,0,0,.772-.8V83.411h-.991q-2.324,0-2.324,1.36a1.151,1.151,0,0,0,.4.93A1.524,1.524,0,0,0,83.8,86.036ZM93.792,87H92.527V76.5h1.265Zm6.59,0a2.657,2.657,0,0,1-.178-.779,2.822,2.822,0,0,1-2.105.916,2.611,2.611,0,0,1-1.794-.619,2,2,0,0,1-.7-1.569,2.091,2.091,0,0,1,.878-1.794,4.141,4.141,0,0,1,2.471-.639h1.23v-.581a1.42,1.42,0,0,0-.4-1.056,1.593,1.593,0,0,0-1.169-.393,1.844,1.844,0,0,0-1.135.342,1.007,1.007,0,0,0-.458.827H95.754a1.745,1.745,0,0,1,.393-1.07,2.683,2.683,0,0,1,1.066-.817,3.588,3.588,0,0,1,1.48-.3,2.924,2.924,0,0,1,2,.639,2.306,2.306,0,0,1,.752,1.76v3.4a4.162,4.162,0,0,0,.26,1.62V87Zm-2.1-.964a2.223,2.223,0,0,0,1.128-.308,1.861,1.861,0,0,0,.772-.8V83.411h-.991q-2.324,0-2.324,1.36a1.151,1.151,0,0,0,.4.93A1.524,1.524,0,0,0,98.283,86.036Zm8.723-5.3a3.79,3.79,0,0,0-.622-.048,1.667,1.667,0,0,0-1.688,1.06V87H103.43V79.6h1.23l.021.854a1.969,1.969,0,0,1,1.764-.991,1.292,1.292,0,0,1,.561.1Zm.861,2.5a4.347,4.347,0,0,1,.8-2.751,2.757,2.757,0,0,1,4.231-.065l.062-.82h1.155v7.219a3.009,3.009,0,0,1-.851,2.263,3.141,3.141,0,0,1-2.287.827,3.8,3.8,0,0,1-1.565-.342,2.7,2.7,0,0,1-1.169-.937l.656-.759a2.473,2.473,0,0,0,1.989,1,1.938,1.938,0,0,0,1.439-.52,1.986,1.986,0,0,0,.516-1.463v-.636a2.6,2.6,0,0,1-2.071.875,2.527,2.527,0,0,1-2.1-1.046A4.571,4.571,0,0,1,107.867,83.24Zm1.271.144a3.316,3.316,0,0,0,.513,1.965,1.666,1.666,0,0,0,1.436.714,1.852,1.852,0,0,0,1.757-1.087V81.6a1.874,1.874,0,0,0-1.743-1.06,1.681,1.681,0,0,0-1.442.718A3.612,3.612,0,0,0,109.138,83.384Zm6.549-.15a4.369,4.369,0,0,1,.427-1.955,3.187,3.187,0,0,1,1.189-1.34,3.238,3.238,0,0,1,1.74-.472,3.119,3.119,0,0,1,2.444,1.046,4.024,4.024,0,0,1,.933,2.782v.089a4.407,4.407,0,0,1-.414,1.938,3.14,3.14,0,0,1-1.183,1.336,3.275,3.275,0,0,1-1.767.479,3.111,3.111,0,0,1-2.437-1.046,4,4,0,0,1-.933-2.769Zm1.271.15a3.164,3.164,0,0,0,.571,1.976,1.934,1.934,0,0,0,3.059-.01,3.46,3.46,0,0,0,.567-2.116,3.159,3.159,0,0,0-.578-1.972,1.836,1.836,0,0,0-1.535-.755,1.816,1.816,0,0,0-1.511.745A3.434,3.434,0,0,0,116.959,83.384Zm16.762,0a4.429,4.429,0,0,1-.772,2.721,2.476,2.476,0,0,1-2.092,1.032,2.713,2.713,0,0,1-2.119-.854v3.562h-1.265V79.6h1.155l.062.82a2.605,2.605,0,0,1,2.146-.957,2.522,2.522,0,0,1,2.109,1,4.477,4.477,0,0,1,.776,2.8Zm-1.265-.144a3.268,3.268,0,0,0-.533-1.976,1.718,1.718,0,0,0-1.463-.725,1.859,1.859,0,0,0-1.723,1.019v3.534a1.863,1.863,0,0,0,1.736,1.012,1.71,1.71,0,0,0,1.446-.721A3.567,3.567,0,0,0,132.456,83.24ZM136.7,87h-1.265V76.5H136.7Zm6.59,0a2.657,2.657,0,0,1-.178-.779,2.822,2.822,0,0,1-2.105.916,2.611,2.611,0,0,1-1.794-.619,2,2,0,0,1-.7-1.569,2.091,2.091,0,0,1,.878-1.794,4.142,4.142,0,0,1,2.471-.639h1.23v-.581a1.42,1.42,0,0,0-.4-1.056,1.593,1.593,0,0,0-1.169-.393,1.844,1.844,0,0,0-1.135.342,1.007,1.007,0,0,0-.458.827h-1.271a1.745,1.745,0,0,1,.393-1.07,2.683,2.683,0,0,1,1.066-.817,3.588,3.588,0,0,1,1.48-.3,2.924,2.924,0,0,1,2,.639,2.306,2.306,0,0,1,.752,1.76v3.4a4.162,4.162,0,0,0,.26,1.62V87Zm-2.1-.964a2.223,2.223,0,0,0,1.128-.308,1.861,1.861,0,0,0,.772-.8V83.411H142.1q-2.324,0-2.324,1.36a1.151,1.151,0,0,0,.4.93A1.524,1.524,0,0,0,141.192,86.036Zm6.337-.068h4.327V87h-5.872v-.93l4.081-5.421h-4.02V79.6h5.605v.9Zm5.3-2.734a4.369,4.369,0,0,1,.427-1.955,3.187,3.187,0,0,1,1.189-1.34,3.238,3.238,0,0,1,1.74-.472,3.119,3.119,0,0,1,2.444,1.046,4.024,4.024,0,0,1,.933,2.782v.089a4.407,4.407,0,0,1-.414,1.938,3.14,3.14,0,0,1-1.183,1.336,3.275,3.275,0,0,1-1.767.479,3.111,3.111,0,0,1-2.437-1.046,4,4,0,0,1-.933-2.769Zm1.271.15a3.164,3.164,0,0,0,.571,1.976,1.934,1.934,0,0,0,3.059-.01,3.46,3.46,0,0,0,.567-2.116,3.159,3.159,0,0,0-.578-1.972,1.836,1.836,0,0,0-1.535-.755,1.816,1.816,0,0,0-1.511.745A3.434,3.434,0,0,0,154.105,83.384Zm7.075,2.953a.792.792,0,0,1,.195-.547.742.742,0,0,1,.584-.219.765.765,0,0,1,.591.219.776.776,0,0,1,.2.547.734.734,0,0,1-.2.526.778.778,0,0,1-.591.212.7.7,0,0,1-.779-.738Z" transform="translate(20.151 141.061)" fill="#12263f"/>
  </g>
  <line id="Línea_1692" data-name="Línea 1692" x2="37.16" transform="translate(97.663 292.419)" fill="none" stroke="#d9a171" stroke-linecap="round" stroke-miterlimit="10" stroke-width="0.806"/>
  <path id="Trazado_148412" data-name="Trazado 148412" d="M-32.957-4.93h-4.5v3.047h5.281V0H-39.8V-11.375h7.609v1.9h-5.266v2.711h4.5Zm6.586,2.594a.727.727,0,0,0-.41-.652A4.659,4.659,0,0,0-28.1-3.414q-3.016-.633-3.016-2.562a2.323,2.323,0,0,1,.934-1.879,3.766,3.766,0,0,1,2.441-.754,4.053,4.053,0,0,1,2.574.758A2.388,2.388,0,0,1-24.2-5.883h-2.258a1.092,1.092,0,0,0-.312-.8A1.322,1.322,0,0,0-27.746-7a1.351,1.351,0,0,0-.883.258.814.814,0,0,0-.312.656.7.7,0,0,0,.355.605,3.657,3.657,0,0,0,1.2.4,9.8,9.8,0,0,1,1.422.379A2.336,2.336,0,0,1-24.176-2.43a2.2,2.2,0,0,1-.992,1.871A4.28,4.28,0,0,1-27.73.156a4.47,4.47,0,0,1-1.887-.379A3.166,3.166,0,0,1-30.91-1.262a2.414,2.414,0,0,1-.469-1.426h2.141a1.179,1.179,0,0,0,.445.922,1.766,1.766,0,0,0,1.109.32,1.635,1.635,0,0,0,.98-.246A.766.766,0,0,0-26.371-2.336Zm6.352-8.2v2.078h1.445V-6.8H-20.02v4.219a1.007,1.007,0,0,0,.18.672.9.9,0,0,0,.688.2,3.6,3.6,0,0,0,.664-.055V-.047a4.648,4.648,0,0,1-1.367.2,2.156,2.156,0,0,1-2.422-2.4V-6.8h-1.234V-8.453h1.234v-2.078Zm7.453,4.2a6.134,6.134,0,0,0-.812-.062,1.654,1.654,0,0,0-1.68.867V0h-2.258V-8.453h2.133l.063,1.008a2.092,2.092,0,0,1,1.883-1.164,2.366,2.366,0,0,1,.7.1ZM-6.816,0a2.507,2.507,0,0,1-.227-.758A2.732,2.732,0,0,1-9.176.156a3,3,0,0,1-2.059-.719,2.312,2.312,0,0,1-.816-1.812,2.389,2.389,0,0,1,1-2.062,4.915,4.915,0,0,1,2.879-.727h1.039v-.484a1.393,1.393,0,0,0-.3-.937,1.183,1.183,0,0,0-.949-.352,1.345,1.345,0,0,0-.895.273.929.929,0,0,0-.324.75h-2.258a2.268,2.268,0,0,1,.453-1.359,3,3,0,0,1,1.281-.98A4.669,4.669,0,0,1-8.27-8.609a3.689,3.689,0,0,1,2.48.785,2.747,2.747,0,0,1,.918,2.207v3.664a4.041,4.041,0,0,0,.336,1.82V0ZM-8.684-1.57a1.945,1.945,0,0,0,.922-.223,1.462,1.462,0,0,0,.625-.6V-3.844H-7.98q-1.7,0-1.8,1.172l-.008.133a.9.9,0,0,0,.3.7A1.153,1.153,0,0,0-8.684-1.57Zm8.25-8.961v2.078H1.012V-6.8H-.434v4.219a1.007,1.007,0,0,0,.18.672.9.9,0,0,0,.688.2A3.6,3.6,0,0,0,1.1-1.758V-.047A4.648,4.648,0,0,1-.27.156a2.156,2.156,0,0,1-2.422-2.4V-6.8H-3.926V-8.453h1.234v-2.078ZM6.16.156A4.15,4.15,0,0,1,3.133-.984,4.054,4.054,0,0,1,1.965-4.023v-.219A5.106,5.106,0,0,1,2.457-6.52,3.612,3.612,0,0,1,3.852-8.066,3.914,3.914,0,0,1,5.91-8.609a3.508,3.508,0,0,1,2.73,1.094,4.444,4.444,0,0,1,1,3.1v.922H4.254a2.1,2.1,0,0,0,.66,1.328,2,2,0,0,0,1.395.5,2.437,2.437,0,0,0,2.039-.945L9.457-1.367A3.389,3.389,0,0,1,8.082-.246,4.511,4.511,0,0,1,6.16.156ZM5.9-6.789a1.411,1.411,0,0,0-1.09.455,2.357,2.357,0,0,0-.535,1.3H7.418v-.181a1.681,1.681,0,0,0-.406-1.165A1.456,1.456,0,0,0,5.9-6.789ZM6.105-12H8.566L6.4-9.578H4.566ZM10.59-4.289a4.954,4.954,0,0,1,.926-3.133,3,3,0,0,1,2.5-1.187,2.631,2.631,0,0,1,2.164.953l.094-.8h2.047V-.281a3.613,3.613,0,0,1-.5,1.93A3.236,3.236,0,0,1,16.395,2.9a4.985,4.985,0,0,1-2.141.43,4.635,4.635,0,0,1-1.812-.371A3.217,3.217,0,0,1,11.105,2l1-1.375a2.645,2.645,0,0,0,2.047.945,1.936,1.936,0,0,0,1.4-.48,1.8,1.8,0,0,0,.5-1.363V-.727A2.612,2.612,0,0,1,14,.156a2.992,2.992,0,0,1-2.465-1.191A4.953,4.953,0,0,1,10.59-4.2Zm2.258.168a3.085,3.085,0,0,0,.461,1.8,1.466,1.466,0,0,0,1.266.653,1.568,1.568,0,0,0,1.477-.775V-6a1.564,1.564,0,0,0-1.461-.775,1.476,1.476,0,0,0-1.277.665A3.477,3.477,0,0,0,12.848-4.121ZM22.434,0H20.168V-8.453h2.266Zm-2.4-10.641a1.112,1.112,0,0,1,.34-.836A1.277,1.277,0,0,1,21.3-11.8a1.28,1.28,0,0,1,.922.328,1.105,1.105,0,0,1,.344.836,1.108,1.108,0,0,1-.348.844,1.283,1.283,0,0,1-.918.328,1.283,1.283,0,0,1-.918-.328A1.108,1.108,0,0,1,20.035-10.641Zm7.773,8.977a1.481,1.481,0,0,0,1.016-.344,1.2,1.2,0,0,0,.406-.914h2.117a2.9,2.9,0,0,1-.469,1.574A3.093,3.093,0,0,1,29.617-.238a3.949,3.949,0,0,1-1.77.395A3.67,3.67,0,0,1,24.988-1,4.56,4.56,0,0,1,23.941-4.18v-.148A4.508,4.508,0,0,1,24.98-7.445a3.627,3.627,0,0,1,2.852-1.164,3.555,3.555,0,0,1,2.543.9,3.2,3.2,0,0,1,.973,2.4H29.23a1.551,1.551,0,0,0-.406-1.072,1.354,1.354,0,0,0-1.031-.412,1.36,1.36,0,0,0-1.191.575,3.333,3.333,0,0,0-.4,1.866v.235a3.375,3.375,0,0,0,.4,1.878A1.377,1.377,0,0,0,27.809-1.664ZM32.285-4.3a5.013,5.013,0,0,1,.484-2.242A3.546,3.546,0,0,1,34.164-8.07a4.069,4.069,0,0,1,2.113-.539A3.849,3.849,0,0,1,39.07-7.562a4.2,4.2,0,0,1,1.207,2.844l.016.578A4.418,4.418,0,0,1,39.207-1.02,3.775,3.775,0,0,1,36.293.156a3.793,3.793,0,0,1-2.918-1.172A4.5,4.5,0,0,1,32.285-4.2Zm2.258.16A3.16,3.16,0,0,0,35-2.3a1.5,1.5,0,0,0,1.3.638,1.5,1.5,0,0,0,1.281-.63,3.457,3.457,0,0,0,.461-2.015,3.128,3.128,0,0,0-.461-1.831,1.5,1.5,0,0,0-1.3-.649A1.474,1.474,0,0,0,35-6.144,3.516,3.516,0,0,0,34.543-4.144Z" transform="translate(113.749 120.51)" fill="#12263f"/>
  <g id="KPPpqH.tif" transform="translate(-164.616 -1695.361)">
    <g id="Grupo_90665" data-name="Grupo 90665" transform="translate(258.44 1733.47)">
      <path id="Trazado_145280" data-name="Trazado 145280" d="M279.321,1733.47h1.256a2.185,2.185,0,0,0,.323.082,20.183,20.183,0,0,1,8.471,2.723,14.466,14.466,0,0,1,5.807,6.417,18.626,18.626,0,0,1,1.6,8.03c0,4.446-.048,8.893-.08,13.339a1.34,1.34,0,0,1-1.5,1.48c-1.095.006-2.19,0-3.285,0h-.7a15.442,15.442,0,0,0,2.547,9.7c.09.134.336.188.52.227a9.367,9.367,0,0,1,1.958.407,3.653,3.653,0,0,1,1.947,4.257,3.578,3.578,0,0,1-3.606,2.835q-13.744.014-27.487,0a3.714,3.714,0,0,1-2.251-.742,3.854,3.854,0,0,1,.353-6.254.586.586,0,0,0,.257-.436,14.564,14.564,0,0,1,2.306-8.434,24.933,24.933,0,0,1,3.207-3.979,6.5,6.5,0,0,0,1.649-4.732,4.232,4.232,0,0,0-1,.329c-2.087,1.366-4.156,2.76-6.232,4.143a1.354,1.354,0,0,1-2.051-.2q-2.154-2.151-4.3-4.307a1.375,1.375,0,0,1-.225-2.055q5.754-9.215,11.525-18.419a2.526,2.526,0,0,1,1.027-.884c1.573-.733,3.179-1.4,4.769-2.093C277.19,1734.432,278.254,1733.948,279.321,1733.47Zm-5.911,41.449h17.22c-.07-.146-.116-.246-.164-.345a16.076,16.076,0,0,1-1.755-7.3c.031-2.849.2-5.7.326-8.543a51.575,51.575,0,0,0,.049-8.493,10.959,10.959,0,0,0-7.408-9.513,21.781,21.781,0,0,0-9.111-1.255.767.767,0,0,0-.5.344q-4.39,6.993-8.759,14a.643.643,0,0,0-.085.658,1.151,1.151,0,0,1-.826,1.579c-.568.056-.757.4-.959.788a.437.437,0,0,0,.037.4c1.023,1.048,2.061,2.081,3.106,3.127.169-.108.319-.2.465-.3,1.794-1.2,3.593-2.387,5.378-3.6a2.787,2.787,0,0,1,1.524-.5,9.566,9.566,0,0,0,1.955-.264,4.521,4.521,0,0,0,3.6-3.888,10.4,10.4,0,0,0-.061-3.744,1.284,1.284,0,0,1,.971-1.539,1.236,1.236,0,0,1,1.481,1.1,22.512,22.512,0,0,1,.188,3.649,7,7,0,0,1-4.55,6.529c-.29.117-.344.273-.381.561a26.7,26.7,0,0,1-.531,3.371,9.466,9.466,0,0,1-2.631,3.984,14.178,14.178,0,0,0-3.907,7.455c-.1.575-.115,1.163-.17,1.749h2.953c.014-.12.033-.213.034-.306a14.4,14.4,0,0,1,1.83-6.683,18.718,18.718,0,0,1,3.337-4.416,1.309,1.309,0,0,1,1.594-.225,1.227,1.227,0,0,1,.481,1.523,2.664,2.664,0,0,1-.547.724,15.192,15.192,0,0,0-3.8,6.412A9.249,9.249,0,0,0,273.409,1774.919Zm4.038-37.826c.189.034.259.048.33.058a19.72,19.72,0,0,1,6.81,2.158,13.1,13.1,0,0,1,6.636,8.651,20.677,20.677,0,0,1,.515,5.846c-.114,2.8-.274,5.6-.411,8.393-.013.265,0,.531,0,.8h2.85c.01-.15.025-.275.026-.4.026-3.945.082-7.891.056-11.835a21.88,21.88,0,0,0-.371-3.932,12.079,12.079,0,0,0-6.282-8.689,20.861,20.861,0,0,0-6.1-2.013C279.972,1735.824,278.808,1736.462,277.448,1737.092Zm3.37,43.362H294.24a3.509,3.509,0,0,0,.577-.026,1.063,1.063,0,0,0,.934-1.014c.1-.947-.394-1.429-1.463-1.429q-13.447,0-26.894,0a3.427,3.427,0,0,0-.575.046.98.98,0,0,0-.845.807,1.188,1.188,0,0,0,1.276,1.613Q274.034,1780.459,280.818,1780.455Z" transform="translate(-258.44 -1733.47)" fill="#12263f"/>
      <path id="Trazado_145281" data-name="Trazado 145281" d="M374.236,1869.238c-.034,1-1.212,2.067-2.052,1.859a1.224,1.224,0,0,1-.775-1.859,6.282,6.282,0,0,1,.711-.912,1.269,1.269,0,0,1,1.382-.278A1.186,1.186,0,0,1,374.236,1869.238Z" transform="translate(-360.289 -1854.927)" fill="#12263f"/>
    </g>
  </g>
</svg>
