<svg xmlns="http://www.w3.org/2000/svg" width="570.5" height="450.5" viewBox="0 0 570.5 450.5">
  <g id="Grupo_93082" data-name="Grupo 93082" transform="translate(2511.5 -2896.5)">
    <g id="Grupo_93079" data-name="Grupo 93079" transform="translate(-2735 45)">
      <rect id="Rectángulo_31816" data-name="Rectángulo 31816" width="557" height="131" transform="translate(237 2859)" fill="#6595bf"/>
      <g id="Grupo_89142" data-name="Grupo 89142" transform="translate(224 2852)">
        <rect id="Rectángulo_31778" data-name="Rectángulo 31778" width="565.199" height="132.775" transform="translate(0 0)" fill="#fff" stroke="#12263f" stroke-miterlimit="10" stroke-width="1"/>
      </g>
      <g id="Grupo_89143" data-name="Grupo 89143" transform="translate(118 -5)">
        <path id="Trazado_148439" data-name="Trazado 148439" d="M4.5-4.824V0H1.074V-14.219H6.748a6.608,6.608,0,0,1,2.886.6,4.526,4.526,0,0,1,1.943,1.709,4.667,4.667,0,0,1,.688,2.515,4.114,4.114,0,0,1-1.489,3.325A6.179,6.179,0,0,1,6.689-4.824Zm0-2.646H6.748a2.118,2.118,0,0,0,1.519-.5,1.85,1.85,0,0,0,.522-1.406,2.287,2.287,0,0,0-.537-1.592,1.9,1.9,0,0,0-1.465-.605H4.5Zm15.83-.117-1.084-.078a1.947,1.947,0,0,0-1.992.977V0H13.965V-10.566h3.086l.107,1.357a2.548,2.548,0,0,1,2.314-1.553,3.209,3.209,0,0,1,.918.117Zm7.48,6.445A3.393,3.393,0,0,1,24.99.2,3.328,3.328,0,0,1,22.358-.815a4.251,4.251,0,0,1-.894-2.905v-6.846h3.291V-3.7a1.183,1.183,0,0,0,1.318,1.357,1.72,1.72,0,0,0,1.611-.811v-7.412H31V0H27.91ZM37.91.2a5.432,5.432,0,0,1-3.936-1.45,5.008,5.008,0,0,1-1.5-3.774V-5.3a6.489,6.489,0,0,1,.6-2.861,4.395,4.395,0,0,1,1.753-1.919,5.292,5.292,0,0,1,2.734-.679A4.574,4.574,0,0,1,41.074-9.38a5.43,5.43,0,0,1,1.289,3.853v1.279H35.82a2.372,2.372,0,0,0,.771,1.4,2.3,2.3,0,0,0,1.543.508,2.958,2.958,0,0,0,2.441-1.094l1.5,1.777A4.2,4.2,0,0,1,40.337-.308,5.891,5.891,0,0,1,37.91.2Zm-.371-8.418q-1.445,0-1.719,1.914h3.32v-.254a1.63,1.63,0,0,0-.4-1.226A1.593,1.593,0,0,0,37.539-8.223ZM53.5-5.2A6.44,6.44,0,0,1,52.422-1.2,3.6,3.6,0,0,1,49.395.2a3.122,3.122,0,0,1-2.6-1.279L46.66,0H43.711V-15H47v5.283a3.013,3.013,0,0,1,2.373-1.045,3.6,3.6,0,0,1,3.047,1.416A6.473,6.473,0,0,1,53.5-5.361Zm-3.3-.21a4.3,4.3,0,0,0-.405-2.169,1.366,1.366,0,0,0-1.245-.648A1.576,1.576,0,0,0,47-7.374v4.192a1.585,1.585,0,0,0,1.563.838,1.4,1.4,0,0,0,1.475-1.131A8.121,8.121,0,0,0,50.2-5.405ZM60.9,0a3.716,3.716,0,0,1-.312-.947A3.06,3.06,0,0,1,58.047.2a3.749,3.749,0,0,1-2.539-.9,2.875,2.875,0,0,1-1.045-2.271,2.955,2.955,0,0,1,1.27-2.6,6.468,6.468,0,0,1,3.691-.879h1.016v-.559q0-1.462-1.26-1.462a1.03,1.03,0,0,0-1.172,1.158H54.717a2.95,2.95,0,0,1,1.3-2.487,5.479,5.479,0,0,1,3.325-.956,4.8,4.8,0,0,1,3.193.986,3.429,3.429,0,0,1,1.2,2.705v4.678a4.79,4.79,0,0,0,.449,2.227V0ZM58.838-2.148a1.836,1.836,0,0,0,1.021-.264,1.653,1.653,0,0,0,.581-.6V-4.7h-.957q-1.719,0-1.719,1.543a.942.942,0,0,0,.3.728A1.1,1.1,0,0,0,58.838-2.148ZM76.494,0a3.716,3.716,0,0,1-.312-.947A3.06,3.06,0,0,1,73.643.2a3.749,3.749,0,0,1-2.539-.9,2.875,2.875,0,0,1-1.045-2.271,2.955,2.955,0,0,1,1.27-2.6,6.468,6.468,0,0,1,3.691-.879h1.016v-.559q0-1.462-1.26-1.462A1.03,1.03,0,0,0,73.6-7.319H70.313a2.95,2.95,0,0,1,1.3-2.487,5.479,5.479,0,0,1,3.325-.956,4.8,4.8,0,0,1,3.193.986,3.429,3.429,0,0,1,1.2,2.705v4.678a4.79,4.79,0,0,0,.449,2.227V0ZM74.434-2.148a1.836,1.836,0,0,0,1.021-.264,1.653,1.653,0,0,0,.581-.6V-4.7h-.957q-1.719,0-1.719,1.543a.942.942,0,0,0,.3.728A1.1,1.1,0,0,0,74.434-2.148ZM75.254-15H78.73l-2.715,3.066-2.686,0ZM85.625-2.344A1.464,1.464,0,0,0,86.7-2.72a1.379,1.379,0,0,0,.371-1.05h3.086A3.653,3.653,0,0,1,88.911-.918,4.631,4.631,0,0,1,85.7.2,4.689,4.689,0,0,1,82.07-1.25a5.7,5.7,0,0,1-1.328-4v-.137a6.436,6.436,0,0,1,.591-2.827,4.3,4.3,0,0,1,1.7-1.885,5.081,5.081,0,0,1,2.637-.659,4.573,4.573,0,0,1,3.271,1.143,4.053,4.053,0,0,1,1.211,3.1H87.07a1.806,1.806,0,0,0-.4-1.26A1.382,1.382,0,0,0,85.6-8.223q-1.279,0-1.494,1.631a11.508,11.508,0,0,0-.068,1.426,4.52,4.52,0,0,0,.381,2.207A1.319,1.319,0,0,0,85.625-2.344ZM95.02,0h-3.3V-10.566h3.3Zm-3.5-13.291a1.469,1.469,0,0,1,.508-1.152,1.916,1.916,0,0,1,1.318-.449,1.916,1.916,0,0,1,1.318.449,1.469,1.469,0,0,1,.508,1.152,1.469,1.469,0,0,1-.508,1.152,1.916,1.916,0,0,1-1.318.449,1.916,1.916,0,0,1-1.318-.449A1.469,1.469,0,0,1,91.523-13.291Zm5.107,7.93a6.455,6.455,0,0,1,1.084-3.955,3.568,3.568,0,0,1,3.027-1.445,3.035,3.035,0,0,1,2.383,1.113V-15h3.3V0h-2.959L103.3-1.133A3.116,3.116,0,0,1,100.723.2,3.562,3.562,0,0,1,97.734-1.25,6.659,6.659,0,0,1,96.631-5.361Zm3.291.205q0,2.813,1.641,2.813a1.62,1.62,0,0,0,1.563-.918V-7.285a1.576,1.576,0,0,0-1.543-.937q-1.523,0-1.65,2.461ZM114.248,0a3.716,3.716,0,0,1-.312-.947A3.06,3.06,0,0,1,111.4.2a3.749,3.749,0,0,1-2.539-.9,2.875,2.875,0,0,1-1.045-2.271,2.955,2.955,0,0,1,1.27-2.6,6.468,6.468,0,0,1,3.691-.879h1.016v-.559q0-1.462-1.26-1.462a1.03,1.03,0,0,0-1.172,1.158h-3.291a2.95,2.95,0,0,1,1.3-2.487,5.479,5.479,0,0,1,3.325-.956,4.8,4.8,0,0,1,3.193.986,3.429,3.429,0,0,1,1.2,2.705v4.678a4.79,4.79,0,0,0,.449,2.227V0Zm-2.061-2.148a1.836,1.836,0,0,0,1.021-.264,1.653,1.653,0,0,0,.581-.6V-4.7h-.957q-1.719,0-1.719,1.543a.942.942,0,0,0,.3.728A1.1,1.1,0,0,0,112.188-2.148Zm21.074-4.9h-9.043V-9.59h9.043Zm0,4.287h-9.043V-5.3h9.043Z" transform="translate(159 2937)" fill="#12263f"/>
        <text id="_" data-name="————————————" transform="translate(328 2937)" fill="#12263f" font-size="29" font-family="Roboto-Black, Roboto" font-weight="800"><tspan x="0" y="0">————————————</tspan></text>
        <path id="Trazado_148440" data-name="Trazado 148440" d="M9.15-2.656h-4.7L3.633,0H-.029L5.186-14.219H8.408L13.662,0H9.98ZM5.273-5.3H8.33L6.8-10.234Zm13.74,2.959a1.464,1.464,0,0,0,1.074-.376,1.379,1.379,0,0,0,.371-1.05h3.086A3.653,3.653,0,0,1,22.3-.918,4.631,4.631,0,0,1,19.092.2,4.689,4.689,0,0,1,15.459-1.25a5.7,5.7,0,0,1-1.328-4v-.137a6.436,6.436,0,0,1,.591-2.827,4.3,4.3,0,0,1,1.7-1.885,5.081,5.081,0,0,1,2.637-.659,4.573,4.573,0,0,1,3.271,1.143,4.053,4.053,0,0,1,1.211,3.1H20.459a1.807,1.807,0,0,0-.4-1.26,1.382,1.382,0,0,0-1.074-.439q-1.279,0-1.494,1.631a11.508,11.508,0,0,0-.068,1.426A4.52,4.52,0,0,0,17.8-2.959,1.319,1.319,0,0,0,19.014-2.344Zm9.756-10.85v2.627h1.738v2.285H28.77v4.834a1.234,1.234,0,0,0,.215.83,1.152,1.152,0,0,0,.85.234,4.828,4.828,0,0,0,.82-.059V-.088A6.074,6.074,0,0,1,28.8.2a3.448,3.448,0,0,1-2.51-.8,3.282,3.282,0,0,1-.811-2.432V-8.281H24.131v-2.285h1.348v-2.627ZM35.273,0h-3.3V-10.566h3.3Zm-3.5-13.291a1.469,1.469,0,0,1,.508-1.152,1.916,1.916,0,0,1,1.318-.449,1.916,1.916,0,0,1,1.318.449,1.469,1.469,0,0,1,.508,1.152,1.469,1.469,0,0,1-.508,1.152,1.916,1.916,0,0,1-1.318.449,1.916,1.916,0,0,1-1.318-.449A1.469,1.469,0,0,1,31.777-13.291Zm9.736,9.375,1.67-6.65H46.65L43.2,0H39.844L36.4-10.566h3.477ZM47.07-5.381A6.236,6.236,0,0,1,47.686-8.2a4.4,4.4,0,0,1,1.768-1.9,5.323,5.323,0,0,1,2.705-.664,4.858,4.858,0,0,1,3.74,1.47,5.64,5.64,0,0,1,1.367,4v.117a5.472,5.472,0,0,1-1.372,3.921A4.871,4.871,0,0,1,52.178.2a4.927,4.927,0,0,1-3.623-1.353A5.29,5.29,0,0,1,47.08-4.824Zm3.291.205a3.932,3.932,0,0,0,.459,2.148,1.529,1.529,0,0,0,1.357.684q1.758,0,1.8-2.705v-.332q0-2.842-1.816-2.842-1.65,0-1.787,2.451Zm17.8,2.832a1.464,1.464,0,0,0,1.074-.376,1.379,1.379,0,0,0,.371-1.05H72.7A3.653,3.653,0,0,1,71.45-.918,4.631,4.631,0,0,1,68.242.2,4.689,4.689,0,0,1,64.609-1.25a5.7,5.7,0,0,1-1.328-4v-.137a6.436,6.436,0,0,1,.591-2.827,4.3,4.3,0,0,1,1.7-1.885,5.081,5.081,0,0,1,2.637-.659,4.573,4.573,0,0,1,3.271,1.143,4.053,4.053,0,0,1,1.211,3.1H69.609a1.806,1.806,0,0,0-.4-1.26,1.382,1.382,0,0,0-1.074-.439q-1.279,0-1.494,1.631a11.508,11.508,0,0,0-.068,1.426,4.52,4.52,0,0,0,.381,2.207A1.319,1.319,0,0,0,68.164-2.344Zm5.508-3.037A6.236,6.236,0,0,1,74.287-8.2a4.4,4.4,0,0,1,1.768-1.9,5.323,5.323,0,0,1,2.705-.664,4.858,4.858,0,0,1,3.74,1.47,5.64,5.64,0,0,1,1.367,4v.117A5.472,5.472,0,0,1,82.5-1.255,4.871,4.871,0,0,1,78.779.2a4.927,4.927,0,0,1-3.623-1.353,5.29,5.29,0,0,1-1.475-3.667Zm3.291.205a3.932,3.932,0,0,0,.459,2.148,1.529,1.529,0,0,0,1.357.684q1.758,0,1.8-2.705v-.332q0-2.842-1.816-2.842-1.65,0-1.787,2.451ZM91.709-7.588l-1.084-.078a1.947,1.947,0,0,0-1.992.977V0H85.342V-10.566h3.086l.107,1.357a2.548,2.548,0,0,1,2.314-1.553,3.209,3.209,0,0,1,.918.117Zm7.578,0L98.2-7.666a1.947,1.947,0,0,0-1.992.977V0H92.92V-10.566h3.086l.107,1.357a2.548,2.548,0,0,1,2.314-1.553,3.209,3.209,0,0,1,.918.117ZM103.945,0h-3.3V-10.566h3.3Zm-3.5-13.291a1.469,1.469,0,0,1,.508-1.152,1.916,1.916,0,0,1,1.318-.449,1.916,1.916,0,0,1,1.318.449,1.469,1.469,0,0,1,.508,1.152,1.469,1.469,0,0,1-.508,1.152,1.916,1.916,0,0,1-1.318.449,1.916,1.916,0,0,1-1.318-.449A1.469,1.469,0,0,1,100.449-13.291ZM111.084.2a5.432,5.432,0,0,1-3.936-1.45,5.008,5.008,0,0,1-1.5-3.774V-5.3a6.489,6.489,0,0,1,.6-2.861A4.395,4.395,0,0,1,108-10.083a5.292,5.292,0,0,1,2.734-.679,4.574,4.574,0,0,1,3.516,1.382,5.43,5.43,0,0,1,1.289,3.853v1.279h-6.543a2.372,2.372,0,0,0,.771,1.4,2.3,2.3,0,0,0,1.543.508,2.958,2.958,0,0,0,2.441-1.094l1.5,1.777a4.2,4.2,0,0,1-1.743,1.353A5.891,5.891,0,0,1,111.084.2Zm-.371-8.418q-1.445,0-1.719,1.914h3.32v-.254a1.63,1.63,0,0,0-.4-1.226A1.593,1.593,0,0,0,110.713-8.223Zm9.17-2.344.107,1.24a3.583,3.583,0,0,1,3.018-1.436,3.015,3.015,0,0,1,2.466.986,4.7,4.7,0,0,1,.845,2.969V0h-3.3V-6.67a1.783,1.783,0,0,0-.322-1.177,1.491,1.491,0,0,0-1.172-.376,1.569,1.569,0,0,0-1.436.762V0H116.8V-10.566Zm12.09-2.627v2.627h1.738v2.285h-1.738v4.834a1.234,1.234,0,0,0,.215.83,1.152,1.152,0,0,0,.85.234,4.828,4.828,0,0,0,.82-.059V-.088A6.074,6.074,0,0,1,132,.2a3.448,3.448,0,0,1-2.51-.8,3.282,3.282,0,0,1-.811-2.432V-8.281h-1.348v-2.285h1.348v-2.627ZM140.117.2a5.432,5.432,0,0,1-3.936-1.45,5.008,5.008,0,0,1-1.5-3.774V-5.3a6.489,6.489,0,0,1,.6-2.861,4.395,4.395,0,0,1,1.753-1.919,5.292,5.292,0,0,1,2.734-.679,4.574,4.574,0,0,1,3.516,1.382,5.43,5.43,0,0,1,1.289,3.853v1.279h-6.543a2.372,2.372,0,0,0,.771,1.4,2.3,2.3,0,0,0,1.543.508,2.958,2.958,0,0,0,2.441-1.094l1.5,1.777a4.2,4.2,0,0,1-1.743,1.353A5.891,5.891,0,0,1,140.117.2Zm-.371-8.418q-1.445,0-1.719,1.914h3.32v-.254a1.63,1.63,0,0,0-.4-1.226A1.593,1.593,0,0,0,139.746-8.223ZM157.3-4.863h-5.869V-7.4H157.3ZM168.652,0h-3.418V-14.219h3.418Zm5.254-10.566.107,1.24a3.583,3.583,0,0,1,3.018-1.436,3.015,3.015,0,0,1,2.466.986,4.7,4.7,0,0,1,.845,2.969V0h-3.3V-6.67a1.783,1.783,0,0,0-.322-1.177,1.491,1.491,0,0,0-1.172-.376,1.569,1.569,0,0,0-1.436.762V0H170.82V-10.566Zm12.471,6.65,1.67-6.65h3.467L188.066,0h-3.359L181.26-10.566h3.477ZM197.607.2a5.432,5.432,0,0,1-3.936-1.45,5.008,5.008,0,0,1-1.5-3.774V-5.3a6.489,6.489,0,0,1,.6-2.861,4.395,4.395,0,0,1,1.753-1.919,5.292,5.292,0,0,1,2.734-.679,4.574,4.574,0,0,1,3.516,1.382,5.43,5.43,0,0,1,1.289,3.853v1.279h-6.543a2.372,2.372,0,0,0,.771,1.4,2.3,2.3,0,0,0,1.543.508,2.958,2.958,0,0,0,2.441-1.094l1.5,1.777a4.2,4.2,0,0,1-1.743,1.353A5.891,5.891,0,0,1,197.607.2Zm-.371-8.418q-1.445,0-1.719,1.914h3.32v-.254a1.63,1.63,0,0,0-.4-1.226A1.593,1.593,0,0,0,197.236-8.223Zm9.17-2.344.107,1.24a3.583,3.583,0,0,1,3.018-1.436A3.015,3.015,0,0,1,212-9.775a4.7,4.7,0,0,1,.845,2.969V0h-3.3V-6.67a1.783,1.783,0,0,0-.322-1.177,1.491,1.491,0,0,0-1.172-.376,1.569,1.569,0,0,0-1.436.762V0H203.32V-10.566Zm12.09-2.627v2.627h1.738v2.285H218.5v4.834a1.234,1.234,0,0,0,.215.83,1.152,1.152,0,0,0,.85.234,4.828,4.828,0,0,0,.82-.059V-.088A6.074,6.074,0,0,1,218.525.2a3.448,3.448,0,0,1-2.51-.8,3.282,3.282,0,0,1-.811-2.432V-8.281h-1.348v-2.285h1.348v-2.627ZM227.48,0a3.716,3.716,0,0,1-.312-.947A3.06,3.06,0,0,1,224.629.2a3.749,3.749,0,0,1-2.539-.9,2.875,2.875,0,0,1-1.045-2.271,2.955,2.955,0,0,1,1.27-2.6,6.468,6.468,0,0,1,3.691-.879h1.016v-.559q0-1.462-1.26-1.462a1.03,1.03,0,0,0-1.172,1.158H221.3a2.95,2.95,0,0,1,1.3-2.487,5.479,5.479,0,0,1,3.325-.956,4.8,4.8,0,0,1,3.193.986,3.429,3.429,0,0,1,1.2,2.705v4.678a4.79,4.79,0,0,0,.449,2.227V0ZM225.42-2.148a1.836,1.836,0,0,0,1.021-.264,1.652,1.652,0,0,0,.581-.6V-4.7h-.957q-1.719,0-1.719,1.543a.942.942,0,0,0,.3.728A1.1,1.1,0,0,0,225.42-2.148Zm13.115-5.439-1.084-.078a1.947,1.947,0,0,0-1.992.977V0h-3.291V-10.566h3.086l.107,1.357a2.548,2.548,0,0,1,2.314-1.553,3.209,3.209,0,0,1,.918.117ZM243.193,0h-3.3V-10.566h3.3Zm-3.5-13.291a1.469,1.469,0,0,1,.508-1.152,1.916,1.916,0,0,1,1.318-.449,1.916,1.916,0,0,1,1.318.449,1.469,1.469,0,0,1,.508,1.152,1.469,1.469,0,0,1-.508,1.152,1.916,1.916,0,0,1-1.318.449,1.916,1.916,0,0,1-1.318-.449A1.469,1.469,0,0,1,239.7-13.291Zm5.107,7.91A6.236,6.236,0,0,1,245.42-8.2a4.4,4.4,0,0,1,1.768-1.9,5.323,5.323,0,0,1,2.705-.664,4.858,4.858,0,0,1,3.74,1.47,5.64,5.64,0,0,1,1.367,4v.117a5.472,5.472,0,0,1-1.372,3.921A4.871,4.871,0,0,1,249.912.2a4.927,4.927,0,0,1-3.623-1.353,5.29,5.29,0,0,1-1.475-3.667Zm3.291.205a3.932,3.932,0,0,0,.459,2.148,1.529,1.529,0,0,0,1.357.684q1.758,0,1.8-2.705v-.332q0-2.842-1.816-2.842-1.65,0-1.787,2.451Zm13.887,2.207a.76.76,0,0,0-.439-.674,6.685,6.685,0,0,0-1.67-.527,7.615,7.615,0,0,1-2.031-.718,3.4,3.4,0,0,1-1.221-1.079,2.577,2.577,0,0,1-.42-1.455,2.92,2.92,0,0,1,1.2-2.4,4.948,4.948,0,0,1,3.145-.942,5.482,5.482,0,0,1,3.359.947,2.962,2.962,0,0,1,1.27,2.49h-3.3q0-1.27-1.338-1.27a1.326,1.326,0,0,0-.869.288.892.892,0,0,0-.352.718.819.819,0,0,0,.43.713,4.06,4.06,0,0,0,1.372.449,11.856,11.856,0,0,1,1.655.42,3.007,3.007,0,0,1,2.383,2.939,2.767,2.767,0,0,1-1.284,2.354A5.631,5.631,0,0,1,260.547.2a5.747,5.747,0,0,1-2.422-.488,4.05,4.05,0,0,1-1.66-1.328,3.007,3.007,0,0,1-.6-1.768h3.076a1.272,1.272,0,0,0,.488,1.069,2.009,2.009,0,0,0,1.2.337,1.58,1.58,0,0,0,1.011-.273A.875.875,0,0,0,261.982-2.969Z" transform="translate(327 2918)" fill="#12263f"/>
        <path id="Trazado_148441" data-name="Trazado 148441" d="M4.5-4.824V0H1.074V-14.219H6.748a6.608,6.608,0,0,1,2.886.6,4.526,4.526,0,0,1,1.943,1.709,4.667,4.667,0,0,1,.688,2.515,4.114,4.114,0,0,1-1.489,3.325A6.179,6.179,0,0,1,6.689-4.824Zm0-2.646H6.748a2.118,2.118,0,0,0,1.519-.5,1.85,1.85,0,0,0,.522-1.406,2.287,2.287,0,0,0-.537-1.592,1.9,1.9,0,0,0-1.465-.605H4.5ZM19.785,0a3.716,3.716,0,0,1-.312-.947A3.06,3.06,0,0,1,16.934.2a3.749,3.749,0,0,1-2.539-.9A2.875,2.875,0,0,1,13.35-2.979a2.955,2.955,0,0,1,1.27-2.6,6.468,6.468,0,0,1,3.691-.879h1.016v-.559q0-1.462-1.26-1.462a1.03,1.03,0,0,0-1.172,1.158H13.6a2.95,2.95,0,0,1,1.3-2.487,5.479,5.479,0,0,1,3.325-.956,4.8,4.8,0,0,1,3.193.986,3.429,3.429,0,0,1,1.2,2.705v4.678a4.79,4.79,0,0,0,.449,2.227V0ZM17.725-2.148a1.836,1.836,0,0,0,1.021-.264,1.653,1.653,0,0,0,.581-.6V-4.7h-.957q-1.719,0-1.719,1.543a.942.942,0,0,0,.3.728A1.1,1.1,0,0,0,17.725-2.148Zm12.256-.82a.76.76,0,0,0-.439-.674,6.685,6.685,0,0,0-1.67-.527,7.615,7.615,0,0,1-2.031-.718,3.4,3.4,0,0,1-1.221-1.079,2.577,2.577,0,0,1-.42-1.455,2.92,2.92,0,0,1,1.2-2.4,4.948,4.948,0,0,1,3.145-.942,5.482,5.482,0,0,1,3.359.947,2.962,2.962,0,0,1,1.27,2.49h-3.3q0-1.27-1.338-1.27a1.326,1.326,0,0,0-.869.288.892.892,0,0,0-.352.718.819.819,0,0,0,.43.713,4.06,4.06,0,0,0,1.372.449,11.857,11.857,0,0,1,1.655.42,3.007,3.007,0,0,1,2.383,2.939A2.767,2.767,0,0,1,31.87-.713,5.631,5.631,0,0,1,28.545.2a5.747,5.747,0,0,1-2.422-.488,4.05,4.05,0,0,1-1.66-1.328,3.007,3.007,0,0,1-.6-1.768h3.076a1.272,1.272,0,0,0,.488,1.069,2.009,2.009,0,0,0,1.2.337,1.58,1.58,0,0,0,1.011-.273A.875.875,0,0,0,29.98-2.969ZM38.164,0h-3.3V-10.566h3.3Zm-3.5-13.291a1.469,1.469,0,0,1,.508-1.152,1.916,1.916,0,0,1,1.318-.449,1.916,1.916,0,0,1,1.318.449,1.469,1.469,0,0,1,.508,1.152,1.469,1.469,0,0,1-.508,1.152,1.916,1.916,0,0,1-1.318.449,1.916,1.916,0,0,1-1.318-.449A1.469,1.469,0,0,1,34.668-13.291ZM44.4-3.916l1.67-6.65h3.467L46.094,0H42.734L39.287-10.566h3.477Zm5.557-1.465A6.236,6.236,0,0,1,50.576-8.2a4.4,4.4,0,0,1,1.768-1.9,5.323,5.323,0,0,1,2.705-.664,4.858,4.858,0,0,1,3.74,1.47,5.64,5.64,0,0,1,1.367,4v.117a5.472,5.472,0,0,1-1.372,3.921A4.871,4.871,0,0,1,55.068.2a4.927,4.927,0,0,1-3.623-1.353,5.29,5.29,0,0,1-1.475-3.667Zm3.291.205a3.932,3.932,0,0,0,.459,2.148,1.529,1.529,0,0,0,1.357.684q1.758,0,1.8-2.705v-.332q0-2.842-1.816-2.842-1.65,0-1.787,2.451Zm17.8,2.832a1.464,1.464,0,0,0,1.074-.376A1.379,1.379,0,0,0,72.5-3.77h3.086A3.653,3.653,0,0,1,74.341-.918,4.631,4.631,0,0,1,71.133.2,4.689,4.689,0,0,1,67.5-1.25a5.7,5.7,0,0,1-1.328-4v-.137a6.436,6.436,0,0,1,.591-2.827,4.3,4.3,0,0,1,1.7-1.885,5.081,5.081,0,0,1,2.637-.659,4.573,4.573,0,0,1,3.271,1.143,4.053,4.053,0,0,1,1.211,3.1H72.5a1.806,1.806,0,0,0-.4-1.26,1.382,1.382,0,0,0-1.074-.439q-1.279,0-1.494,1.631a11.508,11.508,0,0,0-.068,1.426,4.52,4.52,0,0,0,.381,2.207A1.319,1.319,0,0,0,71.055-2.344Zm5.508-3.037A6.236,6.236,0,0,1,77.178-8.2a4.4,4.4,0,0,1,1.768-1.9,5.323,5.323,0,0,1,2.705-.664,4.858,4.858,0,0,1,3.74,1.47,5.64,5.64,0,0,1,1.367,4v.117a5.472,5.472,0,0,1-1.372,3.921A4.871,4.871,0,0,1,81.67.2a4.927,4.927,0,0,1-3.623-1.353,5.29,5.29,0,0,1-1.475-3.667Zm3.291.205a3.932,3.932,0,0,0,.459,2.148,1.529,1.529,0,0,0,1.357.684q1.758,0,1.8-2.705v-.332q0-2.842-1.816-2.842-1.65,0-1.787,2.451ZM94.6-7.588l-1.084-.078a1.947,1.947,0,0,0-1.992.977V0H88.232V-10.566h3.086l.107,1.357a2.548,2.548,0,0,1,2.314-1.553,3.209,3.209,0,0,1,.918.117Zm7.578,0-1.084-.078a1.947,1.947,0,0,0-1.992.977V0H95.811V-10.566H98.9L99-9.209a2.548,2.548,0,0,1,2.314-1.553,3.209,3.209,0,0,1,.918.117ZM106.836,0h-3.3V-10.566h3.3Zm-3.5-13.291a1.469,1.469,0,0,1,.508-1.152,1.916,1.916,0,0,1,1.318-.449,1.916,1.916,0,0,1,1.318.449,1.469,1.469,0,0,1,.508,1.152,1.469,1.469,0,0,1-.508,1.152,1.916,1.916,0,0,1-1.318.449,1.916,1.916,0,0,1-1.318-.449A1.469,1.469,0,0,1,103.34-13.291ZM113.975.2a5.432,5.432,0,0,1-3.936-1.45,5.008,5.008,0,0,1-1.5-3.774V-5.3a6.489,6.489,0,0,1,.6-2.861,4.395,4.395,0,0,1,1.753-1.919,5.292,5.292,0,0,1,2.734-.679,4.574,4.574,0,0,1,3.516,1.382,5.43,5.43,0,0,1,1.289,3.853v1.279h-6.543a2.372,2.372,0,0,0,.771,1.4,2.3,2.3,0,0,0,1.543.508,2.958,2.958,0,0,0,2.441-1.094l1.5,1.777A4.2,4.2,0,0,1,116.4-.308,5.891,5.891,0,0,1,113.975.2ZM113.6-8.223q-1.445,0-1.719,1.914h3.32v-.254a1.63,1.63,0,0,0-.4-1.226A1.593,1.593,0,0,0,113.6-8.223Zm9.17-2.344.107,1.24a3.583,3.583,0,0,1,3.018-1.436,3.015,3.015,0,0,1,2.466.986,4.7,4.7,0,0,1,.845,2.969V0h-3.3V-6.67a1.783,1.783,0,0,0-.322-1.177,1.491,1.491,0,0,0-1.172-.376,1.569,1.569,0,0,0-1.436.762V0h-3.291V-10.566Zm12.09-2.627v2.627H136.6v2.285h-1.738v4.834a1.234,1.234,0,0,0,.215.83,1.152,1.152,0,0,0,.85.234,4.828,4.828,0,0,0,.82-.059V-.088A6.074,6.074,0,0,1,134.893.2a3.448,3.448,0,0,1-2.51-.8,3.282,3.282,0,0,1-.811-2.432V-8.281h-1.348v-2.285h1.348v-2.627ZM143.008.2a5.432,5.432,0,0,1-3.936-1.45,5.008,5.008,0,0,1-1.5-3.774V-5.3a6.489,6.489,0,0,1,.6-2.861,4.395,4.395,0,0,1,1.753-1.919,5.292,5.292,0,0,1,2.734-.679,4.574,4.574,0,0,1,3.516,1.382,5.43,5.43,0,0,1,1.289,3.853v1.279h-6.543a2.372,2.372,0,0,0,.771,1.4,2.3,2.3,0,0,0,1.543.508,2.958,2.958,0,0,0,2.441-1.094l1.5,1.777a4.2,4.2,0,0,1-1.743,1.353A5.891,5.891,0,0,1,143.008.2Zm-.371-8.418q-1.445,0-1.719,1.914h3.32v-.254a1.63,1.63,0,0,0-.4-1.226A1.593,1.593,0,0,0,142.637-8.223Z" transform="translate(402 2948)" fill="#12263f"/>
      </g>
    </g>
    <g id="Grupo_93080" data-name="Grupo 93080" transform="translate(-2735 198)">
      <rect id="Rectángulo_31816-2" data-name="Rectángulo 31816" width="557" height="131" transform="translate(237 2859)" fill="#6595bf"/>
      <g id="Grupo_89142-2" data-name="Grupo 89142" transform="translate(224 2852)">
        <rect id="Rectángulo_31778-2" data-name="Rectángulo 31778" width="565.199" height="132.775" transform="translate(0 0)" fill="#fff" stroke="#12263f" stroke-miterlimit="10" stroke-width="1"/>
      </g>
      <g id="Grupo_89143-2" data-name="Grupo 89143" transform="translate(118 -5)">
        <path id="Trazado_148442" data-name="Trazado 148442" d="M4.5-4.824V0H1.074V-14.219H6.748a6.608,6.608,0,0,1,2.886.6,4.526,4.526,0,0,1,1.943,1.709,4.667,4.667,0,0,1,.688,2.515,4.114,4.114,0,0,1-1.489,3.325A6.179,6.179,0,0,1,6.689-4.824Zm0-2.646H6.748a2.118,2.118,0,0,0,1.519-.5,1.85,1.85,0,0,0,.522-1.406,2.287,2.287,0,0,0-.537-1.592,1.9,1.9,0,0,0-1.465-.605H4.5Zm15.83-.117-1.084-.078a1.947,1.947,0,0,0-1.992.977V0H13.965V-10.566h3.086l.107,1.357a2.548,2.548,0,0,1,2.314-1.553,3.209,3.209,0,0,1,.918.117Zm7.48,6.445A3.393,3.393,0,0,1,24.99.2,3.328,3.328,0,0,1,22.358-.815a4.251,4.251,0,0,1-.894-2.905v-6.846h3.291V-3.7a1.183,1.183,0,0,0,1.318,1.357,1.72,1.72,0,0,0,1.611-.811v-7.412H31V0H27.91ZM37.91.2a5.432,5.432,0,0,1-3.936-1.45,5.008,5.008,0,0,1-1.5-3.774V-5.3a6.489,6.489,0,0,1,.6-2.861,4.395,4.395,0,0,1,1.753-1.919,5.292,5.292,0,0,1,2.734-.679A4.574,4.574,0,0,1,41.074-9.38a5.43,5.43,0,0,1,1.289,3.853v1.279H35.82a2.372,2.372,0,0,0,.771,1.4,2.3,2.3,0,0,0,1.543.508,2.958,2.958,0,0,0,2.441-1.094l1.5,1.777A4.2,4.2,0,0,1,40.337-.308,5.891,5.891,0,0,1,37.91.2Zm-.371-8.418q-1.445,0-1.719,1.914h3.32v-.254a1.63,1.63,0,0,0-.4-1.226A1.593,1.593,0,0,0,37.539-8.223ZM53.5-5.2A6.44,6.44,0,0,1,52.422-1.2,3.6,3.6,0,0,1,49.395.2a3.122,3.122,0,0,1-2.6-1.279L46.66,0H43.711V-15H47v5.283a3.013,3.013,0,0,1,2.373-1.045,3.6,3.6,0,0,1,3.047,1.416A6.473,6.473,0,0,1,53.5-5.361Zm-3.3-.21a4.3,4.3,0,0,0-.405-2.169,1.366,1.366,0,0,0-1.245-.648A1.576,1.576,0,0,0,47-7.374v4.192a1.585,1.585,0,0,0,1.563.838,1.4,1.4,0,0,0,1.475-1.131A8.121,8.121,0,0,0,50.2-5.405ZM60.9,0a3.716,3.716,0,0,1-.312-.947A3.06,3.06,0,0,1,58.047.2a3.749,3.749,0,0,1-2.539-.9,2.875,2.875,0,0,1-1.045-2.271,2.955,2.955,0,0,1,1.27-2.6,6.468,6.468,0,0,1,3.691-.879h1.016v-.559q0-1.462-1.26-1.462a1.03,1.03,0,0,0-1.172,1.158H54.717a2.95,2.95,0,0,1,1.3-2.487,5.479,5.479,0,0,1,3.325-.956,4.8,4.8,0,0,1,3.193.986,3.429,3.429,0,0,1,1.2,2.705v4.678a4.79,4.79,0,0,0,.449,2.227V0ZM58.838-2.148a1.836,1.836,0,0,0,1.021-.264,1.653,1.653,0,0,0,.581-.6V-4.7h-.957q-1.719,0-1.719,1.543a.942.942,0,0,0,.3.728A1.1,1.1,0,0,0,58.838-2.148ZM76.494,0a3.716,3.716,0,0,1-.312-.947A3.06,3.06,0,0,1,73.643.2a3.749,3.749,0,0,1-2.539-.9,2.875,2.875,0,0,1-1.045-2.271,2.955,2.955,0,0,1,1.27-2.6,6.468,6.468,0,0,1,3.691-.879h1.016v-.559q0-1.462-1.26-1.462A1.03,1.03,0,0,0,73.6-7.319H70.313a2.95,2.95,0,0,1,1.3-2.487,5.479,5.479,0,0,1,3.325-.956,4.8,4.8,0,0,1,3.193.986,3.429,3.429,0,0,1,1.2,2.705v4.678a4.79,4.79,0,0,0,.449,2.227V0ZM74.434-2.148a1.836,1.836,0,0,0,1.021-.264,1.653,1.653,0,0,0,.581-.6V-4.7h-.957q-1.719,0-1.719,1.543a.942.942,0,0,0,.3.728A1.1,1.1,0,0,0,74.434-2.148ZM75.254-15H78.73l-2.715,3.066-2.686,0ZM85.625-2.344A1.464,1.464,0,0,0,86.7-2.72a1.379,1.379,0,0,0,.371-1.05h3.086A3.653,3.653,0,0,1,88.911-.918,4.631,4.631,0,0,1,85.7.2,4.689,4.689,0,0,1,82.07-1.25a5.7,5.7,0,0,1-1.328-4v-.137a6.436,6.436,0,0,1,.591-2.827,4.3,4.3,0,0,1,1.7-1.885,5.081,5.081,0,0,1,2.637-.659,4.573,4.573,0,0,1,3.271,1.143,4.053,4.053,0,0,1,1.211,3.1H87.07a1.806,1.806,0,0,0-.4-1.26A1.382,1.382,0,0,0,85.6-8.223q-1.279,0-1.494,1.631a11.508,11.508,0,0,0-.068,1.426,4.52,4.52,0,0,0,.381,2.207A1.319,1.319,0,0,0,85.625-2.344ZM95.02,0h-3.3V-10.566h3.3Zm-3.5-13.291a1.469,1.469,0,0,1,.508-1.152,1.916,1.916,0,0,1,1.318-.449,1.916,1.916,0,0,1,1.318.449,1.469,1.469,0,0,1,.508,1.152,1.469,1.469,0,0,1-.508,1.152,1.916,1.916,0,0,1-1.318.449,1.916,1.916,0,0,1-1.318-.449A1.469,1.469,0,0,1,91.523-13.291Zm5.107,7.93a6.455,6.455,0,0,1,1.084-3.955,3.568,3.568,0,0,1,3.027-1.445,3.035,3.035,0,0,1,2.383,1.113V-15h3.3V0h-2.959L103.3-1.133A3.116,3.116,0,0,1,100.723.2,3.562,3.562,0,0,1,97.734-1.25,6.659,6.659,0,0,1,96.631-5.361Zm3.291.205q0,2.813,1.641,2.813a1.62,1.62,0,0,0,1.563-.918V-7.285a1.576,1.576,0,0,0-1.543-.937q-1.523,0-1.65,2.461ZM114.248,0a3.716,3.716,0,0,1-.312-.947A3.06,3.06,0,0,1,111.4.2a3.749,3.749,0,0,1-2.539-.9,2.875,2.875,0,0,1-1.045-2.271,2.955,2.955,0,0,1,1.27-2.6,6.468,6.468,0,0,1,3.691-.879h1.016v-.559q0-1.462-1.26-1.462a1.03,1.03,0,0,0-1.172,1.158h-3.291a2.95,2.95,0,0,1,1.3-2.487,5.479,5.479,0,0,1,3.325-.956,4.8,4.8,0,0,1,3.193.986,3.429,3.429,0,0,1,1.2,2.705v4.678a4.79,4.79,0,0,0,.449,2.227V0Zm-2.061-2.148a1.836,1.836,0,0,0,1.021-.264,1.653,1.653,0,0,0,.581-.6V-4.7h-.957q-1.719,0-1.719,1.543a.942.942,0,0,0,.3.728A1.1,1.1,0,0,0,112.188-2.148Zm21.074-4.9h-9.043V-9.59h9.043Zm0,4.287h-9.043V-5.3h9.043Z" transform="translate(159 2937)" fill="#12263f"/>
        <text id="_2" data-name="————————————" transform="translate(330 2937)" fill="#12263f" font-size="29" font-family="Roboto-Black, Roboto" font-weight="800"><tspan x="0" y="0">————————————</tspan></text>
        <path id="Trazado_148443" data-name="Trazado 148443" d="M7.422-3.77A1.788,1.788,0,0,0,7.041-4.98,3.557,3.557,0,0,0,5.7-5.811Q4.746-6.2,3.936-6.6a6.131,6.131,0,0,1-1.4-.928,3.645,3.645,0,0,1-.9-1.221,4.072,4.072,0,0,1-.312-1.68,3.608,3.608,0,0,1,1.113-2.72A4.791,4.791,0,0,1,5.41-14.395v-2.061H6.963v2.1a4.361,4.361,0,0,1,2.808,1.47,4.575,4.575,0,0,1,1.021,3.062H7.49A2.663,2.663,0,0,0,7.1-11.387a1.286,1.286,0,0,0-1.113-.547,1.263,1.263,0,0,0-1,.405,1.635,1.635,0,0,0-.356,1.118,1.582,1.582,0,0,0,.41,1.147,4.04,4.04,0,0,0,1.318.811q.908.386,1.714.8a6.552,6.552,0,0,1,1.392.942,3.857,3.857,0,0,1,.918,1.23,3.929,3.929,0,0,1,.332,1.689,3.678,3.678,0,0,1-1.06,2.725A4.561,4.561,0,0,1,6.768.166V2.129H5.215V.156A4.967,4.967,0,0,1,1.948-1.3,4.618,4.618,0,0,1,.811-4.561H4.1a2.554,2.554,0,0,0,.493,1.694A1.737,1.737,0,0,0,6-2.285a1.383,1.383,0,0,0,1.045-.4A1.5,1.5,0,0,0,7.422-3.77ZM24.727,0h-3.3V-10.508l-3.242.947v-2.5l6.24-2.158h.3ZM37.705-5.557H39.15v2.539H37.705V0H34.414V-3.018h-5.5l-.2-2.012,5.693-9.16v-.029h3.291Zm-5.85,0h2.559V-9.932l-.205.332ZM50.518,0H40.6V-2.148l4.57-4.8q1.689-1.924,1.689-3.057a2.126,2.126,0,0,0-.4-1.4,1.43,1.43,0,0,0-1.162-.479,1.447,1.447,0,0,0-1.221.64,2.629,2.629,0,0,0-.469,1.6H40.3a4.67,4.67,0,0,1,.654-2.417A4.588,4.588,0,0,1,42.773-13.8a5.4,5.4,0,0,1,2.6-.625,5.308,5.308,0,0,1,3.55,1.064A3.8,3.8,0,0,1,50.166-10.3a4.439,4.439,0,0,1-.312,1.636A7.173,7.173,0,0,1,48.882-7a24.476,24.476,0,0,1-2.124,2.339L44.922-2.539h5.6Zm3.75-3.193a1.874,1.874,0,0,1,1.3.464,1.522,1.522,0,0,1,.518,1.187,1.522,1.522,0,0,1-.518,1.187,1.874,1.874,0,0,1-1.3.464,1.858,1.858,0,0,1-1.3-.469,1.533,1.533,0,0,1-.513-1.182,1.533,1.533,0,0,1,.513-1.182A1.858,1.858,0,0,1,54.268-3.193ZM67.813-10.42A3.283,3.283,0,0,1,67.3-8.594a3.734,3.734,0,0,1-1.411,1.27A4.109,4.109,0,0,1,67.5-5.962a3.515,3.515,0,0,1,.6,2.046A3.721,3.721,0,0,1,66.782-.908,5.454,5.454,0,0,1,63.164.2,5.554,5.554,0,0,1,59.512-.913a3.7,3.7,0,0,1-1.338-3,3.56,3.56,0,0,1,.586-2.021,3.984,3.984,0,0,1,1.66-1.387,3.755,3.755,0,0,1-1.426-1.27,3.26,3.26,0,0,1-.518-1.826,3.648,3.648,0,0,1,1.26-2.93,5.064,5.064,0,0,1,3.4-1.074,5.1,5.1,0,0,1,3.418,1.074A3.648,3.648,0,0,1,67.813-10.42ZM64.795-4.18a1.877,1.877,0,0,0-.454-1.353,1.581,1.581,0,0,0-1.2-.474,1.6,1.6,0,0,0-1.2.474,1.865,1.865,0,0,0-.459,1.353,1.881,1.881,0,0,0,.464,1.343,1.592,1.592,0,0,0,1.216.493,1.53,1.53,0,0,0,1.182-.488A1.915,1.915,0,0,0,64.795-4.18Zm-1.66-7.705a1.216,1.216,0,0,0-1.011.435,1.886,1.886,0,0,0-.347,1.206,2,2,0,0,0,.352,1.23,1.213,1.213,0,0,0,1.035.469,1.163,1.163,0,0,0,1.011-.469,2.062,2.062,0,0,0,.337-1.23,1.89,1.89,0,0,0-.347-1.2A1.233,1.233,0,0,0,63.135-11.885ZM79.678-5.811a6.789,6.789,0,0,1-1.294,4.443A4.471,4.471,0,0,1,74.736.2a4.5,4.5,0,0,1-3.672-1.572,6.779,6.779,0,0,1-1.3-4.434v-2.6a6.789,6.789,0,0,1,1.294-4.443,4.483,4.483,0,0,1,3.657-1.562,4.484,4.484,0,0,1,3.662,1.572,6.8,6.8,0,0,1,1.3,4.443ZM76.387-8.828a5.071,5.071,0,0,0-.4-2.29,1.338,1.338,0,0,0-1.27-.757,1.307,1.307,0,0,0-1.235.7,4.777,4.777,0,0,0-.415,2.129V-5.41a5.109,5.109,0,0,0,.4,2.329,1.343,1.343,0,0,0,1.27.737,1.325,1.325,0,0,0,1.24-.718,4.878,4.878,0,0,0,.41-2.251ZM91.26-5.811a6.789,6.789,0,0,1-1.294,4.443A4.471,4.471,0,0,1,86.318.2a4.5,4.5,0,0,1-3.672-1.572,6.779,6.779,0,0,1-1.3-4.434v-2.6a6.789,6.789,0,0,1,1.294-4.443A4.483,4.483,0,0,1,86.3-14.414a4.484,4.484,0,0,1,3.662,1.572A6.8,6.8,0,0,1,91.26-8.4ZM87.969-8.828a5.071,5.071,0,0,0-.4-2.29,1.338,1.338,0,0,0-1.27-.757,1.307,1.307,0,0,0-1.235.7,4.777,4.777,0,0,0-.415,2.129V-5.41a5.109,5.109,0,0,0,.4,2.329,1.343,1.343,0,0,0,1.27.737,1.325,1.325,0,0,0,1.24-.718,4.878,4.878,0,0,0,.41-2.251Zm7.09,5.635a1.874,1.874,0,0,1,1.3.464,1.522,1.522,0,0,1,.518,1.187,1.522,1.522,0,0,1-.518,1.187,1.874,1.874,0,0,1-1.3.464,1.858,1.858,0,0,1-1.3-.469,1.533,1.533,0,0,1-.513-1.182,1.533,1.533,0,0,1,.513-1.182A1.858,1.858,0,0,1,95.059-3.193Zm13.828-2.617a6.789,6.789,0,0,1-1.294,4.443A4.471,4.471,0,0,1,103.945.2a4.5,4.5,0,0,1-3.672-1.572,6.779,6.779,0,0,1-1.3-4.434v-2.6a6.789,6.789,0,0,1,1.294-4.443,4.483,4.483,0,0,1,3.657-1.562,4.484,4.484,0,0,1,3.662,1.572,6.8,6.8,0,0,1,1.3,4.443ZM105.6-8.828a5.071,5.071,0,0,0-.4-2.29,1.338,1.338,0,0,0-1.27-.757,1.307,1.307,0,0,0-1.235.7,4.777,4.777,0,0,0-.415,2.129V-5.41a5.109,5.109,0,0,0,.4,2.329,1.343,1.343,0,0,0,1.27.737,1.325,1.325,0,0,0,1.24-.718,4.878,4.878,0,0,0,.41-2.251Zm14.873,3.018a6.789,6.789,0,0,1-1.294,4.443A4.471,4.471,0,0,1,115.527.2a4.5,4.5,0,0,1-3.672-1.572,6.779,6.779,0,0,1-1.3-4.434v-2.6a6.789,6.789,0,0,1,1.294-4.443,4.483,4.483,0,0,1,3.657-1.562,4.484,4.484,0,0,1,3.662,1.572,6.8,6.8,0,0,1,1.3,4.443Zm-3.291-3.018a5.071,5.071,0,0,0-.4-2.29,1.338,1.338,0,0,0-1.27-.757,1.307,1.307,0,0,0-1.235.7,4.777,4.777,0,0,0-.415,2.129V-5.41a5.109,5.109,0,0,0,.4,2.329,1.343,1.343,0,0,0,1.27.737,1.325,1.325,0,0,0,1.24-.718,4.878,4.878,0,0,0,.41-2.251Zm14.873,3.018a6.789,6.789,0,0,1-1.294,4.443A4.471,4.471,0,0,1,127.109.2a4.5,4.5,0,0,1-3.672-1.572,6.779,6.779,0,0,1-1.3-4.434v-2.6a6.789,6.789,0,0,1,1.294-4.443,4.483,4.483,0,0,1,3.657-1.562,4.484,4.484,0,0,1,3.662,1.572,6.8,6.8,0,0,1,1.3,4.443ZM128.76-8.828a5.071,5.071,0,0,0-.4-2.29,1.338,1.338,0,0,0-1.27-.757,1.307,1.307,0,0,0-1.235.7,4.777,4.777,0,0,0-.415,2.129V-5.41a5.109,5.109,0,0,0,.4,2.329,1.343,1.343,0,0,0,1.27.737,1.325,1.325,0,0,0,1.24-.718,4.878,4.878,0,0,0,.41-2.251Zm11.484,3.965h-5.869V-7.4h5.869Zm9.063,1.094a1.788,1.788,0,0,0-.381-1.211,3.557,3.557,0,0,0-1.338-.83q-.957-.391-1.768-.791a6.131,6.131,0,0,1-1.4-.928,3.644,3.644,0,0,1-.9-1.221,4.072,4.072,0,0,1-.312-1.68,3.608,3.608,0,0,1,1.113-2.72,4.791,4.791,0,0,1,2.969-1.245v-2.061h1.553v2.1a4.361,4.361,0,0,1,2.808,1.47,4.575,4.575,0,0,1,1.021,3.062h-3.3a2.663,2.663,0,0,0-.391-1.562,1.286,1.286,0,0,0-1.113-.547,1.263,1.263,0,0,0-1,.405,1.635,1.635,0,0,0-.356,1.118,1.582,1.582,0,0,0,.41,1.147,4.04,4.04,0,0,0,1.318.811q.908.386,1.714.8a6.552,6.552,0,0,1,1.392.942,3.857,3.857,0,0,1,.918,1.23,3.929,3.929,0,0,1,.332,1.689,3.678,3.678,0,0,1-1.06,2.725,4.561,4.561,0,0,1-2.886,1.23V2.129H147.1V.156a4.968,4.968,0,0,1-3.267-1.46A4.618,4.618,0,0,1,142.7-4.561h3.291a2.554,2.554,0,0,0,.493,1.694,1.737,1.737,0,0,0,1.4.581,1.383,1.383,0,0,0,1.045-.4A1.5,1.5,0,0,0,149.307-3.77Zm19.6-6.65a3.283,3.283,0,0,1-.513,1.826,3.734,3.734,0,0,1-1.411,1.27,4.109,4.109,0,0,1,1.611,1.362,3.515,3.515,0,0,1,.6,2.046,3.721,3.721,0,0,1-1.313,3.008A5.454,5.454,0,0,1,164.258.2a5.554,5.554,0,0,1-3.652-1.108,3.7,3.7,0,0,1-1.338-3,3.56,3.56,0,0,1,.586-2.021,3.984,3.984,0,0,1,1.66-1.387,3.755,3.755,0,0,1-1.426-1.27,3.26,3.26,0,0,1-.518-1.826,3.648,3.648,0,0,1,1.26-2.93,5.064,5.064,0,0,1,3.4-1.074,5.1,5.1,0,0,1,3.418,1.074A3.648,3.648,0,0,1,168.906-10.42Zm-3.018,6.24a1.877,1.877,0,0,0-.454-1.353,1.581,1.581,0,0,0-1.2-.474,1.6,1.6,0,0,0-1.2.474,1.865,1.865,0,0,0-.459,1.353,1.881,1.881,0,0,0,.464,1.343,1.592,1.592,0,0,0,1.216.493,1.53,1.53,0,0,0,1.182-.488A1.915,1.915,0,0,0,165.889-4.18Zm-1.66-7.705a1.216,1.216,0,0,0-1.011.435,1.886,1.886,0,0,0-.347,1.206,2,2,0,0,0,.352,1.23,1.213,1.213,0,0,0,1.035.469,1.163,1.163,0,0,0,1.011-.469,2.062,2.062,0,0,0,.337-1.23,1.89,1.89,0,0,0-.347-1.2A1.233,1.233,0,0,0,164.229-11.885Zm14.619-2.539v2.588H178.7a4.941,4.941,0,0,0-3.032.884,3.732,3.732,0,0,0-1.46,2.456,3.848,3.848,0,0,1,2.813-1.094,3.59,3.59,0,0,1,2.939,1.348,5.436,5.436,0,0,1,1.094,3.535,4.977,4.977,0,0,1-.64,2.49,4.564,4.564,0,0,1-1.787,1.772,5.135,5.135,0,0,1-2.544.64,5.307,5.307,0,0,1-2.705-.688,4.733,4.733,0,0,1-1.855-1.968,6.48,6.48,0,0,1-.684-2.949V-6.729a8.208,8.208,0,0,1,.942-3.95,6.832,6.832,0,0,1,2.69-2.749,7.692,7.692,0,0,1,3.877-1ZM175.879-7.07a1.883,1.883,0,0,0-1.094.3,1.922,1.922,0,0,0-.654.742v.986q0,2.7,1.865,2.7a1.513,1.513,0,0,0,1.255-.674,2.746,2.746,0,0,0,.5-1.689,2.7,2.7,0,0,0-.513-1.7A1.64,1.64,0,0,0,175.879-7.07Zm8.691,3.877a1.874,1.874,0,0,1,1.3.464,1.522,1.522,0,0,1,.518,1.187,1.522,1.522,0,0,1-.518,1.187,1.874,1.874,0,0,1-1.3.464,1.858,1.858,0,0,1-1.3-.469,1.533,1.533,0,0,1-.513-1.182,1.533,1.533,0,0,1,.513-1.182A1.858,1.858,0,0,1,184.57-3.193Zm12.646-2.363h1.445v2.539h-1.445V0h-3.291V-3.018h-5.5l-.2-2.012,5.693-9.16v-.029h3.291Zm-5.85,0h2.559V-9.932l-.205.332Zm18.613-.254a6.789,6.789,0,0,1-1.294,4.443A4.471,4.471,0,0,1,205.039.2a4.5,4.5,0,0,1-3.672-1.572,6.779,6.779,0,0,1-1.3-4.434v-2.6a6.789,6.789,0,0,1,1.294-4.443,4.483,4.483,0,0,1,3.657-1.562,4.484,4.484,0,0,1,3.662,1.572,6.8,6.8,0,0,1,1.3,4.443Zm-3.291-3.018a5.071,5.071,0,0,0-.4-2.29,1.338,1.338,0,0,0-1.27-.757,1.307,1.307,0,0,0-1.235.7,4.777,4.777,0,0,0-.415,2.129V-5.41a5.11,5.11,0,0,0,.4,2.329,1.343,1.343,0,0,0,1.27.737,1.325,1.325,0,0,0,1.24-.718,4.878,4.878,0,0,0,.41-2.251Zm14.873,3.018a6.789,6.789,0,0,1-1.294,4.443A4.471,4.471,0,0,1,216.621.2a4.5,4.5,0,0,1-3.672-1.572,6.779,6.779,0,0,1-1.3-4.434v-2.6a6.789,6.789,0,0,1,1.294-4.443,4.483,4.483,0,0,1,3.657-1.562,4.484,4.484,0,0,1,3.662,1.572,6.8,6.8,0,0,1,1.3,4.443Zm-3.291-3.018a5.071,5.071,0,0,0-.4-2.29,1.338,1.338,0,0,0-1.27-.757,1.307,1.307,0,0,0-1.235.7,4.777,4.777,0,0,0-.415,2.129V-5.41a5.11,5.11,0,0,0,.4,2.329,1.343,1.343,0,0,0,1.27.737,1.325,1.325,0,0,0,1.24-.718,4.878,4.878,0,0,0,.41-2.251Zm7.09,5.635a1.874,1.874,0,0,1,1.3.464,1.522,1.522,0,0,1,.518,1.187,1.522,1.522,0,0,1-.518,1.187,1.874,1.874,0,0,1-1.3.464,1.858,1.858,0,0,1-1.3-.469,1.533,1.533,0,0,1-.513-1.182,1.533,1.533,0,0,1,.513-1.182A1.858,1.858,0,0,1,225.361-3.193Zm13.828-2.617A6.789,6.789,0,0,1,237.9-1.367,4.471,4.471,0,0,1,234.248.2a4.5,4.5,0,0,1-3.672-1.572,6.779,6.779,0,0,1-1.3-4.434v-2.6a6.789,6.789,0,0,1,1.294-4.443,4.483,4.483,0,0,1,3.657-1.562,4.484,4.484,0,0,1,3.662,1.572,6.8,6.8,0,0,1,1.3,4.443ZM235.9-8.828a5.071,5.071,0,0,0-.4-2.29,1.338,1.338,0,0,0-1.27-.757,1.307,1.307,0,0,0-1.235.7,4.777,4.777,0,0,0-.415,2.129V-5.41a5.11,5.11,0,0,0,.4,2.329,1.343,1.343,0,0,0,1.27.737,1.325,1.325,0,0,0,1.24-.718,4.878,4.878,0,0,0,.41-2.251Zm14.873,3.018a6.789,6.789,0,0,1-1.294,4.443A4.471,4.471,0,0,1,245.83.2a4.5,4.5,0,0,1-3.672-1.572,6.779,6.779,0,0,1-1.3-4.434v-2.6a6.789,6.789,0,0,1,1.294-4.443,4.483,4.483,0,0,1,3.657-1.562,4.484,4.484,0,0,1,3.662,1.572,6.8,6.8,0,0,1,1.3,4.443ZM247.48-8.828a5.071,5.071,0,0,0-.4-2.29,1.338,1.338,0,0,0-1.27-.757,1.307,1.307,0,0,0-1.235.7,4.777,4.777,0,0,0-.415,2.129V-5.41a5.11,5.11,0,0,0,.4,2.329,1.343,1.343,0,0,0,1.27.737,1.325,1.325,0,0,0,1.24-.718,4.878,4.878,0,0,0,.41-2.251Zm14.873,3.018a6.789,6.789,0,0,1-1.294,4.443A4.471,4.471,0,0,1,257.412.2a4.5,4.5,0,0,1-3.672-1.572,6.779,6.779,0,0,1-1.3-4.434v-2.6a6.789,6.789,0,0,1,1.294-4.443,4.483,4.483,0,0,1,3.657-1.562,4.484,4.484,0,0,1,3.662,1.572,6.8,6.8,0,0,1,1.3,4.443Zm-3.291-3.018a5.071,5.071,0,0,0-.4-2.29,1.338,1.338,0,0,0-1.27-.757,1.307,1.307,0,0,0-1.235.7,4.777,4.777,0,0,0-.415,2.129V-5.41a5.11,5.11,0,0,0,.4,2.329,1.343,1.343,0,0,0,1.27.737,1.325,1.325,0,0,0,1.24-.718,4.878,4.878,0,0,0,.41-2.251Z" transform="translate(328 2917)" fill="#12263f"/>
        <path id="Trazado_148444" data-name="Trazado 148444" d="M7.422-3.77A1.788,1.788,0,0,0,7.041-4.98,3.557,3.557,0,0,0,5.7-5.811Q4.746-6.2,3.936-6.6a6.131,6.131,0,0,1-1.4-.928,3.645,3.645,0,0,1-.9-1.221,4.072,4.072,0,0,1-.312-1.68,3.608,3.608,0,0,1,1.113-2.72A4.791,4.791,0,0,1,5.41-14.395v-2.061H6.963v2.1a4.361,4.361,0,0,1,2.808,1.47,4.575,4.575,0,0,1,1.021,3.062H7.49A2.663,2.663,0,0,0,7.1-11.387a1.286,1.286,0,0,0-1.113-.547,1.263,1.263,0,0,0-1,.405,1.635,1.635,0,0,0-.356,1.118,1.582,1.582,0,0,0,.41,1.147,4.04,4.04,0,0,0,1.318.811q.908.386,1.714.8a6.552,6.552,0,0,1,1.392.942,3.857,3.857,0,0,1,.918,1.23,3.929,3.929,0,0,1,.332,1.689,3.678,3.678,0,0,1-1.06,2.725A4.561,4.561,0,0,1,6.768.166V2.129H5.215V.156A4.967,4.967,0,0,1,1.948-1.3,4.618,4.618,0,0,1,.811-4.561H4.1a2.554,2.554,0,0,0,.493,1.694A1.737,1.737,0,0,0,6-2.285a1.383,1.383,0,0,0,1.045-.4A1.5,1.5,0,0,0,7.422-3.77ZM24.727,0h-3.3V-10.508l-3.242.947v-2.5l6.24-2.158h.3ZM36.309,0h-3.3V-10.508l-3.242.947v-2.5l6.24-2.158h.3Zm4.482-6.945.869-7.273h8.311v2.559H44.336l-.322,2.825a3.882,3.882,0,0,1,.923-.363,4.211,4.211,0,0,1,1.118-.157A4.171,4.171,0,0,1,49.312-8.1,5.055,5.055,0,0,1,50.449-4.58a5.046,5.046,0,0,1-.61,2.476A4.2,4.2,0,0,1,48.125-.4a5.411,5.411,0,0,1-2.607.6,5.822,5.822,0,0,1-2.51-.551,4.5,4.5,0,0,1-1.836-1.512,3.675,3.675,0,0,1-.654-2.171h3.3a1.867,1.867,0,0,0,.5,1.238,1.581,1.581,0,0,0,1.182.458q1.66,0,1.66-2.456,0-2.271-2.031-2.271a2.027,2.027,0,0,0-1.719.741ZM54.268-3.193a1.874,1.874,0,0,1,1.3.464,1.522,1.522,0,0,1,.518,1.187,1.522,1.522,0,0,1-.518,1.187,1.874,1.874,0,0,1-1.3.464,1.858,1.858,0,0,1-1.3-.469,1.533,1.533,0,0,1-.513-1.182,1.533,1.533,0,0,1,.513-1.182A1.858,1.858,0,0,1,54.268-3.193Zm13.838-9.268L62.793,0H59.316l5.322-11.68H57.861v-2.539H68.105ZM76.289-5.5a3.476,3.476,0,0,1-2.383.957A3.847,3.847,0,0,1,70.84-5.85a5.156,5.156,0,0,1-1.133-3.5,5.247,5.247,0,0,1,.635-2.539,4.763,4.763,0,0,1,1.782-1.855,4.859,4.859,0,0,1,2.534-.684,4.717,4.717,0,0,1,2.544.708,4.767,4.767,0,0,1,1.772,2,6.877,6.877,0,0,1,.654,2.983v1.26a8.548,8.548,0,0,1-.923,4.082A6.371,6.371,0,0,1,76.074-.732,8.224,8.224,0,0,1,72.09.2h-.205V-2.441l.625-.01Q75.908-2.617,76.289-5.5ZM74.795-6.914a1.6,1.6,0,0,0,1.543-.928V-9.209a3.555,3.555,0,0,0-.459-2.021,1.44,1.44,0,0,0-1.24-.654,1.361,1.361,0,0,0-1.162.742,3.3,3.3,0,0,0-.469,1.8,2.956,2.956,0,0,0,.479,1.772A1.531,1.531,0,0,0,74.795-6.914Zm14.541-7.51v2.588h-.146a4.941,4.941,0,0,0-3.032.884A3.732,3.732,0,0,0,84.7-8.5,3.848,3.848,0,0,1,87.51-9.59a3.59,3.59,0,0,1,2.939,1.348,5.436,5.436,0,0,1,1.094,3.535,4.977,4.977,0,0,1-.64,2.49A4.564,4.564,0,0,1,89.116-.444,5.135,5.135,0,0,1,86.572.2a5.307,5.307,0,0,1-2.705-.688,4.733,4.733,0,0,1-1.855-1.968,6.48,6.48,0,0,1-.684-2.949V-6.729a8.208,8.208,0,0,1,.942-3.95,6.832,6.832,0,0,1,2.69-2.749,7.692,7.692,0,0,1,3.877-1ZM86.367-7.07a1.883,1.883,0,0,0-1.094.3,1.922,1.922,0,0,0-.654.742v.986q0,2.7,1.865,2.7a1.513,1.513,0,0,0,1.255-.674,2.746,2.746,0,0,0,.5-1.689,2.7,2.7,0,0,0-.513-1.7A1.64,1.64,0,0,0,86.367-7.07Zm8.691,3.877a1.874,1.874,0,0,1,1.3.464,1.522,1.522,0,0,1,.518,1.187,1.522,1.522,0,0,1-.518,1.187,1.874,1.874,0,0,1-1.3.464,1.858,1.858,0,0,1-1.3-.469,1.533,1.533,0,0,1-.513-1.182,1.533,1.533,0,0,1,.513-1.182A1.858,1.858,0,0,1,95.059-3.193ZM108.6-10.42a3.283,3.283,0,0,1-.513,1.826,3.734,3.734,0,0,1-1.411,1.27,4.109,4.109,0,0,1,1.611,1.362,3.515,3.515,0,0,1,.6,2.046,3.721,3.721,0,0,1-1.313,3.008A5.454,5.454,0,0,1,103.955.2,5.554,5.554,0,0,1,100.3-.913a3.7,3.7,0,0,1-1.338-3,3.56,3.56,0,0,1,.586-2.021,3.984,3.984,0,0,1,1.66-1.387,3.755,3.755,0,0,1-1.426-1.27,3.26,3.26,0,0,1-.518-1.826,3.648,3.648,0,0,1,1.26-2.93,5.064,5.064,0,0,1,3.4-1.074,5.1,5.1,0,0,1,3.418,1.074A3.648,3.648,0,0,1,108.6-10.42Zm-3.018,6.24a1.877,1.877,0,0,0-.454-1.353,1.581,1.581,0,0,0-1.2-.474,1.6,1.6,0,0,0-1.2.474,1.865,1.865,0,0,0-.459,1.353,1.881,1.881,0,0,0,.464,1.343,1.592,1.592,0,0,0,1.216.493,1.53,1.53,0,0,0,1.182-.488A1.915,1.915,0,0,0,105.586-4.18Zm-1.66-7.705a1.216,1.216,0,0,0-1.011.435,1.886,1.886,0,0,0-.347,1.206,2,2,0,0,0,.352,1.23,1.213,1.213,0,0,0,1.035.469,1.163,1.163,0,0,0,1.011-.469,2.062,2.062,0,0,0,.337-1.23,1.89,1.89,0,0,0-.347-1.2A1.233,1.233,0,0,0,103.926-11.885Zm16.543,6.074a6.789,6.789,0,0,1-1.294,4.443A4.471,4.471,0,0,1,115.527.2a4.5,4.5,0,0,1-3.672-1.572,6.779,6.779,0,0,1-1.3-4.434v-2.6a6.789,6.789,0,0,1,1.294-4.443,4.483,4.483,0,0,1,3.657-1.562,4.484,4.484,0,0,1,3.662,1.572,6.8,6.8,0,0,1,1.3,4.443Zm-3.291-3.018a5.071,5.071,0,0,0-.4-2.29,1.338,1.338,0,0,0-1.27-.757,1.307,1.307,0,0,0-1.235.7,4.777,4.777,0,0,0-.415,2.129V-5.41a5.109,5.109,0,0,0,.4,2.329,1.343,1.343,0,0,0,1.27.737,1.325,1.325,0,0,0,1.24-.718,4.878,4.878,0,0,0,.41-2.251Zm14.873,3.018a6.789,6.789,0,0,1-1.294,4.443A4.471,4.471,0,0,1,127.109.2a4.5,4.5,0,0,1-3.672-1.572,6.779,6.779,0,0,1-1.3-4.434v-2.6a6.789,6.789,0,0,1,1.294-4.443,4.483,4.483,0,0,1,3.657-1.562,4.484,4.484,0,0,1,3.662,1.572,6.8,6.8,0,0,1,1.3,4.443ZM128.76-8.828a5.071,5.071,0,0,0-.4-2.29,1.338,1.338,0,0,0-1.27-.757,1.307,1.307,0,0,0-1.235.7,4.777,4.777,0,0,0-.415,2.129V-5.41a5.109,5.109,0,0,0,.4,2.329,1.343,1.343,0,0,0,1.27.737,1.325,1.325,0,0,0,1.24-.718,4.878,4.878,0,0,0,.41-2.251Z" transform="translate(398 2948)" fill="#12263f"/>
      </g>
    </g>
    <g id="Grupo_93081" data-name="Grupo 93081" transform="translate(-2735 357)">
      <rect id="Rectángulo_31816-3" data-name="Rectángulo 31816" width="393" height="131" transform="translate(319 2859)" fill="#6595bf"/>
      <g id="Grupo_89142-3" data-name="Grupo 89142" transform="translate(224 2852)">
        <rect id="Rectángulo_31778-3" data-name="Rectángulo 31778" width="401.973" height="132.775" transform="translate(81.613)" fill="#fff" stroke="#12263f" stroke-miterlimit="10" stroke-width="1"/>
      </g>
      <g id="Grupo_89143-3" data-name="Grupo 89143" transform="translate(118 -5)">
        <path id="Trazado_148445" data-name="Trazado 148445" d="M4.5-4.824V0H1.074V-14.219H6.748a6.608,6.608,0,0,1,2.886.6,4.526,4.526,0,0,1,1.943,1.709,4.667,4.667,0,0,1,.688,2.515,4.114,4.114,0,0,1-1.489,3.325A6.179,6.179,0,0,1,6.689-4.824Zm0-2.646H6.748a2.118,2.118,0,0,0,1.519-.5,1.85,1.85,0,0,0,.522-1.406,2.287,2.287,0,0,0-.537-1.592,1.9,1.9,0,0,0-1.465-.605H4.5Zm15.83-.117-1.084-.078a1.947,1.947,0,0,0-1.992.977V0H13.965V-10.566h3.086l.107,1.357a2.548,2.548,0,0,1,2.314-1.553,3.209,3.209,0,0,1,.918.117Zm7.48,6.445A3.393,3.393,0,0,1,24.99.2,3.328,3.328,0,0,1,22.358-.815a4.251,4.251,0,0,1-.894-2.905v-6.846h3.291V-3.7a1.183,1.183,0,0,0,1.318,1.357,1.72,1.72,0,0,0,1.611-.811v-7.412H31V0H27.91ZM37.91.2a5.432,5.432,0,0,1-3.936-1.45,5.008,5.008,0,0,1-1.5-3.774V-5.3a6.489,6.489,0,0,1,.6-2.861,4.395,4.395,0,0,1,1.753-1.919,5.292,5.292,0,0,1,2.734-.679A4.574,4.574,0,0,1,41.074-9.38a5.43,5.43,0,0,1,1.289,3.853v1.279H35.82a2.372,2.372,0,0,0,.771,1.4,2.3,2.3,0,0,0,1.543.508,2.958,2.958,0,0,0,2.441-1.094l1.5,1.777A4.2,4.2,0,0,1,40.337-.308,5.891,5.891,0,0,1,37.91.2Zm-.371-8.418q-1.445,0-1.719,1.914h3.32v-.254a1.63,1.63,0,0,0-.4-1.226A1.593,1.593,0,0,0,37.539-8.223ZM53.5-5.2A6.44,6.44,0,0,1,52.422-1.2,3.6,3.6,0,0,1,49.395.2a3.122,3.122,0,0,1-2.6-1.279L46.66,0H43.711V-15H47v5.283a3.013,3.013,0,0,1,2.373-1.045,3.6,3.6,0,0,1,3.047,1.416A6.473,6.473,0,0,1,53.5-5.361Zm-3.3-.21a4.3,4.3,0,0,0-.405-2.169,1.366,1.366,0,0,0-1.245-.648A1.576,1.576,0,0,0,47-7.374v4.192a1.585,1.585,0,0,0,1.563.838,1.4,1.4,0,0,0,1.475-1.131A8.121,8.121,0,0,0,50.2-5.405ZM60.9,0a3.716,3.716,0,0,1-.312-.947A3.06,3.06,0,0,1,58.047.2a3.749,3.749,0,0,1-2.539-.9,2.875,2.875,0,0,1-1.045-2.271,2.955,2.955,0,0,1,1.27-2.6,6.468,6.468,0,0,1,3.691-.879h1.016v-.559q0-1.462-1.26-1.462a1.03,1.03,0,0,0-1.172,1.158H54.717a2.95,2.95,0,0,1,1.3-2.487,5.479,5.479,0,0,1,3.325-.956,4.8,4.8,0,0,1,3.193.986,3.429,3.429,0,0,1,1.2,2.705v4.678a4.79,4.79,0,0,0,.449,2.227V0ZM58.838-2.148a1.836,1.836,0,0,0,1.021-.264,1.653,1.653,0,0,0,.581-.6V-4.7h-.957q-1.719,0-1.719,1.543a.942.942,0,0,0,.3.728A1.1,1.1,0,0,0,58.838-2.148ZM76.494,0a3.716,3.716,0,0,1-.312-.947A3.06,3.06,0,0,1,73.643.2a3.749,3.749,0,0,1-2.539-.9,2.875,2.875,0,0,1-1.045-2.271,2.955,2.955,0,0,1,1.27-2.6,6.468,6.468,0,0,1,3.691-.879h1.016v-.559q0-1.462-1.26-1.462A1.03,1.03,0,0,0,73.6-7.319H70.313a2.95,2.95,0,0,1,1.3-2.487,5.479,5.479,0,0,1,3.325-.956,4.8,4.8,0,0,1,3.193.986,3.429,3.429,0,0,1,1.2,2.705v4.678a4.79,4.79,0,0,0,.449,2.227V0ZM74.434-2.148a1.836,1.836,0,0,0,1.021-.264,1.653,1.653,0,0,0,.581-.6V-4.7h-.957q-1.719,0-1.719,1.543a.942.942,0,0,0,.3.728A1.1,1.1,0,0,0,74.434-2.148ZM75.254-15H78.73l-2.715,3.066-2.686,0ZM85.625-2.344A1.464,1.464,0,0,0,86.7-2.72a1.379,1.379,0,0,0,.371-1.05h3.086A3.653,3.653,0,0,1,88.911-.918,4.631,4.631,0,0,1,85.7.2,4.689,4.689,0,0,1,82.07-1.25a5.7,5.7,0,0,1-1.328-4v-.137a6.436,6.436,0,0,1,.591-2.827,4.3,4.3,0,0,1,1.7-1.885,5.081,5.081,0,0,1,2.637-.659,4.573,4.573,0,0,1,3.271,1.143,4.053,4.053,0,0,1,1.211,3.1H87.07a1.806,1.806,0,0,0-.4-1.26A1.382,1.382,0,0,0,85.6-8.223q-1.279,0-1.494,1.631a11.508,11.508,0,0,0-.068,1.426,4.52,4.52,0,0,0,.381,2.207A1.319,1.319,0,0,0,85.625-2.344ZM95.02,0h-3.3V-10.566h3.3Zm-3.5-13.291a1.469,1.469,0,0,1,.508-1.152,1.916,1.916,0,0,1,1.318-.449,1.916,1.916,0,0,1,1.318.449,1.469,1.469,0,0,1,.508,1.152,1.469,1.469,0,0,1-.508,1.152,1.916,1.916,0,0,1-1.318.449,1.916,1.916,0,0,1-1.318-.449A1.469,1.469,0,0,1,91.523-13.291Zm5.107,7.93a6.455,6.455,0,0,1,1.084-3.955,3.568,3.568,0,0,1,3.027-1.445,3.035,3.035,0,0,1,2.383,1.113V-15h3.3V0h-2.959L103.3-1.133A3.116,3.116,0,0,1,100.723.2,3.562,3.562,0,0,1,97.734-1.25,6.659,6.659,0,0,1,96.631-5.361Zm3.291.205q0,2.813,1.641,2.813a1.62,1.62,0,0,0,1.563-.918V-7.285a1.576,1.576,0,0,0-1.543-.937q-1.523,0-1.65,2.461ZM114.248,0a3.716,3.716,0,0,1-.312-.947A3.06,3.06,0,0,1,111.4.2a3.749,3.749,0,0,1-2.539-.9,2.875,2.875,0,0,1-1.045-2.271,2.955,2.955,0,0,1,1.27-2.6,6.468,6.468,0,0,1,3.691-.879h1.016v-.559q0-1.462-1.26-1.462a1.03,1.03,0,0,0-1.172,1.158h-3.291a2.95,2.95,0,0,1,1.3-2.487,5.479,5.479,0,0,1,3.325-.956,4.8,4.8,0,0,1,3.193.986,3.429,3.429,0,0,1,1.2,2.705v4.678a4.79,4.79,0,0,0,.449,2.227V0Zm-2.061-2.148a1.836,1.836,0,0,0,1.021-.264,1.653,1.653,0,0,0,.581-.6V-4.7h-.957q-1.719,0-1.719,1.543a.942.942,0,0,0,.3.728A1.1,1.1,0,0,0,112.188-2.148Zm21.074-4.9h-9.043V-9.59h9.043Zm0,4.287h-9.043V-5.3h9.043ZM145.42-5.811a6.789,6.789,0,0,1-1.294,4.443A4.471,4.471,0,0,1,140.479.2a4.5,4.5,0,0,1-3.672-1.572,6.779,6.779,0,0,1-1.3-4.434v-2.6a6.789,6.789,0,0,1,1.294-4.443,4.483,4.483,0,0,1,3.657-1.562,4.484,4.484,0,0,1,3.662,1.572,6.8,6.8,0,0,1,1.3,4.443Zm-3.291-3.018a5.071,5.071,0,0,0-.4-2.29,1.338,1.338,0,0,0-1.27-.757,1.307,1.307,0,0,0-1.235.7,4.777,4.777,0,0,0-.415,2.129V-5.41a5.11,5.11,0,0,0,.4,2.329,1.343,1.343,0,0,0,1.27.737,1.325,1.325,0,0,0,1.24-.718,4.878,4.878,0,0,0,.41-2.251ZM148.34,3.828l-1.66-.781.332-.664a5.416,5.416,0,0,0,.713-2.422V-2.48h2.637l-.01,2.119a5.3,5.3,0,0,1-.576,2.285A5.806,5.806,0,0,1,148.34,3.828Zm12.871-9.385h1.445v2.539h-1.445V0H157.92V-3.018h-5.5l-.2-2.012,5.693-9.16v-.029h3.291Zm-5.85,0h2.559V-9.932l-.205.332Zm15.225.059a3.476,3.476,0,0,1-2.383.957,3.847,3.847,0,0,1-3.066-1.309A5.156,5.156,0,0,1,164-9.346a5.247,5.247,0,0,1,.635-2.539,4.763,4.763,0,0,1,1.782-1.855,4.859,4.859,0,0,1,2.534-.684,4.717,4.717,0,0,1,2.544.708,4.767,4.767,0,0,1,1.772,2,6.877,6.877,0,0,1,.654,2.983v1.26A8.548,8.548,0,0,1,173-3.389a6.371,6.371,0,0,1-2.632,2.656A8.224,8.224,0,0,1,166.387.2h-.205V-2.441l.625-.01Q170.205-2.617,170.586-5.5Zm-1.494-1.416a1.6,1.6,0,0,0,1.543-.928V-9.209a3.555,3.555,0,0,0-.459-2.021,1.44,1.44,0,0,0-1.24-.654,1.361,1.361,0,0,0-1.162.742,3.3,3.3,0,0,0-.469,1.8,2.956,2.956,0,0,0,.479,1.772A1.531,1.531,0,0,0,169.092-6.914Z" transform="translate(308 2937)" fill="#12263f"/>
      </g>
    </g>
  </g>
</svg>
