<svg xmlns="http://www.w3.org/2000/svg" width="676.063" height="452.5" viewBox="0 0 676.063 452.5">
  <g id="Grupo_93103" data-name="Grupo 93103" transform="translate(5099.5 -7393.5)">
    <g id="Grupo_93100" data-name="Grupo 93100" transform="translate(-5217.438 4542)">
      <rect id="Rectángulo_31816" data-name="Rectángulo 31816" width="663" height="131" transform="translate(131 2859)" fill="#6595bf"/>
      <g id="Grupo_89142" data-name="Grupo 89142" transform="translate(224 2852)">
        <rect id="Rectángulo_31778" data-name="Rectángulo 31778" width="670.762" height="132.775" transform="translate(-105.563)" fill="#fff" stroke="#12263f" stroke-miterlimit="10" stroke-width="1"/>
      </g>
      <g id="Grupo_89143" data-name="Grupo 89143" transform="translate(141 -5)">
        <path id="Trazado_148482" data-name="Trazado 148482" d="M6.357-5.029H4.5V0H1.074V-14.219h5.6A6.246,6.246,0,0,1,10.625-13.1a3.8,3.8,0,0,1,1.426,3.17,4.616,4.616,0,0,1-.6,2.458,4.263,4.263,0,0,1-1.88,1.58L12.539-.147V0H8.867ZM4.5-7.666H6.67A1.946,1.946,0,0,0,8.14-8.18a1.987,1.987,0,0,0,.493-1.434,2.01,2.01,0,0,0-.5-1.444,1.928,1.928,0,0,0-1.465-.524H4.5ZM19.922,0a3.716,3.716,0,0,1-.312-.947A3.06,3.06,0,0,1,17.07.2a3.749,3.749,0,0,1-2.539-.9,2.875,2.875,0,0,1-1.045-2.271,2.955,2.955,0,0,1,1.27-2.6,6.468,6.468,0,0,1,3.691-.879h1.016v-.559q0-1.462-1.26-1.462a1.03,1.03,0,0,0-1.172,1.158H13.74a2.95,2.95,0,0,1,1.3-2.487,5.479,5.479,0,0,1,3.325-.956,4.8,4.8,0,0,1,3.193.986,3.429,3.429,0,0,1,1.2,2.705v4.678a4.79,4.79,0,0,0,.449,2.227V0ZM17.861-2.148a1.836,1.836,0,0,0,1.021-.264,1.653,1.653,0,0,0,.581-.6V-4.7h-.957q-1.719,0-1.719,1.543a.942.942,0,0,0,.3.728A1.1,1.1,0,0,0,17.861-2.148Zm10.605-.391h4.814V0H24.307V-1.836l4.688-6.191H24.512v-2.539h8.662v1.777Zm6-2.842A6.236,6.236,0,0,1,35.078-8.2a4.4,4.4,0,0,1,1.768-1.9,5.323,5.323,0,0,1,2.705-.664,4.858,4.858,0,0,1,3.74,1.47,5.64,5.64,0,0,1,1.367,4v.117a5.472,5.472,0,0,1-1.372,3.921A4.871,4.871,0,0,1,39.57.2a4.927,4.927,0,0,1-3.623-1.353,5.29,5.29,0,0,1-1.475-3.667Zm3.291.205a3.932,3.932,0,0,0,.459,2.148,1.529,1.529,0,0,0,1.357.684q1.758,0,1.8-2.705v-.332q0-2.842-1.816-2.842-1.65,0-1.787,2.451ZM40-15h3.477l-2.715,3.066-2.686,0Zm9.131,4.434.107,1.24a3.583,3.583,0,0,1,3.018-1.436,3.015,3.015,0,0,1,2.466.986,4.7,4.7,0,0,1,.845,2.969V0h-3.3V-6.67a1.783,1.783,0,0,0-.322-1.177,1.491,1.491,0,0,0-1.172-.376,1.569,1.569,0,0,0-1.436.762V0H46.045V-10.566ZM61.953-5.361a6.455,6.455,0,0,1,1.084-3.955,3.568,3.568,0,0,1,3.027-1.445,3.035,3.035,0,0,1,2.383,1.113V-15h3.3V0H68.789l-.166-1.133A3.116,3.116,0,0,1,66.045.2,3.562,3.562,0,0,1,63.057-1.25,6.659,6.659,0,0,1,61.953-5.361Zm3.291.205q0,2.813,1.641,2.813a1.62,1.62,0,0,0,1.563-.918V-7.285A1.576,1.576,0,0,0,66.9-8.223q-1.523,0-1.65,2.461ZM78.73.2a5.432,5.432,0,0,1-3.936-1.45,5.008,5.008,0,0,1-1.5-3.774V-5.3a6.489,6.489,0,0,1,.6-2.861,4.395,4.395,0,0,1,1.753-1.919,5.292,5.292,0,0,1,2.734-.679A4.574,4.574,0,0,1,81.895-9.38a5.43,5.43,0,0,1,1.289,3.853v1.279H76.641a2.372,2.372,0,0,0,.771,1.4,2.3,2.3,0,0,0,1.543.508A2.958,2.958,0,0,0,81.4-3.437L82.9-1.66A4.2,4.2,0,0,1,81.157-.308,5.891,5.891,0,0,1,78.73.2Zm-.371-8.418q-1.445,0-1.719,1.914h3.32v-.254a1.63,1.63,0,0,0-.4-1.226A1.593,1.593,0,0,0,78.359-8.223Zm15.6,5.879a1.464,1.464,0,0,0,1.074-.376A1.379,1.379,0,0,0,95.4-3.77h3.086A3.653,3.653,0,0,1,97.241-.918,4.631,4.631,0,0,1,94.033.2,4.689,4.689,0,0,1,90.4-1.25a5.7,5.7,0,0,1-1.328-4v-.137a6.436,6.436,0,0,1,.591-2.827,4.3,4.3,0,0,1,1.7-1.885A5.081,5.081,0,0,1,94-10.762a4.573,4.573,0,0,1,3.271,1.143,4.053,4.053,0,0,1,1.211,3.1H95.4a1.806,1.806,0,0,0-.4-1.26,1.382,1.382,0,0,0-1.074-.439q-1.279,0-1.494,1.631a11.508,11.508,0,0,0-.068,1.426,4.52,4.52,0,0,0,.381,2.207A1.319,1.319,0,0,0,93.955-2.344Zm5.508-3.037a6.236,6.236,0,0,1,.615-2.817,4.4,4.4,0,0,1,1.768-1.9,5.323,5.323,0,0,1,2.705-.664,4.858,4.858,0,0,1,3.74,1.47,5.64,5.64,0,0,1,1.367,4v.117a5.472,5.472,0,0,1-1.372,3.921A4.871,4.871,0,0,1,104.57.2a4.927,4.927,0,0,1-3.623-1.353,5.29,5.29,0,0,1-1.475-3.667Zm3.291.205a3.932,3.932,0,0,0,.459,2.148,1.529,1.529,0,0,0,1.357.684q1.758,0,1.8-2.705v-.332q0-2.842-1.816-2.842-1.65,0-1.787,2.451Zm18.164-.02A6.44,6.44,0,0,1,119.844-1.2,3.6,3.6,0,0,1,116.816.2a3.122,3.122,0,0,1-2.6-1.279L114.082,0h-2.949V-15h3.291v5.283a3.013,3.013,0,0,1,2.373-1.045,3.6,3.6,0,0,1,3.047,1.416,6.473,6.473,0,0,1,1.074,3.984Zm-3.3-.21a4.3,4.3,0,0,0-.405-2.169,1.366,1.366,0,0,0-1.245-.648,1.576,1.576,0,0,0-1.543.848v4.192a1.585,1.585,0,0,0,1.563.838,1.4,1.4,0,0,0,1.475-1.131A8.121,8.121,0,0,0,117.617-5.405ZM127.48.2a5.432,5.432,0,0,1-3.936-1.45,5.008,5.008,0,0,1-1.5-3.774V-5.3a6.489,6.489,0,0,1,.6-2.861,4.395,4.395,0,0,1,1.753-1.919,5.292,5.292,0,0,1,2.734-.679,4.574,4.574,0,0,1,3.516,1.382,5.43,5.43,0,0,1,1.289,3.853v1.279h-6.543a2.372,2.372,0,0,0,.771,1.4,2.3,2.3,0,0,0,1.543.508,2.958,2.958,0,0,0,2.441-1.094l1.5,1.777a4.2,4.2,0,0,1-1.743,1.353A5.891,5.891,0,0,1,127.48.2Zm-.371-8.418q-1.445,0-1.719,1.914h3.32v-.254a1.63,1.63,0,0,0-.4-1.226A1.593,1.593,0,0,0,127.109-8.223Zm12.539.635-1.084-.078a1.947,1.947,0,0,0-1.992.977V0h-3.291V-10.566h3.086l.107,1.357a2.548,2.548,0,0,1,2.314-1.553,3.209,3.209,0,0,1,.918.117Zm5.508-5.605v2.627h1.738v2.285h-1.738v4.834a1.234,1.234,0,0,0,.215.83,1.152,1.152,0,0,0,.85.234,4.828,4.828,0,0,0,.82-.059V-.088A6.074,6.074,0,0,1,145.186.2a3.448,3.448,0,0,1-2.51-.8,3.282,3.282,0,0,1-.811-2.432V-8.281h-1.348v-2.285h1.348v-2.627Zm9.326,12.051A3.393,3.393,0,0,1,151.66.2a3.328,3.328,0,0,1-2.632-1.011,4.251,4.251,0,0,1-.894-2.905v-6.846h3.291V-3.7a1.183,1.183,0,0,0,1.318,1.357,1.72,1.72,0,0,0,1.611-.811v-7.412h3.311V0H154.58Zm11.377-6.445-1.084-.078a1.947,1.947,0,0,0-1.992.977V0h-3.291V-10.566h3.086l.107,1.357A2.548,2.548,0,0,1,165-10.762a3.209,3.209,0,0,1,.918.117ZM172.705,0a3.716,3.716,0,0,1-.312-.947A3.06,3.06,0,0,1,169.854.2a3.749,3.749,0,0,1-2.539-.9,2.875,2.875,0,0,1-1.045-2.271,2.955,2.955,0,0,1,1.27-2.6,6.468,6.468,0,0,1,3.691-.879h1.016v-.559q0-1.462-1.26-1.462a1.03,1.03,0,0,0-1.172,1.158h-3.291a2.95,2.95,0,0,1,1.3-2.487,5.479,5.479,0,0,1,3.325-.956,4.8,4.8,0,0,1,3.193.986,3.429,3.429,0,0,1,1.2,2.705v4.678A4.79,4.79,0,0,0,176-.166V0Zm-2.061-2.148a1.836,1.836,0,0,0,1.021-.264,1.652,1.652,0,0,0,.581-.6V-4.7h-.957q-1.719,0-1.719,1.543a.942.942,0,0,0,.3.728A1.1,1.1,0,0,0,170.645-2.148Zm11.289-3.213a6.455,6.455,0,0,1,1.084-3.955,3.568,3.568,0,0,1,3.027-1.445,3.035,3.035,0,0,1,2.383,1.113V-15h3.3V0H188.77L188.6-1.133A3.116,3.116,0,0,1,186.025.2a3.562,3.562,0,0,1-2.988-1.445A6.659,6.659,0,0,1,181.934-5.361Zm3.291.205q0,2.813,1.641,2.813a1.62,1.62,0,0,0,1.563-.918V-7.285a1.576,1.576,0,0,0-1.543-.937q-1.523,0-1.65,2.461ZM198.711.2a5.432,5.432,0,0,1-3.936-1.45,5.008,5.008,0,0,1-1.5-3.774V-5.3a6.489,6.489,0,0,1,.6-2.861,4.395,4.395,0,0,1,1.753-1.919,5.292,5.292,0,0,1,2.734-.679,4.574,4.574,0,0,1,3.516,1.382,5.43,5.43,0,0,1,1.289,3.853v1.279h-6.543a2.372,2.372,0,0,0,.771,1.4,2.3,2.3,0,0,0,1.543.508,2.958,2.958,0,0,0,2.441-1.094l1.5,1.777a4.2,4.2,0,0,1-1.743,1.353A5.891,5.891,0,0,1,198.711.2Zm-.371-8.418q-1.445,0-1.719,1.914h3.32v-.254a1.63,1.63,0,0,0-.4-1.226A1.593,1.593,0,0,0,198.34-8.223ZM212.939,0h-3.3V-10.566h3.3Zm-3.5-13.291a1.469,1.469,0,0,1,.508-1.152,1.916,1.916,0,0,1,1.318-.449,1.916,1.916,0,0,1,1.318.449,1.469,1.469,0,0,1,.508,1.152,1.469,1.469,0,0,1-.508,1.152,1.916,1.916,0,0,1-1.318.449,1.916,1.916,0,0,1-1.318-.449A1.469,1.469,0,0,1,209.443-13.291Zm8.545,2.725.107,1.24a3.583,3.583,0,0,1,3.018-1.436,3.015,3.015,0,0,1,2.466.986,4.7,4.7,0,0,1,.845,2.969V0h-3.3V-6.67a1.783,1.783,0,0,0-.322-1.177,1.491,1.491,0,0,0-1.172-.376,1.569,1.569,0,0,0-1.436.762V0H214.9V-10.566Zm12.09-2.627v2.627h1.738v2.285h-1.738v4.834a1.234,1.234,0,0,0,.215.83,1.152,1.152,0,0,0,.85.234,4.828,4.828,0,0,0,.82-.059V-.088A6.074,6.074,0,0,1,230.107.2a3.448,3.448,0,0,1-2.51-.8,3.282,3.282,0,0,1-.811-2.432V-8.281h-1.348v-2.285h1.348v-2.627ZM238.223.2a5.432,5.432,0,0,1-3.936-1.45,5.008,5.008,0,0,1-1.5-3.774V-5.3a6.489,6.489,0,0,1,.6-2.861,4.395,4.395,0,0,1,1.753-1.919,5.292,5.292,0,0,1,2.734-.679,4.574,4.574,0,0,1,3.516,1.382,5.43,5.43,0,0,1,1.289,3.853v1.279h-6.543a2.372,2.372,0,0,0,.771,1.4,2.3,2.3,0,0,0,1.543.508,2.958,2.958,0,0,0,2.441-1.094l1.5,1.777a4.2,4.2,0,0,1-1.743,1.353A5.891,5.891,0,0,1,238.223.2Zm-.371-8.418q-1.445,0-1.719,1.914h3.32v-.254a1.63,1.63,0,0,0-.4-1.226A1.593,1.593,0,0,0,237.852-8.223Zm12.539.635-1.084-.078a1.947,1.947,0,0,0-1.992.977V0h-3.291V-10.566h3.086l.107,1.357a2.548,2.548,0,0,1,2.314-1.553,3.209,3.209,0,0,1,.918.117ZM256.689.2a5.432,5.432,0,0,1-3.936-1.45,5.008,5.008,0,0,1-1.5-3.774V-5.3a6.489,6.489,0,0,1,.6-2.861,4.395,4.395,0,0,1,1.753-1.919,5.292,5.292,0,0,1,2.734-.679,4.574,4.574,0,0,1,3.516,1.382,5.43,5.43,0,0,1,1.289,3.853v1.279H254.6a2.372,2.372,0,0,0,.771,1.4,2.3,2.3,0,0,0,1.543.508,2.958,2.958,0,0,0,2.441-1.094l1.5,1.777a4.2,4.2,0,0,1-1.743,1.353A5.891,5.891,0,0,1,256.689.2Zm-.371-8.418q-1.445,0-1.719,1.914h3.32v-.254a1.63,1.63,0,0,0-.4-1.226A1.593,1.593,0,0,0,256.318-8.223ZM268-2.969a.76.76,0,0,0-.439-.674,6.685,6.685,0,0,0-1.67-.527,7.615,7.615,0,0,1-2.031-.718,3.4,3.4,0,0,1-1.221-1.079,2.577,2.577,0,0,1-.42-1.455,2.92,2.92,0,0,1,1.2-2.4,4.948,4.948,0,0,1,3.145-.942,5.482,5.482,0,0,1,3.359.947,2.962,2.962,0,0,1,1.27,2.49h-3.3q0-1.27-1.338-1.27a1.326,1.326,0,0,0-.869.288.892.892,0,0,0-.352.718.819.819,0,0,0,.43.713,4.06,4.06,0,0,0,1.372.449,11.856,11.856,0,0,1,1.655.42,3.007,3.007,0,0,1,2.383,2.939,2.767,2.767,0,0,1-1.284,2.354A5.631,5.631,0,0,1,266.563.2a5.747,5.747,0,0,1-2.422-.488,4.05,4.05,0,0,1-1.66-1.328,3.007,3.007,0,0,1-.6-1.768h3.076a1.272,1.272,0,0,0,.488,1.069,2.009,2.009,0,0,0,1.2.337,1.58,1.58,0,0,0,1.011-.273A.875.875,0,0,0,268-2.969ZM277.822.2a5.432,5.432,0,0,1-3.936-1.45,5.008,5.008,0,0,1-1.5-3.774V-5.3a6.489,6.489,0,0,1,.6-2.861,4.395,4.395,0,0,1,1.753-1.919,5.292,5.292,0,0,1,2.734-.679,4.574,4.574,0,0,1,3.516,1.382,5.43,5.43,0,0,1,1.289,3.853v1.279h-6.543a2.372,2.372,0,0,0,.771,1.4,2.3,2.3,0,0,0,1.543.508,2.958,2.958,0,0,0,2.441-1.094l1.5,1.777a4.2,4.2,0,0,1-1.743,1.353A5.891,5.891,0,0,1,277.822.2Zm-.371-8.418q-1.445,0-1.719,1.914h3.32v-.254a1.63,1.63,0,0,0-.4-1.226A1.593,1.593,0,0,0,277.451-8.223Zm11.68,5.254a.76.76,0,0,0-.439-.674,6.685,6.685,0,0,0-1.67-.527,7.615,7.615,0,0,1-2.031-.718,3.4,3.4,0,0,1-1.221-1.079,2.577,2.577,0,0,1-.42-1.455,2.92,2.92,0,0,1,1.2-2.4,4.948,4.948,0,0,1,3.145-.942,5.482,5.482,0,0,1,3.359.947,2.962,2.962,0,0,1,1.27,2.49h-3.3q0-1.27-1.338-1.27a1.326,1.326,0,0,0-.869.288.892.892,0,0,0-.352.718.819.819,0,0,0,.43.713,4.06,4.06,0,0,0,1.372.449,11.856,11.856,0,0,1,1.655.42A3.007,3.007,0,0,1,292.3-3.066a2.767,2.767,0,0,1-1.284,2.354A5.631,5.631,0,0,1,287.7.2a5.747,5.747,0,0,1-2.422-.488,4.05,4.05,0,0,1-1.66-1.328,3.007,3.007,0,0,1-.6-1.768h3.076a1.272,1.272,0,0,0,.488,1.069,2.009,2.009,0,0,0,1.2.337,1.58,1.58,0,0,0,1.011-.273A.875.875,0,0,0,289.131-2.969Zm19.063-4.082H299.15V-9.59h9.043Zm0,4.287H299.15V-5.3h9.043Z" transform="translate(50 2937)" fill="#12263f"/>
        <text id="_" data-name="————————" transform="translate(377 2937)" fill="#12263f" font-size="29" font-family="Roboto-Black, Roboto" font-weight="800"><tspan x="0" y="0">————————</tspan></text>
        <path id="Trazado_148483" data-name="Trazado 148483" d="M12.227-14.219v9.307a5.349,5.349,0,0,1-.674,2.739A4.365,4.365,0,0,1,9.619-.41,6.812,6.812,0,0,1,6.641.2,5.885,5.885,0,0,1,2.549-1.152,4.806,4.806,0,0,1,1.025-4.844v-9.375H4.473v9.443q.059,2.334,2.168,2.334a2.1,2.1,0,0,0,1.611-.586,2.739,2.739,0,0,0,.547-1.9v-9.287Zm5.82,1.025v2.627h1.738v2.285H18.047v4.834a1.234,1.234,0,0,0,.215.83,1.152,1.152,0,0,0,.85.234,4.828,4.828,0,0,0,.82-.059V-.088A6.074,6.074,0,0,1,18.076.2a3.448,3.448,0,0,1-2.51-.8,3.282,3.282,0,0,1-.811-2.432V-8.281H13.408v-2.285h1.348v-2.627ZM24.551,0h-3.3V-10.566h3.3Zm-3.5-13.291a1.469,1.469,0,0,1,.508-1.152,1.916,1.916,0,0,1,1.318-.449,1.916,1.916,0,0,1,1.318.449,1.469,1.469,0,0,1,.508,1.152,1.469,1.469,0,0,1-.508,1.152,1.916,1.916,0,0,1-1.318.449,1.916,1.916,0,0,1-1.318-.449A1.469,1.469,0,0,1,21.055-13.291ZM30.049,0h-3.3V-15h3.3Zm5.5,0h-3.3V-10.566h3.3Zm-3.5-13.291a1.469,1.469,0,0,1,.508-1.152,1.916,1.916,0,0,1,1.318-.449,1.916,1.916,0,0,1,1.318.449,1.469,1.469,0,0,1,.508,1.152,1.469,1.469,0,0,1-.508,1.152,1.916,1.916,0,0,1-1.318.449,1.916,1.916,0,0,1-1.318-.449A1.469,1.469,0,0,1,32.051-13.291Zm5.107,7.93a6.455,6.455,0,0,1,1.084-3.955,3.568,3.568,0,0,1,3.027-1.445,3.035,3.035,0,0,1,2.383,1.113V-15h3.3V0H43.994l-.166-1.133A3.116,3.116,0,0,1,41.25.2,3.562,3.562,0,0,1,38.262-1.25,6.659,6.659,0,0,1,37.158-5.361Zm3.291.205q0,2.813,1.641,2.813a1.62,1.62,0,0,0,1.563-.918V-7.285a1.576,1.576,0,0,0-1.543-.937q-1.523,0-1.65,2.461ZM54.775,0a3.716,3.716,0,0,1-.312-.947A3.06,3.06,0,0,1,51.924.2a3.749,3.749,0,0,1-2.539-.9A2.875,2.875,0,0,1,48.34-2.979a2.955,2.955,0,0,1,1.27-2.6A6.468,6.468,0,0,1,53.3-6.455h1.016v-.559q0-1.462-1.26-1.462a1.03,1.03,0,0,0-1.172,1.158H48.594a2.95,2.95,0,0,1,1.3-2.487,5.479,5.479,0,0,1,3.325-.956,4.8,4.8,0,0,1,3.193.986,3.429,3.429,0,0,1,1.2,2.705v4.678a4.79,4.79,0,0,0,.449,2.227V0ZM52.715-2.148a1.836,1.836,0,0,0,1.021-.264,1.653,1.653,0,0,0,.581-.6V-4.7h-.957q-1.719,0-1.719,1.543a.942.942,0,0,0,.3.728A1.1,1.1,0,0,0,52.715-2.148Zm6.309-3.213a6.455,6.455,0,0,1,1.084-3.955,3.568,3.568,0,0,1,3.027-1.445,3.035,3.035,0,0,1,2.383,1.113V-15h3.3V0H65.859l-.166-1.133A3.116,3.116,0,0,1,63.115.2,3.562,3.562,0,0,1,60.127-1.25,6.659,6.659,0,0,1,59.023-5.361Zm3.291.205q0,2.813,1.641,2.813a1.62,1.62,0,0,0,1.563-.918V-7.285a1.576,1.576,0,0,0-1.543-.937q-1.523,0-1.65,2.461Zm12.939-.225A6.236,6.236,0,0,1,75.869-8.2a4.4,4.4,0,0,1,1.768-1.9,5.323,5.323,0,0,1,2.705-.664,4.858,4.858,0,0,1,3.74,1.47,5.64,5.64,0,0,1,1.367,4v.117a5.472,5.472,0,0,1-1.372,3.921A4.871,4.871,0,0,1,80.361.2a4.927,4.927,0,0,1-3.623-1.353,5.29,5.29,0,0,1-1.475-3.667Zm3.291.205A3.932,3.932,0,0,0,79-3.027a1.529,1.529,0,0,0,1.357.684q1.758,0,1.8-2.705v-.332q0-2.842-1.816-2.842-1.65,0-1.787,2.451Zm18.164-.029A6.372,6.372,0,0,1,95.6-1.274,3.554,3.554,0,0,1,92.607.2,3.046,3.046,0,0,1,90.215-.869V4.063H86.924V-10.566H90l.1.977a3.046,3.046,0,0,1,2.49-1.172,3.582,3.582,0,0,1,3.037,1.44,6.45,6.45,0,0,1,1.084,3.96ZM93.418-5.41q0-2.812-1.641-2.812a1.549,1.549,0,0,0-1.562.84v4.16a1.6,1.6,0,0,0,1.582.879q1.572,0,1.621-2.715ZM103.271.2a5.432,5.432,0,0,1-3.936-1.45,5.008,5.008,0,0,1-1.5-3.774V-5.3a6.489,6.489,0,0,1,.6-2.861,4.395,4.395,0,0,1,1.753-1.919,5.292,5.292,0,0,1,2.734-.679,4.574,4.574,0,0,1,3.516,1.382,5.43,5.43,0,0,1,1.289,3.853v1.279h-6.543a2.372,2.372,0,0,0,.771,1.4,2.3,2.3,0,0,0,1.543.508,2.958,2.958,0,0,0,2.441-1.094l1.5,1.777A4.2,4.2,0,0,1,105.7-.308,5.891,5.891,0,0,1,103.271.2ZM102.9-8.223q-1.445,0-1.719,1.914h3.32v-.254a1.63,1.63,0,0,0-.4-1.226A1.593,1.593,0,0,0,102.9-8.223Zm12.539.635-1.084-.078a1.947,1.947,0,0,0-1.992.977V0h-3.291V-10.566h3.086l.107,1.357a2.548,2.548,0,0,1,2.314-1.553,3.209,3.209,0,0,1,.918.117ZM122.285,0a3.716,3.716,0,0,1-.312-.947A3.06,3.06,0,0,1,119.434.2a3.749,3.749,0,0,1-2.539-.9,2.875,2.875,0,0,1-1.045-2.271,2.955,2.955,0,0,1,1.27-2.6,6.468,6.468,0,0,1,3.691-.879h1.016v-.559q0-1.462-1.26-1.462a1.03,1.03,0,0,0-1.172,1.158H116.1a2.95,2.95,0,0,1,1.3-2.487,5.479,5.479,0,0,1,3.325-.956,4.8,4.8,0,0,1,3.193.986,3.429,3.429,0,0,1,1.2,2.705v4.678a4.79,4.79,0,0,0,.449,2.227V0Zm-2.061-2.148a1.836,1.836,0,0,0,1.021-.264,1.653,1.653,0,0,0,.581-.6V-4.7h-.957q-1.719,0-1.719,1.543a.942.942,0,0,0,.3.728A1.1,1.1,0,0,0,120.225-2.148Zm11.191-.2a1.464,1.464,0,0,0,1.074-.376,1.379,1.379,0,0,0,.371-1.05h3.086A3.653,3.653,0,0,1,134.7-.918,4.631,4.631,0,0,1,131.494.2a4.689,4.689,0,0,1-3.633-1.445,5.7,5.7,0,0,1-1.328-4v-.137a6.436,6.436,0,0,1,.591-2.827,4.3,4.3,0,0,1,1.7-1.885,5.081,5.081,0,0,1,2.637-.659,4.573,4.573,0,0,1,3.271,1.143,4.053,4.053,0,0,1,1.211,3.1h-3.086a1.807,1.807,0,0,0-.4-1.26,1.382,1.382,0,0,0-1.074-.439q-1.279,0-1.494,1.631a11.507,11.507,0,0,0-.068,1.426,4.52,4.52,0,0,0,.381,2.207A1.319,1.319,0,0,0,131.416-2.344ZM140.811,0h-3.3V-10.566h3.3Zm-3.5-13.291a1.469,1.469,0,0,1,.508-1.152,1.916,1.916,0,0,1,1.318-.449,1.916,1.916,0,0,1,1.318.449,1.469,1.469,0,0,1,.508,1.152,1.469,1.469,0,0,1-.508,1.152,1.916,1.916,0,0,1-1.318.449,1.916,1.916,0,0,1-1.318-.449A1.469,1.469,0,0,1,137.314-13.291Zm5.107,7.91a6.236,6.236,0,0,1,.615-2.817,4.4,4.4,0,0,1,1.768-1.9,5.323,5.323,0,0,1,2.705-.664,4.858,4.858,0,0,1,3.74,1.47,5.64,5.64,0,0,1,1.367,4v.117a5.472,5.472,0,0,1-1.372,3.921A4.871,4.871,0,0,1,147.529.2a4.927,4.927,0,0,1-3.623-1.353,5.29,5.29,0,0,1-1.475-3.667Zm3.291.205a3.932,3.932,0,0,0,.459,2.148,1.529,1.529,0,0,0,1.357.684q1.758,0,1.8-2.705v-.332q0-2.842-1.816-2.842-1.65,0-1.787,2.451Zm11.377-5.391.107,1.24a3.583,3.583,0,0,1,3.018-1.436,3.015,3.015,0,0,1,2.466.986,4.7,4.7,0,0,1,.845,2.969V0h-3.3V-6.67a1.783,1.783,0,0,0-.322-1.177,1.491,1.491,0,0,0-1.172-.376,1.569,1.569,0,0,0-1.436.762V0H154V-10.566ZM171.3,0a3.716,3.716,0,0,1-.312-.947A3.06,3.06,0,0,1,168.447.2a3.749,3.749,0,0,1-2.539-.9,2.875,2.875,0,0,1-1.045-2.271,2.955,2.955,0,0,1,1.27-2.6,6.468,6.468,0,0,1,3.691-.879h1.016v-.559q0-1.462-1.26-1.462a1.03,1.03,0,0,0-1.172,1.158h-3.291a2.95,2.95,0,0,1,1.3-2.487,5.479,5.479,0,0,1,3.325-.956,4.8,4.8,0,0,1,3.193.986,3.429,3.429,0,0,1,1.2,2.705v4.678a4.79,4.79,0,0,0,.449,2.227V0Zm-2.061-2.148a1.836,1.836,0,0,0,1.021-.264,1.652,1.652,0,0,0,.581-.6V-4.7h-.957q-1.719,0-1.719,1.543a.942.942,0,0,0,.3.728A1.1,1.1,0,0,0,169.238-2.148ZM179.434,0h-3.3V-15h3.3Z" transform="translate(381 2919)" fill="#12263f"/>
        <path id="Trazado_148484" data-name="Trazado 148484" d="M4.727,0H1.309V-14.219H4.727ZM9.98-10.566l.107,1.24a3.583,3.583,0,0,1,3.018-1.436,3.015,3.015,0,0,1,2.466.986,4.7,4.7,0,0,1,.845,2.969V0h-3.3V-6.67a1.783,1.783,0,0,0-.322-1.177,1.491,1.491,0,0,0-1.172-.376,1.569,1.569,0,0,0-1.436.762V0H6.895V-10.566Zm12.09-2.627v2.627h1.738v2.285H22.07v4.834a1.234,1.234,0,0,0,.215.83,1.152,1.152,0,0,0,.85.234,4.828,4.828,0,0,0,.82-.059V-.088A6.074,6.074,0,0,1,22.1.2a3.448,3.448,0,0,1-2.51-.8,3.282,3.282,0,0,1-.811-2.432V-8.281H17.432v-2.285h1.348v-2.627ZM30.215.2a5.432,5.432,0,0,1-3.936-1.45,5.008,5.008,0,0,1-1.5-3.774V-5.3a6.489,6.489,0,0,1,.6-2.861,4.395,4.395,0,0,1,1.753-1.919,5.292,5.292,0,0,1,2.734-.679A4.574,4.574,0,0,1,33.379-9.38a5.43,5.43,0,0,1,1.289,3.853v1.279H28.125a2.372,2.372,0,0,0,.771,1.4,2.3,2.3,0,0,0,1.543.508,2.958,2.958,0,0,0,2.441-1.094l1.5,1.777A4.2,4.2,0,0,1,32.642-.308,5.891,5.891,0,0,1,30.215.2Zm-.371-8.418q-1.445,0-1.719,1.914h3.32v-.254a1.63,1.63,0,0,0-.4-1.226A1.593,1.593,0,0,0,29.844-8.223Zm12.539.635L41.3-7.666a1.947,1.947,0,0,0-1.992.977V0H36.016V-10.566H39.1l.107,1.357a2.548,2.548,0,0,1,2.314-1.553,3.209,3.209,0,0,1,.918.117ZM48.682.2a5.432,5.432,0,0,1-3.936-1.45,5.008,5.008,0,0,1-1.5-3.774V-5.3a6.489,6.489,0,0,1,.6-2.861A4.395,4.395,0,0,1,45.6-10.083a5.292,5.292,0,0,1,2.734-.679A4.574,4.574,0,0,1,51.846-9.38a5.43,5.43,0,0,1,1.289,3.853v1.279H46.592a2.372,2.372,0,0,0,.771,1.4,2.3,2.3,0,0,0,1.543.508,2.958,2.958,0,0,0,2.441-1.094l1.5,1.777A4.2,4.2,0,0,1,51.108-.308,5.891,5.891,0,0,1,48.682.2Zm-.371-8.418q-1.445,0-1.719,1.914h3.32v-.254a1.63,1.63,0,0,0-.4-1.226A1.593,1.593,0,0,0,48.311-8.223ZM59.99-2.969a.76.76,0,0,0-.439-.674,6.685,6.685,0,0,0-1.67-.527,7.615,7.615,0,0,1-2.031-.718,3.4,3.4,0,0,1-1.221-1.079,2.577,2.577,0,0,1-.42-1.455,2.92,2.92,0,0,1,1.2-2.4,4.948,4.948,0,0,1,3.145-.942,5.482,5.482,0,0,1,3.359.947,2.962,2.962,0,0,1,1.27,2.49h-3.3q0-1.27-1.338-1.27a1.326,1.326,0,0,0-.869.288.892.892,0,0,0-.352.718.819.819,0,0,0,.43.713,4.06,4.06,0,0,0,1.372.449,11.857,11.857,0,0,1,1.655.42,3.007,3.007,0,0,1,2.383,2.939A2.767,2.767,0,0,1,61.88-.713,5.632,5.632,0,0,1,58.555.2a5.747,5.747,0,0,1-2.422-.488,4.05,4.05,0,0,1-1.66-1.328,3.007,3.007,0,0,1-.6-1.768h3.076a1.272,1.272,0,0,0,.488,1.069,2.009,2.009,0,0,0,1.2.337,1.58,1.58,0,0,0,1.011-.273A.875.875,0,0,0,59.99-2.969ZM69.814.2a5.432,5.432,0,0,1-3.936-1.45,5.008,5.008,0,0,1-1.5-3.774V-5.3a6.489,6.489,0,0,1,.6-2.861,4.395,4.395,0,0,1,1.753-1.919,5.292,5.292,0,0,1,2.734-.679A4.574,4.574,0,0,1,72.979-9.38a5.43,5.43,0,0,1,1.289,3.853v1.279H67.725a2.372,2.372,0,0,0,.771,1.4,2.3,2.3,0,0,0,1.543.508A2.958,2.958,0,0,0,72.48-3.437l1.5,1.777A4.2,4.2,0,0,1,72.241-.308,5.891,5.891,0,0,1,69.814.2Zm-.371-8.418q-1.445,0-1.719,1.914h3.32v-.254a1.63,1.63,0,0,0-.4-1.226A1.593,1.593,0,0,0,69.443-8.223Zm11.68,5.254a.76.76,0,0,0-.439-.674,6.685,6.685,0,0,0-1.67-.527,7.615,7.615,0,0,1-2.031-.718,3.4,3.4,0,0,1-1.221-1.079,2.577,2.577,0,0,1-.42-1.455,2.92,2.92,0,0,1,1.2-2.4,4.948,4.948,0,0,1,3.145-.942,5.482,5.482,0,0,1,3.359.947,2.962,2.962,0,0,1,1.27,2.49h-3.3q0-1.27-1.338-1.27a1.326,1.326,0,0,0-.869.288.892.892,0,0,0-.352.718.819.819,0,0,0,.43.713,4.06,4.06,0,0,0,1.372.449,11.857,11.857,0,0,1,1.655.42A3.007,3.007,0,0,1,84.3-3.066,2.767,2.767,0,0,1,83.013-.713,5.631,5.631,0,0,1,79.688.2a5.747,5.747,0,0,1-2.422-.488,4.05,4.05,0,0,1-1.66-1.328,3.007,3.007,0,0,1-.6-1.768h3.076a1.272,1.272,0,0,0,.488,1.069,2.009,2.009,0,0,0,1.2.337,1.58,1.58,0,0,0,1.011-.273A.875.875,0,0,0,81.123-2.969Zm19.5-2.236a6.372,6.372,0,0,1-1.108,3.931A3.554,3.554,0,0,1,96.523.2,3.046,3.046,0,0,1,94.131-.869V4.063H90.84V-10.566h3.076l.1.977a3.046,3.046,0,0,1,2.49-1.172,3.582,3.582,0,0,1,3.037,1.44,6.45,6.45,0,0,1,1.084,3.96ZM97.334-5.41q0-2.812-1.641-2.812a1.549,1.549,0,0,0-1.562.84v4.16a1.6,1.6,0,0,0,1.582.879q1.572,0,1.621-2.715ZM108.027,0a3.716,3.716,0,0,1-.312-.947A3.06,3.06,0,0,1,105.176.2a3.749,3.749,0,0,1-2.539-.9,2.875,2.875,0,0,1-1.045-2.271,2.955,2.955,0,0,1,1.27-2.6,6.468,6.468,0,0,1,3.691-.879h1.016v-.559q0-1.462-1.26-1.462a1.03,1.03,0,0,0-1.172,1.158h-3.291a2.95,2.95,0,0,1,1.3-2.487,5.479,5.479,0,0,1,3.325-.956,4.8,4.8,0,0,1,3.193.986,3.429,3.429,0,0,1,1.2,2.705v4.678a4.79,4.79,0,0,0,.449,2.227V0Zm-2.061-2.148a1.836,1.836,0,0,0,1.021-.264,1.653,1.653,0,0,0,.581-.6V-4.7h-.957q-1.719,0-1.719,1.543a.942.942,0,0,0,.3.728A1.1,1.1,0,0,0,105.967-2.148ZM112.3-5.361a7.134,7.134,0,0,1,.527-2.832,4.245,4.245,0,0,1,1.514-1.9,3.99,3.99,0,0,1,2.295-.669,3.173,3.173,0,0,1,2.578,1.113l.117-.918h2.988V-.4a4.455,4.455,0,0,1-.649,2.427,4.167,4.167,0,0,1-1.88,1.582,6.91,6.91,0,0,1-2.852.552,5.961,5.961,0,0,1-2.251-.439,4.063,4.063,0,0,1-1.665-1.143L114.4.645a3.018,3.018,0,0,0,2.422,1.084,1.96,1.96,0,0,0,2.188-2.246V-.85A3.09,3.09,0,0,1,116.621.2,3.819,3.819,0,0,1,113.5-1.284a6.13,6.13,0,0,1-1.191-3.96Zm3.3.205a3.759,3.759,0,0,0,.488,2.056,1.541,1.541,0,0,0,1.367.757,1.748,1.748,0,0,0,1.553-.713V-7.5a1.7,1.7,0,0,0-1.533-.723,1.551,1.551,0,0,0-1.377.786A4.287,4.287,0,0,0,115.605-5.156ZM130.146,0a3.716,3.716,0,0,1-.312-.947A3.06,3.06,0,0,1,127.295.2a3.749,3.749,0,0,1-2.539-.9,2.875,2.875,0,0,1-1.045-2.271,2.955,2.955,0,0,1,1.27-2.6,6.468,6.468,0,0,1,3.691-.879h1.016v-.559q0-1.462-1.26-1.462a1.03,1.03,0,0,0-1.172,1.158h-3.291a2.95,2.95,0,0,1,1.3-2.487,5.479,5.479,0,0,1,3.325-.956,4.8,4.8,0,0,1,3.193.986,3.429,3.429,0,0,1,1.2,2.705v4.678a4.79,4.79,0,0,0,.449,2.227V0Zm-2.061-2.148a1.836,1.836,0,0,0,1.021-.264,1.652,1.652,0,0,0,.581-.6V-4.7h-.957q-1.719,0-1.719,1.543a.942.942,0,0,0,.3.728A1.1,1.1,0,0,0,128.086-2.148Zm6.309-3.213a6.455,6.455,0,0,1,1.084-3.955,3.568,3.568,0,0,1,3.027-1.445,3.035,3.035,0,0,1,2.383,1.113V-15h3.3V0H141.23l-.166-1.133A3.116,3.116,0,0,1,138.486.2,3.562,3.562,0,0,1,135.5-1.25,6.659,6.659,0,0,1,134.395-5.361Zm3.291.205q0,2.813,1.641,2.813a1.62,1.62,0,0,0,1.563-.918V-7.285a1.576,1.576,0,0,0-1.543-.937q-1.523,0-1.65,2.461Zm7.959-.225A6.236,6.236,0,0,1,146.26-8.2a4.4,4.4,0,0,1,1.768-1.9,5.323,5.323,0,0,1,2.705-.664,4.858,4.858,0,0,1,3.74,1.47,5.64,5.64,0,0,1,1.367,4v.117a5.472,5.472,0,0,1-1.372,3.921A4.871,4.871,0,0,1,150.752.2a4.927,4.927,0,0,1-3.623-1.353,5.29,5.29,0,0,1-1.475-3.667Zm3.291.205a3.932,3.932,0,0,0,.459,2.148,1.529,1.529,0,0,0,1.357.684q1.758,0,1.8-2.705v-.332q0-2.842-1.816-2.842-1.65,0-1.787,2.451Zm13.887,2.207a.76.76,0,0,0-.439-.674,6.685,6.685,0,0,0-1.67-.527,7.615,7.615,0,0,1-2.031-.718,3.4,3.4,0,0,1-1.221-1.079,2.577,2.577,0,0,1-.42-1.455,2.92,2.92,0,0,1,1.2-2.4,4.948,4.948,0,0,1,3.145-.942,5.482,5.482,0,0,1,3.359.947,2.962,2.962,0,0,1,1.27,2.49h-3.3q0-1.27-1.338-1.27a1.326,1.326,0,0,0-.869.288.892.892,0,0,0-.352.718.819.819,0,0,0,.43.713,4.06,4.06,0,0,0,1.372.449,11.857,11.857,0,0,1,1.655.42A3.007,3.007,0,0,1,166-3.066a2.767,2.767,0,0,1-1.284,2.354A5.632,5.632,0,0,1,161.387.2a5.747,5.747,0,0,1-2.422-.488,4.05,4.05,0,0,1-1.66-1.328,3.007,3.007,0,0,1-.6-1.768h3.076a1.272,1.272,0,0,0,.488,1.069,2.009,2.009,0,0,0,1.2.337,1.58,1.58,0,0,0,1.011-.273A.875.875,0,0,0,162.822-2.969Z" transform="translate(387 2951)" fill="#12263f"/>
      </g>
    </g>
    <g id="Grupo_93101" data-name="Grupo 93101" transform="translate(-5217.438 4699)">
      <rect id="Rectángulo_31816-2" data-name="Rectángulo 31816" width="663" height="131" transform="translate(131 2859)" fill="#6595bf"/>
      <g id="Grupo_89142-2" data-name="Grupo 89142" transform="translate(224 2852)">
        <rect id="Rectángulo_31778-2" data-name="Rectángulo 31778" width="670.762" height="132.775" transform="translate(-105.563)" fill="#fff" stroke="#12263f" stroke-miterlimit="10" stroke-width="1"/>
      </g>
      <g id="Grupo_89143-2" data-name="Grupo 89143" transform="translate(141 -5)">
        <path id="Trazado_148485" data-name="Trazado 148485" d="M6.357-5.029H4.5V0H1.074V-14.219h5.6A6.246,6.246,0,0,1,10.625-13.1a3.8,3.8,0,0,1,1.426,3.17,4.616,4.616,0,0,1-.6,2.458,4.263,4.263,0,0,1-1.88,1.58L12.539-.147V0H8.867ZM4.5-7.666H6.67A1.946,1.946,0,0,0,8.14-8.18a1.987,1.987,0,0,0,.493-1.434,2.01,2.01,0,0,0-.5-1.444,1.928,1.928,0,0,0-1.465-.524H4.5ZM19.922,0a3.716,3.716,0,0,1-.312-.947A3.06,3.06,0,0,1,17.07.2a3.749,3.749,0,0,1-2.539-.9,2.875,2.875,0,0,1-1.045-2.271,2.955,2.955,0,0,1,1.27-2.6,6.468,6.468,0,0,1,3.691-.879h1.016v-.559q0-1.462-1.26-1.462a1.03,1.03,0,0,0-1.172,1.158H13.74a2.95,2.95,0,0,1,1.3-2.487,5.479,5.479,0,0,1,3.325-.956,4.8,4.8,0,0,1,3.193.986,3.429,3.429,0,0,1,1.2,2.705v4.678a4.79,4.79,0,0,0,.449,2.227V0ZM17.861-2.148a1.836,1.836,0,0,0,1.021-.264,1.653,1.653,0,0,0,.581-.6V-4.7h-.957q-1.719,0-1.719,1.543a.942.942,0,0,0,.3.728A1.1,1.1,0,0,0,17.861-2.148Zm10.605-.391h4.814V0H24.307V-1.836l4.688-6.191H24.512v-2.539h8.662v1.777Zm6-2.842A6.236,6.236,0,0,1,35.078-8.2a4.4,4.4,0,0,1,1.768-1.9,5.323,5.323,0,0,1,2.705-.664,4.858,4.858,0,0,1,3.74,1.47,5.64,5.64,0,0,1,1.367,4v.117a5.472,5.472,0,0,1-1.372,3.921A4.871,4.871,0,0,1,39.57.2a4.927,4.927,0,0,1-3.623-1.353,5.29,5.29,0,0,1-1.475-3.667Zm3.291.205a3.932,3.932,0,0,0,.459,2.148,1.529,1.529,0,0,0,1.357.684q1.758,0,1.8-2.705v-.332q0-2.842-1.816-2.842-1.65,0-1.787,2.451ZM40-15h3.477l-2.715,3.066-2.686,0Zm9.131,4.434.107,1.24a3.583,3.583,0,0,1,3.018-1.436,3.015,3.015,0,0,1,2.466.986,4.7,4.7,0,0,1,.845,2.969V0h-3.3V-6.67a1.783,1.783,0,0,0-.322-1.177,1.491,1.491,0,0,0-1.172-.376,1.569,1.569,0,0,0-1.436.762V0H46.045V-10.566ZM61.953-5.361a6.455,6.455,0,0,1,1.084-3.955,3.568,3.568,0,0,1,3.027-1.445,3.035,3.035,0,0,1,2.383,1.113V-15h3.3V0H68.789l-.166-1.133A3.116,3.116,0,0,1,66.045.2,3.562,3.562,0,0,1,63.057-1.25,6.659,6.659,0,0,1,61.953-5.361Zm3.291.205q0,2.813,1.641,2.813a1.62,1.62,0,0,0,1.563-.918V-7.285A1.576,1.576,0,0,0,66.9-8.223q-1.523,0-1.65,2.461ZM78.73.2a5.432,5.432,0,0,1-3.936-1.45,5.008,5.008,0,0,1-1.5-3.774V-5.3a6.489,6.489,0,0,1,.6-2.861,4.395,4.395,0,0,1,1.753-1.919,5.292,5.292,0,0,1,2.734-.679A4.574,4.574,0,0,1,81.895-9.38a5.43,5.43,0,0,1,1.289,3.853v1.279H76.641a2.372,2.372,0,0,0,.771,1.4,2.3,2.3,0,0,0,1.543.508A2.958,2.958,0,0,0,81.4-3.437L82.9-1.66A4.2,4.2,0,0,1,81.157-.308,5.891,5.891,0,0,1,78.73.2Zm-.371-8.418q-1.445,0-1.719,1.914h3.32v-.254a1.63,1.63,0,0,0-.4-1.226A1.593,1.593,0,0,0,78.359-8.223Zm15.6,5.879a1.464,1.464,0,0,0,1.074-.376A1.379,1.379,0,0,0,95.4-3.77h3.086A3.653,3.653,0,0,1,97.241-.918,4.631,4.631,0,0,1,94.033.2,4.689,4.689,0,0,1,90.4-1.25a5.7,5.7,0,0,1-1.328-4v-.137a6.436,6.436,0,0,1,.591-2.827,4.3,4.3,0,0,1,1.7-1.885A5.081,5.081,0,0,1,94-10.762a4.573,4.573,0,0,1,3.271,1.143,4.053,4.053,0,0,1,1.211,3.1H95.4a1.806,1.806,0,0,0-.4-1.26,1.382,1.382,0,0,0-1.074-.439q-1.279,0-1.494,1.631a11.508,11.508,0,0,0-.068,1.426,4.52,4.52,0,0,0,.381,2.207A1.319,1.319,0,0,0,93.955-2.344Zm5.508-3.037a6.236,6.236,0,0,1,.615-2.817,4.4,4.4,0,0,1,1.768-1.9,5.323,5.323,0,0,1,2.705-.664,4.858,4.858,0,0,1,3.74,1.47,5.64,5.64,0,0,1,1.367,4v.117a5.472,5.472,0,0,1-1.372,3.921A4.871,4.871,0,0,1,104.57.2a4.927,4.927,0,0,1-3.623-1.353,5.29,5.29,0,0,1-1.475-3.667Zm3.291.205a3.932,3.932,0,0,0,.459,2.148,1.529,1.529,0,0,0,1.357.684q1.758,0,1.8-2.705v-.332q0-2.842-1.816-2.842-1.65,0-1.787,2.451Zm18.164-.02A6.44,6.44,0,0,1,119.844-1.2,3.6,3.6,0,0,1,116.816.2a3.122,3.122,0,0,1-2.6-1.279L114.082,0h-2.949V-15h3.291v5.283a3.013,3.013,0,0,1,2.373-1.045,3.6,3.6,0,0,1,3.047,1.416,6.473,6.473,0,0,1,1.074,3.984Zm-3.3-.21a4.3,4.3,0,0,0-.405-2.169,1.366,1.366,0,0,0-1.245-.648,1.576,1.576,0,0,0-1.543.848v4.192a1.585,1.585,0,0,0,1.563.838,1.4,1.4,0,0,0,1.475-1.131A8.121,8.121,0,0,0,117.617-5.405ZM127.48.2a5.432,5.432,0,0,1-3.936-1.45,5.008,5.008,0,0,1-1.5-3.774V-5.3a6.489,6.489,0,0,1,.6-2.861,4.395,4.395,0,0,1,1.753-1.919,5.292,5.292,0,0,1,2.734-.679,4.574,4.574,0,0,1,3.516,1.382,5.43,5.43,0,0,1,1.289,3.853v1.279h-6.543a2.372,2.372,0,0,0,.771,1.4,2.3,2.3,0,0,0,1.543.508,2.958,2.958,0,0,0,2.441-1.094l1.5,1.777a4.2,4.2,0,0,1-1.743,1.353A5.891,5.891,0,0,1,127.48.2Zm-.371-8.418q-1.445,0-1.719,1.914h3.32v-.254a1.63,1.63,0,0,0-.4-1.226A1.593,1.593,0,0,0,127.109-8.223Zm12.539.635-1.084-.078a1.947,1.947,0,0,0-1.992.977V0h-3.291V-10.566h3.086l.107,1.357a2.548,2.548,0,0,1,2.314-1.553,3.209,3.209,0,0,1,.918.117Zm5.508-5.605v2.627h1.738v2.285h-1.738v4.834a1.234,1.234,0,0,0,.215.83,1.152,1.152,0,0,0,.85.234,4.828,4.828,0,0,0,.82-.059V-.088A6.074,6.074,0,0,1,145.186.2a3.448,3.448,0,0,1-2.51-.8,3.282,3.282,0,0,1-.811-2.432V-8.281h-1.348v-2.285h1.348v-2.627Zm9.326,12.051A3.393,3.393,0,0,1,151.66.2a3.328,3.328,0,0,1-2.632-1.011,4.251,4.251,0,0,1-.894-2.905v-6.846h3.291V-3.7a1.183,1.183,0,0,0,1.318,1.357,1.72,1.72,0,0,0,1.611-.811v-7.412h3.311V0H154.58Zm11.377-6.445-1.084-.078a1.947,1.947,0,0,0-1.992.977V0h-3.291V-10.566h3.086l.107,1.357A2.548,2.548,0,0,1,165-10.762a3.209,3.209,0,0,1,.918.117ZM172.705,0a3.716,3.716,0,0,1-.312-.947A3.06,3.06,0,0,1,169.854.2a3.749,3.749,0,0,1-2.539-.9,2.875,2.875,0,0,1-1.045-2.271,2.955,2.955,0,0,1,1.27-2.6,6.468,6.468,0,0,1,3.691-.879h1.016v-.559q0-1.462-1.26-1.462a1.03,1.03,0,0,0-1.172,1.158h-3.291a2.95,2.95,0,0,1,1.3-2.487,5.479,5.479,0,0,1,3.325-.956,4.8,4.8,0,0,1,3.193.986,3.429,3.429,0,0,1,1.2,2.705v4.678A4.79,4.79,0,0,0,176-.166V0Zm-2.061-2.148a1.836,1.836,0,0,0,1.021-.264,1.652,1.652,0,0,0,.581-.6V-4.7h-.957q-1.719,0-1.719,1.543a.942.942,0,0,0,.3.728A1.1,1.1,0,0,0,170.645-2.148Zm11.289-3.213a6.455,6.455,0,0,1,1.084-3.955,3.568,3.568,0,0,1,3.027-1.445,3.035,3.035,0,0,1,2.383,1.113V-15h3.3V0H188.77L188.6-1.133A3.116,3.116,0,0,1,186.025.2a3.562,3.562,0,0,1-2.988-1.445A6.659,6.659,0,0,1,181.934-5.361Zm3.291.205q0,2.813,1.641,2.813a1.62,1.62,0,0,0,1.563-.918V-7.285a1.576,1.576,0,0,0-1.543-.937q-1.523,0-1.65,2.461ZM198.711.2a5.432,5.432,0,0,1-3.936-1.45,5.008,5.008,0,0,1-1.5-3.774V-5.3a6.489,6.489,0,0,1,.6-2.861,4.395,4.395,0,0,1,1.753-1.919,5.292,5.292,0,0,1,2.734-.679,4.574,4.574,0,0,1,3.516,1.382,5.43,5.43,0,0,1,1.289,3.853v1.279h-6.543a2.372,2.372,0,0,0,.771,1.4,2.3,2.3,0,0,0,1.543.508,2.958,2.958,0,0,0,2.441-1.094l1.5,1.777a4.2,4.2,0,0,1-1.743,1.353A5.891,5.891,0,0,1,198.711.2Zm-.371-8.418q-1.445,0-1.719,1.914h3.32v-.254a1.63,1.63,0,0,0-.4-1.226A1.593,1.593,0,0,0,198.34-8.223ZM212.939,0h-3.3V-10.566h3.3Zm-3.5-13.291a1.469,1.469,0,0,1,.508-1.152,1.916,1.916,0,0,1,1.318-.449,1.916,1.916,0,0,1,1.318.449,1.469,1.469,0,0,1,.508,1.152,1.469,1.469,0,0,1-.508,1.152,1.916,1.916,0,0,1-1.318.449,1.916,1.916,0,0,1-1.318-.449A1.469,1.469,0,0,1,209.443-13.291Zm8.545,2.725.107,1.24a3.583,3.583,0,0,1,3.018-1.436,3.015,3.015,0,0,1,2.466.986,4.7,4.7,0,0,1,.845,2.969V0h-3.3V-6.67a1.783,1.783,0,0,0-.322-1.177,1.491,1.491,0,0,0-1.172-.376,1.569,1.569,0,0,0-1.436.762V0H214.9V-10.566Zm12.09-2.627v2.627h1.738v2.285h-1.738v4.834a1.234,1.234,0,0,0,.215.83,1.152,1.152,0,0,0,.85.234,4.828,4.828,0,0,0,.82-.059V-.088A6.074,6.074,0,0,1,230.107.2a3.448,3.448,0,0,1-2.51-.8,3.282,3.282,0,0,1-.811-2.432V-8.281h-1.348v-2.285h1.348v-2.627ZM238.223.2a5.432,5.432,0,0,1-3.936-1.45,5.008,5.008,0,0,1-1.5-3.774V-5.3a6.489,6.489,0,0,1,.6-2.861,4.395,4.395,0,0,1,1.753-1.919,5.292,5.292,0,0,1,2.734-.679,4.574,4.574,0,0,1,3.516,1.382,5.43,5.43,0,0,1,1.289,3.853v1.279h-6.543a2.372,2.372,0,0,0,.771,1.4,2.3,2.3,0,0,0,1.543.508,2.958,2.958,0,0,0,2.441-1.094l1.5,1.777a4.2,4.2,0,0,1-1.743,1.353A5.891,5.891,0,0,1,238.223.2Zm-.371-8.418q-1.445,0-1.719,1.914h3.32v-.254a1.63,1.63,0,0,0-.4-1.226A1.593,1.593,0,0,0,237.852-8.223Zm12.539.635-1.084-.078a1.947,1.947,0,0,0-1.992.977V0h-3.291V-10.566h3.086l.107,1.357a2.548,2.548,0,0,1,2.314-1.553,3.209,3.209,0,0,1,.918.117ZM256.689.2a5.432,5.432,0,0,1-3.936-1.45,5.008,5.008,0,0,1-1.5-3.774V-5.3a6.489,6.489,0,0,1,.6-2.861,4.395,4.395,0,0,1,1.753-1.919,5.292,5.292,0,0,1,2.734-.679,4.574,4.574,0,0,1,3.516,1.382,5.43,5.43,0,0,1,1.289,3.853v1.279H254.6a2.372,2.372,0,0,0,.771,1.4,2.3,2.3,0,0,0,1.543.508,2.958,2.958,0,0,0,2.441-1.094l1.5,1.777a4.2,4.2,0,0,1-1.743,1.353A5.891,5.891,0,0,1,256.689.2Zm-.371-8.418q-1.445,0-1.719,1.914h3.32v-.254a1.63,1.63,0,0,0-.4-1.226A1.593,1.593,0,0,0,256.318-8.223ZM268-2.969a.76.76,0,0,0-.439-.674,6.685,6.685,0,0,0-1.67-.527,7.615,7.615,0,0,1-2.031-.718,3.4,3.4,0,0,1-1.221-1.079,2.577,2.577,0,0,1-.42-1.455,2.92,2.92,0,0,1,1.2-2.4,4.948,4.948,0,0,1,3.145-.942,5.482,5.482,0,0,1,3.359.947,2.962,2.962,0,0,1,1.27,2.49h-3.3q0-1.27-1.338-1.27a1.326,1.326,0,0,0-.869.288.892.892,0,0,0-.352.718.819.819,0,0,0,.43.713,4.06,4.06,0,0,0,1.372.449,11.856,11.856,0,0,1,1.655.42,3.007,3.007,0,0,1,2.383,2.939,2.767,2.767,0,0,1-1.284,2.354A5.631,5.631,0,0,1,266.563.2a5.747,5.747,0,0,1-2.422-.488,4.05,4.05,0,0,1-1.66-1.328,3.007,3.007,0,0,1-.6-1.768h3.076a1.272,1.272,0,0,0,.488,1.069,2.009,2.009,0,0,0,1.2.337,1.58,1.58,0,0,0,1.011-.273A.875.875,0,0,0,268-2.969ZM277.822.2a5.432,5.432,0,0,1-3.936-1.45,5.008,5.008,0,0,1-1.5-3.774V-5.3a6.489,6.489,0,0,1,.6-2.861,4.395,4.395,0,0,1,1.753-1.919,5.292,5.292,0,0,1,2.734-.679,4.574,4.574,0,0,1,3.516,1.382,5.43,5.43,0,0,1,1.289,3.853v1.279h-6.543a2.372,2.372,0,0,0,.771,1.4,2.3,2.3,0,0,0,1.543.508,2.958,2.958,0,0,0,2.441-1.094l1.5,1.777a4.2,4.2,0,0,1-1.743,1.353A5.891,5.891,0,0,1,277.822.2Zm-.371-8.418q-1.445,0-1.719,1.914h3.32v-.254a1.63,1.63,0,0,0-.4-1.226A1.593,1.593,0,0,0,277.451-8.223Zm11.68,5.254a.76.76,0,0,0-.439-.674,6.685,6.685,0,0,0-1.67-.527,7.615,7.615,0,0,1-2.031-.718,3.4,3.4,0,0,1-1.221-1.079,2.577,2.577,0,0,1-.42-1.455,2.92,2.92,0,0,1,1.2-2.4,4.948,4.948,0,0,1,3.145-.942,5.482,5.482,0,0,1,3.359.947,2.962,2.962,0,0,1,1.27,2.49h-3.3q0-1.27-1.338-1.27a1.326,1.326,0,0,0-.869.288.892.892,0,0,0-.352.718.819.819,0,0,0,.43.713,4.06,4.06,0,0,0,1.372.449,11.856,11.856,0,0,1,1.655.42A3.007,3.007,0,0,1,292.3-3.066a2.767,2.767,0,0,1-1.284,2.354A5.631,5.631,0,0,1,287.7.2a5.747,5.747,0,0,1-2.422-.488,4.05,4.05,0,0,1-1.66-1.328,3.007,3.007,0,0,1-.6-1.768h3.076a1.272,1.272,0,0,0,.488,1.069,2.009,2.009,0,0,0,1.2.337,1.58,1.58,0,0,0,1.011-.273A.875.875,0,0,0,289.131-2.969Zm19.063-4.082H299.15V-9.59h9.043Zm0,4.287H299.15V-5.3h9.043Z" transform="translate(50 2937)" fill="#12263f"/>
        <text id="_2" data-name="————————" transform="translate(377 2937)" fill="#12263f" font-size="29" font-family="Roboto-Black, Roboto" font-weight="800"><tspan x="0" y="0">————————</tspan></text>
        <path id="Trazado_148486" data-name="Trazado 148486" d="M7.422-3.77A1.788,1.788,0,0,0,7.041-4.98,3.557,3.557,0,0,0,5.7-5.811Q4.746-6.2,3.936-6.6a6.131,6.131,0,0,1-1.4-.928,3.645,3.645,0,0,1-.9-1.221,4.072,4.072,0,0,1-.312-1.68,3.608,3.608,0,0,1,1.113-2.72A4.791,4.791,0,0,1,5.41-14.395v-2.061H6.963v2.1a4.361,4.361,0,0,1,2.808,1.47,4.575,4.575,0,0,1,1.021,3.062H7.49A2.663,2.663,0,0,0,7.1-11.387a1.286,1.286,0,0,0-1.113-.547,1.263,1.263,0,0,0-1,.405,1.635,1.635,0,0,0-.356,1.118,1.582,1.582,0,0,0,.41,1.147,4.04,4.04,0,0,0,1.318.811q.908.386,1.714.8a6.552,6.552,0,0,1,1.392.942,3.857,3.857,0,0,1,.918,1.23,3.929,3.929,0,0,1,.332,1.689,3.678,3.678,0,0,1-1.06,2.725A4.561,4.561,0,0,1,6.768.166V2.129H5.215V.156A4.967,4.967,0,0,1,1.948-1.3,4.618,4.618,0,0,1,.811-4.561H4.1a2.554,2.554,0,0,0,.493,1.694A1.737,1.737,0,0,0,6-2.285a1.383,1.383,0,0,0,1.045-.4A1.5,1.5,0,0,0,7.422-3.77ZM20.4-14.424v2.588h-.146a4.941,4.941,0,0,0-3.032.884A3.732,3.732,0,0,0,15.762-8.5,3.848,3.848,0,0,1,18.574-9.59a3.59,3.59,0,0,1,2.939,1.348,5.436,5.436,0,0,1,1.094,3.535,4.977,4.977,0,0,1-.64,2.49A4.564,4.564,0,0,1,20.181-.444,5.135,5.135,0,0,1,17.637.2a5.307,5.307,0,0,1-2.705-.688,4.733,4.733,0,0,1-1.855-1.968,6.48,6.48,0,0,1-.684-2.949V-6.729a8.208,8.208,0,0,1,.942-3.95,6.832,6.832,0,0,1,2.69-2.749,7.692,7.692,0,0,1,3.877-1ZM17.432-7.07a1.883,1.883,0,0,0-1.094.3,1.922,1.922,0,0,0-.654.742v.986q0,2.7,1.865,2.7A1.513,1.513,0,0,0,18.8-3.018a2.746,2.746,0,0,0,.5-1.689,2.7,2.7,0,0,0-.513-1.7A1.64,1.64,0,0,0,17.432-7.07ZM30.518-5.5a3.476,3.476,0,0,1-2.383.957A3.847,3.847,0,0,1,25.068-5.85a5.156,5.156,0,0,1-1.133-3.5,5.247,5.247,0,0,1,.635-2.539,4.763,4.763,0,0,1,1.782-1.855,4.859,4.859,0,0,1,2.534-.684,4.717,4.717,0,0,1,2.544.708,4.767,4.767,0,0,1,1.772,2,6.877,6.877,0,0,1,.654,2.983v1.26a8.548,8.548,0,0,1-.923,4.082A6.371,6.371,0,0,1,30.3-.732,8.224,8.224,0,0,1,26.318.2h-.205V-2.441l.625-.01Q30.137-2.617,30.518-5.5ZM29.023-6.914a1.6,1.6,0,0,0,1.543-.928V-9.209a3.555,3.555,0,0,0-.459-2.021,1.44,1.44,0,0,0-1.24-.654,1.361,1.361,0,0,0-1.162.742,3.3,3.3,0,0,0-.469,1.8,2.956,2.956,0,0,0,.479,1.772A1.531,1.531,0,0,0,29.023-6.914Zm8.682,3.721a1.874,1.874,0,0,1,1.3.464,1.522,1.522,0,0,1,.518,1.187A1.522,1.522,0,0,1,39-.356a1.874,1.874,0,0,1-1.3.464,1.858,1.858,0,0,1-1.3-.469,1.533,1.533,0,0,1-.513-1.182A1.533,1.533,0,0,1,36.4-2.725,1.858,1.858,0,0,1,37.705-3.193Zm11.9-11.23v2.588h-.146a4.941,4.941,0,0,0-3.032.884A3.732,3.732,0,0,0,44.971-8.5,3.848,3.848,0,0,1,47.783-9.59a3.59,3.59,0,0,1,2.939,1.348,5.436,5.436,0,0,1,1.094,3.535,4.977,4.977,0,0,1-.64,2.49A4.564,4.564,0,0,1,49.39-.444,5.135,5.135,0,0,1,46.846.2a5.307,5.307,0,0,1-2.705-.688,4.733,4.733,0,0,1-1.855-1.968A6.48,6.48,0,0,1,41.6-5.41V-6.729a8.208,8.208,0,0,1,.942-3.95,6.832,6.832,0,0,1,2.69-2.749,7.692,7.692,0,0,1,3.877-1ZM46.641-7.07a1.883,1.883,0,0,0-1.094.3,1.922,1.922,0,0,0-.654.742v.986q0,2.7,1.865,2.7a1.513,1.513,0,0,0,1.255-.674,2.746,2.746,0,0,0,.5-1.689A2.7,2.7,0,0,0,48-6.411,1.64,1.64,0,0,0,46.641-7.07Zm16.475,1.26a6.789,6.789,0,0,1-1.294,4.443A4.471,4.471,0,0,1,58.174.2,4.5,4.5,0,0,1,54.5-1.377a6.779,6.779,0,0,1-1.3-4.434v-2.6A6.789,6.789,0,0,1,54.5-12.852a4.483,4.483,0,0,1,3.657-1.562,4.484,4.484,0,0,1,3.662,1.572,6.8,6.8,0,0,1,1.3,4.443ZM59.824-8.828a5.071,5.071,0,0,0-.4-2.29,1.338,1.338,0,0,0-1.27-.757,1.307,1.307,0,0,0-1.235.7A4.777,4.777,0,0,0,56.5-9.043V-5.41a5.109,5.109,0,0,0,.4,2.329,1.343,1.343,0,0,0,1.27.737,1.325,1.325,0,0,0,1.24-.718,4.878,4.878,0,0,0,.41-2.251ZM74.7-5.811A6.789,6.789,0,0,1,73.4-1.367,4.471,4.471,0,0,1,69.756.2a4.5,4.5,0,0,1-3.672-1.572,6.779,6.779,0,0,1-1.3-4.434v-2.6a6.789,6.789,0,0,1,1.294-4.443,4.483,4.483,0,0,1,3.657-1.562A4.484,4.484,0,0,1,73.4-12.842,6.8,6.8,0,0,1,74.7-8.4ZM71.406-8.828a5.071,5.071,0,0,0-.4-2.29,1.338,1.338,0,0,0-1.27-.757,1.307,1.307,0,0,0-1.235.7,4.777,4.777,0,0,0-.415,2.129V-5.41a5.109,5.109,0,0,0,.4,2.329,1.343,1.343,0,0,0,1.27.737A1.325,1.325,0,0,0,71-3.062a4.878,4.878,0,0,0,.41-2.251ZM78.5-3.193a1.874,1.874,0,0,1,1.3.464,1.522,1.522,0,0,1,.518,1.187,1.522,1.522,0,0,1-.518,1.187,1.874,1.874,0,0,1-1.3.464,1.858,1.858,0,0,1-1.3-.469,1.533,1.533,0,0,1-.513-1.182,1.533,1.533,0,0,1,.513-1.182A1.858,1.858,0,0,1,78.5-3.193ZM92.324-5.811A6.789,6.789,0,0,1,91.03-1.367,4.471,4.471,0,0,1,87.383.2a4.5,4.5,0,0,1-3.672-1.572,6.779,6.779,0,0,1-1.3-4.434v-2.6a6.789,6.789,0,0,1,1.294-4.443,4.483,4.483,0,0,1,3.657-1.562,4.484,4.484,0,0,1,3.662,1.572,6.8,6.8,0,0,1,1.3,4.443ZM89.033-8.828a5.071,5.071,0,0,0-.4-2.29,1.338,1.338,0,0,0-1.27-.757,1.307,1.307,0,0,0-1.235.7,4.777,4.777,0,0,0-.415,2.129V-5.41a5.109,5.109,0,0,0,.4,2.329,1.343,1.343,0,0,0,1.27.737,1.325,1.325,0,0,0,1.24-.718,4.878,4.878,0,0,0,.41-2.251Zm14.873,3.018a6.789,6.789,0,0,1-1.294,4.443A4.471,4.471,0,0,1,98.965.2a4.5,4.5,0,0,1-3.672-1.572,6.779,6.779,0,0,1-1.3-4.434v-2.6a6.789,6.789,0,0,1,1.294-4.443,4.483,4.483,0,0,1,3.657-1.562,4.484,4.484,0,0,1,3.662,1.572,6.8,6.8,0,0,1,1.3,4.443Zm-3.291-3.018a5.071,5.071,0,0,0-.4-2.29,1.338,1.338,0,0,0-1.27-.757,1.307,1.307,0,0,0-1.235.7,4.777,4.777,0,0,0-.415,2.129V-5.41a5.109,5.109,0,0,0,.4,2.329,1.343,1.343,0,0,0,1.27.737,1.325,1.325,0,0,0,1.24-.718,4.878,4.878,0,0,0,.41-2.251Zm14.873,3.018a6.789,6.789,0,0,1-1.294,4.443A4.471,4.471,0,0,1,110.547.2a4.5,4.5,0,0,1-3.672-1.572,6.779,6.779,0,0,1-1.3-4.434v-2.6a6.789,6.789,0,0,1,1.294-4.443,4.483,4.483,0,0,1,3.657-1.562,4.484,4.484,0,0,1,3.662,1.572,6.8,6.8,0,0,1,1.3,4.443ZM112.2-8.828a5.071,5.071,0,0,0-.4-2.29,1.338,1.338,0,0,0-1.27-.757,1.307,1.307,0,0,0-1.235.7,4.777,4.777,0,0,0-.415,2.129V-5.41a5.109,5.109,0,0,0,.4,2.329,1.343,1.343,0,0,0,1.27.737,1.325,1.325,0,0,0,1.24-.718,4.878,4.878,0,0,0,.41-2.251Z" transform="translate(407 2920)" fill="#12263f"/>
        <path id="Trazado_148487" data-name="Trazado 148487" d="M7.422-3.77A1.788,1.788,0,0,0,7.041-4.98,3.557,3.557,0,0,0,5.7-5.811Q4.746-6.2,3.936-6.6a6.131,6.131,0,0,1-1.4-.928,3.645,3.645,0,0,1-.9-1.221,4.072,4.072,0,0,1-.312-1.68,3.608,3.608,0,0,1,1.113-2.72A4.791,4.791,0,0,1,5.41-14.395v-2.061H6.963v2.1a4.361,4.361,0,0,1,2.808,1.47,4.575,4.575,0,0,1,1.021,3.062H7.49A2.663,2.663,0,0,0,7.1-11.387a1.286,1.286,0,0,0-1.113-.547,1.263,1.263,0,0,0-1,.405,1.635,1.635,0,0,0-.356,1.118,1.582,1.582,0,0,0,.41,1.147,4.04,4.04,0,0,0,1.318.811q.908.386,1.714.8a6.552,6.552,0,0,1,1.392.942,3.857,3.857,0,0,1,.918,1.23,3.929,3.929,0,0,1,.332,1.689,3.678,3.678,0,0,1-1.06,2.725A4.561,4.561,0,0,1,6.768.166V2.129H5.215V.156A4.967,4.967,0,0,1,1.948-1.3,4.618,4.618,0,0,1,.811-4.561H4.1a2.554,2.554,0,0,0,.493,1.694A1.737,1.737,0,0,0,6-2.285a1.383,1.383,0,0,0,1.045-.4A1.5,1.5,0,0,0,7.422-3.77ZM19.746,0h-3.3V-10.508L13.2-9.561v-2.5l6.24-2.158h.3Zm6.377-3.193a1.874,1.874,0,0,1,1.3.464,1.522,1.522,0,0,1,.518,1.187,1.522,1.522,0,0,1-.518,1.187,1.874,1.874,0,0,1-1.3.464,1.858,1.858,0,0,1-1.3-.469,1.533,1.533,0,0,1-.513-1.182,1.533,1.533,0,0,1,.513-1.182A1.858,1.858,0,0,1,26.123-3.193ZM39.951-5.811a6.789,6.789,0,0,1-1.294,4.443A4.471,4.471,0,0,1,35.01.2a4.5,4.5,0,0,1-3.672-1.572,6.779,6.779,0,0,1-1.3-4.434v-2.6a6.789,6.789,0,0,1,1.294-4.443,4.483,4.483,0,0,1,3.657-1.562,4.484,4.484,0,0,1,3.662,1.572,6.8,6.8,0,0,1,1.3,4.443ZM36.66-8.828a5.071,5.071,0,0,0-.4-2.29,1.338,1.338,0,0,0-1.27-.757,1.307,1.307,0,0,0-1.235.7,4.777,4.777,0,0,0-.415,2.129V-5.41a5.109,5.109,0,0,0,.4,2.329,1.343,1.343,0,0,0,1.27.737,1.325,1.325,0,0,0,1.24-.718,4.878,4.878,0,0,0,.41-2.251ZM51.533-5.811a6.789,6.789,0,0,1-1.294,4.443A4.471,4.471,0,0,1,46.592.2,4.5,4.5,0,0,1,42.92-1.377a6.779,6.779,0,0,1-1.3-4.434v-2.6a6.789,6.789,0,0,1,1.294-4.443,4.483,4.483,0,0,1,3.657-1.562,4.484,4.484,0,0,1,3.662,1.572,6.8,6.8,0,0,1,1.3,4.443ZM48.242-8.828a5.071,5.071,0,0,0-.4-2.29,1.338,1.338,0,0,0-1.27-.757,1.307,1.307,0,0,0-1.235.7,4.777,4.777,0,0,0-.415,2.129V-5.41a5.109,5.109,0,0,0,.4,2.329,1.343,1.343,0,0,0,1.27.737,1.325,1.325,0,0,0,1.24-.718,4.878,4.878,0,0,0,.41-2.251ZM63.115-5.811a6.789,6.789,0,0,1-1.294,4.443A4.471,4.471,0,0,1,58.174.2,4.5,4.5,0,0,1,54.5-1.377a6.779,6.779,0,0,1-1.3-4.434v-2.6A6.789,6.789,0,0,1,54.5-12.852a4.483,4.483,0,0,1,3.657-1.562,4.484,4.484,0,0,1,3.662,1.572,6.8,6.8,0,0,1,1.3,4.443ZM59.824-8.828a5.071,5.071,0,0,0-.4-2.29,1.338,1.338,0,0,0-1.27-.757,1.307,1.307,0,0,0-1.235.7A4.777,4.777,0,0,0,56.5-9.043V-5.41a5.109,5.109,0,0,0,.4,2.329,1.343,1.343,0,0,0,1.27.737,1.325,1.325,0,0,0,1.24-.718,4.878,4.878,0,0,0,.41-2.251Zm7.09,5.635a1.874,1.874,0,0,1,1.3.464,1.522,1.522,0,0,1,.518,1.187,1.522,1.522,0,0,1-.518,1.187,1.874,1.874,0,0,1-1.3.464,1.858,1.858,0,0,1-1.3-.469A1.533,1.533,0,0,1,65.1-1.543a1.533,1.533,0,0,1,.513-1.182A1.858,1.858,0,0,1,66.914-3.193ZM80.742-5.811a6.789,6.789,0,0,1-1.294,4.443A4.471,4.471,0,0,1,75.8.2a4.5,4.5,0,0,1-3.672-1.572,6.779,6.779,0,0,1-1.3-4.434v-2.6a6.789,6.789,0,0,1,1.294-4.443,4.483,4.483,0,0,1,3.657-1.562,4.484,4.484,0,0,1,3.662,1.572,6.8,6.8,0,0,1,1.3,4.443ZM77.451-8.828a5.071,5.071,0,0,0-.4-2.29,1.338,1.338,0,0,0-1.27-.757,1.307,1.307,0,0,0-1.235.7,4.777,4.777,0,0,0-.415,2.129V-5.41a5.109,5.109,0,0,0,.4,2.329,1.343,1.343,0,0,0,1.27.737,1.325,1.325,0,0,0,1.24-.718,4.878,4.878,0,0,0,.41-2.251ZM92.324-5.811A6.789,6.789,0,0,1,91.03-1.367,4.471,4.471,0,0,1,87.383.2a4.5,4.5,0,0,1-3.672-1.572,6.779,6.779,0,0,1-1.3-4.434v-2.6a6.789,6.789,0,0,1,1.294-4.443,4.483,4.483,0,0,1,3.657-1.562,4.484,4.484,0,0,1,3.662,1.572,6.8,6.8,0,0,1,1.3,4.443ZM89.033-8.828a5.071,5.071,0,0,0-.4-2.29,1.338,1.338,0,0,0-1.27-.757,1.307,1.307,0,0,0-1.235.7,4.777,4.777,0,0,0-.415,2.129V-5.41a5.109,5.109,0,0,0,.4,2.329,1.343,1.343,0,0,0,1.27.737,1.325,1.325,0,0,0,1.24-.718,4.878,4.878,0,0,0,.41-2.251Zm14.873,3.018a6.789,6.789,0,0,1-1.294,4.443A4.471,4.471,0,0,1,98.965.2a4.5,4.5,0,0,1-3.672-1.572,6.779,6.779,0,0,1-1.3-4.434v-2.6a6.789,6.789,0,0,1,1.294-4.443,4.483,4.483,0,0,1,3.657-1.562,4.484,4.484,0,0,1,3.662,1.572,6.8,6.8,0,0,1,1.3,4.443Zm-3.291-3.018a5.071,5.071,0,0,0-.4-2.29,1.338,1.338,0,0,0-1.27-.757,1.307,1.307,0,0,0-1.235.7,4.777,4.777,0,0,0-.415,2.129V-5.41a5.109,5.109,0,0,0,.4,2.329,1.343,1.343,0,0,0,1.27.737,1.325,1.325,0,0,0,1.24-.718,4.878,4.878,0,0,0,.41-2.251Z" transform="translate(418 2952)" fill="#12263f"/>
      </g>
    </g>
    <g id="Grupo_93102" data-name="Grupo 93102" transform="translate(-5257.438 4856)">
      <rect id="Rectángulo_31816-3" data-name="Rectángulo 31816" width="430.493" height="131" transform="translate(300.892 2859)" fill="#6595bf"/>
      <g id="Grupo_89142-3" data-name="Grupo 89142" transform="translate(224 2852)">
        <rect id="Rectángulo_31778-3" data-name="Rectángulo 31778" width="440.322" height="132.775" transform="translate(62.228)" fill="#fff" stroke="#12263f" stroke-miterlimit="10" stroke-width="1"/>
      </g>
      <g id="Grupo_89143-3" data-name="Grupo 89143" transform="translate(118 -5)">
        <path id="Trazado_148488" data-name="Trazado 148488" d="M6.357-5.029H4.5V0H1.074V-14.219h5.6A6.246,6.246,0,0,1,10.625-13.1a3.8,3.8,0,0,1,1.426,3.17,4.616,4.616,0,0,1-.6,2.458,4.263,4.263,0,0,1-1.88,1.58L12.539-.147V0H8.867ZM4.5-7.666H6.67A1.946,1.946,0,0,0,8.14-8.18a1.987,1.987,0,0,0,.493-1.434,2.01,2.01,0,0,0-.5-1.444,1.928,1.928,0,0,0-1.465-.524H4.5ZM19.922,0a3.716,3.716,0,0,1-.312-.947A3.06,3.06,0,0,1,17.07.2a3.749,3.749,0,0,1-2.539-.9,2.875,2.875,0,0,1-1.045-2.271,2.955,2.955,0,0,1,1.27-2.6,6.468,6.468,0,0,1,3.691-.879h1.016v-.559q0-1.462-1.26-1.462a1.03,1.03,0,0,0-1.172,1.158H13.74a2.95,2.95,0,0,1,1.3-2.487,5.479,5.479,0,0,1,3.325-.956,4.8,4.8,0,0,1,3.193.986,3.429,3.429,0,0,1,1.2,2.705v4.678a4.79,4.79,0,0,0,.449,2.227V0ZM17.861-2.148a1.836,1.836,0,0,0,1.021-.264,1.653,1.653,0,0,0,.581-.6V-4.7h-.957q-1.719,0-1.719,1.543a.942.942,0,0,0,.3.728A1.1,1.1,0,0,0,17.861-2.148Zm10.605-.391h4.814V0H24.307V-1.836l4.688-6.191H24.512v-2.539h8.662v1.777Zm6-2.842A6.236,6.236,0,0,1,35.078-8.2a4.4,4.4,0,0,1,1.768-1.9,5.323,5.323,0,0,1,2.705-.664,4.858,4.858,0,0,1,3.74,1.47,5.64,5.64,0,0,1,1.367,4v.117a5.472,5.472,0,0,1-1.372,3.921A4.871,4.871,0,0,1,39.57.2a4.927,4.927,0,0,1-3.623-1.353,5.29,5.29,0,0,1-1.475-3.667Zm3.291.205a3.932,3.932,0,0,0,.459,2.148,1.529,1.529,0,0,0,1.357.684q1.758,0,1.8-2.705v-.332q0-2.842-1.816-2.842-1.65,0-1.787,2.451ZM40-15h3.477l-2.715,3.066-2.686,0Zm9.131,4.434.107,1.24a3.583,3.583,0,0,1,3.018-1.436,3.015,3.015,0,0,1,2.466.986,4.7,4.7,0,0,1,.845,2.969V0h-3.3V-6.67a1.783,1.783,0,0,0-.322-1.177,1.491,1.491,0,0,0-1.172-.376,1.569,1.569,0,0,0-1.436.762V0H46.045V-10.566ZM61.953-5.361a6.455,6.455,0,0,1,1.084-3.955,3.568,3.568,0,0,1,3.027-1.445,3.035,3.035,0,0,1,2.383,1.113V-15h3.3V0H68.789l-.166-1.133A3.116,3.116,0,0,1,66.045.2,3.562,3.562,0,0,1,63.057-1.25,6.659,6.659,0,0,1,61.953-5.361Zm3.291.205q0,2.813,1.641,2.813a1.62,1.62,0,0,0,1.563-.918V-7.285A1.576,1.576,0,0,0,66.9-8.223q-1.523,0-1.65,2.461ZM78.73.2a5.432,5.432,0,0,1-3.936-1.45,5.008,5.008,0,0,1-1.5-3.774V-5.3a6.489,6.489,0,0,1,.6-2.861,4.395,4.395,0,0,1,1.753-1.919,5.292,5.292,0,0,1,2.734-.679A4.574,4.574,0,0,1,81.895-9.38a5.43,5.43,0,0,1,1.289,3.853v1.279H76.641a2.372,2.372,0,0,0,.771,1.4,2.3,2.3,0,0,0,1.543.508A2.958,2.958,0,0,0,81.4-3.437L82.9-1.66A4.2,4.2,0,0,1,81.157-.308,5.891,5.891,0,0,1,78.73.2Zm-.371-8.418q-1.445,0-1.719,1.914h3.32v-.254a1.63,1.63,0,0,0-.4-1.226A1.593,1.593,0,0,0,78.359-8.223Zm15.6,5.879a1.464,1.464,0,0,0,1.074-.376A1.379,1.379,0,0,0,95.4-3.77h3.086A3.653,3.653,0,0,1,97.241-.918,4.631,4.631,0,0,1,94.033.2,4.689,4.689,0,0,1,90.4-1.25a5.7,5.7,0,0,1-1.328-4v-.137a6.436,6.436,0,0,1,.591-2.827,4.3,4.3,0,0,1,1.7-1.885A5.081,5.081,0,0,1,94-10.762a4.573,4.573,0,0,1,3.271,1.143,4.053,4.053,0,0,1,1.211,3.1H95.4a1.806,1.806,0,0,0-.4-1.26,1.382,1.382,0,0,0-1.074-.439q-1.279,0-1.494,1.631a11.508,11.508,0,0,0-.068,1.426,4.52,4.52,0,0,0,.381,2.207A1.319,1.319,0,0,0,93.955-2.344Zm5.508-3.037a6.236,6.236,0,0,1,.615-2.817,4.4,4.4,0,0,1,1.768-1.9,5.323,5.323,0,0,1,2.705-.664,4.858,4.858,0,0,1,3.74,1.47,5.64,5.64,0,0,1,1.367,4v.117a5.472,5.472,0,0,1-1.372,3.921A4.871,4.871,0,0,1,104.57.2a4.927,4.927,0,0,1-3.623-1.353,5.29,5.29,0,0,1-1.475-3.667Zm3.291.205a3.932,3.932,0,0,0,.459,2.148,1.529,1.529,0,0,0,1.357.684q1.758,0,1.8-2.705v-.332q0-2.842-1.816-2.842-1.65,0-1.787,2.451Zm18.164-.02A6.44,6.44,0,0,1,119.844-1.2,3.6,3.6,0,0,1,116.816.2a3.122,3.122,0,0,1-2.6-1.279L114.082,0h-2.949V-15h3.291v5.283a3.013,3.013,0,0,1,2.373-1.045,3.6,3.6,0,0,1,3.047,1.416,6.473,6.473,0,0,1,1.074,3.984Zm-3.3-.21a4.3,4.3,0,0,0-.405-2.169,1.366,1.366,0,0,0-1.245-.648,1.576,1.576,0,0,0-1.543.848v4.192a1.585,1.585,0,0,0,1.563.838,1.4,1.4,0,0,0,1.475-1.131A8.121,8.121,0,0,0,117.617-5.405ZM127.48.2a5.432,5.432,0,0,1-3.936-1.45,5.008,5.008,0,0,1-1.5-3.774V-5.3a6.489,6.489,0,0,1,.6-2.861,4.395,4.395,0,0,1,1.753-1.919,5.292,5.292,0,0,1,2.734-.679,4.574,4.574,0,0,1,3.516,1.382,5.43,5.43,0,0,1,1.289,3.853v1.279h-6.543a2.372,2.372,0,0,0,.771,1.4,2.3,2.3,0,0,0,1.543.508,2.958,2.958,0,0,0,2.441-1.094l1.5,1.777a4.2,4.2,0,0,1-1.743,1.353A5.891,5.891,0,0,1,127.48.2Zm-.371-8.418q-1.445,0-1.719,1.914h3.32v-.254a1.63,1.63,0,0,0-.4-1.226A1.593,1.593,0,0,0,127.109-8.223Zm12.539.635-1.084-.078a1.947,1.947,0,0,0-1.992.977V0h-3.291V-10.566h3.086l.107,1.357a2.548,2.548,0,0,1,2.314-1.553,3.209,3.209,0,0,1,.918.117Zm5.508-5.605v2.627h1.738v2.285h-1.738v4.834a1.234,1.234,0,0,0,.215.83,1.152,1.152,0,0,0,.85.234,4.828,4.828,0,0,0,.82-.059V-.088A6.074,6.074,0,0,1,145.186.2a3.448,3.448,0,0,1-2.51-.8,3.282,3.282,0,0,1-.811-2.432V-8.281h-1.348v-2.285h1.348v-2.627Zm9.326,12.051A3.393,3.393,0,0,1,151.66.2a3.328,3.328,0,0,1-2.632-1.011,4.251,4.251,0,0,1-.894-2.905v-6.846h3.291V-3.7a1.183,1.183,0,0,0,1.318,1.357,1.72,1.72,0,0,0,1.611-.811v-7.412h3.311V0H154.58Zm11.377-6.445-1.084-.078a1.947,1.947,0,0,0-1.992.977V0h-3.291V-10.566h3.086l.107,1.357A2.548,2.548,0,0,1,165-10.762a3.209,3.209,0,0,1,.918.117ZM172.705,0a3.716,3.716,0,0,1-.312-.947A3.06,3.06,0,0,1,169.854.2a3.749,3.749,0,0,1-2.539-.9,2.875,2.875,0,0,1-1.045-2.271,2.955,2.955,0,0,1,1.27-2.6,6.468,6.468,0,0,1,3.691-.879h1.016v-.559q0-1.462-1.26-1.462a1.03,1.03,0,0,0-1.172,1.158h-3.291a2.95,2.95,0,0,1,1.3-2.487,5.479,5.479,0,0,1,3.325-.956,4.8,4.8,0,0,1,3.193.986,3.429,3.429,0,0,1,1.2,2.705v4.678A4.79,4.79,0,0,0,176-.166V0Zm-2.061-2.148a1.836,1.836,0,0,0,1.021-.264,1.652,1.652,0,0,0,.581-.6V-4.7h-.957q-1.719,0-1.719,1.543a.942.942,0,0,0,.3.728A1.1,1.1,0,0,0,170.645-2.148Zm11.289-3.213a6.455,6.455,0,0,1,1.084-3.955,3.568,3.568,0,0,1,3.027-1.445,3.035,3.035,0,0,1,2.383,1.113V-15h3.3V0H188.77L188.6-1.133A3.116,3.116,0,0,1,186.025.2a3.562,3.562,0,0,1-2.988-1.445A6.659,6.659,0,0,1,181.934-5.361Zm3.291.205q0,2.813,1.641,2.813a1.62,1.62,0,0,0,1.563-.918V-7.285a1.576,1.576,0,0,0-1.543-.937q-1.523,0-1.65,2.461ZM198.711.2a5.432,5.432,0,0,1-3.936-1.45,5.008,5.008,0,0,1-1.5-3.774V-5.3a6.489,6.489,0,0,1,.6-2.861,4.395,4.395,0,0,1,1.753-1.919,5.292,5.292,0,0,1,2.734-.679,4.574,4.574,0,0,1,3.516,1.382,5.43,5.43,0,0,1,1.289,3.853v1.279h-6.543a2.372,2.372,0,0,0,.771,1.4,2.3,2.3,0,0,0,1.543.508,2.958,2.958,0,0,0,2.441-1.094l1.5,1.777a4.2,4.2,0,0,1-1.743,1.353A5.891,5.891,0,0,1,198.711.2Zm-.371-8.418q-1.445,0-1.719,1.914h3.32v-.254a1.63,1.63,0,0,0-.4-1.226A1.593,1.593,0,0,0,198.34-8.223ZM212.939,0h-3.3V-10.566h3.3Zm-3.5-13.291a1.469,1.469,0,0,1,.508-1.152,1.916,1.916,0,0,1,1.318-.449,1.916,1.916,0,0,1,1.318.449,1.469,1.469,0,0,1,.508,1.152,1.469,1.469,0,0,1-.508,1.152,1.916,1.916,0,0,1-1.318.449,1.916,1.916,0,0,1-1.318-.449A1.469,1.469,0,0,1,209.443-13.291Zm8.545,2.725.107,1.24a3.583,3.583,0,0,1,3.018-1.436,3.015,3.015,0,0,1,2.466.986,4.7,4.7,0,0,1,.845,2.969V0h-3.3V-6.67a1.783,1.783,0,0,0-.322-1.177,1.491,1.491,0,0,0-1.172-.376,1.569,1.569,0,0,0-1.436.762V0H214.9V-10.566Zm12.09-2.627v2.627h1.738v2.285h-1.738v4.834a1.234,1.234,0,0,0,.215.83,1.152,1.152,0,0,0,.85.234,4.828,4.828,0,0,0,.82-.059V-.088A6.074,6.074,0,0,1,230.107.2a3.448,3.448,0,0,1-2.51-.8,3.282,3.282,0,0,1-.811-2.432V-8.281h-1.348v-2.285h1.348v-2.627ZM238.223.2a5.432,5.432,0,0,1-3.936-1.45,5.008,5.008,0,0,1-1.5-3.774V-5.3a6.489,6.489,0,0,1,.6-2.861,4.395,4.395,0,0,1,1.753-1.919,5.292,5.292,0,0,1,2.734-.679,4.574,4.574,0,0,1,3.516,1.382,5.43,5.43,0,0,1,1.289,3.853v1.279h-6.543a2.372,2.372,0,0,0,.771,1.4,2.3,2.3,0,0,0,1.543.508,2.958,2.958,0,0,0,2.441-1.094l1.5,1.777a4.2,4.2,0,0,1-1.743,1.353A5.891,5.891,0,0,1,238.223.2Zm-.371-8.418q-1.445,0-1.719,1.914h3.32v-.254a1.63,1.63,0,0,0-.4-1.226A1.593,1.593,0,0,0,237.852-8.223Zm12.539.635-1.084-.078a1.947,1.947,0,0,0-1.992.977V0h-3.291V-10.566h3.086l.107,1.357a2.548,2.548,0,0,1,2.314-1.553,3.209,3.209,0,0,1,.918.117ZM256.689.2a5.432,5.432,0,0,1-3.936-1.45,5.008,5.008,0,0,1-1.5-3.774V-5.3a6.489,6.489,0,0,1,.6-2.861,4.395,4.395,0,0,1,1.753-1.919,5.292,5.292,0,0,1,2.734-.679,4.574,4.574,0,0,1,3.516,1.382,5.43,5.43,0,0,1,1.289,3.853v1.279H254.6a2.372,2.372,0,0,0,.771,1.4,2.3,2.3,0,0,0,1.543.508,2.958,2.958,0,0,0,2.441-1.094l1.5,1.777a4.2,4.2,0,0,1-1.743,1.353A5.891,5.891,0,0,1,256.689.2Zm-.371-8.418q-1.445,0-1.719,1.914h3.32v-.254a1.63,1.63,0,0,0-.4-1.226A1.593,1.593,0,0,0,256.318-8.223ZM268-2.969a.76.76,0,0,0-.439-.674,6.685,6.685,0,0,0-1.67-.527,7.615,7.615,0,0,1-2.031-.718,3.4,3.4,0,0,1-1.221-1.079,2.577,2.577,0,0,1-.42-1.455,2.92,2.92,0,0,1,1.2-2.4,4.948,4.948,0,0,1,3.145-.942,5.482,5.482,0,0,1,3.359.947,2.962,2.962,0,0,1,1.27,2.49h-3.3q0-1.27-1.338-1.27a1.326,1.326,0,0,0-.869.288.892.892,0,0,0-.352.718.819.819,0,0,0,.43.713,4.06,4.06,0,0,0,1.372.449,11.856,11.856,0,0,1,1.655.42,3.007,3.007,0,0,1,2.383,2.939,2.767,2.767,0,0,1-1.284,2.354A5.631,5.631,0,0,1,266.563.2a5.747,5.747,0,0,1-2.422-.488,4.05,4.05,0,0,1-1.66-1.328,3.007,3.007,0,0,1-.6-1.768h3.076a1.272,1.272,0,0,0,.488,1.069,2.009,2.009,0,0,0,1.2.337,1.58,1.58,0,0,0,1.011-.273A.875.875,0,0,0,268-2.969ZM277.822.2a5.432,5.432,0,0,1-3.936-1.45,5.008,5.008,0,0,1-1.5-3.774V-5.3a6.489,6.489,0,0,1,.6-2.861,4.395,4.395,0,0,1,1.753-1.919,5.292,5.292,0,0,1,2.734-.679,4.574,4.574,0,0,1,3.516,1.382,5.43,5.43,0,0,1,1.289,3.853v1.279h-6.543a2.372,2.372,0,0,0,.771,1.4,2.3,2.3,0,0,0,1.543.508,2.958,2.958,0,0,0,2.441-1.094l1.5,1.777a4.2,4.2,0,0,1-1.743,1.353A5.891,5.891,0,0,1,277.822.2Zm-.371-8.418q-1.445,0-1.719,1.914h3.32v-.254a1.63,1.63,0,0,0-.4-1.226A1.593,1.593,0,0,0,277.451-8.223Zm11.68,5.254a.76.76,0,0,0-.439-.674,6.685,6.685,0,0,0-1.67-.527,7.615,7.615,0,0,1-2.031-.718,3.4,3.4,0,0,1-1.221-1.079,2.577,2.577,0,0,1-.42-1.455,2.92,2.92,0,0,1,1.2-2.4,4.948,4.948,0,0,1,3.145-.942,5.482,5.482,0,0,1,3.359.947,2.962,2.962,0,0,1,1.27,2.49h-3.3q0-1.27-1.338-1.27a1.326,1.326,0,0,0-.869.288.892.892,0,0,0-.352.718.819.819,0,0,0,.43.713,4.06,4.06,0,0,0,1.372.449,11.856,11.856,0,0,1,1.655.42A3.007,3.007,0,0,1,292.3-3.066a2.767,2.767,0,0,1-1.284,2.354A5.631,5.631,0,0,1,287.7.2a5.747,5.747,0,0,1-2.422-.488,4.05,4.05,0,0,1-1.66-1.328,3.007,3.007,0,0,1-.6-1.768h3.076a1.272,1.272,0,0,0,.488,1.069,2.009,2.009,0,0,0,1.2.337,1.58,1.58,0,0,0,1.011-.273A.875.875,0,0,0,289.131-2.969Zm19.063-4.082H299.15V-9.59h9.043Zm0,4.287H299.15V-5.3h9.043Zm15.215-11.66v2.588h-.146a4.941,4.941,0,0,0-3.032.884A3.731,3.731,0,0,0,318.77-8.5a3.848,3.848,0,0,1,2.813-1.094,3.59,3.59,0,0,1,2.939,1.348,5.436,5.436,0,0,1,1.094,3.535,4.978,4.978,0,0,1-.64,2.49,4.564,4.564,0,0,1-1.787,1.772,5.135,5.135,0,0,1-2.544.64,5.307,5.307,0,0,1-2.705-.688,4.733,4.733,0,0,1-1.855-1.968A6.48,6.48,0,0,1,315.4-5.41V-6.729a8.208,8.208,0,0,1,.942-3.95,6.832,6.832,0,0,1,2.69-2.749,7.692,7.692,0,0,1,3.877-1ZM320.439-7.07a1.883,1.883,0,0,0-1.094.3,1.922,1.922,0,0,0-.654.742v.986q0,2.7,1.865,2.7a1.513,1.513,0,0,0,1.255-.674,2.746,2.746,0,0,0,.5-1.689,2.7,2.7,0,0,0-.513-1.7A1.64,1.64,0,0,0,320.439-7.07ZM333.525-5.5a3.476,3.476,0,0,1-2.383.957,3.847,3.847,0,0,1-3.066-1.309,5.155,5.155,0,0,1-1.133-3.5,5.247,5.247,0,0,1,.635-2.539,4.763,4.763,0,0,1,1.782-1.855,4.859,4.859,0,0,1,2.534-.684,4.717,4.717,0,0,1,2.544.708,4.767,4.767,0,0,1,1.772,2,6.877,6.877,0,0,1,.654,2.983v1.26a8.548,8.548,0,0,1-.923,4.082,6.371,6.371,0,0,1-2.632,2.656A8.224,8.224,0,0,1,329.326.2h-.205V-2.441l.625-.01Q333.145-2.617,333.525-5.5Zm-1.494-1.416a1.6,1.6,0,0,0,1.543-.928V-9.209a3.555,3.555,0,0,0-.459-2.021,1.44,1.44,0,0,0-1.24-.654,1.361,1.361,0,0,0-1.162.742,3.3,3.3,0,0,0-.469,1.8,2.956,2.956,0,0,0,.479,1.772A1.531,1.531,0,0,0,332.031-6.914Zm7.8,10.742-1.66-.781.332-.664a5.416,5.416,0,0,0,.713-2.422V-2.48h2.637l-.01,2.119a5.3,5.3,0,0,1-.576,2.285A5.806,5.806,0,0,1,339.834,3.828Zm12.129-18.252v2.588h-.146a4.941,4.941,0,0,0-3.032.884,3.731,3.731,0,0,0-1.46,2.456,3.848,3.848,0,0,1,2.813-1.094,3.59,3.59,0,0,1,2.939,1.348,5.436,5.436,0,0,1,1.094,3.535,4.978,4.978,0,0,1-.64,2.49,4.564,4.564,0,0,1-1.787,1.772A5.135,5.135,0,0,1,349.2.2a5.307,5.307,0,0,1-2.705-.688,4.733,4.733,0,0,1-1.855-1.968,6.48,6.48,0,0,1-.684-2.949V-6.729a8.208,8.208,0,0,1,.942-3.95,6.832,6.832,0,0,1,2.69-2.749,7.692,7.692,0,0,1,3.877-1ZM348.994-7.07a1.883,1.883,0,0,0-1.094.3,1.922,1.922,0,0,0-.654.742v.986q0,2.7,1.865,2.7a1.513,1.513,0,0,0,1.255-.674,2.746,2.746,0,0,0,.5-1.689,2.7,2.7,0,0,0-.513-1.7A1.64,1.64,0,0,0,348.994-7.07Zm15.85,3.154,1.67-6.65h3.467L366.533,0h-3.359l-3.447-10.566H363.2ZM376.074.2a5.432,5.432,0,0,1-3.936-1.45,5.008,5.008,0,0,1-1.5-3.774V-5.3a6.489,6.489,0,0,1,.6-2.861,4.395,4.395,0,0,1,1.753-1.919,5.292,5.292,0,0,1,2.734-.679,4.574,4.574,0,0,1,3.516,1.382,5.43,5.43,0,0,1,1.289,3.853v1.279h-6.543a2.372,2.372,0,0,0,.771,1.4,2.3,2.3,0,0,0,1.543.508,2.958,2.958,0,0,0,2.441-1.094l1.5,1.777A4.2,4.2,0,0,1,378.5-.308,5.891,5.891,0,0,1,376.074.2ZM375.7-8.223q-1.445,0-1.719,1.914h3.32v-.254a1.63,1.63,0,0,0-.4-1.226A1.593,1.593,0,0,0,375.7-8.223Zm10.615,5.879a1.464,1.464,0,0,0,1.074-.376,1.379,1.379,0,0,0,.371-1.05h3.086A3.653,3.653,0,0,1,389.6-.918,4.631,4.631,0,0,1,386.4.2a4.689,4.689,0,0,1-3.633-1.445,5.7,5.7,0,0,1-1.328-4v-.137a6.436,6.436,0,0,1,.591-2.827,4.3,4.3,0,0,1,1.7-1.885,5.081,5.081,0,0,1,2.637-.659,4.573,4.573,0,0,1,3.271,1.143,4.053,4.053,0,0,1,1.211,3.1h-3.086a1.806,1.806,0,0,0-.4-1.26,1.382,1.382,0,0,0-1.074-.439q-1.279,0-1.494,1.631a11.51,11.51,0,0,0-.068,1.426,4.52,4.52,0,0,0,.381,2.207A1.319,1.319,0,0,0,386.318-2.344ZM397.354.2a5.432,5.432,0,0,1-3.936-1.45,5.008,5.008,0,0,1-1.5-3.774V-5.3a6.489,6.489,0,0,1,.6-2.861,4.395,4.395,0,0,1,1.753-1.919A5.292,5.292,0,0,1,397-10.762a4.574,4.574,0,0,1,3.516,1.382,5.43,5.43,0,0,1,1.289,3.853v1.279h-6.543a2.372,2.372,0,0,0,.771,1.4,2.3,2.3,0,0,0,1.543.508,2.958,2.958,0,0,0,2.441-1.094l1.5,1.777A4.2,4.2,0,0,1,399.78-.308,5.891,5.891,0,0,1,397.354.2Zm-.371-8.418q-1.445,0-1.719,1.914h3.32v-.254a1.63,1.63,0,0,0-.4-1.226A1.593,1.593,0,0,0,396.982-8.223Zm11.68,5.254a.76.76,0,0,0-.439-.674,6.685,6.685,0,0,0-1.67-.527,7.615,7.615,0,0,1-2.031-.718A3.4,3.4,0,0,1,403.3-5.967a2.577,2.577,0,0,1-.42-1.455,2.92,2.92,0,0,1,1.2-2.4,4.948,4.948,0,0,1,3.145-.942,5.482,5.482,0,0,1,3.359.947,2.962,2.962,0,0,1,1.27,2.49h-3.3q0-1.27-1.338-1.27a1.326,1.326,0,0,0-.869.288.892.892,0,0,0-.352.718.819.819,0,0,0,.43.713,4.06,4.06,0,0,0,1.372.449,11.856,11.856,0,0,1,1.655.42,3.007,3.007,0,0,1,2.383,2.939,2.767,2.767,0,0,1-1.284,2.354A5.631,5.631,0,0,1,407.227.2,5.747,5.747,0,0,1,404.8-.293a4.05,4.05,0,0,1-1.66-1.328,3.007,3.007,0,0,1-.6-1.768h3.076a1.272,1.272,0,0,0,.488,1.069,2.009,2.009,0,0,0,1.2.337,1.58,1.58,0,0,0,1.011-.273A.875.875,0,0,0,408.662-2.969Z" transform="translate(185 2937)" fill="#12263f"/>
      </g>
    </g>
  </g>
</svg>
