<svg xmlns="http://www.w3.org/2000/svg" width="676.063" height="452.5" viewBox="0 0 676.063 452.5">
  <g id="Grupo_93099" data-name="Grupo 93099" transform="translate(2633.063 -6628.5)">
    <g id="Grupo_93096" data-name="Grupo 93096" transform="translate(-2751 3777)">
      <rect id="Rectángulo_31816" data-name="Rectángulo 31816" width="663" height="131" transform="translate(131 2859)" fill="#6595bf"/>
      <g id="Grupo_89142" data-name="Grupo 89142" transform="translate(224 2852)">
        <rect id="Rectángulo_31778" data-name="Rectángulo 31778" width="670.762" height="132.775" transform="translate(-105.563)" fill="#fff" stroke="#12263f" stroke-miterlimit="10" stroke-width="1"/>
      </g>
      <g id="Grupo_89143" data-name="Grupo 89143" transform="translate(101 -5)">
        <path id="Trazado_148473" data-name="Trazado 148473" d="M9.893-6.035H4.5v3.4h6.367V0H1.074V-14.219h9.814v2.646H4.5v3H9.893Zm5.244-4.531.107,1.24a3.583,3.583,0,0,1,3.018-1.436,3.015,3.015,0,0,1,2.466.986,4.7,4.7,0,0,1,.845,2.969V0h-3.3V-6.67a1.783,1.783,0,0,0-.322-1.177,1.491,1.491,0,0,0-1.172-.376,1.569,1.569,0,0,0-1.436.762V0H12.051V-10.566Zm7.842,5.205a6.455,6.455,0,0,1,1.084-3.955,3.568,3.568,0,0,1,3.027-1.445,3.035,3.035,0,0,1,2.383,1.113V-15h3.3V0H29.814l-.166-1.133A3.116,3.116,0,0,1,27.07.2,3.562,3.562,0,0,1,24.082-1.25,6.659,6.659,0,0,1,22.979-5.361Zm3.291.205q0,2.813,1.641,2.813a1.62,1.62,0,0,0,1.563-.918V-7.285a1.576,1.576,0,0,0-1.543-.937q-1.523,0-1.65,2.461ZM39.756.2a5.432,5.432,0,0,1-3.936-1.45,5.008,5.008,0,0,1-1.5-3.774V-5.3a6.489,6.489,0,0,1,.6-2.861,4.395,4.395,0,0,1,1.753-1.919,5.292,5.292,0,0,1,2.734-.679A4.574,4.574,0,0,1,42.92-9.38a5.43,5.43,0,0,1,1.289,3.853v1.279H37.666a2.372,2.372,0,0,0,.771,1.4,2.3,2.3,0,0,0,1.543.508,2.958,2.958,0,0,0,2.441-1.094l1.5,1.777A4.2,4.2,0,0,1,42.183-.308,5.891,5.891,0,0,1,39.756.2Zm-.371-8.418q-1.445,0-1.719,1.914h3.32v-.254a1.63,1.63,0,0,0-.4-1.226A1.593,1.593,0,0,0,39.385-8.223Zm12.441,7.08A3.393,3.393,0,0,1,49,.2,3.328,3.328,0,0,1,46.372-.815a4.251,4.251,0,0,1-.894-2.905v-6.846H48.77V-3.7a1.183,1.183,0,0,0,1.318,1.357A1.72,1.72,0,0,0,51.7-3.154v-7.412H55.01V0H51.924ZM56.4-5.361A6.455,6.455,0,0,1,57.48-9.316a3.568,3.568,0,0,1,3.027-1.445,3.035,3.035,0,0,1,2.383,1.113V-15h3.3V0H63.232l-.166-1.133A3.116,3.116,0,0,1,60.488.2,3.562,3.562,0,0,1,57.5-1.25,6.659,6.659,0,0,1,56.4-5.361Zm3.291.205q0,2.813,1.641,2.813a1.62,1.62,0,0,0,1.563-.918V-7.285a1.576,1.576,0,0,0-1.543-.937q-1.523,0-1.65,2.461ZM74.014,0A3.716,3.716,0,0,1,73.7-.947,3.06,3.06,0,0,1,71.162.2a3.749,3.749,0,0,1-2.539-.9,2.875,2.875,0,0,1-1.045-2.271,2.955,2.955,0,0,1,1.27-2.6,6.468,6.468,0,0,1,3.691-.879h1.016v-.559q0-1.462-1.26-1.462a1.03,1.03,0,0,0-1.172,1.158H67.832a2.95,2.95,0,0,1,1.3-2.487,5.479,5.479,0,0,1,3.325-.956,4.8,4.8,0,0,1,3.193.986,3.429,3.429,0,0,1,1.2,2.705v4.678A4.79,4.79,0,0,0,77.3-.166V0ZM71.953-2.148a1.836,1.836,0,0,0,1.021-.264,1.653,1.653,0,0,0,.581-.6V-4.7H72.6q-1.719,0-1.719,1.543a.942.942,0,0,0,.3.728A1.1,1.1,0,0,0,71.953-2.148Zm9.834-8.418.107,1.24a3.633,3.633,0,0,1,3.018-1.436A2.675,2.675,0,0,1,87.617-9.17a3.517,3.517,0,0,1,3.105-1.592q3.213,0,3.3,3.887V0h-3.3V-6.67a2.014,2.014,0,0,0-.273-1.182,1.164,1.164,0,0,0-1-.371A1.559,1.559,0,0,0,88-7.354l.01.137V0h-3.3V-6.65a2.117,2.117,0,0,0-.264-1.2,1.161,1.161,0,0,0-1.006-.371,1.578,1.578,0,0,0-1.445.869V0H78.7V-10.566ZM99.375,0h-3.3V-10.566h3.3Zm-3.5-13.291a1.469,1.469,0,0,1,.508-1.152,1.916,1.916,0,0,1,1.318-.449,1.916,1.916,0,0,1,1.318.449,1.469,1.469,0,0,1,.508,1.152,1.469,1.469,0,0,1-.508,1.152,1.916,1.916,0,0,1-1.318.449,1.916,1.916,0,0,1-1.318-.449A1.469,1.469,0,0,1,95.879-13.291ZM106.514.2a5.432,5.432,0,0,1-3.936-1.45,5.008,5.008,0,0,1-1.5-3.774V-5.3a6.489,6.489,0,0,1,.6-2.861,4.395,4.395,0,0,1,1.753-1.919,5.292,5.292,0,0,1,2.734-.679,4.574,4.574,0,0,1,3.516,1.382,5.43,5.43,0,0,1,1.289,3.853v1.279h-6.543a2.372,2.372,0,0,0,.771,1.4,2.3,2.3,0,0,0,1.543.508,2.958,2.958,0,0,0,2.441-1.094l1.5,1.777A4.2,4.2,0,0,1,108.94-.308,5.891,5.891,0,0,1,106.514.2Zm-.371-8.418q-1.445,0-1.719,1.914h3.32v-.254a1.63,1.63,0,0,0-.4-1.226A1.593,1.593,0,0,0,106.143-8.223Zm9.17-2.344.107,1.24a3.583,3.583,0,0,1,3.018-1.436,3.015,3.015,0,0,1,2.466.986,4.7,4.7,0,0,1,.845,2.969V0h-3.3V-6.67a1.783,1.783,0,0,0-.322-1.177,1.491,1.491,0,0,0-1.172-.376,1.569,1.569,0,0,0-1.436.762V0h-3.291V-10.566Zm12.09-2.627v2.627h1.738v2.285H127.4v4.834a1.234,1.234,0,0,0,.215.83,1.152,1.152,0,0,0,.85.234,4.828,4.828,0,0,0,.82-.059V-.088A6.074,6.074,0,0,1,127.432.2a3.448,3.448,0,0,1-2.51-.8,3.282,3.282,0,0,1-.811-2.432V-8.281h-1.348v-2.285h1.348v-2.627Zm2.324,7.813a6.236,6.236,0,0,1,.615-2.817,4.4,4.4,0,0,1,1.768-1.9,5.323,5.323,0,0,1,2.705-.664,4.858,4.858,0,0,1,3.74,1.47,5.64,5.64,0,0,1,1.367,4v.117a5.472,5.472,0,0,1-1.372,3.921A4.871,4.871,0,0,1,134.834.2a4.927,4.927,0,0,1-3.623-1.353,5.29,5.29,0,0,1-1.475-3.667Zm3.291.205a3.932,3.932,0,0,0,.459,2.148,1.529,1.529,0,0,0,1.357.684q1.758,0,1.8-2.705v-.332q0-2.842-1.816-2.842-1.65,0-1.787,2.451ZM152.3,0a3.716,3.716,0,0,1-.312-.947A3.06,3.06,0,0,1,149.453.2a3.749,3.749,0,0,1-2.539-.9,2.875,2.875,0,0,1-1.045-2.271,2.955,2.955,0,0,1,1.27-2.6,6.468,6.468,0,0,1,3.691-.879h1.016v-.559q0-1.462-1.26-1.462a1.03,1.03,0,0,0-1.172,1.158h-3.291a2.95,2.95,0,0,1,1.3-2.487,5.479,5.479,0,0,1,3.325-.956,4.8,4.8,0,0,1,3.193.986,3.429,3.429,0,0,1,1.2,2.705v4.678A4.79,4.79,0,0,0,155.6-.166V0Zm-2.061-2.148a1.836,1.836,0,0,0,1.021-.264,1.652,1.652,0,0,0,.581-.6V-4.7h-.957q-1.719,0-1.719,1.543a.942.942,0,0,0,.3.728A1.1,1.1,0,0,0,150.244-2.148Zm16.172-.2a1.464,1.464,0,0,0,1.074-.376,1.379,1.379,0,0,0,.371-1.05h3.086A3.653,3.653,0,0,1,169.7-.918,4.631,4.631,0,0,1,166.494.2a4.689,4.689,0,0,1-3.633-1.445,5.7,5.7,0,0,1-1.328-4v-.137a6.436,6.436,0,0,1,.591-2.827,4.3,4.3,0,0,1,1.7-1.885,5.081,5.081,0,0,1,2.637-.659,4.573,4.573,0,0,1,3.271,1.143,4.053,4.053,0,0,1,1.211,3.1h-3.086a1.807,1.807,0,0,0-.4-1.26,1.382,1.382,0,0,0-1.074-.439q-1.279,0-1.494,1.631a11.507,11.507,0,0,0-.068,1.426,4.52,4.52,0,0,0,.381,2.207A1.319,1.319,0,0,0,166.416-2.344Zm5.508-3.037a6.236,6.236,0,0,1,.615-2.817,4.4,4.4,0,0,1,1.768-1.9,5.323,5.323,0,0,1,2.705-.664,4.858,4.858,0,0,1,3.74,1.47,5.64,5.64,0,0,1,1.367,4v.117a5.472,5.472,0,0,1-1.372,3.921A4.871,4.871,0,0,1,177.031.2a4.927,4.927,0,0,1-3.623-1.353,5.29,5.29,0,0,1-1.475-3.667Zm3.291.205a3.932,3.932,0,0,0,.459,2.148,1.529,1.529,0,0,0,1.357.684q1.758,0,1.8-2.705v-.332q0-2.842-1.816-2.842-1.65,0-1.787,2.451Zm14.746-2.412-1.084-.078a1.947,1.947,0,0,0-1.992.977V0h-3.291V-10.566h3.086l.107,1.357a2.548,2.548,0,0,1,2.314-1.553,3.209,3.209,0,0,1,.918.117Zm5.508-5.605v2.627h1.738v2.285h-1.738v4.834a1.234,1.234,0,0,0,.215.83,1.152,1.152,0,0,0,.85.234,4.828,4.828,0,0,0,.82-.059V-.088A6.074,6.074,0,0,1,195.5.2a3.448,3.448,0,0,1-2.51-.8,3.282,3.282,0,0,1-.811-2.432V-8.281H190.83v-2.285h1.348v-2.627Zm2.324,7.813a6.236,6.236,0,0,1,.615-2.817,4.4,4.4,0,0,1,1.768-1.9,5.323,5.323,0,0,1,2.705-.664,4.858,4.858,0,0,1,3.74,1.47,5.64,5.64,0,0,1,1.367,4v.117a5.472,5.472,0,0,1-1.372,3.921A4.871,4.871,0,0,1,202.9.2a4.927,4.927,0,0,1-3.623-1.353A5.29,5.29,0,0,1,197.8-4.824Zm3.291.205a3.932,3.932,0,0,0,.459,2.148,1.529,1.529,0,0,0,1.357.684q1.758,0,1.8-2.705v-.332q0-2.842-1.816-2.842-1.65,0-1.787,2.451Zm23.145-.029a6.372,6.372,0,0,1-1.108,3.931A3.554,3.554,0,0,1,220.127.2a3.046,3.046,0,0,1-2.393-1.064V4.063h-3.291V-10.566h3.076l.1.977a3.046,3.046,0,0,1,2.49-1.172,3.582,3.582,0,0,1,3.037,1.44,6.45,6.45,0,0,1,1.084,3.96Zm-3.291-.205q0-2.812-1.641-2.812a1.549,1.549,0,0,0-1.562.84v4.16a1.6,1.6,0,0,0,1.582.879q1.572,0,1.621-2.715ZM229.15,0h-3.3V-15h3.3Zm7.979,0a3.716,3.716,0,0,1-.312-.947A3.06,3.06,0,0,1,234.277.2a3.749,3.749,0,0,1-2.539-.9,2.875,2.875,0,0,1-1.045-2.271,2.955,2.955,0,0,1,1.27-2.6,6.468,6.468,0,0,1,3.691-.879h1.016v-.559q0-1.462-1.26-1.462a1.03,1.03,0,0,0-1.172,1.158h-3.291a2.95,2.95,0,0,1,1.3-2.487,5.479,5.479,0,0,1,3.325-.956,4.8,4.8,0,0,1,3.193.986,3.429,3.429,0,0,1,1.2,2.705v4.678a4.79,4.79,0,0,0,.449,2.227V0Zm-2.061-2.148a1.836,1.836,0,0,0,1.021-.264,1.652,1.652,0,0,0,.581-.6V-4.7h-.957q-1.719,0-1.719,1.543a.942.942,0,0,0,.3.728A1.1,1.1,0,0,0,235.068-2.148Zm10.605-.391h4.814V0h-8.975V-1.836L246.2-8.027h-4.482v-2.539h8.662v1.777Zm5.84-2.842a6.236,6.236,0,0,1,.615-2.817,4.4,4.4,0,0,1,1.768-1.9,5.323,5.323,0,0,1,2.705-.664,4.859,4.859,0,0,1,3.74,1.47,5.64,5.64,0,0,1,1.367,4v.117a5.472,5.472,0,0,1-1.372,3.921A4.871,4.871,0,0,1,256.621.2,4.927,4.927,0,0,1,253-1.157a5.29,5.29,0,0,1-1.475-3.667Zm3.291.205a3.932,3.932,0,0,0,.459,2.148,1.529,1.529,0,0,0,1.357.684q1.758,0,1.8-2.705v-.332q0-2.842-1.816-2.842-1.65,0-1.787,2.451ZM277.51-7.051h-9.043V-9.59h9.043Zm0,4.287h-9.043V-5.3h9.043Z" transform="translate(80 2937)" fill="#12263f"/>
        <path id="Trazado_148476" data-name="Trazado 148476" d="M3.438-9.341.254-10.219l.635-1.844L4-10.785,3.76-14.219H5.85l-.254,3.5,3.027-1.249L9.258-10.1l-3.223.878L8.174-6.636,6.484-5.483,4.7-8.354,2.9-5.581l-1.689-1.1ZM22.441,0h-3.3V-10.508L15.9-9.561v-2.5l6.24-2.158h.3ZM36.6-5.811a6.789,6.789,0,0,1-1.294,4.443A4.471,4.471,0,0,1,31.66.2a4.5,4.5,0,0,1-3.672-1.572,6.779,6.779,0,0,1-1.3-4.434v-2.6a6.789,6.789,0,0,1,1.294-4.443,4.483,4.483,0,0,1,3.657-1.562A4.484,4.484,0,0,1,35.3-12.842,6.8,6.8,0,0,1,36.6-8.4ZM33.311-8.828a5.071,5.071,0,0,0-.4-2.29,1.338,1.338,0,0,0-1.27-.757,1.307,1.307,0,0,0-1.235.7,4.777,4.777,0,0,0-.415,2.129V-5.41a5.109,5.109,0,0,0,.4,2.329,1.343,1.343,0,0,0,1.27.737,1.325,1.325,0,0,0,1.24-.718,4.878,4.878,0,0,0,.41-2.251ZM48.184-5.811A6.789,6.789,0,0,1,46.89-1.367,4.471,4.471,0,0,1,43.242.2,4.5,4.5,0,0,1,39.57-1.377a6.779,6.779,0,0,1-1.3-4.434v-2.6a6.789,6.789,0,0,1,1.294-4.443,4.483,4.483,0,0,1,3.657-1.562,4.484,4.484,0,0,1,3.662,1.572,6.8,6.8,0,0,1,1.3,4.443ZM44.893-8.828a5.071,5.071,0,0,0-.4-2.29,1.338,1.338,0,0,0-1.27-.757,1.307,1.307,0,0,0-1.235.7,4.777,4.777,0,0,0-.415,2.129V-5.41a5.109,5.109,0,0,0,.4,2.329,1.343,1.343,0,0,0,1.27.737,1.325,1.325,0,0,0,1.24-.718,4.878,4.878,0,0,0,.41-2.251Z" transform="translate(583 2937)" fill="#12263f"/>
        <text id="_" data-name="————————" transform="translate(377 2937)" fill="#12263f" font-size="29" font-family="Roboto-Black, Roboto" font-weight="800"><tspan x="0" y="0">————————</tspan></text>
        <path id="Trazado_148474" data-name="Trazado 148474" d="M4.5-4.824V0H1.074V-14.219H6.748a6.608,6.608,0,0,1,2.886.6,4.526,4.526,0,0,1,1.943,1.709,4.667,4.667,0,0,1,.688,2.515,4.114,4.114,0,0,1-1.489,3.325A6.179,6.179,0,0,1,6.689-4.824Zm0-2.646H6.748a2.118,2.118,0,0,0,1.519-.5,1.85,1.85,0,0,0,.522-1.406,2.287,2.287,0,0,0-.537-1.592,1.9,1.9,0,0,0-1.465-.605H4.5ZM19.785,0a3.716,3.716,0,0,1-.312-.947A3.06,3.06,0,0,1,16.934.2a3.749,3.749,0,0,1-2.539-.9A2.875,2.875,0,0,1,13.35-2.979a2.955,2.955,0,0,1,1.27-2.6,6.468,6.468,0,0,1,3.691-.879h1.016v-.559q0-1.462-1.26-1.462a1.03,1.03,0,0,0-1.172,1.158H13.6a2.95,2.95,0,0,1,1.3-2.487,5.479,5.479,0,0,1,3.325-.956,4.8,4.8,0,0,1,3.193.986,3.429,3.429,0,0,1,1.2,2.705v4.678a4.79,4.79,0,0,0,.449,2.227V0ZM17.725-2.148a1.836,1.836,0,0,0,1.021-.264,1.653,1.653,0,0,0,.581-.6V-4.7h-.957q-1.719,0-1.719,1.543a.942.942,0,0,0,.3.728A1.1,1.1,0,0,0,17.725-2.148Zm12.256-.82a.76.76,0,0,0-.439-.674,6.685,6.685,0,0,0-1.67-.527,7.615,7.615,0,0,1-2.031-.718,3.4,3.4,0,0,1-1.221-1.079,2.577,2.577,0,0,1-.42-1.455,2.92,2.92,0,0,1,1.2-2.4,4.948,4.948,0,0,1,3.145-.942,5.482,5.482,0,0,1,3.359.947,2.962,2.962,0,0,1,1.27,2.49h-3.3q0-1.27-1.338-1.27a1.326,1.326,0,0,0-.869.288.892.892,0,0,0-.352.718.819.819,0,0,0,.43.713,4.06,4.06,0,0,0,1.372.449,11.857,11.857,0,0,1,1.655.42,3.007,3.007,0,0,1,2.383,2.939A2.767,2.767,0,0,1,31.87-.713,5.631,5.631,0,0,1,28.545.2a5.747,5.747,0,0,1-2.422-.488,4.05,4.05,0,0,1-1.66-1.328,3.007,3.007,0,0,1-.6-1.768h3.076a1.272,1.272,0,0,0,.488,1.069,2.009,2.009,0,0,0,1.2.337,1.58,1.58,0,0,0,1.011-.273A.875.875,0,0,0,29.98-2.969ZM38.164,0h-3.3V-10.566h3.3Zm-3.5-13.291a1.469,1.469,0,0,1,.508-1.152,1.916,1.916,0,0,1,1.318-.449,1.916,1.916,0,0,1,1.318.449,1.469,1.469,0,0,1,.508,1.152,1.469,1.469,0,0,1-.508,1.152,1.916,1.916,0,0,1-1.318.449,1.916,1.916,0,0,1-1.318-.449A1.469,1.469,0,0,1,34.668-13.291ZM44.4-3.916l1.67-6.65h3.467L46.094,0H42.734L39.287-10.566h3.477Zm5.557-1.465A6.236,6.236,0,0,1,50.576-8.2a4.4,4.4,0,0,1,1.768-1.9,5.323,5.323,0,0,1,2.705-.664,4.858,4.858,0,0,1,3.74,1.47,5.64,5.64,0,0,1,1.367,4v.117a5.472,5.472,0,0,1-1.372,3.921A4.871,4.871,0,0,1,55.068.2a4.927,4.927,0,0,1-3.623-1.353,5.29,5.29,0,0,1-1.475-3.667Zm3.291.205a3.932,3.932,0,0,0,.459,2.148,1.529,1.529,0,0,0,1.357.684q1.758,0,1.8-2.705v-.332q0-2.842-1.816-2.842-1.65,0-1.787,2.451Zm17.8,2.832a1.464,1.464,0,0,0,1.074-.376A1.379,1.379,0,0,0,72.5-3.77h3.086A3.653,3.653,0,0,1,74.341-.918,4.631,4.631,0,0,1,71.133.2,4.689,4.689,0,0,1,67.5-1.25a5.7,5.7,0,0,1-1.328-4v-.137a6.436,6.436,0,0,1,.591-2.827,4.3,4.3,0,0,1,1.7-1.885,5.081,5.081,0,0,1,2.637-.659,4.573,4.573,0,0,1,3.271,1.143,4.053,4.053,0,0,1,1.211,3.1H72.5a1.806,1.806,0,0,0-.4-1.26,1.382,1.382,0,0,0-1.074-.439q-1.279,0-1.494,1.631a11.508,11.508,0,0,0-.068,1.426,4.52,4.52,0,0,0,.381,2.207A1.319,1.319,0,0,0,71.055-2.344Zm5.508-3.037A6.236,6.236,0,0,1,77.178-8.2a4.4,4.4,0,0,1,1.768-1.9,5.323,5.323,0,0,1,2.705-.664,4.858,4.858,0,0,1,3.74,1.47,5.64,5.64,0,0,1,1.367,4v.117a5.472,5.472,0,0,1-1.372,3.921A4.871,4.871,0,0,1,81.67.2a4.927,4.927,0,0,1-3.623-1.353,5.29,5.29,0,0,1-1.475-3.667Zm3.291.205a3.932,3.932,0,0,0,.459,2.148,1.529,1.529,0,0,0,1.357.684q1.758,0,1.8-2.705v-.332q0-2.842-1.816-2.842-1.65,0-1.787,2.451ZM94.6-7.588l-1.084-.078a1.947,1.947,0,0,0-1.992.977V0H88.232V-10.566h3.086l.107,1.357a2.548,2.548,0,0,1,2.314-1.553,3.209,3.209,0,0,1,.918.117Zm7.578,0-1.084-.078a1.947,1.947,0,0,0-1.992.977V0H95.811V-10.566H98.9L99-9.209a2.548,2.548,0,0,1,2.314-1.553,3.209,3.209,0,0,1,.918.117ZM106.836,0h-3.3V-10.566h3.3Zm-3.5-13.291a1.469,1.469,0,0,1,.508-1.152,1.916,1.916,0,0,1,1.318-.449,1.916,1.916,0,0,1,1.318.449,1.469,1.469,0,0,1,.508,1.152,1.469,1.469,0,0,1-.508,1.152,1.916,1.916,0,0,1-1.318.449,1.916,1.916,0,0,1-1.318-.449A1.469,1.469,0,0,1,103.34-13.291ZM113.975.2a5.432,5.432,0,0,1-3.936-1.45,5.008,5.008,0,0,1-1.5-3.774V-5.3a6.489,6.489,0,0,1,.6-2.861,4.395,4.395,0,0,1,1.753-1.919,5.292,5.292,0,0,1,2.734-.679,4.574,4.574,0,0,1,3.516,1.382,5.43,5.43,0,0,1,1.289,3.853v1.279h-6.543a2.372,2.372,0,0,0,.771,1.4,2.3,2.3,0,0,0,1.543.508,2.958,2.958,0,0,0,2.441-1.094l1.5,1.777A4.2,4.2,0,0,1,116.4-.308,5.891,5.891,0,0,1,113.975.2ZM113.6-8.223q-1.445,0-1.719,1.914h3.32v-.254a1.63,1.63,0,0,0-.4-1.226A1.593,1.593,0,0,0,113.6-8.223Zm9.17-2.344.107,1.24a3.583,3.583,0,0,1,3.018-1.436,3.015,3.015,0,0,1,2.466.986,4.7,4.7,0,0,1,.845,2.969V0h-3.3V-6.67a1.783,1.783,0,0,0-.322-1.177,1.491,1.491,0,0,0-1.172-.376,1.569,1.569,0,0,0-1.436.762V0h-3.291V-10.566Zm12.09-2.627v2.627H136.6v2.285h-1.738v4.834a1.234,1.234,0,0,0,.215.83,1.152,1.152,0,0,0,.85.234,4.828,4.828,0,0,0,.82-.059V-.088A6.074,6.074,0,0,1,134.893.2a3.448,3.448,0,0,1-2.51-.8,3.282,3.282,0,0,1-.811-2.432V-8.281h-1.348v-2.285h1.348v-2.627ZM143.008.2a5.432,5.432,0,0,1-3.936-1.45,5.008,5.008,0,0,1-1.5-3.774V-5.3a6.489,6.489,0,0,1,.6-2.861,4.395,4.395,0,0,1,1.753-1.919,5.292,5.292,0,0,1,2.734-.679,4.574,4.574,0,0,1,3.516,1.382,5.43,5.43,0,0,1,1.289,3.853v1.279h-6.543a2.372,2.372,0,0,0,.771,1.4,2.3,2.3,0,0,0,1.543.508,2.958,2.958,0,0,0,2.441-1.094l1.5,1.777a4.2,4.2,0,0,1-1.743,1.353A5.891,5.891,0,0,1,143.008.2Zm-.371-8.418q-1.445,0-1.719,1.914h3.32v-.254a1.63,1.63,0,0,0-.4-1.226A1.593,1.593,0,0,0,142.637-8.223Z" transform="translate(403 2912)" fill="#12263f"/>
        <path id="Trazado_148475" data-name="Trazado 148475" d="M12.236-11.572H7.969V0H4.541V-11.572H.352v-2.646H12.236ZM11.084-5.381A6.236,6.236,0,0,1,11.7-8.2a4.4,4.4,0,0,1,1.768-1.9,5.323,5.323,0,0,1,2.705-.664,4.858,4.858,0,0,1,3.74,1.47,5.64,5.64,0,0,1,1.367,4v.117a5.472,5.472,0,0,1-1.372,3.921A4.871,4.871,0,0,1,16.191.2a4.927,4.927,0,0,1-3.623-1.353,5.29,5.29,0,0,1-1.475-3.667Zm3.291.205a3.932,3.932,0,0,0,.459,2.148,1.529,1.529,0,0,0,1.357.684q1.758,0,1.8-2.705v-.332q0-2.842-1.816-2.842-1.65,0-1.787,2.451Zm12.188-8.018v2.627H28.3v2.285H26.563v4.834a1.234,1.234,0,0,0,.215.83,1.152,1.152,0,0,0,.85.234,4.828,4.828,0,0,0,.82-.059V-.088A6.074,6.074,0,0,1,26.592.2a3.448,3.448,0,0,1-2.51-.8,3.282,3.282,0,0,1-.811-2.432V-8.281H21.924v-2.285h1.348v-2.627ZM35.547,0a3.716,3.716,0,0,1-.312-.947A3.06,3.06,0,0,1,32.7.2a3.749,3.749,0,0,1-2.539-.9,2.875,2.875,0,0,1-1.045-2.271,2.955,2.955,0,0,1,1.27-2.6,6.468,6.468,0,0,1,3.691-.879h1.016v-.559q0-1.462-1.26-1.462a1.03,1.03,0,0,0-1.172,1.158H29.365a2.95,2.95,0,0,1,1.3-2.487,5.479,5.479,0,0,1,3.325-.956,4.8,4.8,0,0,1,3.193.986,3.429,3.429,0,0,1,1.2,2.705v4.678a4.79,4.79,0,0,0,.449,2.227V0ZM33.486-2.148a1.836,1.836,0,0,0,1.021-.264,1.653,1.653,0,0,0,.581-.6V-4.7h-.957q-1.719,0-1.719,1.543a.942.942,0,0,0,.3.728A1.1,1.1,0,0,0,33.486-2.148ZM43.682,0h-3.3V-15h3.3ZM60.5-5.205A6.372,6.372,0,0,1,59.39-1.274,3.554,3.554,0,0,1,56.4.2,3.046,3.046,0,0,1,54-.869V4.063H50.713V-10.566h3.076l.1.977a3.046,3.046,0,0,1,2.49-1.172,3.582,3.582,0,0,1,3.037,1.44A6.45,6.45,0,0,1,60.5-5.361ZM57.207-5.41q0-2.812-1.641-2.812A1.549,1.549,0,0,0,54-7.383v4.16a1.6,1.6,0,0,0,1.582.879q1.572,0,1.621-2.715ZM67.9,0a3.716,3.716,0,0,1-.312-.947A3.06,3.06,0,0,1,65.049.2a3.749,3.749,0,0,1-2.539-.9,2.875,2.875,0,0,1-1.045-2.271,2.955,2.955,0,0,1,1.27-2.6,6.468,6.468,0,0,1,3.691-.879h1.016v-.559q0-1.462-1.26-1.462A1.03,1.03,0,0,0,65.01-7.319H61.719a2.95,2.95,0,0,1,1.3-2.487,5.479,5.479,0,0,1,3.325-.956,4.8,4.8,0,0,1,3.193.986,3.429,3.429,0,0,1,1.2,2.705v4.678a4.79,4.79,0,0,0,.449,2.227V0ZM65.84-2.148a1.836,1.836,0,0,0,1.021-.264,1.653,1.653,0,0,0,.581-.6V-4.7h-.957q-1.719,0-1.719,1.543a.942.942,0,0,0,.3.728A1.1,1.1,0,0,0,65.84-2.148ZM78.1-2.969a.76.76,0,0,0-.439-.674,6.685,6.685,0,0,0-1.67-.527,7.615,7.615,0,0,1-2.031-.718,3.4,3.4,0,0,1-1.221-1.079,2.577,2.577,0,0,1-.42-1.455,2.92,2.92,0,0,1,1.2-2.4,4.948,4.948,0,0,1,3.145-.942,5.482,5.482,0,0,1,3.359.947,2.962,2.962,0,0,1,1.27,2.49h-3.3q0-1.27-1.338-1.27a1.326,1.326,0,0,0-.869.288.892.892,0,0,0-.352.718.819.819,0,0,0,.43.713,4.06,4.06,0,0,0,1.372.449,11.857,11.857,0,0,1,1.655.42A3.007,3.007,0,0,1,81.27-3.066,2.767,2.767,0,0,1,79.985-.713,5.631,5.631,0,0,1,76.66.2a5.747,5.747,0,0,1-2.422-.488,4.05,4.05,0,0,1-1.66-1.328,3.007,3.007,0,0,1-.6-1.768h3.076a1.272,1.272,0,0,0,.488,1.069,2.009,2.009,0,0,0,1.2.337,1.58,1.58,0,0,0,1.011-.273A.875.875,0,0,0,78.1-2.969ZM86.279,0h-3.3V-10.566h3.3Zm-3.5-13.291a1.469,1.469,0,0,1,.508-1.152,1.916,1.916,0,0,1,1.318-.449,1.916,1.916,0,0,1,1.318.449,1.469,1.469,0,0,1,.508,1.152,1.469,1.469,0,0,1-.508,1.152,1.916,1.916,0,0,1-1.318.449,1.916,1.916,0,0,1-1.318-.449A1.469,1.469,0,0,1,82.783-13.291ZM92.52-3.916l1.67-6.65h3.467L94.209,0H90.85L87.4-10.566h3.477Zm5.557-1.465A6.236,6.236,0,0,1,98.691-8.2a4.4,4.4,0,0,1,1.768-1.9,5.323,5.323,0,0,1,2.705-.664,4.858,4.858,0,0,1,3.74,1.47,5.64,5.64,0,0,1,1.367,4v.117A5.472,5.472,0,0,1,106.9-1.255,4.871,4.871,0,0,1,103.184.2a4.927,4.927,0,0,1-3.623-1.353,5.29,5.29,0,0,1-1.475-3.667Zm3.291.205a3.932,3.932,0,0,0,.459,2.148,1.529,1.529,0,0,0,1.357.684q1.758,0,1.8-2.705v-.332q0-2.842-1.816-2.842-1.65,0-1.787,2.451Z" transform="translate(418 2956)" fill="#12263f"/>
      </g>
    </g>
    <g id="Grupo_93097" data-name="Grupo 93097" transform="translate(-2751 3936)">
      <rect id="Rectángulo_31816-2" data-name="Rectángulo 31816" width="663" height="131" transform="translate(131 2859)" fill="#6595bf"/>
      <g id="Grupo_89142-2" data-name="Grupo 89142" transform="translate(224 2852)">
        <rect id="Rectángulo_31778-2" data-name="Rectángulo 31778" width="670.762" height="132.775" transform="translate(-105.563)" fill="#fff" stroke="#12263f" stroke-miterlimit="10" stroke-width="1"/>
      </g>
      <g id="Grupo_89143-2" data-name="Grupo 89143" transform="translate(101 -5)">
        <path id="Trazado_148477" data-name="Trazado 148477" d="M9.893-6.035H4.5v3.4h6.367V0H1.074V-14.219h9.814v2.646H4.5v3H9.893Zm5.244-4.531.107,1.24a3.583,3.583,0,0,1,3.018-1.436,3.015,3.015,0,0,1,2.466.986,4.7,4.7,0,0,1,.845,2.969V0h-3.3V-6.67a1.783,1.783,0,0,0-.322-1.177,1.491,1.491,0,0,0-1.172-.376,1.569,1.569,0,0,0-1.436.762V0H12.051V-10.566Zm7.842,5.205a6.455,6.455,0,0,1,1.084-3.955,3.568,3.568,0,0,1,3.027-1.445,3.035,3.035,0,0,1,2.383,1.113V-15h3.3V0H29.814l-.166-1.133A3.116,3.116,0,0,1,27.07.2,3.562,3.562,0,0,1,24.082-1.25,6.659,6.659,0,0,1,22.979-5.361Zm3.291.205q0,2.813,1.641,2.813a1.62,1.62,0,0,0,1.563-.918V-7.285a1.576,1.576,0,0,0-1.543-.937q-1.523,0-1.65,2.461ZM39.756.2a5.432,5.432,0,0,1-3.936-1.45,5.008,5.008,0,0,1-1.5-3.774V-5.3a6.489,6.489,0,0,1,.6-2.861,4.395,4.395,0,0,1,1.753-1.919,5.292,5.292,0,0,1,2.734-.679A4.574,4.574,0,0,1,42.92-9.38a5.43,5.43,0,0,1,1.289,3.853v1.279H37.666a2.372,2.372,0,0,0,.771,1.4,2.3,2.3,0,0,0,1.543.508,2.958,2.958,0,0,0,2.441-1.094l1.5,1.777A4.2,4.2,0,0,1,42.183-.308,5.891,5.891,0,0,1,39.756.2Zm-.371-8.418q-1.445,0-1.719,1.914h3.32v-.254a1.63,1.63,0,0,0-.4-1.226A1.593,1.593,0,0,0,39.385-8.223Zm12.441,7.08A3.393,3.393,0,0,1,49,.2,3.328,3.328,0,0,1,46.372-.815a4.251,4.251,0,0,1-.894-2.905v-6.846H48.77V-3.7a1.183,1.183,0,0,0,1.318,1.357A1.72,1.72,0,0,0,51.7-3.154v-7.412H55.01V0H51.924ZM56.4-5.361A6.455,6.455,0,0,1,57.48-9.316a3.568,3.568,0,0,1,3.027-1.445,3.035,3.035,0,0,1,2.383,1.113V-15h3.3V0H63.232l-.166-1.133A3.116,3.116,0,0,1,60.488.2,3.562,3.562,0,0,1,57.5-1.25,6.659,6.659,0,0,1,56.4-5.361Zm3.291.205q0,2.813,1.641,2.813a1.62,1.62,0,0,0,1.563-.918V-7.285a1.576,1.576,0,0,0-1.543-.937q-1.523,0-1.65,2.461ZM74.014,0A3.716,3.716,0,0,1,73.7-.947,3.06,3.06,0,0,1,71.162.2a3.749,3.749,0,0,1-2.539-.9,2.875,2.875,0,0,1-1.045-2.271,2.955,2.955,0,0,1,1.27-2.6,6.468,6.468,0,0,1,3.691-.879h1.016v-.559q0-1.462-1.26-1.462a1.03,1.03,0,0,0-1.172,1.158H67.832a2.95,2.95,0,0,1,1.3-2.487,5.479,5.479,0,0,1,3.325-.956,4.8,4.8,0,0,1,3.193.986,3.429,3.429,0,0,1,1.2,2.705v4.678A4.79,4.79,0,0,0,77.3-.166V0ZM71.953-2.148a1.836,1.836,0,0,0,1.021-.264,1.653,1.653,0,0,0,.581-.6V-4.7H72.6q-1.719,0-1.719,1.543a.942.942,0,0,0,.3.728A1.1,1.1,0,0,0,71.953-2.148Zm9.834-8.418.107,1.24a3.633,3.633,0,0,1,3.018-1.436A2.675,2.675,0,0,1,87.617-9.17a3.517,3.517,0,0,1,3.105-1.592q3.213,0,3.3,3.887V0h-3.3V-6.67a2.014,2.014,0,0,0-.273-1.182,1.164,1.164,0,0,0-1-.371A1.559,1.559,0,0,0,88-7.354l.01.137V0h-3.3V-6.65a2.117,2.117,0,0,0-.264-1.2,1.161,1.161,0,0,0-1.006-.371,1.578,1.578,0,0,0-1.445.869V0H78.7V-10.566ZM99.375,0h-3.3V-10.566h3.3Zm-3.5-13.291a1.469,1.469,0,0,1,.508-1.152,1.916,1.916,0,0,1,1.318-.449,1.916,1.916,0,0,1,1.318.449,1.469,1.469,0,0,1,.508,1.152,1.469,1.469,0,0,1-.508,1.152,1.916,1.916,0,0,1-1.318.449,1.916,1.916,0,0,1-1.318-.449A1.469,1.469,0,0,1,95.879-13.291ZM106.514.2a5.432,5.432,0,0,1-3.936-1.45,5.008,5.008,0,0,1-1.5-3.774V-5.3a6.489,6.489,0,0,1,.6-2.861,4.395,4.395,0,0,1,1.753-1.919,5.292,5.292,0,0,1,2.734-.679,4.574,4.574,0,0,1,3.516,1.382,5.43,5.43,0,0,1,1.289,3.853v1.279h-6.543a2.372,2.372,0,0,0,.771,1.4,2.3,2.3,0,0,0,1.543.508,2.958,2.958,0,0,0,2.441-1.094l1.5,1.777A4.2,4.2,0,0,1,108.94-.308,5.891,5.891,0,0,1,106.514.2Zm-.371-8.418q-1.445,0-1.719,1.914h3.32v-.254a1.63,1.63,0,0,0-.4-1.226A1.593,1.593,0,0,0,106.143-8.223Zm9.17-2.344.107,1.24a3.583,3.583,0,0,1,3.018-1.436,3.015,3.015,0,0,1,2.466.986,4.7,4.7,0,0,1,.845,2.969V0h-3.3V-6.67a1.783,1.783,0,0,0-.322-1.177,1.491,1.491,0,0,0-1.172-.376,1.569,1.569,0,0,0-1.436.762V0h-3.291V-10.566Zm12.09-2.627v2.627h1.738v2.285H127.4v4.834a1.234,1.234,0,0,0,.215.83,1.152,1.152,0,0,0,.85.234,4.828,4.828,0,0,0,.82-.059V-.088A6.074,6.074,0,0,1,127.432.2a3.448,3.448,0,0,1-2.51-.8,3.282,3.282,0,0,1-.811-2.432V-8.281h-1.348v-2.285h1.348v-2.627Zm2.324,7.813a6.236,6.236,0,0,1,.615-2.817,4.4,4.4,0,0,1,1.768-1.9,5.323,5.323,0,0,1,2.705-.664,4.858,4.858,0,0,1,3.74,1.47,5.64,5.64,0,0,1,1.367,4v.117a5.472,5.472,0,0,1-1.372,3.921A4.871,4.871,0,0,1,134.834.2a4.927,4.927,0,0,1-3.623-1.353,5.29,5.29,0,0,1-1.475-3.667Zm3.291.205a3.932,3.932,0,0,0,.459,2.148,1.529,1.529,0,0,0,1.357.684q1.758,0,1.8-2.705v-.332q0-2.842-1.816-2.842-1.65,0-1.787,2.451ZM152.3,0a3.716,3.716,0,0,1-.312-.947A3.06,3.06,0,0,1,149.453.2a3.749,3.749,0,0,1-2.539-.9,2.875,2.875,0,0,1-1.045-2.271,2.955,2.955,0,0,1,1.27-2.6,6.468,6.468,0,0,1,3.691-.879h1.016v-.559q0-1.462-1.26-1.462a1.03,1.03,0,0,0-1.172,1.158h-3.291a2.95,2.95,0,0,1,1.3-2.487,5.479,5.479,0,0,1,3.325-.956,4.8,4.8,0,0,1,3.193.986,3.429,3.429,0,0,1,1.2,2.705v4.678A4.79,4.79,0,0,0,155.6-.166V0Zm-2.061-2.148a1.836,1.836,0,0,0,1.021-.264,1.652,1.652,0,0,0,.581-.6V-4.7h-.957q-1.719,0-1.719,1.543a.942.942,0,0,0,.3.728A1.1,1.1,0,0,0,150.244-2.148Zm16.172-.2a1.464,1.464,0,0,0,1.074-.376,1.379,1.379,0,0,0,.371-1.05h3.086A3.653,3.653,0,0,1,169.7-.918,4.631,4.631,0,0,1,166.494.2a4.689,4.689,0,0,1-3.633-1.445,5.7,5.7,0,0,1-1.328-4v-.137a6.436,6.436,0,0,1,.591-2.827,4.3,4.3,0,0,1,1.7-1.885,5.081,5.081,0,0,1,2.637-.659,4.573,4.573,0,0,1,3.271,1.143,4.053,4.053,0,0,1,1.211,3.1h-3.086a1.807,1.807,0,0,0-.4-1.26,1.382,1.382,0,0,0-1.074-.439q-1.279,0-1.494,1.631a11.507,11.507,0,0,0-.068,1.426,4.52,4.52,0,0,0,.381,2.207A1.319,1.319,0,0,0,166.416-2.344Zm5.508-3.037a6.236,6.236,0,0,1,.615-2.817,4.4,4.4,0,0,1,1.768-1.9,5.323,5.323,0,0,1,2.705-.664,4.858,4.858,0,0,1,3.74,1.47,5.64,5.64,0,0,1,1.367,4v.117a5.472,5.472,0,0,1-1.372,3.921A4.871,4.871,0,0,1,177.031.2a4.927,4.927,0,0,1-3.623-1.353,5.29,5.29,0,0,1-1.475-3.667Zm3.291.205a3.932,3.932,0,0,0,.459,2.148,1.529,1.529,0,0,0,1.357.684q1.758,0,1.8-2.705v-.332q0-2.842-1.816-2.842-1.65,0-1.787,2.451Zm14.746-2.412-1.084-.078a1.947,1.947,0,0,0-1.992.977V0h-3.291V-10.566h3.086l.107,1.357a2.548,2.548,0,0,1,2.314-1.553,3.209,3.209,0,0,1,.918.117Zm5.508-5.605v2.627h1.738v2.285h-1.738v4.834a1.234,1.234,0,0,0,.215.83,1.152,1.152,0,0,0,.85.234,4.828,4.828,0,0,0,.82-.059V-.088A6.074,6.074,0,0,1,195.5.2a3.448,3.448,0,0,1-2.51-.8,3.282,3.282,0,0,1-.811-2.432V-8.281H190.83v-2.285h1.348v-2.627Zm2.324,7.813a6.236,6.236,0,0,1,.615-2.817,4.4,4.4,0,0,1,1.768-1.9,5.323,5.323,0,0,1,2.705-.664,4.858,4.858,0,0,1,3.74,1.47,5.64,5.64,0,0,1,1.367,4v.117a5.472,5.472,0,0,1-1.372,3.921A4.871,4.871,0,0,1,202.9.2a4.927,4.927,0,0,1-3.623-1.353A5.29,5.29,0,0,1,197.8-4.824Zm3.291.205a3.932,3.932,0,0,0,.459,2.148,1.529,1.529,0,0,0,1.357.684q1.758,0,1.8-2.705v-.332q0-2.842-1.816-2.842-1.65,0-1.787,2.451Zm23.145-.029a6.372,6.372,0,0,1-1.108,3.931A3.554,3.554,0,0,1,220.127.2a3.046,3.046,0,0,1-2.393-1.064V4.063h-3.291V-10.566h3.076l.1.977a3.046,3.046,0,0,1,2.49-1.172,3.582,3.582,0,0,1,3.037,1.44,6.45,6.45,0,0,1,1.084,3.96Zm-3.291-.205q0-2.812-1.641-2.812a1.549,1.549,0,0,0-1.562.84v4.16a1.6,1.6,0,0,0,1.582.879q1.572,0,1.621-2.715ZM229.15,0h-3.3V-15h3.3Zm7.979,0a3.716,3.716,0,0,1-.312-.947A3.06,3.06,0,0,1,234.277.2a3.749,3.749,0,0,1-2.539-.9,2.875,2.875,0,0,1-1.045-2.271,2.955,2.955,0,0,1,1.27-2.6,6.468,6.468,0,0,1,3.691-.879h1.016v-.559q0-1.462-1.26-1.462a1.03,1.03,0,0,0-1.172,1.158h-3.291a2.95,2.95,0,0,1,1.3-2.487,5.479,5.479,0,0,1,3.325-.956,4.8,4.8,0,0,1,3.193.986,3.429,3.429,0,0,1,1.2,2.705v4.678a4.79,4.79,0,0,0,.449,2.227V0Zm-2.061-2.148a1.836,1.836,0,0,0,1.021-.264,1.652,1.652,0,0,0,.581-.6V-4.7h-.957q-1.719,0-1.719,1.543a.942.942,0,0,0,.3.728A1.1,1.1,0,0,0,235.068-2.148Zm10.605-.391h4.814V0h-8.975V-1.836L246.2-8.027h-4.482v-2.539h8.662v1.777Zm5.84-2.842a6.236,6.236,0,0,1,.615-2.817,4.4,4.4,0,0,1,1.768-1.9,5.323,5.323,0,0,1,2.705-.664,4.859,4.859,0,0,1,3.74,1.47,5.64,5.64,0,0,1,1.367,4v.117a5.472,5.472,0,0,1-1.372,3.921A4.871,4.871,0,0,1,256.621.2,4.927,4.927,0,0,1,253-1.157a5.29,5.29,0,0,1-1.475-3.667Zm3.291.205a3.932,3.932,0,0,0,.459,2.148,1.529,1.529,0,0,0,1.357.684q1.758,0,1.8-2.705v-.332q0-2.842-1.816-2.842-1.65,0-1.787,2.451ZM277.51-7.051h-9.043V-9.59h9.043Zm0,4.287h-9.043V-5.3h9.043Z" transform="translate(80 2937)" fill="#12263f"/>
        <path id="Trazado_148480" data-name="Trazado 148480" d="M3.438-9.341.254-10.219l.635-1.844L4-10.785,3.76-14.219H5.85l-.254,3.5,3.027-1.249L9.258-10.1l-3.223.878L8.174-6.636,6.484-5.483,4.7-8.354,2.9-5.581l-1.689-1.1ZM22.441,0h-3.3V-10.508L15.9-9.561v-2.5l6.24-2.158h.3ZM36.6-5.811a6.789,6.789,0,0,1-1.294,4.443A4.471,4.471,0,0,1,31.66.2a4.5,4.5,0,0,1-3.672-1.572,6.779,6.779,0,0,1-1.3-4.434v-2.6a6.789,6.789,0,0,1,1.294-4.443,4.483,4.483,0,0,1,3.657-1.562A4.484,4.484,0,0,1,35.3-12.842,6.8,6.8,0,0,1,36.6-8.4ZM33.311-8.828a5.071,5.071,0,0,0-.4-2.29,1.338,1.338,0,0,0-1.27-.757,1.307,1.307,0,0,0-1.235.7,4.777,4.777,0,0,0-.415,2.129V-5.41a5.109,5.109,0,0,0,.4,2.329,1.343,1.343,0,0,0,1.27.737,1.325,1.325,0,0,0,1.24-.718,4.878,4.878,0,0,0,.41-2.251ZM48.184-5.811A6.789,6.789,0,0,1,46.89-1.367,4.471,4.471,0,0,1,43.242.2,4.5,4.5,0,0,1,39.57-1.377a6.779,6.779,0,0,1-1.3-4.434v-2.6a6.789,6.789,0,0,1,1.294-4.443,4.483,4.483,0,0,1,3.657-1.562,4.484,4.484,0,0,1,3.662,1.572,6.8,6.8,0,0,1,1.3,4.443ZM44.893-8.828a5.071,5.071,0,0,0-.4-2.29,1.338,1.338,0,0,0-1.27-.757,1.307,1.307,0,0,0-1.235.7,4.777,4.777,0,0,0-.415,2.129V-5.41a5.109,5.109,0,0,0,.4,2.329,1.343,1.343,0,0,0,1.27.737,1.325,1.325,0,0,0,1.24-.718,4.878,4.878,0,0,0,.41-2.251Z" transform="translate(583 2937)" fill="#12263f"/>
        <text id="_2" data-name="————————" transform="translate(377 2937)" fill="#12263f" font-size="29" font-family="Roboto-Black, Roboto" font-weight="800"><tspan x="0" y="0">————————</tspan></text>
        <path id="Trazado_148478" data-name="Trazado 148478" d="M7.422-3.77A1.788,1.788,0,0,0,7.041-4.98,3.557,3.557,0,0,0,5.7-5.811Q4.746-6.2,3.936-6.6a6.131,6.131,0,0,1-1.4-.928,3.645,3.645,0,0,1-.9-1.221,4.072,4.072,0,0,1-.312-1.68,3.608,3.608,0,0,1,1.113-2.72A4.791,4.791,0,0,1,5.41-14.395v-2.061H6.963v2.1a4.361,4.361,0,0,1,2.808,1.47,4.575,4.575,0,0,1,1.021,3.062H7.49A2.663,2.663,0,0,0,7.1-11.387a1.286,1.286,0,0,0-1.113-.547,1.263,1.263,0,0,0-1,.405,1.635,1.635,0,0,0-.356,1.118,1.582,1.582,0,0,0,.41,1.147,4.04,4.04,0,0,0,1.318.811q.908.386,1.714.8a6.552,6.552,0,0,1,1.392.942,3.857,3.857,0,0,1,.918,1.23,3.929,3.929,0,0,1,.332,1.689,3.678,3.678,0,0,1-1.06,2.725A4.561,4.561,0,0,1,6.768.166V2.129H5.215V.156A4.967,4.967,0,0,1,1.948-1.3,4.618,4.618,0,0,1,.811-4.561H4.1a2.554,2.554,0,0,0,.493,1.694A1.737,1.737,0,0,0,6-2.285a1.383,1.383,0,0,0,1.045-.4A1.5,1.5,0,0,0,7.422-3.77ZM19.746,0h-3.3V-10.508L13.2-9.561v-2.5l6.24-2.158h.3ZM31.328,0h-3.3V-10.508l-3.242.947v-2.5l6.24-2.158h.3Zm4.482-6.945.869-7.273H44.99v2.559H39.355l-.322,2.825a3.882,3.882,0,0,1,.923-.363,4.211,4.211,0,0,1,1.118-.157A4.171,4.171,0,0,1,44.331-8.1,5.055,5.055,0,0,1,45.469-4.58a5.046,5.046,0,0,1-.61,2.476A4.2,4.2,0,0,1,43.145-.4a5.411,5.411,0,0,1-2.607.6,5.822,5.822,0,0,1-2.51-.551,4.5,4.5,0,0,1-1.836-1.512,3.675,3.675,0,0,1-.654-2.171h3.3a1.867,1.867,0,0,0,.5,1.238,1.581,1.581,0,0,0,1.182.458q1.66,0,1.66-2.456,0-2.271-2.031-2.271a2.027,2.027,0,0,0-1.719.741ZM49.287-3.193a1.874,1.874,0,0,1,1.3.464A1.522,1.522,0,0,1,51.1-1.543a1.522,1.522,0,0,1-.518,1.187,1.874,1.874,0,0,1-1.3.464,1.858,1.858,0,0,1-1.3-.469,1.533,1.533,0,0,1-.513-1.182,1.533,1.533,0,0,1,.513-1.182A1.858,1.858,0,0,1,49.287-3.193Zm13.838-9.268L57.813,0H54.336l5.322-11.68H52.881v-2.539H63.125ZM71.309-5.5a3.476,3.476,0,0,1-2.383.957A3.847,3.847,0,0,1,65.859-5.85a5.156,5.156,0,0,1-1.133-3.5,5.247,5.247,0,0,1,.635-2.539,4.763,4.763,0,0,1,1.782-1.855,4.859,4.859,0,0,1,2.534-.684,4.717,4.717,0,0,1,2.544.708,4.767,4.767,0,0,1,1.772,2,6.877,6.877,0,0,1,.654,2.983v1.26a8.548,8.548,0,0,1-.923,4.082A6.371,6.371,0,0,1,71.094-.732,8.224,8.224,0,0,1,67.109.2H66.9V-2.441l.625-.01Q70.928-2.617,71.309-5.5ZM69.814-6.914a1.6,1.6,0,0,0,1.543-.928V-9.209A3.555,3.555,0,0,0,70.9-11.23a1.44,1.44,0,0,0-1.24-.654,1.361,1.361,0,0,0-1.162.742,3.3,3.3,0,0,0-.469,1.8,2.956,2.956,0,0,0,.479,1.772A1.531,1.531,0,0,0,69.814-6.914Zm14.541-7.51v2.588h-.146a4.941,4.941,0,0,0-3.032.884A3.732,3.732,0,0,0,79.717-8.5,3.848,3.848,0,0,1,82.529-9.59a3.59,3.59,0,0,1,2.939,1.348,5.436,5.436,0,0,1,1.094,3.535,4.977,4.977,0,0,1-.64,2.49A4.564,4.564,0,0,1,84.136-.444,5.135,5.135,0,0,1,81.592.2a5.307,5.307,0,0,1-2.705-.688,4.733,4.733,0,0,1-1.855-1.968,6.48,6.48,0,0,1-.684-2.949V-6.729a8.208,8.208,0,0,1,.942-3.95,6.832,6.832,0,0,1,2.69-2.749,7.692,7.692,0,0,1,3.877-1ZM81.387-7.07a1.883,1.883,0,0,0-1.094.3,1.922,1.922,0,0,0-.654.742v.986q0,2.7,1.865,2.7a1.513,1.513,0,0,0,1.255-.674,2.746,2.746,0,0,0,.5-1.689,2.7,2.7,0,0,0-.513-1.7A1.64,1.64,0,0,0,81.387-7.07Zm8.691,3.877a1.874,1.874,0,0,1,1.3.464,1.522,1.522,0,0,1,.518,1.187,1.522,1.522,0,0,1-.518,1.187,1.874,1.874,0,0,1-1.3.464,1.858,1.858,0,0,1-1.3-.469,1.533,1.533,0,0,1-.513-1.182,1.533,1.533,0,0,1,.513-1.182A1.858,1.858,0,0,1,90.078-3.193Zm13.545-7.227a3.283,3.283,0,0,1-.513,1.826,3.734,3.734,0,0,1-1.411,1.27,4.109,4.109,0,0,1,1.611,1.362,3.515,3.515,0,0,1,.6,2.046,3.721,3.721,0,0,1-1.313,3.008A5.454,5.454,0,0,1,98.975.2,5.554,5.554,0,0,1,95.322-.913a3.7,3.7,0,0,1-1.338-3,3.56,3.56,0,0,1,.586-2.021,3.984,3.984,0,0,1,1.66-1.387A3.755,3.755,0,0,1,94.8-8.594a3.26,3.26,0,0,1-.518-1.826,3.648,3.648,0,0,1,1.26-2.93,5.064,5.064,0,0,1,3.4-1.074,5.1,5.1,0,0,1,3.418,1.074A3.648,3.648,0,0,1,103.623-10.42Zm-3.018,6.24a1.877,1.877,0,0,0-.454-1.353,1.581,1.581,0,0,0-1.2-.474,1.6,1.6,0,0,0-1.2.474,1.865,1.865,0,0,0-.459,1.353,1.881,1.881,0,0,0,.464,1.343,1.592,1.592,0,0,0,1.216.493,1.53,1.53,0,0,0,1.182-.488A1.915,1.915,0,0,0,100.605-4.18Zm-1.66-7.705a1.216,1.216,0,0,0-1.011.435,1.886,1.886,0,0,0-.347,1.206,2,2,0,0,0,.352,1.23,1.213,1.213,0,0,0,1.035.469,1.163,1.163,0,0,0,1.011-.469,2.062,2.062,0,0,0,.337-1.23,1.89,1.89,0,0,0-.347-1.2A1.233,1.233,0,0,0,98.945-11.885Zm16.543,6.074a6.789,6.789,0,0,1-1.294,4.443A4.471,4.471,0,0,1,110.547.2a4.5,4.5,0,0,1-3.672-1.572,6.779,6.779,0,0,1-1.3-4.434v-2.6a6.789,6.789,0,0,1,1.294-4.443,4.483,4.483,0,0,1,3.657-1.562,4.484,4.484,0,0,1,3.662,1.572,6.8,6.8,0,0,1,1.3,4.443ZM112.2-8.828a5.071,5.071,0,0,0-.4-2.29,1.338,1.338,0,0,0-1.27-.757,1.307,1.307,0,0,0-1.235.7,4.777,4.777,0,0,0-.415,2.129V-5.41a5.109,5.109,0,0,0,.4,2.329,1.343,1.343,0,0,0,1.27.737,1.325,1.325,0,0,0,1.24-.718,4.878,4.878,0,0,0,.41-2.251ZM127.07-5.811a6.789,6.789,0,0,1-1.294,4.443A4.471,4.471,0,0,1,122.129.2a4.5,4.5,0,0,1-3.672-1.572,6.779,6.779,0,0,1-1.3-4.434v-2.6a6.789,6.789,0,0,1,1.294-4.443,4.483,4.483,0,0,1,3.657-1.562,4.484,4.484,0,0,1,3.662,1.572,6.8,6.8,0,0,1,1.3,4.443Zm-3.291-3.018a5.071,5.071,0,0,0-.4-2.29,1.338,1.338,0,0,0-1.27-.757,1.307,1.307,0,0,0-1.235.7,4.777,4.777,0,0,0-.415,2.129V-5.41a5.109,5.109,0,0,0,.4,2.329,1.343,1.343,0,0,0,1.27.737,1.325,1.325,0,0,0,1.24-.718,4.878,4.878,0,0,0,.41-2.251Z" transform="translate(403 2912)" fill="#12263f"/>
        <path id="Trazado_148479" data-name="Trazado 148479" d="M7.422-3.77A1.788,1.788,0,0,0,7.041-4.98,3.557,3.557,0,0,0,5.7-5.811Q4.746-6.2,3.936-6.6a6.131,6.131,0,0,1-1.4-.928,3.645,3.645,0,0,1-.9-1.221,4.072,4.072,0,0,1-.312-1.68,3.608,3.608,0,0,1,1.113-2.72A4.791,4.791,0,0,1,5.41-14.395v-2.061H6.963v2.1a4.361,4.361,0,0,1,2.808,1.47,4.575,4.575,0,0,1,1.021,3.062H7.49A2.663,2.663,0,0,0,7.1-11.387a1.286,1.286,0,0,0-1.113-.547,1.263,1.263,0,0,0-1,.405,1.635,1.635,0,0,0-.356,1.118,1.582,1.582,0,0,0,.41,1.147,4.04,4.04,0,0,0,1.318.811q.908.386,1.714.8a6.552,6.552,0,0,1,1.392.942,3.857,3.857,0,0,1,.918,1.23,3.929,3.929,0,0,1,.332,1.689,3.678,3.678,0,0,1-1.06,2.725A4.561,4.561,0,0,1,6.768.166V2.129H5.215V.156A4.967,4.967,0,0,1,1.948-1.3,4.618,4.618,0,0,1,.811-4.561H4.1a2.554,2.554,0,0,0,.493,1.694A1.737,1.737,0,0,0,6-2.285a1.383,1.383,0,0,0,1.045-.4A1.5,1.5,0,0,0,7.422-3.77ZM19.746,0h-3.3V-10.508L13.2-9.561v-2.5l6.24-2.158h.3ZM31.328,0h-3.3V-10.508l-3.242.947v-2.5l6.24-2.158h.3Zm4.482-6.945.869-7.273H44.99v2.559H39.355l-.322,2.825a3.882,3.882,0,0,1,.923-.363,4.211,4.211,0,0,1,1.118-.157A4.171,4.171,0,0,1,44.331-8.1,5.055,5.055,0,0,1,45.469-4.58a5.046,5.046,0,0,1-.61,2.476A4.2,4.2,0,0,1,43.145-.4a5.411,5.411,0,0,1-2.607.6,5.822,5.822,0,0,1-2.51-.551,4.5,4.5,0,0,1-1.836-1.512,3.675,3.675,0,0,1-.654-2.171h3.3a1.867,1.867,0,0,0,.5,1.238,1.581,1.581,0,0,0,1.182.458q1.66,0,1.66-2.456,0-2.271-2.031-2.271a2.027,2.027,0,0,0-1.719.741ZM49.287-3.193a1.874,1.874,0,0,1,1.3.464A1.522,1.522,0,0,1,51.1-1.543a1.522,1.522,0,0,1-.518,1.187,1.874,1.874,0,0,1-1.3.464,1.858,1.858,0,0,1-1.3-.469,1.533,1.533,0,0,1-.513-1.182,1.533,1.533,0,0,1,.513-1.182A1.858,1.858,0,0,1,49.287-3.193Zm13.838-9.268L57.813,0H54.336l5.322-11.68H52.881v-2.539H63.125ZM71.309-5.5a3.476,3.476,0,0,1-2.383.957A3.847,3.847,0,0,1,65.859-5.85a5.156,5.156,0,0,1-1.133-3.5,5.247,5.247,0,0,1,.635-2.539,4.763,4.763,0,0,1,1.782-1.855,4.859,4.859,0,0,1,2.534-.684,4.717,4.717,0,0,1,2.544.708,4.767,4.767,0,0,1,1.772,2,6.877,6.877,0,0,1,.654,2.983v1.26a8.548,8.548,0,0,1-.923,4.082A6.371,6.371,0,0,1,71.094-.732,8.224,8.224,0,0,1,67.109.2H66.9V-2.441l.625-.01Q70.928-2.617,71.309-5.5ZM69.814-6.914a1.6,1.6,0,0,0,1.543-.928V-9.209A3.555,3.555,0,0,0,70.9-11.23a1.44,1.44,0,0,0-1.24-.654,1.361,1.361,0,0,0-1.162.742,3.3,3.3,0,0,0-.469,1.8,2.956,2.956,0,0,0,.479,1.772A1.531,1.531,0,0,0,69.814-6.914Zm14.541-7.51v2.588h-.146a4.941,4.941,0,0,0-3.032.884A3.732,3.732,0,0,0,79.717-8.5,3.848,3.848,0,0,1,82.529-9.59a3.59,3.59,0,0,1,2.939,1.348,5.436,5.436,0,0,1,1.094,3.535,4.977,4.977,0,0,1-.64,2.49A4.564,4.564,0,0,1,84.136-.444,5.135,5.135,0,0,1,81.592.2a5.307,5.307,0,0,1-2.705-.688,4.733,4.733,0,0,1-1.855-1.968,6.48,6.48,0,0,1-.684-2.949V-6.729a8.208,8.208,0,0,1,.942-3.95,6.832,6.832,0,0,1,2.69-2.749,7.692,7.692,0,0,1,3.877-1ZM81.387-7.07a1.883,1.883,0,0,0-1.094.3,1.922,1.922,0,0,0-.654.742v.986q0,2.7,1.865,2.7a1.513,1.513,0,0,0,1.255-.674,2.746,2.746,0,0,0,.5-1.689,2.7,2.7,0,0,0-.513-1.7A1.64,1.64,0,0,0,81.387-7.07Zm8.691,3.877a1.874,1.874,0,0,1,1.3.464,1.522,1.522,0,0,1,.518,1.187,1.522,1.522,0,0,1-.518,1.187,1.874,1.874,0,0,1-1.3.464,1.858,1.858,0,0,1-1.3-.469,1.533,1.533,0,0,1-.513-1.182,1.533,1.533,0,0,1,.513-1.182A1.858,1.858,0,0,1,90.078-3.193Zm13.545-7.227a3.283,3.283,0,0,1-.513,1.826,3.734,3.734,0,0,1-1.411,1.27,4.109,4.109,0,0,1,1.611,1.362,3.515,3.515,0,0,1,.6,2.046,3.721,3.721,0,0,1-1.313,3.008A5.454,5.454,0,0,1,98.975.2,5.554,5.554,0,0,1,95.322-.913a3.7,3.7,0,0,1-1.338-3,3.56,3.56,0,0,1,.586-2.021,3.984,3.984,0,0,1,1.66-1.387A3.755,3.755,0,0,1,94.8-8.594a3.26,3.26,0,0,1-.518-1.826,3.648,3.648,0,0,1,1.26-2.93,5.064,5.064,0,0,1,3.4-1.074,5.1,5.1,0,0,1,3.418,1.074A3.648,3.648,0,0,1,103.623-10.42Zm-3.018,6.24a1.877,1.877,0,0,0-.454-1.353,1.581,1.581,0,0,0-1.2-.474,1.6,1.6,0,0,0-1.2.474,1.865,1.865,0,0,0-.459,1.353,1.881,1.881,0,0,0,.464,1.343,1.592,1.592,0,0,0,1.216.493,1.53,1.53,0,0,0,1.182-.488A1.915,1.915,0,0,0,100.605-4.18Zm-1.66-7.705a1.216,1.216,0,0,0-1.011.435,1.886,1.886,0,0,0-.347,1.206,2,2,0,0,0,.352,1.23,1.213,1.213,0,0,0,1.035.469,1.163,1.163,0,0,0,1.011-.469,2.062,2.062,0,0,0,.337-1.23,1.89,1.89,0,0,0-.347-1.2A1.233,1.233,0,0,0,98.945-11.885Zm16.543,6.074a6.789,6.789,0,0,1-1.294,4.443A4.471,4.471,0,0,1,110.547.2a4.5,4.5,0,0,1-3.672-1.572,6.779,6.779,0,0,1-1.3-4.434v-2.6a6.789,6.789,0,0,1,1.294-4.443,4.483,4.483,0,0,1,3.657-1.562,4.484,4.484,0,0,1,3.662,1.572,6.8,6.8,0,0,1,1.3,4.443ZM112.2-8.828a5.071,5.071,0,0,0-.4-2.29,1.338,1.338,0,0,0-1.27-.757,1.307,1.307,0,0,0-1.235.7,4.777,4.777,0,0,0-.415,2.129V-5.41a5.109,5.109,0,0,0,.4,2.329,1.343,1.343,0,0,0,1.27.737,1.325,1.325,0,0,0,1.24-.718,4.878,4.878,0,0,0,.41-2.251ZM127.07-5.811a6.789,6.789,0,0,1-1.294,4.443A4.471,4.471,0,0,1,122.129.2a4.5,4.5,0,0,1-3.672-1.572,6.779,6.779,0,0,1-1.3-4.434v-2.6a6.789,6.789,0,0,1,1.294-4.443,4.483,4.483,0,0,1,3.657-1.562,4.484,4.484,0,0,1,3.662,1.572,6.8,6.8,0,0,1,1.3,4.443Zm-3.291-3.018a5.071,5.071,0,0,0-.4-2.29,1.338,1.338,0,0,0-1.27-.757,1.307,1.307,0,0,0-1.235.7,4.777,4.777,0,0,0-.415,2.129V-5.41a5.109,5.109,0,0,0,.4,2.329,1.343,1.343,0,0,0,1.27.737,1.325,1.325,0,0,0,1.24-.718,4.878,4.878,0,0,0,.41-2.251Z" transform="translate(408 2956)" fill="#12263f"/>
      </g>
    </g>
    <g id="Grupo_93098" data-name="Grupo 93098" transform="translate(-2791 4091)">
      <rect id="Rectángulo_31816-3" data-name="Rectángulo 31816" width="393" height="131" transform="translate(319 2859)" fill="#6595bf"/>
      <g id="Grupo_89142-3" data-name="Grupo 89142" transform="translate(224 2852)">
        <rect id="Rectángulo_31778-3" data-name="Rectángulo 31778" width="401.973" height="132.775" transform="translate(81.613)" fill="#fff" stroke="#12263f" stroke-miterlimit="10" stroke-width="1"/>
      </g>
      <g id="Grupo_89143-3" data-name="Grupo 89143" transform="translate(118 -5)">
        <path id="Trazado_148481" data-name="Trazado 148481" d="M9.893-6.035H4.5v3.4h6.367V0H1.074V-14.219h9.814v2.646H4.5v3H9.893Zm5.244-4.531.107,1.24a3.583,3.583,0,0,1,3.018-1.436,3.015,3.015,0,0,1,2.466.986,4.7,4.7,0,0,1,.845,2.969V0h-3.3V-6.67a1.783,1.783,0,0,0-.322-1.177,1.491,1.491,0,0,0-1.172-.376,1.569,1.569,0,0,0-1.436.762V0H12.051V-10.566Zm7.842,5.205a6.455,6.455,0,0,1,1.084-3.955,3.568,3.568,0,0,1,3.027-1.445,3.035,3.035,0,0,1,2.383,1.113V-15h3.3V0H29.814l-.166-1.133A3.116,3.116,0,0,1,27.07.2,3.562,3.562,0,0,1,24.082-1.25,6.659,6.659,0,0,1,22.979-5.361Zm3.291.205q0,2.813,1.641,2.813a1.62,1.62,0,0,0,1.563-.918V-7.285a1.576,1.576,0,0,0-1.543-.937q-1.523,0-1.65,2.461ZM39.756.2a5.432,5.432,0,0,1-3.936-1.45,5.008,5.008,0,0,1-1.5-3.774V-5.3a6.489,6.489,0,0,1,.6-2.861,4.395,4.395,0,0,1,1.753-1.919,5.292,5.292,0,0,1,2.734-.679A4.574,4.574,0,0,1,42.92-9.38a5.43,5.43,0,0,1,1.289,3.853v1.279H37.666a2.372,2.372,0,0,0,.771,1.4,2.3,2.3,0,0,0,1.543.508,2.958,2.958,0,0,0,2.441-1.094l1.5,1.777A4.2,4.2,0,0,1,42.183-.308,5.891,5.891,0,0,1,39.756.2Zm-.371-8.418q-1.445,0-1.719,1.914h3.32v-.254a1.63,1.63,0,0,0-.4-1.226A1.593,1.593,0,0,0,39.385-8.223Zm12.441,7.08A3.393,3.393,0,0,1,49,.2,3.328,3.328,0,0,1,46.372-.815a4.251,4.251,0,0,1-.894-2.905v-6.846H48.77V-3.7a1.183,1.183,0,0,0,1.318,1.357A1.72,1.72,0,0,0,51.7-3.154v-7.412H55.01V0H51.924ZM56.4-5.361A6.455,6.455,0,0,1,57.48-9.316a3.568,3.568,0,0,1,3.027-1.445,3.035,3.035,0,0,1,2.383,1.113V-15h3.3V0H63.232l-.166-1.133A3.116,3.116,0,0,1,60.488.2,3.562,3.562,0,0,1,57.5-1.25,6.659,6.659,0,0,1,56.4-5.361Zm3.291.205q0,2.813,1.641,2.813a1.62,1.62,0,0,0,1.563-.918V-7.285a1.576,1.576,0,0,0-1.543-.937q-1.523,0-1.65,2.461ZM74.014,0A3.716,3.716,0,0,1,73.7-.947,3.06,3.06,0,0,1,71.162.2a3.749,3.749,0,0,1-2.539-.9,2.875,2.875,0,0,1-1.045-2.271,2.955,2.955,0,0,1,1.27-2.6,6.468,6.468,0,0,1,3.691-.879h1.016v-.559q0-1.462-1.26-1.462a1.03,1.03,0,0,0-1.172,1.158H67.832a2.95,2.95,0,0,1,1.3-2.487,5.479,5.479,0,0,1,3.325-.956,4.8,4.8,0,0,1,3.193.986,3.429,3.429,0,0,1,1.2,2.705v4.678A4.79,4.79,0,0,0,77.3-.166V0ZM71.953-2.148a1.836,1.836,0,0,0,1.021-.264,1.653,1.653,0,0,0,.581-.6V-4.7H72.6q-1.719,0-1.719,1.543a.942.942,0,0,0,.3.728A1.1,1.1,0,0,0,71.953-2.148Zm9.834-8.418.107,1.24a3.633,3.633,0,0,1,3.018-1.436A2.675,2.675,0,0,1,87.617-9.17a3.517,3.517,0,0,1,3.105-1.592q3.213,0,3.3,3.887V0h-3.3V-6.67a2.014,2.014,0,0,0-.273-1.182,1.164,1.164,0,0,0-1-.371A1.559,1.559,0,0,0,88-7.354l.01.137V0h-3.3V-6.65a2.117,2.117,0,0,0-.264-1.2,1.161,1.161,0,0,0-1.006-.371,1.578,1.578,0,0,0-1.445.869V0H78.7V-10.566ZM99.375,0h-3.3V-10.566h3.3Zm-3.5-13.291a1.469,1.469,0,0,1,.508-1.152,1.916,1.916,0,0,1,1.318-.449,1.916,1.916,0,0,1,1.318.449,1.469,1.469,0,0,1,.508,1.152,1.469,1.469,0,0,1-.508,1.152,1.916,1.916,0,0,1-1.318.449,1.916,1.916,0,0,1-1.318-.449A1.469,1.469,0,0,1,95.879-13.291ZM106.514.2a5.432,5.432,0,0,1-3.936-1.45,5.008,5.008,0,0,1-1.5-3.774V-5.3a6.489,6.489,0,0,1,.6-2.861,4.395,4.395,0,0,1,1.753-1.919,5.292,5.292,0,0,1,2.734-.679,4.574,4.574,0,0,1,3.516,1.382,5.43,5.43,0,0,1,1.289,3.853v1.279h-6.543a2.372,2.372,0,0,0,.771,1.4,2.3,2.3,0,0,0,1.543.508,2.958,2.958,0,0,0,2.441-1.094l1.5,1.777A4.2,4.2,0,0,1,108.94-.308,5.891,5.891,0,0,1,106.514.2Zm-.371-8.418q-1.445,0-1.719,1.914h3.32v-.254a1.63,1.63,0,0,0-.4-1.226A1.593,1.593,0,0,0,106.143-8.223Zm9.17-2.344.107,1.24a3.583,3.583,0,0,1,3.018-1.436,3.015,3.015,0,0,1,2.466.986,4.7,4.7,0,0,1,.845,2.969V0h-3.3V-6.67a1.783,1.783,0,0,0-.322-1.177,1.491,1.491,0,0,0-1.172-.376,1.569,1.569,0,0,0-1.436.762V0h-3.291V-10.566Zm12.09-2.627v2.627h1.738v2.285H127.4v4.834a1.234,1.234,0,0,0,.215.83,1.152,1.152,0,0,0,.85.234,4.828,4.828,0,0,0,.82-.059V-.088A6.074,6.074,0,0,1,127.432.2a3.448,3.448,0,0,1-2.51-.8,3.282,3.282,0,0,1-.811-2.432V-8.281h-1.348v-2.285h1.348v-2.627Zm2.324,7.813a6.236,6.236,0,0,1,.615-2.817,4.4,4.4,0,0,1,1.768-1.9,5.323,5.323,0,0,1,2.705-.664,4.858,4.858,0,0,1,3.74,1.47,5.64,5.64,0,0,1,1.367,4v.117a5.472,5.472,0,0,1-1.372,3.921A4.871,4.871,0,0,1,134.834.2a4.927,4.927,0,0,1-3.623-1.353,5.29,5.29,0,0,1-1.475-3.667Zm3.291.205a3.932,3.932,0,0,0,.459,2.148,1.529,1.529,0,0,0,1.357.684q1.758,0,1.8-2.705v-.332q0-2.842-1.816-2.842-1.65,0-1.787,2.451ZM152.3,0a3.716,3.716,0,0,1-.312-.947A3.06,3.06,0,0,1,149.453.2a3.749,3.749,0,0,1-2.539-.9,2.875,2.875,0,0,1-1.045-2.271,2.955,2.955,0,0,1,1.27-2.6,6.468,6.468,0,0,1,3.691-.879h1.016v-.559q0-1.462-1.26-1.462a1.03,1.03,0,0,0-1.172,1.158h-3.291a2.95,2.95,0,0,1,1.3-2.487,5.479,5.479,0,0,1,3.325-.956,4.8,4.8,0,0,1,3.193.986,3.429,3.429,0,0,1,1.2,2.705v4.678A4.79,4.79,0,0,0,155.6-.166V0Zm-2.061-2.148a1.836,1.836,0,0,0,1.021-.264,1.652,1.652,0,0,0,.581-.6V-4.7h-.957q-1.719,0-1.719,1.543a.942.942,0,0,0,.3.728A1.1,1.1,0,0,0,150.244-2.148Zm16.172-.2a1.464,1.464,0,0,0,1.074-.376,1.379,1.379,0,0,0,.371-1.05h3.086A3.653,3.653,0,0,1,169.7-.918,4.631,4.631,0,0,1,166.494.2a4.689,4.689,0,0,1-3.633-1.445,5.7,5.7,0,0,1-1.328-4v-.137a6.436,6.436,0,0,1,.591-2.827,4.3,4.3,0,0,1,1.7-1.885,5.081,5.081,0,0,1,2.637-.659,4.573,4.573,0,0,1,3.271,1.143,4.053,4.053,0,0,1,1.211,3.1h-3.086a1.807,1.807,0,0,0-.4-1.26,1.382,1.382,0,0,0-1.074-.439q-1.279,0-1.494,1.631a11.507,11.507,0,0,0-.068,1.426,4.52,4.52,0,0,0,.381,2.207A1.319,1.319,0,0,0,166.416-2.344Zm5.508-3.037a6.236,6.236,0,0,1,.615-2.817,4.4,4.4,0,0,1,1.768-1.9,5.323,5.323,0,0,1,2.705-.664,4.858,4.858,0,0,1,3.74,1.47,5.64,5.64,0,0,1,1.367,4v.117a5.472,5.472,0,0,1-1.372,3.921A4.871,4.871,0,0,1,177.031.2a4.927,4.927,0,0,1-3.623-1.353,5.29,5.29,0,0,1-1.475-3.667Zm3.291.205a3.932,3.932,0,0,0,.459,2.148,1.529,1.529,0,0,0,1.357.684q1.758,0,1.8-2.705v-.332q0-2.842-1.816-2.842-1.65,0-1.787,2.451Zm14.746-2.412-1.084-.078a1.947,1.947,0,0,0-1.992.977V0h-3.291V-10.566h3.086l.107,1.357a2.548,2.548,0,0,1,2.314-1.553,3.209,3.209,0,0,1,.918.117Zm5.508-5.605v2.627h1.738v2.285h-1.738v4.834a1.234,1.234,0,0,0,.215.83,1.152,1.152,0,0,0,.85.234,4.828,4.828,0,0,0,.82-.059V-.088A6.074,6.074,0,0,1,195.5.2a3.448,3.448,0,0,1-2.51-.8,3.282,3.282,0,0,1-.811-2.432V-8.281H190.83v-2.285h1.348v-2.627Zm2.324,7.813a6.236,6.236,0,0,1,.615-2.817,4.4,4.4,0,0,1,1.768-1.9,5.323,5.323,0,0,1,2.705-.664,4.858,4.858,0,0,1,3.74,1.47,5.64,5.64,0,0,1,1.367,4v.117a5.472,5.472,0,0,1-1.372,3.921A4.871,4.871,0,0,1,202.9.2a4.927,4.927,0,0,1-3.623-1.353A5.29,5.29,0,0,1,197.8-4.824Zm3.291.205a3.932,3.932,0,0,0,.459,2.148,1.529,1.529,0,0,0,1.357.684q1.758,0,1.8-2.705v-.332q0-2.842-1.816-2.842-1.65,0-1.787,2.451Zm23.145-.029a6.372,6.372,0,0,1-1.108,3.931A3.554,3.554,0,0,1,220.127.2a3.046,3.046,0,0,1-2.393-1.064V4.063h-3.291V-10.566h3.076l.1.977a3.046,3.046,0,0,1,2.49-1.172,3.582,3.582,0,0,1,3.037,1.44,6.45,6.45,0,0,1,1.084,3.96Zm-3.291-.205q0-2.812-1.641-2.812a1.549,1.549,0,0,0-1.562.84v4.16a1.6,1.6,0,0,0,1.582.879q1.572,0,1.621-2.715ZM229.15,0h-3.3V-15h3.3Zm7.979,0a3.716,3.716,0,0,1-.312-.947A3.06,3.06,0,0,1,234.277.2a3.749,3.749,0,0,1-2.539-.9,2.875,2.875,0,0,1-1.045-2.271,2.955,2.955,0,0,1,1.27-2.6,6.468,6.468,0,0,1,3.691-.879h1.016v-.559q0-1.462-1.26-1.462a1.03,1.03,0,0,0-1.172,1.158h-3.291a2.95,2.95,0,0,1,1.3-2.487,5.479,5.479,0,0,1,3.325-.956,4.8,4.8,0,0,1,3.193.986,3.429,3.429,0,0,1,1.2,2.705v4.678a4.79,4.79,0,0,0,.449,2.227V0Zm-2.061-2.148a1.836,1.836,0,0,0,1.021-.264,1.652,1.652,0,0,0,.581-.6V-4.7h-.957q-1.719,0-1.719,1.543a.942.942,0,0,0,.3.728A1.1,1.1,0,0,0,235.068-2.148Zm10.605-.391h4.814V0h-8.975V-1.836L246.2-8.027h-4.482v-2.539h8.662v1.777Zm5.84-2.842a6.236,6.236,0,0,1,.615-2.817,4.4,4.4,0,0,1,1.768-1.9,5.323,5.323,0,0,1,2.705-.664,4.859,4.859,0,0,1,3.74,1.47,5.64,5.64,0,0,1,1.367,4v.117a5.472,5.472,0,0,1-1.372,3.921A4.871,4.871,0,0,1,256.621.2,4.927,4.927,0,0,1,253-1.157a5.29,5.29,0,0,1-1.475-3.667Zm3.291.205a3.932,3.932,0,0,0,.459,2.148,1.529,1.529,0,0,0,1.357.684q1.758,0,1.8-2.705v-.332q0-2.842-1.816-2.842-1.65,0-1.787,2.451ZM277.51-7.051h-9.043V-9.59h9.043Zm0,4.287h-9.043V-5.3h9.043ZM292.07,0h-3.3V-10.508l-3.242.947v-2.5l6.24-2.158h.3Zm14.16-5.811a6.789,6.789,0,0,1-1.294,4.443A4.471,4.471,0,0,1,301.289.2a4.5,4.5,0,0,1-3.672-1.572,6.779,6.779,0,0,1-1.3-4.434v-2.6a6.789,6.789,0,0,1,1.294-4.443,4.483,4.483,0,0,1,3.657-1.562,4.484,4.484,0,0,1,3.662,1.572,6.8,6.8,0,0,1,1.3,4.443Zm-3.291-3.018a5.071,5.071,0,0,0-.4-2.29,1.338,1.338,0,0,0-1.27-.757,1.307,1.307,0,0,0-1.235.7,4.777,4.777,0,0,0-.415,2.129V-5.41a5.109,5.109,0,0,0,.4,2.329,1.343,1.343,0,0,0,1.27.737,1.325,1.325,0,0,0,1.24-.718,4.878,4.878,0,0,0,.41-2.251Zm14.873,3.018a6.789,6.789,0,0,1-1.294,4.443A4.471,4.471,0,0,1,312.871.2,4.5,4.5,0,0,1,309.2-1.377a6.779,6.779,0,0,1-1.3-4.434v-2.6a6.789,6.789,0,0,1,1.294-4.443,4.483,4.483,0,0,1,3.657-1.562,4.484,4.484,0,0,1,3.662,1.572,6.8,6.8,0,0,1,1.3,4.443Zm-3.291-3.018a5.071,5.071,0,0,0-.4-2.29,1.338,1.338,0,0,0-1.27-.757,1.307,1.307,0,0,0-1.235.7,4.777,4.777,0,0,0-.415,2.129V-5.41a5.109,5.109,0,0,0,.4,2.329,1.343,1.343,0,0,0,1.27.737,1.325,1.325,0,0,0,1.24-.718,4.878,4.878,0,0,0,.41-2.251Zm5.01-2.656a2.791,2.791,0,0,1,.859-2.129,3.222,3.222,0,0,1,2.3-.811,3.226,3.226,0,0,1,2.314.806,2.865,2.865,0,0,1,.85,2.183v.7a2.776,2.776,0,0,1-.85,2.119,3.21,3.21,0,0,1-2.295.8,3.3,3.3,0,0,1-2.31-.8,2.8,2.8,0,0,1-.874-2.183Zm2.119.75a1.18,1.18,0,0,0,.283.82,1,1,0,0,0,.781.315q1.025,0,1.025-1.3v-.582a1.245,1.245,0,0,0-.273-.83.952.952,0,0,0-.771-.325.973.973,0,0,0-.762.315,1.238,1.238,0,0,0-.283.859Zm4.639,7.249a2.764,2.764,0,0,1,.864-2.129,3.249,3.249,0,0,1,2.3-.8,3.284,3.284,0,0,1,2.314.791,2.85,2.85,0,0,1,.859,2.207v.684a2.788,2.788,0,0,1-.85,2.129,3.224,3.224,0,0,1-2.3.8,3.3,3.3,0,0,1-2.31-.8,2.8,2.8,0,0,1-.874-2.183Zm2.109.75a1.155,1.155,0,0,0,.313.8.99.99,0,0,0,.762.344.9.9,0,0,0,1.025-.893l.01-1a1.2,1.2,0,0,0-.283-.83.985.985,0,0,0-.771-.315.993.993,0,0,0-.752.3,1.179,1.179,0,0,0-.3.8ZM323.34-1.064l-1.533-.771,6.943-11.113,1.533.771Z" transform="translate(233 2937)" fill="#12263f"/>
      </g>
    </g>
  </g>
</svg>
