<svg xmlns="http://www.w3.org/2000/svg" width="450.769" height="597.5" viewBox="0 0 450.769 597.5">
  <g id="Grupo_93188" data-name="Grupo 93188" transform="translate(-1179.5 -5616.022)">
    <g id="Grupo_93184" data-name="Grupo 93184" transform="translate(943.191 2764.522)">
      <rect id="Rectángulo_31816" data-name="Rectángulo 31816" width="358.852" height="131" transform="translate(289.991 2859)" fill="#6595bf"/>
      <g id="Grupo_89142" data-name="Grupo 89142" transform="translate(276.809 2852)">
        <rect id="Rectángulo_31778" data-name="Rectángulo 31778" width="367.086" height="132.775" transform="translate(0)" fill="#fff" stroke="#12263f" stroke-miterlimit="10" stroke-width="1"/>
      </g>
      <g id="Grupo_91507" data-name="Grupo 91507" transform="translate(321.991 -8.613)">
        <path id="Trazado_148636" data-name="Trazado 148636" d="M4.5-4.824V0H1.074V-14.219H6.748a6.608,6.608,0,0,1,2.886.6,4.526,4.526,0,0,1,1.943,1.709,4.667,4.667,0,0,1,.688,2.515,4.114,4.114,0,0,1-1.489,3.325A6.179,6.179,0,0,1,6.689-4.824Zm0-2.646H6.748a2.118,2.118,0,0,0,1.519-.5,1.85,1.85,0,0,0,.522-1.406,2.287,2.287,0,0,0-.537-1.592,1.9,1.9,0,0,0-1.465-.605H4.5ZM22.91-6.035H17.52v3.4h6.367V0H14.092V-14.219h9.814v2.646H17.52v3H22.91Zm14.434-.781a8.4,8.4,0,0,1-.654,3.442,5.984,5.984,0,0,1-1.807,2.358L37.178.8,35.059,2.6,32,.137A6.353,6.353,0,0,1,31.143.2a6.163,6.163,0,0,1-3.223-.84,5.712,5.712,0,0,1-2.192-2.4,8.159,8.159,0,0,1-.815-3.594v-.752a8.414,8.414,0,0,1,.767-3.691,5.713,5.713,0,0,1,2.188-2.461,6.115,6.115,0,0,1,3.257-.869,6.087,6.087,0,0,1,3.223.859,5.79,5.79,0,0,1,2.2,2.446,8.18,8.18,0,0,1,.8,3.638Zm-3.486-.6a5.979,5.979,0,0,0-.708-3.218,2.271,2.271,0,0,0-2.026-1.1,2.256,2.256,0,0,0-2.041,1.084,6.057,6.057,0,0,0-.693,3.174v.654A6.145,6.145,0,0,0,29.082-3.6,2.27,2.27,0,0,0,31.143-2.48a2.237,2.237,0,0,0,2.007-1.1,6.016,6.016,0,0,0,.708-3.174Zm19.434.361H44.248V-9.59h9.043Zm0,4.287H44.248V-5.3h9.043Z" transform="translate(0 2937)" fill="#12263f"/>
        <text id="_" data-name="—————————" transform="translate(74 2937)" fill="#12263f" font-size="29" font-family="Roboto-Black, Roboto" font-weight="800"><tspan x="0" y="0">—————————</tspan></text>
        <path id="Trazado_148637" data-name="Trazado 148637" d="M12.578-4.814a5.193,5.193,0,0,1-.8,2.622A4.833,4.833,0,0,1,9.722-.43,7,7,0,0,1,6.7.2,5.584,5.584,0,0,1,2.285-1.631,7.54,7.54,0,0,1,.674-6.787v-.7A8.607,8.607,0,0,1,1.4-11.147,5.513,5.513,0,0,1,3.5-13.569a5.844,5.844,0,0,1,3.164-.854,6.129,6.129,0,0,1,4.16,1.362,5.383,5.383,0,0,1,1.787,3.755H9.189a2.547,2.547,0,0,0-.654-1.865,2.691,2.691,0,0,0-1.875-.566,2.048,2.048,0,0,0-1.875.957A6.151,6.151,0,0,0,4.16-7.725v1.006a6.806,6.806,0,0,0,.571,3.252A2.091,2.091,0,0,0,6.7-2.49a2.632,2.632,0,0,0,1.807-.557A2.363,2.363,0,0,0,9.17-4.814Zm10.576-.85H17.627V0H14.2V-14.219h9.512v2.646H17.627V-8.3h5.527Z" transform="translate(166 2912)" fill="#12263f"/>
        <path id="Trazado_148638" data-name="Trazado 148638" d="M1.172-5.781a14.924,14.924,0,0,1,.635-4.434A10.7,10.7,0,0,1,3.56-13.691a6.225,6.225,0,0,1,2.485-1.992l.625,1.621a6.367,6.367,0,0,0-2.114,3.14,15.313,15.313,0,0,0-.757,5v.43a15.612,15.612,0,0,0,.747,5.1A6.34,6.34,0,0,0,6.67,2.773L6.045,4.395a6.163,6.163,0,0,1-2.485-2A10.538,10.538,0,0,1,1.807-1.064a15,15,0,0,1-.635-4.277Zm10.391.957V0H8.135V-14.219h5.674a6.608,6.608,0,0,1,2.886.6,4.526,4.526,0,0,1,1.943,1.709,4.667,4.667,0,0,1,.688,2.515,4.114,4.114,0,0,1-1.489,3.325A6.179,6.179,0,0,1,13.75-4.824Zm0-2.646h2.246a2.118,2.118,0,0,0,1.519-.5,1.85,1.85,0,0,0,.522-1.406,2.287,2.287,0,0,0-.537-1.592,1.9,1.9,0,0,0-1.465-.605H11.563Zm15.107,3.6L29.5-14.219H33.33L28.545,0h-3.75L20.049-14.219h3.8ZM45.518-14.219v9.307a5.349,5.349,0,0,1-.674,2.739A4.365,4.365,0,0,1,42.91-.41,6.812,6.812,0,0,1,39.932.2,5.885,5.885,0,0,1,35.84-1.152a4.806,4.806,0,0,1-1.523-3.691v-9.375h3.447v9.443q.059,2.334,2.168,2.334a2.1,2.1,0,0,0,1.611-.586,2.739,2.739,0,0,0,.547-1.9v-9.287Zm8.418,9.355H48.066V-7.4h5.869Zm14.219.049a5.193,5.193,0,0,1-.8,2.622A4.833,4.833,0,0,1,65.3-.43,7,7,0,0,1,62.275.2a5.584,5.584,0,0,1-4.414-1.826A7.54,7.54,0,0,1,56.25-6.787v-.7a8.607,8.607,0,0,1,.728-3.657,5.513,5.513,0,0,1,2.095-2.422,5.844,5.844,0,0,1,3.164-.854,6.129,6.129,0,0,1,4.16,1.362,5.383,5.383,0,0,1,1.787,3.755H64.766a2.547,2.547,0,0,0-.654-1.865,2.691,2.691,0,0,0-1.875-.566,2.048,2.048,0,0,0-1.875.957,6.151,6.151,0,0,0-.625,3.057v1.006a6.806,6.806,0,0,0,.571,3.252,2.091,2.091,0,0,0,1.968.977,2.632,2.632,0,0,0,1.807-.557,2.363,2.363,0,0,0,.664-1.768Zm7.139.947,2.832-10.352h3.828L77.168,0h-3.75L68.672-14.219h3.8ZM94.141-14.219v9.307a5.349,5.349,0,0,1-.674,2.739A4.365,4.365,0,0,1,91.533-.41,6.812,6.812,0,0,1,88.555.2a5.885,5.885,0,0,1-4.092-1.348,4.806,4.806,0,0,1-1.523-3.691v-9.375h3.447v9.443q.059,2.334,2.168,2.334a2.1,2.1,0,0,0,1.611-.586,2.739,2.739,0,0,0,.547-1.9v-9.287Zm7.178,8.711a13.925,13.925,0,0,1-.674,4.355,11.12,11.12,0,0,1-1.86,3.54,6.193,6.193,0,0,1-2.563,2.007L95.6,2.773A6.43,6.43,0,0,0,97.7-.352a15.085,15.085,0,0,0,.771-4.854v-.6a15.612,15.612,0,0,0-.747-5.1A6.34,6.34,0,0,0,95.6-14.062l.625-1.621A6.307,6.307,0,0,1,98.765-13.7a10.984,10.984,0,0,1,1.855,3.486,13.807,13.807,0,0,1,.7,4.272Zm7.959,6.729h-2.334L111.8-14.219h2.344ZM123.73-4.824V0H120.3V-14.219h5.674a6.608,6.608,0,0,1,2.886.6,4.526,4.526,0,0,1,1.943,1.709,4.667,4.667,0,0,1,.688,2.515A4.114,4.114,0,0,1,130-6.069a6.179,6.179,0,0,1-4.087,1.245Zm0-2.646h2.246a2.118,2.118,0,0,0,1.519-.5,1.85,1.85,0,0,0,.522-1.406,2.287,2.287,0,0,0-.537-1.592,1.9,1.9,0,0,0-1.465-.605H123.73Zm15.107,3.6,2.832-10.352H145.5L140.713,0h-3.75l-4.746-14.219h3.8Zm18.848-10.352v9.307a5.349,5.349,0,0,1-.674,2.739A4.365,4.365,0,0,1,155.078-.41,6.812,6.812,0,0,1,152.1.2a5.885,5.885,0,0,1-4.092-1.348,4.806,4.806,0,0,1-1.523-3.691v-9.375h3.447v9.443q.059,2.334,2.168,2.334a2.1,2.1,0,0,0,1.611-.586,2.739,2.739,0,0,0,.547-1.9v-9.287Z" transform="translate(101 2956)" fill="#12263f"/>
      </g>
    </g>
    <g id="Grupo_93185" data-name="Grupo 93185" transform="translate(943.191 3070.522)">
      <rect id="Rectángulo_31816-2" data-name="Rectángulo 31816" width="358.852" height="131" transform="translate(289.991 2859)" fill="#6595bf"/>
      <g id="Grupo_89142-2" data-name="Grupo 89142" transform="translate(276.809 2852)">
        <rect id="Rectángulo_31778-2" data-name="Rectángulo 31778" width="367.086" height="132.775" transform="translate(0)" fill="#fff" stroke="#12263f" stroke-miterlimit="10" stroke-width="1"/>
      </g>
      <g id="Grupo_91507-2" data-name="Grupo 91507" transform="translate(334.991 -8.613)">
        <path id="Trazado_148643" data-name="Trazado 148643" d="M4.5-4.824V0H1.074V-14.219H6.748a6.608,6.608,0,0,1,2.886.6,4.526,4.526,0,0,1,1.943,1.709,4.667,4.667,0,0,1,.688,2.515,4.114,4.114,0,0,1-1.489,3.325A6.179,6.179,0,0,1,6.689-4.824Zm0-2.646H6.748a2.118,2.118,0,0,0,1.519-.5,1.85,1.85,0,0,0,.522-1.406,2.287,2.287,0,0,0-.537-1.592,1.9,1.9,0,0,0-1.465-.605H4.5ZM22.91-6.035H17.52v3.4h6.367V0H14.092V-14.219h9.814v2.646H17.52v3H22.91Zm14.434-.781a8.4,8.4,0,0,1-.654,3.442,5.984,5.984,0,0,1-1.807,2.358L37.178.8,35.059,2.6,32,.137A6.353,6.353,0,0,1,31.143.2a6.163,6.163,0,0,1-3.223-.84,5.712,5.712,0,0,1-2.192-2.4,8.159,8.159,0,0,1-.815-3.594v-.752a8.414,8.414,0,0,1,.767-3.691,5.713,5.713,0,0,1,2.188-2.461,6.115,6.115,0,0,1,3.257-.869,6.087,6.087,0,0,1,3.223.859,5.79,5.79,0,0,1,2.2,2.446,8.18,8.18,0,0,1,.8,3.638Zm-3.486-.6a5.979,5.979,0,0,0-.708-3.218,2.271,2.271,0,0,0-2.026-1.1,2.256,2.256,0,0,0-2.041,1.084,6.057,6.057,0,0,0-.693,3.174v.654A6.145,6.145,0,0,0,29.082-3.6,2.27,2.27,0,0,0,31.143-2.48a2.237,2.237,0,0,0,2.007-1.1,6.016,6.016,0,0,0,.708-3.174Zm19.434.361H44.248V-9.59h9.043Zm0,4.287H44.248V-5.3h9.043Z" transform="translate(0 2937)" fill="#12263f"/>
        <text id="_2" data-name="———————" transform="translate(67 2937)" fill="#12263f" font-size="29" font-family="Roboto-Black, Roboto" font-weight="800"><tspan x="0" y="0">———————</tspan></text>
        <path id="Trazado_148642" data-name="Trazado 148642" d="M7.422-3.77A1.788,1.788,0,0,0,7.041-4.98,3.557,3.557,0,0,0,5.7-5.811Q4.746-6.2,3.936-6.6a6.131,6.131,0,0,1-1.4-.928,3.645,3.645,0,0,1-.9-1.221,4.072,4.072,0,0,1-.312-1.68,3.608,3.608,0,0,1,1.113-2.72A4.791,4.791,0,0,1,5.41-14.395v-2.061H6.963v2.1a4.361,4.361,0,0,1,2.808,1.47,4.575,4.575,0,0,1,1.021,3.062H7.49A2.663,2.663,0,0,0,7.1-11.387a1.286,1.286,0,0,0-1.113-.547,1.263,1.263,0,0,0-1,.405,1.635,1.635,0,0,0-.356,1.118,1.582,1.582,0,0,0,.41,1.147,4.04,4.04,0,0,0,1.318.811q.908.386,1.714.8a6.552,6.552,0,0,1,1.392.942,3.857,3.857,0,0,1,.918,1.23,3.929,3.929,0,0,1,.332,1.689,3.678,3.678,0,0,1-1.06,2.725A4.561,4.561,0,0,1,6.768.166V2.129H5.215V.156A4.967,4.967,0,0,1,1.948-1.3,4.618,4.618,0,0,1,.811-4.561H4.1a2.554,2.554,0,0,0,.493,1.694A1.737,1.737,0,0,0,6-2.285a1.383,1.383,0,0,0,1.045-.4A1.5,1.5,0,0,0,7.422-3.77Zm18.7-1.787h1.445v2.539H26.123V0H22.832V-3.018h-5.5l-.2-2.012,5.693-9.16v-.029h3.291Zm-5.85,0h2.559V-9.932l-.205.332Zm18.613-.254a6.789,6.789,0,0,1-1.294,4.443A4.471,4.471,0,0,1,33.945.2a4.5,4.5,0,0,1-3.672-1.572,6.779,6.779,0,0,1-1.3-4.434v-2.6a6.789,6.789,0,0,1,1.294-4.443,4.483,4.483,0,0,1,3.657-1.562,4.484,4.484,0,0,1,3.662,1.572,6.8,6.8,0,0,1,1.3,4.443ZM35.6-8.828a5.071,5.071,0,0,0-.4-2.29,1.338,1.338,0,0,0-1.27-.757,1.307,1.307,0,0,0-1.235.7,4.777,4.777,0,0,0-.415,2.129V-5.41a5.109,5.109,0,0,0,.4,2.329,1.343,1.343,0,0,0,1.27.737,1.325,1.325,0,0,0,1.24-.718,4.878,4.878,0,0,0,.41-2.251Zm7.09,5.635a1.874,1.874,0,0,1,1.3.464A1.522,1.522,0,0,1,44.5-1.543a1.522,1.522,0,0,1-.518,1.187,1.874,1.874,0,0,1-1.3.464,1.858,1.858,0,0,1-1.3-.469,1.533,1.533,0,0,1-.513-1.182,1.533,1.533,0,0,1,.513-1.182A1.858,1.858,0,0,1,42.686-3.193ZM56.514-5.811A6.789,6.789,0,0,1,55.22-1.367,4.471,4.471,0,0,1,51.572.2,4.5,4.5,0,0,1,47.9-1.377a6.779,6.779,0,0,1-1.3-4.434v-2.6A6.789,6.789,0,0,1,47.9-12.852a4.483,4.483,0,0,1,3.657-1.562,4.484,4.484,0,0,1,3.662,1.572,6.8,6.8,0,0,1,1.3,4.443ZM53.223-8.828a5.071,5.071,0,0,0-.4-2.29,1.338,1.338,0,0,0-1.27-.757,1.307,1.307,0,0,0-1.235.7A4.777,4.777,0,0,0,49.9-9.043V-5.41a5.109,5.109,0,0,0,.4,2.329,1.343,1.343,0,0,0,1.27.737,1.325,1.325,0,0,0,1.24-.718,4.878,4.878,0,0,0,.41-2.251ZM68.1-5.811A6.789,6.789,0,0,1,66.8-1.367,4.471,4.471,0,0,1,63.154.2a4.5,4.5,0,0,1-3.672-1.572,6.779,6.779,0,0,1-1.3-4.434v-2.6a6.789,6.789,0,0,1,1.294-4.443,4.483,4.483,0,0,1,3.657-1.562A4.484,4.484,0,0,1,66.8-12.842,6.8,6.8,0,0,1,68.1-8.4ZM64.8-8.828a5.071,5.071,0,0,0-.4-2.29,1.338,1.338,0,0,0-1.27-.757,1.307,1.307,0,0,0-1.235.7,4.777,4.777,0,0,0-.415,2.129V-5.41a5.109,5.109,0,0,0,.4,2.329,1.343,1.343,0,0,0,1.27.737,1.325,1.325,0,0,0,1.24-.718,4.878,4.878,0,0,0,.41-2.251ZM79.678-5.811a6.789,6.789,0,0,1-1.294,4.443A4.471,4.471,0,0,1,74.736.2a4.5,4.5,0,0,1-3.672-1.572,6.779,6.779,0,0,1-1.3-4.434v-2.6a6.789,6.789,0,0,1,1.294-4.443,4.483,4.483,0,0,1,3.657-1.562,4.484,4.484,0,0,1,3.662,1.572,6.8,6.8,0,0,1,1.3,4.443ZM76.387-8.828a5.071,5.071,0,0,0-.4-2.29,1.338,1.338,0,0,0-1.27-.757,1.307,1.307,0,0,0-1.235.7,4.777,4.777,0,0,0-.415,2.129V-5.41a5.109,5.109,0,0,0,.4,2.329,1.343,1.343,0,0,0,1.27.737,1.325,1.325,0,0,0,1.24-.718,4.878,4.878,0,0,0,.41-2.251Zm7.09,5.635a1.874,1.874,0,0,1,1.3.464,1.522,1.522,0,0,1,.518,1.187,1.522,1.522,0,0,1-.518,1.187,1.874,1.874,0,0,1-1.3.464,1.858,1.858,0,0,1-1.3-.469,1.533,1.533,0,0,1-.513-1.182,1.533,1.533,0,0,1,.513-1.182A1.858,1.858,0,0,1,83.477-3.193ZM97.3-5.811a6.789,6.789,0,0,1-1.294,4.443A4.471,4.471,0,0,1,92.363.2a4.5,4.5,0,0,1-3.672-1.572,6.779,6.779,0,0,1-1.3-4.434v-2.6a6.789,6.789,0,0,1,1.294-4.443,4.483,4.483,0,0,1,3.657-1.562,4.484,4.484,0,0,1,3.662,1.572A6.8,6.8,0,0,1,97.3-8.4ZM94.014-8.828a5.071,5.071,0,0,0-.4-2.29,1.338,1.338,0,0,0-1.27-.757,1.307,1.307,0,0,0-1.235.7,4.777,4.777,0,0,0-.415,2.129V-5.41a5.109,5.109,0,0,0,.4,2.329,1.343,1.343,0,0,0,1.27.737,1.325,1.325,0,0,0,1.24-.718,4.878,4.878,0,0,0,.41-2.251Zm14.873,3.018a6.789,6.789,0,0,1-1.294,4.443A4.471,4.471,0,0,1,103.945.2a4.5,4.5,0,0,1-3.672-1.572,6.779,6.779,0,0,1-1.3-4.434v-2.6a6.789,6.789,0,0,1,1.294-4.443,4.483,4.483,0,0,1,3.657-1.562,4.484,4.484,0,0,1,3.662,1.572,6.8,6.8,0,0,1,1.3,4.443ZM105.6-8.828a5.071,5.071,0,0,0-.4-2.29,1.338,1.338,0,0,0-1.27-.757,1.307,1.307,0,0,0-1.235.7,4.777,4.777,0,0,0-.415,2.129V-5.41a5.109,5.109,0,0,0,.4,2.329,1.343,1.343,0,0,0,1.27.737,1.325,1.325,0,0,0,1.24-.718,4.878,4.878,0,0,0,.41-2.251Zm14.873,3.018a6.789,6.789,0,0,1-1.294,4.443A4.471,4.471,0,0,1,115.527.2a4.5,4.5,0,0,1-3.672-1.572,6.779,6.779,0,0,1-1.3-4.434v-2.6a6.789,6.789,0,0,1,1.294-4.443,4.483,4.483,0,0,1,3.657-1.562,4.484,4.484,0,0,1,3.662,1.572,6.8,6.8,0,0,1,1.3,4.443Zm-3.291-3.018a5.071,5.071,0,0,0-.4-2.29,1.338,1.338,0,0,0-1.27-.757,1.307,1.307,0,0,0-1.235.7,4.777,4.777,0,0,0-.415,2.129V-5.41a5.109,5.109,0,0,0,.4,2.329,1.343,1.343,0,0,0,1.27.737,1.325,1.325,0,0,0,1.24-.718,4.878,4.878,0,0,0,.41-2.251Z" transform="translate(85 2912)" fill="#12263f"/>
        <path id="Trazado_148644" data-name="Trazado 148644" d="M10.742-5.811A6.789,6.789,0,0,1,9.448-1.367,4.471,4.471,0,0,1,5.8.2,4.5,4.5,0,0,1,2.129-1.377,6.779,6.779,0,0,1,.83-5.811v-2.6a6.789,6.789,0,0,1,1.294-4.443,4.483,4.483,0,0,1,3.657-1.562,4.484,4.484,0,0,1,3.662,1.572,6.8,6.8,0,0,1,1.3,4.443ZM7.451-8.828a5.071,5.071,0,0,0-.4-2.29,1.338,1.338,0,0,0-1.27-.757,1.307,1.307,0,0,0-1.235.7,4.777,4.777,0,0,0-.415,2.129V-5.41a5.109,5.109,0,0,0,.4,2.329,1.343,1.343,0,0,0,1.27.737,1.325,1.325,0,0,0,1.24-.718,4.878,4.878,0,0,0,.41-2.251ZM13.662,3.828,12,3.047l.332-.664a5.416,5.416,0,0,0,.713-2.422V-2.48h2.637l-.01,2.119A5.3,5.3,0,0,1,15.1,1.924,5.806,5.806,0,0,1,13.662,3.828ZM25.137,0h-3.3V-10.508l-3.242.947v-2.5l6.24-2.158h.3ZM39.346,0H29.424V-2.148l4.57-4.8q1.689-1.924,1.689-3.057a2.126,2.126,0,0,0-.4-1.4,1.43,1.43,0,0,0-1.162-.479,1.447,1.447,0,0,0-1.221.64,2.629,2.629,0,0,0-.469,1.6h-3.3a4.67,4.67,0,0,1,.654-2.417A4.588,4.588,0,0,1,31.6-13.8a5.4,5.4,0,0,1,2.6-.625,5.308,5.308,0,0,1,3.55,1.064A3.8,3.8,0,0,1,38.994-10.3a4.439,4.439,0,0,1-.312,1.636A7.173,7.173,0,0,1,37.71-7a24.476,24.476,0,0,1-2.124,2.339L33.75-2.539h5.6ZM41.2-6.945l.869-7.273h8.311v2.559H44.746l-.322,2.825a3.882,3.882,0,0,1,.923-.363,4.211,4.211,0,0,1,1.118-.157A4.171,4.171,0,0,1,49.722-8.1,5.055,5.055,0,0,1,50.859-4.58a5.046,5.046,0,0,1-.61,2.476A4.2,4.2,0,0,1,48.535-.4a5.411,5.411,0,0,1-2.607.6,5.822,5.822,0,0,1-2.51-.551,4.5,4.5,0,0,1-1.836-1.512,3.675,3.675,0,0,1-.654-2.171h3.3a1.867,1.867,0,0,0,.5,1.238,1.581,1.581,0,0,0,1.182.458q1.66,0,1.66-2.456,0-2.271-2.031-2.271a2.027,2.027,0,0,0-1.719.741Z" transform="translate(123 2956)" fill="#12263f"/>
      </g>
    </g>
    <g id="Grupo_93186" data-name="Grupo 93186" transform="translate(983.191 3223.522)">
      <rect id="Rectángulo_31816-3" data-name="Rectángulo 31816" width="296.297" height="131" transform="translate(289.991 2859)" fill="#6595bf"/>
      <g id="Grupo_89142-3" data-name="Grupo 89142" transform="translate(276.809 2852)">
        <rect id="Rectángulo_31778-3" data-name="Rectángulo 31778" width="304.531" height="132.775" fill="#fff" stroke="#12263f" stroke-miterlimit="10" stroke-width="1"/>
      </g>
      <g id="Grupo_91507-3" data-name="Grupo 91507" transform="translate(334.991 -8.613)">
        <path id="Trazado_148645" data-name="Trazado 148645" d="M4.5-4.824V0H1.074V-14.219H6.748a6.608,6.608,0,0,1,2.886.6,4.526,4.526,0,0,1,1.943,1.709,4.667,4.667,0,0,1,.688,2.515,4.114,4.114,0,0,1-1.489,3.325A6.179,6.179,0,0,1,6.689-4.824Zm0-2.646H6.748a2.118,2.118,0,0,0,1.519-.5,1.85,1.85,0,0,0,.522-1.406,2.287,2.287,0,0,0-.537-1.592,1.9,1.9,0,0,0-1.465-.605H4.5ZM22.91-6.035H17.52v3.4h6.367V0H14.092V-14.219h9.814v2.646H17.52v3H22.91Zm14.434-.781a8.4,8.4,0,0,1-.654,3.442,5.984,5.984,0,0,1-1.807,2.358L37.178.8,35.059,2.6,32,.137A6.353,6.353,0,0,1,31.143.2a6.163,6.163,0,0,1-3.223-.84,5.712,5.712,0,0,1-2.192-2.4,8.159,8.159,0,0,1-.815-3.594v-.752a8.414,8.414,0,0,1,.767-3.691,5.713,5.713,0,0,1,2.188-2.461,6.115,6.115,0,0,1,3.257-.869,6.087,6.087,0,0,1,3.223.859,5.79,5.79,0,0,1,2.2,2.446,8.18,8.18,0,0,1,.8,3.638Zm-3.486-.6a5.979,5.979,0,0,0-.708-3.218,2.271,2.271,0,0,0-2.026-1.1,2.256,2.256,0,0,0-2.041,1.084,6.057,6.057,0,0,0-.693,3.174v.654A6.145,6.145,0,0,0,29.082-3.6,2.27,2.27,0,0,0,31.143-2.48a2.237,2.237,0,0,0,2.007-1.1,6.016,6.016,0,0,0,.708-3.174Zm19.434.361H44.248V-9.59h9.043Zm0,4.287H44.248V-5.3h9.043ZM67.109-3.77a1.788,1.788,0,0,0-.381-1.211,3.557,3.557,0,0,0-1.338-.83Q64.434-6.2,63.623-6.6a6.131,6.131,0,0,1-1.4-.928,3.644,3.644,0,0,1-.9-1.221,4.072,4.072,0,0,1-.312-1.68,3.608,3.608,0,0,1,1.113-2.72A4.791,4.791,0,0,1,65.1-14.395v-2.061H66.65v2.1a4.361,4.361,0,0,1,2.808,1.47,4.575,4.575,0,0,1,1.021,3.062h-3.3a2.663,2.663,0,0,0-.391-1.562,1.286,1.286,0,0,0-1.113-.547,1.263,1.263,0,0,0-1,.405,1.635,1.635,0,0,0-.356,1.118,1.582,1.582,0,0,0,.41,1.147,4.04,4.04,0,0,0,1.318.811q.908.386,1.714.8a6.552,6.552,0,0,1,1.392.942,3.857,3.857,0,0,1,.918,1.23A3.929,3.929,0,0,1,70.4-3.789a3.678,3.678,0,0,1-1.06,2.725A4.561,4.561,0,0,1,66.455.166V2.129H64.9V.156A4.968,4.968,0,0,1,61.636-1.3,4.618,4.618,0,0,1,60.5-4.561h3.291a2.554,2.554,0,0,0,.493,1.694,1.737,1.737,0,0,0,1.4.581,1.383,1.383,0,0,0,1.045-.4A1.5,1.5,0,0,0,67.109-3.77Zm8.037-4.717H76.7a1.614,1.614,0,0,0,1.846-1.807,1.562,1.562,0,0,0-.439-1.147,1.666,1.666,0,0,0-1.24-.444,1.784,1.784,0,0,0-1.138.381,1.162,1.162,0,0,0-.483.947H71.953a3.369,3.369,0,0,1,.625-2,4.127,4.127,0,0,1,1.733-1.372,5.926,5.926,0,0,1,2.437-.493,5.823,5.823,0,0,1,3.73,1.084,3.6,3.6,0,0,1,1.357,2.979,3,3,0,0,1-.562,1.733A4,4,0,0,1,79.639-7.3,3.823,3.823,0,0,1,81.416-6.06a3.279,3.279,0,0,1,.645,2.065A3.669,3.669,0,0,1,80.6-.947,6.08,6.08,0,0,1,76.748.2a6.306,6.306,0,0,1-2.593-.532,4.062,4.062,0,0,1-1.812-1.475,3.834,3.834,0,0,1-.615-2.144h3.311a1.482,1.482,0,0,0,.527,1.133,1.862,1.862,0,0,0,1.3.479,1.95,1.95,0,0,0,1.387-.483,1.616,1.616,0,0,0,.518-1.235,1.889,1.889,0,0,0-.537-1.523,2.245,2.245,0,0,0-1.484-.449h-1.6ZM93.643,0H83.721V-2.148l4.57-4.8Q89.98-8.877,89.98-10.01a2.126,2.126,0,0,0-.4-1.4,1.43,1.43,0,0,0-1.162-.479,1.447,1.447,0,0,0-1.221.64,2.629,2.629,0,0,0-.469,1.6h-3.3a4.67,4.67,0,0,1,.654-2.417A4.588,4.588,0,0,1,85.9-13.8a5.4,5.4,0,0,1,2.6-.625,5.308,5.308,0,0,1,3.55,1.064A3.8,3.8,0,0,1,93.291-10.3a4.439,4.439,0,0,1-.312,1.636A7.173,7.173,0,0,1,92.007-7a24.476,24.476,0,0,1-2.124,2.339L88.047-2.539h5.6Zm11.533-5.811a6.789,6.789,0,0,1-1.294,4.443A4.471,4.471,0,0,1,100.234.2a4.5,4.5,0,0,1-3.672-1.572,6.779,6.779,0,0,1-1.3-4.434v-2.6a6.789,6.789,0,0,1,1.294-4.443,4.483,4.483,0,0,1,3.657-1.562,4.484,4.484,0,0,1,3.662,1.572,6.8,6.8,0,0,1,1.3,4.443Zm-3.291-3.018a5.071,5.071,0,0,0-.4-2.29,1.338,1.338,0,0,0-1.27-.757,1.307,1.307,0,0,0-1.235.7,4.777,4.777,0,0,0-.415,2.129V-5.41a5.109,5.109,0,0,0,.4,2.329,1.343,1.343,0,0,0,1.27.737,1.325,1.325,0,0,0,1.24-.718,4.878,4.878,0,0,0,.41-2.251Zm7.09,5.635a1.874,1.874,0,0,1,1.3.464,1.522,1.522,0,0,1,.518,1.187,1.522,1.522,0,0,1-.518,1.187,1.874,1.874,0,0,1-1.3.464,1.858,1.858,0,0,1-1.3-.469,1.533,1.533,0,0,1-.513-1.182,1.533,1.533,0,0,1,.513-1.182A1.858,1.858,0,0,1,108.975-3.193ZM122.8-5.811a6.789,6.789,0,0,1-1.294,4.443A4.471,4.471,0,0,1,117.861.2a4.5,4.5,0,0,1-3.672-1.572,6.779,6.779,0,0,1-1.3-4.434v-2.6a6.789,6.789,0,0,1,1.294-4.443,4.483,4.483,0,0,1,3.657-1.562,4.484,4.484,0,0,1,3.662,1.572A6.8,6.8,0,0,1,122.8-8.4Zm-3.291-3.018a5.071,5.071,0,0,0-.4-2.29,1.338,1.338,0,0,0-1.27-.757,1.307,1.307,0,0,0-1.235.7,4.777,4.777,0,0,0-.415,2.129V-5.41a5.109,5.109,0,0,0,.4,2.329,1.343,1.343,0,0,0,1.27.737,1.325,1.325,0,0,0,1.24-.718,4.878,4.878,0,0,0,.41-2.251Zm14.873,3.018a6.789,6.789,0,0,1-1.294,4.443A4.471,4.471,0,0,1,129.443.2a4.5,4.5,0,0,1-3.672-1.572,6.779,6.779,0,0,1-1.3-4.434v-2.6a6.789,6.789,0,0,1,1.294-4.443,4.483,4.483,0,0,1,3.657-1.562,4.484,4.484,0,0,1,3.662,1.572,6.8,6.8,0,0,1,1.3,4.443Zm-3.291-3.018a5.071,5.071,0,0,0-.4-2.29,1.338,1.338,0,0,0-1.27-.757,1.307,1.307,0,0,0-1.235.7,4.777,4.777,0,0,0-.415,2.129V-5.41a5.109,5.109,0,0,0,.4,2.329,1.343,1.343,0,0,0,1.27.737,1.325,1.325,0,0,0,1.24-.718,4.878,4.878,0,0,0,.41-2.251Zm14.873,3.018a6.789,6.789,0,0,1-1.294,4.443A4.471,4.471,0,0,1,141.025.2a4.5,4.5,0,0,1-3.672-1.572,6.779,6.779,0,0,1-1.3-4.434v-2.6a6.789,6.789,0,0,1,1.294-4.443,4.483,4.483,0,0,1,3.657-1.562,4.484,4.484,0,0,1,3.662,1.572,6.8,6.8,0,0,1,1.3,4.443Zm-3.291-3.018a5.071,5.071,0,0,0-.4-2.29,1.338,1.338,0,0,0-1.27-.757,1.307,1.307,0,0,0-1.235.7,4.777,4.777,0,0,0-.415,2.129V-5.41a5.11,5.11,0,0,0,.4,2.329,1.343,1.343,0,0,0,1.27.737,1.325,1.325,0,0,0,1.24-.718,4.878,4.878,0,0,0,.41-2.251Zm7.09,5.635a1.874,1.874,0,0,1,1.3.464,1.522,1.522,0,0,1,.518,1.187,1.522,1.522,0,0,1-.518,1.187,1.874,1.874,0,0,1-1.3.464,1.858,1.858,0,0,1-1.3-.469,1.533,1.533,0,0,1-.513-1.182,1.533,1.533,0,0,1,.513-1.182A1.858,1.858,0,0,1,149.766-3.193Zm13.828-2.617A6.789,6.789,0,0,1,162.3-1.367,4.471,4.471,0,0,1,158.652.2a4.5,4.5,0,0,1-3.672-1.572,6.779,6.779,0,0,1-1.3-4.434v-2.6a6.789,6.789,0,0,1,1.294-4.443,4.483,4.483,0,0,1,3.657-1.562,4.484,4.484,0,0,1,3.662,1.572,6.8,6.8,0,0,1,1.3,4.443ZM160.3-8.828a5.071,5.071,0,0,0-.4-2.29,1.338,1.338,0,0,0-1.27-.757,1.307,1.307,0,0,0-1.235.7,4.777,4.777,0,0,0-.415,2.129V-5.41a5.11,5.11,0,0,0,.4,2.329,1.343,1.343,0,0,0,1.27.737,1.325,1.325,0,0,0,1.24-.718,4.878,4.878,0,0,0,.41-2.251Zm14.873,3.018a6.789,6.789,0,0,1-1.294,4.443A4.471,4.471,0,0,1,170.234.2a4.5,4.5,0,0,1-3.672-1.572,6.779,6.779,0,0,1-1.3-4.434v-2.6a6.789,6.789,0,0,1,1.294-4.443,4.483,4.483,0,0,1,3.657-1.562,4.484,4.484,0,0,1,3.662,1.572,6.8,6.8,0,0,1,1.3,4.443Zm-3.291-3.018a5.071,5.071,0,0,0-.4-2.29,1.338,1.338,0,0,0-1.27-.757,1.307,1.307,0,0,0-1.235.7,4.777,4.777,0,0,0-.415,2.129V-5.41a5.11,5.11,0,0,0,.4,2.329,1.343,1.343,0,0,0,1.27.737,1.325,1.325,0,0,0,1.24-.718,4.878,4.878,0,0,0,.41-2.251Zm14.873,3.018a6.789,6.789,0,0,1-1.294,4.443A4.471,4.471,0,0,1,181.816.2a4.5,4.5,0,0,1-3.672-1.572,6.779,6.779,0,0,1-1.3-4.434v-2.6a6.789,6.789,0,0,1,1.294-4.443,4.483,4.483,0,0,1,3.657-1.562,4.484,4.484,0,0,1,3.662,1.572,6.8,6.8,0,0,1,1.3,4.443Zm-3.291-3.018a5.071,5.071,0,0,0-.4-2.29,1.338,1.338,0,0,0-1.27-.757,1.307,1.307,0,0,0-1.235.7,4.777,4.777,0,0,0-.415,2.129V-5.41a5.11,5.11,0,0,0,.4,2.329,1.343,1.343,0,0,0,1.27.737,1.325,1.325,0,0,0,1.24-.718,4.878,4.878,0,0,0,.41-2.251Z" transform="translate(0 2937)" fill="#12263f"/>
      </g>
    </g>
    <g id="Grupo_93187" data-name="Grupo 93187" transform="translate(903.191 2917.522)">
      <rect id="Rectángulo_31816-4" data-name="Rectángulo 31816" width="437.086" height="131" transform="translate(289.991 2859)" fill="#6595bf"/>
      <g id="Grupo_89142-4" data-name="Grupo 89142" transform="translate(276.809 2852)">
        <rect id="Rectángulo_31778-4" data-name="Rectángulo 31778" width="445.32" height="132.775" transform="translate(0)" fill="#fff" stroke="#12263f" stroke-miterlimit="10" stroke-width="1"/>
      </g>
      <g id="Grupo_91507-4" data-name="Grupo 91507" transform="translate(321.991 -8.613)">
        <path id="Trazado_148639" data-name="Trazado 148639" d="M4.5-4.824V0H1.074V-14.219H6.748a6.608,6.608,0,0,1,2.886.6,4.526,4.526,0,0,1,1.943,1.709,4.667,4.667,0,0,1,.688,2.515,4.114,4.114,0,0,1-1.489,3.325A6.179,6.179,0,0,1,6.689-4.824Zm0-2.646H6.748a2.118,2.118,0,0,0,1.519-.5,1.85,1.85,0,0,0,.522-1.406,2.287,2.287,0,0,0-.537-1.592,1.9,1.9,0,0,0-1.465-.605H4.5ZM22.91-6.035H17.52v3.4h6.367V0H14.092V-14.219h9.814v2.646H17.52v3H22.91Zm14.434-.781a8.4,8.4,0,0,1-.654,3.442,5.984,5.984,0,0,1-1.807,2.358L37.178.8,35.059,2.6,32,.137A6.353,6.353,0,0,1,31.143.2a6.163,6.163,0,0,1-3.223-.84,5.712,5.712,0,0,1-2.192-2.4,8.159,8.159,0,0,1-.815-3.594v-.752a8.414,8.414,0,0,1,.767-3.691,5.713,5.713,0,0,1,2.188-2.461,6.115,6.115,0,0,1,3.257-.869,6.087,6.087,0,0,1,3.223.859,5.79,5.79,0,0,1,2.2,2.446,8.18,8.18,0,0,1,.8,3.638Zm-3.486-.6a5.979,5.979,0,0,0-.708-3.218,2.271,2.271,0,0,0-2.026-1.1,2.256,2.256,0,0,0-2.041,1.084,6.057,6.057,0,0,0-.693,3.174v.654A6.145,6.145,0,0,0,29.082-3.6,2.27,2.27,0,0,0,31.143-2.48a2.237,2.237,0,0,0,2.007-1.1,6.016,6.016,0,0,0,.708-3.174Zm19.434.361H44.248V-9.59h9.043Zm0,4.287H44.248V-5.3h9.043Z" transform="translate(0 2937)" fill="#12263f"/>
        <text id="_3" data-name="————————————" transform="translate(74 2937)" fill="#12263f" font-size="29" font-family="Roboto-Black, Roboto" font-weight="800"><tspan x="0" y="0">————————————</tspan></text>
        <path id="Trazado_148640" data-name="Trazado 148640" d="M7.422-3.77A1.788,1.788,0,0,0,7.041-4.98,3.557,3.557,0,0,0,5.7-5.811Q4.746-6.2,3.936-6.6a6.131,6.131,0,0,1-1.4-.928,3.645,3.645,0,0,1-.9-1.221,4.072,4.072,0,0,1-.312-1.68,3.608,3.608,0,0,1,1.113-2.72A4.791,4.791,0,0,1,5.41-14.395v-2.061H6.963v2.1a4.361,4.361,0,0,1,2.808,1.47,4.575,4.575,0,0,1,1.021,3.062H7.49A2.663,2.663,0,0,0,7.1-11.387a1.286,1.286,0,0,0-1.113-.547,1.263,1.263,0,0,0-1,.405,1.635,1.635,0,0,0-.356,1.118,1.582,1.582,0,0,0,.41,1.147,4.04,4.04,0,0,0,1.318.811q.908.386,1.714.8a6.552,6.552,0,0,1,1.392.942,3.857,3.857,0,0,1,.918,1.23,3.929,3.929,0,0,1,.332,1.689,3.678,3.678,0,0,1-1.06,2.725A4.561,4.561,0,0,1,6.768.166V2.129H5.215V.156A4.967,4.967,0,0,1,1.948-1.3,4.618,4.618,0,0,1,.811-4.561H4.1a2.554,2.554,0,0,0,.493,1.694A1.737,1.737,0,0,0,6-2.285a1.383,1.383,0,0,0,1.045-.4A1.5,1.5,0,0,0,7.422-3.77Zm18.7-1.787h1.445v2.539H26.123V0H22.832V-3.018h-5.5l-.2-2.012,5.693-9.16v-.029h3.291Zm-5.85,0h2.559V-9.932l-.205.332Zm18.613-.254a6.789,6.789,0,0,1-1.294,4.443A4.471,4.471,0,0,1,33.945.2a4.5,4.5,0,0,1-3.672-1.572,6.779,6.779,0,0,1-1.3-4.434v-2.6a6.789,6.789,0,0,1,1.294-4.443,4.483,4.483,0,0,1,3.657-1.562,4.484,4.484,0,0,1,3.662,1.572,6.8,6.8,0,0,1,1.3,4.443ZM35.6-8.828a5.071,5.071,0,0,0-.4-2.29,1.338,1.338,0,0,0-1.27-.757,1.307,1.307,0,0,0-1.235.7,4.777,4.777,0,0,0-.415,2.129V-5.41a5.109,5.109,0,0,0,.4,2.329,1.343,1.343,0,0,0,1.27.737,1.325,1.325,0,0,0,1.24-.718,4.878,4.878,0,0,0,.41-2.251Zm7.09,5.635a1.874,1.874,0,0,1,1.3.464A1.522,1.522,0,0,1,44.5-1.543a1.522,1.522,0,0,1-.518,1.187,1.874,1.874,0,0,1-1.3.464,1.858,1.858,0,0,1-1.3-.469,1.533,1.533,0,0,1-.513-1.182,1.533,1.533,0,0,1,.513-1.182A1.858,1.858,0,0,1,42.686-3.193ZM56.514-5.811A6.789,6.789,0,0,1,55.22-1.367,4.471,4.471,0,0,1,51.572.2,4.5,4.5,0,0,1,47.9-1.377a6.779,6.779,0,0,1-1.3-4.434v-2.6A6.789,6.789,0,0,1,47.9-12.852a4.483,4.483,0,0,1,3.657-1.562,4.484,4.484,0,0,1,3.662,1.572,6.8,6.8,0,0,1,1.3,4.443ZM53.223-8.828a5.071,5.071,0,0,0-.4-2.29,1.338,1.338,0,0,0-1.27-.757,1.307,1.307,0,0,0-1.235.7A4.777,4.777,0,0,0,49.9-9.043V-5.41a5.109,5.109,0,0,0,.4,2.329,1.343,1.343,0,0,0,1.27.737,1.325,1.325,0,0,0,1.24-.718,4.878,4.878,0,0,0,.41-2.251ZM68.1-5.811A6.789,6.789,0,0,1,66.8-1.367,4.471,4.471,0,0,1,63.154.2a4.5,4.5,0,0,1-3.672-1.572,6.779,6.779,0,0,1-1.3-4.434v-2.6a6.789,6.789,0,0,1,1.294-4.443,4.483,4.483,0,0,1,3.657-1.562A4.484,4.484,0,0,1,66.8-12.842,6.8,6.8,0,0,1,68.1-8.4ZM64.8-8.828a5.071,5.071,0,0,0-.4-2.29,1.338,1.338,0,0,0-1.27-.757,1.307,1.307,0,0,0-1.235.7,4.777,4.777,0,0,0-.415,2.129V-5.41a5.109,5.109,0,0,0,.4,2.329,1.343,1.343,0,0,0,1.27.737,1.325,1.325,0,0,0,1.24-.718,4.878,4.878,0,0,0,.41-2.251ZM79.678-5.811a6.789,6.789,0,0,1-1.294,4.443A4.471,4.471,0,0,1,74.736.2a4.5,4.5,0,0,1-3.672-1.572,6.779,6.779,0,0,1-1.3-4.434v-2.6a6.789,6.789,0,0,1,1.294-4.443,4.483,4.483,0,0,1,3.657-1.562,4.484,4.484,0,0,1,3.662,1.572,6.8,6.8,0,0,1,1.3,4.443ZM76.387-8.828a5.071,5.071,0,0,0-.4-2.29,1.338,1.338,0,0,0-1.27-.757,1.307,1.307,0,0,0-1.235.7,4.777,4.777,0,0,0-.415,2.129V-5.41a5.109,5.109,0,0,0,.4,2.329,1.343,1.343,0,0,0,1.27.737,1.325,1.325,0,0,0,1.24-.718,4.878,4.878,0,0,0,.41-2.251Zm7.09,5.635a1.874,1.874,0,0,1,1.3.464,1.522,1.522,0,0,1,.518,1.187,1.522,1.522,0,0,1-.518,1.187,1.874,1.874,0,0,1-1.3.464,1.858,1.858,0,0,1-1.3-.469,1.533,1.533,0,0,1-.513-1.182,1.533,1.533,0,0,1,.513-1.182A1.858,1.858,0,0,1,83.477-3.193ZM97.3-5.811a6.789,6.789,0,0,1-1.294,4.443A4.471,4.471,0,0,1,92.363.2a4.5,4.5,0,0,1-3.672-1.572,6.779,6.779,0,0,1-1.3-4.434v-2.6a6.789,6.789,0,0,1,1.294-4.443,4.483,4.483,0,0,1,3.657-1.562,4.484,4.484,0,0,1,3.662,1.572A6.8,6.8,0,0,1,97.3-8.4ZM94.014-8.828a5.071,5.071,0,0,0-.4-2.29,1.338,1.338,0,0,0-1.27-.757,1.307,1.307,0,0,0-1.235.7,4.777,4.777,0,0,0-.415,2.129V-5.41a5.109,5.109,0,0,0,.4,2.329,1.343,1.343,0,0,0,1.27.737,1.325,1.325,0,0,0,1.24-.718,4.878,4.878,0,0,0,.41-2.251Zm14.873,3.018a6.789,6.789,0,0,1-1.294,4.443A4.471,4.471,0,0,1,103.945.2a4.5,4.5,0,0,1-3.672-1.572,6.779,6.779,0,0,1-1.3-4.434v-2.6a6.789,6.789,0,0,1,1.294-4.443,4.483,4.483,0,0,1,3.657-1.562,4.484,4.484,0,0,1,3.662,1.572,6.8,6.8,0,0,1,1.3,4.443ZM105.6-8.828a5.071,5.071,0,0,0-.4-2.29,1.338,1.338,0,0,0-1.27-.757,1.307,1.307,0,0,0-1.235.7,4.777,4.777,0,0,0-.415,2.129V-5.41a5.109,5.109,0,0,0,.4,2.329,1.343,1.343,0,0,0,1.27.737,1.325,1.325,0,0,0,1.24-.718,4.878,4.878,0,0,0,.41-2.251Zm14.873,3.018a6.789,6.789,0,0,1-1.294,4.443A4.471,4.471,0,0,1,115.527.2a4.5,4.5,0,0,1-3.672-1.572,6.779,6.779,0,0,1-1.3-4.434v-2.6a6.789,6.789,0,0,1,1.294-4.443,4.483,4.483,0,0,1,3.657-1.562,4.484,4.484,0,0,1,3.662,1.572,6.8,6.8,0,0,1,1.3,4.443Zm-3.291-3.018a5.071,5.071,0,0,0-.4-2.29,1.338,1.338,0,0,0-1.27-.757,1.307,1.307,0,0,0-1.235.7,4.777,4.777,0,0,0-.415,2.129V-5.41a5.109,5.109,0,0,0,.4,2.329,1.343,1.343,0,0,0,1.27.737,1.325,1.325,0,0,0,1.24-.718,4.878,4.878,0,0,0,.41-2.251Z" transform="translate(155 2912)" fill="#12263f"/>
        <path id="Trazado_148641" data-name="Trazado 148641" d="M1.172-5.781a14.924,14.924,0,0,1,.635-4.434A10.7,10.7,0,0,1,3.56-13.691a6.225,6.225,0,0,1,2.485-1.992l.625,1.621a6.367,6.367,0,0,0-2.114,3.14,15.313,15.313,0,0,0-.757,5v.43a15.612,15.612,0,0,0,.747,5.1A6.34,6.34,0,0,0,6.67,2.773L6.045,4.395a6.163,6.163,0,0,1-2.485-2A10.538,10.538,0,0,1,1.807-1.064a15,15,0,0,1-.635-4.277ZM14.482-3.77A1.788,1.788,0,0,0,14.1-4.98a3.557,3.557,0,0,0-1.338-.83Q11.807-6.2,11-6.6a6.131,6.131,0,0,1-1.4-.928A3.644,3.644,0,0,1,8.7-8.75a4.072,4.072,0,0,1-.312-1.68A3.608,3.608,0,0,1,9.5-13.149a4.791,4.791,0,0,1,2.969-1.245v-2.061h1.553v2.1a4.361,4.361,0,0,1,2.808,1.47,4.575,4.575,0,0,1,1.021,3.062h-3.3a2.663,2.663,0,0,0-.391-1.562,1.286,1.286,0,0,0-1.113-.547,1.263,1.263,0,0,0-1,.405,1.635,1.635,0,0,0-.356,1.118,1.582,1.582,0,0,0,.41,1.147,4.04,4.04,0,0,0,1.318.811q.908.386,1.714.8a6.552,6.552,0,0,1,1.392.942,3.857,3.857,0,0,1,.918,1.23,3.929,3.929,0,0,1,.332,1.689,3.678,3.678,0,0,1-1.06,2.725A4.561,4.561,0,0,1,13.828.166V2.129H12.275V.156A4.967,4.967,0,0,1,9.009-1.3,4.618,4.618,0,0,1,7.871-4.561h3.291a2.554,2.554,0,0,0,.493,1.694,1.737,1.737,0,0,0,1.4.581,1.383,1.383,0,0,0,1.045-.4A1.5,1.5,0,0,0,14.482-3.77ZM28.2-5.557h1.445v2.539H28.2V0H24.912V-3.018h-5.5l-.2-2.012,5.693-9.16v-.029H28.2Zm-5.85,0h2.559V-9.932l-.205.332Zm18.613-.254a6.789,6.789,0,0,1-1.294,4.443A4.471,4.471,0,0,1,36.025.2a4.5,4.5,0,0,1-3.672-1.572,6.779,6.779,0,0,1-1.3-4.434v-2.6a6.789,6.789,0,0,1,1.294-4.443,4.483,4.483,0,0,1,3.657-1.562,4.484,4.484,0,0,1,3.662,1.572,6.8,6.8,0,0,1,1.3,4.443ZM37.676-8.828a5.071,5.071,0,0,0-.4-2.29,1.338,1.338,0,0,0-1.27-.757,1.307,1.307,0,0,0-1.235.7,4.777,4.777,0,0,0-.415,2.129V-5.41a5.109,5.109,0,0,0,.4,2.329,1.343,1.343,0,0,0,1.27.737,1.325,1.325,0,0,0,1.24-.718,4.878,4.878,0,0,0,.41-2.251Zm7.09,5.635a1.874,1.874,0,0,1,1.3.464,1.522,1.522,0,0,1,.518,1.187,1.522,1.522,0,0,1-.518,1.187,1.874,1.874,0,0,1-1.3.464,1.858,1.858,0,0,1-1.3-.469,1.533,1.533,0,0,1-.513-1.182,1.533,1.533,0,0,1,.513-1.182A1.858,1.858,0,0,1,44.766-3.193ZM58.594-5.811A6.789,6.789,0,0,1,57.3-1.367,4.471,4.471,0,0,1,53.652.2,4.5,4.5,0,0,1,49.98-1.377a6.779,6.779,0,0,1-1.3-4.434v-2.6a6.789,6.789,0,0,1,1.294-4.443,4.483,4.483,0,0,1,3.657-1.562,4.484,4.484,0,0,1,3.662,1.572,6.8,6.8,0,0,1,1.3,4.443ZM55.3-8.828a5.071,5.071,0,0,0-.4-2.29,1.338,1.338,0,0,0-1.27-.757,1.307,1.307,0,0,0-1.235.7,4.777,4.777,0,0,0-.415,2.129V-5.41a5.109,5.109,0,0,0,.4,2.329,1.343,1.343,0,0,0,1.27.737,1.325,1.325,0,0,0,1.24-.718,4.878,4.878,0,0,0,.41-2.251ZM70.176-5.811a6.789,6.789,0,0,1-1.294,4.443A4.471,4.471,0,0,1,65.234.2a4.5,4.5,0,0,1-3.672-1.572,6.779,6.779,0,0,1-1.3-4.434v-2.6a6.789,6.789,0,0,1,1.294-4.443,4.483,4.483,0,0,1,3.657-1.562,4.484,4.484,0,0,1,3.662,1.572,6.8,6.8,0,0,1,1.3,4.443ZM66.885-8.828a5.071,5.071,0,0,0-.4-2.29,1.338,1.338,0,0,0-1.27-.757,1.307,1.307,0,0,0-1.235.7,4.777,4.777,0,0,0-.415,2.129V-5.41a5.109,5.109,0,0,0,.4,2.329,1.343,1.343,0,0,0,1.27.737,1.325,1.325,0,0,0,1.24-.718,4.878,4.878,0,0,0,.41-2.251ZM81.758-5.811a6.789,6.789,0,0,1-1.294,4.443A4.471,4.471,0,0,1,76.816.2a4.5,4.5,0,0,1-3.672-1.572,6.779,6.779,0,0,1-1.3-4.434v-2.6a6.789,6.789,0,0,1,1.294-4.443A4.483,4.483,0,0,1,76.8-14.414a4.484,4.484,0,0,1,3.662,1.572,6.8,6.8,0,0,1,1.3,4.443ZM78.467-8.828a5.071,5.071,0,0,0-.4-2.29,1.338,1.338,0,0,0-1.27-.757,1.307,1.307,0,0,0-1.235.7,4.777,4.777,0,0,0-.415,2.129V-5.41a5.109,5.109,0,0,0,.4,2.329,1.343,1.343,0,0,0,1.27.737,1.325,1.325,0,0,0,1.24-.718,4.878,4.878,0,0,0,.41-2.251ZM94.932-4.863H89.063V-7.4h5.869ZM108.975-3.77a1.788,1.788,0,0,0-.381-1.211,3.557,3.557,0,0,0-1.338-.83Q106.3-6.2,105.488-6.6a6.131,6.131,0,0,1-1.4-.928,3.645,3.645,0,0,1-.9-1.221,4.072,4.072,0,0,1-.312-1.68,3.608,3.608,0,0,1,1.113-2.72,4.791,4.791,0,0,1,2.969-1.245v-2.061h1.553v2.1a4.361,4.361,0,0,1,2.808,1.47,4.575,4.575,0,0,1,1.021,3.062h-3.3a2.663,2.663,0,0,0-.391-1.562,1.286,1.286,0,0,0-1.113-.547,1.263,1.263,0,0,0-1,.405,1.635,1.635,0,0,0-.356,1.118,1.582,1.582,0,0,0,.41,1.147,4.04,4.04,0,0,0,1.318.811q.908.386,1.714.8a6.552,6.552,0,0,1,1.392.942,3.857,3.857,0,0,1,.918,1.23,3.929,3.929,0,0,1,.332,1.689,3.678,3.678,0,0,1-1.06,2.725A4.561,4.561,0,0,1,108.32.166V2.129h-1.553V.156A4.967,4.967,0,0,1,103.5-1.3a4.618,4.618,0,0,1-1.138-3.257h3.291a2.554,2.554,0,0,0,.493,1.694,1.737,1.737,0,0,0,1.4.581,1.383,1.383,0,0,0,1.045-.4A1.5,1.5,0,0,0,108.975-3.77Zm8.037-4.717h1.553a1.614,1.614,0,0,0,1.846-1.807,1.562,1.562,0,0,0-.439-1.147,1.666,1.666,0,0,0-1.24-.444,1.784,1.784,0,0,0-1.138.381,1.162,1.162,0,0,0-.483.947h-3.291a3.369,3.369,0,0,1,.625-2,4.127,4.127,0,0,1,1.733-1.372,5.926,5.926,0,0,1,2.437-.493,5.823,5.823,0,0,1,3.73,1.084,3.6,3.6,0,0,1,1.357,2.979,3,3,0,0,1-.562,1.733A4,4,0,0,1,121.5-7.3a3.823,3.823,0,0,1,1.777,1.245,3.279,3.279,0,0,1,.645,2.065,3.669,3.669,0,0,1-1.465,3.047A6.08,6.08,0,0,1,118.613.2a6.306,6.306,0,0,1-2.593-.532,4.062,4.062,0,0,1-1.812-1.475,3.834,3.834,0,0,1-.615-2.144H116.9a1.482,1.482,0,0,0,.527,1.133,1.862,1.862,0,0,0,1.3.479,1.95,1.95,0,0,0,1.387-.483,1.616,1.616,0,0,0,.518-1.235,1.889,1.889,0,0,0-.537-1.523,2.245,2.245,0,0,0-1.484-.449h-1.6Zm8.77,1.541.869-7.273h8.311v2.559h-5.635L129-8.836a3.882,3.882,0,0,1,.923-.363,4.211,4.211,0,0,1,1.118-.157A4.171,4.171,0,0,1,134.3-8.1a5.055,5.055,0,0,1,1.138,3.521,5.046,5.046,0,0,1-.61,2.476,4.2,4.2,0,0,1-1.714,1.7,5.411,5.411,0,0,1-2.607.6A5.822,5.822,0,0,1,128-.356a4.5,4.5,0,0,1-1.836-1.512,3.675,3.675,0,0,1-.654-2.171h3.3a1.867,1.867,0,0,0,.5,1.238,1.581,1.581,0,0,0,1.182.458q1.66,0,1.66-2.456,0-2.271-2.031-2.271a2.027,2.027,0,0,0-1.719.741Zm13.477,3.752a1.874,1.874,0,0,1,1.3.464,1.522,1.522,0,0,1,.518,1.187,1.522,1.522,0,0,1-.518,1.187,1.874,1.874,0,0,1-1.3.464,1.858,1.858,0,0,1-1.3-.469,1.533,1.533,0,0,1-.513-1.182,1.533,1.533,0,0,1,.513-1.182A1.858,1.858,0,0,1,139.258-3.193Zm13.828-2.617a6.789,6.789,0,0,1-1.294,4.443A4.471,4.471,0,0,1,148.145.2a4.5,4.5,0,0,1-3.672-1.572,6.779,6.779,0,0,1-1.3-4.434v-2.6a6.789,6.789,0,0,1,1.294-4.443,4.483,4.483,0,0,1,3.657-1.562,4.484,4.484,0,0,1,3.662,1.572,6.8,6.8,0,0,1,1.3,4.443Zm-3.291-3.018a5.071,5.071,0,0,0-.4-2.29,1.338,1.338,0,0,0-1.27-.757,1.307,1.307,0,0,0-1.235.7,4.777,4.777,0,0,0-.415,2.129V-5.41a5.11,5.11,0,0,0,.4,2.329,1.343,1.343,0,0,0,1.27.737,1.325,1.325,0,0,0,1.24-.718,4.878,4.878,0,0,0,.41-2.251Zm14.873,3.018a6.789,6.789,0,0,1-1.294,4.443A4.471,4.471,0,0,1,159.727.2a4.5,4.5,0,0,1-3.672-1.572,6.779,6.779,0,0,1-1.3-4.434v-2.6a6.789,6.789,0,0,1,1.294-4.443,4.483,4.483,0,0,1,3.657-1.562,4.484,4.484,0,0,1,3.662,1.572,6.8,6.8,0,0,1,1.3,4.443Zm-3.291-3.018a5.071,5.071,0,0,0-.4-2.29,1.338,1.338,0,0,0-1.27-.757,1.307,1.307,0,0,0-1.235.7,4.777,4.777,0,0,0-.415,2.129V-5.41a5.11,5.11,0,0,0,.4,2.329,1.343,1.343,0,0,0,1.27.737,1.325,1.325,0,0,0,1.24-.718,4.878,4.878,0,0,0,.41-2.251ZM176.25-5.811a6.789,6.789,0,0,1-1.294,4.443A4.471,4.471,0,0,1,171.309.2a4.5,4.5,0,0,1-3.672-1.572,6.779,6.779,0,0,1-1.3-4.434v-2.6a6.789,6.789,0,0,1,1.294-4.443,4.483,4.483,0,0,1,3.657-1.562,4.484,4.484,0,0,1,3.662,1.572,6.8,6.8,0,0,1,1.3,4.443Zm-3.291-3.018a5.071,5.071,0,0,0-.4-2.29,1.338,1.338,0,0,0-1.27-.757,1.307,1.307,0,0,0-1.235.7,4.777,4.777,0,0,0-.415,2.129V-5.41a5.11,5.11,0,0,0,.4,2.329,1.343,1.343,0,0,0,1.27.737,1.325,1.325,0,0,0,1.24-.718,4.878,4.878,0,0,0,.41-2.251ZM183.2-5.508a13.925,13.925,0,0,1-.674,4.355,11.12,11.12,0,0,1-1.86,3.54,6.193,6.193,0,0,1-2.563,2.007l-.625-1.621a6.43,6.43,0,0,0,2.1-3.125,15.085,15.085,0,0,0,.771-4.854v-.6a15.612,15.612,0,0,0-.747-5.1,6.34,6.34,0,0,0-2.124-3.164l.625-1.621a6.307,6.307,0,0,1,2.544,1.987A10.984,10.984,0,0,1,182.5-10.21a13.807,13.807,0,0,1,.7,4.272Zm7.959,6.729h-2.334l4.854-15.439h2.344Zm17.373-4.99a1.788,1.788,0,0,0-.381-1.211,3.557,3.557,0,0,0-1.338-.83q-.957-.391-1.768-.791a6.131,6.131,0,0,1-1.4-.928,3.644,3.644,0,0,1-.9-1.221,4.072,4.072,0,0,1-.312-1.68,3.608,3.608,0,0,1,1.113-2.72,4.791,4.791,0,0,1,2.969-1.245v-2.061h1.553v2.1a4.361,4.361,0,0,1,2.808,1.47A4.575,4.575,0,0,1,211.9-9.824h-3.3a2.663,2.663,0,0,0-.391-1.562,1.286,1.286,0,0,0-1.113-.547,1.263,1.263,0,0,0-1,.405,1.635,1.635,0,0,0-.356,1.118,1.582,1.582,0,0,0,.41,1.147,4.04,4.04,0,0,0,1.318.811q.908.386,1.714.8a6.552,6.552,0,0,1,1.392.942,3.857,3.857,0,0,1,.918,1.23,3.929,3.929,0,0,1,.332,1.689,3.678,3.678,0,0,1-1.06,2.725,4.561,4.561,0,0,1-2.886,1.23V2.129h-1.553V.156a4.968,4.968,0,0,1-3.267-1.46,4.618,4.618,0,0,1-1.138-3.257h3.291a2.554,2.554,0,0,0,.493,1.694,1.737,1.737,0,0,0,1.4.581,1.383,1.383,0,0,0,1.045-.4A1.5,1.5,0,0,0,208.535-3.77Zm13.721-1.787H223.7v2.539h-1.445V0h-3.291V-3.018h-5.5l-.2-2.012,5.693-9.16v-.029h3.291Zm-5.85,0h2.559V-9.932l-.205.332Zm18.613-.254a6.789,6.789,0,0,1-1.294,4.443A4.471,4.471,0,0,1,230.078.2a4.5,4.5,0,0,1-3.672-1.572,6.779,6.779,0,0,1-1.3-4.434v-2.6a6.789,6.789,0,0,1,1.294-4.443,4.483,4.483,0,0,1,3.657-1.562,4.484,4.484,0,0,1,3.662,1.572,6.8,6.8,0,0,1,1.3,4.443Zm-3.291-3.018a5.071,5.071,0,0,0-.4-2.29,1.338,1.338,0,0,0-1.27-.757,1.307,1.307,0,0,0-1.235.7,4.777,4.777,0,0,0-.415,2.129V-5.41a5.11,5.11,0,0,0,.4,2.329,1.343,1.343,0,0,0,1.27.737,1.325,1.325,0,0,0,1.24-.718,4.878,4.878,0,0,0,.41-2.251Zm7.09,5.635a1.874,1.874,0,0,1,1.3.464,1.522,1.522,0,0,1,.518,1.187,1.522,1.522,0,0,1-.518,1.187,1.874,1.874,0,0,1-1.3.464,1.858,1.858,0,0,1-1.3-.469A1.533,1.533,0,0,1,237-1.543a1.533,1.533,0,0,1,.513-1.182A1.858,1.858,0,0,1,238.818-3.193Zm13.828-2.617a6.789,6.789,0,0,1-1.294,4.443A4.471,4.471,0,0,1,247.705.2a4.5,4.5,0,0,1-3.672-1.572,6.779,6.779,0,0,1-1.3-4.434v-2.6a6.789,6.789,0,0,1,1.294-4.443,4.483,4.483,0,0,1,3.657-1.562,4.484,4.484,0,0,1,3.662,1.572,6.8,6.8,0,0,1,1.3,4.443Zm-3.291-3.018a5.071,5.071,0,0,0-.4-2.29,1.338,1.338,0,0,0-1.27-.757,1.307,1.307,0,0,0-1.235.7,4.777,4.777,0,0,0-.415,2.129V-5.41a5.11,5.11,0,0,0,.4,2.329,1.343,1.343,0,0,0,1.27.737,1.325,1.325,0,0,0,1.24-.718,4.878,4.878,0,0,0,.41-2.251Zm14.873,3.018a6.789,6.789,0,0,1-1.294,4.443A4.471,4.471,0,0,1,259.287.2a4.5,4.5,0,0,1-3.672-1.572,6.779,6.779,0,0,1-1.3-4.434v-2.6a6.789,6.789,0,0,1,1.294-4.443,4.483,4.483,0,0,1,3.657-1.562,4.484,4.484,0,0,1,3.662,1.572,6.8,6.8,0,0,1,1.3,4.443Zm-3.291-3.018a5.071,5.071,0,0,0-.4-2.29,1.338,1.338,0,0,0-1.27-.757,1.307,1.307,0,0,0-1.235.7,4.777,4.777,0,0,0-.415,2.129V-5.41a5.109,5.109,0,0,0,.4,2.329,1.343,1.343,0,0,0,1.27.737,1.325,1.325,0,0,0,1.24-.718,4.878,4.878,0,0,0,.41-2.251Zm14.873,3.018a6.789,6.789,0,0,1-1.294,4.443A4.471,4.471,0,0,1,270.869.2,4.5,4.5,0,0,1,267.2-1.377a6.779,6.779,0,0,1-1.3-4.434v-2.6a6.789,6.789,0,0,1,1.294-4.443,4.483,4.483,0,0,1,3.657-1.562,4.484,4.484,0,0,1,3.662,1.572,6.8,6.8,0,0,1,1.3,4.443ZM272.52-8.828a5.071,5.071,0,0,0-.4-2.29,1.338,1.338,0,0,0-1.27-.757,1.307,1.307,0,0,0-1.235.7,4.777,4.777,0,0,0-.415,2.129V-5.41a5.109,5.109,0,0,0,.4,2.329,1.343,1.343,0,0,0,1.27.737,1.325,1.325,0,0,0,1.24-.718,4.878,4.878,0,0,0,.41-2.251Z" transform="translate(81 2956)" fill="#12263f"/>
      </g>
    </g>
  </g>
</svg>
