<svg xmlns="http://www.w3.org/2000/svg" width="526.031" height="209.567" viewBox="0 0 526.031 209.567">
  <g id="Grupo_93178" data-name="Grupo 93178" transform="translate(-125.711 -2943.594)">
    <rect id="Rect치ngulo_31816" data-name="Rect치ngulo 31816" width="512.484" height="202.067" transform="translate(139.258 2951.094)" fill="#6595bf"/>
    <g id="Grupo_89142" data-name="Grupo 89142" transform="translate(126.211 2944.094)">
      <rect id="Rect치ngulo_31778" data-name="Rect치ngulo 31778" width="519.845" height="203.842" transform="translate(0)" fill="#fff" stroke="#12263f" stroke-miterlimit="10" stroke-width="1"/>
    </g>
    <path id="Trazado_148623" data-name="Trazado 148623" d="M7.914,12.172H3.6v2.719H8.7V17H.859V5.625H8.711V7.742H3.6v2.4H7.914Zm6.313,1.734,2.266-8.281h3.063L15.727,17h-3L8.93,5.625h3.039Zm12.031.969H22.5L21.844,17h-2.93L23.086,5.625h2.578L29.867,17H26.922Zm-3.1-2.117H25.6L24.375,8.813Zm18.9-1.4H34.82V9.328h7.234Zm0,3.43H34.82V12.758h7.234Zm14.9-9.164V13.07a4.279,4.279,0,0,1-.539,2.191,3.492,3.492,0,0,1-1.547,1.41,5.449,5.449,0,0,1-2.383.484,4.708,4.708,0,0,1-3.273-1.078,3.845,3.845,0,0,1-1.219-2.953v-7.5H50.75V13.18q.047,1.867,1.734,1.867a1.679,1.679,0,0,0,1.289-.469,2.191,2.191,0,0,0,.438-1.523V5.625ZM68.3,11.547a6.708,6.708,0,0,1-.617,2.945,4.561,4.561,0,0,1-1.754,1.973,4.884,4.884,0,0,1-2.59.691,4.953,4.953,0,0,1-2.578-.668A4.554,4.554,0,0,1,59,14.578a6.515,6.515,0,0,1-.66-2.852v-.641a6.737,6.737,0,0,1,.613-2.949,4.55,4.55,0,0,1,1.758-1.973A5.2,5.2,0,0,1,65.9,6.156,4.632,4.632,0,0,1,67.66,8.113a6.544,6.544,0,0,1,.637,2.91Zm-2.789-.477A4.783,4.783,0,0,0,64.941,8.5a1.817,1.817,0,0,0-1.621-.879q-2.062,0-2.18,3.094l-.008.836a4.92,4.92,0,0,0,.555,2.57,1.814,1.814,0,0,0,1.648.9,1.792,1.792,0,0,0,1.6-.883,4.785,4.785,0,0,0,.57-2.539ZM72.633,17H69.9V5.625h2.734Zm1.906,0V5.625H78.2a5.39,5.39,0,0,1,2.711.684,4.805,4.805,0,0,1,1.879,1.93,5.826,5.826,0,0,1,.684,2.793v.523a5.86,5.86,0,0,1-.66,2.8,4.826,4.826,0,0,1-1.859,1.938A5.271,5.271,0,0,1,78.281,17Zm2.742-9.258v7.148h.953a2.133,2.133,0,0,0,1.813-.84,4.116,4.116,0,0,0,.633-2.5v-.492a4.082,4.082,0,0,0-.633-2.484A2.17,2.17,0,0,0,78.2,7.742ZM87.8,17H85.07V5.625H87.8Zm14.42-4.516H93.984V10.422h8.241Zm5.423-.109a11.939,11.939,0,0,1,.508-3.547,8.56,8.56,0,0,1,1.4-2.781,4.98,4.98,0,0,1,1.988-1.594l.5,1.3a5.093,5.093,0,0,0-1.691,2.512,12.251,12.251,0,0,0-.605,4v.344a12.49,12.49,0,0,0,.6,4.078,5.072,5.072,0,0,0,1.7,2.531l-.5,1.3a4.931,4.931,0,0,1-1.988-1.6,8.43,8.43,0,0,1-1.4-2.77,12,12,0,0,1-.508-3.422Zm14.773.773a4.154,4.154,0,0,1-.641,2.1,3.866,3.866,0,0,1-1.645,1.41,5.6,5.6,0,0,1-2.418.5,4.467,4.467,0,0,1-3.531-1.461A6.032,6.032,0,0,1,112.9,11.57v-.562a6.885,6.885,0,0,1,.582-2.926,4.41,4.41,0,0,1,1.676-1.937,4.676,4.676,0,0,1,2.531-.684,4.9,4.9,0,0,1,3.328,1.09,4.306,4.306,0,0,1,1.43,3h-2.734a2.037,2.037,0,0,0-.523-1.492,2.153,2.153,0,0,0-1.5-.453,1.638,1.638,0,0,0-1.5.766,4.921,4.921,0,0,0-.5,2.445v.8a5.445,5.445,0,0,0,.457,2.6,1.672,1.672,0,0,0,1.574.781,2.106,2.106,0,0,0,1.445-.445,1.89,1.89,0,0,0,.531-1.414Zm4.039-.008V17h-2.742V5.625h4.539a5.287,5.287,0,0,1,2.309.48,3.621,3.621,0,0,1,1.555,1.367,3.734,3.734,0,0,1,.551,2.012,3.291,3.291,0,0,1-1.191,2.66,4.943,4.943,0,0,1-3.27,1Zm0-2.117h1.8a1.7,1.7,0,0,0,1.215-.4,1.48,1.48,0,0,0,.418-1.125,1.83,1.83,0,0,0-.43-1.273,1.522,1.522,0,0,0-1.172-.484h-1.828Zm10.414,2.117V17h-2.742V5.625h4.539a5.287,5.287,0,0,1,2.309.48,3.621,3.621,0,0,1,1.555,1.367,3.734,3.734,0,0,1,.551,2.012,3.291,3.291,0,0,1-1.191,2.66,4.943,4.943,0,0,1-3.27,1Zm0-2.117h1.8a1.7,1.7,0,0,0,1.215-.4A1.48,1.48,0,0,0,140.3,9.5a1.83,1.83,0,0,0-.43-1.273,1.522,1.522,0,0,0-1.172-.484h-1.828Zm16.875,2.125a4.154,4.154,0,0,1-.641,2.1,3.866,3.866,0,0,1-1.645,1.41,5.6,5.6,0,0,1-2.418.5,4.467,4.467,0,0,1-3.531-1.461,6.032,6.032,0,0,1-1.289-4.125v-.562a6.885,6.885,0,0,1,.582-2.926,4.41,4.41,0,0,1,1.676-1.937,4.676,4.676,0,0,1,2.531-.684,4.9,4.9,0,0,1,3.328,1.09,4.306,4.306,0,0,1,1.43,3h-2.734a2.037,2.037,0,0,0-.523-1.492,2.153,2.153,0,0,0-1.5-.453,1.638,1.638,0,0,0-1.5.766,4.921,4.921,0,0,0-.5,2.445v.8a5.445,5.445,0,0,0,.457,2.6,1.672,1.672,0,0,0,1.574.781,2.106,2.106,0,0,0,1.445-.445,1.89,1.89,0,0,0,.531-1.414Zm7.172-3.621-2.547-.7.508-1.475,2.492,1.022-.2-2.747h1.672l-.2,2.8,2.422-1,.508,1.491-2.578.7,1.711,2.07-1.352.922-1.43-2.3-1.437,2.219-1.352-.883Zm18.734,3.621a4.154,4.154,0,0,1-.641,2.1,3.866,3.866,0,0,1-1.645,1.41,5.6,5.6,0,0,1-2.418.5,4.467,4.467,0,0,1-3.531-1.461,6.032,6.032,0,0,1-1.289-4.125v-.562a6.885,6.885,0,0,1,.582-2.926,4.41,4.41,0,0,1,1.676-1.937,4.676,4.676,0,0,1,2.531-.684,4.9,4.9,0,0,1,3.328,1.09,4.306,4.306,0,0,1,1.43,3h-2.734a2.037,2.037,0,0,0-.523-1.492,2.153,2.153,0,0,0-1.5-.453,1.638,1.638,0,0,0-1.5.766,4.921,4.921,0,0,0-.5,2.445v.8a5.445,5.445,0,0,0,.457,2.6,1.672,1.672,0,0,0,1.574.781,2.106,2.106,0,0,0,1.445-.445,1.89,1.89,0,0,0,.531-1.414ZM183.875,17h-2.734V5.625h2.734Zm11.406,0h-2.727l-4.031-7.078V17h-2.742V5.625h2.742l4.023,7.078V5.625h2.734Zm5.766-4.406a11.14,11.14,0,0,1-.539,3.484,8.9,8.9,0,0,1-1.488,2.832,4.955,4.955,0,0,1-2.051,1.605l-.5-1.3a5.144,5.144,0,0,0,1.68-2.5,12.068,12.068,0,0,0,.617-3.883v-.477a12.49,12.49,0,0,0-.6-4.078,5.072,5.072,0,0,0-1.7-2.531l.5-1.3A5.046,5.046,0,0,1,199,6.043a8.787,8.787,0,0,1,1.484,2.789,11.046,11.046,0,0,1,.559,3.418ZM7.914,52.172H3.6v2.719H8.7V57H.859V45.625H8.711v2.117H3.6v2.4H7.914Zm6.313,1.734,2.266-8.281h3.063L15.727,57h-3L8.93,45.625h3.039Zm12.031.969H22.5L21.844,57h-2.93l4.172-11.375h2.578L29.867,57H26.922Zm-3.1-2.117H25.6l-1.227-3.945Zm18.9-1.4H34.82V49.328h7.234Zm0,3.43H34.82V52.758h7.234Zm11.055-.8a1.43,1.43,0,0,0-.3-.969,2.846,2.846,0,0,0-1.07-.664q-.766-.312-1.414-.633a4.9,4.9,0,0,1-1.117-.742A2.916,2.916,0,0,1,48.484,50a3.258,3.258,0,0,1-.25-1.344,2.887,2.887,0,0,1,.891-2.176,3.832,3.832,0,0,1,2.375-1V43.836h1.242v1.68a3.489,3.489,0,0,1,2.246,1.176,3.66,3.66,0,0,1,.816,2.449H53.164a2.13,2.13,0,0,0-.312-1.25,1.029,1.029,0,0,0-.891-.437,1.01,1.01,0,0,0-.8.324,1.308,1.308,0,0,0-.285.895,1.266,1.266,0,0,0,.328.918,3.232,3.232,0,0,0,1.055.648q.727.309,1.371.641a5.241,5.241,0,0,1,1.113.754,3.085,3.085,0,0,1,.734.984,3.143,3.143,0,0,1,.266,1.352,2.942,2.942,0,0,1-.848,2.18,3.649,3.649,0,0,1-2.309.984V58.7H51.344V57.125a3.974,3.974,0,0,1-2.613-1.168,3.694,3.694,0,0,1-.91-2.605h2.633a2.043,2.043,0,0,0,.395,1.355,1.389,1.389,0,0,0,1.121.465,1.106,1.106,0,0,0,.836-.316A1.2,1.2,0,0,0,53.109,53.984Zm14.961-1.43h1.156v2.031H68.07V57H65.438V54.586h-4.4l-.156-1.609,4.555-7.328v-.023H68.07Zm-4.68,0h2.047v-3.5l-.164.266Zm9.4-2.344h1.242a1.291,1.291,0,0,0,1.477-1.445,1.25,1.25,0,0,0-.352-.918,1.333,1.333,0,0,0-.992-.355,1.427,1.427,0,0,0-.91.3.93.93,0,0,0-.387.758H70.234a2.7,2.7,0,0,1,.5-1.6,3.3,3.3,0,0,1,1.387-1.1,4.741,4.741,0,0,1,1.949-.395,4.658,4.658,0,0,1,2.984.867,2.883,2.883,0,0,1,1.086,2.383,2.4,2.4,0,0,1-.449,1.387,3.2,3.2,0,0,1-1.309,1.059,3.058,3.058,0,0,1,1.422,1A2.623,2.623,0,0,1,78.32,53.8a2.935,2.935,0,0,1-1.172,2.438,4.864,4.864,0,0,1-3.078.914A5.045,5.045,0,0,1,72,56.73a3.25,3.25,0,0,1-1.449-1.18,3.067,3.067,0,0,1-.492-1.715H72.7a1.185,1.185,0,0,0,.422.906,1.489,1.489,0,0,0,1.039.383,1.56,1.56,0,0,0,1.109-.387,1.293,1.293,0,0,0,.414-.988,1.511,1.511,0,0,0-.43-1.219,1.8,1.8,0,0,0-1.187-.359H72.789Zm8.531,4.234a1.5,1.5,0,0,1,1.039.371,1.3,1.3,0,0,1,0,1.9,1.639,1.639,0,0,1-2.082,0,1.294,1.294,0,0,1,0-1.891A1.486,1.486,0,0,1,81.32,54.445ZM92.422,57H84.484V55.281l3.656-3.844a4.364,4.364,0,0,0,1.352-2.445,1.7,1.7,0,0,0-.32-1.117,1.144,1.144,0,0,0-.93-.383,1.158,1.158,0,0,0-.977.512,2.1,2.1,0,0,0-.375,1.277H84.25a3.736,3.736,0,0,1,.523-1.934,3.671,3.671,0,0,1,1.453-1.387,4.317,4.317,0,0,1,2.078-.5,4.246,4.246,0,0,1,2.84.852,3.04,3.04,0,0,1,1,2.445,3.551,3.551,0,0,1-.25,1.309,5.739,5.739,0,0,1-.777,1.336,19.581,19.581,0,0,1-1.7,1.871l-1.469,1.7h4.477Zm1.484-5.556.7-5.819h6.648v2.047H96.742l-.258,2.26a3.105,3.105,0,0,1,.738-.29,3.714,3.714,0,0,1,3.5.878,4.574,4.574,0,0,1,.422,4.8,3.356,3.356,0,0,1-1.371,1.363,4.329,4.329,0,0,1-2.086.477,4.658,4.658,0,0,1-2.008-.441,3.6,3.6,0,0,1-1.469-1.21,2.94,2.94,0,0,1-.523-1.737h2.641a1.493,1.493,0,0,0,.4.99,1.265,1.265,0,0,0,.945.366Q99,55.125,99,53.16q0-1.817-1.625-1.817A1.622,1.622,0,0,0,96,51.936Zm9.266,0,.7-5.819h6.648v2.047h-4.508l-.258,2.26a3.105,3.105,0,0,1,.738-.29,3.714,3.714,0,0,1,3.5.878,4.574,4.574,0,0,1,.422,4.8,3.356,3.356,0,0,1-1.371,1.363,4.329,4.329,0,0,1-2.086.477,4.658,4.658,0,0,1-2.008-.441,3.6,3.6,0,0,1-1.469-1.21,2.94,2.94,0,0,1-.523-1.737h2.641a1.493,1.493,0,0,0,.4.99,1.265,1.265,0,0,0,.945.366q1.328,0,1.328-1.965,0-1.817-1.625-1.817a1.622,1.622,0,0,0-1.375.593Zm10.781,3a1.5,1.5,0,0,1,1.039.371,1.3,1.3,0,0,1,0,1.9,1.639,1.639,0,0,1-2.082,0,1.294,1.294,0,0,1,0-1.891A1.486,1.486,0,0,1,113.953,54.445ZM125.055,57h-7.937V55.281l3.656-3.844a4.364,4.364,0,0,0,1.352-2.445,1.7,1.7,0,0,0-.32-1.117,1.144,1.144,0,0,0-.93-.383A1.158,1.158,0,0,0,119.9,48a2.1,2.1,0,0,0-.375,1.277h-2.641a3.736,3.736,0,0,1,.523-1.934,3.671,3.671,0,0,1,1.453-1.387,4.317,4.317,0,0,1,2.078-.5,4.246,4.246,0,0,1,2.84.852,3.04,3.04,0,0,1,1,2.445,3.551,3.551,0,0,1-.25,1.309,5.739,5.739,0,0,1-.777,1.336,19.581,19.581,0,0,1-1.7,1.871l-1.469,1.7h4.477Zm9.227-4.648a5.431,5.431,0,0,1-1.035,3.555,4.045,4.045,0,0,1-5.855-.008,5.423,5.423,0,0,1-1.039-3.547V50.273a5.431,5.431,0,0,1,1.035-3.555,4.045,4.045,0,0,1,5.855.008,5.436,5.436,0,0,1,1.039,3.555Zm-2.633-2.414a4.057,4.057,0,0,0-.32-1.832,1.071,1.071,0,0,0-1.016-.605,1.045,1.045,0,0,0-.988.563,3.822,3.822,0,0,0-.332,1.7v2.906a4.088,4.088,0,0,0,.32,1.863,1.075,1.075,0,0,0,1.016.59,1.06,1.06,0,0,0,.992-.574,3.9,3.9,0,0,0,.328-1.8Zm11.9,2.414a5.431,5.431,0,0,1-1.035,3.555,4.045,4.045,0,0,1-5.855-.008,5.423,5.423,0,0,1-1.039-3.547V50.273a5.431,5.431,0,0,1,1.035-3.555,4.045,4.045,0,0,1,5.855.008,5.436,5.436,0,0,1,1.039,3.555Zm-2.633-2.414a4.057,4.057,0,0,0-.32-1.832,1.071,1.071,0,0,0-1.016-.605,1.045,1.045,0,0,0-.988.563,3.822,3.822,0,0,0-.332,1.7v2.906a4.088,4.088,0,0,0,.32,1.863,1.075,1.075,0,0,0,1.016.59,1.06,1.06,0,0,0,.992-.574,3.9,3.9,0,0,0,.328-1.8Zm16.678,2.547h-8.241V50.422h8.241Zm5.423-.109a11.939,11.939,0,0,1,.508-3.547,8.56,8.56,0,0,1,1.4-2.781,4.98,4.98,0,0,1,1.988-1.594l.5,1.3a5.093,5.093,0,0,0-1.691,2.512,12.25,12.25,0,0,0-.605,4v.344a12.49,12.49,0,0,0,.6,4.078,5.072,5.072,0,0,0,1.7,2.531l-.5,1.3a4.931,4.931,0,0,1-1.988-1.6,8.43,8.43,0,0,1-1.4-2.77,12,12,0,0,1-.508-3.422ZM176.359,57h-7.937V55.281l3.656-3.844a4.364,4.364,0,0,0,1.352-2.445,1.7,1.7,0,0,0-.32-1.117,1.144,1.144,0,0,0-.93-.383A1.158,1.158,0,0,0,171.2,48a2.1,2.1,0,0,0-.375,1.277h-2.641a3.736,3.736,0,0,1,.523-1.934,3.671,3.671,0,0,1,1.453-1.387,4.317,4.317,0,0,1,2.078-.5,4.246,4.246,0,0,1,2.84.852,3.04,3.04,0,0,1,1,2.445,3.551,3.551,0,0,1-.25,1.309,5.739,5.739,0,0,1-.777,1.336,19.581,19.581,0,0,1-1.7,1.871l-1.469,1.7h4.477Zm9.234-9.969L181.344,57h-2.781l4.258-9.344H177.4V45.625h8.2Zm2.328,13.031-1.328-.625.266-.531a4.333,4.333,0,0,0,.57-1.937V55.016h2.109l-.008,1.7a4.238,4.238,0,0,1-.461,1.828A4.645,4.645,0,0,1,187.922,60.063Zm11.25-13.031L194.922,57h-2.781l4.258-9.344h-5.422V45.625h8.2Zm7.719-1.57v2.07h-.117a3.953,3.953,0,0,0-2.426.707A2.985,2.985,0,0,0,203.18,50.2a3.079,3.079,0,0,1,2.25-.875,2.872,2.872,0,0,1,2.352,1.078,4.349,4.349,0,0,1,.875,2.828,3.982,3.982,0,0,1-.512,1.992,3.651,3.651,0,0,1-1.43,1.418,4.108,4.108,0,0,1-2.035.512,4.246,4.246,0,0,1-2.164-.551,3.787,3.787,0,0,1-1.484-1.574,5.184,5.184,0,0,1-.547-2.359V51.617a6.567,6.567,0,0,1,.754-3.16,5.466,5.466,0,0,1,2.152-2.2,6.154,6.154,0,0,1,3.1-.8Zm-2.375,5.883a1.506,1.506,0,0,0-.875.242,1.538,1.538,0,0,0-.523.594v.789q0,2.156,1.492,2.156a1.211,1.211,0,0,0,1-.539,2.2,2.2,0,0,0,.4-1.352,2.156,2.156,0,0,0-.41-1.363A1.312,1.312,0,0,0,204.516,51.344Zm5.289-3.531a2.233,2.233,0,0,1,.688-1.7,2.964,2.964,0,0,1,3.7,0,2.292,2.292,0,0,1,.68,1.746v.563a2.221,2.221,0,0,1-.68,1.7,2.568,2.568,0,0,1-1.836.641,2.638,2.638,0,0,1-1.848-.637,2.243,2.243,0,0,1-.7-1.746Zm1.7.6a.944.944,0,0,0,.227.656.8.8,0,0,0,.625.252q.82,0,.82-1.04v-.466a1,1,0,0,0-.219-.664.762.762,0,0,0-.617-.26.778.778,0,0,0-.609.252.99.99,0,0,0-.227.687Zm3.711,5.8a2.211,2.211,0,0,1,.691-1.7,2.6,2.6,0,0,1,1.84-.641,2.627,2.627,0,0,1,1.852.633,2.28,2.28,0,0,1,.688,1.766v.547a2.23,2.23,0,0,1-.68,1.7,2.579,2.579,0,0,1-1.844.641,2.638,2.638,0,0,1-1.848-.637,2.243,2.243,0,0,1-.7-1.746Zm1.688.6a.924.924,0,0,0,.25.64.792.792,0,0,0,.609.276.718.718,0,0,0,.82-.714l.008-.8a.956.956,0,0,0-.227-.664.882.882,0,0,0-1.219-.016.943.943,0,0,0-.242.64Zm-4.047,1.338-1.227-.617,5.555-8.891,1.227.617Zm14.859-6.621-2.547-.7.508-1.475,2.492,1.022-.2-2.747h1.672l-.2,2.8,2.422-1,.508,1.491-2.578.7,1.711,2.07-1.352.922-1.43-2.3-1.437,2.219-1.352-.883Zm14.609,4.457a1.43,1.43,0,0,0-.3-.969,2.846,2.846,0,0,0-1.07-.664q-.766-.312-1.414-.633a4.9,4.9,0,0,1-1.117-.742A2.916,2.916,0,0,1,237.7,50a3.258,3.258,0,0,1-.25-1.344,2.887,2.887,0,0,1,.891-2.176,3.832,3.832,0,0,1,2.375-1V43.836h1.242v1.68a3.489,3.489,0,0,1,2.246,1.176,3.66,3.66,0,0,1,.816,2.449h-2.641a2.13,2.13,0,0,0-.312-1.25,1.029,1.029,0,0,0-.891-.437,1.01,1.01,0,0,0-.8.324,1.308,1.308,0,0,0-.285.895,1.266,1.266,0,0,0,.328.918,3.232,3.232,0,0,0,1.055.648q.727.309,1.371.641a5.241,5.241,0,0,1,1.113.754,3.085,3.085,0,0,1,.734.984,3.144,3.144,0,0,1,.266,1.352,2.942,2.942,0,0,1-.848,2.18,3.649,3.649,0,0,1-2.309.984V58.7h-1.242V57.125a3.974,3.974,0,0,1-2.613-1.168,3.694,3.694,0,0,1-.91-2.605h2.633a2.043,2.043,0,0,0,.395,1.355,1.389,1.389,0,0,0,1.121.465,1.106,1.106,0,0,0,.836-.316A1.2,1.2,0,0,0,242.32,53.984ZM256.164,57h-2.641V48.594l-2.594.758v-2l4.992-1.727h.242Zm9.266,0h-2.641V48.594l-2.594.758v-2l4.992-1.727h.242Zm3.586-5.556.7-5.819h6.648v2.047h-4.508l-.258,2.26a3.105,3.105,0,0,1,.738-.29,3.714,3.714,0,0,1,3.5.878,4.574,4.574,0,0,1,.422,4.8,3.356,3.356,0,0,1-1.371,1.363,4.329,4.329,0,0,1-2.086.477,4.658,4.658,0,0,1-2.008-.441,3.6,3.6,0,0,1-1.469-1.21,2.94,2.94,0,0,1-.523-1.737h2.641a1.493,1.493,0,0,0,.4.99,1.265,1.265,0,0,0,.945.366q1.328,0,1.328-1.965,0-1.817-1.625-1.817a1.622,1.622,0,0,0-1.375.593Zm10.781,3a1.5,1.5,0,0,1,1.039.371,1.3,1.3,0,0,1,0,1.9,1.639,1.639,0,0,1-2.082,0,1.294,1.294,0,0,1,0-1.891A1.486,1.486,0,0,1,279.8,54.445Zm10.836-5.781a2.626,2.626,0,0,1-.41,1.461,2.987,2.987,0,0,1-1.129,1.016,3.287,3.287,0,0,1,1.289,1.09,2.812,2.812,0,0,1,.477,1.637,2.977,2.977,0,0,1-1.051,2.406,4.364,4.364,0,0,1-2.895.883,4.443,4.443,0,0,1-2.922-.887,2.956,2.956,0,0,1-1.07-2.4,2.848,2.848,0,0,1,.469-1.617,3.188,3.188,0,0,1,1.328-1.109,3,3,0,0,1-1.141-1.016,2.608,2.608,0,0,1-.414-1.461,2.919,2.919,0,0,1,1.008-2.344,4.755,4.755,0,0,1,5.453,0A2.919,2.919,0,0,1,290.633,48.664Zm-2.414,4.992a1.5,1.5,0,0,0-.363-1.082,1.265,1.265,0,0,0-.957-.379,1.278,1.278,0,0,0-.961.379,1.759,1.759,0,0,0,0,2.156,1.274,1.274,0,0,0,.973.395,1.224,1.224,0,0,0,.945-.391A1.532,1.532,0,0,0,288.219,53.656Zm-1.328-6.164a.973.973,0,0,0-.809.348,1.509,1.509,0,0,0-.277.965,1.6,1.6,0,0,0,.281.984.97.97,0,0,0,.828.375.931.931,0,0,0,.809-.375,1.65,1.65,0,0,0,.27-.984,1.512,1.512,0,0,0-.277-.961A.986.986,0,0,0,286.891,47.492Zm13.234,4.859a5.431,5.431,0,0,1-1.035,3.555,4.045,4.045,0,0,1-5.855-.008,5.423,5.423,0,0,1-1.039-3.547V50.273a5.431,5.431,0,0,1,1.035-3.555,4.045,4.045,0,0,1,5.855.008,5.436,5.436,0,0,1,1.039,3.555Zm-2.633-2.414a4.057,4.057,0,0,0-.32-1.832,1.071,1.071,0,0,0-1.016-.605,1.045,1.045,0,0,0-.988.563,3.822,3.822,0,0,0-.332,1.7v2.906a4.088,4.088,0,0,0,.32,1.863,1.075,1.075,0,0,0,1.016.59,1.06,1.06,0,0,0,.992-.574,3.9,3.9,0,0,0,.328-1.8Zm6.406.273h1.242a1.291,1.291,0,0,0,1.477-1.445,1.25,1.25,0,0,0-.352-.918,1.333,1.333,0,0,0-.992-.355,1.427,1.427,0,0,0-.91.3.93.93,0,0,0-.387.758h-2.633a2.7,2.7,0,0,1,.5-1.6,3.3,3.3,0,0,1,1.387-1.1,4.741,4.741,0,0,1,1.949-.395,4.658,4.658,0,0,1,2.984.867,2.883,2.883,0,0,1,1.086,2.383A2.4,2.4,0,0,1,308.8,50.1a3.2,3.2,0,0,1-1.309,1.059,3.058,3.058,0,0,1,1.422,1,2.623,2.623,0,0,1,.516,1.652,2.935,2.935,0,0,1-1.172,2.438,4.864,4.864,0,0,1-3.078.914,5.045,5.045,0,0,1-2.074-.426,3.25,3.25,0,0,1-1.449-1.18,3.067,3.067,0,0,1-.492-1.715h2.648a1.185,1.185,0,0,0,.422.906,1.489,1.489,0,0,0,1.039.383,1.56,1.56,0,0,0,1.109-.387,1.293,1.293,0,0,0,.414-.988,1.511,1.511,0,0,0-.43-1.219,1.8,1.8,0,0,0-1.187-.359H303.9Zm8.531,4.234a1.5,1.5,0,0,1,1.039.371,1.3,1.3,0,0,1,0,1.9,1.639,1.639,0,0,1-2.082,0,1.294,1.294,0,0,1,0-1.891A1.486,1.486,0,0,1,312.43,54.445ZM323.531,57h-7.937V55.281l3.656-3.844a4.364,4.364,0,0,0,1.352-2.445,1.7,1.7,0,0,0-.32-1.117,1.144,1.144,0,0,0-.93-.383,1.158,1.158,0,0,0-.977.512A2.1,2.1,0,0,0,318,49.281h-2.641a3.736,3.736,0,0,1,.523-1.934,3.671,3.671,0,0,1,1.453-1.387,4.317,4.317,0,0,1,2.078-.5,4.246,4.246,0,0,1,2.84.852,3.04,3.04,0,0,1,1,2.445,3.551,3.551,0,0,1-.25,1.309,5.738,5.738,0,0,1-.777,1.336,19.581,19.581,0,0,1-1.7,1.871l-1.469,1.7h4.477Zm9.227-4.648a5.431,5.431,0,0,1-1.035,3.555,4.045,4.045,0,0,1-5.855-.008,5.423,5.423,0,0,1-1.039-3.547V50.273a5.431,5.431,0,0,1,1.035-3.555,4.045,4.045,0,0,1,5.855.008,5.436,5.436,0,0,1,1.039,3.555Zm-2.633-2.414a4.057,4.057,0,0,0-.32-1.832,1.071,1.071,0,0,0-1.016-.605,1.045,1.045,0,0,0-.988.563,3.822,3.822,0,0,0-.332,1.7v2.906a4.088,4.088,0,0,0,.32,1.863,1.075,1.075,0,0,0,1.016.59,1.06,1.06,0,0,0,.992-.574,3.9,3.9,0,0,0,.328-1.8Zm11.9,2.414a5.431,5.431,0,0,1-1.035,3.555,4.045,4.045,0,0,1-5.855-.008,5.423,5.423,0,0,1-1.039-3.547V50.273a5.431,5.431,0,0,1,1.035-3.555,4.045,4.045,0,0,1,5.855.008,5.436,5.436,0,0,1,1.039,3.555Zm-2.633-2.414a4.057,4.057,0,0,0-.32-1.832,1.071,1.071,0,0,0-1.016-.605,1.045,1.045,0,0,0-.988.563,3.822,3.822,0,0,0-.332,1.7v2.906a4.088,4.088,0,0,0,.32,1.863,1.075,1.075,0,0,0,1.016.59,1.06,1.06,0,0,0,.992-.574,3.9,3.9,0,0,0,.328-1.8Zm8.2,2.656a11.14,11.14,0,0,1-.539,3.484,8.9,8.9,0,0,1-1.488,2.832,4.955,4.955,0,0,1-2.051,1.605l-.5-1.3a5.144,5.144,0,0,0,1.68-2.5,12.068,12.068,0,0,0,.617-3.883v-.477a12.49,12.49,0,0,0-.6-4.078,5.072,5.072,0,0,0-1.7-2.531l.5-1.3a5.046,5.046,0,0,1,2.035,1.59,8.787,8.787,0,0,1,1.484,2.789,11.046,11.046,0,0,1,.559,3.418ZM7.914,92.172H3.6v2.719H8.7V97H.859V85.625H8.711v2.117H3.6v2.4H7.914Zm6.313,1.734,2.266-8.281h3.063L15.727,97h-3L8.93,85.625h3.039Zm12.031.969H22.5L21.844,97h-2.93l4.172-11.375h2.578L29.867,97H26.922Zm-3.1-2.117H25.6l-1.227-3.945Zm18.9-1.4H34.82V89.328h7.234Zm0,3.43H34.82V92.758h7.234Zm11.055-.8a1.43,1.43,0,0,0-.3-.969,2.846,2.846,0,0,0-1.07-.664q-.766-.313-1.414-.633a4.9,4.9,0,0,1-1.117-.742A2.916,2.916,0,0,1,48.484,90a3.258,3.258,0,0,1-.25-1.344,2.887,2.887,0,0,1,.891-2.176,3.832,3.832,0,0,1,2.375-1V83.836h1.242v1.68a3.489,3.489,0,0,1,2.246,1.176,3.66,3.66,0,0,1,.816,2.449H53.164a2.13,2.13,0,0,0-.312-1.25,1.029,1.029,0,0,0-.891-.437,1.01,1.01,0,0,0-.8.324,1.308,1.308,0,0,0-.285.895,1.266,1.266,0,0,0,.328.918,3.232,3.232,0,0,0,1.055.648q.727.309,1.371.641a5.241,5.241,0,0,1,1.113.754,3.085,3.085,0,0,1,.734.984,3.143,3.143,0,0,1,.266,1.352,2.942,2.942,0,0,1-.848,2.18,3.649,3.649,0,0,1-2.309.984V98.7H51.344V97.125a3.974,3.974,0,0,1-2.613-1.168,3.694,3.694,0,0,1-.91-2.605h2.633a2.043,2.043,0,0,0,.395,1.355,1.389,1.389,0,0,0,1.121.465,1.106,1.106,0,0,0,.836-.316A1.2,1.2,0,0,0,53.109,93.984ZM66.953,97H64.313V88.594l-2.594.758v-2l4.992-1.727h.242Zm9.266,0H73.578V88.594l-2.594.758v-2l4.992-1.727h.242Zm5.1-2.555a1.5,1.5,0,0,1,1.039.371,1.3,1.3,0,0,1,0,1.9,1.639,1.639,0,0,1-2.082,0,1.294,1.294,0,0,1,0-1.891A1.486,1.486,0,0,1,81.32,94.445Zm9,2.555H87.68V88.594l-2.594.758v-2l4.992-1.727h.242Zm11.328-4.648a5.431,5.431,0,0,1-1.035,3.555,4.045,4.045,0,0,1-5.855-.008,5.423,5.423,0,0,1-1.039-3.547V90.273a5.431,5.431,0,0,1,1.035-3.555,4.045,4.045,0,0,1,5.855.008,5.436,5.436,0,0,1,1.039,3.555Zm-2.633-2.414a4.057,4.057,0,0,0-.32-1.832A1.071,1.071,0,0,0,97.68,87.5a1.045,1.045,0,0,0-.988.563,3.822,3.822,0,0,0-.332,1.7v2.906a4.088,4.088,0,0,0,.32,1.863,1.075,1.075,0,0,0,1.016.59,1.06,1.06,0,0,0,.992-.574,3.9,3.9,0,0,0,.328-1.8Zm11.672-1.273a2.626,2.626,0,0,1-.41,1.461,2.987,2.987,0,0,1-1.129,1.016,3.287,3.287,0,0,1,1.289,1.09,2.812,2.812,0,0,1,.477,1.637,2.977,2.977,0,0,1-1.051,2.406,4.364,4.364,0,0,1-2.895.883,4.443,4.443,0,0,1-2.922-.887,2.956,2.956,0,0,1-1.07-2.4,2.848,2.848,0,0,1,.469-1.617,3.188,3.188,0,0,1,1.328-1.109,3,3,0,0,1-1.141-1.016,2.608,2.608,0,0,1-.414-1.461,2.919,2.919,0,0,1,1.008-2.344,4.755,4.755,0,0,1,5.453,0A2.919,2.919,0,0,1,110.688,88.664Zm-2.414,4.992a1.5,1.5,0,0,0-.363-1.082,1.265,1.265,0,0,0-.957-.379,1.278,1.278,0,0,0-.961.379,1.759,1.759,0,0,0,0,2.156,1.274,1.274,0,0,0,.973.395,1.224,1.224,0,0,0,.945-.391A1.532,1.532,0,0,0,108.273,93.656Zm-1.328-6.164a.973.973,0,0,0-.809.348,1.509,1.509,0,0,0-.277.965,1.6,1.6,0,0,0,.281.984.97.97,0,0,0,.828.375.931.931,0,0,0,.809-.375,1.65,1.65,0,0,0,.27-.984,1.512,1.512,0,0,0-.277-.961A.986.986,0,0,0,106.945,87.492Zm7.008,6.953a1.5,1.5,0,0,1,1.039.371,1.3,1.3,0,0,1,0,1.9,1.639,1.639,0,0,1-2.082,0,1.294,1.294,0,0,1,0-1.891A1.486,1.486,0,0,1,113.953,94.445ZM125.055,97h-7.937V95.281l3.656-3.844a4.364,4.364,0,0,0,1.352-2.445,1.7,1.7,0,0,0-.32-1.117,1.144,1.144,0,0,0-.93-.383A1.158,1.158,0,0,0,119.9,88a2.1,2.1,0,0,0-.375,1.277h-2.641a3.736,3.736,0,0,1,.523-1.934,3.671,3.671,0,0,1,1.453-1.387,4.317,4.317,0,0,1,2.078-.5,4.246,4.246,0,0,1,2.84.852,3.04,3.04,0,0,1,1,2.445,3.551,3.551,0,0,1-.25,1.309,5.739,5.739,0,0,1-.777,1.336,19.581,19.581,0,0,1-1.7,1.871l-1.469,1.7h4.477Zm3.734-6.789h1.242a1.291,1.291,0,0,0,1.477-1.445,1.25,1.25,0,0,0-.352-.918,1.333,1.333,0,0,0-.992-.355,1.427,1.427,0,0,0-.91.3.93.93,0,0,0-.387.758h-2.633a2.7,2.7,0,0,1,.5-1.6,3.3,3.3,0,0,1,1.387-1.1,4.741,4.741,0,0,1,1.949-.395,4.658,4.658,0,0,1,2.984.867,2.883,2.883,0,0,1,1.086,2.383,2.4,2.4,0,0,1-.449,1.387,3.2,3.2,0,0,1-1.309,1.059,3.058,3.058,0,0,1,1.422,1,2.623,2.623,0,0,1,.516,1.652,2.935,2.935,0,0,1-1.172,2.438,4.864,4.864,0,0,1-3.078.914A5.045,5.045,0,0,1,128,96.73a3.25,3.25,0,0,1-1.449-1.18,3.067,3.067,0,0,1-.492-1.715H128.7a1.185,1.185,0,0,0,.422.906,1.489,1.489,0,0,0,1.039.383,1.56,1.56,0,0,0,1.109-.387,1.293,1.293,0,0,0,.414-.988,1.511,1.511,0,0,0-.43-1.219,1.8,1.8,0,0,0-1.187-.359h-1.281ZM141.484,97h-2.641V88.594l-2.594.758v-2l4.992-1.727h.242Zm4.4,3.063-1.328-.625.266-.531a4.333,4.333,0,0,0,.57-1.937V95.016H147.5l-.008,1.7a4.238,4.238,0,0,1-.461,1.828A4.645,4.645,0,0,1,145.883,100.063Zm9.7-14.6v2.07h-.117a3.953,3.953,0,0,0-2.426.707,2.985,2.985,0,0,0-1.168,1.965,3.079,3.079,0,0,1,2.25-.875,2.872,2.872,0,0,1,2.352,1.078,4.349,4.349,0,0,1,.875,2.828,3.982,3.982,0,0,1-.512,1.992,3.651,3.651,0,0,1-1.43,1.418,4.108,4.108,0,0,1-2.035.512,4.246,4.246,0,0,1-2.164-.551,3.787,3.787,0,0,1-1.484-1.574,5.184,5.184,0,0,1-.547-2.359V91.617a6.567,6.567,0,0,1,.754-3.16,5.466,5.466,0,0,1,2.152-2.2,6.154,6.154,0,0,1,3.1-.8Zm-2.375,5.883a1.506,1.506,0,0,0-.875.242,1.538,1.538,0,0,0-.523.594v.789q0,2.156,1.492,2.156a1.211,1.211,0,0,0,1-.539,2.2,2.2,0,0,0,.4-1.352,2.156,2.156,0,0,0-.41-1.363A1.312,1.312,0,0,0,153.211,91.344Zm12.953-2.68a2.626,2.626,0,0,1-.41,1.461,2.987,2.987,0,0,1-1.129,1.016,3.287,3.287,0,0,1,1.289,1.09,2.812,2.812,0,0,1,.477,1.637,2.977,2.977,0,0,1-1.051,2.406,4.364,4.364,0,0,1-2.895.883,4.443,4.443,0,0,1-2.922-.887,2.956,2.956,0,0,1-1.07-2.4,2.848,2.848,0,0,1,.469-1.617,3.187,3.187,0,0,1,1.328-1.109,3,3,0,0,1-1.141-1.016,2.608,2.608,0,0,1-.414-1.461A2.919,2.919,0,0,1,159.7,86.32a4.755,4.755,0,0,1,5.453,0A2.919,2.919,0,0,1,166.164,88.664Zm-2.414,4.992a1.5,1.5,0,0,0-.363-1.082,1.265,1.265,0,0,0-.957-.379,1.278,1.278,0,0,0-.961.379,1.759,1.759,0,0,0,0,2.156,1.274,1.274,0,0,0,.973.395,1.224,1.224,0,0,0,.945-.391A1.532,1.532,0,0,0,163.75,93.656Zm-1.328-6.164a.973.973,0,0,0-.809.348,1.509,1.509,0,0,0-.277.965,1.6,1.6,0,0,0,.281.984.97.97,0,0,0,.828.375.931.931,0,0,0,.809-.375,1.65,1.65,0,0,0,.27-.984,1.512,1.512,0,0,0-.277-.961A.986.986,0,0,0,162.422,87.492Z" transform="translate(193.031 2996)" fill="#12263f"/>
  </g>
</svg>
