<svg xmlns="http://www.w3.org/2000/svg" width="570.5" height="296.5" viewBox="0 0 570.5 296.5">
  <g id="Grupo_93155" data-name="Grupo 93155" transform="translate(1267.682 4957.5)">
    <g id="Grupo_93153" data-name="Grupo 93153" transform="translate(-1491.182 -7809)">
      <rect id="Rectángulo_31816" data-name="Rectángulo 31816" width="557" height="131" transform="translate(237 2859)" fill="#6595bf"/>
      <g id="Grupo_89142" data-name="Grupo 89142" transform="translate(224 2852)">
        <rect id="Rectángulo_31778" data-name="Rectángulo 31778" width="565.199" height="132.775" transform="translate(0 0)" fill="#fff" stroke="#12263f" stroke-miterlimit="10" stroke-width="1"/>
      </g>
      <g id="Grupo_89143" data-name="Grupo 89143" transform="translate(8 -5)">
        <path id="Trazado_148586" data-name="Trazado 148586" d="M12.578-4.814a5.193,5.193,0,0,1-.8,2.622A4.833,4.833,0,0,1,9.722-.43,7,7,0,0,1,6.7.2,5.584,5.584,0,0,1,2.285-1.631,7.54,7.54,0,0,1,.674-6.787v-.7A8.607,8.607,0,0,1,1.4-11.147,5.513,5.513,0,0,1,3.5-13.569a5.844,5.844,0,0,1,3.164-.854,6.129,6.129,0,0,1,4.16,1.362,5.383,5.383,0,0,1,1.787,3.755H9.189a2.547,2.547,0,0,0-.654-1.865,2.691,2.691,0,0,0-1.875-.566,2.048,2.048,0,0,0-1.875.957A6.151,6.151,0,0,0,4.16-7.725v1.006a6.806,6.806,0,0,0,.571,3.252A2.091,2.091,0,0,0,6.7-2.49a2.632,2.632,0,0,0,1.807-.557A2.363,2.363,0,0,0,9.17-4.814ZM17.852,0H14.434V-14.219h3.418ZM32.109,0H28.7L23.662-8.848V0H20.234V-14.219h3.428l5.029,8.848v-8.848h3.418Zm6.582-5.381A6.236,6.236,0,0,1,39.307-8.2a4.4,4.4,0,0,1,1.768-1.9,5.323,5.323,0,0,1,2.705-.664,4.858,4.858,0,0,1,3.74,1.47,5.64,5.64,0,0,1,1.367,4v.117a5.472,5.472,0,0,1-1.372,3.921A4.871,4.871,0,0,1,43.8.2a4.927,4.927,0,0,1-3.623-1.353A5.29,5.29,0,0,1,38.7-4.824Zm3.291.205a3.932,3.932,0,0,0,.459,2.148,1.529,1.529,0,0,0,1.357.684q1.758,0,1.8-2.705v-.332q0-2.842-1.816-2.842-1.65,0-1.787,2.451Zm21.563,2.52h-4.7L58.027,0H54.365L59.58-14.219H62.8L68.057,0H64.375ZM59.668-5.3h3.057l-1.533-4.932ZM80.967,0H77.559L72.52-8.848V0H69.092V-14.219H72.52l5.029,8.848v-8.848h3.418ZM92.09-5.664H86.563V0H83.135V-14.219h9.512v2.646H86.563V-8.3H92.09Zm16.182-1.387H99.229V-9.59h9.043Zm0,4.287H99.229V-5.3h9.043ZM122.09-3.77a1.788,1.788,0,0,0-.381-1.211,3.557,3.557,0,0,0-1.338-.83Q119.414-6.2,118.6-6.6a6.131,6.131,0,0,1-1.4-.928,3.645,3.645,0,0,1-.9-1.221A4.072,4.072,0,0,1,116-10.43a3.608,3.608,0,0,1,1.113-2.72,4.791,4.791,0,0,1,2.969-1.245v-2.061h1.553v2.1a4.361,4.361,0,0,1,2.808,1.47,4.575,4.575,0,0,1,1.021,3.062h-3.3a2.663,2.663,0,0,0-.391-1.562,1.286,1.286,0,0,0-1.113-.547,1.263,1.263,0,0,0-1,.405,1.635,1.635,0,0,0-.356,1.118,1.582,1.582,0,0,0,.41,1.147,4.04,4.04,0,0,0,1.318.811q.908.386,1.714.8a6.552,6.552,0,0,1,1.392.942,3.857,3.857,0,0,1,.918,1.23,3.929,3.929,0,0,1,.332,1.689,3.678,3.678,0,0,1-1.06,2.725,4.561,4.561,0,0,1-2.886,1.23V2.129h-1.553V.156a4.967,4.967,0,0,1-3.267-1.46,4.618,4.618,0,0,1-1.138-3.257h3.291a2.554,2.554,0,0,0,.493,1.694,1.737,1.737,0,0,0,1.4.581,1.383,1.383,0,0,0,1.045-.4A1.5,1.5,0,0,0,122.09-3.77ZM142.021,0H132.1V-2.148l4.57-4.8q1.689-1.924,1.689-3.057a2.126,2.126,0,0,0-.4-1.4,1.43,1.43,0,0,0-1.162-.479,1.447,1.447,0,0,0-1.221.64,2.629,2.629,0,0,0-.469,1.6h-3.3a4.669,4.669,0,0,1,.654-2.417,4.588,4.588,0,0,1,1.816-1.733,5.4,5.4,0,0,1,2.6-.625,5.308,5.308,0,0,1,3.55,1.064A3.8,3.8,0,0,1,141.67-10.3a4.439,4.439,0,0,1-.312,1.636A7.173,7.173,0,0,1,140.386-7a24.476,24.476,0,0,1-2.124,2.339l-1.836,2.119h5.6Zm11.533-5.811a6.789,6.789,0,0,1-1.294,4.443A4.471,4.471,0,0,1,148.613.2a4.5,4.5,0,0,1-3.672-1.572,6.779,6.779,0,0,1-1.3-4.434v-2.6a6.789,6.789,0,0,1,1.294-4.443,4.483,4.483,0,0,1,3.657-1.562,4.484,4.484,0,0,1,3.662,1.572,6.8,6.8,0,0,1,1.3,4.443Zm-3.291-3.018a5.071,5.071,0,0,0-.4-2.29,1.338,1.338,0,0,0-1.27-.757,1.307,1.307,0,0,0-1.235.7,4.777,4.777,0,0,0-.415,2.129V-5.41a5.11,5.11,0,0,0,.4,2.329,1.343,1.343,0,0,0,1.27.737,1.325,1.325,0,0,0,1.24-.718,4.878,4.878,0,0,0,.41-2.251ZM165.186,0h-9.922V-2.148l4.57-4.8q1.689-1.924,1.689-3.057a2.126,2.126,0,0,0-.4-1.4,1.43,1.43,0,0,0-1.162-.479,1.447,1.447,0,0,0-1.221.64,2.629,2.629,0,0,0-.469,1.6h-3.3a4.669,4.669,0,0,1,.654-2.417,4.588,4.588,0,0,1,1.816-1.733,5.4,5.4,0,0,1,2.6-.625,5.308,5.308,0,0,1,3.55,1.064,3.8,3.8,0,0,1,1.245,3.057,4.439,4.439,0,0,1-.312,1.636A7.173,7.173,0,0,1,163.55-7a24.476,24.476,0,0,1-2.124,2.339L159.59-2.539h5.6Zm3.75-3.193a1.874,1.874,0,0,1,1.3.464,1.522,1.522,0,0,1,.518,1.187,1.522,1.522,0,0,1-.518,1.187,1.874,1.874,0,0,1-1.3.464,1.858,1.858,0,0,1-1.3-.469,1.533,1.533,0,0,1-.513-1.182,1.533,1.533,0,0,1,.513-1.182A1.858,1.858,0,0,1,168.936-3.193ZM182.48-10.42a3.283,3.283,0,0,1-.513,1.826,3.734,3.734,0,0,1-1.411,1.27,4.109,4.109,0,0,1,1.611,1.362,3.515,3.515,0,0,1,.6,2.046A3.721,3.721,0,0,1,181.45-.908,5.454,5.454,0,0,1,177.832.2,5.554,5.554,0,0,1,174.18-.913a3.7,3.7,0,0,1-1.338-3,3.56,3.56,0,0,1,.586-2.021,3.984,3.984,0,0,1,1.66-1.387,3.755,3.755,0,0,1-1.426-1.27,3.26,3.26,0,0,1-.518-1.826,3.648,3.648,0,0,1,1.26-2.93,5.064,5.064,0,0,1,3.4-1.074,5.1,5.1,0,0,1,3.418,1.074A3.648,3.648,0,0,1,182.48-10.42Zm-3.018,6.24a1.877,1.877,0,0,0-.454-1.353,1.581,1.581,0,0,0-1.2-.474,1.6,1.6,0,0,0-1.2.474,1.865,1.865,0,0,0-.459,1.353,1.881,1.881,0,0,0,.464,1.343,1.592,1.592,0,0,0,1.216.493,1.53,1.53,0,0,0,1.182-.488A1.915,1.915,0,0,0,179.463-4.18Zm-1.66-7.705a1.216,1.216,0,0,0-1.011.435,1.886,1.886,0,0,0-.347,1.206,2,2,0,0,0,.352,1.23,1.213,1.213,0,0,0,1.035.469,1.163,1.163,0,0,0,1.011-.469,2.062,2.062,0,0,0,.337-1.23,1.89,1.89,0,0,0-.347-1.2A1.233,1.233,0,0,0,177.8-11.885Zm16.543,6.074a6.789,6.789,0,0,1-1.294,4.443A4.471,4.471,0,0,1,189.4.2a4.5,4.5,0,0,1-3.672-1.572,6.779,6.779,0,0,1-1.3-4.434v-2.6a6.789,6.789,0,0,1,1.294-4.443,4.483,4.483,0,0,1,3.657-1.562,4.484,4.484,0,0,1,3.662,1.572,6.8,6.8,0,0,1,1.3,4.443Zm-3.291-3.018a5.071,5.071,0,0,0-.4-2.29,1.338,1.338,0,0,0-1.27-.757,1.307,1.307,0,0,0-1.235.7,4.777,4.777,0,0,0-.415,2.129V-5.41a5.11,5.11,0,0,0,.4,2.329,1.343,1.343,0,0,0,1.27.737,1.325,1.325,0,0,0,1.24-.718,4.878,4.878,0,0,0,.41-2.251Zm14.873,3.018a6.789,6.789,0,0,1-1.294,4.443A4.471,4.471,0,0,1,200.986.2a4.5,4.5,0,0,1-3.672-1.572,6.779,6.779,0,0,1-1.3-4.434v-2.6a6.789,6.789,0,0,1,1.294-4.443,4.483,4.483,0,0,1,3.657-1.562,4.484,4.484,0,0,1,3.662,1.572,6.8,6.8,0,0,1,1.3,4.443Zm-3.291-3.018a5.071,5.071,0,0,0-.4-2.29,1.338,1.338,0,0,0-1.27-.757,1.307,1.307,0,0,0-1.235.7,4.777,4.777,0,0,0-.415,2.129V-5.41a5.11,5.11,0,0,0,.4,2.329,1.343,1.343,0,0,0,1.27.737,1.325,1.325,0,0,0,1.24-.718,4.878,4.878,0,0,0,.41-2.251Zm7.09,5.635a1.874,1.874,0,0,1,1.3.464,1.522,1.522,0,0,1,.518,1.187,1.522,1.522,0,0,1-.518,1.187,1.874,1.874,0,0,1-1.3.464,1.858,1.858,0,0,1-1.3-.469,1.533,1.533,0,0,1-.513-1.182,1.533,1.533,0,0,1,.513-1.182A1.858,1.858,0,0,1,209.727-3.193Zm13.828-2.617a6.789,6.789,0,0,1-1.294,4.443A4.471,4.471,0,0,1,218.613.2a4.5,4.5,0,0,1-3.672-1.572,6.779,6.779,0,0,1-1.3-4.434v-2.6a6.789,6.789,0,0,1,1.294-4.443,4.483,4.483,0,0,1,3.657-1.562,4.484,4.484,0,0,1,3.662,1.572,6.8,6.8,0,0,1,1.3,4.443Zm-3.291-3.018a5.071,5.071,0,0,0-.4-2.29,1.338,1.338,0,0,0-1.27-.757,1.307,1.307,0,0,0-1.235.7,4.777,4.777,0,0,0-.415,2.129V-5.41a5.11,5.11,0,0,0,.4,2.329,1.343,1.343,0,0,0,1.27.737,1.325,1.325,0,0,0,1.24-.718,4.878,4.878,0,0,0,.41-2.251Zm14.873,3.018a6.789,6.789,0,0,1-1.294,4.443A4.471,4.471,0,0,1,230.2.2a4.5,4.5,0,0,1-3.672-1.572,6.779,6.779,0,0,1-1.3-4.434v-2.6a6.789,6.789,0,0,1,1.294-4.443,4.483,4.483,0,0,1,3.657-1.562,4.484,4.484,0,0,1,3.662,1.572,6.8,6.8,0,0,1,1.3,4.443Zm-3.291-3.018a5.071,5.071,0,0,0-.4-2.29,1.338,1.338,0,0,0-1.27-.757,1.307,1.307,0,0,0-1.235.7,4.777,4.777,0,0,0-.415,2.129V-5.41a5.11,5.11,0,0,0,.4,2.329,1.343,1.343,0,0,0,1.27.737,1.325,1.325,0,0,0,1.24-.718,4.878,4.878,0,0,0,.41-2.251Zm14.873,3.018a6.789,6.789,0,0,1-1.294,4.443A4.471,4.471,0,0,1,241.777.2a4.5,4.5,0,0,1-3.672-1.572,6.779,6.779,0,0,1-1.3-4.434v-2.6a6.789,6.789,0,0,1,1.294-4.443,4.483,4.483,0,0,1,3.657-1.562,4.484,4.484,0,0,1,3.662,1.572,6.8,6.8,0,0,1,1.3,4.443Zm-3.291-3.018a5.071,5.071,0,0,0-.4-2.29,1.338,1.338,0,0,0-1.27-.757,1.307,1.307,0,0,0-1.235.7,4.777,4.777,0,0,0-.415,2.129V-5.41a5.11,5.11,0,0,0,.4,2.329,1.343,1.343,0,0,0,1.27.737,1.325,1.325,0,0,0,1.24-.718,4.878,4.878,0,0,0,.41-2.251Zm16.465,3.965h-5.869V-7.4h5.869ZM273.936-3.77a1.788,1.788,0,0,0-.381-1.211,3.557,3.557,0,0,0-1.338-.83q-.957-.391-1.768-.791a6.131,6.131,0,0,1-1.4-.928,3.645,3.645,0,0,1-.9-1.221,4.072,4.072,0,0,1-.312-1.68,3.608,3.608,0,0,1,1.113-2.72,4.791,4.791,0,0,1,2.969-1.245v-2.061h1.553v2.1a4.361,4.361,0,0,1,2.808,1.47A4.575,4.575,0,0,1,277.3-9.824H274a2.663,2.663,0,0,0-.391-1.562,1.286,1.286,0,0,0-1.113-.547,1.263,1.263,0,0,0-1,.405,1.635,1.635,0,0,0-.356,1.118,1.582,1.582,0,0,0,.41,1.147,4.04,4.04,0,0,0,1.318.811q.908.386,1.714.8a6.552,6.552,0,0,1,1.392.942,3.857,3.857,0,0,1,.918,1.23,3.929,3.929,0,0,1,.332,1.689,3.678,3.678,0,0,1-1.06,2.725,4.561,4.561,0,0,1-2.886,1.23V2.129h-1.553V.156a4.967,4.967,0,0,1-3.267-1.46,4.618,4.618,0,0,1-1.138-3.257h3.291a2.554,2.554,0,0,0,.493,1.694,1.737,1.737,0,0,0,1.4.581,1.383,1.383,0,0,0,1.045-.4A1.5,1.5,0,0,0,273.936-3.77Zm19.6-6.65a3.283,3.283,0,0,1-.513,1.826,3.734,3.734,0,0,1-1.411,1.27,4.109,4.109,0,0,1,1.611,1.362,3.516,3.516,0,0,1,.6,2.046A3.721,3.721,0,0,1,292.5-.908,5.454,5.454,0,0,1,288.887.2a5.554,5.554,0,0,1-3.652-1.108,3.7,3.7,0,0,1-1.338-3,3.56,3.56,0,0,1,.586-2.021,3.984,3.984,0,0,1,1.66-1.387,3.755,3.755,0,0,1-1.426-1.27,3.26,3.26,0,0,1-.518-1.826,3.648,3.648,0,0,1,1.26-2.93,5.064,5.064,0,0,1,3.4-1.074,5.1,5.1,0,0,1,3.418,1.074A3.648,3.648,0,0,1,293.535-10.42Zm-3.018,6.24a1.877,1.877,0,0,0-.454-1.353,1.581,1.581,0,0,0-1.2-.474,1.6,1.6,0,0,0-1.2.474,1.865,1.865,0,0,0-.459,1.353,1.881,1.881,0,0,0,.464,1.343,1.592,1.592,0,0,0,1.216.493,1.53,1.53,0,0,0,1.182-.488A1.915,1.915,0,0,0,290.518-4.18Zm-1.66-7.705a1.216,1.216,0,0,0-1.011.435,1.886,1.886,0,0,0-.347,1.206,2,2,0,0,0,.352,1.23,1.213,1.213,0,0,0,1.035.469,1.163,1.163,0,0,0,1.011-.469,2.062,2.062,0,0,0,.337-1.23,1.89,1.89,0,0,0-.347-1.2A1.233,1.233,0,0,0,288.857-11.885Zm14.619-2.539v2.588h-.146a4.941,4.941,0,0,0-3.032.884,3.731,3.731,0,0,0-1.46,2.456A3.848,3.848,0,0,1,301.65-9.59a3.59,3.59,0,0,1,2.939,1.348,5.436,5.436,0,0,1,1.094,3.535,4.978,4.978,0,0,1-.64,2.49,4.564,4.564,0,0,1-1.787,1.772,5.135,5.135,0,0,1-2.544.64,5.307,5.307,0,0,1-2.705-.688,4.733,4.733,0,0,1-1.855-1.968,6.48,6.48,0,0,1-.684-2.949V-6.729a8.208,8.208,0,0,1,.942-3.95,6.832,6.832,0,0,1,2.69-2.749,7.692,7.692,0,0,1,3.877-1ZM300.508-7.07a1.883,1.883,0,0,0-1.094.3,1.922,1.922,0,0,0-.654.742v.986q0,2.7,1.865,2.7a1.513,1.513,0,0,0,1.255-.674,2.746,2.746,0,0,0,.5-1.689,2.7,2.7,0,0,0-.513-1.7A1.64,1.64,0,0,0,300.508-7.07ZM309.2-3.193a1.874,1.874,0,0,1,1.3.464,1.522,1.522,0,0,1,.518,1.187A1.522,1.522,0,0,1,310.5-.356a1.874,1.874,0,0,1-1.3.464,1.858,1.858,0,0,1-1.3-.469,1.533,1.533,0,0,1-.513-1.182,1.533,1.533,0,0,1,.513-1.182A1.858,1.858,0,0,1,309.2-3.193Zm10.439-2.3a3.476,3.476,0,0,1-2.383.957,3.847,3.847,0,0,1-3.066-1.309,5.155,5.155,0,0,1-1.133-3.5,5.247,5.247,0,0,1,.635-2.539,4.763,4.763,0,0,1,1.782-1.855,4.859,4.859,0,0,1,2.534-.684,4.717,4.717,0,0,1,2.544.708,4.767,4.767,0,0,1,1.772,2,6.877,6.877,0,0,1,.654,2.983v1.26a8.548,8.548,0,0,1-.923,4.082,6.371,6.371,0,0,1-2.632,2.656A8.224,8.224,0,0,1,315.439.2h-.205V-2.441l.625-.01Q319.258-2.617,319.639-5.5Zm-1.494-1.416a1.6,1.6,0,0,0,1.543-.928V-9.209a3.555,3.555,0,0,0-.459-2.021,1.44,1.44,0,0,0-1.24-.654,1.361,1.361,0,0,0-1.162.742,3.3,3.3,0,0,0-.469,1.8,2.956,2.956,0,0,0,.479,1.772A1.531,1.531,0,0,0,318.145-6.914ZM331.221-5.5a3.476,3.476,0,0,1-2.383.957,3.847,3.847,0,0,1-3.066-1.309,5.155,5.155,0,0,1-1.133-3.5,5.247,5.247,0,0,1,.635-2.539,4.763,4.763,0,0,1,1.782-1.855,4.859,4.859,0,0,1,2.534-.684,4.717,4.717,0,0,1,2.544.708,4.767,4.767,0,0,1,1.772,2,6.877,6.877,0,0,1,.654,2.983v1.26a8.548,8.548,0,0,1-.923,4.082,6.371,6.371,0,0,1-2.632,2.656A8.224,8.224,0,0,1,327.021.2h-.205V-2.441l.625-.01Q330.84-2.617,331.221-5.5Zm-1.494-1.416a1.6,1.6,0,0,0,1.543-.928V-9.209a3.555,3.555,0,0,0-.459-2.021,1.44,1.44,0,0,0-1.24-.654,1.361,1.361,0,0,0-1.162.742,3.3,3.3,0,0,0-.469,1.8,2.956,2.956,0,0,0,.479,1.772A1.531,1.531,0,0,0,329.727-6.914Zm14.541-7.51v2.588h-.146a4.941,4.941,0,0,0-3.032.884,3.731,3.731,0,0,0-1.46,2.456,3.848,3.848,0,0,1,2.813-1.094,3.59,3.59,0,0,1,2.939,1.348,5.436,5.436,0,0,1,1.094,3.535,4.978,4.978,0,0,1-.64,2.49,4.564,4.564,0,0,1-1.787,1.772A5.135,5.135,0,0,1,341.5.2,5.307,5.307,0,0,1,338.8-.493a4.733,4.733,0,0,1-1.855-1.968,6.48,6.48,0,0,1-.684-2.949V-6.729a8.208,8.208,0,0,1,.942-3.95,6.832,6.832,0,0,1,2.69-2.749,7.692,7.692,0,0,1,3.877-1ZM341.3-7.07a1.883,1.883,0,0,0-1.094.3,1.922,1.922,0,0,0-.654.742v.986q0,2.7,1.865,2.7a1.513,1.513,0,0,0,1.255-.674,2.746,2.746,0,0,0,.5-1.689,2.7,2.7,0,0,0-.513-1.7A1.64,1.64,0,0,0,341.3-7.07Zm8.691,3.877a1.874,1.874,0,0,1,1.3.464,1.522,1.522,0,0,1,.518,1.187,1.522,1.522,0,0,1-.518,1.187,1.874,1.874,0,0,1-1.3.464,1.858,1.858,0,0,1-1.3-.469,1.533,1.533,0,0,1-.513-1.182,1.533,1.533,0,0,1,.513-1.182A1.858,1.858,0,0,1,349.99-3.193Zm13.545-7.227a3.283,3.283,0,0,1-.513,1.826,3.734,3.734,0,0,1-1.411,1.27,4.109,4.109,0,0,1,1.611,1.362,3.516,3.516,0,0,1,.6,2.046A3.721,3.721,0,0,1,362.5-.908,5.454,5.454,0,0,1,358.887.2a5.554,5.554,0,0,1-3.652-1.108,3.7,3.7,0,0,1-1.338-3,3.56,3.56,0,0,1,.586-2.021,3.984,3.984,0,0,1,1.66-1.387,3.755,3.755,0,0,1-1.426-1.27,3.26,3.26,0,0,1-.518-1.826,3.648,3.648,0,0,1,1.26-2.93,5.064,5.064,0,0,1,3.4-1.074,5.1,5.1,0,0,1,3.418,1.074A3.648,3.648,0,0,1,363.535-10.42Zm-3.018,6.24a1.877,1.877,0,0,0-.454-1.353,1.581,1.581,0,0,0-1.2-.474,1.6,1.6,0,0,0-1.2.474,1.865,1.865,0,0,0-.459,1.353,1.881,1.881,0,0,0,.464,1.343,1.592,1.592,0,0,0,1.216.493,1.53,1.53,0,0,0,1.182-.488A1.915,1.915,0,0,0,360.518-4.18Zm-1.66-7.705a1.216,1.216,0,0,0-1.011.435,1.886,1.886,0,0,0-.347,1.206,2,2,0,0,0,.352,1.23,1.213,1.213,0,0,0,1.035.469,1.163,1.163,0,0,0,1.011-.469,2.062,2.062,0,0,0,.337-1.23,1.89,1.89,0,0,0-.347-1.2A1.233,1.233,0,0,0,358.857-11.885ZM375.4-5.811a6.789,6.789,0,0,1-1.294,4.443A4.471,4.471,0,0,1,370.459.2a4.5,4.5,0,0,1-3.672-1.572,6.779,6.779,0,0,1-1.3-4.434v-2.6a6.789,6.789,0,0,1,1.294-4.443,4.483,4.483,0,0,1,3.657-1.562,4.484,4.484,0,0,1,3.662,1.572A6.8,6.8,0,0,1,375.4-8.4Zm-3.291-3.018a5.071,5.071,0,0,0-.4-2.29,1.338,1.338,0,0,0-1.27-.757,1.307,1.307,0,0,0-1.235.7,4.777,4.777,0,0,0-.415,2.129V-5.41a5.109,5.109,0,0,0,.4,2.329,1.343,1.343,0,0,0,1.27.737,1.325,1.325,0,0,0,1.24-.718,4.878,4.878,0,0,0,.41-2.251Zm14.873,3.018a6.789,6.789,0,0,1-1.294,4.443A4.471,4.471,0,0,1,382.041.2a4.5,4.5,0,0,1-3.672-1.572,6.779,6.779,0,0,1-1.3-4.434v-2.6a6.789,6.789,0,0,1,1.294-4.443,4.483,4.483,0,0,1,3.657-1.562,4.484,4.484,0,0,1,3.662,1.572,6.8,6.8,0,0,1,1.3,4.443Zm-3.291-3.018a5.071,5.071,0,0,0-.4-2.29,1.338,1.338,0,0,0-1.27-.757,1.307,1.307,0,0,0-1.235.7,4.777,4.777,0,0,0-.415,2.129V-5.41a5.109,5.109,0,0,0,.4,2.329,1.343,1.343,0,0,0,1.27.737,1.325,1.325,0,0,0,1.24-.718,4.878,4.878,0,0,0,.41-2.251Z" transform="translate(289 2937)" fill="#12263f"/>
      </g>
    </g>
    <g id="Grupo_93154" data-name="Grupo 93154" transform="translate(-1491.182 -7651)">
      <rect id="Rectángulo_31816-2" data-name="Rectángulo 31816" width="385" height="131" transform="translate(323 2859)" fill="#6595bf"/>
      <g id="Grupo_89142-2" data-name="Grupo 89142" transform="translate(224 2852)">
        <rect id="Rectángulo_31778-2" data-name="Rectángulo 31778" width="392.371" height="132.775" transform="translate(86.414)" fill="#fff" stroke="#12263f" stroke-miterlimit="10" stroke-width="1"/>
      </g>
      <g id="Grupo_89143-2" data-name="Grupo 89143" transform="translate(8 -5)">
        <path id="Trazado_148587" data-name="Trazado 148587" d="M12.578-4.814a5.193,5.193,0,0,1-.8,2.622A4.833,4.833,0,0,1,9.722-.43,7,7,0,0,1,6.7.2,5.584,5.584,0,0,1,2.285-1.631,7.54,7.54,0,0,1,.674-6.787v-.7A8.607,8.607,0,0,1,1.4-11.147,5.513,5.513,0,0,1,3.5-13.569a5.844,5.844,0,0,1,3.164-.854,6.129,6.129,0,0,1,4.16,1.362,5.383,5.383,0,0,1,1.787,3.755H9.189a2.547,2.547,0,0,0-.654-1.865,2.691,2.691,0,0,0-1.875-.566,2.048,2.048,0,0,0-1.875.957A6.151,6.151,0,0,0,4.16-7.725v1.006a6.806,6.806,0,0,0,.571,3.252A2.091,2.091,0,0,0,6.7-2.49a2.632,2.632,0,0,0,1.807-.557A2.363,2.363,0,0,0,9.17-4.814ZM17.852,0H14.434V-14.219h3.418ZM32.109,0H28.7L23.662-8.848V0H20.234V-14.219h3.428l5.029,8.848v-8.848h3.418Zm6.582-5.381A6.236,6.236,0,0,1,39.307-8.2a4.4,4.4,0,0,1,1.768-1.9,5.323,5.323,0,0,1,2.705-.664,4.858,4.858,0,0,1,3.74,1.47,5.64,5.64,0,0,1,1.367,4v.117a5.472,5.472,0,0,1-1.372,3.921A4.871,4.871,0,0,1,43.8.2a4.927,4.927,0,0,1-3.623-1.353A5.29,5.29,0,0,1,38.7-4.824Zm3.291.205a3.932,3.932,0,0,0,.459,2.148,1.529,1.529,0,0,0,1.357.684q1.758,0,1.8-2.705v-.332q0-2.842-1.816-2.842-1.65,0-1.787,2.451Zm21.563,2.52h-4.7L58.027,0H54.365L59.58-14.219H62.8L68.057,0H64.375ZM59.668-5.3h3.057l-1.533-4.932ZM80.967,0H77.559L72.52-8.848V0H69.092V-14.219H72.52l5.029,8.848v-8.848h3.418ZM92.09-5.664H86.563V0H83.135V-14.219h9.512v2.646H86.563V-8.3H92.09Zm16.182-1.387H99.229V-9.59h9.043Zm0,4.287H99.229V-5.3h9.043ZM122.09-3.77a1.788,1.788,0,0,0-.381-1.211,3.557,3.557,0,0,0-1.338-.83Q119.414-6.2,118.6-6.6a6.131,6.131,0,0,1-1.4-.928,3.645,3.645,0,0,1-.9-1.221A4.072,4.072,0,0,1,116-10.43a3.608,3.608,0,0,1,1.113-2.72,4.791,4.791,0,0,1,2.969-1.245v-2.061h1.553v2.1a4.361,4.361,0,0,1,2.808,1.47,4.575,4.575,0,0,1,1.021,3.062h-3.3a2.663,2.663,0,0,0-.391-1.562,1.286,1.286,0,0,0-1.113-.547,1.263,1.263,0,0,0-1,.405,1.635,1.635,0,0,0-.356,1.118,1.582,1.582,0,0,0,.41,1.147,4.04,4.04,0,0,0,1.318.811q.908.386,1.714.8a6.552,6.552,0,0,1,1.392.942,3.857,3.857,0,0,1,.918,1.23,3.929,3.929,0,0,1,.332,1.689,3.678,3.678,0,0,1-1.06,2.725,4.561,4.561,0,0,1-2.886,1.23V2.129h-1.553V.156a4.967,4.967,0,0,1-3.267-1.46,4.618,4.618,0,0,1-1.138-3.257h3.291a2.554,2.554,0,0,0,.493,1.694,1.737,1.737,0,0,0,1.4.581,1.383,1.383,0,0,0,1.045-.4A1.5,1.5,0,0,0,122.09-3.77ZM134.414,0h-3.3V-10.508l-3.242.947v-2.5l6.24-2.158h.3ZM146,0h-3.3V-10.508l-3.242.947v-2.5l6.24-2.158h.3Zm4.482-6.945.869-7.273h8.311v2.559h-5.635L153.7-8.836a3.882,3.882,0,0,1,.923-.363,4.211,4.211,0,0,1,1.118-.157A4.171,4.171,0,0,1,159-8.1a5.055,5.055,0,0,1,1.138,3.521,5.046,5.046,0,0,1-.61,2.476,4.2,4.2,0,0,1-1.714,1.7,5.411,5.411,0,0,1-2.607.6,5.822,5.822,0,0,1-2.51-.551,4.5,4.5,0,0,1-1.836-1.512,3.675,3.675,0,0,1-.654-2.171h3.3A1.867,1.867,0,0,0,154-2.8a1.581,1.581,0,0,0,1.182.458q1.66,0,1.66-2.456,0-2.271-2.031-2.271a2.027,2.027,0,0,0-1.719.741Zm13.477,3.752a1.874,1.874,0,0,1,1.3.464,1.522,1.522,0,0,1,.518,1.187,1.522,1.522,0,0,1-.518,1.187,1.874,1.874,0,0,1-1.3.464,1.858,1.858,0,0,1-1.3-.469,1.533,1.533,0,0,1-.513-1.182,1.533,1.533,0,0,1,.513-1.182A1.858,1.858,0,0,1,163.955-3.193ZM177.5-10.42a3.283,3.283,0,0,1-.513,1.826,3.734,3.734,0,0,1-1.411,1.27,4.109,4.109,0,0,1,1.611,1.362,3.515,3.515,0,0,1,.6,2.046A3.721,3.721,0,0,1,176.47-.908,5.454,5.454,0,0,1,172.852.2,5.554,5.554,0,0,1,169.2-.913a3.7,3.7,0,0,1-1.338-3,3.56,3.56,0,0,1,.586-2.021,3.984,3.984,0,0,1,1.66-1.387,3.755,3.755,0,0,1-1.426-1.27,3.26,3.26,0,0,1-.518-1.826,3.648,3.648,0,0,1,1.26-2.93,5.064,5.064,0,0,1,3.4-1.074,5.1,5.1,0,0,1,3.418,1.074A3.648,3.648,0,0,1,177.5-10.42Zm-3.018,6.24a1.877,1.877,0,0,0-.454-1.353,1.581,1.581,0,0,0-1.2-.474,1.6,1.6,0,0,0-1.2.474,1.865,1.865,0,0,0-.459,1.353,1.881,1.881,0,0,0,.464,1.343,1.592,1.592,0,0,0,1.216.493,1.53,1.53,0,0,0,1.182-.488A1.915,1.915,0,0,0,174.482-4.18Zm-1.66-7.705a1.216,1.216,0,0,0-1.011.435,1.886,1.886,0,0,0-.347,1.206,2,2,0,0,0,.352,1.23,1.213,1.213,0,0,0,1.035.469,1.163,1.163,0,0,0,1.011-.469,2.062,2.062,0,0,0,.337-1.23,1.89,1.89,0,0,0-.347-1.2A1.233,1.233,0,0,0,172.822-11.885Zm16.543,6.074a6.789,6.789,0,0,1-1.294,4.443A4.471,4.471,0,0,1,184.424.2a4.5,4.5,0,0,1-3.672-1.572,6.779,6.779,0,0,1-1.3-4.434v-2.6a6.789,6.789,0,0,1,1.294-4.443,4.483,4.483,0,0,1,3.657-1.562,4.484,4.484,0,0,1,3.662,1.572,6.8,6.8,0,0,1,1.3,4.443Zm-3.291-3.018a5.071,5.071,0,0,0-.4-2.29,1.338,1.338,0,0,0-1.27-.757,1.307,1.307,0,0,0-1.235.7,4.777,4.777,0,0,0-.415,2.129V-5.41a5.11,5.11,0,0,0,.4,2.329,1.343,1.343,0,0,0,1.27.737,1.325,1.325,0,0,0,1.24-.718,4.878,4.878,0,0,0,.41-2.251Zm8.008.342h1.553a1.614,1.614,0,0,0,1.846-1.807,1.562,1.562,0,0,0-.439-1.147,1.666,1.666,0,0,0-1.24-.444,1.784,1.784,0,0,0-1.138.381,1.162,1.162,0,0,0-.483.947h-3.291a3.369,3.369,0,0,1,.625-2,4.127,4.127,0,0,1,1.733-1.372,5.926,5.926,0,0,1,2.437-.493,5.823,5.823,0,0,1,3.73,1.084,3.6,3.6,0,0,1,1.357,2.979,3,3,0,0,1-.562,1.733A4,4,0,0,1,198.574-7.3a3.823,3.823,0,0,1,1.777,1.245A3.279,3.279,0,0,1,201-3.994a3.669,3.669,0,0,1-1.465,3.047A6.08,6.08,0,0,1,195.684.2a6.306,6.306,0,0,1-2.593-.532,4.062,4.062,0,0,1-1.812-1.475,3.834,3.834,0,0,1-.615-2.144h3.311a1.482,1.482,0,0,0,.527,1.133,1.862,1.862,0,0,0,1.3.479,1.95,1.95,0,0,0,1.387-.483,1.616,1.616,0,0,0,.518-1.235,1.889,1.889,0,0,0-.537-1.523,2.245,2.245,0,0,0-1.484-.449h-1.6Zm10.664,5.293a1.874,1.874,0,0,1,1.3.464,1.522,1.522,0,0,1,.518,1.187,1.522,1.522,0,0,1-.518,1.187,1.874,1.874,0,0,1-1.3.464,1.858,1.858,0,0,1-1.3-.469,1.533,1.533,0,0,1-.513-1.182,1.533,1.533,0,0,1,.513-1.182A1.858,1.858,0,0,1,204.746-3.193ZM218.623,0H208.7V-2.148l4.57-4.8q1.689-1.924,1.689-3.057a2.126,2.126,0,0,0-.4-1.4,1.43,1.43,0,0,0-1.162-.479,1.447,1.447,0,0,0-1.221.64,2.629,2.629,0,0,0-.469,1.6h-3.3a4.669,4.669,0,0,1,.654-2.417,4.588,4.588,0,0,1,1.816-1.733,5.4,5.4,0,0,1,2.6-.625,5.308,5.308,0,0,1,3.55,1.064,3.8,3.8,0,0,1,1.245,3.057,4.439,4.439,0,0,1-.312,1.636A7.173,7.173,0,0,1,216.987-7a24.476,24.476,0,0,1-2.124,2.339l-1.836,2.119h5.6Zm11.533-5.811a6.789,6.789,0,0,1-1.294,4.443A4.471,4.471,0,0,1,225.215.2a4.5,4.5,0,0,1-3.672-1.572,6.779,6.779,0,0,1-1.3-4.434v-2.6a6.789,6.789,0,0,1,1.294-4.443,4.483,4.483,0,0,1,3.657-1.562,4.484,4.484,0,0,1,3.662,1.572,6.8,6.8,0,0,1,1.3,4.443Zm-3.291-3.018a5.071,5.071,0,0,0-.4-2.29,1.338,1.338,0,0,0-1.27-.757,1.307,1.307,0,0,0-1.235.7,4.777,4.777,0,0,0-.415,2.129V-5.41a5.11,5.11,0,0,0,.4,2.329,1.343,1.343,0,0,0,1.27.737,1.325,1.325,0,0,0,1.24-.718,4.878,4.878,0,0,0,.41-2.251Zm14.873,3.018a6.789,6.789,0,0,1-1.294,4.443A4.471,4.471,0,0,1,236.8.2a4.5,4.5,0,0,1-3.672-1.572,6.779,6.779,0,0,1-1.3-4.434v-2.6a6.789,6.789,0,0,1,1.294-4.443,4.483,4.483,0,0,1,3.657-1.562,4.484,4.484,0,0,1,3.662,1.572,6.8,6.8,0,0,1,1.3,4.443Zm-3.291-3.018a5.071,5.071,0,0,0-.4-2.29,1.338,1.338,0,0,0-1.27-.757,1.307,1.307,0,0,0-1.235.7,4.777,4.777,0,0,0-.415,2.129V-5.41a5.11,5.11,0,0,0,.4,2.329,1.343,1.343,0,0,0,1.27.737,1.325,1.325,0,0,0,1.24-.718,4.878,4.878,0,0,0,.41-2.251Z" transform="translate(369 2937)" fill="#12263f"/>
      </g>
    </g>
  </g>
</svg>
