<svg xmlns="http://www.w3.org/2000/svg" width="645.958" height="328.121" viewBox="0 0 645.958 328.121">
  <g id="Grupo_93203" data-name="Grupo 93203" transform="translate(8.359 -2851.5)">
    <rect id="Rectángulo_31816" data-name="Rectángulo 31816" width="632.521" height="320.621" transform="translate(5.078 2859)" fill="#6595bf"/>
    <g id="Grupo_89142" data-name="Grupo 89142" transform="translate(-7.859 2852)">
      <rect id="Rectángulo_31778" data-name="Rectángulo 31778" width="639.882" height="322.396" transform="translate(0)" fill="#fff" stroke="#12263f" stroke-miterlimit="10" stroke-width="1"/>
    </g>
    <g id="Grupo_89143" data-name="Grupo 89143" transform="translate(40 -5)">
      <path id="Trazado_148676" data-name="Trazado 148676" d="M4.5-4.824V0H1.074V-14.219H6.748a6.608,6.608,0,0,1,2.886.6,4.526,4.526,0,0,1,1.943,1.709,4.667,4.667,0,0,1,.688,2.515,4.114,4.114,0,0,1-1.489,3.325A6.179,6.179,0,0,1,6.689-4.824Zm0-2.646H6.748a2.118,2.118,0,0,0,1.519-.5,1.85,1.85,0,0,0,.522-1.406,2.287,2.287,0,0,0-.537-1.592,1.9,1.9,0,0,0-1.465-.605H4.5ZM22.91-6.035H17.52v3.4h6.367V0H14.092V-14.219h9.814v2.646H17.52v3H22.91Zm14.434-.781a8.4,8.4,0,0,1-.654,3.442,5.984,5.984,0,0,1-1.807,2.358L37.178.8,35.059,2.6,32,.137A6.353,6.353,0,0,1,31.143.2a6.163,6.163,0,0,1-3.223-.84,5.712,5.712,0,0,1-2.192-2.4,8.159,8.159,0,0,1-.815-3.594v-.752a8.414,8.414,0,0,1,.767-3.691,5.713,5.713,0,0,1,2.188-2.461,6.115,6.115,0,0,1,3.257-.869,6.087,6.087,0,0,1,3.223.859,5.79,5.79,0,0,1,2.2,2.446,8.18,8.18,0,0,1,.8,3.638Zm-3.486-.6a5.979,5.979,0,0,0-.708-3.218,2.271,2.271,0,0,0-2.026-1.1,2.256,2.256,0,0,0-2.041,1.084,6.057,6.057,0,0,0-.693,3.174v.654A6.145,6.145,0,0,0,29.082-3.6,2.27,2.27,0,0,0,31.143-2.48a2.237,2.237,0,0,0,2.007-1.1,6.016,6.016,0,0,0,.708-3.174Zm19.434.361H44.248V-9.59h9.043Zm0,4.287H44.248V-5.3h9.043Z" transform="translate(153 2937)" fill="#12263f"/>
      <text id="_" data-name="——————" transform="translate(220 2937)" fill="#12263f" font-size="29" font-family="Roboto-Black, Roboto" font-weight="800"><tspan x="0" y="0">——————</tspan></text>
      <path id="Trazado_148675" data-name="Trazado 148675" d="M12.578-4.814a5.193,5.193,0,0,1-.8,2.622A4.833,4.833,0,0,1,9.722-.43,7,7,0,0,1,6.7.2,5.584,5.584,0,0,1,2.285-1.631,7.54,7.54,0,0,1,.674-6.787v-.7A8.607,8.607,0,0,1,1.4-11.147,5.513,5.513,0,0,1,3.5-13.569a5.844,5.844,0,0,1,3.164-.854,6.129,6.129,0,0,1,4.16,1.362,5.383,5.383,0,0,1,1.787,3.755H9.189a2.547,2.547,0,0,0-.654-1.865,2.691,2.691,0,0,0-1.875-.566,2.048,2.048,0,0,0-1.875.957A6.151,6.151,0,0,0,4.16-7.725v1.006a6.806,6.806,0,0,0,.571,3.252A2.091,2.091,0,0,0,6.7-2.49a2.632,2.632,0,0,0,1.807-.557A2.363,2.363,0,0,0,9.17-4.814Zm10.576-.85H17.627V0H14.2V-14.219h9.512v2.646H17.627V-8.3h5.527Zm7.764-2.4h3.33v2.822h-3.33v3.818H27.842V-5.244H24.5V-8.066h3.34v-3.711h3.076Zm16.055-6.152v9.307A5.349,5.349,0,0,1,46.3-2.173,4.365,4.365,0,0,1,44.365-.41,6.812,6.812,0,0,1,41.387.2a5.885,5.885,0,0,1-4.092-1.348,4.806,4.806,0,0,1-1.523-3.691v-9.375h3.447v9.443q.059,2.334,2.168,2.334A2.1,2.1,0,0,0,43-3.027a2.739,2.739,0,0,0,.547-1.9v-9.287ZM49.111,0V-14.219h4.58a6.737,6.737,0,0,1,3.389.854,6.006,6.006,0,0,1,2.349,2.412,7.283,7.283,0,0,1,.854,3.491v.654a7.325,7.325,0,0,1-.825,3.5A6.032,6.032,0,0,1,57.134-.884,6.589,6.589,0,0,1,53.789,0Zm3.428-11.572v8.936H53.73A2.666,2.666,0,0,0,56-3.687a5.145,5.145,0,0,0,.791-3.12v-.615A5.1,5.1,0,0,0,56-10.527a2.713,2.713,0,0,0-2.3-1.045ZM68,1.221H65.664l4.854-15.439h2.344Zm6.143-7a14.924,14.924,0,0,1,.635-4.434,10.7,10.7,0,0,1,1.753-3.477,6.225,6.225,0,0,1,2.485-1.992l.625,1.621a6.367,6.367,0,0,0-2.114,3.14,15.313,15.313,0,0,0-.757,5v.43a15.612,15.612,0,0,0,.747,5.1,6.34,6.34,0,0,0,2.124,3.164l-.625,1.621a6.163,6.163,0,0,1-2.485-2,10.538,10.538,0,0,1-1.753-3.462,15,15,0,0,1-.635-4.277ZM88.193,0h-3.3V-10.508l-3.242.947v-2.5l6.24-2.158h.3ZM98.965-4.863H93.1V-7.4h5.869Zm6.4-8.33v2.627H107.1v2.285h-1.738v4.834a1.234,1.234,0,0,0,.215.83,1.152,1.152,0,0,0,.85.234,4.828,4.828,0,0,0,.82-.059V-.088A6.074,6.074,0,0,1,105.391.2a3.448,3.448,0,0,1-2.51-.8,3.282,3.282,0,0,1-.811-2.432V-8.281h-1.348v-2.285h1.348v-2.627Zm8.223,7.686a13.925,13.925,0,0,1-.674,4.355,11.12,11.12,0,0,1-1.86,3.54,6.193,6.193,0,0,1-2.563,2.007l-.625-1.621a6.43,6.43,0,0,0,2.1-3.125,15.085,15.085,0,0,0,.771-4.854v-.6a15.612,15.612,0,0,0-.747-5.1,6.34,6.34,0,0,0-2.124-3.164l.625-1.621A6.307,6.307,0,0,1,111.03-13.7a10.984,10.984,0,0,1,1.855,3.486,13.807,13.807,0,0,1,.7,4.272Z" transform="translate(232 2912)" fill="#12263f"/>
      <path id="Trazado_148674" data-name="Trazado 148674" d="M1.172-5.781a14.924,14.924,0,0,1,.635-4.434A10.7,10.7,0,0,1,3.56-13.691a6.225,6.225,0,0,1,2.485-1.992l.625,1.621a6.367,6.367,0,0,0-2.114,3.14,15.313,15.313,0,0,0-.757,5v.43a15.612,15.612,0,0,0,.747,5.1A6.34,6.34,0,0,0,6.67,2.773L6.045,4.395a6.163,6.163,0,0,1-2.485-2A10.538,10.538,0,0,1,1.807-1.064a15,15,0,0,1-.635-4.277Zm10.391.957V0H8.135V-14.219h5.674a6.608,6.608,0,0,1,2.886.6,4.526,4.526,0,0,1,1.943,1.709,4.667,4.667,0,0,1,.688,2.515,4.114,4.114,0,0,1-1.489,3.325A6.179,6.179,0,0,1,13.75-4.824Zm0-2.646h2.246a2.118,2.118,0,0,0,1.519-.5,1.85,1.85,0,0,0,.522-1.406,2.287,2.287,0,0,0-.537-1.592,1.9,1.9,0,0,0-1.465-.605H11.563Zm15.107,3.6L29.5-14.219H33.33L28.545,0h-3.75L20.049-14.219h3.8ZM45.518-14.219v9.307a5.349,5.349,0,0,1-.674,2.739A4.365,4.365,0,0,1,42.91-.41,6.812,6.812,0,0,1,39.932.2,5.885,5.885,0,0,1,35.84-1.152a4.806,4.806,0,0,1-1.523-3.691v-9.375h3.447v9.443q.059,2.334,2.168,2.334a2.1,2.1,0,0,0,1.611-.586,2.739,2.739,0,0,0,.547-1.9v-9.287Zm13.4,9.355H53.047V-7.4h5.869Zm19.2.049a5.193,5.193,0,0,1-.8,2.622A4.833,4.833,0,0,1,75.259-.43,7,7,0,0,1,72.236.2a5.584,5.584,0,0,1-4.414-1.826,7.54,7.54,0,0,1-1.611-5.156v-.7a8.607,8.607,0,0,1,.728-3.657,5.513,5.513,0,0,1,2.095-2.422,5.844,5.844,0,0,1,3.164-.854,6.129,6.129,0,0,1,4.16,1.362,5.383,5.383,0,0,1,1.787,3.755H74.727a2.547,2.547,0,0,0-.654-1.865,2.691,2.691,0,0,0-1.875-.566,2.048,2.048,0,0,0-1.875.957A6.151,6.151,0,0,0,69.7-7.725v1.006a6.806,6.806,0,0,0,.571,3.252,2.091,2.091,0,0,0,1.968.977,2.632,2.632,0,0,0,1.807-.557,2.363,2.363,0,0,0,.664-1.768Zm7.139.947,2.832-10.352h3.828L87.129,0h-3.75L78.633-14.219h3.8ZM104.1-14.219v9.307a5.349,5.349,0,0,1-.674,2.739A4.365,4.365,0,0,1,101.494-.41,6.812,6.812,0,0,1,98.516.2a5.885,5.885,0,0,1-4.092-1.348A4.806,4.806,0,0,1,92.9-4.844v-9.375h3.447v9.443q.059,2.334,2.168,2.334a2.1,2.1,0,0,0,1.611-.586,2.739,2.739,0,0,0,.547-1.9v-9.287Zm7.178,8.711a13.925,13.925,0,0,1-.674,4.355,11.12,11.12,0,0,1-1.86,3.54,6.193,6.193,0,0,1-2.563,2.007l-.625-1.621a6.43,6.43,0,0,0,2.1-3.125,15.085,15.085,0,0,0,.771-4.854v-.6a15.612,15.612,0,0,0-.747-5.1,6.34,6.34,0,0,0-2.124-3.164l.625-1.621a6.307,6.307,0,0,1,2.544,1.987,10.984,10.984,0,0,1,1.855,3.486,13.807,13.807,0,0,1,.7,4.272Z" transform="translate(239 2956)" fill="#12263f"/>
    </g>
    <path id="Trazado_148672" data-name="Trazado 148672" d="M4.5-4.824V0H1.074V-14.219H6.748a6.608,6.608,0,0,1,2.886.6,4.526,4.526,0,0,1,1.943,1.709,4.667,4.667,0,0,1,.688,2.515,4.114,4.114,0,0,1-1.489,3.325A6.179,6.179,0,0,1,6.689-4.824Zm0-2.646H6.748a2.118,2.118,0,0,0,1.519-.5,1.85,1.85,0,0,0,.522-1.406,2.287,2.287,0,0,0-.537-1.592,1.9,1.9,0,0,0-1.465-.605H4.5ZM22.91-6.035H17.52v3.4h6.367V0H14.092V-14.219h9.814v2.646H17.52v3H22.91Zm14.434-.781a8.4,8.4,0,0,1-.654,3.442,5.984,5.984,0,0,1-1.807,2.358L37.178.8,35.059,2.6,32,.137A6.353,6.353,0,0,1,31.143.2a6.163,6.163,0,0,1-3.223-.84,5.712,5.712,0,0,1-2.192-2.4,8.159,8.159,0,0,1-.815-3.594v-.752a8.414,8.414,0,0,1,.767-3.691,5.713,5.713,0,0,1,2.188-2.461,6.115,6.115,0,0,1,3.257-.869,6.087,6.087,0,0,1,3.223.859,5.79,5.79,0,0,1,2.2,2.446,8.18,8.18,0,0,1,.8,3.638Zm-3.486-.6a5.979,5.979,0,0,0-.708-3.218,2.271,2.271,0,0,0-2.026-1.1,2.256,2.256,0,0,0-2.041,1.084,6.057,6.057,0,0,0-.693,3.174v.654A6.145,6.145,0,0,0,29.082-3.6,2.27,2.27,0,0,0,31.143-2.48a2.237,2.237,0,0,0,2.007-1.1,6.016,6.016,0,0,0,.708-3.174Zm7.129,4.219a1.874,1.874,0,0,1,1.3.464A1.522,1.522,0,0,1,42.8-1.543a1.522,1.522,0,0,1-.518,1.187,1.874,1.874,0,0,1-1.3.464,1.858,1.858,0,0,1-1.3-.469,1.533,1.533,0,0,1-.513-1.182,1.533,1.533,0,0,1,.513-1.182A1.858,1.858,0,0,1,40.986-3.193Zm0-7.793a1.874,1.874,0,0,1,1.3.464A1.522,1.522,0,0,1,42.8-9.336a1.522,1.522,0,0,1-.518,1.187,1.874,1.874,0,0,1-1.3.464,1.858,1.858,0,0,1-1.3-.469,1.533,1.533,0,0,1-.513-1.182,1.533,1.533,0,0,1,.513-1.182A1.858,1.858,0,0,1,40.986-10.986Zm12.52,6.162V0H50.078V-14.219h5.674a6.608,6.608,0,0,1,2.886.6,4.526,4.526,0,0,1,1.943,1.709,4.667,4.667,0,0,1,.688,2.515A4.114,4.114,0,0,1,59.78-6.069a6.179,6.179,0,0,1-4.087,1.245Zm0-2.646h2.246a2.118,2.118,0,0,0,1.519-.5,1.85,1.85,0,0,0,.522-1.406,2.287,2.287,0,0,0-.537-1.592,1.9,1.9,0,0,0-1.465-.605H53.506ZM69.238-1.143A3.393,3.393,0,0,1,66.416.2,3.328,3.328,0,0,1,63.784-.815a4.251,4.251,0,0,1-.894-2.905v-6.846h3.291V-3.7A1.183,1.183,0,0,0,67.5-2.344a1.72,1.72,0,0,0,1.611-.811v-7.412h3.311V0H69.336Zm8.008-9.424.107,1.24a3.583,3.583,0,0,1,3.018-1.436,3.015,3.015,0,0,1,2.466.986,4.7,4.7,0,0,1,.845,2.969V0h-3.3V-6.67a1.783,1.783,0,0,0-.322-1.177,1.491,1.491,0,0,0-1.172-.376,1.569,1.569,0,0,0-1.436.762V0H74.16V-10.566Zm12.09-2.627v2.627h1.738v2.285H89.336v4.834a1.234,1.234,0,0,0,.215.83,1.152,1.152,0,0,0,.85.234,4.828,4.828,0,0,0,.82-.059V-.088A6.074,6.074,0,0,1,89.365.2a3.448,3.448,0,0,1-2.51-.8,3.282,3.282,0,0,1-.811-2.432V-8.281H84.7v-2.285h1.348v-2.627ZM91.66-5.381A6.236,6.236,0,0,1,92.275-8.2a4.4,4.4,0,0,1,1.768-1.9,5.323,5.323,0,0,1,2.705-.664,4.858,4.858,0,0,1,3.74,1.47,5.64,5.64,0,0,1,1.367,4v.117a5.472,5.472,0,0,1-1.372,3.921A4.871,4.871,0,0,1,96.768.2a4.927,4.927,0,0,1-3.623-1.353A5.29,5.29,0,0,1,91.67-4.824Zm3.291.205a3.932,3.932,0,0,0,.459,2.148,1.529,1.529,0,0,0,1.357.684q1.758,0,1.8-2.705v-.332q0-2.842-1.816-2.842-1.65,0-1.787,2.451Zm12.92-.186a6.455,6.455,0,0,1,1.084-3.955,3.568,3.568,0,0,1,3.027-1.445,3.035,3.035,0,0,1,2.383,1.113V-15h3.3V0h-2.959l-.166-1.133A3.116,3.116,0,0,1,111.963.2a3.562,3.562,0,0,1-2.988-1.445A6.659,6.659,0,0,1,107.871-5.361Zm3.291.205q0,2.813,1.641,2.813a1.62,1.62,0,0,0,1.563-.918V-7.285a1.576,1.576,0,0,0-1.543-.937q-1.523,0-1.65,2.461ZM124.648.2a5.432,5.432,0,0,1-3.936-1.45,5.008,5.008,0,0,1-1.5-3.774V-5.3a6.489,6.489,0,0,1,.6-2.861,4.395,4.395,0,0,1,1.753-1.919,5.292,5.292,0,0,1,2.734-.679,4.574,4.574,0,0,1,3.516,1.382A5.43,5.43,0,0,1,129.1-5.527v1.279h-6.543a2.372,2.372,0,0,0,.771,1.4,2.3,2.3,0,0,0,1.543.508,2.958,2.958,0,0,0,2.441-1.094l1.5,1.777a4.2,4.2,0,0,1-1.743,1.353A5.891,5.891,0,0,1,124.648.2Zm-.371-8.418q-1.445,0-1.719,1.914h3.32v-.254a1.63,1.63,0,0,0-.4-1.226A1.593,1.593,0,0,0,124.277-8.223ZM140.518.2a5.432,5.432,0,0,1-3.936-1.45,5.008,5.008,0,0,1-1.5-3.774V-5.3a6.489,6.489,0,0,1,.6-2.861,4.395,4.395,0,0,1,1.753-1.919,5.292,5.292,0,0,1,2.734-.679,4.574,4.574,0,0,1,3.516,1.382,5.43,5.43,0,0,1,1.289,3.853v1.279h-6.543a2.372,2.372,0,0,0,.771,1.4,2.3,2.3,0,0,0,1.543.508,2.958,2.958,0,0,0,2.441-1.094l1.5,1.777a4.2,4.2,0,0,1-1.743,1.353A5.891,5.891,0,0,1,140.518.2Zm-.371-8.418q-1.445,0-1.719,1.914h3.32v-.254a1.63,1.63,0,0,0-.4-1.226A1.593,1.593,0,0,0,140.146-8.223Zm5.732,2.832a6.343,6.343,0,0,1,1.094-3.945,3.592,3.592,0,0,1,3.018-1.426,3.068,3.068,0,0,1,2.6,1.328l.234-1.133h2.852V4.063h-3.3V-.879A3.063,3.063,0,0,1,149.971.2a3.561,3.561,0,0,1-2.983-1.45A6.7,6.7,0,0,1,145.879-5.391Zm3.291.205q0,2.842,1.641,2.842a1.589,1.589,0,0,0,1.563-.859v-4.18a1.555,1.555,0,0,0-1.543-.84q-1.533,0-1.65,2.451Zm14.658,4.043A3.393,3.393,0,0,1,161.006.2a3.328,3.328,0,0,1-2.632-1.011,4.251,4.251,0,0,1-.894-2.905v-6.846h3.291V-3.7a1.183,1.183,0,0,0,1.318,1.357,1.72,1.72,0,0,0,1.611-.811v-7.412h3.311V0h-3.086ZM172.285,0h-3.3V-10.566h3.3Zm-3.5-13.291a1.469,1.469,0,0,1,.508-1.152,1.916,1.916,0,0,1,1.318-.449,1.916,1.916,0,0,1,1.318.449,1.469,1.469,0,0,1,.508,1.152,1.469,1.469,0,0,1-.508,1.152,1.916,1.916,0,0,1-1.318.449,1.916,1.916,0,0,1-1.318-.449A1.469,1.469,0,0,1,168.789-13.291ZM177.783,0h-3.3V-15h3.3Zm5.5,0h-3.3V-10.566h3.3Zm-3.5-13.291a1.469,1.469,0,0,1,.508-1.152,1.916,1.916,0,0,1,1.318-.449,1.916,1.916,0,0,1,1.318.449,1.469,1.469,0,0,1,.508,1.152,1.469,1.469,0,0,1-.508,1.152,1.916,1.916,0,0,1-1.318.449,1.916,1.916,0,0,1-1.318-.449A1.469,1.469,0,0,1,179.785-13.291Zm15.332,8.1A6.44,6.44,0,0,1,194.043-1.2,3.6,3.6,0,0,1,191.016.2a3.122,3.122,0,0,1-2.6-1.279L188.281,0h-2.949V-15h3.291v5.283A3.013,3.013,0,0,1,191-10.762a3.6,3.6,0,0,1,3.047,1.416,6.473,6.473,0,0,1,1.074,3.984Zm-3.3-.21a4.3,4.3,0,0,0-.405-2.169,1.366,1.366,0,0,0-1.245-.648,1.576,1.576,0,0,0-1.543.848v4.192a1.585,1.585,0,0,0,1.563.838,1.4,1.4,0,0,0,1.475-1.131A8.121,8.121,0,0,0,191.816-5.405Zm11.143-2.183-1.084-.078a1.947,1.947,0,0,0-1.992.977V0h-3.291V-10.566h3.086l.107,1.357a2.548,2.548,0,0,1,2.314-1.553,3.209,3.209,0,0,1,.918.117ZM207.617,0h-3.3V-10.566h3.3Zm-3.5-13.291a1.469,1.469,0,0,1,.508-1.152,1.916,1.916,0,0,1,1.318-.449,1.916,1.916,0,0,1,1.318.449,1.469,1.469,0,0,1,.508,1.152,1.469,1.469,0,0,1-.508,1.152,1.916,1.916,0,0,1-1.318.449,1.916,1.916,0,0,1-1.318-.449A1.469,1.469,0,0,1,204.121-13.291Zm5.107,7.91a6.236,6.236,0,0,1,.615-2.817,4.4,4.4,0,0,1,1.768-1.9,5.323,5.323,0,0,1,2.705-.664,4.858,4.858,0,0,1,3.74,1.47,5.64,5.64,0,0,1,1.367,4v.117a5.472,5.472,0,0,1-1.372,3.921A4.871,4.871,0,0,1,214.336.2a4.927,4.927,0,0,1-3.623-1.353,5.29,5.29,0,0,1-1.475-3.667Zm3.291.205a3.932,3.932,0,0,0,.459,2.148,1.529,1.529,0,0,0,1.357.684q1.758,0,1.8-2.705v-.332q0-2.842-1.816-2.842-1.65,0-1.787,2.451ZM12.578,19.186a5.193,5.193,0,0,1-.8,2.622A4.833,4.833,0,0,1,9.722,23.57,7,7,0,0,1,6.7,24.2a5.584,5.584,0,0,1-4.414-1.826A7.54,7.54,0,0,1,.674,17.213v-.7A8.607,8.607,0,0,1,1.4,12.853,5.513,5.513,0,0,1,3.5,10.431,5.844,5.844,0,0,1,6.66,9.576a6.129,6.129,0,0,1,4.16,1.362,5.383,5.383,0,0,1,1.787,3.755H9.189a2.547,2.547,0,0,0-.654-1.865,2.691,2.691,0,0,0-1.875-.566,2.048,2.048,0,0,0-1.875.957,6.151,6.151,0,0,0-.625,3.057v1.006a6.806,6.806,0,0,0,.571,3.252A2.091,2.091,0,0,0,6.7,21.51a2.632,2.632,0,0,0,1.807-.557,2.363,2.363,0,0,0,.664-1.768Zm10.576-.85H17.627V24H14.2V9.781h9.512v2.646H17.627V15.7h5.527Zm3.877,2.471a1.874,1.874,0,0,1,1.3.464,1.619,1.619,0,0,1,0,2.373,2.049,2.049,0,0,1-2.6,0,1.618,1.618,0,0,1,0-2.363A1.858,1.858,0,0,1,27.031,20.807Zm0-7.793a1.874,1.874,0,0,1,1.3.464,1.619,1.619,0,0,1,0,2.373,2.049,2.049,0,0,1-2.6,0,1.618,1.618,0,0,1,0-2.363A1.858,1.858,0,0,1,27.031,13.014Zm20.6,6.172a5.193,5.193,0,0,1-.8,2.622,4.833,4.833,0,0,1-2.056,1.763,7,7,0,0,1-3.022.625,5.584,5.584,0,0,1-4.414-1.826,7.54,7.54,0,0,1-1.611-5.156v-.7a8.607,8.607,0,0,1,.728-3.657,5.513,5.513,0,0,1,2.095-2.422,5.844,5.844,0,0,1,3.164-.854,6.129,6.129,0,0,1,4.16,1.362,5.383,5.383,0,0,1,1.787,3.755H44.238a2.547,2.547,0,0,0-.654-1.865,2.691,2.691,0,0,0-1.875-.566,2.048,2.048,0,0,0-1.875.957,6.151,6.151,0,0,0-.625,3.057v1.006a6.806,6.806,0,0,0,.571,3.252,2.091,2.091,0,0,0,1.968.977,2.632,2.632,0,0,0,1.807-.557,2.363,2.363,0,0,0,.664-1.768Zm1.055-.566A6.236,6.236,0,0,1,49.3,15.8a4.4,4.4,0,0,1,1.768-1.9,5.323,5.323,0,0,1,2.705-.664,4.858,4.858,0,0,1,3.74,1.47,5.64,5.64,0,0,1,1.367,4v.117A5.472,5.472,0,0,1,57.5,22.745a4.871,4.871,0,0,1-3.716,1.45,4.927,4.927,0,0,1-3.623-1.353,5.29,5.29,0,0,1-1.475-3.667Zm3.291.205a3.932,3.932,0,0,0,.459,2.148,1.529,1.529,0,0,0,1.357.684q1.758,0,1.8-2.705v-.332q0-2.842-1.816-2.842-1.65,0-1.787,2.451Zm13.887,2.207a.76.76,0,0,0-.439-.674,6.684,6.684,0,0,0-1.67-.527,7.615,7.615,0,0,1-2.031-.718A3.4,3.4,0,0,1,60.5,18.033a2.577,2.577,0,0,1-.42-1.455,2.92,2.92,0,0,1,1.2-2.4,4.948,4.948,0,0,1,3.145-.942,5.482,5.482,0,0,1,3.359.947,2.962,2.962,0,0,1,1.27,2.49h-3.3q0-1.27-1.338-1.27a1.326,1.326,0,0,0-.869.288.892.892,0,0,0-.352.718.819.819,0,0,0,.43.713A4.06,4.06,0,0,0,65,17.574a11.857,11.857,0,0,1,1.655.42,3.007,3.007,0,0,1,2.383,2.939,2.767,2.767,0,0,1-1.284,2.354,5.631,5.631,0,0,1-3.325.908A5.747,5.747,0,0,1,62,23.707a4.05,4.05,0,0,1-1.66-1.328,3.007,3.007,0,0,1-.6-1.768h3.076a1.272,1.272,0,0,0,.488,1.069,2.009,2.009,0,0,0,1.2.337,1.58,1.58,0,0,0,1.011-.273A.875.875,0,0,0,65.859,21.031ZM74.4,10.807v2.627h1.738v2.285H74.4v4.834a1.234,1.234,0,0,0,.215.83,1.152,1.152,0,0,0,.85.234,4.828,4.828,0,0,0,.82-.059v2.354a6.074,6.074,0,0,1-1.855.283,3.448,3.448,0,0,1-2.51-.8,3.282,3.282,0,0,1-.811-2.432V15.719H69.766V13.434h1.348V10.807Zm2.324,7.813a6.236,6.236,0,0,1,.615-2.817,4.4,4.4,0,0,1,1.768-1.9,5.323,5.323,0,0,1,2.705-.664,4.858,4.858,0,0,1,3.74,1.47,5.64,5.64,0,0,1,1.367,4v.117a5.472,5.472,0,0,1-1.372,3.921,4.871,4.871,0,0,1-3.716,1.45,4.927,4.927,0,0,1-3.623-1.353,5.29,5.29,0,0,1-1.475-3.667Zm3.291.205a3.932,3.932,0,0,0,.459,2.148,1.529,1.529,0,0,0,1.357.684q1.758,0,1.8-2.705v-.332q0-2.842-1.816-2.842-1.65,0-1.787,2.451Zm13.887,2.207a.76.76,0,0,0-.439-.674,6.684,6.684,0,0,0-1.67-.527,7.615,7.615,0,0,1-2.031-.718,3.4,3.4,0,0,1-1.221-1.079,2.577,2.577,0,0,1-.42-1.455,2.92,2.92,0,0,1,1.2-2.4,4.948,4.948,0,0,1,3.145-.942,5.482,5.482,0,0,1,3.359.947,2.962,2.962,0,0,1,1.27,2.49H93.8q0-1.27-1.338-1.27a1.326,1.326,0,0,0-.869.288.892.892,0,0,0-.352.718.819.819,0,0,0,.43.713,4.06,4.06,0,0,0,1.372.449,11.857,11.857,0,0,1,1.655.42,3.007,3.007,0,0,1,2.383,2.939A2.767,2.767,0,0,1,95.8,23.287a5.631,5.631,0,0,1-3.325.908,5.747,5.747,0,0,1-2.422-.488,4.05,4.05,0,0,1-1.66-1.328,3.007,3.007,0,0,1-.6-1.768h3.076a1.272,1.272,0,0,0,.488,1.069,2.009,2.009,0,0,0,1.2.337,1.58,1.58,0,0,0,1.011-.273A.875.875,0,0,0,93.906,21.031ZM104.365,24V15.719h-1.533V13.434h1.533v-.352a4.034,4.034,0,0,1,1.387-3.232,5.541,5.541,0,0,1,3.6-1.055,12.787,12.787,0,0,1,3.438.566l-.449,2.6-.547-.146a8.7,8.7,0,0,0-2.246-.283q-1.885,0-1.885,1.719v.186h2.07v2.285h-2.07V24Zm9.941,0H111V13.434h3.311Zm5.547-10.566V24.361a3.836,3.836,0,0,1-1.074,2.891,4.127,4.127,0,0,1-2.969,1.016,7.009,7.009,0,0,1-1.553-.166v-2.49a6.3,6.3,0,0,0,.928.088,1.2,1.2,0,0,0,1.367-1.357V13.434Zm-3.545-2.725a1.469,1.469,0,0,1,.508-1.152,2.159,2.159,0,0,1,2.637,0,1.561,1.561,0,0,1,0,2.3,2.159,2.159,0,0,1-2.637,0A1.469,1.469,0,0,1,116.309,10.709Zm4.99,7.91a6.236,6.236,0,0,1,.615-2.817,4.4,4.4,0,0,1,1.768-1.9,5.323,5.323,0,0,1,2.705-.664,4.858,4.858,0,0,1,3.74,1.47,5.64,5.64,0,0,1,1.367,4v.117a5.472,5.472,0,0,1-1.372,3.921,4.871,4.871,0,0,1-3.716,1.45,4.927,4.927,0,0,1-3.623-1.353,5.29,5.29,0,0,1-1.475-3.667Zm3.291.205a3.932,3.932,0,0,0,.459,2.148,1.529,1.529,0,0,0,1.357.684q1.758,0,1.8-2.705v-.332q0-2.842-1.816-2.842-1.65,0-1.787,2.451Zm13.887,2.207a.76.76,0,0,0-.439-.674,6.684,6.684,0,0,0-1.67-.527,7.615,7.615,0,0,1-2.031-.718,3.4,3.4,0,0,1-1.221-1.079,2.577,2.577,0,0,1-.42-1.455,2.92,2.92,0,0,1,1.2-2.4,4.948,4.948,0,0,1,3.145-.942,5.482,5.482,0,0,1,3.359.947,2.962,2.962,0,0,1,1.27,2.49h-3.3q0-1.27-1.338-1.27a1.326,1.326,0,0,0-.869.288.892.892,0,0,0-.352.718.819.819,0,0,0,.43.713,4.06,4.06,0,0,0,1.372.449,11.857,11.857,0,0,1,1.655.42,3.007,3.007,0,0,1,2.383,2.939,2.767,2.767,0,0,1-1.284,2.354,5.632,5.632,0,0,1-3.325.908,5.747,5.747,0,0,1-2.422-.488,4.05,4.05,0,0,1-1.66-1.328,3.007,3.007,0,0,1-.6-1.768h3.076a1.272,1.272,0,0,0,.488,1.069,2.009,2.009,0,0,0,1.2.337,1.58,1.58,0,0,0,1.011-.273A.875.875,0,0,0,138.477,21.031ZM4.5,43.176V48H1.074V33.781H6.748a6.608,6.608,0,0,1,2.886.6,4.526,4.526,0,0,1,1.943,1.709,4.667,4.667,0,0,1,.688,2.515,4.114,4.114,0,0,1-1.489,3.325,6.179,6.179,0,0,1-4.087,1.245Zm0-2.646H6.748a2.118,2.118,0,0,0,1.519-.5,1.85,1.85,0,0,0,.522-1.406,2.287,2.287,0,0,0-.537-1.592,1.9,1.9,0,0,0-1.465-.605H4.5Zm15.107,3.6,2.832-10.352H26.27L21.484,48h-3.75L12.988,33.781h3.8ZM38.457,33.781v9.307a5.349,5.349,0,0,1-.674,2.739A4.365,4.365,0,0,1,35.85,47.59a6.812,6.812,0,0,1-2.979.605,5.885,5.885,0,0,1-4.092-1.348,4.806,4.806,0,0,1-1.523-3.691V33.781H30.7v9.443q.059,2.334,2.168,2.334a2.1,2.1,0,0,0,1.611-.586,2.739,2.739,0,0,0,.547-1.9V33.781ZM42.49,44.807a1.874,1.874,0,0,1,1.3.464,1.619,1.619,0,0,1,0,2.373,2.049,2.049,0,0,1-2.6,0,1.618,1.618,0,0,1,0-2.363A1.858,1.858,0,0,1,42.49,44.807Zm0-7.793a1.874,1.874,0,0,1,1.3.464,1.619,1.619,0,0,1,0,2.373,2.049,2.049,0,0,1-2.6,0,1.618,1.618,0,0,1,0-2.363A1.858,1.858,0,0,1,42.49,37.014Zm12.52,6.162V48H51.582V33.781h5.674a6.608,6.608,0,0,1,2.886.6,4.526,4.526,0,0,1,1.943,1.709,4.667,4.667,0,0,1,.688,2.515,4.114,4.114,0,0,1-1.489,3.325A6.179,6.179,0,0,1,57.2,43.176Zm0-2.646h2.246a2.118,2.118,0,0,0,1.519-.5,1.85,1.85,0,0,0,.522-1.406,2.287,2.287,0,0,0-.537-1.592,1.9,1.9,0,0,0-1.465-.605H55.01Zm15.83-.117-1.084-.078a1.947,1.947,0,0,0-1.992.977V48H64.473V37.434h3.086l.107,1.357a2.548,2.548,0,0,1,2.314-1.553,3.209,3.209,0,0,1,.918.117Zm6.3,7.783a5.432,5.432,0,0,1-3.936-1.45,5.008,5.008,0,0,1-1.5-3.774V42.7a6.489,6.489,0,0,1,.6-2.861,4.395,4.395,0,0,1,1.753-1.919,5.292,5.292,0,0,1,2.734-.679A4.574,4.574,0,0,1,80.3,38.62a5.43,5.43,0,0,1,1.289,3.853v1.279H75.049a2.372,2.372,0,0,0,.771,1.4,2.3,2.3,0,0,0,1.543.508A2.958,2.958,0,0,0,79.8,44.563l1.5,1.777a4.2,4.2,0,0,1-1.743,1.353A5.891,5.891,0,0,1,77.139,48.2Zm-.371-8.418q-1.445,0-1.719,1.914h3.32v-.254a1.63,1.63,0,0,0-.4-1.226A1.593,1.593,0,0,0,76.768,39.777Zm10.615,5.879a1.464,1.464,0,0,0,1.074-.376,1.379,1.379,0,0,0,.371-1.05h3.086a3.653,3.653,0,0,1-1.245,2.852A4.631,4.631,0,0,1,87.461,48.2a4.689,4.689,0,0,1-3.633-1.445,5.7,5.7,0,0,1-1.328-4v-.137a6.436,6.436,0,0,1,.591-2.827,4.3,4.3,0,0,1,1.7-1.885,5.081,5.081,0,0,1,2.637-.659A4.573,4.573,0,0,1,90.7,38.381a4.053,4.053,0,0,1,1.211,3.1H88.828a1.806,1.806,0,0,0-.4-1.26,1.382,1.382,0,0,0-1.074-.439q-1.279,0-1.494,1.631a11.508,11.508,0,0,0-.068,1.426,4.52,4.52,0,0,0,.381,2.207A1.319,1.319,0,0,0,87.383,45.656ZM96.777,48h-3.3V37.434h3.3Zm-3.5-13.291a1.469,1.469,0,0,1,.508-1.152,2.159,2.159,0,0,1,2.637,0,1.561,1.561,0,0,1,0,2.3,2.159,2.159,0,0,1-2.637,0A1.469,1.469,0,0,1,93.281,34.709Zm5.107,7.91A6.236,6.236,0,0,1,99,39.8a4.4,4.4,0,0,1,1.768-1.9,5.323,5.323,0,0,1,2.705-.664,4.858,4.858,0,0,1,3.74,1.47,5.64,5.64,0,0,1,1.367,4v.117a5.472,5.472,0,0,1-1.372,3.921A4.871,4.871,0,0,1,103.5,48.2a4.927,4.927,0,0,1-3.623-1.353A5.29,5.29,0,0,1,98.4,43.176Zm3.291.205a3.932,3.932,0,0,0,.459,2.148,1.529,1.529,0,0,0,1.357.684q1.758,0,1.8-2.705v-.332q0-2.842-1.816-2.842-1.65,0-1.787,2.451Zm12.92-.186a6.455,6.455,0,0,1,1.084-3.955,3.568,3.568,0,0,1,3.027-1.445,3.035,3.035,0,0,1,2.383,1.113V33h3.3V48h-2.959l-.166-1.133a3.116,3.116,0,0,1-2.578,1.328A3.562,3.562,0,0,1,115.7,46.75,6.659,6.659,0,0,1,114.6,42.639Zm3.291.205q0,2.813,1.641,2.813a1.62,1.62,0,0,0,1.563-.918V40.715a1.576,1.576,0,0,0-1.543-.937q-1.523,0-1.65,2.461ZM131.377,48.2a5.432,5.432,0,0,1-3.936-1.45,5.008,5.008,0,0,1-1.5-3.774V42.7a6.489,6.489,0,0,1,.6-2.861,4.395,4.395,0,0,1,1.753-1.919,5.292,5.292,0,0,1,2.734-.679,4.574,4.574,0,0,1,3.516,1.382,5.43,5.43,0,0,1,1.289,3.853v1.279h-6.543a2.372,2.372,0,0,0,.771,1.4,2.3,2.3,0,0,0,1.543.508,2.958,2.958,0,0,0,2.441-1.094l1.5,1.777a4.2,4.2,0,0,1-1.743,1.353A5.891,5.891,0,0,1,131.377,48.2Zm-.371-8.418q-1.445,0-1.719,1.914h3.32v-.254a1.63,1.63,0,0,0-.4-1.226A1.593,1.593,0,0,0,131.006,39.777Zm15.342,4.307,1.67-6.65h3.467L148.037,48h-3.359L141.23,37.434h3.477Zm11.23,4.111a5.432,5.432,0,0,1-3.936-1.45,5.008,5.008,0,0,1-1.5-3.774V42.7a6.489,6.489,0,0,1,.6-2.861,4.395,4.395,0,0,1,1.753-1.919,5.292,5.292,0,0,1,2.734-.679,4.574,4.574,0,0,1,3.516,1.382,5.43,5.43,0,0,1,1.289,3.853v1.279h-6.543a2.372,2.372,0,0,0,.771,1.4,2.3,2.3,0,0,0,1.543.508,2.958,2.958,0,0,0,2.441-1.094l1.5,1.777A4.2,4.2,0,0,1,160,47.692,5.891,5.891,0,0,1,157.578,48.2Zm-.371-8.418q-1.445,0-1.719,1.914h3.32v-.254a1.63,1.63,0,0,0-.4-1.226A1.593,1.593,0,0,0,157.207,39.777Zm9.17-2.344.107,1.24a3.583,3.583,0,0,1,3.018-1.436,3.015,3.015,0,0,1,2.466.986,4.7,4.7,0,0,1,.845,2.969V48h-3.3V41.33a1.783,1.783,0,0,0-.322-1.177,1.491,1.491,0,0,0-1.172-.376,1.569,1.569,0,0,0-1.436.762V48h-3.291V37.434Zm12.09-2.627v2.627h1.738v2.285h-1.738v4.834a1.234,1.234,0,0,0,.215.83,1.152,1.152,0,0,0,.85.234,4.828,4.828,0,0,0,.82-.059v2.354a6.074,6.074,0,0,1-1.855.283,3.448,3.448,0,0,1-2.51-.8,3.282,3.282,0,0,1-.811-2.432V39.719h-1.348V37.434h1.348V34.807ZM187.451,48a3.716,3.716,0,0,1-.312-.947A3.06,3.06,0,0,1,184.6,48.2a3.749,3.749,0,0,1-2.539-.9,2.875,2.875,0,0,1-1.045-2.271,2.955,2.955,0,0,1,1.27-2.6,6.468,6.468,0,0,1,3.691-.879h1.016v-.559q0-1.462-1.26-1.462a1.03,1.03,0,0,0-1.172,1.158H181.27a2.95,2.95,0,0,1,1.3-2.487,5.479,5.479,0,0,1,3.325-.956,4.8,4.8,0,0,1,3.193.986,3.429,3.429,0,0,1,1.2,2.705v4.678a4.79,4.79,0,0,0,.449,2.227V48Zm-2.061-2.148a1.836,1.836,0,0,0,1.021-.264,1.652,1.652,0,0,0,.581-.6V43.3h-.957q-1.719,0-1.719,1.543a.942.942,0,0,0,.3.728A1.1,1.1,0,0,0,185.391,45.852Zm18,1.006a3.393,3.393,0,0,1-2.822,1.338,3.328,3.328,0,0,1-2.632-1.011,4.251,4.251,0,0,1-.894-2.905V37.434h3.291V44.3a1.183,1.183,0,0,0,1.318,1.357,1.72,1.72,0,0,0,1.611-.811V37.434h3.311V48h-3.086Zm8.008-9.424.107,1.24a3.583,3.583,0,0,1,3.018-1.436,3.015,3.015,0,0,1,2.466.986,4.7,4.7,0,0,1,.845,2.969V48h-3.3V41.33a1.783,1.783,0,0,0-.322-1.177,1.491,1.491,0,0,0-1.172-.376,1.569,1.569,0,0,0-1.436.762V48h-3.291V37.434ZM223.125,48h-3.3V37.434h3.3Zm-3.5-13.291a1.469,1.469,0,0,1,.508-1.152,2.159,2.159,0,0,1,2.637,0,1.561,1.561,0,0,1,0,2.3,2.159,2.159,0,0,1-2.637,0A1.469,1.469,0,0,1,219.629,34.709Zm9.355.1v2.627h1.738v2.285h-1.738v4.834a1.234,1.234,0,0,0,.215.83,1.152,1.152,0,0,0,.85.234,4.828,4.828,0,0,0,.82-.059v2.354a6.074,6.074,0,0,1-1.855.283,3.448,3.448,0,0,1-2.51-.8,3.282,3.282,0,0,1-.811-2.432V39.719h-1.348V37.434h1.348V34.807ZM237.969,48a3.716,3.716,0,0,1-.312-.947,3.06,3.06,0,0,1-2.539,1.143,3.749,3.749,0,0,1-2.539-.9,2.875,2.875,0,0,1-1.045-2.271,2.955,2.955,0,0,1,1.27-2.6,6.468,6.468,0,0,1,3.691-.879h1.016v-.559q0-1.462-1.26-1.462a1.03,1.03,0,0,0-1.172,1.158h-3.291a2.95,2.95,0,0,1,1.3-2.487,5.479,5.479,0,0,1,3.325-.956,4.8,4.8,0,0,1,3.193.986,3.429,3.429,0,0,1,1.2,2.705v4.678a4.79,4.79,0,0,0,.449,2.227V48Zm-2.061-2.148a1.836,1.836,0,0,0,1.021-.264,1.652,1.652,0,0,0,.581-.6V43.3h-.957q-1.719,0-1.719,1.543a.942.942,0,0,0,.3.728A1.1,1.1,0,0,0,235.908,45.852Zm13.115-5.439-1.084-.078a1.947,1.947,0,0,0-1.992.977V48h-3.291V37.434h3.086l.107,1.357a2.548,2.548,0,0,1,2.314-1.553,3.209,3.209,0,0,1,.918.117ZM253.682,48h-3.3V37.434h3.3Zm-3.5-13.291a1.469,1.469,0,0,1,.508-1.152,2.159,2.159,0,0,1,2.637,0,1.561,1.561,0,0,1,0,2.3,2.159,2.159,0,0,1-2.637,0A1.469,1.469,0,0,1,250.186,34.709Zm5.107,7.91a6.236,6.236,0,0,1,.615-2.817,4.4,4.4,0,0,1,1.768-1.9,5.323,5.323,0,0,1,2.705-.664,4.859,4.859,0,0,1,3.74,1.47,5.64,5.64,0,0,1,1.367,4v.117a5.472,5.472,0,0,1-1.372,3.921A4.871,4.871,0,0,1,260.4,48.2a4.927,4.927,0,0,1-3.623-1.353,5.29,5.29,0,0,1-1.475-3.667Zm3.291.205a3.931,3.931,0,0,0,.459,2.148,1.529,1.529,0,0,0,1.357.684q1.758,0,1.8-2.705v-.332q0-2.842-1.816-2.842-1.65,0-1.787,2.451ZM12.578,67.186a5.193,5.193,0,0,1-.8,2.622A4.833,4.833,0,0,1,9.722,71.57,7,7,0,0,1,6.7,72.2a5.584,5.584,0,0,1-4.414-1.826A7.54,7.54,0,0,1,.674,65.213v-.7A8.607,8.607,0,0,1,1.4,60.853,5.513,5.513,0,0,1,3.5,58.431a5.844,5.844,0,0,1,3.164-.854,6.129,6.129,0,0,1,4.16,1.362,5.383,5.383,0,0,1,1.787,3.755H9.189a2.547,2.547,0,0,0-.654-1.865,2.691,2.691,0,0,0-1.875-.566,2.048,2.048,0,0,0-1.875.957,6.151,6.151,0,0,0-.625,3.057v1.006a6.806,6.806,0,0,0,.571,3.252A2.091,2.091,0,0,0,6.7,69.51a2.632,2.632,0,0,0,1.807-.557,2.363,2.363,0,0,0,.664-1.768Zm7.139.947,2.832-10.352h3.828L21.592,72h-3.75L13.1,57.781h3.8ZM38.564,57.781v9.307a5.349,5.349,0,0,1-.674,2.739,4.365,4.365,0,0,1-1.934,1.763,6.812,6.812,0,0,1-2.979.605,5.885,5.885,0,0,1-4.092-1.348,4.806,4.806,0,0,1-1.523-3.691V57.781h3.447v9.443q.059,2.334,2.168,2.334a2.1,2.1,0,0,0,1.611-.586,2.739,2.739,0,0,0,.547-1.9V57.781ZM42.6,68.807a1.874,1.874,0,0,1,1.3.464,1.619,1.619,0,0,1,0,2.373,2.049,2.049,0,0,1-2.6,0,1.618,1.618,0,0,1,0-2.363A1.858,1.858,0,0,1,42.6,68.807Zm0-7.793a1.874,1.874,0,0,1,1.3.464,1.619,1.619,0,0,1,0,2.373,2.049,2.049,0,0,1-2.6,0,1.618,1.618,0,0,1,0-2.363A1.858,1.858,0,0,1,42.6,61.014Zm20.6,6.172a5.193,5.193,0,0,1-.8,2.622,4.833,4.833,0,0,1-2.056,1.763,7,7,0,0,1-3.022.625A5.584,5.584,0,0,1,52.9,70.369a7.54,7.54,0,0,1-1.611-5.156v-.7a8.607,8.607,0,0,1,.728-3.657,5.513,5.513,0,0,1,2.095-2.422,5.844,5.844,0,0,1,3.164-.854,6.129,6.129,0,0,1,4.16,1.362,5.383,5.383,0,0,1,1.787,3.755H59.8a2.547,2.547,0,0,0-.654-1.865,2.691,2.691,0,0,0-1.875-.566,2.048,2.048,0,0,0-1.875.957,6.151,6.151,0,0,0-.625,3.057v1.006a6.806,6.806,0,0,0,.571,3.252,2.091,2.091,0,0,0,1.968.977,2.632,2.632,0,0,0,1.807-.557,2.363,2.363,0,0,0,.664-1.768Zm1.055-.566a6.236,6.236,0,0,1,.615-2.817,4.4,4.4,0,0,1,1.768-1.9,5.323,5.323,0,0,1,2.705-.664,4.858,4.858,0,0,1,3.74,1.47,5.64,5.64,0,0,1,1.367,4v.117a5.472,5.472,0,0,1-1.372,3.921,4.871,4.871,0,0,1-3.716,1.45,4.927,4.927,0,0,1-3.623-1.353,5.29,5.29,0,0,1-1.475-3.667Zm3.291.205A3.932,3.932,0,0,0,68,68.973a1.529,1.529,0,0,0,1.357.684q1.758,0,1.8-2.705v-.332q0-2.842-1.816-2.842-1.65,0-1.787,2.451Zm13.887,2.207a.76.76,0,0,0-.439-.674,6.684,6.684,0,0,0-1.67-.527,7.615,7.615,0,0,1-2.031-.718,3.4,3.4,0,0,1-1.221-1.079,2.577,2.577,0,0,1-.42-1.455,2.92,2.92,0,0,1,1.2-2.4,4.948,4.948,0,0,1,3.145-.942,5.482,5.482,0,0,1,3.359.947,2.962,2.962,0,0,1,1.27,2.49h-3.3q0-1.27-1.338-1.27a1.326,1.326,0,0,0-.869.288.892.892,0,0,0-.352.718.819.819,0,0,0,.43.713,4.06,4.06,0,0,0,1.372.449,11.857,11.857,0,0,1,1.655.42A3.007,3.007,0,0,1,84.6,68.934a2.767,2.767,0,0,1-1.284,2.354,5.631,5.631,0,0,1-3.325.908,5.747,5.747,0,0,1-2.422-.488,4.05,4.05,0,0,1-1.66-1.328,3.007,3.007,0,0,1-.6-1.768h3.076a1.272,1.272,0,0,0,.488,1.069,2.009,2.009,0,0,0,1.2.337,1.58,1.58,0,0,0,1.011-.273A.875.875,0,0,0,81.426,69.031Zm8.545-10.225v2.627h1.738v2.285H89.971v4.834a1.234,1.234,0,0,0,.215.83,1.152,1.152,0,0,0,.85.234,4.828,4.828,0,0,0,.82-.059v2.354A6.074,6.074,0,0,1,90,72.2a3.448,3.448,0,0,1-2.51-.8,3.282,3.282,0,0,1-.811-2.432V63.719H85.332V61.434H86.68V58.807Zm2.324,7.813A6.236,6.236,0,0,1,92.91,63.8a4.4,4.4,0,0,1,1.768-1.9,5.323,5.323,0,0,1,2.705-.664,4.858,4.858,0,0,1,3.74,1.47,5.64,5.64,0,0,1,1.367,4v.117a5.472,5.472,0,0,1-1.372,3.921A4.871,4.871,0,0,1,97.4,72.2a4.927,4.927,0,0,1-3.623-1.353A5.29,5.29,0,0,1,92.3,67.176Zm3.291.205a3.932,3.932,0,0,0,.459,2.148,1.529,1.529,0,0,0,1.357.684q1.758,0,1.8-2.705v-.332q0-2.842-1.816-2.842-1.65,0-1.787,2.451Zm17.549,1.26,1.67-6.65h3.467L114.824,72h-3.359l-3.447-10.566h3.477ZM125.059,72a3.716,3.716,0,0,1-.312-.947,3.06,3.06,0,0,1-2.539,1.143,3.749,3.749,0,0,1-2.539-.9,2.875,2.875,0,0,1-1.045-2.271,2.955,2.955,0,0,1,1.27-2.6,6.468,6.468,0,0,1,3.691-.879H124.6v-.559q0-1.462-1.26-1.462a1.03,1.03,0,0,0-1.172,1.158h-3.291a2.95,2.95,0,0,1,1.3-2.487,5.479,5.479,0,0,1,3.325-.956,4.8,4.8,0,0,1,3.193.986,3.429,3.429,0,0,1,1.2,2.705v4.678a4.79,4.79,0,0,0,.449,2.227V72ZM123,69.852a1.836,1.836,0,0,0,1.021-.264,1.653,1.653,0,0,0,.581-.6V67.3h-.957q-1.719,0-1.719,1.543a.942.942,0,0,0,.3.728A1.1,1.1,0,0,0,123,69.852Zm13.115-5.439-1.084-.078a1.947,1.947,0,0,0-1.992.977V72h-3.291V61.434h3.086l.107,1.357a2.548,2.548,0,0,1,2.314-1.553,3.209,3.209,0,0,1,.918.117ZM140.771,72h-3.3V61.434h3.3Zm-3.5-13.291a1.469,1.469,0,0,1,.508-1.152,2.159,2.159,0,0,1,2.637,0,1.561,1.561,0,0,1,0,2.3,2.159,2.159,0,0,1-2.637,0A1.469,1.469,0,0,1,137.275,58.709ZM148.75,72a3.716,3.716,0,0,1-.312-.947A3.06,3.06,0,0,1,145.9,72.2a3.749,3.749,0,0,1-2.539-.9,2.875,2.875,0,0,1-1.045-2.271,2.955,2.955,0,0,1,1.27-2.6,6.468,6.468,0,0,1,3.691-.879h1.016v-.559q0-1.462-1.26-1.462a1.03,1.03,0,0,0-1.172,1.158h-3.291a2.95,2.95,0,0,1,1.3-2.487,5.479,5.479,0,0,1,3.325-.956,4.8,4.8,0,0,1,3.193.986,3.429,3.429,0,0,1,1.2,2.705v4.678a4.79,4.79,0,0,0,.449,2.227V72Zm-2.061-2.148a1.836,1.836,0,0,0,1.021-.264,1.653,1.653,0,0,0,.581-.6V67.3h-.957q-1.719,0-1.719,1.543a.942.942,0,0,0,.3.728A1.1,1.1,0,0,0,146.689,69.852ZM163.223,66.8a6.44,6.44,0,0,1-1.074,3.994,3.6,3.6,0,0,1-3.027,1.4,3.122,3.122,0,0,1-2.6-1.279L156.387,72h-2.949V57h3.291v5.283a3.013,3.013,0,0,1,2.373-1.045,3.6,3.6,0,0,1,3.047,1.416,6.473,6.473,0,0,1,1.074,3.984Zm-3.3-.21a4.3,4.3,0,0,0-.405-2.169,1.366,1.366,0,0,0-1.245-.648,1.576,1.576,0,0,0-1.543.848v4.192a1.585,1.585,0,0,0,1.563.838,1.4,1.4,0,0,0,1.475-1.131A8.121,8.121,0,0,0,159.922,66.595ZM168.145,72h-3.3V57h3.3Zm7.139.2a5.432,5.432,0,0,1-3.936-1.45,5.008,5.008,0,0,1-1.5-3.774V66.7a6.489,6.489,0,0,1,.6-2.861,4.395,4.395,0,0,1,1.753-1.919,5.292,5.292,0,0,1,2.734-.679,4.574,4.574,0,0,1,3.516,1.382,5.43,5.43,0,0,1,1.289,3.853v1.279h-6.543a2.372,2.372,0,0,0,.771,1.4,2.3,2.3,0,0,0,1.543.508,2.958,2.958,0,0,0,2.441-1.094l1.5,1.777a4.2,4.2,0,0,1-1.743,1.353A5.891,5.891,0,0,1,175.283,72.2Zm-.371-8.418q-1.445,0-1.719,1.914h3.32v-.254a1.63,1.63,0,0,0-.4-1.226A1.593,1.593,0,0,0,174.912,63.777Zm17.422,7.08a3.393,3.393,0,0,1-2.822,1.338,3.328,3.328,0,0,1-2.632-1.011,4.251,4.251,0,0,1-.894-2.905V61.434h3.291V68.3a1.183,1.183,0,0,0,1.318,1.357,1.72,1.72,0,0,0,1.611-.811V61.434h3.311V72h-3.086Zm8.008-9.424.107,1.24a3.583,3.583,0,0,1,3.018-1.436,3.015,3.015,0,0,1,2.466.986,4.7,4.7,0,0,1,.845,2.969V72h-3.3V65.33a1.783,1.783,0,0,0-.322-1.177,1.491,1.491,0,0,0-1.172-.376,1.569,1.569,0,0,0-1.436.762V72h-3.291V61.434ZM212.07,72h-3.3V61.434h3.3Zm-3.5-13.291a1.469,1.469,0,0,1,.508-1.152,2.159,2.159,0,0,1,2.637,0,1.561,1.561,0,0,1,0,2.3,2.159,2.159,0,0,1-2.637,0A1.469,1.469,0,0,1,208.574,58.709Zm9.355.1v2.627h1.738v2.285H217.93v4.834a1.234,1.234,0,0,0,.215.83,1.152,1.152,0,0,0,.85.234,4.828,4.828,0,0,0,.82-.059v2.354a6.074,6.074,0,0,1-1.855.283,3.448,3.448,0,0,1-2.51-.8,3.282,3.282,0,0,1-.811-2.432V63.719h-1.348V61.434h1.348V58.807ZM226.914,72a3.716,3.716,0,0,1-.312-.947,3.06,3.06,0,0,1-2.539,1.143,3.749,3.749,0,0,1-2.539-.9,2.875,2.875,0,0,1-1.045-2.271,2.955,2.955,0,0,1,1.27-2.6,6.468,6.468,0,0,1,3.691-.879h1.016v-.559q0-1.462-1.26-1.462a1.03,1.03,0,0,0-1.172,1.158h-3.291a2.95,2.95,0,0,1,1.3-2.487,5.479,5.479,0,0,1,3.325-.956,4.8,4.8,0,0,1,3.193.986,3.429,3.429,0,0,1,1.2,2.705v4.678a4.79,4.79,0,0,0,.449,2.227V72Zm-2.061-2.148a1.836,1.836,0,0,0,1.021-.264,1.653,1.653,0,0,0,.581-.6V67.3H225.5q-1.719,0-1.719,1.543a.942.942,0,0,0,.3.728A1.1,1.1,0,0,0,224.854,69.852Zm13.115-5.439-1.084-.078a1.947,1.947,0,0,0-1.992.977V72H231.6V61.434h3.086l.107,1.357a2.548,2.548,0,0,1,2.314-1.553,3.209,3.209,0,0,1,.918.117ZM242.627,72h-3.3V61.434h3.3Zm-3.5-13.291a1.469,1.469,0,0,1,.508-1.152,2.159,2.159,0,0,1,2.637,0,1.561,1.561,0,0,1,0,2.3,2.159,2.159,0,0,1-2.637,0A1.469,1.469,0,0,1,239.131,58.709Zm5.107,7.91a6.236,6.236,0,0,1,.615-2.817,4.4,4.4,0,0,1,1.768-1.9,5.323,5.323,0,0,1,2.705-.664,4.858,4.858,0,0,1,3.74,1.47,5.64,5.64,0,0,1,1.367,4v.117a5.472,5.472,0,0,1-1.372,3.921,4.871,4.871,0,0,1-3.716,1.45,4.927,4.927,0,0,1-3.623-1.353,5.29,5.29,0,0,1-1.475-3.667Zm3.291.205a3.932,3.932,0,0,0,.459,2.148,1.529,1.529,0,0,0,1.357.684q1.758,0,1.8-2.705v-.332q0-2.842-1.816-2.842-1.65,0-1.787,2.451ZM12.227,81.781v9.307a5.349,5.349,0,0,1-.674,2.739A4.365,4.365,0,0,1,9.619,95.59a6.812,6.812,0,0,1-2.979.605,5.885,5.885,0,0,1-4.092-1.348,4.806,4.806,0,0,1-1.523-3.691V81.781H4.473v9.443q.059,2.334,2.168,2.334a2.1,2.1,0,0,0,1.611-.586,2.739,2.739,0,0,0,.547-1.9V81.781ZM14.365,96V81.781h4.58a6.737,6.737,0,0,1,3.389.854,6.006,6.006,0,0,1,2.349,2.412,7.283,7.283,0,0,1,.854,3.491v.654a7.325,7.325,0,0,1-.825,3.5,6.032,6.032,0,0,1-2.324,2.422A6.589,6.589,0,0,1,19.043,96Zm3.428-11.572v8.936h1.191a2.666,2.666,0,0,0,2.266-1.05,5.145,5.145,0,0,0,.791-3.12v-.615a5.1,5.1,0,0,0-.791-3.105,2.713,2.713,0,0,0-2.3-1.045Zm11.4,8.379a1.874,1.874,0,0,1,1.3.464,1.619,1.619,0,0,1,0,2.373,2.049,2.049,0,0,1-2.6,0,1.618,1.618,0,0,1,0-2.363A1.858,1.858,0,0,1,29.189,92.807Zm0-7.793a1.874,1.874,0,0,1,1.3.464,1.619,1.619,0,0,1,0,2.373,2.049,2.049,0,0,1-2.6,0,1.618,1.618,0,0,1,0-2.363A1.858,1.858,0,0,1,29.189,85.014Zm20.244-3.232v9.307a5.349,5.349,0,0,1-.674,2.739,4.365,4.365,0,0,1-1.934,1.763,6.812,6.812,0,0,1-2.979.605,5.885,5.885,0,0,1-4.092-1.348,4.806,4.806,0,0,1-1.523-3.691V81.781H41.68v9.443q.059,2.334,2.168,2.334a2.1,2.1,0,0,0,1.611-.586,2.739,2.739,0,0,0,.547-1.9V81.781Zm5.82,1.025v2.627h1.738v2.285H55.254v4.834a1.234,1.234,0,0,0,.215.83,1.152,1.152,0,0,0,.85.234,4.828,4.828,0,0,0,.82-.059v2.354a6.074,6.074,0,0,1-1.855.283,3.448,3.448,0,0,1-2.51-.8,3.282,3.282,0,0,1-.811-2.432V87.719H50.615V85.434h1.348V82.807ZM61.758,96h-3.3V85.434h3.3Zm-3.5-13.291a1.469,1.469,0,0,1,.508-1.152,2.159,2.159,0,0,1,2.637,0,1.561,1.561,0,0,1,0,2.3,2.159,2.159,0,0,1-2.637,0A1.469,1.469,0,0,1,58.262,82.709ZM67.256,96h-3.3V81h3.3Zm5.5,0h-3.3V85.434h3.3Zm-3.5-13.291a1.469,1.469,0,0,1,.508-1.152,2.159,2.159,0,0,1,2.637,0,1.561,1.561,0,0,1,0,2.3,2.159,2.159,0,0,1-2.637,0A1.469,1.469,0,0,1,69.258,82.709Zm5.107,7.93a6.455,6.455,0,0,1,1.084-3.955,3.568,3.568,0,0,1,3.027-1.445,3.035,3.035,0,0,1,2.383,1.113V81h3.3V96H81.2l-.166-1.133A3.116,3.116,0,0,1,78.457,96.2a3.562,3.562,0,0,1-2.988-1.445A6.659,6.659,0,0,1,74.365,90.639Zm3.291.205q0,2.813,1.641,2.813a1.62,1.62,0,0,0,1.563-.918V88.715a1.576,1.576,0,0,0-1.543-.937q-1.523,0-1.65,2.461ZM91.982,96a3.716,3.716,0,0,1-.312-.947A3.06,3.06,0,0,1,89.131,96.2a3.749,3.749,0,0,1-2.539-.9,2.875,2.875,0,0,1-1.045-2.271,2.955,2.955,0,0,1,1.27-2.6,6.468,6.468,0,0,1,3.691-.879h1.016v-.559q0-1.462-1.26-1.462a1.03,1.03,0,0,0-1.172,1.158H85.8a2.95,2.95,0,0,1,1.3-2.487,5.479,5.479,0,0,1,3.325-.956,4.8,4.8,0,0,1,3.193.986,3.429,3.429,0,0,1,1.2,2.705v4.678a4.79,4.79,0,0,0,.449,2.227V96Zm-2.061-2.148a1.836,1.836,0,0,0,1.021-.264,1.653,1.653,0,0,0,.581-.6V91.3h-.957q-1.719,0-1.719,1.543a.942.942,0,0,0,.3.728A1.1,1.1,0,0,0,89.922,93.852Zm6.309-3.213a6.455,6.455,0,0,1,1.084-3.955,3.568,3.568,0,0,1,3.027-1.445,3.035,3.035,0,0,1,2.383,1.113V81h3.3V96h-2.959l-.166-1.133a3.116,3.116,0,0,1-2.578,1.328,3.562,3.562,0,0,1-2.988-1.445A6.659,6.659,0,0,1,96.23,90.639Zm3.291.205q0,2.813,1.641,2.813a1.62,1.62,0,0,0,1.563-.918V88.715a1.576,1.576,0,0,0-1.543-.937q-1.523,0-1.65,2.461Zm12.939-.205a6.455,6.455,0,0,1,1.084-3.955,3.568,3.568,0,0,1,3.027-1.445,3.035,3.035,0,0,1,2.383,1.113V81h3.3V96H119.3l-.166-1.133a3.116,3.116,0,0,1-2.578,1.328,3.562,3.562,0,0,1-2.988-1.445A6.659,6.659,0,0,1,112.461,90.639Zm3.291.205q0,2.813,1.641,2.813a1.62,1.62,0,0,0,1.563-.918V88.715a1.576,1.576,0,0,0-1.543-.937q-1.523,0-1.65,2.461ZM129.238,96.2a5.432,5.432,0,0,1-3.936-1.45,5.008,5.008,0,0,1-1.5-3.774V90.7a6.489,6.489,0,0,1,.6-2.861,4.395,4.395,0,0,1,1.753-1.919,5.292,5.292,0,0,1,2.734-.679A4.574,4.574,0,0,1,132.4,86.62a5.43,5.43,0,0,1,1.289,3.853v1.279h-6.543a2.372,2.372,0,0,0,.771,1.4,2.3,2.3,0,0,0,1.543.508,2.958,2.958,0,0,0,2.441-1.094l1.5,1.777a4.2,4.2,0,0,1-1.743,1.353A5.891,5.891,0,0,1,129.238,96.2Zm-.371-8.418q-1.445,0-1.719,1.914h3.32v-.254a1.63,1.63,0,0,0-.4-1.226A1.593,1.593,0,0,0,128.867,87.777Zm11.68,5.254a.76.76,0,0,0-.439-.674,6.684,6.684,0,0,0-1.67-.527,7.615,7.615,0,0,1-2.031-.718,3.4,3.4,0,0,1-1.221-1.079,2.577,2.577,0,0,1-.42-1.455,2.92,2.92,0,0,1,1.2-2.4,4.948,4.948,0,0,1,3.145-.942,5.482,5.482,0,0,1,3.359.947,2.962,2.962,0,0,1,1.27,2.49h-3.3q0-1.27-1.338-1.27a1.326,1.326,0,0,0-.869.288.892.892,0,0,0-.352.718.819.819,0,0,0,.43.713,4.06,4.06,0,0,0,1.372.449,11.858,11.858,0,0,1,1.655.42,3.007,3.007,0,0,1,2.383,2.939,2.767,2.767,0,0,1-1.284,2.354,5.632,5.632,0,0,1-3.325.908,5.747,5.747,0,0,1-2.422-.488,4.05,4.05,0,0,1-1.66-1.328,3.007,3.007,0,0,1-.6-1.768h3.076A1.272,1.272,0,0,0,138,93.681a2.009,2.009,0,0,0,1.2.337,1.58,1.58,0,0,0,1.011-.273A.875.875,0,0,0,140.547,93.031Zm9.824,3.164a5.432,5.432,0,0,1-3.936-1.45,5.008,5.008,0,0,1-1.5-3.774V90.7a6.489,6.489,0,0,1,.6-2.861,4.395,4.395,0,0,1,1.753-1.919,5.292,5.292,0,0,1,2.734-.679,4.574,4.574,0,0,1,3.516,1.382,5.43,5.43,0,0,1,1.289,3.853v1.279h-6.543a2.372,2.372,0,0,0,.771,1.4,2.3,2.3,0,0,0,1.543.508,2.958,2.958,0,0,0,2.441-1.094l1.5,1.777a4.2,4.2,0,0,1-1.743,1.353A5.891,5.891,0,0,1,150.371,96.2ZM150,87.777q-1.445,0-1.719,1.914h3.32v-.254a1.63,1.63,0,0,0-.4-1.226A1.593,1.593,0,0,0,150,87.777ZM162.1,96a3.716,3.716,0,0,1-.312-.947,3.06,3.06,0,0,1-2.539,1.143,3.749,3.749,0,0,1-2.539-.9,2.875,2.875,0,0,1-1.045-2.271,2.955,2.955,0,0,1,1.27-2.6,6.468,6.468,0,0,1,3.691-.879h1.016v-.559q0-1.462-1.26-1.462a1.03,1.03,0,0,0-1.172,1.158h-3.291a2.95,2.95,0,0,1,1.3-2.487,5.479,5.479,0,0,1,3.325-.956,4.8,4.8,0,0,1,3.193.986,3.429,3.429,0,0,1,1.2,2.705v4.678a4.79,4.79,0,0,0,.449,2.227V96Zm-2.061-2.148a1.836,1.836,0,0,0,1.021-.264,1.653,1.653,0,0,0,.581-.6V91.3h-.957q-1.719,0-1.719,1.543a.942.942,0,0,0,.3.728A1.1,1.1,0,0,0,160.039,93.852Zm6.309-3.213a6.455,6.455,0,0,1,1.084-3.955,3.568,3.568,0,0,1,3.027-1.445,3.035,3.035,0,0,1,2.383,1.113V81h3.3V96h-2.959l-.166-1.133a3.116,3.116,0,0,1-2.578,1.328,3.562,3.562,0,0,1-2.988-1.445A6.659,6.659,0,0,1,166.348,90.639Zm3.291.205q0,2.813,1.641,2.813a1.62,1.62,0,0,0,1.563-.918V88.715a1.576,1.576,0,0,0-1.543-.937q-1.523,0-1.65,2.461ZM183.965,96a3.716,3.716,0,0,1-.312-.947,3.06,3.06,0,0,1-2.539,1.143,3.749,3.749,0,0,1-2.539-.9,2.875,2.875,0,0,1-1.045-2.271,2.955,2.955,0,0,1,1.27-2.6,6.468,6.468,0,0,1,3.691-.879h1.016v-.559q0-1.462-1.26-1.462a1.03,1.03,0,0,0-1.172,1.158h-3.291a2.95,2.95,0,0,1,1.3-2.487,5.479,5.479,0,0,1,3.325-.956,4.8,4.8,0,0,1,3.193.986,3.429,3.429,0,0,1,1.2,2.705v4.678a4.79,4.79,0,0,0,.449,2.227V96ZM181.9,93.852a1.836,1.836,0,0,0,1.021-.264,1.653,1.653,0,0,0,.581-.6V91.3h-.957q-1.719,0-1.719,1.543a.942.942,0,0,0,.3.728A1.1,1.1,0,0,0,181.9,93.852ZM12.236,108.428H7.969V120H4.541V108.428H.352v-2.646H12.236Zm3.34,8.379a1.874,1.874,0,0,1,1.3.464,1.619,1.619,0,0,1,0,2.373,2.049,2.049,0,0,1-2.6,0,1.618,1.618,0,0,1,0-2.363A1.858,1.858,0,0,1,15.576,116.807Zm0-7.793a1.874,1.874,0,0,1,1.3.464,1.619,1.619,0,0,1,0,2.373,2.049,2.049,0,0,1-2.6,0,1.618,1.618,0,0,1,0-2.363A1.858,1.858,0,0,1,15.576,109.014Zm12.773-2.207v2.627h1.738v2.285H28.35v4.834a1.234,1.234,0,0,0,.215.83,1.152,1.152,0,0,0,.85.234,4.828,4.828,0,0,0,.82-.059v2.354a6.074,6.074,0,0,1-1.855.283,3.448,3.448,0,0,1-2.51-.8,3.282,3.282,0,0,1-.811-2.432v-5.244H23.711v-2.285h1.348v-2.627ZM37.334,120a3.716,3.716,0,0,1-.312-.947,3.06,3.06,0,0,1-2.539,1.143,3.749,3.749,0,0,1-2.539-.9,2.875,2.875,0,0,1-1.045-2.271,2.955,2.955,0,0,1,1.27-2.6,6.468,6.468,0,0,1,3.691-.879h1.016v-.559q0-1.462-1.26-1.462a1.03,1.03,0,0,0-1.172,1.158H31.152a2.95,2.95,0,0,1,1.3-2.487,5.479,5.479,0,0,1,3.325-.956,4.8,4.8,0,0,1,3.193.986,3.429,3.429,0,0,1,1.2,2.705v4.678a4.79,4.79,0,0,0,.449,2.227V120Zm-2.061-2.148a1.836,1.836,0,0,0,1.021-.264,1.653,1.653,0,0,0,.581-.6V115.3h-.957q-1.719,0-1.719,1.543a.942.942,0,0,0,.3.728A1.1,1.1,0,0,0,35.273,117.852Zm12.256-.82a.76.76,0,0,0-.439-.674,6.684,6.684,0,0,0-1.67-.527,7.615,7.615,0,0,1-2.031-.718,3.4,3.4,0,0,1-1.221-1.079,2.577,2.577,0,0,1-.42-1.455,2.92,2.92,0,0,1,1.2-2.4,4.948,4.948,0,0,1,3.145-.942,5.482,5.482,0,0,1,3.359.947,2.962,2.962,0,0,1,1.27,2.49h-3.3q0-1.27-1.338-1.27a1.326,1.326,0,0,0-.869.288.892.892,0,0,0-.352.718.819.819,0,0,0,.43.713,4.06,4.06,0,0,0,1.372.449,11.857,11.857,0,0,1,1.655.42,3.007,3.007,0,0,1,2.383,2.939,2.767,2.767,0,0,1-1.284,2.354,5.632,5.632,0,0,1-3.325.908,5.747,5.747,0,0,1-2.422-.488,4.05,4.05,0,0,1-1.66-1.328,3.007,3.007,0,0,1-.6-1.768h3.076a1.272,1.272,0,0,0,.488,1.069,2.009,2.009,0,0,0,1.2.337,1.58,1.58,0,0,0,1.011-.273A.875.875,0,0,0,47.529,117.031ZM58.193,120a3.716,3.716,0,0,1-.312-.947,3.06,3.06,0,0,1-2.539,1.143,3.749,3.749,0,0,1-2.539-.9,2.875,2.875,0,0,1-1.045-2.271,2.955,2.955,0,0,1,1.27-2.6,6.468,6.468,0,0,1,3.691-.879h1.016v-.559q0-1.462-1.26-1.462a1.03,1.03,0,0,0-1.172,1.158H52.012a2.95,2.95,0,0,1,1.3-2.487,5.479,5.479,0,0,1,3.325-.956,4.8,4.8,0,0,1,3.193.986,3.429,3.429,0,0,1,1.2,2.705v4.678a4.79,4.79,0,0,0,.449,2.227V120Zm-2.061-2.148a1.836,1.836,0,0,0,1.021-.264,1.653,1.653,0,0,0,.581-.6V115.3h-.957q-1.719,0-1.719,1.543a.942.942,0,0,0,.3.728A1.1,1.1,0,0,0,56.133,117.852Zm11.289-3.213a6.455,6.455,0,0,1,1.084-3.955,3.568,3.568,0,0,1,3.027-1.445,3.035,3.035,0,0,1,2.383,1.113V105h3.3v15H74.258l-.166-1.133a3.116,3.116,0,0,1-2.578,1.328,3.562,3.562,0,0,1-2.988-1.445A6.659,6.659,0,0,1,67.422,114.639Zm3.291.205q0,2.813,1.641,2.813a1.62,1.62,0,0,0,1.563-.918v-4.023a1.576,1.576,0,0,0-1.543-.937q-1.523,0-1.65,2.461ZM84.2,120.2a5.432,5.432,0,0,1-3.936-1.45,5.008,5.008,0,0,1-1.5-3.774V114.7a6.489,6.489,0,0,1,.6-2.861,4.395,4.395,0,0,1,1.753-1.919,5.292,5.292,0,0,1,2.734-.679,4.574,4.574,0,0,1,3.516,1.382,5.43,5.43,0,0,1,1.289,3.853v1.279H82.109a2.372,2.372,0,0,0,.771,1.4,2.3,2.3,0,0,0,1.543.508,2.958,2.958,0,0,0,2.441-1.094l1.5,1.777a4.2,4.2,0,0,1-1.743,1.353A5.891,5.891,0,0,1,84.2,120.2Zm-.371-8.418q-1.445,0-1.719,1.914h3.32v-.254a1.63,1.63,0,0,0-.4-1.226A1.593,1.593,0,0,0,83.828,111.777ZM98.428,120h-3.3V109.434h3.3Zm-3.5-13.291a1.469,1.469,0,0,1,.508-1.152,2.159,2.159,0,0,1,2.637,0,1.561,1.561,0,0,1,0,2.3,2.159,2.159,0,0,1-2.637,0A1.469,1.469,0,0,1,94.932,106.709Zm8.633,2.725.107,1.24a3.633,3.633,0,0,1,3.018-1.436,2.675,2.675,0,0,1,2.705,1.592,3.517,3.517,0,0,1,3.105-1.592q3.213,0,3.3,3.887V120h-3.3v-6.67a2.014,2.014,0,0,0-.273-1.182,1.164,1.164,0,0,0-1-.371,1.559,1.559,0,0,0-1.455.869l.01.137V120h-3.3v-6.65a2.117,2.117,0,0,0-.264-1.2,1.161,1.161,0,0,0-1.006-.371,1.578,1.578,0,0,0-1.445.869V120h-3.291V109.434Zm23.926,5.361a6.372,6.372,0,0,1-1.108,3.931,3.554,3.554,0,0,1-2.993,1.47A3.046,3.046,0,0,1,121,119.131v4.932h-3.291V109.434h3.076l.1.977a3.046,3.046,0,0,1,2.49-1.172,3.582,3.582,0,0,1,3.037,1.44,6.45,6.45,0,0,1,1.084,3.96Zm-3.291-.205q0-2.812-1.641-2.812a1.549,1.549,0,0,0-1.562.84v4.16a1.6,1.6,0,0,0,1.582.879q1.572,0,1.621-2.715Zm11.035,4.268a3.393,3.393,0,0,1-2.822,1.338,3.328,3.328,0,0,1-2.632-1.011,4.251,4.251,0,0,1-.894-2.905v-6.846h3.291V116.3a1.183,1.183,0,0,0,1.318,1.357,1.72,1.72,0,0,0,1.611-.811v-7.412h3.311V120h-3.086Zm10.1,1.338a5.432,5.432,0,0,1-3.936-1.45,5.008,5.008,0,0,1-1.5-3.774V114.7a6.489,6.489,0,0,1,.6-2.861,4.395,4.395,0,0,1,1.753-1.919,5.292,5.292,0,0,1,2.734-.679,4.574,4.574,0,0,1,3.516,1.382,5.43,5.43,0,0,1,1.289,3.853v1.279h-6.543a2.372,2.372,0,0,0,.771,1.4,2.3,2.3,0,0,0,1.543.508A2.958,2.958,0,0,0,148,116.563l1.5,1.777a4.2,4.2,0,0,1-1.743,1.353A5.891,5.891,0,0,1,145.332,120.2Zm-.371-8.418q-1.445,0-1.719,1.914h3.32v-.254a1.63,1.63,0,0,0-.4-1.226A1.593,1.593,0,0,0,144.961,111.777Zm11.68,5.254a.76.76,0,0,0-.439-.674,6.684,6.684,0,0,0-1.67-.527,7.615,7.615,0,0,1-2.031-.718,3.4,3.4,0,0,1-1.221-1.079,2.577,2.577,0,0,1-.42-1.455,2.92,2.92,0,0,1,1.2-2.4,4.948,4.948,0,0,1,3.145-.942,5.482,5.482,0,0,1,3.359.947,2.962,2.962,0,0,1,1.27,2.49h-3.3q0-1.27-1.338-1.27a1.326,1.326,0,0,0-.869.288.892.892,0,0,0-.352.718.819.819,0,0,0,.43.713,4.06,4.06,0,0,0,1.372.449,11.858,11.858,0,0,1,1.655.42,3.007,3.007,0,0,1,2.383,2.939,2.767,2.767,0,0,1-1.284,2.354,5.632,5.632,0,0,1-3.325.908,5.747,5.747,0,0,1-2.422-.488,4.05,4.05,0,0,1-1.66-1.328,3.007,3.007,0,0,1-.6-1.768H153.6a1.272,1.272,0,0,0,.488,1.069,2.009,2.009,0,0,0,1.2.337,1.58,1.58,0,0,0,1.011-.273A.875.875,0,0,0,156.641,117.031Zm8.545-10.225v2.627h1.738v2.285h-1.738v4.834a1.234,1.234,0,0,0,.215.83,1.152,1.152,0,0,0,.85.234,4.828,4.828,0,0,0,.82-.059v2.354a6.074,6.074,0,0,1-1.855.283,3.448,3.448,0,0,1-2.51-.8,3.282,3.282,0,0,1-.811-2.432v-5.244h-1.348v-2.285h1.348v-2.627Zm2.324,7.813a6.236,6.236,0,0,1,.615-2.817,4.4,4.4,0,0,1,1.768-1.9,5.323,5.323,0,0,1,2.705-.664,4.858,4.858,0,0,1,3.74,1.47,5.64,5.64,0,0,1,1.367,4v.117a5.472,5.472,0,0,1-1.372,3.921,4.871,4.871,0,0,1-3.716,1.45,4.927,4.927,0,0,1-3.623-1.353,5.29,5.29,0,0,1-1.475-3.667Zm3.291.205a3.932,3.932,0,0,0,.459,2.148,1.529,1.529,0,0,0,1.357.684q1.758,0,1.8-2.705v-.332q0-2.842-1.816-2.842-1.65,0-1.787,2.451Z" transform="translate(240.031 3015)" fill="#12263f"/>
    <path id="Trazado_148673" data-name="Trazado 148673" d="M1.074,0V-14.219h4.58a6.737,6.737,0,0,1,3.389.854,6.006,6.006,0,0,1,2.349,2.412,7.283,7.283,0,0,1,.854,3.491v.654a7.325,7.325,0,0,1-.825,3.5A6.032,6.032,0,0,1,9.1-.884,6.589,6.589,0,0,1,5.752,0ZM4.5-11.572v8.936H5.693a2.666,2.666,0,0,0,2.266-1.05,5.145,5.145,0,0,0,.791-3.12v-.615a5.1,5.1,0,0,0-.791-3.105,2.713,2.713,0,0,0-2.3-1.045Zm8.936,6.191A6.236,6.236,0,0,1,14.053-8.2a4.4,4.4,0,0,1,1.768-1.9,5.323,5.323,0,0,1,2.705-.664,4.858,4.858,0,0,1,3.74,1.47,5.64,5.64,0,0,1,1.367,4v.117a5.472,5.472,0,0,1-1.372,3.921A4.871,4.871,0,0,1,18.545.2a4.927,4.927,0,0,1-3.623-1.353,5.29,5.29,0,0,1-1.475-3.667Zm3.291.205a3.932,3.932,0,0,0,.459,2.148,1.529,1.529,0,0,0,1.357.684q1.758,0,1.8-2.705v-.332q0-2.842-1.816-2.842-1.65,0-1.787,2.451Zm11.377-5.391.107,1.24a3.583,3.583,0,0,1,3.018-1.436,3.015,3.015,0,0,1,2.466.986,4.7,4.7,0,0,1,.845,2.969V0h-3.3V-6.67a1.783,1.783,0,0,0-.322-1.177,1.491,1.491,0,0,0-1.172-.376,1.569,1.569,0,0,0-1.436.762V0H25.02V-10.566Zm7.842,5.205a6.455,6.455,0,0,1,1.084-3.955,3.568,3.568,0,0,1,3.027-1.445,3.035,3.035,0,0,1,2.383,1.113V-15h3.3V0H42.783l-.166-1.133A3.116,3.116,0,0,1,40.039.2,3.562,3.562,0,0,1,37.051-1.25,6.659,6.659,0,0,1,35.947-5.361Zm3.291.205q0,2.813,1.641,2.813a1.62,1.62,0,0,0,1.563-.918V-7.285A1.576,1.576,0,0,0,40.9-8.223q-1.523,0-1.65,2.461ZM52.725.2a5.432,5.432,0,0,1-3.936-1.45,5.008,5.008,0,0,1-1.5-3.774V-5.3a6.489,6.489,0,0,1,.6-2.861,4.395,4.395,0,0,1,1.753-1.919,5.292,5.292,0,0,1,2.734-.679A4.574,4.574,0,0,1,55.889-9.38a5.43,5.43,0,0,1,1.289,3.853v1.279H50.635a2.372,2.372,0,0,0,.771,1.4,2.3,2.3,0,0,0,1.543.508,2.958,2.958,0,0,0,2.441-1.094l1.5,1.777A4.2,4.2,0,0,1,55.151-.308,5.891,5.891,0,0,1,52.725.2Zm-.371-8.418q-1.445,0-1.719,1.914h3.32v-.254a1.63,1.63,0,0,0-.4-1.226A1.593,1.593,0,0,0,52.354-8.223Zm8.193,5.029a1.874,1.874,0,0,1,1.3.464,1.522,1.522,0,0,1,.518,1.187,1.522,1.522,0,0,1-.518,1.187,1.874,1.874,0,0,1-1.3.464,1.858,1.858,0,0,1-1.3-.469,1.533,1.533,0,0,1-.513-1.182,1.533,1.533,0,0,1,.513-1.182A1.858,1.858,0,0,1,60.547-3.193Zm0-7.793a1.874,1.874,0,0,1,1.3.464,1.522,1.522,0,0,1,.518,1.187,1.522,1.522,0,0,1-.518,1.187,1.874,1.874,0,0,1-1.3.464,1.858,1.858,0,0,1-1.3-.469,1.533,1.533,0,0,1-.513-1.182,1.533,1.533,0,0,1,.513-1.182A1.858,1.858,0,0,1,60.547-10.986Z" transform="translate(51.031 3058)" fill="#12263f"/>
    <path id="Trazado_145296" data-name="Trazado 145296" d="M-3458.651-9387.567h537.6" transform="translate(3492.031 12362)" fill="none" stroke="#12263f" stroke-width="1" stroke-dasharray="2"/>
  </g>
</svg>
