<svg xmlns="http://www.w3.org/2000/svg" xmlns:xlink="http://www.w3.org/1999/xlink" width="183.348" height="183.348" viewBox="0 0 183.348 183.348">
  <defs>
    <radialGradient id="radial-gradient" cx="0.076" cy="0.019" r="1.465" gradientTransform="translate(0.001)" gradientUnits="objectBoundingBox">
      <stop offset="0" stop-color="#f6f6f7"/>
      <stop offset="0.477" stop-color="#f9f9fa"/>
      <stop offset="0.715" stop-color="#fff"/>
    </radialGradient>
  </defs>
  <g id="Grupo_49869" data-name="Grupo 49869" transform="translate(0 0.001)">
    <g id="Grupo_18531" data-name="Grupo 18531" transform="translate(0 0)">
      <g id="Grupo_18423" data-name="Grupo 18423" transform="translate(0 0)">
        <g id="Grupo_18421" data-name="Grupo 18421">
          <g id="Grupo_18420" data-name="Grupo 18420">
            <g id="Grupo_18419" data-name="Grupo 18419">
              <path id="Trazado_40936" data-name="Trazado 40936" d="M377.97,2237.392a91.673,91.673,0,1,1-91.672-91.671A91.672,91.672,0,0,1,377.97,2237.392Z" transform="translate(-194.623 -2145.721)" fill="#fff"/>
            </g>
          </g>
        </g>
        <path id="Trazado_40937" data-name="Trazado 40937" d="M376.482,2235.77a91.671,91.671,0,1,0-91.672,91.676A91.311,91.311,0,0,0,376.482,2235.77Z" transform="translate(-193.135 -2144.099)" fill="url(#radial-gradient)"/>
        <path id="Trazado_40938" data-name="Trazado 40938" d="M341.45,2222.48a69.974,69.974,0,1,0-69.974,69.974A69.714,69.714,0,0,0,341.45,2222.48Z" transform="translate(-179.525 -2130.503)" fill="none" stroke="#6595bf" stroke-miterlimit="10" stroke-width="4"/>
        <g id="Grupo_18422" data-name="Grupo 18422" transform="translate(16.241 51.468)">
          <path id="Trazado_40939" data-name="Trazado 40939" d="M358.381,2164.488a91.684,91.684,0,0,1-157.836,91.294,91.393,91.393,0,0,0,157.836-91.294Z" transform="translate(-200.545 -2164.488)" fill="#eceef0"/>
        </g>
      </g>
    </g>
    <g id="Grupo_87549" data-name="Grupo 87549" transform="translate(2486.63 -672.95)">
      <path id="Trazado_138519" data-name="Trazado 138519" d="M-2405.005,912.35a22.59,22.59,0,0,1,22.706,22.6c-.076,12.385-10.383,22.3-23.089,22.212a22.578,22.578,0,0,1-22.4-22.694C-2427.71,922.281-2417.4,912.278-2405.005,912.35Zm18.928,22.4a18.848,18.848,0,0,0-18.85-18.726,18.836,18.836,0,0,0-19.094,18.784,18.883,18.883,0,0,0,18.8,18.7A18.871,18.871,0,0,0-2386.077,934.752Z" transform="translate(0 -159.373)" fill="#6595bf"/>
      <path id="Trazado_138520" data-name="Trazado 138520" d="M-2270.858,759.985a28.878,28.878,0,0,0-3.915-3.666,18.423,18.423,0,0,0-3.28-2.111,1.313,1.313,0,0,1-.8-1.412c.022-7.151-.013-14.3.043-21.453.009-1.071-.324-1.292-1.292-1.239-1.366.076-2.74,0-4.109.024-.658.012-.764-.178-.437-.742q4.621-7.973,9.216-15.961c.344-.6.523-.526.835.016q4.592,7.989,9.216,15.96c.34.586.189.743-.441.731-1.269-.024-2.542.047-3.808-.026-.872-.05-1.041.284-1.038,1.085q.041,13.534.021,27.067,0,.8,0,1.6Z" transform="translate(-114.293)" fill="#6595bf"/>
      <path id="Trazado_138521" data-name="Trazado 138521" d="M-2357.6,784.613c1.843,3.183,3.6,6.209,5.347,9.236,1.419,2.455,2.814,4.923,4.261,7.361.4.67.287.841-.466.821-1.334-.034-2.67.008-4-.026-.6-.015-.823.173-.809.8.037,1.668-.005,3.338.026,5.007.011.6-.206.748-.77.654a20.179,20.179,0,0,0-6.378-.144c-.984.15-1.1-.226-1.067-1.053.058-1.5,0-3,.026-4.506.011-.565-.187-.76-.748-.751-1.569.026-3.138,0-4.707.015-.476,0-.736-.058-.422-.6C-2364.105,795.882-2360.906,790.338-2357.6,784.613Z" transform="translate(-48.243 -57.25)" fill="#6595bf"/>
      <path id="Trazado_138523" data-name="Trazado 138523" d="M-2350.7,967.064c0-.033,0-.067,0-.1,0-1.2.313-2.526-.091-3.573-.414-1.074-1.975-.922-2.975-1.453a7.3,7.3,0,0,1-4.107-7.76,6.756,6.756,0,0,1,5.908-5.688c1-.176,1.5-.482,1.265-1.544-.244-1.106.524-.905,1.182-.966.809-.075,1.131.218.967,1-.229,1.087.311,1.365,1.29,1.541a6.693,6.693,0,0,1,5.382,4.669c.237.664.062.891-.619.934a23.93,23.93,0,0,0-2.584.3c-.5.086-.694-.045-.865-.523a3.734,3.734,0,0,0-2-2.131c-.384-.183-.6-.207-.6.34.015,2.2.009,4.409,0,6.613,0,.4.15.55.548.665,1.022.3,2.034.64,3.023,1.033a6.232,6.232,0,0,1,4.286,5.632,7.431,7.431,0,0,1-3.094,6.983,8.433,8.433,0,0,1-3.865,1.536c-.716.1-1.023.357-.9,1.077a1.256,1.256,0,0,1,0,.4c-.058.38.212.975-.164,1.1a5.021,5.021,0,0,1-1.778.068c-.25-.012-.2-.3-.206-.489a10.218,10.218,0,0,1,.006-1.2c.057-.55-.161-.706-.7-.8a8.035,8.035,0,0,1-6.961-6.522c-.1-.465-.1-.648.433-.688,1-.074,1.993-.2,2.984-.336a.678.678,0,0,1,.866.553,5.7,5.7,0,0,0,2.7,3.221c.47.262.7.277.681-.383C-2350.723,969.4-2350.7,968.233-2350.7,967.064Zm2.149.4c0,1.068.021,2.137-.009,3.2-.016.572.1.77.735.594a4.025,4.025,0,0,0,3.116-3.915,3.908,3.908,0,0,0-3.257-3.569c-.469-.1-.595.041-.589.48C-2348.537,965.329-2348.547,966.4-2348.547,967.466Zm-2.186-15.869a3.605,3.605,0,0,0-3.068,3.436,3.653,3.653,0,0,0,3.068,3.419Z" transform="translate(-55.474 -186.25)" fill="#6595bf"/>
    </g>
    <path id="Trazado_141868" data-name="Trazado 141868" d="M-1979.623,75.383q5.577,0,11.155,0a3.91,3.91,0,0,1,4.252,4.182q.025,7.381,0,14.761a3.922,3.922,0,0,1-4.138,4.205q-11.325.042-22.649,0a3.885,3.885,0,0,1-4.068-4.142q-.01-7.437.009-14.874a3.863,3.863,0,0,1,4.169-4.129C-1987.135,75.376-1983.379,75.383-1979.623,75.383Zm11.415,3.935h-22.906V94.512h22.906Z" transform="translate(2091.291 34.138)" fill="#6595bf"/>
    <text id="_" data-name="+" transform="translate(105.87 127.396)" fill="#6595bf" font-size="19" font-family="Roboto-Regular, Roboto"><tspan x="0" y="0">+</tspan></text>
  </g>
</svg>
