<svg id="Grupo_54428" data-name="Grupo 54428" xmlns="http://www.w3.org/2000/svg" xmlns:xlink="http://www.w3.org/1999/xlink" width="91.927" height="91.927" viewBox="0 0 91.927 91.927">
  <defs>
    <radialGradient id="radial-gradient" cx="0.076" cy="0.019" r="1.465" gradientTransform="translate(0.001)" gradientUnits="objectBoundingBox">
      <stop offset="0" stop-color="#f6f6f7"/>
      <stop offset="0.477" stop-color="#f9f9fa"/>
      <stop offset="0.715" stop-color="#fff"/>
    </radialGradient>
  </defs>
  <g id="Grupo_42274" data-name="Grupo 42274">
    <g id="Grupo_18423" data-name="Grupo 18423">
      <g id="Grupo_18421" data-name="Grupo 18421">
        <g id="Grupo_18420" data-name="Grupo 18420">
          <g id="Grupo_18419" data-name="Grupo 18419">
            <path id="Trazado_40936" data-name="Trazado 40936" d="M286.55,2191.684a45.964,45.964,0,1,1-45.963-45.962A45.963,45.963,0,0,1,286.55,2191.684Z" transform="translate(-194.623 -2145.721)" fill="#fff"/>
          </g>
        </g>
      </g>
      <path id="Trazado_40937" data-name="Trazado 40937" d="M286.23,2191.334a45.963,45.963,0,1,0-45.963,45.965A45.782,45.782,0,0,0,286.23,2191.334Z" transform="translate(-194.303 -2145.372)" fill="url(#radial-gradient)"/>
      <path id="Trazado_40938" data-name="Trazado 40938" d="M272.56,2188.562a35.084,35.084,0,1,0-35.084,35.084A34.953,34.953,0,0,0,272.56,2188.562Z" transform="translate(-191.373 -2142.446)" fill="none" stroke="#d9a171" stroke-miterlimit="10" stroke-width="4"/>
      <g id="Grupo_18422" data-name="Grupo 18422" transform="translate(8.143 25.805)">
        <path id="Trazado_40939" data-name="Trazado 40939" d="M279.682,2164.488a45.969,45.969,0,0,1-79.137,45.773,45.823,45.823,0,0,0,79.137-45.773Z" transform="translate(-200.545 -2164.488)" fill="#eceef0"/>
      </g>
    </g>
  </g>
  <g id="ihebxY" transform="translate(303.686 -1771.488)">
    <g id="Grupo_90663" data-name="Grupo 90663" transform="translate(-273.773 1795.355)">
      <path id="Trazado_145259" data-name="Trazado 145259" d="M-247.88,1813.744c-1.869-.443-1.868-.443-1.868-2.127,0-2.846,0-5.691,0-8.73-1.472,0-2.878-.045-4.279.016-.977.042-1.362-.318-1.328-1.3.049-1.412.012-2.826.012-4.383h-1.4c-4.548,0-9.1.024-13.643-.018-1.106-.01-1.542.313-1.537,1.489q.059,13.171,0,26.343c-.006,1.183.44,1.514,1.537,1.489,2.253-.052,4.508-.016,6.762-.016,1.609,0,1.609,0,2.163,1.813h-2.823c-2.689,0-5.379-.043-8.067.02-1.115.026-1.427-.395-1.424-1.458q.042-15.07,0-30.14c0-1.038.376-1.394,1.391-1.389,5.378.028,10.756,0,16.134.042a2.46,2.46,0,0,1,1.529.652c2.107,2.031,4.16,4.117,6.206,6.209a1.867,1.867,0,0,1,.605,1.073C-247.861,1806.768-247.88,1810.206-247.88,1813.744Z" transform="translate(273.773 -1795.355)" fill="#12263f"/>
      <path id="Trazado_145260" data-name="Trazado 145260" d="M-203.345,1889.33l7.91,5.309c1.365.917,1.719,2.22.893,3.29-.842,1.09-2.193,1.1-3.4-.01-2.331-2.136-4.652-4.282-7.061-6.5a9.157,9.157,0,0,1-8.357,2.105,8.671,8.671,0,0,1-5.017-3.358,8.977,8.977,0,0,1,.615-11.362,8.944,8.944,0,0,1,11.362-1.495C-202.447,1879.814-201.291,1884.24-203.345,1889.33Zm-7.8,2.275a6.783,6.783,0,0,0,6.723-6.722,6.815,6.815,0,0,0-6.795-6.782,6.771,6.771,0,0,0-6.7,6.736A6.742,6.742,0,0,0-211.143,1891.6Z" transform="translate(232.848 -1856.799)" fill="#12263f"/>
      <path id="Trazado_145261" data-name="Trazado 145261" d="M-245.386,1843.482q-3.56,0-7.12,0c-.532,0-1.166.031-.989-.736a1.235,1.235,0,0,1,.967-.629q7.179-.062,14.359,0c.321,0,.639.429.959.658-.312.236-.62.669-.938.677C-240.56,1843.509-242.973,1843.483-245.386,1843.482Z" transform="translate(258.331 -1830.995)" fill="#12263f"/>
      <path id="Trazado_145262" data-name="Trazado 145262" d="M-245.539,1862.582c-2.334,0-4.669.026-7-.029-.344-.008-.912-.344-.974-.619-.169-.75.451-.747.992-.747q7.12,0,14.241,0c.5,0,1.07-.106,1.068.715,0,.856-.611.67-1.087.672C-240.713,1862.589-243.126,1862.582-245.539,1862.582Z" transform="translate(258.343 -1845.561)" fill="#12263f"/>
      <path id="Trazado_145263" data-name="Trazado 145263" d="M-241.068,1822.973c.369,1.077.078,1.421-.92,1.409-3.509-.04-7.018-.017-10.528-.015-.525,0-1.163.048-.994-.723a1.2,1.2,0,0,1,.936-.642C-248.753,1822.956-244.931,1822.973-241.068,1822.973Z" transform="translate(258.34 -1816.416)" fill="#12263f"/>
      <path id="Trazado_145264" data-name="Trazado 145264" d="M-243.807,1880.381a2.252,2.252,0,0,1-2.382,1.393c-2.2-.078-4.412,0-6.617-.051-.269-.006-.529-.383-.794-.588.264-.251.524-.715.794-.72,2.6-.055,5.2-.033,7.8-.033Z" transform="translate(258.389 -1860.198)" fill="#12263f"/>
      <path id="Trazado_145265" data-name="Trazado 145265" d="M-246.795,1899.567c.126,1.021-.2,1.41-1.156,1.373-1.573-.06-3.151.016-4.723-.044-.312-.012-.61-.384-.914-.59.307-.246.606-.7.921-.706C-250.711,1899.535-248.751,1899.567-246.795,1899.567Z" transform="translate(258.379 -1874.828)" fill="#12263f"/>
    </g>
  </g>
</svg>
