<svg xmlns="http://www.w3.org/2000/svg" width="279.747" height="468.788" viewBox="0 0 279.747 468.788">
  <g id="Grupo_89370" data-name="Grupo 89370" transform="translate(-998.749 -7443.18)">
    <g id="Grupo_89369" data-name="Grupo 89369" transform="translate(1167.662 7450.991)">
      <path id="Trazado_108078" data-name="Trazado 108078" d="M408.918,237.52l-72.8-13.938a4.1,4.1,0,0,1-3.266-4.8l23.455-122.4a5.837,5.837,0,0,1,6.829-4.637l69.408,13.288a5.828,5.828,0,0,1,4.628,6.82l-23.455,122.4a4.1,4.1,0,0,1-4.8,3.266Z" transform="translate(-326.444 -90.434)" fill="#5e6178"/>
      <g id="Grupo_57994" data-name="Grupo 57994" transform="translate(6.279 1.193)" opacity="0.4">
        <path id="Trazado_108079" data-name="Trazado 108079" d="M408.858,237.5l-72.809-13.938a4.1,4.1,0,0,1-3.257-4.808l23.455-122.4a5.837,5.837,0,0,1,6.82-4.628l69.417,13.288a5.837,5.837,0,0,1,4.628,6.82l-23.455,122.4A4.1,4.1,0,0,1,408.858,237.5Z" transform="translate(-332.717 -91.625)" fill="#d9a171"/>
      </g>
      <g id="Grupo_58030" data-name="Grupo 58030" transform="translate(0 0)">
        <path id="Trazado_108080" data-name="Trazado 108080" d="M401.889,236.171l-72.8-13.938a4.087,4.087,0,0,1-3.257-4.8l23.455-122.4a5.819,5.819,0,0,1,6.82-4.628l69.417,13.279a5.846,5.846,0,0,1,4.628,6.829L406.7,232.915A4.1,4.1,0,0,1,401.889,236.171Z" transform="translate(-325.756 -90.303)" fill="#5e6178"/>
        <rect id="Rectángulo_8527" data-name="Rectángulo 8527" width="27.767" height="12.269" rx="2.42" transform="matrix(0.982, 0.188, -0.188, 0.982, 16.038, 103.579)" fill="#5e6178"/>
        <g id="Grupo_57995" data-name="Grupo 57995" transform="translate(13.731 103.579)" opacity="0.2">
          <rect id="Rectángulo_8528" data-name="Rectángulo 8528" width="27.767" height="12.269" rx="2.42" transform="matrix(0.982, 0.188, -0.188, 0.982, 2.307, 0)" fill="#d9a171"/>
        </g>
        <g id="Grupo_57996" data-name="Grupo 57996" transform="translate(23.116 13.222)">
          <rect id="Rectángulo_8529" data-name="Rectángulo 8529" width="27.614" height="70.392" transform="matrix(0.188, -0.982, 0.982, 0.188, 0.133, 27.259)" fill="#fafafa"/>
          <path id="Trazado_108081" data-name="Trazado 108081" d="M420.626,145.447l.081-.487c.063-.325.153-.794.262-1.407.235-1.236.577-3.049,1.01-5.413l3.753-19.846.072.09-69.138-13.2h0l.135-.09c-1.8,9.481-3.608,18.647-5.2,27.117l-.09-.135,49.544,9.535,14.389,2.788,3.852.758.992.189.343.081-.334-.063-.983-.18-3.834-.722-14.371-2.706L351.5,132.312h-.117v-.117c1.615-8.471,3.365-17.636,5.187-27.117v-.117h.117l69.129,13.27h.081v.081c-1.624,8.417-2.941,15.2-3.852,19.846-.451,2.327-.8,4.132-1.046,5.359l-.271,1.389Z" transform="translate(-351.38 -104.96)" fill="#344154"/>
        </g>
        <g id="Grupo_57998" data-name="Grupo 57998" transform="translate(20.942 51.699)">
          <rect id="Rectángulo_8530" data-name="Rectángulo 8530" width="11.962" height="11.962" rx="2.08" transform="matrix(0.982, 0.188, -0.188, 0.982, 4.056, 0.344)" fill="#5e6178"/>
          <g id="Grupo_57997" data-name="Grupo 57997" transform="translate(1.807 0.344)" opacity="0.2">
            <rect id="Rectángulo_8531" data-name="Rectángulo 8531" width="11.962" height="11.962" rx="2.08" transform="matrix(0.982, 0.188, -0.188, 0.982, 2.25, 0)" fill="#d9a171"/>
          </g>
          <rect id="Rectángulo_8532" data-name="Rectángulo 8532" width="11.962" height="11.962" rx="2.08" transform="matrix(0.982, 0.188, -0.188, 0.982, 2.25, 0)" fill="#344154"/>
          <path id="Trazado_108082" data-name="Trazado 108082" d="M357.945,152.707l-.9,4.9-1.137-.217.767-3.987-.983-.189.171-.9Z" transform="translate(-349.628 -148.072)" fill="#fff"/>
        </g>
        <g id="Grupo_58000" data-name="Grupo 58000" transform="translate(36.321 55.179)">
          <rect id="Rectángulo_8533" data-name="Rectángulo 8533" width="11.962" height="11.962" rx="2.08" transform="matrix(0.982, 0.188, -0.188, 0.982, 5.069, 0.008)" fill="#5e6178"/>
          <g id="Grupo_57999" data-name="Grupo 57999" transform="translate(2.82 0.008)" opacity="0.2">
            <rect id="Rectángulo_8534" data-name="Rectángulo 8534" width="11.962" height="11.962" rx="2.08" transform="matrix(0.982, 0.188, -0.188, 0.982, 2.25, 0)" fill="#d9a171"/>
          </g>
          <rect id="Rectángulo_8535" data-name="Rectángulo 8535" width="11.941" height="11.941" rx="2.076" transform="matrix(0.982, 0.19, -0.19, 0.982, 2.273, 0)" fill="#344154"/>
          <path id="Trazado_108083" data-name="Trazado 108083" d="M377.059,160.509l-.18.9-3.7-.7.144-.74,2.228-1.416c.514-.334.64-.568.686-.812.072-.379-.153-.659-.668-.758a1.227,1.227,0,0,0-1.11.3l-.722-.686a2.291,2.291,0,0,1,2.12-.541c1.083.208,1.705.9,1.534,1.8a1.985,1.985,0,0,1-1.11,1.389l-1.335.848Z" transform="translate(-366.72 -151.911)" fill="#fff"/>
        </g>
        <g id="Grupo_58002" data-name="Grupo 58002" transform="translate(54.319 58.088)">
          <rect id="Rectángulo_8536" data-name="Rectángulo 8536" width="11.962" height="11.962" rx="2.08" transform="matrix(0.982, 0.188, -0.188, 0.982, 4.065, 0.344)" fill="#5e6178"/>
          <g id="Grupo_58001" data-name="Grupo 58001" transform="translate(1.816 0.344)" opacity="0.2">
            <rect id="Rectángulo_8537" data-name="Rectángulo 8537" width="11.962" height="11.962" rx="2.08" transform="matrix(0.982, 0.188, -0.188, 0.982, 2.25, 0)" fill="#d9a171"/>
          </g>
          <rect id="Rectángulo_8538" data-name="Rectángulo 8538" width="11.962" height="11.962" rx="2.08" transform="matrix(0.982, 0.188, -0.188, 0.982, 2.25, 0)" fill="#344154"/>
          <path id="Trazado_108084" data-name="Trazado 108084" d="M395.941,163.559c-.162.821-.947,1.461-2.336,1.191a3.428,3.428,0,0,1-1.8-.9l.6-.785a2.481,2.481,0,0,0,1.317.713c.568.108.965-.054,1.037-.451s-.153-.659-.8-.785l-.514-.1.144-.749,1.227-.9-2.084-.4.171-.9,3.428.659-.144.74-1.344,1.046a1.416,1.416,0,0,1,1.1,1.624Z" transform="translate(-386.54 -155.164)" fill="#fff"/>
        </g>
        <g id="Grupo_58005" data-name="Grupo 58005" transform="translate(71.345 61.35)">
          <rect id="Rectángulo_8539" data-name="Rectángulo 8539" width="11.962" height="11.962" rx="2.08" transform="matrix(0.982, 0.188, -0.188, 0.982, 4.021, 0.344)" fill="#5e6178"/>
          <g id="Grupo_58003" data-name="Grupo 58003" transform="translate(1.771 0.344)" opacity="0.2">
            <rect id="Rectángulo_8540" data-name="Rectángulo 8540" width="11.962" height="11.962" rx="2.08" transform="matrix(0.982, 0.188, -0.188, 0.982, 2.25, 0)" fill="#d9a171"/>
          </g>
          <rect id="Rectángulo_8541" data-name="Rectángulo 8541" width="11.962" height="11.962" rx="2.08" transform="matrix(0.982, 0.188, -0.188, 0.982, 2.25, 0)" fill="#344154"/>
          <g id="Grupo_58004" data-name="Grupo 58004" transform="translate(4.338 3.611)">
            <rect id="Rectángulo_8542" data-name="Rectángulo 8542" width="0.46" height="5.34" transform="matrix(0.188, -0.982, 0.982, 0.188, 0, 2.888)" fill="#fff"/>
            <path id="Trazado_108085" data-name="Trazado 108085" d="M413.805,163.348a.9.9,0,1,1-.686-1.01A.9.9,0,0,1,413.805,163.348Z" transform="translate(-409.882 -162.313)" fill="#fff"/>
            <path id="Trazado_108086" data-name="Trazado 108086" d="M412.8,168.441a.9.9,0,1,1-.73-.807A.9.9,0,0,1,412.8,168.441Z" transform="translate(-409.784 -162.833)" fill="#fff"/>
          </g>
        </g>
        <g id="Grupo_58007" data-name="Grupo 58007" transform="translate(17.646 68.914)">
          <g id="Grupo_58006" data-name="Grupo 58006" transform="translate(2.029 0.521)" opacity="0.2">
            <path id="Trazado_108087" data-name="Trazado 108087" d="M357.881,180.847l-9.3-1.8a1.245,1.245,0,0,1-.992-1.452l1.8-9.31a1.227,1.227,0,0,1,1.452-.983l9.31,1.8a1.227,1.227,0,0,1,.983,1.461l-1.8,9.3a1.254,1.254,0,0,1-1.452.983Z" transform="translate(-347.566 -167.273)" fill="#d9a171"/>
          </g>
          <rect id="Rectángulo_8543" data-name="Rectángulo 8543" width="11.962" height="11.962" rx="2.08" transform="matrix(0.982, 0.188, -0.188, 0.982, 2.25, 0)" fill="#344154"/>
          <path id="Trazado_108088" data-name="Trazado 108088" d="M354.817,175.959l-.8-.153-.2,1.028-1.1-.217.2-1.028-2.643-.505.144-.758,2.9-2.706,1.191.235-2.706,2.535,1.317.253.18-.9,1.064.207-.171.9.794.153Z" transform="translate(-345.802 -167.177)" fill="#fff"/>
        </g>
        <g id="Grupo_58009" data-name="Grupo 58009" transform="translate(34.039 72.058)">
          <rect id="Rectángulo_8544" data-name="Rectángulo 8544" width="11.962" height="11.962" rx="2.08" transform="matrix(0.982, 0.188, -0.188, 0.982, 4.056, 0.344)" fill="#5e6178"/>
          <g id="Grupo_58008" data-name="Grupo 58008" transform="translate(1.807 0.344)" opacity="0.2">
            <rect id="Rectángulo_8545" data-name="Rectángulo 8545" width="11.962" height="11.962" rx="2.08" transform="matrix(0.982, 0.188, -0.188, 0.982, 2.25, 0)" fill="#d9a171"/>
          </g>
          <rect id="Rectángulo_8546" data-name="Rectángulo 8546" width="11.962" height="11.962" rx="2.08" transform="matrix(0.982, 0.188, -0.188, 0.982, 2.25, 0)" fill="#344154"/>
          <path id="Trazado_108089" data-name="Trazado 108089" d="M372.91,178.851c-.171.9-.947,1.507-2.345,1.236a3.329,3.329,0,0,1-1.8-.9l.613-.776a2.382,2.382,0,0,0,1.308.7c.559.108.956-.063,1.037-.46s-.135-.686-1.019-.9l-1.254-.235.776-2.706,3,.577-.18.9-2.039-.4-.253.9.4.072C372.585,177.228,373.072,177.985,372.91,178.851Z" transform="translate(-364.005 -170.634)" fill="#fff"/>
        </g>
        <g id="Grupo_58011" data-name="Grupo 58011" transform="translate(51.023 75.303)">
          <rect id="Rectángulo_8547" data-name="Rectángulo 8547" width="11.962" height="11.962" rx="2.08" transform="matrix(0.982, 0.188, -0.188, 0.982, 4.064, 0.353)" fill="#5e6178"/>
          <g id="Grupo_58010" data-name="Grupo 58010" transform="translate(1.814 0.353)" opacity="0.2">
            <rect id="Rectángulo_8548" data-name="Rectángulo 8548" width="11.962" height="11.962" rx="2.08" transform="matrix(0.982, 0.188, -0.188, 0.982, 2.25, 0)" fill="#d9a171"/>
          </g>
          <rect id="Rectángulo_8549" data-name="Rectángulo 8549" width="11.962" height="11.962" rx="2.08" transform="matrix(0.982, 0.188, -0.188, 0.982, 2.25, 0)" fill="#344154"/>
          <path id="Trazado_108090" data-name="Trazado 108090" d="M392.14,182.588a1.714,1.714,0,0,1-2.165,1.281c-1.353-.262-2.03-1.272-1.723-2.851a2.418,2.418,0,0,1,3-2.156,2.751,2.751,0,0,1,1.3.6l-.586.749a1.624,1.624,0,0,0-.9-.415,1.317,1.317,0,0,0-1.651,1.155,1.7,1.7,0,0,1,1.29-.207,1.579,1.579,0,0,1,1.434,1.849Zm-1.11-.153a.749.749,0,0,0-.695-.9.776.776,0,0,0-.983.577c-.081.415.171.785.722.9a.74.74,0,0,0,.956-.613Z" transform="translate(-382.89 -174.268)" fill="#fff"/>
        </g>
        <g id="Grupo_58014" data-name="Grupo 58014" transform="translate(68.005 78.566)">
          <rect id="Rectángulo_8550" data-name="Rectángulo 8550" width="11.962" height="11.962" rx="2.08" transform="matrix(0.982, 0.188, -0.188, 0.982, 4.065, 0.344)" fill="#5e6178"/>
          <g id="Grupo_58012" data-name="Grupo 58012" transform="translate(1.816 0.344)" opacity="0.2">
            <rect id="Rectángulo_8551" data-name="Rectángulo 8551" width="11.962" height="11.962" rx="2.08" transform="matrix(0.982, 0.188, -0.188, 0.982, 2.25, 0)" fill="#d9a171"/>
          </g>
          <rect id="Rectángulo_8552" data-name="Rectángulo 8552" width="11.962" height="11.962" rx="2.08" transform="matrix(0.982, 0.188, -0.188, 0.982, 2.25, 0)" fill="#344154"/>
          <g id="Grupo_58013" data-name="Grupo 58013" transform="translate(4.661 4.631)">
            <rect id="Rectángulo_8553" data-name="Rectángulo 8553" width="5.34" height="0.46" transform="matrix(0.836, -0.549, 0.549, 0.836, 0, 3.617)" fill="#fff"/>
            <rect id="Rectángulo_8554" data-name="Rectángulo 8554" width="0.46" height="5.34" transform="matrix(0.827, -0.562, 0.562, 0.827, 0.671, 0.258)" fill="#fff"/>
          </g>
        </g>
        <g id="Grupo_58016" data-name="Grupo 58016" transform="translate(14.376 85.992)">
          <rect id="Rectángulo_8555" data-name="Rectángulo 8555" width="11.962" height="11.962" rx="2.08" transform="matrix(0.982, 0.188, -0.188, 0.982, 4.065, 0.344)" fill="#5e6178"/>
          <g id="Grupo_58015" data-name="Grupo 58015" transform="translate(1.816 0.344)" opacity="0.2">
            <rect id="Rectángulo_8556" data-name="Rectángulo 8556" width="11.962" height="11.962" rx="2.08" transform="matrix(0.982, 0.188, -0.188, 0.982, 2.25, 0)" fill="#d9a171"/>
          </g>
          <rect id="Rectángulo_8557" data-name="Rectángulo 8557" width="11.962" height="11.962" rx="2.08" transform="matrix(0.982, 0.188, -0.188, 0.982, 2.25, 0)" fill="#344154"/>
          <path id="Trazado_108091" data-name="Trazado 108091" d="M351.319,190.852l-.135.731-2.616,3.816-1.236-.235,2.517-3.608-1.624-.307-.153.794-1-.189.325-1.723Z" transform="translate(-342.218 -186.067)" fill="#fff"/>
        </g>
        <g id="Grupo_58018" data-name="Grupo 58018" transform="translate(30.761 89.117)">
          <rect id="Rectángulo_8558" data-name="Rectángulo 8558" width="11.962" height="11.962" rx="2.08" transform="matrix(0.982, 0.188, -0.188, 0.982, 4.064, 0.353)" fill="#5e6178"/>
          <g id="Grupo_58017" data-name="Grupo 58017" transform="translate(1.814 0.353)" opacity="0.2">
            <rect id="Rectángulo_8559" data-name="Rectángulo 8559" width="11.962" height="11.962" rx="2.08" transform="matrix(0.982, 0.188, -0.188, 0.982, 2.25, 0)" fill="#d9a171"/>
          </g>
          <rect id="Rectángulo_8560" data-name="Rectángulo 8560" width="11.962" height="11.962" rx="2.08" transform="matrix(0.982, 0.188, -0.188, 0.982, 2.25, 0)" fill="#344154"/>
          <path id="Trazado_108092" data-name="Trazado 108092" d="M369.7,198c-.18.9-1.11,1.344-2.355,1.11s-1.949-.974-1.8-1.9a1.254,1.254,0,0,1,.956-1.01,1.155,1.155,0,0,1-.37-1.119c.162-.857,1.037-1.254,2.147-1.037s1.8.9,1.633,1.759a1.173,1.173,0,0,1-.767.9A1.272,1.272,0,0,1,369.7,198Zm-1.137-.253c.081-.442-.225-.776-.794-.9s-.956.1-1.046.532.216.767.776.9S368.47,198.184,368.56,197.751Zm-1.281-2.4c-.072.37.171.65.64.74s.812-.081.9-.451-.189-.677-.659-.767S367.351,194.964,367.279,195.352Z" transform="translate(-360.41 -189.569)" fill="#fff"/>
        </g>
        <g id="Grupo_58020" data-name="Grupo 58020" transform="translate(47.743 92.38)">
          <rect id="Rectángulo_8561" data-name="Rectángulo 8561" width="11.962" height="11.962" rx="2.08" transform="matrix(0.982, 0.188, -0.188, 0.982, 4.074, 0.346)" fill="#5e6178"/>
          <g id="Grupo_58019" data-name="Grupo 58019" transform="translate(1.825 0.346)" opacity="0.2">
            <rect id="Rectángulo_8562" data-name="Rectángulo 8562" width="11.962" height="11.962" rx="2.08" transform="matrix(0.982, 0.188, -0.188, 0.982, 2.25, 0)" fill="#d9a171"/>
          </g>
          <rect id="Rectángulo_8563" data-name="Rectángulo 8563" width="11.962" height="11.962" rx="2.08" transform="matrix(0.982, 0.188, -0.188, 0.982, 2.25, 0)" fill="#344154"/>
          <path id="Trazado_108093" data-name="Trazado 108093" d="M388.534,200.433a2.427,2.427,0,0,1-3,2.156,2.707,2.707,0,0,1-1.3-.6l.577-.749a1.687,1.687,0,0,0,.9.415,1.326,1.326,0,0,0,1.651-1.164,1.687,1.687,0,0,1-1.3.207,1.579,1.579,0,0,1-1.416-1.849,1.7,1.7,0,0,1,2.165-1.272C388.182,197.844,388.85,198.854,388.534,200.433Zm-1.1-1.1c.081-.415-.171-.785-.713-.9a.74.74,0,0,0-.956.577.749.749,0,0,0,.686.9.776.776,0,0,0,.992-.577Z" transform="translate(-379.224 -193.177)" fill="#fff"/>
        </g>
        <g id="Grupo_58022" data-name="Grupo 58022" transform="translate(64.745 95.626)">
          <rect id="Rectángulo_8564" data-name="Rectángulo 8564" width="11.962" height="11.962" rx="2.08" transform="matrix(0.982, 0.188, -0.188, 0.982, 4.055, 0.353)" fill="#5e6178"/>
          <g id="Grupo_58021" data-name="Grupo 58021" transform="translate(1.805 0.353)" opacity="0.2">
            <rect id="Rectángulo_8565" data-name="Rectángulo 8565" width="11.962" height="11.962" rx="2.08" transform="matrix(0.982, 0.188, -0.188, 0.982, 2.25, 0)" fill="#d9a171"/>
          </g>
          <rect id="Rectángulo_8566" data-name="Rectángulo 8566" width="11.962" height="11.962" rx="2.08" transform="matrix(0.982, 0.188, -0.188, 0.982, 2.25, 0)" fill="#344154"/>
          <rect id="Rectángulo_8567" data-name="Rectángulo 8567" width="0.46" height="5.34" transform="translate(4.338 6.703) rotate(-79.17)" fill="#fff"/>
        </g>
        <g id="Grupo_58024" data-name="Grupo 58024" transform="translate(44.455 109.604)">
          <rect id="Rectángulo_8568" data-name="Rectángulo 8568" width="11.962" height="11.962" rx="2.08" transform="matrix(0.982, 0.188, -0.188, 0.982, 4.064, 0.344)" fill="#5e6178"/>
          <g id="Grupo_58023" data-name="Grupo 58023" transform="translate(1.814 0.344)" opacity="0.2">
            <rect id="Rectángulo_8569" data-name="Rectángulo 8569" width="11.962" height="11.962" rx="2.08" transform="matrix(0.982, 0.188, -0.188, 0.982, 2.25, 0)" fill="#d9a171"/>
          </g>
          <rect id="Rectángulo_8570" data-name="Rectángulo 8570" width="11.962" height="11.962" rx="2.08" transform="matrix(0.982, 0.188, -0.188, 0.982, 2.25, 0)" fill="#344154"/>
        </g>
        <g id="Grupo_58027" data-name="Grupo 58027" transform="translate(61.437 112.857)">
          <rect id="Rectángulo_8571" data-name="Rectángulo 8571" width="11.941" height="11.941" rx="2.076" transform="matrix(0.982, 0.19, -0.19, 0.982, 2.914, 0.613)" fill="#d9a171"/>
          <g id="Grupo_58025" data-name="Grupo 58025" transform="translate(0.641 0.613)" opacity="0.4">
            <rect id="Rectángulo_8572" data-name="Rectángulo 8572" width="11.941" height="11.941" rx="2.076" transform="matrix(0.982, 0.19, -0.19, 0.982, 2.273, 0)" fill="#d9a171"/>
          </g>
          <rect id="Rectángulo_8573" data-name="Rectángulo 8573" width="11.962" height="11.962" rx="2.08" transform="matrix(0.982, 0.188, -0.188, 0.982, 2.25, 0)" fill="#d9a171"/>
          <g id="Grupo_58026" data-name="Grupo 58026" transform="translate(4.094 5.593)">
            <rect id="Rectángulo_8574" data-name="Rectángulo 8574" width="0.46" height="5.34" transform="translate(0.388 0.452) rotate(-79.17)" fill="#fff"/>
            <rect id="Rectángulo_8575" data-name="Rectángulo 8575" width="0.46" height="5.34" transform="translate(0 2.452) rotate(-79.17)" fill="#fff"/>
          </g>
        </g>
        <rect id="Rectángulo_8576" data-name="Rectángulo 8576" width="28.877" height="12.269" rx="2.5" transform="matrix(0.982, 0.188, -0.188, 0.982, 12.733, 102.939)" fill="#344154"/>
        <path id="Trazado_108094" data-name="Trazado 108094" d="M353.182,213.364c.316-1.624,1.38-2.364,2.589-2.138s1.922,1.326,1.615,2.941-1.371,2.364-2.589,2.129S352.876,214.978,353.182,213.364Zm3.058.586c.216-1.119-.09-1.651-.65-1.759s-1.046.28-1.254,1.389.09,1.651.65,1.759,1.046-.28,1.254-1.389Z" transform="translate(-328.434 -102.136)" fill="#fff"/>
        <g id="Grupo_58028" data-name="Grupo 58028" transform="translate(48.786 113.917)">
          <rect id="Rectángulo_8577" data-name="Rectángulo 8577" width="5.34" height="0.46" transform="matrix(0.203, -0.979, 0.979, 0.203, 1.923, 5.23)" fill="#fff"/>
          <rect id="Rectángulo_8578" data-name="Rectángulo 8578" width="0.46" height="5.34" transform="translate(0 2.369) rotate(-79.17)" fill="#fff"/>
        </g>
        <g id="Grupo_58029" data-name="Grupo 58029" transform="translate(51.415 31.95)">
          <path id="Trazado_108095" data-name="Trazado 108095" d="M384.969,126.144l-1.407,7.316-.343-.063,1.335-7-1.8-.352.063-.325Z" transform="translate(-382.75 -125.72)" fill="#344154"/>
          <path id="Trazado_108096" data-name="Trazado 108096" d="M390.645,134.547l-.063.325-4.962-.9.054-.253,3.744-2.553c1.065-.731,1.353-1.227,1.47-1.8.189-.974-.37-1.732-1.651-1.976a2.706,2.706,0,0,0-2.364.46l-.2-.28a3.157,3.157,0,0,1,2.634-.505c1.407.271,2.156,1.164,1.931,2.345-.135.686-.469,1.254-1.615,2.03l-3.41,2.327Z" transform="translate(-383.031 -125.842)" fill="#344154"/>
          <path id="Trazado_108097" data-name="Trazado 108097" d="M397.224,134.006c-.235,1.209-1.254,1.9-2.869,1.6a3.3,3.3,0,0,1-2.345-1.507l.235-.207a3.085,3.085,0,0,0,2.165,1.389c1.4.262,2.264-.289,2.463-1.344s-.37-1.876-1.921-2.174l-.406-.081.045-.253,2.824-2.544-4.041-.767.063-.325,4.511.9-.045.253-2.869,2.544C396.773,131.777,397.459,132.779,397.224,134.006Z" transform="translate(-383.656 -125.923)" fill="#344154"/>
          <path id="Trazado_108098" data-name="Trazado 108098" d="M405.113,135.5l-1.588-.307-.406,2.12-.343-.072.406-2.111-4.213-.8.054-.253,5-4.186.406.081-4.935,4.132,3.744.713.361-1.858.343.063-.352,1.867,1.588.3Z" transform="translate(-384.338 -126.128)" fill="#344154"/>
          <path id="Trazado_108099" data-name="Trazado 108099" d="M407.185,138.423a1.871,1.871,0,0,1-.135.37l-.65,1.335-.271-.054.6-1.38a.352.352,0,0,1-.235-.406.343.343,0,0,1,.415-.289.361.361,0,0,1,.271.424Z" transform="translate(-385.039 -126.921)" fill="#344154"/>
          <path id="Trazado_108100" data-name="Trazado 108100" d="M414.853,137.392l-1.588-.3-.406,2.111-.343-.063.406-2.12-4.213-.8.054-.253,5-4.177.406.072-4.935,4.132,3.744.722.361-1.867.343.072-.361,1.858,1.6.307Z" transform="translate(-385.291 -126.314)" fill="#344154"/>
          <path id="Trazado_108101" data-name="Trazado 108101" d="M420.972,138.523c-.225,1.191-1.227,1.949-2.9,1.633a3.383,3.383,0,0,1-2.336-1.5l.253-.217a3.049,3.049,0,0,0,2.147,1.389c1.434.271,2.282-.343,2.481-1.38s-.325-1.931-2.418-2.327l-1.425-.271,1.046-3.383,3.78.722-.063.325-3.482-.659-.857,2.706,1.137.216C420.575,136.241,421.225,137.224,420.972,138.523Z" transform="translate(-385.979 -126.381)" fill="#344154"/>
        </g>
      </g>
    </g>
    <g id="freepik--Character--inject-1" transform="translate(998.749 7443.18)">
      <path id="Trazado_143201" data-name="Trazado 143201" d="M8781.144,4954.031l-12.026,1.354-4.436-27.28,12.025-1.354Z" transform="translate(-8621.878 -4500.524)" fill="#ffc3bd"/>
      <path id="Trazado_143202" data-name="Trazado 143202" d="M8840.982,4956.879h-12.012l-2.98-27.812H8838Z" transform="translate(-8627.878 -4500.751)" fill="#ffc3bd"/>
      <path id="Trazado_143203" data-name="Trazado 143203" d="M8825.793,4958.348h14.635a1.053,1.053,0,0,1,1.022.82l2.377,10.673a1.759,1.759,0,0,1-1.342,2.092,1.737,1.737,0,0,1-.416.04c-4.71-.071-8.152-.346-14.087-.346-3.643,0-14.646.375-19.688.375s-5.762-4.983-3.63-5.43c9.247-2.03,16.219-4.825,19.186-7.489A2.877,2.877,0,0,1,8825.793,4958.348Z" transform="translate(-8625.68 -4503.618)" fill="#344154"/>
      <path id="Trazado_143204" data-name="Trazado 143204" d="M8766.944,4956.051l12.964-1.44a1.039,1.039,0,0,1,1.109.707l3.557,10.326a1.743,1.743,0,0,1-1.054,2.23,1.782,1.782,0,0,1-.387.09c-4.71.461-11.521.951-17.442,1.627-6.912.778-8.066,2.636-16.2,2.434-4.939-.114-6.193-5.127-4.12-5.53,9.449-1.829,11.265-3.255,18.725-9.146A5.506,5.506,0,0,1,8766.944,4956.051Z" transform="translate(-8619.892 -4503.251)" fill="#344154"/>
      <path id="Trazado_143205" data-name="Trazado 143205" d="M8768.764,4567.213c-4.031,3.327-8.008,6.223-12.112,9.19s-8.3,5.76-12.617,8.4-8.742,5.214-13.395,7.532a96.879,96.879,0,0,1-14.777,6.208c-1.34.417-2.65.778-4.163,1.138a40.087,40.087,0,0,1-4.479.72c-2.707.3-5.241.418-7.777.548-5.055.229-10.081.215-14.979.187-9.909-.115-19.732-.59-29.613-1.44l-.144-9.017c9.692-1.238,19.43-2.318,29.064-3.4,4.811-.533,9.621-1.109,14.3-1.729,2.347-.316,4.665-.69,6.8-1.094a27.761,27.761,0,0,0,2.736-.634c.836-.288,1.872-.619,2.881-1.007a98.328,98.328,0,0,0,11.969-5.849c3.989-2.29,7.965-4.752,11.884-7.359s7.82-5.315,11.694-8.066,7.72-5.675,11.35-8.44Z" transform="translate(-8611.112 -4463.947)" fill="#ffc3bd"/>
      <path id="Trazado_143206" data-name="Trazado 143206" d="M8789.512,4555.5c-1.729,11.349-25.624,28.706-25.624,28.706l-17.152-21.274a284.359,284.359,0,0,1,23.865-22.7C8778.306,4533.923,8791.384,4543.142,8789.512,4555.5Z" transform="translate(-8620.12 -4462.488)" fill="#d9a171"/>
      <path id="Trazado_143207" data-name="Trazado 143207" d="M8657.558,4595.249l-6.812-4.854-.749,15.339s3.773,0,5.228-2.765Z" transform="translate(-8610.65 -4467.598)" fill="#ffc3bd"/>
      <path id="Trazado_143208" data-name="Trazado 143208" d="M8643.841,4585.446l-1.4,15.022,6.813,4.782.748-15.339Z" transform="translate(-8609.91 -4467.114)" fill="#ffc3bd"/>
      <path id="Trazado_143209" data-name="Trazado 143209" d="M8764.7,4928.122l2.275,14.057,12.026-1.354-2.275-14.058Z" transform="translate(-8621.878 -4500.526)" fill="#344154" opacity="0.2" style="isolation: isolate"/>
      <path id="Trazado_143210" data-name="Trazado 143210" d="M8838,4929.067H8825.99l1.54,14.345h12.012Z" transform="translate(-8627.878 -4500.751)" fill="#344154" opacity="0.2" style="isolation: isolate"/>
      <path id="Trazado_143211" data-name="Trazado 143211" d="M8831.823,4540.376a6.855,6.855,0,0,1,5.2,8.183c-.014.062-.028.124-.044.185a282.445,282.445,0,0,0-5.876,32.825c-1.138,9.3-1.816,18.191-2.233,26.243-1.007,18.867-.589,33.256-1.151,38.139l-64.079-4.437c-6.51-50.988,1.108-83.538,5.4-96.746a11.433,11.433,0,0,1,9.361-7.834c2.463-.317,5.4-.634,8.512-.821,1.081,0,2.189-.1,3.3-.13a238.193,238.193,0,0,1,27.265,1.83c1.714.2,3.442.461,5.128.72C8825.961,4539.124,8829.173,4539.786,8831.823,4540.376Z" transform="translate(-8621.527 -4462.271)" fill="#344154"/>
      <path id="Trazado_143212" data-name="Trazado 143212" d="M8819.966,4503.859c-2.333,8.643-5.171,24.572.547,30.853-14.851,10-24.327,24.053-27.063,21-1.44-1.6-2.044-20.164-.173-22.9,9.938-1.656,10.2-8.916,8.973-15.843Z" transform="translate(-8624.562 -4459.127)" fill="#ffc3bd"/>
      <path id="Trazado_143213" data-name="Trazado 143213" d="M8819.35,4534.083s-24.212,10.717-27.366,34.654c6.655-7.719,21.389-16.117,21.389-16.117l-6.5-1.858a66.384,66.384,0,0,1,12.761-3.442c-.72-3.312,3.126-9.909,3.126-9.909Z" transform="translate(-8624.55 -4462.085)" fill="#d9a171"/>
      <path id="Trazado_143214" data-name="Trazado 143214" d="M8796.735,4533.652s3.213,13.683-5.574,35.042c-1.367-8.151-7.114-21.791-7.114-21.791l5.934,1.6s-.3-2.751-5.1-6.423c1.786-3.428,7.375-7.475,7.375-7.475Z" transform="translate(-8623.772 -4462.043)" fill="#d9a171"/>
      <path id="Trazado_143215" data-name="Trazado 143215" d="M8813.866,4509.783l-10.485,7.749a27.305,27.305,0,0,1,.506,4.9c3.772-.273,9.188-4.019,9.852-7.906A13.085,13.085,0,0,0,8813.866,4509.783Z" transform="translate(-8625.664 -4459.707)" fill="#344154" opacity="0.2" style="isolation: isolate"/>
      <path id="Trazado_143216" data-name="Trazado 143216" d="M8788.2,4476.109c-5.862.246-9.09,10.342-3.155,18.725S8796.078,4475.779,8788.2,4476.109Z" transform="translate(-8623.562 -4456.411)" fill="#344154"/>
      <path id="Trazado_143217" data-name="Trazado 143217" d="M8817.277,4484.278c.692,11.9,1.7,18.826-3.528,25.595-7.878,10.2-23.117,6.554-27.365-4.9-3.8-10.313-4.321-28.043,6.7-34.122a16.26,16.26,0,0,1,24.2,13.423Z" transform="translate(-8623.762 -4455.693)" fill="#ffc3bd"/>
      <path id="Trazado_143218" data-name="Trazado 143218" d="M8818.383,4491.991c-9.018-5.762-12.2-13.352-12.892-17.169-3.5.821-20.87,8.816-26.213,0s1.439-14,11.378-8.568c-4.422-7.807-.4-11.624,13.5-11.97s12.026,7.72,12.026,7.72,10.515-4.581,14.244,3.485C8834.729,4474.765,8826.778,4490.594,8818.383,4491.991Z" transform="translate(-8623.122 -4454.273)" fill="#344154"/>
      <path id="Trazado_143219" data-name="Trazado 143219" d="M8817.75,4459.969c.13,0,5.258,1.239,11.178-4.71-1.052,5.07-10.241,8.454-10.241,8.454Z" transform="translate(-8627.07 -4454.37)" fill="#344154"/>
      <path id="Trazado_143220" data-name="Trazado 143220" d="M8824.283,4479.753c-5.532-1.916-12.243,6.294-9.766,16.2S8831.758,4482.331,8824.283,4479.753Z" transform="translate(-8626.703 -4456.741)" fill="#344154"/>
      <path id="Trazado_143221" data-name="Trazado 143221" d="M8827.686,4496.247a11.262,11.262,0,0,1-4.607,7.317c-3.257,2.275-6.194-.316-6.381-4.077-.174-3.385,1.324-8.641,5.112-9.418S8828.276,4492.618,8827.686,4496.247Z" transform="translate(-8626.968 -4457.767)" fill="#ffc3bd"/>
      <path id="Trazado_143222" data-name="Trazado 143222" d="M8780.084,4788.225c2.881-35.114,24.055-132.35,24.055-132.35l-42.13-2.909s-16.247,96.5-17.485,133.142c-1.3,38.1,14.028,122.744,14.028,122.744l20.165-2.3S8777.174,4823.5,8780.084,4788.225Z" transform="translate(-8619.896 -4473.724)" fill="#d9a171"/>
      <path id="Trazado_143223" data-name="Trazado 143223" d="M8780.084,4788.225c2.881-35.114,24.055-132.35,24.055-132.35l-42.13-2.909s-16.247,96.5-17.485,133.142c-1.3,38.1,14.028,122.744,14.028,122.744l20.165-2.3S8777.174,4823.5,8780.084,4788.225Z" transform="translate(-8619.896 -4473.724)" fill="#fff" stroke="#5e6178" stroke-miterlimit="10" stroke-width="0" opacity="0.5" style="isolation: isolate"/>
      <path id="Trazado_143224" data-name="Trazado 143224" d="M8792.222,4692.69c-8.5,10.86-8.641,48.97-5.357,77.172,3.126-20.337,8.052-46.09,12.387-67.695Z" transform="translate(-8623.854 -4477.612)" fill="#344154" opacity="0.2" style="isolation: isolate"/>
      <path id="Trazado_143225" data-name="Trazado 143225" d="M8789.108,4654.69s4.552,102.81,9.622,137.622c5.544,38.125,19.644,121.519,19.644,121.519h21.994s-3.614-78.482-6.524-115.944c-3.3-42.663-3.385-140.257-3.385-140.257Z" transform="translate(-8624.268 -4473.892)" fill="#d9a171"/>
      <path id="Trazado_143226" data-name="Trazado 143226" d="M8789.108,4654.69s4.552,102.81,9.622,137.622c5.544,38.125,19.644,121.519,19.644,121.519h21.994s-3.614-78.482-6.524-115.944c-3.3-42.663-3.385-140.257-3.385-140.257Z" transform="translate(-8624.268 -4473.892)" fill="#fff" stroke="#5e6178" stroke-miterlimit="10" stroke-width="0" opacity="0.5" style="isolation: isolate"/>
      <path id="Trazado_143227" data-name="Trazado 143227" d="M8818.3,4941.521h25.9v-7.734l-28.95-.5Z" transform="translate(-8626.826 -4501.164)" fill="#d9a171"/>
      <path id="Trazado_143228" data-name="Trazado 143228" d="M8758.685,4937.969l24.081-2.737-.877-7.777-26.964,2.636Z" transform="translate(-8620.921 -4500.593)" fill="#d9a171"/>
      <path id="Trazado_143229" data-name="Trazado 143229" d="M8801.231,4491.823c.114.964-.3,1.813-.937,1.886s-1.225-.647-1.354-1.613.3-1.8.937-1.873S8801.115,4490.872,8801.231,4491.823Z" transform="translate(-8625.229 -4457.792)" fill="#344154"/>
      <path id="Trazado_143230" data-name="Trazado 143230" d="M8789.21,4493.276c.115.964-.3,1.8-.936,1.886s-1.225-.648-1.34-1.613.3-1.8.923-1.873S8789.066,4492.31,8789.21,4493.276Z" transform="translate(-8624.054 -4457.933)" fill="#344154"/>
      <path id="Trazado_143231" data-name="Trazado 143231" d="M8792.931,4493.529a34.681,34.681,0,0,1-3.614,8.772,5.6,5.6,0,0,0,4.71.3Z" transform="translate(-8624.288 -4458.116)" fill="#ed847e"/>
      <path id="Trazado_143232" data-name="Trazado 143232" d="M8804.193,4487.349a.559.559,0,0,1-.575-.145,4.554,4.554,0,0,0-3.847-1.44.575.575,0,0,1-.712-.394.645.645,0,0,1,.392-.779l.047-.009a5.606,5.606,0,0,1,4.869,1.771.562.562,0,0,1,.012.8l-.012.011A.665.665,0,0,1,8804.193,4487.349Z" transform="translate(-8625.237 -4457.235)" fill="#344154"/>
      <path id="Trazado_143233" data-name="Trazado 143233" d="M8800.088,4507.252h0a8.729,8.729,0,0,0,6.222-5.113.3.3,0,0,0-.172-.389.317.317,0,0,0-.4.187,8.249,8.249,0,0,1-5.761,4.709.308.308,0,0,0,.115.605Z" transform="translate(-8625.309 -4458.918)" fill="#344154"/>
      <path id="Trazado_143234" data-name="Trazado 143234" d="M8783.681,4489.442a.475.475,0,0,1-.346,0,.578.578,0,0,1-.361-.72,5.679,5.679,0,0,1,3.674-3.674.561.561,0,0,1,.687.4l0,.018a.548.548,0,0,1-.384.672l-.02.006h0a4.52,4.52,0,0,0-2.881,2.88A.52.52,0,0,1,8783.681,4489.442Z" transform="translate(-8623.665 -4457.284)" fill="#344154"/>
      <path id="Trazado_143235" data-name="Trazado 143235" d="M8823.488,4960.355a3.62,3.62,0,0,1-2.3-.619,1.706,1.706,0,0,1-.592-1.441.88.88,0,0,1,.489-.807c1.326-.691,5.2,1.7,5.633,1.974a.258.258,0,0,1,.13.288.275.275,0,0,1-.217.23A14,14,0,0,1,8823.488,4960.355Zm-1.786-2.492a.831.831,0,0,0-.36.072.345.345,0,0,0-.187.331,1.166,1.166,0,0,0,.39,1.038c.662.548,2.231.633,4.319.216A11.623,11.623,0,0,0,8821.7,4957.863Z" transform="translate(-8627.349 -4503.521)" fill="#d9a171"/>
      <path id="Trazado_143236" data-name="Trazado 143236" d="M8826.833,4959.614a.256.256,0,0,1-.144,0c-1.238-.677-3.644-3.313-3.385-4.638a.937.937,0,0,1,.908-.749,1.532,1.532,0,0,1,1.21.36c1.439,1.139,1.686,4.609,1.686,4.753a.246.246,0,0,1-.13.26A.254.254,0,0,1,8826.833,4959.614Zm-2.375-4.868h-.116c-.374,0-.4.216-.417.288-.157.792,1.44,2.78,2.606,3.716a6.725,6.725,0,0,0-1.44-3.759A1,1,0,0,0,8824.458,4954.746Z" transform="translate(-8627.612 -4503.213)" fill="#d9a171"/>
      <path id="Trazado_143237" data-name="Trazado 143237" d="M8767.5,4957.962h0c-1.872.6-5.242,1.44-6.683.447a1.552,1.552,0,0,1-.676-1.311.9.9,0,0,1,.373-.807c1.354-.95,6.438.922,7,1.138a.3.3,0,0,1,.187.273A.275.275,0,0,1,8767.5,4957.962Zm-6.639-1.239h0a.371.371,0,0,0-.145.331,1.021,1.021,0,0,0,.447.865c.806.576,2.778.461,5.372-.273-2.09-.649-4.84-1.354-5.675-.922Z" transform="translate(-8621.433 -4503.39)" fill="#d9a171"/>
      <path id="Trazado_143238" data-name="Trazado 143238" d="M8767.783,4957.623a.316.316,0,0,1-.231,0c-1.512-.476-4.652-2.737-4.58-4.105,0-.331.188-.749.951-.907a2.042,2.042,0,0,1,1.627.3c1.656,1.08,2.348,4.321,2.376,4.321a.31.31,0,0,1-.085.273Zm-4.048-4.321c-.187.1-.2.216-.2.274,0,.82,2.132,2.621,3.7,3.341a6.662,6.662,0,0,0-2-3.5,1.442,1.442,0,0,0-1.182-.231.987.987,0,0,0-.316.1Z" transform="translate(-8621.709 -4503.05)" fill="#d9a171"/>
      <path id="Trazado_143239" data-name="Trazado 143239" d="M8843.523,4559.9c-.3,4.7-.85,9.059-1.439,13.568s-1.34,8.93-2.189,13.395a157.9,157.9,0,0,1-7.39,26.761l-1.44,3.355-.359.835-.086.217-.144.316-.434.893a14.505,14.505,0,0,1-1.987,2.881,17.579,17.579,0,0,1-4.32,3.572,25.769,25.769,0,0,1-4.134,2,54.045,54.045,0,0,1-14.777,3.1,123.925,123.925,0,0,1-27.481-1.022l.332-9.017,6.352-.72c2.132-.244,4.248-.576,6.352-.864,4.206-.62,8.368-1.311,12.343-2.233a47.116,47.116,0,0,0,10.616-3.514,5.879,5.879,0,0,0,2.317-1.771c0-.217-.418.691.116-.749l.951-2.781a181.572,181.572,0,0,0,5.328-24.284c.69-4.177,1.268-8.4,1.845-12.631s1.021-8.542,1.439-12.588Z" transform="translate(-8623.117 -4464.488)" fill="#ffc3bd"/>
      <path id="Trazado_143240" data-name="Trazado 143240" d="M8848.612,4549.506c5.877,9.852.864,40.848.864,40.848l-30.822-5.761s-1.672-17.745,4.206-31.37C8829.24,4538.444,8841.5,4537.552,8848.612,4549.506Z" transform="translate(-8627.139 -4462.789)" fill="#d9a171"/>
      <path id="Trazado_143241" data-name="Trazado 143241" d="M8758.071,4648.706l-16.348-76.048a15.38,15.38,0,0,0-14.3-11.767H8664.8a15.411,15.411,0,0,1,14.3,11.767l16.333,76.048a15.409,15.409,0,0,0,14.3,11.767h62.639A15.4,15.4,0,0,1,8758.071,4648.706Z" transform="translate(-8612.099 -4464.71)" fill="#344154"/>
      <path id="Trazado_143242" data-name="Trazado 143242" d="M8758.071,4648.706l-16.348-76.048a15.38,15.38,0,0,0-14.3-11.767H8664.8a15.411,15.411,0,0,1,14.3,11.767l16.333,76.048a15.409,15.409,0,0,0,14.3,11.767h62.639A15.4,15.4,0,0,1,8758.071,4648.706Z" transform="translate(-8612.099 -4464.71)" fill="#d9a171" opacity="0.7" style="isolation: isolate"/>
      <rect id="Rectángulo_31891" data-name="Rectángulo 31891" width="17.918" height="1.446" transform="translate(26.66 205.643) rotate(-84.857)" fill="#d9a171"/>
      <rect id="Rectángulo_31892" data-name="Rectángulo 31892" width="7.504" height="1.44" transform="matrix(0.092, -0.996, 0.996, 0.092, 24.344, 221.738)" fill="#d9a171"/>
      <path id="Trazado_143243" data-name="Trazado 143243" d="M8661.633,4560.89h62.624a13.151,13.151,0,0,0-12.833,11.767l-16.246,176.7a13.167,13.167,0,0,1-12.848,11.767h-39.091a10.57,10.57,0,0,1-10.7-11.767l16.246-176.7A13.166,13.166,0,0,1,8661.633,4560.89Z" transform="translate(-8608.935 -4464.71)" fill="#d9a171"/>
      <path id="Trazado_143244" data-name="Trazado 143244" d="M8669.073,4769.806a10.579,10.579,0,0,0,10.7,11.768h-62.64a10.557,10.557,0,0,1-10.754-10.356,10.324,10.324,0,0,1,.068-1.411Z" transform="translate(-8606.38 -4485.161)" fill="#344154"/>
      <path id="Trazado_143245" data-name="Trazado 143245" d="M8669.073,4769.806a10.579,10.579,0,0,0,10.7,11.768h-62.64a10.557,10.557,0,0,1-10.754-10.356,10.324,10.324,0,0,1,.068-1.411Z" transform="translate(-8606.38 -4485.161)" fill="#d9a171" opacity="0.7" style="isolation: isolate"/>
      <g id="Grupo_89369-2" data-name="Grupo 89369" transform="translate(33.038 110.857)" opacity="0.5">
        <path id="Trazado_143246" data-name="Trazado 143246" d="M8703.172,4582.286h-42.461a2.3,2.3,0,0,1-2.333-2.274,2.387,2.387,0,0,1,.014-.289h0a2.882,2.882,0,0,1,2.795-2.563h42.39a2.307,2.307,0,0,1,2.334,2.275,2.037,2.037,0,0,1-.018.288h0A2.877,2.877,0,0,1,8703.172,4582.286Z" transform="translate(-8644.508 -4577.159)" fill="#fff" stroke="#5e6178" stroke-miterlimit="10" stroke-width="0"/>
        <path id="Trazado_143247" data-name="Trazado 143247" d="M8701.71,4597.646h-42.389a2.3,2.3,0,0,1-2.347-2.261,2.244,2.244,0,0,1,.014-.3h0a2.881,2.881,0,0,1,2.794-2.563h42.389a2.3,2.3,0,0,1,2.347,2.261,2.408,2.408,0,0,1-.014.3h0A2.881,2.881,0,0,1,8701.71,4597.646Z" transform="translate(-8644.371 -4578.663)" fill="#fff" stroke="#5e6178" stroke-miterlimit="10" stroke-width="0"/>
        <path id="Trazado_143248" data-name="Trazado 143248" d="M8689.936,4613.021h-32.018a2.3,2.3,0,0,1-2.334-2.275,2.378,2.378,0,0,1,.015-.289h0a2.882,2.882,0,0,1,2.795-2.563h31.988a2.3,2.3,0,0,1,2.348,2.261,2.244,2.244,0,0,1-.014.3h0A2.88,2.88,0,0,1,8689.936,4613.021Z" transform="translate(-8644.234 -4580.168)" fill="#fff" stroke="#5e6178" stroke-miterlimit="10" stroke-width="0"/>
        <path id="Trazado_143249" data-name="Trazado 143249" d="M8667.372,4628.462h-10.845a2.3,2.3,0,0,1-2.347-2.263,2.358,2.358,0,0,1,.013-.287h0a2.882,2.882,0,0,1,2.795-2.563h10.859a2.306,2.306,0,0,1,2.334,2.275,2.362,2.362,0,0,1-.015.288h0A2.882,2.882,0,0,1,8667.372,4628.462Z" transform="translate(-8644.098 -4581.681)" fill="#fff" stroke="#5e6178" stroke-miterlimit="10" stroke-width="0"/>
        <path id="Trazado_143250" data-name="Trazado 143250" d="M8697.51,4643.756h-42.418a2.306,2.306,0,0,1-2.334-2.276,2.184,2.184,0,0,1,.016-.288h0a2.879,2.879,0,0,1,2.794-2.564h42.373a2.3,2.3,0,0,1,2.349,2.261,2.26,2.26,0,0,1-.015.3h0A2.88,2.88,0,0,1,8697.51,4643.756Z" transform="translate(-8643.957 -4583.176)" fill="#fff" stroke="#5e6178" stroke-miterlimit="10" stroke-width="0"/>
        <path id="Trazado_143251" data-name="Trazado 143251" d="M8679.442,4659.131h-25.708a2.3,2.3,0,0,1-2.349-2.26,2.089,2.089,0,0,1,.015-.3h0a2.879,2.879,0,0,1,2.794-2.564h25.694a2.319,2.319,0,0,1,2.348,2.291,2.542,2.542,0,0,1-.014.273h0A2.881,2.881,0,0,1,8679.442,4659.131Z" transform="translate(-8643.824 -4584.682)" fill="#fff" stroke="#5e6178" stroke-miterlimit="10" stroke-width="0"/>
        <path id="Trazado_143252" data-name="Trazado 143252" d="M8694.718,4674.49H8652.33a2.3,2.3,0,0,1-2.334-2.275,2.584,2.584,0,0,1,.014-.289h0a2.882,2.882,0,0,1,2.795-2.564h42.345a2.322,2.322,0,0,1,2.348,2.292,2.122,2.122,0,0,1-.016.273h0A2.876,2.876,0,0,1,8694.718,4674.49Z" transform="translate(-8643.688 -4586.185)" fill="#fff" stroke="#5e6178" stroke-miterlimit="10" stroke-width="0"/>
        <path id="Trazado_143253" data-name="Trazado 143253" d="M8682.929,4689.865H8650.94a2.3,2.3,0,0,1-2.348-2.259,2.092,2.092,0,0,1,.014-.3h0a2.88,2.88,0,0,1,2.794-2.564h31.989a2.3,2.3,0,0,1,2.348,2.26,2.624,2.624,0,0,1-.014.3h0A2.881,2.881,0,0,1,8682.929,4689.865Z" transform="translate(-8643.551 -4587.69)" fill="#fff" stroke="#5e6178" stroke-miterlimit="10" stroke-width="0"/>
        <path id="Trazado_143254" data-name="Trazado 143254" d="M8660.395,4705.241h-10.859a2.32,2.32,0,0,1-2.334-2.563h0a2.881,2.881,0,0,1,2.81-2.564h10.845a2.3,2.3,0,0,1,2.348,2.261,2.252,2.252,0,0,1-.015.3h0A2.881,2.881,0,0,1,8660.395,4705.241Z" transform="translate(-8643.412 -4589.195)" fill="#fff" stroke="#5e6178" stroke-miterlimit="10" stroke-width="0"/>
        <path id="Trazado_143255" data-name="Trazado 143255" d="M8690.519,4720.6h-42.373a2.3,2.3,0,0,1-2.349-2.261,2.425,2.425,0,0,1,.015-.3h0a2.88,2.88,0,0,1,2.795-2.563H8691a2.306,2.306,0,0,1,2.333,2.275,2.189,2.189,0,0,1-.016.289h0A2.881,2.881,0,0,1,8690.519,4720.6Z" transform="translate(-8643.276 -4590.699)" fill="#fff" stroke="#5e6178" stroke-miterlimit="10" stroke-width="0"/>
        <path id="Trazado_143256" data-name="Trazado 143256" d="M8672.435,4735.976h-25.7a2.3,2.3,0,0,1-2.348-2.261,2.864,2.864,0,0,1,.014-.3h0a2.884,2.884,0,0,1,2.8-2.563h25.7a2.3,2.3,0,0,1,2.347,2.261c0,.1,0,.2-.013.3h0A2.882,2.882,0,0,1,8672.435,4735.976Z" transform="translate(-8643.139 -4592.204)" fill="#fff" stroke="#5e6178" stroke-miterlimit="10" stroke-width="0"/>
        <path id="Trazado_143257" data-name="Trazado 143257" d="M8687.726,4751.4h-42.374a2.306,2.306,0,0,1-2.349-2.261,2.248,2.248,0,0,1,.015-.3h0a2.882,2.882,0,0,1,2.795-2.549H8688.2a2.3,2.3,0,0,1,2.33,2.277,2.113,2.113,0,0,1-.013.272h0A2.88,2.88,0,0,1,8687.726,4751.4Z" transform="translate(-8643.003 -4593.715)" fill="#fff" stroke="#5e6178" stroke-miterlimit="10" stroke-width="0"/>
      </g>
      <path id="Trazado_143258" data-name="Trazado 143258" d="M8780.376,4627.542l-9.2-7.994-4.321,14.721s9.348,5.07,12.574.417Z" transform="translate(-8622.089 -4470.452)" fill="#ffc3bd"/>
      <path id="Trazado_143259" data-name="Trazado 143259" d="M8760.22,4618.91l-3,12.343,8.7,2.953,4.306-14.72Z" transform="translate(-8621.146 -4470.389)" fill="#ffc3bd"/>
    </g>
  </g>
</svg>
