<svg xmlns="http://www.w3.org/2000/svg" width="365.088" height="469.507" viewBox="0 0 365.088 469.507">
  <g id="Grupo_89183" data-name="Grupo 89183" transform="translate(-9175.42 -1195.732)">
    <g id="freepik--Checklist--inject-51" transform="translate(9175.42 1195.732)">
      <path id="Trazado_142645" data-name="Trazado 142645" d="M9423.218,1246.663h-247.8l16.308,337.47h247.8Z" transform="translate(-9175.419 -1224.164)" fill="#d9a171"/>
      <path id="Trazado_142646" data-name="Trazado 142646" d="M9423.218,1246.663h-247.8l16.308,337.47h247.8Z" transform="translate(-9175.419 -1224.164)" fill="#344154" opacity="0.2" style="isolation: isolate"/>
      <path id="Trazado_142647" data-name="Trazado 142647" d="M9425.349,1246.663h-247.8l16.317,337.47h247.8Z" transform="translate(-9175.261 -1224.164)" fill="#344154"/>
      <path id="Trazado_142648" data-name="Trazado 142648" d="M9411.477,1257.223H9188.092l15.607,310.866,194.244-.258,32.281-28.615Z" transform="translate(-9174.471 -1223.372)" fill="#344154" opacity="0.2" style="isolation: isolate"/>
      <path id="Trazado_142649" data-name="Trazado 142649" d="M9413.186,1257.213a2531.114,2531.114,0,0,0,22.521,278.262q-26.552,18.274-52.834,36.548H9215.8a2537.863,2537.863,0,0,1-27.713-314.811Z" transform="translate(-9174.47 -1223.373)" fill="#fff" stroke="#5e6178" stroke-miterlimit="10" stroke-width="0"/>
      <path id="Trazado_142650" data-name="Trazado 142650" d="M9422.125,1516.9q-26.552,18.274-52.834,36.548,5.739-24.186,11.964-48.373Z" transform="translate(-9160.89 -1204.795)" fill="#f2e9e4"/>
      <path id="Trazado_142651" data-name="Trazado 142651" d="M9247.082,1283.924q.636,17.069,1.484,34.162h-34.152q-.861-17.092-1.484-34.162h34.152m3.482-3.6H9209.2q.721,20.671,1.795,41.364h41.375q-1.072-20.683-1.795-41.364Z" transform="translate(-9172.889 -1221.641)" fill="#d9a171"/>
      <path id="Trazado_142652" data-name="Trazado 142652" d="M9382.438,1296.141H9265.462c-.108-2.569-.205-5.149-.3-7.718h116.965C9382.222,1290.992,9382.329,1293.572,9382.438,1296.141Z" transform="translate(-9168.694 -1221.034)" fill="#e0e0e0"/>
      <path id="Trazado_142653" data-name="Trazado 142653" d="M9357.678,1311.241h-91.543c-.118-2.58-.248-5.149-.354-7.718h91.531Q9357.5,1307.382,9357.678,1311.241Z" transform="translate(-9168.648 -1219.902)" fill="#e0e0e0"/>
      <path id="Trazado_142654" data-name="Trazado 142654" d="M9250.208,1346.164q1.077,17.092,2.4,34.184h-34.162q-1.321-17.092-2.4-34.184h34.162m3.376-3.6h-41.363q1.267,20.692,2.892,41.386h41.418q-1.611-20.683-2.9-41.386Z" transform="translate(-9172.663 -1216.976)" fill="#d9a171"/>
      <path id="Trazado_142655" data-name="Trazado 142655" d="M9311.874,1358.392h-43c-.173-2.58-.355-5.149-.516-7.729h43C9311.519,1353.243,9311.691,1355.812,9311.874,1358.392Z" transform="translate(-9168.454 -1216.368)" fill="#e0e0e0"/>
      <path id="Trazado_142656" data-name="Trazado 142656" d="M9348.95,1358.392h-31.614c-.173-2.58-.355-5.149-.516-7.729h31.614C9348.6,1353.243,9348.768,1355.812,9348.95,1358.392Z" transform="translate(-9164.821 -1216.368)" fill="#e0e0e0"/>
      <path id="Trazado_142657" data-name="Trazado 142657" d="M9372.348,1373.5H9269.98c-.194-2.58-.377-5.149-.57-7.729h102.367C9371.972,1368.353,9372.154,1370.922,9372.348,1373.5Z" transform="translate(-9168.376 -1215.236)" fill="#e0e0e0"/>
      <path id="Trazado_142658" data-name="Trazado 142658" d="M9254.986,1408.434q1.538,17.092,3.311,34.184h-34.162q-1.774-17.092-3.311-34.184h34.162m3.288-3.6H9216.9q1.828,20.7,4,41.4h41.376Q9260.125,1425.526,9258.274,1404.833Z" transform="translate(-9172.311 -1212.308)" fill="#d9a171"/>
      <path id="Trazado_142659" data-name="Trazado 142659" d="M9391.7,1428.053H9274.71l.773,7.718h116.987Z" transform="translate(-9167.979 -1210.568)" fill="#e0e0e0"/>
      <path id="Trazado_142660" data-name="Trazado 142660" d="M9364.824,1412.943h-91.543c.235,2.569.472,5.149.72,7.718h91.532C9365.3,1418.092,9365.05,1415.544,9364.824,1412.943Z" transform="translate(-9168.086 -1211.701)" fill="#e0e0e0"/>
      <path id="Trazado_142661" data-name="Trazado 142661" d="M9261.421,1470.7q2,17.092,4.226,34.173h-34.162q-2.225-17.071-4.224-34.173h34.16m3.226-3.6H9223.24q2.364,20.7,5.106,41.375h41.332q-2.72-20.672-5.106-41.375Z" transform="translate(-9171.836 -1207.641)" fill="#d9a171"/>
      <path id="Trazado_142662" data-name="Trazado 142662" d="M9397.752,1482.9H9280.765c-.312-2.58-.624-5.149-.925-7.729h116.977C9397.128,1477.785,9397.429,1480.354,9397.752,1482.9Z" transform="translate(-9167.594 -1207.036)" fill="#e0e0e0"/>
      <path id="Trazado_142663" data-name="Trazado 142663" d="M9335.911,1498.031h-53.253c-.333-2.569-.656-5.149-.979-7.718h53.253C9335.255,1492.882,9335.578,1495.462,9335.911,1498.031Z" transform="translate(-9167.456 -1205.901)" fill="#e0e0e0"/>
      <path id="Trazado_142664" data-name="Trazado 142664" d="M9363.382,1498.031h-22.993c-.334-2.569-.656-5.149-.978-7.718H9362.4C9362.726,1492.882,9363.092,1495.462,9363.382,1498.031Z" transform="translate(-9163.129 -1205.901)" fill="#e0e0e0"/>
      <path id="Trazado_142665" data-name="Trazado 142665" d="M9231.41,1312.915l-1.515-2.408c-3.312-5.267-10.062-9.965-12.4-11.341l1.742-3.085a48.918,48.918,0,0,1,12.1,10.395c5.2-7.084,12.9-14.4,23.434-22.273l2.225,2.9c-11.242,8.417-19.111,16.124-24.078,23.541Z" transform="translate(-9172.266 -1221.35)" fill="#12263f"/>
      <path id="Trazado_142666" data-name="Trazado 142666" d="M9235.235,1375.177l-1.581-2.408c-3.439-5.267-10.319-9.976-12.685-11.352l1.646-3.085a50.5,50.5,0,0,1,12.394,10.405c5.011-7.095,12.5-14.415,22.832-22.294.764.967,1.537,1.935,2.3,2.913-11.019,8.428-18.683,16.124-23.445,23.552C9236.2,1373.661,9235.719,1374.424,9235.235,1375.177Z" transform="translate(-9172.006 -1216.685)" fill="#12263f"/>
      <path id="Trazado_142667" data-name="Trazado 142667" d="M9240.781,1437.606l-1.644-2.408c-3.592-5.267-10.6-9.976-13-11.341.518-1.075,1.075-2.064,1.57-3.085a52.728,52.728,0,0,1,12.663,10.395c4.826-7.095,12.125-14.4,22.229-22.295l2.388,2.913c-10.75,8.428-18.274,16.124-22.822,23.552Z" transform="translate(-9171.618 -1212.005)" fill="#12263f"/>
      <path id="Trazado_142668" data-name="Trazado 142668" d="M9348.839,1533.615c-6.342,0-10-2.343-13.222-4.407s-6-3.848-11.353-3.848-7.739,1.87-10.265,3.848-5.623,4.407-11.965,4.407-10-2.343-13.211-4.407-5.986-3.848-11.353-3.848-7.737,1.87-10.265,3.848-5.621,4.407-11.954,4.407-10-2.343-13.221-4.407-5.987-3.848-11.352-3.848c-.141-1.075-.29-2.064-.431-3.1,6.344,0,9.987,2.344,13.211,4.407s5.988,3.848,11.341,3.848,7.74-1.87,10.265-3.848a17.239,17.239,0,0,1,11.977-4.407c6.342,0,9.975,2.344,13.2,4.407s6,3.848,11.353,3.848,7.739-1.87,10.265-3.848a17.234,17.234,0,0,1,11.976-4.407c6.342,0,9.985,2.344,13.21,4.407s5.987,3.848,11.352,3.848C9348.538,1531.551,9348.7,1532.583,9348.839,1533.615Z" transform="translate(-9171.311 -1203.507)" fill="#f2e9e4"/>
      <path id="Trazado_142669" data-name="Trazado 142669" d="M9357.477,1256.584c-3.634-9.675-12.03-16.028-21.059-16.028h-18.4a7,7,0,0,1-6.4-4.3,17.2,17.2,0,0,0-15.662-10.524,15.232,15.232,0,0,0-14.641,10.524,6.213,6.213,0,0,1-5.987,4.3h-18.394c-9.04,0-16.822,6.385-19.51,16.028l-1.075,3.838h122.544Z" transform="translate(-9170.854 -1225.732)" fill="#344154"/>
      <path id="Trazado_142670" data-name="Trazado 142670" d="M9358.327,1262.05H9237.718a4.021,4.021,0,0,1-3.967-3.784h0a3.58,3.58,0,0,1,3.38-3.769c.074,0,.148-.005.221,0h120.609a4.021,4.021,0,0,1,3.968,3.773h0a3.579,3.579,0,0,1-3.369,3.777C9358.482,1262.048,9358.4,1262.05,9358.327,1262.05Z" transform="translate(-9171.05 -1223.577)" fill="#d9a171"/>
      <path id="Trazado_142671" data-name="Trazado 142671" d="M9358.327,1262.05H9237.718a4.021,4.021,0,0,1-3.967-3.784h0a3.58,3.58,0,0,1,3.38-3.769c.074,0,.148-.005.221,0h120.609a4.021,4.021,0,0,1,3.968,3.773h0a3.579,3.579,0,0,1-3.369,3.777C9358.482,1262.048,9358.4,1262.05,9358.327,1262.05Z" transform="translate(-9171.05 -1223.577)" fill="#344154" opacity="0.2" style="isolation: isolate"/>
    </g>
    <g id="freepik--Character--inject-51" transform="translate(9359.141 1343.42)">
      <path id="Trazado_142672" data-name="Trazado 142672" d="M9450.965,1558.865h-7.88l-.785-18.242h7.881Z" transform="translate(-9339.136 -1245.087)" fill="#ffc3bd"/>
      <path id="Trazado_142673" data-name="Trazado 142673" d="M9495.176,1558.865h-7.88l-3.955-18.242h7.868Z" transform="translate(-9336.061 -1245.087)" fill="#ffc3bd"/>
      <path id="Trazado_142674" data-name="Trazado 142674" d="M9487.358,1556.743h8.847a.674.674,0,0,1,.666.537l1.559,7.009a1.159,1.159,0,0,1-.9,1.373,1.146,1.146,0,0,1-.25.025c-3.085-.054-4.59-.236-8.481-.236-2.4,0-7.332.247-10.632.247s-3.741-3.225-2.386-3.558c6.073-1.333,8.352-3.161,10.3-4.912A1.934,1.934,0,0,1,9487.358,1556.743Z" transform="translate(-9336.682 -1243.878)" fill="#344154"/>
      <path id="Trazado_142675" data-name="Trazado 142675" d="M9444.4,1556.743h8.6a.678.678,0,0,1,.667.537l1.559,7.009a1.141,1.141,0,0,1-.852,1.369,1.189,1.189,0,0,1-.224.029c-3.107-.054-7.59-.236-11.492-.236-4.558,0-8.492.247-13.845.247-3.226,0-4.128-3.225-2.773-3.558,6.159-1.354,11.19-1.494,16.512-4.784A3.684,3.684,0,0,1,9444.4,1556.743Z" transform="translate(-9340.4 -1243.878)" fill="#344154"/>
      <path id="Trazado_142676" data-name="Trazado 142676" d="M9458.612,1290.283c-1.076,5.762-1.7,12.9,2.332,16.748,0,0-2.312,5.848-13.019,5.848-9.781,0-4.88-5.848-4.88-5.848,6.45-1.537,6.084-9.481,4.967-13.974Z" transform="translate(-9339.174 -1263.85)" fill="#ffc3bd"/>
      <path id="Trazado_142677" data-name="Trazado 142677" d="M9440.1,1306.957c.215-1.43,2.73-3.1,5.59-3.719s13.846-2.01,17.2-.623-.58,5.493-.58,5.493Z" transform="translate(-9339.302 -1262.97)" fill="#d9a171"/>
      <path id="Trazado_142678" data-name="Trazado 142678" d="M9440.1,1306.957c.215-1.43,2.73-3.1,5.59-3.719s13.846-2.01,17.2-.623-.58,5.493-.58,5.493Z" transform="translate(-9339.302 -1262.97)" fill="#fff" stroke="#5e6178" stroke-miterlimit="10" stroke-width="0" opacity="0.4" style="isolation: isolate"/>
      <path id="Trazado_142679" data-name="Trazado 142679" d="M9442.3,1540.633l.409,9.4h7.88l-.408-9.4Z" transform="translate(-9339.136 -1245.086)" fill="#344154" opacity="0.2" style="isolation: isolate"/>
      <path id="Trazado_142680" data-name="Trazado 142680" d="M9491.22,1540.633h-7.879l2.042,9.4h7.88Z" transform="translate(-9336.061 -1245.086)" fill="#344154" opacity="0.2" style="isolation: isolate"/>
      <path id="Trazado_142681" data-name="Trazado 142681" d="M9475.453,1312.463l-9.492,6.342s13.63,24.24,12.49,28.121c-1.559,5.289-3.729,16.844-6.686,22.714.387,1.269,2.354,4.16,3.451,4.655,7.524-5.719,15.123-23.649,14.844-28.669C9489.405,1334.242,9475.453,1312.463,9475.453,1312.463Z" transform="translate(-9337.364 -1262.187)" fill="#ffc3bd"/>
      <path id="Trazado_142682" data-name="Trazado 142682" d="M9471.886,1365.714l-7.524-.58,3.944,8.288s6.567.29,7.665-4.73Z" transform="translate(-9337.484 -1258.24)" fill="#b55b52"/>
      <path id="Trazado_142683" data-name="Trazado 142683" d="M9516.837,1408.844l-.633,1.193-4.259,8.052-151.116-79.9,4.881-9.245Z" transform="translate(-9345.242 -1260.952)" fill="#d9a171"/>
      <path id="Trazado_142684" data-name="Trazado 142684" d="M9525.929,1391.675l-3.118,5.891-1.762,3.332-151.13-79.9,4.881-9.245Z" transform="translate(-9344.562 -1262.241)" fill="#d9a171"/>
      <rect id="Rect치ngulo_31835" data-name="Rect치ngulo 31835" width="10.449" height="170.95" transform="translate(20.518 67.963) rotate(-62.09)" fill="#d9a171"/>
      <rect id="Rect치ngulo_31836" data-name="Rect치ngulo 31836" width="10.449" height="170.95" transform="translate(20.518 67.963) rotate(-62.09)" fill="#344154" opacity="0.2" style="isolation: isolate"/>
      <path id="Trazado_142685" data-name="Trazado 142685" d="M9355.077,1312.977l-4.4,8.32,10.91,18.177,14.651-27.712Z" transform="translate(-9346.004 -1262.24)" fill="#d9a171"/>
      <path id="Trazado_142686" data-name="Trazado 142686" d="M9355.077,1312.977l-4.4,8.32,10.91,18.177,14.651-27.712Z" transform="translate(-9346.004 -1262.24)" fill="#fff" stroke="#5e6178" stroke-miterlimit="10" stroke-width="0" opacity="0.8" style="isolation: isolate"/>
      <path id="Trazado_142687" data-name="Trazado 142687" d="M9346.331,1313.419l4.676,7.793,4.4-8.32Z" transform="translate(-9346.331 -1262.155)" fill="#d9a171"/>
      <path id="Trazado_142688" data-name="Trazado 142688" d="M9458.73,1368.906l3.935,7.331,6.095-2.816-3.945-8.288Z" transform="translate(-9337.905 -1258.24)" fill="#b55b52"/>
      <path id="Trazado_142689" data-name="Trazado 142689" d="M9473.463,1307.533c7.447,1.075,15.982,26.874,15.982,26.874l-15.65,8.836s-6.891-12.233-10.277-21.37C9459.949,1312.317,9465.475,1306.372,9473.463,1307.533Z" transform="translate(-9337.631 -1262.568)" fill="#344154"/>
      <path id="Trazado_142690" data-name="Trazado 142690" d="M9468.788,1315.785c-3.387-3.1-1.312,10.158.3,18.64.828,1.656,1.612,3.16,2.278,4.418C9475.141,1332.178,9473.453,1320.053,9468.788,1315.785Z" transform="translate(-9337.288 -1261.973)" fill="#344154" opacity="0.2" style="isolation: isolate"/>
      <path id="Trazado_142691" data-name="Trazado 142691" d="M9431.948,1308.074s-9.3,23.778-.473,68.066h42.17c.29-6.45-3.773-38.01,2.463-68.474a109.593,109.593,0,0,0-14.1-1.784,154.848,154.848,0,0,0-17.9,0A78.45,78.45,0,0,0,9431.948,1308.074Z" transform="translate(-9340.233 -1262.7)" fill="#344154"/>
      <path id="Trazado_142692" data-name="Trazado 142692" d="M9441.246,1318.476l-10.62-4.2s-12.233,24.971-16.125,26.229c-5.234,1.72-15.984,6.45-22.5,7.374-.816,1.075-2.086,4.3-1.881,5.482,8.976,2.934,28.077-.957,32.032-4.031C9431.229,1342.318,9441.246,1318.476,9441.246,1318.476Z" transform="translate(-9343.049 -1262.052)" fill="#ffc3bd"/>
      <path id="Trazado_142693" data-name="Trazado 142693" d="M9439.618,1315.909c-1.752-4.042-5.105-5.729-8.6-5.138-1.354,4.956-3.644,15.845-3.227,32.249l2.506,1.2S9442.617,1322.821,9439.618,1315.909Z" transform="translate(-9340.229 -1262.323)" fill="#344154" opacity="0.2" style="isolation: isolate"/>
      <path id="Trazado_142694" data-name="Trazado 142694" d="M9442.2,1313.305c2.644,7.052-10.75,27.8-10.75,27.8l-15.757-8.6a96.11,96.11,0,0,1,9.1-18.435C9430.331,1305.8,9439.285,1305.576,9442.2,1313.305Z" transform="translate(-9341.132 -1262.546)" fill="#344154"/>
      <path id="Trazado_142695" data-name="Trazado 142695" d="M9392.885,1345.513l-9.374,1.989,4.751,8.675a25.956,25.956,0,0,0,7.042-5.138Z" transform="translate(-9343.544 -1259.71)" fill="#ffc3bd"/>
      <path id="Trazado_142696" data-name="Trazado 142696" d="M9379.392,1349.327l3.74,5.181,5.439,1.569-4.751-8.675Z" transform="translate(-9343.853 -1259.569)" fill="#ffc3bd"/>
      <path id="Trazado_142697" data-name="Trazado 142697" d="M9440.925,1282.656a.969.969,0,0,1-.817,1.075c-.419,0-.72-.559-.677-1.193s.4-1.075.817-1.075S9440.969,1282.022,9440.925,1282.656Z" transform="translate(-9339.354 -1264.511)" fill="#344154"/>
      <path id="Trazado_142698" data-name="Trazado 142698" d="M9441.574,1282.623a22.725,22.725,0,0,1-3.343,5.246,3.642,3.642,0,0,0,3,.741Z" transform="translate(-9339.442 -1264.424)" fill="#ed847e"/>
      <path id="Trazado_142699" data-name="Trazado 142699" d="M9440.095,1280.7a.56.56,0,0,1-.163-.064.364.364,0,0,1-.113-.5l.007-.012a3.739,3.739,0,0,1,2.913-1.763.4.4,0,0,1,.376.376.376.376,0,0,1-.376.376h0a2.939,2.939,0,0,0-2.246,1.408A.377.377,0,0,1,9440.095,1280.7Z" transform="translate(-9339.327 -1264.744)" fill="#344154"/>
      <path id="Trazado_142700" data-name="Trazado 142700" d="M9462.284,1282.9c-.925,7.761-1.075,12.34-5.235,16.124-6.268,5.676-15.673,1.559-17.092-6.332-1.269-7.095.462-18.586,8.267-21.252a10.662,10.662,0,0,1,14.061,11.459Z" transform="translate(-9339.342 -1265.306)" fill="#ffc3bd"/>
      <path id="Trazado_142701" data-name="Trazado 142701" d="M9447.117,1284.806c-2.72.537-7.062-5.5-3.516-10.631-1.795-.892-7.654,2.634-9.857-.656s3.913-5.042,2.74-7.826c4.15.849-2.687,6.031,1.258,5.525s8.492-7.793,12.9-4.805c7.794,5.235,18.414-3.494,14.083,7.439,5.31-1.075,8.942,5.2,3.88,9.556-10.094,8.653-3.88,9.793-10.276,10.234C9455.125,1293.878,9447.675,1290.062,9447.117,1284.806Z" transform="translate(-9339.814 -1265.693)" fill="#344154"/>
      <path id="Trazado_142702" data-name="Trazado 142702" d="M9450.371,1285.67a6.45,6.45,0,0,1-3.752,3.322c-2.15.742-3.387-1.182-2.88-3.3.45-1.913,2.149-4.6,4.374-4.407a2.935,2.935,0,0,1,2.258,4.386Z" transform="translate(-9339.039 -1264.525)" fill="#ffc3bd"/>
      <path id="Trazado_142703" data-name="Trazado 142703" d="M9445.111,1371.223s8.942,60.2,13.845,82.771c5.374,24.724,25.616,106.947,25.616,106.947H9499s-13.34-80.256-16.415-104.711c-3.321-26.53-10.287-84.975-10.287-84.975Z" transform="translate(-9338.927 -1257.783)" fill="#d9a171"/>
      <path id="Trazado_142704" data-name="Trazado 142704" d="M9445.111,1371.223s8.942,60.2,13.845,82.771c5.374,24.724,25.616,106.947,25.616,106.947H9499s-13.34-80.256-16.415-104.711c-3.321-26.53-10.287-84.975-10.287-84.975Z" transform="translate(-9338.927 -1257.783)" fill="#fff" stroke="#5e6178" stroke-miterlimit="10" stroke-width="0" opacity="0.2" style="isolation: isolate"/>
      <path id="Trazado_142705" data-name="Trazado 142705" d="M9455.39,1390.882c-.667-.946-1.271-1.268-1.828-1.075h-.119a1.57,1.57,0,0,0-.354.215,2.245,2.245,0,0,0-.312.312l-.17.215-.227.355a6.87,6.87,0,0,0-.483.978c-.086.2-.173.419-.248.634s-.192.548-.279.849-.247.817-.365,1.258a1.309,1.309,0,0,1-.087.344c-.031.118-.118.495-.171.742s-.1.43-.14.645c-.1.419-.184.86-.27,1.312s-.182.978-.269,1.483a3.062,3.062,0,0,1-.086.527c-.106.645-.2,1.3-.3,1.978h0c2.387,14.985,5.225,32.163,7.524,44.148.108-.387.226-.8.323-1.236a56.218,56.218,0,0,0,1.075-6.063C9460.635,1423.055,9459.7,1397.041,9455.39,1390.882Z" transform="translate(-9338.585 -1256.394)" fill="#344154" opacity="0.2" style="isolation: isolate"/>
      <path id="Trazado_142706" data-name="Trazado 142706" d="M9431.249,1371.223s-1.074,58.886-.226,82.911c.893,24.982,9.621,106.775,9.621,106.775h13.341s.482-80.342,1.074-104.872c.645-26.745,3.87-84.814,3.87-84.814Z" transform="translate(-9340.008 -1257.783)" fill="#d9a171"/>
      <path id="Trazado_142707" data-name="Trazado 142707" d="M9431.249,1371.223s-1.074,58.886-.226,82.911c.893,24.982,9.621,106.775,9.621,106.775h13.341s.482-80.342,1.074-104.872c.645-26.745,3.87-84.814,3.87-84.814Z" transform="translate(-9340.008 -1257.783)" fill="#fff" stroke="#5e6178" stroke-miterlimit="10" stroke-width="0" opacity="0.2" style="isolation: isolate"/>
      <path id="Trazado_142708" data-name="Trazado 142708" d="M9454.3,1543.921c.055,0,0,4.354,0,4.354h-15.382l-.646-4.891Z" transform="translate(-9339.439 -1244.879)" fill="#344154"/>
      <path id="Trazado_142709" data-name="Trazado 142709" d="M9496.393,1544.224c.064,0,.721,4.031.721,4.031h-15.855l-1.4-4.622Z" transform="translate(-9336.322 -1244.861)" fill="#344154"/>
      <path id="Trazado_142710" data-name="Trazado 142710" d="M9484.215,1558.162a2.373,2.373,0,0,1-1.517-.4,1.083,1.083,0,0,1-.388-.989.618.618,0,0,1,.313-.527c.871-.441,3.419,1.075,3.709,1.29a.191.191,0,0,1,.075.194.183.183,0,0,1-.14.15A9.5,9.5,0,0,1,9484.215,1558.162Zm-1.173-1.623a.562.562,0,0,0-.247,0,.238.238,0,0,0-.117.215.762.762,0,0,0,.257.677,3.766,3.766,0,0,0,2.795.15,7.508,7.508,0,0,0-2.687-1.043Z" transform="translate(-9336.139 -1243.921)" fill="#d9a171"/>
      <path id="Trazado_142711" data-name="Trazado 142711" d="M9486.112,1558.02a.145.145,0,0,1-.086,0c-.816-.441-2.387-2.15-2.226-3.042a.6.6,0,0,1,.591-.484.977.977,0,0,1,.8.236c.915.742,1.075,3.021,1.075,3.117a.223.223,0,0,1-.087.172A.2.2,0,0,1,9486.112,1558.02Zm-1.591-3.225h-.032c-.247,0-.269.14-.28.194-.1.516.9,1.817,1.721,2.429a4.453,4.453,0,0,0-.935-2.462.609.609,0,0,0-.506-.14Z" transform="translate(-9336.027 -1244.047)" fill="#d9a171"/>
      <path id="Trazado_142712" data-name="Trazado 142712" d="M9440.188,1558.162a2.963,2.963,0,0,1-1.913-.484,1.081,1.081,0,0,1-.345-.9.562.562,0,0,1,.3-.495c.957-.538,4.128,1.075,4.483,1.258a.184.184,0,0,1-.054.344A12.8,12.8,0,0,1,9440.188,1558.162Zm-1.43-1.623a.778.778,0,0,0-.344.064.237.237,0,0,0-.118.2.661.661,0,0,0,.226.591c.483.43,1.784.505,3.525.215A10.331,10.331,0,0,0,9438.758,1556.539Z" transform="translate(-9339.465 -1243.921)" fill="#d9a171"/>
      <path id="Trazado_142713" data-name="Trazado 142713" d="M9442.494,1558.021h-.074c-.958-.43-2.839-2.15-2.687-3.021,0-.2.182-.473.688-.516a1.337,1.337,0,0,1,1.074.312c1,.828,1.2,2.945,1.216,3.042a.162.162,0,0,1-.077.161A.2.2,0,0,1,9442.494,1558.021Zm-1.925-3.225h-.074c-.334,0-.354.161-.367.215-.086.527,1.2,1.87,2.151,2.451a4.29,4.29,0,0,0-1.077-2.429,1.066,1.066,0,0,0-.633-.215Z" transform="translate(-9339.331 -1244.048)" fill="#d9a171"/>
    </g>
  </g>
</svg>
