<svg xmlns="http://www.w3.org/2000/svg" width="356.958" height="308.885" viewBox="0 0 356.958 308.885">
  <g id="Grupo_89326" data-name="Grupo 89326" transform="translate(-70.832 -110.461)">
    <g id="Background_Complete" data-name="Background Complete" transform="translate(80.782 110.461)">
      <g id="Grupo_87086" data-name="Grupo 87086">
        <g id="Grupo_87078" data-name="Grupo 87078" transform="translate(42.15 14.636)">
          <rect id="Rectángulo_30595" data-name="Rectángulo 30595" width="8.272" height="8.272" transform="matrix(0.978, -0.21, 0.21, 0.978, 41.091, 9.422)" fill="#ebebeb"/>
          <circle id="Elipse_4242" data-name="Elipse 4242" cx="45.601" cy="45.601" r="45.601" transform="translate(7.856 101.31) rotate(-86.94)" fill="#e0e0e0"/>
          <circle id="Elipse_4243" data-name="Elipse 4243" cx="39.699" cy="39.699" r="39.699" transform="matrix(0.778, -0.628, 0.628, 0.778, 0, 52.247)" fill="#f0f0f0"/>
          <rect id="Rectángulo_30596" data-name="Rectángulo 30596" width="14.902" height="9.325" transform="matrix(0.978, -0.21, 0.21, 0.978, 36.346, 3.137)" fill="#e0e0e0"/>
          <path id="Trazado_141257" data-name="Trazado 141257" d="M183.022,182.815a3.864,3.864,0,1,1-4.591-2.964A3.864,3.864,0,0,1,183.022,182.815Z" transform="translate(-123.419 -125.42)" fill="#e0e0e0"/>
          <path id="Trazado_141258" data-name="Trazado 141258" d="M169.666,151.446c1.21,2.548,2.246,5.147,3.29,7.744l1.5,3.917,1.412,3.941c.942,2.628,1.814,5.276,2.664,7.93s1.667,5.32,2.441,8l-2.994-.817q2.7-2.486,5.462-4.9t5.595-4.753c1.871-1.578,3.8-3.091,5.733-4.6,1.951-1.492,3.908-2.977,5.956-4.364-1.535,1.94-3.162,3.78-4.8,5.614-1.652,1.814-3.306,3.626-5.019,5.374-1.694,1.768-3.408,3.516-5.157,5.226s-3.5,3.412-5.289,5.081l-2.131,1.991-.863-2.808c-.819-2.665-1.59-5.343-2.336-8.028s-1.461-5.381-2.113-8.1l-.975-4.071-.891-4.1C170.6,156.983,170.047,154.241,169.666,151.446Z" transform="translate(-123.393 -125.288)" fill="#e0e0e0"/>
        </g>
        <g id="Grupo_87084" data-name="Grupo 87084" transform="translate(160.391 2.717)">
          <path id="Trazado_141259" data-name="Trazado 141259" d="M422.585,163,386.78,267.093,241.971,217.283l35.805-104.092,4.867,1.674a3.079,3.079,0,0,0-.926,1.363,3.153,3.153,0,1,0,5.962,2.051,3.074,3.074,0,0,0,.108-1.644l4.849,1.668a3.072,3.072,0,0,0-.926,1.363,3.153,3.153,0,1,0,5.962,2.051,3.073,3.073,0,0,0,.108-1.644l4.849,1.668a3.071,3.071,0,0,0-.925,1.363,3.153,3.153,0,1,0,5.962,2.051,3.082,3.082,0,0,0,.108-1.644l4.849,1.668a3.078,3.078,0,0,0-.926,1.363,3.153,3.153,0,1,0,5.962,2.051,3.073,3.073,0,0,0,.109-1.644l4.849,1.668a3.081,3.081,0,0,0-.926,1.363,3.153,3.153,0,1,0,5.962,2.051,3.074,3.074,0,0,0,.109-1.644l4.849,1.668a3.073,3.073,0,0,0-.926,1.363,3.153,3.153,0,1,0,5.962,2.051,3.073,3.073,0,0,0,.108-1.644l4.849,1.668a3.078,3.078,0,0,0-.926,1.363,3.153,3.153,0,1,0,5.962,2.051,3.073,3.073,0,0,0,.108-1.644l4.849,1.668a3.077,3.077,0,0,0-.925,1.363,3.153,3.153,0,1,0,5.962,2.051,3.083,3.083,0,0,0,.109-1.644l4.849,1.668a3.073,3.073,0,0,0-.926,1.363,3.153,3.153,0,1,0,5.962,2.051,3.074,3.074,0,0,0,.108-1.644l4.849,1.668a3.086,3.086,0,0,0-.926,1.363,3.153,3.153,0,1,0,5.962,2.051,3.074,3.074,0,0,0,.11-1.644l4.849,1.668a3.079,3.079,0,0,0-.926,1.363,3.153,3.153,0,1,0,5.962,2.051,3.073,3.073,0,0,0,.108-1.644l4.849,1.668a3.072,3.072,0,0,0-.926,1.363,3.153,3.153,0,1,0,5.962,2.051,3.074,3.074,0,0,0,.108-1.644l4.85,1.668a3.075,3.075,0,0,0-.927,1.363,3.153,3.153,0,1,0,5.962,2.051,3.074,3.074,0,0,0,.109-1.644l4.849,1.668a3.076,3.076,0,0,0-.926,1.364,3.152,3.152,0,0,0,5.962,2.05,3.074,3.074,0,0,0,.108-1.644Z" transform="translate(-241.971 -113.191)" fill="#f0f0f0"/>
          <path id="Trazado_141260" data-name="Trazado 141260" d="M422.719,163l-7.3,21.215L270.613,134.406l7.3-21.215,4.867,1.674a3.078,3.078,0,0,0-.926,1.363,3.153,3.153,0,1,0,5.962,2.051,3.073,3.073,0,0,0,.108-1.644l4.849,1.668a3.072,3.072,0,0,0-.926,1.363,3.153,3.153,0,1,0,5.962,2.051,3.073,3.073,0,0,0,.108-1.644l4.849,1.668a3.071,3.071,0,0,0-.925,1.363,3.153,3.153,0,1,0,5.962,2.051,3.083,3.083,0,0,0,.108-1.644l4.849,1.668a3.078,3.078,0,0,0-.926,1.363,3.153,3.153,0,1,0,5.962,2.051,3.074,3.074,0,0,0,.109-1.644l4.849,1.668a3.081,3.081,0,0,0-.926,1.363,3.153,3.153,0,1,0,5.962,2.051,3.073,3.073,0,0,0,.109-1.644l4.849,1.668a3.073,3.073,0,0,0-.926,1.363,3.153,3.153,0,1,0,5.962,2.051,3.073,3.073,0,0,0,.108-1.644l4.849,1.668a3.078,3.078,0,0,0-.926,1.363,3.153,3.153,0,1,0,5.962,2.051,3.073,3.073,0,0,0,.108-1.644l4.849,1.668a3.077,3.077,0,0,0-.925,1.363,3.153,3.153,0,1,0,5.962,2.051,3.084,3.084,0,0,0,.109-1.644l4.849,1.668a3.073,3.073,0,0,0-.926,1.363,3.153,3.153,0,1,0,5.962,2.051,3.073,3.073,0,0,0,.108-1.644l4.849,1.668a3.086,3.086,0,0,0-.926,1.363,3.153,3.153,0,1,0,5.962,2.051,3.074,3.074,0,0,0,.109-1.644l4.849,1.668a3.079,3.079,0,0,0-.926,1.363,3.153,3.153,0,1,0,5.962,2.051,3.073,3.073,0,0,0,.108-1.644l4.849,1.668a3.072,3.072,0,0,0-.926,1.363,3.153,3.153,0,1,0,5.962,2.051,3.074,3.074,0,0,0,.108-1.644l4.85,1.668a3.075,3.075,0,0,0-.927,1.363,3.153,3.153,0,1,0,5.962,2.051,3.074,3.074,0,0,0,.109-1.644l4.849,1.668a3.076,3.076,0,0,0-.926,1.364,3.152,3.152,0,1,0,5.962,2.05,3.074,3.074,0,0,0,.108-1.644Z" transform="translate(-242.104 -113.191)" fill="#e0e0e0"/>
          <g id="Grupo_87083" data-name="Grupo 87083" transform="translate(10.611 41.217)">
            <g id="Grupo_87079" data-name="Grupo 87079" transform="translate(56.452 0)">
              <rect id="Rectángulo_30597" data-name="Rectángulo 30597" width="16.776" height="16.776" transform="translate(5.457 0) rotate(18.982)" fill="#fafafa"/>
              <rect id="Rectángulo_30598" data-name="Rectángulo 30598" width="16.776" height="16.776" transform="translate(24.424 6.524) rotate(18.982)" fill="#fafafa"/>
              <rect id="Rectángulo_30599" data-name="Rectángulo 30599" width="16.776" height="16.776" transform="translate(43.391 13.049) rotate(18.982)" fill="#fafafa"/>
              <rect id="Rectángulo_30600" data-name="Rectángulo 30600" width="16.776" height="16.776" transform="translate(62.358 19.573) rotate(18.982)" fill="#fafafa"/>
              <rect id="Rectángulo_30601" data-name="Rectángulo 30601" width="16.776" height="16.776" transform="translate(81.325 26.097) rotate(18.982)" fill="#fafafa"/>
            </g>
            <g id="Grupo_87080" data-name="Grupo 87080" transform="translate(12.345 4.896)">
              <rect id="Rectángulo_30602" data-name="Rectángulo 30602" width="16.776" height="16.776" transform="matrix(0.946, 0.325, -0.325, 0.946, 5.457, 0)" fill="#fafafa"/>
              <rect id="Rectángulo_30603" data-name="Rectángulo 30603" width="16.776" height="16.776" transform="translate(24.424 6.524) rotate(18.982)" fill="#fafafa"/>
              <rect id="Rectángulo_30604" data-name="Rectángulo 30604" width="16.776" height="16.776" transform="matrix(0.946, 0.325, -0.325, 0.946, 43.391, 13.048)" fill="#fafafa"/>
              <rect id="Rectángulo_30605" data-name="Rectángulo 30605" width="16.776" height="16.776" transform="matrix(0.946, 0.325, -0.325, 0.946, 62.358, 19.573)" fill="#fafafa"/>
              <rect id="Rectángulo_30606" data-name="Rectángulo 30606" width="16.776" height="16.776" transform="translate(81.325 26.097) rotate(18.982)" fill="#fafafa"/>
              <rect id="Rectángulo_30607" data-name="Rectángulo 30607" width="16.776" height="16.776" transform="translate(100.292 32.621) rotate(18.982)" fill="#fafafa"/>
              <rect id="Rectángulo_30608" data-name="Rectángulo 30608" width="16.776" height="16.776" transform="translate(119.26 39.146) rotate(18.982)" fill="#fafafa"/>
            </g>
            <g id="Grupo_87081" data-name="Grupo 87081" transform="translate(6.172 22.841)">
              <rect id="Rectángulo_30609" data-name="Rectángulo 30609" width="16.776" height="16.776" transform="translate(5.457 0) rotate(18.982)" fill="#fafafa"/>
              <rect id="Rectángulo_30610" data-name="Rectángulo 30610" width="16.776" height="16.776" transform="translate(24.424 6.524) rotate(18.982)" fill="#fafafa"/>
              <rect id="Rectángulo_30611" data-name="Rectángulo 30611" width="16.776" height="16.776" transform="matrix(0.946, 0.325, -0.325, 0.946, 43.391, 13.049)" fill="#fafafa"/>
              <rect id="Rectángulo_30612" data-name="Rectángulo 30612" width="16.776" height="16.776" transform="translate(62.358 19.573) rotate(18.982)" fill="#fafafa"/>
              <rect id="Rectángulo_30613" data-name="Rectángulo 30613" width="16.776" height="16.776" transform="matrix(0.946, 0.325, -0.325, 0.946, 81.325, 26.097)" fill="#fafafa"/>
              <rect id="Rectángulo_30614" data-name="Rectángulo 30614" width="16.776" height="16.776" transform="translate(100.292 32.621) rotate(18.982)" fill="#fafafa"/>
              <rect id="Rectángulo_30615" data-name="Rectángulo 30615" width="16.776" height="16.776" transform="translate(119.259 39.145) rotate(18.982)" fill="#fafafa"/>
            </g>
            <g id="Grupo_87082" data-name="Grupo 87082" transform="translate(0 40.785)">
              <rect id="Rectángulo_30616" data-name="Rectángulo 30616" width="16.776" height="16.776" transform="translate(5.457 0) rotate(18.982)" fill="#fafafa"/>
              <rect id="Rectángulo_30617" data-name="Rectángulo 30617" width="16.776" height="16.776" transform="translate(24.424 6.524) rotate(18.982)" fill="#fafafa"/>
              <rect id="Rectángulo_30618" data-name="Rectángulo 30618" width="16.776" height="16.776" transform="translate(43.391 13.049) rotate(18.982)" fill="#fafafa"/>
              <rect id="Rectángulo_30619" data-name="Rectángulo 30619" width="16.776" height="16.776" transform="translate(62.358 19.573) rotate(18.982)" fill="#fafafa"/>
              <rect id="Rectángulo_30620" data-name="Rectángulo 30620" width="16.776" height="16.776" transform="translate(81.325 26.097) rotate(18.982)" fill="#fafafa"/>
              <rect id="Rectángulo_30621" data-name="Rectángulo 30621" width="16.776" height="16.776" transform="translate(100.292 32.621) rotate(18.982)" fill="#fafafa"/>
            </g>
          </g>
          <line id="Línea_1852" data-name="Línea 1852" x2="10.407" y2="21.32" transform="translate(85.314 65.686)" fill="none" stroke="#e0e0e0" stroke-linecap="round" stroke-linejoin="round" stroke-width="3"/>
          <line id="Línea_1853" data-name="Línea 1853" x1="21.32" y2="10.407" transform="translate(79.857 71.143)" fill="none" stroke="#e0e0e0" stroke-linecap="round" stroke-linejoin="round" stroke-width="3"/>
        </g>
        <g id="Grupo_87085" data-name="Grupo 87085">
          <path id="Trazado_141261" data-name="Trazado 141261" d="M80.829,152.8v6.6l3.4.32a17.631,17.631,0,0,0,2.536,6.1L84.58,168.46l4.668,4.669,2.638-2.184a17.637,17.637,0,0,0,6.1,2.535l.32,3.4h6.6l.32-3.4a17.629,17.629,0,0,0,6.1-2.535l2.638,2.184,4.669-4.669-2.184-2.638a17.629,17.629,0,0,0,2.535-6.1l3.4-.32v-6.6l-3.4-.32a17.629,17.629,0,0,0-2.535-6.1l2.184-2.638-4.669-4.668-2.638,2.183a17.648,17.648,0,0,0-6.1-2.535l-.32-3.4h-6.6l-.32,3.4a17.656,17.656,0,0,0-6.1,2.535l-2.638-2.183-4.668,4.668,2.184,2.638a17.63,17.63,0,0,0-2.536,6.1Zm20.778-5.637a8.938,8.938,0,1,1-8.938,8.938A8.938,8.938,0,0,1,101.607,147.165Z" transform="translate(-80.829 -110.577)" fill="#ebebeb"/>
          <path id="Trazado_141262" data-name="Trazado 141262" d="M238.312,311.8a30.47,30.47,0,0,0,10.527-4.376l4.553,3.768,8.058-8.058-3.769-4.553a30.444,30.444,0,0,0,4.377-10.526l5.868-.553V276.1l-5.868-.552a30.433,30.433,0,0,0-4.377-10.527l3.769-4.554-8.058-8.057-4.553,3.768a30.47,30.47,0,0,0-10.527-4.376l-.552-5.868h-11.4l-.552,5.868a30.469,30.469,0,0,0-10.527,4.376l-4.553-3.768-8.058,8.057,3.769,4.554a30.433,30.433,0,0,0-4.376,10.527l-5.868.552v11.4l5.868.553a30.444,30.444,0,0,0,4.376,10.526l-3.769,4.553,8.058,8.058,4.553-3.768A30.47,30.47,0,0,0,225.81,311.8l.552,5.868h11.4Zm-21.678-30a15.428,15.428,0,1,1,15.428,15.428A15.428,15.428,0,0,1,216.633,281.8Z" transform="translate(-81.367 -111.092)" fill="#e0e0e0"/>
          <path id="Trazado_141263" data-name="Trazado 141263" d="M110.872,360.618l1.736,1.437,3.074-3.074-1.437-1.736a11.593,11.593,0,0,0,1.668-4.014l2.239-.21v-4.346l-2.239-.211a11.6,11.6,0,0,0-1.668-4.014l1.437-1.736-3.074-3.073-1.736,1.437a11.617,11.617,0,0,0-4.013-1.669l-.211-2.238H102.3l-.211,2.238a11.611,11.611,0,0,0-4.014,1.669l-1.736-1.437-3.073,3.073,1.437,1.736a11.622,11.622,0,0,0-1.669,4.014l-2.238.211v4.346l2.238.21a11.614,11.614,0,0,0,1.669,4.014l-1.437,1.736,3.073,3.074,1.736-1.437a11.609,11.609,0,0,0,4.014,1.668l.211,2.238h4.346l.211-2.238A11.6,11.6,0,0,0,110.872,360.618Zm-12.28-9.769a5.883,5.883,0,1,1,5.883,5.882A5.883,5.883,0,0,1,98.592,350.849Z" transform="translate(-80.875 -111.518)" fill="#e6e6e6"/>
          <path id="Trazado_141264" data-name="Trazado 141264" d="M235.9,132.007l1.006.833,1.781-1.781-.833-1.006a6.7,6.7,0,0,0,.966-2.326l1.3-.121v-2.518l-1.3-.122a6.729,6.729,0,0,0-.967-2.326l.833-1.005-1.781-1.781-1.006.833a6.716,6.716,0,0,0-2.325-.967l-.122-1.3h-2.518l-.121,1.3a6.713,6.713,0,0,0-2.326.967l-1.006-.833-1.781,1.781.833,1.005a6.728,6.728,0,0,0-.967,2.326l-1.3.122v2.518l1.3.121a6.72,6.72,0,0,0,.967,2.326l-.833,1.006,1.781,1.781,1.006-.833a6.731,6.731,0,0,0,2.326.966l.121,1.3h2.518l.122-1.3A6.734,6.734,0,0,0,235.9,132.007Zm-7.116-5.66a3.409,3.409,0,1,1,3.409,3.408A3.409,3.409,0,0,1,228.783,126.347Z" transform="translate(-81.498 -110.498)" fill="#f5f5f5"/>
          <path id="Trazado_141265" data-name="Trazado 141265" d="M389.225,124.045l1.006.833,1.781-1.781-.833-1.005a6.709,6.709,0,0,0,.966-2.326l1.3-.122v-2.517l-1.3-.122a6.721,6.721,0,0,0-.967-2.326l.833-1.006-1.781-1.781-1.006.833a6.734,6.734,0,0,0-2.325-.966l-.122-1.3h-2.518l-.122,1.3a6.714,6.714,0,0,0-2.325.966l-1.006-.833-1.781,1.781.833,1.006A6.72,6.72,0,0,0,378.89,117l-1.3.122v2.517l1.3.122a6.728,6.728,0,0,0,.967,2.326l-.833,1.005,1.781,1.781,1.006-.833a6.716,6.716,0,0,0,2.325.967l.122,1.3h2.518l.122-1.3A6.716,6.716,0,0,0,389.225,124.045Zm-7.116-5.66a3.409,3.409,0,1,1,3.409,3.409A3.409,3.409,0,0,1,382.109,118.385Z" transform="translate(-82.212 -110.461)" fill="#f0f0f0"/>
          <path id="Trazado_141266" data-name="Trazado 141266" d="M422.055,284.019l1.736,1.437,3.073-3.074-1.437-1.736a11.619,11.619,0,0,0,1.669-4.013l2.237-.211v-4.346l-2.237-.211a11.618,11.618,0,0,0-1.669-4.013l1.437-1.737-3.073-3.073-1.736,1.437a11.622,11.622,0,0,0-4.014-1.669l-.211-2.238h-4.346l-.21,2.237a11.614,11.614,0,0,0-4.014,1.669l-1.736-1.437-3.074,3.073,1.437,1.737a11.6,11.6,0,0,0-1.668,4.013l-2.238.211v4.346l2.238.211a11.6,11.6,0,0,0,1.668,4.013l-1.437,1.736,3.074,3.074,1.736-1.437a11.614,11.614,0,0,0,4.014,1.669l.21,2.238h4.346l.211-2.238A11.6,11.6,0,0,0,422.055,284.019Zm-12.28-9.769a5.883,5.883,0,1,1,5.882,5.882A5.882,5.882,0,0,1,409.775,274.25Z" transform="translate(-82.326 -111.161)" fill="#ebebeb"/>
          <path id="Trazado_141267" data-name="Trazado 141267" d="M302.075,378.672l2.744,2.272,4.858-4.859-2.272-2.744A18.331,18.331,0,0,0,310.043,367l3.538-.333v-6.87l-3.537-.333a18.351,18.351,0,0,0-2.639-6.346l2.272-2.745-4.858-4.858-2.744,2.272a18.381,18.381,0,0,0-6.346-2.638l-.333-3.538h-6.871l-.332,3.536a18.369,18.369,0,0,0-6.346,2.639L279.1,345.51l-4.858,4.858,2.272,2.745a18.342,18.342,0,0,0-2.639,6.346l-3.536.333v6.87l3.536.333a18.373,18.373,0,0,0,2.639,6.345l-2.272,2.744,4.858,4.859,2.745-2.272a18.35,18.35,0,0,0,6.346,2.639l.332,3.537H295.4l.333-3.538A18.344,18.344,0,0,0,302.075,378.672ZM282.66,363.227a9.3,9.3,0,1,1,9.3,9.3A9.3,9.3,0,0,1,282.66,363.227Z" transform="translate(-81.712 -111.538)" fill="#f0f0f0"/>
        </g>
      </g>
    </g>
    <g id="Hourglass" transform="translate(82.815 186.09)">
      <g id="Grupo_87094" data-name="Grupo 87094" transform="translate(0 0)">
        <g id="Grupo_87087" data-name="Grupo 87087" transform="translate(0)">
          <path id="Trazado_141268" data-name="Trazado 141268" d="M140.618,193.416c-32.187,5.567-57.337,15.529-56.174,22.254l.539,3.121h0c1.164,6.725,28.2,7.663,60.385,2.1s57.336-15.529,56.173-22.254L201,195.513C199.838,188.789,172.8,187.85,140.618,193.416Z" transform="translate(-82.878 -186.46)" fill="#d9a171"/>
          <ellipse id="Elipse_4244" data-name="Elipse 4244" cx="59.144" cy="12.356" rx="59.144" ry="12.356" transform="translate(0 20.157) rotate(-9.811)" fill="#fff" opacity="0.2"/>
          <path id="Trazado_141269" data-name="Trazado 141269" d="M142.342,203.236c-28.819,4.984-51.339,13.9-50.3,19.926l.9,5.2h0c1.041,6.021,25.248,6.862,54.067,1.878s51.339-13.9,50.3-19.926h0l-.9-5.2C195.369,199.092,171.162,198.252,142.342,203.236Z" transform="translate(-82.914 -186.508)" fill="#d9a171"/>
          <ellipse id="Elipse_4245" data-name="Elipse 4245" cx="52.957" cy="11.063" rx="52.957" ry="11.063" transform="matrix(0.985, -0.17, 0.17, 0.985, 8.146, 30.955)" fill="#a66d58" opacity="0.2"/>
        </g>
        <g id="Grupo_87088" data-name="Grupo 87088" transform="translate(16.144 24.271)">
          <path id="Trazado_141270" data-name="Trazado 141270" d="M172.461,282.3a9.215,9.215,0,0,1-2.492-14.412c11.678-12.709,25.812-32.945,22.221-53.714-.77-4.455-22.232-4.464-47.935-.02s-45.915,11.66-45.144,16.117c3.591,20.769,23.7,35.083,38.968,43.131a9.215,9.215,0,0,1,2.492,14.412c-11.678,12.708-25.812,32.945-22.221,53.713.771,4.455,22.232,4.464,47.935.019s45.915-11.659,45.145-16.116C207.838,304.664,187.729,290.35,172.461,282.3Z" transform="translate(-99.091 -210.829)" fill="#407bff"/>
          <path id="Trazado_141271" data-name="Trazado 141271" d="M172.461,282.3a9.215,9.215,0,0,1-2.492-14.412c11.678-12.709,25.812-32.945,22.221-53.714-.77-4.455-22.232-4.464-47.935-.02s-45.915,11.66-45.144,16.117c3.591,20.769,23.7,35.083,38.968,43.131a9.215,9.215,0,0,1,2.492,14.412c-11.678,12.708-25.812,32.945-22.221,53.713.771,4.455,22.232,4.464,47.935.019s45.915-11.659,45.145-16.116C207.838,304.664,187.729,290.35,172.461,282.3Z" transform="translate(-99.091 -210.829)" fill="#fff" opacity="0.8"/>
        </g>
        <g id="Grupo_87089" data-name="Grupo 87089" transform="translate(37.342 125.902)">
          <path id="Trazado_141272" data-name="Trazado 141272" d="M209.244,327.1c.462,4.667-82.336,20.786-87.838,13.623a5.8,5.8,0,0,1-.619-5.517,15.708,15.708,0,0,1,2.471-4.588c2.554-3.464,8.2-4.981,12.021-6.378,2.579-.94,5.181-1.811,7.777-2.707,2.781-.965,5.648-.3,8.071-2.412,1.45-1.268,2.534-3.143,4.4-3.607,1.378-.34,2.862.2,4.225-.161,1.774-.475,3.039-2.382,4.87-2.419a11.53,11.53,0,0,1,2.65.652c1.6.339,3.231-.2,4.857-.336a20.164,20.164,0,0,1,4.807.343,146.692,146.692,0,0,0,14.953,2.059c3.7.2,7.788.109,11.387,1.128a6.876,6.876,0,0,1,3.665,3.228l.01.007A17.207,17.207,0,0,1,209.244,327.1Z" transform="translate(-120.388 -312.937)" fill="#263238"/>
          <path id="Trazado_141273" data-name="Trazado 141273" d="M182.077,317.02c.072.035.013.017-.164-.037A.606.606,0,0,1,182.077,317.02Z" transform="translate(-120.675 -312.955)" fill="#fff" opacity="0.2"/>
          <path id="Trazado_141274" data-name="Trazado 141274" d="M206.947,320.011c-2.29-2.076-6.518-1.932-7.734-1.843s-1.638-.949-2.563-1.282-6.327.357-6.327.357,2.035.384,2.409,1.038c.34.622,2.689-.092,2.991-.181-.316.175-3.076,1.632-4.385.748-1.393-.935-1.837.756-2.874,1.178s-4.3.006-4.824-.173a43.206,43.206,0,0,0-4.678-.031,6.754,6.754,0,0,1,2.661-.955c.876.1,4.374-1.735,3.658-1.611s-2.353-.824-3.625-1.22a17.271,17.271,0,0,0-4.621.3,15.144,15.144,0,0,1,4.578.636,21.715,21.715,0,0,0-2.98.944,9.739,9.739,0,0,1-2.744.475,3.8,3.8,0,0,0-1.851,1.43,29.184,29.184,0,0,1-3.46.6,8.244,8.244,0,0,1-3.39-.4l3.143-1.029-1.071-.309a12.457,12.457,0,0,0-2.273-.531c-1.268-.21-1.8.991-2.109,1.288s-3.072.037-3.848-.192-6.522,2.144-6.522,2.144l3.586-.62a8.8,8.8,0,0,0,2.944.685c2.4.322,2.744-.475,3.745-.405s4.347.973,4.347.973l-1.293.345a12.593,12.593,0,0,1-3.445-.02c-2.015-.268-3.064.781-3.662.885a30.008,30.008,0,0,1-4.677.678c-.638-.131-2.348.659-3.284,1.612a4.071,4.071,0,0,1-4.139.986c-1.808-.471-4.865,1.747-4.865,1.747s1.6-2.124,2.434-2.268a23.105,23.105,0,0,0,3.742-1.878,7.742,7.742,0,0,0-1.333.109,3.322,3.322,0,0,1-2.48-.8c-.977-.689-1.994-.149-3.46.6s-3.037,1.635-4.578.549-6.267,2.921-6.267,2.921a17.592,17.592,0,0,0,3.135-1.074c.433-.355.744.039,2.14.292s1.848-.693,2.532-1.053,2.746.243,2.746.243a3.03,3.03,0,0,1-1.554.288c-.758-.12-1.976,2.058-2.391,1.822s-3.3.141-4.537.785-3.078,2.808-4.917,2.147c-1.563-.569-5.091,4.219-8.187,4.279a15.708,15.708,0,0,1,2.471-4.588c2.554-3.464,8.2-4.981,12.021-6.378,2.579-.94,5.181-1.811,7.777-2.707,2.781-.965,5.648-.3,8.071-2.412,1.45-1.268,2.534-3.143,4.4-3.607,1.378-.34,2.862.2,4.225-.161,1.774-.475,3.039-2.382,4.87-2.419a11.529,11.529,0,0,1,2.65.652c1.6.339,3.231-.2,4.857-.336a20.164,20.164,0,0,1,4.807.343,146.692,146.692,0,0,0,14.953,2.059c3.7.2,7.788.109,11.387,1.128A6.876,6.876,0,0,1,206.947,320.011Z" transform="translate(-120.39 -312.937)" fill="#fff" opacity="0.2"/>
        </g>
        <g id="Grupo_87091" data-name="Grupo 87091" transform="translate(25.946 135.604)">
          <path id="Trazado_141275" data-name="Trazado 141275" d="M163.561,325.935c-28.82,4.984-51.339,13.9-50.3,19.925l.9,5.2h0c1.041,6.021,25.248,6.861,54.068,1.877s51.338-13.9,50.3-19.926h0l-.9-5.2C216.587,321.791,192.38,320.95,163.561,325.935Z" transform="translate(-108.958 -322.684)" fill="#d9a171"/>
          <path id="Trazado_141276" data-name="Trazado 141276" d="M165.151,335.282c-32.187,5.566-57.337,15.529-56.174,22.254l.539,3.121h0c1.164,6.725,28.2,7.663,60.385,2.1s57.336-15.529,56.173-22.254l-.539-3.121C224.371,330.655,197.337,329.716,165.151,335.282Z" transform="translate(-108.938 -322.725)" fill="#d9a171"/>
          <g id="Grupo_87090" data-name="Grupo 87090" transform="translate(0 8.926)">
            <path id="Trazado_141277" data-name="Trazado 141277" d="M128.153,366.476c-.8-.028-1.575-.067-2.333-.112C126.578,366.41,127.352,366.449,128.153,366.476Z" transform="translate(-109.017 -331.813)" fill="#fff" opacity="0.2"/>
            <path id="Trazado_141278" data-name="Trazado 141278" d="M182.056,360.585l-.208.046Z" transform="translate(-109.278 -331.786)" fill="#fff" opacity="0.2"/>
            <path id="Trazado_141279" data-name="Trazado 141279" d="M115.7,364.961q.482.127,1,.244Q116.182,365.088,115.7,364.961Z" transform="translate(-108.97 -331.807)" fill="#fff" opacity="0.2"/>
            <path id="Trazado_141280" data-name="Trazado 141280" d="M165.151,335.282c-32.187,5.566-57.337,15.529-56.174,22.253l.539,3.122a4.048,4.048,0,0,0,2.2,2.625,4.048,4.048,0,0,1-2.2-2.625c-1.163-6.724,23.988-16.687,56.174-22.253s59.221-4.627,60.384,2.1h0l-.539-3.122C224.371,330.655,197.337,329.716,165.151,335.282Z" transform="translate(-108.938 -331.651)" fill="#fff" opacity="0.2"/>
          </g>
        </g>
        <g id="Grupo_87092" data-name="Grupo 87092" transform="translate(49.565 87.42)">
          <path id="Trazado_141281" data-name="Trazado 141281" d="M160.344,274.278c-.635,4.97-2.455,12.513-3.273,17.544s1.636,12.816,2.364,15.179,5.63,1.979,5.439,3.868,7.316,2.2,7.316,2.2S136.943,327,133.41,326.119s6.6-7.847,8.559-8.3,3.016-1.666,4.3-4.454,2.668-2.284,4.037-5.081a61.761,61.761,0,0,0,3.3-6.462c1.569-3.883,2.917-15.817,1.281-16.817-1.7-1.04-.158,9.141-1.564,9.48s1.836-10.033-2.452-15.271S160.344,274.278,160.344,274.278Z" transform="translate(-132.668 -274.274)" fill="#263238"/>
          <path id="Trazado_141282" data-name="Trazado 141282" d="M172.19,313.071s-35.247,13.934-38.776,13.051c-3.253-.809,5.064-6.773,7.941-8.078.193,2.049,5.717-.047,7.9-1.259s2.362-.331,3.171-.69,6.912-4.917,6.277-4.733-5.183,3.547-6.277,2.453-2.9,1-4.264,1.636c-1.178.56-1.471-.119-2.446-.965.184-.34.368-.717.551-1.121,1.287-2.785,2.666-2.289,4.035-5.083a62.1,62.1,0,0,0,3.3-6.461c1.572-3.888,2.922-15.817,1.287-16.819-1.7-1.038-.156,9.145-1.563,9.476s1.828-10.027-2.454-15.266,9.467-4.936,9.467-4.936c-.634,4.973-2.454,12.518-3.272,17.546-.533,3.29.33,7.766,1.2,11.13-.23.817-.551,1.562-.929,1.681-.91.277-1.544,3.364-2.729,3.456s-.184,2.27,1.452,1.37c1.084-.6,2.794-.964,4-1.516,1.535,1.36,4.973,1.342,4.807,2.922C164.681,312.759,172.19,313.071,172.19,313.071Z" transform="translate(-132.668 -274.274)" fill="#fff" opacity="0.2"/>
        </g>
        <g id="Grupo_87093" data-name="Grupo 87093" transform="translate(36.757 58.395)">
          <path id="Trazado_141283" data-name="Trazado 141283" d="M179.4,251.395c-.174.285-.321.515-.413.68a83.459,83.459,0,0,1-4.5,7.15,44.493,44.493,0,0,1-5.4,6.838c-1.912,1.838-3.86,2.7-5.009,4.908a7.6,7.6,0,0,0-.644,1.718c-.422,1.664-.551,3.668-2,4.6a6.781,6.781,0,0,0-1.02.616c-.726.625-.689,1.719-.882,2.656s-1.094,1.958-1.94,1.526c-.717-.367-.928-1.6-1.737-1.553a3.136,3.136,0,0,0-.588.183c-.817.212-1.572-.432-2.2-.983s-1.526-1.084-2.243-.652a40.3,40.3,0,0,0-7.1-5.2c-2.077-1.25-4.228-2.381-6.48-3.594-5-2.7-10.754-5.377-14.236-8.124a9.926,9.926,0,0,1-2.776-3.08,4.093,4.093,0,0,1-.4-1.287c-.57-4.917,14.64-6.378,19.917-10.045s13.492-1.314,16.948-2.077c3.474-.762,7.343.322,10.992.046s5.909-1.323,8.032.23,4.495,1.085,4.945,2.27C180.916,248.931,180.015,250.42,179.4,251.395Z" transform="translate(-119.8 -245.113)" fill="#263238"/>
          <path id="Trazado_141284" data-name="Trazado 141284" d="M174.77,249.851c-3.152-.606,3.272-.726,2.784-1.094s-2.058-1.572-5.569-1.451-6.425-.12-7.168,0,2.435,1.093,2.435,1.093h-8.234c-2.666,0,1.819-1.093,1.819-1.093H147.014c.367,0,3.033,1.581,1.452,1.581s-3.273.845-5.451,1.691a37.173,37.173,0,0,1-5.331,1.7c-.358,0,4.991-3.989,5.313-4.237-.331.138-4.78,1.949-6.645,2.537-1.94.606-6.912,2.306-7.4,2.426a21.454,21.454,0,0,0,2.794,0s-3.758,1.94-5.7,2.179c-1.452.184-4.936,1.379-5.828,3.906a9.925,9.925,0,0,0,2.776,3.08c3.483,2.747,9.237,5.422,14.236,8.124,2.251,1.213,4.4,2.344,6.48,3.594a40.3,40.3,0,0,1,7.1,5.2c.718-.432,1.618.1,2.243.652s1.379,1.2,2.2.983a3.136,3.136,0,0,1,.588-.183c.809-.046,1.02,1.185,1.737,1.553.846.432,1.747-.6,1.94-1.526s.156-2.03.882-2.656a6.778,6.778,0,0,1,1.02-.616c1.452-.928,1.582-2.931,2-4.6a7.6,7.6,0,0,1,.644-1.718c1.149-2.206,3.1-3.07,5.009-4.908a44.5,44.5,0,0,0,5.4-6.838,83.473,83.473,0,0,0,4.5-7.151C177.867,250.2,177.922,250.458,174.77,249.851ZM129.745,262.7c-1.057-.123,2.363-1.181,2.363-1.181A2.561,2.561,0,0,1,129.745,262.7Zm.636-4.09s1.727-1.364,2.455-1.273a14.619,14.619,0,0,0,2.09,0S132.2,259.154,130.381,258.609Zm13.726,10.635c-1.241-.233,1.319-1,1.932-.818S145.561,269.517,144.107,269.244Zm6.143-13.908s-5.278,1.546-4.211,1.546h1.977c-.364,0-5.818,1.188-6.09,1.14a26.186,26.186,0,0,1,3.244-1.837s-.385-.484-.36-.666,1.23-.545,1.23-.545c.431-.363,2.34-.909,3.068-.455a7.048,7.048,0,0,0,2.636.455Zm2.22,10.817c-1.475-1.342,2.9,0,2.9,0S153.469,267.062,152.47,266.154Zm2.363-14.453c2-1.363,2.484,0,2.484,0S154.187,252.141,154.833,251.7Zm6.895,5.272c-.533-.273-1.532-.788-1.532-.788a5.753,5.753,0,0,1,2.09-.756,5.023,5.023,0,0,1,2.818.756C165.649,256.518,162.259,257.245,161.728,256.973Zm3.922,6.686s-2.454-.05-2.688,0a20.078,20.078,0,0,1,2.688-.943Zm3.8-9.837s1.745-.375,2.563.525C173.114,255.558,169.449,253.821,169.449,253.821Z" transform="translate(-119.802 -245.123)" fill="#fff" opacity="0.2"/>
        </g>
      </g>
    </g>
    <g id="Paper_stack" data-name="Paper stack" transform="translate(305.856 242.615)">
      <g id="Grupo_87097" data-name="Grupo 87097" transform="translate(0 0)">
        <g id="Grupo_87095" data-name="Grupo 87095" transform="translate(2.28)">
          <path id="Trazado_141285" data-name="Trazado 141285" d="M319.489,394.174l8.02,2.417h43.874l.969-17.582-8.484-3.636s1.575-13.59,4.121-28.15l5.818-.183,12.362-48.748-7.029-3.039,5.09-16.149h7.635l8.14-22.661s-29.252-11.66-46.692-13.205l-15.622,2.622L336.6,266.205l-12.726,1.678-2.5,21.925,9.05,1.558L324.6,337.946l-13.075,3.678L309.247,373.7l11.385,2.337Z" transform="translate(-309.247 -243.234)" fill="#afafaf"/>
          <path id="Trazado_141287" data-name="Trazado 141287" d="M372.4,379.627l-43.389,1.213-8.327-4.191,9.54,1.765,33.693-2.426Z" transform="translate(-309.3 -243.853)" fill="#fff" opacity="0.4"/>
          <path id="Trazado_141288" data-name="Trazado 141288" d="M368,347.671l-31.386.092-25.128-4.917.055-.781,13.078-3.676,13.814,8.281Z" transform="translate(-309.257 -243.677)" fill="#fff" opacity="0.4"/>
          <path id="Trazado_141289" data-name="Trazado 141289" d="M379.2,295.462l-38.721-3.787-10-.1-9.053-1.553,18.5-2.123Z" transform="translate(-309.304 -243.442)" opacity="0.2" style="isolation: isolate"/>
          <path id="Trazado_141290" data-name="Trazado 141290" d="M391.99,279.2h-7.628l-30.55-13.961L336.727,266.3l18.023-2.325Z" transform="translate(-309.375 -243.331)" opacity="0.2" style="isolation: isolate"/>
          <path id="Trazado_141291" data-name="Trazado 141291" d="M353.444,243.234l1.3,20.642L336.727,266.2l1.094-20.339Z" transform="translate(-309.375 -243.234)" fill="#fff" opacity="0.2"/>
          <path id="Trazado_141292" data-name="Trazado 141292" d="M339.927,287.8l4.974-21.488-20.966,1.682-2.509,21.929Z" transform="translate(-309.304 -243.342)" fill="#fff" opacity="0.2"/>
          <path id="Trazado_141293" data-name="Trazado 141293" d="M330.494,291.591l18.963.978L338.49,346.451l-13.814-8.281Z" transform="translate(-309.319 -243.459)" fill="#fff" opacity="0.2"/>
          <path id="Trazado_141294" data-name="Trazado 141294" d="M311.471,342.866l25.128,4.917-5.074,30.379-22.277-4Z" transform="translate(-309.247 -243.698)" fill="#fff" opacity="0.2"/>
          <path id="Trazado_141295" data-name="Trazado 141295" d="M329.009,380.844l-1.452,16.369-8.024-2.417,1.146-18.139Z" transform="translate(-309.295 -243.856)" fill="#fff" opacity="0.2"/>
        </g>
        <path id="Trazado_141296" data-name="Trazado 141296" d="M313.4,349.691l22.066,5.023,26-1.145-24.846,5.575Z" transform="translate(-306.986 -243.73)" fill="#407bff"/>
        <path id="Trazado_141297" data-name="Trazado 141297" d="M320.33,381.974l8.124,4.985h19.632l-23.83,1.908-7.985-5.454Z" transform="translate(-307 -243.881)" fill="#407bff"/>
        <path id="Trazado_141298" data-name="Trazado 141298" d="M337.125,391.859h34.688l4,3.007Z" transform="translate(-307.097 -243.927)" fill="#407bff"/>
        <path id="Trazado_141299" data-name="Trazado 141299" d="M329.862,362.755l-19.424-5.439-3.482,1.864Z" transform="translate(-306.956 -243.766)" fill="#407bff"/>
        <path id="Trazado_141300" data-name="Trazado 141300" d="M335.814,370.44l29.2-2.505,3.094,1.253Z" transform="translate(-307.091 -243.815)" fill="#407bff"/>
        <path id="Trazado_141301" data-name="Trazado 141301" d="M345.011,338.383l31.554-1.13,2.744,2.321Z" transform="translate(-307.134 -243.672)" fill="#407bff"/>
        <path id="Trazado_141302" data-name="Trazado 141302" d="M368.038,331.689l-25.933-2.946-16-5.962h-5.421l19.094,8Z" transform="translate(-307.02 -243.605)" fill="#407bff"/>
        <path id="Trazado_141303" data-name="Trazado 141303" d="M332.253,308.352l13.085,4.707,40.817,3.292-3.684-2.739-37.519-2.354Z" transform="translate(-307.074 -243.537)" fill="#407bff"/>
        <path id="Trazado_141304" data-name="Trazado 141304" d="M336.641,280.956l-18.178.909,4.5,2.181Z" transform="translate(-307.01 -243.41)" fill="#407bff"/>
        <path id="Trazado_141305" data-name="Trazado 141305" d="M329.053,273.458l13.82-1.835L378.5,284l-35.814-9.271Z" transform="translate(-307.059 -243.366)" fill="#407bff"/>
        <path id="Trazado_141306" data-name="Trazado 141306" d="M373.241,266.255l-21.27-11.484-21.088,6.61,6.213,1.667,17.626-2.534Z" transform="translate(-307.068 -243.288)" fill="#407bff"/>
        <path id="Trazado_141307" data-name="Trazado 141307" d="M366.864,258.307l32,13.254h-3.993Z" transform="translate(-307.236 -243.304)" fill="#407bff"/>
        <path id="Trazado_141308" data-name="Trazado 141308" d="M356.636,248.262l16,1.818,24.92,13.82S365.362,249.9,356.636,248.262Z" transform="translate(-307.188 -243.257)" fill="#407bff"/>
        <path id="Trazado_141309" data-name="Trazado 141309" d="M329.589,297.576l7.9,2-11.175-1Z" transform="translate(-307.046 -243.487)" fill="#407bff"/>
        <g id="Grupo_87096" data-name="Grupo 87096" transform="translate(0 5.005)">
          <path id="Trazado_141310" data-name="Trazado 141310" d="M313.4,349.691l22.066,5.023,26-1.145-24.846,5.575Z" transform="translate(-306.986 -248.735)" fill="#fff" opacity="0.7"/>
          <path id="Trazado_141311" data-name="Trazado 141311" d="M320.33,381.974l8.124,4.985h19.632l-23.83,1.908-7.985-5.454Z" transform="translate(-307 -248.885)" fill="#fff" opacity="0.7"/>
          <path id="Trazado_141312" data-name="Trazado 141312" d="M337.125,391.859h34.688l4,3.007Z" transform="translate(-307.097 -248.931)" fill="#fff" opacity="0.7"/>
          <path id="Trazado_141313" data-name="Trazado 141313" d="M329.862,362.755l-19.424-5.439-3.482,1.864Z" transform="translate(-306.956 -248.77)" fill="#fff" opacity="0.7"/>
          <path id="Trazado_141314" data-name="Trazado 141314" d="M335.814,370.44l29.2-2.505,3.094,1.253Z" transform="translate(-307.091 -248.82)" fill="#fff" opacity="0.7"/>
          <path id="Trazado_141315" data-name="Trazado 141315" d="M345.011,338.383l31.554-1.13,2.744,2.321Z" transform="translate(-307.134 -248.677)" fill="#fff" opacity="0.7"/>
          <path id="Trazado_141316" data-name="Trazado 141316" d="M368.038,331.689l-25.933-2.946-16-5.962h-5.421l19.094,8Z" transform="translate(-307.02 -248.609)" fill="#fff" opacity="0.7"/>
          <path id="Trazado_141317" data-name="Trazado 141317" d="M332.253,308.352l13.085,4.707,40.817,3.292-3.684-2.739-37.519-2.354Z" transform="translate(-307.074 -248.542)" fill="#fff" opacity="0.7"/>
          <path id="Trazado_141318" data-name="Trazado 141318" d="M336.641,280.956l-18.178.909,4.5,2.181Z" transform="translate(-307.01 -248.414)" fill="#fff" opacity="0.7"/>
          <path id="Trazado_141319" data-name="Trazado 141319" d="M329.053,273.458l13.82-1.835L378.5,284l-35.814-9.271Z" transform="translate(-307.059 -248.371)" fill="#fff" opacity="0.7"/>
          <path id="Trazado_141320" data-name="Trazado 141320" d="M373.241,266.255l-21.27-11.484-21.088,6.61,6.213,1.667,17.626-2.534Z" transform="translate(-307.068 -248.292)" fill="#fff" opacity="0.7"/>
          <path id="Trazado_141321" data-name="Trazado 141321" d="M366.864,258.307l32,13.254h-3.993Z" transform="translate(-307.236 -248.309)" fill="#fff" opacity="0.7"/>
          <path id="Trazado_141322" data-name="Trazado 141322" d="M356.636,248.262l16,1.818,24.92,13.82S365.362,249.9,356.636,248.262Z" transform="translate(-307.188 -248.262)" fill="#fff" opacity="0.7"/>
          <path id="Trazado_141323" data-name="Trazado 141323" d="M329.589,297.576l7.9,2-11.175-1Z" transform="translate(-307.046 -248.492)" fill="#fff" opacity="0.7"/>
        </g>
        <path id="Trazado_141324" data-name="Trazado 141324" d="M335.814,302.69l10.8,2.727L377,308.326l-30.382-1.491Z" transform="translate(-307.091 -243.511)" opacity="0.1" style="isolation: isolate"/>
        <path id="Trazado_141325" data-name="Trazado 141325" d="M332.253,294.654l17.24.839,32.3,5.524-33.313-3.454Z" transform="translate(-307.074 -243.474)" opacity="0.1" style="isolation: isolate"/>
        <path id="Trazado_141326" data-name="Trazado 141326" d="M327.595,284.964l13.529-2.134,34.284,7.951-34.567-6.726Z" transform="translate(-307.052 -243.419)" opacity="0.1" style="isolation: isolate"/>
        <path id="Trazado_141327" data-name="Trazado 141327" d="M330.883,278.168l11.405-.327,34.687,8.94-35.017-7.515Z" transform="translate(-307.068 -243.395)" opacity="0.1" style="isolation: isolate"/>
        <path id="Trazado_141328" data-name="Trazado 141328" d="M323.528,271.614l17.319-1.983L323.528,272.9Z" transform="translate(-307.034 -243.357)" opacity="0.1" style="isolation: isolate"/>
        <path id="Trazado_141329" data-name="Trazado 141329" d="M322.987,276.366h6.038l-6.038,1.469Z" transform="translate(-307.031 -243.388)" opacity="0.1" style="isolation: isolate"/>
        <path id="Trazado_141330" data-name="Trazado 141330" d="M337.544,251.068l16.22-2.807,21.689,7.819-21.493-6-16.416,2.091Z" transform="translate(-307.099 -243.257)" opacity="0.1" style="isolation: isolate"/>
        <path id="Trazado_141331" data-name="Trazado 141331" d="M393.617,275.108l-24.743-7.729,24.043,9.68Z" transform="translate(-307.245 -243.347)" opacity="0.1" style="isolation: isolate"/>
        <path id="Trazado_141332" data-name="Trazado 141332" d="M350.448,253.007l3.624-.817,39.459,12.716-39.287-11.414Z" transform="translate(-307.159 -243.276)" opacity="0.1" style="isolation: isolate"/>
        <path id="Trazado_141333" data-name="Trazado 141333" d="M399.716,258.284l-14.161-5.03,13.392,6.3Z" transform="translate(-307.323 -243.281)" opacity="0.1" style="isolation: isolate"/>
        <path id="Trazado_141334" data-name="Trazado 141334" d="M329.053,314.014l15.139,4.627,34.313,2.766-34.638-1.165Z" transform="translate(-307.059 -243.564)" opacity="0.1" style="isolation: isolate"/>
        <path id="Trazado_141335" data-name="Trazado 141335" d="M325.769,328.383l15.241,5.883,34.389.783H340.851Z" transform="translate(-307.044 -243.631)" opacity="0.1" style="isolation: isolate"/>
        <path id="Trazado_141336" data-name="Trazado 141336" d="M369.166,344.3l-29.352-3.272-12.219-4.969,11.687,6.781Z" transform="translate(-307.052 -243.667)" opacity="0.1" style="isolation: isolate"/>
        <path id="Trazado_141337" data-name="Trazado 141337" d="M379.508,325.8c-.273-.1-23.663-.7-23.663-.7l23.3,2.151Z" transform="translate(-307.184 -243.615)" opacity="0.1" style="isolation: isolate"/>
        <path id="Trazado_141338" data-name="Trazado 141338" d="M311.035,345.186l25.092,5.475h17.567l-17.748,1.081L311.479,346.7Z" transform="translate(-306.975 -243.709)" opacity="0.1"/>
        <path id="Trazado_141339" data-name="Trazado 141339" d="M366.489,357.856c-.009.055-24.4,2.728-24.4,2.728l24.2-1.364Z" transform="translate(-307.12 -243.768)" opacity="0.1"/>
        <path id="Trazado_141340" data-name="Trazado 141340" d="M316.271,356.145c-.324-.163,15.15,3.068,15.15,3.068S321.782,358.9,316.271,356.145Z" transform="translate(-307 -243.76)" opacity="0.1"/>
        <path id="Trazado_141341" data-name="Trazado 141341" d="M310.066,362.781l21.326,5.13-21.326-3.494Z" transform="translate(-306.971 -243.791)" opacity="0.1"/>
        <path id="Trazado_141342" data-name="Trazado 141342" d="M314.079,370.452l18.089,4.118,26.951-.543-26.951,1.935Z" transform="translate(-306.99 -243.827)" opacity="0.1"/>
        <path id="Trazado_141343" data-name="Trazado 141343" d="M338.676,365.358h18.907l-15.513.768Z" transform="translate(-307.104 -243.803)" opacity="0.1"/>
        <path id="Trazado_141344" data-name="Trazado 141344" d="M322.987,380.863,328.8,383.4s30.921-.252,30.361,0-30.48,1.345-30.48,1.345Z" transform="translate(-307.031 -243.875)" opacity="0.1"/>
        <path id="Trazado_141345" data-name="Trazado 141345" d="M368.128,388.9s-28.886.728-28.257.728h23.9Z" transform="translate(-307.11 -243.913)" opacity="0.1"/>
        <path id="Trazado_141346" data-name="Trazado 141346" d="M372.625,382.811s-4.734-.484-4.366,0,4.132,1.1,4.132,1.1Z" transform="translate(-307.242 -243.884)" opacity="0.1"/>
        <path id="Trazado_141347" data-name="Trazado 141347" d="M322.987,391.859l4.976,1.034,26.728,1.973-26.846-.64Z" transform="translate(-307.031 -243.927)" opacity="0.1"/>
      </g>
    </g>
    <g id="Character" transform="translate(145.044 142.718)">
      <g id="Grupo_87113" data-name="Grupo 87113" transform="translate(0 0)">
        <path id="Trazado_141348" data-name="Trazado 141348" d="M271.474,183.361c6.4,2.854,18.471,2.464,23.1-7.678s4.3-18.842-6.166-23.724-23.673,1.344-24.8,10.575S261.355,178.852,271.474,183.361Z" transform="translate(-145.939 -142.903)" fill="#263238"/>
        <g id="Grupo_87098" data-name="Grupo 87098" transform="translate(0 216.556)">
          <path id="Trazado_141349" data-name="Trazado 141349" d="M147.449,378.53a9.8,9.8,0,0,0,1.5-3.223h0s3.149-3.6,13.169-5.871l.877-4.51a3.787,3.787,0,0,0-1.83-3.937,2.114,2.114,0,0,0-.6-.246,25.706,25.706,0,0,0-3.318-.267,91.571,91.571,0,0,0-11.12.636l.05.8,7-.121c2.376-.03-.289,1.958-2.807,2.638s-5.165,1.954-4.965,7.156C145.665,377.654,146.061,380.154,147.449,378.53Z" transform="translate(-145.391 -360.439)" fill="#2e353a"/>
          <path id="Trazado_141350" data-name="Trazado 141350" d="M164.713,369.079s-12.861,3.413-15.75,6.23c0,0-1.775-4.841,4.856-8.284,8.575-4.451,6.758-6.279,6.758-6.279a21.444,21.444,0,0,1,3.675,1.423C166.5,363.5,164.713,369.079,164.713,369.079Z" transform="translate(-145.407 -360.44)" fill="#e4897b"/>
        </g>
        <g id="Grupo_87099" data-name="Grupo 87099" transform="translate(178.953 256.806)">
          <path id="Trazado_141351" data-name="Trazado 141351" d="M348.176,409.769a9.794,9.794,0,0,0-3.506.586h0s-4.75-.561-12.286-7.545l-4.216,1.826a3.789,3.789,0,0,0-2.213,3.735,2.135,2.135,0,0,0,.137.634,25.775,25.775,0,0,0,1.656,2.889,91.744,91.744,0,0,0,6.811,8.813l.633-.5-4.056-5.705c-1.37-1.943,1.778-.869,3.762.824s4.531,3.155,8.708.051C348.463,411.736,350.3,410,348.176,409.769Z" transform="translate(-325.186 -400.886)" fill="#2e353a"/>
          <path id="Trazado_141352" data-name="Trazado 141352" d="M330.624,400.877s10.086,8.678,14.042,9.47c0,0-2.99,4.2-9.578.677-8.519-4.556-9-2.025-9-2.025a21.494,21.494,0,0,1-.9-3.835C325.019,402.557,330.624,400.877,330.624,400.877Z" transform="translate(-325.182 -400.877)" fill="#e4897b"/>
        </g>
        <path id="Trazado_141353" data-name="Trazado 141353" d="M286.053,199.114c3.279,2.24,8.685,22.993,10.319,24.335s13.7-5.151,13.7-5.151l2.638,5.878s-18.235,11.153-20.74,9.057-10.709-24.566-10.709-24.566Z" transform="translate(-146.024 -143.131)" fill="#263238"/>
        <path id="Trazado_141354" data-name="Trazado 141354" d="M286.053,199.114c3.279,2.24,8.685,22.993,10.319,24.335s13.7-5.151,13.7-5.151l2.638,5.878s-18.235,11.153-20.74,9.057-10.709-24.566-10.709-24.566Z" transform="translate(-146.024 -143.131)" fill="#fff" opacity="0.2"/>
        <g id="Grupo_87100" data-name="Grupo 87100" transform="translate(73.028 62.967)">
          <path id="Trazado_141355" data-name="Trazado 141355" d="M218.761,219.073l12.416,12.544s37.918,12.921,47.371-.807c0,0-4.119-20.634-14.754-24.169S218.761,219.073,218.761,219.073Z" transform="translate(-218.761 -206.131)" fill="#263238"/>
          <path id="Trazado_141356" data-name="Trazado 141356" d="M218.761,219.073l12.416,12.544s37.918,12.921,47.371-.807c0,0-4.119-20.634-14.754-24.169S218.761,219.073,218.761,219.073Z" transform="translate(-218.761 -206.131)" fill="#fff" opacity="0.1"/>
        </g>
        <path id="Trazado_141357" data-name="Trazado 141357" d="M309.538,223.8l7.514-4.1,3.549-8.421a42.083,42.083,0,0,1,4.322,1.762c.507.391-1.588,7.345-2.113,7.79s-3.517.782-3.517.782l-7.152,4.527Z" transform="translate(-146.156 -143.188)" fill="#e4897b"/>
        <g id="Grupo_87103" data-name="Grupo 87103" transform="translate(70.115 43.665)">
          <path id="Trazado_141358" data-name="Trazado 141358" d="M243.242,188.221s24.622-.566,42.61,10.842A184.218,184.218,0,0,1,274.8,240.141l-36.1-5.969s3.865-10.282-.412-30.847Z" transform="translate(-215.94 -186.745)" fill="#407bff"/>
          <path id="Trazado_141359" data-name="Trazado 141359" d="M243.242,188.221s24.622-.566,42.61,10.842A184.218,184.218,0,0,1,274.8,240.141l-36.1-5.969s3.865-10.282-.412-30.847Z" transform="translate(-215.94 -186.745)" fill="#fff" opacity="0.6"/>
          <g id="Grupo_87102" data-name="Grupo 87102">
            <path id="Trazado_141360" data-name="Trazado 141360" d="M253.787,187.093c5.011,21.143-16.952,40.061-33.633,40.287l-4.32-9.162,17.827-7.441,9.476-22.561Z" transform="translate(-215.835 -186.74)" fill="#263238"/>
            <path id="Trazado_141361" data-name="Trazado 141361" d="M278.479,194.465s-3.346,29.563.34,36.291c0,0,6.3-11.535,7.726-31.177A33.85,33.85,0,0,0,278.479,194.465Z" transform="translate(-216.12 -186.774)" fill="#263238"/>
            <path id="Trazado_141362" data-name="Trazado 141362" d="M253.787,187.093c5.011,21.143-16.952,40.061-33.633,40.287l-4.32-9.162,17.827-7.441,9.476-22.561Z" transform="translate(-215.835 -186.74)" fill="#fff" opacity="0.3"/>
            <path id="Trazado_141363" data-name="Trazado 141363" d="M278.479,194.465s-3.346,29.563.34,36.291c0,0,6.3-11.535,7.726-31.177A33.85,33.85,0,0,0,278.479,194.465Z" transform="translate(-216.12 -186.774)" fill="#fff" opacity="0.3"/>
            <g id="Grupo_87101" data-name="Grupo 87101" transform="translate(28.032)">
              <path id="Trazado_141364" data-name="Trazado 141364" d="M259.425,187.374s-4.442-2.42-11.868,2.182l4.545,3.226-3.374,3.816A45.363,45.363,0,0,1,244,216.34s8.087-8.245,10.806-17.266S256.3,188.01,259.425,187.374Z" transform="translate(-243.998 -186.738)" fill="#263238"/>
              <path id="Trazado_141365" data-name="Trazado 141365" d="M274.159,191.4s5.336,1.152,9.963,7.3l-2.848.528,2.773,4.809L277.1,219.565s-.738-11.969-.386-19.15A16.277,16.277,0,0,0,274.159,191.4Z" transform="translate(-244.139 -186.76)" fill="#263238"/>
              <path id="Trazado_141366" data-name="Trazado 141366" d="M259.425,187.374s-4.442-2.42-11.868,2.182l4.545,3.226-3.374,3.816A45.363,45.363,0,0,1,244,216.34s8.087-8.245,10.806-17.266S256.3,188.01,259.425,187.374Z" transform="translate(-243.998 -186.738)" fill="#fff" opacity="0.2"/>
              <path id="Trazado_141367" data-name="Trazado 141367" d="M274.159,191.4s5.336,1.152,9.963,7.3l-2.848.528,2.773,4.809L277.1,219.565s-.738-11.969-.386-19.15A16.277,16.277,0,0,0,274.159,191.4Z" transform="translate(-244.139 -186.76)" fill="#fff" opacity="0.2"/>
            </g>
          </g>
        </g>
        <path id="Trazado_141368" data-name="Trazado 141368" d="M274.31,288.962c-6.017,24.824-23.4,57.864-26.787,64.264-2.657,5.041-13.15,6.727-25.894,8.206C197.073,364.279,164,368.789,164,368.789l-.044-7.745s66.786-15.733,67.868-19.333c1.518-5.086,3.3-29.272,4.893-49.62.188-2.272.362-4.491.533-6.634.284-3.527.541-6.8.762-9.621.513-6.484.836-10.683.836-10.683l35.682-25.2S281.838,257.9,274.31,288.962Z" transform="translate(-145.478 -143.321)" fill="#263238"/>
        <path id="Trazado_141369" data-name="Trazado 141369" d="M274.31,288.962c-6.017,24.824-23.4,57.864-26.787,64.264-2.657,5.041-13.15,6.727-25.894,8.206C197.073,364.279,164,368.789,164,368.789l-.044-7.745s66.786-15.733,67.868-19.333c1.518-5.086,3.3-29.272,4.893-49.62.188-2.272.362-4.491.533-6.634.284-3.527.541-6.8.762-9.621.513-6.484.836-10.683.836-10.683l35.682-25.2S281.838,257.9,274.31,288.962Z" transform="translate(-145.478 -143.321)" opacity="0.2" style="isolation: isolate"/>
        <path id="Trazado_141370" data-name="Trazado 141370" d="M291.719,319.8c-3.365-7.363-32.356-53.28-32.356-53.28l-28.484,4.817c9.184,26.947,41.892,54.474,47.44,61.614S325.049,403.8,325.049,403.8l5.066-3.585S298.845,335.386,291.719,319.8Z" transform="translate(-145.79 -143.445)" fill="#263238"/>
        <path id="Trazado_141371" data-name="Trazado 141371" d="M238.668,234.387l37.491,2.447-.693,4.292s-4.009,19.283-19.79,29.5l-24.8.557s-2.9-15.709,6.871-33.923Z" transform="translate(-145.788 -143.296)" fill="#263238"/>
        <g id="Grupo_87106" data-name="Grupo 87106" transform="translate(92.686 91.607)">
          <g id="Grupo_87104" data-name="Grupo 87104">
            <path id="Trazado_141372" data-name="Trazado 141372" d="M251.8,235.633l-12.357-.728-.935,2.882,13.015.98Z" transform="translate(-238.511 -234.905)"/>
            <path id="Trazado_141373" data-name="Trazado 141373" d="M253.427,235.729l-.279,3.159,21.667,1.632.207-3.518Z" transform="translate(-238.579 -234.909)"/>
          </g>
          <g id="Grupo_87105" data-name="Grupo 87105" transform="translate(25.634 1.47)">
            <rect id="Rectángulo_30622" data-name="Rectángulo 30622" width="5.296" height="3.989" rx="0.674" transform="translate(0.235 0) rotate(3.373)" fill="none" stroke="#fff" stroke-linecap="round" stroke-linejoin="round" stroke-width="1"/>
            <line id="Línea_1854" data-name="Línea 1854" x2="1.5" y2="0.088" transform="translate(3.844 2.211)" fill="none" stroke="#fff" stroke-linecap="round" stroke-linejoin="round" stroke-width="1"/>
          </g>
        </g>
        <g id="Grupo_87107" data-name="Grupo 87107" transform="translate(94.274 45.141)">
          <path id="Trazado_141374" data-name="Trazado 141374" d="M270.967,213.947l10.247-5.248a10.447,10.447,0,0,1,2.642-2.7c1.1-.5,10.753.956,10.753.956L291,214.593s-7.141-.416-7.9-1l-9.372,5.017Z" transform="translate(-240.251 -188.303)" fill="#e4897b"/>
          <path id="Trazado_141375" data-name="Trazado 141375" d="M243.25,188.221c-9.421,2.443,4.747,37.01,10.953,38.964s26.127-11.453,26.127-11.453l-3.419-5.754s-17.41,6.949-19,6.2-8.025-18.133-9.166-21.237S243.25,188.221,243.25,188.221Z" transform="translate(-240.107 -188.221)" fill="#263238"/>
          <path id="Trazado_141376" data-name="Trazado 141376" d="M243.25,188.221c-9.421,2.443,4.747,37.01,10.953,38.964s26.127-11.453,26.127-11.453l-3.419-5.754s-17.41,6.949-19,6.2-8.025-18.133-9.166-21.237S243.25,188.221,243.25,188.221Z" transform="translate(-240.107 -188.221)" fill="#fff" opacity="0.2"/>
          <path id="Trazado_141377" data-name="Trazado 141377" d="M278.743,215.858a.339.339,0,1,1-.268-.4A.339.339,0,0,1,278.743,215.858Z" transform="translate(-240.284 -188.348)" fill="#fff" opacity="0.6"/>
          <path id="Trazado_141378" data-name="Trazado 141378" d="M276.35,217.338a.339.339,0,1,1-.268-.4A.339.339,0,0,1,276.35,217.338Z" transform="translate(-240.273 -188.355)" fill="#fff" opacity="0.6"/>
        </g>
        <g id="Grupo_87108" data-name="Grupo 87108" transform="translate(143.371 46.989)">
          <path id="Trazado_141379" data-name="Trazado 141379" d="M328.244,197.645,315.6,230.43a1.744,1.744,0,0,1-1.992,1.033L290.445,225.7a1.29,1.29,0,0,1-.916-1.756l12.646-32.785a1.742,1.742,0,0,1,1.992-1.033l23.162,5.764A1.29,1.29,0,0,1,328.244,197.645Z" transform="translate(-289.434 -190.078)" fill="#263238"/>
          <path id="Trazado_141380" data-name="Trazado 141380" d="M328.249,197.646,315.6,230.431a1.744,1.744,0,0,1-1.992,1.033l-22.108-5.5a1.29,1.29,0,0,1-.916-1.757l12.645-32.785a1.742,1.742,0,0,1,1.992-1.033l22.108,5.5A1.29,1.29,0,0,1,328.249,197.646Z" transform="translate(-289.439 -190.079)" fill="#fff" opacity="0.3"/>
          <path id="Trazado_141381" data-name="Trazado 141381" d="M310.567,208.785a2.492,2.492,0,0,0-2.855,1.481,1.846,1.846,0,0,0,1.313,2.517,2.49,2.49,0,0,0,2.854-1.481A1.845,1.845,0,0,1,310.567,208.785Z" transform="translate(-289.518 -190.165)" fill="#fff" opacity="0.3"/>
        </g>
        <g id="Grupo_87109" data-name="Grupo 87109" transform="translate(106.472 44.294)">
          <path id="Trazado_141382" data-name="Trazado 141382" d="M252.362,195.741s1.464-6.591,4.055-7.961,15,.8,19.311,4.851a16.922,16.922,0,0,1,4.782,9.963l-5.547-2.348-8.414,9.479-6.6-13.269Z" transform="translate(-252.362 -187.37)" fill="#407bff"/>
          <path id="Trazado_141383" data-name="Trazado 141383" d="M252.362,195.741s1.464-6.591,4.055-7.961,15,.8,19.311,4.851a16.922,16.922,0,0,1,4.782,9.963l-5.547-2.348-8.414,9.479-6.6-13.269Z" transform="translate(-252.362 -187.37)" fill="#fff" opacity="0.5"/>
        </g>
        <path id="Trazado_141384" data-name="Trazado 141384" d="M264.859,188.047c7.157.552,10.872,5.5,9.932,9.545l-4.452.617-3.577,9.756-1.414-10.838-4.492-2.855S257.985,187.517,264.859,188.047Z" transform="translate(-145.927 -143.079)" fill="#e4897b"/>
        <path id="Trazado_141385" data-name="Trazado 141385" d="M267.5,198.67c-6.83-5.39-6.034-9.605-6.034-9.605,3.359-1.848,5.588-5.853,6.391-8.941a17.57,17.57,0,0,0,.539-2.967l7.907,7.011a29.986,29.986,0,0,0-2.595,3.543,13.132,13.132,0,0,0-1.4,2.906c-.991,3.025.5,3.972.5,3.972C272.622,198.451,267.5,198.67,267.5,198.67Z" transform="translate(-145.932 -143.029)" fill="#e4897b"/>
        <path id="Trazado_141386" data-name="Trazado 141386" d="M273.579,187.146a13.077,13.077,0,0,0-1.021,3.061c-3.56-2.152-5.1-6.429-5.749-9.842a17.451,17.451,0,0,0,.158-3.012L275.7,183.3A29.933,29.933,0,0,0,273.579,187.146Z" transform="translate(-145.957 -143.03)" opacity="0.2" style="isolation: isolate"/>
        <g id="Grupo_87112" data-name="Grupo 87112" transform="translate(119.351 9.055)">
          <path id="Trazado_141387" data-name="Trazado 141387" d="M286.263,160.492c8.14,3.932,8.654,9.555,5.2,18.231-4.318,10.842-10.24,17.166-19.335,10.011C259.774,179.016,272.746,153.963,286.263,160.492Z" transform="translate(-265.309 -152.002)" fill="#e4897b"/>
          <path id="Trazado_141388" data-name="Trazado 141388" d="M286.5,175.8a19.093,19.093,0,0,0,.738,4.52,2.486,2.486,0,0,1-2.591-.115Z" transform="translate(-265.391 -152.078)" fill="#de5753"/>
          <g id="Grupo_87110" data-name="Grupo 87110" transform="translate(14.646 19.001)">
            <path id="Trazado_141389" data-name="Trazado 141389" d="M281.82,172.708c-.307.676-.922,1.058-1.373.853s-.567-.919-.26-1.6.922-1.058,1.373-.853S282.127,172.031,281.82,172.708Z" transform="translate(-280.015 -171.057)" fill="#263238"/>
            <path id="Trazado_141390" data-name="Trazado 141390" d="M281.363,171.06l1.733.092S281.8,172.056,281.363,171.06Z" transform="translate(-280.022 -171.057)" fill="#263238"/>
          </g>
          <g id="Grupo_87111" data-name="Grupo 87111" transform="translate(23.115 22.681)">
            <path id="Trazado_141391" data-name="Trazado 141391" d="M290.329,176.405c-.308.676-.922,1.058-1.373.853s-.567-.919-.26-1.595.922-1.059,1.373-.854S290.636,175.729,290.329,176.405Z" transform="translate(-288.524 -174.754)" fill="#263238"/>
            <path id="Trazado_141392" data-name="Trazado 141392" d="M289.872,174.757l1.733.092S290.31,175.753,289.872,174.757Z" transform="translate(-288.531 -174.754)" fill="#263238"/>
          </g>
          <path id="Trazado_141393" data-name="Trazado 141393" d="M284.137,167.912a4.709,4.709,0,0,0-3.487-2.254" transform="translate(-265.372 -152.031)" fill="none" stroke="#263238" stroke-linecap="round" stroke-linejoin="round" stroke-width="0.708"/>
          <path id="Trazado_141394" data-name="Trazado 141394" d="M290.287,170.6a4.219,4.219,0,0,1,3.673.2" transform="translate(-265.417 -152.052)" fill="none" stroke="#263238" stroke-linecap="round" stroke-linejoin="round" stroke-width="0.708"/>
          <path id="Trazado_141395" data-name="Trazado 141395" d="M270.737,169.893s7.036-4.849,8.953-10.29c0,0,19.313,1.2,12.2,17.958,0,0,8.6-13.775-5.238-20.858-13.812-7.072-23.663,13.415-19.384,23C267.268,179.707,266.362,172.938,270.737,169.893Z" transform="translate(-265.305 -151.982)" fill="#263238"/>
          <path id="Trazado_141396" data-name="Trazado 141396" d="M271.232,172.308a3.967,3.967,0,0,0-2.268-5.119c-2.655-.944-6.358,3.654-.686,7.93C269.091,175.732,270.025,175.1,271.232,172.308Z" transform="translate(-265.301 -152.037)" fill="#e4897b"/>
          <path id="Trazado_141397" data-name="Trazado 141397" d="M279.345,152.442s6.141-1.382,10.069.568,4.207,4.882,4.207,4.882a5.759,5.759,0,0,1,5.073,1.564c2.451,2.253,3.889,8.762,1.3,15.714s-8.658,5.981-8.658,5.981,7.9-10.324-.518-17.024c0,0-2.762-3.309-5.982-1.306s-5.512,10.347-12.589,4.912S273.238,154.039,279.345,152.442Z" transform="translate(-265.32 -151.967)" fill="#263238"/>
          <path id="Trazado_141398" data-name="Trazado 141398" d="M279.461,180.1s3.046,1.688,3.266,3.4" transform="translate(-265.367 -152.098)" fill="none" stroke="#263238" stroke-linecap="round" stroke-linejoin="round" stroke-width="0.708"/>
        </g>
        <path id="Trazado_141399" data-name="Trazado 141399" d="M279.738,153.7s-4.266-14.17-13.543-10.091-13.8,14.274-21.307,8.318-10.943,1.773-14.593,4.135-10.091-1.184-8.373-4.135c0,0-4.724,3.618,3.65,7.419s12.5-4.144,15.16-1.138,12.106,9.018,17.045,4.724A10.293,10.293,0,0,1,268.184,161Z" transform="translate(-145.742 -142.869)" fill="#263238"/>
        <path id="Trazado_141400" data-name="Trazado 141400" d="M267.629,159.421c-4.038.119-8.977,9.056-14.686,6.927s-11.644-6.851-14.65-4.49" transform="translate(-145.824 -142.946)" fill="none" stroke="#263238" stroke-linecap="round" stroke-linejoin="round" stroke-width="0.5"/>
        <path id="Trazado_141401" data-name="Trazado 141401" d="M254.564,153.669c-8.642-1.018-12.921-6.605-16.326-6.176s-7.484,8.917-11.349,6.176" transform="translate(-145.771 -142.89)" fill="none" stroke="#263238" stroke-linecap="round" stroke-linejoin="round" stroke-width="0.5"/>
        <path id="Trazado_141402" data-name="Trazado 141402" d="M289.363,162.327c-2.817-1.218-4.509.54-9.375,7.921-2.063,3.13-5.829.766-5.829.766" transform="translate(-145.991 -142.958)" fill="none" stroke="#263238" stroke-linecap="round" stroke-linejoin="round" stroke-width="0.5"/>
      </g>
    </g>
    <g id="Paper_sheets" data-name="Paper sheets" transform="translate(70.832 214.164)">
      <g id="Grupo_87114" data-name="Grupo 87114">
        <path id="Trazado_141403" data-name="Trazado 141403" d="M319.015,222.592l20.343-7.942s23.047,13.486,37.7,15.716l-25.34,4.988S324.279,229.886,319.015,222.592Z" transform="translate(-71.989 -214.65)" fill="#afafaf"/>
        <path id="Trazado_141404" data-name="Trazado 141404" d="M195.245,288.2,210.7,274.256s26.4,4.008,47.008,13.947l-21.521,13.21S215.922,291.111,195.245,288.2Z" transform="translate(-71.412 -214.928)" fill="#afafaf"/>
        <path id="Trazado_141405" data-name="Trazado 141405" d="M70.832,306.125,90.68,299.28s17.219,18.4,30.942,18.409L98.863,328.612S74.609,319.331,70.832,306.125Z" transform="translate(-70.832 -215.044)" fill="#afafaf"/>
        <path id="Trazado_141406" data-name="Trazado 141406" d="M147.29,236.878s25.9-3.03,44.264,11.271l-9.468,11.656s-22.737-9.622-42.643-3.99Z" transform="translate(-71.152 -214.752)" fill="#afafaf"/>
        <path id="Trazado_141407" data-name="Trazado 141407" d="M381.89,346.237l24.961,4.264s-21.664,14.377-39.9,17.023l-19.694-6.383S370.958,358.662,381.89,346.237Z" transform="translate(-72.12 -215.263)" fill="#e8e8e8"/>
        <path id="Trazado_141408" data-name="Trazado 141408" d="M374.087,302.757s24-1.3,40.969,5.745l10.181-9.721s-26.643-11.676-43.813-5.842Z" transform="translate(-72.245 -215.007)" fill="#e8e8e8"/>
        <path id="Trazado_141409" data-name="Trazado 141409" d="M209.289,394.921s12-12.626,41.941-15.958l18.154,8.181s-27.079,5.878-39.405,11.6Z" transform="translate(-71.477 -215.416)" fill="#afafaf"/>
      </g>
    </g>
  </g>
</svg>
