<svg xmlns="http://www.w3.org/2000/svg" width="271.267" height="196.039" viewBox="0 0 271.267 196.039">
  <g id="Grupo_89550" data-name="Grupo 89550" transform="translate(-5367.885 -1962.706)">
    <g id="freepik--background-complete--inject-3" transform="translate(5367.885 1966.507)">
      <path id="Trazado_143465" data-name="Trazado 143465" d="M5371.4,2311.846v19.86h-3.315v2.157h3.315v13.3h62v-12.1h-4.608v-2.63h4.595v-3.946h2.039v-1.8H5433v-14.841Z" transform="translate(-5367.997 -2162.578)" fill="#f5f5f5"/>
      <path id="Trazado_143466" data-name="Trazado 143466" d="M5479.5,2311.9v35.034h16.462v-12.1h-4.594v-2.416l4.594.083v-3.955l2.079,0-.04-2.043-2.424-.057v-14.612Z" transform="translate(-5430.568 -2162.578)" fill="#ebebeb"/>
      <path id="Trazado_143467" data-name="Trazado 143467" d="M5417.991,2361.135c0,.123-11.219.219-25.051.219s-25.056-.1-25.056-.219,11.215-.219,25.056-.219S5417.991,2361.012,5417.991,2361.135Z" transform="translate(-5367.885 -2190.135)" fill="#e0e0e0"/>
      <path id="Trazado_143468" data-name="Trazado 143468" d="M5417.991,2356.535c0,.123-11.219.219-25.051.219s-25.056-.1-25.056-.219,11.215-.219,25.056-.219S5417.991,2356.413,5417.991,2356.535Z" transform="translate(-5367.885 -2187.552)" fill="#e0e0e0"/>
      <path id="Trazado_143469" data-name="Trazado 143469" d="M5425.362,2344.145c0,.123-11.219.223-25.051.223s-25.055-.1-25.055-.223,11.215-.219,25.055-.219S5425.362,2344.027,5425.362,2344.145Z" transform="translate(-5372.024 -2180.594)" fill="#e0e0e0"/>
      <path id="Trazado_143470" data-name="Trazado 143470" d="M5426.042,2377.9c0,.118-11.219.219-25.056.219s-25.05-.1-25.05-.219,11.215-.224,25.05-.224S5426.042,2377.777,5426.042,2377.9Z" transform="translate(-5372.406 -2199.547)" fill="#e0e0e0"/>
      <path id="Trazado_143471" data-name="Trazado 143471" d="M5657.233,1991.8a18.383,18.383,0,0,1,4.484-1.951l.926-4.441,7.5-.132,1.078,4.384a18.287,18.287,0,0,1,4.551,1.789l3.783-2.464,5.4,5.213-2.328,3.876a18.347,18.347,0,0,1,1.951,4.49l4.442.921.131,7.5-4.406,1.083a18.359,18.359,0,0,1-1.79,4.551l2.482,3.792-5.222,5.4-3.875-2.35a18.456,18.456,0,0,1-4.49,1.947l-.921,4.441-7.5.132-1.083-4.406a18.3,18.3,0,0,1-4.551-1.789l-3.792,2.486-5.4-5.213,2.35-3.876a18.317,18.317,0,0,1-1.947-4.485l-4.441-.925-.132-7.5,4.406-1.079a18.284,18.284,0,0,1,1.78-4.551l-2.486-3.792,5.212-5.4,3.876,2.35Zm4,9.991a7.876,7.876,0,1,0,.016-.017Z" transform="translate(-5523.19 -1979.182)" fill="#ebebeb"/>
      <path id="Trazado_143472" data-name="Trazado 143472" d="M5759.058,1975.182a10.8,10.8,0,0,1,2.631-1.14l.539-2.591,4.384-.075.61,2.573a10.926,10.926,0,0,1,2.656,1.043l2.192-1.447,3.183,3.034-1.367,2.262a10.809,10.809,0,0,1,1.136,2.63l2.591.539.074,4.384-2.569.631a10.639,10.639,0,0,1-1.044,2.63l1.452,2.192-3.042,3.148-2.263-1.372a10.645,10.645,0,0,1-2.63,1.14l-.539,2.587-4.384.079-.627-2.569a10.824,10.824,0,0,1-2.657-1.043l-2.192,1.447-3.152-3.038,1.373-2.262a10.574,10.574,0,0,1-1.136-2.631l-2.591-.539-.079-4.384,2.556-.57a10.663,10.663,0,0,1,1.047-2.63l-1.451-2.192,3.039-3.148,2.262,1.372Zm2.333,5.827a4.7,4.7,0,1,0,6.642-.114,4.695,4.695,0,0,0-6.642.114Z" transform="translate(-5583.376 -1971.376)" fill="#ebebeb"/>
      <path id="Trazado_143473" data-name="Trazado 143473" d="M5905.267,2126.8a14.364,14.364,0,0,1,3.485-1.517l.715-3.446,5.826-.105.841,3.424a14.227,14.227,0,0,1,3.534,1.39l2.942-1.929,4.2,4.047-1.828,3.008a14.432,14.432,0,0,1,1.517,3.507l3.445.719.11,5.787-3.419.837a14.071,14.071,0,0,1-1.4,3.547l1.929,2.946-4.046,4.191-3.012-1.824a14.118,14.118,0,0,1-3.48,1.513l-.719,3.45-5.826.1-.838-3.42a14.39,14.39,0,0,1-3.534-1.39l-2.946,1.929-4.191-4.046,1.824-3.012a14.144,14.144,0,0,1-1.513-3.486l-3.459-.71-.1-5.826,3.42-.842a14.562,14.562,0,0,1,1.39-3.534l-1.929-2.941,4.047-4.2,3.012,1.828Zm3.1,7.76a6.252,6.252,0,1,0,8.843-.153,6.252,6.252,0,0,0-8.843.153Z" transform="translate(-5664.081 -2055.816)" fill="#ebebeb"/>
    </g>
    <g id="freepik--Artboard--inject-3" transform="translate(5372.637 1962.706)">
      <rect id="Rectángulo_31897" data-name="Rectángulo 31897" width="156.699" height="122.616" transform="translate(0)" fill="#fff"/>
      <rect id="Rectángulo_31898" data-name="Rectángulo 31898" width="157.286" height="10.198" transform="translate(0.031)" fill="#5e6178"/>
      <rect id="Rectángulo_31899" data-name="Rectángulo 31899" width="8.751" height="112.419" transform="translate(0.031 10.198)" fill="#344154"/>
      <rect id="Rectángulo_31900" data-name="Rectángulo 31900" width="157.286" height="6.756" transform="translate(0.031 10.198)" fill="#344154"/>
      <path id="Trazado_143474" data-name="Trazado 143474" d="M5385.835,1973.253a.215.215,0,0,1-.154-.061.219.219,0,0,1,0-.31h0l4.994-5.077a.216.216,0,0,1,.3,0l0,0a.219.219,0,0,1,0,.31h0l-4.989,5.073A.225.225,0,0,1,5385.835,1973.253Z" transform="translate(-5382.595 -1965.533)" fill="#fff"/>
      <path id="Trazado_143475" data-name="Trazado 143475" d="M5390.82,1973.276a.205.205,0,0,1-.154-.066l-5.076-5a.22.22,0,0,1,.306-.316l5.077,4.994a.219.219,0,0,1,0,.31h0A.2.2,0,0,1,5390.82,1973.276Z" transform="translate(-5382.542 -1965.586)" fill="#fff"/>
      <path id="Trazado_143476" data-name="Trazado 143476" d="M5538.087,2001.23c0,.061-34.534.114-77.126.114s-77.136-.053-77.136-.114,34.53-.114,77.136-.114S5538.087,2001.173,5538.087,2001.23Z" transform="translate(-5381.589 -1984.276)" fill="#5e6178"/>
      <path id="Trazado_143477" data-name="Trazado 143477" d="M5398.61,2099.575c-.062,0-.115-24.8-.115-55.39s.053-55.39.115-55.39.114,24.792.114,55.39S5398.671,2099.575,5398.61,2099.575Z" transform="translate(-5389.828 -1977.358)" fill="#5e6178"/>
      <path id="Trazado_143478" data-name="Trazado 143478" d="M5419.09,1994.2a31.838,31.838,0,0,1,0-5.4,32.11,32.11,0,0,1,0,5.4Z" transform="translate(-5401.321 -1977.358)" fill="#5e6178"/>
      <path id="Trazado_143479" data-name="Trazado 143479" d="M5439.572,1994.2a32.11,32.11,0,0,1,0-5.4,32.11,32.11,0,0,1,0,5.4Z" transform="translate(-5412.824 -1977.358)" fill="#5e6178"/>
      <path id="Trazado_143480" data-name="Trazado 143480" d="M5460.06,1994.2a32.11,32.11,0,0,1,0-5.4,31.973,31.973,0,0,1,0,5.4Z" transform="translate(-5424.329 -1977.358)" fill="#5e6178"/>
      <path id="Trazado_143481" data-name="Trazado 143481" d="M5480.542,1994.2a32.248,32.248,0,0,1,0-5.4,31.973,31.973,0,0,1,0,5.4Z" transform="translate(-5435.832 -1977.358)" fill="#5e6178"/>
      <path id="Trazado_143482" data-name="Trazado 143482" d="M5501.03,1994.2a32.248,32.248,0,0,1,0-5.4,32.11,32.11,0,0,1,0,5.4Z" transform="translate(-5447.338 -1977.358)" fill="#5e6178"/>
      <path id="Trazado_143483" data-name="Trazado 143483" d="M5521.512,1994.2a31.973,31.973,0,0,1,0-5.4,32.11,32.11,0,0,1,0,5.4Z" transform="translate(-5458.84 -1977.358)" fill="#5e6178"/>
      <path id="Trazado_143484" data-name="Trazado 143484" d="M5542,1994.2a31.838,31.838,0,0,1,0-5.4,32.248,32.248,0,0,1,0,5.4Z" transform="translate(-5470.345 -1977.358)" fill="#5e6178"/>
      <path id="Trazado_143485" data-name="Trazado 143485" d="M5562.482,1994.2a31.838,31.838,0,0,1,0-5.4,32.11,32.11,0,0,1,0,5.4Z" transform="translate(-5481.849 -1977.358)" fill="#5e6178"/>
      <path id="Trazado_143486" data-name="Trazado 143486" d="M5582.969,1994.2a32.11,32.11,0,0,1,0-5.4,31.973,31.973,0,0,1,0,5.4Z" transform="translate(-5493.353 -1977.358)" fill="#5e6178"/>
      <path id="Trazado_143487" data-name="Trazado 143487" d="M5603.452,1994.2a32.11,32.11,0,1,1,.114-2.7A16.259,16.259,0,0,1,5603.452,1994.2Z" transform="translate(-5504.856 -1977.358)" fill="#5e6178"/>
      <path id="Trazado_143488" data-name="Trazado 143488" d="M5623.94,1994.2a32.11,32.11,0,0,1,0-5.4,32.248,32.248,0,0,1,0,5.4Z" transform="translate(-5516.361 -1977.358)" fill="#5e6178"/>
      <path id="Trazado_143489" data-name="Trazado 143489" d="M5644.422,1994.2a32.11,32.11,0,1,1,.114-2.7A16.259,16.259,0,0,1,5644.422,1994.2Z" transform="translate(-5527.864 -1977.358)" fill="#5e6178"/>
      <path id="Trazado_143490" data-name="Trazado 143490" d="M5664.9,1994.2a30.793,30.793,0,0,1,0-5.4,31.838,31.838,0,0,1,0,5.4Z" transform="translate(-5539.363 -1977.358)" fill="#5e6178"/>
      <path id="Trazado_143491" data-name="Trazado 143491" d="M5685.392,1994.2a32.11,32.11,0,1,1,.114-2.7A16.365,16.365,0,0,1,5685.392,1994.2Z" transform="translate(-5550.873 -1977.358)" fill="#5e6178"/>
      <path id="Trazado_143492" data-name="Trazado 143492" d="M5705.871,1994.2a32.248,32.248,0,0,1,0-5.4,30.668,30.668,0,0,1,0,5.4Z" transform="translate(-5562.373 -1977.358)" fill="#5e6178"/>
      <path id="Trazado_143493" data-name="Trazado 143493" d="M5726.361,1994.2a31.7,31.7,0,1,1,.115-2.7A16.311,16.311,0,0,1,5726.361,1994.2Z" transform="translate(-5573.88 -1977.358)" fill="#5e6178"/>
      <path id="Trazado_143494" data-name="Trazado 143494" d="M5390.371,2018.643a47.035,47.035,0,0,1-6.546,0,47.035,47.035,0,0,1,6.546,0Z" transform="translate(-5381.589 -1994.048)" fill="#5e6178"/>
      <path id="Trazado_143495" data-name="Trazado 143495" d="M5390.371,2037.523a47.085,47.085,0,0,1-6.546,0,47.085,47.085,0,0,1,6.546,0Z" transform="translate(-5381.589 -2004.65)" fill="#5e6178"/>
      <path id="Trazado_143496" data-name="Trazado 143496" d="M5390.371,2056.4a47.035,47.035,0,0,1-6.546,0,46.934,46.934,0,0,1,6.546,0Z" transform="translate(-5381.589 -2015.253)" fill="#5e6178"/>
      <path id="Trazado_143497" data-name="Trazado 143497" d="M5390.371,2075.281a47.035,47.035,0,0,1-6.546,0,47.135,47.135,0,0,1,6.546,0Z" transform="translate(-5381.589 -2025.854)" fill="#5e6178"/>
      <path id="Trazado_143498" data-name="Trazado 143498" d="M5390.371,2094.153a47.135,47.135,0,0,1-6.546,0,46.934,46.934,0,0,1,6.546,0Z" transform="translate(-5381.589 -2036.453)" fill="#5e6178"/>
      <path id="Trazado_143499" data-name="Trazado 143499" d="M5390.371,2113.083a47.135,47.135,0,0,1-6.546,0,46.934,46.934,0,0,1,6.546,0Z" transform="translate(-5381.589 -2047.084)" fill="#5e6178"/>
      <path id="Trazado_143500" data-name="Trazado 143500" d="M5390.371,2131.911a46.934,46.934,0,0,1-6.546,0,47.135,47.135,0,0,1,6.546,0Z" transform="translate(-5381.589 -2057.656)" fill="#5e6178"/>
      <path id="Trazado_143501" data-name="Trazado 143501" d="M5390.371,2150.791a46.934,46.934,0,0,1-6.546,0,47.035,47.035,0,0,1,6.546,0Z" transform="translate(-5381.589 -2068.259)" fill="#5e6178"/>
      <path id="Trazado_143502" data-name="Trazado 143502" d="M5390.371,2169.663a47.035,47.035,0,0,1-6.546,0,47.035,47.035,0,0,1,6.546,0Z" transform="translate(-5381.589 -2078.858)" fill="#5e6178"/>
      <path id="Trazado_143503" data-name="Trazado 143503" d="M5390.371,2188.543a47.135,47.135,0,0,1-6.546,0,46.934,46.934,0,0,1,6.546,0Z" transform="translate(-5381.589 -2089.46)" fill="#5e6178"/>
      <path id="Trazado_143504" data-name="Trazado 143504" d="M5390.371,2207.421a47.135,47.135,0,0,1-6.546,0,47.035,47.035,0,0,1,6.546,0Z" transform="translate(-5381.589 -2100.061)" fill="#5e6178"/>
      <path id="Trazado_143505" data-name="Trazado 143505" d="M5390.371,2226.313a45.293,45.293,0,0,1-6.546,0,58.239,58.239,0,0,1,6.546,0Z" transform="translate(-5381.589 -2110.681)" fill="#5e6178"/>
      <path id="Trazado_143506" data-name="Trazado 143506" d="M5550.789,2222.23c0,.061-29.887.114-66.745.114s-66.749-.053-66.749-.114,29.879-.114,66.749-.114S5550.789,2222.173,5550.789,2222.23Z" transform="translate(-5400.386 -2108.386)" fill="#5e6178"/>
      <g id="Grupo_89544" data-name="Grupo 89544" transform="translate(8.651 17.521)">
        <g id="Grupo_89389" data-name="Grupo 89389">
          <g id="Grupo_89385" data-name="Grupo 89385" transform="translate(0.138 0.138)">
            <g id="Grupo_89384" data-name="Grupo 89384">
              <rect id="Rectángulo_31901" data-name="Rectángulo 31901" width="142.122" height="93.22" fill="#fafafa"/>
            </g>
          </g>
          <g id="Grupo_89388" data-name="Grupo 89388">
            <g id="Grupo_89387" data-name="Grupo 89387">
              <g id="Grupo_89386" data-name="Grupo 89386">
                <path id="Trazado_143507" data-name="Trazado 143507" d="M5540.718,2096.03c0-.9-.043-36.364-.11-93.22l.11.11-142.111.028h-.011l.138-.138c0,33.152-.008,64.7-.012,93.22l-.126-.126,142.122.127-142.122.127h-.127v-.128c0-28.519-.007-60.068-.012-93.22v-.139h.15l142.111.028h.11v.111C5540.761,2059.665,5540.718,2095.133,5540.718,2096.03Z" transform="translate(-5398.457 -2002.671)" fill="#344154"/>
              </g>
            </g>
          </g>
        </g>
        <g id="Grupo_89414" data-name="Grupo 89414" transform="translate(10.695 35.878)">
          <g id="Grupo_89401" data-name="Grupo 89401" transform="translate(32.796 15.739)">
            <g id="Grupo_89391" data-name="Grupo 89391">
              <g id="Grupo_89390" data-name="Grupo 89390">
                <path id="Trazado_143508" data-name="Trazado 143508" d="M5497.739,2120.406l13.98.192a13.919,13.919,0,0,1-13.98,13.521h-.081Z" transform="translate(-5497.658 -2120.406)" fill="#5e6178"/>
              </g>
            </g>
            <g id="Grupo_89394" data-name="Grupo 89394" transform="translate(4.926 8.279)">
              <g id="Grupo_89393" data-name="Grupo 89393">
                <g id="Grupo_89392" data-name="Grupo 89392">
                  <path id="Trazado_143509" data-name="Trazado 143509" d="M5527.162,2149.938a1.4,1.4,0,0,1-.3.024l-.854.023-3.123.036h-.04l-.025-.031-4.611-5.81-3.718-4.74.072.035-4.114-.039-1.151-.025a2.1,2.1,0,0,1-.407-.029,2.345,2.345,0,0,1,.407-.028l1.151-.025,4.114-.038h.044l.028.036,3.741,4.721,4.573,5.84-.064-.031,3.123.036.854.022A1.4,1.4,0,0,1,5527.162,2149.938Z" transform="translate(-5508.892 -2139.29)" fill="#344154"/>
                </g>
              </g>
            </g>
            <g id="Grupo_89397" data-name="Grupo 89397" transform="translate(19.164 20.432)">
              <g id="Grupo_89396" data-name="Grupo 89396">
                <g id="Grupo_89395" data-name="Grupo 89395">
                  <path id="Trazado_143510" data-name="Trazado 143510" d="M5550.416,2167.116c0,.06-2.025.107-4.523.107s-4.523-.048-4.523-.107,2.025-.107,4.523-.107S5550.416,2167.057,5550.416,2167.116Z" transform="translate(-5541.37 -2167.01)" fill="#344154"/>
                </g>
              </g>
            </g>
            <g id="Grupo_89400" data-name="Grupo 89400" transform="translate(19.164 22.107)">
              <g id="Grupo_89399" data-name="Grupo 89399">
                <g id="Grupo_89398" data-name="Grupo 89398">
                  <path id="Trazado_143511" data-name="Trazado 143511" d="M5550.416,2170.937c0,.06-2.025.107-4.523.107s-4.523-.048-4.523-.107,2.025-.107,4.523-.107S5550.416,2170.878,5550.416,2170.937Z" transform="translate(-5541.37 -2170.83)" fill="#344154"/>
                </g>
              </g>
            </g>
          </g>
          <g id="Grupo_89413" data-name="Grupo 89413">
            <g id="Grupo_89403" data-name="Grupo 89403" transform="translate(16.687 0.035)">
              <g id="Grupo_89402" data-name="Grupo 89402">
                <path id="Trazado_143512" data-name="Trazado 143512" d="M5474.894,2098.3l-.2,13.712a13.718,13.718,0,1,1,14.176-13.712Z" transform="translate(-5460.913 -2084.588)" fill="#d9a171"/>
              </g>
            </g>
            <g id="Grupo_89406" data-name="Grupo 89406" transform="translate(12.586 0.71)">
              <g id="Grupo_89405" data-name="Grupo 89405">
                <g id="Grupo_89404" data-name="Grupo 89404">
                  <path id="Trazado_143513" data-name="Trazado 143513" d="M5464.183,2094.681a.952.952,0,0,1-.243.057l-.7.111-2.511.353-.042.006-.031-.03-3.349-3.259c-1.61-1.578-3.057-3.015-4.1-4.063l-1.225-1.249a.322.322,0,1,1,.058-.06l1.272,1.2c1.068,1.02,2.533,2.44,4.142,4.019l3.323,3.286-.073-.024,2.521-.278.7-.064A.914.914,0,0,1,5464.183,2094.681Z" transform="translate(-5451.56 -2086.127)" fill="#344154"/>
                </g>
              </g>
            </g>
            <g id="Grupo_89409" data-name="Grupo 89409">
              <g id="Grupo_89408" data-name="Grupo 89408">
                <g id="Grupo_89407" data-name="Grupo 89407">
                  <path id="Trazado_143514" data-name="Trazado 143514" d="M5431.9,2084.614c0,.059-2.024.107-4.522.107s-4.522-.048-4.522-.107,2.024-.107,4.522-.107S5431.9,2084.555,5431.9,2084.614Z" transform="translate(-5422.853 -2084.507)" fill="#344154"/>
                </g>
              </g>
            </g>
            <g id="Grupo_89412" data-name="Grupo 89412" transform="translate(0 1.675)">
              <g id="Grupo_89411" data-name="Grupo 89411">
                <g id="Grupo_89410" data-name="Grupo 89410">
                  <path id="Trazado_143515" data-name="Trazado 143515" d="M5431.9,2088.434c0,.059-2.024.107-4.522.107s-4.522-.048-4.522-.107,2.024-.107,4.522-.107S5431.9,2088.375,5431.9,2088.434Z" transform="translate(-5422.853 -2088.327)" fill="#344154"/>
                </g>
              </g>
            </g>
          </g>
        </g>
        <g id="Grupo_89442" data-name="Grupo 89442" transform="translate(79.728 14.014)">
          <g id="Grupo_89426" data-name="Grupo 89426">
            <g id="Grupo_89423" data-name="Grupo 89423">
              <g id="Grupo_89416" data-name="Grupo 89416">
                <g id="Grupo_89415" data-name="Grupo 89415">
                  <path id="Trazado_143516" data-name="Trazado 143516" d="M5590.852,2043.158l-.056-8.521a10.874,10.874,0,0,0-7.029,2.741,10.08,10.08,0,0,0-3.389,8.826,12.506,12.506,0,0,0,.2,1.238c0,.01,0,.02.006.03h0l10.268-2.31Z" transform="translate(-5580.312 -2034.636)" fill="#d9a171"/>
                </g>
              </g>
              <g id="Grupo_89418" data-name="Grupo 89418" opacity="0.3">
                <g id="Grupo_89417" data-name="Grupo 89417">
                  <path id="Trazado_143517" data-name="Trazado 143517" d="M5590.852,2043.158l-.056-8.521a10.874,10.874,0,0,0-7.029,2.741,10.08,10.08,0,0,0-3.389,8.826,12.506,12.506,0,0,0,.2,1.238c0,.01,0,.02.006.03h0l10.268-2.31Z" transform="translate(-5580.312 -2034.636)" fill="#fff"/>
                </g>
              </g>
              <g id="Grupo_89420" data-name="Grupo 89420" transform="translate(11.629 0.033)">
                <g id="Grupo_89419" data-name="Grupo 89419">
                  <path id="Trazado_143518" data-name="Trazado 143518" d="M5616.331,2040.576a10.11,10.11,0,0,0-8.288-5.8c-.108-.011-.216-.021-.326-.028-.069,0-.137-.012-.207-.016-.2-.011-.41-.017-.619-.018h-.055l.055,8.521.014,2,10.271,2.24.013,0h0a10.115,10.115,0,0,0,.228-2.21A11.068,11.068,0,0,0,5616.331,2040.576Z" transform="translate(-5606.837 -2034.711)" fill="#d9a171"/>
                </g>
              </g>
              <g id="Grupo_89422" data-name="Grupo 89422" transform="translate(11.629 0.033)" opacity="0.3">
                <g id="Grupo_89421" data-name="Grupo 89421">
                  <path id="Trazado_143519" data-name="Trazado 143519" d="M5616.331,2040.576a10.11,10.11,0,0,0-8.288-5.8c-.108-.011-.216-.021-.326-.028-.069,0-.137-.012-.207-.016-.2-.011-.41-.017-.619-.018h-.055l.055,8.521.014,2,10.271,2.24.013,0h0a10.115,10.115,0,0,0,.228-2.21A11.068,11.068,0,0,0,5616.331,2040.576Z" transform="translate(-5606.837 -2034.711)" fill="#d9a171"/>
                </g>
              </g>
            </g>
            <g id="Grupo_89425" data-name="Grupo 89425" transform="translate(0.822 11.588)">
              <g id="Grupo_89424" data-name="Grupo 89424">
                <path id="Trazado_143520" data-name="Trazado 143520" d="M5592.455,2061.067l-10.268,2.31a10.525,10.525,0,0,0,20.552-.069l-10.271-2.241" transform="translate(-5582.187 -2061.067)" fill="#d9a171"/>
              </g>
            </g>
          </g>
          <g id="Grupo_89429" data-name="Grupo 89429" transform="translate(27.345 9.915)">
            <g id="Grupo_89428" data-name="Grupo 89428">
              <g id="Grupo_89427" data-name="Grupo 89427">
                <path id="Trazado_143521" data-name="Trazado 143521" d="M5666.4,2057.39c0,.077-5.309.139-11.856.139s-11.856-.062-11.856-.139,5.307-.138,11.856-.138S5666.4,2057.314,5666.4,2057.39Z" transform="translate(-5642.686 -2057.252)" fill="#344154"/>
              </g>
            </g>
          </g>
          <g id="Grupo_89432" data-name="Grupo 89432" transform="translate(27.345 7.212)">
            <g id="Grupo_89431" data-name="Grupo 89431">
              <g id="Grupo_89430" data-name="Grupo 89430">
                <path id="Trazado_143522" data-name="Trazado 143522" d="M5666.4,2051.226c0,.076-5.309.139-11.856.139s-11.856-.063-11.856-.139,5.307-.139,11.856-.139S5666.4,2051.149,5666.4,2051.226Z" transform="translate(-5642.686 -2051.087)" fill="#344154"/>
              </g>
            </g>
          </g>
          <g id="Grupo_89435" data-name="Grupo 89435" transform="translate(27.345 4.51)">
            <g id="Grupo_89434" data-name="Grupo 89434">
              <g id="Grupo_89433" data-name="Grupo 89433">
                <path id="Trazado_143523" data-name="Trazado 143523" d="M5666.4,2045.06c0,.077-5.309.139-11.856.139s-11.856-.062-11.856-.139,5.307-.138,11.856-.138S5666.4,2044.984,5666.4,2045.06Z" transform="translate(-5642.686 -2044.922)" fill="#344154"/>
              </g>
            </g>
          </g>
          <g id="Grupo_89438" data-name="Grupo 89438" transform="translate(27.345 12.43)">
            <g id="Grupo_89437" data-name="Grupo 89437">
              <g id="Grupo_89436" data-name="Grupo 89436">
                <path id="Trazado_143524" data-name="Trazado 143524" d="M5666.4,2063.126c0,.076-5.309.138-11.856.138s-11.856-.062-11.856-.138,5.307-.138,11.856-.138S5666.4,2063.05,5666.4,2063.126Z" transform="translate(-5642.686 -2062.988)" fill="#344154"/>
              </g>
            </g>
          </g>
          <g id="Grupo_89441" data-name="Grupo 89441" transform="translate(27.429 15.167)">
            <g id="Grupo_89440" data-name="Grupo 89440">
              <g id="Grupo_89439" data-name="Grupo 89439">
                <path id="Trazado_143525" data-name="Trazado 143525" d="M5659.163,2069.369c0,.077-3.646.139-8.144.139s-8.144-.062-8.144-.139,3.646-.138,8.144-.138S5659.163,2069.293,5659.163,2069.369Z" transform="translate(-5642.875 -2069.231)" fill="#344154"/>
              </g>
            </g>
          </g>
        </g>
        <g id="Grupo_89535" data-name="Grupo 89535" transform="translate(81.049 48.885)">
          <g id="Grupo_89445" data-name="Grupo 89445" transform="translate(1.156)">
            <g id="Grupo_89444" data-name="Grupo 89444">
              <g id="Grupo_89443" data-name="Grupo 89443">
                <rect id="Rectángulo_31902" data-name="Rectángulo 31902" width="2.442" height="27.278" fill="#d9a171"/>
              </g>
            </g>
          </g>
          <g id="Grupo_89448" data-name="Grupo 89448" transform="translate(5.872 9.264)">
            <g id="Grupo_89447" data-name="Grupo 89447">
              <g id="Grupo_89446" data-name="Grupo 89446">
                <rect id="Rectángulo_31903" data-name="Rectángulo 31903" width="2.443" height="18.013" fill="#d9a171"/>
              </g>
            </g>
          </g>
          <g id="Grupo_89451" data-name="Grupo 89451" transform="translate(10.587 3.39)">
            <g id="Grupo_89450" data-name="Grupo 89450">
              <g id="Grupo_89449" data-name="Grupo 89449">
                <rect id="Rectángulo_31904" data-name="Rectángulo 31904" width="2.443" height="24.026" fill="#d9a171"/>
              </g>
            </g>
          </g>
          <g id="Grupo_89454" data-name="Grupo 89454" transform="translate(15.302 1.053)">
            <g id="Grupo_89453" data-name="Grupo 89453">
              <g id="Grupo_89452" data-name="Grupo 89452">
                <rect id="Rectángulo_31905" data-name="Rectángulo 31905" width="2.442" height="26.224" fill="#d9a171"/>
              </g>
            </g>
          </g>
          <g id="Grupo_89457" data-name="Grupo 89457" transform="translate(20.018 9.819)">
            <g id="Grupo_89456" data-name="Grupo 89456">
              <g id="Grupo_89455" data-name="Grupo 89455">
                <rect id="Rectángulo_31906" data-name="Rectángulo 31906" width="2.443" height="17.459" fill="#d9a171"/>
              </g>
            </g>
          </g>
          <g id="Grupo_89460" data-name="Grupo 89460" transform="translate(24.733 13.243)">
            <g id="Grupo_89459" data-name="Grupo 89459">
              <g id="Grupo_89458" data-name="Grupo 89458">
                <rect id="Rectángulo_31907" data-name="Rectángulo 31907" width="2.442" height="14.035" fill="#d9a171"/>
              </g>
            </g>
          </g>
          <g id="Grupo_89463" data-name="Grupo 89463" transform="translate(29.449 2.8)">
            <g id="Grupo_89462" data-name="Grupo 89462">
              <g id="Grupo_89461" data-name="Grupo 89461">
                <rect id="Rectángulo_31908" data-name="Rectángulo 31908" width="2.443" height="24.478" fill="#d9a171"/>
              </g>
            </g>
          </g>
          <g id="Grupo_89466" data-name="Grupo 89466" transform="translate(34.164 7.213)">
            <g id="Grupo_89465" data-name="Grupo 89465">
              <g id="Grupo_89464" data-name="Grupo 89464">
                <rect id="Rectángulo_31909" data-name="Rectángulo 31909" width="2.442" height="20.065" fill="#d9a171"/>
              </g>
            </g>
          </g>
          <g id="Grupo_89469" data-name="Grupo 89469" transform="translate(38.879 3.686)">
            <g id="Grupo_89468" data-name="Grupo 89468">
              <g id="Grupo_89467" data-name="Grupo 89467">
                <rect id="Rectángulo_31910" data-name="Rectángulo 31910" width="2.443" height="23.591" fill="#d9a171"/>
              </g>
            </g>
          </g>
          <g id="Grupo_89472" data-name="Grupo 89472" transform="translate(43.595 11.205)">
            <g id="Grupo_89471" data-name="Grupo 89471">
              <g id="Grupo_89470" data-name="Grupo 89470">
                <rect id="Rectángulo_31911" data-name="Rectángulo 31911" width="2.442" height="16.072" fill="#d9a171"/>
              </g>
            </g>
          </g>
          <g id="Grupo_89475" data-name="Grupo 89475" transform="translate(48.31 8.147)">
            <g id="Grupo_89474" data-name="Grupo 89474">
              <g id="Grupo_89473" data-name="Grupo 89473">
                <rect id="Rectángulo_31912" data-name="Rectángulo 31912" width="2.442" height="19.131" fill="#d9a171"/>
              </g>
            </g>
          </g>
          <g id="Grupo_89479" data-name="Grupo 89479" transform="translate(0 29.077)">
            <g id="Grupo_89478" data-name="Grupo 89478">
              <g id="Grupo_89477" data-name="Grupo 89477">
                <g id="Grupo_89476" data-name="Grupo 89476">
                  <path id="Trazado_143526" data-name="Trazado 143526" d="M5635.075,2180.6c0,.056-11.585.1-25.874.1s-25.876-.044-25.876-.1,11.583-.1,25.876-.1S5635.075,2180.542,5635.075,2180.6Z" transform="translate(-5583.326 -2180.497)" fill="#344154"/>
                </g>
              </g>
            </g>
          </g>
          <g id="Grupo_89483" data-name="Grupo 89483" transform="translate(1.015 31.224)">
            <g id="Grupo_89482" data-name="Grupo 89482">
              <g id="Grupo_89481" data-name="Grupo 89481">
                <g id="Grupo_89480" data-name="Grupo 89480">
                  <path id="Trazado_143527" data-name="Trazado 143527" d="M5589.265,2185.495a16.451,16.451,0,0,1-3.624,0,16.372,16.372,0,0,1,3.624,0Z" transform="translate(-5585.641 -2185.394)" fill="#344154"/>
                </g>
              </g>
            </g>
          </g>
          <g id="Grupo_89487" data-name="Grupo 89487" transform="translate(6.32 31.333)">
            <g id="Grupo_89486" data-name="Grupo 89486">
              <g id="Grupo_89485" data-name="Grupo 89485">
                <g id="Grupo_89484" data-name="Grupo 89484">
                  <path id="Trazado_143528" data-name="Trazado 143528" d="M5602.074,2185.744a23.372,23.372,0,0,1-4.332,0,23.428,23.428,0,0,1,4.332,0Z" transform="translate(-5597.742 -2185.643)" fill="#344154"/>
                </g>
              </g>
            </g>
          </g>
          <g id="Grupo_89491" data-name="Grupo 89491" transform="translate(11.448 31.333)">
            <g id="Grupo_89490" data-name="Grupo 89490">
              <g id="Grupo_89489" data-name="Grupo 89489">
                <g id="Grupo_89488" data-name="Grupo 89488">
                  <path id="Trazado_143529" data-name="Trazado 143529" d="M5613.771,2185.744a23.377,23.377,0,0,1-4.333,0,23.434,23.434,0,0,1,4.333,0Z" transform="translate(-5609.438 -2185.643)" fill="#344154"/>
                </g>
              </g>
            </g>
          </g>
          <g id="Grupo_89495" data-name="Grupo 89495" transform="translate(16.576 31.333)">
            <g id="Grupo_89494" data-name="Grupo 89494">
              <g id="Grupo_89493" data-name="Grupo 89493">
                <g id="Grupo_89492" data-name="Grupo 89492">
                  <path id="Trazado_143530" data-name="Trazado 143530" d="M5625.468,2185.744a23.382,23.382,0,0,1-4.333,0,23.439,23.439,0,0,1,4.333,0Z" transform="translate(-5621.135 -2185.643)" fill="#344154"/>
                </g>
              </g>
            </g>
          </g>
          <g id="Grupo_89499" data-name="Grupo 89499" transform="translate(21.705 31.333)">
            <g id="Grupo_89498" data-name="Grupo 89498">
              <g id="Grupo_89497" data-name="Grupo 89497">
                <g id="Grupo_89496" data-name="Grupo 89496">
                  <path id="Trazado_143531" data-name="Trazado 143531" d="M5637.166,2185.744a23.372,23.372,0,0,1-4.332,0,23.428,23.428,0,0,1,4.332,0Z" transform="translate(-5632.833 -2185.643)" fill="#344154"/>
                </g>
              </g>
            </g>
          </g>
          <g id="Grupo_89503" data-name="Grupo 89503" transform="translate(26.833 31.333)">
            <g id="Grupo_89502" data-name="Grupo 89502">
              <g id="Grupo_89501" data-name="Grupo 89501">
                <g id="Grupo_89500" data-name="Grupo 89500">
                  <path id="Trazado_143532" data-name="Trazado 143532" d="M5648.862,2185.744a23.382,23.382,0,0,1-4.333,0,23.439,23.439,0,0,1,4.333,0Z" transform="translate(-5644.529 -2185.643)" fill="#344154"/>
                </g>
              </g>
            </g>
          </g>
          <g id="Grupo_89507" data-name="Grupo 89507" transform="translate(31.961 31.333)">
            <g id="Grupo_89506" data-name="Grupo 89506">
              <g id="Grupo_89505" data-name="Grupo 89505">
                <g id="Grupo_89504" data-name="Grupo 89504">
                  <path id="Trazado_143533" data-name="Trazado 143533" d="M5660.56,2185.744a23.382,23.382,0,0,1-4.333,0,23.439,23.439,0,0,1,4.333,0Z" transform="translate(-5656.227 -2185.643)" fill="#344154"/>
                </g>
              </g>
            </g>
          </g>
          <g id="Grupo_89511" data-name="Grupo 89511" transform="translate(37.089 31.333)">
            <g id="Grupo_89510" data-name="Grupo 89510">
              <g id="Grupo_89509" data-name="Grupo 89509">
                <g id="Grupo_89508" data-name="Grupo 89508">
                  <path id="Trazado_143534" data-name="Trazado 143534" d="M5672.257,2185.744a23.377,23.377,0,0,1-4.333,0,23.434,23.434,0,0,1,4.333,0Z" transform="translate(-5667.924 -2185.643)" fill="#344154"/>
                </g>
              </g>
            </g>
          </g>
          <g id="Grupo_89515" data-name="Grupo 89515" transform="translate(42.218 31.333)">
            <g id="Grupo_89514" data-name="Grupo 89514">
              <g id="Grupo_89513" data-name="Grupo 89513">
                <g id="Grupo_89512" data-name="Grupo 89512">
                  <path id="Trazado_143535" data-name="Trazado 143535" d="M5683.955,2185.744a23.388,23.388,0,0,1-4.333,0,23.444,23.444,0,0,1,4.333,0Z" transform="translate(-5679.621 -2185.643)" fill="#344154"/>
                </g>
              </g>
            </g>
          </g>
          <g id="Grupo_89519" data-name="Grupo 89519" transform="translate(47.346 31.333)">
            <g id="Grupo_89518" data-name="Grupo 89518">
              <g id="Grupo_89517" data-name="Grupo 89517">
                <g id="Grupo_89516" data-name="Grupo 89516">
                  <path id="Trazado_143536" data-name="Trazado 143536" d="M5695.652,2185.744a23.372,23.372,0,0,1-4.332,0,23.428,23.428,0,0,1,4.332,0Z" transform="translate(-5691.32 -2185.643)" fill="#344154"/>
                </g>
              </g>
            </g>
          </g>
          <g id="Grupo_89522" data-name="Grupo 89522" transform="translate(5.872 9.264)" opacity="0.3">
            <g id="Grupo_89521" data-name="Grupo 89521">
              <g id="Grupo_89520" data-name="Grupo 89520">
                <rect id="Rectángulo_31913" data-name="Rectángulo 31913" width="2.443" height="18.013" fill="#fff"/>
              </g>
            </g>
          </g>
          <g id="Grupo_89525" data-name="Grupo 89525" transform="translate(15.302 1.053)" opacity="0.3">
            <g id="Grupo_89524" data-name="Grupo 89524">
              <g id="Grupo_89523" data-name="Grupo 89523">
                <rect id="Rectángulo_31914" data-name="Rectángulo 31914" width="2.442" height="26.224" fill="#fff"/>
              </g>
            </g>
          </g>
          <g id="Grupo_89528" data-name="Grupo 89528" transform="translate(24.733 13.243)" opacity="0.3">
            <g id="Grupo_89527" data-name="Grupo 89527">
              <g id="Grupo_89526" data-name="Grupo 89526">
                <rect id="Rectángulo_31915" data-name="Rectángulo 31915" width="2.442" height="14.035" fill="#fff"/>
              </g>
            </g>
          </g>
          <g id="Grupo_89531" data-name="Grupo 89531" transform="translate(34.164 7.213)" opacity="0.3">
            <g id="Grupo_89530" data-name="Grupo 89530">
              <g id="Grupo_89529" data-name="Grupo 89529">
                <rect id="Rectángulo_31916" data-name="Rectángulo 31916" width="2.442" height="20.065" fill="#fff"/>
              </g>
            </g>
          </g>
          <g id="Grupo_89534" data-name="Grupo 89534" transform="translate(43.595 11.205)" opacity="0.3">
            <g id="Grupo_89533" data-name="Grupo 89533">
              <g id="Grupo_89532" data-name="Grupo 89532">
                <rect id="Rectángulo_31917" data-name="Rectángulo 31917" width="2.442" height="16.072" fill="#fff"/>
              </g>
            </g>
          </g>
        </g>
        <g id="Grupo_89537" data-name="Grupo 89537" transform="translate(12.704 15.309)">
          <g id="Grupo_89536" data-name="Grupo 89536">
            <path id="Trazado_143537" data-name="Trazado 143537" d="M5432.136,2039.94a2.351,2.351,0,1,1-2.352-2.351A2.352,2.352,0,0,1,5432.136,2039.94Z" transform="translate(-5427.434 -2037.589)" fill="#d9a171"/>
          </g>
        </g>
        <g id="Grupo_89540" data-name="Grupo 89540" transform="translate(22.417 15.667)">
          <g id="Grupo_89539" data-name="Grupo 89539">
            <g id="Grupo_89538" data-name="Grupo 89538">
              <path id="Trazado_143538" data-name="Trazado 143538" d="M5485,2038.545c0,.077-7.927.139-17.7.139s-17.705-.062-17.705-.139,7.925-.139,17.705-.139S5485,2038.468,5485,2038.545Z" transform="translate(-5449.589 -2038.406)" fill="#d9a171"/>
            </g>
          </g>
        </g>
        <g id="Grupo_89543" data-name="Grupo 89543" transform="translate(22.675 18.51)">
          <g id="Grupo_89542" data-name="Grupo 89542">
            <g id="Grupo_89541" data-name="Grupo 89541">
              <path id="Trazado_143539" data-name="Trazado 143539" d="M5464.135,2045.03a2.135,2.135,0,0,1-.548.054c-.353.017-.864.031-1.5.044-1.263.025-3.007.041-4.934.041s-3.673-.016-4.935-.041c-.631-.012-1.143-.027-1.5-.044a2.131,2.131,0,0,1-.548-.054,2.1,2.1,0,0,1,.548-.054c.353-.017.864-.031,1.5-.044,1.262-.026,3.008-.041,4.935-.041s3.671.015,4.934.041c.632.012,1.143.027,1.5.044A2.108,2.108,0,0,1,5464.135,2045.03Z" transform="translate(-5450.178 -2044.891)" fill="#d9a171"/>
            </g>
          </g>
        </g>
      </g>
      <path id="Trazado_143540" data-name="Trazado 143540" d="M5607.586,2174.8l4.56,10.343,1.591-4.551,3.9-1.429Z" transform="translate(-5507.25 -2081.812)" fill="#5e6178"/>
      <rect id="Rectángulo_31918" data-name="Rectángulo 31918" width="5.73" height="5.73" transform="translate(109.043 100.867)" fill="#fff"/>
      <path id="Trazado_143541" data-name="Trazado 143541" d="M5633.075,2198.3s0-.162-.022-.439,0-.693-.026-1.175c0-1.03-.031-2.442-.048-4.121l.1.1h-5.726c-.026,0,.214-.215.114-.114h0v5.721l-.1-.1,4.122.048,1.175.027a3,3,0,0,1,.438.026,3.475,3.475,0,0,1-.391,0l-1.153.026-4.182.048h-.1v-5.818h0l.114-.114h5.827v.1c0,1.705-.04,3.139-.052,4.182,0,.474,0,.877-.027,1.153A1.988,1.988,0,0,1,5633.075,2198.3Z" transform="translate(-5518.307 -2091.708)" fill="#5e6178"/>
      <path id="Trazado_143542" data-name="Trazado 143542" d="M5633.829,2198.651a24.094,24.094,0,0,1,0-4.665A24.094,24.094,0,0,1,5633.829,2198.651Z" transform="translate(-5521.924 -2092.589)" fill="#5e6178"/>
      <path id="Trazado_143543" data-name="Trazado 143543" d="M5633.319,2199.16a23.942,23.942,0,0,1-4.665,0A23.942,23.942,0,0,1,5633.319,2199.16Z" transform="translate(-5519.081 -2095.431)" fill="#5e6178"/>
      <rect id="Rectángulo_31919" data-name="Rectángulo 31919" width="6.296" height="105.663" transform="translate(151.021 16.954)" fill="#344154"/>
      <path id="Trazado_143544" data-name="Trazado 143544" d="M5726.343,2029.716h0a3.148,3.148,0,0,1,3.148,3.148v15.349a3.148,3.148,0,0,1-3.148,3.148h0a3.147,3.147,0,0,1-3.147-3.148v-15.349A3.148,3.148,0,0,1,5726.343,2029.716Z" transform="translate(-5572.174 -2000.338)" fill="#5e6178"/>
      <path id="Trazado_143545" data-name="Trazado 143545" d="M5453.227,2053.258v-1.613c0-1.052,0-2.578-.027-4.515,0-3.88-.03-9.409-.047-16.033l.1.1h-22.157c-.03,0,.215-.215.11-.109h0v22.153l-.1-.1,16.037.052,4.511.026h.04l-4.489.026-16.1.048h-.1v-22.2h0c-.1.1.14-.145.119-.118h22.258v.118c-.022,6.651-.04,12.2-.053,16.094,0,1.929,0,3.446-.025,4.494v1.473A.4.4,0,0,1,5453.227,2053.258Z" transform="translate(-5408.071 -2001.043)" fill="#5e6178"/>
      <path id="Trazado_143546" data-name="Trazado 143546" d="M5436.854,2036.931h1.21l3.459-.026,12.429-.048h.1v17.195c.022-.026-.219.215-.119.114h-17.155v-.1c0-5.134.04-9.413.053-12.425,0-1.482,0-2.63.026-3.464v-1.21a.658.658,0,0,1,0,.088v1.162c0,.82,0,1.995.026,3.507,0,3,.031,7.256.048,12.363l-.1-.1h17.094l-.11.114V2037l.1.1-12.363-.052-3.507-.026h-1.167A.331.331,0,0,1,5436.854,2036.931Z" transform="translate(-5411.325 -2004.347)" fill="#5e6178"/>
      <path id="Trazado_143547" data-name="Trazado 143547" d="M5431.116,2031.246a7.413,7.413,0,0,1,1.373,1.188,7.339,7.339,0,0,1,1.214,1.346,6.793,6.793,0,0,1-1.377-1.184A7.432,7.432,0,0,1,5431.116,2031.246Z" transform="translate(-5408.147 -2001.197)" fill="#5e6178"/>
      <path id="Trazado_143548" data-name="Trazado 143548" d="M5478.529,2031.426a6.734,6.734,0,0,1-1.091,1.355,7.042,7.042,0,0,1-1.263,1.206,6.613,6.613,0,0,1,1.091-1.359A6.729,6.729,0,0,1,5478.529,2031.426Z" transform="translate(-5433.451 -2001.298)" fill="#5e6178"/>
      <path id="Trazado_143549" data-name="Trazado 143549" d="M5478.543,2078.728a11.169,11.169,0,0,1-1.074-1.245,10.762,10.762,0,0,1-1.074-1.236,6.3,6.3,0,0,1,2.131,2.5Z" transform="translate(-5433.575 -2026.468)" fill="#5e6178"/>
      <path id="Trazado_143550" data-name="Trazado 143550" d="M5433.418,2075.966a6.952,6.952,0,0,1-1.148,1.342,6.832,6.832,0,0,1-1.316,1.184,13.69,13.69,0,0,1,2.464-2.525Z" transform="translate(-5408.056 -2026.311)" fill="#5e6178"/>
      <path id="Trazado_143551" data-name="Trazado 143551" d="M5445.341,2044.715a.833.833,0,0,1,.171,0h.522l2-.026,7.208-.053h.1v10l-.119.114h-9.974v-.1c.022-2.968.04-5.445.048-7.208,0-.842.022-1.517.026-2v-.688a1.159,1.159,0,0,1,0,.193v.539c0,.487,0,1.166.022,2.021,0,1.753.031,4.2.053,7.141l-.1-.1h9.9c.105-.1-.135.14-.109.114v-9.895l.1.1-7.142-.048-2.025-.026h-.54Z" transform="translate(-5416.082 -2008.717)" fill="#5e6178"/>
      <path id="Trazado_143552" data-name="Trazado 143552" d="M5536.683,2242.45c0,.062-35.108.114-78.406.114s-78.411-.052-78.411-.114,35.1-.114,78.411-.114S5536.683,2242.384,5536.683,2242.45Z" transform="translate(-5379.365 -2119.741)" fill="#5e6178"/>
    </g>
    <g id="freepik--Character--inject-3" transform="translate(5442.772 2003.347)">
      <path id="Trazado_143553" data-name="Trazado 143553" d="M5651.814,2344.158h-5.335s-12.044-4.349-14.521-3.946c-2.227.377-10.4,5.8-12,6.874a1.007,1.007,0,0,0-.386.5h0a1.753,1.753,0,0,0,.973,2.223l.171.07-.075.241a2.879,2.879,0,0,0-.122.978,1.18,1.18,0,0,0,2.192.509l-.308.544a1.331,1.331,0,0,0-.171.732l.027.5a1.344,1.344,0,0,0,.919,1.2h0a1.315,1.315,0,0,0,1.4-.369,11.443,11.443,0,0,1,4.91-3.068,36,36,0,0,1,4.823-.877,1.684,1.684,0,0,1,1.556,1.07h0c-.9.066-5.533,2.192-7.747,3.341a2.381,2.381,0,0,0-1.289,1.784c-.079.693.272,1.42,1.645,1.1,2.941-.684,6.611-1.964,6.611-1.964s2.731-.78,4.5.465c2.49,1.753,3.63,2.4,5.77,1.692a18.343,18.343,0,0,0,3.713-1.723l4.209-.438S5657.259,2345.693,5651.814,2344.158Z" transform="translate(-5584.058 -2215.334)" fill="#ffbe9d"/>
      <path id="Trazado_143554" data-name="Trazado 143554" d="M5665.617,2360.145a1.562,1.562,0,0,1-.285.206,1.933,1.933,0,0,1-.368.219,3.394,3.394,0,0,1-.531.241,5.809,5.809,0,0,1-3.669.123,5.693,5.693,0,0,1-2.253-1.223l-.263-.241-.237-.267a4.769,4.769,0,0,1-.438-.592c-.268-.438-.465-.877-.759-1.293a1.854,1.854,0,0,0-1.2-.833,6.115,6.115,0,0,0-1.614,0,9.536,9.536,0,0,1-3.476-.342,10.032,10.032,0,0,1-2.991-1.429,10.162,10.162,0,0,1-1.219-1.013.762.762,0,0,1-.2-.806.772.772,0,0,1,.641-.513h0l7.826-.329,2.244-.074h.6a.787.787,0,0,1,.206,0l-.206.026-.592.044-2.24.136-7.822.407h0a.552.552,0,0,0-.307.956,10,10,0,0,0,1.192.982,9.823,9.823,0,0,0,2.924,1.394,9.408,9.408,0,0,0,3.4.338,5.94,5.94,0,0,1,1.675,0,1.98,1.98,0,0,1,.771.329,2.462,2.462,0,0,1,.562.592c.3.438.5.908.754,1.315a5.048,5.048,0,0,0,.438.57l.228.263.25.228a5.544,5.544,0,0,0,2.192,1.214,5.821,5.821,0,0,0,3.591-.052A8.819,8.819,0,0,0,5665.617,2360.145Z" transform="translate(-5598.998 -2221.951)" fill="#eb996e"/>
      <path id="Trazado_143555" data-name="Trazado 143555" d="M5792.26,2058.444a4.765,4.765,0,0,0-5.129-2.025,6.528,6.528,0,0,0-8,.789,5.8,5.8,0,0,0-8.33,5.427,4.844,4.844,0,0,0-3.586,8.483,4.656,4.656,0,0,0,2.675,8.874l21.92-16.046A4.769,4.769,0,0,0,5792.26,2058.444Z" transform="translate(-5665.41 -2055.405)" fill="#344154"/>
      <path id="Trazado_143556" data-name="Trazado 143556" d="M5775.592,2087.759a19.774,19.774,0,0,1,18.2-19.689l1.022-.079c11.052-.237,17.427,9.018,17.357,20.075l1.315,36.77-1.144,4.726-14.88,12.276-7.476-6.62-2.139-10.82s-10.71-.8-11.684-11.368C5775.7,2107.926,5775.57,2097.343,5775.592,2087.759Z" transform="translate(-5671.732 -2062.47)" fill="#ffbe9d"/>
      <path id="Trazado_143557" data-name="Trazado 143557" d="M5803.355,2190.026a25.727,25.727,0,0,0,13.533-5.16s-2.629,7.869-13.279,7.76Z" transform="translate(-5687.327 -2128.108)" fill="#eb996e"/>
      <path id="Trazado_143558" data-name="Trazado 143558" d="M5784.375,2132.96a1.512,1.512,0,0,0,1.574,1.407,1.445,1.445,0,0,0,1.452-1.441v-.045a1.517,1.517,0,0,0-1.578-1.407,1.447,1.447,0,0,0-1.448,1.447C5784.374,2132.934,5784.374,2132.947,5784.375,2132.96Z" transform="translate(-5676.666 -2098.124)" fill="#5e6178"/>
      <path id="Trazado_143559" data-name="Trazado 143559" d="M5781.508,2123.38c.2.18,1.281-.758,2.9-.877s2.885.6,3.043.382c.079-.1-.14-.439-.688-.772a4.16,4.16,0,0,0-2.456-.548,4,4,0,0,0-2.292.947C5781.552,2122.929,5781.412,2123.3,5781.508,2123.38Z" transform="translate(-5675.041 -2092.551)" fill="#5e6178"/>
      <path id="Trazado_143560" data-name="Trazado 143560" d="M5816.265,2132.01a1.512,1.512,0,0,0,1.578,1.407,1.447,1.447,0,0,0,1.451-1.442v-.04a1.522,1.522,0,0,0-1.579-1.412,1.451,1.451,0,0,0-1.451,1.451C5816.264,2131.987,5816.264,2132,5816.265,2132.01Z" transform="translate(-5694.575 -2097.59)" fill="#5e6178"/>
      <path id="Trazado_143561" data-name="Trazado 143561" d="M5816.939,2120.03c.2.184,1.28-.754,2.906-.877s2.88.592,3.042.382c.079-.1-.14-.439-.693-.776a4.15,4.15,0,0,0-2.451-.544,3.946,3.946,0,0,0-2.292.947C5816.982,2119.579,5816.842,2119.973,5816.939,2120.03Z" transform="translate(-5694.938 -2090.669)" fill="#5e6178"/>
      <path id="Trazado_143562" data-name="Trazado 143562" d="M5801.526,2133.4a10.783,10.783,0,0,0-2.675-.267c-.438,0-.82-.061-.912-.337a2.122,2.122,0,0,1,.18-1.254c.307-1.035.631-2.117.973-3.257,1.346-4.634,2.284-8.431,2.1-8.483s-1.43,3.661-2.771,8.295l-.925,3.3a2.4,2.4,0,0,0-.083,1.644,1.028,1.028,0,0,0,.728.552,2.75,2.75,0,0,0,.714.044A10.161,10.161,0,0,0,5801.526,2133.4Z" transform="translate(-5683.918 -2091.571)" fill="#5e6178"/>
      <path id="Trazado_143563" data-name="Trazado 143563" d="M5811.881,2152.515c-.268,0-.127,1.754-1.539,3.144s-3.306,1.315-3.3,1.574c0,.114.438.311,1.24.267a4.382,4.382,0,0,0,2.762-1.214,3.848,3.848,0,0,0,1.175-2.631C5812.232,2152.919,5812,2152.5,5811.881,2152.515Z" transform="translate(-5689.398 -2109.94)" fill="#5e6178"/>
      <path id="Trazado_143564" data-name="Trazado 143564" d="M5816.057,2109.45c.228.4,1.6-.088,3.3-.193s3.148.132,3.292-.3c.058-.206-.253-.565-.877-.877a5.08,5.08,0,0,0-2.578-.438,4.877,4.877,0,0,0-2.442.837C5816.192,2108.849,5815.956,2109.252,5816.057,2109.45Z" transform="translate(-5694.446 -2084.727)" fill="#5e6178"/>
      <path id="Trazado_143565" data-name="Trazado 143565" d="M5781.5,2113.333c.285.372,1.407,0,2.758-.027s2.495.259,2.757-.131c.119-.184-.061-.557-.561-.907a4,4,0,0,0-4.445.123C5781.55,2112.79,5781.392,2113.154,5781.5,2113.333Z" transform="translate(-5675.035 -2086.993)" fill="#5e6178"/>
      <path id="Trazado_143566" data-name="Trazado 143566" d="M5776.918,2081.222s2.262-6.844,5.33-8.646c3.719-2.192,5.722,1.933,9.321.61s7.15-3.416,11.145-.877c4.384,2.788,2.631,5.129,3.244,9.8,2.547,18.944,6.454,24.047,6.726,15.007.03-.991,2.691-1.99,2.767-6.169.092-5.423-.22-11.969-1.728-15.691-1.267-3.135-3.279-5.213-6.765-7.4-5.5-3.455-12.64-2.968-17.444-2.1S5775.825,2072.967,5776.918,2081.222Z" transform="translate(-5672.427 -2060.866)" fill="#344154"/>
      <path id="Trazado_143567" data-name="Trazado 143567" d="M5857.021,2133.718a2.875,2.875,0,0,1,2.736-3.008c.048,0,.1,0,.144,0,1.986.031,4.27.973,4.463,5.059.346,7.251-7.015,6.1-7.015,5.9S5857.139,2136.752,5857.021,2133.718Z" transform="translate(-5717.461 -2097.693)" fill="#ffbe9d"/>
      <path id="Trazado_143568" data-name="Trazado 143568" d="M5861.047,2141.839c.031-.022.132.083.351.171a1.233,1.233,0,0,0,.943-.026,3.125,3.125,0,0,0,1.314-2.871,4.155,4.155,0,0,0-.438-1.789,1.455,1.455,0,0,0-.994-.926.641.641,0,0,0-.729.382c-.088.206-.035.351-.074.363s-.162-.114-.119-.438a.844.844,0,0,1,.264-.469.963.963,0,0,1,.692-.215,1.754,1.754,0,0,1,1.372,1.061,4.293,4.293,0,0,1,.535,2c0,1.46-.662,2.863-1.692,3.218a1.368,1.368,0,0,1-1.166-.136C5861.069,2142.015,5861.021,2141.857,5861.047,2141.839Z" transform="translate(-5719.721 -2100.676)" fill="#eb996e"/>
      <path id="Trazado_143569" data-name="Trazado 143569" d="M5816.121,2079.927a6.829,6.829,0,0,1-2.95,1.657,2.369,2.369,0,0,1-2.749-1.451c-.127-.5-.048-1.092-.412-1.451-.438-.438-1.149-.232-1.754-.118a4.633,4.633,0,0,1-5.054-2.928,1.923,1.923,0,0,1-2.578.438,10.831,10.831,0,0,1-2.135-1.951,2.992,2.992,0,0,0-2.583-1.043,7.272,7.272,0,0,1-1.543.473c-.956,0-1.508-1.083-1.727-2.017s-.439-2.021-1.263-2.469-1.728-.066-2.591.136-2.012.083-2.3-.754a1.709,1.709,0,0,1,.219-1.337,4.7,4.7,0,0,1,5.384-2.214,6.366,6.366,0,0,1,11.565-2.161,6.463,6.463,0,0,1,10.482,1.526,4.683,4.683,0,0,1,5.805,6.375,4.441,4.441,0,0,1,2.723,3.332c.145,1.491-1.193,3.1-2.67,2.823a2.6,2.6,0,0,1-4.266,2.938" transform="translate(-5677.82 -2057.897)" fill="#344154"/>
      <path id="Trazado_143570" data-name="Trazado 143570" d="M5850.694,2098.416a1.728,1.728,0,0,1-.337,1.425,2.354,2.354,0,0,1-1.381.982,2.5,2.5,0,0,1-2.108-.438l.3-.07a7.365,7.365,0,0,1-1.314,1.916,4.145,4.145,0,0,1-1.25.925,2.787,2.787,0,0,1-1.447.25,2.835,2.835,0,0,1-2.192-1.03,4.1,4.1,0,0,1-.706-1.456,1.484,1.484,0,0,1-.105-.579,2.038,2.038,0,0,1,.259.521,4.809,4.809,0,0,0,.776,1.315,2.973,2.973,0,0,0,4.354-.246,7.227,7.227,0,0,0,1.24-1.8l.11-.224.193.154a2.231,2.231,0,0,0,1.789.416,2.13,2.13,0,0,0,1.253-.8A3.51,3.51,0,0,0,5850.694,2098.416Z" transform="translate(-5707.991 -2079.559)" fill="#344154"/>
      <path id="Trazado_143571" data-name="Trazado 143571" d="M5805.968,2060.6c0,.026-.184.066-.5.228a2.505,2.505,0,0,0-1.047,1.043l-.075.145-.109-.123a9,9,0,0,0-3.723-2.552,7.051,7.051,0,0,0-2.9-.4,5.917,5.917,0,0,0-2.99,1.118,6.027,6.027,0,0,0-1.688,1.876,4.917,4.917,0,0,0-.618,2.24v.232l-.224-.044a4.083,4.083,0,0,0-2.977.605,3.975,3.975,0,0,0-1.5,1.894,5.409,5.409,0,0,0-.28,2.192,1.46,1.46,0,0,1-.136-.587,4.081,4.081,0,0,1,.2-1.67,4.139,4.139,0,0,1,1.54-2.083,4.384,4.384,0,0,1,3.231-.714l-.229.188a5.24,5.24,0,0,1,.649-2.442,6.331,6.331,0,0,1,1.8-2.012,6.247,6.247,0,0,1,3.2-1.184,7.338,7.338,0,0,1,3.069.438,8.816,8.816,0,0,1,3.771,2.753h-.184a2.477,2.477,0,0,1,1.2-1.048A1.172,1.172,0,0,1,5805.968,2060.6Z" transform="translate(-5678.247 -2057.162)" fill="#344154"/>
      <path id="Trazado_143572" data-name="Trazado 143572" d="M5790.46,2242.149c-.4,0-1.232-33.956-1.232-33.956l-23.188-8.277-17.79,16.025-9.08-14.293-7.992,3.674a67.127,67.127,0,0,0-6.313,2.906c-2.534,1.934-7.825,6.576-9.32,12.206-2.28,8.615-5.857,37.265-5.857,37.265l-21.781,7.686.474,14.029,21.315,3.336c5.143-.184,11.368-2.359,13.372-5.927v7.488h65.487S5790.854,2242.149,5790.46,2242.149Z" transform="translate(-5622.491 -2136.56)" fill="#d9a171"/>
      <path id="Trazado_143573" data-name="Trazado 143573" d="M5768.714,2266.786a.842.842,0,0,1,0,.14v2c-.026,1.376-.083,3.367-.192,5.831s-.264,5.393-.382,8.646-.162,6.831-.184,10.588c-.035,7.519,0,14.328,0,19.255v7.83a.514.514,0,0,1,0,.145.565.565,0,0,1,0-.141v-.416c0-.377-.022-.907-.035-1.583,0-1.394-.04-3.385-.07-5.835-.044-4.928-.087-11.736-.053-19.255.022-3.757.071-7.339.2-10.6s.3-6.186.438-8.646.215-4.45.268-5.826c.026-.676.044-1.21.062-1.587a2.206,2.206,0,0,1,.022-.412A.575.575,0,0,1,5768.714,2266.786Z" transform="translate(-5667.35 -2174.113)" fill="#5e6178"/>
      <g id="Grupo_89545" data-name="Grupo 89545" transform="translate(98.041 95.895)" opacity="0.3">
        <path id="Trazado_143574" data-name="Trazado 143574" d="M5765.647,2274.136c-3.713,14-4.7,29.177-.969,43.175C5764.749,2301.726,5764.661,2287.131,5765.647,2274.136Z" transform="translate(-5762.324 -2274.136)"/>
      </g>
      <g id="Grupo_89546" data-name="Grupo 89546" transform="translate(155.899 96.237)" opacity="0.3">
        <path id="Trazado_143575" data-name="Trazado 143575" d="M5894.3,2276.03q2.039,13.113,4.055,26.213a1.76,1.76,0,0,0,.285.851c.438.552,1.289.407,1.964.214,1.64-.478,4.222-.653,5.107-2.118l.215-3.73c-.237-1.131-1.315-2.219-1.846-3.253q-4.775-9.644-9.54-19.29" transform="translate(-5894.295 -2274.916)"/>
      </g>
      <path id="Trazado_143576" data-name="Trazado 143576" d="M5905.035,2218.646s7.571,4.261,10.376,10.259c3.424,7.317,18.576,33.679,19.137,40.256s.334,14.1-10.885,16.335a126.093,126.093,0,0,1-22.934,2.091l-4.572-13.626,12.858-6.642-3.2-2.815a7.492,7.492,0,0,1-1.71-2.192l-9.676-18.633" transform="translate(-5738.469 -2147.078)" fill="#d9a171"/>
      <path id="Trazado_143577" data-name="Trazado 143577" d="M5894.425,2243.717s.087.145.241.438l.684,1.289,2.6,4.959,4.086,7.825,1.236,2.368.645,1.236a11.353,11.353,0,0,0,.706,1.245,7.471,7.471,0,0,0,.943,1.118c.355.342.75.667,1.131,1.009l2.376,2.083.1.083-.114.057-12.854,6.655.048-.118,4.586,13.622-.1-.075c3.717,0,7.6-.171,11.587-.522,1.995-.171,4.011-.395,6.046-.684s4.09-.609,6.138-1.092l1.008-.246c.333-.092.658-.219.982-.329s.658-.21.974-.346l.929-.438c.158-.074.311-.14.465-.219l.438-.267c.29-.18.583-.351.876-.539a11.609,11.609,0,0,0,1.517-1.315,9.376,9.376,0,0,0,2.083-3.38,14.608,14.608,0,0,0,.8-3.854,30.462,30.462,0,0,0,0-3.893,16.911,16.911,0,0,0-.2-1.9,17.138,17.138,0,0,0-.488-1.828c-.38-1.206-.837-2.367-1.314-3.507s-.973-2.258-1.469-3.358c-2.021-4.384-4.112-8.483-6.089-12.306s-3.863-7.352-5.568-10.583l-2.421-4.625c-.376-.733-.741-1.447-1.083-2.144-.167-.351-.333-.692-.5-1.034s-.338-.657-.5-.978a19.77,19.77,0,0,0-2.351-3.275,29.915,29.915,0,0,0-2.41-2.389,36.559,36.559,0,0,0-3.728-2.867c-.438-.3-.793-.522-1.026-.667l-.35-.224s.127.066.364.2.587.355,1.038.649a34.417,34.417,0,0,1,3.757,2.841,29.118,29.118,0,0,1,2.438,2.385,19.765,19.765,0,0,1,2.376,3.284c.171.32.351.649.517.986s.33.68.5,1.026c.347.7.711,1.407,1.088,2.14l2.433,4.612c1.719,3.231,3.608,6.76,5.6,10.579s4.081,7.892,6.107,12.3c.5,1.1,1,2.218,1.477,3.363s.934,2.315,1.315,3.507a16.317,16.317,0,0,1,.5,1.859,16.614,16.614,0,0,1,.2,1.929,30.75,30.75,0,0,1,0,3.946,14.76,14.76,0,0,1-.807,3.915,9.5,9.5,0,0,1-2.135,3.455,11.235,11.235,0,0,1-1.547,1.368c-.285.189-.583.364-.877.548l-.438.271-.474.224-.942.438c-.32.14-.658.232-.986.351s-.658.237-.992.333l-1.021.246c-2.052.487-4.108.806-6.138,1.1s-4.06.513-6.054.688c-3.994.347-7.892.522-11.614.513h-.079l-.021-.075c-1.609-4.792-3.143-9.382-4.569-13.63l-.025-.079.075-.039,12.867-6.633v.14l-2.372-2.087c-.381-.342-.771-.662-1.135-1.017a7.778,7.778,0,0,1-.956-1.145,12,12,0,0,1-.715-1.262c-.215-.438-.438-.833-.64-1.241q-.631-1.223-1.228-2.367c-1.574-3.069-2.938-5.7-4.051-7.848l-2.556-4.976c-.289-.57-.513-1-.662-1.316A2.631,2.631,0,0,0,5894.425,2243.717Z" transform="translate(-5738.469 -2147.106)" fill="#5e6178"/>
      <path id="Trazado_143578" data-name="Trazado 143578" d="M5899.123,2217.593a7.431,7.431,0,0,1-.7.438,18.67,18.67,0,0,0-1.841,1.315,17.246,17.246,0,0,0-6.379,13,18.782,18.782,0,0,0,.079,2.267c.048.535.088.829.071.833a.854.854,0,0,1-.058-.21c-.022-.14-.07-.346-.1-.614a14.653,14.653,0,0,1-.149-2.28,16.758,16.758,0,0,1,6.436-13.113,15.694,15.694,0,0,1,1.894-1.275c.233-.14.438-.228.548-.29A.4.4,0,0,1,5899.123,2217.593Z" transform="translate(-5736.008 -2146.486)" fill="#5e6178"/>
      <path id="Trazado_143579" data-name="Trazado 143579" d="M5941.366,2317.1a2.5,2.5,0,0,1-.562.162l-1.539.386a43.374,43.374,0,0,0-4.976,1.6,37,37,0,0,0-4.708,2.262c-.583.333-1.048.609-1.368.811a2.952,2.952,0,0,1-.508.285,3.067,3.067,0,0,1,.46-.36c.307-.223.759-.521,1.315-.877a31.146,31.146,0,0,1,4.731-2.332,35.331,35.331,0,0,1,5.02-1.552c.653-.149,1.188-.254,1.561-.315A3.2,3.2,0,0,1,5941.366,2317.1Z" transform="translate(-5757.159 -2202.367)" fill="#5e6178"/>
      <g id="Grupo_89547" data-name="Grupo 89547" transform="translate(125.815 64.136)" opacity="0.3">
        <path id="Trazado_143580" data-name="Trazado 143580" d="M5842.761,2201.713a4.146,4.146,0,0,0-1.846.916,89.4,89.4,0,0,0-14.5,13.367l-.737,1.363c1.636-1.078,3.508-2.192,5.419-1.81,1.64.346,2.827,1.719,3.893,3.012a136.773,136.773,0,0,0,10.724-15.612A4.25,4.25,0,0,0,5842.761,2201.713Z" transform="translate(-5825.675 -2201.695)"/>
      </g>
      <path id="Trazado_143581" data-name="Trazado 143581" d="M5825.515,2210.825l6.541-8.273,9.839-11.746,5.226,4.906-9.164,14.187-6.505-3.915Z" transform="translate(-5699.771 -2131.444)" fill="#fff"/>
      <g id="Grupo_89548" data-name="Grupo 89548" transform="translate(113.864 67.218)" opacity="0.3">
        <path id="Trazado_143582" data-name="Trazado 143582" d="M5798.494,2210.19c.877,4.656,3.029,8.541,3.9,13.2,1.039-1.359.789-1.938,1.828-3.3a3.744,3.744,0,0,1,1.521-1.354c1.118-.439,2.35.215,3.367.837a38.12,38.12,0,0,0-5.23-4.792l-.079.377q-2.631-3.266-5.388-6.431" transform="translate(-5798.416 -2208.726)"/>
      </g>
      <path id="Trazado_143583" data-name="Trazado 143583" d="M5809.308,2216.3l-9.189-15.66h0l-3.284,3.025,3.108,14.012,4.411-5.677Z" transform="translate(-5683.664 -2136.964)" fill="#fff"/>
      <path id="Trazado_143584" data-name="Trazado 143584" d="M5808.776,2209.986l-.166-.259-.464-.772-1.754-2.977L5799.9,2195h.123l-3.306,2.9.026-.087c.947,4.244,2.008,9,3.157,14.139l-.189-.044,4.384-5.7.07-.092.088.074,4.958,4.3-.1-.026.535-.1-.057.027c1.591-1.416,3.354-2.815,5.068-4.306l.438-.386.062-.053.07.039c2.285,1.219,4.336,2.732,6.506,3.916l-.149.04,9.167-14.183v.132c-1.815-1.714-3.561-3.354-5.217-4.91h.136l-11.552,14.029-3.231,3.9-.833,1.083c-.2.228-.3.342-.3.342s.092-.123.28-.36l.829-1.039,3.188-3.946,11.5-14.095.066-.075.074.066,5.226,4.9.065.057-.048.07-9.15,14.2-.057.088-.092-.053c-2.192-1.192-4.24-2.705-6.506-3.911h.131l-.439.386c-1.722,1.5-3.507,2.894-5.068,4.305h-.057l-.53.1h-.053l-.043-.035-4.954-4.3h.162l-4.415,5.669-.136.18-.048-.224-3.135-14.161v-.053l.04-.035,3.319-2.889.074-.066.048.088,6.427,11.018,1.732,3,.438.785C5808.733,2209.89,5808.776,2209.986,5808.776,2209.986Z" transform="translate(-5683.501 -2131.281)" fill="#5e6178"/>
      <path id="Trazado_143585" data-name="Trazado 143585" d="M5767.937,2227.246c.062,0,0,2.85-.092,6.366a62.917,62.917,0,0,1-.346,6.348c-.079,0-.022-2.85.091-6.366S5767.867,2227.246,5767.937,2227.246Z" transform="translate(-5667.169 -2151.908)" fill="#5e6178"/>
      <path id="Trazado_143586" data-name="Trazado 143586" d="M5853.12,2347.5a4.614,4.614,0,0,0-1.6.583c-1.175.793-1.438,2.381-1.6,3.792-.049.438-.061.969.3,1.227a1.252,1.252,0,0,0,1.078,0,33.486,33.486,0,0,0,6.9-3.069,5.509,5.509,0,0,0,2.753-2.819l.075-.552A32.96,32.96,0,0,0,5853.12,2347.5Z" transform="translate(-5713.464 -2218.967)" fill="#ffbe9d"/>
      <path id="Trazado_143587" data-name="Trazado 143587" d="M5877.4,2325.636l2.6,2.183.723-.842-2.613-2.2Z" transform="translate(-5728.906 -2206.68)" fill="#344154"/>
      <path id="Trazado_143588" data-name="Trazado 143588" d="M5873.583,2336.45c-.044.044-.36-.18-.711-.5s-.592-.623-.552-.667.359.18.709.5S5873.622,2336.4,5873.583,2336.45Z" transform="translate(-5726.053 -2212.574)" fill="#344154"/>
      <path id="Trazado_143589" data-name="Trazado 143589" d="M5867.4,2346.646l-4.029,1.407s-3.7-.929-5.261-1.289a4.034,4.034,0,0,0-3.117.548c-1.894,1.228-5.152,3.341-6.318,4.117s-4.143,3.24-4.143,3.24-2.162,2.477-1.456,3.9,2.662,1.219,2.662,1.219a2.949,2.949,0,0,0,2.341,2.192s-.491.771,1.354,1.263,6.138,0,6.138,0,7.891.324,8.641-.057a44.285,44.285,0,0,0,4.072-3.762l2.815-1.683Z" transform="translate(-5709.551 -2218.961)" fill="#ffbe9d"/>
      <path id="Trazado_143590" data-name="Trazado 143590" d="M5852.936,2352.886a9.407,9.407,0,0,1-1.2.877c-.758.522-1.819,1.219-2.95,2.038a29.01,29.01,0,0,0-2.767,2.267c-.667.622-1.052,1.043-1.078,1.017s.07-.123.232-.324.412-.482.733-.811a22.2,22.2,0,0,1,2.749-2.333c1.135-.824,2.191-1.5,2.995-1.99A9.745,9.745,0,0,1,5852.936,2352.886Z" transform="translate(-5710.676 -2222.465)" fill="#eb996e"/>
      <path id="Trazado_143591" data-name="Trazado 143591" d="M5859.1,2361.246a1.984,1.984,0,0,1-.4.246l-1.1.631c-.947.513-2.249,1.228-3.617,2.126a26.735,26.735,0,0,0-3.319,2.556c-.794.723-1.249,1.21-1.276,1.188a1.737,1.737,0,0,1,.285-.373c.193-.232.5-.552.877-.934a22.147,22.147,0,0,1,3.3-2.631,35.8,35.8,0,0,1,3.669-2.078c.483-.237.878-.438,1.158-.543A1.594,1.594,0,0,1,5859.1,2361.246Z" transform="translate(-5713.175 -2227.16)" fill="#eb996e"/>
      <path id="Trazado_143592" data-name="Trazado 143592" d="M5866.246,2367.866a2,2,0,0,1-.364.355c-.245.21-.618.508-1.087.845-.943.693-2.319,1.526-3.845,2.429a20.648,20.648,0,0,1-4.174,1.815c-.556.18-1.008.311-1.314.4a2.485,2.485,0,0,1-.5.11,2.155,2.155,0,0,1,.465-.2c.355-.123.785-.281,1.315-.464a23.835,23.835,0,0,0,4.108-1.859c1.53-.9,2.911-1.71,3.871-2.363.478-.32.876-.6,1.123-.784A2.344,2.344,0,0,1,5866.246,2367.866Z" transform="translate(-5716.309 -2230.878)" fill="#eb996e"/>
      <path id="Trazado_143593" data-name="Trazado 143593" d="M5877.536,2375.894a3.421,3.421,0,0,1-.676.692,14.4,14.4,0,0,1-1.863,1.4,14.948,14.948,0,0,1-2.056,1.091,3.346,3.346,0,0,1-.917.316c-.026-.066,1.316-.631,2.85-1.6S5877.486,2375.841,5877.536,2375.894Z" transform="translate(-5725.889 -2235.385)" fill="#eb996e"/>
      <path id="Trazado_143594" data-name="Trazado 143594" d="M5859.224,2387.983h-59.458a3.827,3.827,0,0,1,3.828-3.827h51.8a3.827,3.827,0,0,1,3.827,3.827Z" transform="translate(-5685.31 -2240.026)" fill="#5e6178"/>
      <path id="Trazado_143595" data-name="Trazado 143595" d="M5640.748,2324.718l-27.5-.132-9.321-44.14a3.945,3.945,0,0,0-3.845-3.13h-57.463a3.946,3.946,0,0,0-3.836,4.765l9.466,43.4a3.164,3.164,0,0,0,3.095,2.49h93.383C5644.729,2325.752,5642.974,2324.718,5640.748,2324.718Z" transform="translate(-5538.699 -2180.027)" fill="#12263f"/>
      <path id="Trazado_143596" data-name="Trazado 143596" d="M5690.069,2327.984c-.062,0-2.653-11.316-5.788-25.306s-5.629-25.345-5.568-25.362,2.653,11.315,5.792,25.31S5690.13,2327.971,5690.069,2327.984Z" transform="translate(-5617.328 -2180.027)" fill="#5e6178"/>
      <path id="Trazado_143597" data-name="Trazado 143597" d="M5618.434,2331.338a3.694,3.694,0,1,1-5.41-1.131A3.92,3.92,0,0,1,5618.434,2331.338Z" transform="translate(-5579.666 -2209.361)" fill="#fff"/>
      <rect id="Rectángulo_31920" data-name="Rectángulo 31920" width="3.981" height="1.824" rx="0.912" transform="translate(85.305 145.283)" fill="#5e6178"/>
      <path id="Trazado_143598" data-name="Trazado 143598" d="M5778.059,2388.456a1.4,1.4,0,0,1,.117.127,1.147,1.147,0,0,1,.2.464,1.879,1.879,0,0,1-.724,1.754,2.6,2.6,0,0,1-1.315.5,7.193,7.193,0,0,1-1.671-.044,9.522,9.522,0,0,0-1.893-.11,2.955,2.955,0,0,0-.987.228,1.461,1.461,0,0,0-.779.653.926.926,0,0,0,.214.982,2.311,2.311,0,0,0,.947.658,9.454,9.454,0,0,1,1.162.5,1.573,1.573,0,0,1,.8,1.07,2.158,2.158,0,0,1-1.451,2.231,8.446,8.446,0,0,1-2.9.364,48.2,48.2,0,0,1-6.23-.4c-2.147-.254-4.384-.57-6.646-.776a34.872,34.872,0,0,0-6.663,0c-2.149.2-4.223.5-6.218.531a10.538,10.538,0,0,1-2.911-.259,4.086,4.086,0,0,1-2.324-1.473,2.914,2.914,0,0,1-.539-2.49,1.78,1.78,0,0,1,1.863-1.315,1.015,1.015,0,0,1,.851.728,1.278,1.278,0,0,1-.211,1.052,1.314,1.314,0,0,1-.85.552,1.658,1.658,0,0,1-.942-.127,2.236,2.236,0,0,1-1.154-1.206,4.183,4.183,0,0,1-.29-1.377c-.035-.846.044-1.5.044-1.938v-.5a.906.906,0,0,1,0-.171,1.342,1.342,0,0,1,.021.171c0,.114.022.281.027.5,0,.438-.044,1.1,0,1.929a4.052,4.052,0,0,0,.3,1.342,2.119,2.119,0,0,0,1.1,1.131,1.539,1.539,0,0,0,.875.114,1.155,1.155,0,0,0,.755-.5,1.136,1.136,0,0,0,.188-.925.876.876,0,0,0-.727-.61,1.614,1.614,0,0,0-1.675,1.2,2.758,2.758,0,0,0,.526,2.333,3.872,3.872,0,0,0,2.223,1.385,10.171,10.171,0,0,0,2.854.245c1.982-.04,4.048-.342,6.2-.544a34.971,34.971,0,0,1,6.7,0c2.289.206,4.507.526,6.65.781a48.739,48.739,0,0,0,6.2.417,8.179,8.179,0,0,0,2.828-.342,2.195,2.195,0,0,0,1.034-.8,1.7,1.7,0,0,0,.3-1.205,1.365,1.365,0,0,0-.706-.947,8.563,8.563,0,0,0-1.139-.5,2.522,2.522,0,0,1-1.009-.71,1.386,1.386,0,0,1-.285-.548.929.929,0,0,1,.058-.609,1.573,1.573,0,0,1,.876-.728,3.3,3.3,0,0,1,1.039-.237,9.889,9.889,0,0,1,1.917.131,7.06,7.06,0,0,0,1.648.062,2.485,2.485,0,0,0,1.271-.438,1.84,1.84,0,0,0,.736-1.657A1.265,1.265,0,0,0,5778.059,2388.456Z" transform="translate(-5650.345 -2242.441)" fill="#5e6178"/>
      <path id="Trazado_143599" data-name="Trazado 143599" d="M5859.114,2388.356c0,.061-13.048.114-29.138.114s-29.141-.053-29.141-.114,13.025-.11,29.141-.11S5859.114,2388.29,5859.114,2388.356Z" transform="translate(-5685.91 -2242.323)" fill="#344154"/>
    </g>
    <g id="freepik--speech-bubble--inject-3" transform="translate(5591.112 1974.616)">
      <path id="Trazado_143600" data-name="Trazado 143600" d="M5880.122,2034.11l7.642-1.17a23.407,23.407,0,1,0-6.063-5.792h0Z" transform="translate(-5877.152 -1989.933)" fill="#6595bf"/>
      <path id="Trazado_143601" data-name="Trazado 143601" d="M5880.022,2034.049l.093-.439.289-1.315c.259-1.184.645-2.933,1.14-5.2a.047.047,0,0,1,.055-.04h0l-.07.066a23.639,23.639,0,0,1-2.564-4.468,23.041,23.041,0,0,1-1.7-6.169,22.784,22.784,0,0,1-.21-3.639,26.285,26.285,0,0,1,.438-3.884,23.384,23.384,0,0,1,29.663-18.1,24.274,24.274,0,0,1,5.188,2.192l1.2.78.6.395c.2.136.377.294.566.438l1.135.921c.373.307.7.662,1.058,1a22.081,22.081,0,0,1,1.925,2.109l.231.268.207.289.4.583c.266.39.561.763.8,1.166s.46.815.692,1.223c.114.2.232.4.342.609l.28.64.566,1.267c.175.438.3.877.438,1.315a23.448,23.448,0,0,1-14.988,29.578q-.9.3-1.834.519l-.973.219-.482.105-.487.057c-.645.075-1.275.162-1.9.224a32.075,32.075,0,0,1-3.63-.035,23.32,23.32,0,0,1-10.869-3.788h.035l-5.7.838-1.455.215-.487.066.5-.088,1.464-.232,5.668-.877h.031a23.542,23.542,0,0,0,4.617,2.346,23.182,23.182,0,0,0,6.212,1.385,30.681,30.681,0,0,0,3.6.026c.618-.066,1.25-.149,1.89-.228l.483-.057.473-.109.969-.219a23.237,23.237,0,0,0,17.184-28.01q-.226-.934-.524-1.847c-.149-.438-.277-.877-.438-1.315l-.562-1.258-.28-.631c-.105-.2-.224-.4-.338-.6q-.341-.6-.684-1.21c-.237-.4-.525-.767-.789-1.153l-.4-.574-.2-.289-.232-.267a21.833,21.833,0,0,0-1.942-2.091c-.351-.329-.679-.68-1.047-.986l-1.118-.877c-.189-.145-.368-.3-.562-.438l-.6-.39-1.188-.772a24.188,24.188,0,0,0-5.129-2.192,23.021,23.021,0,0,0-19.961,3.266,23.356,23.356,0,0,0-6.411,6.773,23.1,23.1,0,0,0-3.068,7.892,26.061,26.061,0,0,0-.438,3.858,23.032,23.032,0,0,0,.193,3.613,23.379,23.379,0,0,0,4.257,10.57.053.053,0,0,1,0,.07.047.047,0,0,1-.057,0h0l.074-.026c-.517,2.253-.916,3.985-1.188,5.165-.136.583-.241,1.03-.311,1.337A1.85,1.85,0,0,1,5880.022,2034.049Z" transform="translate(-5877.053 -1989.872)" fill="#5e6178"/>
      <g id="Grupo_89549" data-name="Grupo 89549" transform="translate(10.781 6.247)">
        <path id="Trazado_143602" data-name="Trazado 143602" d="M5901.644,2010.238a5.847,5.847,0,0,1,1.768-4.42,6.41,6.41,0,0,1,4.632-1.7,6.514,6.514,0,0,1,4.675,1.677,5.96,5.96,0,0,1,1.768,4.542v1.464a5.775,5.775,0,0,1-1.768,4.41,7.3,7.3,0,0,1-9.3-.01,5.916,5.916,0,0,1-1.778-4.521Zm3.9,1.565a2.736,2.736,0,0,0,.7,1.961,2.413,2.413,0,0,0,1.839.742,2.305,2.305,0,0,0,1.809-.752,2.912,2.912,0,0,0,.671-2.012v-1.5a2.853,2.853,0,0,0-.671-1.971,2.613,2.613,0,0,0-3.658-.01,2.912,2.912,0,0,0-.691,2.063Zm3.7,20.118-2.865-1.544,14.449-23.126,2.866,1.545Zm6.543-5.04a5.773,5.773,0,0,1,1.789-4.42,6.5,6.5,0,0,1,4.632-1.677,6.574,6.574,0,0,1,4.665,1.656,5.932,5.932,0,0,1,1.778,4.562v1.463a5.819,5.819,0,0,1-1.748,4.4,6.442,6.442,0,0,1-4.653,1.677,6.52,6.52,0,0,1-4.7-1.687,5.894,5.894,0,0,1-1.768-4.471Zm3.9,1.585a2.716,2.716,0,0,0,.731,1.91,2.385,2.385,0,0,0,1.83.792q2.478,0,2.479-2.743v-1.545a2.763,2.763,0,0,0-.691-1.961,2.626,2.626,0,0,0-3.658,0,2.853,2.853,0,0,0-.69,2.022Z" transform="translate(-5901.644 -2004.121)" fill="#f2e9e4"/>
      </g>
    </g>
  </g>
</svg>
