<svg xmlns="http://www.w3.org/2000/svg" width="464.113" height="552.225" viewBox="0 0 464.113 552.225">
  <g id="Grupo_92144" data-name="Grupo 92144" transform="translate(-346.05 -6643.387)">
    <g id="freepik--background-simple--inject-2">
      <path id="Trazado_146792" data-name="Trazado 146792" d="M783.31,7112.518c22.99-32.31,29.65-77.11,25.85-115.11-1.88-18.83-5.56-38.57-16.68-54.35-16.2-23-42.94-35.08-63.32-53.65-30-27.32-42.69-67.21-68.21-98-33.31-40.11-85.79-45.18-134.89-42.81-36.9,1.81-96.22,2.51-104.9,48.81-9,48,8,93-28,116s-55,71-44,112c9.28,34.58,53.76,40.7,63,76,11,42,75,98,137,94s98-45,124-43c30.13,2.31,62.23,2.22,87.56-16.61A103.918,103.918,0,0,0,783.31,7112.518Z" fill="#d9a171"/>
      <path id="Trazado_146793" data-name="Trazado 146793" d="M783.31,7112.518c22.99-32.31,29.65-77.11,25.85-115.11-1.88-18.83-5.56-38.57-16.68-54.35-16.2-23-42.94-35.08-63.32-53.65-30-27.32-42.69-67.21-68.21-98-33.31-40.11-85.79-45.18-134.89-42.81-36.9,1.81-96.22,2.51-104.9,48.81-9,48,8,93-28,116s-55,71-44,112c9.28,34.58,53.76,40.7,63,76,11,42,75,98,137,94s98-45,124-43c30.13,2.31,62.23,2.22,87.56-16.61A103.918,103.918,0,0,0,783.31,7112.518Z" fill="#aed3f2" opacity="0.7" style="isolation: isolate"/>
    </g>
    <g id="freepik--Device--inject-2">
      <path id="Trazado_146794" data-name="Trazado 146794" d="M501,7161.578l36.92-33.96-81.34-5.25Z" fill="#ccc" stroke="#263238" stroke-linecap="round" stroke-linejoin="round" stroke-width="1"/>
      <path id="Trazado_146795" data-name="Trazado 146795" d="M499.44,7154.738l16.62-15.75-19.25-1.16Z" fill="#344154" stroke="#263238" stroke-linecap="round" stroke-linejoin="round" stroke-width="1"/>
      <path id="Trazado_146796" data-name="Trazado 146796" d="M386.24,7066.208l121.77,5.39-7.01,89.98-122.84-5.93Z" fill="#a6a6a6" stroke="#263238" stroke-linecap="round" stroke-linejoin="round" stroke-width="1"/>
      <path id="Trazado_146797" data-name="Trazado 146797" d="M378.7,7149.658c7.2-1.06,19.35-3.89,39.87-10.53,48.85-15.81,55-60,89.44-67.53l-121.77-5.39Z" fill="#344154" stroke="#263238" stroke-linecap="round" stroke-linejoin="round" stroke-width="1"/>
      <ellipse id="Elipse_4327" data-name="Elipse 4327" cx="9.34" cy="7.18" rx="9.34" ry="7.18" transform="translate(432.94 7104.648)" fill="#ffbf9d"/>
    </g>
    <g id="Grupo_92143" data-name="Grupo 92143">
      <g id="Grupo_92139" data-name="Grupo 92139">
        <g id="Grupo_92125" data-name="Grupo 92125">
          <rect id="Rectángulo_32919" data-name="Rectángulo 32919" width="277.183" height="391.104" transform="translate(372.826 6643.708)" fill="#fff"/>
          <g id="Grupo_92124" data-name="Grupo 92124">
            <path id="Trazado_146798" data-name="Trazado 146798" d="M650.009,7034.812c0-2.6-.12-160.054-.293-391.1l.293.293-277.151.029h-.032l.322-.322c-.023,146.561-.044,282.087-.061,391.1l-.261-.261,277.183.261-277.183.261h-.261v-.261c-.017-109.016-.038-244.542-.061-391.1v-.322h.354l277.151.029h.293v.293C650.129,6874.758,650.011,7032.213,650.009,7034.812Z" fill="#344154"/>
          </g>
        </g>
        <rect id="Rectángulo_32920" data-name="Rectángulo 32920" width="118.327" height="27.13" rx="6.688" transform="translate(391.498 6903.377)" fill="#aed3f2"/>
        <rect id="Rectángulo_32921" data-name="Rectángulo 32921" width="55.562" height="27.13" rx="6.688" transform="translate(449.492 6903.377)" fill="#aed3f2"/>
        <rect id="Rectángulo_32922" data-name="Rectángulo 32922" width="243.987" height="27.13" rx="6.688" transform="translate(390.939 6958.988)" fill="#aed3f2"/>
        <g id="Grupo_92126" data-name="Grupo 92126">
          <path id="Trazado_146799" data-name="Trazado 146799" d="M445.826,6892.462c0,.178-11.436.322-25.541.322s-25.543-.144-25.543-.322,11.434-.322,25.543-.322S445.826,6892.284,445.826,6892.462Z" fill="#344154"/>
        </g>
        <g id="Grupo_92127" data-name="Grupo 92127">
          <path id="Trazado_146800" data-name="Trazado 146800" d="M478.245,6947.79c0,.178-18.55.322-41.428.322s-41.432-.144-41.432-.322,18.546-.322,41.432-.322S478.245,6947.613,478.245,6947.79Z" fill="#344154"/>
        </g>
        <rect id="Rectángulo_32923" data-name="Rectángulo 32923" width="119.258" height="29.657" rx="6.508" transform="translate(386.583 6841.787)" fill="#839eb6"/>
        <rect id="Rectángulo_32924" data-name="Rectángulo 32924" width="248.343" height="29.657" rx="6.508" transform="translate(386.583 6661.469)" fill="#839eb6"/>
        <g id="Grupo_92128" data-name="Grupo 92128">
          <path id="Trazado_146801" data-name="Trazado 146801" d="M563.651,6676.3c0,.178-22.034.323-49.208.323s-49.213-.145-49.213-.323,22.029-.321,49.213-.321S563.651,6676.12,563.651,6676.3Z" fill="#344154"/>
        </g>
        <g id="Grupo_92129" data-name="Grupo 92129">
          <path id="Trazado_146802" data-name="Trazado 146802" d="M650.009,6698.308c0,.178-62.11.322-138.709.322-76.626,0-138.723-.144-138.723-.322s62.1-.322,138.723-.322C587.9,6697.986,650.009,6698.13,650.009,6698.308Z" fill="#aed3f2"/>
        </g>
        <g id="Grupo_92130" data-name="Grupo 92130">
          <path id="Trazado_146803" data-name="Trazado 146803" d="M650.009,6829.5c0,.178-62.11.322-138.709.322-76.626,0-138.723-.144-138.723-.322s62.1-.322,138.723-.322C587.9,6829.183,650.009,6829.327,650.009,6829.5Z" fill="#aed3f2"/>
        </g>
        <rect id="Rectángulo_32925" data-name="Rectángulo 32925" width="118.327" height="27.13" rx="6.688" transform="translate(391.498 6728.04)" fill="#aed3f2"/>
        <rect id="Rectángulo_32926" data-name="Rectángulo 32926" width="55.562" height="27.13" rx="6.688" transform="translate(449.492 6728.04)" fill="#aed3f2"/>
        <rect id="Rectángulo_32927" data-name="Rectángulo 32927" width="117.166" height="27.13" rx="6.688" transform="translate(388.674 6783.65)" fill="#aed3f2"/>
        <g id="Grupo_92131" data-name="Grupo 92131">
          <path id="Trazado_146804" data-name="Trazado 146804" d="M445.826,6717.124c0,.178-11.436.322-25.541.322s-25.543-.144-25.543-.322,11.434-.322,25.543-.322S445.826,6716.946,445.826,6717.124Z" fill="#344154"/>
        </g>
        <g id="Grupo_92132" data-name="Grupo 92132">
          <path id="Trazado_146805" data-name="Trazado 146805" d="M566.67,6717.124c0,.178-9.005.322-20.111.322s-20.113-.144-20.113-.322,9-.322,20.113-.322S566.67,6716.946,566.67,6717.124Z" fill="#344154"/>
        </g>
        <g id="Grupo_92133" data-name="Grupo 92133">
          <path id="Trazado_146806" data-name="Trazado 146806" d="M478.245,6772.452c0,.178-18.55.322-41.428.322s-41.432-.144-41.432-.322,18.546-.322,41.432-.322S478.245,6772.275,478.245,6772.452Z" fill="#344154"/>
        </g>
        <g id="Grupo_92134" data-name="Grupo 92134">
          <path id="Trazado_146807" data-name="Trazado 146807" d="M626.365,7002.6c0,.178-18.094.322-40.409.322s-40.414-.144-40.414-.322,18.091-.322,40.414-.322S626.365,7002.427,626.365,7002.6Z" fill="#344154"/>
        </g>
        <g id="Grupo_92135" data-name="Grupo 92135">
          <path id="Trazado_146808" data-name="Trazado 146808" d="M525.684,6742.368a2.329,2.329,0,0,0-.58-1.662,5.246,5.246,0,0,0-1.967-1.14,23.129,23.129,0,0,1-2.4-1.038,7.611,7.611,0,0,1-1.726-1.185,4.762,4.762,0,0,1-1.121-1.573,5.284,5.284,0,0,1-.4-2.152,4.777,4.777,0,0,1,1.376-3.528,5.806,5.806,0,0,1,3.655-1.6v-2.726h2.038v2.764a5.314,5.314,0,0,1,3.528,1.879,6.191,6.191,0,0,1,1.274,4.044h-3.681a3.512,3.512,0,0,0-.631-2.287,2.081,2.081,0,0,0-1.687-.758,2.148,2.148,0,0,0-1.618.593,2.254,2.254,0,0,0-.573,1.636,2.156,2.156,0,0,0,.56,1.554,6.173,6.173,0,0,0,2.083,1.2,22.973,22.973,0,0,1,2.5,1.152,7.239,7.239,0,0,1,1.656,1.223,4.718,4.718,0,0,1,1.031,1.554,5.339,5.339,0,0,1,.357,2.032,4.755,4.755,0,0,1-1.35,3.515,5.921,5.921,0,0,1-3.719,1.592v2.535H522.27v-2.522a6.133,6.133,0,0,1-4.044-1.853,5.976,5.976,0,0,1-1.432-4.185h3.681a3.386,3.386,0,0,0,.719,2.325,2.627,2.627,0,0,0,2.07.809,2.527,2.527,0,0,0,1.77-.593A2.054,2.054,0,0,0,525.684,6742.368Z" fill="#aed3f2"/>
          <path id="Trazado_146809" data-name="Trazado 146809" d="M547.286,6747.246H543.6v-14.189l-4.394,1.363v-2.993l7.68-2.751h.4Z" fill="#aed3f2"/>
          <path id="Trazado_146810" data-name="Trazado 146810" d="M565.793,6739.579a9.39,9.39,0,0,1-1.593,5.884,6.362,6.362,0,0,1-9.3.038,9.127,9.127,0,0,1-1.643-5.731v-3.414a9.266,9.266,0,0,1,1.612-5.9,6.374,6.374,0,0,1,9.278-.019,9.093,9.093,0,0,1,1.644,5.725Zm-3.681-3.754a6.794,6.794,0,0,0-.631-3.359,2.131,2.131,0,0,0-1.968-1.052,2.094,2.094,0,0,0-1.917,1,6.36,6.36,0,0,0-.656,3.13v4.513a7.127,7.127,0,0,0,.618,3.372,2.1,2.1,0,0,0,1.981,1.1,2.065,2.065,0,0,0,1.948-1.058,6.945,6.945,0,0,0,.625-3.238Z" fill="#aed3f2"/>
          <path id="Trazado_146811" data-name="Trazado 146811" d="M580.758,6739.579a9.39,9.39,0,0,1-1.592,5.884,6.362,6.362,0,0,1-9.3.038,9.12,9.12,0,0,1-1.643-5.731v-3.414a9.266,9.266,0,0,1,1.612-5.9,6.374,6.374,0,0,1,9.278-.019,9.087,9.087,0,0,1,1.643,5.725Zm-3.681-3.754a6.8,6.8,0,0,0-.63-3.359,2.131,2.131,0,0,0-1.968-1.052,2.094,2.094,0,0,0-1.917,1,6.36,6.36,0,0,0-.656,3.13v4.513a7.127,7.127,0,0,0,.618,3.372,2.1,2.1,0,0,0,1.981,1.1,2.065,2.065,0,0,0,1.948-1.058,6.96,6.96,0,0,0,.624-3.238Z" fill="#aed3f2"/>
          <path id="Trazado_146812" data-name="Trazado 146812" d="M583.586,6745.438a1.852,1.852,0,0,1,.592-1.427,2.3,2.3,0,0,1,2.981,0,1.852,1.852,0,0,1,.592,1.427,1.827,1.827,0,0,1-.586,1.407,2.34,2.34,0,0,1-2.993,0A1.827,1.827,0,0,1,583.586,6745.438Z" fill="#aed3f2"/>
          <path id="Trazado_146813" data-name="Trazado 146813" d="M603.3,6739.579a9.4,9.4,0,0,1-1.592,5.884,6.362,6.362,0,0,1-9.3.038,9.114,9.114,0,0,1-1.643-5.731v-3.414a9.272,9.272,0,0,1,1.611-5.9,6.375,6.375,0,0,1,9.279-.019,9.093,9.093,0,0,1,1.643,5.725Zm-3.681-3.754a6.783,6.783,0,0,0-.631-3.359,2.131,2.131,0,0,0-1.968-1.052,2.091,2.091,0,0,0-1.916,1,6.349,6.349,0,0,0-.656,3.13v4.513a7.14,7.14,0,0,0,.617,3.372,2.1,2.1,0,0,0,1.981,1.1,2.066,2.066,0,0,0,1.949-1.058,6.96,6.96,0,0,0,.624-3.238Z" fill="#aed3f2"/>
          <path id="Trazado_146814" data-name="Trazado 146814" d="M615.772,6728.51v3.032h-.356a6.25,6.25,0,0,0-4.019,1.3,5.278,5.278,0,0,0-1.828,3.5,5.014,5.014,0,0,1,3.732-1.5,4.723,4.723,0,0,1,3.847,1.733,6.94,6.94,0,0,1,1.426,4.56,6.833,6.833,0,0,1-.783,3.273,5.624,5.624,0,0,1-2.216,2.28,6.444,6.444,0,0,1-3.242.815,6.01,6.01,0,0,1-4.731-2.038,7.908,7.908,0,0,1-1.8-5.439V6738.7a11.907,11.907,0,0,1,1.14-5.331,8.355,8.355,0,0,1,3.274-3.579,9.594,9.594,0,0,1,4.948-1.28Zm-3.592,9.3a2.942,2.942,0,0,0-1.617.464,2.8,2.8,0,0,0-1.07,1.227v1.119a4.954,4.954,0,0,0,.726,2.879,2.345,2.345,0,0,0,2.038,1.036,2.319,2.319,0,0,0,1.917-.934,4.387,4.387,0,0,0-.007-4.863A2.409,2.409,0,0,0,612.18,6737.808Z" fill="#aed3f2"/>
          <path id="Trazado_146815" data-name="Trazado 146815" d="M633.235,6739.579a9.39,9.39,0,0,1-1.593,5.884,6.361,6.361,0,0,1-9.3.038,9.121,9.121,0,0,1-1.644-5.731v-3.414a9.272,9.272,0,0,1,1.612-5.9,6.375,6.375,0,0,1,9.279-.019,9.1,9.1,0,0,1,1.643,5.725Zm-3.681-3.754a6.793,6.793,0,0,0-.631-3.359,2.131,2.131,0,0,0-1.968-1.052,2.094,2.094,0,0,0-1.917,1,6.371,6.371,0,0,0-.656,3.13v4.513a7.127,7.127,0,0,0,.618,3.372,2.1,2.1,0,0,0,1.981,1.1,2.065,2.065,0,0,0,1.948-1.058,6.946,6.946,0,0,0,.625-3.238Z" fill="#aed3f2"/>
        </g>
        <g id="Grupo_92136" data-name="Grupo 92136">
          <path id="Trazado_146816" data-name="Trazado 146816" d="M525.684,6776.143a2.33,2.33,0,0,0-.58-1.663,5.272,5.272,0,0,0-1.967-1.14,23.024,23.024,0,0,1-2.4-1.038,7.591,7.591,0,0,1-1.726-1.184,4.768,4.768,0,0,1-1.121-1.573,5.289,5.289,0,0,1-.4-2.153,4.777,4.777,0,0,1,1.376-3.528,5.806,5.806,0,0,1,3.655-1.6v-2.725h2.038v2.764a5.319,5.319,0,0,1,3.528,1.878,6.191,6.191,0,0,1,1.274,4.044h-3.681a3.509,3.509,0,0,0-.631-2.286,2.083,2.083,0,0,0-1.687-.758,2.151,2.151,0,0,0-1.618.592,2.257,2.257,0,0,0-.573,1.637,2.159,2.159,0,0,0,.56,1.554,6.158,6.158,0,0,0,2.083,1.2,23.238,23.238,0,0,1,2.5,1.153,7.2,7.2,0,0,1,1.656,1.223,4.711,4.711,0,0,1,1.031,1.554,5.333,5.333,0,0,1,.357,2.031,4.757,4.757,0,0,1-1.35,3.516,5.924,5.924,0,0,1-3.719,1.592v2.534H522.27v-2.522a6.124,6.124,0,0,1-4.044-1.853,5.973,5.973,0,0,1-1.432-4.184h3.681a3.387,3.387,0,0,0,.719,2.325,2.626,2.626,0,0,0,2.07.808,2.526,2.526,0,0,0,1.77-.592A2.058,2.058,0,0,0,525.684,6776.143Z" fill="#aed3f2"/>
          <path id="Trazado_146817" data-name="Trazado 146817" d="M550.432,6767.4a4.316,4.316,0,0,1-.675,2.4,4.856,4.856,0,0,1-1.86,1.668,5.386,5.386,0,0,1,2.14,1.79,4.594,4.594,0,0,1,.79,2.681,4.862,4.862,0,0,1-1.682,3.9,8.015,8.015,0,0,1-9.157-.007,4.845,4.845,0,0,1-1.695-3.9,4.626,4.626,0,0,1,.79-2.688,5.294,5.294,0,0,1,2.127-1.783,4.813,4.813,0,0,1-1.853-1.668,4.345,4.345,0,0,1-.669-2.4,4.806,4.806,0,0,1,1.58-3.776,7.264,7.264,0,0,1,8.578-.013A4.788,4.788,0,0,1,550.432,6767.4Zm-3.3,8.266a2.673,2.673,0,0,0-.7-1.936,2.8,2.8,0,0,0-3.757-.006,3.019,3.019,0,0,0-.013,3.853,2.872,2.872,0,0,0,3.789.025A2.655,2.655,0,0,0,547.133,6775.671Zm-.382-8.088a2.546,2.546,0,0,0-.573-1.738,2.331,2.331,0,0,0-3.223-.019,2.53,2.53,0,0,0-.573,1.757,2.665,2.665,0,0,0,.573,1.784,2.269,2.269,0,0,0,3.229,0A2.684,2.684,0,0,0,546.751,6767.583Z" fill="#aed3f2"/>
          <path id="Trazado_146818" data-name="Trazado 146818" d="M565.793,6773.353a9.391,9.391,0,0,1-1.593,5.885,6.362,6.362,0,0,1-9.3.038,9.129,9.129,0,0,1-1.643-5.732v-3.413a9.265,9.265,0,0,1,1.612-5.9,6.374,6.374,0,0,1,9.278-.02,9.1,9.1,0,0,1,1.644,5.726Zm-3.681-3.753a6.791,6.791,0,0,0-.631-3.359,2.131,2.131,0,0,0-1.968-1.052,2.094,2.094,0,0,0-1.917,1,6.357,6.357,0,0,0-.656,3.13v4.513a7.127,7.127,0,0,0,.618,3.372,2.1,2.1,0,0,0,1.981,1.1,2.065,2.065,0,0,0,1.948-1.058,6.948,6.948,0,0,0,.625-3.239Z" fill="#aed3f2"/>
          <path id="Trazado_146819" data-name="Trazado 146819" d="M580.758,6773.353a9.391,9.391,0,0,1-1.592,5.885,6.362,6.362,0,0,1-9.3.038,9.122,9.122,0,0,1-1.643-5.732v-3.413a9.265,9.265,0,0,1,1.612-5.9,6.374,6.374,0,0,1,9.278-.02,9.091,9.091,0,0,1,1.643,5.726Zm-3.681-3.753a6.792,6.792,0,0,0-.63-3.359,2.131,2.131,0,0,0-1.968-1.052,2.094,2.094,0,0,0-1.917,1,6.357,6.357,0,0,0-.656,3.13v4.513a7.127,7.127,0,0,0,.618,3.372,2.1,2.1,0,0,0,1.981,1.1,2.065,2.065,0,0,0,1.948-1.058,6.963,6.963,0,0,0,.624-3.239Z" fill="#aed3f2"/>
          <path id="Trazado_146820" data-name="Trazado 146820" d="M583.586,6779.212a1.85,1.85,0,0,1,.592-1.426,2.3,2.3,0,0,1,2.981,0,1.85,1.85,0,0,1,.592,1.426,1.828,1.828,0,0,1-.586,1.408,2.34,2.34,0,0,1-2.993,0A1.828,1.828,0,0,1,583.586,6779.212Z" fill="#aed3f2"/>
          <path id="Trazado_146821" data-name="Trazado 146821" d="M603.3,6773.353a9.4,9.4,0,0,1-1.592,5.885,6.362,6.362,0,0,1-9.3.038,9.116,9.116,0,0,1-1.643-5.732v-3.413a9.271,9.271,0,0,1,1.611-5.9,6.375,6.375,0,0,1,9.279-.02,9.1,9.1,0,0,1,1.643,5.726Zm-3.681-3.753a6.78,6.78,0,0,0-.631-3.359,2.131,2.131,0,0,0-1.968-1.052,2.091,2.091,0,0,0-1.916,1,6.346,6.346,0,0,0-.656,3.13v4.513a7.14,7.14,0,0,0,.617,3.372,2.1,2.1,0,0,0,1.981,1.1A2.066,2.066,0,0,0,599,6777.25a6.963,6.963,0,0,0,.624-3.239Z" fill="#aed3f2"/>
          <path id="Trazado_146822" data-name="Trazado 146822" d="M618.269,6773.353a9.4,9.4,0,0,1-1.592,5.885,6.362,6.362,0,0,1-9.3.038,9.116,9.116,0,0,1-1.643-5.732v-3.413a9.271,9.271,0,0,1,1.611-5.9,6.375,6.375,0,0,1,9.279-.02,9.1,9.1,0,0,1,1.643,5.726Zm-3.681-3.753a6.779,6.779,0,0,0-.631-3.359,2.13,2.13,0,0,0-1.968-1.052,2.094,2.094,0,0,0-1.917,1,6.358,6.358,0,0,0-.655,3.13v4.513a7.128,7.128,0,0,0,.617,3.372,2.1,2.1,0,0,0,1.981,1.1,2.066,2.066,0,0,0,1.949-1.058,6.963,6.963,0,0,0,.624-3.239Z" fill="#aed3f2"/>
          <path id="Trazado_146823" data-name="Trazado 146823" d="M633.235,6773.353a9.392,9.392,0,0,1-1.593,5.885,6.361,6.361,0,0,1-9.3.038,9.123,9.123,0,0,1-1.644-5.732v-3.413a9.271,9.271,0,0,1,1.612-5.9,6.375,6.375,0,0,1,9.279-.02,9.1,9.1,0,0,1,1.643,5.726Zm-3.681-3.753a6.79,6.79,0,0,0-.631-3.359,2.13,2.13,0,0,0-1.968-1.052,2.094,2.094,0,0,0-1.917,1,6.368,6.368,0,0,0-.656,3.13v4.513a7.127,7.127,0,0,0,.618,3.372,2.1,2.1,0,0,0,1.981,1.1,2.065,2.065,0,0,0,1.948-1.058,6.949,6.949,0,0,0,.625-3.239Z" fill="#aed3f2"/>
        </g>
        <g id="Grupo_92137" data-name="Grupo 92137">
          <path id="Trazado_146824" data-name="Trazado 146824" d="M525.684,6805.85a2.329,2.329,0,0,0-.58-1.662,5.246,5.246,0,0,0-1.967-1.14,23.024,23.024,0,0,1-2.4-1.038,7.625,7.625,0,0,1-1.726-1.185,4.768,4.768,0,0,1-1.121-1.573,5.284,5.284,0,0,1-.4-2.152,4.777,4.777,0,0,1,1.376-3.528,5.8,5.8,0,0,1,3.655-1.6v-2.726h2.038V6792a5.314,5.314,0,0,1,3.528,1.879,6.191,6.191,0,0,1,1.274,4.044h-3.681a3.512,3.512,0,0,0-.631-2.287,2.083,2.083,0,0,0-1.687-.758,2.148,2.148,0,0,0-1.618.593,2.254,2.254,0,0,0-.573,1.636,2.156,2.156,0,0,0,.56,1.554,6.173,6.173,0,0,0,2.083,1.2,22.973,22.973,0,0,1,2.5,1.152,7.239,7.239,0,0,1,1.656,1.223,4.718,4.718,0,0,1,1.031,1.554,5.339,5.339,0,0,1,.357,2.031,4.755,4.755,0,0,1-1.35,3.516,5.919,5.919,0,0,1-3.719,1.592v2.535H522.27v-2.522a6.129,6.129,0,0,1-4.044-1.854,5.971,5.971,0,0,1-1.432-4.184h3.681a3.385,3.385,0,0,0,.719,2.325,2.627,2.627,0,0,0,2.07.809,2.529,2.529,0,0,0,1.77-.593A2.055,2.055,0,0,0,525.684,6805.85Z" fill="#344154"/>
          <path id="Trazado_146825" data-name="Trazado 146825" d="M547.286,6810.728H543.6v-14.189l-4.394,1.363v-2.993l7.68-2.751h.4Z" fill="#344154"/>
          <path id="Trazado_146826" data-name="Trazado 146826" d="M565.793,6803.061a9.39,9.39,0,0,1-1.593,5.884,6.362,6.362,0,0,1-9.3.038,9.126,9.126,0,0,1-1.643-5.731v-3.414a9.267,9.267,0,0,1,1.612-5.9,6.373,6.373,0,0,1,9.278-.019,9.094,9.094,0,0,1,1.644,5.725Zm-3.681-3.754a6.791,6.791,0,0,0-.631-3.359,2.131,2.131,0,0,0-1.968-1.052,2.094,2.094,0,0,0-1.917,1,6.36,6.36,0,0,0-.656,3.13v4.513a7.125,7.125,0,0,0,.618,3.372,2.1,2.1,0,0,0,1.981,1.1,2.065,2.065,0,0,0,1.948-1.058,6.944,6.944,0,0,0,.625-3.238Z" fill="#344154"/>
          <path id="Trazado_146827" data-name="Trazado 146827" d="M580.758,6803.061a9.39,9.39,0,0,1-1.592,5.884,6.362,6.362,0,0,1-9.3.038,9.119,9.119,0,0,1-1.643-5.731v-3.414a9.267,9.267,0,0,1,1.612-5.9,6.373,6.373,0,0,1,9.278-.019,9.088,9.088,0,0,1,1.643,5.725Zm-3.681-3.754a6.792,6.792,0,0,0-.63-3.359,2.131,2.131,0,0,0-1.968-1.052,2.094,2.094,0,0,0-1.917,1,6.36,6.36,0,0,0-.656,3.13v4.513a7.125,7.125,0,0,0,.618,3.372,2.1,2.1,0,0,0,1.981,1.1,2.065,2.065,0,0,0,1.948-1.058,6.959,6.959,0,0,0,.624-3.238Z" fill="#344154"/>
          <path id="Trazado_146828" data-name="Trazado 146828" d="M583.586,6808.92a1.852,1.852,0,0,1,.592-1.427,2.3,2.3,0,0,1,2.981,0,1.852,1.852,0,0,1,.592,1.427,1.827,1.827,0,0,1-.586,1.407,2.34,2.34,0,0,1-2.993,0A1.827,1.827,0,0,1,583.586,6808.92Z" fill="#344154"/>
          <path id="Trazado_146829" data-name="Trazado 146829" d="M603.3,6803.061a9.4,9.4,0,0,1-1.592,5.884,6.362,6.362,0,0,1-9.3.038,9.113,9.113,0,0,1-1.643-5.731v-3.414a9.273,9.273,0,0,1,1.611-5.9,6.374,6.374,0,0,1,9.279-.019,9.094,9.094,0,0,1,1.643,5.725Zm-3.681-3.754a6.78,6.78,0,0,0-.631-3.359,2.131,2.131,0,0,0-1.968-1.052,2.091,2.091,0,0,0-1.916,1,6.349,6.349,0,0,0-.656,3.13v4.513a7.139,7.139,0,0,0,.617,3.372,2.1,2.1,0,0,0,1.981,1.1,2.066,2.066,0,0,0,1.949-1.058,6.959,6.959,0,0,0,.624-3.238Z" fill="#344154"/>
          <path id="Trazado_146830" data-name="Trazado 146830" d="M618.269,6803.061a9.4,9.4,0,0,1-1.592,5.884,6.362,6.362,0,0,1-9.3.038,9.113,9.113,0,0,1-1.643-5.731v-3.414a9.273,9.273,0,0,1,1.611-5.9,6.374,6.374,0,0,1,9.279-.019,9.094,9.094,0,0,1,1.643,5.725Zm-3.681-3.754a6.779,6.779,0,0,0-.631-3.359,2.13,2.13,0,0,0-1.968-1.052,2.094,2.094,0,0,0-1.917,1,6.361,6.361,0,0,0-.655,3.13v4.513a7.127,7.127,0,0,0,.617,3.372,2.1,2.1,0,0,0,1.981,1.1,2.066,2.066,0,0,0,1.949-1.058,6.959,6.959,0,0,0,.624-3.238Z" fill="#344154"/>
          <path id="Trazado_146831" data-name="Trazado 146831" d="M633.235,6803.061a9.39,9.39,0,0,1-1.593,5.884,6.361,6.361,0,0,1-9.3.038,9.12,9.12,0,0,1-1.644-5.731v-3.414a9.273,9.273,0,0,1,1.612-5.9,6.374,6.374,0,0,1,9.279-.019,9.1,9.1,0,0,1,1.643,5.725Zm-3.681-3.754a6.79,6.79,0,0,0-.631-3.359,2.13,2.13,0,0,0-1.968-1.052,2.094,2.094,0,0,0-1.917,1,6.371,6.371,0,0,0-.656,3.13v4.513a7.125,7.125,0,0,0,.618,3.372,2.1,2.1,0,0,0,1.981,1.1,2.065,2.065,0,0,0,1.948-1.058,6.945,6.945,0,0,0,.625-3.238Z" fill="#344154"/>
        </g>
        <g id="Grupo_92138" data-name="Grupo 92138">
          <path id="Trazado_146832" data-name="Trazado 146832" d="M525.684,6833.807a2.329,2.329,0,0,0-.58-1.662,5.246,5.246,0,0,0-1.967-1.14,23.024,23.024,0,0,1-2.4-1.038,7.623,7.623,0,0,1-1.726-1.184,4.768,4.768,0,0,1-1.121-1.573,5.289,5.289,0,0,1-.4-2.153,4.777,4.777,0,0,1,1.376-3.528,5.806,5.806,0,0,1,3.655-1.6V6817.2h2.038v2.763a5.322,5.322,0,0,1,3.528,1.879,6.191,6.191,0,0,1,1.274,4.044h-3.681a3.508,3.508,0,0,0-.631-2.286,2.083,2.083,0,0,0-1.687-.758,2.147,2.147,0,0,0-1.618.592,2.257,2.257,0,0,0-.573,1.637,2.159,2.159,0,0,0,.56,1.554,6.174,6.174,0,0,0,2.083,1.2,23.143,23.143,0,0,1,2.5,1.153,7.211,7.211,0,0,1,1.656,1.223,4.724,4.724,0,0,1,1.031,1.553,5.34,5.34,0,0,1,.357,2.032,4.753,4.753,0,0,1-1.35,3.515,5.927,5.927,0,0,1-3.719,1.593v2.534H522.27V6838.9a6.128,6.128,0,0,1-4.044-1.853,5.973,5.973,0,0,1-1.432-4.184h3.681a3.384,3.384,0,0,0,.719,2.324,2.624,2.624,0,0,0,2.07.809,2.527,2.527,0,0,0,1.77-.592A2.057,2.057,0,0,0,525.684,6833.807Z" fill="#aed3f2"/>
          <path id="Trazado_146833" data-name="Trazado 146833" d="M549.235,6831.706h2.1v2.968h-2.1v4.012h-3.681v-4.012h-7.6l-.166-2.319,7.731-12.214h3.72Zm-7.783,0h4.1v-6.547l-.242.42Z" fill="#aed3f2"/>
          <path id="Trazado_146834" data-name="Trazado 146834" d="M565.793,6831.018a9.393,9.393,0,0,1-1.593,5.885,6.364,6.364,0,0,1-9.3.038,9.13,9.13,0,0,1-1.643-5.732V6827.8a9.27,9.27,0,0,1,1.612-5.9,6.375,6.375,0,0,1,9.278-.019,9.1,9.1,0,0,1,1.644,5.726Zm-3.681-3.753a6.794,6.794,0,0,0-.631-3.359,2.131,2.131,0,0,0-1.968-1.052,2.094,2.094,0,0,0-1.917,1,6.357,6.357,0,0,0-.656,3.13v4.513a7.129,7.129,0,0,0,.618,3.372,2.1,2.1,0,0,0,1.981,1.1,2.067,2.067,0,0,0,1.948-1.058,6.949,6.949,0,0,0,.625-3.239Z" fill="#aed3f2"/>
          <path id="Trazado_146835" data-name="Trazado 146835" d="M580.886,6822.2l-7.171,16.49H569.83l7.184-15.578h-9.222v-2.967h13.094Z" fill="#aed3f2"/>
          <path id="Trazado_146836" data-name="Trazado 146836" d="M583.586,6836.877a1.85,1.85,0,0,1,.592-1.426,2.3,2.3,0,0,1,2.981,0,1.85,1.85,0,0,1,.592,1.426,1.829,1.829,0,0,1-.586,1.408,2.34,2.34,0,0,1-2.993,0A1.829,1.829,0,0,1,583.586,6836.877Z" fill="#aed3f2"/>
          <path id="Trazado_146837" data-name="Trazado 146837" d="M603.3,6831.018a9.4,9.4,0,0,1-1.592,5.885,6.364,6.364,0,0,1-9.3.038,9.117,9.117,0,0,1-1.643-5.732V6827.8a9.276,9.276,0,0,1,1.611-5.9,6.376,6.376,0,0,1,9.279-.019,9.1,9.1,0,0,1,1.643,5.726Zm-3.681-3.753a6.783,6.783,0,0,0-.631-3.359,2.131,2.131,0,0,0-1.968-1.052,2.091,2.091,0,0,0-1.916,1,6.346,6.346,0,0,0-.656,3.13v4.513a7.143,7.143,0,0,0,.617,3.372,2.1,2.1,0,0,0,1.981,1.1,2.068,2.068,0,0,0,1.949-1.058,6.964,6.964,0,0,0,.624-3.239Z" fill="#aed3f2"/>
          <path id="Trazado_146838" data-name="Trazado 146838" d="M618.269,6831.018a9.4,9.4,0,0,1-1.592,5.885,6.364,6.364,0,0,1-9.3.038,9.117,9.117,0,0,1-1.643-5.732V6827.8a9.276,9.276,0,0,1,1.611-5.9,6.376,6.376,0,0,1,9.279-.019,9.1,9.1,0,0,1,1.643,5.726Zm-3.681-3.753a6.782,6.782,0,0,0-.631-3.359,2.131,2.131,0,0,0-1.968-1.052,2.094,2.094,0,0,0-1.917,1,6.358,6.358,0,0,0-.655,3.13v4.513a7.131,7.131,0,0,0,.617,3.372,2.1,2.1,0,0,0,1.981,1.1,2.068,2.068,0,0,0,1.949-1.058,6.964,6.964,0,0,0,.624-3.239Z" fill="#aed3f2"/>
          <path id="Trazado_146839" data-name="Trazado 146839" d="M633.235,6831.018a9.394,9.394,0,0,1-1.593,5.885,6.363,6.363,0,0,1-9.3.038,9.124,9.124,0,0,1-1.644-5.732V6827.8a9.276,9.276,0,0,1,1.612-5.9,6.376,6.376,0,0,1,9.279-.019,9.1,9.1,0,0,1,1.643,5.726Zm-3.681-3.753a6.793,6.793,0,0,0-.631-3.359,2.131,2.131,0,0,0-1.968-1.052,2.094,2.094,0,0,0-1.917,1,6.368,6.368,0,0,0-.656,3.13v4.513a7.129,7.129,0,0,0,.618,3.372,2.1,2.1,0,0,0,1.981,1.1,2.067,2.067,0,0,0,1.948-1.058,6.95,6.95,0,0,0,.625-3.239Z" fill="#aed3f2"/>
        </g>
      </g>
      <g id="Grupo_92140" data-name="Grupo 92140">
        <path id="Trazado_146840" data-name="Trazado 146840" d="M491.647,6744.457a14.571,14.571,0,0,1-1.915.48,22.67,22.67,0,0,1-14.279-2.045,8.246,8.246,0,0,1-2.2-1.662,5.24,5.24,0,0,1-1.322-2.637,3.907,3.907,0,0,1,.637-3.067,2.974,2.974,0,0,1,3.126-.994,2.245,2.245,0,0,1,1.373,1.159,2.9,2.9,0,0,1,.234,1.8,6.475,6.475,0,0,1-1.711,3.174,15.527,15.527,0,0,1-6.2,4.239,14.972,14.972,0,0,1-8.013.728,8.952,8.952,0,0,1-3.917-1.723,4.654,4.654,0,0,1-1.906-3.964,4.335,4.335,0,0,1,.853-2.156,3.374,3.374,0,0,1,1.948-1.361,2.423,2.423,0,0,1,2.314.762,3.465,3.465,0,0,1,.83,2.285,4.7,4.7,0,0,1-.57,2.355,5.29,5.29,0,0,1-1.68,1.762,15.187,15.187,0,0,1-4.426,1.776c-3,.854-6.287,1.773-9.625,1.023a9.075,9.075,0,0,1-4.428-2.4,6.351,6.351,0,0,1-1.919-4.73,4.188,4.188,0,0,1,1.339-3,3.073,3.073,0,0,1,3.264-.348,2.523,2.523,0,0,1,1.233,1.2,2.592,2.592,0,0,1,.147,1.709,4.868,4.868,0,0,1-1.932,2.548,25.032,25.032,0,0,1-11.13,4.231,11.285,11.285,0,0,1-5.8-.508,5.838,5.838,0,0,1-3.564-4.368,3.982,3.982,0,0,1,2.948-4.449,2.762,2.762,0,0,1,2.639.947,4.207,4.207,0,0,1,.927,2.571,5.108,5.108,0,0,1-.565,2.606,6.117,6.117,0,0,1-1.757,1.921,13.507,13.507,0,0,1-4.538,1.9c-3.032.806-6.227,1.369-9.053.327a7.782,7.782,0,0,1-3.44-2.5,5.583,5.583,0,0,1-1.219-3.814,5.346,5.346,0,0,1,1.651-3.359,3.64,3.64,0,0,1,3.3-.987l.133.034,0,.133a9.563,9.563,0,0,1-2.425,6.577,10.006,10.006,0,0,1-4.333,2.953,8.181,8.181,0,0,1-3.247.415,9.221,9.221,0,0,1-1.11-.208,8.608,8.608,0,0,0,4.294-.388,9.908,9.908,0,0,0,4.183-2.954,9.3,9.3,0,0,0,2.278-6.377l.137.166a3.267,3.267,0,0,0-2.947.923,4.947,4.947,0,0,0-1.5,3.107c-.19,2.472,1.8,4.91,4.4,5.837,2.658.966,5.746.43,8.753-.388a13.022,13.022,0,0,0,4.349-1.835,5.6,5.6,0,0,0,1.589-1.742,4.56,4.56,0,0,0,.49-2.317,3.646,3.646,0,0,0-.8-2.221,2.173,2.173,0,0,0-2.091-.749,3.4,3.4,0,0,0-2.466,3.792,5.238,5.238,0,0,0,3.208,3.886,10.7,10.7,0,0,0,5.482.454,24.477,24.477,0,0,0,10.823-4.122,4.268,4.268,0,0,0,1.693-2.191,1.835,1.835,0,0,0-1.035-2.177,2.439,2.439,0,0,0-2.567.257,3.558,3.558,0,0,0-1.115,2.548,5.71,5.71,0,0,0,1.735,4.246,8.437,8.437,0,0,0,4.115,2.228c3.115.71,6.31-.152,9.3-1a14.736,14.736,0,0,0,4.249-1.685,4.705,4.705,0,0,0,1.489-1.547,4.085,4.085,0,0,0,.5-2.042,2.863,2.863,0,0,0-.665-1.886,1.812,1.812,0,0,0-1.736-.583,3.467,3.467,0,0,0-2.339,2.988,4.085,4.085,0,0,0,1.682,3.452,8.389,8.389,0,0,0,3.659,1.617,14.439,14.439,0,0,0,7.719-.673,15.031,15.031,0,0,0,6.02-4.069,6.014,6.014,0,0,0,1.611-2.921,2.042,2.042,0,0,0-1.271-2.45,2.538,2.538,0,0,0-2.65.827,3.489,3.489,0,0,0-.574,2.729,5.92,5.92,0,0,0,3.286,4.053,22.507,22.507,0,0,0,8.474,2.43,23.944,23.944,0,0,0,5.61-.2c.635-.106,1.12-.194,1.442-.267A2.814,2.814,0,0,1,491.647,6744.457Z" fill="#d9a171"/>
      </g>
      <g id="Grupo_92141" data-name="Grupo 92141">
        <path id="Trazado_146841" data-name="Trazado 146841" d="M612.636,6742.983a8.319,8.319,0,0,1-1.555.773,14.22,14.22,0,0,1-4.869,1.021,14.943,14.943,0,0,1-7.642-1.786,9.52,9.52,0,0,1-3.721-3.269,4.426,4.426,0,0,1-.667-2.687,3.759,3.759,0,0,1,1.435-2.55,2.442,2.442,0,0,1,1.506-.5,2.308,2.308,0,0,1,1.5.638,3.67,3.67,0,0,1,1,3.048,5.376,5.376,0,0,1-1.552,2.942,12.915,12.915,0,0,1-2.706,2.065,16.108,16.108,0,0,1-6.755,2.161,12.892,12.892,0,0,1-7.387-1.378,7.241,7.241,0,0,1-2.864-2.77,5.377,5.377,0,0,1-.655-1.973,4.766,4.766,0,0,1,.3-2.09,4.853,4.853,0,0,1,2.946-2.973,2.835,2.835,0,0,1,2.223.222,3.447,3.447,0,0,1,1.489,1.664,5.133,5.133,0,0,1-.163,4.331,8.967,8.967,0,0,1-2.945,3.241,16.174,16.174,0,0,1-8.3,2.87,16.529,16.529,0,0,1-8.588-1.846,13,13,0,0,1-3.493-2.6,5.91,5.91,0,0,1-1.733-3.972,3.917,3.917,0,0,1,2.382-3.526,2.407,2.407,0,0,1,2.221.266,3.248,3.248,0,0,1,1.226,1.8,4.664,4.664,0,0,1-.834,4,12.426,12.426,0,0,1-2.847,2.744,17.406,17.406,0,0,1-13.971,2.987,9.424,9.424,0,0,1-5.665-3.393,5.219,5.219,0,0,1-1.05-3.008,5.7,5.7,0,0,1,.745-2.958,3.769,3.769,0,0,1,2.284-1.821,3.238,3.238,0,0,1,2.7.6,4.967,4.967,0,0,1,1.824,4.535,6.106,6.106,0,0,1-2.184,3.7,8.2,8.2,0,0,1-3.231,1.639,15.924,15.924,0,0,1-4.969.311l-1.288-.114a2.282,2.282,0,0,1-.437-.065,2.2,2.2,0,0,1,.442,0l1.29.049a16.678,16.678,0,0,0,4.9-.423,7.989,7.989,0,0,0,3.1-1.631,5.794,5.794,0,0,0,2.026-3.516,4.6,4.6,0,0,0-1.712-4.156,2.82,2.82,0,0,0-2.356-.511,3.323,3.323,0,0,0-1.993,1.629,4.971,4.971,0,0,0,.314,5.447,8.939,8.939,0,0,0,5.38,3.163,16.881,16.881,0,0,0,13.5-2.946,11.852,11.852,0,0,0,2.7-2.61,4.049,4.049,0,0,0,.74-3.486,2.639,2.639,0,0,0-.984-1.463,1.777,1.777,0,0,0-1.658-.192,3.312,3.312,0,0,0-1.965,2.95,5.292,5.292,0,0,0,1.572,3.532,12.346,12.346,0,0,0,3.323,2.466,15.9,15.9,0,0,0,8.251,1.77,15.54,15.54,0,0,0,7.965-2.749,8.347,8.347,0,0,0,2.745-3,4.5,4.5,0,0,0,.159-3.793,2.468,2.468,0,0,0-2.958-1.545,4.252,4.252,0,0,0-2.548,2.592,4.157,4.157,0,0,0-.272,1.814,4.784,4.784,0,0,0,.579,1.74,6.632,6.632,0,0,0,2.626,2.545,12.337,12.337,0,0,0,7.046,1.331,15.6,15.6,0,0,0,6.533-2.058,12.43,12.43,0,0,0,2.605-1.962,4.892,4.892,0,0,0,1.43-2.647,3.2,3.2,0,0,0-.836-2.638,1.825,1.825,0,0,0-2.41-.119,3.327,3.327,0,0,0-1.274,2.233,4.032,4.032,0,0,0,.59,2.429,9.185,9.185,0,0,0,3.542,3.161,14.923,14.923,0,0,0,12.291.959C612.1,6743.253,612.616,6742.942,612.636,6742.983Z" fill="#d9a171"/>
      </g>
      <g id="Grupo_92142" data-name="Grupo 92142">
        <path id="Trazado_146842" data-name="Trazado 146842" d="M497.667,6797.6a3.13,3.13,0,0,1-.474.24l-1.42.644c-1.253.554-3.106,1.365-5.546,2.282a45.009,45.009,0,0,1-9.176,2.442,35.228,35.228,0,0,1-5.933.36,20.107,20.107,0,0,1-6.6-1,7.856,7.856,0,0,1-5.016-5.225,5.1,5.1,0,0,1,.486-3.943,4.458,4.458,0,0,1,3.419-2.3,3.782,3.782,0,0,1,3.549,2.292,5.824,5.824,0,0,1,.313,4.4,8.618,8.618,0,0,1-2.59,3.717,16.891,16.891,0,0,1-3.884,2.5,13.31,13.31,0,0,1-9.39,1.1,9.513,9.513,0,0,1-6.523-7.189,7.85,7.85,0,0,1-.018-2.618,5.037,5.037,0,0,1,1.064-2.45,3.327,3.327,0,0,1,2.382-1.374,2.4,2.4,0,0,1,2.285,1.6,6.4,6.4,0,0,1-.913,5.256,15.881,15.881,0,0,1-3.466,4.107,14.628,14.628,0,0,1-19.382-.3,8.275,8.275,0,0,1-2.511-4.424,5.064,5.064,0,0,1,.166-2.576,5.187,5.187,0,0,1,1.449-2.107,4.3,4.3,0,0,1,2.3-1.084,3.051,3.051,0,0,1,2.436.761,4.708,4.708,0,0,1,1.106,4.634,8.667,8.667,0,0,1-2.565,3.886,20.857,20.857,0,0,1-11.673,5.431,18.165,18.165,0,0,1-7.937-.712,8.868,8.868,0,0,1-3.265-1.956,6.12,6.12,0,0,1-1.769-3.2,5.561,5.561,0,0,1,.322-3.472,3.424,3.424,0,0,1,2.6-2.024,3.889,3.889,0,0,1,3.017.828,2.859,2.859,0,0,1,.959,2.754,4.328,4.328,0,0,1-1.428,2.336,9.123,9.123,0,0,1-2.094,1.389,24.031,24.031,0,0,1-4.062,1.552,23.092,23.092,0,0,1-5.934.882,14.87,14.87,0,0,1-2.09-.089,3.3,3.3,0,0,1,.531-.011c.351,0,.872,0,1.555-.03a24.425,24.425,0,0,0,9.863-2.579,8.824,8.824,0,0,0,2.005-1.36,3.991,3.991,0,0,0,1.3-2.155,2.481,2.481,0,0,0-.854-2.4,3.5,3.5,0,0,0-2.706-.717,3,3,0,0,0-2.267,1.8,5.126,5.126,0,0,0-.268,3.193c.419,2.256,2.412,4,4.754,4.778a17.669,17.669,0,0,0,7.706.65,20.321,20.321,0,0,0,11.338-5.321,8.1,8.1,0,0,0,2.392-3.621,4.123,4.123,0,0,0-.939-4.029,2.923,2.923,0,0,0-3.928.336,4.593,4.593,0,0,0-1.27,1.852,4.44,4.44,0,0,0-.135,2.263,7.66,7.66,0,0,0,2.336,4.078,14,14,0,0,0,18.527.258,15.28,15.28,0,0,0,3.326-3.939,7.312,7.312,0,0,0,.948-2.318,4.35,4.35,0,0,0-.077-2.382,1.755,1.755,0,0,0-1.669-1.189,2.717,2.717,0,0,0-1.9,1.135,5.73,5.73,0,0,0-.921,4.555,8.9,8.9,0,0,0,6.077,6.714,12.735,12.735,0,0,0,8.961-1.044c2.686-1.292,5.277-3.17,6.191-5.863a5.276,5.276,0,0,0-.269-3.976,3.238,3.238,0,0,0-3.024-2,3.947,3.947,0,0,0-3.006,2.032,4.591,4.591,0,0,0-.449,3.56,7.391,7.391,0,0,0,4.7,4.922,19.746,19.746,0,0,0,6.451,1.013,35.264,35.264,0,0,0,5.873-.306,46,46,0,0,0,9.141-2.321c2.445-.878,4.311-1.652,5.58-2.166l1.445-.585A3.324,3.324,0,0,1,497.667,6797.6Z" fill="#d9a171"/>
      </g>
    </g>
    <g id="freepik--Character--inject-2">
      <path id="Trazado_146843" data-name="Trazado 146843" d="M559.1,7119.958l74.22-3.05,40.53,49.26-100.09,8.72Z" fill="#ffbf9d"/>
      <path id="Trazado_146844" data-name="Trazado 146844" d="M574.09,7153.878l80.23-5.59,5.29,6.66-83.29,6.33Z" fill="none" stroke="#263238" stroke-linecap="round" stroke-linejoin="round" stroke-width="0.5" opacity="0"/>
      <path id="Trazado_146845" data-name="Trazado 146845" d="M571.68,7145.878l76.89-4.84,2.45,3.09-78.31,5.16Z" fill="none" stroke="#263238" stroke-linecap="round" stroke-linejoin="round" stroke-width="0.5" opacity="0"/>
      <path id="Trazado_146846" data-name="Trazado 146846" d="M569.73,7139.408l74.16-4.27,2.27,2.86-75.49,4.54Z" fill="none" stroke="#263238" stroke-linecap="round" stroke-linejoin="round" stroke-width="0.5" opacity="0"/>
      <path id="Trazado_146847" data-name="Trazado 146847" d="M564.72,7122.778l67.04-2.92,10.04,12.65-72.94,4.01Z" fill="none" stroke="#263238" stroke-linecap="round" stroke-linejoin="round" stroke-width="0.5" opacity="0"/>
      <path id="Trazado_146848" data-name="Trazado 146848" d="M568.08,7133.928l71.83-3.8,1.89,2.38-72.94,4.01Z" fill="#d1d1d1" stroke="#263238" stroke-linecap="round" stroke-linejoin="round" stroke-width="0.5"/>
      <path id="Trazado_146849" data-name="Trazado 146849" d="M617.49,7150.718l-2.39-4.23,35.92-2.36,3.3,4.16" fill="none" stroke="#263238" stroke-linecap="round" stroke-linejoin="round" stroke-width="0.5" opacity="0"/>
      <path id="Trazado_146850" data-name="Trazado 146850" d="M574.86,7156.428l81.29-5.84,1.54,1.93-82.18,6.06Z" fill="#d1d1d1" stroke="#263238" stroke-linecap="round" stroke-linejoin="round" stroke-width="0.5"/>
      <line id="Línea_2004" data-name="Línea 2004" x1="1.13" y1="2.41" transform="translate(604.09 7156.458)" fill="none" stroke="#263238" stroke-linecap="round" stroke-linejoin="round" stroke-width="0.5" opacity="0"/>
      <path id="Trazado_146851" data-name="Trazado 146851" d="M593.42,7157.868l5.83-.43.62,1.41-5.87.45Z" fill="#d1d1d1" stroke="#263238" stroke-linecap="round" stroke-linejoin="round" stroke-width="0.5"/>
      <line id="Línea_2005" data-name="Línea 2005" x1="1.31" y1="2.38" transform="translate(614.87 7151.018)" fill="none" stroke="#263238" stroke-linecap="round" stroke-linejoin="round" stroke-width="0.5" opacity="0"/>
      <line id="Línea_2006" data-name="Línea 2006" x1="1.08" y1="2.44" transform="translate(597.85 7152.198)" fill="none" stroke="#263238" stroke-linecap="round" stroke-linejoin="round" stroke-width="0.5" opacity="0"/>
      <line id="Línea_2007" data-name="Línea 2007" x2="2.97" y2="4.21" transform="translate(637.39 7145.018)" fill="none" stroke="#263238" stroke-linecap="round" stroke-linejoin="round" stroke-width="0.5" opacity="0"/>
      <line id="Línea_2008" data-name="Línea 2008" x2="2.76" y2="4.26" transform="translate(628.59 7145.598)" fill="none" stroke="#263238" stroke-linecap="round" stroke-linejoin="round" stroke-width="0.5" opacity="0"/>
      <line id="Línea_2009" data-name="Línea 2009" x1="1.85" y1="3.13" transform="translate(616.98 7143.088)" fill="none" stroke="#263238" stroke-linecap="round" stroke-linejoin="round" stroke-width="0.5" opacity="0"/>
      <line id="Línea_2010" data-name="Línea 2010" x1="4.48" y1="9.53" transform="translate(595.6 7137.968)" fill="none" stroke="#263238" stroke-linecap="round" stroke-linejoin="round" stroke-width="0.5" opacity="0"/>
      <path id="Trazado_146852" data-name="Trazado 146852" d="M648.57,7141.038l-2.41-3.04-49.19,2.96" fill="none" stroke="#263238" stroke-linecap="round" stroke-linejoin="round" stroke-width="0.5" opacity="0"/>
      <line id="Línea_2011" data-name="Línea 2011" x1="2.02" y1="3" transform="translate(628.18 7139.178)" fill="none" stroke="#263238" stroke-linecap="round" stroke-linejoin="round" stroke-width="0.5" opacity="0"/>
      <line id="Línea_2012" data-name="Línea 2012" x1="70.78" y2="3.61" transform="translate(567.34 7127.988)" fill="none" stroke="#263238" stroke-linecap="round" stroke-linejoin="round" stroke-width="0.5" opacity="0"/>
      <line id="Línea_2013" data-name="Línea 2013" x1="69.84" y2="3.43" transform="translate(566.67 7125.968)" fill="none" stroke="#263238" stroke-linecap="round" stroke-linejoin="round" stroke-width="0.5" opacity="0"/>
      <line id="Línea_2014" data-name="Línea 2014" x1="68.93" y2="3.26" transform="translate(566.03 7124.008)" fill="none" stroke="#263238" stroke-linecap="round" stroke-linejoin="round" stroke-width="0.5" opacity="0"/>
      <path id="Trazado_146853" data-name="Trazado 146853" d="M624.21,7127.108l2.27-.11.69.96-2.29.11Z" fill="#d1d1d1" stroke="#263238" stroke-linecap="round" stroke-linejoin="round" stroke-width="0.5"/>
      <path id="Trazado_146854" data-name="Trazado 146854" d="M610.95,7127.768l2.33-.12.61.98-2.34.12Z" fill="#d1d1d1" stroke="#263238" stroke-linecap="round" stroke-linejoin="round" stroke-width="0.5"/>
      <path id="Trazado_146855" data-name="Trazado 146855" d="M618.83,7125.368l2.27-.11.65.94-2.28.11Z" fill="#d1d1d1" stroke="#263238" stroke-linecap="round" stroke-linejoin="round" stroke-width="0.5"/>
      <path id="Trazado_146856" data-name="Trazado 146856" d="M606.24,7125.968l2.32-.11.57.96-2.33.11Z" fill="#d1d1d1" stroke="#263238" stroke-linecap="round" stroke-linejoin="round" stroke-width="0.5"/>
      <path id="Trazado_146857" data-name="Trazado 146857" d="M593.94,7126.558l2.37-.11.49.97-2.38.11Z" fill="#d1d1d1" stroke="#263238" stroke-linecap="round" stroke-linejoin="round" stroke-width="0.5"/>
      <path id="Trazado_146858" data-name="Trazado 146858" d="M581.19,7127.168l2.41-.11.42.98-2.43.12Z" fill="#d1d1d1" stroke="#263238" stroke-linecap="round" stroke-linejoin="round" stroke-width="0.5"/>
      <line id="Línea_2015" data-name="Línea 2015" x1="1.39" y1="1.99" transform="translate(621.73 7124.618)" fill="none" stroke="#263238" stroke-linecap="round" stroke-linejoin="round" stroke-width="0.5" opacity="0"/>
      <line id="Línea_2016" data-name="Línea 2016" x1="1.24" y1="2.02" transform="translate(609.53 7125.188)" fill="none" stroke="#263238" stroke-linecap="round" stroke-linejoin="round" stroke-width="0.5" opacity="0"/>
      <line id="Línea_2017" data-name="Línea 2017" x1="1.07" y1="2.05" transform="translate(597.08 7125.778)" fill="none" stroke="#263238" stroke-linecap="round" stroke-linejoin="round" stroke-width="0.5" opacity="0"/>
      <line id="Línea_2018" data-name="Línea 2018" x1="0.9" y1="2.09" transform="translate(584.35 7126.378)" fill="none" stroke="#263238" stroke-linecap="round" stroke-linejoin="round" stroke-width="0.5" opacity="0"/>
      <line id="Línea_2019" data-name="Línea 2019" x1="68.02" y2="3.09" transform="translate(565.4 7122.068)" fill="none" stroke="#263238" stroke-linecap="round" stroke-linejoin="round" stroke-width="0.5" opacity="0"/>
      <path id="Trazado_146859" data-name="Trazado 146859" d="M625.66,7123l2.21-.1.67.9-2.21.11Z" fill="#d1d1d1" stroke="#263238" stroke-linecap="round" stroke-linejoin="round" stroke-width="0.5"/>
      <path id="Trazado_146860" data-name="Trazado 146860" d="M605.06,7123.948l2.28-.11.56.93-2.3.11Z" fill="#d1d1d1" stroke="#263238" stroke-linecap="round" stroke-linejoin="round" stroke-width="0.5"/>
      <path id="Trazado_146861" data-name="Trazado 146861" d="M592.92,7124.5l2.33-.1.49.94-2.35.11Z" fill="#d1d1d1" stroke="#263238" stroke-linecap="round" stroke-linejoin="round" stroke-width="0.5"/>
      <path id="Trazado_146862" data-name="Trazado 146862" d="M576.91,7125.238l2.4-.11.38.96-2.41.11Z" fill="#d1d1d1" stroke="#263238" stroke-linecap="round" stroke-linejoin="round" stroke-width="0.5"/>
      <line id="Línea_2020" data-name="Línea 2020" x1="1.43" y1="1.9" transform="translate(628.47 7122.288)" fill="none" stroke="#263238" stroke-linecap="round" stroke-linejoin="round" stroke-width="0.5" opacity="0"/>
      <line id="Línea_2021" data-name="Línea 2021" x1="1.18" y1="1.95" transform="translate(608.33 7123.208)" fill="none" stroke="#263238" stroke-linecap="round" stroke-linejoin="round" stroke-width="0.5" opacity="0"/>
      <line id="Línea_2022" data-name="Línea 2022" x1="1.03" y1="1.97" transform="translate(596.03 7123.768)" fill="none" stroke="#263238" stroke-linecap="round" stroke-linejoin="round" stroke-width="0.5" opacity="0"/>
      <line id="Línea_2023" data-name="Línea 2023" x1="0.82" y1="2.01" transform="translate(580.08 7124.498)" fill="none" stroke="#263238" stroke-linecap="round" stroke-linejoin="round" stroke-width="0.5" opacity="0"/>
      <line id="Línea_2024" data-name="Línea 2024" x1="32.97" y2="2.54" transform="translate(627.27 7156.128)" fill="none" stroke="#263238" stroke-miterlimit="10" stroke-width="0.5" opacity="0"/>
      <line id="Línea_2025" data-name="Línea 2025" x1="20.68" y2="1.59" transform="translate(599.36 7159.228)" fill="none" stroke="#263238" stroke-miterlimit="10" stroke-width="0.5" opacity="0"/>
      <line id="Línea_2026" data-name="Línea 2026" x1="17.04" y2="1.31" transform="translate(576.57 7161.268)" fill="none" stroke="#263238" stroke-miterlimit="10" stroke-width="0.5" opacity="0"/>
      <path id="Trazado_146863" data-name="Trazado 146863" d="M628.16,6962.738a136.245,136.245,0,0,0-20.67,8c-11,5.34-32.66,13.34-43,17.34s-16.66,14.33-18.66,19.33-10.67,26.33-10.67,26.33-18.33,28.67-23,35.67-11,16.67-11.33,25.67,4.66,14,16.33,14,16.67-4,22.33-10,24-35.34,26.67-38.67,10-16,10-16,3.67,33,3.67,43.33v24.34h105s5-36.67,6-39.67,8.66-24.67,8.66-24.67,27.67,44.67,32.29,50.67,17.81,18.64,30.73,13.58,10.27-18.92,3.27-35.58-19.29-45-19.29-46.35-5-21-25.33-36.34-40.33-19-45-21.33S656.49,6962.738,628.16,6962.738Z" fill="#d9a171" stroke="#263238" stroke-linecap="round" stroke-linejoin="round" stroke-width="1"/>
      <path id="Trazado_146864" data-name="Trazado 146864" d="M562.83,7022.738l13,20.34s-10.67-11-17.34-12.67" fill="none" stroke="#263238" stroke-linecap="round" stroke-linejoin="round" stroke-width="1" opacity="0"/>
      <path id="Trazado_146865" data-name="Trazado 146865" d="M575.83,7043.078l-7.67-2.67s-7-4-12.67-2.33" fill="none" stroke="#263238" stroke-linecap="round" stroke-linejoin="round" stroke-width="1" opacity="0"/>
      <path id="Trazado_146866" data-name="Trazado 146866" d="M615.7,6994.408c.75,5.49,2.48,12.31,6.46,17" fill="none" stroke="#263238" stroke-linecap="round" stroke-linejoin="round" stroke-width="1" opacity="0"/>
      <path id="Trazado_146867" data-name="Trazado 146867" d="M615.16,6985.408s-.07,1.91.11,4.79" fill="none" stroke="#263238" stroke-linecap="round" stroke-linejoin="round" stroke-width="1" opacity="0"/>
      <path id="Trazado_146868" data-name="Trazado 146868" d="M618.81,7015.408a29.978,29.978,0,0,0,3,2.68" fill="none" stroke="#263238" stroke-linecap="round" stroke-linejoin="round" stroke-width="1" opacity="0"/>
      <path id="Trazado_146869" data-name="Trazado 146869" d="M609.49,7000.408a44.285,44.285,0,0,0,7.93,13.5" fill="none" stroke="#263238" stroke-linecap="round" stroke-linejoin="round" stroke-width="1" opacity="0"/>
      <path id="Trazado_146870" data-name="Trazado 146870" d="M675.33,7074.888c-2.27,3.69-4.42,6.67-6.17,8.19" fill="none" stroke="#263238" stroke-linecap="round" stroke-linejoin="round" stroke-width="1" opacity="0"/>
      <path id="Trazado_146871" data-name="Trazado 146871" d="M692.16,7041.738s-7.75,17.52-15,30" fill="none" stroke="#263238" stroke-linecap="round" stroke-linejoin="round" stroke-width="1" opacity="0"/>
      <path id="Trazado_146872" data-name="Trazado 146872" d="M658.08,7085.858c-1,1.21-1.77,2.22-2.25,2.88" fill="none" stroke="#263238" stroke-linecap="round" stroke-linejoin="round" stroke-width="1" opacity="0"/>
      <path id="Trazado_146873" data-name="Trazado 146873" d="M670.83,7070.738s-6.14,7.14-10.67,12.67" fill="none" stroke="#263238" stroke-linecap="round" stroke-linejoin="round" stroke-width="1" opacity="0"/>
      <path id="Trazado_146874" data-name="Trazado 146874" d="M699.49,7047.738s14.67-23.33,15.34-25.33" fill="none" stroke="#263238" stroke-linecap="round" stroke-linejoin="round" stroke-width="1" opacity="0"/>
      <path id="Trazado_146875" data-name="Trazado 146875" d="M710.71,7038.748c4.36-3.53,10.91-8,17.45-9.34" fill="none" stroke="#263238" stroke-linecap="round" stroke-linejoin="round" stroke-width="1" opacity="0"/>
      <path id="Trazado_146876" data-name="Trazado 146876" d="M705.49,7043.408s1.19-1.23,3.19-3" fill="none" stroke="#263238" stroke-linecap="round" stroke-linejoin="round" stroke-width="1" opacity="0"/>
      <path id="Trazado_146877" data-name="Trazado 146877" d="M723.83,7025.738a81.065,81.065,0,0,0-12,7.67" fill="none" stroke="#263238" stroke-linecap="round" stroke-linejoin="round" stroke-width="1" opacity="0"/>
      <path id="Trazado_146878" data-name="Trazado 146878" d="M729.83,7075.078a18.841,18.841,0,0,1,18,1" fill="none" stroke="#263238" stroke-linecap="round" stroke-linejoin="round" stroke-width="1" opacity="0"/>
      <path id="Trazado_146879" data-name="Trazado 146879" d="M732.83,7070.738s11.66-2.33,20.33,3" fill="none" stroke="#263238" stroke-linecap="round" stroke-linejoin="round" stroke-width="1" opacity="0"/>
      <path id="Trazado_146880" data-name="Trazado 146880" d="M514.16,7074.738a18.633,18.633,0,0,1,15-4.66" fill="none" stroke="#263238" stroke-linecap="round" stroke-linejoin="round" stroke-width="1" opacity="0"/>
      <path id="Trazado_146881" data-name="Trazado 146881" d="M534.8,7070.858a28.464,28.464,0,0,1,2.36,1.88" fill="none" stroke="#263238" stroke-linecap="round" stroke-linejoin="round" stroke-width="1" opacity="0"/>
      <path id="Trazado_146882" data-name="Trazado 146882" d="M525.83,7067.078a16.241,16.241,0,0,1,5.47,1.7" fill="none" stroke="#263238" stroke-linecap="round" stroke-linejoin="round" stroke-width="1" opacity="0"/>
      <path id="Trazado_146883" data-name="Trazado 146883" d="M625.83,6971.408s-3,12.67-2,22,11.33,23.67,20,27,24.66-6.33,30.33-12,6-23.67,6-23.67-8.64-18.66-27-24S625.83,6971.408,625.83,6971.408Z" fill="#ffbf9d" stroke="#263238" stroke-linecap="round" stroke-linejoin="round" stroke-width="1"/>
      <path id="Trazado_146884" data-name="Trazado 146884" d="M694.76,6968.8s1.74,5.21-1.61,11.8-9.82,12.16-11.56,11.59,5.41-24.42,5.41-24.42S691.75,6965.1,694.76,6968.8Z" fill="#ffbf9d" stroke="#263238" stroke-linecap="round" stroke-linejoin="round" stroke-width="1"/>
      <path id="Trazado_146885" data-name="Trazado 146885" d="M621.22,6949.758s-3.29,4.39-2.2,11.71,5.49,14.63,7.32,14.63,2.56-24.87,2.56-24.87S625.24,6947.2,621.22,6949.758Z" fill="#ffbf9d" stroke="#263238" stroke-linecap="round" stroke-linejoin="round" stroke-width="1"/>
      <path id="Trazado_146886" data-name="Trazado 146886" d="M626.71,6959.268s-2.56,22.32.36,31.47,8.78,23.41,17.93,27.07,30-12.07,33.29-18.29,12.44-32.56,12.44-32.56a23.918,23.918,0,0,0,3.3-22.69c-4.76-13.17-30.37-21.22-41-20.85s-21.22,9.15-21.95,16.1S626.71,6959.268,626.71,6959.268Z" fill="#ffbf9d" stroke="#263238" stroke-linecap="round" stroke-linejoin="round" stroke-width="1"/>
      <path id="Trazado_146887" data-name="Trazado 146887" d="M650.49,6972.808s-8.05-9.88-15.37-6.58" fill="none" stroke="#263238" stroke-linecap="round" stroke-linejoin="round" stroke-width="2" opacity="0"/>
      <path id="Trazado_146888" data-name="Trazado 146888" d="M663.29,6977.2s11-2.56,16.1,2.2" fill="none" stroke="#263238" stroke-linecap="round" stroke-linejoin="round" stroke-width="2" opacity="0"/>
      <path id="Trazado_146889" data-name="Trazado 146889" d="M636.22,6975.008s2.35,7,11.89,6.19" fill="none" stroke="#263238" stroke-linecap="round" stroke-linejoin="round" stroke-width="1" opacity="0"/>
      <path id="Trazado_146890" data-name="Trazado 146890" d="M662.56,6984.878s2.2,4.76,12.44,2.93" fill="none" stroke="#263238" stroke-linecap="round" stroke-linejoin="round" stroke-width="1" opacity="0"/>
      <path id="Trazado_146891" data-name="Trazado 146891" d="M644.53,6991.538a6.4,6.4,0,0,0,.6,4.37c1.19,1.79,4.17,4.37,6.36,4.37s6.76-.79,7.95-2a14.256,14.256,0,0,0,2-2.59" fill="none" stroke="#263238" stroke-linecap="round" stroke-linejoin="round" stroke-width="1" opacity="0"/>
      <path id="Trazado_146892" data-name="Trazado 146892" d="M639.56,6998.1s5,5.76,9.15,7.15,11.92-1,14.11-1.79" fill="none" stroke="#263238" stroke-linecap="round" stroke-linejoin="round" stroke-width="1" opacity="0"/>
      <path id="Trazado_146893" data-name="Trazado 146893" d="M712.02,6934.088c-.34-2.4,1.37-5.83,1.71-7.88s-2.4-5.83-4.79-8.91a13.778,13.778,0,0,1-2.75-8.56c0-2.06-2.39-3.77-4.45-5.14a38.261,38.261,0,0,1-6.85-5.83c-1.37-1.71-7.19-1.37-8.22-1.37s-5.48-3.76-8.22-5.13-8.22,1-8.22,1-6.51-3.08-7.88-3.08-7.2,2.4-7.2,2.4a30.506,30.506,0,0,1-6,1.87,6.429,6.429,0,0,0-1.14-.19c-.77-1-7.62,3.11-7.62,3.11l-6.16,1-2.29,3.71c-2.19.24-7.32,1.06-7.68,3.57-.46,3.2,0,4.57-1.37,6.39s-6.39,1.37-5,5.48,4.56,7.31.45,9.6-6.39,6.39-4.11,8.67,4.11,5.48,3.66,7.31-.92,5.94.91,6.85a32.53,32.53,0,0,1,4.57,3.2l2.28,5,1.37,3.2s2.28-7.31,4.11-8.22,0,3.2,3.66,3.2,7.3-17.36,10-17.82,11,15.08,19.19,15.08,18.31-7.19,22.43-7.19.91,17.35.91,21,.91,7.3.91,8.68,4.57-6.4,7.77-8.23c.88-.5,1.94-1.11,3.05-1.81a.552.552,0,0,1-.05.25s11.31-7.2,12.68-9.59.34-4.46.34-6.51,1.37-3.77,1.71-6.85S712.36,6936.478,712.02,6934.088Z" fill="#344154" stroke="#263238" stroke-linecap="round" stroke-linejoin="round" stroke-width="1"/>
      <line id="Línea_2027" data-name="Línea 2027" x1="440.59" transform="translate(355.16 7111.998)" fill="none" stroke="#263238" stroke-linecap="round" stroke-linejoin="round" stroke-width="1" opacity="0"/>
      <path id="Trazado_146894" data-name="Trazado 146894" d="M747.85,7082.848s-12.49-4.59-21.47-1-30.06,12.12-44.41,14.81a187.165,187.165,0,0,1-40.81,2.69c-12.12-.45-18.85,1.35-21.54,3.59s-12.56,14.8-11.67,16.15,1.89,1.86,6.29.9c1.75-.39,6.73-5.83,6.73-5.83l9-4s-9.42,10.32-8.08,11.66,3.59-.45,5.39-1.79,5.38-4.49,5.38-4.49l8.08-3.59s-8.58,5.79-8.58,8.46,2.09,1.1,5.65-.32a40.918,40.918,0,0,0,4.81-3.55l6.75-1.9A29.665,29.665,0,0,0,663.5,7118a21.627,21.627,0,0,0,14-5.22s31.41,4.49,47.11,3.14,35.44.45,43.52-5.38-2.24-21.09-3.14-22.44" fill="#ffbf9d" stroke="#263238" stroke-linecap="round" stroke-linejoin="round" stroke-width="1"/>
      <path id="Trazado_146895" data-name="Trazado 146895" d="M610.03,7120.328s1.67-4.81,3.34-6.9,9.4-7.1,12.12-8.56a30.645,30.645,0,0,1,3.34-1.67" fill="none" stroke="#263238" stroke-linecap="round" stroke-linejoin="round" stroke-width="1" opacity="0"/>
      <line id="Línea_2028" data-name="Línea 2028" y1="5.25" x2="7.89" transform="translate(629.92 7104.868)" fill="none" stroke="#263238" stroke-linecap="round" stroke-linejoin="round" stroke-width="1" opacity="0"/>
      <line id="Línea_2029" data-name="Línea 2029" y1="3.7" x2="7.36" transform="translate(640.69 7108.208)" fill="none" stroke="#263238" stroke-linecap="round" stroke-linejoin="round" stroke-width="1" opacity="0"/>
      <path id="Trazado_146896" data-name="Trazado 146896" d="M747.85,7082.848c-6.67-1.59-16.09-3.15-21.47-1-8,3.19-25.48,10.26-39.35,13.69a12.373,12.373,0,0,1,3.21,7.87,30.593,30.593,0,0,1-1.48,10.8c10.57,1.19,26.17,2.57,35.83,1.74,15.7-1.35,35.44.45,43.52-5.38s-2.24-21.09-3.14-22.44" fill="#d9a171" stroke="#263238" stroke-linecap="round" stroke-linejoin="round" stroke-width="1"/>
      <path id="Trazado_146897" data-name="Trazado 146897" d="M510.96,7081.5c.84-2.27,7-7.7,15.29-6.25s17.7,10.66,23.08,17.74,9.67,9,9.67,9l-6.34,19.37s-3.9-.94-11.22-2.8-23.7-4.28-31.23-6.62-10.74-10.44-9.1-18a45.125,45.125,0,0,1,4.25-12.06" fill="#d9a171" stroke="#263238" stroke-linecap="round" stroke-linejoin="round" stroke-width="1"/>
      <path id="Trazado_146898" data-name="Trazado 146898" d="M549.33,7092.988c-.57-.74-1.18-1.5-1.82-2.28-4.69,1.87-10.64,5.32-13.79,11.4s-3.17,11.1-2.56,14.3c4,.76,7.69,1.48,10.26,2.13,7.32,1.86,11.22,2.8,11.22,2.8l6.34-19.37S554.7,7100.078,549.33,7092.988Z" fill="#ffbf9d" stroke="#263238" stroke-linecap="round" stroke-linejoin="round" stroke-width="1"/>
      <path id="Trazado_146899" data-name="Trazado 146899" d="M546.74,7111.908c-.42,3-1.34,6.43,3,8.33s8.66,6.59,11.39,7.69a41.088,41.088,0,0,0,10.27,2.48c2.78.18,6.21,1.09,11.66-.43s5.3-2.92,5.3-2.92,3.4.13,5.08-.7.5-2.91-1.54-3.73-4.54-1.92-4.54-1.92,3.1-2.86,2.32-3.57l-.77-.71s3.58.42,3.89-.72-1.94-6.18-2.84-10.42-2.79-3.67-6.24-4.35-8.15.19-14.35-1.13-15.18.9-18.73,1.84" fill="#ffbf9d" stroke="#263238" stroke-linecap="round" stroke-linejoin="round" stroke-width="1"/>
      <path id="Trazado_146900" data-name="Trazado 146900" d="M570.95,7083.058l5.66,20,4.52,2.15-6.7-23.16a1.8,1.8,0,0,0-2.44-1.16h0A1.81,1.81,0,0,0,570.95,7083.058Z" fill="#344154"/>
      <path id="Trazado_146901" data-name="Trazado 146901" d="M574.16,7101.528s9.9,5.28,10.58,5.55c.47.19,4.88,7.56,6.28,11.1.65,1.62-.08,2.55-1.6,3.39l-2.05-.83-12.31-7.75-4.51-2.15" fill="#ffbf9d" stroke="#263238" stroke-linecap="round" stroke-linejoin="round" stroke-width="1"/>
      <path id="Trazado_146902" data-name="Trazado 146902" d="M567.25,7118.778s9.64,5.73,11.67,6.78,9.44,1.53,9.44,1.53" fill="none" stroke="#263238" stroke-linecap="round" stroke-linejoin="round" stroke-width="1" opacity="0"/>
      <path id="Trazado_146903" data-name="Trazado 146903" d="M563.64,7124.408s8.09,4.46,9.68,5,5,1.48,5,1.48" fill="none" stroke="#263238" stroke-linecap="round" stroke-linejoin="round" stroke-width="1" opacity="0"/>
    </g>
  </g>
</svg>
