<svg xmlns="http://www.w3.org/2000/svg" width="570.5" height="466.5" viewBox="0 0 570.5 466.5">
  <g id="Grupo_93040" data-name="Grupo 93040" transform="translate(-248.5 -7008.5)">
    <g id="Grupo_89166" data-name="Grupo 89166" transform="translate(25 4157)">
      <rect id="Rectángulo_31816" data-name="Rectángulo 31816" width="557" height="131" transform="translate(237 2859)" fill="#6595bf"/>
      <g id="Grupo_89142" data-name="Grupo 89142" transform="translate(224 2852)">
        <rect id="Rectángulo_31778" data-name="Rectángulo 31778" width="565.199" height="132.775" transform="translate(0 0)" fill="#fff" stroke="#12263f" stroke-miterlimit="10" stroke-width="1"/>
      </g>
      <g id="Grupo_89143" data-name="Grupo 89143" transform="translate(-1 -5)">
        <path id="Trazado_148312" data-name="Trazado 148312" d="M1.274-16.652a4.047,4.047,0,0,1,1.246-3.087,4.672,4.672,0,0,1,3.342-1.175,4.678,4.678,0,0,1,3.356,1.168,4.154,4.154,0,0,1,1.232,3.165v1.02a4.025,4.025,0,0,1-1.232,3.073,4.655,4.655,0,0,1-3.328,1.161,4.781,4.781,0,0,1-3.349-1.154,4.066,4.066,0,0,1-1.267-3.165Zm3.073,1.087a1.712,1.712,0,0,0,.411,1.189,1.445,1.445,0,0,0,1.133.457q1.487,0,1.487-1.885v-.844a1.8,1.8,0,0,0-.4-1.2,1.381,1.381,0,0,0-1.119-.471,1.411,1.411,0,0,0-1.1.457,1.8,1.8,0,0,0-.411,1.245Zm6.726,10.51a4.007,4.007,0,0,1,1.253-3.087A4.712,4.712,0,0,1,15.661-9.3a4.762,4.762,0,0,1,3.356,1.147,4.132,4.132,0,0,1,1.246,3.2v.991A4.042,4.042,0,0,1,19.031-.878,4.675,4.675,0,0,1,15.689.283,4.781,4.781,0,0,1,12.341-.871a4.066,4.066,0,0,1-1.267-3.165Zm3.059,1.087a1.674,1.674,0,0,0,.453,1.161,1.436,1.436,0,0,0,1.1.5A1.3,1.3,0,0,0,17.176-3.6l.014-1.449a1.732,1.732,0,0,0-.411-1.2,1.428,1.428,0,0,0-1.119-.457,1.439,1.439,0,0,0-1.09.429,1.71,1.71,0,0,0-.439,1.161ZM6.8-1.543,4.574-2.662,14.642-18.776l2.223,1.119ZM42.013-3.852H35.2L34.013,0H28.7l7.562-20.617h4.673L48.555,0H43.217ZM36.392-7.689h4.432L38.6-14.84ZM56.315-3.4a2.122,2.122,0,0,0,1.558-.545,2,2,0,0,0,.538-1.522h4.475A5.3,5.3,0,0,1,61.08-1.331,6.716,6.716,0,0,1,56.428.283a6.8,6.8,0,0,1-5.268-2.1,8.257,8.257,0,0,1-1.926-5.806v-.2a9.332,9.332,0,0,1,.857-4.1,6.238,6.238,0,0,1,2.471-2.733,7.368,7.368,0,0,1,3.823-.956,6.631,6.631,0,0,1,4.744,1.657,5.876,5.876,0,0,1,1.756,4.489H58.411a2.619,2.619,0,0,0-.581-1.827,2,2,0,0,0-1.558-.637q-1.855,0-2.167,2.365a16.686,16.686,0,0,0-.1,2.067,6.554,6.554,0,0,0,.552,3.2A1.912,1.912,0,0,0,56.315-3.4ZM70.461-19.13v3.809h2.521v3.313H70.461V-5a1.79,1.79,0,0,0,.312,1.2A1.671,1.671,0,0,0,72-3.455a7,7,0,0,0,1.189-.085V-.127A8.807,8.807,0,0,1,70.5.283,5,5,0,0,1,66.864-.878,4.759,4.759,0,0,1,65.689-4.4v-7.6H63.735v-3.313h1.954V-19.13ZM79.892,0H75.105V-15.321h4.786ZM74.822-19.272a2.13,2.13,0,0,1,.736-1.671,2.778,2.778,0,0,1,1.912-.651,2.778,2.778,0,0,1,1.912.651,2.13,2.13,0,0,1,.736,1.671,2.13,2.13,0,0,1-.736,1.671,2.778,2.778,0,0,1-1.912.651,2.778,2.778,0,0,1-1.912-.651A2.13,2.13,0,0,1,74.822-19.272ZM88.94-5.678l2.421-9.643h5.027L91.39,0H86.519l-5-15.321h5.041ZM97-7.8a9.043,9.043,0,0,1,.892-4.085,6.38,6.38,0,0,1,2.563-2.754,7.719,7.719,0,0,1,3.922-.963,7.045,7.045,0,0,1,5.423,2.131,8.178,8.178,0,0,1,1.982,5.8v.17a7.934,7.934,0,0,1-1.99,5.685A7.064,7.064,0,0,1,104.4.283a7.144,7.144,0,0,1-5.253-1.961A7.671,7.671,0,0,1,97.011-7Zm4.772.3a5.7,5.7,0,0,0,.666,3.115A2.217,2.217,0,0,0,104.4-3.4q2.549,0,2.605-3.922V-7.8q0-4.121-2.634-4.121-2.393,0-2.591,3.554Zm32.922-2.719H121.579v-3.682h13.112Zm0,6.216H121.579V-7.689h13.112Z" transform="translate(248 2937)" fill="#12263f"/>
        <text id="_" data-name="(—————————)" transform="translate(415 2937)" fill="#12263f" font-size="29" font-family="Roboto-Black, Roboto" font-weight="800"><tspan x="0" y="0">(—————————)</tspan></text>
        <path id="Trazado_148313" data-name="Trazado 148313" d="M7.816-3.4a2.122,2.122,0,0,0,1.558-.545,2,2,0,0,0,.538-1.522h4.475a5.3,5.3,0,0,1-1.805,4.135A6.716,6.716,0,0,1,7.93.283a6.8,6.8,0,0,1-5.268-2.1A8.257,8.257,0,0,1,.736-7.618v-.2a9.332,9.332,0,0,1,.857-4.1,6.238,6.238,0,0,1,2.471-2.733A7.368,7.368,0,0,1,7.887-15.6a6.631,6.631,0,0,1,4.744,1.657,5.876,5.876,0,0,1,1.756,4.489H9.912a2.619,2.619,0,0,0-.581-1.827,2,2,0,0,0-1.558-.637q-1.855,0-2.167,2.365a16.686,16.686,0,0,0-.1,2.067,6.554,6.554,0,0,0,.552,3.2A1.912,1.912,0,0,0,7.816-3.4ZM25.531-1.657A4.92,4.92,0,0,1,21.438.283a4.825,4.825,0,0,1-3.816-1.466,6.164,6.164,0,0,1-1.3-4.213v-9.926H21.1v9.955A1.715,1.715,0,0,0,23.01-3.4a2.494,2.494,0,0,0,2.336-1.175V-15.321h4.8V0H25.672ZM40.172.283a7.876,7.876,0,0,1-5.707-2.1,7.261,7.261,0,0,1-2.181-5.473v-.4a9.409,9.409,0,0,1,.871-4.149A6.372,6.372,0,0,1,35.7-14.62a7.673,7.673,0,0,1,3.965-.984,6.632,6.632,0,0,1,5.1,2,7.874,7.874,0,0,1,1.869,5.586V-6.16H37.142a3.439,3.439,0,0,0,1.119,2.025A3.329,3.329,0,0,0,40.5-3.4a4.289,4.289,0,0,0,3.54-1.586l2.181,2.577A6.1,6.1,0,0,1,43.691-.446,8.542,8.542,0,0,1,40.172.283Zm-.538-12.206q-2.1,0-2.492,2.775h4.814v-.368a2.364,2.364,0,0,0-.581-1.777A2.31,2.31,0,0,0,39.634-11.923Zm13.3-3.4.156,1.8A5.2,5.2,0,0,1,57.462-15.6a4.371,4.371,0,0,1,3.575,1.43,6.809,6.809,0,0,1,1.225,4.3V0H57.476V-9.671a2.585,2.585,0,0,0-.467-1.706,2.162,2.162,0,0,0-1.7-.545,2.276,2.276,0,0,0-2.082,1.1V0H48.456V-15.321Zm17.53-3.809v3.809h2.521v3.313H70.461V-5a1.79,1.79,0,0,0,.312,1.2A1.671,1.671,0,0,0,72-3.455a7,7,0,0,0,1.189-.085V-.127A8.807,8.807,0,0,1,70.5.283,5,5,0,0,1,66.864-.878,4.759,4.759,0,0,1,65.689-4.4v-7.6H63.735v-3.313h1.954V-19.13ZM83.488,0a5.388,5.388,0,0,1-.453-1.374A4.437,4.437,0,0,1,79.354.283a5.436,5.436,0,0,1-3.682-1.31,4.169,4.169,0,0,1-1.515-3.292A4.285,4.285,0,0,1,76-8.085,9.378,9.378,0,0,1,81.35-9.36h1.473v-.811q0-2.12-1.827-2.12a1.493,1.493,0,0,0-1.7,1.679H74.525a4.278,4.278,0,0,1,1.89-3.607A7.944,7.944,0,0,1,81.237-15.6a6.965,6.965,0,0,1,4.63,1.43,4.972,4.972,0,0,1,1.742,3.922v6.783A6.946,6.946,0,0,0,88.26-.241V0ZM80.5-3.115A2.662,2.662,0,0,0,81.98-3.5a2.4,2.4,0,0,0,.843-.864v-2.45H81.435q-2.492,0-2.492,2.237a1.366,1.366,0,0,0,.439,1.055A1.589,1.589,0,0,0,80.5-3.115ZM106.1,0a5.388,5.388,0,0,1-.453-1.374A4.437,4.437,0,0,1,101.967.283a5.436,5.436,0,0,1-3.682-1.31,4.169,4.169,0,0,1-1.515-3.292,4.285,4.285,0,0,1,1.841-3.767,9.378,9.378,0,0,1,5.353-1.274h1.473v-.811q0-2.12-1.827-2.12a1.493,1.493,0,0,0-1.7,1.679H97.139a4.278,4.278,0,0,1,1.89-3.607,7.944,7.944,0,0,1,4.822-1.386,6.965,6.965,0,0,1,4.63,1.43,4.972,4.972,0,0,1,1.742,3.922v6.783a6.946,6.946,0,0,0,.651,3.229V0Zm-2.988-3.115a2.662,2.662,0,0,0,1.48-.382,2.4,2.4,0,0,0,.843-.864v-2.45h-1.388q-2.492,0-2.492,2.237A1.366,1.366,0,0,0,102-3.519,1.589,1.589,0,0,0,103.114-3.115ZM119.342-3.4a2.122,2.122,0,0,0,1.558-.545,2,2,0,0,0,.538-1.522h4.475a5.3,5.3,0,0,1-1.805,4.135A6.716,6.716,0,0,1,119.455.283a6.8,6.8,0,0,1-5.268-2.1,8.257,8.257,0,0,1-1.926-5.806v-.2a9.332,9.332,0,0,1,.857-4.1,6.238,6.238,0,0,1,2.471-2.733,7.368,7.368,0,0,1,3.823-.956,6.631,6.631,0,0,1,4.744,1.657,5.876,5.876,0,0,1,1.756,4.489h-4.475a2.619,2.619,0,0,0-.581-1.827,2,2,0,0,0-1.558-.637q-1.855,0-2.167,2.365a16.687,16.687,0,0,0-.1,2.067,6.554,6.554,0,0,0,.552,3.2A1.912,1.912,0,0,0,119.342-3.4ZM133.488-19.13v3.809h2.521v3.313h-2.521V-5a1.79,1.79,0,0,0,.312,1.2,1.671,1.671,0,0,0,1.232.34,7,7,0,0,0,1.189-.085V-.127a8.807,8.807,0,0,1-2.69.411,5,5,0,0,1-3.639-1.161A4.759,4.759,0,0,1,128.716-4.4v-7.6h-1.954v-3.313h1.954V-19.13ZM142.918,0h-4.786V-15.321h4.786Zm-5.069-19.272a2.13,2.13,0,0,1,.736-1.671,2.778,2.778,0,0,1,1.912-.651,2.778,2.778,0,0,1,1.912.651,2.13,2.13,0,0,1,.736,1.671,2.13,2.13,0,0,1-.736,1.671,2.778,2.778,0,0,1-1.912.651,2.778,2.778,0,0,1-1.912-.651A2.13,2.13,0,0,1,137.849-19.272ZM151.967-5.678l2.421-9.643h5.027L154.417,0h-4.871l-5-15.321h5.041ZM160.024-7.8a9.043,9.043,0,0,1,.892-4.085,6.38,6.38,0,0,1,2.563-2.754A7.719,7.719,0,0,1,167.4-15.6a7.045,7.045,0,0,1,5.423,2.131,8.178,8.178,0,0,1,1.982,5.8v.17a7.934,7.934,0,0,1-1.99,5.685,7.064,7.064,0,0,1-5.388,2.1,7.144,7.144,0,0,1-5.253-1.961A7.671,7.671,0,0,1,160.038-7Zm4.772.3a5.7,5.7,0,0,0,.666,3.115,2.217,2.217,0,0,0,1.968.991q2.549,0,2.605-3.922V-7.8q0-4.121-2.634-4.121-2.393,0-2.591,3.554Z" transform="translate(431 2921)" fill="#12263f"/>
        <path id="Trazado_148314" data-name="Trazado 148314" d="M6.9-19.13v3.809H9.417v3.313H6.9V-5a1.79,1.79,0,0,0,.312,1.2,1.671,1.671,0,0,0,1.232.34A7,7,0,0,0,9.629-3.54V-.127a8.807,8.807,0,0,1-2.69.411A5,5,0,0,1,3.3-.878,4.759,4.759,0,0,1,2.124-4.4v-7.6H.17v-3.313H2.124V-19.13ZM10.266-7.8a9.043,9.043,0,0,1,.892-4.085,6.38,6.38,0,0,1,2.563-2.754,7.719,7.719,0,0,1,3.922-.963,7.045,7.045,0,0,1,5.423,2.131,8.178,8.178,0,0,1,1.982,5.8v.17A7.934,7.934,0,0,1,23.06-1.82a7.064,7.064,0,0,1-5.388,2.1,7.144,7.144,0,0,1-5.253-1.961A7.671,7.671,0,0,1,10.28-7Zm4.772.3A5.7,5.7,0,0,0,15.7-4.39a2.217,2.217,0,0,0,1.968.991q2.549,0,2.605-3.922V-7.8q0-4.121-2.634-4.121-2.393,0-2.591,3.554ZM32.71-19.13v3.809H35.23v3.313H32.71V-5a1.79,1.79,0,0,0,.312,1.2,1.671,1.671,0,0,0,1.232.34,7,7,0,0,0,1.189-.085V-.127a8.807,8.807,0,0,1-2.69.411A5,5,0,0,1,29.113-.878,4.759,4.759,0,0,1,27.938-4.4v-7.6H25.984v-3.313h1.954V-19.13ZM45.737,0a5.388,5.388,0,0,1-.453-1.374A4.437,4.437,0,0,1,41.6.283a5.436,5.436,0,0,1-3.682-1.31,4.169,4.169,0,0,1-1.515-3.292,4.285,4.285,0,0,1,1.841-3.767A9.378,9.378,0,0,1,43.6-9.36h1.473v-.811q0-2.12-1.827-2.12a1.493,1.493,0,0,0-1.7,1.679H36.774a4.278,4.278,0,0,1,1.89-3.607A7.944,7.944,0,0,1,43.486-15.6a6.965,6.965,0,0,1,4.63,1.43,4.972,4.972,0,0,1,1.742,3.922v6.783a6.946,6.946,0,0,0,.651,3.229V0ZM42.75-3.115a2.662,2.662,0,0,0,1.48-.382,2.4,2.4,0,0,0,.843-.864v-2.45H43.684q-2.492,0-2.492,2.237a1.366,1.366,0,0,0,.439,1.055A1.589,1.589,0,0,0,42.75-3.115ZM57.533,0H52.747V-21.75h4.786ZM76.323,0a5.388,5.388,0,0,1-.453-1.374A4.437,4.437,0,0,1,72.188.283a5.436,5.436,0,0,1-3.682-1.31,4.169,4.169,0,0,1-1.515-3.292,4.285,4.285,0,0,1,1.841-3.767A9.378,9.378,0,0,1,74.185-9.36h1.473v-.811q0-2.12-1.827-2.12a1.493,1.493,0,0,0-1.7,1.679H67.36a4.278,4.278,0,0,1,1.89-3.607A7.944,7.944,0,0,1,74.072-15.6a6.965,6.965,0,0,1,4.63,1.43,4.972,4.972,0,0,1,1.742,3.922v6.783A6.946,6.946,0,0,0,81.1-.241V0ZM73.335-3.115a2.662,2.662,0,0,0,1.48-.382,2.4,2.4,0,0,0,.843-.864v-2.45H74.27q-2.492,0-2.492,2.237a1.366,1.366,0,0,0,.439,1.055A1.589,1.589,0,0,0,73.335-3.115ZM89.563-3.4a2.122,2.122,0,0,0,1.558-.545,2,2,0,0,0,.538-1.522h4.475a5.3,5.3,0,0,1-1.805,4.135A6.716,6.716,0,0,1,89.676.283a6.8,6.8,0,0,1-5.268-2.1,8.257,8.257,0,0,1-1.926-5.806v-.2a9.332,9.332,0,0,1,.857-4.1,6.238,6.238,0,0,1,2.471-2.733,7.368,7.368,0,0,1,3.823-.956,6.631,6.631,0,0,1,4.744,1.657,5.876,5.876,0,0,1,1.756,4.489H91.659a2.619,2.619,0,0,0-.581-1.827,2,2,0,0,0-1.558-.637q-1.855,0-2.167,2.365a16.687,16.687,0,0,0-.1,2.067,6.554,6.554,0,0,0,.552,3.2A1.912,1.912,0,0,0,89.563-3.4ZM103.709-19.13v3.809h2.521v3.313h-2.521V-5a1.79,1.79,0,0,0,.312,1.2,1.671,1.671,0,0,0,1.232.34,7,7,0,0,0,1.189-.085V-.127a8.807,8.807,0,0,1-2.69.411,5,5,0,0,1-3.639-1.161A4.759,4.759,0,0,1,98.937-4.4v-7.6H96.983v-3.313h1.954V-19.13ZM113.14,0h-4.786V-15.321h4.786ZM108.07-19.272a2.13,2.13,0,0,1,.736-1.671,2.778,2.778,0,0,1,1.912-.651,2.778,2.778,0,0,1,1.912.651,2.13,2.13,0,0,1,.736,1.671,2.13,2.13,0,0,1-.736,1.671,2.778,2.778,0,0,1-1.912.651,2.778,2.778,0,0,1-1.912-.651A2.13,2.13,0,0,1,108.07-19.272ZM122.188-5.678l2.421-9.643h5.027L124.638,0h-4.871l-5-15.321h5.041ZM130.245-7.8a9.043,9.043,0,0,1,.892-4.085,6.38,6.38,0,0,1,2.563-2.754,7.719,7.719,0,0,1,3.922-.963,7.045,7.045,0,0,1,5.423,2.131,8.178,8.178,0,0,1,1.982,5.8v.17a7.934,7.934,0,0,1-1.99,5.685,7.064,7.064,0,0,1-5.388,2.1A7.144,7.144,0,0,1,132.4-1.678,7.671,7.671,0,0,1,130.259-7Zm4.772.3a5.7,5.7,0,0,0,.666,3.115,2.217,2.217,0,0,0,1.968.991q2.549,0,2.605-3.922V-7.8q0-4.121-2.634-4.121-2.393,0-2.591,3.554Z" transform="translate(456 2956)" fill="#12263f"/>
        <path id="Trazado_148315" data-name="Trazado 148315" d="M4.984-13.544.368-14.817l.92-2.674,4.517,1.853-.354-4.979h3.03l-.368,5.079,4.39-1.811.92,2.7L8.751-13.374l3.1,3.752L9.4-7.951,6.811-12.114,4.206-8.093l-2.45-1.6ZM32.54,0H27.754V-15.236l-4.7,1.374v-3.625L32.1-20.617h.439ZM53.072-8.425A9.844,9.844,0,0,1,51.2-1.982,6.484,6.484,0,0,1,45.907.283,6.518,6.518,0,0,1,40.583-2,9.829,9.829,0,0,1,38.7-8.425v-3.767a9.844,9.844,0,0,1,1.876-6.443,6.5,6.5,0,0,1,5.3-2.266,6.5,6.5,0,0,1,5.31,2.28,9.854,9.854,0,0,1,1.883,6.443ZM48.3-12.8a7.353,7.353,0,0,0-.581-3.321,1.941,1.941,0,0,0-1.841-1.1,1.9,1.9,0,0,0-1.791,1.02,6.927,6.927,0,0,0-.6,3.087v5.268a7.409,7.409,0,0,0,.581,3.377A1.948,1.948,0,0,0,45.907-3.4a1.922,1.922,0,0,0,1.8-1.041A7.073,7.073,0,0,0,48.3-7.7ZM69.866-8.425A9.844,9.844,0,0,1,67.99-1.982,6.484,6.484,0,0,1,62.7.283,6.518,6.518,0,0,1,57.377-2a9.829,9.829,0,0,1-1.883-6.429v-3.767a9.844,9.844,0,0,1,1.876-6.443,6.5,6.5,0,0,1,5.3-2.266,6.5,6.5,0,0,1,5.31,2.28,9.854,9.854,0,0,1,1.883,6.443ZM65.094-12.8a7.353,7.353,0,0,0-.581-3.321,1.941,1.941,0,0,0-1.841-1.1,1.9,1.9,0,0,0-1.791,1.02,6.927,6.927,0,0,0-.6,3.087v5.268a7.409,7.409,0,0,0,.581,3.377A1.948,1.948,0,0,0,62.7-3.4a1.922,1.922,0,0,0,1.8-1.041A7.073,7.073,0,0,0,65.094-7.7Z" transform="translate(670 2937)" fill="#12263f"/>
      </g>
    </g>
    <g id="Grupo_89168" data-name="Grupo 89168" transform="translate(25 4324)">
      <rect id="Rectángulo_31816-2" data-name="Rectángulo 31816" width="557" height="131" transform="translate(237 2859)" fill="#6595bf"/>
      <g id="Grupo_89142-2" data-name="Grupo 89142" transform="translate(224 2852)">
        <rect id="Rectángulo_31778-2" data-name="Rectángulo 31778" width="565.199" height="132.775" transform="translate(0 0)" fill="#fff" stroke="#12263f" stroke-miterlimit="10" stroke-width="1"/>
      </g>
      <g id="Grupo_89143-2" data-name="Grupo 89143" transform="translate(-1 -5)">
        <path id="Trazado_148316" data-name="Trazado 148316" d="M1.274-16.652a4.047,4.047,0,0,1,1.246-3.087,4.672,4.672,0,0,1,3.342-1.175,4.678,4.678,0,0,1,3.356,1.168,4.154,4.154,0,0,1,1.232,3.165v1.02a4.025,4.025,0,0,1-1.232,3.073,4.655,4.655,0,0,1-3.328,1.161,4.781,4.781,0,0,1-3.349-1.154,4.066,4.066,0,0,1-1.267-3.165Zm3.073,1.087a1.712,1.712,0,0,0,.411,1.189,1.445,1.445,0,0,0,1.133.457q1.487,0,1.487-1.885v-.844a1.8,1.8,0,0,0-.4-1.2,1.381,1.381,0,0,0-1.119-.471,1.411,1.411,0,0,0-1.1.457,1.8,1.8,0,0,0-.411,1.245Zm6.726,10.51a4.007,4.007,0,0,1,1.253-3.087A4.712,4.712,0,0,1,15.661-9.3a4.762,4.762,0,0,1,3.356,1.147,4.132,4.132,0,0,1,1.246,3.2v.991A4.042,4.042,0,0,1,19.031-.878,4.675,4.675,0,0,1,15.689.283,4.781,4.781,0,0,1,12.341-.871a4.066,4.066,0,0,1-1.267-3.165Zm3.059,1.087a1.674,1.674,0,0,0,.453,1.161,1.436,1.436,0,0,0,1.1.5A1.3,1.3,0,0,0,17.176-3.6l.014-1.449a1.732,1.732,0,0,0-.411-1.2,1.428,1.428,0,0,0-1.119-.457,1.439,1.439,0,0,0-1.09.429,1.71,1.71,0,0,0-.439,1.161ZM6.8-1.543,4.574-2.662,14.642-18.776l2.223,1.119ZM42.013-3.852H35.2L34.013,0H28.7l7.562-20.617h4.673L48.555,0H43.217ZM36.392-7.689h4.432L38.6-14.84ZM56.315-3.4a2.122,2.122,0,0,0,1.558-.545,2,2,0,0,0,.538-1.522h4.475A5.3,5.3,0,0,1,61.08-1.331,6.716,6.716,0,0,1,56.428.283a6.8,6.8,0,0,1-5.268-2.1,8.257,8.257,0,0,1-1.926-5.806v-.2a9.332,9.332,0,0,1,.857-4.1,6.238,6.238,0,0,1,2.471-2.733,7.368,7.368,0,0,1,3.823-.956,6.631,6.631,0,0,1,4.744,1.657,5.876,5.876,0,0,1,1.756,4.489H58.411a2.619,2.619,0,0,0-.581-1.827,2,2,0,0,0-1.558-.637q-1.855,0-2.167,2.365a16.686,16.686,0,0,0-.1,2.067,6.554,6.554,0,0,0,.552,3.2A1.912,1.912,0,0,0,56.315-3.4ZM70.461-19.13v3.809h2.521v3.313H70.461V-5a1.79,1.79,0,0,0,.312,1.2A1.671,1.671,0,0,0,72-3.455a7,7,0,0,0,1.189-.085V-.127A8.807,8.807,0,0,1,70.5.283,5,5,0,0,1,66.864-.878,4.759,4.759,0,0,1,65.689-4.4v-7.6H63.735v-3.313h1.954V-19.13ZM79.892,0H75.105V-15.321h4.786ZM74.822-19.272a2.13,2.13,0,0,1,.736-1.671,2.778,2.778,0,0,1,1.912-.651,2.778,2.778,0,0,1,1.912.651,2.13,2.13,0,0,1,.736,1.671,2.13,2.13,0,0,1-.736,1.671,2.778,2.778,0,0,1-1.912.651,2.778,2.778,0,0,1-1.912-.651A2.13,2.13,0,0,1,74.822-19.272ZM88.94-5.678l2.421-9.643h5.027L91.39,0H86.519l-5-15.321h5.041ZM97-7.8a9.043,9.043,0,0,1,.892-4.085,6.38,6.38,0,0,1,2.563-2.754,7.719,7.719,0,0,1,3.922-.963,7.045,7.045,0,0,1,5.423,2.131,8.178,8.178,0,0,1,1.982,5.8v.17a7.934,7.934,0,0,1-1.99,5.685A7.064,7.064,0,0,1,104.4.283a7.144,7.144,0,0,1-5.253-1.961A7.671,7.671,0,0,1,97.011-7Zm4.772.3a5.7,5.7,0,0,0,.666,3.115A2.217,2.217,0,0,0,104.4-3.4q2.549,0,2.605-3.922V-7.8q0-4.121-2.634-4.121-2.393,0-2.591,3.554Zm32.922-2.719H121.579v-3.682h13.112Zm0,6.216H121.579V-7.689h13.112Z" transform="translate(248 2937)" fill="#12263f"/>
        <text id="_2" data-name="(—————————)" transform="translate(415 2937)" fill="#12263f" font-size="29" font-family="Roboto-Black, Roboto" font-weight="800"><tspan x="0" y="0">(—————————)</tspan></text>
        <path id="Trazado_148317" data-name="Trazado 148317" d="M10.762-5.466a2.593,2.593,0,0,0-.552-1.756,5.158,5.158,0,0,0-1.94-1.2Q6.882-8.992,5.707-9.572a8.89,8.89,0,0,1-2.025-1.345,5.285,5.285,0,0,1-1.3-1.77,5.9,5.9,0,0,1-.453-2.436A5.232,5.232,0,0,1,3.54-19.067a6.946,6.946,0,0,1,4.3-1.805V-23.86H10.1v3.044a6.324,6.324,0,0,1,4.071,2.131,6.634,6.634,0,0,1,1.48,4.439H10.861a3.861,3.861,0,0,0-.566-2.266A1.865,1.865,0,0,0,8.68-17.3a1.831,1.831,0,0,0-1.451.588,2.371,2.371,0,0,0-.517,1.621,2.294,2.294,0,0,0,.595,1.664,5.858,5.858,0,0,0,1.912,1.175q1.317.559,2.485,1.161a9.5,9.5,0,0,1,2.018,1.366,5.592,5.592,0,0,1,1.331,1.784,5.7,5.7,0,0,1,.481,2.45A5.333,5.333,0,0,1,14-1.543,6.614,6.614,0,0,1,9.813.241V3.087H7.562V.227A7.2,7.2,0,0,1,2.825-1.89a6.7,6.7,0,0,1-1.65-4.722H5.947a3.7,3.7,0,0,0,.715,2.457,2.518,2.518,0,0,0,2.032.843,2,2,0,0,0,1.515-.573A2.181,2.181,0,0,0,10.762-5.466Zm11.654-6.839h2.251a2.341,2.341,0,0,0,2.676-2.62,2.265,2.265,0,0,0-.637-1.664,2.416,2.416,0,0,0-1.8-.644,2.587,2.587,0,0,0-1.65.552,1.685,1.685,0,0,0-.7,1.374H17.785a4.885,4.885,0,0,1,.906-2.9A5.985,5.985,0,0,1,21.2-20.2a8.593,8.593,0,0,1,3.533-.715,8.443,8.443,0,0,1,5.409,1.572,5.225,5.225,0,0,1,1.968,4.319A4.355,4.355,0,0,1,31.3-12.51a5.8,5.8,0,0,1-2.372,1.919,5.543,5.543,0,0,1,2.577,1.805,4.755,4.755,0,0,1,.935,2.995,5.32,5.32,0,0,1-2.124,4.418A8.816,8.816,0,0,1,24.738.283a9.143,9.143,0,0,1-3.76-.772,5.89,5.89,0,0,1-2.627-2.138,5.559,5.559,0,0,1-.892-3.108h4.8a2.149,2.149,0,0,0,.765,1.643,2.7,2.7,0,0,0,1.883.694,2.828,2.828,0,0,0,2.011-.7,2.343,2.343,0,0,0,.75-1.791A2.739,2.739,0,0,0,26.89-8.1a3.256,3.256,0,0,0-2.152-.651H22.416Zm23.959-8.609v3.752h-.212a7.164,7.164,0,0,0-4.4,1.281,5.411,5.411,0,0,0-2.117,3.561,5.58,5.58,0,0,1,4.078-1.586,5.205,5.205,0,0,1,4.262,1.954,7.882,7.882,0,0,1,1.586,5.126,7.217,7.217,0,0,1-.927,3.611,6.618,6.618,0,0,1-2.591,2.57,7.446,7.446,0,0,1-3.689.927,7.7,7.7,0,0,1-3.922-1,6.864,6.864,0,0,1-2.69-2.853,9.4,9.4,0,0,1-.991-4.276V-9.756a11.9,11.9,0,0,1,1.366-5.728,9.906,9.906,0,0,1,3.9-3.986,11.154,11.154,0,0,1,5.622-1.444Zm-4.3,10.663a2.73,2.73,0,0,0-1.586.439,2.787,2.787,0,0,0-.949,1.076v1.43q0,3.908,2.7,3.908a2.194,2.194,0,0,0,1.82-.977,3.982,3.982,0,0,0,.729-2.45A3.908,3.908,0,0,0,44.045-9.3,2.378,2.378,0,0,0,42.07-10.252ZM66.029,0H51.642V-3.115l6.627-6.967q2.45-2.79,2.45-4.432a3.083,3.083,0,0,0-.581-2.025,2.073,2.073,0,0,0-1.685-.694,2.1,2.1,0,0,0-1.77.927A3.812,3.812,0,0,0,56-13.99H51.217a6.771,6.771,0,0,1,.949-3.5A6.653,6.653,0,0,1,54.8-20.008a7.824,7.824,0,0,1,3.767-.906,7.7,7.7,0,0,1,5.147,1.543,5.51,5.51,0,0,1,1.805,4.432,6.436,6.436,0,0,1-.453,2.372,10.4,10.4,0,0,1-1.409,2.421,35.491,35.491,0,0,1-3.08,3.391L57.915-3.682h8.114Zm5.438-4.63a2.717,2.717,0,0,1,1.883.673,2.207,2.207,0,0,1,.75,1.72,2.207,2.207,0,0,1-.75,1.72,2.717,2.717,0,0,1-1.883.673,2.693,2.693,0,0,1-1.89-.68,2.222,2.222,0,0,1-.743-1.713,2.222,2.222,0,0,1,.743-1.713A2.693,2.693,0,0,1,71.466-4.63ZM89.8-8.057h2.1v3.682H89.8V0H85.032V-4.375H77.06l-.283-2.917,8.255-13.282v-.042H89.8Zm-8.482,0h3.71V-14.4l-.3.481Zm12.957-2.014,1.26-10.546h12.05v3.71h-8.17l-.467,4.1a5.628,5.628,0,0,1,1.338-.526,6.105,6.105,0,0,1,1.621-.228,6.049,6.049,0,0,1,4.722,1.82,7.329,7.329,0,0,1,1.65,5.1,7.316,7.316,0,0,1-.885,3.59,6.083,6.083,0,0,1-2.485,2.471,7.846,7.846,0,0,1-3.781.864,8.442,8.442,0,0,1-3.639-.8,6.529,6.529,0,0,1-2.662-2.193,5.329,5.329,0,0,1-.949-3.148h4.786a2.707,2.707,0,0,0,.722,1.795A2.292,2.292,0,0,0,101.1-3.4q2.407,0,2.407-3.561,0-3.292-2.945-3.292a2.939,2.939,0,0,0-2.492,1.074Zm30.416-5.038a4.76,4.76,0,0,1-.743,2.648A5.414,5.414,0,0,1,121.9-10.62a5.958,5.958,0,0,1,2.336,1.975,5.1,5.1,0,0,1,.864,2.967,5.4,5.4,0,0,1-1.9,4.361,7.909,7.909,0,0,1-5.246,1.6,8.053,8.053,0,0,1-5.3-1.607,5.358,5.358,0,0,1-1.94-4.354,5.161,5.161,0,0,1,.85-2.931,5.777,5.777,0,0,1,2.407-2.011,5.445,5.445,0,0,1-2.067-1.841,4.726,4.726,0,0,1-.75-2.648,5.29,5.29,0,0,1,1.827-4.248,7.343,7.343,0,0,1,4.928-1.558,7.388,7.388,0,0,1,4.956,1.558A5.29,5.29,0,0,1,124.694-15.109Zm-4.375,9.048a2.722,2.722,0,0,0-.658-1.961,2.293,2.293,0,0,0-1.735-.687,2.316,2.316,0,0,0-1.742.687,2.7,2.7,0,0,0-.666,1.961,2.727,2.727,0,0,0,.673,1.947,2.308,2.308,0,0,0,1.763.715,2.218,2.218,0,0,0,1.713-.708A2.777,2.777,0,0,0,120.319-6.061Zm-2.407-11.172a1.764,1.764,0,0,0-1.466.63,2.735,2.735,0,0,0-.5,1.749,2.9,2.9,0,0,0,.51,1.784,1.759,1.759,0,0,0,1.5.68,1.687,1.687,0,0,0,1.466-.68,2.99,2.99,0,0,0,.489-1.784,2.741,2.741,0,0,0-.5-1.742A1.787,1.787,0,0,0,117.912-17.233Z" transform="translate(442 2919)" fill="#12263f"/>
        <path id="Trazado_148318" data-name="Trazado 148318" d="M10.762-5.466a2.593,2.593,0,0,0-.552-1.756,5.158,5.158,0,0,0-1.94-1.2Q6.882-8.992,5.707-9.572a8.89,8.89,0,0,1-2.025-1.345,5.285,5.285,0,0,1-1.3-1.77,5.9,5.9,0,0,1-.453-2.436A5.232,5.232,0,0,1,3.54-19.067a6.946,6.946,0,0,1,4.3-1.805V-23.86H10.1v3.044a6.324,6.324,0,0,1,4.071,2.131,6.634,6.634,0,0,1,1.48,4.439H10.861a3.861,3.861,0,0,0-.566-2.266A1.865,1.865,0,0,0,8.68-17.3a1.831,1.831,0,0,0-1.451.588,2.371,2.371,0,0,0-.517,1.621,2.294,2.294,0,0,0,.595,1.664,5.858,5.858,0,0,0,1.912,1.175q1.317.559,2.485,1.161a9.5,9.5,0,0,1,2.018,1.366,5.592,5.592,0,0,1,1.331,1.784,5.7,5.7,0,0,1,.481,2.45A5.333,5.333,0,0,1,14-1.543,6.614,6.614,0,0,1,9.813.241V3.087H7.562V.227A7.2,7.2,0,0,1,2.825-1.89a6.7,6.7,0,0,1-1.65-4.722H5.947a3.7,3.7,0,0,0,.715,2.457,2.518,2.518,0,0,0,2.032.843,2,2,0,0,0,1.515-.573A2.181,2.181,0,0,0,10.762-5.466ZM32.441,0H18.054V-3.115l6.627-6.967q2.45-2.79,2.45-4.432a3.083,3.083,0,0,0-.581-2.025,2.073,2.073,0,0,0-1.685-.694,2.1,2.1,0,0,0-1.77.927,3.812,3.812,0,0,0-.68,2.315H17.629a6.771,6.771,0,0,1,.949-3.5,6.653,6.653,0,0,1,2.634-2.513,7.824,7.824,0,0,1,3.767-.906,7.7,7.7,0,0,1,5.147,1.543,5.51,5.51,0,0,1,1.805,4.432,6.436,6.436,0,0,1-.453,2.372,10.4,10.4,0,0,1-1.409,2.421,35.491,35.491,0,0,1-3.08,3.391L24.327-3.682h8.114Zm6.769-12.305h2.251a2.341,2.341,0,0,0,2.676-2.62,2.265,2.265,0,0,0-.637-1.664,2.416,2.416,0,0,0-1.8-.644,2.587,2.587,0,0,0-1.65.552,1.685,1.685,0,0,0-.7,1.374H34.579a4.885,4.885,0,0,1,.906-2.9A5.985,5.985,0,0,1,38-20.2a8.593,8.593,0,0,1,3.533-.715,8.443,8.443,0,0,1,5.409,1.572,5.225,5.225,0,0,1,1.968,4.319,4.355,4.355,0,0,1-.814,2.513,5.8,5.8,0,0,1-2.372,1.919A5.543,5.543,0,0,1,48.3-8.786a4.755,4.755,0,0,1,.935,2.995,5.32,5.32,0,0,1-2.124,4.418A8.816,8.816,0,0,1,41.532.283a9.143,9.143,0,0,1-3.76-.772,5.89,5.89,0,0,1-2.627-2.138,5.559,5.559,0,0,1-.892-3.108h4.8a2.149,2.149,0,0,0,.765,1.643A2.7,2.7,0,0,0,41.7-3.4a2.828,2.828,0,0,0,2.011-.7,2.343,2.343,0,0,0,.75-1.791A2.739,2.739,0,0,0,43.684-8.1a3.256,3.256,0,0,0-2.152-.651H39.209ZM54.672-4.63a2.717,2.717,0,0,1,1.883.673,2.207,2.207,0,0,1,.75,1.72,2.207,2.207,0,0,1-.75,1.72,2.717,2.717,0,0,1-1.883.673,2.693,2.693,0,0,1-1.89-.68,2.222,2.222,0,0,1-.743-1.713,2.222,2.222,0,0,1,.743-1.713A2.693,2.693,0,0,1,54.672-4.63ZM74.737-18.068,67.034,0H61.993L69.71-16.936H59.883v-3.682H74.737Zm13.99-2.846v3.752h-.212a7.164,7.164,0,0,0-4.4,1.281A5.411,5.411,0,0,0,82-12.319a5.58,5.58,0,0,1,4.078-1.586,5.205,5.205,0,0,1,4.262,1.954,7.882,7.882,0,0,1,1.586,5.126A7.217,7.217,0,0,1,91-3.214a6.618,6.618,0,0,1-2.591,2.57A7.446,7.446,0,0,1,84.72.283a7.7,7.7,0,0,1-3.922-1,6.864,6.864,0,0,1-2.69-2.853,9.4,9.4,0,0,1-.991-4.276V-9.756a11.9,11.9,0,0,1,1.366-5.728,9.906,9.906,0,0,1,3.9-3.986,11.154,11.154,0,0,1,5.622-1.444Zm-4.3,10.663a2.73,2.73,0,0,0-1.586.439,2.787,2.787,0,0,0-.949,1.076v1.43q0,3.908,2.7,3.908a2.194,2.194,0,0,0,1.82-.977,3.982,3.982,0,0,0,.729-2.45A3.908,3.908,0,0,0,86.4-9.3,2.378,2.378,0,0,0,84.423-10.252Zm13.934-2.053h2.251a2.341,2.341,0,0,0,2.676-2.62,2.265,2.265,0,0,0-.637-1.664,2.416,2.416,0,0,0-1.8-.644,2.587,2.587,0,0,0-1.65.552,1.685,1.685,0,0,0-.7,1.374H93.726a4.885,4.885,0,0,1,.906-2.9,5.985,5.985,0,0,1,2.513-1.99,8.593,8.593,0,0,1,3.533-.715,8.443,8.443,0,0,1,5.409,1.572,5.225,5.225,0,0,1,1.968,4.319,4.355,4.355,0,0,1-.814,2.513,5.8,5.8,0,0,1-2.372,1.919,5.543,5.543,0,0,1,2.577,1.805,4.755,4.755,0,0,1,.935,2.995,5.32,5.32,0,0,1-2.124,4.418A8.816,8.816,0,0,1,100.679.283a9.143,9.143,0,0,1-3.76-.772,5.89,5.89,0,0,1-2.627-2.138A5.559,5.559,0,0,1,93.4-5.735h4.8a2.149,2.149,0,0,0,.765,1.643,2.7,2.7,0,0,0,1.883.694,2.828,2.828,0,0,0,2.011-.7,2.343,2.343,0,0,0,.75-1.791,2.739,2.739,0,0,0-.779-2.209,3.256,3.256,0,0,0-2.152-.651H98.356ZM113.819-4.63a2.717,2.717,0,0,1,1.883.673,2.207,2.207,0,0,1,.75,1.72,2.207,2.207,0,0,1-.75,1.72,2.717,2.717,0,0,1-1.883.673,2.693,2.693,0,0,1-1.89-.68,2.222,2.222,0,0,1-.743-1.713,2.222,2.222,0,0,1,.743-1.713A2.693,2.693,0,0,1,113.819-4.63Zm18.337-3.427h2.1v3.682h-2.1V0h-4.772V-4.375h-7.972l-.283-2.917,8.255-13.282v-.042h4.772Zm-8.482,0h3.71V-14.4l-.3.481Zm27-10.011L142.975,0h-5.041l7.717-16.936h-9.827v-3.682h14.854ZM165.745-8.057h2.1v3.682h-2.1V0h-4.772V-4.375H153l-.283-2.917,8.255-13.282v-.042h4.772Zm-8.482,0h3.71V-14.4l-.3.481Z" transform="translate(439 2956)" fill="#12263f"/>
        <path id="Trazado_148319" data-name="Trazado 148319" d="M4.984-13.544.368-14.817l.92-2.674,4.517,1.853-.354-4.979h3.03l-.368,5.079,4.39-1.811.92,2.7L8.751-13.374l3.1,3.752L9.4-7.951,6.811-12.114,4.206-8.093l-2.45-1.6ZM32.54,0H27.754V-15.236l-4.7,1.374v-3.625L32.1-20.617h.439ZM53.072-8.425A9.844,9.844,0,0,1,51.2-1.982,6.484,6.484,0,0,1,45.907.283,6.518,6.518,0,0,1,40.583-2,9.829,9.829,0,0,1,38.7-8.425v-3.767a9.844,9.844,0,0,1,1.876-6.443,6.5,6.5,0,0,1,5.3-2.266,6.5,6.5,0,0,1,5.31,2.28,9.854,9.854,0,0,1,1.883,6.443ZM48.3-12.8a7.353,7.353,0,0,0-.581-3.321,1.941,1.941,0,0,0-1.841-1.1,1.9,1.9,0,0,0-1.791,1.02,6.927,6.927,0,0,0-.6,3.087v5.268a7.409,7.409,0,0,0,.581,3.377A1.948,1.948,0,0,0,45.907-3.4a1.922,1.922,0,0,0,1.8-1.041A7.073,7.073,0,0,0,48.3-7.7ZM69.866-8.425A9.844,9.844,0,0,1,67.99-1.982,6.484,6.484,0,0,1,62.7.283,6.518,6.518,0,0,1,57.377-2a9.829,9.829,0,0,1-1.883-6.429v-3.767a9.844,9.844,0,0,1,1.876-6.443,6.5,6.5,0,0,1,5.3-2.266,6.5,6.5,0,0,1,5.31,2.28,9.854,9.854,0,0,1,1.883,6.443ZM65.094-12.8a7.353,7.353,0,0,0-.581-3.321,1.941,1.941,0,0,0-1.841-1.1,1.9,1.9,0,0,0-1.791,1.02,6.927,6.927,0,0,0-.6,3.087v5.268a7.409,7.409,0,0,0,.581,3.377A1.948,1.948,0,0,0,62.7-3.4a1.922,1.922,0,0,0,1.8-1.041A7.073,7.073,0,0,0,65.094-7.7Z" transform="translate(670 2937)" fill="#12263f"/>
      </g>
    </g>
    <g id="Grupo_89170" data-name="Grupo 89170" transform="translate(25 4485)">
      <rect id="Rectángulo_31816-3" data-name="Rectángulo 31816" width="387" height="131" transform="translate(342 2859)" fill="#6595bf"/>
      <rect id="Rectángulo_31778-3" data-name="Rectángulo 31778" width="393.691" height="132.775" transform="translate(329.754 2852)" fill="#fff" stroke="#12263f" stroke-miterlimit="10" stroke-width="1"/>
      <g id="Grupo_89143-3" data-name="Grupo 89143" transform="translate(-1 -5)">
        <path id="Trazado_148320" data-name="Trazado 148320" d="M1.274-16.652a4.047,4.047,0,0,1,1.246-3.087,4.672,4.672,0,0,1,3.342-1.175,4.678,4.678,0,0,1,3.356,1.168,4.154,4.154,0,0,1,1.232,3.165v1.02a4.025,4.025,0,0,1-1.232,3.073,4.655,4.655,0,0,1-3.328,1.161,4.781,4.781,0,0,1-3.349-1.154,4.066,4.066,0,0,1-1.267-3.165Zm3.073,1.087a1.712,1.712,0,0,0,.411,1.189,1.445,1.445,0,0,0,1.133.457q1.487,0,1.487-1.885v-.844a1.8,1.8,0,0,0-.4-1.2,1.381,1.381,0,0,0-1.119-.471,1.411,1.411,0,0,0-1.1.457,1.8,1.8,0,0,0-.411,1.245Zm6.726,10.51a4.007,4.007,0,0,1,1.253-3.087A4.712,4.712,0,0,1,15.661-9.3a4.762,4.762,0,0,1,3.356,1.147,4.132,4.132,0,0,1,1.246,3.2v.991A4.042,4.042,0,0,1,19.031-.878,4.675,4.675,0,0,1,15.689.283,4.781,4.781,0,0,1,12.341-.871a4.066,4.066,0,0,1-1.267-3.165Zm3.059,1.087a1.674,1.674,0,0,0,.453,1.161,1.436,1.436,0,0,0,1.1.5A1.3,1.3,0,0,0,17.176-3.6l.014-1.449a1.732,1.732,0,0,0-.411-1.2,1.428,1.428,0,0,0-1.119-.457,1.439,1.439,0,0,0-1.09.429,1.71,1.71,0,0,0-.439,1.161ZM6.8-1.543,4.574-2.662,14.642-18.776l2.223,1.119ZM42.013-3.852H35.2L34.013,0H28.7l7.562-20.617h4.673L48.555,0H43.217ZM36.392-7.689h4.432L38.6-14.84ZM56.315-3.4a2.122,2.122,0,0,0,1.558-.545,2,2,0,0,0,.538-1.522h4.475A5.3,5.3,0,0,1,61.08-1.331,6.716,6.716,0,0,1,56.428.283a6.8,6.8,0,0,1-5.268-2.1,8.257,8.257,0,0,1-1.926-5.806v-.2a9.332,9.332,0,0,1,.857-4.1,6.238,6.238,0,0,1,2.471-2.733,7.368,7.368,0,0,1,3.823-.956,6.631,6.631,0,0,1,4.744,1.657,5.876,5.876,0,0,1,1.756,4.489H58.411a2.619,2.619,0,0,0-.581-1.827,2,2,0,0,0-1.558-.637q-1.855,0-2.167,2.365a16.686,16.686,0,0,0-.1,2.067,6.554,6.554,0,0,0,.552,3.2A1.912,1.912,0,0,0,56.315-3.4ZM70.461-19.13v3.809h2.521v3.313H70.461V-5a1.79,1.79,0,0,0,.312,1.2A1.671,1.671,0,0,0,72-3.455a7,7,0,0,0,1.189-.085V-.127A8.807,8.807,0,0,1,70.5.283,5,5,0,0,1,66.864-.878,4.759,4.759,0,0,1,65.689-4.4v-7.6H63.735v-3.313h1.954V-19.13ZM79.892,0H75.105V-15.321h4.786ZM74.822-19.272a2.13,2.13,0,0,1,.736-1.671,2.778,2.778,0,0,1,1.912-.651,2.778,2.778,0,0,1,1.912.651,2.13,2.13,0,0,1,.736,1.671,2.13,2.13,0,0,1-.736,1.671,2.778,2.778,0,0,1-1.912.651,2.778,2.778,0,0,1-1.912-.651A2.13,2.13,0,0,1,74.822-19.272ZM88.94-5.678l2.421-9.643h5.027L91.39,0H86.519l-5-15.321h5.041ZM97-7.8a9.043,9.043,0,0,1,.892-4.085,6.38,6.38,0,0,1,2.563-2.754,7.719,7.719,0,0,1,3.922-.963,7.045,7.045,0,0,1,5.423,2.131,8.178,8.178,0,0,1,1.982,5.8v.17a7.934,7.934,0,0,1-1.99,5.685A7.064,7.064,0,0,1,104.4.283a7.144,7.144,0,0,1-5.253-1.961A7.671,7.671,0,0,1,97.011-7Zm4.772.3a5.7,5.7,0,0,0,.666,3.115A2.217,2.217,0,0,0,104.4-3.4q2.549,0,2.605-3.922V-7.8q0-4.121-2.634-4.121-2.393,0-2.591,3.554Zm32.922-2.719H121.579v-3.682h13.112Zm0,6.216H121.579V-7.689h13.112ZM155.8,0h-4.786V-15.236l-4.7,1.374v-3.625l9.048-3.129h.439Zm7.972,5.551-2.407-1.133.481-.963a7.853,7.853,0,0,0,1.034-3.512V-3.6h3.823l-.014,3.073a7.681,7.681,0,0,1-.835,3.313A8.419,8.419,0,0,1,163.776,5.551Zm6.344-15.622,1.26-10.546h12.05v3.71h-8.17l-.467,4.1a5.628,5.628,0,0,1,1.338-.526,6.105,6.105,0,0,1,1.621-.228,6.049,6.049,0,0,1,4.722,1.82,7.329,7.329,0,0,1,1.65,5.1,7.316,7.316,0,0,1-.885,3.59,6.083,6.083,0,0,1-2.485,2.471,7.846,7.846,0,0,1-3.781.864,8.442,8.442,0,0,1-3.639-.8,6.529,6.529,0,0,1-2.662-2.193,5.329,5.329,0,0,1-.949-3.148h4.786a2.707,2.707,0,0,0,.722,1.795,2.292,2.292,0,0,0,1.713.664q2.407,0,2.407-3.561,0-3.292-2.945-3.292a2.939,2.939,0,0,0-2.492,1.074Zm20.872-2.234h2.251a2.341,2.341,0,0,0,2.676-2.62,2.265,2.265,0,0,0-.637-1.664,2.416,2.416,0,0,0-1.8-.644,2.587,2.587,0,0,0-1.65.552,1.685,1.685,0,0,0-.7,1.374h-4.772a4.885,4.885,0,0,1,.906-2.9,5.985,5.985,0,0,1,2.513-1.99,8.593,8.593,0,0,1,3.533-.715,8.443,8.443,0,0,1,5.409,1.572,5.225,5.225,0,0,1,1.968,4.319,4.355,4.355,0,0,1-.814,2.513,5.8,5.8,0,0,1-2.372,1.919,5.543,5.543,0,0,1,2.577,1.805,4.755,4.755,0,0,1,.935,2.995,5.32,5.32,0,0,1-2.124,4.418A8.816,8.816,0,0,1,193.314.283a9.143,9.143,0,0,1-3.76-.772,5.89,5.89,0,0,1-2.627-2.138,5.559,5.559,0,0,1-.892-3.108h4.8a2.149,2.149,0,0,0,.765,1.643,2.7,2.7,0,0,0,1.883.694,2.828,2.828,0,0,0,2.011-.7,2.343,2.343,0,0,0,.75-1.791,2.739,2.739,0,0,0-.779-2.209,3.256,3.256,0,0,0-2.152-.651h-2.322Zm12.447-4.347a4.047,4.047,0,0,1,1.246-3.087,4.672,4.672,0,0,1,3.342-1.175,4.678,4.678,0,0,1,3.356,1.168,4.154,4.154,0,0,1,1.232,3.165v1.02a4.025,4.025,0,0,1-1.232,3.073,4.655,4.655,0,0,1-3.328,1.161,4.781,4.781,0,0,1-3.349-1.154,4.066,4.066,0,0,1-1.267-3.165Zm3.073,1.087a1.712,1.712,0,0,0,.411,1.189,1.445,1.445,0,0,0,1.133.457q1.487,0,1.487-1.885v-.844a1.8,1.8,0,0,0-.4-1.2,1.381,1.381,0,0,0-1.119-.471,1.411,1.411,0,0,0-1.1.457,1.8,1.8,0,0,0-.411,1.245Zm6.726,10.51a4.007,4.007,0,0,1,1.253-3.087A4.712,4.712,0,0,1,217.826-9.3a4.762,4.762,0,0,1,3.356,1.147,4.132,4.132,0,0,1,1.246,3.2v.991A4.042,4.042,0,0,1,221.2-.878,4.675,4.675,0,0,1,217.854.283a4.781,4.781,0,0,1-3.349-1.154,4.066,4.066,0,0,1-1.267-3.165ZM216.3-3.968a1.674,1.674,0,0,0,.453,1.161,1.436,1.436,0,0,0,1.1.5A1.3,1.3,0,0,0,219.341-3.6l.014-1.449a1.732,1.732,0,0,0-.411-1.2,1.428,1.428,0,0,0-1.119-.457,1.439,1.439,0,0,0-1.09.429,1.71,1.71,0,0,0-.439,1.161Zm-7.335,2.425-2.223-1.119,10.068-16.114,2.223,1.119Z" transform="translate(418 2937)" fill="#12263f"/>
      </g>
    </g>
  </g>
</svg>
