<svg xmlns="http://www.w3.org/2000/svg" width="410.735" height="306.047" viewBox="0 0 410.735 306.047">
  <g id="Grupo_92152" data-name="Grupo 92152" transform="translate(-2820.7 -11241.144)">
    <g id="freepik--background-complete--inject-219" transform="translate(2820.7 11241.144)">
      <rect id="Rectángulo_32928" data-name="Rectángulo 32928" width="410.736" height="0.205" transform="translate(0 268.95)" fill="#aed3f2"/>
      <rect id="Rectángulo_32929" data-name="Rectángulo 32929" width="7.139" height="0.205" transform="translate(264.949 284.401)" fill="#aed3f2"/>
      <rect id="Rectángulo_32930" data-name="Rectángulo 32930" width="19.042" height="0.205" transform="translate(123.254 274.191)" fill="#aed3f2"/>
      <rect id="Rectángulo_32931" data-name="Rectángulo 32931" width="46.553" height="0.205" transform="translate(330.313 278.593)" fill="#aed3f2"/>
      <rect id="Rectángulo_32932" data-name="Rectángulo 32932" width="46.553" height="0.205" transform="translate(35.093 278.593)" fill="#aed3f2"/>
      <path id="Trazado_146904" data-name="Trazado 146904" d="M3022.21,11473.456H2863.593a4.691,4.691,0,0,1-4.682-4.69v-222.973a4.691,4.691,0,0,1,4.682-4.649H3022.21a4.691,4.691,0,0,1,4.691,4.69h0v222.932A4.691,4.691,0,0,1,3022.21,11473.456Zm-158.618-232.147a4.483,4.483,0,0,0-4.477,4.484v222.973a4.485,4.485,0,0,0,4.477,4.485H3022.21a4.494,4.494,0,0,0,4.485-4.485v-222.973a4.492,4.492,0,0,0-4.485-4.484Z" transform="translate(-2827.522 -11241.144)" fill="#aed3f2"/>
      <path id="Trazado_146905" data-name="Trazado 146905" d="M3238.517,11473.456H3079.891a4.7,4.7,0,0,1-4.691-4.69v-222.973a4.7,4.7,0,0,1,4.691-4.649h158.626a4.69,4.69,0,0,1,4.674,4.649v222.973A4.691,4.691,0,0,1,3238.517,11473.456Zm-158.626-232.147a4.491,4.491,0,0,0-4.485,4.484v222.973a4.493,4.493,0,0,0,4.485,4.485h158.626a4.494,4.494,0,0,0,4.485-4.485v-222.973a4.492,4.492,0,0,0-4.485-4.484Z" transform="translate(-2866.136 -11241.144)" fill="#aed3f2"/>
      <rect id="Rectángulo_32933" data-name="Rectángulo 32933" width="218.117" height="118.481" transform="translate(93.073 30.501)" fill="#aed3f2"/>
      <rect id="Rectángulo_32934" data-name="Rectángulo 32934" width="218.117" height="118.481" transform="translate(90.592 30.501)" fill="#e0eaf2"/>
      <rect id="Rectángulo_32935" data-name="Rectángulo 32935" width="209.22" height="108.492" transform="translate(95.044 35.496)" fill="#fff" stroke="#5e6178" stroke-miterlimit="10" stroke-width="0"/>
      <rect id="Rectángulo_32936" data-name="Rectángulo 32936" width="1.873" height="108.492" transform="translate(95.044 35.504)" fill="#aed3f2"/>
      <rect id="Rectángulo_32937" data-name="Rectángulo 32937" width="214.437" height="6.703" transform="translate(92.432 118.292)" fill="#e0eaf2"/>
      <rect id="Rectángulo_32938" data-name="Rectángulo 32938" width="214.437" height="6.703" transform="translate(92.432 61.331)" fill="#e0eaf2"/>
      <path id="Trazado_146906" data-name="Trazado 146906" d="M2924.94,11268.214h230.283a.689.689,0,0,1,.682.689h0a.682.682,0,0,1-.682.682H2924.94a.689.689,0,0,1-.69-.682h0A.7.7,0,0,1,2924.94,11268.214Z" transform="translate(-2839.187 -11245.977)" fill="#aed3f2"/>
      <path id="Trazado_146907" data-name="Trazado 146907" d="M2920.09,11268.311a3.425,3.425,0,1,0,3.426-3.426h-.008a3.417,3.417,0,0,0-3.417,3.417Z" transform="translate(-2838.444 -11245.383)" fill="#aed3f2"/>
      <path id="Trazado_146908" data-name="Trazado 146908" d="M3198.2,11272.877h0a.921.921,0,0,0,.92-.921v-2.013a.92.92,0,0,0-.92-.92h0a.928.928,0,0,0-.928.92v1.988a.929.929,0,0,0,.912.945Z" transform="translate(-2887.929 -11246.12)" fill="#aed3f2"/>
      <path id="Trazado_146909" data-name="Trazado 146909" d="M2937.491,11272.881h0a.928.928,0,0,0,.928-.919v-2.014a.928.928,0,0,0-.928-.895h0a.92.92,0,0,0-.96.877v2.007a.918.918,0,0,0,.894.943Z" transform="translate(-2841.379 -11246.126)" fill="#aed3f2"/>
      <rect id="Rectángulo_32939" data-name="Rectángulo 32939" width="220.902" height="24.874" transform="translate(85.975 22.927)" fill="#aed3f2" opacity="0.5" style="isolation: isolate"/>
      <circle id="Elipse_4328" data-name="Elipse 4328" cx="3.426" cy="3.426" r="3.426" transform="translate(295.828 19.502)" fill="#aed3f2"/>
      <rect id="Rectángulo_32940" data-name="Rectángulo 32940" width="14.014" height="93.681" transform="translate(243.065 175.269)" fill="#aed3f2"/>
      <path id="Trazado_146910" data-name="Trazado 146910" d="M3120.278,11565.771h-3.688v-12.759h7.549Z" transform="translate(-2873.525 -11296.821)" fill="#6595bf"/>
      <rect id="Rectángulo_32941" data-name="Rectángulo 32941" width="14.014" height="93.681" transform="translate(356.872 175.269)" fill="#aed3f2"/>
      <rect id="Rectángulo_32942" data-name="Rectángulo 32942" width="117.019" height="85.852" transform="translate(243.065 175.269)" fill="#6595bf"/>
      <rect id="Rectángulo_32943" data-name="Rectángulo 32943" width="111.301" height="23.543" transform="translate(245.924 179.065)" fill="#aed3f2"/>
      <path id="Trazado_146911" data-name="Trazado 146911" d="M3144.884,11466.288h64.691c3.59,0,7.032-2.9,9.5-8.034h-83.7C3137.852,11463.389,3141.286,11466.288,3144.884,11466.288Z" transform="translate(-2876.879 -11279.904)" fill="#6595bf"/>
      <path id="Trazado_146912" data-name="Trazado 146912" d="M3253.719,11565.771h3.68v-12.759h-7.549Z" transform="translate(-2897.316 -11296.821)" fill="#6595bf"/>
      <rect id="Rectángulo_32944" data-name="Rectángulo 32944" width="111.301" height="23.543" transform="translate(245.924 206.419)" fill="#aed3f2"/>
      <path id="Trazado_146913" data-name="Trazado 146913" d="M3144.884,11499.587h64.691c3.59,0,7.032-2.908,9.5-8.034h-83.7C3137.852,11496.679,3141.286,11499.587,3144.884,11499.587Z" transform="translate(-2876.879 -11285.849)" fill="#6595bf"/>
      <rect id="Rectángulo_32945" data-name="Rectángulo 32945" width="111.301" height="23.543" transform="translate(245.924 233.774)" fill="#aed3f2"/>
      <path id="Trazado_146914" data-name="Trazado 146914" d="M3144.884,11532.877h64.691c3.59,0,7.032-2.907,9.5-8.033h-83.7C3137.852,11529.97,3141.286,11532.877,3144.884,11532.877Z" transform="translate(-2876.879 -11291.792)" fill="#6595bf"/>
      <path id="Trazado_146915" data-name="Trazado 146915" d="M3219.893,11387.819c-2.218-7.468,25.408-44.827,37.533-43.711s-9.193,46.438-15.74,50.447C3234.3,11399.082,3222.308,11395.943,3219.893,11387.819Z" transform="translate(-2891.945 -11259.521)" fill="#e0eaf2"/>
      <path id="Trazado_146916" data-name="Trazado 146916" d="M3217.981,11408.894c-1.068-3.812,18.245-10.014,25.917-5.521s-7.993,16.068-12.322,15.543C3226.639,11418.324,3219.147,11413.043,3217.981,11408.894Z" transform="translate(-2891.619 -11269.826)" fill="#e0eaf2"/>
      <path id="Trazado_146917" data-name="Trazado 146917" d="M3239.733,11398.705c2.67-5.012-17-34.279-27.478-34.823s2.982,33.681,8.149,37.189C3226.244,11405.055,3236.817,11404.151,3239.733,11398.705Z" transform="translate(-2889.91 -11263.055)" fill="#e0eaf2"/>
      <path id="Trazado_146918" data-name="Trazado 146918" d="M3233.4,11387.315h-.041a2.059,2.059,0,0,0-2.07,1.748,181.567,181.567,0,0,0-.822,46.627,2.055,2.055,0,0,0,2,1.816h.041a2.045,2.045,0,0,0,2.074-2.016,1.945,1.945,0,0,0-.012-.26,181.155,181.155,0,0,1,.813-45.592,2.039,2.039,0,0,0-1.729-2.306A1.91,1.91,0,0,0,3233.4,11387.315Z" transform="translate(-2893.656 -11267.24)" fill="#aed3f2"/>
      <path id="Trazado_146919" data-name="Trazado 146919" d="M3228.856,11451.279h0c7.262,0,13.382-4.272,14.869-10.062a23.4,23.4,0,0,1,1.552-4.5l.115-.237H3212.32l.115.237a23.469,23.469,0,0,1,1.552,4.5C3215.474,11447.007,3221.6,11451.279,3228.856,11451.279Z" transform="translate(-2890.615 -11276.018)" fill="#fafafa"/>
      <path id="Trazado_146920" data-name="Trazado 146920" d="M3211.8,11436.978h33.237c.928,0,1.734-.9,1.964-2.2h0c.329-1.865-.641-3.672-1.964-3.672H3211.8c-1.323,0-2.292,1.807-1.955,3.672h0C3210.075,11436.065,3210.881,11436.978,3211.8,11436.978Z" transform="translate(-2890.162 -11275.057)" fill="#6595bf"/>
      <rect id="Rectángulo_32946" data-name="Rectángulo 32946" width="40.917" height="59.014" transform="translate(178.341 209.936)" fill="#6595bf"/>
      <rect id="Rectángulo_32947" data-name="Rectángulo 32947" width="121.693" height="59.014" transform="translate(56.657 209.936)" fill="#e0eaf2"/>
      <rect id="Rectángulo_32948" data-name="Rectángulo 32948" width="25.728" height="26.197" transform="translate(67.344 229.683)" fill="#fafafa"/>
      <rect id="Rectángulo_32949" data-name="Rectángulo 32949" width="25.728" height="26.197" transform="translate(102.273 229.683)" fill="#fafafa"/>
      <rect id="Rectángulo_32950" data-name="Rectángulo 32950" width="163.037" height="3.36" transform="translate(56.221 216.211)" fill="#aed3f2" opacity="0.7" style="isolation: isolate"/>
      <rect id="Rectángulo_32951" data-name="Rectángulo 32951" width="43.177" height="9.734" transform="translate(178.341 207.898)" fill="#6595bf"/>
      <rect id="Rectángulo_32952" data-name="Rectángulo 32952" width="123.952" height="9.734" transform="translate(54.398 207.89)" fill="#e0eaf2"/>
      <path id="Trazado_146921" data-name="Trazado 146921" d="M2929.6,11474.054s.78,16.569,30.641,16.569,30.641-16.569,30.641-16.569Z" transform="translate(-2840.142 -11282.725)" fill="#6595bf"/>
      <path id="Trazado_146922" data-name="Trazado 146922" d="M2929.6,11460.693s.78,16.569,30.641,16.569,30.641-16.569,30.641-16.569Z" transform="translate(-2840.142 -11280.339)" fill="#6595bf"/>
    </g>
    <g id="freepik--Shadow--inject-219" transform="translate(2866.792 11528.592)">
      <ellipse id="freepik--path--inject-219" cx="159.275" cy="9.299" rx="159.275" ry="9.299" fill="#e0eaf2"/>
    </g>
    <g id="freepik--Coins--inject-219" transform="translate(2891.618 11413.743)">
      <rect id="Rectángulo_32953" data-name="Rectángulo 32953" width="80.66" height="15.181" transform="translate(5.602 106.257)" fill="#d9a171"/>
      <rect id="Rectángulo_32954" data-name="Rectángulo 32954" width="80.66" height="1.725" transform="translate(5.602 106.257)" fill="#344154" opacity="0.2" style="isolation: isolate"/>
      <rect id="Rectángulo_32955" data-name="Rectángulo 32955" width="3.179" height="15.181" transform="translate(11.509 106.257)" fill="#344154" opacity="0.2" style="isolation: isolate"/>
      <rect id="Rectángulo_32956" data-name="Rectángulo 32956" width="3.179" height="15.181" transform="translate(18.803 106.257)" fill="#344154" opacity="0.2" style="isolation: isolate"/>
      <rect id="Rectángulo_32957" data-name="Rectángulo 32957" width="3.179" height="15.181" transform="translate(26.106 106.257)" fill="#344154" opacity="0.2" style="isolation: isolate"/>
      <rect id="Rectángulo_32958" data-name="Rectángulo 32958" width="3.179" height="15.181" transform="translate(33.401 106.257)" fill="#344154" opacity="0.2" style="isolation: isolate"/>
      <rect id="Rectángulo_32959" data-name="Rectángulo 32959" width="3.179" height="15.181" transform="translate(40.696 106.257)" fill="#344154" opacity="0.2" style="isolation: isolate"/>
      <rect id="Rectángulo_32960" data-name="Rectángulo 32960" width="3.179" height="15.181" transform="translate(47.998 106.257)" fill="#344154" opacity="0.2" style="isolation: isolate"/>
      <rect id="Rectángulo_32961" data-name="Rectángulo 32961" width="3.179" height="15.181" transform="translate(55.293 106.257)" fill="#344154" opacity="0.2" style="isolation: isolate"/>
      <rect id="Rectángulo_32962" data-name="Rectángulo 32962" width="3.179" height="15.181" transform="translate(62.588 106.257)" fill="#344154" opacity="0.2" style="isolation: isolate"/>
      <rect id="Rectángulo_32963" data-name="Rectángulo 32963" width="3.179" height="15.181" transform="translate(69.891 106.257)" fill="#344154" opacity="0.2" style="isolation: isolate"/>
      <rect id="Rectángulo_32964" data-name="Rectángulo 32964" width="3.179" height="15.181" transform="translate(77.185 106.257)" fill="#344154" opacity="0.2" style="isolation: isolate"/>
      <rect id="Rectángulo_32965" data-name="Rectángulo 32965" width="80.66" height="15.181" transform="translate(2.325 91.077)" fill="#d9a171"/>
      <rect id="Rectángulo_32966" data-name="Rectángulo 32966" width="80.66" height="1.725" transform="translate(2.325 91.077)" fill="#344154" opacity="0.2" style="isolation: isolate"/>
      <rect id="Rectángulo_32967" data-name="Rectángulo 32967" width="3.179" height="15.181" transform="translate(8.223 91.077)" fill="#344154" opacity="0.2" style="isolation: isolate"/>
      <rect id="Rectángulo_32968" data-name="Rectángulo 32968" width="3.179" height="15.181" transform="translate(15.526 91.077)" fill="#344154" opacity="0.2" style="isolation: isolate"/>
      <rect id="Rectángulo_32969" data-name="Rectángulo 32969" width="3.179" height="15.181" transform="translate(22.82 91.077)" fill="#344154" opacity="0.2" style="isolation: isolate"/>
      <rect id="Rectángulo_32970" data-name="Rectángulo 32970" width="3.179" height="15.181" transform="translate(30.115 91.077)" fill="#344154" opacity="0.2" style="isolation: isolate"/>
      <rect id="Rectángulo_32971" data-name="Rectángulo 32971" width="3.179" height="15.181" transform="translate(37.418 91.077)" fill="#344154" opacity="0.2" style="isolation: isolate"/>
      <rect id="Rectángulo_32972" data-name="Rectángulo 32972" width="3.179" height="15.181" transform="translate(44.713 91.077)" fill="#344154" opacity="0.2" style="isolation: isolate"/>
      <rect id="Rectángulo_32973" data-name="Rectángulo 32973" width="3.179" height="15.181" transform="translate(52.007 91.077)" fill="#344154" opacity="0.2" style="isolation: isolate"/>
      <rect id="Rectángulo_32974" data-name="Rectángulo 32974" width="3.179" height="15.181" transform="translate(59.31 91.077)" fill="#344154" opacity="0.2" style="isolation: isolate"/>
      <rect id="Rectángulo_32975" data-name="Rectángulo 32975" width="3.179" height="15.181" transform="translate(66.605 91.077)" fill="#344154" opacity="0.2" style="isolation: isolate"/>
      <rect id="Rectángulo_32976" data-name="Rectángulo 32976" width="3.179" height="15.181" transform="translate(73.899 91.077)" fill="#344154" opacity="0.2" style="isolation: isolate"/>
      <rect id="Rectángulo_32977" data-name="Rectángulo 32977" width="80.66" height="15.181" transform="translate(0 75.895)" fill="#d9a171"/>
      <rect id="Rectángulo_32978" data-name="Rectángulo 32978" width="80.66" height="1.725" transform="translate(0 75.895)" fill="#344154" opacity="0.2" style="isolation: isolate"/>
      <rect id="Rectángulo_32979" data-name="Rectángulo 32979" width="3.179" height="15.181" transform="translate(5.906 75.895)" fill="#344154" opacity="0.2" style="isolation: isolate"/>
      <rect id="Rectángulo_32980" data-name="Rectángulo 32980" width="3.179" height="15.181" transform="translate(13.201 75.895)" fill="#344154" opacity="0.2" style="isolation: isolate"/>
      <rect id="Rectángulo_32981" data-name="Rectángulo 32981" width="3.179" height="15.181" transform="translate(20.504 75.895)" fill="#344154" opacity="0.2" style="isolation: isolate"/>
      <rect id="Rectángulo_32982" data-name="Rectángulo 32982" width="3.179" height="15.181" transform="translate(27.798 75.895)" fill="#344154" opacity="0.2" style="isolation: isolate"/>
      <rect id="Rectángulo_32983" data-name="Rectángulo 32983" width="3.179" height="15.181" transform="translate(35.093 75.895)" fill="#344154" opacity="0.2" style="isolation: isolate"/>
      <rect id="Rectángulo_32984" data-name="Rectángulo 32984" width="3.179" height="15.181" transform="translate(42.396 75.895)" fill="#344154" opacity="0.2" style="isolation: isolate"/>
      <rect id="Rectángulo_32985" data-name="Rectángulo 32985" width="3.179" height="15.181" transform="translate(49.691 75.895)" fill="#344154" opacity="0.2" style="isolation: isolate"/>
      <rect id="Rectángulo_32986" data-name="Rectángulo 32986" width="3.179" height="15.181" transform="translate(56.985 75.895)" fill="#344154" opacity="0.2" style="isolation: isolate"/>
      <rect id="Rectángulo_32987" data-name="Rectángulo 32987" width="3.179" height="15.181" transform="translate(64.288 75.895)" fill="#344154" opacity="0.2" style="isolation: isolate"/>
      <rect id="Rectángulo_32988" data-name="Rectángulo 32988" width="3.179" height="15.181" transform="translate(71.583 75.895)" fill="#344154" opacity="0.2" style="isolation: isolate"/>
      <rect id="Rectángulo_32989" data-name="Rectángulo 32989" width="80.66" height="15.181" transform="translate(3.656 60.723)" fill="#d9a171"/>
      <rect id="Rectángulo_32990" data-name="Rectángulo 32990" width="80.66" height="1.725" transform="translate(3.656 60.723)" fill="#344154" opacity="0.2" style="isolation: isolate"/>
      <rect id="Rectángulo_32991" data-name="Rectángulo 32991" width="3.179" height="15.181" transform="translate(9.554 60.723)" fill="#344154" opacity="0.2" style="isolation: isolate"/>
      <rect id="Rectángulo_32992" data-name="Rectángulo 32992" width="3.179" height="15.181" transform="translate(16.856 60.723)" fill="#344154" opacity="0.2" style="isolation: isolate"/>
      <rect id="Rectángulo_32993" data-name="Rectángulo 32993" width="3.179" height="15.181" transform="translate(24.151 60.723)" fill="#344154" opacity="0.2" style="isolation: isolate"/>
      <rect id="Rectángulo_32994" data-name="Rectángulo 32994" width="3.179" height="15.181" transform="translate(31.446 60.723)" fill="#344154" opacity="0.2" style="isolation: isolate"/>
      <rect id="Rectángulo_32995" data-name="Rectángulo 32995" width="3.179" height="15.181" transform="translate(38.749 60.723)" fill="#344154" opacity="0.2" style="isolation: isolate"/>
      <rect id="Rectángulo_32996" data-name="Rectángulo 32996" width="3.179" height="15.181" transform="translate(46.043 60.723)" fill="#344154" opacity="0.2" style="isolation: isolate"/>
      <rect id="Rectángulo_32997" data-name="Rectángulo 32997" width="3.179" height="15.181" transform="translate(53.338 60.723)" fill="#344154" opacity="0.2" style="isolation: isolate"/>
      <rect id="Rectángulo_32998" data-name="Rectángulo 32998" width="3.179" height="15.181" transform="translate(60.641 60.723)" fill="#344154" opacity="0.2" style="isolation: isolate"/>
      <rect id="Rectángulo_32999" data-name="Rectángulo 32999" width="3.179" height="15.181" transform="translate(67.936 60.723)" fill="#344154" opacity="0.2" style="isolation: isolate"/>
      <rect id="Rectángulo_33000" data-name="Rectángulo 33000" width="3.179" height="15.181" transform="translate(75.23 60.723)" fill="#344154" opacity="0.2" style="isolation: isolate"/>
      <rect id="Rectángulo_33001" data-name="Rectángulo 33001" width="80.66" height="15.181" transform="translate(0.115 45.534)" fill="#d9a171"/>
      <rect id="Rectángulo_33002" data-name="Rectángulo 33002" width="80.66" height="1.725" transform="translate(0.115 45.534)" fill="#344154" opacity="0.2" style="isolation: isolate"/>
      <rect id="Rectángulo_33003" data-name="Rectángulo 33003" width="3.179" height="15.181" transform="translate(71.69 45.534)" fill="#344154" opacity="0.2" style="isolation: isolate"/>
      <rect id="Rectángulo_33004" data-name="Rectángulo 33004" width="3.179" height="15.181" transform="translate(64.387 45.534)" fill="#344154" opacity="0.2" style="isolation: isolate"/>
      <rect id="Rectángulo_33005" data-name="Rectángulo 33005" width="3.179" height="15.181" transform="translate(57.092 45.534)" fill="#344154" opacity="0.2" style="isolation: isolate"/>
      <rect id="Rectángulo_33006" data-name="Rectángulo 33006" width="3.179" height="15.181" transform="translate(49.797 45.534)" fill="#344154" opacity="0.2" style="isolation: isolate"/>
      <rect id="Rectángulo_33007" data-name="Rectángulo 33007" width="3.179" height="15.181" transform="translate(42.495 45.534)" fill="#344154" opacity="0.2" style="isolation: isolate"/>
      <rect id="Rectángulo_33008" data-name="Rectángulo 33008" width="3.179" height="15.181" transform="translate(35.2 45.534)" fill="#344154" opacity="0.2" style="isolation: isolate"/>
      <rect id="Rectángulo_33009" data-name="Rectángulo 33009" width="3.179" height="15.181" transform="translate(27.905 45.534)" fill="#344154" opacity="0.2" style="isolation: isolate"/>
      <rect id="Rectángulo_33010" data-name="Rectángulo 33010" width="3.179" height="15.181" transform="translate(20.602 45.534)" fill="#344154" opacity="0.2" style="isolation: isolate"/>
      <rect id="Rectángulo_33011" data-name="Rectángulo 33011" width="3.179" height="15.181" transform="translate(13.308 45.534)" fill="#344154" opacity="0.2" style="isolation: isolate"/>
      <rect id="Rectángulo_33012" data-name="Rectángulo 33012" width="3.179" height="15.181" transform="translate(6.013 45.534)" fill="#344154" opacity="0.2" style="isolation: isolate"/>
      <rect id="Rectángulo_33013" data-name="Rectángulo 33013" width="80.66" height="15.181" transform="translate(3.393 30.362)" fill="#d9a171"/>
      <rect id="Rectángulo_33014" data-name="Rectángulo 33014" width="80.66" height="1.725" transform="translate(3.393 30.362)" fill="#344154" opacity="0.2" style="isolation: isolate"/>
      <rect id="Rectángulo_33015" data-name="Rectángulo 33015" width="3.179" height="15.181" transform="translate(74.967 30.362)" fill="#344154" opacity="0.2" style="isolation: isolate"/>
      <rect id="Rectángulo_33016" data-name="Rectángulo 33016" width="3.179" height="15.181" transform="translate(67.681 30.362)" fill="#344154" opacity="0.2" style="isolation: isolate"/>
      <rect id="Rectángulo_33017" data-name="Rectángulo 33017" width="3.179" height="15.181" transform="translate(60.378 30.362)" fill="#344154" opacity="0.2" style="isolation: isolate"/>
      <rect id="Rectángulo_33018" data-name="Rectángulo 33018" width="3.179" height="15.181" transform="translate(53.075 30.362)" fill="#344154" opacity="0.2" style="isolation: isolate"/>
      <rect id="Rectángulo_33019" data-name="Rectángulo 33019" width="3.179" height="15.181" transform="translate(45.789 30.362)" fill="#344154" opacity="0.2" style="isolation: isolate"/>
      <rect id="Rectángulo_33020" data-name="Rectángulo 33020" width="3.179" height="15.181" transform="translate(38.486 30.362)" fill="#344154" opacity="0.2" style="isolation: isolate"/>
      <rect id="Rectángulo_33021" data-name="Rectángulo 33021" width="3.179" height="15.181" transform="translate(31.183 30.362)" fill="#344154" opacity="0.2" style="isolation: isolate"/>
      <rect id="Rectángulo_33022" data-name="Rectángulo 33022" width="3.179" height="15.181" transform="translate(23.896 30.362)" fill="#344154" opacity="0.2" style="isolation: isolate"/>
      <rect id="Rectángulo_33023" data-name="Rectángulo 33023" width="3.179" height="15.181" transform="translate(16.594 30.362)" fill="#344154" opacity="0.2" style="isolation: isolate"/>
      <rect id="Rectángulo_33024" data-name="Rectángulo 33024" width="3.179" height="15.181" transform="translate(9.291 30.362)" fill="#344154" opacity="0.2" style="isolation: isolate"/>
      <rect id="Rectángulo_33025" data-name="Rectángulo 33025" width="80.66" height="15.181" transform="translate(5.717 15.18)" fill="#d9a171"/>
      <rect id="Rectángulo_33026" data-name="Rectángulo 33026" width="80.66" height="1.725" transform="translate(5.717 15.18)" fill="#344154" opacity="0.2" style="isolation: isolate"/>
      <rect id="Rectángulo_33027" data-name="Rectángulo 33027" width="3.179" height="15.181" transform="translate(77.292 15.18)" fill="#344154" opacity="0.2" style="isolation: isolate"/>
      <rect id="Rectángulo_33028" data-name="Rectángulo 33028" width="3.179" height="15.181" transform="translate(69.989 15.18)" fill="#344154" opacity="0.2" style="isolation: isolate"/>
      <rect id="Rectángulo_33029" data-name="Rectángulo 33029" width="3.179" height="15.181" transform="translate(62.695 15.18)" fill="#344154" opacity="0.2" style="isolation: isolate"/>
      <rect id="Rectángulo_33030" data-name="Rectángulo 33030" width="3.179" height="15.181" transform="translate(55.4 15.18)" fill="#344154" opacity="0.2" style="isolation: isolate"/>
      <rect id="Rectángulo_33031" data-name="Rectángulo 33031" width="3.179" height="15.181" transform="translate(48.097 15.18)" fill="#344154" opacity="0.2" style="isolation: isolate"/>
      <rect id="Rectángulo_33032" data-name="Rectángulo 33032" width="3.179" height="15.181" transform="translate(40.802 15.18)" fill="#344154" opacity="0.2" style="isolation: isolate"/>
      <rect id="Rectángulo_33033" data-name="Rectángulo 33033" width="3.179" height="15.181" transform="translate(33.508 15.18)" fill="#344154" opacity="0.2" style="isolation: isolate"/>
      <rect id="Rectángulo_33034" data-name="Rectángulo 33034" width="3.179" height="15.181" transform="translate(26.205 15.18)" fill="#344154" opacity="0.2" style="isolation: isolate"/>
      <rect id="Rectángulo_33035" data-name="Rectángulo 33035" width="3.179" height="15.181" transform="translate(18.91 15.18)" fill="#344154" opacity="0.2" style="isolation: isolate"/>
      <rect id="Rectángulo_33036" data-name="Rectángulo 33036" width="3.179" height="15.181" transform="translate(11.616 15.18)" fill="#344154" opacity="0.2" style="isolation: isolate"/>
      <rect id="Rectángulo_33037" data-name="Rectángulo 33037" width="80.66" height="15.181" transform="translate(2.062)" fill="#d9a171"/>
      <rect id="Rectángulo_33038" data-name="Rectángulo 33038" width="80.66" height="1.725" transform="translate(2.062)" fill="#344154" opacity="0.2" style="isolation: isolate"/>
      <rect id="Rectángulo_33039" data-name="Rectángulo 33039" width="3.179" height="15.181" transform="translate(73.637)" fill="#344154" opacity="0.2" style="isolation: isolate"/>
      <rect id="Rectángulo_33040" data-name="Rectángulo 33040" width="3.179" height="15.181" transform="translate(66.35)" fill="#344154" opacity="0.2" style="isolation: isolate"/>
      <rect id="Rectángulo_33041" data-name="Rectángulo 33041" width="3.179" height="15.181" transform="translate(59.047)" fill="#344154" opacity="0.2" style="isolation: isolate"/>
      <rect id="Rectángulo_33042" data-name="Rectángulo 33042" width="3.179" height="15.181" transform="translate(51.744)" fill="#344154" opacity="0.2" style="isolation: isolate"/>
      <rect id="Rectángulo_33043" data-name="Rectángulo 33043" width="3.179" height="15.181" transform="translate(44.458)" fill="#344154" opacity="0.2" style="isolation: isolate"/>
      <rect id="Rectángulo_33044" data-name="Rectángulo 33044" width="3.179" height="15.181" transform="translate(37.155)" fill="#344154" opacity="0.2" style="isolation: isolate"/>
      <rect id="Rectángulo_33045" data-name="Rectángulo 33045" width="3.179" height="15.181" transform="translate(29.852)" fill="#344154" opacity="0.2" style="isolation: isolate"/>
      <rect id="Rectángulo_33046" data-name="Rectángulo 33046" width="3.179" height="15.181" transform="translate(22.566)" fill="#344154" opacity="0.2" style="isolation: isolate"/>
      <rect id="Rectángulo_33047" data-name="Rectángulo 33047" width="3.179" height="15.181" transform="translate(15.263)" fill="#344154" opacity="0.2" style="isolation: isolate"/>
      <rect id="Rectángulo_33048" data-name="Rectángulo 33048" width="3.179" height="15.181" transform="translate(7.96)" fill="#344154" opacity="0.2" style="isolation: isolate"/>
    </g>
    <g id="freepik--Growth--inject-219" transform="translate(2916.032 11353.643)">
      <path id="Trazado_146923" data-name="Trazado 146923" d="M3170.549,11378.134l-32.169,5.512a3.163,3.163,0,0,0-1.29,5.71l5.931,4.2-36.366,51.408a3.114,3.114,0,0,1-4.34.743l-.006,0-53.453-37.788a3.13,3.13,0,0,0-4.354.747l-107.752,152.3h38.724l76.586-108.262a3.112,3.112,0,0,1,4.34-.743l.006,0,53.453,37.787a3.122,3.122,0,0,0,4.352-.743l0,0,54.62-77.219,5.939,4.2a3.17,3.17,0,0,0,4.929-3.12l-5.521-32.17A3.161,3.161,0,0,0,3170.549,11378.134Z" transform="translate(-2936.75 -11378.09)" fill="#6595bf"/>
      <path id="Trazado_146924" data-name="Trazado 146924" d="M2974.971,11557.491h-27.257a.214.214,0,0,1-.181-.114.2.2,0,0,1,0-.214l99.825-141.129a3.326,3.326,0,0,1,4.631-.829l.01.008,53.445,37.787a2.916,2.916,0,0,0,4.073-.65l.034-.048,41.657-58.883-6.572-4.675a.187.187,0,0,1-.082-.212.205.205,0,0,1,.165-.157l27.109-4.641a.2.2,0,0,1,.229.157v.006l4.641,27.109a.222.222,0,0,1-.091.214.217.217,0,0,1-.23,0l-6.572-4.674-54.5,77.054a3.328,3.328,0,0,1-4.633.821h0l-53.453-37.788a2.916,2.916,0,0,0-4.065.7v0l-78.007,110.068A.214.214,0,0,1,2974.971,11557.491Zm-26.862-.41h26.755l77.826-110.02a3.333,3.333,0,0,1,4.641-.821l53.453,37.787a2.917,2.917,0,0,0,4.065-.7h0l54.62-77.218a.166.166,0,0,1,.132-.082.175.175,0,0,1,.156,0l6.366,4.5-4.526-26.295-26.378,4.519,6.367,4.5a.223.223,0,0,1,.082.132.206.206,0,0,1,0,.156L3109.9,11452.6a3.294,3.294,0,0,1-2.152,1.355,3.353,3.353,0,0,1-2.465-.56l-53.445-37.787a2.915,2.915,0,0,0-4.073.649l-.035.049Z" transform="translate(-2938.67 -11379.098)" fill="#fff" stroke="#5e6178" stroke-miterlimit="10" stroke-width="0" opacity="0.2" style="isolation: isolate"/>
    </g>
    <g id="freepik--Chart--inject-219" transform="translate(3079.57 11457.576)">
      <rect id="Rectángulo_33049" data-name="Rectángulo 33049" width="3.376" height="50.233" transform="translate(23.667 27.372)" fill="#344154"/>
      <rect id="Rectángulo_33050" data-name="Rectángulo 33050" width="3.376" height="77.604" transform="translate(53.207)" fill="#344154"/>
      <rect id="Rectángulo_33051" data-name="Rectángulo 33051" width="3.376" height="58.99" transform="translate(83.289 18.615)" fill="#344154"/>
      <rect id="Rectángulo_33052" data-name="Rectángulo 33052" width="23.675" height="50.233" transform="translate(0 27.372)" fill="#aed3f2"/>
      <path id="Trazado_146925" data-name="Trazado 146925" d="M3135.83,11537.934v29.787l11.829-29.787Z" transform="translate(-3135.83 -11510.562)" fill="#fff" stroke="#5e6178" stroke-miterlimit="10" stroke-width="0" opacity="0.2" style="isolation: isolate"/>
      <rect id="Rectángulo_33053" data-name="Rectángulo 33053" width="23.675" height="77.604" transform="translate(29.532)" fill="#6595bf"/>
      <path id="Trazado_146926" data-name="Trazado 146926" d="M3171.78,11504.613v29.788l11.838-29.788Z" transform="translate(-3142.248 -11504.613)" fill="#fff" stroke="#5e6178" stroke-miterlimit="10" stroke-width="0" opacity="0.2" style="isolation: isolate"/>
      <rect id="Rectángulo_33054" data-name="Rectángulo 33054" width="23.675" height="58.99" transform="translate(59.622 18.615)" fill="#a66d58"/>
      <path id="Trazado_146927" data-name="Trazado 146927" d="M3208.41,11527.274v26.509l11.837-26.509Z" transform="translate(-3148.788 -11508.66)" fill="#fff" stroke="#5e6178" stroke-miterlimit="10" stroke-width="0" opacity="0.2" style="isolation: isolate"/>
    </g>
    <g id="freepik--Character--inject-219" transform="translate(2976.207 11283.705)">
      <path id="Trazado_146928" data-name="Trazado 146928" d="M3067.4,11590.561l-6.35-1.191,1.076-15.025,6.35,1.2Z" transform="translate(-3019.117 -11343.19)" fill="#7f3e3b"/>
      <path id="Trazado_146929" data-name="Trazado 146929" d="M3119.047,11590.623h-6.465l-1.6-14.96h6.457Z" transform="translate(-3028.031 -11343.425)" fill="#7f3e3b"/>
      <path id="Trazado_146930" data-name="Trazado 146930" d="M3109.691,11592.964h7.87a.567.567,0,0,1,.551.444l1.281,5.749a.953.953,0,0,1-.735,1.13.941.941,0,0,1-.209.021c-2.538-.042-4.386-.2-7.574-.2-1.963,0-7.886.205-10.6.205s-3.064-2.678-1.955-2.925c4.978-1.084,8.724-2.587,10.318-4.017A1.554,1.554,0,0,1,3109.691,11592.964Z" transform="translate(-3025.666 -11346.515)" fill="#344154"/>
      <path id="Trazado_146931" data-name="Trazado 146931" d="M3058.1,11590.929l6.958,1.2a.569.569,0,0,1,.468.527l.28,5.873a.944.944,0,0,1-.9.99.912.912,0,0,1-.213-.013c-2.464-.476-6.1-1.249-9.25-1.791-3.688-.632-5.487-1.093-9.808-1.84-2.612-.451-2.045-3.285-.9-3.359,5.167-.23,6.99.558,11.747-1.355A2.979,2.979,0,0,1,3058.1,11590.929Z" transform="translate(-3016.032 -11346.147)" fill="#344154"/>
      <path id="Trazado_146932" data-name="Trazado 146932" d="M3078.9,11352.544c-.222.657-.394,1.134-.6,1.644s-.411,1.05-.624,1.567c-.427,1.044-.879,2.063-1.355,3.081a59.461,59.461,0,0,1-3.2,5.955,39.283,39.283,0,0,1-9.258,10.745,22.691,22.691,0,0,1-3.286,2.087c-.3.165-.6.3-.912.443s-.591.271-.961.411a13.309,13.309,0,0,1-2.243.608,23.139,23.139,0,0,1-3.754.319c-1.183,0-2.317,0-3.434-.106a65.7,65.7,0,0,1-12.872-2.333l.649-4.806c4.107-.156,8.272-.288,12.183-.632.977-.091,1.938-.205,2.85-.346a15.509,15.509,0,0,0,2.464-.542,3.584,3.584,0,0,0,.756-.312c.271-.164.641-.32.945-.533a14.909,14.909,0,0,0,1.9-1.422,24.5,24.5,0,0,0,3.524-3.876,43.7,43.7,0,0,0,3.072-4.708c.961-1.644,1.824-3.393,2.67-5.15.411-.879.822-1.774,1.183-2.67l.55-1.339.5-1.266Z" transform="translate(-3014.718 -11303.025)" fill="#7f3e3b"/>
      <path id="Trazado_146933" data-name="Trazado 146933" d="M3080.828,11344.012c11.788,0-1.167,25.466-1.167,25.466l-15.041-6.087s4.107-8.854,6.81-13.924A10.014,10.014,0,0,1,3080.828,11344.012Z" transform="translate(-3019.754 -11302.067)" fill="#d9a171"/>
      <g id="Grupo_92149" data-name="Grupo 92149" transform="translate(44.866 41.933)" opacity="0.3">
        <path id="Trazado_146934" data-name="Trazado 146934" d="M3080.828,11344.012c11.788,0-1.167,25.466-1.167,25.466l-15.041-6.087s4.107-8.854,6.81-13.924A10.014,10.014,0,0,1,3080.828,11344.012Z" transform="translate(-3064.62 -11344)" fill="#fff" stroke="#5e6178" stroke-miterlimit="10" stroke-width="0"/>
      </g>
      <path id="Trazado_146935" data-name="Trazado 146935" d="M3079.065,11354.033c-4.313,3.032-7.311,8.659-8.166,13.228l8.593,3.481c1.561-2.332,3.081-5.086,4.756-7.5.46-1.257.912-2.58,1.306-3.919Z" transform="translate(-3020.875 -11303.858)" fill="#344154" opacity="0.2" style="isolation: isolate"/>
      <path id="Trazado_146936" data-name="Trazado 146936" d="M3039.717,11377.23l-5.167-2.916-3.959,7.393a18.009,18.009,0,0,0,6.892-.173Z" transform="translate(-3013.679 -11307.479)" fill="#7f3e3b"/>
      <path id="Trazado_146937" data-name="Trazado 146937" d="M3028.765,11374.313l-2.875,6.522,3.828.9,3.96-7.418Z" transform="translate(-3012.84 -11307.479)" fill="#7f3e3b"/>
      <path id="Trazado_146938" data-name="Trazado 146938" d="M3062.24,11574.354l-.55,7.738,6.35,1.19.551-7.738Z" transform="translate(-3019.231 -11343.191)" fill="#344154" opacity="0.2" style="isolation: isolate"/>
      <path id="Trazado_146939" data-name="Trazado 146939" d="M3117.435,11575.674h-6.465l.838,7.713h6.457Z" transform="translate(-3028.029 -11343.428)" fill="#344154" opacity="0.2" style="isolation: isolate"/>
      <path id="Trazado_146940" data-name="Trazado 146940" d="M3114.4,11346.734a145.664,145.664,0,0,0-4.107,21.253c-.616,5-.978,9.774-1.208,14.112-.542,10.152-.312,17.892-.616,20.536-5.052-.345-24.086-1.643-34.5-2.4-4.691-36.745,4.271-55.672,4.271-55.672a67.148,67.148,0,0,1,8.215-1.026c.583,0,1.183-.058,1.782-.066a127.681,127.681,0,0,1,14.655,1.019c.92.107,1.856.246,2.76.4A85.821,85.821,0,0,1,3114.4,11346.734Z" transform="translate(-3021.18 -11301.974)" fill="#d9a171"/>
      <g id="Grupo_92150" data-name="Grupo 92150" transform="translate(51.427 41.5)" opacity="0.3">
        <path id="Trazado_146941" data-name="Trazado 146941" d="M3114.4,11346.734a145.664,145.664,0,0,0-4.107,21.253c-.616,5-.978,9.774-1.208,14.112-.542,10.152-.312,17.892-.616,20.536-5.052-.345-24.086-1.643-34.5-2.4-4.691-36.745,4.271-55.672,4.271-55.672a67.148,67.148,0,0,1,8.215-1.026c.583,0,1.183-.058,1.782-.066a127.681,127.681,0,0,1,14.655,1.019c.92.107,1.856.246,2.76.4A85.821,85.821,0,0,1,3114.4,11346.734Z" transform="translate(-3072.606 -11343.474)" fill="#fff" stroke="#5e6178" stroke-miterlimit="10" stroke-width="0"/>
      </g>
      <path id="Trazado_146942" data-name="Trazado 146942" d="M3112.89,11358.764a27.1,27.1,0,0,0,4.263,14.935c.1-.986.214-1.98.337-2.981.46-3.763,1.051-7.655,1.832-11.591Z" transform="translate(-3028.371 -11304.702)" fill="#344154" opacity="0.2" style="isolation: isolate"/>
      <path id="Trazado_146943" data-name="Trazado 146943" d="M3105.949,11324.474c-1.249,4.658-2.776,13.227.3,16.6a14.686,14.686,0,0,1-11.615,3.705c-4.05-.37-4.05-3.22-3.04-4.724,5.348-.888,5.479-4.8,4.822-8.526Z" transform="translate(-3024.47 -11298.581)" fill="#7f3e3b"/>
      <path id="Trazado_146944" data-name="Trazado 146944" d="M3091.81,11350.748a10.523,10.523,0,0,0,.51,2.128,1.084,1.084,0,0,0,1.035.756,10.006,10.006,0,0,1,2.012.172,1.048,1.048,0,0,0,.822-.148c.822-.518,1.873-1.281,1.6-2.234-.321-1.116-2.243-2.127-2.243-2.127S3092.245,11350.107,3091.81,11350.748Z" transform="translate(-3024.608 -11303.013)" fill="#344154"/>
      <path id="Trazado_146945" data-name="Trazado 146945" d="M3092.872,11353.654c-1.323,2.892-4.378,21.407-4.756,24.209s.912,7.319,2.7,10.908a17.611,17.611,0,0,0,3.368-9.686c.238-3.827.468-24.973.468-24.973Z" transform="translate(-3023.937 -11303.791)" fill="#344154"/>
      <path id="Trazado_146946" data-name="Trazado 146946" d="M3096.33,11348.35a12.131,12.131,0,0,1,2.974,3.681c2.078-.164,11.254-4.189,9.948-7.3-1.142-.319-2.144-.977-2.464-.64C3106.352,11344.76,3102.458,11347.109,3096.33,11348.35Z" transform="translate(-3025.415 -11302.068)" fill="#fff" stroke="#5e6178" stroke-miterlimit="10" stroke-width="0"/>
      <path id="Trazado_146947" data-name="Trazado 146947" d="M3094.875,11348.155s-3.524,1.191-4.346,3.2c-2.128-.944-3.286-5.208-1.4-8.01,1.175-.1,2.3-.682,2.513-.295C3091.967,11343.777,3091.071,11345.739,3094.875,11348.155Z" transform="translate(-3023.96 -11301.874)" fill="#fff" stroke="#5e6178" stroke-miterlimit="10" stroke-width="0"/>
      <path id="Trazado_146948" data-name="Trazado 146948" d="M3103.233,11327.984l-5.643,4.164a14.562,14.562,0,0,1,.271,2.637c2.029-.146,4.929-2.161,5.307-4.246A6.97,6.97,0,0,0,3103.233,11327.984Z" transform="translate(-3025.64 -11299.208)" fill="#344154" opacity="0.2" style="isolation: isolate"/>
      <path id="Trazado_146949" data-name="Trazado 146949" d="M3092.1,11306.212c-2.464.97-3.376,10.506,1.643,9.57S3097.059,11304.265,3092.1,11306.212Z" transform="translate(-3024.304 -11295.278)" fill="#344154"/>
      <path id="Trazado_146950" data-name="Trazado 146950" d="M3108.092,11315.357c-2.013,6.086-2.875,9.75-6.835,12.107-5.964,3.541-12.856-1.3-12.708-7.869.131-5.906,3.393-14.877,10.1-15.738a8.739,8.739,0,0,1,9.439,11.5Z" transform="translate(-3024.026 -11294.887)" fill="#7f3e3b"/>
      <path id="Trazado_146951" data-name="Trazado 146951" d="M3105.514,11317.615c-2.555.05-4.649-7.688.5-9.858-4.058-.468-16.52.214-18.754-5.355s6.432-6.433,9.381-4.33c-.937-3.063,2.875-7.581,9.726-3.475s6.769,9.177,6.128,10.68c3.056.821,3.656,7.623.279,8.535,1.98,2.743.271,8.51-5.068,7.278-.181,3.359-3.927,1.89-3.7-.69S3105.514,11317.615,3105.514,11317.615Z" transform="translate(-3023.731 -11292.954)" fill="#344154"/>
      <path id="Trazado_146952" data-name="Trazado 146952" d="M3095.673,11324.543h0a4.725,4.725,0,0,0,4.247-.821.173.173,0,0,0,0-.238.164.164,0,0,0-.23,0,4.444,4.444,0,0,1-3.943.821.156.156,0,0,0-.195.1l0,.011A.157.157,0,0,0,3095.673,11324.543Z" transform="translate(-3025.276 -11298.396)" fill="#344154"/>
      <path id="Trazado_146953" data-name="Trazado 146953" d="M3112.5,11324.689a6.122,6.122,0,0,1-4.362,1.643c-2.136-.09-2.547-2.16-1.4-3.827,1.035-1.5,3.385-3.287,5.257-2.375a2.736,2.736,0,0,1,.509,4.56Z" transform="translate(-3027.162 -11297.762)" fill="#7f3e3b"/>
      <path id="Trazado_146954" data-name="Trazado 146954" d="M3058.765,11550.7l10.679,2.521s3.778-41.606,7.023-64.468c.863-6.062,2.193-14.59,4.223-23.676,2.554-11.442,5.75-23.822,8.4-33.515,2.769-10.211,4.879-17.432,4.879-17.432l-22.656-1.587s-12.265,53.479-13.562,73.111C3056.358,11506.143,3058.765,11550.7,3058.765,11550.7Z" transform="translate(-3018.45 -11314.303)" fill="#344154"/>
      <path id="Trazado_146955" data-name="Trazado 146955" d="M3085.631,11468.108c2.555-11.442,5.75-23.822,8.4-33.516l-2.357-5.068C3086.074,11436.2,3084.563,11456.879,3085.631,11468.108Z" transform="translate(-3023.448 -11317.336)" fill="#344154" opacity="0.2" style="isolation: isolate"/>
      <path id="Trazado_146956" data-name="Trazado 146956" d="M3089.19,11413.584s2.464,55.3,5.175,74.032c2.982,20.536,10.564,65.34,10.564,65.34h11.837s-3.286-42.61-5.512-62.7c-2.538-22.878.173-75.124.173-75.124Z" transform="translate(-3024.141 -11314.49)" fill="#344154"/>
      <path id="Trazado_146957" data-name="Trazado 146957" d="M3106.45,11582.59h13.932l.616-4.166-15.378-.271Z" transform="translate(-3027.074 -11343.871)" fill="#d9a171"/>
      <path id="Trazado_146958" data-name="Trazado 146958" d="M3058.178,11580.6l12.133,2.284,1.372-4.231-13.833-2.62Z" transform="translate(-3018.545 -11343.493)" fill="#d9a171"/>
      <path id="Trazado_146959" data-name="Trazado 146959" d="M3100.684,11317.051c-.14.5-.509.821-.822.755s-.493-.567-.361-1.067.51-.822.822-.756S3100.815,11316.549,3100.684,11317.051Z" transform="translate(-3025.973 -11297.063)" fill="#344154"/>
      <path id="Trazado_146960" data-name="Trazado 146960" d="M3093.745,11315.228c-.131.5-.51.822-.822.747s-.485-.558-.353-1.067.509-.821.821-.755S3093.876,11314.719,3093.745,11315.228Z" transform="translate(-3024.736 -11296.737)" fill="#344154"/>
      <path id="Trazado_146961" data-name="Trazado 146961" d="M3094.781,11316.035a18.911,18.911,0,0,1-3.541,3.68c.665,1.06,2.382.97,2.382.97Z" transform="translate(-3024.507 -11297.075)" fill="#630f0f"/>
      <path id="Trazado_146962" data-name="Trazado 146962" d="M3102.632,11314.8a.3.3,0,0,1-.263-.188,2.462,2.462,0,0,0-1.643-1.487.305.305,0,0,1,.115-.6h0a3.038,3.038,0,0,1,2.086,1.857.3.3,0,0,1-.157.4l-.007,0A.3.3,0,0,1,3102.632,11314.8Z" transform="translate(-3026.156 -11296.445)" fill="#344154"/>
      <path id="Trazado_146963" data-name="Trazado 146963" d="M3091.023,11311.632a.349.349,0,0,1-.173-.074.306.306,0,0,1-.006-.431l.006,0a3.034,3.034,0,0,1,2.563-1.11.321.321,0,0,1,.263.345.313.313,0,0,1-.345.264h0a2.464,2.464,0,0,0-2.021.9A.315.315,0,0,1,3091.023,11311.632Z" transform="translate(-3024.42 -11295.999)" fill="#344154"/>
      <path id="Trazado_146964" data-name="Trazado 146964" d="M3109.359,11593.987a1.971,1.971,0,0,1-1.249-.329.92.92,0,0,1-.312-.821.457.457,0,0,1,.263-.427c.715-.37,2.793.911,3.031,1.06a.14.14,0,0,1,.066.147.146.146,0,0,1-.115.131A7.664,7.664,0,0,1,3109.359,11593.987Zm-.961-1.34a.363.363,0,0,0-.2.041c-.041,0-.09.059-.1.182a.62.62,0,0,0,.205.551,3.126,3.126,0,0,0,2.292.114,6.188,6.188,0,0,0-2.21-.888Z" transform="translate(-3027.461 -11346.405)" fill="#d9a171"/>
      <path id="Trazado_146965" data-name="Trazado 146965" d="M3111.285,11593.439h-.073c-.666-.362-1.964-1.783-1.824-2.465a.5.5,0,0,1,.485-.4.819.819,0,0,1,.657.2c.747.607.9,2.465.912,2.555a.161.161,0,0,1-.074.139A.143.143,0,0,1,3111.285,11593.439Zm-1.306-2.621h-.066c-.2,0-.214.115-.222.156-.082.419.739,1.5,1.4,2a3.625,3.625,0,0,0-.764-2.021A.534.534,0,0,0,3109.979,11590.818Z" transform="translate(-3027.745 -11346.086)" fill="#d9a171"/>
      <path id="Trazado_146966" data-name="Trazado 146966" d="M3059.463,11591.444h0c-1.06,0-2.925-.042-3.516-.773a.861.861,0,0,1-.156-.821.484.484,0,0,1,.312-.353c.822-.287,3.188,1.438,3.45,1.643a.141.141,0,0,1,.049.165A.156.156,0,0,1,3059.463,11591.444Zm-3.237-1.644h0a.181.181,0,0,0-.124.147.552.552,0,0,0,.1.51c.329.419,1.364.656,2.809.666-.978-.641-2.292-1.422-2.785-1.314Z" transform="translate(-3018.17 -11345.891)" fill="#d9a171"/>
      <path id="Trazado_146967" data-name="Trazado 146967" d="M3059.858,11591.19a.178.178,0,0,1-.115,0c-.706-.477-1.988-2.12-1.75-2.818.058-.164.214-.354.633-.329a1.14,1.14,0,0,1,.821.4,4.364,4.364,0,0,1,.567,2.63.146.146,0,0,1-.082.122Zm-1.429-2.853a.141.141,0,0,0-.148.107c-.14.42.706,1.685,1.4,2.285a3.53,3.53,0,0,0-.5-2.1.816.816,0,0,0-.575-.295A.419.419,0,0,0,3058.429,11588.338Z" transform="translate(-3018.566 -11345.636)" fill="#d9a171"/>
      <path id="Trazado_146968" data-name="Trazado 146968" d="M3077.9,11382.157l-2.62-1.872-42.963,60.14,2.62,1.873a36.966,36.966,0,0,0,42.963-60.141Z" transform="translate(-3013.988 -11308.546)" fill="#d9a171"/>
      <path id="Trazado_146969" data-name="Trazado 146969" d="M3077.9,11382.157l-2.62-1.872-42.963,60.14,2.62,1.873a36.966,36.966,0,0,0,42.963-60.141Z" transform="translate(-3013.988 -11308.546)" fill="#344154" opacity="0.1" style="isolation: isolate"/>
      <path id="Trazado_146970" data-name="Trazado 146970" d="M3010.288,11419.316a39.694,39.694,0,0,1,1.109-15.172l.822.215a38.746,38.746,0,0,0-1.084,14.867Z" transform="translate(-3010.003 -11312.806)" fill="#d9a171"/>
      <path id="Trazado_146971" data-name="Trazado 146971" d="M3013,11433.395a39.808,39.808,0,0,1-1.766-5.75l.821-.181a39.665,39.665,0,0,0,1.733,5.619Z" transform="translate(-3010.223 -11316.968)" fill="#d9a171"/>
      <circle id="Elipse_4329" data-name="Elipse 4329" cx="36.95" cy="36.95" r="36.95" transform="translate(2.878 64.848)" fill="#d9a171"/>
      <path id="Trazado_146972" data-name="Trazado 146972" d="M3046.313,11422.51l5.8-8.108a13.136,13.136,0,0,1-3.228-7.262,10.15,10.15,0,0,1,2.045-6.571,9.3,9.3,0,0,1,5.816-3.9,9.953,9.953,0,0,1,7.114,1.323l1.4-1.955,2.81,2-1.4,1.955a10.209,10.209,0,0,1,3.4,5.6,10.005,10.005,0,0,1-.986,6.3l-5.356-2.858a4.871,4.871,0,0,0-.115-4.765l-5.405,7.574q3.746,4.583,4,7.787a9.488,9.488,0,0,1-1.988,6.342,10.575,10.575,0,0,1-6.342,4.395,11.5,11.5,0,0,1-8-1.265l-1.4,1.955-2.81-2,1.331-1.865a10.988,10.988,0,0,1-3.656-6.383,12.628,12.628,0,0,1,1.544-7.82l5.447,3.072a7.9,7.9,0,0,0-.748,3.5A6.569,6.569,0,0,0,3046.313,11422.51Zm14.524-20.332a4.459,4.459,0,0,0-2.76,0,4.178,4.178,0,0,0-2.144,1.57,4.025,4.025,0,0,0-.74,2.349,5.262,5.262,0,0,0,.822,2.77Zm-11.912,22.616a4.853,4.853,0,0,0,3.286.337,4.667,4.667,0,0,0,2.719-1.874,4.227,4.227,0,0,0,.821-2.784,6.046,6.046,0,0,0-1.479-3.237Z" transform="translate(-3015.222 -11311.357)" fill="#fff" stroke="#5e6178" stroke-miterlimit="10" stroke-width="0"/>
      <path id="Trazado_146973" data-name="Trazado 146973" d="M3081.861,11407.275a30.1,30.1,0,0,0-59.269,9.857,30.1,30.1,0,1,1,59.269-9.857Z" transform="translate(-3012.113 -11308.544)" fill="#344154" opacity="0.1" style="isolation: isolate"/>
      <path id="Trazado_146974" data-name="Trazado 146974" d="M3122.109,11351.743c.821,1.044,1.5,1.98,2.193,3s1.364,2,2.021,3.015c1.306,2.037,2.547,4.107,3.7,6.268s2.218,4.37,3.187,6.654l.707,1.733.641,1.782c.213.584.394,1.208.583,1.815l.271.921.074.229.123.5a7.755,7.755,0,0,1,.165,1.035,8.733,8.733,0,0,1-.452,3.417,12.214,12.214,0,0,1-1.109,2.365,21.631,21.631,0,0,1-2.6,3.418,45.913,45.913,0,0,1-5.627,5.068,82.556,82.556,0,0,1-12.174,7.714l-2.662-4.059c3.442-2.933,6.884-6.021,10-9.15a45.282,45.282,0,0,0,4.206-4.8,13.241,13.241,0,0,0,1.413-2.275,4.156,4.156,0,0,0,.279-.821h0a.45.45,0,0,0,0,.181.611.611,0,0,0,0,.073l-.074-.181-.287-.723c-.2-.492-.37-.978-.6-1.463l-.657-1.453-.7-1.454c-.978-1.93-2.021-3.853-3.155-5.75s-2.308-3.786-3.532-5.645c-.6-.936-1.224-1.864-1.848-2.776l-1.873-2.669Z" transform="translate(-3028.061 -11303.448)" fill="#7f3e3b"/>
      <path id="Trazado_146975" data-name="Trazado 146975" d="M3121.323,11347.388c6.054,1.224,11.369,16.027,11.369,16.027l-12.634,10.294s-4.107-7.525-7.459-14.787C3108.993,11351.011,3113.988,11345.909,3121.323,11347.388Z" transform="translate(-3028.106 -11302.625)" fill="#d9a171"/>
      <g id="Grupo_92151" data-name="Grupo 92151" transform="translate(83.294 44.507)" opacity="0.3">
        <path id="Trazado_146976" data-name="Trazado 146976" d="M3121.323,11347.388c6.054,1.224,11.369,16.027,11.369,16.027l-12.634,10.294s-4.107-7.525-7.459-14.787C3108.993,11351.011,3113.988,11345.909,3121.323,11347.388Z" transform="translate(-3111.4 -11347.133)" fill="#fff" stroke="#5e6178" stroke-miterlimit="10" stroke-width="0"/>
      </g>
      <path id="Trazado_146977" data-name="Trazado 146977" d="M3111.552,11405.684l-6.522.715,4.23,7.081s5.422-1.841,4.764-4.812Z" transform="translate(-3026.969 -11313.079)" fill="#7f3e3b"/>
      <path id="Trazado_146978" data-name="Trazado 146978" d="M3100.3,11410.291l3.771,5.693,4.346-2.349-4.231-7.082Z" transform="translate(-3026.124 -11313.235)" fill="#7f3e3b"/>
    </g>
  </g>
</svg>
