<svg xmlns="http://www.w3.org/2000/svg" xmlns:xlink="http://www.w3.org/1999/xlink" width="342" height="342" viewBox="0 0 342 342">
  <defs>
    <clipPath id="clip-path">
      <rect id="Rectángulo_31844" data-name="Rectángulo 31844" width="80.793" height="57.626" fill="none"/>
    </clipPath>
    <clipPath id="clip-path-2">
      <rect id="Rectángulo_31848" data-name="Rectángulo 31848" width="84.634" height="21.578" fill="none"/>
    </clipPath>
    <clipPath id="clip-path-3">
      <path id="Trazado_143026" data-name="Trazado 143026" d="M7677.312,3196.3s-14.381,1.274-17.079,2.9-8.854,2.232-8.854,2.232a26.555,26.555,0,0,1,0,15.784l2.526,2.205s4.7-.445,5.78,0,12.258,3.691,12.258,3.691" transform="translate(-7651.378 -3196.304)" fill="none"/>
    </clipPath>
    <clipPath id="clip-path-4">
      <path id="Trazado_143040" data-name="Trazado 143040" d="M7722.8,3273.861s4.719,12.771,2.1,20.859-21.393,14.066-25.563,14.066-37.52-8.341-37.52-8.341l-1.671,1.829-5.136-2.089,8.088,37.281s3.91,2.089,0,3.39-18.771,1.308-19.031,0a13.579,13.579,0,0,1,0-3.39l-2.2-4.17s.4-7.3,0-8.341-17.086-35.733-10.074-44.074,48.621-1.568,48.621-1.568l5.307-5.479Z" transform="translate(-7630.068 -3273.834)" fill="none"/>
    </clipPath>
    <clipPath id="clip-path-5">
      <path id="Trazado_143045" data-name="Trazado 143045" d="M7669.956,3216.3c6.375,11.046,22.762,28.275,22.762,28.275s-1.027,1.561,1.247,4.431a4.4,4.4,0,0,0-1.247,2.643c-.137,1.561,13.34,9.382,26.119,7.3s18.25-5.738,18.489-8.348-12.929-37.458-21.791-48.148a41.981,41.981,0,0,0-24.146-7.772c-10.23-.055-18.209,3.322-21.831,8.341" transform="translate(-7669.558 -3194.683)" fill="none"/>
    </clipPath>
    <clipPath id="clip-path-6">
      <path id="Trazado_143082" data-name="Trazado 143082" d="M7731.019,3300.143c-1.041,4.951-4.951,11.881-6.512,14.75s-8.088,25.564-8.088,25.564.26,4.17-5.731,5.211-17.36-2.863-14.34-4.7,6.28-22.852,6.28-22.852-1.6-2.862,1.322-7.087,3.157-28.269,8.834-29.926c9.909-2.863,21.482,3.307,21.482,3.307a7.33,7.33,0,0,1,4.355,4.007" transform="translate(-7695.846 -3280.348)" fill="none"/>
    </clipPath>
    <clipPath id="clip-path-7">
      <path id="Trazado_143102" data-name="Trazado 143102" d="M7556.378,3110.217h-12.231l.583-12.326a2.246,2.246,0,0,1,2.239-2.137h6.588a2.246,2.246,0,0,1,2.239,2.137Z" transform="translate(-7544.147 -3095.754)" fill="none"/>
    </clipPath>
  </defs>
  <g id="Grupo_89349" data-name="Grupo 89349" transform="translate(-7360.169 -2956.726)">
    <g id="freepik--Floor--inject-397" transform="translate(7383.687 3253.826)">
      <line id="Línea_1939" data-name="Línea 1939" x2="298.546" fill="none" stroke="#263238" stroke-linecap="round" stroke-linejoin="round" stroke-width="1"/>
    </g>
    <g id="freepik--Character--inject-397" transform="translate(7538.176 3083.427)">
      <rect id="Rectángulo_31843" data-name="Rectángulo 31843" width="80.793" height="57.626" transform="translate(28.77 112.773)" fill="#6595bf"/>
      <g id="Grupo_89330" data-name="Grupo 89330" transform="translate(28.77 112.773)">
        <g id="Grupo_89329" data-name="Grupo 89329" clip-path="url(#clip-path)">
          <g id="Grupo_89328" data-name="Grupo 89328" transform="translate(0 20.941)">
            <path id="Trazado_143013" data-name="Trazado 143013" d="M7662.2,3373.8h41.869v-32.912L7743,3339.2v-2.1h-80.8Z" transform="translate(-7662.198 -3337.104)" fill="rgba(0,0,0,0.7)" opacity="0.3" style="isolation: isolate"/>
          </g>
        </g>
      </g>
      <rect id="Rectángulo_31845" data-name="Rectángulo 31845" width="80.793" height="57.626" transform="translate(28.77 112.773)" fill="none" stroke="#263238" stroke-linecap="round" stroke-linejoin="round" stroke-width="1"/>
      <rect id="Rectángulo_31846" data-name="Rectángulo 31846" width="84.634" height="21.578" transform="translate(26.853 111.951)" fill="#6595bf"/>
      <g id="Grupo_89333" data-name="Grupo 89333" transform="translate(26.853 111.951)">
        <g id="Grupo_89332" data-name="Grupo 89332" clip-path="url(#clip-path-2)">
          <g id="Grupo_89331" data-name="Grupo 89331">
            <rect id="Rectángulo_31847" data-name="Rectángulo 31847" width="44.868" height="21.578" fill="rgba(0,0,0,0.7)" opacity="0.3" style="isolation: isolate"/>
          </g>
        </g>
      </g>
      <rect id="Rectángulo_31849" data-name="Rectángulo 31849" width="84.634" height="21.578" transform="translate(26.853 111.951)" fill="none" stroke="#263238" stroke-linecap="round" stroke-linejoin="round" stroke-width="1"/>
      <path id="Trazado_143014" data-name="Trazado 143014" d="M7724.918,3328.644v3.006" transform="translate(-7653.197 -3200.723)" fill="none" stroke="#263238" stroke-linecap="round" stroke-linejoin="round" stroke-width="1"/>
      <path id="Trazado_143015" data-name="Trazado 143015" d="M7724.918,3319.924v3.335" transform="translate(-7653.197 -3197.975)" fill="none" stroke="#263238" stroke-linecap="round" stroke-linejoin="round" stroke-width="1"/>
      <path id="Trazado_143016" data-name="Trazado 143016" d="M7724.918,3305.324v7.615" transform="translate(-7653.197 -3193.372)" fill="none" stroke="#263238" stroke-linecap="round" stroke-linejoin="round" stroke-width="1"/>
      <line id="Línea_1940" data-name="Línea 1940" y2="1.246" transform="translate(70.639 166.687)" fill="none" stroke="#263238" stroke-linecap="round" stroke-linejoin="round" stroke-width="1"/>
      <line id="Línea_1941" data-name="Línea 1941" y2="15.716" transform="translate(70.639 148.266)" fill="none" stroke="#263238" stroke-linecap="round" stroke-linejoin="round" stroke-width="1"/>
      <line id="Línea_1942" data-name="Línea 1942" y2="9.005" transform="translate(70.639 133.707)" fill="none" stroke="#263238" stroke-linecap="round" stroke-linejoin="round" stroke-width="1"/>
      <rect id="Rectángulo_31850" data-name="Rectángulo 31850" width="4.061" height="10.751" transform="translate(92.539 128.941)" fill="#bfbfbf" stroke="#263238" stroke-linecap="round" stroke-linejoin="round" stroke-width="1"/>
      <path id="Trazado_143017" data-name="Trazado 143017" d="M7657.434,3191.269c-4.314,1.794-23.454,3.883-23.454,3.883a107.452,107.452,0,0,1,11.012-18.811l-5.637-3.767s-14.888,16.018-18.551,27.3c0,0-1.1,5.1-.37,5.827s6.848,2.986,18.414,3.842,19.859,1.068,19.859,1.068" transform="translate(-7620.185 -3151.529)" fill="#fff" stroke="#263238" stroke-linecap="round" stroke-linejoin="round" stroke-width="1"/>
      <path id="Trazado_143018" data-name="Trazado 143018" d="M7642.378,3171.362s4.4,4.259,7.923,4.04l2.739-4.307s8.786-4.376,7.779-6.567-1.9-.685-1.9-.685l3.89-2.623s-4.869-2.9-5.9-2.89-3.678-.493-5.438.233-4.971,8.478-4.971,8.478Z" transform="translate(-7627.18 -3146.989)" fill="#d9a171" stroke="#263238" stroke-linecap="round" stroke-linejoin="round" stroke-width="1"/>
      <path id="Trazado_143019" data-name="Trazado 143019" d="M7656.578,3172.322a5.212,5.212,0,0,0,2.506-2.054c.617-1.315,0-3.794,0-3.794" transform="translate(-7631.656 -3149.607)" fill="#d9a171" stroke="#263238" stroke-linecap="round" stroke-linejoin="round" stroke-width="1"/>
      <path id="Trazado_143020" data-name="Trazado 143020" d="M7659.087,3164.244a2.562,2.562,0,0,0,3.424.726" transform="translate(-7632.447 -3148.904)" fill="#d9a171" stroke="#263238" stroke-linecap="round" stroke-linejoin="round" stroke-width="1"/>
      <path id="Trazado_143021" data-name="Trazado 143021" d="M7661.168,3162.6a39.272,39.272,0,0,1,3.643,2.623" transform="translate(-7633.104 -3148.387)" fill="#d9a171" stroke="#263238" stroke-linecap="round" stroke-linejoin="round" stroke-width="1"/>
      <path id="Trazado_143022" data-name="Trazado 143022" d="M7667.631,3163.684l-2.863-2.369" transform="translate(-7634.237 -3147.981)" fill="#d9a171" stroke="#263238" stroke-linecap="round" stroke-linejoin="round" stroke-width="1"/>
      <path id="Trazado_143023" data-name="Trazado 143023" d="M7639.252,3205.544a17.119,17.119,0,0,1-2.294,7.8" transform="translate(-7625.472 -3161.922)" fill="none" stroke="#263238" stroke-linecap="round" stroke-linejoin="round" stroke-width="1"/>
      <path id="Trazado_143024" data-name="Trazado 143024" d="M7677.312,3196.3s-14.381,1.274-17.079,2.9-8.854,2.232-8.854,2.232a26.555,26.555,0,0,1,0,15.784l2.526,2.205s4.7-.445,5.78,0,12.258,3.691,12.258,3.691" transform="translate(-7630.018 -3159.009)" fill="#d9a171"/>
      <g id="Grupo_89336" data-name="Grupo 89336" transform="translate(21.361 37.295)">
        <g id="Grupo_89335" data-name="Grupo 89335" clip-path="url(#clip-path-3)">
          <g id="Grupo_89334" data-name="Grupo 89334" transform="translate(1.109 10.602)">
            <path id="Trazado_143025" data-name="Trazado 143025" d="M7667.886,3226.658c-3.219-.952-7.074-2.1-7.69-2.356-1.082-.445-5.779,0-5.779,0l-1.418-1.24c2.055-3.027,3.28-6.848,4.109-6.848.444,0,1.41,1.24,2.314,2.644-.686-4.349.855-10.087,1.623-5.2C7661.612,3217.242,7665.037,3222.687,7667.886,3226.658Z" transform="translate(-7652.998 -3211.786)" opacity="0.2" style="isolation: isolate"/>
          </g>
        </g>
      </g>
      <path id="Trazado_143027" data-name="Trazado 143027" d="M7677.312,3196.3s-14.381,1.274-17.079,2.9-8.854,2.232-8.854,2.232a26.555,26.555,0,0,1,0,15.784l2.526,2.205s4.7-.445,5.78,0,12.258,3.691,12.258,3.691" transform="translate(-7630.018 -3159.009)" fill="none" stroke="#263238" stroke-linecap="round" stroke-linejoin="round" stroke-width="1"/>
      <path id="Trazado_143028" data-name="Trazado 143028" d="M7658.649,3359s5.342,15.531,5.109,20.407c0,0-8.7,2.171-13.135,1.63s-13.285.171-17.983.082-5.238-1.171-5.238-1.171-.363-1.986,2.739-3.787,15.531-2.739,16.613-11.751S7658.649,3359,7658.649,3359Z" transform="translate(-7622.456 -3210.066)" fill="#bfbfbf" stroke="#263238" stroke-linecap="round" stroke-linejoin="round" stroke-width="1"/>
      <path id="Trazado_143029" data-name="Trazado 143029" d="M7722.8,3273.861s4.719,12.771,2.1,20.859-21.393,14.066-25.563,14.066-37.52-8.341-37.52-8.341l-1.671,1.829-5.136-2.089,8.088,37.281s3.91,2.089,0,3.39-18.771,1.308-19.031,0a13.579,13.579,0,0,1,0-3.39l-2.2-4.17s.4-7.3,0-8.341-17.086-35.733-10.074-44.074,48.621-1.568,48.621-1.568l5.307-5.479Z" transform="translate(-7623.301 -3183.447)" fill="#344154"/>
      <g id="Grupo_89339" data-name="Grupo 89339" transform="translate(6.768 90.387)">
        <g id="Grupo_89338" data-name="Grupo 89338" clip-path="url(#clip-path-4)">
          <g id="Grupo_89337" data-name="Grupo 89337" transform="translate(10.827 0.027)">
            <path id="Trazado_143030" data-name="Trazado 143030" d="M7667.988,3301.539l4.109,1.671,1.671-1.828s33.35,8.375,37.52,8.375,22.948-5.992,25.564-14.08a14.553,14.553,0,0,0,.472-1.911c-2.869,2.835-8.43,7.7-14.271,9.368,0,0,1.705-1.787-2.828-2.739s-18.442-23-18.442-23l-6.094-.479-3.328,3.4s-6.417-1.048-14.635-1.808A219.916,219.916,0,0,1,7667.988,3301.539Z" transform="translate(-7652.847 -3274.832)" opacity="0.2" style="isolation: isolate"/>
            <path id="Trazado_143031" data-name="Trazado 143031" d="M7646.844,3337.854c.4,1.041,0,8.341,0,8.341l2.205,4.17a13.534,13.534,0,0,0,0,3.39c.26,1.3,15.121,1.3,19.031,0s0-3.39,0-3.39l-7.718-35.562c-4.109,8.074-9.108,16.052-14.484,20.914C7646.433,3336.95,7646.789,3337.71,7646.844,3337.854Z" transform="translate(-7645.878 -3286.775)" opacity="0.2" style="isolation: isolate"/>
            <path id="Trazado_143032" data-name="Trazado 143032" d="M7666.488,3308.915s2.363-4.266,1.048-7.341" transform="translate(-7652.374 -3282.605)" fill="none" stroke="#fff" stroke-linecap="round" stroke-linejoin="round" stroke-width="1"/>
            <path id="Trazado_143033" data-name="Trazado 143033" d="M7664.928,3302.874a24.049,24.049,0,0,1,.171,3.787" transform="translate(-7651.882 -3283.015)" fill="none" stroke="#fff" stroke-linecap="round" stroke-linejoin="round" stroke-width="1"/>
            <path id="Trazado_143034" data-name="Trazado 143034" d="M7663.358,3295.694a24.758,24.758,0,0,1,.726,2.773" transform="translate(-7651.388 -3280.752)" fill="none" stroke="#fff" stroke-linecap="round" stroke-linejoin="round" stroke-width="1"/>
            <path id="Trazado_143035" data-name="Trazado 143035" d="M7654.259,3320.984s-.219,12.422-6.971,18.818" transform="translate(-7646.322 -3288.723)" fill="none" stroke="#fff" stroke-linecap="round" stroke-linejoin="round" stroke-width="1"/>
            <path id="Trazado_143036" data-name="Trazado 143036" d="M7657.685,3355.744c-1.829,2.739-4.067,6.095-7.177,7.533" transform="translate(-7647.337 -3299.679)" fill="none" stroke="#fff" stroke-linecap="round" stroke-linejoin="round" stroke-width="1"/>
            <path id="Trazado_143037" data-name="Trazado 143037" d="M7663.773,3350.294c-.349.644-.719,1.274-1.095,1.9" transform="translate(-7651.174 -3297.962)" fill="none" stroke="#fff" stroke-linecap="round" stroke-linejoin="round" stroke-width="1"/>
            <path id="Trazado_143038" data-name="Trazado 143038" d="M7763.2,3281.14a55.538,55.538,0,0,0-2.007-7.266h-1.623l-7.662,4.452S7750.518,3281.66,7763.2,3281.14Z" transform="translate(-7679.285 -3273.874)" opacity="0.2" style="isolation: isolate"/>
            <path id="Trazado_143039" data-name="Trazado 143039" d="M7759.8,3287.225a14.891,14.891,0,0,0-7.875-1.027" transform="translate(-7679.305 -3277.699)" fill="none" stroke="#fff" stroke-linecap="round" stroke-linejoin="round" stroke-width="1"/>
          </g>
        </g>
      </g>
      <path id="Trazado_143041" data-name="Trazado 143041" d="M7722.8,3273.861s4.719,12.771,2.1,20.859-21.393,14.066-25.563,14.066-37.52-8.341-37.52-8.341l-1.671,1.829-5.136-2.089,8.088,37.281s3.91,2.089,0,3.39-18.771,1.308-19.031,0a13.579,13.579,0,0,1,0-3.39l-2.2-4.17s.4-7.3,0-8.341-17.086-35.733-10.074-44.074,48.621-1.568,48.621-1.568l5.307-5.479Z" transform="translate(-7623.301 -3183.447)" fill="none" stroke="#263238" stroke-miterlimit="10" stroke-width="1"/>
      <path id="Trazado_143042" data-name="Trazado 143042" d="M7704.195,3370.385s.726,4.492,0,5.307-2.184,10.388-2.184,10.388-18.9,2.938-24.53,2.534c-7.533-.542-9.293-2.739-9.293-2.739s-.13-2.89,6.958-5.157c8.745-2.794,15.483-12.135,15.483-12.135Z" transform="translate(-7635.315 -3213.312)" fill="#bfbfbf" stroke="#263238" stroke-linecap="round" stroke-linejoin="round" stroke-width="1"/>
      <path id="Trazado_143043" data-name="Trazado 143043" d="M7669.956,3216.3c6.375,11.046,22.762,28.275,22.762,28.275s-1.027,1.561,1.247,4.431a4.4,4.4,0,0,0-1.247,2.643c-.137,1.561,13.34,9.382,26.119,7.3s18.25-5.738,18.489-8.348-12.929-37.458-21.791-48.148a41.981,41.981,0,0,0-24.146-7.772c-10.23-.055-18.209,3.322-21.831,8.341" transform="translate(-7635.748 -3158.498)" fill="#d9a171"/>
      <g id="Grupo_89342" data-name="Grupo 89342" transform="translate(33.811 36.185)">
        <g id="Grupo_89341" data-name="Grupo 89341" clip-path="url(#clip-path-5)">
          <g id="Grupo_89340" data-name="Grupo 89340" transform="translate(23.159 29.463)">
            <path id="Trazado_143044" data-name="Trazado 143044" d="M7731.715,3272.062c-.685.137-1.452.274-2.219.4-12.779,2.054-26.255-5.739-26.118-7.3a4.4,4.4,0,0,1,1.246-2.609c-.082-.109-.165-.212-.232-.315,6.238-1.205,11.95-4.554,9.327-4.437-3.6.164-5.8-.371-1.876-2.706s2.938-16.23,2.938-16.23,7.957-6.163,16.271,9.991C7738.9,3264.1,7735.46,3267.9,7731.715,3272.062Z" transform="translate(-7703.377 -3237.707)" opacity="0.2" style="isolation: isolate"/>
          </g>
        </g>
      </g>
      <path id="Trazado_143046" data-name="Trazado 143046" d="M7669.956,3216.3c6.375,11.046,22.762,28.275,22.762,28.275s-1.027,1.561,1.247,4.431a4.4,4.4,0,0,0-1.247,2.643c-.137,1.561,13.34,9.382,26.119,7.3s18.25-5.738,18.489-8.348-12.929-37.458-21.791-48.148a41.981,41.981,0,0,0-24.146-7.772c-10.23-.055-18.209,3.322-21.831,8.341" transform="translate(-7635.748 -3158.498)" fill="none" stroke="#263238" stroke-linecap="round" stroke-linejoin="round" stroke-width="1"/>
      <path id="Trazado_143047" data-name="Trazado 143047" d="M7697.881,3186.371s-4.924-7.567-10.21-6.574-20.2-15.4-21.612-17.429-3.308,2.624-3.308,2.624-2.308,1.814-2.849,3.793.952,11.594,0,13.627a11.58,11.58,0,0,0-.808,4.7l3.924-2.821s2.883,6.923,4.965,9.087,7.279-3.328,11.251-6.266,9.656-4.307,12.772.774" transform="translate(-7632.447 -3148.151)" fill="#bfbfbf" stroke="#263238" stroke-linecap="round" stroke-linejoin="round" stroke-width="1"/>
      <path id="Trazado_143048" data-name="Trazado 143048" d="M7664.81,3185.048l2.055-.527s-2.438-9.553-2.055-10.806a76.224,76.224,0,0,0,2.055-9.471" transform="translate(-7634.238 -3148.904)" fill="none" stroke="#263238" stroke-linecap="round" stroke-linejoin="round" stroke-width="1"/>
      <path id="Trazado_143049" data-name="Trazado 143049" d="M7673.7,3199.934c1.232,1.37,4.972-1.534,6.163-2.28" transform="translate(-7637.052 -3159.435)" fill="none" stroke="#263238" stroke-linecap="round" stroke-linejoin="round" stroke-width="1"/>
      <path id="Trazado_143050" data-name="Trazado 143050" d="M7670.317,3192.724a26.236,26.236,0,0,0,1.014,3.294" transform="translate(-7635.986 -3157.881)" fill="none" stroke="#263238" stroke-linecap="round" stroke-linejoin="round" stroke-width="1"/>
      <path id="Trazado_143051" data-name="Trazado 143051" d="M7676.8,3193.229c1.4.274,2.608,1.692,3.424,2.938a14.571,14.571,0,0,1,1.1,2.054s-2.054,6.773,4.732,5.479,9-8.218,9-8.218a8.3,8.3,0,0,1-3.657-7.006c-4.328-1.513-12.58,2.054-14.545,3.855C7676.331,3192.742,7676.256,3193.126,7676.8,3193.229Z" transform="translate(-7637.912 -3156.427)" fill="#fff" stroke="#263238" stroke-linecap="round" stroke-linejoin="round" stroke-width="1"/>
      <path id="Trazado_143052" data-name="Trazado 143052" d="M7676.8,3194.683c1.4.274,2.609,1.691,3.424,2.938a7.265,7.265,0,0,0,3.041-4.9l-6.4,1.02C7676.332,3194.2,7676.257,3194.58,7676.8,3194.683Z" transform="translate(-7637.913 -3157.881)" fill="#344154"/>
      <path id="Trazado_143053" data-name="Trazado 143053" d="M7707.158,3263.2s12.367-.89,15.5-7.992" transform="translate(-7647.599 -3177.574)" fill="none" stroke="#263238" stroke-linecap="round" stroke-linejoin="round" stroke-width="1"/>
      <path id="Trazado_143054" data-name="Trazado 143054" d="M7736.852,3276.481c-9.451.979-19.469.719-28.454-2.637" transform="translate(-7647.99 -3183.45)" fill="none" stroke="#263238" stroke-linecap="round" stroke-linejoin="round" stroke-width="1"/>
      <path id="Trazado_143055" data-name="Trazado 143055" d="M7758.042,3276.194c-1.5.308-3.013.541-4.534.74" transform="translate(-7662.208 -3184.191)" fill="none" stroke="#263238" stroke-linecap="round" stroke-linejoin="round" stroke-width="1"/>
      <path id="Trazado_143056" data-name="Trazado 143056" d="M7686.97,3176.435s3.082-3.821,3.931-6.506c3.637-11.5,4.273-18.887-8.766-21.715-9.21-1.992-13.942,10.354-13.73,14.819.124,2.52-1.116,4.979-1.739,6.978-.685,2.232.63,10.957,3.485,11.7,3.65.911,9.677-.349,10.622-2.369" transform="translate(-7634.78 -3143.783)" fill="#fff" stroke="#263238" stroke-linecap="round" stroke-linejoin="round" stroke-width="1"/>
      <path id="Trazado_143057" data-name="Trazado 143057" d="M7680.422,3174.3c-.165.6.034,1.185.452,1.3s.891-.281,1.055-.884-.034-1.185-.452-1.3S7680.586,3173.723,7680.422,3174.3Z" transform="translate(-7639.154 -3151.789)" fill="#344154"/>
      <path id="Trazado_143058" data-name="Trazado 143058" d="M7671.221,3171.252c-.165.6.034,1.184.452,1.3s.89-.281,1.055-.884-.035-1.185-.452-1.294S7671.385,3170.65,7671.221,3171.252Z" transform="translate(-7636.253 -3150.831)" fill="#344154"/>
      <path id="Trazado_143059" data-name="Trazado 143059" d="M7673,3173.944s-3.26,2.869-3.424,3.424,1.829,2.13,1.829,2.13" transform="translate(-7635.75 -3151.961)" fill="none" stroke="#263238" stroke-linecap="round" stroke-linejoin="round" stroke-width="1"/>
      <path id="Trazado_143060" data-name="Trazado 143060" d="M7670.578,3185.3a7.241,7.241,0,0,0,5.3.65" transform="translate(-7636.069 -3155.542)" fill="none" stroke="#263238" stroke-linecap="round" stroke-linejoin="round" stroke-width="1"/>
      <path id="Trazado_143061" data-name="Trazado 143061" d="M7681.409,3166.565s1.465-.726,3.424,1.26" transform="translate(-7639.483 -3149.595)" fill="none" stroke="#263238" stroke-linecap="round" stroke-linejoin="round" stroke-width="1"/>
      <path id="Trazado_143062" data-name="Trazado 143062" d="M7673.506,3164.971s-1.787-1.63-2.328,0" transform="translate(-7636.259 -3148.905)" fill="none" stroke="#263238" stroke-linecap="round" stroke-linejoin="round" stroke-width="1"/>
      <path id="Trazado_143063" data-name="Trazado 143063" d="M7690.488,3159.88a11.463,11.463,0,0,1,1.37,5.78,30.445,30.445,0,0,1-1.37,6.163l.685.541s2.774-1.445,3.493,0-1.993,5.239-1.993,5.239,1.582,3.424,3.958,3.787c0,0-.138-1.26.684-1.623s3.829-2.952,3.829-5.67c0,0,.629.849,0,2.739,0,0,4.793-9.69.281-16.914S7690.488,3159.88,7690.488,3159.88Z" transform="translate(-7642.345 -3146.526)" fill="#344154"/>
      <path id="Trazado_143064" data-name="Trazado 143064" d="M7692.7,3179.376s3.465-2.924,3.91,0-4.431,7.039-5.6,5.608,0-1.7,0-1.7" transform="translate(-7642.345 -3153.264)" fill="#fff" stroke="#263238" stroke-linecap="round" stroke-linejoin="round" stroke-width="1"/>
      <path id="Trazado_143065" data-name="Trazado 143065" d="M7669.476,3195.317a5.129,5.129,0,0,1,3.314.685c1.192.958-.212,2.41-2.239,1.232S7669.476,3195.317,7669.476,3195.317Z" transform="translate(-7635.651 -3158.687)" fill="#344154"/>
      <path id="Trazado_143066" data-name="Trazado 143066" d="M7674.028,3185.682s10.361.075,16.661-23.077h1.068s-.356,19.565-17.038,24Z" transform="translate(-7637.157 -3148.387)" fill="#344154"/>
      <path id="Trazado_143067" data-name="Trazado 143067" d="M7671.008,3149.986s-3.424,1.452-3.2,2.178,5.91,4.7,17.38,4.794c8.491.068,12.82,7.533,12.82,7.533.814-2.308-.733-5.15-.733-5.15s1.1-7.725-2.787-11.067c0,0-.829-3.328-6.047-5.417-7.005-2.8-9.121,1.089-9.121,1.089A9.305,9.305,0,0,0,7671.008,3149.986Z" transform="translate(-7635.191 -3141.844)" fill="#d9a171" stroke="#263238" stroke-linecap="round" stroke-linejoin="round" stroke-width="1"/>
      <path id="Trazado_143068" data-name="Trazado 143068" d="M7695.019,3159.744c4.17.376,8.32,1.685,10.833,5.245" transform="translate(-7643.773 -3147.486)" fill="none" stroke="#263238" stroke-linecap="round" stroke-linejoin="round" stroke-width="1"/>
      <path id="Trazado_143069" data-name="Trazado 143069" d="M7685.848,3159.434c1.315,0,2.629,0,3.944.075" transform="translate(-7640.882 -3147.388)" fill="none" stroke="#263238" stroke-linecap="round" stroke-linejoin="round" stroke-width="1"/>
      <path id="Trazado_143070" data-name="Trazado 143070" d="M7672.488,3153.734c.815,3.424,3.821,3.753,6.793,3.855" transform="translate(-7636.671 -3145.591)" fill="none" stroke="#263238" stroke-linecap="round" stroke-linejoin="round" stroke-width="1"/>
      <path id="Trazado_143071" data-name="Trazado 143071" d="M7696.918,3147.483a8.492,8.492,0,0,1,6.745,2.568" transform="translate(-7644.372 -3143.613)" fill="none" stroke="#263238" stroke-linecap="round" stroke-linejoin="round" stroke-width="1"/>
      <path id="Trazado_143072" data-name="Trazado 143072" d="M7684.129,3144.924c-3.581,5.479,3.657,2.794,6.3,2.123" transform="translate(-7640.033 -3142.814)" fill="none" stroke="#263238" stroke-linecap="round" stroke-linejoin="round" stroke-width="1"/>
      <path id="Trazado_143073" data-name="Trazado 143073" d="M7690.295,3172c0,.329-.76,1.267-.233,1.733s.945-.993.583-2.582" transform="translate(-7642.151 -3151.082)" fill="none" stroke="#263238" stroke-linecap="round" stroke-linejoin="round" stroke-width="0.5"/>
      <path id="Trazado_143074" data-name="Trazado 143074" d="M7689.271,3166.1c0,.329-1.048,1.869-.521,2.328s.932-.6.685-1.37" transform="translate(-7641.75 -3149.49)" fill="none" stroke="#263238" stroke-linecap="round" stroke-linejoin="round" stroke-width="0.5"/>
      <path id="Trazado_143075" data-name="Trazado 143075" d="M7726.213,3239.146s-15.9-3.739-15.066,1.911,4.609,17.038,4.609,17.038-21,12.86-22.187,13.812c-.37.294,4.362,4.869,4.362,4.869,3.841-2.171,30.747-8.69,31.788-13.381S7726.213,3239.146,7726.213,3239.146Z" transform="translate(-7643.31 -3172.13)" fill="#fff" stroke="#263238" stroke-linecap="round" stroke-linejoin="round" stroke-width="1"/>
      <path id="Trazado_143076" data-name="Trazado 143076" d="M7722.814,3203.794s7.3,6.78,7.04,11.731,3.13,14.305,3.13,14.305l-1.568,1.6s-10.429.521-15.38,3.424c0,0-2.178,1.369-1.562-3.65a10.193,10.193,0,0,0-3.307-7.122c-1.829-1.623-1.65-10.868-1.65-10.868" transform="translate(-7648.341 -3161.37)" fill="#d9a171" stroke="#263238" stroke-linecap="round" stroke-linejoin="round" stroke-width="1"/>
      <path id="Trazado_143077" data-name="Trazado 143077" d="M7731.019,3300.143c-1.041,4.951-4.951,11.881-6.512,14.75s-8.088,25.564-8.088,25.564.26,4.17-5.731,5.211-17.36-2.863-14.34-4.7,6.28-22.852,6.28-22.852-1.6-2.862,1.322-7.087,3.157-28.269,8.834-29.926c9.909-2.863,21.482,3.307,21.482,3.307a7.33,7.33,0,0,1,4.355,4.007" transform="translate(-7644.033 -3185.5)" fill="#344154"/>
      <g id="Grupo_89345" data-name="Grupo 89345" transform="translate(51.813 94.848)">
        <g id="Grupo_89344" data-name="Grupo 89344" clip-path="url(#clip-path-6)">
          <g id="Grupo_89343" data-name="Grupo 89343" transform="translate(6.787 1.71)">
            <path id="Trazado_143078" data-name="Trazado 143078" d="M7739.889,3290.623c-1.794-3.684-4.794-6.978-8.951-7.779" transform="translate(-7713.694 -3282.844)" fill="none" stroke="#fff" stroke-linecap="round" stroke-linejoin="round" stroke-width="1"/>
            <path id="Trazado_143079" data-name="Trazado 143079" d="M7746.184,3300.107a20.969,20.969,0,0,0-.855-2.883" transform="translate(-7718.23 -3287.377)" fill="none" stroke="#fff" stroke-linecap="round" stroke-linejoin="round" stroke-width="1"/>
            <path id="Trazado_143080" data-name="Trazado 143080" d="M7708.113,3335.555a8.224,8.224,0,0,1-2.355-.041" transform="translate(-7705.758 -3299.446)" fill="none" stroke="#fff" stroke-linecap="round" stroke-linejoin="round" stroke-width="1"/>
            <path id="Trazado_143081" data-name="Trazado 143081" d="M7727.365,3317.754c-3.917,4.718-9.039,9.758-14.976,11.7" transform="translate(-7707.848 -3293.848)" fill="none" stroke="#fff" stroke-linecap="round" stroke-linejoin="round" stroke-width="1"/>
          </g>
        </g>
      </g>
      <path id="Trazado_143083" data-name="Trazado 143083" d="M7731.019,3300.143c-1.041,4.951-4.951,11.881-6.512,14.75s-8.088,25.564-8.088,25.564.26,4.17-5.731,5.211-17.36-2.863-14.34-4.7,6.28-22.852,6.28-22.852-1.6-2.862,1.322-7.087,3.157-28.269,8.834-29.926c9.909-2.863,21.482,3.307,21.482,3.307a7.33,7.33,0,0,1,4.355,4.007" transform="translate(-7644.033 -3185.5)" fill="none" stroke="#263238" stroke-miterlimit="10" stroke-width="1"/>
      <path id="Trazado_143084" data-name="Trazado 143084" d="M7692.385,3305.172a1.013,1.013,0,0,1,1.2-.788h0l3.245.685a3.766,3.766,0,0,0-6.943-1.781l-24.256-5a3.766,3.766,0,0,0-7.081-1.116l3.246.685a1.014,1.014,0,1,1-.411,1.986h0l-3.245-.685a3.766,3.766,0,0,0,6.943,1.78l24.256,4.965a3.767,3.767,0,0,0,7.081,1.109l-3.246-.685A1.022,1.022,0,0,1,7692.385,3305.172Z" transform="translate(-7632.148 -3190.152)" fill="#bfbfbf" stroke="#263238" stroke-linecap="round" stroke-linejoin="round" stroke-width="1"/>
      <path id="Trazado_143085" data-name="Trazado 143085" d="M7694.7,3280.874a30.514,30.514,0,0,0-5.643,4.424c-1.294,1.02-8.628,7.142-8.532,8.067s-.555,7.115,0,7.677,2.876-1.274,2.876-1.274.65,1.671,1.37,1.767a11.625,11.625,0,0,0,2.137-.1s1.205,1.856,2.314,1.671,2.6-2.321,1.514-2.41a1.559,1.559,0,0,0-1.514.644v-2.314a20.6,20.6,0,0,0,2.6-2.322c1.206-1.3,1.877-5.54,1.877-5.54.5-.281,3.841-1.829,4.971-2.233Z" transform="translate(-7639.132 -3185.666)" fill="#d9a171" stroke="#263238" stroke-linecap="round" stroke-linejoin="round" stroke-width="1"/>
      <line id="Línea_1943" data-name="Línea 1943" x1="1.13" y1="4.321" transform="translate(43.137 109.787)" fill="none" stroke="#263238" stroke-linecap="round" stroke-linejoin="round" stroke-width="1"/>
      <line id="Línea_1944" data-name="Línea 1944" x1="0.993" y1="2.616" transform="translate(46.801 113.163)" fill="none" stroke="#263238" stroke-linecap="round" stroke-linejoin="round" stroke-width="1"/>
      <line id="Línea_1945" data-name="Línea 1945" x1="0.945" y2="1.691" transform="translate(42.754 111.951)" fill="none" stroke="#263238" stroke-linecap="round" stroke-linejoin="round" stroke-width="1"/>
      <path id="Trazado_143086" data-name="Trazado 143086" d="M7687.212,3309.112c-.966-.685-1.645-3.828-1.645-3.828" transform="translate(-7640.793 -3193.36)" fill="none" stroke="#263238" stroke-linecap="round" stroke-linejoin="round" stroke-width="1"/>
      <path id="Trazado_143087" data-name="Trazado 143087" d="M7702.116,3188.594s7.067,2.294,7.04,8.423c0,2.691-7.533,19.729-6.2,28.022s1.5,9.135,1.5,9.135-3.233.13-4.4,0-.747,2.054-.747,2.054l-4.109.781s-1.226-13.586-1.369-19.482,6.718-24.215,6.718-24.215a3.253,3.253,0,0,0-1.281-3" transform="translate(-7643.399 -3156.579)" fill="#bfbfbf" stroke="#263238" stroke-linecap="round" stroke-linejoin="round" stroke-width="1"/>
      <path id="Trazado_143088" data-name="Trazado 143088" d="M7701.759,3235.454c-.445,4.109-.746,8.218-.932,12.374" transform="translate(-7645.603 -3171.35)" fill="none" stroke="#263238" stroke-linecap="round" stroke-linejoin="round" stroke-width="1"/>
      <path id="Trazado_143089" data-name="Trazado 143089" d="M7703.593,3222.224c-.362,2.123-.685,4.252-.945,6.389" transform="translate(-7646.178 -3167.179)" fill="none" stroke="#263238" stroke-linecap="round" stroke-linejoin="round" stroke-width="1"/>
      <path id="Trazado_143090" data-name="Trazado 143090" d="M7707.248,3202.514q-1.479,5.327-2.5,10.772" transform="translate(-7646.839 -3160.967)" fill="none" stroke="#263238" stroke-linecap="round" stroke-linejoin="round" stroke-width="1"/>
      <path id="Trazado_143091" data-name="Trazado 143091" d="M7709.257,3192.724c.6,1.411.055,3.02-.2,4.451" transform="translate(-7648.198 -3157.881)" fill="none" stroke="#263238" stroke-linecap="round" stroke-linejoin="round" stroke-width="1"/>
      <path id="Trazado_143092" data-name="Trazado 143092" d="M7658.448,3216.224a23.267,23.267,0,0,0,2.568,6.416" transform="translate(-7632.246 -3165.288)" fill="none" stroke="#263238" stroke-linecap="round" stroke-linejoin="round" stroke-width="1"/>
      <path id="Trazado_143093" data-name="Trazado 143093" d="M7656.578,3205.084c.083,1.178.232,2.349.411,3.52" transform="translate(-7631.656 -3161.777)" fill="none" stroke="#263238" stroke-linecap="round" stroke-linejoin="round" stroke-width="1"/>
      <path id="Trazado_143094" data-name="Trazado 143094" d="M7724.021,3229.594a8.682,8.682,0,0,1-3.992,2.177" transform="translate(-7651.656 -3169.502)" fill="none" stroke="#263238" stroke-linecap="round" stroke-linejoin="round" stroke-width="1"/>
      <path id="Trazado_143095" data-name="Trazado 143095" d="M7732.43,3215.874a26.348,26.348,0,0,1-3.972,7.444" transform="translate(-7654.313 -3165.178)" fill="none" stroke="#263238" stroke-linecap="round" stroke-linejoin="round" stroke-width="1"/>
    </g>
    <g id="freepik--Machine--inject-397" transform="translate(7404.224 2998.094)">
      <path id="Trazado_143096" data-name="Trazado 143096" d="M7593.223,3146.681v-51l-4.335,3.424v47.573Z" transform="translate(-7476.369 -3041.961)" fill="#6595bf" stroke="#263238" stroke-linecap="round" stroke-linejoin="round" stroke-width="1"/>
      <path id="Trazado_143097" data-name="Trazado 143097" d="M7556.378,3110.217h-12.231l.583-12.326a2.246,2.246,0,0,1,2.239-2.137h6.588a2.246,2.246,0,0,1,2.239,2.137Z" transform="translate(-7462.266 -3041.983)" fill="#d9a171"/>
      <g id="Grupo_89348" data-name="Grupo 89348" transform="translate(81.881 53.771)">
        <g id="Grupo_89347" data-name="Grupo 89347" clip-path="url(#clip-path-7)">
          <g id="Grupo_89346" data-name="Grupo 89346" transform="translate(0.465 1.26)">
            <path id="Trazado_143098" data-name="Trazado 143098" d="M7557.763,3101.21a3.623,3.623,0,1,1-3.629-3.616h.007A3.623,3.623,0,0,1,7557.763,3101.21Z" transform="translate(-7546.622 -3097.594)" fill="#fff" opacity="0.5" style="isolation: isolate"/>
            <path id="Trazado_143099" data-name="Trazado 143099" d="M7557.453,3101.471a3.048,3.048,0,1,1-3.047-3.047h0A3.047,3.047,0,0,1,7557.453,3101.471Z" transform="translate(-7546.886 -3097.856)" fill="#fff" opacity="0.5" style="isolation: isolate"/>
            <circle id="Elipse_4252" data-name="Elipse 4252" cx="1.637" cy="1.637" r="1.637" transform="translate(0 2.287)" fill="#fff" opacity="0.2" style="isolation: isolate"/>
            <circle id="Elipse_4253" data-name="Elipse 4253" cx="0.938" cy="0.938" r="0.938" transform="translate(0.699 2.985)" fill="#fff" opacity="0.2" style="isolation: isolate"/>
            <path id="Trazado_143100" data-name="Trazado 143100" d="M7552.821,3109.431a3.136,3.136,0,1,1-3.136-3.137A3.137,3.137,0,0,1,7552.821,3109.431Z" transform="translate(-7545.371 -3100.336)" fill="#fff" opacity="0.2" style="isolation: isolate"/>
            <path id="Trazado_143101" data-name="Trazado 143101" d="M7552.429,3109.765a2.411,2.411,0,1,1-2.411-2.411,2.411,2.411,0,0,1,2.411,2.411Z" transform="translate(-7545.704 -3100.67)" fill="#fff" opacity="0.3" style="isolation: isolate"/>
          </g>
        </g>
      </g>
      <path id="Trazado_143103" data-name="Trazado 143103" d="M7556.378,3110.217h-12.231l.583-12.326a2.246,2.246,0,0,1,2.239-2.137h6.588a2.246,2.246,0,0,1,2.239,2.137Z" transform="translate(-7462.266 -3041.983)" fill="none" stroke="#263238" stroke-linecap="round" stroke-linejoin="round" stroke-width="1"/>
      <path id="Trazado_143104" data-name="Trazado 143104" d="M7559.332,3121.749h-23.174l2.74-6.246h17.7Z" transform="translate(-7459.748 -3048.208)" fill="#6595bf" stroke="#263238" stroke-linecap="round" stroke-linejoin="round" stroke-width="1"/>
      <path id="Trazado_143105" data-name="Trazado 143105" d="M7587.388,3255.684v57.475a6.238,6.238,0,0,1-6.238,6.238h-10.772V3314.6h9.964a2.738,2.738,0,0,0,2.739-2.739v-56.18Z" transform="translate(-7470.534 -3092.393)" fill="#6595bf" stroke="#263238" stroke-linecap="round" stroke-linejoin="round" stroke-width="1"/>
      <path id="Trazado_143106" data-name="Trazado 143106" d="M7436,3146.77v-40.739a4.417,4.417,0,0,1,4.417-4.417h3.513v3.424h-2.938a1.917,1.917,0,0,0-1.924,1.911v39.533Z" transform="translate(-7428.178 -3043.831)" fill="#6595bf" stroke="#263238" stroke-linecap="round" stroke-linejoin="round" stroke-width="1"/>
      <rect id="Rectángulo_31851" data-name="Rectángulo 31851" width="2.712" height="10.971" transform="translate(21.324 63.535)" fill="#6595bf" stroke="#263238" stroke-linecap="round" stroke-linejoin="round" stroke-width="1"/>
      <rect id="Rectángulo_31852" data-name="Rectángulo 31852" width="2.712" height="10.971" transform="translate(41.868 63.535)" fill="#6595bf" stroke="#263238" stroke-linecap="round" stroke-linejoin="round" stroke-width="1"/>
      <rect id="Rectángulo_31853" data-name="Rectángulo 31853" width="37.027" height="27.81" rx="3.69" transform="translate(14.442 37.773)" fill="#bfbfbf" stroke="#263238" stroke-linecap="round" stroke-linejoin="round" stroke-width="1"/>
      <rect id="Rectángulo_31854" data-name="Rectángulo 31854" width="30.159" height="20.044" transform="translate(17.873 41.649)" fill="#344154"/>
      <path id="Trazado_143107" data-name="Trazado 143107" d="M7436,3201.614v27.036a4.424,4.424,0,0,0,4.417,4.424h3.513v-3.424h-2.938a1.925,1.925,0,0,1-1.924-1.924V3201.9Z" transform="translate(-7428.178 -3075.35)" fill="#6595bf" stroke="#263238" stroke-linecap="round" stroke-linejoin="round" stroke-width="1"/>
      <path id="Trazado_143108" data-name="Trazado 143108" d="M7432.427,3158.224h9.512v37.513h-9.512a2.74,2.74,0,0,1-2.74-2.739v-32.021a2.74,2.74,0,0,1,2.726-2.753Z" transform="translate(-7426.188 -3061.674)" fill="#6595bf" stroke="#263238" stroke-linecap="round" stroke-linejoin="round" stroke-width="1"/>
      <rect id="Rectángulo_31855" data-name="Rectángulo 31855" width="94.105" height="175.973" rx="3.96" transform="translate(12.888 72.856)" fill="#5e6178" stroke="#263238" stroke-linecap="round" stroke-linejoin="round" stroke-width="1"/>
      <rect id="Rectángulo_31856" data-name="Rectángulo 31856" width="79.601" height="158.771" transform="translate(20.14 81.45)" fill="#6595bf" stroke="#263238" stroke-linecap="round" stroke-linejoin="round" stroke-width="1"/>
      <rect id="Rectángulo_31857" data-name="Rectángulo 31857" width="75.492" height="154.662" transform="translate(22.194 83.511)" fill="#344154"/>
      <path id="Trazado_143109" data-name="Trazado 143109" d="M7508.587,3318.88h-2.349v-34.049a1.177,1.177,0,0,1,1.171-1.178h0a1.178,1.178,0,0,1,1.178,1.178h0Z" transform="translate(-7450.317 -3101.209)" fill="#5e6178" stroke="#263238" stroke-linecap="round" stroke-linejoin="round" stroke-width="1"/>
      <path id="Trazado_143110" data-name="Trazado 143110" d="M7514.847,3318.88H7512.5v-34.049a1.178,1.178,0,0,1,1.171-1.178h0a1.178,1.178,0,0,1,1.178,1.178h0Z" transform="translate(-7452.291 -3101.209)" fill="#5e6178" stroke="#263238" stroke-linecap="round" stroke-linejoin="round" stroke-width="1"/>
      <path id="Trazado_143111" data-name="Trazado 143111" d="M7521.107,3318.88h-2.349v-34.049a1.177,1.177,0,0,1,1.171-1.178h0a1.178,1.178,0,0,1,1.178,1.178h0Z" transform="translate(-7454.264 -3101.209)" fill="#5e6178" stroke="#263238" stroke-linecap="round" stroke-linejoin="round" stroke-width="1"/>
      <path id="Trazado_143112" data-name="Trazado 143112" d="M7527.368,3318.88h-2.35v-34.049a1.178,1.178,0,0,1,1.171-1.178h0a1.178,1.178,0,0,1,1.179,1.178h0Z" transform="translate(-7456.237 -3101.209)" fill="#5e6178" stroke="#263238" stroke-linecap="round" stroke-linejoin="round" stroke-width="1"/>
      <path id="Trazado_143113" data-name="Trazado 143113" d="M7533.627,3318.88h-2.349v-34.049a1.178,1.178,0,0,1,1.171-1.178h0a1.178,1.178,0,0,1,1.178,1.178h0Z" transform="translate(-7458.209 -3101.209)" fill="#5e6178" stroke="#263238" stroke-linecap="round" stroke-linejoin="round" stroke-width="1"/>
      <path id="Trazado_143114" data-name="Trazado 143114" d="M7539.9,3318.88h-2.321v-34.049a1.177,1.177,0,0,1,1.171-1.178h0a1.178,1.178,0,0,1,1.178,1.178h0Z" transform="translate(-7460.196 -3101.209)" fill="#5e6178" stroke="#263238" stroke-linecap="round" stroke-linejoin="round" stroke-width="1"/>
      <path id="Trazado_143115" data-name="Trazado 143115" d="M7462.458,3273.774h23.66a3.972,3.972,0,0,1,3.972,3.972v38.02h-27.632v-41.991Z" transform="translate(-7436.518 -3098.095)" fill="#5e6178" stroke="#263238" stroke-linecap="round" stroke-linejoin="round" stroke-width="1"/>
      <rect id="Rectángulo_31858" data-name="Rectángulo 31858" width="21.222" height="10.477" transform="translate(25.94 184.43)" fill="#6595bf" stroke="#263238" stroke-linecap="round" stroke-linejoin="round" stroke-width="1"/>
      <line id="Línea_1946" data-name="Línea 1946" y2="4.602" transform="translate(43.998 187.368)" fill="none" stroke="#263238" stroke-linecap="round" stroke-linejoin="round" stroke-width="1"/>
      <line id="Línea_1947" data-name="Línea 1947" y2="4.602" transform="translate(41.923 187.368)" fill="none" stroke="#263238" stroke-linecap="round" stroke-linejoin="round" stroke-width="1"/>
      <line id="Línea_1948" data-name="Línea 1948" y2="4.602" transform="translate(39.848 187.368)" fill="none" stroke="#263238" stroke-linecap="round" stroke-linejoin="round" stroke-width="1"/>
      <line id="Línea_1949" data-name="Línea 1949" y2="4.602" transform="translate(37.767 187.368)" fill="none" stroke="#263238" stroke-linecap="round" stroke-linejoin="round" stroke-width="1"/>
      <line id="Línea_1950" data-name="Línea 1950" y2="4.602" transform="translate(35.692 187.368)" fill="none" stroke="#263238" stroke-linecap="round" stroke-linejoin="round" stroke-width="1"/>
      <path id="Trazado_143116" data-name="Trazado 143116" d="M7496.926,3312.762h-6.163a.685.685,0,0,1,0-1.37h6.163c4.431,0,6.164-4.047,7.965-8.341,1.431-3.39,2.917-6.9,5.9-8.3a11.1,11.1,0,0,1,10.56.377,7.887,7.887,0,0,1,3.78,6.745.685.685,0,1,1-1.369,0,6.458,6.458,0,0,0-3.144-5.588,9.721,9.721,0,0,0-9.245-.294c-2.506,1.219-3.827,4.3-5.2,7.594C7504.24,3308.1,7502.261,3312.762,7496.926,3312.762Z" transform="translate(-7445.224 -3104.343)" fill="#bfbfbf" stroke="#263238" stroke-linecap="round" stroke-linejoin="round" stroke-width="1"/>
      <rect id="Rectángulo_31859" data-name="Rectángulo 31859" width="28.988" height="21.003" rx="8.19" transform="translate(65.857 195.264)" fill="#6595bf" stroke="#263238" stroke-linecap="round" stroke-linejoin="round" stroke-width="1"/>
      <path id="Trazado_143117" data-name="Trazado 143117" d="M7463.614,3304.544h13.757a8.519,8.519,0,0,1,8.519,8.519h0v8.526a2.466,2.466,0,0,1-2.465,2.465h-19.811a2.465,2.465,0,0,1-2.466-2.465h0v-14.573a2.466,2.466,0,0,1,2.459-2.472Z" transform="translate(-7436.105 -3107.794)" fill="#6595bf" stroke="#263238" stroke-linecap="round" stroke-linejoin="round" stroke-width="1"/>
      <rect id="Rectángulo_31860" data-name="Rectángulo 31860" width="13.593" height="13.593" rx="2.11" transform="translate(80.573 178.931)" fill="#6595bf" stroke="#263238" stroke-linecap="round" stroke-linejoin="round" stroke-width="1"/>
      <path id="Trazado_143118" data-name="Trazado 143118" d="M7553.811,3287.063a3.006,3.006,0,1,1-3.013-3h.007A3.007,3.007,0,0,1,7553.811,3287.063Z" transform="translate(-7463.417 -3101.339)" fill="#bfbfbf" stroke="#263238" stroke-linecap="round" stroke-linejoin="round" stroke-width="1"/>
      <rect id="Rectángulo_31861" data-name="Rectángulo 31861" width="4.157" height="12.641" transform="translate(39.848 205.029)" fill="#bfbfbf" stroke="#263238" stroke-linecap="round" stroke-linejoin="round" stroke-width="1"/>
      <path id="Trazado_143119" data-name="Trazado 143119" d="M7541.909,3311.094h7.855a1.65,1.65,0,0,1,1.65,1.65h0v14.785h-11.155v-14.785a1.65,1.65,0,0,1,1.65-1.65Z" transform="translate(-7461.041 -3109.859)" fill="#bfbfbf" stroke="#263238" stroke-linecap="round" stroke-linejoin="round" stroke-width="1"/>
      <path id="Trazado_143120" data-name="Trazado 143120" d="M7466.16,3308.033h-1.055l-.527.918.527.917h1.055l.534-.917Z" transform="translate(-7437.187 -3108.894)" fill="#bfbfbf" stroke="#263238" stroke-linecap="round" stroke-linejoin="round" stroke-width="1"/>
      <path id="Trazado_143121" data-name="Trazado 143121" d="M7466.16,3326.294h-1.055l-.527.917.527.918h1.055l.534-.918Z" transform="translate(-7437.187 -3114.65)" fill="#bfbfbf" stroke="#263238" stroke-linecap="round" stroke-linejoin="round" stroke-width="1"/>
      <path id="Trazado_143122" data-name="Trazado 143122" d="M7552.207,3287.1h-1.062l-.527.917.527.917h1.062l.527-.917Z" transform="translate(-7464.306 -3102.297)" fill="#bfbfbf" stroke="#263238" stroke-linecap="round" stroke-linejoin="round" stroke-width="1"/>
      <path id="Trazado_143123" data-name="Trazado 143123" d="M7466.16,3276.654h-1.055l-.527.917.527.918h1.055l.534-.918Z" transform="translate(-7437.187 -3099.003)" fill="#6595bf" stroke="#263238" stroke-linecap="round" stroke-linejoin="round" stroke-width="1"/>
      <path id="Trazado_143124" data-name="Trazado 143124" d="M7497.316,3276.654h-1.061l-.527.917.527.918h1.061l.527-.918Z" transform="translate(-7447.005 -3099.003)" fill="#6595bf" stroke="#263238" stroke-linecap="round" stroke-linejoin="round" stroke-width="1"/>
      <rect id="Rectángulo_31862" data-name="Rectángulo 31862" width="68.884" height="15.531" transform="translate(25.954 219.512)" fill="#5e6178" stroke="#263238" stroke-linecap="round" stroke-linejoin="round" stroke-width="1"/>
      <rect id="Rectángulo_31863" data-name="Rectángulo 31863" width="22.427" height="11.196" transform="translate(69.952 221.498)" fill="#6595bf" stroke="#263238" stroke-linecap="round" stroke-linejoin="round" stroke-width="1"/>
      <path id="Trazado_143125" data-name="Trazado 143125" d="M7531.32,3343.394h-1.054l-.527.911.527.917h1.054l.534-.917Z" transform="translate(-7457.725 -3120.04)" fill="#bfbfbf" stroke="#263238" stroke-linecap="round" stroke-linejoin="round" stroke-width="1"/>
      <path id="Trazado_143126" data-name="Trazado 143126" d="M7531.32,3351.594h-1.054l-.527.918.527.917h1.054l.534-.917Z" transform="translate(-7457.725 -3122.624)" fill="#bfbfbf" stroke="#263238" stroke-linecap="round" stroke-linejoin="round" stroke-width="1"/>
      <path id="Trazado_143127" data-name="Trazado 143127" d="M7555.319,3343.394h-1.055l-.527.911.527.917h1.055l.534-.917Z" transform="translate(-7465.289 -3120.04)" fill="#bfbfbf" stroke="#263238" stroke-linecap="round" stroke-linejoin="round" stroke-width="1"/>
      <path id="Trazado_143128" data-name="Trazado 143128" d="M7555.319,3351.594h-1.055l-.527.918.527.917h1.055l.534-.917Z" transform="translate(-7465.289 -3122.624)" fill="#bfbfbf" stroke="#263238" stroke-linecap="round" stroke-linejoin="round" stroke-width="1"/>
      <rect id="Rectángulo_31864" data-name="Rectángulo 31864" width="2.636" height="2.636" transform="translate(29.508 229.757)" fill="#6595bf" stroke="#263238" stroke-linecap="round" stroke-linejoin="round" stroke-width="1"/>
      <rect id="Rectángulo_31865" data-name="Rectángulo 31865" width="2.636" height="2.636" transform="translate(34.507 229.757)" fill="#6595bf" stroke="#263238" stroke-linecap="round" stroke-linejoin="round" stroke-width="1"/>
      <rect id="Rectángulo_31866" data-name="Rectángulo 31866" width="2.636" height="2.636" transform="translate(39.513 229.757)" fill="#6595bf" stroke="#263238" stroke-linecap="round" stroke-linejoin="round" stroke-width="1"/>
      <path id="Trazado_143129" data-name="Trazado 143129" d="M7492.222,3354.059a1.322,1.322,0,1,1-1.329-1.315h.006a1.315,1.315,0,0,1,1.322,1.307Z" transform="translate(-7445.066 -3122.986)" fill="#6595bf" stroke="#263238" stroke-linecap="round" stroke-linejoin="round" stroke-width="1"/>
      <path id="Trazado_143130" data-name="Trazado 143130" d="M7499.521,3354.059a1.322,1.322,0,1,1-1.329-1.315h.014a1.315,1.315,0,0,1,1.315,1.315Z" transform="translate(-7447.367 -3122.986)" fill="#6595bf" stroke="#263238" stroke-linecap="round" stroke-linejoin="round" stroke-width="1"/>
      <path id="Trazado_143131" data-name="Trazado 143131" d="M7463.578,3254.917c22.516,0,45.882-18.852,66.426-18.852" transform="translate(-7436.871 -3086.209)" fill="none" stroke="#999" stroke-linecap="round" stroke-linejoin="round" stroke-width="1"/>
      <path id="Trazado_143132" data-name="Trazado 143132" d="M7463.578,3153.474c12.765,0,38.629,28.282,66.426,28.282" transform="translate(-7436.871 -3060.177)" fill="none" stroke="#92e3a9" stroke-linecap="round" stroke-linejoin="round" stroke-width="1"/>
      <path id="Trazado_143133" data-name="Trazado 143133" d="M7530,3153.474c-15.2,0-43.794,47.135-66.426,47.135" transform="translate(-7436.871 -3060.177)" fill="none" stroke="#bfbfbf" stroke-linecap="round" stroke-linejoin="round" stroke-width="1"/>
      <path id="Trazado_143134" data-name="Trazado 143134" d="M7464.579,3218.709c14.627,0,50.428-37.9,65.741-37.705" transform="translate(-7437.187 -3068.854)" fill="none" stroke="#757575" stroke-linecap="round" stroke-linejoin="round" stroke-width="1"/>
      <path id="Trazado_143135" data-name="Trazado 143135" d="M7463.578,3194.774c25.769,0,47.484,47.128,66.426,47.128" transform="translate(-7436.871 -3073.195)" fill="none" stroke="#92e3a9" stroke-linecap="round" stroke-linejoin="round" stroke-width="1"/>
      <path id="Trazado_143136" data-name="Trazado 143136" d="M7463.578,3241.2c10.053,0,45.882-18.853,66.426-18.853" transform="translate(-7436.871 -3081.885)" fill="none" stroke="#757575" stroke-linecap="round" stroke-linejoin="round" stroke-width="1"/>
      <path id="Trazado_143137" data-name="Trazado 143137" d="M7530,3223.842c-12.847,0-46.143-56.558-66.426-56.558" transform="translate(-7436.871 -3064.53)" fill="none" stroke="#bfbfbf" stroke-linecap="round" stroke-linejoin="round" stroke-width="1"/>
      <path id="Trazado_143138" data-name="Trazado 143138" d="M7463.578,3176.667c10.594,0,37.733-9.423,66.426-9.423" transform="translate(-7436.871 -3064.517)" fill="none" stroke="#92e3a9" stroke-linecap="round" stroke-linejoin="round" stroke-width="1"/>
      <path id="Trazado_143139" data-name="Trazado 143139" d="M7463.578,3208.534c13.306,0,26.2,6.163,34.651,6.163s22.406-6.163,31.774-6.163" transform="translate(-7436.871 -3077.532)" fill="none" stroke="#999" stroke-linecap="round" stroke-linejoin="round" stroke-width="1"/>
      <rect id="Rectángulo_31867" data-name="Rectángulo 31867" width="1.541" height="4.513" transform="translate(92.38 91.044)" fill="#5e6178" stroke="#263238" stroke-linecap="round" stroke-linejoin="round" stroke-width="1"/>
      <rect id="Rectángulo_31868" data-name="Rectángulo 31868" width="1.541" height="4.513" transform="translate(92.38 100.467)" fill="#5e6178" stroke="#263238" stroke-linecap="round" stroke-linejoin="round" stroke-width="1"/>
      <rect id="Rectángulo_31869" data-name="Rectángulo 31869" width="1.541" height="4.513" transform="translate(92.38 109.897)" fill="#5e6178" stroke="#263238" stroke-linecap="round" stroke-linejoin="round" stroke-width="1"/>
      <rect id="Rectángulo_31870" data-name="Rectángulo 31870" width="1.541" height="4.513" transform="translate(92.38 119.319)" fill="#5e6178" stroke="#263238" stroke-linecap="round" stroke-linejoin="round" stroke-width="1"/>
      <rect id="Rectángulo_31871" data-name="Rectángulo 31871" width="1.541" height="4.513" transform="translate(92.38 128.749)" fill="#5e6178" stroke="#263238" stroke-linecap="round" stroke-linejoin="round" stroke-width="1"/>
      <rect id="Rectángulo_31872" data-name="Rectángulo 31872" width="1.541" height="4.513" transform="translate(92.38 138.172)" fill="#5e6178" stroke="#263238" stroke-linecap="round" stroke-linejoin="round" stroke-width="1"/>
      <rect id="Rectángulo_31873" data-name="Rectángulo 31873" width="1.541" height="4.513" transform="translate(92.38 147.602)" fill="#5e6178" stroke="#263238" stroke-linecap="round" stroke-linejoin="round" stroke-width="1"/>
      <rect id="Rectángulo_31874" data-name="Rectángulo 31874" width="1.541" height="4.513" transform="translate(92.38 157.024)" fill="#5e6178" stroke="#263238" stroke-linecap="round" stroke-linejoin="round" stroke-width="1"/>
      <rect id="Rectángulo_31875" data-name="Rectángulo 31875" width="1.541" height="4.513" transform="translate(92.38 166.454)" fill="#5e6178" stroke="#263238" stroke-linecap="round" stroke-linejoin="round" stroke-width="1"/>
      <rect id="Rectángulo_31876" data-name="Rectángulo 31876" width="1.541" height="4.513" transform="translate(25.954 91.044)" fill="#5e6178" stroke="#263238" stroke-linecap="round" stroke-linejoin="round" stroke-width="1"/>
      <rect id="Rectángulo_31877" data-name="Rectángulo 31877" width="1.541" height="4.513" transform="translate(25.954 100.467)" fill="#5e6178" stroke="#263238" stroke-linecap="round" stroke-linejoin="round" stroke-width="1"/>
      <rect id="Rectángulo_31878" data-name="Rectángulo 31878" width="1.541" height="4.513" transform="translate(25.954 109.897)" fill="#5e6178" stroke="#263238" stroke-linecap="round" stroke-linejoin="round" stroke-width="1"/>
      <rect id="Rectángulo_31879" data-name="Rectángulo 31879" width="1.541" height="4.513" transform="translate(25.954 119.319)" fill="#5e6178" stroke="#263238" stroke-linecap="round" stroke-linejoin="round" stroke-width="1"/>
      <rect id="Rectángulo_31880" data-name="Rectángulo 31880" width="1.541" height="4.513" transform="translate(25.954 128.749)" fill="#5e6178" stroke="#263238" stroke-linecap="round" stroke-linejoin="round" stroke-width="1"/>
      <rect id="Rectángulo_31881" data-name="Rectángulo 31881" width="1.541" height="4.513" transform="translate(25.954 138.172)" fill="#5e6178" stroke="#263238" stroke-linecap="round" stroke-linejoin="round" stroke-width="1"/>
      <rect id="Rectángulo_31882" data-name="Rectángulo 31882" width="1.541" height="4.513" transform="translate(25.954 147.602)" fill="#5e6178" stroke="#263238" stroke-linecap="round" stroke-linejoin="round" stroke-width="1"/>
      <rect id="Rectángulo_31883" data-name="Rectángulo 31883" width="1.541" height="4.513" transform="translate(25.954 157.024)" fill="#5e6178" stroke="#263238" stroke-linecap="round" stroke-linejoin="round" stroke-width="1"/>
      <rect id="Rectángulo_31884" data-name="Rectángulo 31884" width="1.541" height="4.513" transform="translate(25.954 166.454)" fill="#5e6178" stroke="#263238" stroke-linecap="round" stroke-linejoin="round" stroke-width="1"/>
      <path id="Trazado_143140" data-name="Trazado 143140" d="M7435.546,3374.284h103.076a2.828,2.828,0,0,1,2.829,2.828h0v9.115H7432.718v-9.122A2.827,2.827,0,0,1,7435.546,3374.284Z" transform="translate(-7427.144 -3129.776)" fill="#6595bf" stroke="#263238" stroke-linecap="round" stroke-linejoin="round" stroke-width="1"/>
      <path id="Trazado_143141" data-name="Trazado 143141" d="M7426.455,3389.114h116.122a1.9,1.9,0,0,1,1.9,1.9v4.842h-119.9V3391A1.9,1.9,0,0,1,7426.455,3389.114Z" transform="translate(-7424.578 -3134.45)" fill="#bfbfbf" stroke="#263238" stroke-linecap="round" stroke-linejoin="round" stroke-width="1"/>
      <rect id="Rectángulo_31885" data-name="Rectángulo 31885" width="9.033" height="126.01" rx="2.92" transform="translate(110.171 89.414)" fill="#bfbfbf" stroke="#263238" stroke-linecap="round" stroke-linejoin="round" stroke-width="1"/>
      <path id="Trazado_143142" data-name="Trazado 143142" d="M7587.343,3151.294a.835.835,0,1,0,.835.836.836.836,0,0,0-.835-.836Z" transform="translate(-7475.618 -3059.49)" fill="#344154"/>
      <path id="Trazado_143143" data-name="Trazado 143143" d="M7587.343,3159.194a.835.835,0,1,0,.835.835.835.835,0,0,0-.835-.835Z" transform="translate(-7475.618 -3061.98)" fill="#344154"/>
      <path id="Trazado_143144" data-name="Trazado 143144" d="M7587.343,3167.094a.835.835,0,1,0,.835.835.835.835,0,0,0-.835-.835Z" transform="translate(-7475.618 -3064.47)" fill="#344154"/>
      <path id="Trazado_143145" data-name="Trazado 143145" d="M7587.343,3174.994a.835.835,0,1,0,.835.836.836.836,0,0,0-.835-.836Z" transform="translate(-7475.618 -3066.96)" fill="#344154"/>
      <path id="Trazado_143146" data-name="Trazado 143146" d="M7587.378,3182.873a.835.835,0,1,0,.151,0A.747.747,0,0,0,7587.378,3182.873Z" transform="translate(-7475.653 -3069.442)" fill="#344154"/>
      <path id="Trazado_143147" data-name="Trazado 143147" d="M7587.378,3190.8a.835.835,0,1,0,.151,0A.784.784,0,0,0,7587.378,3190.8Z" transform="translate(-7475.653 -3071.941)" fill="#344154"/>
      <path id="Trazado_143148" data-name="Trazado 143148" d="M7587.378,3198.7a.835.835,0,1,0,.151,0,.784.784,0,0,0-.151,0Z" transform="translate(-7475.653 -3074.432)" fill="#344154"/>
      <path id="Trazado_143149" data-name="Trazado 143149" d="M7587.378,3206.6a.835.835,0,1,0,.151,0A.825.825,0,0,0,7587.378,3206.6Z" transform="translate(-7475.653 -3076.921)" fill="#344154"/>
      <path id="Trazado_143150" data-name="Trazado 143150" d="M7587.343,3214.5a.836.836,0,1,0,.835.835v-.006a.829.829,0,0,0-.829-.829Z" transform="translate(-7475.618 -3079.413)" fill="#344154"/>
      <path id="Trazado_143151" data-name="Trazado 143151" d="M7587.343,3222.4a.835.835,0,1,0,.835.835.836.836,0,0,0-.835-.835Z" transform="translate(-7475.618 -3081.904)" fill="#344154"/>
      <path id="Trazado_143152" data-name="Trazado 143152" d="M7587.343,3230.3a.835.835,0,1,0,.835.835.836.836,0,0,0-.835-.835Z" transform="translate(-7475.618 -3084.394)" fill="#344154"/>
      <path id="Trazado_143153" data-name="Trazado 143153" d="M7587.343,3238.2a.835.835,0,1,0,.835.835.836.836,0,0,0-.835-.835Z" transform="translate(-7475.618 -3086.884)" fill="#344154"/>
      <path id="Trazado_143154" data-name="Trazado 143154" d="M7587.343,3246.1a.835.835,0,1,0,.835.835.836.836,0,0,0-.835-.835Z" transform="translate(-7475.618 -3089.374)" fill="#344154"/>
      <path id="Trazado_143155" data-name="Trazado 143155" d="M7587.378,3254.012a.835.835,0,1,0,.151,0A.825.825,0,0,0,7587.378,3254.012Z" transform="translate(-7475.653 -3091.865)" fill="#344154"/>
      <path id="Trazado_143156" data-name="Trazado 143156" d="M7587.378,3261.872a.835.835,0,1,0,.151,0A.825.825,0,0,0,7587.378,3261.872Z" transform="translate(-7475.653 -3094.343)" fill="#344154"/>
      <path id="Trazado_143157" data-name="Trazado 143157" d="M7587.378,3269.813a.835.835,0,1,0,.151,0A.784.784,0,0,0,7587.378,3269.813Z" transform="translate(-7475.653 -3096.845)" fill="#344154"/>
      <path id="Trazado_143158" data-name="Trazado 143158" d="M7587.378,3277.712a.835.835,0,1,0,.151,0A.825.825,0,0,0,7587.378,3277.712Z" transform="translate(-7475.653 -3099.336)" fill="#344154"/>
      <path id="Trazado_143159" data-name="Trazado 143159" d="M7587.343,3285.614a.835.835,0,1,0,.835.835v-.006a.829.829,0,0,0-.829-.829Z" transform="translate(-7475.618 -3101.827)" fill="#344154"/>
      <path id="Trazado_143160" data-name="Trazado 143160" d="M7587.343,3293.514a.829.829,0,1,0,.014,0Z" transform="translate(-7475.618 -3104.317)" fill="#344154"/>
      <path id="Trazado_143161" data-name="Trazado 143161" d="M7587.343,3301.414a.835.835,0,1,0,.835.835.836.836,0,0,0-.835-.835Z" transform="translate(-7475.618 -3106.807)" fill="#344154"/>
      <path id="Trazado_143162" data-name="Trazado 143162" d="M7587.343,3309.314a.835.835,0,1,0,.835.835.836.836,0,0,0-.835-.835Z" transform="translate(-7475.618 -3109.298)" fill="#344154"/>
      <path id="Trazado_143163" data-name="Trazado 143163" d="M7587.343,3317.214a.836.836,0,1,0,.835.836.836.836,0,0,0-.835-.836Z" transform="translate(-7475.618 -3111.787)" fill="#344154"/>
      <path id="Trazado_143164" data-name="Trazado 143164" d="M7587.35,3325.124a.756.756,0,1,0,.007,0Z" transform="translate(-7475.624 -3114.281)" fill="#344154"/>
      <circle id="Elipse_4254" data-name="Elipse 4254" cx="0.829" cy="0.829" r="0.829" transform="translate(113.855 94.516)" fill="#344154"/>
      <path id="Trazado_143165" data-name="Trazado 143165" d="M7591.664,3163.144a.835.835,0,1,0,.835.835.835.835,0,0,0-.835-.835Z" transform="translate(-7476.98 -3063.225)" fill="#344154"/>
      <circle id="Elipse_4255" data-name="Elipse 4255" cx="0.829" cy="0.829" r="0.829" transform="translate(113.855 105.336)" fill="#344154"/>
      <circle id="Elipse_4256" data-name="Elipse 4256" cx="0.829" cy="0.829" r="0.829" transform="translate(113.855 110.746)" fill="#344154"/>
      <path id="Trazado_143166" data-name="Trazado 143166" d="M7591.664,3186.874a.835.835,0,1,0,.835.835v-.006a.829.829,0,0,0-.829-.829Z" transform="translate(-7476.98 -3070.704)" fill="#344154"/>
      <circle id="Elipse_4257" data-name="Elipse 4257" cx="0.829" cy="0.829" r="0.829" transform="translate(113.855 121.565)" fill="#344154"/>
      <path id="Trazado_143167" data-name="Trazado 143167" d="M7591.664,3202.654a.835.835,0,1,0,.835.835v-.006a.829.829,0,0,0-.829-.829Z" transform="translate(-7476.98 -3075.678)" fill="#344154"/>
      <circle id="Elipse_4258" data-name="Elipse 4258" cx="0.829" cy="0.829" r="0.829" transform="translate(113.855 132.385)" fill="#344154"/>
      <circle id="Elipse_4259" data-name="Elipse 4259" cx="0.829" cy="0.829" r="0.829" transform="translate(113.855 137.802)" fill="#344154"/>
      <path id="Trazado_143168" data-name="Trazado 143168" d="M7591.664,3226.354a.835.835,0,1,0,.835.835.835.835,0,0,0-.835-.835Z" transform="translate(-7476.98 -3083.148)" fill="#344154"/>
      <circle id="Elipse_4260" data-name="Elipse 4260" cx="0.829" cy="0.829" r="0.829" transform="translate(113.855 148.622)" fill="#344154"/>
      <circle id="Elipse_4261" data-name="Elipse 4261" cx="0.829" cy="0.829" r="0.829" transform="translate(113.855 154.032)" fill="#344154"/>
      <circle id="Elipse_4262" data-name="Elipse 4262" cx="0.829" cy="0.829" r="0.829" transform="translate(113.855 159.442)" fill="#344154"/>
      <circle id="Elipse_4263" data-name="Elipse 4263" cx="0.829" cy="0.829" r="0.829" transform="translate(113.855 164.852)" fill="#344154"/>
      <path id="Trazado_143169" data-name="Trazado 143169" d="M7591.664,3265.874a.835.835,0,1,0,.835.835v-.006a.829.829,0,0,0-.829-.829Z" transform="translate(-7476.98 -3095.605)" fill="#344154"/>
      <circle id="Elipse_4264" data-name="Elipse 4264" cx="0.829" cy="0.829" r="0.829" transform="translate(113.855 175.672)" fill="#344154"/>
      <path id="Trazado_143170" data-name="Trazado 143170" d="M7591.664,3281.664a.835.835,0,1,0,.835.835v-.007a.828.828,0,0,0-.829-.828Z" transform="translate(-7476.98 -3100.582)" fill="#344154"/>
      <path id="Trazado_143171" data-name="Trazado 143171" d="M7591.664,3289.564a.829.829,0,1,0,.014,0Z" transform="translate(-7476.98 -3103.072)" fill="#344154"/>
      <circle id="Elipse_4265" data-name="Elipse 4265" cx="0.829" cy="0.829" r="0.829" transform="translate(113.855 191.908)" fill="#344154"/>
      <path id="Trazado_143172" data-name="Trazado 143172" d="M7591.664,3305.364a.835.835,0,1,0,.835.836.835.835,0,0,0-.835-.836Z" transform="translate(-7476.98 -3108.052)" fill="#344154"/>
      <circle id="Elipse_4266" data-name="Elipse 4266" cx="0.829" cy="0.829" r="0.829" transform="translate(113.855 202.728)" fill="#344154"/>
      <circle id="Elipse_4267" data-name="Elipse 4267" cx="0.829" cy="0.829" r="0.829" transform="translate(113.855 208.138)" fill="#344154"/>
      <path id="Trazado_143173" data-name="Trazado 143173" d="M7595.994,3152.955a.836.836,0,1,0-.835-.835v.007a.828.828,0,0,0,.828.828Z" transform="translate(-7478.345 -3059.486)" fill="#344154"/>
      <circle id="Elipse_4268" data-name="Elipse 4268" cx="0.829" cy="0.829" r="0.829" transform="translate(116.82 97.221)" fill="#344154"/>
      <circle id="Elipse_4269" data-name="Elipse 4269" cx="0.829" cy="0.829" r="0.829" transform="translate(116.82 102.631)" fill="#344154"/>
      <path id="Trazado_143174" data-name="Trazado 143174" d="M7595.99,3174.994a.835.835,0,1,0,.829.842v-.006A.835.835,0,0,0,7595.99,3174.994Z" transform="translate(-7478.341 -3066.96)" fill="#344154"/>
      <circle id="Elipse_4270" data-name="Elipse 4270" cx="0.829" cy="0.829" r="0.829" transform="translate(116.82 113.451)" fill="#344154"/>
      <path id="Trazado_143175" data-name="Trazado 143175" d="M7595.99,3190.8a.835.835,0,1,0,.829.842v-.013a.829.829,0,0,0-.829-.829Z" transform="translate(-7478.341 -3071.943)" fill="#344154"/>
      <path id="Trazado_143176" data-name="Trazado 143176" d="M7595.988,3198.7a.835.835,0,1,0,.822.848c0-.016,0-.031,0-.046A.828.828,0,0,0,7595.988,3198.7Z" transform="translate(-7478.339 -3074.433)" fill="#344154"/>
      <circle id="Elipse_4271" data-name="Elipse 4271" cx="0.829" cy="0.829" r="0.829" transform="translate(116.82 129.68)" fill="#344154"/>
      <path id="Trazado_143177" data-name="Trazado 143177" d="M7595.99,3214.5a.835.835,0,1,0,.829.841v-.012A.829.829,0,0,0,7595.99,3214.5Z" transform="translate(-7478.341 -3079.413)" fill="#344154"/>
      <circle id="Elipse_4272" data-name="Elipse 4272" cx="0.829" cy="0.829" r="0.829" transform="translate(116.82 140.507)" fill="#344154"/>
      <path id="Trazado_143178" data-name="Trazado 143178" d="M7595.99,3230.3a.835.835,0,1,0,.829.842v-.006A.835.835,0,0,0,7595.99,3230.3Z" transform="translate(-7478.341 -3084.394)" fill="#344154"/>
      <path id="Trazado_143179" data-name="Trazado 143179" d="M7595.99,3238.2a.835.835,0,1,0,.829.842v-.006A.835.835,0,0,0,7595.99,3238.2Z" transform="translate(-7478.341 -3086.884)" fill="#344154"/>
      <circle id="Elipse_4273" data-name="Elipse 4273" cx="0.829" cy="0.829" r="0.829" transform="translate(116.82 156.737)" fill="#344154"/>
      <path id="Trazado_143180" data-name="Trazado 143180" d="M7595.99,3254.014a.835.835,0,1,0,.829.842v-.013A.829.829,0,0,0,7595.99,3254.014Z" transform="translate(-7478.341 -3091.867)" fill="#344154"/>
      <path id="Trazado_143181" data-name="Trazado 143181" d="M7595.99,3261.874a.835.835,0,1,0,.829.842v-.013A.829.829,0,0,0,7595.99,3261.874Z" transform="translate(-7478.341 -3094.344)" fill="#344154"/>
      <circle id="Elipse_4274" data-name="Elipse 4274" cx="0.829" cy="0.829" r="0.829" transform="translate(116.82 172.967)" fill="#344154"/>
      <path id="Trazado_143182" data-name="Trazado 143182" d="M7595.99,3277.714a.835.835,0,1,0,.829.842v-.013A.829.829,0,0,0,7595.99,3277.714Z" transform="translate(-7478.341 -3099.337)" fill="#344154"/>
      <circle id="Elipse_4275" data-name="Elipse 4275" cx="0.829" cy="0.829" r="0.829" transform="translate(116.82 183.786)" fill="#344154"/>
      <path id="Trazado_143183" data-name="Trazado 143183" d="M7595.99,3293.514a.835.835,0,1,0,.829.842v-.006a.828.828,0,0,0-.822-.835Z" transform="translate(-7478.341 -3104.317)" fill="#344154"/>
      <circle id="Elipse_4276" data-name="Elipse 4276" cx="0.829" cy="0.829" r="0.829" transform="translate(116.82 194.613)" fill="#344154"/>
      <circle id="Elipse_4277" data-name="Elipse 4277" cx="0.829" cy="0.829" r="0.829" transform="translate(116.82 200.023)" fill="#344154"/>
      <path id="Trazado_143184" data-name="Trazado 143184" d="M7595.99,3317.214a.835.835,0,1,0,.829.842v-.006A.835.835,0,0,0,7595.99,3317.214Z" transform="translate(-7478.341 -3111.787)" fill="#344154"/>
      <circle id="Elipse_4278" data-name="Elipse 4278" cx="0.829" cy="0.829" r="0.829" transform="translate(116.82 210.843)" fill="#344154"/>
      <path id="Trazado_143185" data-name="Trazado 143185" d="M7580.607,3064.334a5.513,5.513,0,0,0,0,10.82h.068a3.288,3.288,0,0,0,3.013,1.979,3.253,3.253,0,0,0,2.13-.8h0a3.011,3.011,0,0,0,.747.1" transform="translate(-7472.786 -3032.08)" fill="none" stroke="#263238" stroke-linecap="round" stroke-linejoin="round" stroke-width="1"/>
      <path id="Trazado_143186" data-name="Trazado 143186" d="M7593.427,3067.58a3.28,3.28,0,0,0-3.28-3.28,3.4,3.4,0,0,0-.37.041,3.075,3.075,0,0,0-5.759-.37" transform="translate(-7474.833 -3031.389)" fill="none" stroke="#263238" stroke-linecap="round" stroke-linejoin="round" stroke-width="1"/>
      <path id="Trazado_143187" data-name="Trazado 143187" d="M7594.258,3078.063a3.253,3.253,0,0,0,1.732-5.109" transform="translate(-7478.062 -3034.797)" fill="none" stroke="#263238" stroke-linecap="round" stroke-linejoin="round" stroke-width="1"/>
      <path id="Trazado_143188" data-name="Trazado 143188" d="M7617.638,3064.879h0a4.173,4.173,0,0,0,.884.109,3.913,3.913,0,0,0,2.869-1.273,3.869,3.869,0,0,0,2.054-6.081" transform="translate(-7485.431 -3029.968)" fill="none" stroke="#263238" stroke-linecap="round" stroke-linejoin="round" stroke-width="1"/>
      <path id="Trazado_143189" data-name="Trazado 143189" d="M7603.218,3060.814a3.671,3.671,0,0,0,3.671,3.67h.082a3.9,3.9,0,0,0,3.582,2.363" transform="translate(-7480.886 -3030.97)" fill="none" stroke="#263238" stroke-linecap="round" stroke-linejoin="round" stroke-width="1"/>
      <path id="Trazado_143190" data-name="Trazado 143190" d="M7619.717,3051.235a3.9,3.9,0,0,0-3.9-3.9h0a1.593,1.593,0,0,0-.445.041,3.657,3.657,0,0,0-6.848-.431,3.6,3.6,0,0,0-1.623-.4,3.657,3.657,0,0,0-2.383,6.444" transform="translate(-7480.887 -3025.911)" fill="none" stroke="#263238" stroke-linecap="round" stroke-linejoin="round" stroke-width="1"/>
      <path id="Trazado_143191" data-name="Trazado 143191" d="M7576.878,3040.134a4.664,4.664,0,0,0,7.67,3.335,5.219,5.219,0,0,0,.37-.383" transform="translate(-7472.583 -3024.452)" fill="none" stroke="#263238" stroke-linecap="round" stroke-linejoin="round" stroke-width="1"/>
      <path id="Trazado_143192" data-name="Trazado 143192" d="M7574.071,3024.724a9.489,9.489,0,0,0-1.391,9.005" transform="translate(-7470.919 -3019.595)" fill="none" stroke="#263238" stroke-linecap="round" stroke-linejoin="round" stroke-width="1"/>
      <path id="Trazado_143193" data-name="Trazado 143193" d="M7590.457,3022.343a4.383,4.383,0,0,0-7.149-4.075l-.068.069a4.656,4.656,0,0,0-6.711,3.424h0" transform="translate(-7472.473 -3017.234)" fill="none" stroke="#263238" stroke-linecap="round" stroke-linejoin="round" stroke-width="1"/>
      <path id="Trazado_143194" data-name="Trazado 143194" d="M7591.208,3039.628a4.33,4.33,0,0,0,3.465-.966,4.391,4.391,0,0,0,1.37-4.595,4.343,4.343,0,0,0,1.794-.89,4.39,4.39,0,0,0,.541-6.163" transform="translate(-7477.1 -3020.317)" fill="none" stroke="#263238" stroke-linecap="round" stroke-linejoin="round" stroke-width="1"/>
    </g>
    <rect id="Rectángulo_31886" data-name="Rectángulo 31886" width="342" height="342" transform="translate(7360.169 2956.727)" fill="none"/>
  </g>
</svg>
