<svg xmlns="http://www.w3.org/2000/svg" width="732.215" height="138.5" viewBox="0 0 732.215 138.5">
  <g id="Grupo_90672" data-name="Grupo 90672" transform="translate(-175.785 -2851.5)">
    <rect id="Rectángulo_31816" data-name="Rectángulo 31816" width="719" height="131" transform="translate(189 2859)" fill="#6595bf"/>
    <g id="Grupo_89142" data-name="Grupo 89142" transform="translate(176.285 2852)">
      <rect id="Rectángulo_31778" data-name="Rectángulo 31778" width="727.398" height="132.775" transform="translate(0 0)" fill="#fff" stroke="#12263f" stroke-miterlimit="10" stroke-width="1"/>
    </g>
    <g id="Grupo_89143" data-name="Grupo 89143" transform="translate(2 -5)">
      <path id="Trazado_145304" data-name="Trazado 145304" d="M1.274-16.652a4.047,4.047,0,0,1,1.246-3.087,4.672,4.672,0,0,1,3.342-1.175,4.678,4.678,0,0,1,3.356,1.168,4.154,4.154,0,0,1,1.232,3.165v1.02a4.025,4.025,0,0,1-1.232,3.073,4.655,4.655,0,0,1-3.328,1.161,4.781,4.781,0,0,1-3.349-1.154,4.066,4.066,0,0,1-1.267-3.165Zm3.073,1.087a1.712,1.712,0,0,0,.411,1.189,1.445,1.445,0,0,0,1.133.457q1.487,0,1.487-1.885v-.844a1.8,1.8,0,0,0-.4-1.2,1.381,1.381,0,0,0-1.119-.471,1.411,1.411,0,0,0-1.1.457,1.8,1.8,0,0,0-.411,1.245Zm6.726,10.51a4.007,4.007,0,0,1,1.253-3.087A4.712,4.712,0,0,1,15.661-9.3a4.762,4.762,0,0,1,3.356,1.147,4.132,4.132,0,0,1,1.246,3.2v.991A4.042,4.042,0,0,1,19.031-.878,4.675,4.675,0,0,1,15.689.283,4.781,4.781,0,0,1,12.341-.871a4.066,4.066,0,0,1-1.267-3.165Zm3.059,1.087a1.674,1.674,0,0,0,.453,1.161,1.436,1.436,0,0,0,1.1.5A1.3,1.3,0,0,0,17.176-3.6l.014-1.449a1.732,1.732,0,0,0-.411-1.2,1.428,1.428,0,0,0-1.119-.457,1.439,1.439,0,0,0-1.09.429,1.71,1.71,0,0,0-.439,1.161ZM6.8-1.543,4.574-2.662,14.642-18.776l2.223,1.119ZM35.273-7V0H30.3V-20.617H38.53a9.582,9.582,0,0,1,4.184.871,6.563,6.563,0,0,1,2.818,2.478,6.768,6.768,0,0,1,1,3.646A5.966,5.966,0,0,1,44.371-8.8,8.96,8.96,0,0,1,38.445-7Zm0-3.837H38.53a3.072,3.072,0,0,0,2.2-.722,2.683,2.683,0,0,0,.758-2.039A3.317,3.317,0,0,0,40.71-15.9a2.758,2.758,0,0,0-2.124-.878H35.273ZM57.434,0a5.388,5.388,0,0,1-.453-1.374A4.437,4.437,0,0,1,53.3.283a5.436,5.436,0,0,1-3.682-1.31A4.169,4.169,0,0,1,48.1-4.319a4.285,4.285,0,0,1,1.841-3.767A9.378,9.378,0,0,1,55.3-9.36h1.473v-.811q0-2.12-1.827-2.12a1.493,1.493,0,0,0-1.7,1.679H48.47a4.278,4.278,0,0,1,1.89-3.607A7.944,7.944,0,0,1,55.182-15.6a6.965,6.965,0,0,1,4.63,1.43,4.972,4.972,0,0,1,1.742,3.922v6.783a6.946,6.946,0,0,0,.651,3.229V0ZM54.446-3.115a2.662,2.662,0,0,0,1.48-.382,2.4,2.4,0,0,0,.843-.864v-2.45H55.38q-2.492,0-2.492,2.237a1.366,1.366,0,0,0,.439,1.055A1.589,1.589,0,0,0,54.446-3.115ZM69.753-19.13v3.809h2.521v3.313H69.753V-5a1.79,1.79,0,0,0,.312,1.2,1.671,1.671,0,0,0,1.232.34,7,7,0,0,0,1.189-.085V-.127A8.807,8.807,0,0,1,69.8.283,5,5,0,0,1,66.156-.878,4.759,4.759,0,0,1,64.981-4.4v-7.6H63.027v-3.313h1.954V-19.13ZM83.417-11l-1.572-.113q-2.251,0-2.889,1.416V0H74.185V-15.321H78.66l.156,1.968A3.7,3.7,0,0,1,82.171-15.6a4.653,4.653,0,0,1,1.331.17ZM90.172,0H85.386V-15.321h4.786ZM85.1-19.272a2.13,2.13,0,0,1,.736-1.671,2.778,2.778,0,0,1,1.912-.651,2.778,2.778,0,0,1,1.912.651,2.13,2.13,0,0,1,.736,1.671,2.13,2.13,0,0,1-.736,1.671,2.778,2.778,0,0,1-1.912.651,2.778,2.778,0,0,1-1.912-.651A2.13,2.13,0,0,1,85.1-19.272ZM97.62-15.321l.156,1.8a5.268,5.268,0,0,1,4.375-2.082,3.878,3.878,0,0,1,3.922,2.308,5.1,5.1,0,0,1,4.5-2.308q4.659,0,4.786,5.636V0h-4.786V-9.671a2.921,2.921,0,0,0-.4-1.713,1.688,1.688,0,0,0-1.444-.538,2.261,2.261,0,0,0-2.11,1.26l.014.2V0h-4.786V-9.643a3.07,3.07,0,0,0-.382-1.742,1.683,1.683,0,0,0-1.458-.538,2.288,2.288,0,0,0-2.1,1.26V0H93.146V-15.321ZM117.487-7.8a9.043,9.043,0,0,1,.892-4.085,6.38,6.38,0,0,1,2.563-2.754,7.719,7.719,0,0,1,3.922-.963,7.045,7.045,0,0,1,5.423,2.131,8.178,8.178,0,0,1,1.982,5.8v.17a7.934,7.934,0,0,1-1.99,5.685,7.064,7.064,0,0,1-5.388,2.1,7.144,7.144,0,0,1-5.253-1.961A7.671,7.671,0,0,1,117.5-7Zm4.772.3a5.7,5.7,0,0,0,.666,3.115,2.217,2.217,0,0,0,1.968.991q2.549,0,2.605-3.922V-7.8q0-4.121-2.634-4.121-2.393,0-2.591,3.554Zm16.5-7.816.156,1.8a5.2,5.2,0,0,1,4.375-2.082,4.371,4.371,0,0,1,3.575,1.43,6.809,6.809,0,0,1,1.225,4.3V0H143.3V-9.671a2.585,2.585,0,0,0-.467-1.706,2.162,2.162,0,0,0-1.7-.545,2.276,2.276,0,0,0-2.082,1.1V0h-4.772V-15.321ZM155.762,0h-4.786V-15.321h4.786Zm-5.069-19.272a2.13,2.13,0,0,1,.736-1.671,2.778,2.778,0,0,1,1.912-.651,2.778,2.778,0,0,1,1.912.651,2.13,2.13,0,0,1,.736,1.671,2.13,2.13,0,0,1-.736,1.671,2.778,2.778,0,0,1-1.912.651,2.778,2.778,0,0,1-1.912-.651A2.13,2.13,0,0,1,150.692-19.272ZM158.1-7.8a9.043,9.043,0,0,1,.892-4.085,6.38,6.38,0,0,1,2.563-2.754,7.719,7.719,0,0,1,3.922-.963,7.045,7.045,0,0,1,5.423,2.131,8.178,8.178,0,0,1,1.982,5.8v.17a7.934,7.934,0,0,1-1.99,5.685A7.064,7.064,0,0,1,165.5.283a7.144,7.144,0,0,1-5.253-1.961A7.671,7.671,0,0,1,158.112-7Zm4.772.3a5.7,5.7,0,0,0,.666,3.115A2.217,2.217,0,0,0,165.5-3.4q2.549,0,2.605-3.922V-7.8q0-4.121-2.634-4.121-2.393,0-2.591,3.554Zm32.922-2.719H182.68v-3.682h13.112Zm0,6.216H182.68V-7.689h13.112Z" transform="translate(201 2937)" fill="#12263f"/>
      <text id="_" data-name="(———————————————)" transform="translate(415 2937)" fill="#12263f" font-size="29" font-family="Roboto-Black, Roboto" font-weight="800"><tspan x="0" y="0">(———————————————)</tspan></text>
      <path id="Trazado_145305" data-name="Trazado 145305" d="M7.816-3.4a2.122,2.122,0,0,0,1.558-.545,2,2,0,0,0,.538-1.522h4.475a5.3,5.3,0,0,1-1.805,4.135A6.716,6.716,0,0,1,7.93.283a6.8,6.8,0,0,1-5.268-2.1A8.257,8.257,0,0,1,.736-7.618v-.2a9.332,9.332,0,0,1,.857-4.1,6.238,6.238,0,0,1,2.471-2.733A7.368,7.368,0,0,1,7.887-15.6a6.631,6.631,0,0,1,4.744,1.657,5.876,5.876,0,0,1,1.756,4.489H9.912a2.619,2.619,0,0,0-.581-1.827,2,2,0,0,0-1.558-.637q-1.855,0-2.167,2.365a16.686,16.686,0,0,0-.1,2.067,6.554,6.554,0,0,0,.552,3.2A1.912,1.912,0,0,0,7.816-3.4ZM25.531-1.657A4.92,4.92,0,0,1,21.438.283a4.825,4.825,0,0,1-3.816-1.466,6.164,6.164,0,0,1-1.3-4.213v-9.926H21.1v9.955A1.715,1.715,0,0,0,23.01-3.4a2.494,2.494,0,0,0,2.336-1.175V-15.321h4.8V0H25.672ZM40.172.283a7.876,7.876,0,0,1-5.707-2.1,7.261,7.261,0,0,1-2.181-5.473v-.4a9.409,9.409,0,0,1,.871-4.149A6.372,6.372,0,0,1,35.7-14.62a7.673,7.673,0,0,1,3.965-.984,6.632,6.632,0,0,1,5.1,2,7.874,7.874,0,0,1,1.869,5.586V-6.16H37.142a3.439,3.439,0,0,0,1.119,2.025A3.329,3.329,0,0,0,40.5-3.4a4.289,4.289,0,0,0,3.54-1.586l2.181,2.577A6.1,6.1,0,0,1,43.691-.446,8.542,8.542,0,0,1,40.172.283Zm-.538-12.206q-2.1,0-2.492,2.775h4.814v-.368a2.364,2.364,0,0,0-.581-1.777A2.31,2.31,0,0,0,39.634-11.923Zm13.3-3.4.156,1.8A5.2,5.2,0,0,1,57.462-15.6a4.371,4.371,0,0,1,3.575,1.43,6.809,6.809,0,0,1,1.225,4.3V0H57.476V-9.671a2.585,2.585,0,0,0-.467-1.706,2.162,2.162,0,0,0-1.7-.545,2.276,2.276,0,0,0-2.082,1.1V0H48.456V-15.321Zm17.53-3.809v3.809h2.521v3.313H70.461V-5a1.79,1.79,0,0,0,.312,1.2A1.671,1.671,0,0,0,72-3.455a7,7,0,0,0,1.189-.085V-.127A8.807,8.807,0,0,1,70.5.283,5,5,0,0,1,66.864-.878,4.759,4.759,0,0,1,65.689-4.4v-7.6H63.735v-3.313h1.954V-19.13ZM83.488,0a5.388,5.388,0,0,1-.453-1.374A4.437,4.437,0,0,1,79.354.283a5.436,5.436,0,0,1-3.682-1.31,4.169,4.169,0,0,1-1.515-3.292A4.285,4.285,0,0,1,76-8.085,9.378,9.378,0,0,1,81.35-9.36h1.473v-.811q0-2.12-1.827-2.12a1.493,1.493,0,0,0-1.7,1.679H74.525a4.278,4.278,0,0,1,1.89-3.607A7.944,7.944,0,0,1,81.237-15.6a6.965,6.965,0,0,1,4.63,1.43,4.972,4.972,0,0,1,1.742,3.922v6.783A6.946,6.946,0,0,0,88.26-.241V0ZM80.5-3.115A2.662,2.662,0,0,0,81.98-3.5a2.4,2.4,0,0,0,.843-.864v-2.45H81.435q-2.492,0-2.492,2.237a1.366,1.366,0,0,0,.439,1.055A1.589,1.589,0,0,0,80.5-3.115ZM111.7-7.547a9.239,9.239,0,0,1-1.607,5.7,5.153,5.153,0,0,1-4.34,2.131,4.417,4.417,0,0,1-3.469-1.543V5.891H97.507V-15.321h4.46l.142,1.416a4.417,4.417,0,0,1,3.611-1.7,5.194,5.194,0,0,1,4.4,2.089A9.353,9.353,0,0,1,111.7-7.774Zm-4.772-.3q0-4.078-2.379-4.078a2.246,2.246,0,0,0-2.266,1.218v6.032A2.319,2.319,0,0,0,104.573-3.4q2.28,0,2.351-3.937ZM122.429,0a5.388,5.388,0,0,1-.453-1.374A4.437,4.437,0,0,1,118.294.283a5.436,5.436,0,0,1-3.682-1.31A4.169,4.169,0,0,1,113.1-4.319a4.285,4.285,0,0,1,1.841-3.767,9.378,9.378,0,0,1,5.353-1.274h1.473v-.811q0-2.12-1.827-2.12a1.493,1.493,0,0,0-1.7,1.679h-4.772a4.278,4.278,0,0,1,1.89-3.607,7.944,7.944,0,0,1,4.822-1.386,6.965,6.965,0,0,1,4.63,1.43,4.972,4.972,0,0,1,1.742,3.922v6.783A6.946,6.946,0,0,0,127.2-.241V0Zm-2.988-3.115a2.662,2.662,0,0,0,1.48-.382,2.4,2.4,0,0,0,.843-.864v-2.45h-1.388q-2.492,0-2.492,2.237a1.366,1.366,0,0,0,.439,1.055A1.589,1.589,0,0,0,119.441-3.115ZM134.748-19.13v3.809h2.521v3.313h-2.521V-5a1.79,1.79,0,0,0,.312,1.2,1.671,1.671,0,0,0,1.232.34,7,7,0,0,0,1.189-.085V-.127a8.807,8.807,0,0,1-2.69.411,5,5,0,0,1-3.639-1.161A4.759,4.759,0,0,1,129.976-4.4v-7.6h-1.954v-3.313h1.954V-19.13ZM148.413-11l-1.572-.113q-2.251,0-2.889,1.416V0H139.18V-15.321h4.475l.156,1.968a3.7,3.7,0,0,1,3.356-2.251,4.654,4.654,0,0,1,1.331.17Zm6.754,11h-4.786V-15.321h4.786ZM150.1-19.272a2.13,2.13,0,0,1,.736-1.671,2.778,2.778,0,0,1,1.912-.651,2.778,2.778,0,0,1,1.912.651,2.13,2.13,0,0,1,.736,1.671,2.13,2.13,0,0,1-.736,1.671,2.778,2.778,0,0,1-1.912.651,2.778,2.778,0,0,1-1.912-.651A2.13,2.13,0,0,1,150.1-19.272Zm12.518,3.951.156,1.8a5.268,5.268,0,0,1,4.375-2.082,3.878,3.878,0,0,1,3.922,2.308,5.1,5.1,0,0,1,4.5-2.308q4.659,0,4.786,5.636V0h-4.786V-9.671a2.921,2.921,0,0,0-.4-1.713,1.688,1.688,0,0,0-1.444-.538,2.261,2.261,0,0,0-2.11,1.26l.014.2V0h-4.786V-9.643a3.07,3.07,0,0,0-.382-1.742,1.683,1.683,0,0,0-1.458-.538,2.288,2.288,0,0,0-2.1,1.26V0h-4.772V-15.321ZM182.482-7.8a9.043,9.043,0,0,1,.892-4.085,6.38,6.38,0,0,1,2.563-2.754,7.719,7.719,0,0,1,3.922-.963,7.045,7.045,0,0,1,5.423,2.131,8.178,8.178,0,0,1,1.982,5.8v.17a7.934,7.934,0,0,1-1.99,5.685,7.064,7.064,0,0,1-5.388,2.1,7.144,7.144,0,0,1-5.253-1.961A7.671,7.671,0,0,1,182.5-7Zm4.772.3a5.7,5.7,0,0,0,.666,3.115,2.217,2.217,0,0,0,1.968.991q2.549,0,2.605-3.922V-7.8q0-4.121-2.634-4.121-2.393,0-2.591,3.554Zm16.5-7.816.156,1.8a5.2,5.2,0,0,1,4.375-2.082,4.371,4.371,0,0,1,3.575,1.43,6.809,6.809,0,0,1,1.225,4.3V0H208.3V-9.671a2.585,2.585,0,0,0-.467-1.706,2.162,2.162,0,0,0-1.7-.545,2.276,2.276,0,0,0-2.082,1.1V0h-4.772V-15.321ZM220.757,0h-4.786V-15.321h4.786Zm-5.069-19.272a2.13,2.13,0,0,1,.736-1.671,2.778,2.778,0,0,1,1.912-.651,2.778,2.778,0,0,1,1.912.651,2.13,2.13,0,0,1,.736,1.671,2.13,2.13,0,0,1-.736,1.671,2.778,2.778,0,0,1-1.912.651,2.778,2.778,0,0,1-1.912-.651A2.13,2.13,0,0,1,215.688-19.272ZM223.093-7.8a9.043,9.043,0,0,1,.892-4.085,6.38,6.38,0,0,1,2.563-2.754,7.719,7.719,0,0,1,3.922-.963,7.045,7.045,0,0,1,5.423,2.131,8.178,8.178,0,0,1,1.982,5.8v.17a7.934,7.934,0,0,1-1.99,5.685A7.064,7.064,0,0,1,230.5.283a7.144,7.144,0,0,1-5.253-1.961A7.671,7.671,0,0,1,223.107-7Zm4.772.3a5.7,5.7,0,0,0,.666,3.115A2.217,2.217,0,0,0,230.5-3.4q2.549,0,2.605-3.922V-7.8q0-4.121-2.634-4.121-2.393,0-2.591,3.554Z" transform="translate(470 2919)" fill="#12263f"/>
      <path id="Trazado_145306" data-name="Trazado 145306" d="M6.9-19.13v3.809H9.417v3.313H6.9V-5a1.79,1.79,0,0,0,.312,1.2,1.671,1.671,0,0,0,1.232.34A7,7,0,0,0,9.629-3.54V-.127a8.807,8.807,0,0,1-2.69.411A5,5,0,0,1,3.3-.878,4.759,4.759,0,0,1,2.124-4.4v-7.6H.17v-3.313H2.124V-19.13ZM10.266-7.8a9.043,9.043,0,0,1,.892-4.085,6.38,6.38,0,0,1,2.563-2.754,7.719,7.719,0,0,1,3.922-.963,7.045,7.045,0,0,1,5.423,2.131,8.178,8.178,0,0,1,1.982,5.8v.17A7.934,7.934,0,0,1,23.06-1.82a7.064,7.064,0,0,1-5.388,2.1,7.144,7.144,0,0,1-5.253-1.961A7.671,7.671,0,0,1,10.28-7Zm4.772.3A5.7,5.7,0,0,0,15.7-4.39a2.217,2.217,0,0,0,1.968.991q2.549,0,2.605-3.922V-7.8q0-4.121-2.634-4.121-2.393,0-2.591,3.554ZM32.71-19.13v3.809H35.23v3.313H32.71V-5a1.79,1.79,0,0,0,.312,1.2,1.671,1.671,0,0,0,1.232.34,7,7,0,0,0,1.189-.085V-.127a8.807,8.807,0,0,1-2.69.411A5,5,0,0,1,29.113-.878,4.759,4.759,0,0,1,27.938-4.4v-7.6H25.984v-3.313h1.954V-19.13ZM45.737,0a5.388,5.388,0,0,1-.453-1.374A4.437,4.437,0,0,1,41.6.283a5.436,5.436,0,0,1-3.682-1.31,4.169,4.169,0,0,1-1.515-3.292,4.285,4.285,0,0,1,1.841-3.767A9.378,9.378,0,0,1,43.6-9.36h1.473v-.811q0-2.12-1.827-2.12a1.493,1.493,0,0,0-1.7,1.679H36.774a4.278,4.278,0,0,1,1.89-3.607A7.944,7.944,0,0,1,43.486-15.6a6.965,6.965,0,0,1,4.63,1.43,4.972,4.972,0,0,1,1.742,3.922v6.783a6.946,6.946,0,0,0,.651,3.229V0ZM42.75-3.115a2.662,2.662,0,0,0,1.48-.382,2.4,2.4,0,0,0,.843-.864v-2.45H43.684q-2.492,0-2.492,2.237a1.366,1.366,0,0,0,.439,1.055A1.589,1.589,0,0,0,42.75-3.115ZM57.533,0H52.747V-21.75h4.786ZM81.917-7.547a9.239,9.239,0,0,1-1.607,5.7A5.153,5.153,0,0,1,75.969.283,4.417,4.417,0,0,1,72.5-1.26V5.891H67.728V-15.321h4.46l.142,1.416a4.417,4.417,0,0,1,3.611-1.7,5.194,5.194,0,0,1,4.4,2.089,9.353,9.353,0,0,1,1.572,5.742Zm-4.772-.3q0-4.078-2.379-4.078A2.246,2.246,0,0,0,72.5-10.705v6.032A2.319,2.319,0,0,0,74.794-3.4q2.28,0,2.351-3.937ZM92.65,0A5.388,5.388,0,0,1,92.2-1.374,4.437,4.437,0,0,1,88.515.283a5.436,5.436,0,0,1-3.682-1.31,4.169,4.169,0,0,1-1.515-3.292,4.285,4.285,0,0,1,1.841-3.767A9.378,9.378,0,0,1,90.512-9.36h1.473v-.811q0-2.12-1.827-2.12a1.493,1.493,0,0,0-1.7,1.679H83.687a4.278,4.278,0,0,1,1.89-3.607A7.944,7.944,0,0,1,90.4-15.6a6.965,6.965,0,0,1,4.63,1.43,4.972,4.972,0,0,1,1.742,3.922v6.783a6.946,6.946,0,0,0,.651,3.229V0ZM89.662-3.115a2.662,2.662,0,0,0,1.48-.382,2.4,2.4,0,0,0,.843-.864v-2.45H90.6q-2.492,0-2.492,2.237a1.366,1.366,0,0,0,.439,1.055A1.589,1.589,0,0,0,89.662-3.115ZM107.433-4.3a1.1,1.1,0,0,0-.637-.977,9.693,9.693,0,0,0-2.421-.765,11.041,11.041,0,0,1-2.945-1.041,4.934,4.934,0,0,1-1.77-1.565,3.736,3.736,0,0,1-.609-2.11,4.235,4.235,0,0,1,1.742-3.476,7.175,7.175,0,0,1,4.56-1.366,7.949,7.949,0,0,1,4.871,1.374,4.3,4.3,0,0,1,1.841,3.611h-4.786q0-1.841-1.94-1.841a1.923,1.923,0,0,0-1.26.418,1.293,1.293,0,0,0-.51,1.041,1.187,1.187,0,0,0,.623,1.034,5.887,5.887,0,0,0,1.99.651,17.192,17.192,0,0,1,2.4.609q3.455,1.189,3.455,4.262a4.013,4.013,0,0,1-1.862,3.413A8.166,8.166,0,0,1,105.352.283a8.333,8.333,0,0,1-3.512-.708,5.872,5.872,0,0,1-2.407-1.926,4.361,4.361,0,0,1-.864-2.563h4.46a1.844,1.844,0,0,0,.708,1.551,2.912,2.912,0,0,0,1.742.489,2.291,2.291,0,0,0,1.466-.4A1.268,1.268,0,0,0,107.433-4.3ZM119.3,0h-4.786V-15.321H119.3ZM114.23-19.272a2.13,2.13,0,0,1,.736-1.671,2.778,2.778,0,0,1,1.912-.651,2.778,2.778,0,0,1,1.912.651,2.13,2.13,0,0,1,.736,1.671,2.13,2.13,0,0,1-.736,1.671,2.778,2.778,0,0,1-1.912.651,2.778,2.778,0,0,1-1.912-.651A2.13,2.13,0,0,1,114.23-19.272ZM128.348-5.678l2.421-9.643H135.8L130.8,0h-4.871l-5-15.321h5.041ZM136.4-7.8a9.043,9.043,0,0,1,.892-4.085,6.38,6.38,0,0,1,2.563-2.754,7.719,7.719,0,0,1,3.922-.963,7.045,7.045,0,0,1,5.423,2.131,8.178,8.178,0,0,1,1.982,5.8v.17A7.934,7.934,0,0,1,149.2-1.82a7.064,7.064,0,0,1-5.388,2.1,7.144,7.144,0,0,1-5.253-1.961A7.671,7.671,0,0,1,136.419-7Zm4.772.3a5.7,5.7,0,0,0,.666,3.115,2.217,2.217,0,0,0,1.968.991q2.549,0,2.605-3.922V-7.8q0-4.121-2.634-4.121-2.393,0-2.591,3.554ZM169.115-11.7h4.829V-7.6h-4.829v5.537h-4.46V-7.6h-4.843V-11.7h4.843v-5.381h4.46Zm28.334,4.149a9.239,9.239,0,0,1-1.607,5.7A5.153,5.153,0,0,1,191.5.283a4.417,4.417,0,0,1-3.469-1.543V5.891h-4.772V-15.321h4.46l.142,1.416a4.417,4.417,0,0,1,3.611-1.7,5.194,5.194,0,0,1,4.4,2.089,9.353,9.353,0,0,1,1.572,5.742Zm-4.772-.3q0-4.078-2.379-4.078a2.246,2.246,0,0,0-2.266,1.218v6.032A2.319,2.319,0,0,0,190.327-3.4q2.28,0,2.351-3.937ZM208.183,0a5.388,5.388,0,0,1-.453-1.374A4.437,4.437,0,0,1,204.048.283a5.436,5.436,0,0,1-3.682-1.31,4.169,4.169,0,0,1-1.515-3.292,4.285,4.285,0,0,1,1.841-3.767,9.378,9.378,0,0,1,5.353-1.274h1.473v-.811q0-2.12-1.827-2.12a1.493,1.493,0,0,0-1.7,1.679h-4.772a4.278,4.278,0,0,1,1.89-3.607,7.944,7.944,0,0,1,4.822-1.386,6.965,6.965,0,0,1,4.63,1.43,4.972,4.972,0,0,1,1.742,3.922v6.783a6.946,6.946,0,0,0,.651,3.229V0Zm-2.988-3.115a2.662,2.662,0,0,0,1.48-.382,2.4,2.4,0,0,0,.843-.864v-2.45h-1.388q-2.492,0-2.492,2.237a1.366,1.366,0,0,0,.439,1.055A1.589,1.589,0,0,0,205.195-3.115ZM220.5-19.13v3.809h2.521v3.313H220.5V-5a1.79,1.79,0,0,0,.312,1.2,1.671,1.671,0,0,0,1.232.34,7,7,0,0,0,1.189-.085V-.127a8.807,8.807,0,0,1-2.69.411,5,5,0,0,1-3.639-1.161A4.759,4.759,0,0,1,215.73-4.4v-7.6h-1.954v-3.313h1.954V-19.13ZM234.167-11l-1.572-.113q-2.251,0-2.889,1.416V0h-4.772V-15.321h4.475l.156,1.968A3.7,3.7,0,0,1,232.92-15.6a4.654,4.654,0,0,1,1.331.17Zm6.754,11h-4.786V-15.321h4.786Zm-5.069-19.272a2.13,2.13,0,0,1,.736-1.671,2.778,2.778,0,0,1,1.912-.651,2.778,2.778,0,0,1,1.912.651,2.13,2.13,0,0,1,.736,1.671,2.13,2.13,0,0,1-.736,1.671,2.778,2.778,0,0,1-1.912.651,2.778,2.778,0,0,1-1.912-.651A2.13,2.13,0,0,1,235.852-19.272Zm12.518,3.951.156,1.8A5.268,5.268,0,0,1,252.9-15.6a3.878,3.878,0,0,1,3.922,2.308,5.1,5.1,0,0,1,4.5-2.308q4.659,0,4.786,5.636V0h-4.786V-9.671a2.921,2.921,0,0,0-.4-1.713,1.688,1.688,0,0,0-1.444-.538,2.261,2.261,0,0,0-2.11,1.26l.014.2V0H252.6V-9.643a3.07,3.07,0,0,0-.382-1.742,1.683,1.683,0,0,0-1.458-.538,2.288,2.288,0,0,0-2.1,1.26V0h-4.772V-15.321ZM268.236-7.8a9.043,9.043,0,0,1,.892-4.085,6.38,6.38,0,0,1,2.563-2.754,7.719,7.719,0,0,1,3.922-.963,7.045,7.045,0,0,1,5.423,2.131,8.178,8.178,0,0,1,1.982,5.8v.17a7.934,7.934,0,0,1-1.99,5.685,7.063,7.063,0,0,1-5.388,2.1,7.144,7.144,0,0,1-5.253-1.961A7.671,7.671,0,0,1,268.25-7Zm4.772.3a5.7,5.7,0,0,0,.666,3.115,2.217,2.217,0,0,0,1.968.991q2.549,0,2.605-3.922V-7.8q0-4.121-2.634-4.121-2.393,0-2.591,3.554Zm16.5-7.816.156,1.8a5.2,5.2,0,0,1,4.375-2.082,4.371,4.371,0,0,1,3.575,1.43,6.809,6.809,0,0,1,1.225,4.3V0H294.05V-9.671a2.585,2.585,0,0,0-.467-1.706,2.162,2.162,0,0,0-1.7-.545,2.276,2.276,0,0,0-2.082,1.1V0H285.03V-15.321ZM306.511,0h-4.786V-15.321h4.786Zm-5.069-19.272a2.13,2.13,0,0,1,.736-1.671,2.778,2.778,0,0,1,1.912-.651,2.778,2.778,0,0,1,1.912.651,2.13,2.13,0,0,1,.736,1.671A2.13,2.13,0,0,1,306-17.6a2.778,2.778,0,0,1-1.912.651,2.778,2.778,0,0,1-1.912-.651A2.13,2.13,0,0,1,301.441-19.272ZM308.847-7.8a9.043,9.043,0,0,1,.892-4.085,6.38,6.38,0,0,1,2.563-2.754,7.719,7.719,0,0,1,3.922-.963,7.045,7.045,0,0,1,5.423,2.131,8.178,8.178,0,0,1,1.982,5.8v.17a7.934,7.934,0,0,1-1.99,5.685,7.063,7.063,0,0,1-5.388,2.1A7.144,7.144,0,0,1,311-1.678,7.671,7.671,0,0,1,308.861-7Zm4.772.3a5.7,5.7,0,0,0,.666,3.115,2.217,2.217,0,0,0,1.968.991q2.549,0,2.605-3.922V-7.8q0-4.121-2.634-4.121-2.393,0-2.591,3.554Z" transform="translate(428 2953)" fill="#12263f"/>
      <path id="Trazado_145307" data-name="Trazado 145307" d="M4.984-13.544.368-14.817l.92-2.674,4.517,1.853-.354-4.979h3.03l-.368,5.079,4.39-1.811.92,2.7L8.751-13.374l3.1,3.752L9.4-7.951,6.811-12.114,4.206-8.093l-2.45-1.6ZM32.54,0H27.754V-15.236l-4.7,1.374v-3.625L32.1-20.617h.439ZM53.072-8.425A9.844,9.844,0,0,1,51.2-1.982,6.484,6.484,0,0,1,45.907.283,6.518,6.518,0,0,1,40.583-2,9.829,9.829,0,0,1,38.7-8.425v-3.767a9.844,9.844,0,0,1,1.876-6.443,6.5,6.5,0,0,1,5.3-2.266,6.5,6.5,0,0,1,5.31,2.28,9.854,9.854,0,0,1,1.883,6.443ZM48.3-12.8a7.353,7.353,0,0,0-.581-3.321,1.941,1.941,0,0,0-1.841-1.1,1.9,1.9,0,0,0-1.791,1.02,6.927,6.927,0,0,0-.6,3.087v5.268a7.409,7.409,0,0,0,.581,3.377A1.948,1.948,0,0,0,45.907-3.4a1.922,1.922,0,0,0,1.8-1.041A7.073,7.073,0,0,0,48.3-7.7ZM69.866-8.425A9.844,9.844,0,0,1,67.99-1.982,6.484,6.484,0,0,1,62.7.283,6.518,6.518,0,0,1,57.377-2a9.829,9.829,0,0,1-1.883-6.429v-3.767a9.844,9.844,0,0,1,1.876-6.443,6.5,6.5,0,0,1,5.3-2.266,6.5,6.5,0,0,1,5.31,2.28,9.854,9.854,0,0,1,1.883,6.443ZM65.094-12.8a7.353,7.353,0,0,0-.581-3.321,1.941,1.941,0,0,0-1.841-1.1,1.9,1.9,0,0,0-1.791,1.02,6.927,6.927,0,0,0-.6,3.087v5.268a7.409,7.409,0,0,0,.581,3.377A1.948,1.948,0,0,0,62.7-3.4a1.922,1.922,0,0,0,1.8-1.041A7.073,7.073,0,0,0,65.094-7.7Z" transform="translate(800 2937)" fill="#12263f"/>
    </g>
  </g>
</svg>
