<svg xmlns="http://www.w3.org/2000/svg" width="579.188" height="589.791" viewBox="0 0 579.188 589.791">
  <g id="Grupo_93060" data-name="Grupo 93060" transform="translate(-249.531 -16419.363)">
    <g id="Grupo_89270" data-name="Grupo 89270" transform="translate(-4.537 13531.008)">
      <rect id="Rectángulo_31816" data-name="Rectángulo 31816" width="566.281" height="77.29" transform="translate(264.975 2895.855)" fill="#6595bf"/>
      <g id="Grupo_89142" data-name="Grupo 89142" transform="translate(254.568 2888.855)">
        <rect id="Rectángulo_31778" data-name="Rectángulo 31778" width="573.278" height="79.065" transform="translate(0)" fill="#fff" stroke="#12263f" stroke-miterlimit="10" stroke-width="1"/>
      </g>
      <g id="Grupo_89241" data-name="Grupo 89241" transform="translate(47.574 45.726)">
        <g id="Grupo_89143" data-name="Grupo 89143" transform="translate(293.678 2852.885)">
          <path id="Trazado_148392" data-name="Trazado 148392" d="M5.326-3.2l4.307-9.6h2.953L6.267,0H3.577l-2.3-12.8H4.043ZM16.629,0a2.566,2.566,0,0,1-.1-.861A3.221,3.221,0,0,1,14.106.176a2.919,2.919,0,0,1-2.07-.813A2.46,2.46,0,0,1,11.268-2.6a2.843,2.843,0,0,1,1.305-2.386,5.924,5.924,0,0,1,3.335-.831l1.16.018.123-.571a1.984,1.984,0,0,0,.026-.554.952.952,0,0,0-.312-.646,1.075,1.075,0,0,0-.708-.242,1.514,1.514,0,0,0-.984.286,1.384,1.384,0,0,0-.519.875l-2.487.009a2.764,2.764,0,0,1,1.252-2.21,4.851,4.851,0,0,1,2.94-.831,3.507,3.507,0,0,1,2.531.962A2.816,2.816,0,0,1,19.7-6.337l-.729,4.553-.044.563a2.714,2.714,0,0,0,.149,1.055L19.063,0ZM14.722-1.749a2.27,2.27,0,0,0,1.872-.932L16.9-4.324l-.861-.009a2.406,2.406,0,0,0-1.978.835,1.454,1.454,0,0,0-.272.712.844.844,0,0,0,.2.751A1,1,0,0,0,14.722-1.749ZM27.088-7.128a5.117,5.117,0,0,0-.835-.088,2.4,2.4,0,0,0-2.1.993L23.054,0H20.575l1.652-9.51,2.329-.009-.229,1.16A2.615,2.615,0,0,1,26.543-9.7a3.615,3.615,0,0,1,.861.123ZM29.654,0h-2.5l1.652-9.51h2.5ZM29.1-11.927a1.238,1.238,0,0,1,.387-.976,1.36,1.36,0,0,1,.976-.387,1.367,1.367,0,0,1,.976.343,1.233,1.233,0,0,1,.431.932,1.273,1.273,0,0,1-.365.949,1.367,1.367,0,0,1-1,.422,1.39,1.39,0,0,1-.971-.334A1.227,1.227,0,0,1,29.1-11.927ZM37.257,0a2.566,2.566,0,0,1-.1-.861A3.221,3.221,0,0,1,34.734.176a2.919,2.919,0,0,1-2.07-.813A2.46,2.46,0,0,1,31.9-2.6,2.843,2.843,0,0,1,33.2-4.988a5.924,5.924,0,0,1,3.335-.831L37.7-5.8l.123-.571a1.984,1.984,0,0,0,.026-.554.952.952,0,0,0-.312-.646,1.075,1.075,0,0,0-.708-.242,1.514,1.514,0,0,0-.984.286,1.384,1.384,0,0,0-.519.875l-2.487.009a2.764,2.764,0,0,1,1.252-2.21,4.851,4.851,0,0,1,2.94-.831,3.507,3.507,0,0,1,2.531.962,2.816,2.816,0,0,1,.765,2.386l-.729,4.553-.044.563A2.714,2.714,0,0,0,39.7-.167L39.691,0ZM35.35-1.749a2.27,2.27,0,0,0,1.872-.932l.308-1.644-.861-.009A2.406,2.406,0,0,0,34.69-3.5a1.454,1.454,0,0,0-.272.712.844.844,0,0,0,.2.751A1,1,0,0,0,35.35-1.749Zm10.02-.114a1.628,1.628,0,0,0,1.143-.374,1.836,1.836,0,0,0,.6-1.042l2.329-.009a3.416,3.416,0,0,1-.628,1.8A3.818,3.818,0,0,1,47.3-.237a4.327,4.327,0,0,1-1.991.422,3.514,3.514,0,0,1-2.742-1.2,4.461,4.461,0,0,1-.976-3.111l.026-.483.009-.1A5.945,5.945,0,0,1,43.189-8.38a4.231,4.231,0,0,1,3.278-1.305,3.428,3.428,0,0,1,2.553,1.05,3.71,3.71,0,0,1,.927,2.676H47.637a1.947,1.947,0,0,0-.334-1.2,1.269,1.269,0,0,0-1-.475q-1.775-.053-2.153,2.593a8.755,8.755,0,0,0-.1,1.617Q44.139-1.89,45.369-1.863ZM53.016,0h-2.5l1.652-9.51h2.5Zm-.554-11.927a1.238,1.238,0,0,1,.387-.976,1.36,1.36,0,0,1,.976-.387,1.367,1.367,0,0,1,.976.343,1.233,1.233,0,0,1,.431.932,1.273,1.273,0,0,1-.365.949,1.367,1.367,0,0,1-1,.422,1.39,1.39,0,0,1-.971-.334A1.227,1.227,0,0,1,52.462-11.927Zm8.095,2.241a3.814,3.814,0,0,1,2.167.646,3.638,3.638,0,0,1,1.336,1.731,5.357,5.357,0,0,1,.3,2.448,5.786,5.786,0,0,1-1.578,3.669,4.455,4.455,0,0,1-3.4,1.367,3.8,3.8,0,0,1-2.145-.637A3.624,3.624,0,0,1,55.907-2.18,5.239,5.239,0,0,1,55.6-4.605,5.957,5.957,0,0,1,57.2-8.35,4.363,4.363,0,0,1,60.557-9.686Zm-2.5,5.979a2.194,2.194,0,0,0,.4,1.33,1.314,1.314,0,0,0,1.063.5A1.926,1.926,0,0,0,61.3-2.921a5.227,5.227,0,0,0,.606-2.848A2.387,2.387,0,0,0,61.5-7.116a1.293,1.293,0,0,0-1.068-.522A1.929,1.929,0,0,0,58.663-6.6,5.173,5.173,0,0,0,58.052-3.706ZM61.7-13.5h2.874l-2.795,2.725H59.59Zm7.295,3.981-.211,1.125a3.422,3.422,0,0,1,2.769-1.292,2.281,2.281,0,0,1,1.986.984A3.966,3.966,0,0,1,74-6.047L73,0H70.523l1.02-6.073a2.844,2.844,0,0,0,.018-.624,1.007,1.007,0,0,0-1.125-.923,2.133,2.133,0,0,0-1.749.905L67.5,0H65.021l1.652-9.51ZM84.885,0a2.566,2.566,0,0,1-.1-.861A3.221,3.221,0,0,1,82.362.176a2.919,2.919,0,0,1-2.07-.813A2.46,2.46,0,0,1,79.523-2.6a2.843,2.843,0,0,1,1.305-2.386,5.924,5.924,0,0,1,3.335-.831l1.16.018.123-.571a1.984,1.984,0,0,0,.026-.554.952.952,0,0,0-.312-.646,1.075,1.075,0,0,0-.708-.242,1.514,1.514,0,0,0-.984.286,1.384,1.384,0,0,0-.519.875l-2.487.009a2.764,2.764,0,0,1,1.252-2.21,4.851,4.851,0,0,1,2.94-.831,3.507,3.507,0,0,1,2.531.962,2.816,2.816,0,0,1,.765,2.386l-.729,4.553-.044.563a2.714,2.714,0,0,0,.149,1.055L87.319,0ZM82.978-1.749a2.27,2.27,0,0,0,1.872-.932l.308-1.644L84.3-4.333a2.406,2.406,0,0,0-1.978.835,1.454,1.454,0,0,0-.272.712.844.844,0,0,0,.2.751A1,1,0,0,0,82.978-1.749ZM97.972-4.729a6.819,6.819,0,0,1-1.371,3.6A3.412,3.412,0,0,1,93.735.185,2.652,2.652,0,0,1,91.45-1.028L91.09,0H88.831l2.338-13.5h2.487L92.7-8.64a2.963,2.963,0,0,1,2.32-1.046,2.683,2.683,0,0,1,2.167.989,4.376,4.376,0,0,1,.839,2.685A10.274,10.274,0,0,1,97.972-4.729Zm-2.461-.185a7.373,7.373,0,0,0,.053-1.164q-.1-1.534-1.266-1.56a2.062,2.062,0,0,0-1.819,1l-.686,3.791a1.415,1.415,0,0,0,1.424.987q1.828.053,2.241-2.662Zm8.745,2.233q.141-.7-.976-1.02l-.8-.2q-2.839-.782-2.76-2.76a2.731,2.731,0,0,1,1.191-2.193,4.434,4.434,0,0,1,2.764-.831,3.978,3.978,0,0,1,2.6.853,2.809,2.809,0,0,1,1.011,2.224l-2.461-.009a1.084,1.084,0,0,0-1.213-1.239,1.745,1.745,0,0,0-1.006.29,1.194,1.194,0,0,0-.523.782q-.132.7,1.063.993l.352.079a7.071,7.071,0,0,1,1.854.664,2.8,2.8,0,0,1,.989.927,2.3,2.3,0,0,1,.321,1.327,2.533,2.533,0,0,1-.584,1.582A3.577,3.577,0,0,1,104.55-.167a5.328,5.328,0,0,1-2.043.343,4.015,4.015,0,0,1-2.637-.91A2.933,2.933,0,0,1,98.8-3.041l2.338.018a1.285,1.285,0,0,0,1.459,1.38,2.076,2.076,0,0,0,1.129-.281A1.111,1.111,0,0,0,104.256-2.681Zm8.991-7a3.814,3.814,0,0,1,2.167.646,3.638,3.638,0,0,1,1.336,1.731,5.357,5.357,0,0,1,.3,2.448,5.786,5.786,0,0,1-1.578,3.669,4.455,4.455,0,0,1-3.4,1.367,3.8,3.8,0,0,1-2.145-.637A3.624,3.624,0,0,1,108.6-2.18a5.239,5.239,0,0,1-.308-2.426,5.957,5.957,0,0,1,1.6-3.744A4.363,4.363,0,0,1,113.247-9.686Zm-2.5,5.979a2.194,2.194,0,0,0,.4,1.33,1.314,1.314,0,0,0,1.063.5,1.926,1.926,0,0,0,1.793-1.049,5.227,5.227,0,0,0,.606-2.848,2.387,2.387,0,0,0-.409-1.347,1.293,1.293,0,0,0-1.068-.522,1.929,1.929,0,0,0-1.771,1.04A5.173,5.173,0,0,0,110.742-3.706ZM120.384,0h-2.5l2.347-13.5h2.487Zm7.989-.984a3.283,3.283,0,0,1-2.619,1.16,2.443,2.443,0,0,1-2.074-.984,3.6,3.6,0,0,1-.545-2.549l1.028-6.152h2.479L125.6-3.324a2.446,2.446,0,0,0-.009.545.9.9,0,0,0,.976.906,2.265,2.265,0,0,0,1.907-.889l1.187-6.749h2.5L130.5,0h-2.312Zm9-10.863L136.96-9.51h1.582l-.325,1.863h-1.582l-.809,4.764a1.211,1.211,0,0,0,.07.686q.123.237.6.255.141.009.756-.044l-.176,1.942a4.169,4.169,0,0,1-1.424.2,2.234,2.234,0,0,1-1.819-.765,2.763,2.763,0,0,1-.492-2.021l.817-5.019h-1.345l.325-1.863h1.345l.4-2.338ZM143.833,0a2.566,2.566,0,0,1-.1-.861A3.221,3.221,0,0,1,141.311.176a2.919,2.919,0,0,1-2.07-.813,2.46,2.46,0,0,1-.769-1.964,2.843,2.843,0,0,1,1.305-2.386,5.924,5.924,0,0,1,3.335-.831l1.16.018.123-.571a1.984,1.984,0,0,0,.026-.554.952.952,0,0,0-.312-.646,1.075,1.075,0,0,0-.708-.242,1.514,1.514,0,0,0-.984.286,1.384,1.384,0,0,0-.519.875l-2.487.009a2.764,2.764,0,0,1,1.252-2.21,4.851,4.851,0,0,1,2.94-.831,3.507,3.507,0,0,1,2.531.962,2.816,2.816,0,0,1,.765,2.386l-.729,4.553-.044.563a2.714,2.714,0,0,0,.149,1.055L146.268,0Zm-1.907-1.749a2.27,2.27,0,0,0,1.872-.932l.308-1.644-.861-.009a2.406,2.406,0,0,0-1.978.835,1.454,1.454,0,0,0-.272.712.844.844,0,0,0,.2.751A1,1,0,0,0,141.926-1.749Zm7.576-.87a1.373,1.373,0,0,1,1.006.365,1.249,1.249,0,0,1,.417.962,1.3,1.3,0,0,1-.387.989,1.343,1.343,0,0,1-.993.409,1.355,1.355,0,0,1-.993-.352,1.293,1.293,0,0,1-.422-.958,1.306,1.306,0,0,1,.378-.993A1.392,1.392,0,0,1,149.5-2.619Zm1.239-7.2a1.373,1.373,0,0,1,1.006.365,1.249,1.249,0,0,1,.417.962,1.3,1.3,0,0,1-.387.989,1.343,1.343,0,0,1-.993.409,1.355,1.355,0,0,1-.993-.352,1.293,1.293,0,0,1-.422-.958,1.306,1.306,0,0,1,.378-.993A1.392,1.392,0,0,1,150.741-9.817Zm12,9.817a2.566,2.566,0,0,1-.1-.861A3.221,3.221,0,0,1,160.216.176a2.919,2.919,0,0,1-2.07-.813,2.46,2.46,0,0,1-.769-1.964,2.843,2.843,0,0,1,1.305-2.386,5.924,5.924,0,0,1,3.335-.831l1.16.018.123-.571a1.984,1.984,0,0,0,.026-.554.952.952,0,0,0-.312-.646,1.075,1.075,0,0,0-.708-.242,1.514,1.514,0,0,0-.984.286,1.384,1.384,0,0,0-.519.875l-2.487.009a2.764,2.764,0,0,1,1.252-2.21,4.851,4.851,0,0,1,2.94-.831,3.507,3.507,0,0,1,2.531.962,2.816,2.816,0,0,1,.765,2.386l-.729,4.553-.044.563a2.714,2.714,0,0,0,.149,1.055L165.173,0Zm-1.907-1.749a2.27,2.27,0,0,0,1.872-.932l.308-1.644-.861-.009a2.406,2.406,0,0,0-1.978.835,1.454,1.454,0,0,0-.272.712.844.844,0,0,0,.2.751A1,1,0,0,0,160.831-1.749Zm9.773-7.77-.211,1.125a3.422,3.422,0,0,1,2.769-1.292,2.281,2.281,0,0,1,1.986.984,3.966,3.966,0,0,1,.466,2.654l-1,6.047h-2.479l1.02-6.073a2.844,2.844,0,0,0,.018-.624,1.007,1.007,0,0,0-1.125-.923,2.133,2.133,0,0,0-1.749.905L169.11,0h-2.479l1.652-9.51Zm5.449-3.885a2.864,2.864,0,0,1-.62,1.709,1.756,1.756,0,0,1-1.411.672,1.477,1.477,0,0,1-.47-.075,4.446,4.446,0,0,1-.672-.325,4.909,4.909,0,0,0-.672-.33,1.293,1.293,0,0,0-.479-.07q-.668.026-.888.861l-1.459-.088a2.81,2.81,0,0,1,.646-1.705,1.757,1.757,0,0,1,1.428-.668,1.422,1.422,0,0,1,.435.066,4.85,4.85,0,0,1,.694.33,5.019,5.019,0,0,0,.7.334,1.323,1.323,0,0,0,.461.062q.677-.026.888-.861ZM182-9.686a3.814,3.814,0,0,1,2.167.646A3.638,3.638,0,0,1,185.5-7.308a5.357,5.357,0,0,1,.3,2.448,5.786,5.786,0,0,1-1.578,3.669,4.455,4.455,0,0,1-3.4,1.367,3.8,3.8,0,0,1-2.145-.637,3.624,3.624,0,0,1-1.336-1.718,5.239,5.239,0,0,1-.308-2.426,5.957,5.957,0,0,1,1.6-3.744A4.363,4.363,0,0,1,182-9.686Zm-2.5,5.979a2.194,2.194,0,0,0,.4,1.33,1.314,1.314,0,0,0,1.063.5,1.926,1.926,0,0,0,1.793-1.049,5.227,5.227,0,0,0,.606-2.848,2.387,2.387,0,0,0-.409-1.347,1.293,1.293,0,0,0-1.068-.522A1.929,1.929,0,0,0,180.1-6.6,5.173,5.173,0,0,0,179.49-3.706ZM196.453,0a2.566,2.566,0,0,1-.1-.861A3.221,3.221,0,0,1,193.931.176a2.919,2.919,0,0,1-2.07-.813,2.46,2.46,0,0,1-.769-1.964A2.843,2.843,0,0,1,192.4-4.988a5.924,5.924,0,0,1,3.335-.831l1.16.018.123-.571a1.984,1.984,0,0,0,.026-.554.952.952,0,0,0-.312-.646,1.075,1.075,0,0,0-.708-.242,1.514,1.514,0,0,0-.984.286,1.384,1.384,0,0,0-.519.875l-2.487.009a2.764,2.764,0,0,1,1.252-2.21,4.851,4.851,0,0,1,2.94-.831,3.507,3.507,0,0,1,2.531.962,2.816,2.816,0,0,1,.765,2.386l-.729,4.553-.044.563A2.714,2.714,0,0,0,198.9-.167L198.888,0Zm-1.907-1.749a2.27,2.27,0,0,0,1.872-.932l.308-1.644-.861-.009a2.406,2.406,0,0,0-1.978.835,1.454,1.454,0,0,0-.272.712.844.844,0,0,0,.2.751A1,1,0,0,0,194.546-1.749Zm10.02-.114a1.628,1.628,0,0,0,1.143-.374,1.836,1.836,0,0,0,.6-1.042l2.329-.009a3.416,3.416,0,0,1-.628,1.8,3.818,3.818,0,0,1-1.512,1.248A4.327,4.327,0,0,1,204.5.185a3.514,3.514,0,0,1-2.742-1.2,4.461,4.461,0,0,1-.976-3.111l.026-.483.009-.1a5.945,5.945,0,0,1,1.564-3.678,4.231,4.231,0,0,1,3.278-1.305,3.428,3.428,0,0,1,2.553,1.05,3.71,3.71,0,0,1,.927,2.676h-2.312a1.947,1.947,0,0,0-.334-1.2,1.269,1.269,0,0,0-1-.475q-1.775-.053-2.153,2.593a8.755,8.755,0,0,0-.1,1.617Q203.335-1.89,204.565-1.863Zm10.055-9.984-.413,2.338h1.582l-.325,1.863h-1.582l-.809,4.764a1.211,1.211,0,0,0,.07.686q.123.237.6.255.141.009.756-.044l-.176,1.942a4.169,4.169,0,0,1-1.424.2,2.234,2.234,0,0,1-1.819-.765,2.763,2.763,0,0,1-.492-2.021l.817-5.019h-1.345l.325-1.863h1.345l.4-2.338ZM221.467-.984a3.283,3.283,0,0,1-2.619,1.16,2.443,2.443,0,0,1-2.074-.984,3.6,3.6,0,0,1-.545-2.549l1.028-6.152h2.479l-1.046,6.186a2.446,2.446,0,0,0-.009.545.9.9,0,0,0,.976.906,2.265,2.265,0,0,0,1.907-.889L222.75-9.51h2.5L223.594,0h-2.312ZM230.941,0a2.566,2.566,0,0,1-.1-.861A3.221,3.221,0,0,1,228.419.176a2.919,2.919,0,0,1-2.07-.813A2.46,2.46,0,0,1,225.58-2.6a2.843,2.843,0,0,1,1.305-2.386,5.924,5.924,0,0,1,3.335-.831l1.16.018.123-.571a1.984,1.984,0,0,0,.026-.554.952.952,0,0,0-.312-.646,1.075,1.075,0,0,0-.708-.242,1.514,1.514,0,0,0-.984.286,1.384,1.384,0,0,0-.519.875l-2.487.009a2.764,2.764,0,0,1,1.252-2.21,4.851,4.851,0,0,1,2.94-.831,3.507,3.507,0,0,1,2.531.962,2.816,2.816,0,0,1,.765,2.386l-.729,4.553-.044.563a2.714,2.714,0,0,0,.149,1.055L233.376,0Zm-1.907-1.749a2.27,2.27,0,0,0,1.872-.932l.308-1.644-.861-.009a2.406,2.406,0,0,0-1.978.835,1.454,1.454,0,0,0-.272.712.844.844,0,0,0,.2.751A1,1,0,0,0,229.034-1.749ZM237.507,0h-2.5l2.347-13.5h2.487Zm12.12-4.456h-4.816l.352-2.048h4.825ZM260.842,0a2.566,2.566,0,0,1-.1-.861A3.221,3.221,0,0,1,258.319.176a2.919,2.919,0,0,1-2.07-.813A2.46,2.46,0,0,1,255.48-2.6a2.843,2.843,0,0,1,1.305-2.386,5.924,5.924,0,0,1,3.335-.831l1.16.018.123-.571a1.984,1.984,0,0,0,.026-.554.952.952,0,0,0-.312-.646,1.075,1.075,0,0,0-.708-.242,1.514,1.514,0,0,0-.984.286,1.384,1.384,0,0,0-.519.875l-2.487.009a2.764,2.764,0,0,1,1.252-2.21,4.851,4.851,0,0,1,2.94-.831,3.507,3.507,0,0,1,2.531.962,2.816,2.816,0,0,1,.765,2.386l-.729,4.553-.044.563a2.714,2.714,0,0,0,.149,1.055L263.276,0Zm-1.907-1.749a2.27,2.27,0,0,0,1.872-.932l.308-1.644-.861-.009a2.406,2.406,0,0,0-1.978.835,1.454,1.454,0,0,0-.272.712.844.844,0,0,0,.2.751A1,1,0,0,0,258.935-1.749Zm9.773-7.77L268.5-8.394a3.422,3.422,0,0,1,2.769-1.292,2.281,2.281,0,0,1,1.986.984,3.966,3.966,0,0,1,.466,2.654l-1,6.047h-2.479l1.02-6.073a2.844,2.844,0,0,0,.018-.624,1.007,1.007,0,0,0-1.125-.923,2.133,2.133,0,0,0-1.749.905L267.214,0h-2.479l1.652-9.51Zm5.449-3.885a2.864,2.864,0,0,1-.62,1.709,1.756,1.756,0,0,1-1.411.672,1.477,1.477,0,0,1-.47-.075,4.446,4.446,0,0,1-.672-.325,4.909,4.909,0,0,0-.672-.33,1.293,1.293,0,0,0-.479-.07q-.668.026-.888.861l-1.459-.088a2.81,2.81,0,0,1,.646-1.705,1.757,1.757,0,0,1,1.428-.668,1.422,1.422,0,0,1,.435.066,4.85,4.85,0,0,1,.694.33,5.019,5.019,0,0,0,.7.334,1.323,1.323,0,0,0,.461.062q.677-.026.888-.861ZM280.1-9.686a3.814,3.814,0,0,1,2.167.646A3.638,3.638,0,0,1,283.6-7.308a5.357,5.357,0,0,1,.3,2.448,5.786,5.786,0,0,1-1.578,3.669,4.455,4.455,0,0,1-3.4,1.367,3.8,3.8,0,0,1-2.145-.637,3.624,3.624,0,0,1-1.336-1.718,5.239,5.239,0,0,1-.308-2.426,5.957,5.957,0,0,1,1.6-3.744A4.363,4.363,0,0,1,280.1-9.686Zm-2.5,5.979a2.194,2.194,0,0,0,.4,1.33,1.314,1.314,0,0,0,1.063.5,1.926,1.926,0,0,0,1.793-1.049,5.227,5.227,0,0,0,.606-2.848,2.387,2.387,0,0,0-.409-1.347,1.293,1.293,0,0,0-1.068-.522A1.929,1.929,0,0,0,278.2-6.6,5.173,5.173,0,0,0,277.594-3.706ZM294.557,0a2.566,2.566,0,0,1-.1-.861A3.221,3.221,0,0,1,292.034.176a2.919,2.919,0,0,1-2.07-.813A2.46,2.46,0,0,1,289.2-2.6,2.843,2.843,0,0,1,290.5-4.988a5.924,5.924,0,0,1,3.335-.831L295-5.8l.123-.571a1.984,1.984,0,0,0,.026-.554.952.952,0,0,0-.312-.646,1.075,1.075,0,0,0-.708-.242,1.514,1.514,0,0,0-.984.286,1.384,1.384,0,0,0-.519.875l-2.487.009a2.764,2.764,0,0,1,1.252-2.21,4.851,4.851,0,0,1,2.94-.831,3.507,3.507,0,0,1,2.531.962,2.816,2.816,0,0,1,.765,2.386l-.729,4.553-.044.563A2.714,2.714,0,0,0,297-.167L296.991,0Zm-1.907-1.749a2.27,2.27,0,0,0,1.872-.932l.308-1.644-.861-.009a2.406,2.406,0,0,0-1.978.835,1.454,1.454,0,0,0-.272.712.844.844,0,0,0,.2.751A1,1,0,0,0,292.649-1.749Zm9.773-7.77-.211,1.125a3.422,3.422,0,0,1,2.769-1.292,2.281,2.281,0,0,1,1.986.984,3.966,3.966,0,0,1,.466,2.654l-1,6.047h-2.479l1.02-6.073a2.844,2.844,0,0,0,.018-.624,1.007,1.007,0,0,0-1.125-.923,2.133,2.133,0,0,0-1.749.905L300.929,0H298.45L300.1-9.51ZM313.4-11.848l-.413,2.338h1.582l-.325,1.863h-1.582l-.809,4.764a1.211,1.211,0,0,0,.07.686q.123.237.6.255.141.009.756-.044L313.1-.044a4.169,4.169,0,0,1-1.424.2,2.234,2.234,0,0,1-1.819-.765,2.763,2.763,0,0,1-.492-2.021l.817-5.019h-1.345l.325-1.863h1.345l.4-2.338ZM318.876.176a4.137,4.137,0,0,1-2.21-.611,3.7,3.7,0,0,1-1.437-1.652,4.605,4.605,0,0,1-.369-2.316l.026-.352a6.148,6.148,0,0,1,.809-2.549,4.884,4.884,0,0,1,1.74-1.789,4.306,4.306,0,0,1,2.355-.593,3.29,3.29,0,0,1,2.782,1.351A4.631,4.631,0,0,1,323.288-5l-.141,1.083H317.32a2.041,2.041,0,0,0,.448,1.477,1.711,1.711,0,0,0,1.318.571,3.041,3.041,0,0,0,2.373-1.055l1.134,1.406a3.527,3.527,0,0,1-1.547,1.261A5.059,5.059,0,0,1,318.876.176Zm.791-7.813a1.761,1.761,0,0,0-1.217.431,3.784,3.784,0,0,0-.954,1.556h3.41l.053-.229a2.33,2.33,0,0,0,.009-.668,1.276,1.276,0,0,0-.431-.8A1.35,1.35,0,0,0,319.667-7.638Zm10.731.51a5.117,5.117,0,0,0-.835-.088,2.4,2.4,0,0,0-2.1.993L326.364,0h-2.479l1.652-9.51,2.329-.009-.229,1.16A2.615,2.615,0,0,1,329.854-9.7a3.615,3.615,0,0,1,.861.123ZM332.965,0h-2.5l1.652-9.51h2.5Zm-.554-11.927a1.238,1.238,0,0,1,.387-.976,1.36,1.36,0,0,1,.976-.387,1.367,1.367,0,0,1,.976.343,1.233,1.233,0,0,1,.431.932,1.273,1.273,0,0,1-.365.949,1.367,1.367,0,0,1-1,.422,1.39,1.39,0,0,1-.971-.334A1.227,1.227,0,0,1,332.411-11.927Zm8.095,2.241a3.814,3.814,0,0,1,2.167.646,3.638,3.638,0,0,1,1.336,1.731,5.357,5.357,0,0,1,.3,2.448,5.786,5.786,0,0,1-1.578,3.669,4.455,4.455,0,0,1-3.4,1.367,3.8,3.8,0,0,1-2.145-.637,3.624,3.624,0,0,1-1.336-1.718,5.239,5.239,0,0,1-.308-2.426,5.957,5.957,0,0,1,1.6-3.744A4.363,4.363,0,0,1,340.506-9.686ZM338-3.706a2.194,2.194,0,0,0,.4,1.33,1.314,1.314,0,0,0,1.063.5,1.926,1.926,0,0,0,1.793-1.049,5.227,5.227,0,0,0,.606-2.848,2.387,2.387,0,0,0-.409-1.347,1.293,1.293,0,0,0-1.068-.522,1.929,1.929,0,0,0-1.771,1.04A5.173,5.173,0,0,0,338-3.706Zm13.535-3.422a5.117,5.117,0,0,0-.835-.088,2.4,2.4,0,0,0-2.1.993L347.5,0h-2.479l1.652-9.51L349-9.519l-.229,1.16A2.615,2.615,0,0,1,350.991-9.7a3.615,3.615,0,0,1,.861.123Z" transform="translate(24 37.648)" fill="#12263f"/>
        </g>
      </g>
    </g>
    <g id="Grupo_89269" data-name="Grupo 89269" transform="translate(-4.537 13631.008)">
      <rect id="Rectángulo_31816-2" data-name="Rectángulo 31816" width="566.281" height="77.29" transform="translate(264.975 2895.855)" fill="#6595bf"/>
      <g id="Grupo_89142-2" data-name="Grupo 89142" transform="translate(254.568 2888.855)">
        <rect id="Rectángulo_31778-2" data-name="Rectángulo 31778" width="573.278" height="79.065" transform="translate(0)" fill="#fff" stroke="#12263f" stroke-miterlimit="10" stroke-width="1"/>
      </g>
      <g id="Grupo_89241-2" data-name="Grupo 89241" transform="translate(47.574 45.726)">
        <g id="Grupo_89143-2" data-name="Grupo 89143" transform="translate(293.678 2852.885)">
          <path id="Trazado_148393" data-name="Trazado 148393" d="M5.326-3.2l4.307-9.6h2.953L6.267,0H3.577l-2.3-12.8H4.043ZM16.629,0a2.566,2.566,0,0,1-.1-.861A3.221,3.221,0,0,1,14.106.176a2.919,2.919,0,0,1-2.07-.813A2.46,2.46,0,0,1,11.268-2.6a2.843,2.843,0,0,1,1.305-2.386,5.924,5.924,0,0,1,3.335-.831l1.16.018.123-.571a1.984,1.984,0,0,0,.026-.554.952.952,0,0,0-.312-.646,1.075,1.075,0,0,0-.708-.242,1.514,1.514,0,0,0-.984.286,1.384,1.384,0,0,0-.519.875l-2.487.009a2.764,2.764,0,0,1,1.252-2.21,4.851,4.851,0,0,1,2.94-.831,3.507,3.507,0,0,1,2.531.962A2.816,2.816,0,0,1,19.7-6.337l-.729,4.553-.044.563a2.714,2.714,0,0,0,.149,1.055L19.063,0ZM14.722-1.749a2.27,2.27,0,0,0,1.872-.932L16.9-4.324l-.861-.009a2.406,2.406,0,0,0-1.978.835,1.454,1.454,0,0,0-.272.712.844.844,0,0,0,.2.751A1,1,0,0,0,14.722-1.749ZM27.088-7.128a5.117,5.117,0,0,0-.835-.088,2.4,2.4,0,0,0-2.1.993L23.054,0H20.575l1.652-9.51,2.329-.009-.229,1.16A2.615,2.615,0,0,1,26.543-9.7a3.615,3.615,0,0,1,.861.123ZM29.654,0h-2.5l1.652-9.51h2.5ZM29.1-11.927a1.238,1.238,0,0,1,.387-.976,1.36,1.36,0,0,1,.976-.387,1.367,1.367,0,0,1,.976.343,1.233,1.233,0,0,1,.431.932,1.273,1.273,0,0,1-.365.949,1.367,1.367,0,0,1-1,.422,1.39,1.39,0,0,1-.971-.334A1.227,1.227,0,0,1,29.1-11.927ZM37.257,0a2.566,2.566,0,0,1-.1-.861A3.221,3.221,0,0,1,34.734.176a2.919,2.919,0,0,1-2.07-.813A2.46,2.46,0,0,1,31.9-2.6,2.843,2.843,0,0,1,33.2-4.988a5.924,5.924,0,0,1,3.335-.831L37.7-5.8l.123-.571a1.984,1.984,0,0,0,.026-.554.952.952,0,0,0-.312-.646,1.075,1.075,0,0,0-.708-.242,1.514,1.514,0,0,0-.984.286,1.384,1.384,0,0,0-.519.875l-2.487.009a2.764,2.764,0,0,1,1.252-2.21,4.851,4.851,0,0,1,2.94-.831,3.507,3.507,0,0,1,2.531.962,2.816,2.816,0,0,1,.765,2.386l-.729,4.553-.044.563A2.714,2.714,0,0,0,39.7-.167L39.691,0ZM35.35-1.749a2.27,2.27,0,0,0,1.872-.932l.308-1.644-.861-.009A2.406,2.406,0,0,0,34.69-3.5a1.454,1.454,0,0,0-.272.712.844.844,0,0,0,.2.751A1,1,0,0,0,35.35-1.749Zm10.02-.114a1.628,1.628,0,0,0,1.143-.374,1.836,1.836,0,0,0,.6-1.042l2.329-.009a3.416,3.416,0,0,1-.628,1.8A3.818,3.818,0,0,1,47.3-.237a4.327,4.327,0,0,1-1.991.422,3.514,3.514,0,0,1-2.742-1.2,4.461,4.461,0,0,1-.976-3.111l.026-.483.009-.1A5.945,5.945,0,0,1,43.189-8.38a4.231,4.231,0,0,1,3.278-1.305,3.428,3.428,0,0,1,2.553,1.05,3.71,3.71,0,0,1,.927,2.676H47.637a1.947,1.947,0,0,0-.334-1.2,1.269,1.269,0,0,0-1-.475q-1.775-.053-2.153,2.593a8.755,8.755,0,0,0-.1,1.617Q44.139-1.89,45.369-1.863ZM53.016,0h-2.5l1.652-9.51h2.5Zm-.554-11.927a1.238,1.238,0,0,1,.387-.976,1.36,1.36,0,0,1,.976-.387,1.367,1.367,0,0,1,.976.343,1.233,1.233,0,0,1,.431.932,1.273,1.273,0,0,1-.365.949,1.367,1.367,0,0,1-1,.422,1.39,1.39,0,0,1-.971-.334A1.227,1.227,0,0,1,52.462-11.927Zm8.095,2.241a3.814,3.814,0,0,1,2.167.646,3.638,3.638,0,0,1,1.336,1.731,5.357,5.357,0,0,1,.3,2.448,5.786,5.786,0,0,1-1.578,3.669,4.455,4.455,0,0,1-3.4,1.367,3.8,3.8,0,0,1-2.145-.637A3.624,3.624,0,0,1,55.907-2.18,5.239,5.239,0,0,1,55.6-4.605,5.957,5.957,0,0,1,57.2-8.35,4.363,4.363,0,0,1,60.557-9.686Zm-2.5,5.979a2.194,2.194,0,0,0,.4,1.33,1.314,1.314,0,0,0,1.063.5A1.926,1.926,0,0,0,61.3-2.921a5.227,5.227,0,0,0,.606-2.848A2.387,2.387,0,0,0,61.5-7.116a1.293,1.293,0,0,0-1.068-.522A1.929,1.929,0,0,0,58.663-6.6,5.173,5.173,0,0,0,58.052-3.706ZM61.7-13.5h2.874l-2.795,2.725H59.59Zm7.295,3.981-.211,1.125a3.422,3.422,0,0,1,2.769-1.292,2.281,2.281,0,0,1,1.986.984A3.966,3.966,0,0,1,74-6.047L73,0H70.523l1.02-6.073a2.844,2.844,0,0,0,.018-.624,1.007,1.007,0,0,0-1.125-.923,2.133,2.133,0,0,0-1.749.905L67.5,0H65.021l1.652-9.51ZM84.885,0a2.566,2.566,0,0,1-.1-.861A3.221,3.221,0,0,1,82.362.176a2.919,2.919,0,0,1-2.07-.813A2.46,2.46,0,0,1,79.523-2.6a2.843,2.843,0,0,1,1.305-2.386,5.924,5.924,0,0,1,3.335-.831l1.16.018.123-.571a1.984,1.984,0,0,0,.026-.554.952.952,0,0,0-.312-.646,1.075,1.075,0,0,0-.708-.242,1.514,1.514,0,0,0-.984.286,1.384,1.384,0,0,0-.519.875l-2.487.009a2.764,2.764,0,0,1,1.252-2.21,4.851,4.851,0,0,1,2.94-.831,3.507,3.507,0,0,1,2.531.962,2.816,2.816,0,0,1,.765,2.386l-.729,4.553-.044.563a2.714,2.714,0,0,0,.149,1.055L87.319,0ZM82.978-1.749a2.27,2.27,0,0,0,1.872-.932l.308-1.644L84.3-4.333a2.406,2.406,0,0,0-1.978.835,1.454,1.454,0,0,0-.272.712.844.844,0,0,0,.2.751A1,1,0,0,0,82.978-1.749ZM97.972-4.729a6.819,6.819,0,0,1-1.371,3.6A3.412,3.412,0,0,1,93.735.185,2.652,2.652,0,0,1,91.45-1.028L91.09,0H88.831l2.338-13.5h2.487L92.7-8.64a2.963,2.963,0,0,1,2.32-1.046,2.683,2.683,0,0,1,2.167.989,4.376,4.376,0,0,1,.839,2.685A10.274,10.274,0,0,1,97.972-4.729Zm-2.461-.185a7.373,7.373,0,0,0,.053-1.164q-.1-1.534-1.266-1.56a2.062,2.062,0,0,0-1.819,1l-.686,3.791a1.415,1.415,0,0,0,1.424.987q1.828.053,2.241-2.662Zm8.745,2.233q.141-.7-.976-1.02l-.8-.2q-2.839-.782-2.76-2.76a2.731,2.731,0,0,1,1.191-2.193,4.434,4.434,0,0,1,2.764-.831,3.978,3.978,0,0,1,2.6.853,2.809,2.809,0,0,1,1.011,2.224l-2.461-.009a1.084,1.084,0,0,0-1.213-1.239,1.745,1.745,0,0,0-1.006.29,1.194,1.194,0,0,0-.523.782q-.132.7,1.063.993l.352.079a7.071,7.071,0,0,1,1.854.664,2.8,2.8,0,0,1,.989.927,2.3,2.3,0,0,1,.321,1.327,2.533,2.533,0,0,1-.584,1.582A3.577,3.577,0,0,1,104.55-.167a5.328,5.328,0,0,1-2.043.343,4.015,4.015,0,0,1-2.637-.91A2.933,2.933,0,0,1,98.8-3.041l2.338.018a1.285,1.285,0,0,0,1.459,1.38,2.076,2.076,0,0,0,1.129-.281A1.111,1.111,0,0,0,104.256-2.681Zm8.991-7a3.814,3.814,0,0,1,2.167.646,3.638,3.638,0,0,1,1.336,1.731,5.357,5.357,0,0,1,.3,2.448,5.786,5.786,0,0,1-1.578,3.669,4.455,4.455,0,0,1-3.4,1.367,3.8,3.8,0,0,1-2.145-.637A3.624,3.624,0,0,1,108.6-2.18a5.239,5.239,0,0,1-.308-2.426,5.957,5.957,0,0,1,1.6-3.744A4.363,4.363,0,0,1,113.247-9.686Zm-2.5,5.979a2.194,2.194,0,0,0,.4,1.33,1.314,1.314,0,0,0,1.063.5,1.926,1.926,0,0,0,1.793-1.049,5.227,5.227,0,0,0,.606-2.848,2.387,2.387,0,0,0-.409-1.347,1.293,1.293,0,0,0-1.068-.522,1.929,1.929,0,0,0-1.771,1.04A5.173,5.173,0,0,0,110.742-3.706ZM120.384,0h-2.5l2.347-13.5h2.487Zm7.989-.984a3.283,3.283,0,0,1-2.619,1.16,2.443,2.443,0,0,1-2.074-.984,3.6,3.6,0,0,1-.545-2.549l1.028-6.152h2.479L125.6-3.324a2.446,2.446,0,0,0-.009.545.9.9,0,0,0,.976.906,2.265,2.265,0,0,0,1.907-.889l1.187-6.749h2.5L130.5,0h-2.312Zm9-10.863L136.96-9.51h1.582l-.325,1.863h-1.582l-.809,4.764a1.211,1.211,0,0,0,.07.686q.123.237.6.255.141.009.756-.044l-.176,1.942a4.169,4.169,0,0,1-1.424.2,2.234,2.234,0,0,1-1.819-.765,2.763,2.763,0,0,1-.492-2.021l.817-5.019h-1.345l.325-1.863h1.345l.4-2.338ZM143.833,0a2.566,2.566,0,0,1-.1-.861A3.221,3.221,0,0,1,141.311.176a2.919,2.919,0,0,1-2.07-.813,2.46,2.46,0,0,1-.769-1.964,2.843,2.843,0,0,1,1.305-2.386,5.924,5.924,0,0,1,3.335-.831l1.16.018.123-.571a1.984,1.984,0,0,0,.026-.554.952.952,0,0,0-.312-.646,1.075,1.075,0,0,0-.708-.242,1.514,1.514,0,0,0-.984.286,1.384,1.384,0,0,0-.519.875l-2.487.009a2.764,2.764,0,0,1,1.252-2.21,4.851,4.851,0,0,1,2.94-.831,3.507,3.507,0,0,1,2.531.962,2.816,2.816,0,0,1,.765,2.386l-.729,4.553-.044.563a2.714,2.714,0,0,0,.149,1.055L146.268,0Zm-1.907-1.749a2.27,2.27,0,0,0,1.872-.932l.308-1.644-.861-.009a2.406,2.406,0,0,0-1.978.835,1.454,1.454,0,0,0-.272.712.844.844,0,0,0,.2.751A1,1,0,0,0,141.926-1.749Zm7.576-.87a1.373,1.373,0,0,1,1.006.365,1.249,1.249,0,0,1,.417.962,1.3,1.3,0,0,1-.387.989,1.343,1.343,0,0,1-.993.409,1.355,1.355,0,0,1-.993-.352,1.293,1.293,0,0,1-.422-.958,1.306,1.306,0,0,1,.378-.993A1.392,1.392,0,0,1,149.5-2.619Zm1.239-7.2a1.373,1.373,0,0,1,1.006.365,1.249,1.249,0,0,1,.417.962,1.3,1.3,0,0,1-.387.989,1.343,1.343,0,0,1-.993.409,1.355,1.355,0,0,1-.993-.352,1.293,1.293,0,0,1-.422-.958,1.306,1.306,0,0,1,.378-.993A1.392,1.392,0,0,1,150.741-9.817Zm12.946,6.39a1.5,1.5,0,0,0-.2-1.063,2.722,2.722,0,0,0-1.191-.853,10.17,10.17,0,0,1-1.49-.8,3.392,3.392,0,0,1-1.67-3.19,3.551,3.551,0,0,1,1.134-2.474,4.565,4.565,0,0,1,2.716-1.138l.36-1.881h1.38l-.369,1.934a3.1,3.1,0,0,1,2.035,1.336,4.635,4.635,0,0,1,.655,2.733l-2.487-.009q.105-2.074-1.222-2.1a1.585,1.585,0,0,0-1.169.426,1.88,1.88,0,0,0-.571,1.165,1.414,1.414,0,0,0,.2.993,2.542,2.542,0,0,0,1.063.809q.787.378,1.323.7a3.527,3.527,0,0,1,1.96,3.393,3.5,3.5,0,0,1-1.129,2.47A4.65,4.65,0,0,1,162.272.141L161.93,1.89h-1.371L160.9.132a3.407,3.407,0,0,1-2.36-1.332,4.4,4.4,0,0,1-.76-2.826l2.479.009a2.522,2.522,0,0,0,.347,1.6,1.4,1.4,0,0,0,1.173.554,1.865,1.865,0,0,0,1.274-.417A1.768,1.768,0,0,0,163.688-3.428Zm4.983-2.9,1.723-6.469h7l-.334,2.118h-4.913L171.3-7.91a3.393,3.393,0,0,1,1.846-.492,3.03,3.03,0,0,1,2.544,1.165,4.337,4.337,0,0,1,.76,3.072,4.976,4.976,0,0,1-.743,2.276,4.334,4.334,0,0,1-1.674,1.556,4.621,4.621,0,0,1-2.285.519,4.065,4.065,0,0,1-1.964-.5,3.51,3.51,0,0,1-1.375-1.345,3.835,3.835,0,0,1-.5-1.912h2.435a1.914,1.914,0,0,0,.431,1.226,1.416,1.416,0,0,0,1.072.461,1.739,1.739,0,0,0,1.446-.642,3.2,3.2,0,0,0,.681-1.793,2.273,2.273,0,0,0-.3-1.582,1.46,1.46,0,0,0-1.244-.6,2.469,2.469,0,0,0-1.723.686Zm10.512,3.709a1.373,1.373,0,0,1,1.006.365,1.249,1.249,0,0,1,.417.962,1.3,1.3,0,0,1-.387.989,1.343,1.343,0,0,1-.993.409,1.355,1.355,0,0,1-.993-.352,1.293,1.293,0,0,1-.422-.958,1.306,1.306,0,0,1,.378-.993A1.392,1.392,0,0,1,179.183-2.619Zm7.11-4.9,1.187.009a2.312,2.312,0,0,0,1.516-.5A1.954,1.954,0,0,0,189.7-9.36a1.419,1.419,0,0,0-.272-1.138,1.383,1.383,0,0,0-1.081-.444,1.847,1.847,0,0,0-1.235.391,1.681,1.681,0,0,0-.628,1.059l-2.479.018a3.321,3.321,0,0,1,1.332-2.536,4.685,4.685,0,0,1,3.045-.971,4.181,4.181,0,0,1,2.865,1.011,3.081,3.081,0,0,1,.958,2.584,3.463,3.463,0,0,1-2.329,2.865,2.679,2.679,0,0,1,1.261,1.173,3.18,3.18,0,0,1,.347,1.692,3.676,3.676,0,0,1-.712,2.039,4.165,4.165,0,0,1-1.74,1.349,5.582,5.582,0,0,1-2.355.444,4,4,0,0,1-2.795-1.024,3.408,3.408,0,0,1-1.063-2.659h2.461a1.589,1.589,0,0,0,.4,1.165,1.558,1.558,0,0,0,1.165.47,2.175,2.175,0,0,0,1.477-.489,1.981,1.981,0,0,0,.721-1.326,1.607,1.607,0,0,0-.312-1.348,1.747,1.747,0,0,0-1.3-.493l-1.459-.009Zm13.1,2.4a3.284,3.284,0,0,1-2.312.984,2.946,2.946,0,0,1-1.793-.562A3.24,3.24,0,0,1,194.2-6.245a4.921,4.921,0,0,1-.25-2.14,5.305,5.305,0,0,1,.9-2.558,4.649,4.649,0,0,1,2.013-1.687,4.2,4.2,0,0,1,1.793-.343,3.291,3.291,0,0,1,2.522,1.107,4.713,4.713,0,0,1,1.063,2.874,7.945,7.945,0,0,1-.026,1.239l-.1.756a8.535,8.535,0,0,1-2.386,5.238,6.917,6.917,0,0,1-5.014,1.89h-.185L194.722-2h.132a4.738,4.738,0,0,0,2.848-.751A4.765,4.765,0,0,0,199.4-5.124Zm-1.626-.949a2.2,2.2,0,0,0,1.863-1.079l.149-1.062a7.1,7.1,0,0,0,.044-.833,2.528,2.528,0,0,0-.352-1.351,1.127,1.127,0,0,0-.967-.526,1.611,1.611,0,0,0-1.138.452,2.853,2.853,0,0,0-.765,1.259,3.959,3.959,0,0,0-.189,1.588,1.958,1.958,0,0,0,.417,1.123A1.191,1.191,0,0,0,197.771-6.073Zm9.29,6.249A3.245,3.245,0,0,1,204.5-.949a4.731,4.731,0,0,1-.932-3.041,9.679,9.679,0,0,1,.07-1.3l.36-2.4a7.468,7.468,0,0,1,1.7-3.973,4.109,4.109,0,0,1,3.243-1.31,3.265,3.265,0,0,1,2.571,1.121,4.682,4.682,0,0,1,.936,3.028,9.757,9.757,0,0,1-.07,1.31L212-5.133a7.629,7.629,0,0,1-1.692,3.995A4.084,4.084,0,0,1,207.062.176Zm2.979-9.294q0-1.746-1.23-1.807-1.775-.079-2.259,2.7l-.439,2.965a10.681,10.681,0,0,0-.141,1.544q-.044,1.781,1.222,1.842,1.784.114,2.268-2.781l.466-3.123A9.2,9.2,0,0,0,210.041-9.118Zm4.623,6.5a1.373,1.373,0,0,1,1.006.365,1.249,1.249,0,0,1,.417.962A1.3,1.3,0,0,1,215.7-.3a1.343,1.343,0,0,1-.993.409,1.355,1.355,0,0,1-.993-.352,1.293,1.293,0,0,1-.422-.958,1.306,1.306,0,0,1,.378-.993A1.392,1.392,0,0,1,214.664-2.619Zm4.755-3.709,1.723-6.469h7l-.334,2.118h-4.913l-.844,2.769a3.393,3.393,0,0,1,1.846-.492,3.03,3.03,0,0,1,2.544,1.165,4.337,4.337,0,0,1,.76,3.072,4.976,4.976,0,0,1-.743,2.276A4.334,4.334,0,0,1,224.78-.334,4.621,4.621,0,0,1,222.5.185a4.065,4.065,0,0,1-1.964-.5,3.51,3.51,0,0,1-1.375-1.345,3.835,3.835,0,0,1-.5-1.912h2.435a1.914,1.914,0,0,0,.431,1.226,1.416,1.416,0,0,0,1.072.461,1.739,1.739,0,0,0,1.446-.642,3.2,3.2,0,0,0,.681-1.793,2.273,2.273,0,0,0-.3-1.582,1.46,1.46,0,0,0-1.244-.6,2.469,2.469,0,0,0-1.723.686Zm15.46,1.2a3.284,3.284,0,0,1-2.312.984,2.946,2.946,0,0,1-1.793-.562,3.24,3.24,0,0,1-1.094-1.542,4.921,4.921,0,0,1-.25-2.14,5.305,5.305,0,0,1,.9-2.558,4.649,4.649,0,0,1,2.013-1.687,4.2,4.2,0,0,1,1.793-.343,3.291,3.291,0,0,1,2.522,1.107,4.713,4.713,0,0,1,1.063,2.874,7.945,7.945,0,0,1-.026,1.239l-.1.756a8.535,8.535,0,0,1-2.386,5.238,6.917,6.917,0,0,1-5.014,1.89h-.185L230.2-2h.132a4.738,4.738,0,0,0,2.848-.751A4.765,4.765,0,0,0,234.879-5.124Zm-1.626-.949a2.2,2.2,0,0,0,1.863-1.079l.149-1.062a7.1,7.1,0,0,0,.044-.833,2.528,2.528,0,0,0-.352-1.351,1.127,1.127,0,0,0-.967-.526,1.611,1.611,0,0,0-1.138.452,2.853,2.853,0,0,0-.765,1.259,3.959,3.959,0,0,0-.189,1.588,1.958,1.958,0,0,0,.417,1.123A1.191,1.191,0,0,0,233.253-6.073Zm9.29,6.249a3.245,3.245,0,0,1-2.566-1.125,4.731,4.731,0,0,1-.932-3.041,9.679,9.679,0,0,1,.07-1.3l.36-2.4a7.468,7.468,0,0,1,1.7-3.973,4.109,4.109,0,0,1,3.243-1.31,3.265,3.265,0,0,1,2.571,1.121,4.682,4.682,0,0,1,.936,3.028,9.757,9.757,0,0,1-.07,1.31l-.369,2.382a7.629,7.629,0,0,1-1.692,3.995A4.084,4.084,0,0,1,242.543.176Zm2.979-9.294q0-1.746-1.23-1.807-1.775-.079-2.259,2.7l-.439,2.965a10.681,10.681,0,0,0-.141,1.544q-.044,1.781,1.222,1.842,1.784.114,2.268-2.781l.466-3.123A9.2,9.2,0,0,0,245.522-9.118Zm12.911,4.662h-4.816l.352-2.048h4.825ZM270.6-3.428a1.5,1.5,0,0,0-.2-1.063,2.722,2.722,0,0,0-1.191-.853,10.17,10.17,0,0,1-1.49-.8,3.392,3.392,0,0,1-1.67-3.19,3.551,3.551,0,0,1,1.134-2.474,4.565,4.565,0,0,1,2.716-1.138l.36-1.881h1.38l-.369,1.934a3.1,3.1,0,0,1,2.035,1.336,4.635,4.635,0,0,1,.655,2.733l-2.487-.009q.105-2.074-1.222-2.1a1.585,1.585,0,0,0-1.169.426,1.88,1.88,0,0,0-.571,1.165,1.414,1.414,0,0,0,.2.993,2.542,2.542,0,0,0,1.063.809q.787.378,1.323.7a3.527,3.527,0,0,1,1.96,3.393,3.5,3.5,0,0,1-1.129,2.47A4.65,4.65,0,0,1,269.183.141L268.84,1.89h-1.371l.343-1.758a3.407,3.407,0,0,1-2.36-1.332,4.4,4.4,0,0,1-.76-2.826l2.479.009a2.522,2.522,0,0,0,.347,1.6,1.4,1.4,0,0,0,1.173.554,1.865,1.865,0,0,0,1.274-.417A1.768,1.768,0,0,0,270.6-3.428Zm11.7-1.389H283.7l-.36,2.048h-1.406L281.452,0h-2.479l.483-2.769h-5.08l.176-1.731,6.53-8.3h2.593Zm-5.168-.018,2.689.018.87-4.553-.229.316Zm8.965,2.215a1.373,1.373,0,0,1,1.006.365,1.249,1.249,0,0,1,.417.962,1.3,1.3,0,0,1-.387.989,1.343,1.343,0,0,1-.993.409,1.355,1.355,0,0,1-.993-.352,1.293,1.293,0,0,1-.422-.958A1.306,1.306,0,0,1,285.1-2.2,1.392,1.392,0,0,1,286.093-2.619Zm10.107-2.5a3.284,3.284,0,0,1-2.312.984A2.946,2.946,0,0,1,292.1-4.7,3.24,3.24,0,0,1,291-6.245a4.921,4.921,0,0,1-.25-2.14,5.305,5.305,0,0,1,.9-2.558,4.649,4.649,0,0,1,2.013-1.687,4.2,4.2,0,0,1,1.793-.343,3.291,3.291,0,0,1,2.522,1.107,4.713,4.713,0,0,1,1.063,2.874,7.945,7.945,0,0,1-.026,1.239l-.1.756a8.535,8.535,0,0,1-2.386,5.238,6.917,6.917,0,0,1-5.014,1.89h-.185L291.524-2h.132a4.738,4.738,0,0,0,2.848-.751A4.765,4.765,0,0,0,296.2-5.124Zm-1.626-.949a2.2,2.2,0,0,0,1.863-1.079l.149-1.062a7.1,7.1,0,0,0,.044-.833,2.528,2.528,0,0,0-.352-1.351,1.127,1.127,0,0,0-.967-.526,1.611,1.611,0,0,0-1.138.452,2.853,2.853,0,0,0-.765,1.259,3.959,3.959,0,0,0-.189,1.588,1.958,1.958,0,0,0,.417,1.123A1.191,1.191,0,0,0,294.574-6.073Zm13.1,1.257h1.406l-.36,2.048H307.31L306.826,0h-2.479l.483-2.769h-5.08l.176-1.731,6.53-8.3h2.593ZM302.5-4.834l2.689.018.87-4.553-.229.316Zm13.913-.29a3.284,3.284,0,0,1-2.312.984,2.946,2.946,0,0,1-1.793-.562,3.24,3.24,0,0,1-1.094-1.542,4.921,4.921,0,0,1-.25-2.14,5.305,5.305,0,0,1,.9-2.558,4.649,4.649,0,0,1,2.013-1.687,4.2,4.2,0,0,1,1.793-.343,3.291,3.291,0,0,1,2.522,1.107,4.713,4.713,0,0,1,1.063,2.874,7.945,7.945,0,0,1-.026,1.239l-.1.756a8.535,8.535,0,0,1-2.386,5.238A6.917,6.917,0,0,1,311.73.132h-.185L311.739-2h.132a4.738,4.738,0,0,0,2.848-.751A4.765,4.765,0,0,0,316.415-5.124Zm-1.626-.949a2.2,2.2,0,0,0,1.863-1.079l.149-1.062a7.1,7.1,0,0,0,.044-.833,2.528,2.528,0,0,0-.352-1.351,1.127,1.127,0,0,0-.967-.526,1.611,1.611,0,0,0-1.138.452,2.853,2.853,0,0,0-.765,1.259,3.959,3.959,0,0,0-.189,1.588,1.958,1.958,0,0,0,.417,1.123A1.191,1.191,0,0,0,314.789-6.073Zm6.785,3.454a1.373,1.373,0,0,1,1.006.365,1.249,1.249,0,0,1,.417.962,1.3,1.3,0,0,1-.387.989,1.343,1.343,0,0,1-.993.409,1.355,1.355,0,0,1-.993-.352A1.293,1.293,0,0,1,320.2-1.2a1.306,1.306,0,0,1,.378-.993A1.392,1.392,0,0,1,321.574-2.619Zm13.632-8.629L328.7,0h-2.733l6.486-10.749h-6.117l.325-2.048h8.78Zm10.107,0L338.81,0h-2.733l6.486-10.749h-6.117l.325-2.048h8.78ZM348.9-7.523l1.187.009a2.312,2.312,0,0,0,1.516-.5,1.954,1.954,0,0,0,.708-1.345,1.419,1.419,0,0,0-.272-1.138,1.383,1.383,0,0,0-1.081-.444,1.847,1.847,0,0,0-1.235.391,1.681,1.681,0,0,0-.628,1.059l-2.479.018a3.321,3.321,0,0,1,1.332-2.536,4.685,4.685,0,0,1,3.045-.971,4.181,4.181,0,0,1,2.865,1.011,3.081,3.081,0,0,1,.958,2.584,3.463,3.463,0,0,1-2.329,2.865,2.679,2.679,0,0,1,1.261,1.173,3.18,3.18,0,0,1,.347,1.692,3.676,3.676,0,0,1-.712,2.039,4.165,4.165,0,0,1-1.74,1.349,5.582,5.582,0,0,1-2.355.444,4,4,0,0,1-2.795-1.024,3.408,3.408,0,0,1-1.063-2.659h2.461a1.589,1.589,0,0,0,.4,1.165,1.558,1.558,0,0,0,1.165.47,2.175,2.175,0,0,0,1.477-.489,1.981,1.981,0,0,0,.721-1.326,1.607,1.607,0,0,0-.312-1.348,1.747,1.747,0,0,0-1.3-.493l-1.459-.009Z" transform="translate(24 37.648)" fill="#12263f"/>
        </g>
      </g>
    </g>
    <g id="Grupo_89268" data-name="Grupo 89268" transform="translate(-4.537 13731.008)">
      <rect id="Rectángulo_31816-3" data-name="Rectángulo 31816" width="415.693" height="77.29" transform="translate(340.269 2895.855)" fill="#6595bf"/>
      <g id="Grupo_89142-3" data-name="Grupo 89142" transform="translate(254.568 2888.855)">
        <rect id="Rectángulo_31778-3" data-name="Rectángulo 31778" width="422.69" height="79.065" transform="translate(75.294)" fill="#fff" stroke="#12263f" stroke-miterlimit="10" stroke-width="1"/>
      </g>
      <g id="Grupo_89241-3" data-name="Grupo 89241" transform="translate(47.574 45.726)">
        <g id="Grupo_89143-3" data-name="Grupo 89143" transform="translate(293.678 2852.885)">
          <path id="Trazado_148394" data-name="Trazado 148394" d="M5.326-3.2l4.307-9.6h2.953L6.267,0H3.577l-2.3-12.8H4.043ZM16.629,0a2.566,2.566,0,0,1-.1-.861A3.221,3.221,0,0,1,14.106.176a2.919,2.919,0,0,1-2.07-.813A2.46,2.46,0,0,1,11.268-2.6a2.843,2.843,0,0,1,1.305-2.386,5.924,5.924,0,0,1,3.335-.831l1.16.018.123-.571a1.984,1.984,0,0,0,.026-.554.952.952,0,0,0-.312-.646,1.075,1.075,0,0,0-.708-.242,1.514,1.514,0,0,0-.984.286,1.384,1.384,0,0,0-.519.875l-2.487.009a2.764,2.764,0,0,1,1.252-2.21,4.851,4.851,0,0,1,2.94-.831,3.507,3.507,0,0,1,2.531.962A2.816,2.816,0,0,1,19.7-6.337l-.729,4.553-.044.563a2.714,2.714,0,0,0,.149,1.055L19.063,0ZM14.722-1.749a2.27,2.27,0,0,0,1.872-.932L16.9-4.324l-.861-.009a2.406,2.406,0,0,0-1.978.835,1.454,1.454,0,0,0-.272.712.844.844,0,0,0,.2.751A1,1,0,0,0,14.722-1.749ZM27.088-7.128a5.117,5.117,0,0,0-.835-.088,2.4,2.4,0,0,0-2.1.993L23.054,0H20.575l1.652-9.51,2.329-.009-.229,1.16A2.615,2.615,0,0,1,26.543-9.7a3.615,3.615,0,0,1,.861.123ZM29.654,0h-2.5l1.652-9.51h2.5ZM29.1-11.927a1.238,1.238,0,0,1,.387-.976,1.36,1.36,0,0,1,.976-.387,1.367,1.367,0,0,1,.976.343,1.233,1.233,0,0,1,.431.932,1.273,1.273,0,0,1-.365.949,1.367,1.367,0,0,1-1,.422,1.39,1.39,0,0,1-.971-.334A1.227,1.227,0,0,1,29.1-11.927ZM37.257,0a2.566,2.566,0,0,1-.1-.861A3.221,3.221,0,0,1,34.734.176a2.919,2.919,0,0,1-2.07-.813A2.46,2.46,0,0,1,31.9-2.6,2.843,2.843,0,0,1,33.2-4.988a5.924,5.924,0,0,1,3.335-.831L37.7-5.8l.123-.571a1.984,1.984,0,0,0,.026-.554.952.952,0,0,0-.312-.646,1.075,1.075,0,0,0-.708-.242,1.514,1.514,0,0,0-.984.286,1.384,1.384,0,0,0-.519.875l-2.487.009a2.764,2.764,0,0,1,1.252-2.21,4.851,4.851,0,0,1,2.94-.831,3.507,3.507,0,0,1,2.531.962,2.816,2.816,0,0,1,.765,2.386l-.729,4.553-.044.563A2.714,2.714,0,0,0,39.7-.167L39.691,0ZM35.35-1.749a2.27,2.27,0,0,0,1.872-.932l.308-1.644-.861-.009A2.406,2.406,0,0,0,34.69-3.5a1.454,1.454,0,0,0-.272.712.844.844,0,0,0,.2.751A1,1,0,0,0,35.35-1.749Zm10.02-.114a1.628,1.628,0,0,0,1.143-.374,1.836,1.836,0,0,0,.6-1.042l2.329-.009a3.416,3.416,0,0,1-.628,1.8A3.818,3.818,0,0,1,47.3-.237a4.327,4.327,0,0,1-1.991.422,3.514,3.514,0,0,1-2.742-1.2,4.461,4.461,0,0,1-.976-3.111l.026-.483.009-.1A5.945,5.945,0,0,1,43.189-8.38a4.231,4.231,0,0,1,3.278-1.305,3.428,3.428,0,0,1,2.553,1.05,3.71,3.71,0,0,1,.927,2.676H47.637a1.947,1.947,0,0,0-.334-1.2,1.269,1.269,0,0,0-1-.475q-1.775-.053-2.153,2.593a8.755,8.755,0,0,0-.1,1.617Q44.139-1.89,45.369-1.863ZM53.016,0h-2.5l1.652-9.51h2.5Zm-.554-11.927a1.238,1.238,0,0,1,.387-.976,1.36,1.36,0,0,1,.976-.387,1.367,1.367,0,0,1,.976.343,1.233,1.233,0,0,1,.431.932,1.273,1.273,0,0,1-.365.949,1.367,1.367,0,0,1-1,.422,1.39,1.39,0,0,1-.971-.334A1.227,1.227,0,0,1,52.462-11.927Zm8.095,2.241a3.814,3.814,0,0,1,2.167.646,3.638,3.638,0,0,1,1.336,1.731,5.357,5.357,0,0,1,.3,2.448,5.786,5.786,0,0,1-1.578,3.669,4.455,4.455,0,0,1-3.4,1.367,3.8,3.8,0,0,1-2.145-.637A3.624,3.624,0,0,1,55.907-2.18,5.239,5.239,0,0,1,55.6-4.605,5.957,5.957,0,0,1,57.2-8.35,4.363,4.363,0,0,1,60.557-9.686Zm-2.5,5.979a2.194,2.194,0,0,0,.4,1.33,1.314,1.314,0,0,0,1.063.5A1.926,1.926,0,0,0,61.3-2.921a5.227,5.227,0,0,0,.606-2.848A2.387,2.387,0,0,0,61.5-7.116a1.293,1.293,0,0,0-1.068-.522A1.929,1.929,0,0,0,58.663-6.6,5.173,5.173,0,0,0,58.052-3.706ZM61.7-13.5h2.874l-2.795,2.725H59.59Zm7.295,3.981-.211,1.125a3.422,3.422,0,0,1,2.769-1.292,2.281,2.281,0,0,1,1.986.984A3.966,3.966,0,0,1,74-6.047L73,0H70.523l1.02-6.073a2.844,2.844,0,0,0,.018-.624,1.007,1.007,0,0,0-1.125-.923,2.133,2.133,0,0,0-1.749.905L67.5,0H65.021l1.652-9.51ZM84.885,0a2.566,2.566,0,0,1-.1-.861A3.221,3.221,0,0,1,82.362.176a2.919,2.919,0,0,1-2.07-.813A2.46,2.46,0,0,1,79.523-2.6a2.843,2.843,0,0,1,1.305-2.386,5.924,5.924,0,0,1,3.335-.831l1.16.018.123-.571a1.984,1.984,0,0,0,.026-.554.952.952,0,0,0-.312-.646,1.075,1.075,0,0,0-.708-.242,1.514,1.514,0,0,0-.984.286,1.384,1.384,0,0,0-.519.875l-2.487.009a2.764,2.764,0,0,1,1.252-2.21,4.851,4.851,0,0,1,2.94-.831,3.507,3.507,0,0,1,2.531.962,2.816,2.816,0,0,1,.765,2.386l-.729,4.553-.044.563a2.714,2.714,0,0,0,.149,1.055L87.319,0ZM82.978-1.749a2.27,2.27,0,0,0,1.872-.932l.308-1.644L84.3-4.333a2.406,2.406,0,0,0-1.978.835,1.454,1.454,0,0,0-.272.712.844.844,0,0,0,.2.751A1,1,0,0,0,82.978-1.749ZM97.972-4.729a6.819,6.819,0,0,1-1.371,3.6A3.412,3.412,0,0,1,93.735.185,2.652,2.652,0,0,1,91.45-1.028L91.09,0H88.831l2.338-13.5h2.487L92.7-8.64a2.963,2.963,0,0,1,2.32-1.046,2.683,2.683,0,0,1,2.167.989,4.376,4.376,0,0,1,.839,2.685A10.274,10.274,0,0,1,97.972-4.729Zm-2.461-.185a7.373,7.373,0,0,0,.053-1.164q-.1-1.534-1.266-1.56a2.062,2.062,0,0,0-1.819,1l-.686,3.791a1.415,1.415,0,0,0,1.424.987q1.828.053,2.241-2.662Zm8.745,2.233q.141-.7-.976-1.02l-.8-.2q-2.839-.782-2.76-2.76a2.731,2.731,0,0,1,1.191-2.193,4.434,4.434,0,0,1,2.764-.831,3.978,3.978,0,0,1,2.6.853,2.809,2.809,0,0,1,1.011,2.224l-2.461-.009a1.084,1.084,0,0,0-1.213-1.239,1.745,1.745,0,0,0-1.006.29,1.194,1.194,0,0,0-.523.782q-.132.7,1.063.993l.352.079a7.071,7.071,0,0,1,1.854.664,2.8,2.8,0,0,1,.989.927,2.3,2.3,0,0,1,.321,1.327,2.533,2.533,0,0,1-.584,1.582A3.577,3.577,0,0,1,104.55-.167a5.328,5.328,0,0,1-2.043.343,4.015,4.015,0,0,1-2.637-.91A2.933,2.933,0,0,1,98.8-3.041l2.338.018a1.285,1.285,0,0,0,1.459,1.38,2.076,2.076,0,0,0,1.129-.281A1.111,1.111,0,0,0,104.256-2.681Zm8.991-7a3.814,3.814,0,0,1,2.167.646,3.638,3.638,0,0,1,1.336,1.731,5.357,5.357,0,0,1,.3,2.448,5.786,5.786,0,0,1-1.578,3.669,4.455,4.455,0,0,1-3.4,1.367,3.8,3.8,0,0,1-2.145-.637A3.624,3.624,0,0,1,108.6-2.18a5.239,5.239,0,0,1-.308-2.426,5.957,5.957,0,0,1,1.6-3.744A4.363,4.363,0,0,1,113.247-9.686Zm-2.5,5.979a2.194,2.194,0,0,0,.4,1.33,1.314,1.314,0,0,0,1.063.5,1.926,1.926,0,0,0,1.793-1.049,5.227,5.227,0,0,0,.606-2.848,2.387,2.387,0,0,0-.409-1.347,1.293,1.293,0,0,0-1.068-.522,1.929,1.929,0,0,0-1.771,1.04A5.173,5.173,0,0,0,110.742-3.706ZM120.384,0h-2.5l2.347-13.5h2.487Zm7.989-.984a3.283,3.283,0,0,1-2.619,1.16,2.443,2.443,0,0,1-2.074-.984,3.6,3.6,0,0,1-.545-2.549l1.028-6.152h2.479L125.6-3.324a2.446,2.446,0,0,0-.009.545.9.9,0,0,0,.976.906,2.265,2.265,0,0,0,1.907-.889l1.187-6.749h2.5L130.5,0h-2.312Zm9-10.863L136.96-9.51h1.582l-.325,1.863h-1.582l-.809,4.764a1.211,1.211,0,0,0,.07.686q.123.237.6.255.141.009.756-.044l-.176,1.942a4.169,4.169,0,0,1-1.424.2,2.234,2.234,0,0,1-1.819-.765,2.763,2.763,0,0,1-.492-2.021l.817-5.019h-1.345l.325-1.863h1.345l.4-2.338ZM143.833,0a2.566,2.566,0,0,1-.1-.861A3.221,3.221,0,0,1,141.311.176a2.919,2.919,0,0,1-2.07-.813,2.46,2.46,0,0,1-.769-1.964,2.843,2.843,0,0,1,1.305-2.386,5.924,5.924,0,0,1,3.335-.831l1.16.018.123-.571a1.984,1.984,0,0,0,.026-.554.952.952,0,0,0-.312-.646,1.075,1.075,0,0,0-.708-.242,1.514,1.514,0,0,0-.984.286,1.384,1.384,0,0,0-.519.875l-2.487.009a2.764,2.764,0,0,1,1.252-2.21,4.851,4.851,0,0,1,2.94-.831,3.507,3.507,0,0,1,2.531.962,2.816,2.816,0,0,1,.765,2.386l-.729,4.553-.044.563a2.714,2.714,0,0,0,.149,1.055L146.268,0Zm-1.907-1.749a2.27,2.27,0,0,0,1.872-.932l.308-1.644-.861-.009a2.406,2.406,0,0,0-1.978.835,1.454,1.454,0,0,0-.272.712.844.844,0,0,0,.2.751A1,1,0,0,0,141.926-1.749Zm7.576-.87a1.373,1.373,0,0,1,1.006.365,1.249,1.249,0,0,1,.417.962,1.3,1.3,0,0,1-.387.989,1.343,1.343,0,0,1-.993.409,1.355,1.355,0,0,1-.993-.352,1.293,1.293,0,0,1-.422-.958,1.306,1.306,0,0,1,.378-.993A1.392,1.392,0,0,1,149.5-2.619Zm1.239-7.2a1.373,1.373,0,0,1,1.006.365,1.249,1.249,0,0,1,.417.962,1.3,1.3,0,0,1-.387.989,1.343,1.343,0,0,1-.993.409,1.355,1.355,0,0,1-.993-.352,1.293,1.293,0,0,1-.422-.958,1.306,1.306,0,0,1,.378-.993A1.392,1.392,0,0,1,150.741-9.817Zm12.946,6.39a1.5,1.5,0,0,0-.2-1.063,2.722,2.722,0,0,0-1.191-.853,10.17,10.17,0,0,1-1.49-.8,3.392,3.392,0,0,1-1.67-3.19,3.551,3.551,0,0,1,1.134-2.474,4.565,4.565,0,0,1,2.716-1.138l.36-1.881h1.38l-.369,1.934a3.1,3.1,0,0,1,2.035,1.336,4.635,4.635,0,0,1,.655,2.733l-2.487-.009q.105-2.074-1.222-2.1a1.585,1.585,0,0,0-1.169.426,1.88,1.88,0,0,0-.571,1.165,1.414,1.414,0,0,0,.2.993,2.542,2.542,0,0,0,1.063.809q.787.378,1.323.7a3.527,3.527,0,0,1,1.96,3.393,3.5,3.5,0,0,1-1.129,2.47A4.65,4.65,0,0,1,162.272.141L161.93,1.89h-1.371L160.9.132a3.407,3.407,0,0,1-2.36-1.332,4.4,4.4,0,0,1-.76-2.826l2.479.009a2.522,2.522,0,0,0,.347,1.6,1.4,1.4,0,0,0,1.173.554,1.865,1.865,0,0,0,1.274-.417A1.768,1.768,0,0,0,163.688-3.428Zm11.7-1.389h1.406l-.36,2.048h-1.406L174.542,0h-2.479l.483-2.769h-5.08l.176-1.731,6.53-8.3h2.593Zm-5.168-.018,2.689.018.87-4.553-.229.316Zm15.275.018H186.9l-.36,2.048h-1.406L184.649,0h-2.479l.483-2.769h-5.08L177.75-4.5l6.53-8.3h2.593Zm-5.168-.018,2.689.018.87-4.553-.229.316Zm11.47,5.01a3.245,3.245,0,0,1-2.566-1.125A4.731,4.731,0,0,1,188.3-3.99a9.679,9.679,0,0,1,.07-1.3l.36-2.4a7.468,7.468,0,0,1,1.7-3.973,4.109,4.109,0,0,1,3.243-1.31,3.265,3.265,0,0,1,2.571,1.121,4.682,4.682,0,0,1,.936,3.028,9.757,9.757,0,0,1-.07,1.31l-.369,2.382a7.629,7.629,0,0,1-1.692,3.995A4.084,4.084,0,0,1,191.795.176Zm2.979-9.294q0-1.746-1.23-1.807-1.775-.079-2.259,2.7l-.439,2.965a10.681,10.681,0,0,0-.141,1.544q-.044,1.781,1.222,1.842,1.784.114,2.268-2.781l.466-3.123A9.2,9.2,0,0,0,194.774-9.118Zm4.623,6.5a1.373,1.373,0,0,1,1.006.365,1.249,1.249,0,0,1,.417.962,1.3,1.3,0,0,1-.387.989,1.343,1.343,0,0,1-.993.409,1.355,1.355,0,0,1-.993-.352,1.293,1.293,0,0,1-.422-.958A1.306,1.306,0,0,1,198.4-2.2,1.392,1.392,0,0,1,199.4-2.619Zm13.1-6.847a3.507,3.507,0,0,1-2.2,2.927,3.293,3.293,0,0,1,1.116,1.283,3.266,3.266,0,0,1,.308,1.67,3.63,3.63,0,0,1-1.4,2.76,4.847,4.847,0,0,1-3.217,1,4.023,4.023,0,0,1-2.808-1,3.111,3.111,0,0,1-.962-2.6,3.724,3.724,0,0,1,2.5-3.217,3.04,3.04,0,0,1-1.2-2.681,3.713,3.713,0,0,1,.642-1.934,3.735,3.735,0,0,1,1.56-1.292,4.814,4.814,0,0,1,2.14-.422,3.729,3.729,0,0,1,2.637.989A3.078,3.078,0,0,1,212.5-9.466Zm-3.217,5.7a1.675,1.675,0,0,0-.272-1.254,1.312,1.312,0,0,0-1.09-.517,1.886,1.886,0,0,0-1.375.517,2.246,2.246,0,0,0-.69,1.4,1.645,1.645,0,0,0,.268,1.241,1.333,1.333,0,0,0,1.1.5,1.885,1.885,0,0,0,1.375-.509A2.221,2.221,0,0,0,209.285-3.766ZM210-9.338a1.6,1.6,0,0,0-.229-1.144,1.1,1.1,0,0,0-.914-.443,1.553,1.553,0,0,0-1.178.46A2.074,2.074,0,0,0,207.1-9.2a1.726,1.726,0,0,0,.215,1.162,1.057,1.057,0,0,0,.918.469,1.542,1.542,0,0,0,1.178-.478A2.137,2.137,0,0,0,210-9.338ZM218.83,0h-2.479l1.688-9.738-3.111.94.387-2.171,5.344-1.846.325-.009Zm14.414-11.248L226.74,0h-2.733l6.486-10.749h-6.117L224.7-12.8h8.78Z" transform="translate(74 37.648)" fill="#12263f"/>
        </g>
      </g>
    </g>
    <g id="Grupo_89274" data-name="Grupo 89274" transform="translate(-2.537 13930.463)">
      <rect id="Rectángulo_31816-4" data-name="Rectángulo 31816" width="566.281" height="77.29" transform="translate(264.975 2895.855)" fill="#6595bf"/>
      <g id="Grupo_89142-4" data-name="Grupo 89142" transform="translate(254.568 2888.855)">
        <rect id="Rectángulo_31778-4" data-name="Rectángulo 31778" width="573.278" height="79.065" transform="translate(0)" fill="#fff" stroke="#12263f" stroke-miterlimit="10" stroke-width="1"/>
      </g>
      <g id="Grupo_89242" data-name="Grupo 89242" transform="translate(131.199 30.511)">
        <g id="Grupo_89143-4" data-name="Grupo 89143" transform="translate(161.678 2872.885)">
          <path id="Trazado_148398" data-name="Trazado 148398" d="M5.326-3.2l4.307-9.6h2.953L6.267,0H3.577l-2.3-12.8H4.043ZM16.629,0a2.566,2.566,0,0,1-.1-.861A3.221,3.221,0,0,1,14.106.176a2.919,2.919,0,0,1-2.07-.813A2.46,2.46,0,0,1,11.268-2.6a2.843,2.843,0,0,1,1.305-2.386,5.924,5.924,0,0,1,3.335-.831l1.16.018.123-.571a1.984,1.984,0,0,0,.026-.554.952.952,0,0,0-.312-.646,1.075,1.075,0,0,0-.708-.242,1.514,1.514,0,0,0-.984.286,1.384,1.384,0,0,0-.519.875l-2.487.009a2.764,2.764,0,0,1,1.252-2.21,4.851,4.851,0,0,1,2.94-.831,3.507,3.507,0,0,1,2.531.962A2.816,2.816,0,0,1,19.7-6.337l-.729,4.553-.044.563a2.714,2.714,0,0,0,.149,1.055L19.063,0ZM14.722-1.749a2.27,2.27,0,0,0,1.872-.932L16.9-4.324l-.861-.009a2.406,2.406,0,0,0-1.978.835,1.454,1.454,0,0,0-.272.712.844.844,0,0,0,.2.751A1,1,0,0,0,14.722-1.749ZM27.088-7.128a5.117,5.117,0,0,0-.835-.088,2.4,2.4,0,0,0-2.1.993L23.054,0H20.575l1.652-9.51,2.329-.009-.229,1.16A2.615,2.615,0,0,1,26.543-9.7a3.615,3.615,0,0,1,.861.123ZM29.654,0h-2.5l1.652-9.51h2.5ZM29.1-11.927a1.238,1.238,0,0,1,.387-.976,1.36,1.36,0,0,1,.976-.387,1.367,1.367,0,0,1,.976.343,1.233,1.233,0,0,1,.431.932,1.273,1.273,0,0,1-.365.949,1.367,1.367,0,0,1-1,.422,1.39,1.39,0,0,1-.971-.334A1.227,1.227,0,0,1,29.1-11.927ZM37.257,0a2.566,2.566,0,0,1-.1-.861A3.221,3.221,0,0,1,34.734.176a2.919,2.919,0,0,1-2.07-.813A2.46,2.46,0,0,1,31.9-2.6,2.843,2.843,0,0,1,33.2-4.988a5.924,5.924,0,0,1,3.335-.831L37.7-5.8l.123-.571a1.984,1.984,0,0,0,.026-.554.952.952,0,0,0-.312-.646,1.075,1.075,0,0,0-.708-.242,1.514,1.514,0,0,0-.984.286,1.384,1.384,0,0,0-.519.875l-2.487.009a2.764,2.764,0,0,1,1.252-2.21,4.851,4.851,0,0,1,2.94-.831,3.507,3.507,0,0,1,2.531.962,2.816,2.816,0,0,1,.765,2.386l-.729,4.553-.044.563A2.714,2.714,0,0,0,39.7-.167L39.691,0ZM35.35-1.749a2.27,2.27,0,0,0,1.872-.932l.308-1.644-.861-.009A2.406,2.406,0,0,0,34.69-3.5a1.454,1.454,0,0,0-.272.712.844.844,0,0,0,.2.751A1,1,0,0,0,35.35-1.749Zm10.02-.114a1.628,1.628,0,0,0,1.143-.374,1.836,1.836,0,0,0,.6-1.042l2.329-.009a3.416,3.416,0,0,1-.628,1.8A3.818,3.818,0,0,1,47.3-.237a4.327,4.327,0,0,1-1.991.422,3.514,3.514,0,0,1-2.742-1.2,4.461,4.461,0,0,1-.976-3.111l.026-.483.009-.1A5.945,5.945,0,0,1,43.189-8.38a4.231,4.231,0,0,1,3.278-1.305,3.428,3.428,0,0,1,2.553,1.05,3.71,3.71,0,0,1,.927,2.676H47.637a1.947,1.947,0,0,0-.334-1.2,1.269,1.269,0,0,0-1-.475q-1.775-.053-2.153,2.593a8.755,8.755,0,0,0-.1,1.617Q44.139-1.89,45.369-1.863ZM53.016,0h-2.5l1.652-9.51h2.5Zm-.554-11.927a1.238,1.238,0,0,1,.387-.976,1.36,1.36,0,0,1,.976-.387,1.367,1.367,0,0,1,.976.343,1.233,1.233,0,0,1,.431.932,1.273,1.273,0,0,1-.365.949,1.367,1.367,0,0,1-1,.422,1.39,1.39,0,0,1-.971-.334A1.227,1.227,0,0,1,52.462-11.927Zm8.095,2.241a3.814,3.814,0,0,1,2.167.646,3.638,3.638,0,0,1,1.336,1.731,5.357,5.357,0,0,1,.3,2.448,5.786,5.786,0,0,1-1.578,3.669,4.455,4.455,0,0,1-3.4,1.367,3.8,3.8,0,0,1-2.145-.637A3.624,3.624,0,0,1,55.907-2.18,5.239,5.239,0,0,1,55.6-4.605,5.957,5.957,0,0,1,57.2-8.35,4.363,4.363,0,0,1,60.557-9.686Zm-2.5,5.979a2.194,2.194,0,0,0,.4,1.33,1.314,1.314,0,0,0,1.063.5A1.926,1.926,0,0,0,61.3-2.921a5.227,5.227,0,0,0,.606-2.848A2.387,2.387,0,0,0,61.5-7.116a1.293,1.293,0,0,0-1.068-.522A1.929,1.929,0,0,0,58.663-6.6,5.173,5.173,0,0,0,58.052-3.706ZM61.7-13.5h2.874l-2.795,2.725H59.59Zm7.295,3.981-.211,1.125a3.422,3.422,0,0,1,2.769-1.292,2.281,2.281,0,0,1,1.986.984A3.966,3.966,0,0,1,74-6.047L73,0H70.523l1.02-6.073a2.844,2.844,0,0,0,.018-.624,1.007,1.007,0,0,0-1.125-.923,2.133,2.133,0,0,0-1.749.905L67.5,0H65.021l1.652-9.51ZM85.9-7.128a5.117,5.117,0,0,0-.835-.088,2.4,2.4,0,0,0-2.1.993L81.861,0H79.383l1.652-9.51,2.329-.009-.229,1.16A2.615,2.615,0,0,1,85.351-9.7a3.615,3.615,0,0,1,.861.123ZM90.36.176a4.137,4.137,0,0,1-2.21-.611,3.7,3.7,0,0,1-1.437-1.652A4.605,4.605,0,0,1,86.344-4.4l.026-.352A6.148,6.148,0,0,1,87.179-7.3a4.884,4.884,0,0,1,1.74-1.789,4.306,4.306,0,0,1,2.355-.593,3.29,3.29,0,0,1,2.782,1.351A4.631,4.631,0,0,1,94.772-5L94.632-3.92H88.8a2.041,2.041,0,0,0,.448,1.477,1.711,1.711,0,0,0,1.318.571,3.041,3.041,0,0,0,2.373-1.055l1.134,1.406A3.527,3.527,0,0,1,92.531-.259,5.059,5.059,0,0,1,90.36.176Zm.791-7.813a1.761,1.761,0,0,0-1.217.431,3.784,3.784,0,0,0-.954,1.556h3.41l.053-.229a2.33,2.33,0,0,0,.009-.668,1.276,1.276,0,0,0-.431-.8A1.35,1.35,0,0,0,91.151-7.638ZM97.989,0h-2.5L97.84-13.5h2.487Zm7.6,0a2.566,2.566,0,0,1-.1-.861A3.221,3.221,0,0,1,103.069.176,2.919,2.919,0,0,1,101-.637,2.46,2.46,0,0,1,100.23-2.6a2.843,2.843,0,0,1,1.305-2.386,5.924,5.924,0,0,1,3.335-.831l1.16.018.123-.571a1.984,1.984,0,0,0,.026-.554.952.952,0,0,0-.312-.646,1.075,1.075,0,0,0-.708-.242,1.514,1.514,0,0,0-.984.286,1.384,1.384,0,0,0-.519.875l-2.487.009a2.764,2.764,0,0,1,1.252-2.21,4.851,4.851,0,0,1,2.94-.831,3.507,3.507,0,0,1,2.531.962,2.816,2.816,0,0,1,.765,2.386l-.729,4.553-.044.563a2.714,2.714,0,0,0,.149,1.055L108.026,0Zm-1.907-1.749a2.27,2.27,0,0,0,1.872-.932l.308-1.644L105-4.333a2.406,2.406,0,0,0-1.978.835,1.454,1.454,0,0,0-.272.712.844.844,0,0,0,.2.751A1,1,0,0,0,103.685-1.749Zm10.881-10.1-.413,2.338h1.582l-.325,1.863h-1.582l-.809,4.764a1.211,1.211,0,0,0,.07.686q.123.237.6.255.141.009.756-.044l-.176,1.942a4.169,4.169,0,0,1-1.424.2,2.234,2.234,0,0,1-1.819-.765,2.763,2.763,0,0,1-.492-2.021l.817-5.019H110l.325-1.863h1.345l.4-2.338ZM118.143,0h-2.5L117.3-9.51h2.5Zm-.554-11.927a1.238,1.238,0,0,1,.387-.976,1.36,1.36,0,0,1,.976-.387,1.367,1.367,0,0,1,.976.343,1.233,1.233,0,0,1,.431.932,1.273,1.273,0,0,1-.365.949,1.367,1.367,0,0,1-1,.422,1.39,1.39,0,0,1-.971-.334A1.227,1.227,0,0,1,117.589-11.927Zm6.653,8.789,2.707-6.372h2.672L125.024,0h-2.373l-1.626-9.51h2.514ZM134.525,0a2.566,2.566,0,0,1-.1-.861A3.221,3.221,0,0,1,132,.176a2.919,2.919,0,0,1-2.07-.813,2.46,2.46,0,0,1-.769-1.964,2.843,2.843,0,0,1,1.305-2.386,5.924,5.924,0,0,1,3.335-.831l1.16.018.123-.571a1.984,1.984,0,0,0,.026-.554.952.952,0,0,0-.312-.646,1.075,1.075,0,0,0-.708-.242,1.514,1.514,0,0,0-.984.286,1.384,1.384,0,0,0-.519.875l-2.487.009a2.764,2.764,0,0,1,1.252-2.21,4.851,4.851,0,0,1,2.94-.831,3.507,3.507,0,0,1,2.531.962,2.816,2.816,0,0,1,.765,2.386l-.729,4.553-.044.563a2.714,2.714,0,0,0,.149,1.055L136.96,0Zm-1.907-1.749a2.27,2.27,0,0,0,1.872-.932l.308-1.644-.861-.009a2.406,2.406,0,0,0-1.978.835,1.454,1.454,0,0,0-.272.712.844.844,0,0,0,.2.751A1,1,0,0,0,132.618-1.749Zm19.274-4.808h-7.638l.369-2.074h7.638Zm-.659,3.806H143.6l.369-2.074H151.6Z" transform="translate(16 34.604)" fill="#12263f"/>
          <text id="_" data-name="(———————————————)" transform="translate(178.833 34.604)" fill="#12263f" font-size="18" font-family="Roboto-Black, Roboto" font-weight="800"><tspan x="0" y="0">(———————————————)</tspan></text>
          <path id="Trazado_148399" data-name="Trazado 148399" d="M6.478-3.428a1.5,1.5,0,0,0-.2-1.063,2.722,2.722,0,0,0-1.191-.853,10.17,10.17,0,0,1-1.49-.8,3.392,3.392,0,0,1-1.67-3.19,3.551,3.551,0,0,1,1.134-2.474,4.565,4.565,0,0,1,2.716-1.138l.36-1.881h1.38l-.369,1.934A3.1,3.1,0,0,1,9.18-11.558a4.635,4.635,0,0,1,.655,2.733L7.348-8.833q.105-2.074-1.222-2.1a1.585,1.585,0,0,0-1.169.426,1.88,1.88,0,0,0-.571,1.165,1.414,1.414,0,0,0,.2.993,2.542,2.542,0,0,0,1.063.809q.787.378,1.323.7A3.527,3.527,0,0,1,8.93-3.445,3.5,3.5,0,0,1,7.8-.976,4.65,4.65,0,0,1,5.063.141L4.72,1.89H3.349L3.691.132A3.407,3.407,0,0,1,1.332-1.2a4.4,4.4,0,0,1-.76-2.826l2.479.009a2.522,2.522,0,0,0,.347,1.6,1.4,1.4,0,0,0,1.173.554,1.865,1.865,0,0,0,1.274-.417A1.768,1.768,0,0,0,6.478-3.428Zm4.983-2.9L13.184-12.8h7l-.334,2.118H14.933L14.089-7.91A3.393,3.393,0,0,1,15.935-8.4a3.03,3.03,0,0,1,2.544,1.165,4.337,4.337,0,0,1,.76,3.072A4.976,4.976,0,0,1,18.5-1.89,4.334,4.334,0,0,1,16.822-.334a4.621,4.621,0,0,1-2.285.519,4.065,4.065,0,0,1-1.964-.5A3.51,3.51,0,0,1,11.2-1.657a3.835,3.835,0,0,1-.5-1.912h2.435a1.914,1.914,0,0,0,.431,1.226,1.416,1.416,0,0,0,1.072.461,1.739,1.739,0,0,0,1.446-.642,3.2,3.2,0,0,0,.681-1.793,2.273,2.273,0,0,0-.3-1.582,1.46,1.46,0,0,0-1.244-.6,2.469,2.469,0,0,0-1.723.686ZM21.973-2.619a1.373,1.373,0,0,1,1.006.365,1.249,1.249,0,0,1,.417.962A1.3,1.3,0,0,1,23.01-.3a1.343,1.343,0,0,1-.993.409,1.355,1.355,0,0,1-.993-.352A1.293,1.293,0,0,1,20.6-1.2a1.306,1.306,0,0,1,.378-.993A1.392,1.392,0,0,1,21.973-2.619Zm7.11-4.9,1.187.009a2.312,2.312,0,0,0,1.516-.5,1.954,1.954,0,0,0,.708-1.345,1.419,1.419,0,0,0-.272-1.138,1.383,1.383,0,0,0-1.081-.444,1.847,1.847,0,0,0-1.235.391,1.681,1.681,0,0,0-.628,1.059L26.8-9.475a3.321,3.321,0,0,1,1.332-2.536,4.685,4.685,0,0,1,3.045-.971,4.181,4.181,0,0,1,2.865,1.011A3.081,3.081,0,0,1,35-9.387a3.463,3.463,0,0,1-2.329,2.865A2.679,2.679,0,0,1,33.93-5.348a3.18,3.18,0,0,1,.347,1.692,3.676,3.676,0,0,1-.712,2.039,4.165,4.165,0,0,1-1.74,1.349A5.582,5.582,0,0,1,29.47.176,4,4,0,0,1,26.675-.848a3.408,3.408,0,0,1-1.063-2.659h2.461a1.589,1.589,0,0,0,.4,1.165,1.558,1.558,0,0,0,1.165.47,2.175,2.175,0,0,0,1.477-.489,1.981,1.981,0,0,0,.721-1.326,1.607,1.607,0,0,0-.312-1.348,1.747,1.747,0,0,0-1.3-.493l-1.459-.009Zm13.1,2.4a3.284,3.284,0,0,1-2.312.984A2.946,2.946,0,0,1,38.083-4.7a3.24,3.24,0,0,1-1.094-1.542,4.921,4.921,0,0,1-.25-2.14,5.305,5.305,0,0,1,.9-2.558,4.649,4.649,0,0,1,2.013-1.687,4.2,4.2,0,0,1,1.793-.343,3.291,3.291,0,0,1,2.522,1.107,4.713,4.713,0,0,1,1.063,2.874A7.945,7.945,0,0,1,45-7.752L44.9-7a8.535,8.535,0,0,1-2.386,5.238A6.917,6.917,0,0,1,37.5.132h-.185L37.512-2h.132a4.738,4.738,0,0,0,2.848-.751A4.765,4.765,0,0,0,42.188-5.124Zm-1.626-.949a2.2,2.2,0,0,0,1.863-1.079l.149-1.062a7.1,7.1,0,0,0,.044-.833,2.528,2.528,0,0,0-.352-1.351,1.127,1.127,0,0,0-.967-.526,1.611,1.611,0,0,0-1.138.452A2.853,2.853,0,0,0,39.4-9.214a3.959,3.959,0,0,0-.189,1.588A1.958,1.958,0,0,0,39.625-6.5,1.191,1.191,0,0,0,40.562-6.073ZM49.852.176A3.245,3.245,0,0,1,47.285-.949a4.731,4.731,0,0,1-.932-3.041,9.679,9.679,0,0,1,.07-1.3l.36-2.4a7.468,7.468,0,0,1,1.7-3.973,4.109,4.109,0,0,1,3.243-1.31,3.265,3.265,0,0,1,2.571,1.121,4.682,4.682,0,0,1,.936,3.028,9.757,9.757,0,0,1-.07,1.31l-.369,2.382A7.629,7.629,0,0,1,53.1-1.138,4.084,4.084,0,0,1,49.852.176Zm2.979-9.294q0-1.746-1.23-1.807-1.775-.079-2.259,2.7L48.9-5.258a10.681,10.681,0,0,0-.141,1.544q-.044,1.781,1.222,1.842,1.784.114,2.268-2.781l.466-3.123A9.2,9.2,0,0,0,52.831-9.118Zm4.623,6.5a1.373,1.373,0,0,1,1.006.365,1.249,1.249,0,0,1,.417.962,1.3,1.3,0,0,1-.387.989A1.343,1.343,0,0,1,57.5.105,1.355,1.355,0,0,1,56.5-.246a1.293,1.293,0,0,1-.422-.958,1.306,1.306,0,0,1,.378-.993A1.392,1.392,0,0,1,57.454-2.619Zm4.755-3.709L63.932-12.8h7l-.334,2.118H65.681L64.837-7.91A3.393,3.393,0,0,1,66.683-8.4a3.03,3.03,0,0,1,2.544,1.165,4.337,4.337,0,0,1,.76,3.072,4.976,4.976,0,0,1-.743,2.276A4.334,4.334,0,0,1,67.57-.334a4.621,4.621,0,0,1-2.285.519,4.065,4.065,0,0,1-1.964-.5,3.51,3.51,0,0,1-1.375-1.345,3.835,3.835,0,0,1-.5-1.912h2.435a1.914,1.914,0,0,0,.431,1.226,1.416,1.416,0,0,0,1.072.461,1.739,1.739,0,0,0,1.446-.642,3.2,3.2,0,0,0,.681-1.793,2.273,2.273,0,0,0-.3-1.582,1.46,1.46,0,0,0-1.244-.6,2.469,2.469,0,0,0-1.723.686Zm15.46,1.2a3.284,3.284,0,0,1-2.312.984A2.946,2.946,0,0,1,73.564-4.7,3.24,3.24,0,0,1,72.47-6.245a4.921,4.921,0,0,1-.25-2.14,5.305,5.305,0,0,1,.9-2.558,4.649,4.649,0,0,1,2.013-1.687,4.2,4.2,0,0,1,1.793-.343,3.291,3.291,0,0,1,2.522,1.107,4.713,4.713,0,0,1,1.063,2.874,7.945,7.945,0,0,1-.026,1.239l-.1.756A8.535,8.535,0,0,1,78-1.758,6.917,6.917,0,0,1,72.984.132H72.8L72.993-2h.132a4.738,4.738,0,0,0,2.848-.751A4.765,4.765,0,0,0,77.669-5.124Zm-1.626-.949a2.2,2.2,0,0,0,1.863-1.079l.149-1.062a7.1,7.1,0,0,0,.044-.833,2.528,2.528,0,0,0-.352-1.351,1.127,1.127,0,0,0-.967-.526,1.611,1.611,0,0,0-1.138.452,2.853,2.853,0,0,0-.765,1.259,3.959,3.959,0,0,0-.189,1.588A1.958,1.958,0,0,0,75.107-6.5,1.191,1.191,0,0,0,76.043-6.073ZM85.333.176A3.245,3.245,0,0,1,82.767-.949a4.731,4.731,0,0,1-.932-3.041,9.679,9.679,0,0,1,.07-1.3l.36-2.4a7.468,7.468,0,0,1,1.7-3.973,4.109,4.109,0,0,1,3.243-1.31,3.265,3.265,0,0,1,2.571,1.121,4.682,4.682,0,0,1,.936,3.028,9.757,9.757,0,0,1-.07,1.31l-.369,2.382a7.629,7.629,0,0,1-1.692,3.995A4.084,4.084,0,0,1,85.333.176Zm2.979-9.294q0-1.746-1.23-1.807-1.775-.079-2.259,2.7l-.439,2.965a10.681,10.681,0,0,0-.141,1.544Q84.2-1.933,85.465-1.872q1.784.114,2.268-2.781L88.2-7.776A9.2,9.2,0,0,0,88.313-9.118Zm12.911,4.662H96.407L96.759-6.5h4.825Zm12.164,1.028a1.5,1.5,0,0,0-.2-1.063,2.722,2.722,0,0,0-1.191-.853,10.17,10.17,0,0,1-1.49-.8,3.392,3.392,0,0,1-1.67-3.19,3.551,3.551,0,0,1,1.134-2.474,4.565,4.565,0,0,1,2.716-1.138l.36-1.881h1.38l-.369,1.934a3.1,3.1,0,0,1,2.035,1.336,4.635,4.635,0,0,1,.655,2.733l-2.487-.009q.105-2.074-1.222-2.1a1.585,1.585,0,0,0-1.169.426,1.88,1.88,0,0,0-.571,1.165,1.414,1.414,0,0,0,.2.993,2.542,2.542,0,0,0,1.063.809q.787.378,1.323.7a3.527,3.527,0,0,1,1.96,3.393,3.5,3.5,0,0,1-1.129,2.47A4.65,4.65,0,0,1,111.973.141L111.63,1.89h-1.371L110.6.132a3.407,3.407,0,0,1-2.36-1.332,4.4,4.4,0,0,1-.76-2.826l2.479.009a2.522,2.522,0,0,0,.347,1.6,1.4,1.4,0,0,0,1.173.554,1.865,1.865,0,0,0,1.274-.417A1.768,1.768,0,0,0,113.388-3.428Zm11.7-1.389h1.406l-.36,2.048h-1.406L124.242,0h-2.479l.483-2.769h-5.08l.176-1.731,6.53-8.3h2.593Zm-5.168-.018,2.689.018.87-4.553-.229.316Zm8.965,2.215a1.373,1.373,0,0,1,1.006.365,1.249,1.249,0,0,1,.417.962,1.3,1.3,0,0,1-.387.989,1.343,1.343,0,0,1-.993.409,1.355,1.355,0,0,1-.993-.352,1.293,1.293,0,0,1-.422-.958,1.306,1.306,0,0,1,.378-.993A1.392,1.392,0,0,1,128.883-2.619Zm10.107-2.5a3.284,3.284,0,0,1-2.312.984,2.946,2.946,0,0,1-1.793-.562,3.24,3.24,0,0,1-1.094-1.542,4.921,4.921,0,0,1-.25-2.14,5.305,5.305,0,0,1,.9-2.558,4.649,4.649,0,0,1,2.013-1.687,4.2,4.2,0,0,1,1.793-.343,3.291,3.291,0,0,1,2.522,1.107,4.713,4.713,0,0,1,1.063,2.874,7.945,7.945,0,0,1-.026,1.239l-.1.756a8.535,8.535,0,0,1-2.386,5.238,6.917,6.917,0,0,1-5.014,1.89h-.185L134.314-2h.132a4.738,4.738,0,0,0,2.848-.751A4.765,4.765,0,0,0,138.99-5.124Zm-1.626-.949a2.2,2.2,0,0,0,1.863-1.079l.149-1.062a7.1,7.1,0,0,0,.044-.833,2.528,2.528,0,0,0-.352-1.351,1.127,1.127,0,0,0-.967-.526,1.611,1.611,0,0,0-1.138.452,2.853,2.853,0,0,0-.765,1.259,3.959,3.959,0,0,0-.189,1.588,1.958,1.958,0,0,0,.417,1.123A1.191,1.191,0,0,0,137.364-6.073Zm13.1,1.257h1.406l-.36,2.048H150.1L149.616,0h-2.479l.483-2.769h-5.08l.176-1.731,6.53-8.3h2.593Zm-5.168-.018,2.689.018.87-4.553-.229.316Zm13.913-.29a3.284,3.284,0,0,1-2.312.984A2.946,2.946,0,0,1,155.1-4.7a3.24,3.24,0,0,1-1.094-1.542,4.921,4.921,0,0,1-.25-2.14,5.305,5.305,0,0,1,.9-2.558,4.649,4.649,0,0,1,2.013-1.687,4.2,4.2,0,0,1,1.793-.343,3.291,3.291,0,0,1,2.522,1.107,4.713,4.713,0,0,1,1.063,2.874,7.945,7.945,0,0,1-.026,1.239l-.1.756a8.535,8.535,0,0,1-2.386,5.238,6.917,6.917,0,0,1-5.014,1.89h-.185L154.529-2h.132a4.738,4.738,0,0,0,2.848-.751A4.765,4.765,0,0,0,159.205-5.124Zm-1.626-.949a2.2,2.2,0,0,0,1.863-1.079l.149-1.062a7.1,7.1,0,0,0,.044-.833,2.528,2.528,0,0,0-.352-1.351,1.127,1.127,0,0,0-.967-.526,1.611,1.611,0,0,0-1.138.452,2.853,2.853,0,0,0-.765,1.259,3.959,3.959,0,0,0-.189,1.588,1.958,1.958,0,0,0,.417,1.123A1.191,1.191,0,0,0,157.579-6.073Zm6.785,3.454a1.373,1.373,0,0,1,1.006.365,1.249,1.249,0,0,1,.417.962A1.3,1.3,0,0,1,165.4-.3a1.343,1.343,0,0,1-.993.409,1.355,1.355,0,0,1-.993-.352,1.293,1.293,0,0,1-.422-.958,1.306,1.306,0,0,1,.378-.993A1.392,1.392,0,0,1,164.364-2.619ZM178-11.248,171.492,0h-2.733l6.486-10.749h-6.117l.325-2.048h8.78Zm10.107,0L181.6,0h-2.733l6.486-10.749h-6.117l.325-2.048h8.78Zm3.586,3.724,1.187.009a2.312,2.312,0,0,0,1.516-.5A1.954,1.954,0,0,0,195.1-9.36a1.419,1.419,0,0,0-.272-1.138,1.383,1.383,0,0,0-1.081-.444,1.847,1.847,0,0,0-1.235.391,1.681,1.681,0,0,0-.628,1.059l-2.479.018a3.321,3.321,0,0,1,1.332-2.536,4.685,4.685,0,0,1,3.045-.971,4.181,4.181,0,0,1,2.865,1.011,3.081,3.081,0,0,1,.958,2.584,3.463,3.463,0,0,1-2.329,2.865,2.679,2.679,0,0,1,1.261,1.173,3.18,3.18,0,0,1,.347,1.692,3.676,3.676,0,0,1-.712,2.039,4.165,4.165,0,0,1-1.74,1.349,5.582,5.582,0,0,1-2.355.444,4,4,0,0,1-2.795-1.024,3.408,3.408,0,0,1-1.063-2.659h2.461a1.589,1.589,0,0,0,.4,1.165,1.558,1.558,0,0,0,1.165.47,2.175,2.175,0,0,0,1.477-.489,1.981,1.981,0,0,0,.721-1.326,1.607,1.607,0,0,0-.312-1.348,1.747,1.747,0,0,0-1.3-.493l-1.459-.009Z" transform="translate(195.619 17)" fill="#12263f"/>
          <path id="Trazado_148400" data-name="Trazado 148400" d="M6.478-3.428a1.5,1.5,0,0,0-.2-1.063,2.722,2.722,0,0,0-1.191-.853,10.17,10.17,0,0,1-1.49-.8,3.392,3.392,0,0,1-1.67-3.19,3.551,3.551,0,0,1,1.134-2.474,4.565,4.565,0,0,1,2.716-1.138l.36-1.881h1.38l-.369,1.934A3.1,3.1,0,0,1,9.18-11.558a4.635,4.635,0,0,1,.655,2.733L7.348-8.833q.105-2.074-1.222-2.1a1.585,1.585,0,0,0-1.169.426,1.88,1.88,0,0,0-.571,1.165,1.414,1.414,0,0,0,.2.993,2.542,2.542,0,0,0,1.063.809q.787.378,1.323.7A3.527,3.527,0,0,1,8.93-3.445,3.5,3.5,0,0,1,7.8-.976,4.65,4.65,0,0,1,5.063.141L4.72,1.89H3.349L3.691.132A3.407,3.407,0,0,1,1.332-1.2a4.4,4.4,0,0,1-.76-2.826l2.479.009a2.522,2.522,0,0,0,.347,1.6,1.4,1.4,0,0,0,1.173.554,1.865,1.865,0,0,0,1.274-.417A1.768,1.768,0,0,0,6.478-3.428Zm11.7-1.389h1.406l-.36,2.048H17.815L17.332,0H14.854l.483-2.769h-5.08L10.433-4.5l6.53-8.3h2.593Zm-5.168-.018,2.689.018.87-4.553-.229.316Zm8.965,2.215a1.373,1.373,0,0,1,1.006.365,1.249,1.249,0,0,1,.417.962A1.3,1.3,0,0,1,23.01-.3a1.343,1.343,0,0,1-.993.409,1.355,1.355,0,0,1-.993-.352A1.293,1.293,0,0,1,20.6-1.2a1.306,1.306,0,0,1,.378-.993A1.392,1.392,0,0,1,21.973-2.619Zm10.107-2.5a3.284,3.284,0,0,1-2.312.984A2.946,2.946,0,0,1,27.976-4.7a3.24,3.24,0,0,1-1.094-1.542,4.921,4.921,0,0,1-.25-2.14,5.305,5.305,0,0,1,.9-2.558A4.649,4.649,0,0,1,29.54-12.63a4.2,4.2,0,0,1,1.793-.343,3.291,3.291,0,0,1,2.522,1.107,4.713,4.713,0,0,1,1.063,2.874,7.945,7.945,0,0,1-.026,1.239L34.8-7A8.535,8.535,0,0,1,32.41-1.758,6.917,6.917,0,0,1,27.4.132h-.185L27.4-2h.132a4.738,4.738,0,0,0,2.848-.751A4.765,4.765,0,0,0,32.08-5.124Zm-1.626-.949a2.2,2.2,0,0,0,1.863-1.079l.149-1.062a7.1,7.1,0,0,0,.044-.833,2.528,2.528,0,0,0-.352-1.351,1.127,1.127,0,0,0-.967-.526,1.611,1.611,0,0,0-1.138.452,2.853,2.853,0,0,0-.765,1.259A3.959,3.959,0,0,0,29.1-7.626,1.958,1.958,0,0,0,29.518-6.5,1.191,1.191,0,0,0,30.454-6.073Zm13.1,1.257h1.406L44.6-2.769H43.189L42.706,0H40.228l.483-2.769h-5.08L35.807-4.5l6.53-8.3H44.93Zm-5.168-.018,2.689.018.87-4.553-.229.316Zm13.913-.29a3.284,3.284,0,0,1-2.312.984A2.946,2.946,0,0,1,48.19-4.7,3.24,3.24,0,0,1,47.1-6.245a4.921,4.921,0,0,1-.25-2.14,5.305,5.305,0,0,1,.9-2.558,4.649,4.649,0,0,1,2.013-1.687,4.2,4.2,0,0,1,1.793-.343,3.291,3.291,0,0,1,2.522,1.107,4.713,4.713,0,0,1,1.063,2.874,7.945,7.945,0,0,1-.026,1.239l-.1.756a8.535,8.535,0,0,1-2.386,5.238A6.917,6.917,0,0,1,47.61.132h-.185L47.619-2h.132A4.738,4.738,0,0,0,50.6-2.747,4.765,4.765,0,0,0,52.295-5.124Zm-1.626-.949a2.2,2.2,0,0,0,1.863-1.079l.149-1.062a7.1,7.1,0,0,0,.044-.833,2.528,2.528,0,0,0-.352-1.351,1.127,1.127,0,0,0-.967-.526,1.611,1.611,0,0,0-1.138.452A2.853,2.853,0,0,0,49.5-9.214a3.959,3.959,0,0,0-.189,1.588A1.958,1.958,0,0,0,49.733-6.5,1.191,1.191,0,0,0,50.669-6.073Zm6.785,3.454a1.373,1.373,0,0,1,1.006.365,1.249,1.249,0,0,1,.417.962,1.3,1.3,0,0,1-.387.989A1.343,1.343,0,0,1,57.5.105,1.355,1.355,0,0,1,56.5-.246a1.293,1.293,0,0,1-.422-.958,1.306,1.306,0,0,1,.378-.993A1.392,1.392,0,0,1,57.454-2.619Zm13.632-8.629L64.582,0H61.849l6.486-10.749H62.218l.325-2.048h8.78Zm10.107,0L74.689,0H71.956l6.486-10.749H72.325L72.65-12.8h8.78Zm3.586,3.724,1.187.009a2.312,2.312,0,0,0,1.516-.5,1.954,1.954,0,0,0,.708-1.345,1.419,1.419,0,0,0-.272-1.138,1.383,1.383,0,0,0-1.081-.444,1.847,1.847,0,0,0-1.235.391,1.681,1.681,0,0,0-.628,1.059l-2.479.018a3.321,3.321,0,0,1,1.332-2.536,4.685,4.685,0,0,1,3.045-.971,4.181,4.181,0,0,1,2.865,1.011,3.081,3.081,0,0,1,.958,2.584,3.463,3.463,0,0,1-2.329,2.865,2.679,2.679,0,0,1,1.261,1.173,3.18,3.18,0,0,1,.347,1.692,3.676,3.676,0,0,1-.712,2.039,4.165,4.165,0,0,1-1.74,1.349,5.582,5.582,0,0,1-2.355.444A4,4,0,0,1,82.371-.848a3.408,3.408,0,0,1-1.063-2.659h2.461a1.589,1.589,0,0,0,.4,1.165,1.558,1.558,0,0,0,1.165.47,2.175,2.175,0,0,0,1.477-.489,1.981,1.981,0,0,0,.721-1.326,1.607,1.607,0,0,0-.312-1.348,1.747,1.747,0,0,0-1.3-.493l-1.459-.009Z" transform="translate(254.614 47.983)" fill="#12263f"/>
        </g>
        <path id="Trazado_148401" data-name="Trazado 148401" d="M3.094-8.407.229-9.2.8-10.856l2.8,1.15L3.384-12.8H5.265L5.036-9.645l2.725-1.124.571,1.677-2.9.79L7.356-5.972,5.836-4.935,4.228-7.519,2.61-5.023,1.09-6.016ZM20.2,0H17.227V-9.457L14.309-8.6v-2.25L19.925-12.8H20.2ZM32.941-5.229a6.11,6.11,0,0,1-1.165,4A4.024,4.024,0,0,1,28.494.176a4.046,4.046,0,0,1-3.3-1.415,6.1,6.1,0,0,1-1.169-3.99V-7.567a6.11,6.11,0,0,1,1.165-4,4.034,4.034,0,0,1,3.292-1.406,4.036,4.036,0,0,1,3.3,1.415,6.116,6.116,0,0,1,1.169,4ZM29.979-7.945a4.564,4.564,0,0,0-.36-2.061,1.2,1.2,0,0,0-1.143-.681,1.176,1.176,0,0,0-1.112.633,4.3,4.3,0,0,0-.374,1.916v3.27a4.6,4.6,0,0,0,.36,2.1,1.209,1.209,0,0,0,1.143.664,1.193,1.193,0,0,0,1.116-.646,4.39,4.39,0,0,0,.369-2.026ZM43.365-5.229a6.11,6.11,0,0,1-1.165,4A4.024,4.024,0,0,1,38.918.176a4.046,4.046,0,0,1-3.3-1.415,6.1,6.1,0,0,1-1.169-3.99V-7.567a6.11,6.11,0,0,1,1.165-4A4.034,4.034,0,0,1,38.9-12.973a4.036,4.036,0,0,1,3.3,1.415,6.116,6.116,0,0,1,1.169,4ZM40.4-7.945a4.564,4.564,0,0,0-.36-2.061,1.2,1.2,0,0,0-1.143-.681,1.176,1.176,0,0,0-1.112.633,4.3,4.3,0,0,0-.374,1.916v3.27a4.6,4.6,0,0,0,.36,2.1,1.209,1.209,0,0,0,1.143.664,1.193,1.193,0,0,0,1.116-.646A4.39,4.39,0,0,0,40.4-4.781Z" transform="translate(581.747 2907.49)" fill="#12263f"/>
      </g>
    </g>
    <g id="Grupo_89275" data-name="Grupo 89275" transform="translate(-2.537 14036.008)">
      <rect id="Rectángulo_31816-5" data-name="Rectángulo 31816" width="415.693" height="77.29" transform="translate(340.269 2895.855)" fill="#6595bf"/>
      <g id="Grupo_89142-5" data-name="Grupo 89142" transform="translate(254.568 2888.855)">
        <rect id="Rectángulo_31778-5" data-name="Rectángulo 31778" width="422.69" height="79.065" transform="translate(75.294)" fill="#fff" stroke="#12263f" stroke-miterlimit="10" stroke-width="1"/>
      </g>
      <g id="Grupo_89241-4" data-name="Grupo 89241" transform="translate(47.574 45.726)">
        <g id="Grupo_89143-5" data-name="Grupo 89143" transform="translate(293.678 2852.885)">
          <path id="Trazado_148402" data-name="Trazado 148402" d="M5.326-3.2l4.307-9.6h2.953L6.267,0H3.577l-2.3-12.8H4.043ZM16.629,0a2.566,2.566,0,0,1-.1-.861A3.221,3.221,0,0,1,14.106.176a2.919,2.919,0,0,1-2.07-.813A2.46,2.46,0,0,1,11.268-2.6a2.843,2.843,0,0,1,1.305-2.386,5.924,5.924,0,0,1,3.335-.831l1.16.018.123-.571a1.984,1.984,0,0,0,.026-.554.952.952,0,0,0-.312-.646,1.075,1.075,0,0,0-.708-.242,1.514,1.514,0,0,0-.984.286,1.384,1.384,0,0,0-.519.875l-2.487.009a2.764,2.764,0,0,1,1.252-2.21,4.851,4.851,0,0,1,2.94-.831,3.507,3.507,0,0,1,2.531.962A2.816,2.816,0,0,1,19.7-6.337l-.729,4.553-.044.563a2.714,2.714,0,0,0,.149,1.055L19.063,0ZM14.722-1.749a2.27,2.27,0,0,0,1.872-.932L16.9-4.324l-.861-.009a2.406,2.406,0,0,0-1.978.835,1.454,1.454,0,0,0-.272.712.844.844,0,0,0,.2.751A1,1,0,0,0,14.722-1.749ZM27.088-7.128a5.117,5.117,0,0,0-.835-.088,2.4,2.4,0,0,0-2.1.993L23.054,0H20.575l1.652-9.51,2.329-.009-.229,1.16A2.615,2.615,0,0,1,26.543-9.7a3.615,3.615,0,0,1,.861.123ZM29.654,0h-2.5l1.652-9.51h2.5ZM29.1-11.927a1.238,1.238,0,0,1,.387-.976,1.36,1.36,0,0,1,.976-.387,1.367,1.367,0,0,1,.976.343,1.233,1.233,0,0,1,.431.932,1.273,1.273,0,0,1-.365.949,1.367,1.367,0,0,1-1,.422,1.39,1.39,0,0,1-.971-.334A1.227,1.227,0,0,1,29.1-11.927ZM37.257,0a2.566,2.566,0,0,1-.1-.861A3.221,3.221,0,0,1,34.734.176a2.919,2.919,0,0,1-2.07-.813A2.46,2.46,0,0,1,31.9-2.6,2.843,2.843,0,0,1,33.2-4.988a5.924,5.924,0,0,1,3.335-.831L37.7-5.8l.123-.571a1.984,1.984,0,0,0,.026-.554.952.952,0,0,0-.312-.646,1.075,1.075,0,0,0-.708-.242,1.514,1.514,0,0,0-.984.286,1.384,1.384,0,0,0-.519.875l-2.487.009a2.764,2.764,0,0,1,1.252-2.21,4.851,4.851,0,0,1,2.94-.831,3.507,3.507,0,0,1,2.531.962,2.816,2.816,0,0,1,.765,2.386l-.729,4.553-.044.563A2.714,2.714,0,0,0,39.7-.167L39.691,0ZM35.35-1.749a2.27,2.27,0,0,0,1.872-.932l.308-1.644-.861-.009A2.406,2.406,0,0,0,34.69-3.5a1.454,1.454,0,0,0-.272.712.844.844,0,0,0,.2.751A1,1,0,0,0,35.35-1.749Zm10.02-.114a1.628,1.628,0,0,0,1.143-.374,1.836,1.836,0,0,0,.6-1.042l2.329-.009a3.416,3.416,0,0,1-.628,1.8A3.818,3.818,0,0,1,47.3-.237a4.327,4.327,0,0,1-1.991.422,3.514,3.514,0,0,1-2.742-1.2,4.461,4.461,0,0,1-.976-3.111l.026-.483.009-.1A5.945,5.945,0,0,1,43.189-8.38a4.231,4.231,0,0,1,3.278-1.305,3.428,3.428,0,0,1,2.553,1.05,3.71,3.71,0,0,1,.927,2.676H47.637a1.947,1.947,0,0,0-.334-1.2,1.269,1.269,0,0,0-1-.475q-1.775-.053-2.153,2.593a8.755,8.755,0,0,0-.1,1.617Q44.139-1.89,45.369-1.863ZM53.016,0h-2.5l1.652-9.51h2.5Zm-.554-11.927a1.238,1.238,0,0,1,.387-.976,1.36,1.36,0,0,1,.976-.387,1.367,1.367,0,0,1,.976.343,1.233,1.233,0,0,1,.431.932,1.273,1.273,0,0,1-.365.949,1.367,1.367,0,0,1-1,.422,1.39,1.39,0,0,1-.971-.334A1.227,1.227,0,0,1,52.462-11.927Zm8.095,2.241a3.814,3.814,0,0,1,2.167.646,3.638,3.638,0,0,1,1.336,1.731,5.357,5.357,0,0,1,.3,2.448,5.786,5.786,0,0,1-1.578,3.669,4.455,4.455,0,0,1-3.4,1.367,3.8,3.8,0,0,1-2.145-.637A3.624,3.624,0,0,1,55.907-2.18,5.239,5.239,0,0,1,55.6-4.605,5.957,5.957,0,0,1,57.2-8.35,4.363,4.363,0,0,1,60.557-9.686Zm-2.5,5.979a2.194,2.194,0,0,0,.4,1.33,1.314,1.314,0,0,0,1.063.5A1.926,1.926,0,0,0,61.3-2.921a5.227,5.227,0,0,0,.606-2.848A2.387,2.387,0,0,0,61.5-7.116a1.293,1.293,0,0,0-1.068-.522A1.929,1.929,0,0,0,58.663-6.6,5.173,5.173,0,0,0,58.052-3.706ZM61.7-13.5h2.874l-2.795,2.725H59.59Zm7.295,3.981-.211,1.125a3.422,3.422,0,0,1,2.769-1.292,2.281,2.281,0,0,1,1.986.984A3.966,3.966,0,0,1,74-6.047L73,0H70.523l1.02-6.073a2.844,2.844,0,0,0,.018-.624,1.007,1.007,0,0,0-1.125-.923,2.133,2.133,0,0,0-1.749.905L67.5,0H65.021l1.652-9.51ZM85.9-7.128a5.117,5.117,0,0,0-.835-.088,2.4,2.4,0,0,0-2.1.993L81.861,0H79.383l1.652-9.51,2.329-.009-.229,1.16A2.615,2.615,0,0,1,85.351-9.7a3.615,3.615,0,0,1,.861.123ZM90.36.176a4.137,4.137,0,0,1-2.21-.611,3.7,3.7,0,0,1-1.437-1.652A4.605,4.605,0,0,1,86.344-4.4l.026-.352A6.148,6.148,0,0,1,87.179-7.3a4.884,4.884,0,0,1,1.74-1.789,4.306,4.306,0,0,1,2.355-.593,3.29,3.29,0,0,1,2.782,1.351A4.631,4.631,0,0,1,94.772-5L94.632-3.92H88.8a2.041,2.041,0,0,0,.448,1.477,1.711,1.711,0,0,0,1.318.571,3.041,3.041,0,0,0,2.373-1.055l1.134,1.406A3.527,3.527,0,0,1,92.531-.259,5.059,5.059,0,0,1,90.36.176Zm.791-7.813a1.761,1.761,0,0,0-1.217.431,3.784,3.784,0,0,0-.954,1.556h3.41l.053-.229a2.33,2.33,0,0,0,.009-.668,1.276,1.276,0,0,0-.431-.8A1.35,1.35,0,0,0,91.151-7.638ZM97.989,0h-2.5L97.84-13.5h2.487Zm7.6,0a2.566,2.566,0,0,1-.1-.861A3.221,3.221,0,0,1,103.069.176,2.919,2.919,0,0,1,101-.637,2.46,2.46,0,0,1,100.23-2.6a2.843,2.843,0,0,1,1.305-2.386,5.924,5.924,0,0,1,3.335-.831l1.16.018.123-.571a1.984,1.984,0,0,0,.026-.554.952.952,0,0,0-.312-.646,1.075,1.075,0,0,0-.708-.242,1.514,1.514,0,0,0-.984.286,1.384,1.384,0,0,0-.519.875l-2.487.009a2.764,2.764,0,0,1,1.252-2.21,4.851,4.851,0,0,1,2.94-.831,3.507,3.507,0,0,1,2.531.962,2.816,2.816,0,0,1,.765,2.386l-.729,4.553-.044.563a2.714,2.714,0,0,0,.149,1.055L108.026,0Zm-1.907-1.749a2.27,2.27,0,0,0,1.872-.932l.308-1.644L105-4.333a2.406,2.406,0,0,0-1.978.835,1.454,1.454,0,0,0-.272.712.844.844,0,0,0,.2.751A1,1,0,0,0,103.685-1.749Zm10.881-10.1-.413,2.338h1.582l-.325,1.863h-1.582l-.809,4.764a1.211,1.211,0,0,0,.07.686q.123.237.6.255.141.009.756-.044l-.176,1.942a4.169,4.169,0,0,1-1.424.2,2.234,2.234,0,0,1-1.819-.765,2.763,2.763,0,0,1-.492-2.021l.817-5.019H110l.325-1.863h1.345l.4-2.338ZM118.143,0h-2.5L117.3-9.51h2.5Zm-.554-11.927a1.238,1.238,0,0,1,.387-.976,1.36,1.36,0,0,1,.976-.387,1.367,1.367,0,0,1,.976.343,1.233,1.233,0,0,1,.431.932,1.273,1.273,0,0,1-.365.949,1.367,1.367,0,0,1-1,.422,1.39,1.39,0,0,1-.971-.334A1.227,1.227,0,0,1,117.589-11.927Zm6.653,8.789,2.707-6.372h2.672L125.024,0h-2.373l-1.626-9.51h2.514ZM134.525,0a2.566,2.566,0,0,1-.1-.861A3.221,3.221,0,0,1,132,.176a2.919,2.919,0,0,1-2.07-.813,2.46,2.46,0,0,1-.769-1.964,2.843,2.843,0,0,1,1.305-2.386,5.924,5.924,0,0,1,3.335-.831l1.16.018.123-.571a1.984,1.984,0,0,0,.026-.554.952.952,0,0,0-.312-.646,1.075,1.075,0,0,0-.708-.242,1.514,1.514,0,0,0-.984.286,1.384,1.384,0,0,0-.519.875l-2.487.009a2.764,2.764,0,0,1,1.252-2.21,4.851,4.851,0,0,1,2.94-.831,3.507,3.507,0,0,1,2.531.962,2.816,2.816,0,0,1,.765,2.386l-.729,4.553-.044.563a2.714,2.714,0,0,0,.149,1.055L136.96,0Zm-1.907-1.749a2.27,2.27,0,0,0,1.872-.932l.308-1.644-.861-.009a2.406,2.406,0,0,0-1.978.835,1.454,1.454,0,0,0-.272.712.844.844,0,0,0,.2.751A1,1,0,0,0,132.618-1.749Zm7.576-.87a1.373,1.373,0,0,1,1.006.365,1.249,1.249,0,0,1,.417.962,1.3,1.3,0,0,1-.387.989,1.343,1.343,0,0,1-.993.409,1.355,1.355,0,0,1-.993-.352,1.293,1.293,0,0,1-.422-.958A1.306,1.306,0,0,1,139.2-2.2,1.392,1.392,0,0,1,140.194-2.619Zm1.239-7.2a1.373,1.373,0,0,1,1.006.365,1.249,1.249,0,0,1,.417.962,1.3,1.3,0,0,1-.387.989,1.343,1.343,0,0,1-.993.409,1.355,1.355,0,0,1-.993-.352,1.293,1.293,0,0,1-.422-.958,1.306,1.306,0,0,1,.378-.993A1.392,1.392,0,0,1,141.434-9.817Zm16.172.352a3.507,3.507,0,0,1-2.2,2.927,3.293,3.293,0,0,1,1.116,1.283,3.266,3.266,0,0,1,.308,1.67,3.63,3.63,0,0,1-1.4,2.76,4.847,4.847,0,0,1-3.217,1,4.023,4.023,0,0,1-2.808-1,3.111,3.111,0,0,1-.962-2.6,3.724,3.724,0,0,1,2.5-3.217,3.04,3.04,0,0,1-1.2-2.681,3.713,3.713,0,0,1,.642-1.934,3.735,3.735,0,0,1,1.56-1.292,4.814,4.814,0,0,1,2.14-.422,3.729,3.729,0,0,1,2.637.989A3.078,3.078,0,0,1,157.605-9.466Zm-3.217,5.7a1.675,1.675,0,0,0-.272-1.254,1.312,1.312,0,0,0-1.09-.517,1.886,1.886,0,0,0-1.375.517,2.246,2.246,0,0,0-.69,1.4,1.645,1.645,0,0,0,.268,1.241,1.333,1.333,0,0,0,1.1.5,1.885,1.885,0,0,0,1.375-.509A2.221,2.221,0,0,0,154.389-3.766Zm.712-5.572a1.6,1.6,0,0,0-.229-1.144,1.1,1.1,0,0,0-.914-.443,1.553,1.553,0,0,0-1.178.46A2.074,2.074,0,0,0,152.2-9.2a1.726,1.726,0,0,0,.215,1.162,1.057,1.057,0,0,0,.918.469,1.542,1.542,0,0,0,1.178-.478A2.137,2.137,0,0,0,155.1-9.338Zm3.182,12.546-1.31-.712.642-1.028A5.512,5.512,0,0,0,158.335-.3l.325-1.863h2.092L160.5-.545A5.819,5.819,0,0,1,158.282,3.208Zm10.784-8.332a3.284,3.284,0,0,1-2.312.984,2.946,2.946,0,0,1-1.793-.562,3.24,3.24,0,0,1-1.094-1.542,4.921,4.921,0,0,1-.25-2.14,5.305,5.305,0,0,1,.9-2.558,4.649,4.649,0,0,1,2.013-1.687,4.2,4.2,0,0,1,1.793-.343,3.291,3.291,0,0,1,2.522,1.107,4.713,4.713,0,0,1,1.063,2.874,7.945,7.945,0,0,1-.026,1.239l-.1.756A8.535,8.535,0,0,1,169.4-1.758a6.917,6.917,0,0,1-5.014,1.89H164.2L164.391-2h.132a4.738,4.738,0,0,0,2.848-.751A4.765,4.765,0,0,0,169.066-5.124Zm-1.626-.949A2.2,2.2,0,0,0,169.3-7.152l.149-1.062a7.1,7.1,0,0,0,.044-.833,2.528,2.528,0,0,0-.352-1.351,1.127,1.127,0,0,0-.967-.526,1.611,1.611,0,0,0-1.138.452,2.853,2.853,0,0,0-.765,1.259,3.959,3.959,0,0,0-.189,1.588A1.958,1.958,0,0,0,166.5-6.5,1.191,1.191,0,0,0,167.44-6.073ZM178.392,0h-2.479L177.6-9.738l-3.111.94.387-2.171,5.344-1.846.325-.009Zm8.8-12.99a2.5,2.5,0,0,1,1.859.782,2.433,2.433,0,0,1,.611,1.872l-.053.677a2.864,2.864,0,0,1-.949,1.934,2.776,2.776,0,0,1-2,.694,2.46,2.46,0,0,1-1.833-.747,2.452,2.452,0,0,1-.637-1.881l.044-.589a2.934,2.934,0,0,1,.91-2A2.822,2.822,0,0,1,187.189-12.99Zm-1.336,3.366a1.242,1.242,0,0,0,.163.809.764.764,0,0,0,.655.334,1.073,1.073,0,0,0,.8-.3,1.544,1.544,0,0,0,.453-.875l.088-.686a1.213,1.213,0,0,0-.154-.839.775.775,0,0,0-.655-.338,1.081,1.081,0,0,0-.831.325,1.49,1.49,0,0,0-.426.861Zm3.076,6.486a2.806,2.806,0,0,1,.932-1.929,2.868,2.868,0,0,1,2.021-.716,2.518,2.518,0,0,1,1.854.773,2.41,2.41,0,0,1,.615,1.872l-.044.589a2.9,2.9,0,0,1-.927,2.021,2.791,2.791,0,0,1-2.026.712,2.489,2.489,0,0,1-1.833-.751,2.381,2.381,0,0,1-.637-1.885Zm1.591.7a1.194,1.194,0,0,0,.185.813.788.788,0,0,0,.65.347,1.09,1.09,0,0,0,.835-.3,1.554,1.554,0,0,0,.422-.879l.088-.7a1.166,1.166,0,0,0-.158-.831.786.786,0,0,0-.65-.33,1.106,1.106,0,0,0-.822.3,1.544,1.544,0,0,0-.453.875ZM185.968-.976l-1.222-.747,7.717-9.879,1.2.729Z" transform="translate(94 37.648)" fill="#12263f"/>
        </g>
      </g>
    </g>
    <g id="Grupo_89277" data-name="Grupo 89277" transform="translate(-2.537 13831.173)">
      <rect id="Rectángulo_31816-6" data-name="Rectángulo 31816" width="566.281" height="77.29" transform="translate(264.975 2895.855)" fill="#6595bf"/>
      <g id="Grupo_89142-6" data-name="Grupo 89142" transform="translate(254.568 2888.855)">
        <rect id="Rectángulo_31778-6" data-name="Rectángulo 31778" width="573.278" height="79.065" transform="translate(0)" fill="#fff" stroke="#12263f" stroke-miterlimit="10" stroke-width="1"/>
      </g>
      <g id="Grupo_89242-2" data-name="Grupo 89242" transform="translate(131.199 30.511)">
        <g id="Grupo_89143-6" data-name="Grupo 89143" transform="translate(161.678 2872.885)">
          <path id="Trazado_148395" data-name="Trazado 148395" d="M5.326-3.2l4.307-9.6h2.953L6.267,0H3.577l-2.3-12.8H4.043ZM16.629,0a2.566,2.566,0,0,1-.1-.861A3.221,3.221,0,0,1,14.106.176a2.919,2.919,0,0,1-2.07-.813A2.46,2.46,0,0,1,11.268-2.6a2.843,2.843,0,0,1,1.305-2.386,5.924,5.924,0,0,1,3.335-.831l1.16.018.123-.571a1.984,1.984,0,0,0,.026-.554.952.952,0,0,0-.312-.646,1.075,1.075,0,0,0-.708-.242,1.514,1.514,0,0,0-.984.286,1.384,1.384,0,0,0-.519.875l-2.487.009a2.764,2.764,0,0,1,1.252-2.21,4.851,4.851,0,0,1,2.94-.831,3.507,3.507,0,0,1,2.531.962A2.816,2.816,0,0,1,19.7-6.337l-.729,4.553-.044.563a2.714,2.714,0,0,0,.149,1.055L19.063,0ZM14.722-1.749a2.27,2.27,0,0,0,1.872-.932L16.9-4.324l-.861-.009a2.406,2.406,0,0,0-1.978.835,1.454,1.454,0,0,0-.272.712.844.844,0,0,0,.2.751A1,1,0,0,0,14.722-1.749ZM27.088-7.128a5.117,5.117,0,0,0-.835-.088,2.4,2.4,0,0,0-2.1.993L23.054,0H20.575l1.652-9.51,2.329-.009-.229,1.16A2.615,2.615,0,0,1,26.543-9.7a3.615,3.615,0,0,1,.861.123ZM29.654,0h-2.5l1.652-9.51h2.5ZM29.1-11.927a1.238,1.238,0,0,1,.387-.976,1.36,1.36,0,0,1,.976-.387,1.367,1.367,0,0,1,.976.343,1.233,1.233,0,0,1,.431.932,1.273,1.273,0,0,1-.365.949,1.367,1.367,0,0,1-1,.422,1.39,1.39,0,0,1-.971-.334A1.227,1.227,0,0,1,29.1-11.927ZM37.257,0a2.566,2.566,0,0,1-.1-.861A3.221,3.221,0,0,1,34.734.176a2.919,2.919,0,0,1-2.07-.813A2.46,2.46,0,0,1,31.9-2.6,2.843,2.843,0,0,1,33.2-4.988a5.924,5.924,0,0,1,3.335-.831L37.7-5.8l.123-.571a1.984,1.984,0,0,0,.026-.554.952.952,0,0,0-.312-.646,1.075,1.075,0,0,0-.708-.242,1.514,1.514,0,0,0-.984.286,1.384,1.384,0,0,0-.519.875l-2.487.009a2.764,2.764,0,0,1,1.252-2.21,4.851,4.851,0,0,1,2.94-.831,3.507,3.507,0,0,1,2.531.962,2.816,2.816,0,0,1,.765,2.386l-.729,4.553-.044.563A2.714,2.714,0,0,0,39.7-.167L39.691,0ZM35.35-1.749a2.27,2.27,0,0,0,1.872-.932l.308-1.644-.861-.009A2.406,2.406,0,0,0,34.69-3.5a1.454,1.454,0,0,0-.272.712.844.844,0,0,0,.2.751A1,1,0,0,0,35.35-1.749Zm10.02-.114a1.628,1.628,0,0,0,1.143-.374,1.836,1.836,0,0,0,.6-1.042l2.329-.009a3.416,3.416,0,0,1-.628,1.8A3.818,3.818,0,0,1,47.3-.237a4.327,4.327,0,0,1-1.991.422,3.514,3.514,0,0,1-2.742-1.2,4.461,4.461,0,0,1-.976-3.111l.026-.483.009-.1A5.945,5.945,0,0,1,43.189-8.38a4.231,4.231,0,0,1,3.278-1.305,3.428,3.428,0,0,1,2.553,1.05,3.71,3.71,0,0,1,.927,2.676H47.637a1.947,1.947,0,0,0-.334-1.2,1.269,1.269,0,0,0-1-.475q-1.775-.053-2.153,2.593a8.755,8.755,0,0,0-.1,1.617Q44.139-1.89,45.369-1.863ZM53.016,0h-2.5l1.652-9.51h2.5Zm-.554-11.927a1.238,1.238,0,0,1,.387-.976,1.36,1.36,0,0,1,.976-.387,1.367,1.367,0,0,1,.976.343,1.233,1.233,0,0,1,.431.932,1.273,1.273,0,0,1-.365.949,1.367,1.367,0,0,1-1,.422,1.39,1.39,0,0,1-.971-.334A1.227,1.227,0,0,1,52.462-11.927Zm8.095,2.241a3.814,3.814,0,0,1,2.167.646,3.638,3.638,0,0,1,1.336,1.731,5.357,5.357,0,0,1,.3,2.448,5.786,5.786,0,0,1-1.578,3.669,4.455,4.455,0,0,1-3.4,1.367,3.8,3.8,0,0,1-2.145-.637A3.624,3.624,0,0,1,55.907-2.18,5.239,5.239,0,0,1,55.6-4.605,5.957,5.957,0,0,1,57.2-8.35,4.363,4.363,0,0,1,60.557-9.686Zm-2.5,5.979a2.194,2.194,0,0,0,.4,1.33,1.314,1.314,0,0,0,1.063.5A1.926,1.926,0,0,0,61.3-2.921a5.227,5.227,0,0,0,.606-2.848A2.387,2.387,0,0,0,61.5-7.116a1.293,1.293,0,0,0-1.068-.522A1.929,1.929,0,0,0,58.663-6.6,5.173,5.173,0,0,0,58.052-3.706ZM61.7-13.5h2.874l-2.795,2.725H59.59Zm7.295,3.981-.211,1.125a3.422,3.422,0,0,1,2.769-1.292,2.281,2.281,0,0,1,1.986.984A3.966,3.966,0,0,1,74-6.047L73,0H70.523l1.02-6.073a2.844,2.844,0,0,0,.018-.624,1.007,1.007,0,0,0-1.125-.923,2.133,2.133,0,0,0-1.749.905L67.5,0H65.021l1.652-9.51ZM85.9-7.128a5.117,5.117,0,0,0-.835-.088,2.4,2.4,0,0,0-2.1.993L81.861,0H79.383l1.652-9.51,2.329-.009-.229,1.16A2.615,2.615,0,0,1,85.351-9.7a3.615,3.615,0,0,1,.861.123ZM90.36.176a4.137,4.137,0,0,1-2.21-.611,3.7,3.7,0,0,1-1.437-1.652A4.605,4.605,0,0,1,86.344-4.4l.026-.352A6.148,6.148,0,0,1,87.179-7.3a4.884,4.884,0,0,1,1.74-1.789,4.306,4.306,0,0,1,2.355-.593,3.29,3.29,0,0,1,2.782,1.351A4.631,4.631,0,0,1,94.772-5L94.632-3.92H88.8a2.041,2.041,0,0,0,.448,1.477,1.711,1.711,0,0,0,1.318.571,3.041,3.041,0,0,0,2.373-1.055l1.134,1.406A3.527,3.527,0,0,1,92.531-.259,5.059,5.059,0,0,1,90.36.176Zm.791-7.813a1.761,1.761,0,0,0-1.217.431,3.784,3.784,0,0,0-.954,1.556h3.41l.053-.229a2.33,2.33,0,0,0,.009-.668,1.276,1.276,0,0,0-.431-.8A1.35,1.35,0,0,0,91.151-7.638ZM97.989,0h-2.5L97.84-13.5h2.487Zm7.6,0a2.566,2.566,0,0,1-.1-.861A3.221,3.221,0,0,1,103.069.176,2.919,2.919,0,0,1,101-.637,2.46,2.46,0,0,1,100.23-2.6a2.843,2.843,0,0,1,1.305-2.386,5.924,5.924,0,0,1,3.335-.831l1.16.018.123-.571a1.984,1.984,0,0,0,.026-.554.952.952,0,0,0-.312-.646,1.075,1.075,0,0,0-.708-.242,1.514,1.514,0,0,0-.984.286,1.384,1.384,0,0,0-.519.875l-2.487.009a2.764,2.764,0,0,1,1.252-2.21,4.851,4.851,0,0,1,2.94-.831,3.507,3.507,0,0,1,2.531.962,2.816,2.816,0,0,1,.765,2.386l-.729,4.553-.044.563a2.714,2.714,0,0,0,.149,1.055L108.026,0Zm-1.907-1.749a2.27,2.27,0,0,0,1.872-.932l.308-1.644L105-4.333a2.406,2.406,0,0,0-1.978.835,1.454,1.454,0,0,0-.272.712.844.844,0,0,0,.2.751A1,1,0,0,0,103.685-1.749Zm10.881-10.1-.413,2.338h1.582l-.325,1.863h-1.582l-.809,4.764a1.211,1.211,0,0,0,.07.686q.123.237.6.255.141.009.756-.044l-.176,1.942a4.169,4.169,0,0,1-1.424.2,2.234,2.234,0,0,1-1.819-.765,2.763,2.763,0,0,1-.492-2.021l.817-5.019H110l.325-1.863h1.345l.4-2.338ZM118.143,0h-2.5L117.3-9.51h2.5Zm-.554-11.927a1.238,1.238,0,0,1,.387-.976,1.36,1.36,0,0,1,.976-.387,1.367,1.367,0,0,1,.976.343,1.233,1.233,0,0,1,.431.932,1.273,1.273,0,0,1-.365.949,1.367,1.367,0,0,1-1,.422,1.39,1.39,0,0,1-.971-.334A1.227,1.227,0,0,1,117.589-11.927Zm6.653,8.789,2.707-6.372h2.672L125.024,0h-2.373l-1.626-9.51h2.514ZM134.525,0a2.566,2.566,0,0,1-.1-.861A3.221,3.221,0,0,1,132,.176a2.919,2.919,0,0,1-2.07-.813,2.46,2.46,0,0,1-.769-1.964,2.843,2.843,0,0,1,1.305-2.386,5.924,5.924,0,0,1,3.335-.831l1.16.018.123-.571a1.984,1.984,0,0,0,.026-.554.952.952,0,0,0-.312-.646,1.075,1.075,0,0,0-.708-.242,1.514,1.514,0,0,0-.984.286,1.384,1.384,0,0,0-.519.875l-2.487.009a2.764,2.764,0,0,1,1.252-2.21,4.851,4.851,0,0,1,2.94-.831,3.507,3.507,0,0,1,2.531.962,2.816,2.816,0,0,1,.765,2.386l-.729,4.553-.044.563a2.714,2.714,0,0,0,.149,1.055L136.96,0Zm-1.907-1.749a2.27,2.27,0,0,0,1.872-.932l.308-1.644-.861-.009a2.406,2.406,0,0,0-1.978.835,1.454,1.454,0,0,0-.272.712.844.844,0,0,0,.2.751A1,1,0,0,0,132.618-1.749Zm19.274-4.808h-7.638l.369-2.074h7.638Zm-.659,3.806H143.6l.369-2.074H151.6Z" transform="translate(17 34.604)" fill="#12263f"/>
          <text id="_2" data-name="(———————————————)" transform="translate(178.833 34.604)" fill="#12263f" font-size="18" font-family="Roboto-Black, Roboto" font-weight="800"><tspan x="0" y="0">(———————————————)</tspan></text>
          <path id="Trazado_148396" data-name="Trazado 148396" d="M5.528,0a2.566,2.566,0,0,1-.1-.861A3.221,3.221,0,0,1,3.006.176,2.919,2.919,0,0,1,.936-.637,2.46,2.46,0,0,1,.167-2.6,2.843,2.843,0,0,1,1.472-4.988a5.924,5.924,0,0,1,3.335-.831l1.16.018.123-.571a1.984,1.984,0,0,0,.026-.554.952.952,0,0,0-.312-.646A1.075,1.075,0,0,0,5.1-7.813a1.514,1.514,0,0,0-.984.286,1.384,1.384,0,0,0-.519.875l-2.487.009A2.764,2.764,0,0,1,2.36-8.855,4.851,4.851,0,0,1,5.3-9.686a3.507,3.507,0,0,1,2.531.962A2.816,2.816,0,0,1,8.6-6.337L7.866-1.784l-.044.563A2.714,2.714,0,0,0,7.972-.167L7.963,0ZM3.621-1.749a2.27,2.27,0,0,0,1.872-.932L5.8-4.324l-.861-.009A2.406,2.406,0,0,0,2.962-3.5a1.454,1.454,0,0,0-.272.712.844.844,0,0,0,.2.751A1,1,0,0,0,3.621-1.749Zm9.773-7.77-.211,1.125a3.422,3.422,0,0,1,2.769-1.292,2.281,2.281,0,0,1,1.986.984A3.966,3.966,0,0,1,18.4-6.047L17.4,0H14.924l1.02-6.073a2.844,2.844,0,0,0,.018-.624,1.007,1.007,0,0,0-1.125-.923,2.133,2.133,0,0,0-1.749.905L11.9,0H9.422l1.652-9.51ZM18.844-13.4a2.864,2.864,0,0,1-.62,1.709,1.756,1.756,0,0,1-1.411.672,1.477,1.477,0,0,1-.47-.075,4.446,4.446,0,0,1-.672-.325,4.909,4.909,0,0,0-.672-.33,1.293,1.293,0,0,0-.479-.07q-.668.026-.888.861l-1.459-.088a2.81,2.81,0,0,1,.646-1.705,1.757,1.757,0,0,1,1.428-.668,1.422,1.422,0,0,1,.435.066,4.85,4.85,0,0,1,.694.33,5.019,5.019,0,0,0,.7.334,1.323,1.323,0,0,0,.461.062q.677-.026.888-.861Zm5.941,3.718a3.814,3.814,0,0,1,2.167.646,3.638,3.638,0,0,1,1.336,1.731,5.357,5.357,0,0,1,.3,2.448,5.786,5.786,0,0,1-1.578,3.669,4.455,4.455,0,0,1-3.4,1.367,3.8,3.8,0,0,1-2.145-.637A3.624,3.624,0,0,1,20.136-2.18a5.239,5.239,0,0,1-.308-2.426,5.957,5.957,0,0,1,1.6-3.744A4.363,4.363,0,0,1,24.785-9.686Zm-2.5,5.979a2.194,2.194,0,0,0,.4,1.33,1.314,1.314,0,0,0,1.063.5,1.926,1.926,0,0,0,1.793-1.049,5.227,5.227,0,0,0,.606-2.848,2.387,2.387,0,0,0-.409-1.347,1.293,1.293,0,0,0-1.068-.522A1.929,1.929,0,0,0,22.891-6.6,5.173,5.173,0,0,0,22.28-3.706ZM39.243,0a2.566,2.566,0,0,1-.1-.861A3.221,3.221,0,0,1,36.721.176a2.919,2.919,0,0,1-2.07-.813A2.46,2.46,0,0,1,33.882-2.6a2.843,2.843,0,0,1,1.305-2.386,5.924,5.924,0,0,1,3.335-.831l1.16.018.123-.571a1.984,1.984,0,0,0,.026-.554.952.952,0,0,0-.312-.646,1.075,1.075,0,0,0-.708-.242,1.514,1.514,0,0,0-.984.286,1.384,1.384,0,0,0-.519.875l-2.487.009a2.764,2.764,0,0,1,1.252-2.21,4.851,4.851,0,0,1,2.94-.831,3.507,3.507,0,0,1,2.531.962,2.816,2.816,0,0,1,.765,2.386l-.729,4.553-.044.563a2.714,2.714,0,0,0,.149,1.055L41.678,0ZM37.336-1.749a2.27,2.27,0,0,0,1.872-.932l.308-1.644-.861-.009a2.406,2.406,0,0,0-1.978.835,1.454,1.454,0,0,0-.272.712.844.844,0,0,0,.2.751A1,1,0,0,0,37.336-1.749Zm10.02-.114A1.628,1.628,0,0,0,48.5-2.237a1.836,1.836,0,0,0,.6-1.042l2.329-.009a3.416,3.416,0,0,1-.628,1.8A3.818,3.818,0,0,1,49.285-.237a4.327,4.327,0,0,1-1.991.422,3.514,3.514,0,0,1-2.742-1.2,4.461,4.461,0,0,1-.976-3.111l.026-.483.009-.1A5.945,5.945,0,0,1,45.176-8.38a4.231,4.231,0,0,1,3.278-1.305,3.428,3.428,0,0,1,2.553,1.05,3.71,3.71,0,0,1,.927,2.676H49.623a1.947,1.947,0,0,0-.334-1.2,1.269,1.269,0,0,0-1-.475q-1.775-.053-2.153,2.593a8.755,8.755,0,0,0-.1,1.617Q46.125-1.89,47.355-1.863ZM57.41-11.848,57-9.51h1.582l-.325,1.863H56.672l-.809,4.764a1.211,1.211,0,0,0,.07.686q.123.237.6.255.141.009.756-.044L57.111-.044a4.169,4.169,0,0,1-1.424.2,2.234,2.234,0,0,1-1.819-.765,2.763,2.763,0,0,1-.492-2.021l.817-5.019H52.849l.325-1.863h1.345l.4-2.338ZM64.257-.984A3.283,3.283,0,0,1,61.638.176a2.443,2.443,0,0,1-2.074-.984,3.6,3.6,0,0,1-.545-2.549L60.047-9.51h2.479L61.479-3.324a2.446,2.446,0,0,0-.009.545.9.9,0,0,0,.976.906,2.265,2.265,0,0,0,1.907-.889L65.54-9.51h2.5L66.384,0H64.072ZM73.731,0a2.566,2.566,0,0,1-.1-.861A3.221,3.221,0,0,1,71.209.176a2.919,2.919,0,0,1-2.07-.813A2.46,2.46,0,0,1,68.37-2.6a2.843,2.843,0,0,1,1.305-2.386,5.924,5.924,0,0,1,3.335-.831l1.16.018.123-.571a1.984,1.984,0,0,0,.026-.554.952.952,0,0,0-.312-.646,1.075,1.075,0,0,0-.708-.242,1.514,1.514,0,0,0-.984.286,1.384,1.384,0,0,0-.519.875l-2.487.009a2.764,2.764,0,0,1,1.252-2.21,4.851,4.851,0,0,1,2.94-.831,3.507,3.507,0,0,1,2.531.962A2.816,2.816,0,0,1,76.8-6.337l-.729,4.553-.044.563a2.714,2.714,0,0,0,.149,1.055L76.166,0ZM71.824-1.749A2.27,2.27,0,0,0,73.7-2.681L74-4.324l-.861-.009a2.406,2.406,0,0,0-1.978.835,1.454,1.454,0,0,0-.272.712.844.844,0,0,0,.2.751A1,1,0,0,0,71.824-1.749ZM80.3,0H77.8l2.347-13.5h2.487Zm12.12-4.456H87.6L87.952-6.5h4.825ZM103.632,0a2.566,2.566,0,0,1-.1-.861A3.221,3.221,0,0,1,101.109.176a2.919,2.919,0,0,1-2.07-.813A2.46,2.46,0,0,1,98.271-2.6a2.843,2.843,0,0,1,1.305-2.386,5.924,5.924,0,0,1,3.335-.831l1.16.018.123-.571a1.984,1.984,0,0,0,.026-.554.952.952,0,0,0-.312-.646,1.075,1.075,0,0,0-.708-.242,1.514,1.514,0,0,0-.984.286,1.384,1.384,0,0,0-.519.875l-2.487.009a2.764,2.764,0,0,1,1.252-2.21,4.851,4.851,0,0,1,2.94-.831,3.507,3.507,0,0,1,2.531.962,2.816,2.816,0,0,1,.765,2.386l-.729,4.553-.044.563a2.714,2.714,0,0,0,.149,1.055L106.066,0Zm-1.907-1.749a2.27,2.27,0,0,0,1.872-.932l.308-1.644-.861-.009a2.406,2.406,0,0,0-1.978.835,1.454,1.454,0,0,0-.272.712.844.844,0,0,0,.2.751A1,1,0,0,0,101.725-1.749Zm9.773-7.77-.211,1.125a3.422,3.422,0,0,1,2.769-1.292,2.281,2.281,0,0,1,1.986.984,3.966,3.966,0,0,1,.466,2.654l-1,6.047h-2.479l1.02-6.073a2.844,2.844,0,0,0,.018-.624,1.007,1.007,0,0,0-1.125-.923,2.133,2.133,0,0,0-1.749.905L110,0h-2.479l1.652-9.51Zm5.449-3.885a2.864,2.864,0,0,1-.62,1.709,1.756,1.756,0,0,1-1.411.672,1.477,1.477,0,0,1-.47-.075,4.446,4.446,0,0,1-.672-.325,4.909,4.909,0,0,0-.672-.33,1.293,1.293,0,0,0-.479-.07q-.668.026-.888.861l-1.459-.088a2.81,2.81,0,0,1,.646-1.705,1.757,1.757,0,0,1,1.428-.668,1.422,1.422,0,0,1,.435.066,4.85,4.85,0,0,1,.694.33,5.019,5.019,0,0,0,.7.334,1.323,1.323,0,0,0,.461.062q.677-.026.888-.861Zm5.941,3.718a3.814,3.814,0,0,1,2.167.646,3.638,3.638,0,0,1,1.336,1.731,5.357,5.357,0,0,1,.3,2.448,5.786,5.786,0,0,1-1.578,3.669,4.455,4.455,0,0,1-3.4,1.367,3.8,3.8,0,0,1-2.145-.637,3.624,3.624,0,0,1-1.336-1.718,5.239,5.239,0,0,1-.308-2.426,5.957,5.957,0,0,1,1.6-3.744A4.363,4.363,0,0,1,122.889-9.686Zm-2.5,5.979a2.194,2.194,0,0,0,.4,1.33,1.314,1.314,0,0,0,1.063.5,1.926,1.926,0,0,0,1.793-1.049,5.227,5.227,0,0,0,.606-2.848,2.387,2.387,0,0,0-.409-1.347,1.293,1.293,0,0,0-1.068-.522,1.929,1.929,0,0,0-1.771,1.04A5.173,5.173,0,0,0,120.384-3.706ZM137.347,0a2.566,2.566,0,0,1-.1-.861A3.221,3.221,0,0,1,134.824.176a2.919,2.919,0,0,1-2.07-.813,2.46,2.46,0,0,1-.769-1.964,2.843,2.843,0,0,1,1.305-2.386,5.924,5.924,0,0,1,3.335-.831l1.16.018.123-.571a1.984,1.984,0,0,0,.026-.554.952.952,0,0,0-.312-.646,1.075,1.075,0,0,0-.708-.242,1.514,1.514,0,0,0-.984.286,1.384,1.384,0,0,0-.519.875l-2.487.009a2.764,2.764,0,0,1,1.252-2.21,4.851,4.851,0,0,1,2.94-.831,3.507,3.507,0,0,1,2.531.962,2.816,2.816,0,0,1,.765,2.386l-.729,4.553-.044.563a2.714,2.714,0,0,0,.149,1.055L139.781,0Zm-1.907-1.749a2.27,2.27,0,0,0,1.872-.932l.308-1.644-.861-.009a2.406,2.406,0,0,0-1.978.835,1.454,1.454,0,0,0-.272.712.844.844,0,0,0,.2.751A1,1,0,0,0,135.439-1.749Zm9.773-7.77L145-8.394a3.422,3.422,0,0,1,2.769-1.292,2.281,2.281,0,0,1,1.986.984,3.966,3.966,0,0,1,.466,2.654l-1,6.047h-2.479l1.02-6.073a2.844,2.844,0,0,0,.018-.624,1.007,1.007,0,0,0-1.125-.923,2.133,2.133,0,0,0-1.749.905L143.719,0H141.24l1.652-9.51Zm10.978-2.329-.413,2.338h1.582l-.325,1.863h-1.582l-.809,4.764a1.211,1.211,0,0,0,.07.686q.123.237.6.255.141.009.756-.044l-.176,1.942a4.169,4.169,0,0,1-1.424.2,2.234,2.234,0,0,1-1.819-.765,2.763,2.763,0,0,1-.492-2.021l.817-5.019h-1.345l.325-1.863H153.3l.4-2.338ZM161.666.176a4.137,4.137,0,0,1-2.21-.611,3.7,3.7,0,0,1-1.437-1.652,4.605,4.605,0,0,1-.369-2.316l.026-.352a6.148,6.148,0,0,1,.809-2.549,4.884,4.884,0,0,1,1.74-1.789,4.306,4.306,0,0,1,2.355-.593,3.29,3.29,0,0,1,2.782,1.351A4.631,4.631,0,0,1,166.078-5l-.141,1.083H160.11a2.041,2.041,0,0,0,.448,1.477,1.711,1.711,0,0,0,1.318.571,3.041,3.041,0,0,0,2.373-1.055l1.134,1.406a3.527,3.527,0,0,1-1.547,1.261A5.059,5.059,0,0,1,161.666.176Zm.791-7.813a1.761,1.761,0,0,0-1.217.431,3.784,3.784,0,0,0-.954,1.556h3.41l.053-.229a2.33,2.33,0,0,0,.009-.668,1.276,1.276,0,0,0-.431-.8A1.35,1.35,0,0,0,162.457-7.638Zm10.731.51a5.117,5.117,0,0,0-.835-.088,2.4,2.4,0,0,0-2.1.993L169.154,0h-2.479l1.652-9.51,2.329-.009-.229,1.16A2.615,2.615,0,0,1,172.644-9.7a3.615,3.615,0,0,1,.861.123ZM175.755,0h-2.5l1.652-9.51h2.5ZM175.2-11.927a1.238,1.238,0,0,1,.387-.976,1.36,1.36,0,0,1,.976-.387,1.367,1.367,0,0,1,.976.343,1.233,1.233,0,0,1,.431.932,1.273,1.273,0,0,1-.365.949,1.367,1.367,0,0,1-1,.422,1.39,1.39,0,0,1-.971-.334A1.227,1.227,0,0,1,175.2-11.927ZM183.3-9.686a3.814,3.814,0,0,1,2.167.646A3.638,3.638,0,0,1,186.8-7.308a5.357,5.357,0,0,1,.3,2.448,5.786,5.786,0,0,1-1.578,3.669,4.455,4.455,0,0,1-3.4,1.367,3.8,3.8,0,0,1-2.145-.637,3.624,3.624,0,0,1-1.336-1.718,5.239,5.239,0,0,1-.308-2.426,5.957,5.957,0,0,1,1.6-3.744A4.363,4.363,0,0,1,183.3-9.686Zm-2.5,5.979a2.194,2.194,0,0,0,.4,1.33,1.314,1.314,0,0,0,1.063.5,1.926,1.926,0,0,0,1.793-1.049,5.227,5.227,0,0,0,.606-2.848,2.387,2.387,0,0,0-.409-1.347,1.293,1.293,0,0,0-1.068-.522A1.929,1.929,0,0,0,181.4-6.6,5.173,5.173,0,0,0,180.791-3.706Zm13.535-3.422a5.117,5.117,0,0,0-.835-.088,2.4,2.4,0,0,0-2.1.993L190.292,0h-2.479l1.652-9.51,2.329-.009-.229,1.16A2.615,2.615,0,0,1,193.781-9.7a3.615,3.615,0,0,1,.861.123Z" transform="translate(198.619 17)" fill="#12263f"/>
          <path id="Trazado_148397" data-name="Trazado 148397" d="M5.528,0a2.566,2.566,0,0,1-.1-.861A3.221,3.221,0,0,1,3.006.176,2.919,2.919,0,0,1,.936-.637,2.46,2.46,0,0,1,.167-2.6,2.843,2.843,0,0,1,1.472-4.988a5.924,5.924,0,0,1,3.335-.831l1.16.018.123-.571a1.984,1.984,0,0,0,.026-.554.952.952,0,0,0-.312-.646A1.075,1.075,0,0,0,5.1-7.813a1.514,1.514,0,0,0-.984.286,1.384,1.384,0,0,0-.519.875l-2.487.009A2.764,2.764,0,0,1,2.36-8.855,4.851,4.851,0,0,1,5.3-9.686a3.507,3.507,0,0,1,2.531.962A2.816,2.816,0,0,1,8.6-6.337L7.866-1.784l-.044.563A2.714,2.714,0,0,0,7.972-.167L7.963,0ZM3.621-1.749a2.27,2.27,0,0,0,1.872-.932L5.8-4.324l-.861-.009A2.406,2.406,0,0,0,2.962-3.5a1.454,1.454,0,0,0-.272.712.844.844,0,0,0,.2.751A1,1,0,0,0,3.621-1.749Zm9.773-7.77-.211,1.125a3.422,3.422,0,0,1,2.769-1.292,2.281,2.281,0,0,1,1.986.984A3.966,3.966,0,0,1,18.4-6.047L17.4,0H14.924l1.02-6.073a2.844,2.844,0,0,0,.018-.624,1.007,1.007,0,0,0-1.125-.923,2.133,2.133,0,0,0-1.749.905L11.9,0H9.422l1.652-9.51ZM18.844-13.4a2.864,2.864,0,0,1-.62,1.709,1.756,1.756,0,0,1-1.411.672,1.477,1.477,0,0,1-.47-.075,4.446,4.446,0,0,1-.672-.325,4.909,4.909,0,0,0-.672-.33,1.293,1.293,0,0,0-.479-.07q-.668.026-.888.861l-1.459-.088a2.81,2.81,0,0,1,.646-1.705,1.757,1.757,0,0,1,1.428-.668,1.422,1.422,0,0,1,.435.066,4.85,4.85,0,0,1,.694.33,5.019,5.019,0,0,0,.7.334,1.323,1.323,0,0,0,.461.062q.677-.026.888-.861Zm5.941,3.718a3.814,3.814,0,0,1,2.167.646,3.638,3.638,0,0,1,1.336,1.731,5.357,5.357,0,0,1,.3,2.448,5.786,5.786,0,0,1-1.578,3.669,4.455,4.455,0,0,1-3.4,1.367,3.8,3.8,0,0,1-2.145-.637A3.624,3.624,0,0,1,20.136-2.18a5.239,5.239,0,0,1-.308-2.426,5.957,5.957,0,0,1,1.6-3.744A4.363,4.363,0,0,1,24.785-9.686Zm-2.5,5.979a2.194,2.194,0,0,0,.4,1.33,1.314,1.314,0,0,0,1.063.5,1.926,1.926,0,0,0,1.793-1.049,5.227,5.227,0,0,0,.606-2.848,2.387,2.387,0,0,0-.409-1.347,1.293,1.293,0,0,0-1.068-.522A1.929,1.929,0,0,0,22.891-6.6,5.173,5.173,0,0,0,22.28-3.706ZM39.243,0a2.566,2.566,0,0,1-.1-.861A3.221,3.221,0,0,1,36.721.176a2.919,2.919,0,0,1-2.07-.813A2.46,2.46,0,0,1,33.882-2.6a2.843,2.843,0,0,1,1.305-2.386,5.924,5.924,0,0,1,3.335-.831l1.16.018.123-.571a1.984,1.984,0,0,0,.026-.554.952.952,0,0,0-.312-.646,1.075,1.075,0,0,0-.708-.242,1.514,1.514,0,0,0-.984.286,1.384,1.384,0,0,0-.519.875l-2.487.009a2.764,2.764,0,0,1,1.252-2.21,4.851,4.851,0,0,1,2.94-.831,3.507,3.507,0,0,1,2.531.962,2.816,2.816,0,0,1,.765,2.386l-.729,4.553-.044.563a2.714,2.714,0,0,0,.149,1.055L41.678,0ZM37.336-1.749a2.27,2.27,0,0,0,1.872-.932l.308-1.644-.861-.009a2.406,2.406,0,0,0-1.978.835,1.454,1.454,0,0,0-.272.712.844.844,0,0,0,.2.751A1,1,0,0,0,37.336-1.749Zm9.773-7.77L46.9-8.394a3.422,3.422,0,0,1,2.769-1.292,2.281,2.281,0,0,1,1.986.984,3.966,3.966,0,0,1,.466,2.654L51.117,0H48.639l1.02-6.073a2.844,2.844,0,0,0,.018-.624,1.007,1.007,0,0,0-1.125-.923,2.133,2.133,0,0,0-1.749.905L45.615,0H43.137l1.652-9.51Zm10.978-2.329L57.674-9.51h1.582l-.325,1.863H57.349L56.54-2.883a1.211,1.211,0,0,0,.07.686q.123.237.6.255.141.009.756-.044L57.788-.044a4.169,4.169,0,0,1-1.424.2,2.234,2.234,0,0,1-1.819-.765,2.763,2.763,0,0,1-.492-2.021l.817-5.019H53.525l.325-1.863H55.2l.4-2.338ZM63.563.176a4.137,4.137,0,0,1-2.21-.611,3.7,3.7,0,0,1-1.437-1.652A4.605,4.605,0,0,1,59.546-4.4l.026-.352A6.148,6.148,0,0,1,60.381-7.3a4.884,4.884,0,0,1,1.74-1.789,4.306,4.306,0,0,1,2.355-.593,3.29,3.29,0,0,1,2.782,1.351A4.631,4.631,0,0,1,67.975-5L67.834-3.92H62.007a2.041,2.041,0,0,0,.448,1.477,1.711,1.711,0,0,0,1.318.571,3.041,3.041,0,0,0,2.373-1.055L67.28-1.521A3.527,3.527,0,0,1,65.733-.259,5.059,5.059,0,0,1,63.563.176Zm.791-7.813a1.761,1.761,0,0,0-1.217.431,3.784,3.784,0,0,0-.954,1.556h3.41l.053-.229a2.33,2.33,0,0,0,.009-.668,1.276,1.276,0,0,0-.431-.8A1.35,1.35,0,0,0,64.354-7.638Zm10.731.51a5.117,5.117,0,0,0-.835-.088,2.4,2.4,0,0,0-2.1.993L71.051,0H68.572l1.652-9.51,2.329-.009-.229,1.16A2.615,2.615,0,0,1,74.54-9.7a3.615,3.615,0,0,1,.861.123ZM77.651,0h-2.5l1.652-9.51h2.5ZM77.1-11.927a1.238,1.238,0,0,1,.387-.976,1.36,1.36,0,0,1,.976-.387,1.367,1.367,0,0,1,.976.343,1.233,1.233,0,0,1,.431.932,1.273,1.273,0,0,1-.365.949,1.367,1.367,0,0,1-1,.422,1.39,1.39,0,0,1-.971-.334A1.227,1.227,0,0,1,77.1-11.927Zm8.095,2.241a3.814,3.814,0,0,1,2.167.646,3.638,3.638,0,0,1,1.336,1.731A5.357,5.357,0,0,1,89-4.86,5.786,5.786,0,0,1,87.42-1.191a4.455,4.455,0,0,1-3.4,1.367,3.8,3.8,0,0,1-2.145-.637A3.624,3.624,0,0,1,80.543-2.18a5.239,5.239,0,0,1-.308-2.426,5.957,5.957,0,0,1,1.6-3.744A4.363,4.363,0,0,1,85.192-9.686Zm-2.5,5.979a2.194,2.194,0,0,0,.4,1.33,1.314,1.314,0,0,0,1.063.5,1.926,1.926,0,0,0,1.793-1.049,5.227,5.227,0,0,0,.606-2.848,2.387,2.387,0,0,0-.409-1.347,1.293,1.293,0,0,0-1.068-.522A1.929,1.929,0,0,0,83.3-6.6,5.173,5.173,0,0,0,82.688-3.706ZM96.223-7.128a5.117,5.117,0,0,0-.835-.088,2.4,2.4,0,0,0-2.1.993L92.188,0H89.71l1.652-9.51,2.329-.009-.229,1.16A2.615,2.615,0,0,1,95.678-9.7a3.615,3.615,0,0,1,.861.123Z" transform="translate(257.614 47.983)" fill="#12263f"/>
        </g>
        <text id="_100" data-name="* 100" transform="translate(581.747 2907.49)" fill="#12263f" font-size="18" font-family="Roboto-Black, Roboto" font-weight="800"><tspan x="0" y="0">* 100</tspan></text>
      </g>
    </g>
  </g>
</svg>
