<svg xmlns="http://www.w3.org/2000/svg" width="380.635" height="506.809" viewBox="0 0 380.635 506.809">
  <g id="Grupo_89221" data-name="Grupo 89221" transform="translate(-942.023 -11525.925)">
    <g id="Grupo_89220" data-name="Grupo 89220" transform="translate(-7684.055 10831.888)">
      <g id="freepik--Checklist--inject-44" transform="translate(8685.371 740.641)">
        <rect id="Rectángulo_31838" data-name="Rectángulo 31838" width="277.372" height="380.07" transform="translate(0 30.161)" fill="#5e6178"/>
        <path id="Trazado_142898" data-name="Trazado 142898" d="M8941.417,1122.55h-243.3V780.441h243.3V1122.55Z" transform="translate(-8675.015 -734.919)" fill="#e0e0e0"/>
        <path id="Trazado_142899" data-name="Trazado 142899" d="M8937.784,1116.769H8696.667V776.49h241.117v340.279Z" transform="translate(-8675.221 -735.487)" fill="#f2e9e4"/>
        <path id="Trazado_142900" data-name="Trazado 142900" d="M8912.442,1090.184l-27.771,22.612H8692.738V777.24h243.3v293.808Z" transform="translate(-8675.788 -735.379)" fill="#fafafa"/>
        <path id="Trazado_142901" data-name="Trazado 142901" d="M8912.48,1090.189s.491-.423,1.486-1.235l4.448-3.637,17.6-14.331v.069c0-48.266-.091-155.551-.173-293.808l.265.275h-243.3l.3-.3c0,126.156,0,242.534-.068,335.555l-.229-.24,191.935.137h-.068l20.862-16.916,5.228-4.22c1.144-.938,1.75-1.4,1.75-1.4l-1.716,1.43-5.227,4.335-20.795,17h0l-192,.16h-.24v-.24c0-93.022,0-209.4-.059-335.555v-.3h243.873v.263c-.081,138.3-.149,245.542-.173,293.808h0l-17.671,14.263-4.471,3.74Z" transform="translate(-8675.825 -735.418)" fill="#344154"/>
        <path id="Trazado_142902" data-name="Trazado 142902" d="M8772.521,756.741h66.51a16.184,16.184,0,0,1,16.184,16.184v17.946h-99.576V773.611A16.883,16.883,0,0,1,8772.521,756.741Z" transform="translate(-8666.745 -738.326)" fill="#d9a171"/>
        <path id="Trazado_142903" data-name="Trazado 142903" d="M8777.425,759.055l-3.637-18.415h57.335l-3.19,18.415Z" transform="translate(-8664.136 -740.641)" fill="#d9a171"/>
        <path id="Trazado_142904" data-name="Trazado 142904" d="M8755.968,864.973h-40.98V823.981h40.98Zm-39.836-1.144h38.692v-38.7h-38.692Z" transform="translate(-8672.588 -728.66)" fill="#d9a171"/>
        <path id="Trazado_142905" data-name="Trazado 142905" d="M8893.486,832.678c0,.16-28.536.3-63.72.3s-63.729-.137-63.729-.3,28.526-.3,63.729-.3S8893.486,832.507,8893.486,832.678Z" transform="translate(-8665.249 -727.452)" fill="#344154"/>
        <path id="Trazado_142906" data-name="Trazado 142906" d="M8893.486,840.118c0,.172-28.536.3-63.72.3s-63.729-.126-63.729-.3,28.526-.3,63.729-.3S8893.486,839.958,8893.486,840.118Z" transform="translate(-8665.249 -726.383)" fill="#344154"/>
        <path id="Trazado_142907" data-name="Trazado 142907" d="M8893.486,847.568c0,.16-28.536.3-63.72.3s-63.729-.137-63.729-.3,28.526-.3,63.729-.3S8893.486,847.408,8893.486,847.568Z" transform="translate(-8665.249 -725.312)" fill="#344154"/>
        <path id="Trazado_142908" data-name="Trazado 142908" d="M8893.486,855.018c0,.16-28.536.3-63.72.3s-63.729-.137-63.729-.3,28.526-.3,63.729-.3S8893.486,854.835,8893.486,855.018Z" transform="translate(-8665.249 -724.241)" fill="#344154"/>
        <path id="Trazado_142909" data-name="Trazado 142909" d="M8755.968,920.2h-40.98V879.211h40.98Zm-39.836-1.144h38.692v-38.7h-38.692Z" transform="translate(-8672.588 -720.72)" fill="#d9a171"/>
        <path id="Trazado_142910" data-name="Trazado 142910" d="M8722.108,900.227l5.444-5.844,9.069,7.251,20.76-20.153,4.976,5.867-26.136,25.78Z" transform="translate(-8671.565 -720.394)" fill="#d9a171"/>
        <path id="Trazado_142911" data-name="Trazado 142911" d="M8893.486,887.908c0,.16-28.536.3-63.72.3s-63.729-.137-63.729-.3,28.526-.3,63.729-.3S8893.486,887.748,8893.486,887.908Z" transform="translate(-8665.249 -719.513)" fill="#344154"/>
        <path id="Trazado_142912" data-name="Trazado 142912" d="M8893.486,895.358c0,.16-28.536.3-63.72.3s-63.729-.137-63.729-.3,28.526-.3,63.729-.3S8893.486,895.187,8893.486,895.358Z" transform="translate(-8665.249 -718.442)" fill="#344154"/>
        <path id="Trazado_142913" data-name="Trazado 142913" d="M8893.486,902.8c0,.172-28.536.3-63.72.3s-63.729-.126-63.729-.3,28.526-.3,63.729-.3S8893.486,902.638,8893.486,902.8Z" transform="translate(-8665.249 -717.372)" fill="#344154"/>
        <path id="Trazado_142914" data-name="Trazado 142914" d="M8893.486,910.248c0,.16-28.536.3-63.72.3s-63.729-.137-63.729-.3,28.526-.3,63.729-.3S8893.486,910.088,8893.486,910.248Z" transform="translate(-8665.249 -716.301)" fill="#344154"/>
        <path id="Trazado_142915" data-name="Trazado 142915" d="M8755.968,973.653h-40.98V932.661h40.98Zm-39.836-1.144h38.692V933.8h-38.692Z" transform="translate(-8672.588 -713.036)" fill="#d9a171"/>
        <path id="Trazado_142916" data-name="Trazado 142916" d="M8722.108,953.677l5.444-5.845,9.069,7.251,20.76-20.153,4.976,5.867-26.136,25.78Z" transform="translate(-8671.565 -712.71)" fill="#d9a171"/>
        <path id="Trazado_142917" data-name="Trazado 142917" d="M8893.486,941.358c0,.16-28.536.3-63.72.3s-63.729-.137-63.729-.3,28.526-.3,63.729-.3S8893.486,941.187,8893.486,941.358Z" transform="translate(-8665.249 -711.829)" fill="#344154"/>
        <path id="Trazado_142918" data-name="Trazado 142918" d="M8893.486,948.8c0,.172-28.536.3-63.72.3s-63.729-.126-63.729-.3,28.526-.3,63.729-.3S8893.486,948.638,8893.486,948.8Z" transform="translate(-8665.249 -710.759)" fill="#344154"/>
        <path id="Trazado_142919" data-name="Trazado 142919" d="M8893.486,956.248c0,.172-28.536.3-63.72.3s-63.729-.126-63.729-.3,28.526-.3,63.729-.3S8893.486,956.088,8893.486,956.248Z" transform="translate(-8665.249 -709.688)" fill="#344154"/>
        <path id="Trazado_142920" data-name="Trazado 142920" d="M8893.486,963.7c0,.16-28.536.3-63.72.3s-63.729-.137-63.729-.3,28.526-.3,63.729-.3S8893.486,963.538,8893.486,963.7Z" transform="translate(-8665.249 -708.617)" fill="#344154"/>
        <path id="Trazado_142921" data-name="Trazado 142921" d="M8755.968,1025.263h-40.98V984.271h40.98Zm-39.836-1.144h38.692v-38.7h-38.692Z" transform="translate(-8672.588 -705.617)" fill="#d9a171"/>
        <path id="Trazado_142922" data-name="Trazado 142922" d="M8722.108,1005.287l5.444-5.845,9.069,7.251,20.76-20.153,4.976,5.856-26.136,25.78Z" transform="translate(-8671.565 -705.291)" fill="#d9a171"/>
        <path id="Trazado_142923" data-name="Trazado 142923" d="M8893.486,992.958c0,.171-28.536.3-63.72.3s-63.729-.126-63.729-.3,28.526-.3,63.729-.3S8893.486,992.844,8893.486,992.958Z" transform="translate(-8665.249 -704.411)" fill="#344154"/>
        <path id="Trazado_142924" data-name="Trazado 142924" d="M8893.486,1000.408c0,.16-28.536.3-63.72.3s-63.729-.137-63.729-.3,28.526-.3,63.729-.3S8893.486,1000.248,8893.486,1000.408Z" transform="translate(-8665.249 -703.34)" fill="#344154"/>
        <path id="Trazado_142925" data-name="Trazado 142925" d="M8893.486,1007.858c0,.16-28.536.3-63.72.3s-63.729-.137-63.729-.3,28.526-.3,63.729-.3S8893.486,1007.687,8893.486,1007.858Z" transform="translate(-8665.249 -702.269)" fill="#344154"/>
        <path id="Trazado_142926" data-name="Trazado 142926" d="M8893.486,1015.3c0,.172-28.536.3-63.72.3s-63.729-.126-63.729-.3,28.526-.3,63.729-.3S8893.486,1015.138,8893.486,1015.3Z" transform="translate(-8665.249 -701.199)" fill="#344154"/>
        <path id="Trazado_142927" data-name="Trazado 142927" d="M8870.569,1022.051l-26.672,55.243h19.044Z" transform="translate(-8654.057 -700.186)" fill="#e0e0e0"/>
        <path id="Trazado_142928" data-name="Trazado 142928" d="M8860.548,1077.564l7.629-55.243,43.737,13.5Z" transform="translate(-8651.664 -700.147)" fill="#fafafa"/>
        <path id="Trazado_142929" data-name="Trazado 142929" d="M8860.548,1077.616l14.711-12.112,36.473-29.864.1.5-16.894-5.193-26.8-8.315.354-.229c-2.287,16.013-4.243,29.795-5.626,39.563-1.385,9.5-2.094,14.411-2.288,15.646,0-.084,0-.168,0-.252l.1-.755c.092-.721.217-1.727.388-3.008.356-2.688.859-6.542,1.5-11.438,1.325-9.848,3.179-23.7,5.341-39.883v-.32l.31.09,26.866,8.281,16.882,5.215.525.161-.422.342c-14.767,11.906-27.68,22.315-36.921,29.738l-10.786,8.658-2.882,2.288-.733.584Z" transform="translate(-8651.664 -700.199)" fill="#344154"/>
        <g id="Grupo_89213" data-name="Grupo 89213" transform="translate(159.863)" opacity="0.3">
          <path id="Trazado_142930" data-name="Trazado 142930" d="M8820.846,740.641l-3.158,18.415h3.935l3.191-18.415h-5.021" transform="translate(-8817.688 -740.641)" fill="#344154"/>
        </g>
      </g>
      <g id="freepik--Character--inject-44" transform="translate(8626.078 849.24)">
        <path id="Trazado_142931" data-name="Trazado 142931" d="M8674.7,918.132h0a10.3,10.3,0,0,0,11.039-9.491c.01-.122.017-.246.021-.368.216-5.6.412-11.266.412-11.266s8.486-.789,9.149-9.15.332-27.782.332-27.782h0a29.246,29.246,0,0,0-29.578,1.9l.516,29.555v15.909C8666.6,912.722,8669.384,917.732,8674.7,918.132Z" transform="translate(-8620.328 -832.521)" fill="#ffbe9d"/>
        <path id="Trazado_142932" data-name="Trazado 142932" d="M8687.462,878.465a4.311,4.311,0,0,0-5.719-1.258,4.884,4.884,0,0,0-1.624,6.108,6.41,6.41,0,0,0,4.117,3.111,3.223,3.223,0,0,1,2.527,3.431,10.755,10.755,0,0,1-2.95,5.845,15.491,15.491,0,0,1-9.723,4.575c-3.58.423-7.675-.32-9.755-3.26-1.521-2.139-1.625-4.941-1.684-7.56q-.192-9.288-.388-18.575a27.062,27.062,0,0,1,.423-6.668,8.969,8.969,0,0,1,3.523-5.514c2.047-1.349,4.632-1.464,6.954-2.206,2.916-.95,5.387-2.871,8.109-4.266s6.05-2.23,8.783-.858c1.968.984,3.283,2.939,5.182,4.026,2.722,1.544,6.417,1.144,7.731,5.193a6.71,6.71,0,0,1,0,4.265c-1.84,5.433-8.566,7.629-13.416,5.284-.091.915.813,2.962-.161,5.867-.308.939-.411,2.346-1.864,2.38" transform="translate(-8620.883 -833.423)" fill="#344154"/>
        <path id="Trazado_142933" data-name="Trazado 142933" d="M8665.806,862.153a28.589,28.589,0,0,0,2.7-8.441,9.674,9.674,0,0,0-2.642-8.155,8,8,0,0,0-5.536-1.956,9.357,9.357,0,0,0-8.441,6.691,10.068,10.068,0,0,0,3.432,10.294,10.95,10.95,0,0,0,10.89,1.418" transform="translate(-8622.412 -834.44)" fill="#344154"/>
        <path id="Trazado_142934" data-name="Trazado 142934" d="M8665.958,857.171a4.141,4.141,0,0,1-3.98,3.889,14.472,14.472,0,0,0,2.288-1.6C8665.318,858.361,8665.8,857.125,8665.958,857.171Z" transform="translate(-8620.918 -832.488)" fill="#d9a171"/>
        <path id="Trazado_142935" data-name="Trazado 142935" d="M8664.253,859.931a7.86,7.86,0,0,1-2.289,1.658,6.588,6.588,0,0,1-3,.858,4.2,4.2,0,0,1-3.51-1.578,4.631,4.631,0,0,1-.617-3.8,7.341,7.341,0,0,1,1.406-2.779,8.5,8.5,0,0,1,1.99-2,27.55,27.55,0,0,1-1.647,2.287,7.466,7.466,0,0,0-1.212,2.654,4.189,4.189,0,0,0,.56,3.328,3.753,3.753,0,0,0,3.03,1.373,6.546,6.546,0,0,0,2.814-.686A24.486,24.486,0,0,1,8664.253,859.931Z" transform="translate(-8621.968 -833.19)" fill="#344154"/>
        <path id="Trazado_142936" data-name="Trazado 142936" d="M8650.568,868.332a3.935,3.935,0,0,1,.4.926,9.316,9.316,0,0,0,1.246,2.4,3.434,3.434,0,0,0,3.283,1.51,4.578,4.578,0,0,0,3.168-3.191,32.2,32.2,0,0,0,.857-4.872,7.561,7.561,0,0,1,1.6-3.854,4.248,4.248,0,0,1,2.449-1.4,1.59,1.59,0,0,1,1.028.091,4.945,4.945,0,0,0-.984.137,4.184,4.184,0,0,0-2.172,1.441,7.442,7.442,0,0,0-1.384,3.66,29.057,29.057,0,0,1-.835,4.987,5.012,5.012,0,0,1-3.627,3.534,3.442,3.442,0,0,1-2.287-.435,4.741,4.741,0,0,1-1.44-1.361,8.362,8.362,0,0,1-1.145-2.573A2.679,2.679,0,0,1,8650.568,868.332Z" transform="translate(-8622.558 -832.109)" fill="#344154"/>
        <path id="Trazado_142937" data-name="Trazado 142937" d="M8647.2,928.957s-4.289,31.362,0,35.342,8.4,2.654,8.4,2.654l8.154-6.862,1.6-31.179Z" transform="translate(-8623.317 -822.175)" fill="#ffbe9d"/>
        <path id="Trazado_142938" data-name="Trazado 142938" d="M8724.408,854.337l5.443-5.845,9.071,7.251,20.759-20.153,4.975,5.867-26.134,25.78Z" transform="translate(-8611.942 -835.591)" fill="#d9a171"/>
        <path id="Trazado_142939" data-name="Trazado 142939" d="M8752.6,853.371l-7.891,5.067c-.355-3.122-2.734-6.211-2.619-4.644s0,9.7,0,9.7l-14.057,29.612c-1.91,4.689-5.789,7.64-8.682,8.338l-13.165,3.912,5.136,17.374,18.3-6.062a15.747,15.747,0,0,0,10.007-10.031l12.582-38.339a59.516,59.516,0,0,0,2.015-7.549C8754.774,857.534,8752.6,853.371,8752.6,853.371Z" transform="translate(-8614.561 -833.034)" fill="#ffbe9d"/>
        <path id="Trazado_142940" data-name="Trazado 142940" d="M8692.332,1137.644l-.207-8.773-16.447.263.149,12.845,1.029.057c4.575.172,23.115.583,26.134-.377C8706.354,1140.572,8692.332,1137.644,8692.332,1137.644Z" transform="translate(-8618.948 -793.43)" fill="#d9a171"/>
        <g id="Grupo_89214" data-name="Grupo 89214" transform="translate(56.821 343.736)" opacity="0.5">
          <path id="Trazado_142941" data-name="Trazado 142941" d="M8681.786,1140.719a5.709,5.709,0,0,0-2.162-3.431,5.517,5.517,0,0,0-3.866-1.144l.07,4.575Z" transform="translate(-8675.758 -1136.123)" fill="#fff" stroke="#5e6178" stroke-miterlimit="10" stroke-width="0"/>
        </g>
        <g id="Grupo_89215" data-name="Grupo 89215" transform="translate(56.833 345.895)" opacity="0.4">
          <path id="Trazado_142942" data-name="Trazado 142942" d="M8699.124,1138.011s4.918,1.327,4.322,2.15-19.375,1.144-27.679.5v-.366l21.914-.149S8698.221,1138.068,8699.124,1138.011Z" transform="translate(-8675.768 -1138.011)" fill="#fff" stroke="#5e6178" stroke-miterlimit="10" stroke-width="0"/>
        </g>
        <path id="Trazado_142943" data-name="Trazado 142943" d="M8675.6,1140.058h1.1l3,.08c2.526.057,6.018.08,9.87,0s7.354-.183,9.872-.309l3-.172.811-.057h-.822l-2.984.115c-2.529.08-6.018.194-9.872.252s-7.344,0-9.87,0h-4.129Z" transform="translate(-8618.963 -791.887)" fill="#344154"/>
        <path id="Trazado_142944" data-name="Trazado 142944" d="M8694.989,1140.424a6.076,6.076,0,0,1,.537-1.43,6.7,6.7,0,0,1,1-1.144,2.675,2.675,0,0,0-1.533,2.6Z" transform="translate(-8616.172 -792.139)" fill="#344154"/>
        <path id="Trazado_142945" data-name="Trazado 142945" d="M8690.709,1138.184a3.445,3.445,0,0,0,.516-.629c.239-.377.378-.72.332-.744s-.275.252-.5.629A1.906,1.906,0,0,0,8690.709,1138.184Z" transform="translate(-8616.788 -792.288)" fill="#344154"/>
        <path id="Trazado_142946" data-name="Trazado 142946" d="M8689.539,1137.539a2.649,2.649,0,0,0,.572-.4c.285-.263.469-.5.434-.538s-.3.137-.572.389S8689.494,1137.494,8689.539,1137.539Z" transform="translate(-8616.957 -792.319)" fill="#344154"/>
        <path id="Trazado_142947" data-name="Trazado 142947" d="M8688.778,1136.085a1.8,1.8,0,0,0,.856.091,1.879,1.879,0,0,0,.859-.1,2.163,2.163,0,0,0-.859-.092A1.867,1.867,0,0,0,8688.778,1136.085Z" transform="translate(-8617.064 -792.409)" fill="#344154"/>
        <path id="Trazado_142948" data-name="Trazado 142948" d="M8688.508,1135.121a1.8,1.8,0,0,0,.961.263,1.76,1.76,0,0,0,1-.149,5.061,5.061,0,0,0-.982,0A5.279,5.279,0,0,0,8688.508,1135.121Z" transform="translate(-8617.104 -792.531)" fill="#344154"/>
        <path id="Trazado_142949" data-name="Trazado 142949" d="M8691.188,1136.936a2.962,2.962,0,0,0,1.052,0,6.351,6.351,0,0,0,1.144-.263,3.47,3.47,0,0,0,.642-.274.534.534,0,0,0,.263-.332.435.435,0,0,0-.171-.423,1.955,1.955,0,0,0-2.391.606,2.116,2.116,0,0,0-.333.709.742.742,0,0,0,0,.286,3.342,3.342,0,0,1,.47-.9,1.985,1.985,0,0,1,.892-.606,1.676,1.676,0,0,1,1.271.069c.159.125.1.319-.08.435a3.567,3.567,0,0,1-.6.263,7.625,7.625,0,0,1-1.144.3C8691.577,1136.9,8691.188,1136.9,8691.188,1136.936Z" transform="translate(-8616.718 -792.482)" fill="#344154"/>
        <path id="Trazado_142950" data-name="Trazado 142950" d="M8691.595,1137.075a1.006,1.006,0,0,0,.115-.732,1.846,1.846,0,0,0-.309-.766,1.06,1.06,0,0,0-.882-.526.409.409,0,0,0-.32.485l0,.007a1.144,1.144,0,0,0,.182.469,2.728,2.728,0,0,0,.515.628,1.484,1.484,0,0,0,.605.423,7.114,7.114,0,0,1-.5-.515,4.141,4.141,0,0,1-.459-.629c-.147-.218-.25-.618,0-.675s.538.23.7.435a1.832,1.832,0,0,1,.318.688A3.9,3.9,0,0,1,8691.595,1137.075Z" transform="translate(-8616.862 -792.541)" fill="#344154"/>
        <path id="Trazado_142951" data-name="Trazado 142951" d="M8675.838,1136.082h1.213a5.152,5.152,0,0,1,4.357,3.363c.264.7.3,1.144.333,1.144a.824.824,0,0,0,0-.332,4.823,4.823,0,0,0-.2-.881,5.02,5.02,0,0,0-4.484-3.431,3.983,3.983,0,0,0-.9,0A.839.839,0,0,0,8675.838,1136.082Z" transform="translate(-8618.925 -792.417)" fill="#344154"/>
        <path id="Trazado_142952" data-name="Trazado 142952" d="M8677.252,1130.061a26.463,26.463,0,0,0-.091,3.374,27.764,27.764,0,0,0,.1,3.431,26.658,26.658,0,0,0,.092-3.431A30.865,30.865,0,0,0,8677.252,1130.061Z" transform="translate(-8618.737 -793.259)" fill="#344154"/>
        <path id="Trazado_142953" data-name="Trazado 142953" d="M8682.808,1138.719a10,10,0,0,0,2.414.194,8.823,8.823,0,0,0,2.4-.229c0-.057-1.144,0-2.4,0A22.056,22.056,0,0,0,8682.808,1138.719Z" transform="translate(-8617.923 -792.022)" fill="#344154"/>
        <path id="Trazado_142954" data-name="Trazado 142954" d="M8680,1138.741s.092.229.2.481.183.458.239.458.081-.263-.057-.549S8680.031,1138.707,8680,1138.741Z" transform="translate(-8618.326 -792.011)" fill="#344154"/>
        <path id="Trazado_142955" data-name="Trazado 142955" d="M8678.908,1137.442a1.03,1.03,0,0,0,.252.377c.183.172.343.274.377.24s-.067-.218-.239-.377S8678.955,1137.4,8678.908,1137.442Z" transform="translate(-8618.483 -792.199)" fill="#344154"/>
        <path id="Trazado_142956" data-name="Trazado 142956" d="M8677.378,1136.832a1.151,1.151,0,0,1,.48.126c.24.125.412.206.458.172s-.092-.264-.4-.355A.669.669,0,0,0,8677.378,1136.832Z" transform="translate(-8618.704 -792.298)" fill="#344154"/>
        <path id="Trazado_142957" data-name="Trazado 142957" d="M8676.3,1136.6a.4.4,0,0,0,.205.183c.138.046.265.057.287,0s-.08-.137-.217-.183S8676.31,1136.539,8676.3,1136.6Z" transform="translate(-8618.858 -792.325)" fill="#344154"/>
        <path id="Trazado_142958" data-name="Trazado 142958" d="M8641.4,1136.267l5.581-6.782-12.651-10.534-8.256,9.836.731.709c3.328,3.1,17.155,15.521,20.063,16.756C8650.132,1147.636,8641.4,1136.267,8641.4,1136.267Z" transform="translate(-8626.078 -794.856)" fill="#d9a171"/>
        <g id="Grupo_89216" data-name="Grupo 89216" transform="translate(0.126 330.26)" opacity="0.5">
          <path id="Trazado_142959" data-name="Trazado 142959" d="M8630.764,1131.753a5.726,5.726,0,0,0,.629-4.037,5.515,5.515,0,0,0-2.2-3.374l-3.009,3.511Z" transform="translate(-8626.188 -1124.341)" fill="#fff" stroke="#5e6178" stroke-miterlimit="10" stroke-width="0"/>
        </g>
        <g id="Grupo_89217" data-name="Grupo 89217" transform="translate(0 333.669)" opacity="0.4">
          <path id="Trazado_142960" data-name="Trazado 142960" d="M8645.511,1140.806s2.859,4.221,1.875,4.449-15.463-11.8-21.308-17.671l.25-.263,16.712,14.182S8644.743,1140.223,8645.511,1140.806Z" transform="translate(-8626.078 -1127.321)" fill="#fff" stroke="#5e6178" stroke-miterlimit="10" stroke-width="0"/>
        </g>
        <path id="Trazado_142961" data-name="Trazado 142961" d="M8626.127,1127.171l.2.206.595.56,2.219,2.013c1.876,1.681,4.506,3.98,7.47,6.451s5.72,4.655,7.685,6.211l2.379,1.819.653.48.24.16-.219-.194-.629-.515-2.286-1.864c-1.979-1.578-4.689-3.774-7.65-6.245s-5.606-4.747-7.5-6.405l-2.287-1.967-.617-.537Z" transform="translate(-8626.07 -793.674)" fill="#344154"/>
        <path id="Trazado_142962" data-name="Trazado 142962" d="M8640.758,1140.031a6.1,6.1,0,0,1,1.351-.743,7.727,7.727,0,0,1,1.509-.229,2.5,2.5,0,0,0-2.859.972Z" transform="translate(-8623.968 -791.985)" fill="#344154"/>
        <path id="Trazado_142963" data-name="Trazado 142963" d="M8638.877,1135.576c0,.057.378,0,.8-.149s.766-.286.742-.343-.376,0-.8.149A1.919,1.919,0,0,0,8638.877,1135.576Z" transform="translate(-8624.237 -792.54)" fill="#344154"/>
        <path id="Trazado_142964" data-name="Trazado 142964" d="M8638.378,1134.307a2.476,2.476,0,0,0,.7.08c.388-.011.687-.068.687-.126s-.321-.091-.7-.08A1.526,1.526,0,0,0,8638.378,1134.307Z" transform="translate(-8624.31 -792.667)" fill="#344154"/>
        <path id="Trazado_142965" data-name="Trazado 142965" d="M8638.678,1132.823a3.837,3.837,0,0,0,.6.629,2.3,2.3,0,0,0,.721.492,3.643,3.643,0,0,0-.6-.641C8639.034,1132.995,8638.724,1132.732,8638.678,1132.823Z" transform="translate(-8624.267 -792.864)" fill="#344154"/>
        <path id="Trazado_142966" data-name="Trazado 142966" d="M8639.1,1131.882a2.383,2.383,0,0,0,1.407,1.361,7.756,7.756,0,0,0-.709-.675C8639.418,1132.2,8639.2,1131.813,8639.1,1131.882Z" transform="translate(-8624.206 -792.998)" fill="#344154"/>
        <path id="Trazado_142967" data-name="Trazado 142967" d="M8640.065,1134.857a2.928,2.928,0,0,0,.813.675,5.728,5.728,0,0,0,1.03.526,3.262,3.262,0,0,0,.663.217.566.566,0,0,0,.412-.092.412.412,0,0,0,.148-.423,1.942,1.942,0,0,0-2.207-1.144,1.753,1.753,0,0,0-.722.32.764.764,0,0,0-.205.195,3.013,3.013,0,0,1,.949-.378,1.9,1.9,0,0,1,1.074.126,1.663,1.663,0,0,1,.917.869.267.267,0,0,1-.345.286,4.019,4.019,0,0,1-.617-.194,6.633,6.633,0,0,1-1.018-.48A3.909,3.909,0,0,1,8640.065,1134.857Z" transform="translate(-8624.077 -792.61)" fill="#344154"/>
        <path id="Trazado_142968" data-name="Trazado 142968" d="M8640.218,1135.339a1.246,1.246,0,0,0,.573-.48,1.883,1.883,0,0,0,.272-.778,1.137,1.137,0,0,0-.331-.984.423.423,0,0,0-.572.172,1.136,1.136,0,0,0-.159.469,3.229,3.229,0,0,0,0,.812,1.5,1.5,0,0,0,.183.72v-.72a3.839,3.839,0,0,1,.067-.778c0-.263.207-.629.447-.5s.252.526.252.789a1.806,1.806,0,0,1-.218.72A3.426,3.426,0,0,1,8640.218,1135.339Z" transform="translate(-8624.08 -792.829)" fill="#344154"/>
        <path id="Trazado_142969" data-name="Trazado 142969" d="M8628.877,1124.341a6.273,6.273,0,0,1,.9.8,5.149,5.149,0,0,1,1.109,5.4c-.263.709-.548,1.087-.513,1.144a1.164,1.164,0,0,0,.216-.263,4,4,0,0,0,.424-.789,4.99,4.99,0,0,0-1.134-5.547,4.234,4.234,0,0,0-.708-.56A.919.919,0,0,0,8628.877,1124.341Z" transform="translate(-8625.675 -794.081)" fill="#344154"/>
        <path id="Trazado_142970" data-name="Trazado 142970" d="M8634.413,1120.691a27.893,27.893,0,0,0-2.288,2.5,32.337,32.337,0,0,0-2.127,2.631,25.19,25.19,0,0,0,2.287-2.493A33.38,33.38,0,0,0,8634.413,1120.691Z" transform="translate(-8625.515 -794.606)" fill="#344154"/>
        <path id="Trazado_142971" data-name="Trazado 142971" d="M8632.439,1130.891a9.415,9.415,0,0,0,1.692,1.716,8.991,8.991,0,0,0,1.979,1.4s-.835-.686-1.842-1.544A18.379,18.379,0,0,0,8632.439,1130.891Z" transform="translate(-8625.165 -793.14)" fill="#344154"/>
        <path id="Trazado_142972" data-name="Trazado 142972" d="M8630.313,1129.081s-.081.229-.147.492-.173.458-.126.492.229-.137.321-.446S8630.371,1129.07,8630.313,1129.081Z" transform="translate(-8625.511 -793.4)" fill="#344154"/>
        <path id="Trazado_142973" data-name="Trazado 142973" d="M8630.316,1127.381c-.057,0-.08.206-.057.446s.08.435.137.435.08-.206,0-.446S8630.375,1127.381,8630.316,1127.381Z" transform="translate(-8625.479 -793.644)" fill="#344154"/>
        <path id="Trazado_142974" data-name="Trazado 142974" d="M8629.528,1125.943c0,.057.148.194.274.412s.183.435.239.435.092-.263-.066-.537S8629.551,1125.9,8629.528,1125.943Z" transform="translate(-8625.582 -793.852)" fill="#344154"/>
        <path id="Trazado_142975" data-name="Trazado 142975" d="M8628.877,1125.032v.286a.212.212,0,0,0,.219.183c.046-.023,0-.16,0-.286A.212.212,0,0,0,8628.877,1125.032Z" transform="translate(-8625.675 -793.982)" fill="#344154"/>
        <path id="Trazado_142976" data-name="Trazado 142976" d="M8675.463,973.545s-5.479,23.172-3.923,27.759,11.587,7.228,11.587,7.228l-.345,63.467-55.493,68.625,20.473,16.745s60.092-68.728,65.389-81.207-3.432-103.682-3.432-103.682Z" transform="translate(-8625.905 -815.912)" fill="#344154"/>
        <path id="Trazado_142977" data-name="Trazado 142977" d="M8700.017,965.151l2.71,192.746-28.216.172-14.172-157.015h0c-3-2.859-7.217-7.755-6.634-18.678l.687-12.684Z" transform="translate(-8622.114 -816.965)" fill="#344154"/>
        <path id="Trazado_142978" data-name="Trazado 142978" d="M8668.188,1078.879a1.364,1.364,0,0,1,.16-.286c.148-.206.32-.469.538-.789l2.093-2.962,7.662-10.614v.149c-.617-6.691-1.36-14.8-2.16-23.55-1.029-11.437-1.854-21.846-2.346-29.383-.251-3.763-.411-6.805-.5-8.91,0-1.006-.07-1.819-.081-2.436a3.506,3.506,0,0,1,0-.846,5.6,5.6,0,0,1,.1.846c0,.606.115,1.418.2,2.425.171,2.161.4,5.181.7,8.9.594,7.515,1.487,17.888,2.517,29.349.767,8.784,1.543,16.882,2.059,23.607v.149L8671.288,1075l-2.209,2.894-.594.743C8668.246,1078.822,8668.188,1078.891,8668.188,1078.879Z" transform="translate(-8620.023 -812.063)" fill="#5e6178"/>
        <path id="Trazado_142979" data-name="Trazado 142979" d="M8677.606,999.645a66.088,66.088,0,0,1-14.777-3.134,63.035,63.035,0,0,1,7.423,1.407A66.01,66.01,0,0,1,8677.606,999.645Z" transform="translate(-8620.796 -812.457)" fill="#5e6178"/>
        <path id="Trazado_142980" data-name="Trazado 142980" d="M8694.592,1057.153a22.444,22.444,0,0,0-15.465-1.224,6.209,6.209,0,0,1,2.2-.858,17.176,17.176,0,0,1,5.719-.5,17.393,17.393,0,0,1,5.535,1.384A6.559,6.559,0,0,1,8694.592,1057.153Z" transform="translate(-8618.451 -804.119)" fill="#5e6178"/>
        <path id="Trazado_142981" data-name="Trazado 142981" d="M8705.877,1064.6c.125.1-7.812,10.763-17.74,23.8s-18.082,23.55-18.209,23.458,7.813-10.763,17.74-23.813S8705.751,1064.5,8705.877,1064.6Z" transform="translate(-8619.774 -802.669)" fill="#5e6178"/>
        <path id="Trazado_142982" data-name="Trazado 142982" d="M8699.806,977.849a4.822,4.822,0,0,1-1.588,2.1,7.881,7.881,0,0,1-11.121-.737c-.133-.153-.262-.312-.385-.476a4.632,4.632,0,0,1-1.144-2.39,23.025,23.025,0,0,0,1.44,2.116,7.835,7.835,0,0,0,10.923,1.144A24.3,24.3,0,0,0,8699.806,977.849Z" transform="translate(-8617.525 -815.355)" fill="#5e6178"/>
        <path id="Trazado_142983" data-name="Trazado 142983" d="M8665.25,895.264a24.615,24.615,0,0,1-1.337-34.313" transform="translate(-8621.548 -831.945)" fill="#344154"/>
        <path id="Trazado_142984" data-name="Trazado 142984" d="M8651.349,906.671s-6.131,6.931-7.4,33.432c0,0,17.465,3.317,17.786,2.368S8651.349,906.671,8651.349,906.671Z" transform="translate(-8623.508 -825.372)" fill="#d9a171"/>
        <g id="Grupo_89218" data-name="Grupo 89218" transform="translate(20.439 81.299)" opacity="0.3">
          <path id="Trazado_142985" data-name="Trazado 142985" d="M8651.349,906.671s-6.131,6.931-7.4,33.432c0,0,17.465,3.317,17.786,2.368S8651.349,906.671,8651.349,906.671Z" transform="translate(-8643.947 -906.671)" fill="#344154"/>
        </g>
        <path id="Trazado_142986" data-name="Trazado 142986" d="M8653.489,985.5h53.631l-.868-8.384s-6.132-31.865-6.085-32.288l.96-2.025a20.215,20.215,0,0,0,.24-16.87h0l26.306-8.978-6.428-21.663c-11.918,2-29.932,4.255-29.932,4.255l-2.677.217s-18.6.972-19,1.018c-7.778.949-16.825,1.544-20.131,9.871-1.771,4.449-.092,11.129,2.8,18.014l6.863,21.159c2.743,11.632-1.636,11.072-4.05,22.784C8654.737,974.37,8653.455,983.875,8653.489,985.5Z" transform="translate(-8622.814 -827.008)" fill="#d9a171"/>
        <g id="Grupo_89219" data-name="Grupo 89219" transform="translate(25.969 68.283)" opacity="0.3">
          <path id="Trazado_142987" data-name="Trazado 142987" d="M8653.489,985.5h53.631l-.868-8.384s-6.132-31.865-6.085-32.288l.96-2.025a20.215,20.215,0,0,0,.24-16.87h0l26.306-8.978-6.428-21.663c-11.918,2-29.932,4.255-29.932,4.255l-2.677.217s-18.6.972-19,1.018c-7.778.949-16.825,1.544-20.131,9.871-1.771,4.449-.092,11.129,2.8,18.014l6.863,21.159c2.743,11.632-1.636,11.072-4.05,22.784C8654.737,974.37,8653.455,983.875,8653.489,985.5Z" transform="translate(-8648.783 -895.291)" fill="#344154"/>
        </g>
        <path id="Trazado_142988" data-name="Trazado 142988" d="M8721.279,914.541a5.9,5.9,0,0,1-1.144.492c-.755.275-1.864.652-3.237,1.144-2.744.926-6.564,2.15-10.773,3.5s-8,2.688-10.636,3.786c-1.351.549-2.414,1.029-3.158,1.35a4.961,4.961,0,0,1-1.144.458,5.742,5.742,0,0,1,1.075-.675c.721-.377,1.762-.926,3.089-1.521a104.138,104.138,0,0,1,10.626-3.958c4.219-1.348,8.007-2.515,10.83-3.339,1.385-.412,2.516-.732,3.294-.95A4.929,4.929,0,0,1,8721.279,914.541Z" transform="translate(-8616.718 -824.241)" fill="#344154"/>
        <path id="Trazado_142989" data-name="Trazado 142989" d="M8723.69,904.488c0,.16-15.864.3-35.457.3s-35.456-.137-35.456-.3,15.853-.3,35.456-.3S8723.69,904.328,8723.69,904.488Z" transform="translate(-8622.239 -825.729)" fill="#fafafa"/>
        <path id="Trazado_142990" data-name="Trazado 142990" d="M8726.095,913.7c0,.16-17.648.3-39.415.3s-39.4-.137-39.4-.3,17.637-.3,39.4-.3S8726.095,913.538,8726.095,913.7Z" transform="translate(-8623.029 -824.405)" fill="#fafafa"/>
        <path id="Trazado_142991" data-name="Trazado 142991" d="M8652.015,924.183a18.337,18.337,0,0,1-6.577,0,18.326,18.326,0,0,1,6.577,0Z" transform="translate(-8623.295 -822.903)" fill="#fafafa"/>
        <path id="Trazado_142992" data-name="Trazado 142992" d="M8702.666,924.5c0,.16-11.542.3-25.77.3s-25.769-.137-25.769-.3,11.529-.3,25.769-.3S8702.666,924.327,8702.666,924.5Z" transform="translate(-8622.477 -822.852)" fill="#fafafa"/>
        <path id="Trazado_142993" data-name="Trazado 142993" d="M8701,935.288c0,.172-10.362.3-23.127.3s-23.138-.126-23.138-.3,10.351-.3,23.138-.3S8701,935.128,8701,935.288Z" transform="translate(-8621.958 -821.301)" fill="#fafafa"/>
        <path id="Trazado_142994" data-name="Trazado 142994" d="M8700.178,945.3c0,.16-9.379.3-20.954.3s-20.976-.137-20.976-.3,9.39-.3,20.976-.3S8700.178,945.127,8700.178,945.3Z" transform="translate(-8621.453 -819.862)" fill="#fafafa"/>
        <path id="Trazado_142995" data-name="Trazado 142995" d="M8702.155,953.388c0,.172-10.041.3-22.429.3s-22.43-.126-22.43-.3,10.043-.3,22.43-.3S8702.155,953.228,8702.155,953.388Z" transform="translate(-8621.589 -818.699)" fill="#fafafa"/>
        <path id="Trazado_142996" data-name="Trazado 142996" d="M8705.472,963.708c0,.171-11.437.3-25.516.3s-25.519-.126-25.519-.3,11.439-.3,25.519-.3S8705.472,963.548,8705.472,963.708Z" transform="translate(-8622 -817.216)" fill="#fafafa"/>
        <path id="Trazado_142997" data-name="Trazado 142997" d="M8658.752,945.581a3.607,3.607,0,0,1-.479-1.052l-1.144-2.928c-.95-2.471-2.289-5.879-3.66-9.687s-2.528-7.286-3.249-9.836c-.353-1.281-.628-2.287-.778-3.042a5,5,0,0,1-.192-1.144,40.888,40.888,0,0,1,1.373,4.06c.822,2.516,2.022,5.97,3.43,9.768s2.643,7.229,3.433,9.745c.422,1.258.742,2.288.949,3A4.51,4.51,0,0,1,8658.752,945.581Z" transform="translate(-8622.748 -823.759)" fill="#344154"/>
      </g>
    </g>
    <g id="Background_Complete" data-name="Background Complete" transform="translate(1179.682 11525.925)">
      <g id="Grupo_82614" data-name="Grupo 82614" transform="translate(83.26 33.223)">
        <g id="Grupo_82610" data-name="Grupo 82610">
          <g id="Grupo_82606" data-name="Grupo 82606">
            <path id="Trazado_139899" data-name="Trazado 139899" d="M593.8,89.712a18.178,18.178,0,1,1-20.6-15.333A18.158,18.158,0,0,1,593.8,89.712Z" transform="translate(-557.635 -74.188)" fill="#f5f5f5"/>
          </g>
          <g id="Grupo_82607" data-name="Grupo 82607" transform="translate(4.325 4.316)">
            <path id="Trazado_139900" data-name="Trazado 139900" d="M590.907,91.715a13.853,13.853,0,1,1-15.7-11.685A13.836,13.836,0,0,1,590.907,91.715Z" transform="translate(-563.345 -79.884)" fill="#ebebeb"/>
          </g>
          <g id="Grupo_82609" data-name="Grupo 82609" transform="translate(4.074 3.79)">
            <g id="Grupo_82608" data-name="Grupo 82608">
              <path id="Trazado_139901" data-name="Trazado 139901" d="M590.761,91.118a8.23,8.23,0,0,1-.6-1.6,14.7,14.7,0,0,0-2.192-3.971,14.151,14.151,0,0,0-2.177-2.227,13.883,13.883,0,0,0-3.027-1.871A13.569,13.569,0,0,0,579,80.367a13.545,13.545,0,0,0-2.071-.121,13.533,13.533,0,0,0-4.2.745,13.573,13.573,0,0,0-1.9.827,13.606,13.606,0,0,0-3.163,2.315,13.908,13.908,0,0,0-2.2,2.8,14.18,14.18,0,0,0-1.277,2.84,14.688,14.688,0,0,0-.689,4.483,8.128,8.128,0,0,1-.016,1.705,4.077,4.077,0,0,1-.4-1.683,12.8,12.8,0,0,1,.382-4.715,13.873,13.873,0,0,1,3.5-6.118,14.059,14.059,0,0,1,3.365-2.54A14.042,14.042,0,0,1,572.381,80a14.207,14.207,0,0,1,4.528-.8,14.227,14.227,0,0,1,2.236.147,13.613,13.613,0,0,1,2.107.476,13.393,13.393,0,0,1,1.926.752,13.88,13.88,0,0,1,5.4,4.538,12.835,12.835,0,0,1,1.983,4.3A4.072,4.072,0,0,1,590.761,91.118Z" transform="translate(-563.013 -79.19)" fill="#e0e0e0"/>
            </g>
          </g>
        </g>
        <g id="Grupo_82613" data-name="Grupo 82613" transform="translate(12.025 8.476)">
          <g id="Grupo_82612" data-name="Grupo 82612">
            <g id="Grupo_82611" data-name="Grupo 82611">
              <path id="Trazado_139902" data-name="Trazado 139902" d="M582.4,102.99l.382,2.383-2.127.34-.371-2.318a10.217,10.217,0,0,1-5.569-.854l.754-2.783a8.713,8.713,0,0,0,4.369.849l-.569-3.553c-2.453-.2-5.217-.56-5.7-3.6-.36-2.255.968-4.453,4.267-5.374l-.378-2.362,2.127-.34.371,2.319a9.737,9.737,0,0,1,4.526.606l-.645,2.787A8.819,8.819,0,0,0,580.4,90.5l.58,3.617c2.449.174,5.171.547,5.651,3.546C586.987,99.877,585.676,102.051,582.4,102.99Zm-3.632-9.063-.485-3.021c-1.086.436-1.433,1.124-1.321,1.827C577.081,93.477,577.784,93.779,578.769,93.927Zm4.48,4.541c-.12-.745-.8-1.049-1.767-1.223l.47,2.936C582.978,99.777,583.357,99.149,583.248,98.468Z" transform="translate(-573.507 -85.375)" fill="#e0e0e0"/>
            </g>
          </g>
        </g>
      </g>
      <g id="Grupo_82623" data-name="Grupo 82623" transform="translate(0 25.018)">
        <g id="Grupo_82619" data-name="Grupo 82619">
          <g id="Grupo_82615" data-name="Grupo 82615">
            <path id="Trazado_139903" data-name="Trazado 139903" d="M510.522,90.305A31.555,31.555,0,1,1,474.768,63.69,31.521,31.521,0,0,1,510.522,90.305Z" transform="translate(-447.738 -63.357)" fill="#f5f5f5"/>
          </g>
          <g id="Grupo_82616" data-name="Grupo 82616" transform="translate(7.509 7.492)">
            <path id="Trazado_139904" data-name="Trazado 139904" d="M505.494,93.783A24.046,24.046,0,1,1,478.247,73.5,24.018,24.018,0,0,1,505.494,93.783Z" transform="translate(-457.65 -73.245)" fill="#ebebeb"/>
          </g>
          <g id="Grupo_82618" data-name="Grupo 82618" transform="translate(7.073 6.579)">
            <g id="Grupo_82617" data-name="Grupo 82617">
              <path id="Trazado_139905" data-name="Trazado 139905" d="M505.241,92.746a14.2,14.2,0,0,1-1.045-2.771,25.494,25.494,0,0,0-3.805-6.894,24.632,24.632,0,0,0-3.778-3.867,24.123,24.123,0,0,0-5.255-3.248,23.581,23.581,0,0,0-6.537-1.882,23.406,23.406,0,0,0-3.6-.21,23.5,23.5,0,0,0-7.285,1.293,23.554,23.554,0,0,0-3.306,1.435,23.6,23.6,0,0,0-5.49,4.018,24.063,24.063,0,0,0-3.815,4.859,24.66,24.66,0,0,0-2.217,4.931,25.532,25.532,0,0,0-1.2,7.781,14.154,14.154,0,0,1-.026,2.96c-.106.021-.464-.994-.689-2.921a22.232,22.232,0,0,1,.662-8.185,24.081,24.081,0,0,1,6.078-10.62,23.262,23.262,0,0,1,2.69-2.376,23.568,23.568,0,0,1,3.15-2.034,24.51,24.51,0,0,1,3.555-1.575,24.662,24.662,0,0,1,7.859-1.395,24.656,24.656,0,0,1,3.881.255,24.5,24.5,0,0,1,7,2.13,24.087,24.087,0,0,1,9.363,7.877,22.274,22.274,0,0,1,3.443,7.457C505.335,91.652,505.347,92.728,505.241,92.746Z" transform="translate(-457.074 -72.041)" fill="#e0e0e0"/>
            </g>
          </g>
        </g>
        <g id="Grupo_82622" data-name="Grupo 82622" transform="translate(20.874 14.712)">
          <g id="Grupo_82621" data-name="Grupo 82621">
            <g id="Grupo_82620" data-name="Grupo 82620">
              <path id="Trazado_139906" data-name="Trazado 139906" d="M490.728,113.353l.663,4.136-3.693.59-.644-4.024c-3.692.364-7.383-.218-9.668-1.482l1.308-4.831a15.113,15.113,0,0,0,7.584,1.475l-.988-6.168c-4.258-.339-9.056-.973-9.9-6.254-.627-3.915,1.679-7.73,7.406-9.329l-.656-4.1,3.693-.592.645,4.027a16.91,16.91,0,0,1,7.856,1.052l-1.118,4.838a15.34,15.34,0,0,0-5.959-1.017l1.006,6.279c4.252.3,8.976.949,9.81,6.155C498.688,107.951,496.414,111.724,490.728,113.353Zm-6.3-15.732-.841-5.243c-1.886.756-2.489,1.952-2.295,3.171C481.495,96.841,482.715,97.366,484.423,97.622Zm7.777,7.884c-.208-1.293-1.39-1.823-3.068-2.124l.816,5.1C491.73,107.777,492.389,106.687,492.2,105.505Z" transform="translate(-475.29 -82.776)" fill="#e0e0e0"/>
            </g>
          </g>
        </g>
      </g>
      <g id="Grupo_82632" data-name="Grupo 82632" transform="translate(104.163 453.798) rotate(42)">
        <g id="Grupo_82628" data-name="Grupo 82628">
          <g id="Grupo_82624" data-name="Grupo 82624">
            <path id="Trazado_139907" data-name="Trazado 139907" d="M150.8,235.8a18.178,18.178,0,1,1-20.6-15.333A18.158,18.158,0,0,1,150.8,235.8Z" transform="translate(-114.627 -220.272)" fill="#f5f5f5"/>
          </g>
          <g id="Grupo_82625" data-name="Grupo 82625" transform="translate(4.325 4.316)">
            <path id="Trazado_139908" data-name="Trazado 139908" d="M147.9,237.8a13.853,13.853,0,1,1-15.7-11.685A13.836,13.836,0,0,1,147.9,237.8Z" transform="translate(-120.337 -225.969)" fill="#ebebeb"/>
          </g>
          <g id="Grupo_82627" data-name="Grupo 82627" transform="translate(4.074 3.79)">
            <g id="Grupo_82626" data-name="Grupo 82626">
              <path id="Trazado_139909" data-name="Trazado 139909" d="M147.753,237.2a8.22,8.22,0,0,1-.6-1.6,14.686,14.686,0,0,0-2.192-3.972,14.207,14.207,0,0,0-2.177-2.227,13.849,13.849,0,0,0-3.027-1.871,13.57,13.57,0,0,0-3.766-1.084,13.354,13.354,0,0,0-2.071-.121,13.538,13.538,0,0,0-4.2.745,13.437,13.437,0,0,0-1.9.827,13.611,13.611,0,0,0-3.163,2.315,13.871,13.871,0,0,0-2.2,2.8,14.219,14.219,0,0,0-1.277,2.84,14.706,14.706,0,0,0-.689,4.483,8.114,8.114,0,0,1-.016,1.7,4.073,4.073,0,0,1-.4-1.683,12.8,12.8,0,0,1,.382-4.715,13.87,13.87,0,0,1,3.5-6.118,14.122,14.122,0,0,1,3.365-2.54,14.129,14.129,0,0,1,2.048-.908,15.493,15.493,0,0,1,2.231-.586,15.314,15.314,0,0,1,2.3-.217,14.123,14.123,0,0,1,2.235.147,14.135,14.135,0,0,1,4.034,1.227,13.891,13.891,0,0,1,5.394,4.537,12.839,12.839,0,0,1,1.983,4.3A4.067,4.067,0,0,1,147.753,237.2Z" transform="translate(-120.005 -225.275)" fill="#e0e0e0"/>
            </g>
          </g>
        </g>
        <g id="Grupo_82631" data-name="Grupo 82631" transform="translate(12.025 8.476)">
          <g id="Grupo_82630" data-name="Grupo 82630">
            <g id="Grupo_82629" data-name="Grupo 82629">
              <path id="Trazado_139910" data-name="Trazado 139910" d="M139.393,249.074l.382,2.383-2.127.34-.371-2.318a10.209,10.209,0,0,1-5.569-.854l.754-2.783a8.7,8.7,0,0,0,4.369.849l-.569-3.552c-2.453-.2-5.217-.561-5.7-3.6-.361-2.255.968-4.452,4.267-5.374l-.378-2.362,2.127-.341.371,2.32a9.745,9.745,0,0,1,4.526.605l-.645,2.787a8.847,8.847,0,0,0-3.432-.586l.58,3.617c2.449.175,5.171.547,5.651,3.546C143.979,245.961,142.668,248.135,139.393,249.074Zm-3.632-9.063-.485-3.02c-1.086.436-1.433,1.124-1.321,1.826C134.073,239.562,134.777,239.864,135.761,240.011Zm4.48,4.542c-.12-.746-.8-1.05-1.767-1.224l.47,2.936C139.97,245.861,140.35,245.233,140.24,244.553Z" transform="translate(-130.499 -231.459)" fill="#e0e0e0"/>
            </g>
          </g>
        </g>
      </g>
      <g id="Grupo_82641" data-name="Grupo 82641" transform="translate(125.425 410.613) rotate(42)">
        <g id="Grupo_82637" data-name="Grupo 82637">
          <g id="Grupo_82633" data-name="Grupo 82633">
            <path id="Trazado_139911" data-name="Trazado 139911" d="M115.46,180.958a11.827,11.827,0,1,1,3.672-16.3A11.815,11.815,0,0,1,115.46,180.958Z" transform="translate(-97.343 -159.133)" fill="#f5f5f5"/>
          </g>
          <g id="Grupo_82634" data-name="Grupo 82634" transform="translate(2.81 2.813)">
            <path id="Trazado_139912" data-name="Trazado 139912" d="M114.857,179.477a9.013,9.013,0,1,1,2.8-12.42A9,9,0,0,1,114.857,179.477Z" transform="translate(-101.052 -162.846)" fill="#ebebeb"/>
          </g>
          <g id="Grupo_82636" data-name="Grupo 82636" transform="translate(6.765 2.545)">
            <g id="Grupo_82635" data-name="Grupo 82635">
              <path id="Trazado_139913" data-name="Trazado 139913" d="M116.36,179.239c-.03-.045.283-.289.79-.78a9.579,9.579,0,0,0,1.782-2.353,9.174,9.174,0,0,0,.749-1.883,9,9,0,0,0,.313-2.294,8.459,8.459,0,0,0-.08-1.249,8.366,8.366,0,0,0-.27-1.276,8.7,8.7,0,0,0-.476-1.264,8.82,8.82,0,0,0-1.552-2.3,8.791,8.791,0,0,0-.995-.914,8.8,8.8,0,0,0-2.212-1.269,9,9,0,0,0-2.244-.567,9.212,9.212,0,0,0-2.027-.008,9.576,9.576,0,0,0-2.847.774,5.261,5.261,0,0,1-1.017.442c-.024-.033.269-.311.9-.681a8.343,8.343,0,0,1,2.9-1.019,9.025,9.025,0,0,1,4.562.465,8.6,8.6,0,0,1,1.224.56,8.836,8.836,0,0,1,1.176.769,9.157,9.157,0,0,1,1.081.978,9.227,9.227,0,0,1,1.674,2.479,9.289,9.289,0,0,1,.5,1.368,9.227,9.227,0,0,1,.336,2.722,9.032,9.032,0,0,1-1.273,4.406,8.35,8.35,0,0,1-2.03,2.314A2.647,2.647,0,0,1,116.36,179.239Z" transform="translate(-106.272 -162.493)" fill="#e0e0e0"/>
            </g>
          </g>
        </g>
        <g id="Grupo_82640" data-name="Grupo 82640" transform="translate(5.726 7.32)">
          <g id="Grupo_82639" data-name="Grupo 82639">
            <g id="Grupo_82638" data-name="Grupo 82638">
              <path id="Trazado_139914" data-name="Trazado 139914" d="M106.98,177.025l-1.316.857-.764-1.175,1.28-.833a6.642,6.642,0,0,1-.964-3.537l1.854-.287a5.654,5.654,0,0,0,.649,2.822l1.961-1.277c-.532-1.51-1.045-3.249.635-4.343,1.246-.811,2.9-.6,4.322,1.117l1.3-.849.764,1.175-1.28.833a6.337,6.337,0,0,1,.836,2.851l-1.827.354a5.734,5.734,0,0,0-.559-2.2l-2,1.3c.544,1.5,1.042,3.218-.614,4.3C110.042,178.929,108.4,178.724,106.98,177.025Zm4.428-4.554,1.668-1.086c-.546-.53-1.047-.555-1.435-.3C111.23,171.349,111.235,171.847,111.408,172.471Zm-1.516,3.863c.411-.267.412-.753.26-1.374l-1.621,1.055C109.042,176.519,109.515,176.579,109.892,176.334Z" transform="translate(-104.9 -168.795)" fill="#e0e0e0"/>
            </g>
          </g>
        </g>
      </g>
      <g id="Grupo_82650" data-name="Grupo 82650" transform="translate(51.757 0)">
        <g id="Grupo_82646" data-name="Grupo 82646" transform="translate(0)">
          <g id="Grupo_82642" data-name="Grupo 82642">
            <path id="Trazado_139915" data-name="Trazado 139915" d="M534.171,52.16a11.827,11.827,0,1,1,3.673-16.3A11.814,11.814,0,0,1,534.171,52.16Z" transform="translate(-516.054 -30.335)" fill="#f5f5f5"/>
          </g>
          <g id="Grupo_82643" data-name="Grupo 82643" transform="translate(2.81 2.813)">
            <path id="Trazado_139916" data-name="Trazado 139916" d="M533.569,50.679a9.013,9.013,0,1,1,2.8-12.42A9,9,0,0,1,533.569,50.679Z" transform="translate(-519.763 -34.048)" fill="#ebebeb"/>
          </g>
          <g id="Grupo_82645" data-name="Grupo 82645" transform="translate(6.765 2.545)">
            <g id="Grupo_82644" data-name="Grupo 82644">
              <path id="Trazado_139917" data-name="Trazado 139917" d="M535.072,50.441c-.031-.045.283-.289.789-.78a9.534,9.534,0,0,0,1.782-2.353,9.222,9.222,0,0,0,.749-1.883,9.014,9.014,0,0,0,.312-2.294,8.275,8.275,0,0,0-.08-1.249,8.4,8.4,0,0,0-.27-1.276,8.849,8.849,0,0,0-.475-1.264,8.809,8.809,0,0,0-1.552-2.3,8.7,8.7,0,0,0-.995-.914,8.811,8.811,0,0,0-2.211-1.269,9.013,9.013,0,0,0-2.245-.567,9.212,9.212,0,0,0-2.027-.008,9.551,9.551,0,0,0-2.847.775,5.235,5.235,0,0,1-1.017.441c-.023-.033.27-.311.9-.681a8.351,8.351,0,0,1,2.9-1.019,9.023,9.023,0,0,1,4.562.465,9.166,9.166,0,0,1,2.4,1.329,9.146,9.146,0,0,1,1.081.978,9.269,9.269,0,0,1,1.674,2.48,9.145,9.145,0,0,1,.5,1.367,9.172,9.172,0,0,1,.336,2.722,9.25,9.25,0,0,1-.4,2.443,9.131,9.131,0,0,1-.874,1.963,8.351,8.351,0,0,1-2.03,2.315A2.652,2.652,0,0,1,535.072,50.441Z" transform="translate(-524.983 -33.695)" fill="#e0e0e0"/>
            </g>
          </g>
        </g>
        <g id="Grupo_82649" data-name="Grupo 82649" transform="translate(5.726 7.32)">
          <g id="Grupo_82648" data-name="Grupo 82648">
            <g id="Grupo_82647" data-name="Grupo 82647">
              <path id="Trazado_139918" data-name="Trazado 139918" d="M525.691,48.227l-1.315.857-.764-1.175,1.28-.833a6.643,6.643,0,0,1-.964-3.537l1.854-.287a5.67,5.67,0,0,0,.649,2.822l1.962-1.277c-.533-1.51-1.046-3.249.634-4.343,1.246-.811,2.9-.6,4.323,1.117l1.3-.849.765,1.175-1.281.834a6.329,6.329,0,0,1,.836,2.85l-1.828.354a5.746,5.746,0,0,0-.558-2.2l-2,1.3c.544,1.5,1.042,3.218-.614,4.3C528.753,50.131,527.115,49.926,525.691,48.227Zm4.428-4.554,1.668-1.086c-.545-.53-1.047-.555-1.435-.3C529.941,42.551,529.946,43.049,530.119,43.673ZM528.6,47.536c.411-.267.412-.753.261-1.374l-1.621,1.055C527.754,47.722,528.227,47.781,528.6,47.536Z" transform="translate(-523.611 -39.997)" fill="#e0e0e0"/>
            </g>
          </g>
        </g>
      </g>
    </g>
  </g>
</svg>
