<svg xmlns="http://www.w3.org/2000/svg" width="577.188" height="84.79" viewBox="0 0 577.188 84.79">
  <g id="Grupo_93053" data-name="Grupo 93053" transform="translate(-254.068 -2888.355)">
    <rect id="Rectángulo_31816" data-name="Rectángulo 31816" width="566.281" height="77.29" transform="translate(264.975 2895.855)" fill="#6595bf"/>
    <g id="Grupo_89142" data-name="Grupo 89142" transform="translate(254.568 2888.855)">
      <rect id="Rectángulo_31778" data-name="Rectángulo 31778" width="573.278" height="79.065" transform="translate(0)" fill="#fff" stroke="#12263f" stroke-miterlimit="10" stroke-width="1"/>
    </g>
    <g id="Grupo_89242" data-name="Grupo 89242" transform="translate(131.199 30.511)">
      <g id="Grupo_89143" data-name="Grupo 89143" transform="translate(161.678 2872.885)">
        <path id="Trazado_148373" data-name="Trazado 148373" d="M5.326-3.2l4.307-9.6h2.953L6.267,0H3.577l-2.3-12.8H4.043ZM16.629,0a2.566,2.566,0,0,1-.1-.861A3.221,3.221,0,0,1,14.106.176a2.919,2.919,0,0,1-2.07-.813A2.46,2.46,0,0,1,11.268-2.6a2.843,2.843,0,0,1,1.305-2.386,5.924,5.924,0,0,1,3.335-.831l1.16.018.123-.571a1.984,1.984,0,0,0,.026-.554.952.952,0,0,0-.312-.646,1.075,1.075,0,0,0-.708-.242,1.514,1.514,0,0,0-.984.286,1.384,1.384,0,0,0-.519.875l-2.487.009a2.764,2.764,0,0,1,1.252-2.21,4.851,4.851,0,0,1,2.94-.831,3.507,3.507,0,0,1,2.531.962A2.816,2.816,0,0,1,19.7-6.337l-.729,4.553-.044.563a2.714,2.714,0,0,0,.149,1.055L19.063,0ZM14.722-1.749a2.27,2.27,0,0,0,1.872-.932L16.9-4.324l-.861-.009a2.406,2.406,0,0,0-1.978.835,1.454,1.454,0,0,0-.272.712.844.844,0,0,0,.2.751A1,1,0,0,0,14.722-1.749ZM27.088-7.128a5.117,5.117,0,0,0-.835-.088,2.4,2.4,0,0,0-2.1.993L23.054,0H20.575l1.652-9.51,2.329-.009-.229,1.16A2.615,2.615,0,0,1,26.543-9.7a3.615,3.615,0,0,1,.861.123ZM29.654,0h-2.5l1.652-9.51h2.5ZM29.1-11.927a1.238,1.238,0,0,1,.387-.976,1.36,1.36,0,0,1,.976-.387,1.367,1.367,0,0,1,.976.343,1.233,1.233,0,0,1,.431.932,1.273,1.273,0,0,1-.365.949,1.367,1.367,0,0,1-1,.422,1.39,1.39,0,0,1-.971-.334A1.227,1.227,0,0,1,29.1-11.927ZM37.257,0a2.566,2.566,0,0,1-.1-.861A3.221,3.221,0,0,1,34.734.176a2.919,2.919,0,0,1-2.07-.813A2.46,2.46,0,0,1,31.9-2.6,2.843,2.843,0,0,1,33.2-4.988a5.924,5.924,0,0,1,3.335-.831L37.7-5.8l.123-.571a1.984,1.984,0,0,0,.026-.554.952.952,0,0,0-.312-.646,1.075,1.075,0,0,0-.708-.242,1.514,1.514,0,0,0-.984.286,1.384,1.384,0,0,0-.519.875l-2.487.009a2.764,2.764,0,0,1,1.252-2.21,4.851,4.851,0,0,1,2.94-.831,3.507,3.507,0,0,1,2.531.962,2.816,2.816,0,0,1,.765,2.386l-.729,4.553-.044.563A2.714,2.714,0,0,0,39.7-.167L39.691,0ZM35.35-1.749a2.27,2.27,0,0,0,1.872-.932l.308-1.644-.861-.009A2.406,2.406,0,0,0,34.69-3.5a1.454,1.454,0,0,0-.272.712.844.844,0,0,0,.2.751A1,1,0,0,0,35.35-1.749Zm10.02-.114a1.628,1.628,0,0,0,1.143-.374,1.836,1.836,0,0,0,.6-1.042l2.329-.009a3.416,3.416,0,0,1-.628,1.8A3.818,3.818,0,0,1,47.3-.237a4.327,4.327,0,0,1-1.991.422,3.514,3.514,0,0,1-2.742-1.2,4.461,4.461,0,0,1-.976-3.111l.026-.483.009-.1A5.945,5.945,0,0,1,43.189-8.38a4.231,4.231,0,0,1,3.278-1.305,3.428,3.428,0,0,1,2.553,1.05,3.71,3.71,0,0,1,.927,2.676H47.637a1.947,1.947,0,0,0-.334-1.2,1.269,1.269,0,0,0-1-.475q-1.775-.053-2.153,2.593a8.755,8.755,0,0,0-.1,1.617Q44.139-1.89,45.369-1.863ZM53.016,0h-2.5l1.652-9.51h2.5Zm-.554-11.927a1.238,1.238,0,0,1,.387-.976,1.36,1.36,0,0,1,.976-.387,1.367,1.367,0,0,1,.976.343,1.233,1.233,0,0,1,.431.932,1.273,1.273,0,0,1-.365.949,1.367,1.367,0,0,1-1,.422,1.39,1.39,0,0,1-.971-.334A1.227,1.227,0,0,1,52.462-11.927Zm8.095,2.241a3.814,3.814,0,0,1,2.167.646,3.638,3.638,0,0,1,1.336,1.731,5.357,5.357,0,0,1,.3,2.448,5.786,5.786,0,0,1-1.578,3.669,4.455,4.455,0,0,1-3.4,1.367,3.8,3.8,0,0,1-2.145-.637A3.624,3.624,0,0,1,55.907-2.18,5.239,5.239,0,0,1,55.6-4.605,5.957,5.957,0,0,1,57.2-8.35,4.363,4.363,0,0,1,60.557-9.686Zm-2.5,5.979a2.194,2.194,0,0,0,.4,1.33,1.314,1.314,0,0,0,1.063.5A1.926,1.926,0,0,0,61.3-2.921a5.227,5.227,0,0,0,.606-2.848A2.387,2.387,0,0,0,61.5-7.116a1.293,1.293,0,0,0-1.068-.522A1.929,1.929,0,0,0,58.663-6.6,5.173,5.173,0,0,0,58.052-3.706ZM61.7-13.5h2.874l-2.795,2.725H59.59Zm7.295,3.981-.211,1.125a3.422,3.422,0,0,1,2.769-1.292,2.281,2.281,0,0,1,1.986.984A3.966,3.966,0,0,1,74-6.047L73,0H70.523l1.02-6.073a2.844,2.844,0,0,0,.018-.624,1.007,1.007,0,0,0-1.125-.923,2.133,2.133,0,0,0-1.749.905L67.5,0H65.021l1.652-9.51ZM85.9-7.128a5.117,5.117,0,0,0-.835-.088,2.4,2.4,0,0,0-2.1.993L81.861,0H79.383l1.652-9.51,2.329-.009-.229,1.16A2.615,2.615,0,0,1,85.351-9.7a3.615,3.615,0,0,1,.861.123ZM90.36.176a4.137,4.137,0,0,1-2.21-.611,3.7,3.7,0,0,1-1.437-1.652A4.605,4.605,0,0,1,86.344-4.4l.026-.352A6.148,6.148,0,0,1,87.179-7.3a4.884,4.884,0,0,1,1.74-1.789,4.306,4.306,0,0,1,2.355-.593,3.29,3.29,0,0,1,2.782,1.351A4.631,4.631,0,0,1,94.772-5L94.632-3.92H88.8a2.041,2.041,0,0,0,.448,1.477,1.711,1.711,0,0,0,1.318.571,3.041,3.041,0,0,0,2.373-1.055l1.134,1.406A3.527,3.527,0,0,1,92.531-.259,5.059,5.059,0,0,1,90.36.176Zm.791-7.813a1.761,1.761,0,0,0-1.217.431,3.784,3.784,0,0,0-.954,1.556h3.41l.053-.229a2.33,2.33,0,0,0,.009-.668,1.276,1.276,0,0,0-.431-.8A1.35,1.35,0,0,0,91.151-7.638ZM97.989,0h-2.5L97.84-13.5h2.487Zm7.6,0a2.566,2.566,0,0,1-.1-.861A3.221,3.221,0,0,1,103.069.176,2.919,2.919,0,0,1,101-.637,2.46,2.46,0,0,1,100.23-2.6a2.843,2.843,0,0,1,1.305-2.386,5.924,5.924,0,0,1,3.335-.831l1.16.018.123-.571a1.984,1.984,0,0,0,.026-.554.952.952,0,0,0-.312-.646,1.075,1.075,0,0,0-.708-.242,1.514,1.514,0,0,0-.984.286,1.384,1.384,0,0,0-.519.875l-2.487.009a2.764,2.764,0,0,1,1.252-2.21,4.851,4.851,0,0,1,2.94-.831,3.507,3.507,0,0,1,2.531.962,2.816,2.816,0,0,1,.765,2.386l-.729,4.553-.044.563a2.714,2.714,0,0,0,.149,1.055L108.026,0Zm-1.907-1.749a2.27,2.27,0,0,0,1.872-.932l.308-1.644L105-4.333a2.406,2.406,0,0,0-1.978.835,1.454,1.454,0,0,0-.272.712.844.844,0,0,0,.2.751A1,1,0,0,0,103.685-1.749Zm10.881-10.1-.413,2.338h1.582l-.325,1.863h-1.582l-.809,4.764a1.211,1.211,0,0,0,.07.686q.123.237.6.255.141.009.756-.044l-.176,1.942a4.169,4.169,0,0,1-1.424.2,2.234,2.234,0,0,1-1.819-.765,2.763,2.763,0,0,1-.492-2.021l.817-5.019H110l.325-1.863h1.345l.4-2.338ZM118.143,0h-2.5L117.3-9.51h2.5Zm-.554-11.927a1.238,1.238,0,0,1,.387-.976,1.36,1.36,0,0,1,.976-.387,1.367,1.367,0,0,1,.976.343,1.233,1.233,0,0,1,.431.932,1.273,1.273,0,0,1-.365.949,1.367,1.367,0,0,1-1,.422,1.39,1.39,0,0,1-.971-.334A1.227,1.227,0,0,1,117.589-11.927Zm6.653,8.789,2.707-6.372h2.672L125.024,0h-2.373l-1.626-9.51h2.514ZM134.525,0a2.566,2.566,0,0,1-.1-.861A3.221,3.221,0,0,1,132,.176a2.919,2.919,0,0,1-2.07-.813,2.46,2.46,0,0,1-.769-1.964,2.843,2.843,0,0,1,1.305-2.386,5.924,5.924,0,0,1,3.335-.831l1.16.018.123-.571a1.984,1.984,0,0,0,.026-.554.952.952,0,0,0-.312-.646,1.075,1.075,0,0,0-.708-.242,1.514,1.514,0,0,0-.984.286,1.384,1.384,0,0,0-.519.875l-2.487.009a2.764,2.764,0,0,1,1.252-2.21,4.851,4.851,0,0,1,2.94-.831,3.507,3.507,0,0,1,2.531.962,2.816,2.816,0,0,1,.765,2.386l-.729,4.553-.044.563a2.714,2.714,0,0,0,.149,1.055L136.96,0Zm-1.907-1.749a2.27,2.27,0,0,0,1.872-.932l.308-1.644-.861-.009a2.406,2.406,0,0,0-1.978.835,1.454,1.454,0,0,0-.272.712.844.844,0,0,0,.2.751A1,1,0,0,0,132.618-1.749Zm19.274-4.808h-7.638l.369-2.074h7.638Zm-.659,3.806H143.6l.369-2.074H151.6Z" transform="translate(17 34.604)" fill="#12263f"/>
        <text id="_" data-name="(———————————————)" transform="translate(178.833 34.604)" fill="#12263f" font-size="18" font-family="Roboto-Black, Roboto" font-weight="800"><tspan x="0" y="0">(———————————————)</tspan></text>
        <path id="Trazado_148374" data-name="Trazado 148374" d="M5.528,0a2.566,2.566,0,0,1-.1-.861A3.221,3.221,0,0,1,3.006.176,2.919,2.919,0,0,1,.936-.637,2.46,2.46,0,0,1,.167-2.6,2.843,2.843,0,0,1,1.472-4.988a5.924,5.924,0,0,1,3.335-.831l1.16.018.123-.571a1.984,1.984,0,0,0,.026-.554.952.952,0,0,0-.312-.646A1.075,1.075,0,0,0,5.1-7.813a1.514,1.514,0,0,0-.984.286,1.384,1.384,0,0,0-.519.875l-2.487.009A2.764,2.764,0,0,1,2.36-8.855,4.851,4.851,0,0,1,5.3-9.686a3.507,3.507,0,0,1,2.531.962A2.816,2.816,0,0,1,8.6-6.337L7.866-1.784l-.044.563A2.714,2.714,0,0,0,7.972-.167L7.963,0ZM3.621-1.749a2.27,2.27,0,0,0,1.872-.932L5.8-4.324l-.861-.009A2.406,2.406,0,0,0,2.962-3.5a1.454,1.454,0,0,0-.272.712.844.844,0,0,0,.2.751A1,1,0,0,0,3.621-1.749Zm9.773-7.77-.211,1.125a3.422,3.422,0,0,1,2.769-1.292,2.281,2.281,0,0,1,1.986.984A3.966,3.966,0,0,1,18.4-6.047L17.4,0H14.924l1.02-6.073a2.844,2.844,0,0,0,.018-.624,1.007,1.007,0,0,0-1.125-.923,2.133,2.133,0,0,0-1.749.905L11.9,0H9.422l1.652-9.51ZM18.844-13.4a2.864,2.864,0,0,1-.62,1.709,1.756,1.756,0,0,1-1.411.672,1.477,1.477,0,0,1-.47-.075,4.446,4.446,0,0,1-.672-.325,4.909,4.909,0,0,0-.672-.33,1.293,1.293,0,0,0-.479-.07q-.668.026-.888.861l-1.459-.088a2.81,2.81,0,0,1,.646-1.705,1.757,1.757,0,0,1,1.428-.668,1.422,1.422,0,0,1,.435.066,4.85,4.85,0,0,1,.694.33,5.019,5.019,0,0,0,.7.334,1.323,1.323,0,0,0,.461.062q.677-.026.888-.861Zm5.941,3.718a3.814,3.814,0,0,1,2.167.646,3.638,3.638,0,0,1,1.336,1.731,5.357,5.357,0,0,1,.3,2.448,5.786,5.786,0,0,1-1.578,3.669,4.455,4.455,0,0,1-3.4,1.367,3.8,3.8,0,0,1-2.145-.637A3.624,3.624,0,0,1,20.136-2.18a5.239,5.239,0,0,1-.308-2.426,5.957,5.957,0,0,1,1.6-3.744A4.363,4.363,0,0,1,24.785-9.686Zm-2.5,5.979a2.194,2.194,0,0,0,.4,1.33,1.314,1.314,0,0,0,1.063.5,1.926,1.926,0,0,0,1.793-1.049,5.227,5.227,0,0,0,.606-2.848,2.387,2.387,0,0,0-.409-1.347,1.293,1.293,0,0,0-1.068-.522A1.929,1.929,0,0,0,22.891-6.6,5.173,5.173,0,0,0,22.28-3.706ZM39.243,0a2.566,2.566,0,0,1-.1-.861A3.221,3.221,0,0,1,36.721.176a2.919,2.919,0,0,1-2.07-.813A2.46,2.46,0,0,1,33.882-2.6a2.843,2.843,0,0,1,1.305-2.386,5.924,5.924,0,0,1,3.335-.831l1.16.018.123-.571a1.984,1.984,0,0,0,.026-.554.952.952,0,0,0-.312-.646,1.075,1.075,0,0,0-.708-.242,1.514,1.514,0,0,0-.984.286,1.384,1.384,0,0,0-.519.875l-2.487.009a2.764,2.764,0,0,1,1.252-2.21,4.851,4.851,0,0,1,2.94-.831,3.507,3.507,0,0,1,2.531.962,2.816,2.816,0,0,1,.765,2.386l-.729,4.553-.044.563a2.714,2.714,0,0,0,.149,1.055L41.678,0ZM37.336-1.749a2.27,2.27,0,0,0,1.872-.932l.308-1.644-.861-.009a2.406,2.406,0,0,0-1.978.835,1.454,1.454,0,0,0-.272.712.844.844,0,0,0,.2.751A1,1,0,0,0,37.336-1.749Zm10.02-.114A1.628,1.628,0,0,0,48.5-2.237a1.836,1.836,0,0,0,.6-1.042l2.329-.009a3.416,3.416,0,0,1-.628,1.8A3.818,3.818,0,0,1,49.285-.237a4.327,4.327,0,0,1-1.991.422,3.514,3.514,0,0,1-2.742-1.2,4.461,4.461,0,0,1-.976-3.111l.026-.483.009-.1A5.945,5.945,0,0,1,45.176-8.38a4.231,4.231,0,0,1,3.278-1.305,3.428,3.428,0,0,1,2.553,1.05,3.71,3.71,0,0,1,.927,2.676H49.623a1.947,1.947,0,0,0-.334-1.2,1.269,1.269,0,0,0-1-.475q-1.775-.053-2.153,2.593a8.755,8.755,0,0,0-.1,1.617Q46.125-1.89,47.355-1.863ZM57.41-11.848,57-9.51h1.582l-.325,1.863H56.672l-.809,4.764a1.211,1.211,0,0,0,.07.686q.123.237.6.255.141.009.756-.044L57.111-.044a4.169,4.169,0,0,1-1.424.2,2.234,2.234,0,0,1-1.819-.765,2.763,2.763,0,0,1-.492-2.021l.817-5.019H52.849l.325-1.863h1.345l.4-2.338ZM64.257-.984A3.283,3.283,0,0,1,61.638.176a2.443,2.443,0,0,1-2.074-.984,3.6,3.6,0,0,1-.545-2.549L60.047-9.51h2.479L61.479-3.324a2.446,2.446,0,0,0-.009.545.9.9,0,0,0,.976.906,2.265,2.265,0,0,0,1.907-.889L65.54-9.51h2.5L66.384,0H64.072ZM73.731,0a2.566,2.566,0,0,1-.1-.861A3.221,3.221,0,0,1,71.209.176a2.919,2.919,0,0,1-2.07-.813A2.46,2.46,0,0,1,68.37-2.6a2.843,2.843,0,0,1,1.305-2.386,5.924,5.924,0,0,1,3.335-.831l1.16.018.123-.571a1.984,1.984,0,0,0,.026-.554.952.952,0,0,0-.312-.646,1.075,1.075,0,0,0-.708-.242,1.514,1.514,0,0,0-.984.286,1.384,1.384,0,0,0-.519.875l-2.487.009a2.764,2.764,0,0,1,1.252-2.21,4.851,4.851,0,0,1,2.94-.831,3.507,3.507,0,0,1,2.531.962A2.816,2.816,0,0,1,76.8-6.337l-.729,4.553-.044.563a2.714,2.714,0,0,0,.149,1.055L76.166,0ZM71.824-1.749A2.27,2.27,0,0,0,73.7-2.681L74-4.324l-.861-.009a2.406,2.406,0,0,0-1.978.835,1.454,1.454,0,0,0-.272.712.844.844,0,0,0,.2.751A1,1,0,0,0,71.824-1.749ZM80.3,0H77.8l2.347-13.5h2.487Zm12.12-4.456H87.6L87.952-6.5h4.825ZM103.632,0a2.566,2.566,0,0,1-.1-.861A3.221,3.221,0,0,1,101.109.176a2.919,2.919,0,0,1-2.07-.813A2.46,2.46,0,0,1,98.271-2.6a2.843,2.843,0,0,1,1.305-2.386,5.924,5.924,0,0,1,3.335-.831l1.16.018.123-.571a1.984,1.984,0,0,0,.026-.554.952.952,0,0,0-.312-.646,1.075,1.075,0,0,0-.708-.242,1.514,1.514,0,0,0-.984.286,1.384,1.384,0,0,0-.519.875l-2.487.009a2.764,2.764,0,0,1,1.252-2.21,4.851,4.851,0,0,1,2.94-.831,3.507,3.507,0,0,1,2.531.962,2.816,2.816,0,0,1,.765,2.386l-.729,4.553-.044.563a2.714,2.714,0,0,0,.149,1.055L106.066,0Zm-1.907-1.749a2.27,2.27,0,0,0,1.872-.932l.308-1.644-.861-.009a2.406,2.406,0,0,0-1.978.835,1.454,1.454,0,0,0-.272.712.844.844,0,0,0,.2.751A1,1,0,0,0,101.725-1.749Zm9.773-7.77-.211,1.125a3.422,3.422,0,0,1,2.769-1.292,2.281,2.281,0,0,1,1.986.984,3.966,3.966,0,0,1,.466,2.654l-1,6.047h-2.479l1.02-6.073a2.844,2.844,0,0,0,.018-.624,1.007,1.007,0,0,0-1.125-.923,2.133,2.133,0,0,0-1.749.905L110,0h-2.479l1.652-9.51Zm5.449-3.885a2.864,2.864,0,0,1-.62,1.709,1.756,1.756,0,0,1-1.411.672,1.477,1.477,0,0,1-.47-.075,4.446,4.446,0,0,1-.672-.325,4.909,4.909,0,0,0-.672-.33,1.293,1.293,0,0,0-.479-.07q-.668.026-.888.861l-1.459-.088a2.81,2.81,0,0,1,.646-1.705,1.757,1.757,0,0,1,1.428-.668,1.422,1.422,0,0,1,.435.066,4.85,4.85,0,0,1,.694.33,5.019,5.019,0,0,0,.7.334,1.323,1.323,0,0,0,.461.062q.677-.026.888-.861Zm5.941,3.718a3.814,3.814,0,0,1,2.167.646,3.638,3.638,0,0,1,1.336,1.731,5.357,5.357,0,0,1,.3,2.448,5.786,5.786,0,0,1-1.578,3.669,4.455,4.455,0,0,1-3.4,1.367,3.8,3.8,0,0,1-2.145-.637,3.624,3.624,0,0,1-1.336-1.718,5.239,5.239,0,0,1-.308-2.426,5.957,5.957,0,0,1,1.6-3.744A4.363,4.363,0,0,1,122.889-9.686Zm-2.5,5.979a2.194,2.194,0,0,0,.4,1.33,1.314,1.314,0,0,0,1.063.5,1.926,1.926,0,0,0,1.793-1.049,5.227,5.227,0,0,0,.606-2.848,2.387,2.387,0,0,0-.409-1.347,1.293,1.293,0,0,0-1.068-.522,1.929,1.929,0,0,0-1.771,1.04A5.173,5.173,0,0,0,120.384-3.706ZM137.347,0a2.566,2.566,0,0,1-.1-.861A3.221,3.221,0,0,1,134.824.176a2.919,2.919,0,0,1-2.07-.813,2.46,2.46,0,0,1-.769-1.964,2.843,2.843,0,0,1,1.305-2.386,5.924,5.924,0,0,1,3.335-.831l1.16.018.123-.571a1.984,1.984,0,0,0,.026-.554.952.952,0,0,0-.312-.646,1.075,1.075,0,0,0-.708-.242,1.514,1.514,0,0,0-.984.286,1.384,1.384,0,0,0-.519.875l-2.487.009a2.764,2.764,0,0,1,1.252-2.21,4.851,4.851,0,0,1,2.94-.831,3.507,3.507,0,0,1,2.531.962,2.816,2.816,0,0,1,.765,2.386l-.729,4.553-.044.563a2.714,2.714,0,0,0,.149,1.055L139.781,0Zm-1.907-1.749a2.27,2.27,0,0,0,1.872-.932l.308-1.644-.861-.009a2.406,2.406,0,0,0-1.978.835,1.454,1.454,0,0,0-.272.712.844.844,0,0,0,.2.751A1,1,0,0,0,135.439-1.749Zm9.773-7.77L145-8.394a3.422,3.422,0,0,1,2.769-1.292,2.281,2.281,0,0,1,1.986.984,3.966,3.966,0,0,1,.466,2.654l-1,6.047h-2.479l1.02-6.073a2.844,2.844,0,0,0,.018-.624,1.007,1.007,0,0,0-1.125-.923,2.133,2.133,0,0,0-1.749.905L143.719,0H141.24l1.652-9.51Zm10.978-2.329-.413,2.338h1.582l-.325,1.863h-1.582l-.809,4.764a1.211,1.211,0,0,0,.07.686q.123.237.6.255.141.009.756-.044l-.176,1.942a4.169,4.169,0,0,1-1.424.2,2.234,2.234,0,0,1-1.819-.765,2.763,2.763,0,0,1-.492-2.021l.817-5.019h-1.345l.325-1.863H153.3l.4-2.338ZM161.666.176a4.137,4.137,0,0,1-2.21-.611,3.7,3.7,0,0,1-1.437-1.652,4.605,4.605,0,0,1-.369-2.316l.026-.352a6.148,6.148,0,0,1,.809-2.549,4.884,4.884,0,0,1,1.74-1.789,4.306,4.306,0,0,1,2.355-.593,3.29,3.29,0,0,1,2.782,1.351A4.631,4.631,0,0,1,166.078-5l-.141,1.083H160.11a2.041,2.041,0,0,0,.448,1.477,1.711,1.711,0,0,0,1.318.571,3.041,3.041,0,0,0,2.373-1.055l1.134,1.406a3.527,3.527,0,0,1-1.547,1.261A5.059,5.059,0,0,1,161.666.176Zm.791-7.813a1.761,1.761,0,0,0-1.217.431,3.784,3.784,0,0,0-.954,1.556h3.41l.053-.229a2.33,2.33,0,0,0,.009-.668,1.276,1.276,0,0,0-.431-.8A1.35,1.35,0,0,0,162.457-7.638Zm10.731.51a5.117,5.117,0,0,0-.835-.088,2.4,2.4,0,0,0-2.1.993L169.154,0h-2.479l1.652-9.51,2.329-.009-.229,1.16A2.615,2.615,0,0,1,172.644-9.7a3.615,3.615,0,0,1,.861.123ZM175.755,0h-2.5l1.652-9.51h2.5ZM175.2-11.927a1.238,1.238,0,0,1,.387-.976,1.36,1.36,0,0,1,.976-.387,1.367,1.367,0,0,1,.976.343,1.233,1.233,0,0,1,.431.932,1.273,1.273,0,0,1-.365.949,1.367,1.367,0,0,1-1,.422,1.39,1.39,0,0,1-.971-.334A1.227,1.227,0,0,1,175.2-11.927ZM183.3-9.686a3.814,3.814,0,0,1,2.167.646A3.638,3.638,0,0,1,186.8-7.308a5.357,5.357,0,0,1,.3,2.448,5.786,5.786,0,0,1-1.578,3.669,4.455,4.455,0,0,1-3.4,1.367,3.8,3.8,0,0,1-2.145-.637,3.624,3.624,0,0,1-1.336-1.718,5.239,5.239,0,0,1-.308-2.426,5.957,5.957,0,0,1,1.6-3.744A4.363,4.363,0,0,1,183.3-9.686Zm-2.5,5.979a2.194,2.194,0,0,0,.4,1.33,1.314,1.314,0,0,0,1.063.5,1.926,1.926,0,0,0,1.793-1.049,5.227,5.227,0,0,0,.606-2.848,2.387,2.387,0,0,0-.409-1.347,1.293,1.293,0,0,0-1.068-.522A1.929,1.929,0,0,0,181.4-6.6,5.173,5.173,0,0,0,180.791-3.706Zm13.535-3.422a5.117,5.117,0,0,0-.835-.088,2.4,2.4,0,0,0-2.1.993L190.292,0h-2.479l1.652-9.51,2.329-.009-.229,1.16A2.615,2.615,0,0,1,193.781-9.7a3.615,3.615,0,0,1,.861.123Z" transform="translate(186.619 24)" fill="#12263f"/>
        <path id="Trazado_148375" data-name="Trazado 148375" d="M5.528,0a2.566,2.566,0,0,1-.1-.861A3.221,3.221,0,0,1,3.006.176,2.919,2.919,0,0,1,.936-.637,2.46,2.46,0,0,1,.167-2.6,2.843,2.843,0,0,1,1.472-4.988a5.924,5.924,0,0,1,3.335-.831l1.16.018.123-.571a1.984,1.984,0,0,0,.026-.554.952.952,0,0,0-.312-.646A1.075,1.075,0,0,0,5.1-7.813a1.514,1.514,0,0,0-.984.286,1.384,1.384,0,0,0-.519.875l-2.487.009A2.764,2.764,0,0,1,2.36-8.855,4.851,4.851,0,0,1,5.3-9.686a3.507,3.507,0,0,1,2.531.962A2.816,2.816,0,0,1,8.6-6.337L7.866-1.784l-.044.563A2.714,2.714,0,0,0,7.972-.167L7.963,0ZM3.621-1.749a2.27,2.27,0,0,0,1.872-.932L5.8-4.324l-.861-.009A2.406,2.406,0,0,0,2.962-3.5a1.454,1.454,0,0,0-.272.712.844.844,0,0,0,.2.751A1,1,0,0,0,3.621-1.749Zm9.773-7.77-.211,1.125a3.422,3.422,0,0,1,2.769-1.292,2.281,2.281,0,0,1,1.986.984A3.966,3.966,0,0,1,18.4-6.047L17.4,0H14.924l1.02-6.073a2.844,2.844,0,0,0,.018-.624,1.007,1.007,0,0,0-1.125-.923,2.133,2.133,0,0,0-1.749.905L11.9,0H9.422l1.652-9.51ZM18.844-13.4a2.864,2.864,0,0,1-.62,1.709,1.756,1.756,0,0,1-1.411.672,1.477,1.477,0,0,1-.47-.075,4.446,4.446,0,0,1-.672-.325,4.909,4.909,0,0,0-.672-.33,1.293,1.293,0,0,0-.479-.07q-.668.026-.888.861l-1.459-.088a2.81,2.81,0,0,1,.646-1.705,1.757,1.757,0,0,1,1.428-.668,1.422,1.422,0,0,1,.435.066,4.85,4.85,0,0,1,.694.33,5.019,5.019,0,0,0,.7.334,1.323,1.323,0,0,0,.461.062q.677-.026.888-.861Zm5.941,3.718a3.814,3.814,0,0,1,2.167.646,3.638,3.638,0,0,1,1.336,1.731,5.357,5.357,0,0,1,.3,2.448,5.786,5.786,0,0,1-1.578,3.669,4.455,4.455,0,0,1-3.4,1.367,3.8,3.8,0,0,1-2.145-.637A3.624,3.624,0,0,1,20.136-2.18a5.239,5.239,0,0,1-.308-2.426,5.957,5.957,0,0,1,1.6-3.744A4.363,4.363,0,0,1,24.785-9.686Zm-2.5,5.979a2.194,2.194,0,0,0,.4,1.33,1.314,1.314,0,0,0,1.063.5,1.926,1.926,0,0,0,1.793-1.049,5.227,5.227,0,0,0,.606-2.848,2.387,2.387,0,0,0-.409-1.347,1.293,1.293,0,0,0-1.068-.522A1.929,1.929,0,0,0,22.891-6.6,5.173,5.173,0,0,0,22.28-3.706ZM39.243,0a2.566,2.566,0,0,1-.1-.861A3.221,3.221,0,0,1,36.721.176a2.919,2.919,0,0,1-2.07-.813A2.46,2.46,0,0,1,33.882-2.6a2.843,2.843,0,0,1,1.305-2.386,5.924,5.924,0,0,1,3.335-.831l1.16.018.123-.571a1.984,1.984,0,0,0,.026-.554.952.952,0,0,0-.312-.646,1.075,1.075,0,0,0-.708-.242,1.514,1.514,0,0,0-.984.286,1.384,1.384,0,0,0-.519.875l-2.487.009a2.764,2.764,0,0,1,1.252-2.21,4.851,4.851,0,0,1,2.94-.831,3.507,3.507,0,0,1,2.531.962,2.816,2.816,0,0,1,.765,2.386l-.729,4.553-.044.563a2.714,2.714,0,0,0,.149,1.055L41.678,0ZM37.336-1.749a2.27,2.27,0,0,0,1.872-.932l.308-1.644-.861-.009a2.406,2.406,0,0,0-1.978.835,1.454,1.454,0,0,0-.272.712.844.844,0,0,0,.2.751A1,1,0,0,0,37.336-1.749Zm9.773-7.77L46.9-8.394a3.422,3.422,0,0,1,2.769-1.292,2.281,2.281,0,0,1,1.986.984,3.966,3.966,0,0,1,.466,2.654L51.117,0H48.639l1.02-6.073a2.844,2.844,0,0,0,.018-.624,1.007,1.007,0,0,0-1.125-.923,2.133,2.133,0,0,0-1.749.905L45.615,0H43.137l1.652-9.51Zm10.978-2.329L57.674-9.51h1.582l-.325,1.863H57.349L56.54-2.883a1.211,1.211,0,0,0,.07.686q.123.237.6.255.141.009.756-.044L57.788-.044a4.169,4.169,0,0,1-1.424.2,2.234,2.234,0,0,1-1.819-.765,2.763,2.763,0,0,1-.492-2.021l.817-5.019H53.525l.325-1.863H55.2l.4-2.338ZM63.563.176a4.137,4.137,0,0,1-2.21-.611,3.7,3.7,0,0,1-1.437-1.652A4.605,4.605,0,0,1,59.546-4.4l.026-.352A6.148,6.148,0,0,1,60.381-7.3a4.884,4.884,0,0,1,1.74-1.789,4.306,4.306,0,0,1,2.355-.593,3.29,3.29,0,0,1,2.782,1.351A4.631,4.631,0,0,1,67.975-5L67.834-3.92H62.007a2.041,2.041,0,0,0,.448,1.477,1.711,1.711,0,0,0,1.318.571,3.041,3.041,0,0,0,2.373-1.055L67.28-1.521A3.527,3.527,0,0,1,65.733-.259,5.059,5.059,0,0,1,63.563.176Zm.791-7.813a1.761,1.761,0,0,0-1.217.431,3.784,3.784,0,0,0-.954,1.556h3.41l.053-.229a2.33,2.33,0,0,0,.009-.668,1.276,1.276,0,0,0-.431-.8A1.35,1.35,0,0,0,64.354-7.638Zm10.731.51a5.117,5.117,0,0,0-.835-.088,2.4,2.4,0,0,0-2.1.993L71.051,0H68.572l1.652-9.51,2.329-.009-.229,1.16A2.615,2.615,0,0,1,74.54-9.7a3.615,3.615,0,0,1,.861.123ZM77.651,0h-2.5l1.652-9.51h2.5ZM77.1-11.927a1.238,1.238,0,0,1,.387-.976,1.36,1.36,0,0,1,.976-.387,1.367,1.367,0,0,1,.976.343,1.233,1.233,0,0,1,.431.932,1.273,1.273,0,0,1-.365.949,1.367,1.367,0,0,1-1,.422,1.39,1.39,0,0,1-.971-.334A1.227,1.227,0,0,1,77.1-11.927Zm8.095,2.241a3.814,3.814,0,0,1,2.167.646,3.638,3.638,0,0,1,1.336,1.731A5.357,5.357,0,0,1,89-4.86,5.786,5.786,0,0,1,87.42-1.191a4.455,4.455,0,0,1-3.4,1.367,3.8,3.8,0,0,1-2.145-.637A3.624,3.624,0,0,1,80.543-2.18a5.239,5.239,0,0,1-.308-2.426,5.957,5.957,0,0,1,1.6-3.744A4.363,4.363,0,0,1,85.192-9.686Zm-2.5,5.979a2.194,2.194,0,0,0,.4,1.33,1.314,1.314,0,0,0,1.063.5,1.926,1.926,0,0,0,1.793-1.049,5.227,5.227,0,0,0,.606-2.848,2.387,2.387,0,0,0-.409-1.347,1.293,1.293,0,0,0-1.068-.522A1.929,1.929,0,0,0,83.3-6.6,5.173,5.173,0,0,0,82.688-3.706ZM96.223-7.128a5.117,5.117,0,0,0-.835-.088,2.4,2.4,0,0,0-2.1.993L92.188,0H89.71l1.652-9.51,2.329-.009-.229,1.16A2.615,2.615,0,0,1,95.678-9.7a3.615,3.615,0,0,1,.861.123Z" transform="translate(243.614 45.983)" fill="#12263f"/>
      </g>
      <path id="Trazado_148376" data-name="Trazado 148376" d="M3.094-8.407.229-9.2.8-10.856l2.8,1.15L3.384-12.8H5.265L5.036-9.645l2.725-1.124.571,1.677-2.9.79L7.356-5.972,5.836-4.935,4.228-7.519,2.61-5.023,1.09-6.016ZM20.2,0H17.227V-9.457L14.309-8.6v-2.25L19.925-12.8H20.2ZM32.941-5.229a6.11,6.11,0,0,1-1.165,4A4.024,4.024,0,0,1,28.494.176a4.046,4.046,0,0,1-3.3-1.415,6.1,6.1,0,0,1-1.169-3.99V-7.567a6.11,6.11,0,0,1,1.165-4,4.034,4.034,0,0,1,3.292-1.406,4.036,4.036,0,0,1,3.3,1.415,6.116,6.116,0,0,1,1.169,4ZM29.979-7.945a4.564,4.564,0,0,0-.36-2.061,1.2,1.2,0,0,0-1.143-.681,1.176,1.176,0,0,0-1.112.633,4.3,4.3,0,0,0-.374,1.916v3.27a4.6,4.6,0,0,0,.36,2.1,1.209,1.209,0,0,0,1.143.664,1.193,1.193,0,0,0,1.116-.646,4.39,4.39,0,0,0,.369-2.026ZM43.365-5.229a6.11,6.11,0,0,1-1.165,4A4.024,4.024,0,0,1,38.918.176a4.046,4.046,0,0,1-3.3-1.415,6.1,6.1,0,0,1-1.169-3.99V-7.567a6.11,6.11,0,0,1,1.165-4A4.034,4.034,0,0,1,38.9-12.973a4.036,4.036,0,0,1,3.3,1.415,6.116,6.116,0,0,1,1.169,4ZM40.4-7.945a4.564,4.564,0,0,0-.36-2.061,1.2,1.2,0,0,0-1.143-.681,1.176,1.176,0,0,0-1.112.633,4.3,4.3,0,0,0-.374,1.916v3.27a4.6,4.6,0,0,0,.36,2.1,1.209,1.209,0,0,0,1.143.664,1.193,1.193,0,0,0,1.116-.646A4.39,4.39,0,0,0,40.4-4.781Z" transform="translate(581.747 2907.49)" fill="#12263f"/>
    </g>
  </g>
</svg>
