<svg xmlns="http://www.w3.org/2000/svg" width="470" height="470" viewBox="0 0 470 470">
  <g id="Grupo_93229" data-name="Grupo 93229" transform="translate(-7191.527 -3701.629)">
    <g id="Grupo_90288" data-name="Grupo 90288" transform="translate(7217.016 3724.927)">
      <g id="freepik--background-complete--inject-36" transform="translate(10.434 39.8)">
        <rect id="Rectángulo_32016" data-name="Rectángulo 32016" width="87.899" height="79.139" transform="translate(0 229.492)" fill="#aed3f2"/>
        <rect id="Rectángulo_32017" data-name="Rectángulo 32017" width="64.973" height="24.205" rx="7.53" transform="translate(11.468 263.21)" fill="#e0e0e0"/>
        <path id="Trazado_144545" data-name="Trazado 144545" d="M7316.638,4028.819c0,.132-19.374.235-43.24.235s-43.24-.1-43.24-.235,19.374-.235,43.24-.235S7316.638,4028.725,7316.638,4028.819Z" transform="translate(-7229.228 -3784.344)" fill="#e0e0e0"/>
        <path id="Trazado_144546" data-name="Trazado 144546" d="M7239.33,4022.465a2.181,2.181,0,1,1-2.181-2.181,2.18,2.18,0,0,1,2.181,2.181Z" transform="translate(-7229.516 -3783.846)" fill="#e0e0e0"/>
        <path id="Trazado_144547" data-name="Trazado 144547" d="M7246.18,4022.465a2.181,2.181,0,1,1-2.181-2.181h.009a2.172,2.172,0,0,1,2.171,2.171Z" transform="translate(-7229.927 -3783.846)" fill="#e0e0e0"/>
        <path id="Trazado_144548" data-name="Trazado 144548" d="M7253.04,4022.465a2.181,2.181,0,1,1-2.181-2.181,2.18,2.18,0,0,1,2.181,2.181Z" transform="translate(-7230.338 -3783.846)" fill="#e0e0e0"/>
        <rect id="Rectángulo_32018" data-name="Rectángulo 32018" width="115.253" height="42.939" rx="12.66" transform="translate(9.625 0.179)" fill="#e0e0e0"/>
        <path id="Trazado_144549" data-name="Trazado 144549" d="M7541.3,3768.754v108.373l17.456-18.114h82.786v-90.259Z" transform="translate(-7247.896 -3768.754)" fill="#aed3f2"/>
        <path id="Trazado_144550" data-name="Trazado 144550" d="M7641.088,3786.967c0,.151-22.1.273-49.35.273s-49.35-.122-49.35-.273,22.09-.272,49.35-.272S7641.088,3786.826,7641.088,3786.967Z" transform="translate(-7247.961 -3769.831)" fill="#e0e0e0"/>
        <path id="Trazado_144551" data-name="Trazado 144551" d="M7552.88,3779.676a2.491,2.491,0,1,1-2.5-2.481h.009A2.492,2.492,0,0,1,7552.88,3779.676Z" transform="translate(-7248.292 -3769.261)" fill="#e0e0e0"/>
        <path id="Trazado_144552" data-name="Trazado 144552" d="M7560.7,3779.675a2.491,2.491,0,1,1-2.491-2.491h.02A2.491,2.491,0,0,1,7560.7,3779.675Z" transform="translate(-7248.761 -3769.26)" fill="#e0e0e0"/>
        <path id="Trazado_144553" data-name="Trazado 144553" d="M7568.512,3779.676a2.482,2.482,0,1,1-2.482-2.481A2.482,2.482,0,0,1,7568.512,3779.676Z" transform="translate(-7249.231 -3769.261)" fill="#e0e0e0"/>
        <path id="Trazado_144554" data-name="Trazado 144554" d="M7645.994,4081.968a22.09,22.09,0,1,1-9.985-29.6l.059.029A22.062,22.062,0,0,1,7645.994,4081.968Z" transform="translate(-7251.664 -3785.633)" fill="#aed3f2"/>
        <path id="Trazado_144555" data-name="Trazado 144555" d="M7641.632,4079.96a16.836,16.836,0,1,1-7.556-22.578l.036.018A16.817,16.817,0,0,1,7641.632,4079.96Z" transform="translate(-7252.001 -3785.966)" fill="#f2e9e4"/>
        <path id="Trazado_144556" data-name="Trazado 144556" d="M7641.957,4079.44a10.28,10.28,0,0,1,.508-2,17.475,17.475,0,0,0-.057-9.222,16.941,16.941,0,0,0-1.73-3.967,15.9,15.9,0,0,0-3.008-3.685,15.475,15.475,0,0,0-1.983-1.561,18.31,18.31,0,0,0-4.7-2.209,16.758,16.758,0,0,0-2.472-.489,15.253,15.253,0,0,0-2.435-.113,15.806,15.806,0,0,0-2.331.226,16.89,16.89,0,0,0-11.167,7.219c-.752,1.081-1.109,1.729-1.2,1.692a4.982,4.982,0,0,1,.771-1.955,15.7,15.7,0,0,1,3.647-4.446,16.927,16.927,0,0,1,7.736-3.675,16.7,16.7,0,0,1,2.5-.292,16.508,16.508,0,0,1,2.623.084,16.777,16.777,0,0,1,2.67.517,19.226,19.226,0,0,1,2.632.94,17.7,17.7,0,0,1,2.444,1.382,17.251,17.251,0,0,1,2.134,1.692,16.228,16.228,0,0,1,1.767,1.937,15.514,15.514,0,0,1,1.4,2.087,16.993,16.993,0,0,1,1.729,4.287,16.725,16.725,0,0,1,.508,3.985,15.6,15.6,0,0,1-1,5.64C7642.455,4078.858,7642.031,4079.478,7641.957,4079.44Z" transform="translate(-7252.101 -3785.926)" fill="#e0e0e0"/>
        <path id="Trazado_144557" data-name="Trazado 144557" d="M7624.218,4082.66l-1.278,2.688-2.35-1.137,1.231-2.576a12.382,12.382,0,0,1-4.963-4.7l2.679-2.256a10.578,10.578,0,0,0,3.76,3.873l1.88-3.938c-2.312-1.88-4.822-4.174-3.2-7.52,1.2-2.5,4.052-3.76,7.98-2.406l1.269-2.613,2.36,1.128-1.194,2.5a11.931,11.931,0,0,1,4.1,3.76l-2.576,2.341a10.662,10.662,0,0,0-3.027-2.97l-1.927,4.014c2.322,1.88,4.785,4.127,3.187,7.454C7630.949,4082.735,7628.138,4083.995,7624.218,4082.66Zm2.65-11.562,1.617-3.346c-1.391-.32-2.209.132-2.585.94s.094,1.617.968,2.406Zm1.326,7.642c.395-.827-.065-1.607-.94-2.444l-1.57,3.252c1.335.31,2.143-.056,2.51-.78Z" transform="translate(-7252.429 -3786.354)" fill="#e0e0e0"/>
      </g>
      <g id="freepik--Desk--inject-36" transform="translate(12.746 420.857)">
        <path id="Trazado_144558" data-name="Trazado 144558" d="M7639.137,4174.378c0,.132-91.227.244-203.745.244s-203.764-.112-203.764-.244,91.18-.245,203.764-.245S7639.137,4174.238,7639.137,4174.378Z" transform="translate(-7231.628 -4174.134)" fill="#344154"/>
      </g>
      <g id="freepik--Character--inject-36" transform="translate(89.634 119.456)">
        <path id="Trazado_144559" data-name="Trazado 144559" d="M7482.389,3910.5l-2.134,86.593c-.357,14.73-3.9,36.284-27.157,34.648h0c-20.069-2.933-24.712-22.212-24.355-35.955.169-6.514.292-11.948.263-12.625,0,0-22-2.613-23.049-24.44-.507-10.566.207-32.4,1.09-52.161a40.76,40.76,0,0,1,39.273-38.888l2.105-.075C7471.212,3868.073,7483.526,3887.719,7482.389,3910.5Z" transform="translate(-7318.965 -3854.342)" fill="#ffbe9d"/>
        <path id="Trazado_144560" data-name="Trazado 144560" d="M7430.484,3989.934s13.809.32,28.2-9.4c0,0-6.373,16.224-28.266,15.04Z" transform="translate(-7320.442 -3861.118)" fill="#eb996e"/>
        <path id="Trazado_144561" data-name="Trazado 144561" d="M7446.385,3919.755c.414.461,3.008-1.476,6.665-1.438s6.307,1.88,6.711,1.476c.2-.207-.226-1.025-1.382-1.88a9.19,9.19,0,0,0-5.376-1.739,8.811,8.811,0,0,0-5.3,1.71C7446.583,3918.731,7446.2,3919.548,7446.385,3919.755Z" transform="translate(-7321.398 -3857.256)" fill="#344154"/>
        <path id="Trazado_144562" data-name="Trazado 144562" d="M7445.648,3928.657a2.951,2.951,0,0,0,2.952,2.876,2.82,2.82,0,0,0,2.949-2.685c0-.029,0-.058,0-.088a2.952,2.952,0,0,0-2.952-2.876,2.82,2.82,0,0,0-2.949,2.686C7445.649,3928.6,7445.648,3928.628,7445.648,3928.657Z" transform="translate(-7321.356 -3857.838)" fill="#344154"/>
        <path id="Trazado_144563" data-name="Trazado 144563" d="M7435.125,3944.847c0-.188-2.1-.47-5.49-.79-.865-.056-1.683-.2-1.88-.771a4.411,4.411,0,0,1,.489-2.566c.733-2.106,1.495-4.314,2.3-6.58,3.187-9.4,5.461-17.174,5.085-17.3s-3.28,7.417-6.467,16.845q-1.156,3.479-2.2,6.665a4.992,4.992,0,0,0-.32,3.384,2.169,2.169,0,0,0,1.457,1.2,5.626,5.626,0,0,0,1.466.151C7432.972,3945.1,7435.115,3945.035,7435.125,3944.847Z" transform="translate(-7320.204 -3857.296)" fill="#344154"/>
        <path id="Trazado_144564" data-name="Trazado 144564" d="M7448.6,3905.285c.32.827,3.271.319,6.759.63s6.345,1.184,6.777.423c.2-.366-.319-1.128-1.485-1.88a11.485,11.485,0,0,0-10.312-.8C7449.076,3904.213,7448.456,3904.89,7448.6,3905.285Z" transform="translate(-7321.532 -3856.453)" fill="#344154"/>
        <path id="Trazado_144565" data-name="Trazado 144565" d="M7410.937,3906.05c.357.677,3.233.047,6.693.066s6.3.573,6.693-.1c.169-.32-.376-.94-1.561-1.5a12.067,12.067,0,0,0-5.076-1.034,12.561,12.561,0,0,0-5.123,1.062C7411.36,3905.11,7410.777,3905.692,7410.937,3906.05Z" transform="translate(-7319.272 -3856.494)" fill="#344154"/>
        <path id="Trazado_144566" data-name="Trazado 144566" d="M7485.979,3930.478c.377-.179,14.871-4.982,14.928,9.983s-14.975,11.938-15.04,11.506S7485.979,3930.478,7485.979,3930.478Z" transform="translate(-7323.769 -3858.062)" fill="#ffbe9d"/>
        <path id="Trazado_144567" data-name="Trazado 144567" d="M7490.747,3946.583c.066,0,.263.179.7.385a2.634,2.634,0,0,0,1.956,0c1.579-.583,2.9-3.1,2.961-5.8a8.663,8.663,0,0,0-.742-3.76,3.027,3.027,0,0,0-1.974-1.993,1.325,1.325,0,0,0-1.532.724c-.2.414-.1.714-.179.743s-.329-.254-.207-.865a1.617,1.617,0,0,1,.583-.94,1.938,1.938,0,0,1,1.438-.395,3.678,3.678,0,0,1,2.736,2.313,8.839,8.839,0,0,1,.94,4.173c-.085,3.018-1.617,5.837-3.76,6.477a2.817,2.817,0,0,1-2.388-.386C7490.775,3946.95,7490.691,3946.612,7490.747,3946.583Z" transform="translate(-7324.062 -3858.366)" fill="#eb996e"/>
        <path id="Trazado_144568" data-name="Trazado 144568" d="M7501.287,3902.449c-2.923-5.386-3.412-11.7-4.9-17.644s-5.847-13.489-11.534-15.754c-5.029-3.112-11.778-2.961-16.158.479-.771-7.812-5.884-12.408-13.386-14.683s-19.74-1.532-27.091,1.128c-5.706,2.049-11.28,6.486-18.17,13.056a73.7,73.7,0,0,0-7.971,8.958l-7.341,20.107,5.255,10.885c.31.743.63,1.476,1.024,2.209h0l4.258,22.682c.555-6.119.94-27.476,1.438-33.6a34.26,34.26,0,0,0,24.807-10.34c3.487-3.591,6.288-8.14,10.856-10.2,5.885-2.641,12.69-.3,18.706,2.04l-.254-.244a27.389,27.389,0,0,1,8.216,6.4,85.173,85.173,0,0,0,2.35,36.134c.508,1.758,1.937,5.405,3.619,6.129,3.309,1.419,4.333-1.965,6.42-3.7,1.542-1.288,3.76-1.372,6.167-1.279a140.147,140.147,0,0,0,4.7-15.359,13.484,13.484,0,0,0,6.261.649q-.884-2.341-1.758-4.7a7.067,7.067,0,0,0,2.632,1.316,2.443,2.443,0,0,0,2.594-1.015C7502.622,3904.922,7501.9,3903.577,7501.287,3902.449Z" transform="translate(-7318.302 -3853.496)" fill="#344154"/>
        <path id="Trazado_144569" data-name="Trazado 144569" d="M7467.578,3874.834a18.09,18.09,0,0,1,2.115,2.087,15.572,15.572,0,0,1,3.083,7.36,28.143,28.143,0,0,1,.348,5.555c-.065,2.012-.31,4.155-.545,6.411a57.655,57.655,0,0,0-.423,7.144,23.789,23.789,0,0,0,.347,3.76,7.871,7.871,0,0,0,1.4,3.713,3.281,3.281,0,0,0,3.036,1.147,4.91,4.91,0,0,0,2.82-1.457c1.466-1.589,1.88-3.647,2.3-5.471l-.46.047a18.72,18.72,0,0,0,2.481,4.7,6.523,6.523,0,0,0,4.155,2.463,4.188,4.188,0,0,0,2.265-.31,3.581,3.581,0,0,0,1.58-1.448,3.75,3.75,0,0,0,.536-1.88,2.691,2.691,0,0,0-.639-1.72l-.235.2a13.892,13.892,0,0,0,4.549,3.685,13.036,13.036,0,0,0,1.429.62,3.069,3.069,0,0,0,.517.15,1.93,1.93,0,0,0-.479-.226c-.32-.15-.8-.357-1.382-.686a14.58,14.58,0,0,1-4.39-3.76l-.244.2a2.82,2.82,0,0,1,0,3.243,3.3,3.3,0,0,1-1.429,1.278,3.75,3.75,0,0,1-2.049.254,6.042,6.042,0,0,1-3.854-2.341,18.041,18.041,0,0,1-2.387-4.559l-.292-.714-.169.752a11.073,11.073,0,0,1-2.2,5.226,4.423,4.423,0,0,1-2.528,1.307,2.82,2.82,0,0,1-2.576-.94,7.389,7.389,0,0,1-1.3-3.478,24.913,24.913,0,0,1-.348-3.7,57.406,57.406,0,0,1,.395-7.087c.226-2.256.451-4.409.5-6.448a27.3,27.3,0,0,0-.423-5.64,15.394,15.394,0,0,0-3.28-7.426A8.829,8.829,0,0,0,7467.578,3874.834Z" transform="translate(-7322.672 -3854.776)" fill="#5e6178"/>
        <path id="Trazado_144570" data-name="Trazado 144570" d="M7410.945,3919.905c.414.461,3.008-1.476,6.665-1.438s6.307,1.88,6.711,1.476c.2-.207-.226-1.025-1.382-1.88a9.17,9.17,0,0,0-5.367-1.739,8.887,8.887,0,0,0-5.311,1.711C7411.132,3918.881,7410.738,3919.708,7410.945,3919.905Z" transform="translate(-7319.271 -3857.265)" fill="#344154"/>
        <path id="Trazado_144571" data-name="Trazado 144571" d="M7413.278,3927.487a2.961,2.961,0,0,0,2.961,2.876,2.819,2.819,0,0,0,2.939-2.694c0-.026,0-.052,0-.079a2.952,2.952,0,0,0-2.952-2.876,2.821,2.821,0,0,0-2.949,2.686C7413.279,3927.429,7413.278,3927.458,7413.278,3927.487Z" transform="translate(-7319.415 -3857.768)" fill="#344154"/>
        <path id="Trazado_144572" data-name="Trazado 144572" d="M7403.338,3876.954c-1.88,2.406-4.832,4.568-7.877,4.164a23.1,23.1,0,0,1-3.224-1.034c-1.09.621-.94,4.277-.216,5.311a19.7,19.7,0,0,0,2.237,2.425c-3.638,1.833-6.872.809-10.659-.686a18.733,18.733,0,0,0,10.763,15.3c1.88.855,4.23,1.354,6.016.263,1.57-.94,2.247-2.82,2.754-4.634a82.154,82.154,0,0,0,3.177-19.975Z" transform="translate(-7317.634 -3854.903)" fill="#344154"/>
        <path id="Trazado_144573" data-name="Trazado 144573" d="M7439.013,3954.343a3.019,3.019,0,0,1,2.613-1.58c1.016,0,1.88-.094,2.623.611a4.758,4.758,0,0,1,1.043,5.367,3.938,3.938,0,0,1-4.954,1.88c-1.777-.818-2.482-5.4-1.25-6.918" transform="translate(-7320.926 -3859.451)" fill="#eb996e"/>
        <path id="Trazado_144574" data-name="Trazado 144574" d="M7438.371,3957.59a7.412,7.412,0,0,1,.385.855,3.1,3.1,0,0,0,1.814,1.607,4.556,4.556,0,0,0,3.543-.423,3.7,3.7,0,0,0-1.814-6.646,3.64,3.64,0,0,0-3.233,1.325,3.687,3.687,0,0,0-.752,2.331c0,.6.1.94.057.94s-.047-.075-.1-.235a3.213,3.213,0,0,1-.141-.705,3.657,3.657,0,0,1,.667-2.547,3.93,3.93,0,0,1,3.553-1.561,4.126,4.126,0,0,1,2,7.473,4.847,4.847,0,0,1-3.9.367,3.222,3.222,0,0,1-1.88-1.88,2.582,2.582,0,0,1-.2-.7Z" transform="translate(-7320.904 -3859.436)" fill="#344154"/>
        <path id="Trazado_144575" data-name="Trazado 144575" d="M7462.785,3874.278a13.792,13.792,0,0,0-2.218-2.82,14.566,14.566,0,0,0-8.779-3.76,17.87,17.87,0,0,0-6.627.78,26.632,26.632,0,0,0-6.918,3.365c-4.559,3.017-8.592,7.52-13,12.079a57.7,57.7,0,0,1-6.918,6.167,27.611,27.611,0,0,1-7.614,4.08,25.04,25.04,0,0,1-14.476.235,24.59,24.59,0,0,1-8.751-4.437l-1.184-1c-.339-.292-.583-.583-.8-.8l-.479-.507c-.1-.113-.16-.179-.15-.188l.188.151.508.47c.226.207.489.489.827.771l1.185.94a25.265,25.265,0,0,0,8.723,4.249,24.893,24.893,0,0,0,14.242-.329,27.412,27.412,0,0,0,7.52-4.033,59.856,59.856,0,0,0,6.852-6.119c4.39-4.512,8.46-9.071,13.1-12.116a26.573,26.573,0,0,1,7.05-3.375,18.166,18.166,0,0,1,6.777-.743,14.556,14.556,0,0,1,8.874,3.976,11.126,11.126,0,0,1,1.664,2.1c.131.254.244.451.329.611S7462.794,3874.268,7462.785,3874.278Z" transform="translate(-7317.71 -3854.323)" fill="#5e6178"/>
        <path id="Trazado_144576" data-name="Trazado 144576" d="M7421.568,3997.937l8.291-1.645,51.286-3.168,10.933,2.98-1.438,26.621-24.713,15.764-23.97-.479-15.078-13.724-3.337-13.621Z" transform="translate(-7319.912 -3861.873)" fill="#ffbe9d"/>
        <path id="Trazado_144577" data-name="Trazado 144577" d="M7556.124,4039.851a161.459,161.459,0,0,0-9.851-17.616,43.96,43.96,0,0,0-25.287-18.415l-39.48-10.707s-2.049,39.48-29.224,39.48-32.468-37.008-32.468-37.008l-45.731,18.246c-1.57.611-12.173,4.277-24.515,30.738-11.75,25.2-16.92,38.089-16.92,38.089l47.057,13.593,2.942,42.366-1,24.2,142.965-.319-.8-27.655.6-42.4,1.786,2.886,47.583-19.082S7567.658,4063.68,7556.124,4039.851Z" transform="translate(-7314.576 -3861.872)" fill="#d9a171"/>
        <path id="Trazado_144578" data-name="Trazado 144578" d="M7537.3,4070.074c.216,0,.084,15.322-.282,34.216s-.8,34.178-1.006,34.178-.084-15.322.282-34.216S7537.13,4070.074,7537.3,4070.074Z" transform="translate(-7326.772 -3866.49)" fill="#344154"/>
        <path id="Trazado_144579" data-name="Trazado 144579" d="M7375.128,4060.834a6.744,6.744,0,0,1,.527,1.57c.282,1.025.667,2.519,1.118,4.362.894,3.7,2,8.836,3.037,14.551s1.767,10.923,2.218,14.692c.226,1.88.4,3.421.479,4.484a7.383,7.383,0,0,1,.056,1.654,6.574,6.574,0,0,1-.357-1.617c-.188-1.213-.423-2.7-.705-4.446-.583-3.76-1.419-8.93-2.444-14.636s-2.049-10.838-2.82-14.561c-.348-1.739-.639-3.215-.883-4.418A7.428,7.428,0,0,1,7375.128,4060.834Z" transform="translate(-7317.125 -3865.936)" fill="#344154"/>
        <path id="Trazado_144580" data-name="Trazado 144580" d="M7335.518,4089.644,7316.36,4128.1a28.055,28.055,0,0,0-2.9,13.855h0a28.03,28.03,0,0,0,27.993,26.668l54.934-3.187,2.406-25.061-41.8-10.086,15.839-29.948Z" transform="translate(-7313.423 -3867.664)" fill="#ffbe9d"/>
        <path id="Trazado_144581" data-name="Trazado 144581" d="M7357.82,4132.833c0,.179-1.88-.141-4.935-.122a38.012,38.012,0,0,0-11.59,2.049,35.315,35.315,0,0,0-10.34,5.508c-2.369,1.88-3.5,3.412-3.628,3.318s.2-.451.7-1.156a18.634,18.634,0,0,1,2.5-2.679,31.458,31.458,0,0,1,10.509-5.894,33.391,33.391,0,0,1,11.9-1.814,22.388,22.388,0,0,1,3.628.433A3.99,3.99,0,0,1,7357.82,4132.833Z" transform="translate(-7314.255 -3870.207)" fill="#eb996e"/>
        <path id="Trazado_144582" data-name="Trazado 144582" d="M7376.683,4100.7a10.619,10.619,0,0,1-.94,2.942,55.429,55.429,0,0,1-3.149,6.693,54.6,54.6,0,0,1-4,6.232,10.456,10.456,0,0,1-2.012,2.322c-.179-.131,2.585-3.9,5.349-8.92S7376.476,4100.629,7376.683,4100.7Z" transform="translate(-7316.612 -3868.328)" fill="#eb996e"/>
        <path id="Trazado_144583" data-name="Trazado 144583" d="M7582.981,4168.149h-64.5V4143.8l37.355-15.783-13.855-29.037,37.393-15.04,18.255,40.608c4.239,11.8,8.573,17.4,4.879,28.134C7600.587,4158.26,7592.653,4168.149,7582.981,4168.149Z" transform="translate(-7325.727 -3867.322)" fill="#ffbe9d"/>
        <path id="Trazado_144584" data-name="Trazado 144584" d="M7392.428,4141.554h10.753s24.262-8.77,29.253-7.933c4.494.751,20.953,11.684,24.177,13.846a2.1,2.1,0,0,1,.78,1h0a3.534,3.534,0,0,1-1.965,4.484l-.338.141.141.489a5.944,5.944,0,0,1,.253,1.964,2.368,2.368,0,0,1-4.408,1.025l.621,1.1a2.7,2.7,0,0,1,.338,1.476l-.056,1.006a2.7,2.7,0,0,1-1.88,2.416h0a2.7,2.7,0,0,1-2.82-.743c-2.086-2.293-6.58-6.89-9.644-7.4a70.657,70.657,0,0,0-9.955-.507,3.394,3.394,0,0,0-3.139,2.162h0c1.814.131,14.419,6.7,18.884,9.052a4.785,4.785,0,0,1,2.595,3.6c.16,1.391-.545,2.82-3.309,2.209-5.922-1.382-16.591-6.289-16.591-6.289s-5.509-1.569-9.071.94c-5.02,3.544-7.313,4.842-11.618,3.413a36.523,36.523,0,0,1-7.52-3.478l-8.46-.846S7381.458,4144.628,7392.428,4141.554Z" transform="translate(-7317.816 -3870.3)" fill="#ffbe9d"/>
        <path id="Trazado_144585" data-name="Trazado 144585" d="M7426.888,4146.36c0,.094,1.72-.451,4.559-.639a23.5,23.5,0,0,1,19.609,8.375,44.832,44.832,0,0,1,2.7,3.76,5.018,5.018,0,0,0-.536-1.128,20.7,20.7,0,0,0-1.88-2.82,22.814,22.814,0,0,0-19.891-8.46,19.432,19.432,0,0,0-3.346.573A5.34,5.34,0,0,0,7426.888,4146.36Z" transform="translate(-7320.231 -3871.007)" fill="#eb996e"/>
        <path id="Trazado_144586" data-name="Trazado 144586" d="M7429.618,4140.08a20.158,20.158,0,0,1,4.747-.827,20.7,20.7,0,0,1,11.017,3.121,44.243,44.243,0,0,1,8.893,7.52l2.444,2.585a6.813,6.813,0,0,0,.94.94,8.31,8.31,0,0,0-.8-1.034c-.536-.649-1.326-1.58-2.332-2.7a41.149,41.149,0,0,0-8.9-7.7,20.176,20.176,0,0,0-11.28-3.055,13.41,13.41,0,0,0-3.525.648,8.124,8.124,0,0,0-.94.348C7429.711,4140.005,7429.608,4140.062,7429.618,4140.08Z" transform="translate(-7320.395 -3870.621)" fill="#eb996e"/>
        <path id="Trazado_144587" data-name="Trazado 144587" d="M7531.077,4142.324h-10.763s-24.262-8.771-29.253-7.934c-4.493.752-20.953,11.685-24.177,13.846a2.1,2.1,0,0,0-.78,1h0a3.544,3.544,0,0,0,1.965,4.484l.338.141-.141.489a5.868,5.868,0,0,0-.254,1.964,2.368,2.368,0,0,0,4.408,1.025l-.62,1.1a2.826,2.826,0,0,0-.339,1.476l.057,1a2.669,2.669,0,0,0,1.88,2.416h0a2.679,2.679,0,0,0,2.82-.733c2.087-2.3,6.58-6.9,9.645-7.407a72.12,72.12,0,0,1,9.964-.5,3.393,3.393,0,0,1,3.13,2.162h0c-1.813.122-14.419,6.7-18.884,9.052a4.773,4.773,0,0,0-2.595,3.591c-.16,1.4.545,2.867,3.309,2.219,5.922-1.382,16.591-6.289,16.591-6.289s5.509-1.579,9.071.94c5.02,3.544,7.313,4.841,11.618,3.413a36.191,36.191,0,0,0,7.521-3.479l8.46-.846S7542.047,4145.426,7531.077,4142.324Z" transform="translate(-7322.571 -3870.346)" fill="#ffbe9d"/>
        <path id="Trazado_144588" data-name="Trazado 144588" d="M7499.421,4147.161c0,.094-1.72-.451-4.559-.63a23.5,23.5,0,0,0-19.646,8.375,28.256,28.256,0,0,0-2.7,3.76,5.465,5.465,0,0,1,.536-1.119,20.655,20.655,0,0,1,1.88-2.82,22.816,22.816,0,0,1,19.891-8.46,20.545,20.545,0,0,1,3.347.564A6.016,6.016,0,0,1,7499.421,4147.161Z" transform="translate(-7322.968 -3871.056)" fill="#eb996e"/>
        <path id="Trazado_144589" data-name="Trazado 144589" d="M7496.6,4140.881a20.163,20.163,0,0,0-4.7-.827,20.772,20.772,0,0,0-11.036,3.13,44.5,44.5,0,0,0-8.892,7.52l-2.444,2.595a6.9,6.9,0,0,1-.94.94,7.759,7.759,0,0,1,.8-1.043c.536-.64,1.325-1.57,2.341-2.689a40.853,40.853,0,0,1,8.892-7.7,20.2,20.2,0,0,1,11.28-3.055,13.358,13.358,0,0,1,3.515.648,6.7,6.7,0,0,1,.94.348A.953.953,0,0,1,7496.6,4140.881Z" transform="translate(-7322.733 -3870.671)" fill="#eb996e"/>
        <path id="Trazado_144590" data-name="Trazado 144590" d="M7586.992,4132.3c-.056.085-1.457-.94-4-2.115-.629-.282-1.325-.592-2.105-.855s-1.6-.526-2.482-.78a29.8,29.8,0,0,0-11.853-.686c-.94.16-1.767.282-2.557.5a20.828,20.828,0,0,0-2.19.611c-2.651.865-4.164,1.72-4.211,1.635a5.069,5.069,0,0,1,1.052-.629,9.271,9.271,0,0,1,1.288-.63,17.572,17.572,0,0,1,1.758-.705,20.849,20.849,0,0,1,2.209-.677,26.025,26.025,0,0,1,2.585-.545,28.491,28.491,0,0,1,12.032.686c.894.282,1.749.518,2.51.847a19.468,19.468,0,0,1,2.115.94,12.879,12.879,0,0,1,1.673.94,11.459,11.459,0,0,1,1.2.78A5.507,5.507,0,0,1,7586.992,4132.3Z" transform="translate(-7328.074 -3869.91)" fill="#eb996e"/>
        <path id="Trazado_144591" data-name="Trazado 144591" d="M7521.372,4170.022H7387.045a7.123,7.123,0,0,1-7.115-6.824l-4.033-92.449a7.125,7.125,0,0,1,6.8-7.437c.106,0,.212-.008.318-.008h142.128a7.135,7.135,0,0,1,7.131,7.138q0,.144-.005.288l-3.76,92.449A7.124,7.124,0,0,1,7521.372,4170.022Z" transform="translate(-7317.171 -3866.084)" fill="#e0e0e0"/>
        <path id="Trazado_144592" data-name="Trazado 144592" d="M7521.358,4169.99a12.583,12.583,0,0,0,1.3-.15,6.985,6.985,0,0,0,3.375-1.673,7.143,7.143,0,0,0,2.4-5.5q.141-3.694.329-8.507c.508-12.8,1.231-31.321,2.134-54.209q.339-8.592.715-17.964c.122-3.121.253-6.308.376-9.551,0-.808.094-1.645.065-2.434a6.922,6.922,0,0,0-.555-2.322,6.836,6.836,0,0,0-3.262-3.459,7.1,7.1,0,0,0-2.35-.705c-.808-.066-1.682,0-2.538,0h-139.7a7.693,7.693,0,0,0-3.111.47,6.9,6.9,0,0,0-4.117,4.446,7.71,7.71,0,0,0-.282,1.532v1.589c.047,1.072.084,2.143.131,3.215l.282,6.4q.545,12.766,1.09,25.117c.715,16.469,1.4,32.346,2.059,47.479.084,1.88.16,3.76.244,5.64,0,.94.075,1.88.122,2.82a9.72,9.72,0,0,0,.339,2.688,6.934,6.934,0,0,0,3.28,4.032,6.857,6.857,0,0,0,2.491.8c.855.094,1.776.047,2.67.056h58.345l54.248.075,14.749.047H7501.43l-54.248.075h-58.308c-.94,0-1.786,0-2.726-.056a7.359,7.359,0,0,1-6.138-5.133,10.2,10.2,0,0,1-.357-2.82c-.047-.94-.085-1.88-.132-2.82q-.113-2.82-.245-5.64c-.667-15.134-1.363-31.02-2.086-47.48q-.535-12.351-1.1-25.116c-.094-2.125-.179-4.258-.273-6.4l-.141-3.215a15.757,15.757,0,0,1,0-1.636,8.194,8.194,0,0,1,.291-1.645,7.382,7.382,0,0,1,4.409-4.756,8.243,8.243,0,0,1,3.29-.508h139.7c.865,0,1.7,0,2.585.047a7.388,7.388,0,0,1,2.482.743,7.221,7.221,0,0,1,3.45,3.675,7.431,7.431,0,0,1,.583,2.454c0,.855,0,1.645-.066,2.463q-.2,4.879-.4,9.56-.395,9.4-.752,17.963c-.94,22.88-1.739,41.36-2.284,54.2q-.207,4.8-.366,8.46a7.265,7.265,0,0,1-2.482,5.565,7.057,7.057,0,0,1-3.431,1.655,6.765,6.765,0,0,1-.94.094Z" transform="translate(-7317.158 -3866.051)" fill="#344154"/>
        <path id="Trazado_144593" data-name="Trazado 144593" d="M7465.949,4121.364a7.36,7.36,0,1,1-7.36-7.36h0A7.371,7.371,0,0,1,7465.949,4121.364Z" transform="translate(-7321.691 -3869.126)" fill="#fff" stroke="#5e6178" stroke-miterlimit="10" stroke-width="0"/>
      </g>
      <g id="freepik--ad-3--inject-36" transform="translate(288.59 159.471)">
        <path id="Trazado_144594" data-name="Trazado 144594" d="M7661.575,3905.43v1.682c0,1.119,0,2.82.057,4.982,0,4.39.1,10.838.188,19.11.141,16.591.348,40.477.611,69.682v.2h-.2l-101.144.047.169-.075-20.153,22.081-.423.46v-22.7l.244.244h-15.182v-.244c-.234-34.385-.46-66.8-.667-95.466v-.226h.216l98.625.113,27.814.056h-.094l-27.861.057-98.484.113.226-.226c.217,28.67.461,61.1.715,95.467l-.244-.235h15.134v22.316l-.423-.16,20.163-21.968.065-.075h101.389l-.188.2c-.169-29.14-.31-53.007-.4-69.56-.048-8.291-.075-14.758-.095-19.157v-5.02C7661.632,3905.975,7661.575,3905.43,7661.575,3905.43Z" transform="translate(-7525.078 -3896.613)" fill="#344154"/>
        <path id="Trazado_144595" data-name="Trazado 144595" d="M7660.938,3919.75c0,.113-30.192.216-67.435.216s-67.455-.1-67.455-.216,30.193-.216,67.455-.216S7660.938,3919.628,7660.938,3919.75Z" transform="translate(-7525.137 -3897.472)" fill="#344154"/>
        <ellipse id="Elipse_4301" data-name="Elipse 4301" cx="1.805" cy="1.974" rx="1.805" ry="1.974" transform="translate(4.7 14.956)" fill="#e0e0e0"/>
        <ellipse id="Elipse_4302" data-name="Elipse 4302" cx="1.805" cy="1.974" rx="1.805" ry="1.974" transform="translate(10.039 14.956)" fill="#e0e0e0"/>
        <ellipse id="Elipse_4303" data-name="Elipse 4303" cx="1.805" cy="1.974" rx="1.805" ry="1.974" transform="translate(15.369 14.956)" fill="#e0e0e0"/>
        <path id="Trazado_144596" data-name="Trazado 144596" d="M7594.868,3961.394v-11.336a.724.724,0,0,1,.724-.724.732.732,0,0,1,.357.094l10.133,5.715a.723.723,0,0,1,.272.987.712.712,0,0,1-.272.272l-10.143,5.64a.714.714,0,0,1-1.071-.649Z" transform="translate(-7529.266 -3899.26)" fill="#fff" stroke="#5e6178" stroke-miterlimit="10" stroke-width="0"/>
        <circle id="Elipse_4304" data-name="Elipse 4304" cx="12.972" cy="12.972" r="12.972" transform="translate(122.491)" fill="#d9a171"/>
        <rect id="Rectángulo_32019" data-name="Rectángulo 32019" width="11.694" height="2.613" transform="translate(130.403 16.186) rotate(-45)" fill="#fff" stroke="#5e6178" stroke-miterlimit="10" stroke-width="0"/>
        <rect id="Rectángulo_32020" data-name="Rectángulo 32020" width="2.613" height="11.694" transform="translate(130.399 9.745) rotate(-45)" fill="#fff" stroke="#5e6178" stroke-miterlimit="10" stroke-width="0"/>
      </g>
      <g id="freepik--ad-2--inject-36" transform="translate(167.781)">
        <path id="Trazado_144597" data-name="Trazado 144597" d="M7396.778,3741.314v93.352h85.258l18.424,14.25v-107.6Z" transform="translate(-7396.571 -3727.308)" fill="#fff" stroke="#5e6178" stroke-miterlimit="10" stroke-width="0"/>
        <path id="Trazado_144598" data-name="Trazado 144598" d="M7396.765,3741.3h7.408l21.046-.056,75.2-.1h.207v108.307l-.395-.3-18.358-14.3.15.047h-85.465v-.207c.047-28.2.075-51.512.1-67.84,0-8.14,0-14.523.056-18.875v.084c0,4.362,0,10.763.047,18.913,0,16.3.066,39.612.1,67.68l-.2-.2h85.342l.066.047,18.424,14.241-.4.2v-107.6l.216.216-75.087-.113-21.093-.047h-7.013Z" transform="translate(-7396.558 -3727.298)" fill="#344154"/>
        <path id="Trazado_144599" data-name="Trazado 144599" d="M7499.952,3760.156c0,.15-22.861.282-51.042.282s-51.042-.132-51.042-.282,22.852-.282,51.042-.282S7499.952,3760,7499.952,3760.156Z" transform="translate(-7396.637 -3728.422)" fill="#344154"/>
        <path id="Trazado_144600" data-name="Trazado 144600" d="M7408.759,3752.61a2.575,2.575,0,1,1-2.575-2.576h.038A2.576,2.576,0,0,1,7408.759,3752.61Z" transform="translate(-7396.981 -3727.831)" fill="#e0e0e0"/>
        <path id="Trazado_144601" data-name="Trazado 144601" d="M7416.839,3752.61a2.576,2.576,0,1,1-2.576-2.576h.009a2.567,2.567,0,0,1,2.566,2.566Z" transform="translate(-7397.466 -3727.831)" fill="#e0e0e0"/>
        <path id="Trazado_144602" data-name="Trazado 144602" d="M7424.929,3752.61a2.576,2.576,0,1,1-2.576-2.576,2.576,2.576,0,0,1,2.576,2.576Z" transform="translate(-7397.951 -3727.831)" fill="#e0e0e0"/>
        <path id="Trazado_144603" data-name="Trazado 144603" d="M7483.042,3794.449a28.877,28.877,0,1,1-29.621-28.113l.058,0A28.849,28.849,0,0,1,7483.042,3794.449Z" transform="translate(-7398.283 -3728.809)" fill="#d9a171"/>
        <path id="Trazado_144604" data-name="Trazado 144604" d="M7476.578,3795.056a22.015,22.015,0,1,1-22.584-21.431h.024a21.979,21.979,0,0,1,22.559,21.38Z" transform="translate(-7398.718 -3729.246)" fill="#d9a171"/>
        <g id="Grupo_90281" data-name="Grupo 90281" transform="translate(33.582 43.522)" opacity="0.3">
          <path id="Trazado_144605" data-name="Trazado 144605" d="M7476.562,3794.306a12.721,12.721,0,0,1-.648-2.632,23.564,23.564,0,0,0-2.7-6.683,22.115,22.115,0,0,0-3.008-3.92,21.843,21.843,0,0,0-4.418-3.534,20,20,0,0,0-2.717-1.391,19.675,19.675,0,0,0-3.017-1.034,21.6,21.6,0,0,0-3.233-.592,24.085,24.085,0,0,0-3.394-.075,23.569,23.569,0,0,0-3.375.451,21.728,21.728,0,0,0-8.592,3.986,22.082,22.082,0,0,0-3.995,4,22.7,22.7,0,0,0-2.557,4.23,23.34,23.34,0,0,0-1.946,6.947,13.024,13.024,0,0,1-.347,2.679,6.589,6.589,0,0,1-.3-2.726,20.284,20.284,0,0,1,1.5-7.37,22.4,22.4,0,0,1,2.528-4.6,22.7,22.7,0,0,1,4.164-4.381,20.961,20.961,0,0,1,2.708-1.88,21.911,21.911,0,0,1,3.083-1.5,22.743,22.743,0,0,1,3.4-1.043,24.431,24.431,0,0,1,3.638-.5,25.009,25.009,0,0,1,3.656.094,22.308,22.308,0,0,1,3.5.658,22.065,22.065,0,0,1,3.234,1.213,20.326,20.326,0,0,1,2.9,1.551,22.2,22.2,0,0,1,7.652,8.188,20.437,20.437,0,0,1,2.293,7.116A6.5,6.5,0,0,1,7476.562,3794.306Z" transform="translate(-7432.283 -3772.714)" fill="#344154"/>
        </g>
        <g id="Grupo_90282" data-name="Grupo 90282" transform="translate(46.563 51.079)" opacity="0.3">
          <path id="Trazado_144606" data-name="Trazado 144606" d="M7458.224,3809.076l.141,3.826-3.422.132-.141-3.76a16.2,16.2,0,0,1-8.62-2.416l1.72-4.24a13.862,13.862,0,0,0,6.73,2.171l-.216-5.715c-3.835-.771-8.131-1.88-8.319-6.768-.132-3.628,2.378-6.843,7.755-7.661l-.141-3.76,3.421-.132.141,3.76a15.518,15.518,0,0,1,7.022,1.824l-1.542,4.277a13.991,13.991,0,0,0-5.3-1.579l.216,5.809c3.835.743,8.056,1.88,8.244,6.674C7466.044,3805.044,7463.563,3808.221,7458.224,3809.076Zm-4-15.04-.187-4.85c-1.8.479-2.472,1.494-2.435,2.622s1.1,1.861,2.622,2.275Zm6.2,8.018c-.047-1.194-1.062-1.8-2.557-2.265l.179,4.7c1.7-.376,2.425-1.288,2.425-2.387Z" transform="translate(-7446.093 -3780.754)" fill="#344154"/>
        </g>
        <path id="Trazado_144607" data-name="Trazado 144607" d="M7476.973,3794.566v-.367c0-.244-.057-.611-.1-1.062l-.075-.78a5.745,5.745,0,0,0-.169-.94,16.036,16.036,0,0,0-.526-2.293,21.354,21.354,0,0,0-2.642-5.856,22.261,22.261,0,0,0-26.9-8.8,23.319,23.319,0,0,0-2.913,1.354,22.61,22.61,0,0,0-2.67,1.8,24.82,24.82,0,0,0-2.473,2.19,27.321,27.321,0,0,0-2.115,2.623,21.524,21.524,0,0,0-3.026,6.176,21.872,21.872,0,0,0,.339,13.978,21.6,21.6,0,0,0,3.317,6.026,25.783,25.783,0,0,0,2.237,2.51,26.513,26.513,0,0,0,2.566,2.077,20.737,20.737,0,0,0,5.688,2.876,22.449,22.449,0,0,0,11.675.7,22.072,22.072,0,0,0,9.249-4.353,22.37,22.37,0,0,0,5.527-6.42,21.358,21.358,0,0,0,2.359-5.932,15.851,15.851,0,0,0,.414-2.322c.047-.338.1-.648.131-.94a7.321,7.321,0,0,0,0-.79,5.631,5.631,0,0,1,.057-1.062q-.007-.178,0-.357a1.459,1.459,0,0,1,0,.357v1.861a9.1,9.1,0,0,1-.1.94,15.46,15.46,0,0,1-.272,2.313,21.28,21.28,0,0,1-2.3,6.072,22.56,22.56,0,0,1-26.837,10.34,24.55,24.55,0,0,1-2.989-1.213,22.274,22.274,0,0,1-2.82-1.71,25.259,25.259,0,0,1-2.632-2.105,25.89,25.89,0,0,1-2.284-2.566,21.7,21.7,0,0,1-3.4-6.157,22.314,22.314,0,0,1-.338-14.288,21.7,21.7,0,0,1,3.1-6.308,25.949,25.949,0,0,1,2.162-2.669,26.871,26.871,0,0,1,2.52-2.228,24.454,24.454,0,0,1,2.735-1.88,23.308,23.308,0,0,1,2.923-1.354,22.584,22.584,0,0,1,27.271,9.146,21.327,21.327,0,0,1,2.594,5.95,16.989,16.989,0,0,1,.489,2.322c.047.338.112.648.141.94a7.15,7.15,0,0,1,0,.78,7.882,7.882,0,0,0,.057,1.072A1.907,1.907,0,0,1,7476.973,3794.566Z" transform="translate(-7398.68 -3729.18)" fill="#344154"/>
        <circle id="Elipse_4305" data-name="Elipse 4305" cx="14.006" cy="14.006" r="14.006" transform="translate(89.31)" fill="#d9a171"/>
        <rect id="Rectángulo_32021" data-name="Rectángulo 32021" width="12.624" height="2.82" transform="translate(97.852 17.477) rotate(-45)" fill="#fff" stroke="#5e6178" stroke-miterlimit="10" stroke-width="0"/>
        <rect id="Rectángulo_32022" data-name="Rectángulo 32022" width="2.82" height="12.624" transform="translate(97.85 10.534) rotate(-45)" fill="#fff" stroke="#5e6178" stroke-miterlimit="10" stroke-width="0"/>
      </g>
      <g id="freepik--ad-1--inject-36" transform="translate(0 116.241)">
        <path id="Trazado_144608" data-name="Trazado 144608" d="M7359.9,3973.869h-.094V3860.514h-141.47v113.665h123.14l18.424,18.433Z" transform="translate(-7218.084 -3850.701)" fill="#fff" stroke="#5e6178" stroke-miterlimit="10" stroke-width="0"/>
        <path id="Trazado_144609" data-name="Trazado 144609" d="M7359.886,3973.857v18.913l-.122-.122-18.452-18.405h.075l-123.14.075h-.178v-114H7359.9v.15c0,34.272-.057,62.538-.066,82.278,0,9.87,0,17.606-.046,22.889v8.187h0a5.422,5.422,0,0,1,0-.563v-7.624c0-5.283,0-13.019-.047-22.889,0-19.74,0-48.006-.066-82.278l.16.16H7218.35l.2-.2v113.665l-.188-.179,123.14.075h0l18.405,18.452-.122.057C7359.867,3980.531,7359.886,3974.364,7359.886,3973.857Z" transform="translate(-7218.068 -3850.689)" fill="#344154"/>
        <path id="Trazado_144610" data-name="Trazado 144610" d="M7359.807,3873.952c0,.113-31.668.2-70.735.2s-70.744-.084-70.744-.2,31.668-.2,70.744-.2S7359.807,3873.829,7359.807,3873.952Z" transform="translate(-7218.083 -3851.495)" fill="#344154"/>
        <path id="Trazado_144611" data-name="Trazado 144611" d="M7226.84,3867.321a1.786,1.786,0,1,1-1.795-1.777h.019A1.787,1.787,0,0,1,7226.84,3867.321Z" transform="translate(-7218.38 -3851.002)" fill="#e0e0e0"/>
        <path id="Trazado_144612" data-name="Trazado 144612" d="M7232.451,3867.321a1.786,1.786,0,1,1-1.8-1.777h.009A1.788,1.788,0,0,1,7232.451,3867.321Z" transform="translate(-7218.717 -3851.002)" fill="#e0e0e0"/>
        <circle id="Elipse_4306" data-name="Elipse 4306" cx="1.786" cy="1.786" r="1.786" transform="translate(15.435 14.533)" fill="#e0e0e0"/>
        <circle id="Elipse_4307" data-name="Elipse 4307" cx="13.386" cy="13.386" r="13.386" transform="translate(128.432)" fill="#d9a171"/>
        <rect id="Rectángulo_32023" data-name="Rectángulo 32023" width="12.07" height="2.688" transform="translate(136.607 16.699) rotate(-45)" fill="#fff" stroke="#5e6178" stroke-miterlimit="10" stroke-width="0"/>
        <rect id="Rectángulo_32024" data-name="Rectángulo 32024" width="2.688" height="12.07" transform="translate(136.597 10.071) rotate(-45)" fill="#fff" stroke="#5e6178" stroke-miterlimit="10" stroke-width="0"/>
        <path id="Trazado_144613" data-name="Trazado 144613" d="M7285.065,3876.795l10.462,10.791,14.636-3.422,2.971,14.73,14.156,5.039-5.461,14.006,9.184,11.891-12.164,8.817,1.3,14.974-15,.846-7,13.3-13.075-7.407-13.085,7.407-7-13.3-15-.846,1.3-14.974-12.164-8.817,9.194-11.891-5.471-14.006,14.156-5.039,2.971-14.73,14.636,3.422Z" transform="translate(-7219.33 -3851.678)" fill="#d9a171"/>
      </g>
      <g id="Grupo_90283" data-name="Grupo 90283" transform="translate(300.052 195.491)">
        <path id="Trazado_144614" data-name="Trazado 144614" d="M7543.245,3952.138a3.3,3.3,0,0,0,2.144-.744,2.612,2.612,0,0,0,1.016-1.859h2.169a4.161,4.161,0,0,1-.792,2.194,5.238,5.238,0,0,1-1.953,1.661,5.638,5.638,0,0,1-2.584.619,5.522,5.522,0,0,1-4.356-1.828,7.278,7.278,0,0,1-1.617-5v-.384a8.07,8.07,0,0,1,.719-3.483,5.47,5.47,0,0,1,2.063-2.367,5.864,5.864,0,0,1,3.178-.842,5.378,5.378,0,0,1,3.749,1.351,4.824,4.824,0,0,1,1.592,3.507H7546.4a3.161,3.161,0,0,0-.985-2.138,3.068,3.068,0,0,0-2.187-.836,3.207,3.207,0,0,0-2.707,1.258,5.908,5.908,0,0,0-.96,3.637v.435a5.783,5.783,0,0,0,.954,3.568A3.223,3.223,0,0,0,7543.245,3952.138Z" transform="translate(-7537.272 -3934.726)" fill="#344154"/>
        <path id="Trazado_144615" data-name="Trazado 144615" d="M7560.292,3953.418a4.817,4.817,0,0,1-.323-1.413,5.111,5.111,0,0,1-3.816,1.661,4.733,4.733,0,0,1-3.253-1.122,3.627,3.627,0,0,1-1.27-2.844,3.792,3.792,0,0,1,1.593-3.253,7.509,7.509,0,0,1,4.479-1.158h2.231v-1.054a2.575,2.575,0,0,0-.719-1.915,2.89,2.89,0,0,0-2.119-.712,3.348,3.348,0,0,0-2.058.619,1.828,1.828,0,0,0-.83,1.5h-2.3a3.165,3.165,0,0,1,.712-1.939,4.871,4.871,0,0,1,1.934-1.48,6.5,6.5,0,0,1,2.683-.545,5.307,5.307,0,0,1,3.631,1.158,4.182,4.182,0,0,1,1.363,3.191v6.172a7.543,7.543,0,0,0,.471,2.937v.2Zm-3.8-1.748a4.032,4.032,0,0,0,2.045-.557,3.375,3.375,0,0,0,1.4-1.45v-2.75h-1.8q-4.213,0-4.213,2.466a2.088,2.088,0,0,0,.719,1.686A2.758,2.758,0,0,0,7556.487,3951.671Zm2.119-17.287h2.776l-3.321,3.643-1.846-.007Z" transform="translate(-7538.133 -3934.383)" fill="#344154"/>
        <path id="Trazado_144616" data-name="Trazado 144616" d="M7569.228,3953.418h-2.293v-19.035h2.293Z" transform="translate(-7539.052 -3934.383)" fill="#344154"/>
        <path id="Trazado_144617" data-name="Trazado 144617" d="M7578.617,3952.138a3.306,3.306,0,0,0,2.144-.744,2.618,2.618,0,0,0,1.016-1.859h2.168a4.154,4.154,0,0,1-.793,2.194,5.239,5.239,0,0,1-1.952,1.661,5.639,5.639,0,0,1-2.584.619,5.522,5.522,0,0,1-4.356-1.828,7.275,7.275,0,0,1-1.617-5v-.384a8.069,8.069,0,0,1,.718-3.483,5.475,5.475,0,0,1,2.063-2.367,5.871,5.871,0,0,1,3.179-.842,5.38,5.38,0,0,1,3.749,1.351,4.829,4.829,0,0,1,1.592,3.507h-2.168a3.165,3.165,0,0,0-.985-2.138,3.071,3.071,0,0,0-2.187-.836,3.209,3.209,0,0,0-2.708,1.258,5.9,5.9,0,0,0-.96,3.637v.435a5.786,5.786,0,0,0,.954,3.568A3.223,3.223,0,0,0,7578.617,3952.138Z" transform="translate(-7539.394 -3934.726)" fill="#344154"/>
        <path id="Trazado_144618" data-name="Trazado 144618" d="M7595.684,3952.451a4.865,4.865,0,0,1-3.928,1.574,4.168,4.168,0,0,1-3.266-1.245,5.392,5.392,0,0,1-1.135-3.687v-8.725h2.292v8.663q0,3.049,2.479,3.048a3.431,3.431,0,0,0,3.495-1.958v-9.753h2.293v13.409h-2.181Z" transform="translate(-7540.277 -3934.742)" fill="#344154"/>
        <path id="Trazado_144619" data-name="Trazado 144619" d="M7604.8,3953.418H7602.5v-19.035h2.292Z" transform="translate(-7541.187 -3934.383)" fill="#344154"/>
        <path id="Trazado_144620" data-name="Trazado 144620" d="M7608.2,3946.933a7.92,7.92,0,0,1,.774-3.545,5.78,5.78,0,0,1,2.156-2.429,5.873,5.873,0,0,1,3.153-.854,5.654,5.654,0,0,1,4.431,1.9,7.294,7.294,0,0,1,1.692,5.044v.161a7.987,7.987,0,0,1-.75,3.514,5.694,5.694,0,0,1-2.145,2.423,5.939,5.939,0,0,1-3.2.867,5.642,5.642,0,0,1-4.418-1.9,7.259,7.259,0,0,1-1.691-5.02Zm2.3.273a5.733,5.733,0,0,0,1.035,3.582,3.506,3.506,0,0,0,5.545-.019,6.267,6.267,0,0,0,1.029-3.835,5.729,5.729,0,0,0-1.047-3.575,3.33,3.33,0,0,0-2.783-1.37,3.293,3.293,0,0,0-2.739,1.351A6.229,6.229,0,0,0,7610.5,3947.206Z" transform="translate(-7541.528 -3934.726)" fill="#344154"/>
        <path id="Trazado_144621" data-name="Trazado 144621" d="M7630.335,3946.6a7.855,7.855,0,0,1,1.463-4.963,4.975,4.975,0,0,1,7.559-.266v-6.99h2.293v19.035h-2.108l-.11-1.437a4.671,4.671,0,0,1-3.83,1.685,4.579,4.579,0,0,1-3.8-1.909,7.945,7.945,0,0,1-1.468-4.981Zm2.292.26a5.949,5.949,0,0,0,.942,3.569,3.044,3.044,0,0,0,2.6,1.289,3.345,3.345,0,0,0,3.186-1.958V3943.6a3.371,3.371,0,0,0-3.16-1.9,3.058,3.058,0,0,0-2.627,1.3A6.546,6.546,0,0,0,7632.627,3946.863Z" transform="translate(-7542.855 -3934.383)" fill="#344154"/>
        <path id="Trazado_144622" data-name="Trazado 144622" d="M7651.683,3954.01a5.857,5.857,0,0,1-4.437-1.792,6.644,6.644,0,0,1-1.709-4.789v-.421a8.063,8.063,0,0,1,.761-3.563,5.959,5.959,0,0,1,2.132-2.453,5.36,5.36,0,0,1,2.968-.886,5.025,5.025,0,0,1,4.065,1.722,7.461,7.461,0,0,1,1.45,4.932v.954h-9.083a4.767,4.767,0,0,0,1.158,3.2,3.646,3.646,0,0,0,2.82,1.22,4,4,0,0,0,2.057-.5,5.159,5.159,0,0,0,1.475-1.314l1.4,1.09A5.633,5.633,0,0,1,7651.683,3954.01Zm-.286-12.021a3.059,3.059,0,0,0-2.33,1.01,4.906,4.906,0,0,0-1.164,2.832h6.716v-.174a4.372,4.372,0,0,0-.942-2.708A2.879,2.879,0,0,0,7651.4,3941.989Z" transform="translate(-7543.768 -3934.726)" fill="#344154"/>
        <path id="Trazado_144623" data-name="Trazado 144623" d="M7563.858,3984.538a3.3,3.3,0,0,0,2.144-.744,2.621,2.621,0,0,0,1.017-1.859h2.168a4.161,4.161,0,0,1-.793,2.194,5.226,5.226,0,0,1-1.952,1.66,5.627,5.627,0,0,1-2.584.621,5.521,5.521,0,0,1-4.356-1.828,7.282,7.282,0,0,1-1.617-5v-.384a8.069,8.069,0,0,1,.719-3.483,5.476,5.476,0,0,1,2.063-2.367,5.859,5.859,0,0,1,3.179-.842,5.377,5.377,0,0,1,3.749,1.351,4.83,4.83,0,0,1,1.593,3.507h-2.168a3.17,3.17,0,0,0-.985-2.139,3.067,3.067,0,0,0-2.187-.836,3.212,3.212,0,0,0-2.708,1.257,5.913,5.913,0,0,0-.96,3.638v.433a5.788,5.788,0,0,0,.955,3.569A3.222,3.222,0,0,0,7563.858,3984.538Z" transform="translate(-7538.509 -3936.67)" fill="#344154"/>
        <path id="Trazado_144624" data-name="Trazado 144624" d="M7572,3979.333a7.924,7.924,0,0,1,.774-3.545,5.784,5.784,0,0,1,2.156-2.429,5.874,5.874,0,0,1,3.154-.854,5.652,5.652,0,0,1,4.43,1.9,7.29,7.29,0,0,1,1.692,5.043v.162a7.992,7.992,0,0,1-.75,3.514,5.694,5.694,0,0,1-2.143,2.422,5.941,5.941,0,0,1-3.2.868,5.641,5.641,0,0,1-4.418-1.9,7.259,7.259,0,0,1-1.692-5.02Zm2.3.272a5.735,5.735,0,0,0,1.035,3.581,3.507,3.507,0,0,0,5.546-.019,6.276,6.276,0,0,0,1.028-3.835,5.72,5.72,0,0,0-1.047-3.575,3.327,3.327,0,0,0-2.782-1.37,3.291,3.291,0,0,0-2.738,1.351A6.224,6.224,0,0,0,7574.309,3979.606Z" transform="translate(-7539.356 -3936.67)" fill="#344154"/>
        <path id="Trazado_144625" data-name="Trazado 144625" d="M7595.82,3982.6a1.684,1.684,0,0,0-.7-1.443,6.715,6.715,0,0,0-2.441-.887,11.568,11.568,0,0,1-2.764-.892,3.938,3.938,0,0,1-1.511-1.24,2.962,2.962,0,0,1-.49-1.71,3.475,3.475,0,0,1,1.394-2.788,5.444,5.444,0,0,1,3.563-1.14,5.6,5.6,0,0,1,3.7,1.177,3.739,3.739,0,0,1,1.419,3.012h-2.305a2.07,2.07,0,0,0-.8-1.624,2.993,2.993,0,0,0-2.014-.681,3.131,3.131,0,0,0-1.958.545,1.715,1.715,0,0,0-.707,1.425,1.391,1.391,0,0,0,.657,1.251,8.066,8.066,0,0,0,2.373.806,12.364,12.364,0,0,1,2.782.917,4.059,4.059,0,0,1,1.581,1.283,3.15,3.15,0,0,1,.514,1.827,3.434,3.434,0,0,1-1.437,2.881,6.033,6.033,0,0,1-3.73,1.085,6.755,6.755,0,0,1-2.851-.571,4.639,4.639,0,0,1-1.939-1.592,3.841,3.841,0,0,1-.7-2.212h2.292a2.375,2.375,0,0,0,.923,1.828,3.581,3.581,0,0,0,2.274.675,3.7,3.7,0,0,0,2.088-.526A1.62,1.62,0,0,0,7595.82,3982.6Z" transform="translate(-7540.283 -3936.67)" fill="#344154"/>
        <path id="Trazado_144626" data-name="Trazado 144626" d="M7604.978,3969.314v3.247h2.5v1.773h-2.5v8.325a1.864,1.864,0,0,0,.333,1.21,1.411,1.411,0,0,0,1.141.4,5.587,5.587,0,0,0,1.091-.148v1.847a6.673,6.673,0,0,1-1.76.248,2.857,2.857,0,0,1-2.317-.93,3.993,3.993,0,0,1-.78-2.64v-8.315h-2.441v-1.773h2.441v-3.247Z" transform="translate(-7541.051 -3936.479)" fill="#344154"/>
        <path id="Trazado_144627" data-name="Trazado 144627" d="M7609.881,3979.333a7.911,7.911,0,0,1,.775-3.545,5.777,5.777,0,0,1,2.156-2.429,5.873,5.873,0,0,1,3.154-.854,5.655,5.655,0,0,1,4.43,1.9,7.292,7.292,0,0,1,1.691,5.043v.162a7.991,7.991,0,0,1-.75,3.514,5.693,5.693,0,0,1-2.144,2.422,5.942,5.942,0,0,1-3.2.868,5.643,5.643,0,0,1-4.418-1.9,7.258,7.258,0,0,1-1.691-5.02Zm2.305.272a5.735,5.735,0,0,0,1.035,3.581,3.506,3.506,0,0,0,5.545-.019,6.27,6.27,0,0,0,1.028-3.835,5.72,5.72,0,0,0-1.047-3.575,3.325,3.325,0,0,0-2.781-1.37,3.292,3.292,0,0,0-2.739,1.351A6.23,6.23,0,0,0,7612.186,3979.606Z" transform="translate(-7541.628 -3936.67)" fill="#344154"/>
        <path id="Trazado_144628" data-name="Trazado 144628" d="M7633.7,3982.6a1.686,1.686,0,0,0-.7-1.443,6.73,6.73,0,0,0-2.441-.887,11.556,11.556,0,0,1-2.764-.892,3.939,3.939,0,0,1-1.513-1.24,2.965,2.965,0,0,1-.489-1.71,3.475,3.475,0,0,1,1.394-2.788,5.441,5.441,0,0,1,3.563-1.14,5.6,5.6,0,0,1,3.7,1.177,3.738,3.738,0,0,1,1.42,3.012h-2.305a2.071,2.071,0,0,0-.8-1.624,2.993,2.993,0,0,0-2.014-.681,3.132,3.132,0,0,0-1.958.545,1.714,1.714,0,0,0-.706,1.425,1.389,1.389,0,0,0,.656,1.251,8.064,8.064,0,0,0,2.374.806,12.381,12.381,0,0,1,2.782.917,4.062,4.062,0,0,1,1.581,1.283,3.157,3.157,0,0,1,.514,1.827,3.431,3.431,0,0,1-1.438,2.881,6.028,6.028,0,0,1-3.73,1.085,6.752,6.752,0,0,1-2.85-.571,4.633,4.633,0,0,1-1.939-1.592,3.833,3.833,0,0,1-.7-2.212h2.292a2.375,2.375,0,0,0,.923,1.828,3.58,3.58,0,0,0,2.274.675,3.706,3.706,0,0,0,2.089-.526A1.621,1.621,0,0,0,7633.7,3982.6Z" transform="translate(-7542.556 -3936.67)" fill="#344154"/>
      </g>
      <g id="Grupo_90284" data-name="Grupo 90284" transform="translate(40.602 52.717)">
        <path id="Trazado_144629" data-name="Trazado 144629" d="M7267.234,3797.72a3.3,3.3,0,0,0,2.144-.744,2.614,2.614,0,0,0,1.016-1.859h2.169a4.163,4.163,0,0,1-.792,2.193,5.223,5.223,0,0,1-1.953,1.661,5.622,5.622,0,0,1-2.583.619,5.525,5.525,0,0,1-4.356-1.827,7.281,7.281,0,0,1-1.617-5v-.385a8.073,8.073,0,0,1,.719-3.482,5.467,5.467,0,0,1,2.064-2.367,5.854,5.854,0,0,1,3.178-.843,5.375,5.375,0,0,1,3.749,1.351,4.828,4.828,0,0,1,1.593,3.507h-2.169a3.158,3.158,0,0,0-.985-2.137,3.067,3.067,0,0,0-2.187-.837,3.206,3.206,0,0,0-2.707,1.258,5.91,5.91,0,0,0-.96,3.638v.433a5.789,5.789,0,0,0,.954,3.569A3.224,3.224,0,0,0,7267.234,3797.72Z" transform="translate(-7261.261 -3782.688)" fill="#344154"/>
        <path id="Trazado_144630" data-name="Trazado 144630" d="M7275.381,3792.514a7.908,7.908,0,0,1,.775-3.544,5.77,5.77,0,0,1,2.156-2.429,5.865,5.865,0,0,1,3.154-.855,5.658,5.658,0,0,1,4.43,1.9,7.3,7.3,0,0,1,1.691,5.044v.161a7.988,7.988,0,0,1-.75,3.514,5.694,5.694,0,0,1-2.144,2.422,5.935,5.935,0,0,1-3.2.868,5.641,5.641,0,0,1-4.418-1.9,7.257,7.257,0,0,1-1.691-5.019Zm2.305.273a5.738,5.738,0,0,0,1.035,3.582,3.506,3.506,0,0,0,5.545-.019,6.272,6.272,0,0,0,1.028-3.836,5.721,5.721,0,0,0-1.047-3.575,3.328,3.328,0,0,0-2.781-1.37,3.291,3.291,0,0,0-2.739,1.351A6.229,6.229,0,0,0,7277.686,3792.787Z" transform="translate(-7262.108 -3782.688)" fill="#344154"/>
        <path id="Trazado_144631" data-name="Trazado 144631" d="M7299.2,3795.786a1.689,1.689,0,0,0-.7-1.444,6.767,6.767,0,0,0-2.441-.886,11.511,11.511,0,0,1-2.764-.892,3.927,3.927,0,0,1-1.513-1.239,2.966,2.966,0,0,1-.489-1.711,3.479,3.479,0,0,1,1.394-2.788,5.448,5.448,0,0,1,3.563-1.14,5.6,5.6,0,0,1,3.7,1.178,3.738,3.738,0,0,1,1.42,3.011h-2.305a2.072,2.072,0,0,0-.8-1.624,3,3,0,0,0-2.014-.681,3.139,3.139,0,0,0-1.958.545,1.716,1.716,0,0,0-.706,1.425,1.39,1.39,0,0,0,.656,1.252,8.091,8.091,0,0,0,2.374.806,12.348,12.348,0,0,1,2.782.916,4.057,4.057,0,0,1,1.581,1.283,3.162,3.162,0,0,1,.514,1.828,3.431,3.431,0,0,1-1.438,2.881,6.028,6.028,0,0,1-3.73,1.084,6.756,6.756,0,0,1-2.85-.57,4.626,4.626,0,0,1-1.939-1.594,3.831,3.831,0,0,1-.7-2.212h2.292a2.374,2.374,0,0,0,.923,1.828,3.582,3.582,0,0,0,2.274.676,3.7,3.7,0,0,0,2.089-.527A1.618,1.618,0,0,0,7299.2,3795.786Z" transform="translate(-7263.036 -3782.688)" fill="#344154"/>
        <path id="Trazado_144632" data-name="Trazado 144632" d="M7308.354,3782.5v3.247h2.5v1.772h-2.5v8.327a1.862,1.862,0,0,0,.335,1.21,1.409,1.409,0,0,0,1.14.4,5.508,5.508,0,0,0,1.09-.149v1.848a6.669,6.669,0,0,1-1.759.246,2.852,2.852,0,0,1-2.317-.93,3.992,3.992,0,0,1-.781-2.64v-8.315h-2.441v-1.772h2.441V3782.5Z" transform="translate(-7263.803 -3782.496)" fill="#344154"/>
        <path id="Trazado_144633" data-name="Trazado 144633" d="M7313.257,3792.514a7.921,7.921,0,0,1,.775-3.544,5.77,5.77,0,0,1,2.156-2.429,5.865,5.865,0,0,1,3.154-.855,5.655,5.655,0,0,1,4.43,1.9,7.3,7.3,0,0,1,1.692,5.044v.161a7.982,7.982,0,0,1-.75,3.514,5.694,5.694,0,0,1-2.143,2.422,5.936,5.936,0,0,1-3.2.868,5.638,5.638,0,0,1-4.417-1.9,7.255,7.255,0,0,1-1.692-5.019Zm2.305.273a5.741,5.741,0,0,0,1.035,3.582,3.507,3.507,0,0,0,5.546-.019,6.279,6.279,0,0,0,1.028-3.836,5.721,5.721,0,0,0-1.047-3.575,3.33,3.33,0,0,0-2.782-1.37,3.291,3.291,0,0,0-2.738,1.351A6.22,6.22,0,0,0,7315.562,3792.787Z" transform="translate(-7264.381 -3782.688)" fill="#344154"/>
        <path id="Trazado_144634" data-name="Trazado 144634" d="M7337.073,3795.786a1.688,1.688,0,0,0-.7-1.444,6.752,6.752,0,0,0-2.441-.886,11.5,11.5,0,0,1-2.764-.892,3.923,3.923,0,0,1-1.512-1.239,2.96,2.96,0,0,1-.49-1.711,3.479,3.479,0,0,1,1.394-2.788,5.45,5.45,0,0,1,3.563-1.14,5.6,5.6,0,0,1,3.7,1.178,3.74,3.74,0,0,1,1.418,3.011h-2.3a2.068,2.068,0,0,0-.8-1.624,3,3,0,0,0-2.014-.681,3.139,3.139,0,0,0-1.958.545,1.715,1.715,0,0,0-.707,1.425,1.391,1.391,0,0,0,.657,1.252,8.088,8.088,0,0,0,2.373.806,12.331,12.331,0,0,1,2.782.916,4.055,4.055,0,0,1,1.58,1.283,3.151,3.151,0,0,1,.514,1.828,3.432,3.432,0,0,1-1.437,2.881,6.031,6.031,0,0,1-3.73,1.084,6.76,6.76,0,0,1-2.851-.57,4.625,4.625,0,0,1-1.939-1.594,3.839,3.839,0,0,1-.7-2.212H7331a2.372,2.372,0,0,0,.923,1.828,3.586,3.586,0,0,0,2.275.676,3.7,3.7,0,0,0,2.088-.527A1.618,1.618,0,0,0,7337.073,3795.786Z" transform="translate(-7265.308 -3782.688)" fill="#344154"/>
      </g>
      <g id="Grupo_90285" data-name="Grupo 90285" transform="translate(336.397 82.802)">
        <path id="Trazado_144635" data-name="Trazado 144635" d="M7589.8,3832.545h-2.392l-9.084-13.9v13.9h-2.392V3814.5h2.392l9.108,13.966V3814.5h2.367Z" transform="translate(-7575.937 -3814.501)" fill="#344154"/>
        <path id="Trazado_144636" data-name="Trazado 144636" d="M7597.749,3832.545h-2.38V3814.5h2.38Z" transform="translate(-7577.103 -3814.501)" fill="#344154"/>
        <path id="Trazado_144637" data-name="Trazado 144637" d="M7605.092,3832.545h-2.379V3814.5h2.379Z" transform="translate(-7577.543 -3814.501)" fill="#344154"/>
        <path id="Trazado_144638" data-name="Trazado 144638" d="M7619.823,3824.576h-7.572v7.969h-2.38V3814.5h11.179v1.946h-8.8v6.184h7.572Z" transform="translate(-7577.973 -3814.501)" fill="#344154"/>
      </g>
      <g id="Grupo_90286" data-name="Grupo 90286" transform="translate(23.545 313.636)">
        <path id="Trazado_144639" data-name="Trazado 144639" d="M7247.541,4068.982a2.443,2.443,0,0,0,1.587-.551,1.938,1.938,0,0,0,.753-1.377h1.606a3.088,3.088,0,0,1-.588,1.625,3.857,3.857,0,0,1-1.446,1.23,4.164,4.164,0,0,1-1.913.459,4.091,4.091,0,0,1-3.228-1.354,5.4,5.4,0,0,1-1.2-3.7v-.285a5.992,5.992,0,0,1,.532-2.579,4.061,4.061,0,0,1,1.529-1.753,4.343,4.343,0,0,1,2.354-.624,3.986,3.986,0,0,1,2.777,1,3.576,3.576,0,0,1,1.18,2.6h-1.606a2.344,2.344,0,0,0-.729-1.584,2.274,2.274,0,0,0-1.621-.619,2.379,2.379,0,0,0-2.006.931,4.377,4.377,0,0,0-.711,2.694v.322a4.285,4.285,0,0,0,.707,2.644A2.388,2.388,0,0,0,7247.541,4068.982Z" transform="translate(-7243.116 -4060.069)" fill="#344154"/>
        <path id="Trazado_144640" data-name="Trazado 144640" d="M7253.575,4065.126a5.862,5.862,0,0,1,.573-2.625,4.29,4.29,0,0,1,1.6-1.8,4.347,4.347,0,0,1,2.337-.633,4.188,4.188,0,0,1,3.281,1.4,5.405,5.405,0,0,1,1.253,3.736v.119a5.921,5.921,0,0,1-.556,2.6,4.218,4.218,0,0,1-1.588,1.794,4.4,4.4,0,0,1-2.373.643,4.176,4.176,0,0,1-3.272-1.405,5.372,5.372,0,0,1-1.253-3.718Zm1.707.2a4.254,4.254,0,0,0,.767,2.654,2.6,2.6,0,0,0,4.108-.014,4.647,4.647,0,0,0,.762-2.842,4.239,4.239,0,0,0-.776-2.648,2.466,2.466,0,0,0-2.06-1.014,2.441,2.441,0,0,0-2.029,1A4.617,4.617,0,0,0,7255.282,4065.328Z" transform="translate(-7243.744 -4060.069)" fill="#344154"/>
        <path id="Trazado_144641" data-name="Trazado 144641" d="M7267.057,4060.252l.046,1.1a3.663,3.663,0,0,1,2.946-1.285,2.84,2.84,0,0,1,2.836,1.6,3.768,3.768,0,0,1,1.29-1.157,3.816,3.816,0,0,1,1.877-.44q3.268,0,3.323,3.46v6.655h-1.7v-6.554a2.282,2.282,0,0,0-.487-1.593,2.143,2.143,0,0,0-1.634-.527,2.251,2.251,0,0,0-1.569.564,2.3,2.3,0,0,0-.727,1.52v6.59h-1.707v-6.509a1.9,1.9,0,0,0-2.121-2.166,2.27,2.27,0,0,0-2.285,1.422v7.252h-1.7v-9.932Z" transform="translate(-7244.457 -4060.069)" fill="#344154"/>
        <path id="Trazado_144642" data-name="Trazado 144642" d="M7291.38,4065.328a5.946,5.946,0,0,1-1.038,3.654,3.325,3.325,0,0,1-2.809,1.386,3.641,3.641,0,0,1-2.846-1.148V4074h-1.7v-13.751h1.552l.083,1.1a3.5,3.5,0,0,1,2.883-1.285,3.387,3.387,0,0,1,2.832,1.349,6.014,6.014,0,0,1,1.042,3.754Zm-1.7-.193a4.387,4.387,0,0,0-.716-2.653,2.305,2.305,0,0,0-1.964-.973,2.5,2.5,0,0,0-2.313,1.367v4.746a2.5,2.5,0,0,0,2.332,1.358,2.3,2.3,0,0,0,1.942-.968A4.792,4.792,0,0,0,7289.681,4065.136Z" transform="translate(-7245.509 -4060.069)" fill="#344154"/>
        <path id="Trazado_144643" data-name="Trazado 144643" d="M7299.011,4061.776a5.153,5.153,0,0,0-.835-.064,2.237,2.237,0,0,0-2.267,1.422v7.05h-1.7v-9.932h1.652l.027,1.148a2.643,2.643,0,0,1,2.368-1.331,1.735,1.735,0,0,1,.753.128Z" transform="translate(-7246.182 -4060.069)" fill="#344154"/>
        <path id="Trazado_144644" data-name="Trazado 144644" d="M7306.7,4070.185a3.569,3.569,0,0,1-.238-1.046,3.786,3.786,0,0,1-2.828,1.23,3.507,3.507,0,0,1-2.409-.831,2.688,2.688,0,0,1-.941-2.107,2.809,2.809,0,0,1,1.18-2.41,5.556,5.556,0,0,1,3.318-.858h1.653v-.78a1.908,1.908,0,0,0-.533-1.418,2.138,2.138,0,0,0-1.569-.527,2.475,2.475,0,0,0-1.524.459,1.353,1.353,0,0,0-.615,1.111h-1.707a2.346,2.346,0,0,1,.527-1.437,3.608,3.608,0,0,1,1.433-1.1,4.82,4.82,0,0,1,1.987-.4,3.925,3.925,0,0,1,2.689.858,3.1,3.1,0,0,1,1.01,2.363v4.572a5.571,5.571,0,0,0,.349,2.175v.147Zm-2.818-1.295a2.984,2.984,0,0,0,1.515-.413,2.5,2.5,0,0,0,1.038-1.074v-2.038H7305.1q-3.122,0-3.121,1.827a1.544,1.544,0,0,0,.533,1.249A2.046,2.046,0,0,0,7303.882,4068.89Z" transform="translate(-7246.546 -4060.069)" fill="#344154"/>
      </g>
      <g id="Grupo_90287" data-name="Grupo 90287" transform="translate(49.232 169.285)">
        <path id="Trazado_144645" data-name="Trazado 144645" d="M7270.442,3913.827a7.187,7.187,0,0,1,2.032-5.255,7.631,7.631,0,0,1,10.46.012,7.439,7.439,0,0,1,2.007,5.388v1.727a7.1,7.1,0,0,1-2.032,5.243,7,7,0,0,1-5.169,2.031,7.154,7.154,0,0,1-5.23-2.031,7.239,7.239,0,0,1-2.068-5.413Zm3.357,1.863a4.606,4.606,0,0,0,1.07,3.133,3.614,3.614,0,0,0,2.871,1.231,3.542,3.542,0,0,0,2.785-1.195,4.755,4.755,0,0,0,1.059-3.267v-1.78a4.718,4.718,0,0,0-1.046-3.145,3.879,3.879,0,0,0-5.692,0,4.864,4.864,0,0,0-1.046,3.242Zm4.963,24.069-2.555-1.605,17.3-27.684,2.555,1.605Zm8.927-6.009a7.143,7.143,0,0,1,2.031-5.242,7.682,7.682,0,0,1,10.448-.012,7.332,7.332,0,0,1,2.044,5.425v1.727a7.145,7.145,0,0,1-2.031,5.242,6.989,6.989,0,0,1-5.193,2.056,7.154,7.154,0,0,1-5.23-2.031,7.242,7.242,0,0,1-2.068-5.413Zm3.357,1.887a4.641,4.641,0,0,0,1.07,3.158,3.611,3.611,0,0,0,2.871,1.23,3.515,3.515,0,0,0,2.8-1.206,4.835,4.835,0,0,0,1.046-3.28v-1.8a4.62,4.62,0,0,0-1.059-3.144,3.562,3.562,0,0,0-2.834-1.22,3.6,3.6,0,0,0-2.81,1.207,4.7,4.7,0,0,0-1.082,3.255Z" transform="translate(-7270.442 -3906.504)" fill="#fff" stroke="#5e6178" stroke-miterlimit="10" stroke-width="0"/>
      </g>
    </g>
    <rect id="Rectángulo_32025" data-name="Rectángulo 32025" width="470" height="470" transform="translate(7191.527 3701.629)" fill="#d9a171" opacity="0"/>
  </g>
</svg>
