<svg xmlns="http://www.w3.org/2000/svg" width="518.62" height="547.537" viewBox="0 0 518.62 547.537">
  <g id="Grupo_89260" data-name="Grupo 89260" transform="translate(-1111.321 -6044.302)">
    <g id="Grupo_87686" data-name="Grupo 87686" transform="translate(1506.486 6244.396)">
      <g id="Grupo_77157" data-name="Grupo 77157" transform="translate(10.875)">
        <g id="Grupo_77156" data-name="Grupo 77156">
          <g id="Grupo_77155" data-name="Grupo 77155">
            <g id="Grupo_77154" data-name="Grupo 77154">
              <g id="Grupo_77153" data-name="Grupo 77153">
                <g id="Grupo_77152" data-name="Grupo 77152">
                  <g id="Grupo_77151" data-name="Grupo 77151">
                    <g id="Grupo_77146" data-name="Grupo 77146" transform="translate(0.779 0.279)">
                      <path id="Trazado_124127" data-name="Trazado 124127" d="M160.726,201.619a45.288,45.288,0,0,1,11.625,3.069l8.545-7.159L195.573,208.7l-4.625,10.144a45.1,45.1,0,0,1,6.057,10.386l11.1.981,2.479,18.275-10.437,3.9a45.159,45.159,0,0,1-3.072,11.625l7.159,8.548-11.168,14.674-10.144-4.622a45.2,45.2,0,0,1-10.389,6.054l-.978,11.1-18.278,2.482-3.9-10.44a45.211,45.211,0,0,1-11.625-3.072l-8.545,7.162L114.529,284.73l4.625-10.144A45.323,45.323,0,0,1,113.1,264.2l-11.1-.978-2.482-18.278,10.44-3.9a44.942,44.942,0,0,1,3.072-11.628l-7.162-8.545,11.168-14.677,10.147,4.625a45.256,45.256,0,0,1,10.389-6.057l.975-11.1,18.278-2.479,3.9,10.438Zm-7.5,25.376a19.786,19.786,0,1,0,22.267,16.946A19.786,19.786,0,0,0,153.222,226.995Z" transform="translate(-99.516 -191.181)" fill="#d9a171"/>
                    </g>
                    <g id="Grupo_77148" data-name="Grupo 77148" transform="translate(36.709 35.679)">
                      <g id="Grupo_77147" data-name="Grupo 77147">
                        <path id="Trazado_124128" data-name="Trazado 124128" d="M129.785,203.9a3.834,3.834,0,0,1,1.245-.268,15.409,15.409,0,0,1,3.658-.077,19.691,19.691,0,0,1,12.131,5.577,20.35,20.35,0,0,1-.1,29.155,20.4,20.4,0,0,1-24.093,3.27,20.356,20.356,0,0,1-7.866-28.08,19.682,19.682,0,0,1,10.2-8.6,15.383,15.383,0,0,1,3.546-.9,3.909,3.909,0,0,1,1.274-.075c.032.17-1.731.342-4.587,1.553a19.73,19.73,0,0,0-9.457,8.582,19.255,19.255,0,0,0-.152,18.307,18.873,18.873,0,0,0,7.786,7.84,18.964,18.964,0,0,0,22.258-3.02,18.849,18.849,0,0,0,5.413-9.629,19.252,19.252,0,0,0-5.025-17.6,19.736,19.736,0,0,0-11.4-5.755C131.545,203.771,129.8,204.075,129.785,203.9Z" transform="translate(-112.008 -203.489)" fill="#344154"/>
                      </g>
                    </g>
                    <g id="Grupo_77150" data-name="Grupo 77150">
                      <g id="Grupo_77149" data-name="Grupo 77149">
                        <path id="Trazado_124129" data-name="Trazado 124129" d="M161.234,201.8a2.94,2.94,0,0,1-.293-.621l-.8-1.95-3.051-7.777.273.164-18.258,2.626.351-.365c-.279,3.371-.587,7.107-.915,11.108l-.023.279-.265.112a44.949,44.949,0,0,0-10.245,6.037l-.25.2-.29-.133-10.164-4.582.687-.175q-5.255,6.955-11.119,14.711l-.02-.782c2.226,2.64,4.674,5.545,7.185,8.525l.259.305-.152.371a44.607,44.607,0,0,0-3,11.458l-.049.414-.394.146-10.429,3.923.457-.762c.788,5.741,1.639,11.93,2.511,18.272l-.67-.641c3.457.3,7.254.63,11.1.964l.457.04.178.426a44.833,44.833,0,0,0,5.965,10.2l.288.368-.193.426c-1.447,3.181-3.026,6.647-4.619,10.15l-.236-.946c4.648,3.532,9.632,7.32,14.683,11.159l-.989.026c2.7-2.263,5.608-4.705,8.542-7.164l.371-.311.446.184a44.578,44.578,0,0,0,11.41,3.014h.009c.29.23-.647-.512.653.515l0,.009.009.023.014.04.032.081.06.164.124.331.244.656.489,1.315.981,2.617,1.941,5.2-.854-.509q9.267-1.255,18.281-2.473l-.682.713q.5-5.6.984-11.1l.043-.472.437-.181a44.55,44.55,0,0,0,10.216-5.945l.371-.288.423.2q5.147,2.351,10.141,4.634l-.923.233q5.734-7.507,11.191-14.66l.02.918q-3.637-4.357-7.144-8.559l-.279-.334.167-.4a44.552,44.552,0,0,0,3.046-11.438l.055-.417.391-.144,10.446-3.877-.426.711c-.854-6.431-1.659-12.5-2.425-18.284l.549.526c-3.9-.357-7.564-.69-11.1-1.015l-.348-.032-.132-.319a44.71,44.71,0,0,0-5.942-10.285l-.2-.256.132-.285c1.7-3.676,3.227-6.989,4.671-10.121l.144.569c-5.652-4.354-10.472-8.07-14.608-11.26l.449-.011c-3.431,2.822-6.25,5.143-8.611,7.084l-.121.1-.141-.06a47.788,47.788,0,0,0-8.608-2.709c-.917-.181-1.636-.322-2.194-.434a3.122,3.122,0,0,1-.725-.164,4.143,4.143,0,0,1,.745.031c.492.052,1.237.138,2.223.308a43.078,43.078,0,0,1,8.755,2.494l-.262.04,8.479-7.239.216-.184.23.175c4.176,3.135,9.042,6.793,14.746,11.079l.3.224-.155.348c-1.415,3.146-2.914,6.474-4.576,10.164l-.063-.538a45.678,45.678,0,0,1,6.172,10.489l-.477-.351,11.1.94.486.04.066.486c.8,5.778,1.639,11.844,2.531,18.269l.072.526-.5.187c-3.388,1.274-6.854,2.58-10.429,3.926l.443-.561a45.834,45.834,0,0,1-3.095,11.812l-.112-.73q3.52,4.189,7.173,8.53l.38.449-.357.469q-5.436,7.166-11.148,14.691l-.368.486-.555-.253L183.11,283.5l.8-.092a45.986,45.986,0,0,1-10.564,6.169l.48-.656q-.479,5.5-.969,11.1l-.055.63-.627.086-18.278,2.485-.63.086-.224-.6q-.971-2.592-1.944-5.206l-.981-2.617-.489-1.311-.247-.659-.121-.328-.063-.164-.029-.084-.017-.04-.006-.02-.006-.012c1.3,1.024.36.285.647.512h-.009a46.066,46.066,0,0,1-11.818-3.124l.814-.126c-2.934,2.456-5.847,4.9-8.548,7.158l-.486.406-.5-.383c-5.048-3.845-10.026-7.642-14.671-11.18l-.5-.38.259-.57c1.6-3.5,3.184-6.963,4.636-10.138l.092.794a46.214,46.214,0,0,1-6.146-10.57l.633.463c-3.845-.345-7.642-.685-11.1-.992l-.592-.055-.078-.587c-.851-6.348-1.68-12.54-2.45-18.284l-.075-.564.532-.2,10.446-3.877-.443.558a45.8,45.8,0,0,1,3.146-11.792l.1.676c-2.5-2.994-4.93-5.913-7.139-8.565l-.322-.388.3-.4q5.9-7.7,11.217-14.639l.276-.365.411.19c3.555,1.637,6.969,3.213,10.127,4.665l-.538.063A45.8,45.8,0,0,1,137.9,204.51l-.288.391c.377-3.995.725-7.731,1.041-11.093l.032-.325.319-.043c7.429-.946,13.584-1.728,18.3-2.33l.207-.026.066.19q1.782,5.009,2.764,7.774c.285.837.512,1.5.693,2.031A4.127,4.127,0,0,1,161.234,201.8Z" transform="translate(-99.245 -191.084)" fill="#344154"/>
                      </g>
                    </g>
                  </g>
                </g>
              </g>
            </g>
          </g>
        </g>
      </g>
      <g id="Grupo_77169" data-name="Grupo 77169" transform="translate(0 127.317)">
        <g id="Grupo_77168" data-name="Grupo 77168">
          <g id="Grupo_77167" data-name="Grupo 77167">
            <g id="Grupo_77166" data-name="Grupo 77166">
              <g id="Grupo_77165" data-name="Grupo 77165">
                <g id="Grupo_77164" data-name="Grupo 77164">
                  <g id="Grupo_77163" data-name="Grupo 77163">
                    <g id="Grupo_77158" data-name="Grupo 77158" transform="translate(0.489 0.175)">
                      <path id="Trazado_124130" data-name="Trazado 124130" d="M134.076,241.967a28.5,28.5,0,0,1,7.3,1.927l5.367-4.5,9.215,7.015-2.9,6.371a28.489,28.489,0,0,1,3.805,6.523l6.972.615,1.556,11.479-6.555,2.45a28.405,28.405,0,0,1-1.93,7.3l4.5,5.367-7.015,9.215-6.371-2.9a28.413,28.413,0,0,1-6.526,3.805l-.613,6.972L129.4,305.166l-2.448-6.557a28.416,28.416,0,0,1-7.3-1.927l-5.367,4.5-9.218-7.015,2.9-6.371a28.6,28.6,0,0,1-3.805-6.523l-6.969-.615-1.559-11.478,6.555-2.451a28.434,28.434,0,0,1,1.93-7.3l-4.5-5.367,7.015-9.215,6.374,2.9a28.269,28.269,0,0,1,6.523-3.805l.615-6.972,11.476-1.556,2.453,6.554ZM129.362,257.9a12.427,12.427,0,1,0,13.984,10.645A12.431,12.431,0,0,0,129.362,257.9Z" transform="translate(-95.634 -235.412)" fill="none"/>
                    </g>
                    <g id="Grupo_77160" data-name="Grupo 77160" transform="translate(23.053 22.407)">
                      <g id="Grupo_77159" data-name="Grupo 77159">
                        <path id="Trazado_124131" data-name="Trazado 124131" d="M114.644,243.4a2.418,2.418,0,0,1,.782-.167,9.588,9.588,0,0,1,2.3-.049,12.368,12.368,0,0,1,7.619,3.5A12.785,12.785,0,0,1,125.28,265a12.8,12.8,0,0,1-15.131,2.054,12.781,12.781,0,0,1-4.941-17.634,12.365,12.365,0,0,1,6.411-5.4,9.5,9.5,0,0,1,2.226-.564,2.386,2.386,0,0,1,.8-.049c.02.106-1.087.216-2.882.975a12.38,12.38,0,0,0-5.936,5.393,12.089,12.089,0,0,0-.1,11.5,11.856,11.856,0,0,0,4.889,4.924,11.913,11.913,0,0,0,13.981-1.9,11.869,11.869,0,0,0,3.4-6.048,12.09,12.09,0,0,0-3.158-11.053,12.384,12.384,0,0,0-7.159-3.615C115.751,243.318,114.652,243.511,114.644,243.4Z" transform="translate(-103.479 -243.142)" fill="#263238"/>
                      </g>
                    </g>
                    <g id="Grupo_77162" data-name="Grupo 77162">
                      <g id="Grupo_77161" data-name="Grupo 77161">
                        <path id="Trazado_124132" data-name="Trazado 124132" d="M134.4,242.081a1.8,1.8,0,0,1-.187-.391l-.5-1.222q-.686-1.739-1.918-4.886l.173.1L120.5,237.335l.221-.23c-.175,2.117-.368,4.464-.575,6.975l-.014.175-.167.072a28.254,28.254,0,0,0-6.434,3.791l-.155.124-.184-.083-6.382-2.879.431-.109c-2.2,2.911-4.533,6-6.983,9.238l-.012-.492c1.395,1.66,2.934,3.483,4.513,5.355l.161.19-.1.236a28,28,0,0,0-1.881,7.2l-.032.259-.247.092c-2.031.765-4.268,1.6-6.549,2.465l.285-.48c.5,3.6,1.03,7.493,1.579,11.476l-.423-.4,6.972.607.288.023.109.268a28.171,28.171,0,0,0,3.748,6.408l.181.233-.121.267c-.909,2-1.9,4.173-2.9,6.373l-.15-.6c2.919,2.22,6.048,4.6,9.221,7.009l-.621.014,5.364-4.5.233-.2.282.118a27.971,27.971,0,0,0,7.164,1.892h.006c.181.144-.406-.322.408.322l0,.006.006.015.009.026.02.052.037.1.078.207.152.411.308.826.616,1.642c.408,1.093.817,2.186,1.219,3.27l-.535-.322q5.82-.79,11.479-1.553l-.426.448q.311-3.52.615-6.971l.029-.3.273-.112a27.906,27.906,0,0,0,6.417-3.733l.233-.181.267.124,6.368,2.911-.581.144q3.6-4.711,7.029-9.207l.011.578-4.487-5.376-.175-.21.1-.25a27.962,27.962,0,0,0,1.916-7.184l.032-.262.247-.092,6.56-2.433-.267.446c-.535-4.038-1.041-7.852-1.524-11.482l.348.331-6.969-.638-.219-.02-.083-.2a28.158,28.158,0,0,0-3.733-6.46l-.121-.158.08-.181c1.067-2.307,2.028-4.389,2.937-6.356l.089.36c-3.549-2.735-6.575-5.071-9.175-7.072l.282-.006-5.407,4.447-.078.063-.089-.037a29.775,29.775,0,0,0-5.4-1.7l-1.378-.273a1.8,1.8,0,0,1-.454-.1,2.593,2.593,0,0,1,.466.02c.311.032.776.086,1.4.193a27.14,27.14,0,0,1,5.5,1.565l-.164.026c1.461-1.245,3.2-2.735,5.324-4.544l.138-.115.144.109,9.261,6.957.187.141-.1.219c-.889,1.976-1.829,4.064-2.873,6.382l-.04-.337a28.69,28.69,0,0,1,3.877,6.586l-.3-.219,6.972.589.3.026.043.3c.5,3.627,1.03,7.438,1.59,11.473l.043.331-.311.118c-2.128.8-4.306,1.62-6.552,2.465l.279-.351a28.673,28.673,0,0,1-1.944,7.418l-.069-.46q2.213,2.632,4.507,5.358l.236.282-.224.3q-3.413,4.5-7,9.227l-.23.3-.348-.158q-3.145-1.428-6.374-2.9l.5-.057A28.9,28.9,0,0,1,142,297.2l.3-.411q-.3,3.451-.607,6.972l-.034.394-.394.055q-5.66.768-11.478,1.562l-.4.054-.141-.374c-.406-1.087-.814-2.174-1.222-3.27l-.613-1.642-.308-.826-.155-.414-.078-.2-.037-.1-.02-.052-.009-.026-.006-.012,0-.009c.814.644.224.178.406.322h0a28.909,28.909,0,0,1-7.423-1.961l.512-.081c-1.844,1.545-3.673,3.075-5.37,4.5l-.3.256-.316-.242-9.212-7.02-.314-.239.161-.356c1.007-2.2,2-4.375,2.913-6.368l.058.5a28.861,28.861,0,0,1-3.86-6.638l.4.293c-2.416-.216-4.8-.431-6.969-.624L97.1,281.2l-.049-.368c-.535-3.986-1.055-7.875-1.539-11.482l-.046-.356.334-.124,6.56-2.436-.279.354a28.864,28.864,0,0,1,1.976-7.409l.066.426c-1.567-1.881-3.095-3.713-4.484-5.378l-.2-.244.19-.25q3.706-4.836,7.044-9.192l.175-.23.259.121,6.359,2.928-.339.04a28.68,28.68,0,0,1,6.615-3.814l-.181.244.653-6.966.02-.207.2-.026,11.49-1.461.129-.017.04.118q1.122,3.149,1.737,4.884l.434,1.274A2.714,2.714,0,0,1,134.4,242.081Z" transform="translate(-95.464 -235.351)" fill="#263238"/>
                      </g>
                    </g>
                  </g>
                </g>
              </g>
            </g>
          </g>
        </g>
      </g>
    </g>
    <g id="Grupo_87683" data-name="Grupo 87683" transform="translate(1121.321 6044.302)">
      <g id="Grupo_87626" data-name="Grupo 87626" transform="translate(138.704 0)">
        <g id="Grupo_87557" data-name="Grupo 87557" transform="translate(0)">
          <g id="Grupo_87552" data-name="Grupo 87552" transform="translate(75.029)">
            <path id="Trazado_141874" data-name="Trazado 141874" d="M569.039,57.288H541.664a27.815,27.815,0,1,0-55.63,0H458.659a8.072,8.072,0,0,0-8.072,8.072V88.225a3.662,3.662,0,0,0,3.662,3.663h119.2a3.662,3.662,0,0,0,3.662-3.663V65.36A8.072,8.072,0,0,0,569.039,57.288Zm-55.19-5.371a6.586,6.586,0,1,1,6.586-6.586A6.586,6.586,0,0,1,513.849,51.917Z" transform="translate(-450.587 -29.473)" fill="#344154"/>
          </g>
          <g id="Grupo_87553" data-name="Grupo 87553" transform="translate(0 37.308)">
            <path id="Rectángulo_31691" data-name="Rectángulo 31691" d="M8.453,0H268.13a8.453,8.453,0,0,1,8.453,8.453V386.84a8.453,8.453,0,0,1-8.453,8.453H8.452A8.452,8.452,0,0,1,0,386.841V8.453A8.453,8.453,0,0,1,8.453,0Z" fill="#12263f"/>
          </g>
          <g id="Grupo_87554" data-name="Grupo 87554" transform="translate(12.26 55.417)">
            <rect id="Rectángulo_31692" data-name="Rectángulo 31692" width="248.691" height="364.794" rx="6.091" fill="#fff"/>
          </g>
          <g id="Grupo_87555" data-name="Grupo 87555" transform="translate(76.183 35.831)">
            <path id="Trazado_141875" data-name="Trazado 141875" d="M572.391,62.195V82.221a6.761,6.761,0,0,1-6.761,6.762H461.869a6.761,6.761,0,0,1-6.761-6.761V62.195h-3.467V82.864a9.586,9.586,0,0,0,9.586,9.587H566.271a9.586,9.586,0,0,0,9.587-9.587V62.195Z" transform="translate(-451.641 -62.195)" fill="#344154"/>
          </g>
          <g id="Grupo_87556" data-name="Grupo 87556" transform="translate(51.196 33.043)">
            <rect id="Rectángulo_31693" data-name="Rectángulo 31693" width="174.19" height="13.054" rx="4.24" fill="#344154"/>
          </g>
        </g>
        <g id="Grupo_87565" data-name="Grupo 87565" transform="translate(32.671 128.52)">
          <g id="Grupo_87562" data-name="Grupo 87562" transform="translate(11.27 47.831)">
            <g id="Grupo_87558" data-name="Grupo 87558" transform="translate(0 33.831)">
              <rect id="Rectángulo_31694" data-name="Rectángulo 31694" width="10.753" height="11.86" fill="#e8c7aa"/>
            </g>
            <g id="Grupo_87559" data-name="Grupo 87559" transform="translate(19.187 9.995)">
              <rect id="Rectángulo_31695" data-name="Rectángulo 31695" width="10.753" height="35.696" fill="#e8c7aa"/>
            </g>
            <g id="Grupo_87560" data-name="Grupo 87560" transform="translate(38.373 23.385)">
              <rect id="Rectángulo_31696" data-name="Rectángulo 31696" width="10.753" height="22.307" fill="#e8c7aa"/>
            </g>
            <g id="Grupo_87561" data-name="Grupo 87561" transform="translate(57.56)">
              <rect id="Rectángulo_31697" data-name="Rectángulo 31697" width="10.753" height="45.691" fill="#e8c7aa"/>
            </g>
          </g>
          <g id="Grupo_87563" data-name="Grupo 87563">
            <path id="Trazado_141876" data-name="Trazado 141876" d="M414.544,244.539v-97.7H411.9V247.179h93.915v-2.64Z" transform="translate(-411.904 -146.843)" fill="#12263f"/>
          </g>
          <g id="Grupo_87564" data-name="Grupo 87564" transform="translate(9.226 26.273)">
            <path id="Trazado_141877" data-name="Trazado 141877" d="M488.944,172.62l-5.74-.889-5.739-.889c-.335-.051-.506.335-.308.7l2.375,4.312-11.667,6.278-3.616-3.405-1.083-1.018-1.332.664-16.658,8.3-4.153-2.273-.858-.469-.765.293-18.757,7.185a.485.485,0,0,0,.274.928l3.824-.786,14.912-3.067,4.453,2.437.979.535,1-.5,16.324-8.139,3.652,3.441,1.119,1.053,1.356-.729,13.044-7.018.808,1.468,1.581,2.872c.172.311.508.4.684.222a.357.357,0,0,0,.07-.106l2.335-5.3,2.211-5.014.125-.281A.636.636,0,0,0,488.944,172.62Z" transform="translate(-420.33 -170.837)" fill="#aed3f2"/>
          </g>
        </g>
        <g id="Grupo_87571" data-name="Grupo 87571" transform="translate(153.976 142.296)">
          <g id="Grupo_87566" data-name="Grupo 87566">
            <rect id="Rectángulo_31698" data-name="Rectángulo 31698" width="13.298" height="13.298" rx="2.73" fill="#aed3f2"/>
          </g>
          <g id="Grupo_87570" data-name="Grupo 87570" transform="translate(18.815 2.339)">
            <g id="Grupo_87567" data-name="Grupo 87567">
              <path id="Trazado_141878" data-name="Trazado 141878" d="M604.664,163.273h-63.94a.856.856,0,0,1-.856-.856h0a.856.856,0,0,1,.856-.856h63.94a.856.856,0,0,1,.856.856h0A.856.856,0,0,1,604.664,163.273Z" transform="translate(-539.868 -161.56)" fill="#aed3f2"/>
            </g>
            <g id="Grupo_87568" data-name="Grupo 87568" transform="translate(0 6.907)">
              <path id="Trazado_141879" data-name="Trazado 141879" d="M557.565,169.581H540.724a.856.856,0,0,1-.856-.856h0a.857.857,0,0,1,.856-.856h16.841a.857.857,0,0,1,.856.856h0A.856.856,0,0,1,557.565,169.581Z" transform="translate(-539.868 -167.868)" fill="#aed3f2"/>
            </g>
            <g id="Grupo_87569" data-name="Grupo 87569" transform="translate(23.863 6.907)">
              <path id="Trazado_141880" data-name="Trazado 141880" d="M593.573,169.581H562.517a.856.856,0,0,1-.856-.856h0a.856.856,0,0,1,.856-.856h31.056a.856.856,0,0,1,.856.856h0A.856.856,0,0,1,593.573,169.581Z" transform="translate(-561.661 -167.868)" fill="#aed3f2"/>
            </g>
          </g>
        </g>
        <g id="Grupo_87577" data-name="Grupo 87577" transform="translate(153.976 172.039)">
          <g id="Grupo_87572" data-name="Grupo 87572">
            <rect id="Rectángulo_31699" data-name="Rectángulo 31699" width="13.298" height="13.298" rx="2.73" fill="#aed3f2"/>
          </g>
          <g id="Grupo_87576" data-name="Grupo 87576" transform="translate(18.815 2.339)">
            <g id="Grupo_87573" data-name="Grupo 87573">
              <path id="Trazado_141881" data-name="Trazado 141881" d="M604.664,190.435h-63.94a.856.856,0,0,1-.856-.856h0a.856.856,0,0,1,.856-.856h63.94a.856.856,0,0,1,.856.856h0A.856.856,0,0,1,604.664,190.435Z" transform="translate(-539.868 -188.722)" fill="#aed3f2"/>
            </g>
            <g id="Grupo_87574" data-name="Grupo 87574" transform="translate(0 6.908)">
              <path id="Trazado_141882" data-name="Trazado 141882" d="M557.565,196.744H540.724a.856.856,0,0,1-.856-.856h0a.856.856,0,0,1,.856-.856h16.841a.856.856,0,0,1,.856.856h0A.856.856,0,0,1,557.565,196.744Z" transform="translate(-539.868 -195.031)" fill="#aed3f2"/>
            </g>
            <g id="Grupo_87575" data-name="Grupo 87575" transform="translate(23.863 6.908)">
              <path id="Trazado_141883" data-name="Trazado 141883" d="M593.573,196.744H562.517a.856.856,0,0,1-.856-.856h0a.856.856,0,0,1,.856-.856h31.056a.856.856,0,0,1,.856.856h0A.856.856,0,0,1,593.573,196.744Z" transform="translate(-561.661 -195.031)" fill="#aed3f2"/>
            </g>
          </g>
        </g>
        <g id="Grupo_87583" data-name="Grupo 87583" transform="translate(153.976 201.781)">
          <g id="Grupo_87578" data-name="Grupo 87578">
            <rect id="Rectángulo_31700" data-name="Rectángulo 31700" width="13.298" height="13.298" rx="2.73" fill="#aed3f2"/>
          </g>
          <g id="Grupo_87582" data-name="Grupo 87582" transform="translate(18.815 2.339)">
            <g id="Grupo_87579" data-name="Grupo 87579">
              <path id="Trazado_141884" data-name="Trazado 141884" d="M604.664,217.6h-63.94a.856.856,0,0,1-.856-.856h0a.856.856,0,0,1,.856-.856h63.94a.856.856,0,0,1,.856.856h0A.856.856,0,0,1,604.664,217.6Z" transform="translate(-539.868 -215.885)" fill="#aed3f2"/>
            </g>
            <g id="Grupo_87580" data-name="Grupo 87580" transform="translate(0 6.907)">
              <path id="Trazado_141885" data-name="Trazado 141885" d="M557.565,223.906H540.724a.856.856,0,0,1-.856-.856h0a.856.856,0,0,1,.856-.856h16.841a.856.856,0,0,1,.856.856h0A.856.856,0,0,1,557.565,223.906Z" transform="translate(-539.868 -222.193)" fill="#aed3f2"/>
            </g>
            <g id="Grupo_87581" data-name="Grupo 87581" transform="translate(23.863 6.907)">
              <path id="Trazado_141886" data-name="Trazado 141886" d="M593.573,223.906H562.517a.856.856,0,0,1-.856-.856h0a.856.856,0,0,1,.856-.856h31.056a.856.856,0,0,1,.856.856h0A.856.856,0,0,1,593.573,223.906Z" transform="translate(-561.661 -222.193)" fill="#aed3f2"/>
            </g>
          </g>
        </g>
        <g id="Grupo_87588" data-name="Grupo 87588" transform="translate(38.405 246.853)">
          <g id="Grupo_87584" data-name="Grupo 87584">
            <rect id="Rectángulo_31701" data-name="Rectángulo 31701" width="51.895" height="8.441" rx="2.661" fill="#aed3f2"/>
          </g>
          <g id="Grupo_87585" data-name="Grupo 87585" transform="translate(107.822)">
            <rect id="Rectángulo_31702" data-name="Rectángulo 31702" width="36.366" height="8.441" rx="2.661" fill="#aed3f2"/>
          </g>
          <g id="Grupo_87586" data-name="Grupo 87586" transform="translate(157.194)">
            <rect id="Rectángulo_31703" data-name="Rectángulo 31703" width="36.366" height="8.441" rx="2.661" fill="#aed3f2"/>
          </g>
          <g id="Grupo_87587" data-name="Grupo 87587" transform="translate(63.546)">
            <rect id="Rectángulo_31704" data-name="Rectángulo 31704" width="26.731" height="8.441" rx="2.661" fill="#aed3f2"/>
          </g>
        </g>
        <g id="Grupo_87593" data-name="Grupo 87593" transform="translate(38.405 263.735)">
          <g id="Grupo_87589" data-name="Grupo 87589">
            <rect id="Rectángulo_31705" data-name="Rectángulo 31705" width="51.895" height="8.441" rx="2.661" fill="#bedcf5"/>
          </g>
          <g id="Grupo_87590" data-name="Grupo 87590" transform="translate(107.822)">
            <rect id="Rectángulo_31706" data-name="Rectángulo 31706" width="36.366" height="8.441" rx="2.661" fill="#bedcf5"/>
          </g>
          <g id="Grupo_87591" data-name="Grupo 87591" transform="translate(157.194)">
            <rect id="Rectángulo_31707" data-name="Rectángulo 31707" width="36.366" height="8.441" rx="2.661" fill="#e8c7aa"/>
          </g>
          <g id="Grupo_87592" data-name="Grupo 87592" transform="translate(63.546)">
            <rect id="Rectángulo_31708" data-name="Rectángulo 31708" width="26.731" height="8.441" rx="2.661" fill="#aed3f2"/>
          </g>
        </g>
        <g id="Grupo_87598" data-name="Grupo 87598" transform="translate(38.405 280.617)">
          <g id="Grupo_87594" data-name="Grupo 87594">
            <rect id="Rectángulo_31709" data-name="Rectángulo 31709" width="51.895" height="8.441" rx="2.661" fill="#bedcf5"/>
          </g>
          <g id="Grupo_87595" data-name="Grupo 87595" transform="translate(107.822)">
            <rect id="Rectángulo_31710" data-name="Rectángulo 31710" width="36.366" height="8.441" rx="2.661" fill="#aed3f2"/>
          </g>
          <g id="Grupo_87596" data-name="Grupo 87596" transform="translate(157.194)">
            <rect id="Rectángulo_31711" data-name="Rectángulo 31711" width="36.366" height="8.441" rx="2.661" fill="#e8c7aa"/>
          </g>
          <g id="Grupo_87597" data-name="Grupo 87597" transform="translate(63.546)">
            <rect id="Rectángulo_31712" data-name="Rectángulo 31712" width="26.731" height="8.441" rx="2.661" fill="#e8c7aa"/>
          </g>
        </g>
        <g id="Grupo_87603" data-name="Grupo 87603" transform="translate(38.405 297.499)">
          <g id="Grupo_87599" data-name="Grupo 87599">
            <rect id="Rectángulo_31713" data-name="Rectángulo 31713" width="51.895" height="8.441" rx="2.661" fill="#aed3f2"/>
          </g>
          <g id="Grupo_87600" data-name="Grupo 87600" transform="translate(107.822)">
            <rect id="Rectángulo_31714" data-name="Rectángulo 31714" width="36.366" height="8.441" rx="2.661" fill="#aed3f2"/>
          </g>
          <g id="Grupo_87601" data-name="Grupo 87601" transform="translate(157.194)">
            <rect id="Rectángulo_31715" data-name="Rectángulo 31715" width="36.366" height="8.441" rx="2.661" fill="#aed3f2"/>
          </g>
          <g id="Grupo_87602" data-name="Grupo 87602" transform="translate(63.546)">
            <rect id="Rectángulo_31716" data-name="Rectángulo 31716" width="26.731" height="8.441" rx="2.661" fill="#bedcf5"/>
          </g>
        </g>
        <g id="Grupo_87608" data-name="Grupo 87608" transform="translate(38.405 314.381)">
          <g id="Grupo_87604" data-name="Grupo 87604">
            <rect id="Rectángulo_31717" data-name="Rectángulo 31717" width="51.895" height="8.441" rx="2.661" fill="#e8c7aa"/>
          </g>
          <g id="Grupo_87605" data-name="Grupo 87605" transform="translate(107.822)">
            <rect id="Rectángulo_31718" data-name="Rectángulo 31718" width="36.366" height="8.441" rx="2.661" fill="#bedcf5"/>
          </g>
          <g id="Grupo_87606" data-name="Grupo 87606" transform="translate(157.194)">
            <rect id="Rectángulo_31719" data-name="Rectángulo 31719" width="36.366" height="8.441" rx="2.661" fill="#aed3f2"/>
          </g>
          <g id="Grupo_87607" data-name="Grupo 87607" transform="translate(63.546)">
            <rect id="Rectángulo_31720" data-name="Rectángulo 31720" width="26.731" height="8.441" rx="2.661" fill="#e8c7aa"/>
          </g>
        </g>
        <g id="Grupo_87623" data-name="Grupo 87623" transform="translate(38.405 342.093)">
          <g id="Grupo_87609" data-name="Grupo 87609">
            <rect id="Rectángulo_31721" data-name="Rectángulo 31721" width="26.04" height="23.571" rx="3.361" fill="#aed3f2"/>
          </g>
          <g id="Grupo_87610" data-name="Grupo 87610" transform="translate(0 33.764)">
            <rect id="Rectángulo_31722" data-name="Rectángulo 31722" width="26.04" height="23.571" rx="3.361" fill="#aed3f2"/>
          </g>
          <g id="Grupo_87616" data-name="Grupo 87616" transform="translate(36.336 7.405)">
            <g id="Grupo_87611" data-name="Grupo 87611">
              <path id="Trazado_141887" data-name="Trazado 141887" d="M543.277,351.278H451.451a1.231,1.231,0,0,1-1.127-1.314h0a1.232,1.232,0,0,1,1.127-1.314h91.827a1.232,1.232,0,0,1,1.128,1.314h0A1.231,1.231,0,0,1,543.277,351.278Z" transform="translate(-450.324 -348.65)" fill="#aed3f2"/>
            </g>
            <g id="Grupo_87612" data-name="Grupo 87612" transform="translate(0 9.875)">
              <path id="Trazado_141888" data-name="Trazado 141888" d="M505.132,360.3H451.451a1.231,1.231,0,0,1-1.127-1.314h0a1.231,1.231,0,0,1,1.127-1.314h53.681a1.231,1.231,0,0,1,1.128,1.314h0A1.231,1.231,0,0,1,505.132,360.3Z" transform="translate(-450.324 -357.668)" fill="#aed3f2"/>
            </g>
            <g id="Grupo_87613" data-name="Grupo 87613" transform="translate(62.949 9.875)">
              <path id="Trazado_141889" data-name="Trazado 141889" d="M575.62,360.3H508.939a1.231,1.231,0,0,1-1.127-1.314h0a1.231,1.231,0,0,1,1.127-1.314H575.62a1.231,1.231,0,0,1,1.128,1.314h0A1.231,1.231,0,0,1,575.62,360.3Z" transform="translate(-507.812 -357.668)" fill="#aed3f2"/>
            </g>
            <g id="Grupo_87614" data-name="Grupo 87614" transform="translate(137.986 9.875)">
              <path id="Trazado_141890" data-name="Trazado 141890" d="M594.449,360.3H577.466a1.231,1.231,0,0,1-1.127-1.314h0a1.231,1.231,0,0,1,1.127-1.314h16.983a1.231,1.231,0,0,1,1.128,1.314h0A1.232,1.232,0,0,1,594.449,360.3Z" transform="translate(-576.339 -357.668)" fill="#aed3f2"/>
            </g>
            <g id="Grupo_87615" data-name="Grupo 87615" transform="translate(100.695)">
              <path id="Trazado_141891" data-name="Trazado 141891" d="M597.684,351.278H543.411a1.231,1.231,0,0,1-1.128-1.314h0a1.232,1.232,0,0,1,1.128-1.314h54.274a1.232,1.232,0,0,1,1.128,1.314h0A1.232,1.232,0,0,1,597.684,351.278Z" transform="translate(-542.283 -348.65)" fill="#aed3f2"/>
            </g>
          </g>
          <g id="Grupo_87622" data-name="Grupo 87622" transform="translate(36.336 39.298)">
            <g id="Grupo_87617" data-name="Grupo 87617">
              <path id="Trazado_141892" data-name="Trazado 141892" d="M543.277,380.4H451.451a1.231,1.231,0,0,1-1.127-1.314h0a1.231,1.231,0,0,1,1.127-1.314h91.827a1.231,1.231,0,0,1,1.128,1.314h0A1.231,1.231,0,0,1,543.277,380.4Z" transform="translate(-450.324 -377.776)" fill="#aed3f2"/>
            </g>
            <g id="Grupo_87618" data-name="Grupo 87618" transform="translate(0 9.875)">
              <path id="Trazado_141893" data-name="Trazado 141893" d="M505.132,389.422H451.451a1.231,1.231,0,0,1-1.127-1.314h0a1.231,1.231,0,0,1,1.127-1.314h53.681a1.231,1.231,0,0,1,1.128,1.314h0A1.231,1.231,0,0,1,505.132,389.422Z" transform="translate(-450.324 -386.794)" fill="#aed3f2"/>
            </g>
            <g id="Grupo_87619" data-name="Grupo 87619" transform="translate(62.949 9.875)">
              <path id="Trazado_141894" data-name="Trazado 141894" d="M575.62,389.422H508.939a1.231,1.231,0,0,1-1.127-1.314h0a1.231,1.231,0,0,1,1.127-1.314H575.62a1.231,1.231,0,0,1,1.128,1.314h0A1.231,1.231,0,0,1,575.62,389.422Z" transform="translate(-507.812 -386.794)" fill="#aed3f2"/>
            </g>
            <g id="Grupo_87620" data-name="Grupo 87620" transform="translate(137.986 9.875)">
              <path id="Trazado_141895" data-name="Trazado 141895" d="M594.449,389.422H577.466a1.231,1.231,0,0,1-1.127-1.314h0a1.231,1.231,0,0,1,1.127-1.314h16.983a1.231,1.231,0,0,1,1.128,1.314h0A1.231,1.231,0,0,1,594.449,389.422Z" transform="translate(-576.339 -386.794)" fill="#aed3f2"/>
            </g>
            <g id="Grupo_87621" data-name="Grupo 87621" transform="translate(100.695)">
              <path id="Trazado_141896" data-name="Trazado 141896" d="M597.684,380.4H543.411a1.231,1.231,0,0,1-1.128-1.314h0a1.231,1.231,0,0,1,1.128-1.314h54.274a1.231,1.231,0,0,1,1.128,1.314h0A1.231,1.231,0,0,1,597.684,380.4Z" transform="translate(-542.283 -377.776)" fill="#aed3f2"/>
            </g>
          </g>
        </g>
        <g id="Grupo_87624" data-name="Grupo 87624" transform="translate(44.431 348.687)">
          <path id="Trazado_141897" data-name="Trazado 141897" d="M433.663,347.909l-5.22,7.249-3.611-3.408-2.188,2.769,6.128,4.075,7.859-8.4Q435.147,349.052,433.663,347.909Z" transform="translate(-422.644 -347.909)" fill="#fff"/>
        </g>
        <g id="Grupo_87625" data-name="Grupo 87625" transform="translate(44.989 382.299)">
          <path id="Trazado_141898" data-name="Trazado 141898" d="M434.173,378.605l-5.221,7.25q-1.805-1.7-3.611-3.408l-2.188,2.769q3.065,2.037,6.128,4.076l7.859-8.4Z" transform="translate(-423.153 -378.605)" fill="#fff"/>
        </g>
      </g>
      <g id="Grupo_87682" data-name="Grupo 87682" transform="translate(-10 198.561)">
        <g id="Grupo_87681" data-name="Grupo 87681">
          <g id="Grupo_87628" data-name="Grupo 87628" transform="translate(41.503 139.335)">
            <g id="Grupo_87627" data-name="Grupo 87627">
              <path id="Trazado_141899" data-name="Trazado 141899" d="M204.422,355.926A202.978,202.978,0,0,0,215.913,427q2.229,6.411,4.939,12.823L218.78,453.58h39.737l-25.651-15.3c-.586-3.654-1.068-7.433-1.486-11.274-2.7-26-1.548-54.723-.774-67.67a33.2,33.2,0,0,0-2.135-13.753c-6.907-18.006-25.473-67.959-31.459-98.851H153.393C145.92,296.166,166.055,317.477,204.422,355.926Z" transform="translate(-151.852 -246.73)" fill="#ffbf9d"/>
            </g>
          </g>
          <g id="Grupo_87630" data-name="Grupo 87630" transform="translate(41.503 139.335)">
            <g id="Grupo_87629" data-name="Grupo 87629">
              <path id="Trazado_141900" data-name="Trazado 141900" d="M172.712,321.792c8.352,10.594,19.026,21.435,31.71,34.134-.272,25.379,1.471,54.193,9.465,76.949l19.869-1.034c-2.7-26,1.861-69.427-2.2-85.865-4.627-18.722-28.555-68.354-34.542-99.246H153.393C148.39,279.832,155.758,300.337,172.712,321.792Z" transform="translate(-151.851 -246.73)" fill="#6595bf"/>
            </g>
          </g>
          <g id="Grupo_87632" data-name="Grupo 87632" transform="translate(62.343 173.476)">
            <g id="Grupo_87631" data-name="Grupo 87631">
              <path id="Trazado_141901" data-name="Trazado 141901" d="M170.883,318.748l.021.082c8.352,10.594,19.026,21.435,31.71,34.134-.272,25.379,1.471,54.193,9.465,76.949l5.892-.307c-8.291-21.429-10.6-49.5-9.652-78.119-43.328-35.291-14.567-48-28.039-73.578Z" transform="translate(-170.883 -277.909)" fill="#334b60"/>
            </g>
          </g>
          <g id="Grupo_87634" data-name="Grupo 87634" transform="translate(108.227 330.883)">
            <g id="Grupo_87633" data-name="Grupo 87633">
              <path id="Trazado_141902" data-name="Trazado 141902" d="M227.078,421.66c9.56,4.9,26.239,3.541,27.222,15.3H212.992c-.466-5.536-.195-10.731,1.427-15.3A38.314,38.314,0,0,0,227.078,421.66Z" transform="translate(-212.787 -421.66)" fill="#344154"/>
            </g>
          </g>
          <g id="Grupo_87643" data-name="Grupo 87643" transform="translate(0 137.789)">
            <g id="Grupo_87636" data-name="Grupo 87636" transform="translate(0.631 0.005)">
              <g id="Grupo_87635" data-name="Grupo 87635">
                <path id="Trazado_141903" data-name="Trazado 141903" d="M119.535,436.6c-1.718,3.726-3.339,7.182-5.01,10.809q16.643,3.972,33.281,7.965c-6.713-5.575-13.472-11.042-20.153-16.688,2.558-5.188,5.673-12.506,8.449-17.2,11.119-18.815,23.695-35.48,36.423-53.045a30.906,30.906,0,0,0,5.916-13.664c5.934-34.593,5.185-70.275,11.42-104.935-9.848-1.533-19.674-3.015-29.515-4.519-27.425,42.839-21.623,65.683-10.124,111.66-13.65,18.476-21.176,39.348-26.651,61.667C122.443,423.248,120.524,431.478,119.535,436.6Z" transform="translate(-114.525 -245.323)" fill="#ffbf9d"/>
              </g>
            </g>
            <g id="Grupo_87638" data-name="Grupo 87638" transform="translate(3.782)">
              <g id="Grupo_87637" data-name="Grupo 87637">
                <path id="Trazado_141904" data-name="Trazado 141904" d="M178.137,354.821a30.241,30.241,0,0,1-5.975,13.778c-14.428,20.192-25.731,43.17-38.427,64.591-5.484-1.247-10.882-2.55-16.332-3.82,6.3-24.99,16.885-51.446,32.54-72.366C138.46,311,132.644,288.2,160.054,245.352a.086.086,0,0,1,.019-.034l33.558,5.126c-.157.849-.309,1.7-.466,2.548,0,.018,0,.057,0,.076C187.2,286.841,184.093,321.074,178.137,354.821Z" transform="translate(-117.403 -245.318)" fill="#4c708f"/>
              </g>
            </g>
            <g id="Grupo_87640" data-name="Grupo 87640" transform="translate(3.773 0.035)">
              <g id="Grupo_87639" data-name="Grupo 87639">
                <path id="Trazado_141905" data-name="Trazado 141905" d="M186.84,254.389c-3.592,5.057-.208,15.181-4.149,20.691-10.2,14.263-23.922,3.691-32.753,9.44-15.023,9.777,1.664,54.352,4.969,66.419.1.365,2.418,8.4,3.943,8.23-6.93.834-4.473-4.052-13.329,10.97-3.995,6.777-24.667,46.343-25.444,58.894-1.77,1.718-1.658,0-2.682.351,6.326-25.032,16.887-51.451,32.55-72.386-11.482-46-17.305-68.806,10.113-111.648,10.9,2.5,24.528.822,35.176,3.294C196.489,248.935,189.179,251.1,186.84,254.389Z" transform="translate(-117.395 -245.35)" fill="#6595bf"/>
              </g>
            </g>
            <g id="Grupo_87642" data-name="Grupo 87642" transform="translate(0 187.857)">
              <g id="Grupo_87641" data-name="Grupo 87641">
                <path id="Trazado_141906" data-name="Trazado 141906" d="M129.442,419.042c9.338,6.535,22.279,8.487,23.135,21.166q-19.314-4.624-38.628-9.246a40.118,40.118,0,0,1,6.3-14.085C123.087,419.321,125.777,419.845,129.442,419.042Z" transform="translate(-113.949 -416.877)" fill="#344154"/>
              </g>
            </g>
          </g>
          <g id="Grupo_87653" data-name="Grupo 87653" transform="translate(79.85 43.496)">
            <g id="Grupo_87645" data-name="Grupo 87645" transform="translate(82.628 2.821)">
              <g id="Grupo_87644" data-name="Grupo 87644">
                <path id="Trazado_141907" data-name="Trazado 141907" d="M269.592,180.186s-2.893,1.518-3.8,2.12c-1.661-2.921-1.9-5.7-3.465-8.462,0,0,4.085-1.093,4.476-1.9,1.288-2.667,2.453-7.593,5.151-8.248,2.74-.664.521,5.928.521,5.928s6.413-1.829,10.219-5.364C292.81,154.855,289.519,174.883,269.592,180.186Z" transform="translate(-262.332 -161.781)" fill="#ffbf9d"/>
              </g>
            </g>
            <g id="Grupo_87647" data-name="Grupo 87647" transform="translate(0 0)">
              <g id="Grupo_87646" data-name="Grupo 87646">
                <path id="Trazado_141908" data-name="Trazado 141908" d="M275.724,182.127c-6.589,4.418-34.938,22.042-45.532,22.869-12.047.947-43.32-11.758-43.32-11.758l1.3-34.013c5.8-.872,41.646,28.089,41.646,28.089l41-15.611C272.379,174.466,274.063,179.205,275.724,182.127Z" transform="translate(-186.872 -159.205)" fill="#d9a171"/>
              </g>
            </g>
            <g id="Grupo_87652" data-name="Grupo 87652">
              <g id="Grupo_87649" data-name="Grupo 87649" transform="translate(1.301)">
                <g id="Grupo_87648" data-name="Grupo 87648">
                  <path id="Trazado_141909" data-name="Trazado 141909" d="M206.127,169.373c-8.057-5.721-15.655-10.511-18.064-10.148l0,.064C192.156,160.773,199.127,164.89,206.127,169.373Z" transform="translate(-188.06 -159.205)" fill="#384c78"/>
                </g>
              </g>
              <g id="Grupo_87651" data-name="Grupo 87651" transform="translate(0 19.526)">
                <g id="Grupo_87650" data-name="Grupo 87650">
                  <path id="Trazado_141910" data-name="Trazado 141910" d="M274.058,177.037c-7.278,5.419-34.058,21.949-44.288,23.333-10.7,1.453-37.35-7.112-42.893-8.949l0,.123s31.273,12.705,43.32,11.758c10.594-.827,38.944-18.451,45.532-22.869A34.9,34.9,0,0,1,274.058,177.037Z" transform="translate(-186.872 -177.037)" fill="#a37955"/>
                </g>
              </g>
            </g>
          </g>
          <g id="Grupo_87655" data-name="Grupo 87655" transform="translate(40.73 43.506)">
            <g id="Grupo_87654" data-name="Grupo 87654">
              <path id="Trazado_141911" data-name="Trazado 141911" d="M209.178,201.712l-12.1,53.377H153.459s-7.219-51.312,3.851-78.192c4.983-12.111,21.348-17.338,22.374-17.662l.046-.02,12.164.7Z" transform="translate(-151.146 -159.215)" fill="#ffbf9d"/>
            </g>
          </g>
          <g id="Grupo_87657" data-name="Grupo 87657" transform="translate(40.731 43.508)">
            <g id="Grupo_87656" data-name="Grupo 87656">
              <path id="Trazado_141912" data-name="Trazado 141912" d="M208.674,203.9l-10.2,45a7.893,7.893,0,0,1-7.666,6.2c-6.326,2.912-15.321,1.913-24.943,0a13.885,13.885,0,0,1-13.759-12.865c-1.383-16.989-2.386-46.9,5.211-65.34,3.9-9.47,14.774-14.74,19.8-16.735a13.453,13.453,0,0,1,4.969-.938l9.407.022c1.444,0,17.471,40.248,17.471,40.248A14.209,14.209,0,0,1,208.674,203.9Z" transform="translate(-151.147 -159.216)" fill="#fff"/>
            </g>
          </g>
          <g id="Grupo_87659" data-name="Grupo 87659" transform="translate(50.633 135.305)">
            <g id="Grupo_87658" data-name="Grupo 87658">
              <rect id="Rectángulo_31723" data-name="Rectángulo 31723" width="46.289" height="6.869" fill="#182f57"/>
            </g>
          </g>
          <g id="Grupo_87661" data-name="Grupo 87661" transform="translate(77.55 43.492)">
            <g id="Grupo_87660" data-name="Grupo 87660">
              <path id="Trazado_141913" data-name="Trazado 141913" d="M185.911,281.544a6.423,6.423,0,0,0,4.479,4.441,19.85,19.85,0,0,0,8.477.446c.126-.021.23-.043.356-.064a36.833,36.833,0,0,0,6.74-1.807l.021-66.549s.285-12.232,0-16.3c-1.259-17.938.528-39.038-16.528-42.4a3.445,3.445,0,0,0-1.18-.092C201.29,214.3,179.735,258.68,185.911,281.544Z" transform="translate(-184.771 -159.202)" fill="#d9a171"/>
            </g>
          </g>
          <g id="Grupo_87663" data-name="Grupo 87663" transform="translate(26.931 43.508)">
            <g id="Grupo_87662" data-name="Grupo 87662">
              <path id="Trazado_141914" data-name="Trazado 141914" d="M141.738,288.115c9.154,1.993,19.4,1.083,27.27-.032a12.786,12.786,0,0,0,10.834-13.7c-2.741-37.868,8.151-74.963,1.083-115.166l-.042.021c-1.026.319-17.469,5.515-22.375,17.658-9.228,22.831-12.832,73.4-19.87,106.262A4.163,4.163,0,0,0,141.738,288.115Z" transform="translate(-138.544 -159.216)" fill="#d9a171"/>
            </g>
          </g>
          <g id="Grupo_87665" data-name="Grupo 87665" transform="translate(37.235 138.031)">
            <g id="Grupo_87664" data-name="Grupo 87664">
              <path id="Trazado_141915" data-name="Trazado 141915" d="M147.954,248.7a54.822,54.822,0,0,0,20.67,0v-3.16a75.591,75.591,0,0,1-20.67,0Z" transform="translate(-147.954 -245.539)" fill="#e1b48d"/>
            </g>
          </g>
          <g id="Grupo_87672" data-name="Grupo 87672" transform="translate(47.901 51.54)">
            <g id="Grupo_87667" data-name="Grupo 87667" transform="translate(102.119 62.885)">
              <g id="Grupo_87666" data-name="Grupo 87666">
                <path id="Trazado_141916" data-name="Trazado 141916" d="M257.454,240.048a37.208,37.208,0,0,0-6.5,0l.287-10.763s4.924,1.24,6.213.368c2.116-1.43,5.473-5.127,9.1-5.641s-1.939,5.9-1.939,5.9,7.817,1.918,14.292,0S284,243.934,257.454,240.048Z" transform="translate(-250.954 -223.982)" fill="#ffbf9d"/>
              </g>
            </g>
            <g id="Grupo_87669" data-name="Grupo 87669">
              <g id="Grupo_87668" data-name="Grupo 87668">
                <path id="Trazado_141917" data-name="Trazado 141917" d="M262.83,234.243V247.5c-13.026,1.222-47.549,2-59.334-1.99-14.893-5.052-45.8-50.5-45.8-50.5l16.393-28.454C186.8,181.429,213.571,225.9,213.571,225.9Z" transform="translate(-157.694 -166.552)" fill="#d9a171"/>
              </g>
            </g>
            <g id="Grupo_87671" data-name="Grupo 87671" transform="translate(0 28.454)">
              <g id="Grupo_87670" data-name="Grupo 87670">
                <path id="Trazado_141918" data-name="Trazado 141918" d="M205.4,236.565c-13.533-4.116-47.708-44.028-47.708-44.028s30.91,45.449,45.8,50.5c11.784,3.992,46.307,3.212,59.334,1.99v-4.762C249.292,241.876,217.072,240.11,205.4,236.565Z" transform="translate(-157.694 -192.537)" fill="#a37955"/>
              </g>
            </g>
          </g>
          <g id="Grupo_87674" data-name="Grupo 87674" transform="translate(60.673)">
            <g id="Grupo_87673" data-name="Grupo 87673">
              <path id="Trazado_141919" data-name="Trazado 141919" d="M182.669,154.5s-10.417-.034-12.916-12.153S177.188,125.92,183.712,126a17.187,17.187,0,0,0,13.72-6.522s5.789,7.889,2.458,14.814C197,140.3,182.669,154.5,182.669,154.5Z" transform="translate(-169.359 -119.483)" fill="#344154"/>
            </g>
          </g>
          <g id="Grupo_87676" data-name="Grupo 87676" transform="translate(69.313 25.531)">
            <g id="Grupo_87675" data-name="Grupo 87675">
              <path id="Trazado_141920" data-name="Trazado 141920" d="M189.955,146.56l-.232,3.5-.614,9.384-.094,1.429c-.188,7.447-11.2,4.362-11.766-.094l1.811-7.409,1.329-5.429.464-1.905.789-3.235Z" transform="translate(-177.249 -142.799)" fill="#ffbf9d"/>
            </g>
          </g>
          <g id="Grupo_87678" data-name="Grupo 87678" transform="translate(71.124 28.766)">
            <g id="Grupo_87677" data-name="Grupo 87677">
              <path id="Trazado_141921" data-name="Trazado 141921" d="M189.566,149.777l-.614,9.384c-2.77-.571-6.971-1.861-9.1-4.751-.332-.446-.646-.884-.947-1.323l1.329-5.429.464-1.905Z" transform="translate(-178.903 -145.753)" fill="#f0b4b4"/>
            </g>
          </g>
          <g id="Grupo_87680" data-name="Grupo 87680" transform="translate(67.209 12.966)">
            <g id="Grupo_87679" data-name="Grupo 87679">
              <path id="Trazado_141922" data-name="Trazado 141922" d="M194.114,131.727a2.8,2.8,0,0,1,4.207,2.321c.378,7.64.03,20.044-5.951,22.069-8.745,2.96-14.992-8.6-14.992-8.6s-3.748-5.35-1.11-7.182,5.136,2.673,5.136,2.673C181.837,134.521,188.883,134.963,194.114,131.727Z" transform="translate(-175.327 -131.324)" fill="#ffbf9d"/>
            </g>
          </g>
        </g>
        <path id="Trazado_141923" data-name="Trazado 141923" d="M192.082,145.73a3.67,3.67,0,0,0,3.035-.562,23.842,23.842,0,0,1-3.249-5.53Z" transform="translate(-106.547 -117.568)" fill="#ff9a6c"/>
        <path id="Trazado_141924" data-name="Trazado 141924" d="M187.859,138.818c.422,0,.787.6.8,1.18s-.346,1.095-.734,1.111-.728-.531-.8-1.174S187.428,138.813,187.859,138.818Z" transform="translate(-106.999 -117.646)" fill="#344154"/>
        <path id="Trazado_141925" data-name="Trazado 141925" d="M194.474,138.51c.43.005.78.523.794,1.172s-.308,1.18-.728,1.169-.776-.531-.792-1.178S194.055,138.5,194.474,138.51Z" transform="translate(-106.368 -117.675)" fill="#344154"/>
        <path id="Trazado_141926" data-name="Trazado 141926" d="M193.393,136.1a.387.387,0,0,0,.328.145,3.2,3.2,0,0,1,2.672.845.365.365,0,0,0,.514.053l.01-.009h0a.388.388,0,0,0,.031-.535h0a3.92,3.92,0,0,0-3.33-1.054.389.389,0,0,0-.337.423A.509.509,0,0,0,193.393,136.1Z" transform="translate(-106.413 -117.961)" fill="#344154"/>
        <path id="Trazado_141927" data-name="Trazado 141927" d="M194.266,148.534a.388.388,0,0,0-.358-.023,3.2,3.2,0,0,1-2.8.124.365.365,0,0,0-.5.127l-.007.011h0a.389.389,0,0,0,.154.515h0a3.92,3.92,0,0,0,3.49-.154.388.388,0,0,0,.172-.512A.5.5,0,0,0,194.266,148.534Z" transform="translate(-106.671 -116.729)" fill="#344154"/>
        <path id="Trazado_141928" data-name="Trazado 141928" d="M185.968,137.78a.386.386,0,0,0,.344-.087,3.209,3.209,0,0,1,2.617-.988.365.365,0,0,0,.438-.273l0-.011h0a.39.39,0,0,0-.309-.44h0a3.881,3.881,0,0,0-3.284,1.192.38.38,0,0,0,0,.538A.362.362,0,0,0,185.968,137.78Z" transform="translate(-107.136 -117.918)" fill="#344154"/>
      </g>
      <g id="freepik--speech-bubble--inject-3" transform="translate(7.765 9.501)">
        <path id="Trazado_105190" data-name="Trazado 105190" d="M906.256,3125.146l14.565-2.23a44.618,44.618,0,1,0-11.557-11.04h0Z" transform="translate(-900.596 -3040.942)" fill="#6595bf"/>
        <path id="Trazado_105191" data-name="Trazado 105191" d="M906.227,3125.128l.175-.835.551-2.507c.494-2.257,1.228-5.591,2.173-9.919a.091.091,0,0,1,.106-.075h0l-.133.125a45.132,45.132,0,0,1-4.888-8.515,45.537,45.537,0,0,1-3.636-18.693,50.377,50.377,0,0,1,.836-7.4,44.571,44.571,0,0,1,56.54-34.5,46.193,46.193,0,0,1,9.886,4.179l2.282,1.487,1.153.752c.376.258.719.56,1.078.836l2.164,1.754c.71.585,1.337,1.263,2.014,1.9a41.831,41.831,0,0,1,3.668,4.02l.443.51.393.552.769,1.111c.51.744,1.069,1.454,1.521,2.223s.878,1.556,1.321,2.332c.217.385.443.769.651,1.162l.536,1.219,1.077,2.416c.335.836.568,1.672.836,2.507a44.689,44.689,0,0,1-28.566,56.377q-1.729.566-3.5.99l-1.854.417-.919.2-.928.108c-1.229.143-2.432.31-3.619.427a61.25,61.25,0,0,1-6.919-.068,44.413,44.413,0,0,1-20.716-7.221h.067l-10.863,1.6-2.774.409-.928.125.961-.168,2.791-.442,10.805-1.672h.058a44.854,44.854,0,0,0,8.8,4.471,44.172,44.172,0,0,0,11.841,2.641,58.515,58.515,0,0,0,6.869.051c1.178-.126,2.381-.285,3.6-.434l.919-.109.9-.21,1.847-.417a44.29,44.29,0,0,0,32.753-53.388q-.426-1.781-1-3.52c-.284-.836-.526-1.672-.836-2.507l-1.07-2.4-.535-1.2c-.2-.385-.426-.761-.644-1.154q-.652-1.134-1.3-2.3c-.452-.761-1-1.464-1.5-2.2l-.769-1.095-.384-.551-.443-.509a41.844,41.844,0,0,0-3.7-3.987c-.668-.626-1.3-1.295-2-1.88l-2.131-1.671c-.36-.275-.7-.577-1.07-.835l-1.145-.744-2.265-1.47a46.077,46.077,0,0,0-9.777-4.18,43.889,43.889,0,0,0-38.047,6.227,44.484,44.484,0,0,0-12.217,12.91,44.015,44.015,0,0,0-5.849,15.041,49.608,49.608,0,0,0-.836,7.356,44.021,44.021,0,0,0,.368,6.884,44.593,44.593,0,0,0,8.114,20.149.1.1,0,0,1,0,.134.093.093,0,0,1-.109,0h0l.142-.05c-.986,4.3-1.746,7.6-2.264,9.844-.259,1.111-.46,1.963-.593,2.549A3.552,3.552,0,0,1,906.227,3125.128Z" transform="translate(-900.567 -3040.924)" fill="#5e6178"/>
        <g id="Grupo_56872" data-name="Grupo 56872" transform="translate(20.549 11.908)">
          <path id="Trazado_105192" data-name="Trazado 105192" d="M925.157,3066.832a11.148,11.148,0,0,1,3.37-8.425,12.218,12.218,0,0,1,8.831-3.234,12.414,12.414,0,0,1,8.909,3.2,11.361,11.361,0,0,1,3.37,8.657v2.789a11,11,0,0,1-3.37,8.4,13.912,13.912,0,0,1-17.721-.019,11.275,11.275,0,0,1-3.389-8.619Zm7.437,2.983a5.217,5.217,0,0,0,1.336,3.737,4.6,4.6,0,0,0,3.505,1.415,4.391,4.391,0,0,0,3.447-1.434,5.55,5.55,0,0,0,1.278-3.836v-2.866a5.439,5.439,0,0,0-1.278-3.758,4.98,4.98,0,0,0-6.972-.018,5.543,5.543,0,0,0-1.317,3.931Zm7.049,38.346-5.462-2.943,27.541-44.081,5.461,2.944Zm12.472-9.606a11.006,11.006,0,0,1,3.409-8.424,12.388,12.388,0,0,1,8.832-3.2,12.524,12.524,0,0,1,8.889,3.157q3.389,3.157,3.39,8.7v2.789a11.094,11.094,0,0,1-3.331,8.387,12.277,12.277,0,0,1-8.87,3.195,12.423,12.423,0,0,1-8.947-3.215,11.233,11.233,0,0,1-3.37-8.522Zm7.438,3.021a5.179,5.179,0,0,0,1.394,3.642,4.545,4.545,0,0,0,3.485,1.509q4.725,0,4.726-5.228v-2.944a5.272,5.272,0,0,0-1.317-3.739,5,5,0,0,0-6.972,0,5.438,5.438,0,0,0-1.317,3.855Z" transform="translate(-925.157 -3055.173)" fill="#f2e9e4"/>
        </g>
      </g>
      <g id="Grupo_87684" data-name="Grupo 87684" transform="translate(345.837 48.392)">
        <g id="Grupo_76764" data-name="Grupo 76764" transform="translate(26.965 0) rotate(20)">
          <g id="Grupo_74769" data-name="Grupo 74769" transform="translate(0 0)">
            <g id="Grupo_74760" data-name="Grupo 74760" transform="translate(0 0)">
              <g id="Grupo_74747" data-name="Grupo 74747">
                <g id="Grupo_74746" data-name="Grupo 74746">
                  <g id="Grupo_74745" data-name="Grupo 74745">
                    <g id="Grupo_74744" data-name="Grupo 74744">
                      <g id="Grupo_74728" data-name="Grupo 74728" transform="translate(0 0)">
                        <g id="Grupo_74727" data-name="Grupo 74727" transform="translate(0 0)">
                          <g id="Grupo_74726" data-name="Grupo 74726">
                            <g id="Grupo_74725" data-name="Grupo 74725">
                              <path id="Trazado_110751" data-name="Trazado 110751" d="M78.349,33.224A39.417,39.417,0,1,1,33.228.5,39.417,39.417,0,0,1,78.349,33.224Z" fill="#d9a171"/>
                            </g>
                          </g>
                        </g>
                      </g>
                      <g id="Grupo_74731" data-name="Grupo 74731" transform="translate(0 0.496)" opacity="0.1">
                        <g id="Grupo_74730" data-name="Grupo 74730" transform="translate(0 0)">
                          <g id="Grupo_74729" data-name="Grupo 74729" transform="translate(0 0)">
                            <path id="Trazado_110752" data-name="Trazado 110752" d="M33.228,0A39.41,39.41,0,0,0,.5,45.121s27.547-3.132,32.376-15.192S33.228,0,33.228,0Z" fill="#fff"/>
                          </g>
                        </g>
                      </g>
                      <g id="Grupo_74734" data-name="Grupo 74734" transform="translate(8.738 8.933)">
                        <g id="Grupo_74733" data-name="Grupo 74733" transform="translate(0 0)">
                          <g id="Grupo_74732" data-name="Grupo 74732">
                            <path id="Trazado_110753" data-name="Trazado 110753" d="M59.561,25.259A29.964,29.964,0,1,1,25.259.377,29.963,29.963,0,0,1,59.561,25.259Z" fill="#636363"/>
                          </g>
                        </g>
                      </g>
                      <g id="Grupo_74740" data-name="Grupo 74740" transform="translate(10.569 10.373)">
                        <g id="Grupo_74739" data-name="Grupo 74739" transform="translate(0 0)">
                          <g id="Grupo_74738" data-name="Grupo 74738">
                            <path id="Trazado_110755" data-name="Trazado 110755" d="M58.763,24.919A29.563,29.563,0,1,1,24.921.373,29.561,29.561,0,0,1,58.763,24.919Z" fill="#8e8e8e"/>
                          </g>
                        </g>
                      </g>
                    </g>
                  </g>
                </g>
              </g>
              <g id="Grupo_74759" data-name="Grupo 74759" transform="translate(27.236 20.815)">
                <g id="Grupo_74751" data-name="Grupo 74751" transform="translate(1.417 0)">
                  <g id="Grupo_74750" data-name="Grupo 74750" transform="translate(0 0)">
                    <g id="Grupo_74749" data-name="Grupo 74749">
                      <g id="Grupo_74748" data-name="Grupo 74748">
                        <path id="Trazado_110757" data-name="Trazado 110757" d="M12.244,16.41,11.053,8.94l.039-.008a15.534,15.534,0,0,1,4.135.4,12.55,12.55,0,0,1,2.044.877l.065-.245.724-2.872.164-.662L16.67,5.245l-.593.391a14.228,14.228,0,0,0-5.659-.7L9.763.827,8.32,0l.165,1.03-1.753.279L7.4,5.494C1.711,6.968-.506,10.7.1,14.473c.819,5.142,5.437,5.774,9.7,6.118l1.18,7.4a14.336,14.336,0,0,1-7.849-1.635l-1.072,4c2.191,1.359,5.9,1.983,9.557,1.627l.494,3.1-1.44.257,1.6.75,3.032-.482-.658-4.147c5.716-1.516,7.971-5.215,7.37-8.99C21.2,17.337,16.509,16.755,12.244,16.41Zm-3.159-.295c-2.247-.287-3.967-.85-4.25-2.627-.26-1.627.64-3.136,3.2-3.963Zm1.967-7.183ZM14,27.437l-1.041-6.551c2.32.276,4.085.869,4.372,2.68C17.582,25.159,16.635,26.6,14,27.437Z" fill="#d9a171"/>
                      </g>
                    </g>
                  </g>
                </g>
                <g id="Grupo_74755" data-name="Grupo 74755" transform="translate(1.417 0)" opacity="0.3">
                  <g id="Grupo_74754" data-name="Grupo 74754" transform="translate(0 0)">
                    <g id="Grupo_74753" data-name="Grupo 74753">
                      <g id="Grupo_74752" data-name="Grupo 74752">
                        <path id="Trazado_110758" data-name="Trazado 110758" d="M12.244,16.41,11.053,8.94l.039-.008a15.534,15.534,0,0,1,4.135.4,12.55,12.55,0,0,1,2.044.877l.065-.245.724-2.872.164-.662L16.67,5.245l-.593.391a14.228,14.228,0,0,0-5.659-.7L9.763.827,8.32,0l.165,1.03-1.753.279L7.4,5.494C1.711,6.968-.506,10.7.1,14.473c.819,5.142,5.437,5.774,9.7,6.118l1.18,7.4a14.336,14.336,0,0,1-7.849-1.635l-1.072,4c2.191,1.359,5.9,1.983,9.557,1.627l.494,3.1-1.44.257,1.6.75,3.032-.482-.658-4.147c5.716-1.516,7.971-5.215,7.37-8.99C21.2,17.337,16.509,16.755,12.244,16.41Zm-3.159-.295c-2.247-.287-3.967-.85-4.25-2.627-.26-1.627.64-3.136,3.2-3.963Zm1.967-7.183ZM14,27.437l-1.041-6.551c2.32.276,4.085.869,4.372,2.68C17.582,25.159,16.635,26.6,14,27.437Z" fill="#d9a171"/>
                      </g>
                    </g>
                  </g>
                </g>
                <g id="Grupo_74758" data-name="Grupo 74758" transform="translate(0 0.008)">
                  <g id="Grupo_74757" data-name="Grupo 74757" transform="translate(0 0)">
                    <g id="Grupo_74756" data-name="Grupo 74756">
                      <path id="Trazado_110759" data-name="Trazado 110759" d="M14.641,30.649l.658,4.143-3.033.486-.654-4.108c-3.664.352-7.367-.272-9.556-1.631l1.068-4a14.392,14.392,0,0,0,7.853,1.631L9.8,19.768C5.529,19.423.915,18.791.1,13.646c-.6-3.775,1.612-7.5,7.3-8.978L6.727.486,9.763,0l.655,4.108A16.035,16.035,0,0,1,18.29,5.173l-.923,3.978a15.543,15.543,0,0,0-6.313-1.045l1.191,7.477c4.269.345,8.952.931,9.771,6.072C22.616,25.43,20.357,29.129,14.641,30.649ZM9.085,15.288,8.037,8.7c-2.561.823-3.461,2.331-3.2,3.963C5.119,14.442,6.839,15,9.085,15.288Zm8.243,7.455c-.287-1.811-2.052-2.4-4.372-2.68L14,26.613C16.636,25.775,17.586,24.335,17.329,22.743Z" fill="#d9a171"/>
                    </g>
                  </g>
                </g>
              </g>
            </g>
            <g id="Grupo_74764" data-name="Grupo 74764" transform="translate(28.046 29.942)">
              <g id="Grupo_74763" data-name="Grupo 74763" transform="translate(0 0)">
                <g id="Grupo_74762" data-name="Grupo 74762">
                  <g id="Grupo_74761" data-name="Grupo 74761">
                    <path id="Trazado_110760" data-name="Trazado 110760" d="M2.307,7.222a2.518,2.518,0,0,1-1-.72A4.739,4.739,0,0,1,.032,3.838a4.711,4.711,0,0,1,.6-2.9A2.487,2.487,0,0,1,1.422,0c.039.035-.283.375-.608,1.034A4.955,4.955,0,0,0,.323,3.8,5.011,5.011,0,0,0,1.464,6.364C1.943,6.924,2.337,7.18,2.307,7.222Z" fill="#fff"/>
                  </g>
                </g>
              </g>
            </g>
            <g id="Grupo_74768" data-name="Grupo 74768" transform="translate(34.723 22.343)">
              <g id="Grupo_74767" data-name="Grupo 74767" transform="translate(0 0)">
                <g id="Grupo_74766" data-name="Grupo 74766">
                  <g id="Grupo_74765" data-name="Grupo 74765">
                    <path id="Trazado_110761" data-name="Trazado 110761" d="M.435,2.435A2.726,2.726,0,0,1,.1,1.241,2.718,2.718,0,0,1,.048,0,2.727,2.727,0,0,1,.389,1.195,2.688,2.688,0,0,1,.435,2.435Z" fill="#fff"/>
                  </g>
                </g>
              </g>
            </g>
          </g>
        </g>
        <g id="Grupo_76765" data-name="Grupo 76765" transform="translate(64.665 50.526)">
          <path id="Trazado_9870" data-name="Trazado 9870" d="M397.372,2579.916a1.854,1.854,0,0,1-1.854-1.853v-23.041a1.854,1.854,0,0,1,1.854-1.852h4.465l-9.845-11.62-9.849,11.62h4.465a1.854,1.854,0,0,1,1.852,1.852v23.041a1.852,1.852,0,1,1-3.7,0v-21.189h-6.611a1.852,1.852,0,0,1-1.413-3.05l13.847-16.339a1.848,1.848,0,0,1,1.413-.657h0a1.849,1.849,0,0,1,1.414.657l13.843,16.339a1.853,1.853,0,0,1-1.415,3.05h-6.609v21.189A1.854,1.854,0,0,1,397.372,2579.916Z" transform="translate(-376.293 -2536.828)" fill="#344154"/>
        </g>
      </g>
      <g id="Grupo_87685" data-name="Grupo 87685" transform="translate(109.323 0)">
        <g id="Grupo_82610" data-name="Grupo 82610">
          <g id="Grupo_82606" data-name="Grupo 82606">
            <path id="Trazado_139899" data-name="Trazado 139899" d="M655.441,116.169a49.156,49.156,0,1,1-55.7-41.462A49.1,49.1,0,0,1,655.441,116.169Z" transform="translate(-557.635 -74.188)" fill="#f5f5f5"/>
          </g>
          <g id="Grupo_82607" data-name="Grupo 82607" transform="translate(11.697 11.67)">
            <path id="Trazado_139900" data-name="Trazado 139900" d="M637.878,111.877a37.46,37.46,0,1,1-42.446-31.6A37.416,37.416,0,0,1,637.878,111.877Z" transform="translate(-563.345 -79.884)" fill="#ebebeb"/>
          </g>
          <g id="Grupo_82609" data-name="Grupo 82609" transform="translate(11.017 10.248)">
            <g id="Grupo_82608" data-name="Grupo 82608">
              <path id="Trazado_139901" data-name="Trazado 139901" d="M638.048,111.445c-.223.041-.617-1.563-1.627-4.317a39.764,39.764,0,0,0-5.927-10.74,38.266,38.266,0,0,0-5.888-6.023,37.546,37.546,0,0,0-8.185-5.06,36.693,36.693,0,0,0-10.185-2.932,36.626,36.626,0,0,0-5.6-.328,36.595,36.595,0,0,0-11.35,2.014,36.717,36.717,0,0,0-5.151,2.235,36.8,36.8,0,0,0-8.553,6.259,37.62,37.62,0,0,0-5.941,7.57,38.368,38.368,0,0,0-3.452,7.681,39.72,39.72,0,0,0-1.864,12.122c0,2.932.182,4.573-.043,4.612-.164.033-.724-1.549-1.074-4.552a34.6,34.6,0,0,1,1.033-12.749,37.515,37.515,0,0,1,9.467-16.544,38.034,38.034,0,0,1,9.1-6.869,37.968,37.968,0,0,1,5.538-2.454A38.414,38.414,0,0,1,600.589,79.2a38.48,38.48,0,0,1,6.046.4,36.813,36.813,0,0,1,5.7,1.287,36.222,36.222,0,0,1,5.208,2.032,37.535,37.535,0,0,1,14.589,12.272,34.707,34.707,0,0,1,5.362,11.616C638.2,109.741,638.214,111.417,638.048,111.445Z" transform="translate(-563.013 -79.19)" fill="#e0e0e0"/>
            </g>
          </g>
        </g>
        <g id="Grupo_82613" data-name="Grupo 82613" transform="translate(32.517 22.92)">
          <g id="Grupo_82612" data-name="Grupo 82612">
            <g id="Grupo_82611" data-name="Grupo 82611">
              <path id="Trazado_139902" data-name="Trazado 139902" d="M597.557,133.008l1.032,6.443-5.753.92-1-6.269c-5.751.565-11.5-.342-15.06-2.309l2.038-7.525a23.561,23.561,0,0,0,11.815,2.3l-1.538-9.609c-6.634-.529-14.107-1.514-15.425-9.742-.975-6.1,2.616-12.043,11.539-14.532l-1.023-6.388,5.753-.92,1,6.271a26.33,26.33,0,0,1,12.239,1.639l-1.743,7.537a23.849,23.849,0,0,0-9.281-1.584l1.567,9.781c6.623.471,13.983,1.479,15.281,9.588C609.958,124.592,606.414,130.47,597.557,133.008ZM587.735,108.5l-1.311-8.168c-2.936,1.178-3.877,3.04-3.573,4.939C583.172,107.284,585.074,108.1,587.735,108.5Zm12.114,12.28c-.323-2.014-2.166-2.837-4.777-3.307l1.27,7.939C599.118,124.321,600.144,122.623,599.849,120.781Z" transform="translate(-573.507 -85.375)" fill="#e0e0e0"/>
            </g>
          </g>
        </g>
      </g>
    </g>
  </g>
</svg>
