<svg xmlns="http://www.w3.org/2000/svg" width="590" height="590" viewBox="0 0 590 590">
  <g id="Grupo_89212" data-name="Grupo 89212" transform="translate(-8493.988 -1148.689)">
    <rect id="Rectángulo_31837" data-name="Rectángulo 31837" width="590" height="590" transform="translate(8493.988 1148.689)" fill="#344154" opacity="0"/>
    <g id="Grupo_89211" data-name="Grupo 89211" transform="translate(8572.348 1199.062)">
      <g id="freepik--background-complete--inject-49">
        <path id="Trazado_142714" data-name="Trazado 142714" d="M8651.088,1508.733c-2.092-2.2-5.177-3.032-8.019-4.077a43.084,43.084,0,0,1-19.74-66.056l-.429-2.206c-.973-10.309-13.414-17.689-22.927-13.591s-12.735,18.16-5.94,25.981c-11.155.92-18.537,13.592-16.957,24.727s9.681,20.177,18.714,26.8a88.6,88.6,0,0,0,51.449,17,7.139,7.139,0,0,0,3.66-.658C8653.513,1515.111,8653.18,1510.939,8651.088,1508.733Z" transform="translate(-8557.471 -1150.014)" fill="#aed3f2"/>
        <path id="Trazado_142715" data-name="Trazado 142715" d="M8909.034,1462.176c2.561-4.182,2.927-9.775.325-13.916s-8.313-6.22-12.756-4.181a9.339,9.339,0,0,0-15.851-9.881c-2.97,4.589-1.4,10.748,1.15,15.588s6.053,9.41,6.89,14.773-1.255,11.167-4.56,15.684-7.7,8.05-12.064,11.5l-.826.794a29.965,29.965,0,0,0,24.047-2.091c4.1-2.269,7.894-6.023,8.166-10.7.146-2.614-.825-5.228-.429-7.821C8903.661,1468.229,8907.007,1465.468,8909.034,1462.176Z" transform="translate(-8504.533 -1148.549)" fill="#aed3f2"/>
        <path id="Trazado_142716" data-name="Trazado 142716" d="M8723.531,1607.212c-4.066-.5-8.146-2.279-10.537-5.6-1.527-2.092-2.27-4.726-3.6-6.984s-3.639-4.3-6.273-4.047c-4.035.4-6.766,5.981-10.707,5-2.361-.6-3.491-3.377-3.5-5.813s.69-4.872.388-7.318c-.848-6.806-9.588-10.152-16.112-8.019s-16.415,9.984-20.67,15.369c4.476,7.434,13.644,10.319,22.05,12.431q21.171,5.3,42.709,9c3.366.575,6.807,1.129,10.173.6s6.724-2.321,8.28-5.353C8731.739,1607.107,8727.557,1607.724,8723.531,1607.212Z" transform="translate(-8543.869 -1122.665)" fill="#aed3f2"/>
        <path id="Trazado_142717" data-name="Trazado 142717" d="M8861.586,1563.464c-1.046-5.814-6.84-10.937-12.547-9.6,4.768-3.931,4.8-11.835,1.046-16.728s-10.331-7.016-16.509-6.827-12.108,2.352-17.837,4.653c2.813-3.576-1.308-9.16-5.845-9.41s-8.6,2.583-12.3,5.228-7.936,5.4-12.431,4.694l4.183,1.693c10.088,1.527,20.262,3.879,28.993,9.149s15.932,13.863,17.438,23.953-3.806,21.381-13.372,24.914a40.576,40.576,0,0,0,33.947-15.348C8859.954,1575.173,8862.63,1569.266,8861.586,1563.464Z" transform="translate(-8520.024 -1131.338)" fill="#aed3f2"/>
        <path id="Trazado_142718" data-name="Trazado 142718" d="M8569,1432.862a173.591,173.591,0,0,1,0-19.479,175.468,175.468,0,0,1,0,19.479Z" transform="translate(-8558.939 -1151.5)" fill="#e0e0e0"/>
        <path id="Trazado_142719" data-name="Trazado 142719" d="M8580.554,1421.654a185.921,185.921,0,0,1-20.128,0,186.672,186.672,0,0,1,20.128,0Z" transform="translate(-8560.426 -1150.068)" fill="#e0e0e0"/>
        <path id="Trazado_142720" data-name="Trazado 142720" d="M8898.216,1517.707a175.448,175.448,0,0,1,0-19.478,174.193,174.193,0,0,1,0,19.478Z" transform="translate(-8499.758 -1136.248)" fill="#e0e0e0"/>
        <path id="Trazado_142721" data-name="Trazado 142721" d="M8909.772,1506.527a180,180,0,0,1-20.139,0,186.2,186.2,0,0,1,20.139,0Z" transform="translate(-8501.245 -1134.811)" fill="#e0e0e0"/>
        <path id="Trazado_142722" data-name="Trazado 142722" d="M8848.137,1234.44a174.818,174.818,0,0,1,0-19.478,174.818,174.818,0,0,1,0,19.478Z" transform="translate(-8508.761 -1187.169)" fill="#e0e0e0"/>
        <path id="Trazado_142723" data-name="Trazado 142723" d="M8859.691,1223.258a186.065,186.065,0,0,1-20.136,0,186.985,186.985,0,0,1,20.136,0Z" transform="translate(-8510.249 -1185.732)" fill="#e0e0e0"/>
        <circle id="Elipse_4247" data-name="Elipse 4247" cx="5.949" cy="5.949" r="5.949" transform="translate(15.317 183.93)" fill="#e0e0e0"/>
        <path id="Trazado_142724" data-name="Trazado 142724" d="M8781.533,1568.064a5.959,5.959,0,1,1-5.967-5.948h.01a5.946,5.946,0,0,1,5.957,5.938Z" transform="translate(-8522.821 -1124.763)" fill="#e0e0e0"/>
        <path id="Trazado_142725" data-name="Trazado 142725" d="M8828.466,1472.743a5.929,5.929,0,1,1,0-.021Z" transform="translate(-8514.382 -1141.897)" fill="#e0e0e0"/>
        <path id="Trazado_142726" data-name="Trazado 142726" d="M8678.6,1221.576a5.949,5.949,0,1,1-5.949-5.95,5.949,5.949,0,0,1,5.949,5.95Z" transform="translate(-8541.322 -1187.05)" fill="#e0e0e0"/>
        <circle id="Elipse_4248" data-name="Elipse 4248" cx="2.98" cy="2.98" r="2.98" transform="translate(159.515 383.582)" fill="#e0e0e0"/>
        <path id="Trazado_142727" data-name="Trazado 142727" d="M8640.738,1506.932a2.98,2.98,0,1,1-2.989-2.969h.01a2.968,2.968,0,0,1,2.979,2.959Z" transform="translate(-8547.06 -1135.217)" fill="#e0e0e0"/>
        <path id="Trazado_142728" data-name="Trazado 142728" d="M8702.915,1226.21a2.98,2.98,0,1,1-2.979-2.98A2.98,2.98,0,0,1,8702.915,1226.21Z" transform="translate(-8535.883 -1185.683)" fill="#e0e0e0"/>
        <path id="Trazado_142729" data-name="Trazado 142729" d="M8814.011,1362.632a2.98,2.98,0,1,1-2.979-2.979,2.98,2.98,0,0,1,2.979,2.979Z" transform="translate(-8515.913 -1161.159)" fill="#e0e0e0"/>
        <path id="Trazado_142730" data-name="Trazado 142730" d="M8571.251,1218.35s-6.629,3.419,2.656,17.3,15.367,20.575,15.367,20.575,1.746,3.273-1.045,4.182-9.294.617-10.162,4.3,2.164,6.964,7.926,9.41,18.118,8.009,19.247,8.532,2.311,1.976.48,2.886-15.943,4.088-14.029,10.705,19.038,10.644,20.909,11.125,2.384,1.181,2.354,2.174-4.884,1.621-8.856,2.688-8.365,3.011-6.984,6.733,12.1,10.623,35.987,10.141l11.051-.941,4.894-10.016c9.169-22.059,6.639-34.5,3.69-37.21s-6.368.733-8.814,4.047-4.8,7.6-5.739,7.318-1.4-1.045-1.161-2.99,2.729-19.321-2.729-23.514-13.592,7.789-15.087,9.169-2.437-.3-2.509-1.516-.868-14.93-.994-21.119-1.934-10.278-5.812-10.832-5.875,5.6-7.716,7.894-4.256-.5-4.256-.5-4.015-8.113-13.592-21.82-15.212-8.636-15.212-8.636" transform="translate(-8558.892 -1186.71)" fill="#5e6178"/>
        <path id="Trazado_142731" data-name="Trazado 142731" d="M8645.408,1328.647c-6.965-10.089-19.028-28.228-29.484-43.775s-19.864-29.567-26.817-39.73l-8.2-11.96c-.963-1.4-1.705-2.5-2.228-3.251-.24-.376-.438-.66-.575-.858a1.716,1.716,0,0,1-.178-.3l.21.282.605.836,2.259,3.221c1.976,2.8,4.8,6.879,8.28,11.929,6.983,10.089,16.489,24.088,26.933,39.646s22.49,33.7,29.4,43.828" transform="translate(-8557.28 -1184.687)" fill="#e0e0e0"/>
        <path id="Trazado_142732" data-name="Trazado 142732" d="M8584.31,1258.1a3.553,3.553,0,0,1,.795.126c.5.093,1.234.261,2.091.48,1.788.419,4.255,1.047,6.953,1.84l6.92,2,2.093.6a2.683,2.683,0,0,1,.763.251,3.816,3.816,0,0,1-.8-.126c-.5-.094-1.232-.261-2.089-.48-1.79-.451-4.246-1.13-6.954-1.9l-6.909-1.945-2.093-.585A3.814,3.814,0,0,1,8584.31,1258.1Z" transform="translate(-8556.132 -1179.414)" fill="#e0e0e0"/>
        <path id="Trazado_142733" data-name="Trazado 142733" d="M8601.538,1265.4c-.084,0,1.045-5.155,2.509-11.5s2.761-11.418,2.844-11.4-1.044,5.165-2.509,11.5S8601.632,1265.423,8601.538,1265.4Z" transform="translate(-8553.036 -1182.218)" fill="#e0e0e0"/>
        <path id="Trazado_142734" data-name="Trazado 142734" d="M8614.211,1285.557a3.128,3.128,0,0,1,.364-.731l1.048-1.945c.919-1.641,2.184-3.91,3.491-6.461s2.4-4.9,3.137-6.607l.932-2.029a3.693,3.693,0,0,1,.374-.721,3.418,3.418,0,0,1-.249.774c-.188.5-.471,1.2-.837,2.091-.723,1.735-1.8,4.109-3.138,6.67s-2.6,4.82-3.575,6.43c-.49.806-.9,1.443-1.192,1.882A4.1,4.1,0,0,1,8614.211,1285.557Z" transform="translate(-8550.759 -1177.803)" fill="#e0e0e0"/>
        <path id="Trazado_142735" data-name="Trazado 142735" d="M8597.887,1282.767a2.987,2.987,0,0,1,.753-.073l2.092-.084c1.746,0,4.182-.094,6.795-.125s5.05,0,6.786,0h2.091a3.2,3.2,0,0,1,.752,0,3.158,3.158,0,0,1-.752.073l-2.091.084c-1.746.052-4.183.1-6.8.136s-5.049,0-6.784,0h-2.092A3.482,3.482,0,0,1,8597.887,1282.767Z" transform="translate(-8553.693 -1175.035)" fill="#e0e0e0"/>
        <path id="Trazado_142736" data-name="Trazado 142736" d="M8606.747,1302.618a5.175,5.175,0,0,1,.964-.084l2.634-.115c2.226-.084,5.3-.167,8.7-.241s6.473-.116,8.7-.137h2.646a6.508,6.508,0,0,1,.961,0,3.753,3.753,0,0,1-.961.094l-2.636.105c-2.226.084-5.3.167-8.7.241s-6.472.125-8.709.135h-2.634A5.455,5.455,0,0,1,8606.747,1302.618Z" transform="translate(-8552.098 -1171.518)" fill="#e0e0e0"/>
        <path id="Trazado_142737" data-name="Trazado 142737" d="M8627.1,1305.6a6.052,6.052,0,0,1,.439-.941l1.3-2.509c1.1-2.091,2.592-5.049,4.181-8.365s2.907-6.273,3.857-8.468l1.14-2.593a6.47,6.47,0,0,1,.451-.93,6.229,6.229,0,0,1-.325.983c-.24.626-.585,1.526-1.045,2.634-.9,2.206-2.206,5.227-3.784,8.531s-3.138,6.21-4.244,8.3c-.587,1.045-1.048,1.882-1.4,2.456A5.756,5.756,0,0,1,8627.1,1305.6Z" transform="translate(-8548.44 -1175.156)" fill="#e0e0e0"/>
        <path id="Trazado_142738" data-name="Trazado 142738" d="M8876.974,1399.693c-11.784-10.277-12.9-27.11-10.79-41.915.345-2.477.354-5.122,1.777-7.172s4.328-3.241,6.43-1.955c1.746,1.045,2.32,3.293,3.137,5.228a14.644,14.644,0,0,0,5.228,6.178c1.5.994,3.4,1.7,5.05,1.047,2.269-.942,2.834-3.869,3.084-6.347q.71-6.9,1.4-13.8a23.014,23.014,0,0,1,1.538-7.245,7.684,7.684,0,0,1,5.362-4.653c2.416-.407,5.176,1.266,5.406,3.733a21.911,21.911,0,0,1-.263,3.074,2.6,2.6,0,0,0,1.256,2.6,2.979,2.979,0,0,0,2.833-.837,32.921,32.921,0,0,0,6.849-8.26,45.649,45.649,0,0,1,6.481-8.573c2.6-2.467,6.033-4.275,9.587-4.1s7.078,2.771,7.6,6.274-1.893,6.89-4.4,9.462a55.326,55.326,0,0,1-12.641,9.692,4.61,4.61,0,0,0-2.143,1.86c-.711,1.589.669,3.388,2.236,4.1,1.769.816,3.785.836,5.688,1.275s3.89,1.506,4.423,3.4c.742,2.634-1.651,5.049-3.922,6.555a47.329,47.329,0,0,1-14.824,6.556,16.015,16.015,0,0,0-5.457,1.966c-1.6,1.108-2.73,3.23-2.028,5.071s2.905,2.635,4.851,2.488a35.076,35.076,0,0,0,5.636-1.484c3.523-.92,7.873-.21,9.732,2.948a7.867,7.867,0,0,1,.085,6.994,18.117,18.117,0,0,1-4.393,5.7A47.816,47.816,0,0,1,8900,1401.6c-8.154,1.883-15.526,1.83-23-1.871" transform="translate(-8505.616 -1168.883)" fill="#aed3f2"/>
        <path id="Trazado_142739" data-name="Trazado 142739" d="M8879.3,1390.4a221.05,221.05,0,0,1,11.365-22.854l3.283-5.834c1.045-1.913,2.154-3.806,3.314-5.6a112.247,112.247,0,0,1,7.32-9.912c2.466-3.032,4.911-5.834,7.222-8.427s4.528-4.966,6.63-7.047a88.937,88.937,0,0,1,10.634-9.075c1.338-.961,2.4-1.683,3.135-2.153l.826-.544.293-.167a1.41,1.41,0,0,1-.26.209l-.8.576c-.712.5-1.758,1.243-3.075,2.226a94.485,94.485,0,0,0-10.519,9.158c-2.092,2.092-4.267,4.475-6.564,7.068s-4.737,5.406-7.186,8.448a111.982,111.982,0,0,0-7.224,9.89c-1.147,1.778-2.216,3.66-3.292,5.584l-3.283,5.834a229.065,229.065,0,0,0-11.343,22.792" transform="translate(-8503.104 -1168.506)" fill="#e0e0e0"/>
        <path id="Trazado_142740" data-name="Trazado 142740" d="M8894.72,1354.6a5.093,5.093,0,0,1-.126-1.047c-.062-.7-.1-1.7-.146-2.959-.082-2.488-.082-5.938-.073-9.733s0-7.246-.146-9.734c-.062-1.243-.114-2.247-.167-2.937a5.192,5.192,0,0,1,0-1.045,4.644,4.644,0,0,1,.2,1.045c.1.69.209,1.694.3,2.938.209,2.488.313,5.939.293,9.755s0,7.141-.063,9.734v2.948A5.659,5.659,0,0,1,8894.72,1354.6Z" transform="translate(-8500.456 -1167.002)" fill="#e0e0e0"/>
        <path id="Trazado_142741" data-name="Trazado 142741" d="M8926.969,1348.345a7.212,7.212,0,0,1-1.276,0h-3.481c-2.938,0-7,.146-11.5.5s-8.511.858-11.418,1.307c-1.454.209-2.624.418-3.438.553a6.874,6.874,0,0,1-1.268.168,6.069,6.069,0,0,1,1.234-.345c.806-.189,1.976-.45,3.43-.7,2.9-.533,6.942-1.045,11.427-1.443a112.031,112.031,0,0,1,11.5-.366c1.475,0,2.668.1,3.492.178A6.266,6.266,0,0,1,8926.969,1348.345Z" transform="translate(-8500.354 -1163.254)" fill="#e0e0e0"/>
        <path id="Trazado_142742" data-name="Trazado 142742" d="M8881.45,1385.5a1.922,1.922,0,0,1-.176-.408c-.105-.324-.252-.722-.42-1.2-.354-1.045-.836-2.582-1.4-4.485-1.14-3.8-2.552-9.085-4.025-14.951s-2.834-11.176-3.89-14.993c-.513-1.851-.941-3.376-1.265-4.516-.138-.492-.24-.9-.336-1.234a2.117,2.117,0,0,1-.094-.439,1.394,1.394,0,0,1,.178.418l.417,1.2c.368,1.047.849,2.583,1.413,4.475,1.14,3.806,2.54,9.1,4.016,14.962s2.831,11.166,3.889,14.992c.523,1.851.951,3.378,1.265,4.517l.345,1.222A1.275,1.275,0,0,1,8881.45,1385.5Z" transform="translate(-8504.804 -1164.103)" fill="#e0e0e0"/>
        <path id="Trazado_142743" data-name="Trazado 142743" d="M8923.291,1371.371a2.572,2.572,0,0,1-.439.126l-1.266.271-4.673.983c-3.941.826-9.41,2.028-15.38,3.357s-11.448,2.5-15.412,3.241c-1.986.366-3.585.66-4.7.826l-1.286.2a1.257,1.257,0,0,1-.45,0l.438-.126,1.267-.271,4.673-.983c3.941-.826,9.41-2.028,15.38-3.367s11.448-2.488,15.41-3.23c1.987-.376,3.587-.658,4.706-.826l1.285-.2A1.251,1.251,0,0,1,8923.291,1371.371Z" transform="translate(-8503.034 -1159.056)" fill="#e0e0e0"/>
        <path id="Trazado_142744" data-name="Trazado 142744" d="M8798.214,1245.523c1.894-10.9,7.089-26.818,13.31-35.956s15.808-16.321,26.807-17.889,23,3.66,27.916,13.519c2.646,5.3,3.136,11.406,5.06,17s6.148,11.208,12.056,11.657c5.229.408,10.276-3.366,15.42-2.362,6.714,1.306,9.3,9.565,9.337,16.393s-.939,14.418,3.262,19.8c3.43,4.412,9.316,5.928,14.053,8.887,10.258,6.4,14.638,19.6,13.592,31.647s-6.587,23.189-12.474,33.739a264.277,264.277,0,0,0-19.864-50.059c-4.758-9.117-13.445-16.865-21.13-23.692-11.8-10.455-37.7-15.484-53.374-17.407s-18.433-2.342-33.937-5.227" transform="translate(-8517.681 -1191.404)" fill="#aed3f2"/>
      </g>
      <g id="freepik--back-screens--inject-49" transform="translate(63.955 65.352)">
        <path id="Trazado_142745" data-name="Trazado 142745" d="M8726.746,1248.177c-38.757,2.813-81.078,7.946-112.109,19.865l9.807,66.317s60.137-21.527,109.078-20.032Z" transform="translate(-8614.637 -1246.551)" fill="#d9a171"/>
        <g id="Grupo_89197" data-name="Grupo 89197" transform="translate(0 1.626)" opacity="0.8">
          <path id="Trazado_142746" data-name="Trazado 142746" d="M8726.746,1248.177c-38.757,2.813-81.078,7.946-112.109,19.865l9.807,66.317s60.137-21.527,109.078-20.032Z" transform="translate(-8614.637 -1248.177)" fill="#fff" stroke="#5e6178" stroke-miterlimit="10" stroke-width="0"/>
        </g>
        <path id="Trazado_142747" data-name="Trazado 142747" d="M8722.445,1301.989l-.374.063-1.1.157-4.184.523c-1.839.219-4.088.491-6.689.867s-5.574.753-8.836,1.3a516.032,516.032,0,0,0-50.634,10.455c-6.8,1.757-13.351,3.565-19.343,5.447l-.3.084v-.3c-2.091-15.2-4.119-28.312-5.679-37.638-.792-4.621-1.431-8.365-1.87-10.885-.219-1.244-.387-2.216-.512-2.906a3.745,3.745,0,0,0-.116-.753.9.9,0,0,1,0-.262.951.951,0,0,1,.073.251,4.061,4.061,0,0,0,.168.742c.135.69.335,1.652.6,2.9.5,2.52,1.2,6.21,2.018,10.853,1.653,9.284,3.745,22.394,5.877,37.638l-.346-.209c6.012-1.9,12.546-3.722,19.373-5.479a493.616,493.616,0,0,1,50.709-10.266c3.271-.513,6.271-.858,8.855-1.2s4.862-.6,6.7-.784l4.245-.428,1.106-.094A1.36,1.36,0,0,1,8722.445,1301.989Z" transform="translate(-8613.169 -1242.963)" fill="#d9a171"/>
        <path id="Trazado_142748" data-name="Trazado 142748" d="M8723.186,1284.877s-.147-.46-.45-1.327a13.925,13.925,0,0,0-2-3.419,17.365,17.365,0,0,0-4.706-4.13c-.5-.334-1.1-.585-1.672-.888a14.953,14.953,0,0,0-1.891-.68,10.36,10.36,0,0,0-4.32-.418,8.991,8.991,0,0,0-4.39,1.725,14.837,14.837,0,0,0-3.514,3.817c-2.092,3.021-3.356,6.7-4.926,10.518a13.03,13.03,0,0,1-3.646,5.228,6.866,6.866,0,0,1-3.022,1.453,6.147,6.147,0,0,1-3.409-.4c-4.41-1.746-6.377-6.838-10.84-8.365a8.75,8.75,0,0,0-6.618.544,8.493,8.493,0,0,0-2.627,2.028,13.6,13.6,0,0,0-1.744,2.8c-.992,1.965-1.745,4.182-3.43,5.7a5.106,5.106,0,0,1-3.012,1.349,6.015,6.015,0,0,1-3.136-.669,11.347,11.347,0,0,1-4.328-4.255,37.657,37.657,0,0,1-2.29-5.228,24.768,24.768,0,0,0-2.269-4.716,9.416,9.416,0,0,0-3.461-3.22,8.991,8.991,0,0,0-7.946-.23,13.432,13.432,0,0,0-5.048,3.638,9.765,9.765,0,0,0-1.894,3.46c-.271.868-.3,1.359-.346,1.35a5.96,5.96,0,0,1,.241-1.38,9.422,9.422,0,0,1,1.828-3.565,13.62,13.62,0,0,1,5.093-3.785,9.285,9.285,0,0,1,8.249.177,9.775,9.775,0,0,1,3.639,3.325,24.829,24.829,0,0,1,2.331,4.789,37.938,37.938,0,0,0,2.29,5.134,10.8,10.8,0,0,0,4.183,4.056,5.5,5.5,0,0,0,2.873.617,4.647,4.647,0,0,0,2.709-1.234c1.548-1.411,2.3-3.544,3.293-5.542a14.19,14.19,0,0,1,1.819-2.927,9,9,0,0,1,2.791-2.154,9.277,9.277,0,0,1,7.036-.575c2.373.785,4.078,2.613,5.658,4.266a15.791,15.791,0,0,0,5.229,4.181,5.607,5.607,0,0,0,3.135.367,6.413,6.413,0,0,0,2.791-1.339,12.712,12.712,0,0,0,3.514-5.018c1.558-3.775,2.929-7.507,5.018-10.571a14.809,14.809,0,0,1,3.639-3.91,9.5,9.5,0,0,1,4.59-1.767,10.78,10.78,0,0,1,4.455.471,15.211,15.211,0,0,1,1.935.721,18.053,18.053,0,0,1,6.409,5.228,13.478,13.478,0,0,1,1.934,3.524,10.359,10.359,0,0,1,.272,1.045C8723.2,1284.745,8723.193,1284.811,8723.186,1284.877Z" transform="translate(-8612.547 -1241.974)" fill="#d9a171"/>
        <path id="Trazado_142749" data-name="Trazado 142749" d="M8621.7,1275.8c0,.146-.48.366-1.129.492s-1.2.1-1.224,0,.473-.366,1.119-.492S8621.651,1275.651,8621.7,1275.8Z" transform="translate(-8613.789 -1241.604)" fill="#d9a171"/>
        <path id="Trazado_142750" data-name="Trazado 142750" d="M8623.086,1286.025c.063.146-.313.45-.848.7s-1.045.334-1.045.2.323-.439.857-.69S8623.022,1285.92,8623.086,1286.025Z" transform="translate(-8613.457 -1239.755)" fill="#d9a171"/>
        <path id="Trazado_142751" data-name="Trazado 142751" d="M8624.907,1297.277c0,.146-.344.407-.878.6s-1.045.219-1.045.084.345-.408.877-.6S8624.856,1297.141,8624.907,1297.277Z" transform="translate(-8613.135 -1237.739)" fill="#d9a171"/>
        <path id="Trazado_142752" data-name="Trazado 142752" d="M8627.129,1308.3c0,.146-.407.419-1.046.6s-1.107.23-1.149.084.4-.407.981-.6S8627.077,1308.165,8627.129,1308.3Z" transform="translate(-8612.785 -1235.757)" fill="#d9a171"/>
        <path id="Trazado_142753" data-name="Trazado 142753" d="M8688.756,1255.7a5.344,5.344,0,0,1,1.266-.292c.836-.137,2.091-.325,3.606-.544,3.137-.439,7.537-1.045,12.819-1.662h.249v.25c.408,4.455.891,9.578,1.391,15.014v.492h-.261l-17.324,2.091h-.24v-.23c-.481-4.548-.888-8.363-1.181-11.072-.127-1.275-.22-2.289-.3-3.063a8.7,8.7,0,0,1-.062-1.045,9.425,9.425,0,0,1,.188,1.108c.115.774.252,1.809.429,3.137.346,2.7.815,6.44,1.391,10.935l-.26-.209,17.322-2.206-.24.292v-.219c-.482-5.436-.932-10.57-1.327-15.024l.272.219Z" transform="translate(-8601.32 -1245.647)" fill="#d9a171"/>
        <path id="Trazado_142754" data-name="Trazado 142754" d="M8704.41,1257.579c0,.167-2.979.157-6.618.555s-6.557,1.045-6.6.846A32.176,32.176,0,0,1,8704.41,1257.579Z" transform="translate(-8600.872 -1244.891)" fill="#d9a171"/>
        <path id="Trazado_142755" data-name="Trazado 142755" d="M8704.441,1260.877c0,.157-2.781.261-6.18.6s-6.158.753-6.189.6a24.2,24.2,0,0,1,6.137-1.14A23.805,23.805,0,0,1,8704.441,1260.877Z" transform="translate(-8600.716 -1244.3)" fill="#d9a171"/>
        <path id="Trazado_142756" data-name="Trazado 142756" d="M8700.123,1263.729a11.428,11.428,0,0,1-3.535.721,12.189,12.189,0,0,1-3.585.189,11.812,11.812,0,0,1,3.522-.722A12.316,12.316,0,0,1,8700.123,1263.729Z" transform="translate(-8600.548 -1243.765)" fill="#d9a171"/>
        <path id="Trazado_142757" data-name="Trazado 142757" d="M8888.025,1267.976c-37.953-11.564-69.977-21.443-112.916-21.172l-6.566,67.572c44.653,3.952,59.595,6.879,100.809,21.8Z" transform="translate(-8586.968 -1246.798)" fill="#d9a171"/>
        <g id="Grupo_89198" data-name="Grupo 89198" transform="translate(181.574)" opacity="0.8">
          <path id="Trazado_142758" data-name="Trazado 142758" d="M8888.025,1267.976c-37.953-11.564-69.977-21.443-112.916-21.172l-6.566,67.572c44.653,3.952,59.595,6.879,100.809,21.8Z" transform="translate(-8768.543 -1246.798)" fill="#fff" stroke="#5e6178" stroke-miterlimit="10" stroke-width="0"/>
        </g>
        <path id="Trazado_142759" data-name="Trazado 142759" d="M8799.615,1276.756l1.673-14.334a16.77,16.77,0,0,0-11.7,3.242,17.585,17.585,0,0,0-7.2,14.156,20.453,20.453,0,0,0,.054,2.091h0l16.728-1.882Z" transform="translate(-8584.48 -1244.005)" fill="#d9a171"/>
        <path id="Trazado_142760" data-name="Trazado 142760" d="M8814.075,1274.349a16.215,16.215,0,0,0-11.929-11.323l-.5-.1-.325-.073-.982-.146h-.083l-1.652,14.271-.4,3.367,15.807,5.771h0a18.029,18.029,0,0,0,.817-3.67A19.748,19.748,0,0,0,8814.075,1274.349Z" transform="translate(-8581.637 -1243.939)" fill="#d9a171"/>
        <g id="Grupo_89199" data-name="Grupo 89199" transform="translate(216.568 18.763)" opacity="0.3">
          <path id="Trazado_142761" data-name="Trazado 142761" d="M8814.075,1274.349a16.215,16.215,0,0,0-11.929-11.323l-.5-.1-.325-.073-.982-.146h-.083l-1.652,14.271-.4,3.367,15.807,5.771h0a18.029,18.029,0,0,0,.817-3.67A19.748,19.748,0,0,0,8814.075,1274.349Z" transform="translate(-8798.205 -1262.702)" fill="#344154"/>
        </g>
        <path id="Trazado_142762" data-name="Trazado 142762" d="M8799.744,1279.017l-16.729,1.882c.7,8.113,6.618,14.836,14.565,15.818s15.4-4.182,18.013-11.918l-15.807-5.771" transform="translate(-8584.368 -1241.007)" fill="#d9a171"/>
        <path id="Trazado_142763" data-name="Trazado 142763" d="M8863.286,1277.323a9.071,9.071,0,0,1-1.474-.6c-.932-.428-2.29-1.045-3.984-1.725a122.759,122.759,0,0,0-27.411-7.862c-1.8-.293-3.274-.5-4.289-.638a8.166,8.166,0,0,1-1.568-.271,10.242,10.242,0,0,1,1.6.062c1.044.073,2.5.23,4.318.471a100.659,100.659,0,0,1,27.507,7.84c1.672.753,3.011,1.4,3.919,1.883A9.3,9.3,0,0,1,8863.286,1277.323Z" transform="translate(-8576.898 -1243.307)" fill="#d9a171"/>
        <path id="Trazado_142764" data-name="Trazado 142764" d="M8862.312,1283.273a10.069,10.069,0,0,1-1.475-.606c-.93-.419-2.29-1.045-3.983-1.715a118.486,118.486,0,0,0-27.413-7.82c-1.8-.294-3.272-.5-4.286-.638a10.855,10.855,0,0,1-1.569-.271,7.626,7.626,0,0,1,1.6.062c1.046.063,2.5.22,4.317.46a100.9,100.9,0,0,1,14.032,2.948,102.643,102.643,0,0,1,13.477,4.9c1.673.753,3.011,1.4,3.922,1.882A7.806,7.806,0,0,1,8862.312,1283.273Z" transform="translate(-8577.074 -1242.231)" fill="#d9a171"/>
        <path id="Trazado_142765" data-name="Trazado 142765" d="M8861.337,1289.282a8.968,8.968,0,0,1-1.474-.6c-.931-.418-2.29-1.045-3.983-1.725a123.706,123.706,0,0,0-13.468-4.757,125.29,125.29,0,0,0-13.946-3.137c-1.8-.282-3.263-.5-4.286-.637a8.1,8.1,0,0,1-1.567-.272,10.181,10.181,0,0,1,1.6.063c1.047.073,2.5.23,4.318.471a101.057,101.057,0,0,1,14.03,2.948,99.785,99.785,0,0,1,13.479,4.9c1.673.753,3.011,1.4,3.92,1.882A8.227,8.227,0,0,1,8861.337,1289.282Z" transform="translate(-8577.25 -1241.162)" fill="#d9a171"/>
        <path id="Trazado_142766" data-name="Trazado 142766" d="M8859.214,1295.254a10.143,10.143,0,0,1-1.432-.6c-.9-.428-2.218-1.045-3.848-1.714a112.771,112.771,0,0,0-26.6-7.831c-1.757-.293-3.137-.5-4.182-.637a7.786,7.786,0,0,1-1.526-.272,8.482,8.482,0,0,1,1.558.062c.993.063,2.425.219,4.182.471a95.566,95.566,0,0,1,13.645,2.948,97.5,97.5,0,0,1,13.079,4.935c1.62.753,2.917,1.4,3.785,1.882A8.184,8.184,0,0,1,8859.214,1295.254Z" transform="translate(-8577.427 -1240.076)" fill="#d9a171"/>
        <path id="Trazado_142767" data-name="Trazado 142767" d="M8854.39,1299.808a7.938,7.938,0,0,1-1.286-.512l-3.463-1.537a84.187,84.187,0,0,0-23.857-6.806l-3.752-.523a8.423,8.423,0,0,1-1.37-.241,5.959,5.959,0,0,1,1.39,0c.9,0,2.187.168,3.775.344a72.695,72.695,0,0,1,23.974,6.838c1.452.69,2.6,1.275,3.4,1.7A6.686,6.686,0,0,1,8854.39,1299.808Z" transform="translate(-8577.6 -1239.006)" fill="#d9a171"/>
        <path id="Trazado_142768" data-name="Trazado 142768" d="M8837.771,1299.532a18.041,18.041,0,0,1-2.7-.554c-1.651-.387-3.941-.888-6.492-1.318s-4.883-.763-6.566-1.045a16.1,16.1,0,0,1-2.718-.471,12.779,12.779,0,0,1,2.761.084c1.7.146,4.046.4,6.618.847a59.432,59.432,0,0,1,6.493,1.484A12.124,12.124,0,0,1,8837.771,1299.532Z" transform="translate(-8577.846 -1237.935)" fill="#d9a171"/>
        <path id="Trazado_142769" data-name="Trazado 142769" d="M8780.587,1253.577l.878-.052,2.614-.084c2.3,0,5.646,0,9.91.219a158.554,158.554,0,0,1,34.816,6.273l.188.063v.2c-2.614,14.982-5.729,32.787-9.055,51.836-.136.774-.271,1.548-.407,2.3v.293l-.293-.073a226.021,226.021,0,0,0-23.241-4.8c-7.5-1.15-14.638-1.966-21.308-2.384h-.263v-.25c1.83-15.986,3.367-29.369,4.445-38.789.543-4.663.981-8.364,1.274-10.873.146-1.234.271-2.185.345-2.854a5.007,5.007,0,0,1,.095-.733c.021-.187,0-.241,0-.23a1.3,1.3,0,0,1,0,.262,3.06,3.06,0,0,1-.074.753c-.062.68-.167,1.652-.293,2.907-.261,2.551-.657,6.273-1.148,10.935-1.047,9.41-2.467,22.74-4.183,38.684l-.23-.262c6.682.4,13.854,1.2,21.36,2.342a227.218,227.218,0,0,1,23.3,4.789l-.334.219c.136-.753.271-1.525.407-2.3,3.355-19.05,6.492-36.844,9.128-51.817l.156.262a161.668,161.668,0,0,0-34.691-6.41c-4.244-.282-7.61-.355-9.868-.344h-3.513Z" transform="translate(-8585.911 -1245.604)" fill="#d9a171"/>
      </g>
      <g id="freepik--Character--inject-49" transform="translate(89.614 37.526)">
        <path id="Trazado_142770" data-name="Trazado 142770" d="M8744.725,1372.989l37.012,8.2,5.655-8.2-.908-10.549-5.625-5.144h-19.385l-18.108,16.31" transform="translate(-8617.152 -1199.109)" fill="#d9a171"/>
        <g id="Grupo_89200" data-name="Grupo 89200" transform="translate(126.213 158.187)" opacity="0.3">
          <path id="Trazado_142771" data-name="Trazado 142771" d="M8744.725,1372.989l37.012,8.2,5.655-8.2-.908-10.549-5.625-5.144h-19.385l-18.108,16.31" transform="translate(-8743.365 -1357.296)" fill="#344154"/>
        </g>
        <path id="Trazado_142772" data-name="Trazado 142772" d="M8793.838,1307.956l46.725-6.273,7.318-2.092s16.842-3.7,18.412-4.265c1.818-.649,2.571.073,2.758.753.3,1.045-.719,2.269-2.269,2.875-.522.209-9.063,3.136-9.063,3.136a21.149,21.149,0,0,1,2.886.836c2.039.69,3.993,3.325,4.977,6.4s.993,4.015-.187,4.454a1.642,1.642,0,0,1-1.359-.187,3.243,3.243,0,0,1-1.4-1.757c-1.642-4.9-4.705-5.29-4.705-5.29l-.962.271s3.137,2.206,3.137,4.883a3.017,3.017,0,0,1-.251,1.14,4.046,4.046,0,0,1-4.507,5.321c-.669-.125-1.4-.523-1.494-1.191a2.1,2.1,0,0,1,.219-1.045,4.813,4.813,0,0,0,.168-.554l-2.8.387s-6.346.523-9.075,1.045l-43.745,13.173a11.33,11.33,0,0,1-14.137-7.549q-.028-.083-.05-.166h0a11.322,11.322,0,0,1,7.818-13.974A11.182,11.182,0,0,1,8793.838,1307.956Z" transform="translate(-8609.85 -1210.294)" fill="#ffbe9d"/>
        <path id="Trazado_142773" data-name="Trazado 142773" d="M8832.874,1302.047a2.351,2.351,0,0,0,2.017,1.862c.963.2,1.966.073,2.938.2,2.907.4,5.176,3.043,8.093,3.294.407,0,.929,0,1.046-.44s-.2-.7-.482-.951l-7.317-6.451" transform="translate(-8601.063 -1209.488)" fill="#ffbe9d"/>
        <path id="Trazado_142774" data-name="Trazado 142774" d="M8839.2,1299.559a4.975,4.975,0,0,1,.857.617c.523.428,1.286,1.045,2.206,1.84l3.231,2.77.919.806c.282.282.765.523.848,1.192a.824.824,0,0,1-.5.774,1.712,1.712,0,0,1-.785.125,5.873,5.873,0,0,1-1.4-.282,37.434,37.434,0,0,1-4.673-2.363,7.151,7.151,0,0,0-2.092-.69c-.678-.1-1.349-.084-1.954-.125a3.443,3.443,0,0,1-2.666-1.15,1.277,1.277,0,0,1-.323-1.045,3.01,3.01,0,0,0,.489.878,3.278,3.278,0,0,0,2.511.9,19.636,19.636,0,0,1,2.007.062,7.74,7.74,0,0,1,2.237.68,42.518,42.518,0,0,0,4.62,2.311,6.281,6.281,0,0,0,1.267.251c.406,0,.753-.116.71-.325a2.045,2.045,0,0,0-.647-.815l-.921-.816-3.136-2.865-2.092-1.965C8839.421,1299.862,8839.172,1299.591,8839.2,1299.559Z" transform="translate(-8601.068 -1209.488)" fill="#eb996e"/>
        <path id="Trazado_142775" data-name="Trazado 142775" d="M8845.82,1305.038a3.945,3.945,0,0,1,1.84,0,3.047,3.047,0,0,1,1.6,1.045,7.692,7.692,0,0,1,1.15,2.185,12.931,12.931,0,0,0,1.045,2.322,4.1,4.1,0,0,0,1.526,1.473,1.568,1.568,0,0,0,1.434,0c.3-.157.418-.314.408-.324s-.169.084-.461.2a1.556,1.556,0,0,1-1.265-.126,4.067,4.067,0,0,1-1.36-1.422,13.343,13.343,0,0,1-1.045-2.29,7.692,7.692,0,0,0-1.233-2.258,3.28,3.28,0,0,0-1.788-1.14,3.009,3.009,0,0,0-1.433,0C8845.967,1304.912,8845.809,1305.017,8845.82,1305.038Z" transform="translate(-8598.735 -1208.578)" fill="#eb996e"/>
        <path id="Trazado_142776" data-name="Trazado 142776" d="M8856.469,1298.159a9.327,9.327,0,0,0-1.7.574l-4.058,1.5-4.056,1.432a8.758,8.758,0,0,0-1.675.637,8.385,8.385,0,0,0,1.758-.4c1.045-.3,2.53-.763,4.119-1.339s3.021-1.14,4.036-1.589A7.921,7.921,0,0,0,8856.469,1298.159Z" transform="translate(-8598.888 -1209.739)" fill="#eb996e"/>
        <path id="Trazado_142777" data-name="Trazado 142777" d="M8845.133,1307.18s.125.168.365.429a1.665,1.665,0,0,1,.534,1.286.894.894,0,0,1-.555.69,5.081,5.081,0,0,1-1.128.314,2,2,0,0,0-1.267.669,1.736,1.736,0,0,0-.209,1.537,1.946,1.946,0,0,0,1.047,1.129,2.358,2.358,0,0,0,1.4.209,7.946,7.946,0,0,0,2.165-.806,4.6,4.6,0,0,0,1.254-.93,1.193,1.193,0,0,0,.293-.492,4.474,4.474,0,0,1-.4.387,5.233,5.233,0,0,1-1.265.806,8.23,8.23,0,0,1-2.091.71,1.924,1.924,0,0,1-2.092-1.118,1.394,1.394,0,0,1,.146-1.224,1.681,1.681,0,0,1,1.046-.554,5.048,5.048,0,0,0,1.192-.376,1.181,1.181,0,0,0,.668-.92,1.788,1.788,0,0,0-.68-1.422A2.249,2.249,0,0,0,8845.133,1307.18Z" transform="translate(-8599.28 -1208.118)" fill="#eb996e"/>
        <path id="Trazado_142778" data-name="Trazado 142778" d="M8844.075,1312.444a.8.8,0,0,0-.46.219,1.564,1.564,0,0,0-.522,1.3,2.094,2.094,0,0,0,1.243,1.662,3.4,3.4,0,0,0,2.531,0,4.1,4.1,0,0,0,2.017-1.537,3.939,3.939,0,0,0,.681-1.944,3.572,3.572,0,0,0-.157-1.38,1.118,1.118,0,0,0-.21-.46,7.246,7.246,0,0,1,.116,1.808,3.867,3.867,0,0,1-2.562,3.137,3.136,3.136,0,0,1-2.278,0,1.834,1.834,0,0,1-1.131-1.38,1.491,1.491,0,0,1,.368-1.172C8843.918,1312.537,8844.1,1312.474,8844.075,1312.444Z" transform="translate(-8599.229 -1207.557)" fill="#eb996e"/>
        <path id="Trazado_142779" data-name="Trazado 142779" d="M8837.731,1309.7a1.7,1.7,0,0,0-.3-.815,3.428,3.428,0,0,0-1.705-1.391v.314a8.426,8.426,0,0,0,1.047-.585,7.718,7.718,0,0,0,2.926-3.021,19.846,19.846,0,0,1-3.136,2.718,11.978,11.978,0,0,1-1.047.585l-.354.189.375.125a3.572,3.572,0,0,1,1.643,1.192C8837.564,1309.42,8837.679,1309.713,8837.731,1309.7Z" transform="translate(-8600.652 -1208.653)" fill="#eb996e"/>
        <path id="Trazado_142780" data-name="Trazado 142780" d="M8849.761,1304.629c-.062-.063-.553.481-.616,1.348s.356,1.464.439,1.412-.135-.638-.072-1.391S8849.856,1304.691,8849.761,1304.629Z" transform="translate(-8598.141 -1208.577)" fill="#eb996e"/>
        <path id="Trazado_142781" data-name="Trazado 142781" d="M8670,1320.94s-6.815-11.051-8.028-11.992-12.014-4.894-12.933-4.6-14.011,2.519-12.545,4.077,10.631-.136,10.631-.136l1.234.616s-7.895,1.255-9.556,2.217-1.046,2.75.449,2.6,8.29-1.475,8.7-1.192-7.455,1.85-8.3,2.342c-1.14.68-1.257,2.7.188,2.6.847-.062,8.26-1.976,8.26-1.976a63.611,63.611,0,0,0-6.419,2.782,1.072,1.072,0,0,0,1.045,1.839c.879-.188,5.029-2.174,6.2-2.426,0,0,1.046.294,2.091,2.509.46,1.047,2.571,7.476,6.431,7.392,3.418-.073,6.775,2.739,6.775,2.739Z" transform="translate(-8636.385 -1208.63)" fill="#ffbe9d"/>
        <path id="Trazado_142782" data-name="Trazado 142782" d="M8636.534,1307.913a5.983,5.983,0,0,0,2.383.659,13.591,13.591,0,0,0,2.7.115c1.045-.115,2.092-.261,3.24-.428l2.447-.355h-.146a34.266,34.266,0,0,0,5.645,1.766,36.123,36.123,0,0,0-5.446-2.321h-.146l-2.425.324-3.212.47a16.935,16.935,0,0,1-2.612,0C8637.475,1308.039,8636.555,1307.82,8636.534,1307.913Z" transform="translate(-8636.358 -1208.087)" fill="#eb996e"/>
        <path id="Trazado_142783" data-name="Trazado 142783" d="M8662.869,1318.38a2.626,2.626,0,0,1-3.043,0c-.932-.565-1.65-1.422-2.54-2.091-2.655-1.883-6.493-1.433-9.065-3.44-.355-.271-.71-.731-.512-1.14s.69-.418,1.118-.408l10.779.251" transform="translate(-8634.359 -1207.377)" fill="#ffbe9d"/>
        <path id="Trazado_142784" data-name="Trazado 142784" d="M8659.649,1311.631a4.99,4.99,0,0,0-1.161-.146c-.753,0-1.839-.115-3.137-.166l-4.714-.189h-1.37a2.091,2.091,0,0,0-1.578.335.916.916,0,0,0-.179,1.045,1.841,1.841,0,0,0,.544.7,7.194,7.194,0,0,0,1.349.826,41.68,41.68,0,0,0,5.593,1.6,8.222,8.222,0,0,1,2.207,1.045c.627.428,1.148.951,1.683,1.38a3.821,3.821,0,0,0,3.032,1.045,1.46,1.46,0,0,0,1.045-.585,3.385,3.385,0,0,1-1.045.355,3.738,3.738,0,0,1-2.718-1.172c-.492-.428-1.046-.972-1.673-1.463a8.354,8.354,0,0,0-2.332-1.129,47.463,47.463,0,0,1-5.488-1.61,7,7,0,0,1-1.235-.742c-.345-.283-.512-.67-.322-.817a2.252,2.252,0,0,1,1.139-.166h9.223A4.364,4.364,0,0,0,8659.649,1311.631Z" transform="translate(-8634.4 -1207.414)" fill="#eb996e"/>
        <path id="Trazado_142785" data-name="Trazado 142785" d="M8711.58,1525.985,8709.1,1553.4l-8.229,21.13a2.824,2.824,0,0,0,1.615,3.651c.057.022.114.042.174.061h0a2.823,2.823,0,0,0,2.551-.44c4.631-3.523,21.6-16.592,21.673-18.61.083-2.331,4.558-28.793,4.558-28.793Z" transform="translate(-8624.825 -1168.784)" fill="#d9a171"/>
        <g id="Grupo_89201" data-name="Grupo 89201" transform="translate(77.837 388.556)" opacity="0.6">
          <path id="Trazado_142786" data-name="Trazado 142786" d="M8702.361,1573.472l24.435-20.91-.127,1.161a4.284,4.284,0,0,1-1.317,2.624c-1.965,1.84-7.517,6.817-20.356,16.729a2.812,2.812,0,0,1-2.634.428Z" transform="translate(-8702.361 -1552.562)" fill="#fff" stroke="#5e6178" stroke-miterlimit="10" stroke-width="0"/>
        </g>
        <g id="Grupo_89202" data-name="Grupo 89202" transform="translate(96.806 378.937)" opacity="0.6">
          <path id="Trazado_142787" data-name="Trazado 142787" d="M8719.295,1544.577a1.713,1.713,0,0,0-.713,2.164,1.631,1.631,0,0,0,2.091.722,1.8,1.8,0,0,0,.753-2.29,1.7,1.7,0,0,0-2.311-.512" transform="translate(-8718.44 -1544.409)" fill="#fff" stroke="#5e6178" stroke-miterlimit="10" stroke-width="0"/>
        </g>
        <path id="Trazado_142788" data-name="Trazado 142788" d="M8709.621,1561.295c-.168.063-.617-1.443-2.165-2.4a8.688,8.688,0,0,0-3.074-.963c0-.062.355-.239,1.046-.261a4.384,4.384,0,0,1,2.4.721,4.278,4.278,0,0,1,1.642,1.882C8709.693,1560.9,8709.684,1561.295,8709.621,1561.295Z" transform="translate(-8624.161 -1163.089)" fill="#344154"/>
        <path id="Trazado_142789" data-name="Trazado 142789" d="M8707.56,1564.041c-.136.105-.92-.888-2.29-1.453a23.78,23.78,0,0,0-2.625-.648,3.139,3.139,0,0,1,2.866.094C8707.048,1562.671,8707.717,1563.989,8707.56,1564.041Z" transform="translate(-8624.474 -1162.375)" fill="#344154"/>
        <path id="Trazado_142790" data-name="Trazado 142790" d="M8713.466,1557.729a27.8,27.8,0,0,0-3.388-2.477c-2.028-1.1-3.962-1.223-3.941-1.411a7.721,7.721,0,0,1,7.329,3.889Z" transform="translate(-8623.847 -1163.789)" fill="#344154"/>
        <path id="Trazado_142791" data-name="Trazado 142791" d="M8714.663,1550.354c-.094.157-1.526-.648-3.492-.94s-3.565,0-3.606-.178A7.028,7.028,0,0,1,8714.663,1550.354Z" transform="translate(-8623.59 -1164.695)" fill="#344154"/>
        <path id="Trazado_142792" data-name="Trazado 142792" d="M8715.47,1543.565a13.638,13.638,0,0,0-3.606-1.045,14.047,14.047,0,0,0-3.732.492c0-.064.292-.367.972-.659a5.935,5.935,0,0,1,2.8-.439,6.2,6.2,0,0,1,2.707.868C8715.261,1543.147,8715.545,1543.5,8715.47,1543.565Z" transform="translate(-8623.488 -1165.925)" fill="#344154"/>
        <path id="Trazado_142793" data-name="Trazado 142793" d="M8712.11,1541.878a2.3,2.3,0,0,1,.084-1.046,7.344,7.344,0,0,1,1.129-2.613,3.28,3.28,0,0,1,1.536-1.37,1.148,1.148,0,0,1,1.244.4,1.821,1.821,0,0,1,.292,1.286,3.992,3.992,0,0,1-3.888,3.273,4.629,4.629,0,0,1-4.244-2.918,1.621,1.621,0,0,1,.072-1.338,1.117,1.117,0,0,1,1.223-.45,3.824,3.824,0,0,1,1.694,1.14,7.933,7.933,0,0,1,1.631,2.342,2.563,2.563,0,0,1,.313.994,12.906,12.906,0,0,0-2.235-3.032,3.641,3.641,0,0,0-1.507-.952.6.6,0,0,0-.668.24,1.106,1.106,0,0,0,0,.878,4.107,4.107,0,0,0,3.7,2.489,3.464,3.464,0,0,0,3.346-2.729,1.333,1.333,0,0,0-.169-.9.6.6,0,0,0-.678-.229,2.833,2.833,0,0,0-1.328,1.129A10.631,10.631,0,0,0,8712.11,1541.878Z" transform="translate(-8623.483 -1166.84)" fill="#344154"/>
        <path id="Trazado_142794" data-name="Trazado 142794" d="M8735.818,1570.146l20.524-162.526-6.566-37.786-38.683,2.092-4.841,195.218a2.956,2.956,0,0,0,2.4,3l22.541,3.481a4.048,4.048,0,0,0,4.608-3.392Z" transform="translate(-8623.825 -1196.855)" fill="#344154"/>
        <path id="Trazado_142795" data-name="Trazado 142795" d="M8750.7,1414.324l37.334,36.948-53.708,13.059,3.814,27.1,72.706-9.891a22.911,22.911,0,0,0,15.474-9.294h0a22.879,22.879,0,0,0,.355-26.264l-56.646-83.139-25.3,8.249Z" transform="translate(-8618.778 -1198.111)" fill="#344154"/>
        <path id="Trazado_142796" data-name="Trazado 142796" d="M8746.459,1398.513a21.145,21.145,0,0,1,1.3,4.643,20.432,20.432,0,0,1,.765,4.757,42.577,42.577,0,0,1-2.061-9.4Z" transform="translate(-8616.598 -1191.699)" fill="#5e6178"/>
        <path id="Trazado_142797" data-name="Trazado 142797" d="M8744.225,1461.379l.889-.294,2.614-.815,10.017-3.042,36.446-10.957-.095.345-44.811-47.728.47-.146c-.888,7.5-1.819,15.327-2.76,23.314-4.621,38.685-8.97,73.731-12.327,99.052-1.673,12.661-3.136,22.9-4.182,29.965-.6,3.513-1.046,6.273-1.4,8.1-.189.909-.346,1.6-.449,2.092s-.169.71-.169.71a3.4,3.4,0,0,1,.115-.721c.115-.471.229-1.192.4-2.092.375-1.839.731-4.589,1.3-8.113,1.045-7.077,2.426-17.313,4.036-29.985,3.272-25.322,7.549-60.358,12.17-99.063.951-7.988,1.881-15.818,2.771-23.314l.063-.576.4.419,44.7,47.811.229.251-.324.093-36.5,10.79-10.059,2.938-2.624.753A2.908,2.908,0,0,1,8744.225,1461.379Z" transform="translate(-8619.831 -1191.771)" fill="#5e6178"/>
        <path id="Trazado_142798" data-name="Trazado 142798" d="M8731.607,1560.495c-.146,0,4.119-34.5,9.523-77.044s9.913-76.992,10.06-76.97-4.109,34.5-9.516,77.045S8731.765,1560.505,8731.607,1560.495Z" transform="translate(-8619.269 -1190.267)" fill="#5e6178"/>
        <path id="Trazado_142799" data-name="Trazado 142799" d="M8743.073,1383.935a12.471,12.471,0,0,1,.857,2.52c.462,1.568,1.045,3.774,1.568,6.221s.931,4.684,1.172,6.273a12.1,12.1,0,0,1,.261,2.645,13.575,13.575,0,0,1-.638-2.583c-.388-1.787-.837-3.91-1.329-6.273s-1.044-4.455-1.4-6.274A12.6,12.6,0,0,1,8743.073,1383.935Z" transform="translate(-8617.206 -1194.32)" fill="#5e6178"/>
        <path id="Trazado_142800" data-name="Trazado 142800" d="M8745.232,1381.276a1.472,1.472,0,0,1,1.517-.168,1.768,1.768,0,0,1,1.129,1.338,1.937,1.937,0,0,1-.847,1.987,1.87,1.87,0,0,1-2.091-.219,1.59,1.59,0,0,1-.48-1.683,1.557,1.557,0,0,1,.7-.93c.242-.137.4-.137.407-.1a2.107,2.107,0,0,0-.731,1.118,1.2,1.2,0,0,0,.429,1.213,1.422,1.422,0,0,0,1.548.136,1.488,1.488,0,0,0,.628-1.432,1.413,1.413,0,0,0-.795-1.045A2.78,2.78,0,0,0,8745.232,1381.276Z" transform="translate(-8616.972 -1194.849)" fill="#5e6178"/>
        <path id="Trazado_142801" data-name="Trazado 142801" d="M8790.836,1444.127c-.114.116-2.216-1.819-5.227-3.555s-5.73-2.635-5.678-2.791a16.261,16.261,0,0,1,5.96,2.321A16.438,16.438,0,0,1,8790.836,1444.127Z" transform="translate(-8610.581 -1184.64)" fill="#5e6178"/>
        <path id="Trazado_142802" data-name="Trazado 142802" d="M8724.043,1276.993l-21.433,10.35,9.241,64.488-3.627,28.94a11.291,11.291,0,0,0,3.773,9.922h0l34.617-.679,24.213-13.289,11.136-1.882-4.559-22.029,2.092-31.251,25.333,13.519a8.822,8.822,0,0,0,6.367.763l46.41-12.055-2.415-17.9-42.051,4.757-32.023-28.292-23.838-5.363-4.224-7.015h-24.392l-1.747,1.275a5.151,5.151,0,0,0-1.767,2.415Z" transform="translate(-8624.48 -1214.805)" fill="#d9a171"/>
        <path id="Trazado_142803" data-name="Trazado 142803" d="M8711.145,1284.7a25.731,25.731,0,0,0-9.65,12.547c-2.445,7.61-7.978,38.381-7.978,38.381l-24.35-15.077-14.032,14.753,32.413,28.626a16.5,16.5,0,0,0,18.075,2.5h0a16.514,16.514,0,0,0,9.19-12.64l3.983-29.18Z" transform="translate(-8633.015 -1212.159)" fill="#d9a171"/>
        <path id="Trazado_142804" data-name="Trazado 142804" d="M8767.713,1363.181l-1.506-2.216-16.029,2.959-2.947,6.827Z" transform="translate(-8616.459 -1198.449)" fill="#ffbe9d"/>
        <path id="Trazado_142805" data-name="Trazado 142805" d="M8710.567,1379.858c14.323,5.761,29.62,3.639,43.254-3.586,4.117-2.185,7.936-4.892,12.074-7.047s8.721-3.733,13.373-3.408,9.336,2.886,11.2,7.162,0,10.089-4.38,11.689l1.548,1.379c6.43-2.99,9.483-11.647,6.346-18.014-2.4-4.872-7.465-7.789-11.167-11.773-5.446-5.854-6.01-17.188-6.053-26.012" transform="translate(-8623.05 -1203.971)" fill="#d9a171"/>
        <path id="Trazado_142806" data-name="Trazado 142806" d="M8740.148,1288.4a6.409,6.409,0,0,1-1.045,0,4.058,4.058,0,0,0-2.541,1.172,5.981,5.981,0,0,0-1.264,4.088,13.835,13.835,0,0,0,1.16,5.49l.406.9-.783-.586a42.107,42.107,0,0,1-5.406-4.777,39.87,39.87,0,0,1-8.3-12.714,29.2,29.2,0,0,1-1.346-4.412,11.354,11.354,0,0,1-.242-1.682,50.063,50.063,0,0,0,1.945,5.948,41.937,41.937,0,0,0,8.363,12.483,44.427,44.427,0,0,0,5.313,4.737l-.387.324a12.269,12.269,0,0,1-.889-2.939,12.676,12.676,0,0,1-.24-2.77,6.163,6.163,0,0,1,1.475-4.307,4.017,4.017,0,0,1,2.75-1.118A4.516,4.516,0,0,1,8740.148,1288.4Z" transform="translate(-8621.212 -1213.744)" fill="#344154"/>
        <path id="Trazado_142807" data-name="Trazado 142807" d="M8738.28,1289.066c1.767-.763,4.38.356,5.646,1.8.837.962,1.306,2.279,2.4,2.906s4.591,1.12,5.6.346c0,0,.618-2.98.951-4.182a92.313,92.313,0,0,0,2.374-14.3c-3.366-1.642-2.437-3.8-8.511-3.378a15.447,15.447,0,0,1,.219,8.552" transform="translate(-8618.068 -1214.406)" fill="#d9a171"/>
        <path id="Trazado_142808" data-name="Trazado 142808" d="M8746.963,1280.814c-.063,0,.219-.806.346-2.29a16.791,16.791,0,0,0-.753-6.2l-.072-.251h.249a10.372,10.372,0,0,1,4.475.4,6.825,6.825,0,0,1,2.093,1.495,8.16,8.16,0,0,0,2.09,1.443l.167.084v.178c-.271,2.54-.574,5.311-1.045,8.176-.313,1.871-.69,3.68-1.129,5.4s-.785,3.388-1.149,4.956v.1l-.062.052a3.32,3.32,0,0,1-1.8.428,11.043,11.043,0,0,1-1.673-.1,10.653,10.653,0,0,1-1.568-.346,3.365,3.365,0,0,1-1.369-.742,13.816,13.816,0,0,1-1.61-2.217,5.676,5.676,0,0,0-1.651-1.495,5.9,5.9,0,0,0-3.011-.941,6.054,6.054,0,0,0-1.129.167,2.333,2.333,0,0,1,1.129-.323,5.711,5.711,0,0,1,3.137.836,5.813,5.813,0,0,1,1.787,1.547,13.738,13.738,0,0,0,1.6,2.092,5.128,5.128,0,0,0,2.719.94,10.062,10.062,0,0,0,1.6.084,3.022,3.022,0,0,0,1.506-.345l-.094.146c.356-1.58.689-3.273,1.119-4.988s.8-3.512,1.107-5.374c.481-2.843.794-5.6,1.046-8.133l.146.261a8.872,8.872,0,0,1-2.259-1.537,6.162,6.162,0,0,0-1.913-1.422,10.268,10.268,0,0,0-4.266-.439l.177-.262a16.238,16.238,0,0,1,.6,6.347,11.52,11.52,0,0,1-.354,1.7A2.4,2.4,0,0,1,8746.963,1280.814Z" transform="translate(-8618.054 -1214.444)" fill="#344154"/>
        <path id="Trazado_142809" data-name="Trazado 142809" d="M8782.888,1376.664v-1.192a7.384,7.384,0,0,0-1.045-3.231,10.855,10.855,0,0,0-3.847-3.712,16.226,16.226,0,0,0-6.859-1.882c-2.656-.241-5.6-.094-8.771-.314a33.086,33.086,0,0,1-9.892-2.091,20.414,20.414,0,0,1-8.917-6.67,15.5,15.5,0,0,1-2.562-5.365,20.525,20.525,0,0,1-.585-6.095c.155-4.182,1.108-8.061,1.682-11.867a90.519,90.519,0,0,0,1.048-11.04,91.651,91.651,0,0,0-4.465-31.031c-.439-1.432-.847-2.519-1.109-3.262-.124-.355-.219-.637-.293-.857a1.277,1.277,0,0,1-.083-.292,2.338,2.338,0,0,1,.136.271c.084.189.2.492.346.836.292.731.731,1.809,1.213,3.241a87.057,87.057,0,0,1,3.262,12.3,90.953,90.953,0,0,1,1.5,18.82,89.6,89.6,0,0,1-1.045,11.113c-.565,3.827-1.506,7.737-1.662,11.8a16.965,16.965,0,0,0,3.031,11.125,19.866,19.866,0,0,0,8.677,6.514,32.625,32.625,0,0,0,9.735,2.091c3.136.23,6.085.115,8.782.387a16.415,16.415,0,0,1,7.046,2.038,10.9,10.9,0,0,1,3.869,3.869,7.17,7.17,0,0,1,.961,3.325,4.17,4.17,0,0,1-.053.91C8782.921,1376.6,8782.9,1376.664,8782.888,1376.664Z" transform="translate(-8618.263 -1211.608)" fill="#344154"/>
        <path id="Trazado_142810" data-name="Trazado 142810" d="M8768.731,1346.98a9.191,9.191,0,0,1-1.2,1.254c-.4.387-.9.858-1.506,1.37s-1.275,1.13-2.091,1.726a57.318,57.318,0,0,1-5.782,4,59.092,59.092,0,0,1-15.85,6.639,56.363,56.363,0,0,1-6.911,1.307c-.992.157-1.893.209-2.687.271s-1.475.1-2.038.116a10.146,10.146,0,0,1-1.735,0,12.075,12.075,0,0,1,1.724-.2,16.528,16.528,0,0,0,2.018-.2c.785-.1,1.685-.168,2.668-.345a64.884,64.884,0,0,0,6.837-1.423,67.665,67.665,0,0,0,8.081-2.749,66.511,66.511,0,0,0,7.632-3.838,65.062,65.062,0,0,0,5.814-3.869c.8-.575,1.494-1.16,2.09-1.652s1.14-.931,1.56-1.3A12.385,12.385,0,0,1,8768.731,1346.98Z" transform="translate(-8619.75 -1200.963)" fill="#344154"/>
        <path id="Trazado_142811" data-name="Trazado 142811" d="M8762.362,1317.921a2.021,2.021,0,0,1-.093.576l-.366,1.63a23,23,0,0,1-.69,2.552c-.313.983-.616,2.09-1.108,3.324-.24.607-.481,1.244-.731,1.9s-.6,1.317-.9,2.017c-.605,1.411-1.4,2.834-2.206,4.35a60.342,60.342,0,0,1-14.3,17.052c-1.358,1.045-2.623,2.091-3.908,2.927-.628.428-1.224.868-1.831,1.245l-1.745,1.045a30.99,30.99,0,0,1-3.085,1.683,25.283,25.283,0,0,1-2.383,1.118l-1.548.648a3.181,3.181,0,0,1-.554.189,2.494,2.494,0,0,1,.512-.292l1.5-.733c.656-.3,1.45-.69,2.341-1.2s1.943-1.045,3.021-1.735l1.715-1.046c.6-.376,1.182-.826,1.807-1.255,1.257-.846,2.5-1.882,3.839-2.948a68.224,68.224,0,0,0,7.852-7.821,69.3,69.3,0,0,0,6.334-9.085c.817-1.505,1.622-2.906,2.228-4.3.325-.69.659-1.349.932-2l.753-1.882c.521-1.181.847-2.3,1.181-3.273s.6-1.819.785-2.519l.459-1.6A2.178,2.178,0,0,1,8762.362,1317.921Z" transform="translate(-8620.112 -1206.187)" fill="#344154"/>
        <path id="Trazado_142812" data-name="Trazado 142812" d="M8720.546,1378.905a6.286,6.286,0,0,1-1.914-1.423,14.452,14.452,0,0,1-4.358-10.382,6.517,6.517,0,0,1,.314-2.352,22.388,22.388,0,0,1,.072,2.343,16.387,16.387,0,0,0,4.256,10.131C8719.888,1378.277,8720.641,1378.832,8720.546,1378.905Z" transform="translate(-8622.385 -1197.769)" fill="#344154"/>
        <path id="Trazado_142813" data-name="Trazado 142813" d="M8719.027,1369.844c.156,0-.136,1.391,0,3.032s.647,2.928.5,3a6.277,6.277,0,0,1-.512-6.034Z" transform="translate(-8621.629 -1196.853)" fill="#344154"/>
        <path id="Trazado_142814" data-name="Trazado 142814" d="M8711.57,1345.547a1.65,1.65,0,0,1-.125-.492c-.073-.386-.157-.857-.262-1.422-.221-1.317-.523-3.136-.878-5.228-.732-4.422-1.777-10.528-3.033-17.251s-2.476-12.807-3.345-17.209c-.439-2.092-.8-3.89-1.046-5.228-.114-.565-.2-1.045-.273-1.412a1.587,1.587,0,0,1-.061-.512,1.984,1.984,0,0,1,.167.481c.1.387.22.847.365,1.4.313,1.213.742,2.98,1.244,5.165,1.046,4.371,2.29,10.455,3.556,17.168s2.227,12.859,2.864,17.293c.323,2.226.564,4.024.711,5.228.063.575.115,1.045.158,1.443A1.7,1.7,0,0,1,8711.57,1345.547Z" transform="translate(-8624.491 -1209.985)" fill="#344154"/>
        <path id="Trazado_142815" data-name="Trazado 142815" d="M8766.92,1345.856a2.914,2.914,0,0,1-.051-.512v-6.953c0-4.611.25-10.978.783-17.993s1.233-13.351,1.777-17.931c.283-2.226.513-4.056.689-5.415q.126-.878.22-1.475a2.516,2.516,0,0,1,.105-.5,1.676,1.676,0,0,1,0,.523c0,.4-.073.888-.116,1.475-.125,1.37-.3,3.2-.512,5.436-.449,4.579-1.045,10.915-1.619,17.93s-.8,13.362-.941,17.962c-.063,2.238-.116,4.078-.157,5.458l-.053,1.485A1.716,1.716,0,0,1,8766.92,1345.856Z" transform="translate(-8612.93 -1210.294)" fill="#344154"/>
        <path id="Trazado_142816" data-name="Trazado 142816" d="M8697.552,1342.652c-.176.073-1.556-3.732-4.181-7.873s-5.8-6.744-5.667-6.879a9.557,9.557,0,0,1,2.091,1.662,28.727,28.727,0,0,1,4.078,4.914,34,34,0,0,1,2.927,5.667A10.41,10.41,0,0,1,8697.552,1342.652Z" transform="translate(-8627.161 -1204.393)" fill="#344154"/>
        <path id="Trazado_142817" data-name="Trazado 142817" d="M8699.353,1338.092a19.994,19.994,0,0,1-1.171-2.092,16.134,16.134,0,0,0-3.618-4.182,22.869,22.869,0,0,0-4.777-2.917,13.81,13.81,0,0,1-2.092-1.045,8.179,8.179,0,0,1,2.269.669,18.3,18.3,0,0,1,4.978,2.854,14.071,14.071,0,0,1,3.606,4.464A6.811,6.811,0,0,1,8699.353,1338.092Z" transform="translate(-8627.161 -1204.401)" fill="#344154"/>
        <path id="Trazado_142818" data-name="Trazado 142818" d="M8709.465,1317.351a2.686,2.686,0,0,1-.221.46,4.486,4.486,0,0,1-.95,1.118,6.348,6.348,0,0,1-5.122,1.38,9.92,9.92,0,0,1-6.441-4.548,22.163,22.163,0,0,1-2.093-4.182c-.292-.763-.585-1.537-.836-2.353a6.546,6.546,0,0,1-.292-2.634,3.63,3.63,0,0,1,1.274-2.374,3.027,3.027,0,0,1,2.584-.46,5.081,5.081,0,0,1,3.439,3.262,4.9,4.9,0,0,1-.43,4.277,5.335,5.335,0,0,1-2.979,2.289,4.724,4.724,0,0,1-3.136-.146,5.228,5.228,0,0,1-1.934-1.316,4.068,4.068,0,0,1-.815-1.224c-.137-.314-.179-.481-.159-.492a6.745,6.745,0,0,0,1.121,1.569,5.286,5.286,0,0,0,1.893,1.181,4.528,4.528,0,0,0,2.874.063,4.934,4.934,0,0,0,2.707-2.153,4.438,4.438,0,0,0,.345-3.869,4.557,4.557,0,0,0-3.135-2.917,2.491,2.491,0,0,0-2.093.376,3.06,3.06,0,0,0-1.044,2.008c-.187,1.62.544,3.209,1.044,4.714a20.872,20.872,0,0,0,2.093,4.182,9.648,9.648,0,0,0,6.085,4.455,6.278,6.278,0,0,0,4.925-1.171A7.947,7.947,0,0,0,8709.465,1317.351Z" transform="translate(-8626.504 -1208.753)" fill="#fafafa"/>
        <path id="Trazado_142819" data-name="Trazado 142819" d="M8748.091,1334.889l-.293.241c-.209.178-.5.4-.867.68a23.139,23.139,0,0,1-3.6,2.258,11.021,11.021,0,0,1-2.937.983,7.7,7.7,0,0,1-3.672-.24,12.949,12.949,0,0,1-6.617-5.835,21.319,21.319,0,0,1,.188-22.216,11.512,11.512,0,0,1,4.924-4.6,6.434,6.434,0,0,1,3.524-.45,4.819,4.819,0,0,1,3.137,1.789,5.133,5.133,0,0,1,.982,3.565,8.065,8.065,0,0,1-1.128,3.555,11.623,11.623,0,0,1-5.813,4.714,14.952,14.952,0,0,1-7.466.774,15.3,15.3,0,0,1-6.722-2.791,23.074,23.074,0,0,1-7.916-11.083,13.472,13.472,0,0,1-.962-6.346,6.372,6.372,0,0,1,1.225-2.886,4.4,4.4,0,0,1,2.55-1.662,5.585,5.585,0,0,1,5.229,1.819,5.969,5.969,0,0,1,1.265,5.008,7.933,7.933,0,0,1-2.143,4.182,10.154,10.154,0,0,1-3.534,2.31,15.919,15.919,0,0,1-6.639,1.046,38.489,38.489,0,0,1-4.183-.429l-1.1-.177-.366-.074h.377l1.1.126c.962.094,2.384.282,4.183.325a16.16,16.16,0,0,0,6.524-1.047,9.8,9.8,0,0,0,3.4-2.269,7.594,7.594,0,0,0,2.016-4.045,5.6,5.6,0,0,0-1.2-4.674,5.229,5.229,0,0,0-4.852-1.652,4.808,4.808,0,0,0-3.4,4.182,12.717,12.717,0,0,0,.962,6.105A22.585,22.585,0,0,0,8722,1316.9a14.921,14.921,0,0,0,6.5,2.676,14.314,14.314,0,0,0,7.183-.742,11.009,11.009,0,0,0,5.542-4.475,7.641,7.641,0,0,0,1.043-3.324,4.534,4.534,0,0,0-.867-3.189,4.344,4.344,0,0,0-2.822-1.6,5.936,5.936,0,0,0-3.241.408,11.019,11.019,0,0,0-4.7,4.391,20.473,20.473,0,0,0-3.187,11.605,20.724,20.724,0,0,0,2.894,10.141,12.667,12.667,0,0,0,6.389,5.74,8.636,8.636,0,0,0,6.42-.637,25.553,25.553,0,0,0,3.628-2.165l.9-.628A1.842,1.842,0,0,1,8748.091,1334.889Z" transform="translate(-8624.02 -1210.263)" fill="#fafafa"/>
        <path id="Trazado_142820" data-name="Trazado 142820" d="M8720.266,1279.123a3.506,3.506,0,0,1-.334.931,14.434,14.434,0,0,1-1.349,2.353,17.167,17.167,0,0,1-15.5,7.391,14.206,14.206,0,0,1-2.664-.428,3.077,3.077,0,0,1-.941-.335c0-.093,1.379.3,3.626.387a18,18,0,0,0,15.172-7.234C8719.627,1280.388,8720.161,1279.071,8720.266,1279.123Z" transform="translate(-8625.043 -1213.161)" fill="#fafafa"/>
        <path id="Trazado_142821" data-name="Trazado 142821" d="M8730.937,1282.9a9.626,9.626,0,0,0-2.948,1.452,9.492,9.492,0,0,0-1.914,2.677c-.063,0-.084-.418.125-1.045a4.882,4.882,0,0,1,3.7-3.137C8730.537,1282.757,8730.937,1282.841,8730.937,1282.9Z" transform="translate(-8620.27 -1212.499)" fill="#fafafa"/>
        <path id="Trazado_142822" data-name="Trazado 142822" d="M8749.841,1289.525a2.228,2.228,0,0,1-.889-.407,7.413,7.413,0,0,1-3.42-5.51,3.54,3.54,0,0,1,.649-2.353,2.413,2.413,0,0,1,2.415-1.046,2.665,2.665,0,0,1,1.9,1.83,2.5,2.5,0,0,1-.48,2.4,3.378,3.378,0,0,1-3.784,1.047,4.312,4.312,0,0,1-2.091-1.716,2.069,2.069,0,0,1-.388-.9,8.777,8.777,0,0,0,.564.774,4.362,4.362,0,0,0,2.019,1.475,3,3,0,0,0,3.272-.952,2.032,2.032,0,0,0,.366-1.934,2.189,2.189,0,0,0-1.517-1.453,1.889,1.889,0,0,0-1.882.815,3.137,3.137,0,0,0-.565,2,6.993,6.993,0,0,0,1.266,3.512A10.8,10.8,0,0,0,8749.841,1289.525Z" transform="translate(-8617.084 -1212.972)" fill="#fafafa"/>
        <path id="Trazado_142823" data-name="Trazado 142823" d="M8753.623,1278.283a13.288,13.288,0,0,0-3.46-2.415,13.6,13.6,0,0,0-4.182-.71c0-.064.449-.251,1.255-.3a6.842,6.842,0,0,1,3.136.512,7.106,7.106,0,0,1,2.571,1.808C8753.487,1277.782,8753.687,1278.253,8753.623,1278.283Z" transform="translate(-8616.685 -1213.932)" fill="#fafafa"/>
        <path id="Trazado_142824" data-name="Trazado 142824" d="M8782.861,1289.381a1.316,1.316,0,0,1-.2.125l-.628.335a25.383,25.383,0,0,1-2.52,1.045,30.412,30.412,0,0,1-9.849,1.851,14.458,14.458,0,0,1-3.347-.324,7.332,7.332,0,0,1-3.292-1.61,4.9,4.9,0,0,1-1.622-3.576,6.071,6.071,0,0,1,1.393-3.931,8.077,8.077,0,0,1,8.362-2.09,9.726,9.726,0,0,1,6.672,6.46,9.547,9.547,0,0,1-2,9.065,14.641,14.641,0,0,1-7.736,4.182,45.254,45.254,0,0,1-7.936.8,43.441,43.441,0,0,0-6.849.669,13.882,13.882,0,0,0-8.415,4.8,9.988,9.988,0,0,0-1.61,3.251.665.665,0,0,1,0-.241,2.763,2.763,0,0,1,.166-.69,8.785,8.785,0,0,1,1.234-2.446,13.9,13.9,0,0,1,8.521-5.051,41.817,41.817,0,0,1,6.9-.742,44.673,44.673,0,0,0,7.842-.836,14.2,14.2,0,0,0,7.452-4.036,9.006,9.006,0,0,0,1.873-8.552,9.189,9.189,0,0,0-6.273-6.105,7.613,7.613,0,0,0-7.8,1.944,5.562,5.562,0,0,0-1.3,3.606,4.416,4.416,0,0,0,1.442,3.253,6.973,6.973,0,0,0,3.137,1.536,13.945,13.945,0,0,0,3.242.346,31.7,31.7,0,0,0,9.785-1.662c1.108-.387,1.955-.733,2.53-.973A6.1,6.1,0,0,1,8782.861,1289.381Z" transform="translate(-8617.17 -1212.86)" fill="#fafafa"/>
        <path id="Trazado_142825" data-name="Trazado 142825" d="M8756.94,1323.917c-.094,0-.449-.878-1.41-2.09a10.749,10.749,0,0,0-10.675-4.025c-1.516.292-2.4.731-2.437.648a5.647,5.647,0,0,1,2.353-1.045,10.317,10.317,0,0,1,11.081,4.182A5.625,5.625,0,0,1,8756.94,1323.917Z" transform="translate(-8617.324 -1206.338)" fill="#fafafa"/>
        <path id="Trazado_142826" data-name="Trazado 142826" d="M8767.315,1329.576a5.106,5.106,0,0,1-1.433,2.091,8.771,8.771,0,0,1-11.5.91,5.221,5.221,0,0,1-1.746-1.861c.073-.073.669.712,1.965,1.537a9.193,9.193,0,0,0,5.635,1.463,9.306,9.306,0,0,0,5.345-2.331C8766.761,1330.38,8767.23,1329.513,8767.315,1329.576Z" transform="translate(-8615.487 -1204.092)" fill="#fafafa"/>
        <path id="Trazado_142827" data-name="Trazado 142827" d="M8769.435,1312.149c0,.084-.68-.3-1.788-.6a7.675,7.675,0,0,0-8.009,2.561c-.732.89-1.046,1.558-1.107,1.527a3.7,3.7,0,0,1,.8-1.755,7.318,7.318,0,0,1,8.427-2.7A3.741,3.741,0,0,1,8769.435,1312.149Z" transform="translate(-8614.428 -1207.472)" fill="#fafafa"/>
        <path id="Trazado_142828" data-name="Trazado 142828" d="M8805.252,1304.049a5.566,5.566,0,0,1,.188.774,5.692,5.692,0,0,1,.125.961,7.546,7.546,0,0,1,0,1.329,13.167,13.167,0,0,1-3,7.789,13.735,13.735,0,0,1-4.466,3.733,13.876,13.876,0,0,1-6.522,1.495,17.56,17.56,0,0,1-13.435-6.639,10.544,10.544,0,0,1-1.893-3.628,6.87,6.87,0,0,1,.063-3.984,5.13,5.13,0,0,1,2.446-2.99,5.586,5.586,0,0,1,3.681-.43,6.151,6.151,0,0,1,3.137,1.642,7.332,7.332,0,0,1,1.714,2.833,9.552,9.552,0,0,1-.051,5.834,11.017,11.017,0,0,1-2.471,4.182,11.463,11.463,0,0,1-2.874,2.217,11.057,11.057,0,0,1-2.091.858,5.313,5.313,0,0,1-.8.146,15.559,15.559,0,0,0,2.824-1.182,11.28,11.28,0,0,0,5.081-6.273,9.2,9.2,0,0,0,0-5.573,6.689,6.689,0,0,0-1.62-2.635,5.693,5.693,0,0,0-2.865-1.495,5.146,5.146,0,0,0-3.345.4,4.575,4.575,0,0,0-2.176,2.7,6.292,6.292,0,0,0-.052,3.67,9.87,9.87,0,0,0,1.8,3.439,17.158,17.158,0,0,0,13.006,6.472,13.665,13.665,0,0,0,13.822-12.515A21.2,21.2,0,0,0,8805.252,1304.049Z" transform="translate(-8611.289 -1208.991)" fill="#fafafa"/>
        <path id="Trazado_142829" data-name="Trazado 142829" d="M8807.939,1325.525a3.022,3.022,0,0,1-.639-.722,7.532,7.532,0,0,1-1.139-2.363,9.6,9.6,0,0,1-.156-3.889,35.924,35.924,0,0,1,1.045-4.621,33.22,33.22,0,0,1,3.742-7.717c.586-.919,1.046-1.662,1.443-2.153a3.737,3.737,0,0,1,.6-.753,24.974,24.974,0,0,1-1.7,3.136,38.664,38.664,0,0,0-3.555,7.674,43.227,43.227,0,0,0-1.047,4.537,9.781,9.781,0,0,0,0,3.722A14.008,14.008,0,0,0,8807.939,1325.525Z" transform="translate(-8605.916 -1208.814)" fill="#fafafa"/>
        <path id="Trazado_142830" data-name="Trazado 142830" d="M8825.062,1301.748a2.523,2.523,0,0,1,.313.753,12.851,12.851,0,0,1,.521,2.144,19.158,19.158,0,0,1-3.124,13.978,13.006,13.006,0,0,1-1.382,1.726c-.364.376-.573.574-.605.553s.7-.93,1.663-2.488a21.88,21.88,0,0,0,2.688-6.6,21.549,21.549,0,0,0,.344-7.109C8825.3,1302.877,8824.968,1301.78,8825.062,1301.748Z" transform="translate(-8603.236 -1209.094)" fill="#fafafa"/>
        <path id="Trazado_142831" data-name="Trazado 142831" d="M8770.392,1343.721a2.3,2.3,0,0,1-.449-.241,13.465,13.465,0,0,0-1.275-.69,15.136,15.136,0,0,0-5.1-1.432,15.49,15.49,0,0,0-7.675,1.234,13.146,13.146,0,0,0-3.836,2.54,7.837,7.837,0,0,0-1.506,1.862,3.726,3.726,0,0,0-.522,2.3,2.73,2.73,0,0,0,1.107,1.966,2.237,2.237,0,0,0,2.093.095,3.742,3.742,0,0,0,1.942-3.669,7.434,7.434,0,0,0-3.879-6.274,7.6,7.6,0,0,0-5.122-.669,18.522,18.522,0,0,0-1.862.6,1.877,1.877,0,0,1,.439-.282,7.363,7.363,0,0,1,1.37-.523,7.627,7.627,0,0,1,5.354.544,7.8,7.8,0,0,1,4.182,6.619,5.57,5.57,0,0,1-.449,2.362,3.52,3.52,0,0,1-1.778,1.809,2.767,2.767,0,0,1-2.646-.136,3.269,3.269,0,0,1-1.358-2.353,4.174,4.174,0,0,1,.6-2.624,8.127,8.127,0,0,1,1.61-1.987,13.579,13.579,0,0,1,4-2.613,15.661,15.661,0,0,1,7.913-1.161,14.081,14.081,0,0,1,5.155,1.63,9.493,9.493,0,0,1,1.244.785C8770.266,1343.585,8770.412,1343.7,8770.392,1343.721Z" transform="translate(-8616.984 -1202.168)" fill="#fafafa"/>
        <path id="Trazado_142832" data-name="Trazado 142832" d="M8770.078,1350.526a6.8,6.8,0,0,1-1.265,2.394c-.827,1.245-1.589,2.185-1.715,2.092a6.782,6.782,0,0,1,1.266-2.4C8769.189,1351.384,8769.952,1350.442,8770.078,1350.526Z" transform="translate(-8612.887 -1200.327)" fill="#fafafa"/>
        <path id="Trazado_142833" data-name="Trazado 142833" d="M8781.777,1363.761c-.084,0-.229-.366-.595-.91a5.409,5.409,0,0,0-4.256-2.362,5.5,5.5,0,0,1-1.046,0,1.694,1.694,0,0,1,1.046-.356,4.759,4.759,0,0,1,4.6,2.562C8781.819,1363.3,8781.84,1363.752,8781.777,1363.761Z" transform="translate(-8611.309 -1198.601)" fill="#fafafa"/>
        <path id="Trazado_142834" data-name="Trazado 142834" d="M8746.491,1358.687c0,.073-1.255.71-3.272,1.871a28.27,28.27,0,0,0-7.11,5.49,15.164,15.164,0,0,0-3.772,7.987,18.7,18.7,0,0,0,.063,3.733,3.1,3.1,0,0,1-.293-.983,9.391,9.391,0,0,1-.146-2.781,14.628,14.628,0,0,1,3.741-8.313,25.683,25.683,0,0,1,7.319-5.478c1.046-.533,1.9-.931,2.5-1.193A3.307,3.307,0,0,1,8746.491,1358.687Z" transform="translate(-8619.211 -1198.859)" fill="#fafafa"/>
        <path id="Trazado_142835" data-name="Trazado 142835" d="M8757.6,1364.561a3.775,3.775,0,0,1-1.139-1.254,6.994,6.994,0,0,1,.658-7.81,3.06,3.06,0,0,1,1.327-1.045c.063.084-.449.471-1.044,1.286a7.5,7.5,0,0,0-.618,7.391C8757.231,1364.018,8757.67,1364.5,8757.6,1364.561Z" transform="translate(-8614.96 -1199.62)" fill="#fafafa"/>
        <path id="Trazado_142836" data-name="Trazado 142836" d="M8741.982,1347.4a6.319,6.319,0,0,0-.606-.607,4.306,4.306,0,0,0-2.175-.961,5.439,5.439,0,0,0-3.648.753,11.19,11.19,0,0,0-3.463,3.66c-1.044,1.589-1.9,3.5-3.229,5.363a11.426,11.426,0,0,1-5.762,4.307,10.7,10.7,0,0,1-7.915-.46,11.331,11.331,0,0,1-5.822-6.21,6.77,6.77,0,0,1-.179-4.4,6.14,6.14,0,0,1,2.72-3.325,6.275,6.275,0,0,1,4.035-.931,6.7,6.7,0,0,1,3.586,1.7,8.768,8.768,0,0,1,2.833,6.576,10.823,10.823,0,0,1-1.945,5.97,12.141,12.141,0,0,1-3.784,3.556,15.312,15.312,0,0,1-3.586,1.568,17.018,17.018,0,0,1-2.414.5l-.639.073h-.23a5.905,5.905,0,0,1,.848-.177,18.57,18.57,0,0,0,2.374-.606,15.285,15.285,0,0,0,3.49-1.621,11.9,11.9,0,0,0,3.618-3.5,10.515,10.515,0,0,0,1.819-5.761,8.361,8.361,0,0,0-2.718-6.2,6.132,6.132,0,0,0-3.315-1.557,5.79,5.79,0,0,0-3.7.857,5.732,5.732,0,0,0-2.478,3.043,6.262,6.262,0,0,0,.179,4.057,10.858,10.858,0,0,0,5.54,5.907,10.154,10.154,0,0,0,7.527.46,10.949,10.949,0,0,0,5.553-4.1c1.308-1.788,2.206-3.7,3.272-5.3a11.318,11.318,0,0,1,3.639-3.712,5.588,5.588,0,0,1,3.827-.7,4.282,4.282,0,0,1,2.216,1.045A2.639,2.639,0,0,1,8741.982,1347.4Z" transform="translate(-8623.35 -1201.401)" fill="#fafafa"/>
        <path id="Trazado_142837" data-name="Trazado 142837" d="M8737.956,1362.768a4.787,4.787,0,0,1-1.683-1.327,11.5,11.5,0,0,1-2.9-9.7,5.032,5.032,0,0,1,.679-2.091c.1,0-.156.8-.292,2.091a12.758,12.758,0,0,0,2.792,9.41C8737.381,1362.183,8738.02,1362.7,8737.956,1362.768Z" transform="translate(-8618.979 -1200.483)" fill="#fafafa"/>
        <path id="Trazado_142838" data-name="Trazado 142838" d="M8746.145,1342.231s-.733-.355-2.093-.889a25.092,25.092,0,0,0-15.055-1.129,20.5,20.5,0,0,0-5.019,1.882,3.378,3.378,0,0,0-1.662,1.987,1.9,1.9,0,0,0,1.044,2.09,1.11,1.11,0,0,0,1.047-.334,2.6,2.6,0,0,0,.626-1.161,9.55,9.55,0,0,0,.241-2.781,12.428,12.428,0,0,0-1.338-5.134,11.986,11.986,0,0,0-2.948-3.794,11.8,11.8,0,0,0-3.648-2.092,12.8,12.8,0,0,0-6.054-.607c-1.443.23-2.206.554-2.217.5a2.126,2.126,0,0,1,.534-.25,11.629,11.629,0,0,1,7.873,0,12.274,12.274,0,0,1,3.8,2.091,12.541,12.541,0,0,1,3.137,3.911,12.9,12.9,0,0,1,1.421,5.342,10.146,10.146,0,0,1-.25,2.948,3.309,3.309,0,0,1-.764,1.4,1.674,1.674,0,0,1-1.631.471,2.092,2.092,0,0,1-1.243-1.12,2.743,2.743,0,0,1-.23-1.609,3.879,3.879,0,0,1,1.923-2.343,20.217,20.217,0,0,1,5.175-1.9,24.782,24.782,0,0,1,9.264-.346,23.28,23.28,0,0,1,5.991,1.757,14.714,14.714,0,0,1,1.546.794A1.95,1.95,0,0,1,8746.145,1342.231Z" transform="translate(-8623.317 -1204.045)" fill="#fafafa"/>
        <path id="Trazado_142839" data-name="Trazado 142839" d="M8672.827,1347.087a19.448,19.448,0,0,0,1.684-1.548,14.511,14.511,0,0,0,3.282-5.228,11.352,11.352,0,0,0-.261-8.845,11.186,11.186,0,0,0-3.336-4.12,9.407,9.407,0,0,0-5.228-1.976,6.035,6.035,0,0,0-2.76.576,3.54,3.54,0,0,0-1.841,1.871,2.7,2.7,0,0,0,.377,2.426,3.947,3.947,0,0,0,1.976,1.475,5.423,5.423,0,0,0,4.526-.774,7.6,7.6,0,0,0,2.751-3.137,15.836,15.836,0,0,0,1.308-6,11.652,11.652,0,0,1,.072-1.7,2.007,2.007,0,0,1,.052-.586,1.9,1.9,0,0,1,0,.586v1.7a15.169,15.169,0,0,1-1.106,6.283,8,8,0,0,1-2.845,3.326,5.86,5.86,0,0,1-4.925.867,4.366,4.366,0,0,1-2.258-1.652,3.181,3.181,0,0,1-.449-2.9,3.963,3.963,0,0,1,2.089-2.174,6.627,6.627,0,0,1,3.023-.638,9.88,9.88,0,0,1,5.571,2.092,11.642,11.642,0,0,1,3.472,4.338,10.963,10.963,0,0,1,1.045,4.9,12.56,12.56,0,0,1-.856,4.286,14.263,14.263,0,0,1-3.5,5.228,9.061,9.061,0,0,1-1.319,1.045A2.892,2.892,0,0,1,8672.827,1347.087Z" transform="translate(-8631.479 -1205.9)" fill="#fafafa"/>
        <path id="Trazado_142840" data-name="Trazado 142840" d="M8690.555,1360.223a3.95,3.95,0,0,1-.816-.868,16.733,16.733,0,0,1-1.8-2.718,19.291,19.291,0,0,1,1.348-20.461,17.2,17.2,0,0,1,2.092-2.457,4.472,4.472,0,0,1,.951-.731c.074.084-1.234,1.191-2.74,3.439a19.866,19.866,0,0,0-1.326,20.064A40.8,40.8,0,0,0,8690.555,1360.223Z" transform="translate(-8627.533 -1203.479)" fill="#fafafa"/>
        <path id="Trazado_142841" data-name="Trazado 142841" d="M8710.569,1339.119c-.095,0-.534-1.569-1.829-3.879a21.5,21.5,0,0,0-16.52-10.926c-2.635-.293-4.287-.063-4.287-.168a4.431,4.431,0,0,1,1.15-.2,19.06,19.06,0,0,1,3.137,0,20.681,20.681,0,0,1,16.833,11.134,17.836,17.836,0,0,1,1.224,2.927A4.178,4.178,0,0,1,8710.569,1339.119Z" transform="translate(-8627.118 -1205.115)" fill="#fafafa"/>
        <g id="Grupo_89203" data-name="Grupo 89203" transform="translate(111.283 149.247)" opacity="0.3">
          <path id="Trazado_142842" data-name="Trazado 142842" d="M8731.453,1363.738c-1.046.429-.909,2.018-.072,2.709a4.471,4.471,0,0,0,3.136.669,40.38,40.38,0,0,0,30.979-17.4c-9.411,7.748-21.853,10.685-33.782,13.383" transform="translate(-8730.711 -1349.718)" fill="#344154"/>
        </g>
        <g id="Grupo_89204" data-name="Grupo 89204" transform="translate(109.654 119.273)" opacity="0.3">
          <path id="Trazado_142843" data-name="Trazado 142843" d="M8729.83,1357.642c-1.044-1.578-.335-3.8,1.045-5.133a17.568,17.568,0,0,1,4.832-2.875,30.51,30.51,0,0,0,14.092-14.459c1.9-4.12,3.336-9.169,7.55-10.863a40.839,40.839,0,0,1-26.881,32.055" transform="translate(-8729.33 -1324.311)" fill="#344154"/>
        </g>
        <g id="Grupo_89205" data-name="Grupo 89205" transform="translate(76.916 98.393)" opacity="0.3">
          <path id="Trazado_142844" data-name="Trazado 142844" d="M8705.146,1306.613a106.1,106.1,0,0,1-2.4,34.168,28.772,28.772,0,0,0-1.16,7.2,9.573,9.573,0,0,0,3.471,6.763c1.734-4,1.768-7.862,2.5-12.169.66-3.879,1.766-12.943,1.766-13.08.158-7.924-1.713-14.72-4.766-21.861" transform="translate(-8701.582 -1306.613)" fill="#344154"/>
        </g>
        <g id="Grupo_89206" data-name="Grupo 89206" transform="translate(99.583 63.892)" opacity="0.3">
          <path id="Trazado_142845" data-name="Trazado 142845" d="M8721.391,1277.546a41.736,41.736,0,0,0,11.835,22.207c2.312,2.249,5.228,4.328,8.417,4.182a19.69,19.69,0,0,1-1.62-12.317,50.847,50.847,0,0,0,8.614,4.685,17.1,17.1,0,0,0,9.619,1.045l1.987-17.282a3.243,3.243,0,0,0-.179-1.944,1.118,1.118,0,0,0-1.5-.5.947.947,0,0,0-.159.1,1.66,1.66,0,0,0-.324.763c-1.171,5.071-1.831,9.619-3.012,14.7-.847.836-3.449.491-5.165-.146-1.494-.554-2.089-1.789-3.053-3.032s-.815-1.045-2.278-1.652c-2.7-1.14-7.873-.23-9,2.185s-.271,5.6.48,7.987a36.22,36.22,0,0,1-15.254-21.16" transform="translate(-8720.795 -1277.369)" fill="#344154"/>
        </g>
        <g id="Grupo_89207" data-name="Grupo 89207" transform="translate(154.995 88.598)" opacity="0.3">
          <path id="Trazado_142846" data-name="Trazado 142846" d="M8769.959,1298.31c-.209.417,6.514,23.084,6.514,23.084l-8.709-4.966Z" transform="translate(-8767.764 -1298.31)" fill="#344154"/>
        </g>
        <path id="Trazado_142847" data-name="Trazado 142847" d="M8723.754,1245.463v36.081a8.724,8.724,0,0,0,2.093,5.635h0a26.184,26.184,0,0,0,7.255,6l7.317,4.109,6.023-5.384a8.768,8.768,0,0,0,2.916-6.178c.1-2.636.095-5.228.095-5.228s10.2-.733,11.167-10.79c.449-4.748.6-14.45.617-23.389a19.575,19.575,0,0,0-18.048-19.676h-.281a18.7,18.7,0,0,0-19.149,18.249C8723.756,1245.082,8723.753,1245.273,8723.754,1245.463Z" transform="translate(-8620.679 -1222.597)" fill="#ffbe9d"/>
        <path id="Trazado_142848" data-name="Trazado 142848" d="M8747.415,1272.977a24.417,24.417,0,0,1-12.786-4.967s2.635,7.632,12.767,7.559Z" transform="translate(-8618.725 -1215.159)" fill="#eb996e"/>
        <path id="Trazado_142849" data-name="Trazado 142849" d="M8753.366,1248.952a1.441,1.441,0,0,1-1.5,1.338,1.381,1.381,0,0,1-1.371-1.39l0-.032a1.442,1.442,0,0,1,1.5-1.338,1.37,1.37,0,0,1,1.371,1.368Z" transform="translate(-8615.873 -1218.841)" fill="#344154"/>
        <path id="Trazado_142850" data-name="Trazado 142850" d="M8754.144,1246.966c-.189.167-1.214-.731-2.762-.858s-2.751.565-2.9.355.127-.407.659-.731a3.962,3.962,0,0,1,2.331-.512,3.783,3.783,0,0,1,2.186.91C8754.11,1246.537,8754.227,1246.882,8754.144,1246.966Z" transform="translate(-8616.241 -1219.259)" fill="#344154"/>
        <path id="Trazado_142851" data-name="Trazado 142851" d="M8741,1248.332a1.443,1.443,0,0,1-1.506,1.338,1.392,1.392,0,0,1-1.381-1.4v-.021a1.453,1.453,0,0,1,1.506-1.338,1.379,1.379,0,0,1,1.38,1.379Z" transform="translate(-8618.097 -1218.952)" fill="#344154"/>
        <path id="Trazado_142852" data-name="Trazado 142852" d="M8741.232,1246.146c-.2.166-1.224-.722-2.771-.847s-2.74.554-2.9.344.137-.407.661-.731a4.027,4.027,0,0,1,2.341-.544,3.854,3.854,0,0,1,2.186.91C8741.189,1245.716,8741.327,1246.062,8741.232,1246.146Z" transform="translate(-8618.564 -1219.411)" fill="#344154"/>
        <path id="Trazado_142853" data-name="Trazado 142853" d="M8744.315,1257.972a9.959,9.959,0,0,1,2.549-.25c.4,0,.784,0,.868-.314a2.007,2.007,0,0,0-.166-1.193c-.293-1.045-.6-2.028-.921-3.136a60.043,60.043,0,0,1-1.965-8.092,59.6,59.6,0,0,1,2.613,7.914c.3,1.045.6,2.092.867,3.137a2.264,2.264,0,0,1,.084,1.568,1.043,1.043,0,0,1-.7.523,2.632,2.632,0,0,1-.682,0A10.741,10.741,0,0,1,8744.315,1257.972Z" transform="translate(-8616.984 -1219.298)" fill="#344154"/>
        <path id="Trazado_142854" data-name="Trazado 142854" d="M8740.429,1256.578c.251,0,.114,1.694,1.454,3s3.136,1.277,3.136,1.507-.418.3-1.182.261a4.178,4.178,0,0,1-2.623-1.17,3.637,3.637,0,0,1-1.107-2.509C8740.094,1256.965,8740.314,1256.557,8740.429,1256.578Z" transform="translate(-8617.74 -1217.214)" fill="#344154"/>
        <path id="Trazado_142855" data-name="Trazado 142855" d="M8742.209,1240.984c-.189.408-1.716.084-3.544.146s-3.347.44-3.555,0c-.095-.188.187-.564.815-.919a6.152,6.152,0,0,1,5.414-.147C8741.99,1240.431,8742.293,1240.786,8742.209,1240.984Z" transform="translate(-8618.642 -1220.283)" fill="#344154"/>
        <path id="Trazado_142856" data-name="Trazado 142856" d="M8753.905,1243.14c-.3.323-1.339-.126-2.614-.251s-2.384,0-2.6-.346c-.1-.188.106-.532.608-.826a3.805,3.805,0,0,1,4.182.481C8753.926,1242.6,8754.041,1242.973,8753.905,1243.14Z" transform="translate(-8616.201 -1219.96)" fill="#344154"/>
        <path id="Trazado_142857" data-name="Trazado 142857" d="M8735.835,1234.986h-.062a7.952,7.952,0,0,0-3.368,4.946v.209c-.636,2.834-.8,5.761-1.463,8.595s-.533,5-3.377,5.635a3.763,3.763,0,0,1-3.952-1.6,2.557,2.557,0,0,1-.261-1.338c0-6.984-1.361-9.692-.753-16.938a6.145,6.145,0,0,1,2.948-4.767c1.609-.961,3.555-1.944,5.228-1.045s3.555,4.276,4.747,5.73" transform="translate(-8620.914 -1222.293)" fill="#344154"/>
        <path id="Trazado_142858" data-name="Trazado 142858" d="M8727.389,1246.74c-.155-.083-6.742-2.613-7.1,4.287s6.659,5.834,6.681,5.636S8727.389,1246.74,8727.389,1246.74Z" transform="translate(-8621.304 -1219.076)" fill="#ffbe9d"/>
        <path id="Trazado_142859" data-name="Trazado 142859" d="M8724.731,1253.6a2.027,2.027,0,0,1-.335.167,1.166,1.166,0,0,1-.9,0,2.974,2.974,0,0,1-1.244-2.749,3.841,3.841,0,0,1,.429-1.7,1.391,1.391,0,0,1,.951-.878.617.617,0,0,1,.69.366c.083.2,0,.334.064.344s.155-.1.113-.387a.726.726,0,0,0-.251-.449.859.859,0,0,0-.647-.209,1.686,1.686,0,0,0-1.318,1.045,4.18,4.18,0,0,0-.512,1.9,3.139,3.139,0,0,0,1.6,3.075,1.319,1.319,0,0,0,1.108-.126C8724.71,1253.764,8724.753,1253.618,8724.731,1253.6Z" transform="translate(-8621.039 -1218.739)" fill="#eb996e"/>
        <path id="Trazado_142860" data-name="Trazado 142860" d="M8729.241,1230.646c-1.475-2.9,3.5-6.46,6.984-7.255s7.83,1.245,11.124,2.645c2.09.879,4.119,2.092,6.367,2.092a15.434,15.434,0,0,0,4.454-.743,11.328,11.328,0,0,1,4.485-.512,4.178,4.178,0,0,1,3.47,2.645,2.6,2.6,0,0,1-1.687,3.273,2.644,2.644,0,0,1-.4.094,3.4,3.4,0,1,1,.376,6.346c1.045-.669,2.445.68,2.217,1.892a3.568,3.568,0,0,1-2.562,2.415c-2.979,1.045-6.273.346-9.18-.9s-5.521-3.032-8.363-4.349-7.633-3.66-10.676-2.855c-2.248.585-3.972,3.084-5.153,2.395a4.179,4.179,0,0,1-1.914-3.253,12.158,12.158,0,0,1,.46-3.91" transform="translate(-8619.777 -1223.212)" fill="#344154"/>
        <path id="Trazado_142861" data-name="Trazado 142861" d="M8764.6,1232.477c-.054,0-.4.471-1.2,1.213a9.462,9.462,0,0,1-4.035,2.154,8.727,8.727,0,0,1-6.544-.815c-2.249-1.234-4.078-3.5-6.222-5.677a14.358,14.358,0,0,0-7.433-4.35,7.964,7.964,0,0,0-6.8,1.735,5.978,5.978,0,0,0-1.924,4.318,4.412,4.412,0,0,0,.188,1.286,1.386,1.386,0,0,0,.187.419,10.355,10.355,0,0,1-.113-1.694,5.9,5.9,0,0,1,1.984-3.974,7.551,7.551,0,0,1,6.337-1.474,13.935,13.935,0,0,1,7.068,4.182c2.092,2.091,3.982,4.443,6.4,5.74a9.408,9.408,0,0,0,11.061-1.694,7.3,7.3,0,0,0,.815-1.045C8764.549,1232.623,8764.623,1232.487,8764.6,1232.477Z" transform="translate(-8619.476 -1222.921)" fill="#5e6178"/>
        <path id="Trazado_142862" data-name="Trazado 142862" d="M8725.032,1248.983a1.827,1.827,0,0,0,.618-.69,4.656,4.656,0,0,0,.555-2.467c0-2.238-1.735-4.778-1.735-7.862a6.977,6.977,0,0,1,1.107-4.046,5.225,5.225,0,0,1,2.76-2,4.55,4.55,0,0,1,2.322-.125c.554.136.836.293.867.241s-.229-.272-.784-.492a4.3,4.3,0,0,0-2.53-.093,5.577,5.577,0,0,0-3.137,2.09,7.327,7.327,0,0,0-1.276,4.423,12.663,12.663,0,0,0,.974,4.443,13.5,13.5,0,0,1,.962,3.43A5.384,5.384,0,0,1,8725.032,1248.983Z" transform="translate(-8620.672 -1221.758)" fill="#5e6178"/>
      </g>
      <g id="freepik--Lines--inject-49" transform="translate(48.524 140.238)">
        <path id="Trazado_142863" data-name="Trazado 142863" d="M8771.941,1415.3h-1.559l-4.56.063c-4.014.063-9.932.219-17.541.585s-16.919,1.045-27.676,2.3c-5.363.648-11.114,1.38-17.169,2.383s-12.431,2.175-19.069,3.692-13.592,3.314-20.617,5.624a137.763,137.763,0,0,0-21.381,8.814,68.964,68.964,0,0,0-10.246,6.556,32.655,32.655,0,0,0-8.365,9.18c-.261.46-.531.91-.771,1.379l-.587,1.475-.3.742c-.084.251-.126.512-.2.774l-.366,1.548a15.473,15.473,0,0,0,.313,6.387c1.045,4.234,3.814,7.883,7.024,10.958,6.547,6.157,14.9,10.455,23.567,14.031a194.216,194.216,0,0,0,27.467,8.688,361.613,361.613,0,0,0,59.938,8.825,478.239,478.239,0,0,0,60.641.24,382.386,382.386,0,0,0,56-7.318,236.2,236.2,0,0,0,25.385-6.849,126.038,126.038,0,0,0,22.7-9.89,63.039,63.039,0,0,0,9.568-6.806,27.631,27.631,0,0,0,6.918-8.825l.523-1.276a7.247,7.247,0,0,0,.44-1.3l.313-1.318c.052-.219.126-.439.155-.658v-.68a13.124,13.124,0,0,0-.4-5.228,18.514,18.514,0,0,0-2.207-4.715,28.607,28.607,0,0,0-3.239-3.983,48.7,48.7,0,0,0-7.655-6.274,78.986,78.986,0,0,0-8.111-4.83,139.7,139.7,0,0,0-15.81-7.047,240.828,240.828,0,0,0-26.514-8.176c-7.393-1.84-13.2-3.011-17.137-3.763-1.966-.387-3.481-.638-4.485-.837l-1.537-.292s2.092.3,6.044,1.045,9.754,1.85,17.167,3.669a235.15,235.15,0,0,1,26.566,8.093,139.5,139.5,0,0,1,15.871,7.015,80.743,80.743,0,0,1,8.155,4.841,49.319,49.319,0,0,1,7.727,6.346,29.448,29.448,0,0,1,3.283,4.025,18.856,18.856,0,0,1,2.289,4.821,13.591,13.591,0,0,1,.418,5.436l-.052.69a3.227,3.227,0,0,1-.156.68l-.325,1.348a7.3,7.3,0,0,1-.45,1.328l-.521,1.306a28.153,28.153,0,0,1-7.016,8.971,62.672,62.672,0,0,1-9.64,6.879,126.446,126.446,0,0,1-22.75,9.954,235.864,235.864,0,0,1-25.438,6.89,382.258,382.258,0,0,1-56.07,7.319,477.36,477.36,0,0,1-60.713-.23,361.589,361.589,0,0,1-60.035-8.856,192.908,192.908,0,0,1-27.538-8.72c-8.688-3.617-17.083-7.914-23.712-14.145-3.251-3.137-6.1-6.838-7.163-11.208a16.043,16.043,0,0,1-.312-6.576l.387-1.6c.063-.272.114-.533.2-.8l.3-.763.616-1.505c.241-.48.523-.951.784-1.422a33.147,33.147,0,0,1,8.521-9.3,70.158,70.158,0,0,1,10.33-6.587,137.01,137.01,0,0,1,21.454-8.814c7.087-2.3,14.009-4.1,20.659-5.6s13.048-2.7,19.112-3.649,11.814-1.725,17.188-2.352c10.769-1.2,20.085-1.84,27.7-2.206s13.54-.46,17.554-.491h6.118Z" transform="translate(-8598.093 -1291.394)" fill="#d9a171"/>
        <path id="Trazado_142864" data-name="Trazado 142864" d="M8689.964,1349.3s-.6.136-1.757.366-2.9.565-5.165,1.045c-4.536.942-11.218,2.4-19.7,4.716a201.992,201.992,0,0,0-30.133,10.674c-2.831,1.3-5.738,2.729-8.635,4.37a82.665,82.665,0,0,0-8.668,5.563,48.535,48.535,0,0,0-8,7.319,25.26,25.26,0,0,0-5.426,9.952,18.237,18.237,0,0,0,.867,11.7,30.068,30.068,0,0,0,7.235,10.131c6.189,5.928,14.042,10.455,22.395,14.293,16.843,7.653,36.07,12.786,56.459,16.613a472.287,472.287,0,0,0,64.821,7.151,559.215,559.215,0,0,0,70.05-1.244c23.9-2,47.163-5.511,69.057-11.261a206.563,206.563,0,0,0,31.447-10.789,108.285,108.285,0,0,0,14.1-7.528,54.2,54.2,0,0,0,11.972-10.1c3.336-3.9,5.793-8.677,5.939-13.717a13.924,13.924,0,0,0-.063-1.871,13.4,13.4,0,0,0-.2-1.851l-.407-1.819a13.43,13.43,0,0,0-.6-1.757,26.525,26.525,0,0,0-3.586-6.408,49.268,49.268,0,0,0-10.611-9.8,97.026,97.026,0,0,0-12.14-7.1,172.143,172.143,0,0,0-24.862-9.755c-8.2-2.561-16.184-4.6-23.857-6.273a459.464,459.464,0,0,0-73.825-9.41c-8.78-.45-15.619-.469-20.252-.585l-5.227-.114-1.787-.064h1.787l5.227.064c4.633.083,11.5.062,20.264.491a454.641,454.641,0,0,1,73.9,9.253c7.684,1.694,15.683,3.712,23.9,6.273a171.2,171.2,0,0,1,24.936,9.765,96.34,96.34,0,0,1,12.211,7.047,49.851,49.851,0,0,1,10.717,9.881,26.87,26.87,0,0,1,3.659,6.535,12.027,12.027,0,0,1,.607,1.8l.429,1.862a12.546,12.546,0,0,1,.2,1.9,12.9,12.9,0,0,1,.074,1.912,19.53,19.53,0,0,1-1.818,7.487,27.86,27.86,0,0,1-4.183,6.544,54.459,54.459,0,0,1-12.087,10.2,107.568,107.568,0,0,1-14.272,7.632,208.038,208.038,0,0,1-31.521,10.842c-21.955,5.761-45.218,9.284-69.149,11.281a558.082,558.082,0,0,1-70.05,1.234,473.259,473.259,0,0,1-64.821-7.184c-20.44-3.858-39.729-9.012-56.585-16.728-8.362-3.9-16.257-8.416-22.5-14.418a30.556,30.556,0,0,1-7.318-10.266,18.653,18.653,0,0,1-.856-11.96,25.49,25.49,0,0,1,5.509-10.079,48.377,48.377,0,0,1,8.082-7.4,81.931,81.931,0,0,1,8.708-5.561c2.907-1.642,5.824-3.074,8.669-4.371a200.894,200.894,0,0,1,30.247-10.591c8.5-2.29,15.19-3.712,19.739-4.621S8689.964,1349.3,8689.964,1349.3Z" transform="translate(-8601.556 -1304.615)" fill="#d9a171"/>
        <path id="Trazado_142865" data-name="Trazado 142865" d="M8718.939,1482.406l-5.229.826c-3.419.543-8.448,1.411-14.878,2.813a190.735,190.735,0,0,0-23,6.492,108.6,108.6,0,0,0-13.7,5.959,58.6,58.6,0,0,0-6.943,4.245,35.927,35.927,0,0,0-6.388,5.688,20.751,20.751,0,0,0-2.53,3.638,14.517,14.517,0,0,0-1.558,4.182c-.052.376-.146.753-.178,1.14l-.073,1.15c0,.763.1,1.537.166,2.31a22.13,22.13,0,0,0,.606,2.269l.44,1.1.22.555.293.512a25.756,25.756,0,0,0,6.271,7.391,51.566,51.566,0,0,0,8.429,5.657,111.923,111.923,0,0,0,19.707,8.228,202.719,202.719,0,0,0,21.955,5.615,325.969,325.969,0,0,0,48.365,5.782,392.688,392.688,0,0,0,52.278-.91c17.856-1.548,35.232-4.277,51.512-8.877a129.838,129.838,0,0,0,23.211-8.845,58.533,58.533,0,0,0,10.089-6.514c.794-.6,1.473-1.328,2.206-1.987s1.327-1.443,2-2.154a18.974,18.974,0,0,0,2.969-4.965,13.323,13.323,0,0,0-.46-11.031,26.474,26.474,0,0,0-7.193-8.363c-5.761-4.58-12.3-7.664-18.692-10.225a157.715,157.715,0,0,0-19.02-6.1c-6.209-1.6-12.242-2.865-18.024-3.879a357.4,357.4,0,0,0-55.412-5.071l-20.418-.105s7.265-.093,20.418,0a354.181,354.181,0,0,1,55.412,4.967c5.8,1.045,11.835,2.269,18.058,3.868a157.08,157.08,0,0,1,19.111,6.137c6.4,2.561,12.964,5.645,18.767,10.257a26.811,26.811,0,0,1,7.318,8.479,13.591,13.591,0,0,1,.472,11.26,19.475,19.475,0,0,1-3.013,5.049c-.679.722-1.3,1.506-2.027,2.186a26.543,26.543,0,0,1-2.218,2,58.328,58.328,0,0,1-10.151,6.567,130.088,130.088,0,0,1-23.263,8.877,279.031,279.031,0,0,1-51.564,8.886,393.173,393.173,0,0,1-52.338.91,327.865,327.865,0,0,1-48.4-5.8,205.172,205.172,0,0,1-21.956-5.646,110.958,110.958,0,0,1-19.76-8.26,52.248,52.248,0,0,1-8.459-5.7,25.866,25.866,0,0,1-6.336-7.475l-.3-.523-.219-.565-.45-1.108c-.281-.753-.4-1.548-.606-2.31a8.953,8.953,0,0,1-.167-2.363l.072-1.172a7.24,7.24,0,0,1,.188-1.15,14.627,14.627,0,0,1,1.579-4.3,21.158,21.158,0,0,1,2.561-3.67,35.943,35.943,0,0,1,6.43-5.718,59.963,59.963,0,0,1,6.984-4.256,107.441,107.441,0,0,1,13.613-5.969,188.854,188.854,0,0,1,23.074-6.451c6.43-1.38,11.5-2.227,14.89-2.75S8718.939,1482.406,8718.939,1482.406Z" transform="translate(-8593.874 -1279.962)" fill="#d9a171"/>
        <path id="Trazado_142866" data-name="Trazado 142866" d="M8850.037,1567.176a10.848,10.848,0,0,0-.869-3.817c-.973-2.394-3.574-5.374-7.662-8.071-8.207-5.406-21.957-9.943-39.229-12.724a238.389,238.389,0,0,0-28.479-2.792,274.477,274.477,0,0,0-32.881.606c-5.783.449-11.691,1.12-17.682,2.092a167.3,167.3,0,0,0-18.15,3.837c-3.043.815-6.084,1.767-9.086,2.865a73.118,73.118,0,0,0-8.875,3.868,35.963,35.963,0,0,0-8.041,5.573c-2.373,2.217-4.309,5.228-4.359,8.573s1.977,6.357,4.348,8.584a35.9,35.9,0,0,0,7.947,5.551,71.376,71.376,0,0,0,8.877,3.868,93.648,93.648,0,0,0,9.086,2.875,167.6,167.6,0,0,0,18.16,3.838c5.99.951,11.9,1.62,17.68,2.091a272.257,272.257,0,0,0,32.893.606,238.015,238.015,0,0,0,28.563-2.823c17.293-2.781,31.021-7.318,39.238-12.724,4.09-2.7,6.68-5.677,7.652-8.071a10.792,10.792,0,0,0,.869-3.806,6.949,6.949,0,0,1-.074.993,5.121,5.121,0,0,1-.219,1.213,7.709,7.709,0,0,1-.543,1.61c-.963,2.415-3.557,5.415-7.645,8.133-8.217,5.438-21.953,10.006-39.258,12.808a240.2,240.2,0,0,1-28.543,2.823,274.5,274.5,0,0,1-32.912-.585c-5.783-.46-11.689-1.12-17.689-2.092a164.587,164.587,0,0,1-18.182-3.826c-3.053-.815-6.1-1.767-9.107-2.875a74.458,74.458,0,0,1-8.908-3.879,36.475,36.475,0,0,1-8.092-5.6,16.216,16.216,0,0,1-3.074-3.92,9.416,9.416,0,0,1,0-9.64,16.308,16.308,0,0,1,3.137-3.911,36.479,36.479,0,0,1,8.092-5.6,74.914,74.914,0,0,1,8.9-3.879c3.021-1.108,6.064-2.09,9.115-2.875a167.707,167.707,0,0,1,18.172-3.826c6-.952,11.908-1.621,17.691-2.092a272.581,272.581,0,0,1,32.912-.585,238.176,238.176,0,0,1,28.543,2.813c17.293,2.8,31.041,7.371,39.258,12.807,4.088,2.718,6.682,5.719,7.643,8.135a7.8,7.8,0,0,1,.545,1.61,5.324,5.324,0,0,1,.219,1.213A9.751,9.751,0,0,0,8850.037,1567.176Z" transform="translate(-8588.45 -1269.099)" fill="#d9a171"/>
        <path id="Trazado_142867" data-name="Trazado 142867" d="M8628.52,1425.99a3.34,3.34,0,1,1,0-.011Z" transform="translate(-8597.909 -1290.073)" fill="#d9a171"/>
        <circle id="Elipse_4249" data-name="Elipse 4249" cx="3.335" cy="3.335" r="3.335" transform="translate(325.793 134.84)" fill="#d9a171"/>
        <path id="Trazado_142868" data-name="Trazado 142868" d="M8768.986,1532.156a3.346,3.346,0,1,1-3.355-3.335h.021a3.334,3.334,0,0,1,3.334,3.335Z" transform="translate(-8572.66 -1270.986)" fill="#d9a171"/>
        <path id="Trazado_142869" data-name="Trazado 142869" d="M8682.56,1459.2a1.673,1.673,0,1,1-1.673-1.673,1.672,1.672,0,0,1,1.673,1.673Z" transform="translate(-8587.596 -1283.803)" fill="#d9a171"/>
        <path id="Trazado_142870" data-name="Trazado 142870" d="M8858.48,1493.477a1.673,1.673,0,1,1-1.674-1.673h.011A1.673,1.673,0,0,1,8858.48,1493.477Z" transform="translate(-8555.971 -1277.64)" fill="#d9a171"/>
        <path id="Trazado_142871" data-name="Trazado 142871" d="M8746.766,1558.906a1.673,1.673,0,1,1-1.674-1.673h.011A1.672,1.672,0,0,1,8746.766,1558.906Z" transform="translate(-8576.054 -1265.879)" fill="#d9a171"/>
        <circle id="Elipse_4250" data-name="Elipse 4250" cx="0.836" cy="0.836" r="0.836" transform="translate(82.805)" fill="#d9a171"/>
      </g>
      <g id="freepik--front-screens--inject-49" transform="translate(36.939 125.109)">
        <path id="Trazado_142872" data-name="Trazado 142872" d="M8819.383,1431.981c-40.535,10.728-79.6,9.911-122.189,0l-5-77.87c44.007,8.563,88.181,7.476,127.168-1.839Z" transform="translate(-8573.676 -1287.595)" fill="#d9a171"/>
        <g id="Grupo_89208" data-name="Grupo 89208" transform="translate(118.519 64.676)" opacity="0.8">
          <path id="Trazado_142873" data-name="Trazado 142873" d="M8819.383,1431.981c-40.535,10.728-79.6,9.911-122.189,0l-5-77.87c44.007,8.563,88.181,7.476,127.168-1.839Z" transform="translate(-8692.195 -1352.271)" fill="#fff" stroke="#5e6178" stroke-miterlimit="10" stroke-width="0"/>
        </g>
        <path id="Trazado_142874" data-name="Trazado 142874" d="M8811.12,1409.777a1.069,1.069,0,0,1-.261.125l-.765.324c-.679.271-1.661.71-2.969,1.181a112.369,112.369,0,0,1-11.218,3.513,146.673,146.673,0,0,1-38.455,4.391,224.492,224.492,0,0,1-38.536-4.12c-4.884-.931-8.8-1.787-11.5-2.415-1.35-.3-2.395-.565-3.136-.742l-.807-.209c-.176-.053-.271-.084-.261-.095h.282l.814.157,3.138.637c2.708.565,6.649,1.37,11.5,2.238a236.654,236.654,0,0,0,38.477,3.963,151.594,151.594,0,0,0,38.359-4.182c4.8-1.213,8.627-2.426,11.239-3.356,1.317-.428,2.311-.836,3-1.045l.782-.273A.787.787,0,0,1,8811.12,1409.777Z" transform="translate(-8571.697 -1277.257)" fill="#d9a171"/>
        <path id="Trazado_142875" data-name="Trazado 142875" d="M8746.568,1416.883a26.557,26.557,0,0,1-15.6-.523v-27.707a39.184,39.184,0,0,1,15.6,0Z" transform="translate(-8566.708 -1281.196)" fill="#d9a171"/>
        <path id="Trazado_142876" data-name="Trazado 142876" d="M8768.133,1417.526a1.029,1.029,0,0,1,0-.219v-.6c0-.564,0-1.338-.073-2.321,0-2.039-.094-4.956-.168-8.605-.105-7.318-.262-17.638-.438-29.567l.21.251a42.19,42.19,0,0,0-16.154,0l.219-.261v.543c.168,16.373.325,31.167.429,41.727l-.156-.189a37.365,37.365,0,0,0,6.806.837,25.594,25.594,0,0,0,5.135-.428,24.067,24.067,0,0,0,3.137-.826l.783-.273a1.154,1.154,0,0,1,.293-.083l-.251.115-.795.346a22.142,22.142,0,0,1-3.136.93,24.444,24.444,0,0,1-5.176.512,35.65,35.65,0,0,1-6.879-.753h-.146v-.209c-.156-10.559-.366-25.343-.6-41.715v-.785h.231a42.14,42.14,0,0,1,16.352,0l.21.052v.209c.094,11.982.167,22.322.229,29.7v11.417C8768.194,1417.5,8768.143,1417.526,8768.133,1417.526Z" transform="translate(-8563.075 -1283.481)" fill="#d9a171"/>
        <path id="Trazado_142877" data-name="Trazado 142877" d="M8788.257,1415.092c-4.184,2.259-9.672,2.563-15.61,2.217v-45.773a33.375,33.375,0,0,1,15.61,0Z" transform="translate(-8559.215 -1284.298)" fill="#d9a171"/>
        <path id="Trazado_142878" data-name="Trazado 142878" d="M8725.543,1413.365s0-.429-.054-1.182,0-1.871-.061-3.2c0-2.781-.075-6.639-.116-11.228l.146.219a34.862,34.862,0,0,0-15.023-2.5h0l.251-.272v15.609l-.138-.209a29.163,29.163,0,0,0,6.023,1.714c1.85.335,3.471.524,4.819.659l3.137.261a9.722,9.722,0,0,1,1.107.126,8.217,8.217,0,0,1-1.107,0,29.318,29.318,0,0,1-3.137-.137c-1.349-.136-2.989-.25-4.851-.553a28,28,0,0,1-6.148-1.662l-.137-.064v-16.016h.273a34.654,34.654,0,0,1,15.244,2.6l.155.053v.168c0,4.652-.093,8.563-.125,11.385,0,1.307,0,2.352-.062,3.137A6.32,6.32,0,0,1,8725.543,1413.365Z" transform="translate(-8570.43 -1279.936)" fill="#d9a171"/>
        <path id="Trazado_142879" data-name="Trazado 142879" d="M8732.581,1376.412a15.638,15.638,0,0,1-3.053.188c-1.893,0-4.506,0-7.381-.177s-5.468-.44-7.319-.69a15.407,15.407,0,0,1-3.01-.544,19.143,19.143,0,0,1,3.042.167c1.882.146,4.476.355,7.317.523s5.47.271,7.319.334A20.286,20.286,0,0,1,8732.581,1376.412Z" transform="translate(-8570.151 -1283.476)" fill="#d9a171"/>
        <path id="Trazado_142880" data-name="Trazado 142880" d="M8730.218,1379.336a13.555,13.555,0,0,1-2.678,0c-1.651-.084-3.932-.23-6.451-.419s-4.8-.4-6.44-.575a13.176,13.176,0,0,1-2.645-.4,13.508,13.508,0,0,1,2.677,0c1.661.084,3.93.23,6.451.419s4.786.4,6.43.575A13.668,13.668,0,0,1,8730.218,1379.336Z" transform="translate(-8570.118 -1282.992)" fill="#d9a171"/>
        <path id="Trazado_142881" data-name="Trazado 142881" d="M8736.712,1385.243v-.972c0-.617.054-1.568.1-2.7.105-2.362.262-5.688.46-9.775l.2.219a223.458,223.458,0,0,1-28.887-1.609l.3-.251h0v.858l-.053.878c0,.585-.062,1.171-.1,1.746-.064,1.161-.127,2.3-.2,3.419-.136,2.247-.261,4.423-.387,6.5l-.22-.271c8.364,1.045,15.569,1.463,20.681,1.662l5.991.178,1.568.052h.574a2.964,2.964,0,0,1-.522,0c-.355,0-.921,0-1.62.052h-6c-5.124-.1-12.358-.481-20.732-1.474h-.24v-.251c.114-2.092.24-4.255.365-6.5.064-1.12.127-2.259.2-3.419l.094-1.746V1370.1h0l.3-.251a246.991,246.991,0,0,0,28.93,1.767h.209v.209c-.282,4.12-.512,7.486-.68,9.87-.084,1.108-.158,2-.21,2.645A4.576,4.576,0,0,1,8736.712,1385.243Z" transform="translate(-8570.905 -1284.434)" fill="#d9a171"/>
        <path id="Trazado_142882" data-name="Trazado 142882" d="M8735.846,1388.764a12.315,12.315,0,0,1-2.018-2.792,10.031,10.031,0,0,1-1.549-3.073,12.352,12.352,0,0,1,2.02,2.792A10.034,10.034,0,0,1,8735.846,1388.764Z" transform="translate(-8566.472 -1282.089)" fill="#d9a171"/>
        <path id="Trazado_142883" data-name="Trazado 142883" d="M8591.735,1301.97l13.247,80.17s20.231,37.868,73.971,46.4l-8.667-71.555S8620.58,1341.595,8591.735,1301.97Z" transform="translate(-8591.735 -1296.637)" fill="#d9a171"/>
        <g id="Grupo_89209" data-name="Grupo 89209" transform="translate(0 5.333)" opacity="0.8">
          <path id="Trazado_142884" data-name="Trazado 142884" d="M8591.735,1301.97l13.247,80.17s20.231,37.868,73.971,46.4l-8.667-71.555S8620.58,1341.595,8591.735,1301.97Z" transform="translate(-8591.735 -1301.97)" fill="#fff" stroke="#5e6178" stroke-miterlimit="10" stroke-width="0"/>
        </g>
        <path id="Trazado_142885" data-name="Trazado 142885" d="M8670.968,1419.507l-.336-.084-1.044-.282-3.785-1.16c-1.643-.524-3.682-1.046-5.95-1.987l-3.648-1.391c-1.307-.491-2.677-1.045-4.067-1.673-2.791-1.275-5.9-2.593-9.053-4.37s-6.524-3.692-9.954-5.877a99.671,99.671,0,0,1-19.97-17.3,59.169,59.169,0,0,1-7.2-10.048h0l-6.063-39.207c-.731-4.893-1.328-8.813-1.735-11.563l-.438-3.137-.105-.8a1.135,1.135,0,0,1,0-.282,1.121,1.121,0,0,1,.063.271l.156.8.534,3.137c.449,2.739,1.045,6.66,1.892,11.5,1.567,9.849,3.764,23.566,6.273,39.176v-.074a59.694,59.694,0,0,0,7.131,9.932,100.314,100.314,0,0,0,19.864,17.241c3.409,2.2,6.659,4.255,9.88,5.9s6.221,3.137,9,4.412c1.379.68,2.749,1.213,4.034,1.7l3.619,1.422c2.248.951,4.276,1.516,5.9,2.09l3.752,1.255.974.334A1.55,1.55,0,0,1,8670.968,1419.507Z" transform="translate(-8590.683 -1293.335)" fill="#d9a171"/>
        <path id="Trazado_142886" data-name="Trazado 142886" d="M8665.527,1393.532s0,.064-.179.168l-.575.46-2.227,1.735-8.426,6.472-.126.1-.1-.146c-2.845-3.92-6.347-8.772-10.319-14.281l.314.052-7.916,5.646-.262.188-.114-.314c-3.137-8.364-6.557-17.773-10.2-27.675l-1.465-3.983h.491l-6.44,12.8-.28.554-.2-.585c-5.615-16.164-10.371-29.9-13.467-38.82h.282c-.847,3.576-1.516,6.387-1.976,8.363-.229.941-.419,1.673-.543,2.2l-.146.565a.673.673,0,0,1-.073.188v-.2a4.1,4.1,0,0,1,.1-.564l.47-2.217c.43-1.976,1.047-4.8,1.842-8.364l.113-.5.18.491c3.137,8.9,7.977,22.6,13.675,38.736h-.481l6.431-12.8.282-.565.22.586,1.463,3.983c3.629,9.911,7.079,19.31,10.152,27.7l-.377-.116,7.946-5.6.178-.125.136.178,10.216,14.3h-.241l8.542-6.346,2.278-1.673.6-.419Z" transform="translate(-8589.968 -1290.633)" fill="#d9a171"/>
        <path id="Trazado_142887" data-name="Trazado 142887" d="M8658.264,1353.917a4.958,4.958,0,0,1-1.13-.251c-.71-.2-1.745-.512-3-.931a98.334,98.334,0,0,1-9.607-3.785,102.52,102.52,0,0,1-9.232-4.736c-1.139-.67-2.091-1.234-2.677-1.642a4.714,4.714,0,0,1-.931-.68,4.875,4.875,0,0,1,1.046.5l2.76,1.484c2.331,1.245,5.583,2.918,9.264,4.58s7.077,2.99,9.557,3.92c1.159.418,2.09.785,2.937,1.045A4.158,4.158,0,0,1,8658.264,1353.917Z" transform="translate(-8584.557 -1289.461)" fill="#d9a171"/>
        <path id="Trazado_142888" data-name="Trazado 142888" d="M8658.589,1355.821a10.808,10.808,0,0,1-2.593-.46,60.031,60.031,0,0,1-6.1-1.819,60.71,60.71,0,0,1-5.867-2.457,11.194,11.194,0,0,1-2.287-1.286,14.22,14.22,0,0,1,2.455.941c1.5.617,3.565,1.453,5.888,2.29s4.453,1.495,6.011,1.966A14.28,14.28,0,0,1,8658.589,1355.821Z" transform="translate(-8582.748 -1288.04)" fill="#d9a171"/>
        <path id="Trazado_142889" data-name="Trazado 142889" d="M8638.353,1380.219c0,.669-.407,1.2-.91,1.2s-.9-.533-.9-1.2.406-1.2.9-1.2S8638.353,1379.56,8638.353,1380.219Z" transform="translate(-8583.683 -1282.787)" fill="#d9a171"/>
        <ellipse id="Elipse_4251" data-name="Elipse 4251" cx="0.899" cy="1.202" rx="0.899" ry="1.202" transform="translate(33.205 70.886)" fill="#d9a171"/>
        <path id="Trazado_142890" data-name="Trazado 142890" d="M8604.852,1336.325c0,.658-.407,1.2-.9,1.2s-.9-.544-.9-1.2.4-1.2.9-1.2S8604.852,1335.666,8604.852,1336.325Z" transform="translate(-8589.702 -1290.678)" fill="#d9a171"/>
        <path id="Trazado_142891" data-name="Trazado 142891" d="M8901.041,1314.057,8894.4,1395.5s-19.416,34.827-72.818,36.154l6.6-82S8874.779,1347.765,8901.041,1314.057Z" transform="translate(-8550.418 -1294.465)" fill="#d9a171"/>
        <path id="Trazado_142892" data-name="Trazado 142892" d="M8892.29,1312.8c-1.735-5.635-5.959-13.675-16-15.348L8864.458,1407s22.279-4.444,22.876-16.656c.052-1.045,4.506-55.506,5.625-69A22.07,22.07,0,0,0,8892.29,1312.8Z" transform="translate(-8542.712 -1297.45)" fill="#d9a171"/>
        <g id="Grupo_89210" data-name="Grupo 89210" transform="translate(271.165 19.592)" opacity="0.8">
          <path id="Trazado_142893" data-name="Trazado 142893" d="M8901.041,1314.057,8894.4,1395.5s-19.416,34.827-72.818,36.154l6.6-82S8874.779,1347.765,8901.041,1314.057Z" transform="translate(-8821.584 -1314.057)" fill="#fff" stroke="#5e6178" stroke-miterlimit="10" stroke-width="0"/>
        </g>
        <path id="Trazado_142894" data-name="Trazado 142894" d="M8897.319,1331.658a48.233,48.233,0,0,0-8.5,26.336c-.055,2.708.1,5.5-.932,8s-3.712,4.589-6.273,3.878-3.94-3.972-6.326-5.478a7.051,7.051,0,0,0-7.16.157,12.045,12.045,0,0,0-4.7,5.718c-1.936,4.464-2.093,9.5-3.492,14.156s-4.937,9.347-9.809,9.556c-1.776.073-3.533-.46-5.312-.407-3.752.114-7.014,2.906-8.761,6.273s-2.278,7.141-2.78,10.863c0,0,28.457,2.718,60.4-35Z" transform="translate(-8548.315 -1291.301)" fill="#d9a171"/>
        <path id="Trazado_142895" data-name="Trazado 142895" d="M8849.554,1373.81c0,1.045-.5,1.83-1.119,1.83s-1.106-.816-1.106-1.83.49-1.83,1.106-1.83S8849.554,1372.806,8849.554,1373.81Z" transform="translate(-8545.791 -1284.052)" fill="#d9a171"/>
        <path id="Trazado_142896" data-name="Trazado 142896" d="M8860.916,1345.114c0,1.047-.5,1.83-1.119,1.83s-1.107-.826-1.107-1.83.489-1.829,1.107-1.829S8860.916,1344.1,8860.916,1345.114Z" transform="translate(-8543.749 -1289.21)" fill="#d9a171"/>
        <path id="Trazado_142897" data-name="Trazado 142897" d="M8896.5,1334.99a2.335,2.335,0,0,1-.178.46l-.605,1.327c-.564,1.181-1.349,2.854-2.341,4.967l-8.491,17.679-.114.241-.229-.146-20.126-12.734.4-.125c-.26.647-.555,1.348-.837,2.09l-13,31.795-.094.219-.2-.116c-5.018-2.822-9.116-5.092-11.961-6.639-1.43-.774-2.539-1.37-3.3-1.757l-.867-.418-.3-.137a24.253,24.253,0,0,1,4.579,2.092c2.886,1.484,7,3.7,12.056,6.482l-.293.105,12.88-31.879c.282-.7.575-1.4.837-2.09l.125-.3.272.178,20.094,12.8-.345.094c3.565-7.246,6.555-13.3,8.669-17.586l2.5-4.883.667-1.286A3,3,0,0,1,8896.5,1334.99Z" transform="translate(-8548.141 -1290.701)" fill="#d9a171"/>
      </g>
    </g>
  </g>
</svg>
