<svg xmlns="http://www.w3.org/2000/svg" width="284.858" height="214.069" viewBox="0 0 284.858 214.069">
  <g id="Grupo_90651" data-name="Grupo 90651" transform="translate(-42.264 -124.691)">
    <g id="Grupo_87297" data-name="Grupo 87297" transform="translate(253.905 140.309)">
      <path id="Trazado_141567" data-name="Trazado 141567" d="M320.95,165.661l-14.336-22.629-14.082,22.629h5.781v28.933h16.856V165.661Z" transform="translate(-292.532 -143.033)" fill="#aed3f2" stroke="#000" stroke-miterlimit="10" stroke-width="1.5"/>
    </g>
    <g id="Grupo_87301" data-name="Grupo 87301" transform="translate(126.83 125.441)">
      <rect id="Rectángulo_30638" data-name="Rectángulo 30638" width="82.524" height="87.718" transform="translate(20.846)" fill="#5e6178" stroke="#000" stroke-linecap="round" stroke-linejoin="round" stroke-width="1.5"/>
      <rect id="Rectángulo_30639" data-name="Rectángulo 30639" width="118.391" height="154.916" transform="translate(0 45.913)" fill="#d9a171" stroke="#000" stroke-linecap="round" stroke-linejoin="round" stroke-width="1.5"/>
      <rect id="Rectángulo_30640" data-name="Rectángulo 30640" width="92.636" height="48.163" transform="translate(15.507 57.117)" fill="#fff" stroke="#000" stroke-linecap="round" stroke-linejoin="round" stroke-width="1.5"/>
      <path id="Trazado_141571" data-name="Trazado 141571" d="M160.529,193.019v48.163h92.637V193.019ZM247.6,236.4H166.095V197.8H247.6Z" transform="translate(-145.022 -135.902)" fill="#a4a7a9" style="mix-blend-mode: multiply;isolation: isolate"/>
      <g id="Grupo_87300" data-name="Grupo 87300" transform="translate(15.507 112.396)">
        <rect id="Rectángulo_30641" data-name="Rectángulo 30641" width="26.843" height="15.211" transform="translate(0 65.788)" fill="#444898" stroke="#000" stroke-miterlimit="10" stroke-width="1.5"/>
        <rect id="Rectángulo_30642" data-name="Rectángulo 30642" width="26.843" height="15.211" transform="translate(32.896 65.788)" fill="#aed3f2" stroke="#000" stroke-linecap="round" stroke-linejoin="round" stroke-width="1.5"/>
        <rect id="Rectángulo_30643" data-name="Rectángulo 30643" width="26.843" height="15.211" transform="translate(65.793 65.788)" fill="#8f9394" stroke="#000" stroke-linecap="round" stroke-linejoin="round" stroke-width="1.5"/>
        <g id="Grupo_87298" data-name="Grupo 87298">
          <rect id="Rectángulo_30644" data-name="Rectángulo 30644" width="26.843" height="15.21" transform="translate(0)" fill="#fff" stroke="#000" stroke-linecap="round" stroke-linejoin="round" stroke-width="1.5"/>
          <rect id="Rectángulo_30645" data-name="Rectángulo 30645" width="26.843" height="15.21" transform="translate(0)" fill="#fff" stroke="#000" stroke-linecap="round" stroke-linejoin="round" stroke-width="1.5"/>
          <path id="Trazado_141572" data-name="Trazado 141572" d="M160.529,258.423v15.21h26.843v-15.21Zm23.648,12.655H163.726v-10.1h20.451Z" transform="translate(-160.529 -258.423)" fill="#a4a7a9" style="mix-blend-mode: multiply;isolation: isolate"/>
          <rect id="Rectángulo_30646" data-name="Rectángulo 30646" width="26.843" height="15.21" transform="translate(32.896)" fill="#fff" stroke="#000" stroke-linecap="round" stroke-linejoin="round" stroke-width="1.5"/>
          <rect id="Rectángulo_30647" data-name="Rectángulo 30647" width="26.843" height="15.21" transform="translate(65.793)" fill="#fff" stroke="#000" stroke-linecap="round" stroke-linejoin="round" stroke-width="1.5"/>
          <path id="Trazado_141573" data-name="Trazado 141573" d="M199.451,258.423v15.21h26.842v-15.21ZM223.1,271.078H202.647v-10.1H223.1Z" transform="translate(-166.554 -258.423)" fill="#a4a7a9" style="mix-blend-mode: multiply;isolation: isolate"/>
          <path id="Trazado_141574" data-name="Trazado 141574" d="M238.373,258.423v15.21h26.843v-15.21Zm23.648,12.655H241.569v-10.1h20.452Z" transform="translate(-172.58 -258.423)" fill="#a4a7a9" style="mix-blend-mode: multiply;isolation: isolate"/>
        </g>
        <g id="Grupo_87299" data-name="Grupo 87299" transform="translate(0 21.929)">
          <rect id="Rectángulo_30648" data-name="Rectángulo 30648" width="26.843" height="15.21" transform="translate(0 0)" fill="#fff" stroke="#000" stroke-linecap="round" stroke-linejoin="round" stroke-width="1.5"/>
          <rect id="Rectángulo_30649" data-name="Rectángulo 30649" width="26.843" height="15.21" transform="translate(0 0)" fill="#fff" stroke="#000" stroke-linecap="round" stroke-linejoin="round" stroke-width="1.5"/>
          <path id="Trazado_141575" data-name="Trazado 141575" d="M160.529,284.369v15.21h26.843v-15.21Zm23.648,12.655H163.726v-10.1h20.451Z" transform="translate(-160.529 -284.369)" fill="#a4a7a9" style="mix-blend-mode: multiply;isolation: isolate"/>
          <rect id="Rectángulo_30650" data-name="Rectángulo 30650" width="26.843" height="15.21" transform="translate(32.896 0)" fill="#fff" stroke="#000" stroke-linecap="round" stroke-linejoin="round" stroke-width="1.5"/>
          <rect id="Rectángulo_30651" data-name="Rectángulo 30651" width="26.843" height="15.21" transform="translate(65.793 0)" fill="#fff" stroke="#000" stroke-linecap="round" stroke-linejoin="round" stroke-width="1.5"/>
          <path id="Trazado_141576" data-name="Trazado 141576" d="M199.451,284.369v15.21h26.842v-15.21ZM223.1,297.024H202.647v-10.1H223.1Z" transform="translate(-166.554 -284.369)" fill="#a4a7a9" style="mix-blend-mode: multiply;isolation: isolate"/>
          <path id="Trazado_141577" data-name="Trazado 141577" d="M238.373,284.369v15.21h26.843v-15.21Zm23.648,12.655H241.569v-10.1h20.452Z" transform="translate(-172.58 -284.369)" fill="#a4a7a9" style="mix-blend-mode: multiply;isolation: isolate"/>
        </g>
        <rect id="Rectángulo_30652" data-name="Rectángulo 30652" width="26.843" height="15.211" transform="translate(0 43.244)" fill="#fff" stroke="#000" stroke-linecap="round" stroke-linejoin="round" stroke-width="1.5"/>
        <rect id="Rectángulo_30653" data-name="Rectángulo 30653" width="26.843" height="15.211" transform="translate(0 43.244)" fill="#fff" stroke="#000" stroke-linecap="round" stroke-linejoin="round" stroke-width="1.5"/>
        <path id="Trazado_141578" data-name="Trazado 141578" d="M160.529,309.587V324.8h26.843V309.587Zm23.648,12.656H163.726v-10.1h20.451Z" transform="translate(-160.529 -266.343)" fill="#a4a7a9" style="mix-blend-mode: multiply;isolation: isolate"/>
        <rect id="Rectángulo_30654" data-name="Rectángulo 30654" width="26.843" height="15.211" transform="translate(32.896 43.244)" fill="#fff" stroke="#000" stroke-linecap="round" stroke-linejoin="round" stroke-width="1.5"/>
        <rect id="Rectángulo_30655" data-name="Rectángulo 30655" width="26.843" height="15.211" transform="translate(65.793 43.244)" fill="#fff" stroke="#000" stroke-linecap="round" stroke-linejoin="round" stroke-width="1.5"/>
        <path id="Trazado_141579" data-name="Trazado 141579" d="M199.451,309.587V324.8h26.842V309.587ZM223.1,322.243H202.647v-10.1H223.1Z" transform="translate(-166.554 -266.343)" fill="#a4a7a9" style="mix-blend-mode: multiply;isolation: isolate"/>
        <path id="Trazado_141580" data-name="Trazado 141580" d="M238.373,309.587V324.8h26.843V309.587Zm23.648,12.656H241.569v-10.1h20.452Z" transform="translate(-172.58 -266.343)" fill="#a4a7a9" style="mix-blend-mode: multiply;isolation: isolate"/>
        <path id="Trazado_141581" data-name="Trazado 141581" d="M160.529,336.26v15.211h26.843V336.26Zm23.648,12.656H163.726v-10.1h20.451Z" transform="translate(-160.529 -270.473)" fill="#a4a7a9" style="mix-blend-mode: multiply;isolation: isolate"/>
        <path id="Trazado_141582" data-name="Trazado 141582" d="M199.451,336.26v15.211h26.842V336.26ZM223.1,348.916H202.647v-10.1H223.1Z" transform="translate(-166.554 -270.473)" fill="#a4a7a9" style="mix-blend-mode: multiply;isolation: isolate"/>
        <path id="Trazado_141583" data-name="Trazado 141583" d="M238.373,336.26v15.211h26.843V336.26Zm23.648,12.656H241.569v-10.1h20.452Z" transform="translate(-172.58 -270.473)" fill="#a4a7a9" style="mix-blend-mode: multiply;isolation: isolate"/>
      </g>
      <rect id="Rectángulo_30656" data-name="Rectángulo 30656" width="5.348" height="154.916" transform="translate(4.976 45.913)" fill="#5e6178" stroke="#000" stroke-linecap="round" stroke-linejoin="round" stroke-width="1.5"/>
    </g>
    <g id="Grupo_87306" data-name="Grupo 87306" transform="translate(242.335 217.201)">
      <rect id="Rectángulo_30657" data-name="Rectángulo 30657" width="84.037" height="107.945" transform="translate(0)" fill="#d3d5d6" stroke="#000" stroke-linecap="round" stroke-linejoin="round" stroke-width="1.5"/>
      <g id="Grupo_87305" data-name="Grupo 87305" transform="translate(8.747 8.057)">
        <rect id="Rectángulo_30658" data-name="Rectángulo 30658" width="33.639" height="2.305" transform="translate(0.452 52.365)" fill="#0076ae" stroke="#000" stroke-linecap="round" stroke-linejoin="round" stroke-width="1.5"/>
        <rect id="Rectángulo_30659" data-name="Rectángulo 30659" width="33.639" height="2.305" transform="translate(0.452 59.714)" fill="#0076ae" stroke="#000" stroke-linecap="round" stroke-linejoin="round" stroke-width="1.5"/>
        <rect id="Rectángulo_30660" data-name="Rectángulo 30660" width="33.639" height="2.305" transform="translate(0.452 67.062)" fill="#0076ae" stroke="#000" stroke-linecap="round" stroke-linejoin="round" stroke-width="1.5"/>
        <rect id="Rectángulo_30661" data-name="Rectángulo 30661" width="33.639" height="2.306" transform="translate(0.452 74.921)" fill="#0076ae" stroke="#000" stroke-linecap="round" stroke-linejoin="round" stroke-width="1.5"/>
        <rect id="Rectángulo_30662" data-name="Rectángulo 30662" width="68.109" height="2.305" fill="#0076ae" stroke="#000" stroke-linecap="round" stroke-linejoin="round" stroke-width="1.5"/>
        <rect id="Rectángulo_30663" data-name="Rectángulo 30663" width="68.109" height="2.305" transform="translate(0 7.348)" fill="#0076ae" stroke="#000" stroke-linecap="round" stroke-linejoin="round" stroke-width="1.5"/>
        <rect id="Rectángulo_30664" data-name="Rectángulo 30664" width="68.111" height="2.305" transform="translate(0.035 84.236)" fill="#0076ae" stroke="#000" stroke-linecap="round" stroke-linejoin="round" stroke-width="1.5"/>
        <rect id="Rectángulo_30665" data-name="Rectángulo 30665" width="68.111" height="2.305" transform="translate(0.035 91.584)" fill="#0076ae" stroke="#000" stroke-linecap="round" stroke-linejoin="round" stroke-width="1.5"/>
        <g id="Grupo_87302" data-name="Grupo 87302" transform="translate(2.798 14.93)">
          <path id="Trazado_141586" data-name="Trazado 141586" d="M320.964,275.419c0-.048,0-.1,0-.144a14.073,14.073,0,0,0-26.388-6.81l12.241,6.953Z" transform="translate(-292.824 -261.205)" fill="#5e6178" stroke="#000" stroke-linecap="round" stroke-linejoin="round" stroke-width="1.5"/>
          <path id="Trazado_141587" data-name="Trazado 141587" d="M306.975,277.739H292.506c0,.034,0,.065,0,.1a14.073,14.073,0,0,0,14.072,14.072c.135,0,.268-.007.4-.011Z" transform="translate(-292.502 -263.765)" fill="#8f9394" stroke="#000" stroke-linecap="round" stroke-linejoin="round" stroke-width="1.5"/>
          <path id="Trazado_141588" data-name="Trazado 141588" d="M323.215,277.739h-14.1v14.169h.03a14.072,14.072,0,0,0,14.072-14.072C323.218,277.8,323.216,277.773,323.215,277.739Z" transform="translate(-295.074 -263.765)" fill="#d9a171" stroke="#000" stroke-miterlimit="10" stroke-width="1.5"/>
          <path id="Trazado_141589" data-name="Trazado 141589" d="M309.076,275.6h14.133a13.741,13.741,0,0,0-6.511-11.782Z" transform="translate(-295.068 -261.609)" fill="#8f9394" stroke="#000" stroke-linecap="round" stroke-linejoin="round" stroke-width="1.5"/>
          <path id="Trazado_141590" data-name="Trazado 141590" d="M294.35,269.6A14.019,14.019,0,0,0,292.5,276.5h14.071Z" transform="translate(-292.502 -262.505)" fill="#aed3f2" stroke="#000" stroke-linecap="round" stroke-linejoin="round" stroke-width="1.5"/>
        </g>
        <g id="Grupo_87303" data-name="Grupo 87303" transform="translate(39.911 51.213)">
          <path id="Trazado_141591" data-name="Trazado 141591" d="M364.872,318.347c0-.047.006-.1.006-.144a14.075,14.075,0,0,0-26.39-6.809l12.243,6.953Z" transform="translate(-336.734 -304.133)" fill="#aed3f2" stroke="#000" stroke-linecap="round" stroke-linejoin="round" stroke-width="1.5"/>
          <path id="Trazado_141592" data-name="Trazado 141592" d="M350.885,320.667h-14.47c0,.034,0,.065,0,.1a14.072,14.072,0,0,0,14.072,14.073c.134,0,.266-.007.4-.011Z" transform="translate(-336.413 -306.693)" fill="#8f9394" stroke="#000" stroke-linecap="round" stroke-linejoin="round" stroke-width="1.5"/>
          <path id="Trazado_141593" data-name="Trazado 141593" d="M367.126,320.667h-14.1v14.169h.034a14.073,14.073,0,0,0,14.072-14.073C367.128,320.732,367.126,320.7,367.126,320.667Z" transform="translate(-338.984 -306.693)" fill="#5e6178" stroke="#000" stroke-miterlimit="10" stroke-width="1.5"/>
          <path id="Trazado_141594" data-name="Trazado 141594" d="M352.986,318.528h14.132a13.738,13.738,0,0,0-6.512-11.782Z" transform="translate(-338.979 -304.538)" fill="#8f9394" stroke="#000" stroke-linecap="round" stroke-linejoin="round" stroke-width="1.5"/>
          <path id="Trazado_141595" data-name="Trazado 141595" d="M338.26,312.528a14.031,14.031,0,0,0-1.847,6.9h14.071Z" transform="translate(-336.413 -305.433)" fill="#d9a171" stroke="#000" stroke-linecap="round" stroke-linejoin="round" stroke-width="1.5"/>
        </g>
        <g id="Grupo_87304" data-name="Grupo 87304" transform="translate(38.156 14.418)">
          <path id="Trazado_141596" data-name="Trazado 141596" d="M362.8,274.813c0-.047,0-.1,0-.144a14.073,14.073,0,0,0-26.388-6.81l12.242,6.953Z" transform="translate(-334.658 -260.599)" fill="#d9a171" stroke="#000" stroke-linecap="round" stroke-linejoin="round" stroke-width="1.5"/>
          <path id="Trazado_141597" data-name="Trazado 141597" d="M348.808,277.132H334.339c0,.034,0,.065,0,.1A14.073,14.073,0,0,0,348.407,291.3c.136,0,.268-.007.4-.011Z" transform="translate(-334.336 -263.158)" fill="#8f9394" stroke="#000" stroke-linecap="round" stroke-linejoin="round" stroke-width="1.5"/>
          <path id="Trazado_141598" data-name="Trazado 141598" d="M365.048,277.132h-14.1V291.3h.03a14.073,14.073,0,0,0,14.072-14.073C365.051,277.2,365.05,277.166,365.048,277.132Z" transform="translate(-336.908 -263.158)" fill="#5e6178" stroke="#000" stroke-miterlimit="10" stroke-width="1.5"/>
          <path id="Trazado_141599" data-name="Trazado 141599" d="M350.91,274.993h14.133a13.739,13.739,0,0,0-6.512-11.782Z" transform="translate(-336.902 -261.003)" fill="#8f9394" stroke="#000" stroke-linecap="round" stroke-linejoin="round" stroke-width="1.5"/>
          <path id="Trazado_141600" data-name="Trazado 141600" d="M336.184,268.994a14.01,14.01,0,0,0-1.848,6.894h14.07Z" transform="translate(-334.336 -261.899)" fill="#aed3f2" stroke="#000" stroke-linecap="round" stroke-linejoin="round" stroke-width="1.5"/>
        </g>
      </g>
    </g>
    <g id="Grupo_87307" data-name="Grupo 87307" transform="translate(214.538 242.036)">
      <path id="Trazado_141603" data-name="Trazado 141603" d="M288.728,355.636l-10.463-49.9-10.461,49.9Z" transform="translate(-249.337 -269.947)" fill="#aed3f2" stroke="#000" stroke-miterlimit="10" stroke-width="1.5"/>
      <path id="Trazado_141605" data-name="Trazado 141605" d="M311.781,360.273l-10.463-24.584-10.461,24.584Z" transform="translate(-252.905 -274.584)" fill="#d3d5d6" stroke="#000" stroke-miterlimit="10" stroke-width="1.5"/>
      <path id="Trazado_141607" data-name="Trazado 141607" d="M332.764,357.111l-11.091-41.849-9.83,41.849Z" transform="translate(-256.154 -271.421)" fill="#d9a171" stroke="#000" stroke-miterlimit="10" stroke-width="1.5"/>
      <path id="Trazado_141609" data-name="Trazado 141609" d="M350.107,362.369l-7.275-13.14L335,362.369Z" transform="translate(-259.74 -276.68)" fill="#d3d5d6" stroke="#000" stroke-miterlimit="10" stroke-width="1.5"/>
      <path id="Trazado_141611" data-name="Trazado 141611" d="M250.661,349.081V263.392h-4.707v90.4h92.725v-4.706Z" transform="translate(-245.954 -263.392)" fill="#5e6178" stroke="#000" stroke-miterlimit="10" stroke-width="1.5"/>
      <path id="Trazado_141612" data-name="Trazado 141612" d="M277.2,357.2l-10.548-41.388L256.278,357.2Z" transform="translate(-247.552 -271.506)" fill="#d9a171" stroke="#000" stroke-miterlimit="10" stroke-width="1.5"/>
      <path id="Trazado_141614" data-name="Trazado 141614" d="M301.105,359.476l-10.548-28.936-10.375,28.936Z" transform="translate(-251.253 -273.787)" fill="#8f9394" stroke="#000" stroke-miterlimit="10" stroke-width="1.5"/>
      <path id="Trazado_141616" data-name="Trazado 141616" d="M324.156,358.462l-10.547-34.47-10.375,34.47Z" transform="translate(-254.821 -272.773)" fill="#aed3f2" stroke="#000" stroke-miterlimit="10" stroke-width="1.5"/>
      <path id="Trazado_141618" data-name="Trazado 141618" d="M341.5,361.551l-7.551-17.605L326.4,361.551Z" transform="translate(-258.407 -275.862)" fill="#8f9394" stroke="#000" stroke-miterlimit="10" stroke-width="1.5"/>
      <path id="Trazado_141620" data-name="Trazado 141620" d="M255.541,313.624l10.365-16.44,3.4,3.055,7.057-14.4,13.848,34.773,5.636-6.547,4.157,7.142,4.947-12.452L308.3,312.9l5.286-10.765,5.188,8,4.2,17.6,5.108,6.692,3.637-4.983,3.491,8.4" transform="translate(-247.438 -266.866)" fill="none" stroke="#000" stroke-miterlimit="10" stroke-width="1.5"/>
      <path id="Trazado_141621" data-name="Trazado 141621" d="M257.368,318.115a1.87,1.87,0,1,1-1.869-1.869A1.869,1.869,0,0,1,257.368,318.115Z" transform="translate(-247.142 -271.574)" fill="#00388c" stroke="#000" stroke-miterlimit="10" stroke-width="1.5"/>
      <path id="Trazado_141622" data-name="Trazado 141622" d="M269.431,299.1a1.991,1.991,0,1,1-1.99-1.991A1.99,1.99,0,0,1,269.431,299.1Z" transform="translate(-248.972 -268.611)" fill="#00388c" stroke="#000" stroke-miterlimit="10" stroke-width="1.5"/>
      <path id="Trazado_141623" data-name="Trazado 141623" d="M281.77,285.479a1.944,1.944,0,1,1-1.944-1.944A1.944,1.944,0,0,1,281.77,285.479Z" transform="translate(-250.897 -266.51)" fill="#00388c" stroke="#000" stroke-miterlimit="10" stroke-width="1.5"/>
      <path id="Trazado_141624" data-name="Trazado 141624" d="M304.624,318.9a1.966,1.966,0,1,1-1.965-1.964A1.964,1.964,0,0,1,304.624,318.9Z" transform="translate(-254.428 -271.681)" fill="#00388c" stroke="#000" stroke-miterlimit="10" stroke-width="1.5"/>
      <path id="Trazado_141625" data-name="Trazado 141625" d="M315.533,312.836a1.954,1.954,0,1,1-1.953-1.955A1.954,1.954,0,0,1,315.533,312.836Z" transform="translate(-256.121 -270.743)" fill="#00388c" stroke="#000" stroke-miterlimit="10" stroke-width="1.5"/>
      <path id="Trazado_141626" data-name="Trazado 141626" d="M325.826,304.957a1.968,1.968,0,1,1-1.968-1.968A1.969,1.969,0,0,1,325.826,304.957Z" transform="translate(-257.709 -269.522)" fill="#00388c" stroke="#000" stroke-miterlimit="10" stroke-width="1.5"/>
      <path id="Trazado_141627" data-name="Trazado 141627" d="M342.476,342.664a1.628,1.628,0,1,1-1.629-1.627A1.63,1.63,0,0,1,342.476,342.664Z" transform="translate(-260.392 -275.412)" fill="#00388c" stroke="#000" stroke-miterlimit="10" stroke-width="1.5"/>
      <path id="Trazado_141628" data-name="Trazado 141628" d="M336.709,334.807a1.687,1.687,0,1,1-1.687-1.689A1.687,1.687,0,0,1,336.709,334.807Z" transform="translate(-259.481 -274.186)" fill="#00388c" stroke="#000" stroke-miterlimit="10" stroke-width="1.5"/>
      <path id="Trazado_141629" data-name="Trazado 141629" d="M332.054,314.942a1.747,1.747,0,1,1-1.747-1.748A1.747,1.747,0,0,1,332.054,314.942Z" transform="translate(-258.742 -271.101)" fill="#00388c" stroke="#000" stroke-miterlimit="10" stroke-width="1.5"/>
      <path id="Trazado_141630" data-name="Trazado 141630" d="M346.919,336.942a1.518,1.518,0,1,1-1.519-1.518A1.519,1.519,0,0,1,346.919,336.942Z" transform="translate(-261.114 -274.543)" fill="#00388c" stroke="#000" stroke-miterlimit="10" stroke-width="1.5"/>
    </g>
    <g id="Grupo_87308" data-name="Grupo 87308" transform="translate(90.049 140.312)">
      <path id="Trazado_141631" data-name="Trazado 141631" d="M127.083,165.662l-14.337-22.627L98.664,165.662h5.78v28.933H121.3V165.662Z" transform="translate(-98.664 -143.036)" fill="#aed3f2" stroke="#000" stroke-linecap="round" stroke-linejoin="round" stroke-width="1.5"/>
    </g>
    <g id="Grupo_87309" data-name="Grupo 87309" transform="translate(43.014 225.353)">
      <rect id="Rectángulo_30666" data-name="Rectángulo 30666" width="63.492" height="94.924" fill="#5e6178" stroke="#000" stroke-linecap="round" stroke-linejoin="round" stroke-width="1.5"/>
      <rect id="Rectángulo_30667" data-name="Rectángulo 30667" width="63.492" height="75.379" transform="translate(0 6.977)" fill="#fff" stroke="#000" stroke-linecap="round" stroke-linejoin="round" stroke-width="1.5"/>
      <path id="Trazado_141633" data-name="Trazado 141633" d="M43.014,251.907v75.379h63.492V251.907ZM103.062,323.2H46.456v-67.2h56.607Z" transform="translate(-43.014 -244.931)" fill="#c2c4c6" style="mix-blend-mode: multiply;isolation: isolate"/>
      <path id="Trazado_141634" data-name="Trazado 141634" d="M83.894,347.832a4.065,4.065,0,1,1-4.065-4.066A4.065,4.065,0,0,1,83.894,347.832Z" transform="translate(-48.084 -259.151)" fill="#fff" stroke="#000" stroke-linecap="round" stroke-linejoin="round" stroke-width="1.5"/>
      <path id="Trazado_141635" data-name="Trazado 141635" d="M79.829,343.766a4.066,4.066,0,1,0,4.065,4.066A4.065,4.065,0,0,0,79.829,343.766Zm0,6.585a2.519,2.519,0,1,1,2.519-2.519A2.518,2.518,0,0,1,79.829,350.351Z" transform="translate(-48.084 -259.151)" fill="#c2c4c6" style="mix-blend-mode: multiply;isolation: isolate"/>
    </g>
    <g id="Grupo_87344" data-name="Grupo 87344" transform="translate(80.196 249.543)">
      <g id="Grupo_87324" data-name="Grupo 87324" transform="translate(21.052 0)">
        <g id="Grupo_87311" data-name="Grupo 87311" transform="translate(0 49.282)">
          <path id="Trazado_141638" data-name="Trazado 141638" d="M111.914,342.7v6.274c0,5.811,11.328,9.912,24.839,9.912s25.628-4.918,25.6-9.8l.024-6.387Z" transform="translate(-111.914 -332.458)" fill="#009dde" stroke="#000" stroke-linecap="round" stroke-linejoin="round" stroke-width="1.5"/>
          <g id="Grupo_87310" data-name="Grupo 87310" transform="translate(0.012)">
            <path id="Trazado_141639" data-name="Trazado 141639" d="M162.369,340.822c0,5.654-11.291,10.239-25.219,10.239s-25.222-4.584-25.222-10.239,11.291-10.239,25.222-10.239S162.369,335.167,162.369,340.822Z" transform="translate(-111.928 -330.583)" fill="#009dde" stroke="#000" stroke-linecap="round" stroke-linejoin="round" stroke-width="1.5"/>
            <path id="Trazado_141640" data-name="Trazado 141640" d="M156.542,341.352c0,4.055-8.1,7.342-18.085,7.342s-18.088-3.287-18.088-7.342,8.1-7.342,18.088-7.342S156.542,337.3,156.542,341.352Z" transform="translate(-113.235 -331.114)" fill="#fff" stroke="#000" stroke-linecap="round" stroke-linejoin="round" stroke-width="1.5"/>
            <path id="Trazado_141641" data-name="Trazado 141641" d="M138.457,334.01c-9.989,0-18.088,3.287-18.088,7.342s8.1,7.342,18.088,7.342,18.085-3.287,18.085-7.342S148.445,334.01,138.457,334.01Zm0,13.745c-8.713,0-15.776-2.867-15.776-6.4s7.062-6.4,15.776-6.4,15.773,2.867,15.773,6.4S147.166,347.755,138.457,347.755Z" transform="translate(-113.235 -331.114)" fill="#c2c4c6" style="mix-blend-mode: multiply;isolation: isolate"/>
            <path id="Trazado_141642" data-name="Trazado 141642" d="M118.383,339.78c1.014-3.027,6.178-5.05,12.617-6.2-.26-.023-.521-.043-.79-.057-7.089-.392-13.631,1.662-14.611,4.589-.524,1.564.653,3.058,2.937,4.171A5.123,5.123,0,0,1,118.383,339.78Z" transform="translate(-112.477 -331.03)" fill="#fff" opacity="0.3"/>
            <path id="Trazado_141643" data-name="Trazado 141643" d="M145.854,331.2c4.191,1.772,6.8,4.165,6.8,6.769,0,5.353-11,9.821-24.193,9.821a53.151,53.151,0,0,1-11.6-1.231c4.515,2.771,12.258,4.6,21.053,4.6,13.928,0,25.219-4.584,25.219-10.239C163.133,336.389,155.893,332.548,145.854,331.2Z" transform="translate(-112.692 -330.678)" fill="#a6a9ac" style="mix-blend-mode: multiply;isolation: isolate"/>
            <path id="Trazado_141644" data-name="Trazado 141644" d="M149.192,338.294A6.012,6.012,0,0,0,146.9,337.2a14.143,14.143,0,0,0-2.941-.487c-1.024-.065-2.263-.1-3.687-.1h-4.653l.045,4.86-1.456.007v1.351l1.4.007,0,.428h-1.4v1.42h1.406l.005,2.725h3.7v-2.725h7.554v-1.42h-7.554v-.434h1.67c1.28,0,2.454-.051,3.5-.15a13.062,13.062,0,0,0,2.887-.582,5.293,5.293,0,0,0,1.945-1.062,1.833,1.833,0,0,0,.665-1.316A1.9,1.9,0,0,0,149.192,338.294Zm-3.309,2.239a2.868,2.868,0,0,1-1.117.516,10.424,10.424,0,0,1-1.726.281c-.662.058-1.408.088-2.219.088h-1.5v-3.383h.645c.979,0,1.848.019,2.583.055a13.952,13.952,0,0,1,1.939.221,3.461,3.461,0,0,1,1.308.489,1.068,1.068,0,0,1,.087,1.734Z" transform="translate(-115.378 -331.517)"/>
          </g>
        </g>
        <g id="Grupo_87313" data-name="Grupo 87313" transform="translate(0 41.069)">
          <path id="Trazado_141645" data-name="Trazado 141645" d="M111.914,332.98v6.272c0,5.812,11.328,9.913,24.839,9.913s25.628-4.918,25.6-9.8l.024-6.386Z" transform="translate(-111.914 -322.74)" fill="#009dde" stroke="#000" stroke-linecap="round" stroke-linejoin="round" stroke-width="1.5"/>
          <g id="Grupo_87312" data-name="Grupo 87312" transform="translate(0.012)">
            <path id="Trazado_141646" data-name="Trazado 141646" d="M162.369,331.1c0,5.654-11.291,10.237-25.219,10.237s-25.222-4.583-25.222-10.237,11.291-10.24,25.222-10.24S162.369,325.448,162.369,331.1Z" transform="translate(-111.928 -320.865)" fill="#009dde" stroke="#000" stroke-linecap="round" stroke-linejoin="round" stroke-width="1.5"/>
            <path id="Trazado_141647" data-name="Trazado 141647" d="M156.542,331.635c0,4.054-8.1,7.341-18.085,7.341s-18.088-3.288-18.088-7.341,8.1-7.343,18.088-7.343S156.542,327.579,156.542,331.635Z" transform="translate(-113.235 -321.396)" fill="#fff" stroke="#000" stroke-linecap="round" stroke-linejoin="round" stroke-width="1.5"/>
            <path id="Trazado_141648" data-name="Trazado 141648" d="M138.457,324.292c-9.989,0-18.088,3.287-18.088,7.343s8.1,7.341,18.088,7.341,18.085-3.288,18.085-7.341S148.445,324.292,138.457,324.292Zm0,13.745c-8.713,0-15.776-2.867-15.776-6.4s7.062-6.4,15.776-6.4,15.773,2.867,15.773,6.4S147.166,338.037,138.457,338.037Z" transform="translate(-113.235 -321.396)" fill="#c2c4c6" style="mix-blend-mode: multiply;isolation: isolate"/>
            <path id="Trazado_141649" data-name="Trazado 141649" d="M118.383,330.062c1.014-3.027,6.178-5.051,12.617-6.2-.26-.022-.521-.042-.79-.057-7.089-.392-13.631,1.662-14.611,4.589-.524,1.563.653,3.057,2.937,4.171A5.123,5.123,0,0,1,118.383,330.062Z" transform="translate(-112.477 -321.312)" fill="#fff" opacity="0.3"/>
            <path id="Trazado_141650" data-name="Trazado 141650" d="M145.854,321.479c4.191,1.772,6.8,4.166,6.8,6.769,0,5.354-11,9.821-24.193,9.821a53.151,53.151,0,0,1-11.6-1.231c4.515,2.771,12.258,4.6,21.053,4.6,13.928,0,25.219-4.584,25.219-10.237C163.133,326.671,155.893,322.83,145.854,321.479Z" transform="translate(-112.692 -320.96)" fill="#a6a9ac" style="mix-blend-mode: multiply;isolation: isolate"/>
            <path id="Trazado_141651" data-name="Trazado 141651" d="M149.192,328.575a6.025,6.025,0,0,0-2.289-1.091,14.088,14.088,0,0,0-2.941-.486c-1.024-.067-2.263-.1-3.687-.1h-4.653l.045,4.859-1.456.008v1.351l1.4.008,0,.428h-1.4v1.42h1.406l.005,2.724h3.7V334.97h7.554v-1.42h-7.554v-.434h1.67c1.28,0,2.454-.051,3.5-.15a13.014,13.014,0,0,0,2.887-.581,5.306,5.306,0,0,0,1.945-1.062,1.831,1.831,0,0,0,.665-1.315A1.906,1.906,0,0,0,149.192,328.575Zm-3.309,2.24a2.881,2.881,0,0,1-1.117.516,10.419,10.419,0,0,1-1.726.282c-.662.057-1.408.086-2.219.086h-1.5v-3.382h.645c.979,0,1.848.018,2.583.053a13.946,13.946,0,0,1,1.939.221,3.448,3.448,0,0,1,1.308.489,1.068,1.068,0,0,1,.087,1.734Z" transform="translate(-115.378 -321.799)"/>
          </g>
        </g>
        <g id="Grupo_87315" data-name="Grupo 87315" transform="translate(0 32.854)">
          <path id="Trazado_141652" data-name="Trazado 141652" d="M111.914,323.26v6.274c0,5.811,11.328,9.913,24.839,9.913s25.628-4.918,25.6-9.8l.024-6.388Z" transform="translate(-111.914 -313.021)" fill="#009dde" stroke="#000" stroke-linecap="round" stroke-linejoin="round" stroke-width="1.5"/>
          <g id="Grupo_87314" data-name="Grupo 87314" transform="translate(0.012)">
            <path id="Trazado_141653" data-name="Trazado 141653" d="M162.369,321.385c0,5.654-11.291,10.239-25.219,10.239s-25.222-4.584-25.222-10.239,11.291-10.239,25.222-10.239S162.369,315.73,162.369,321.385Z" transform="translate(-111.928 -311.146)" fill="#009dde" stroke="#000" stroke-linecap="round" stroke-linejoin="round" stroke-width="1.5"/>
            <path id="Trazado_141654" data-name="Trazado 141654" d="M156.542,321.915c0,4.056-8.1,7.343-18.085,7.343s-18.088-3.287-18.088-7.343,8.1-7.342,18.088-7.342S156.542,317.861,156.542,321.915Z" transform="translate(-113.235 -311.676)" fill="#fff" stroke="#000" stroke-linecap="round" stroke-linejoin="round" stroke-width="1.5"/>
            <path id="Trazado_141655" data-name="Trazado 141655" d="M138.457,314.573c-9.989,0-18.088,3.288-18.088,7.342s8.1,7.343,18.088,7.343,18.085-3.287,18.085-7.343S148.445,314.573,138.457,314.573Zm0,13.745c-8.713,0-15.776-2.867-15.776-6.4s7.062-6.4,15.776-6.4,15.773,2.867,15.773,6.4S147.166,328.318,138.457,328.318Z" transform="translate(-113.235 -311.676)" fill="#c2c4c6" style="mix-blend-mode: multiply;isolation: isolate"/>
            <path id="Trazado_141656" data-name="Trazado 141656" d="M118.383,320.344c1.014-3.027,6.178-5.051,12.617-6.2-.26-.023-.521-.043-.79-.057-7.089-.392-13.631,1.663-14.611,4.589-.524,1.564.653,3.058,2.937,4.171A5.12,5.12,0,0,1,118.383,320.344Z" transform="translate(-112.477 -311.593)" fill="#fff" opacity="0.3"/>
            <path id="Trazado_141657" data-name="Trazado 141657" d="M145.854,311.76c4.191,1.772,6.8,4.166,6.8,6.77,0,5.354-11,9.821-24.193,9.821a53.151,53.151,0,0,1-11.6-1.231c4.515,2.771,12.258,4.6,21.053,4.6,13.928,0,25.219-4.584,25.219-10.239C163.133,316.951,155.893,313.111,145.854,311.76Z" transform="translate(-112.692 -311.241)" fill="#a6a9ac" style="mix-blend-mode: multiply;isolation: isolate"/>
            <path id="Trazado_141658" data-name="Trazado 141658" d="M149.192,318.857a6.012,6.012,0,0,0-2.289-1.091,14.089,14.089,0,0,0-2.941-.487c-1.024-.066-2.263-.1-3.687-.1h-4.653l.045,4.859-1.456.007V323.4l1.4.006,0,.428h-1.4v1.421h1.406l.005,2.724h3.7v-2.724h7.554v-1.421h-7.554V323.4h1.67c1.28,0,2.454-.051,3.5-.15a13.06,13.06,0,0,0,2.887-.582,5.282,5.282,0,0,0,1.945-1.062,1.828,1.828,0,0,0,.665-1.314A1.906,1.906,0,0,0,149.192,318.857Zm-3.309,2.239a2.845,2.845,0,0,1-1.117.516,10.331,10.331,0,0,1-1.726.282c-.662.058-1.408.086-2.219.086h-1.5V318.6h.645c.979,0,1.848.019,2.583.055a14.082,14.082,0,0,1,1.939.221,3.448,3.448,0,0,1,1.308.489,1.067,1.067,0,0,1,.087,1.733Z" transform="translate(-115.378 -312.08)"/>
          </g>
        </g>
        <g id="Grupo_87317" data-name="Grupo 87317" transform="translate(0 24.641)">
          <path id="Trazado_141659" data-name="Trazado 141659" d="M111.914,313.543v6.273c0,5.811,11.328,9.912,24.839,9.912s25.628-4.918,25.6-9.8l.024-6.386Z" transform="translate(-111.914 -303.304)" fill="#aed3f2" stroke="#000" stroke-linecap="round" stroke-linejoin="round" stroke-width="1.5"/>
          <g id="Grupo_87316" data-name="Grupo 87316" transform="translate(0.012)">
            <path id="Trazado_141660" data-name="Trazado 141660" d="M162.369,311.668c0,5.653-11.291,10.237-25.219,10.237s-25.222-4.583-25.222-10.237,11.291-10.24,25.222-10.24S162.369,306.012,162.369,311.668Z" transform="translate(-111.928 -301.428)" fill="#009dde" stroke="#000" stroke-linecap="round" stroke-linejoin="round" stroke-width="1.5"/>
            <path id="Trazado_141661" data-name="Trazado 141661" d="M156.542,312.2c0,4.054-8.1,7.341-18.085,7.341s-18.088-3.287-18.088-7.341,8.1-7.342,18.088-7.342S156.542,308.142,156.542,312.2Z" transform="translate(-113.235 -301.959)" fill="#fff" stroke="#000" stroke-linecap="round" stroke-linejoin="round" stroke-width="1.5"/>
            <path id="Trazado_141662" data-name="Trazado 141662" d="M138.457,304.856c-9.989,0-18.088,3.286-18.088,7.342s8.1,7.341,18.088,7.341,18.085-3.287,18.085-7.341S148.445,304.856,138.457,304.856Zm0,13.745c-8.713,0-15.776-2.867-15.776-6.4s7.062-6.4,15.776-6.4,15.773,2.866,15.773,6.4S147.166,318.6,138.457,318.6Z" transform="translate(-113.235 -301.959)" fill="#c2c4c6" style="mix-blend-mode: multiply;isolation: isolate"/>
            <path id="Trazado_141663" data-name="Trazado 141663" d="M118.383,310.626c1.014-3.027,6.178-5.051,12.617-6.205-.26-.022-.521-.042-.79-.057-7.089-.392-13.631,1.663-14.611,4.589-.524,1.564.653,3.058,2.937,4.171A5.12,5.12,0,0,1,118.383,310.626Z" transform="translate(-112.477 -301.875)" fill="#fff" opacity="0.3"/>
            <path id="Trazado_141664" data-name="Trazado 141664" d="M145.854,302.042c4.191,1.772,6.8,4.166,6.8,6.769,0,5.354-11,9.822-24.193,9.822a53.151,53.151,0,0,1-11.6-1.231c4.515,2.771,12.258,4.6,21.053,4.6,13.928,0,25.219-4.583,25.219-10.237C163.133,307.234,155.893,303.393,145.854,302.042Z" transform="translate(-112.692 -301.523)" fill="#a6a9ac" style="mix-blend-mode: multiply;isolation: isolate"/>
            <path id="Trazado_141665" data-name="Trazado 141665" d="M149.192,309.138a6.037,6.037,0,0,0-2.289-1.091,14.144,14.144,0,0,0-2.941-.486c-1.024-.066-2.263-.1-3.687-.1h-4.653l.045,4.859-1.456.008v1.35l1.4.008,0,.428h-1.4v1.42h1.406l.005,2.725h3.7v-2.725h7.554v-1.42h-7.554v-.434h1.67c1.28,0,2.454-.051,3.5-.15a13.011,13.011,0,0,0,2.887-.582,5.281,5.281,0,0,0,1.945-1.062,1.828,1.828,0,0,0,.665-1.314A1.908,1.908,0,0,0,149.192,309.138Zm-3.309,2.24a2.868,2.868,0,0,1-1.117.516,10.427,10.427,0,0,1-1.726.281c-.662.057-1.408.087-2.219.087h-1.5v-3.382h.645c.979,0,1.848.019,2.583.054a13.946,13.946,0,0,1,1.939.221,3.448,3.448,0,0,1,1.308.489,1.068,1.068,0,0,1,.087,1.734Z" transform="translate(-115.378 -302.362)"/>
          </g>
        </g>
        <g id="Grupo_87319" data-name="Grupo 87319" transform="translate(0 16.427)">
          <path id="Trazado_141666" data-name="Trazado 141666" d="M111.914,303.824V310.1c0,5.812,11.328,9.913,24.839,9.913s25.628-4.918,25.6-9.8l.024-6.387Z" transform="translate(-111.914 -293.585)" fill="#aed3f2" stroke="#000" stroke-linecap="round" stroke-linejoin="round" stroke-width="1.5"/>
          <g id="Grupo_87318" data-name="Grupo 87318" transform="translate(0.012)">
            <path id="Trazado_141667" data-name="Trazado 141667" d="M162.369,301.949c0,5.654-11.291,10.238-25.219,10.238s-25.222-4.583-25.222-10.238,11.291-10.239,25.222-10.239S162.369,296.294,162.369,301.949Z" transform="translate(-111.928 -291.71)" fill="#009dde" stroke="#000" stroke-linecap="round" stroke-linejoin="round" stroke-width="1.5"/>
            <path id="Trazado_141668" data-name="Trazado 141668" d="M156.542,302.479c0,4.055-8.1,7.342-18.085,7.342s-18.088-3.287-18.088-7.342,8.1-7.342,18.088-7.342S156.542,298.424,156.542,302.479Z" transform="translate(-113.235 -292.24)" fill="#fff" stroke="#000" stroke-linecap="round" stroke-linejoin="round" stroke-width="1.5"/>
            <path id="Trazado_141669" data-name="Trazado 141669" d="M138.457,295.137c-9.989,0-18.088,3.287-18.088,7.342s8.1,7.342,18.088,7.342,18.085-3.287,18.085-7.342S148.445,295.137,138.457,295.137Zm0,13.745c-8.713,0-15.776-2.867-15.776-6.4s7.062-6.4,15.776-6.4,15.773,2.867,15.773,6.4S147.166,308.882,138.457,308.882Z" transform="translate(-113.235 -292.24)" fill="#c2c4c6" style="mix-blend-mode: multiply;isolation: isolate"/>
            <path id="Trazado_141670" data-name="Trazado 141670" d="M118.383,300.907c1.014-3.027,6.178-5.051,12.617-6.2-.26-.023-.521-.042-.79-.057-7.089-.392-13.631,1.664-14.611,4.589-.524,1.563.653,3.057,2.937,4.171A5.123,5.123,0,0,1,118.383,300.907Z" transform="translate(-112.477 -292.157)" fill="#fff" opacity="0.3"/>
            <path id="Trazado_141671" data-name="Trazado 141671" d="M145.854,292.324c4.191,1.772,6.8,4.165,6.8,6.769,0,5.354-11,9.821-24.193,9.821a53.206,53.206,0,0,1-11.6-1.231c4.515,2.77,12.258,4.6,21.053,4.6,13.928,0,25.219-4.584,25.219-10.238C163.133,297.515,155.893,293.674,145.854,292.324Z" transform="translate(-112.692 -291.805)" fill="#a6a9ac" style="mix-blend-mode: multiply;isolation: isolate"/>
            <path id="Trazado_141672" data-name="Trazado 141672" d="M149.192,299.42a6.025,6.025,0,0,0-2.289-1.091,14.091,14.091,0,0,0-2.941-.487c-1.024-.066-2.263-.1-3.687-.1h-4.653l.045,4.86-1.456.007v1.352l1.4.006,0,.428h-1.4v1.421h1.406l.005,2.724h3.7v-2.724h7.554v-1.421h-7.554v-.434h1.67c1.28,0,2.454-.05,3.5-.15a13.063,13.063,0,0,0,2.887-.582,5.27,5.27,0,0,0,1.945-1.062,1.831,1.831,0,0,0,.665-1.315A1.906,1.906,0,0,0,149.192,299.42Zm-3.309,2.24a2.881,2.881,0,0,1-1.117.516,10.427,10.427,0,0,1-1.726.281c-.662.057-1.408.087-2.219.087h-1.5v-3.383h.645c.979,0,1.848.018,2.583.054a14.086,14.086,0,0,1,1.939.221,3.461,3.461,0,0,1,1.308.489,1.068,1.068,0,0,1,.087,1.734Z" transform="translate(-115.378 -292.644)"/>
          </g>
        </g>
        <g id="Grupo_87321" data-name="Grupo 87321" transform="translate(0 8.214)">
          <path id="Trazado_141673" data-name="Trazado 141673" d="M111.914,294.106v6.273c0,5.811,11.328,9.913,24.839,9.913s25.628-4.919,25.6-9.8l.024-6.386Z" transform="translate(-111.914 -283.867)" fill="#aed3f2" stroke="#000" stroke-linecap="round" stroke-linejoin="round" stroke-width="1.5"/>
          <g id="Grupo_87320" data-name="Grupo 87320" transform="translate(0.012)">
            <path id="Trazado_141674" data-name="Trazado 141674" d="M162.369,292.231c0,5.654-11.291,10.238-25.219,10.238s-25.222-4.583-25.222-10.238,11.291-10.239,25.222-10.239S162.369,286.576,162.369,292.231Z" transform="translate(-111.928 -281.992)" fill="#009dde" stroke="#000" stroke-linecap="round" stroke-linejoin="round" stroke-width="1.5"/>
            <path id="Trazado_141675" data-name="Trazado 141675" d="M156.542,292.761c0,4.054-8.1,7.342-18.085,7.342s-18.088-3.288-18.088-7.342,8.1-7.343,18.088-7.343S156.542,288.706,156.542,292.761Z" transform="translate(-113.235 -282.522)" fill="#fff" stroke="#000" stroke-linecap="round" stroke-linejoin="round" stroke-width="1.5"/>
            <path id="Trazado_141676" data-name="Trazado 141676" d="M138.457,285.418c-9.989,0-18.088,3.288-18.088,7.343s8.1,7.342,18.088,7.342,18.085-3.288,18.085-7.342S148.445,285.418,138.457,285.418Zm0,13.745c-8.713,0-15.776-2.867-15.776-6.4s7.062-6.4,15.776-6.4,15.773,2.866,15.773,6.4S147.166,299.163,138.457,299.163Z" transform="translate(-113.235 -282.522)" fill="#c2c4c6" style="mix-blend-mode: multiply;isolation: isolate"/>
            <path id="Trazado_141677" data-name="Trazado 141677" d="M118.383,291.189c1.014-3.027,6.178-5.051,12.617-6.2-.26-.022-.521-.043-.79-.057-7.089-.391-13.631,1.663-14.611,4.589-.524,1.563.653,3.056,2.937,4.171A5.124,5.124,0,0,1,118.383,291.189Z" transform="translate(-112.477 -282.439)" fill="#fff" opacity="0.3"/>
            <path id="Trazado_141678" data-name="Trazado 141678" d="M145.854,282.606c4.191,1.772,6.8,4.166,6.8,6.769,0,5.353-11,9.821-24.193,9.821a53.151,53.151,0,0,1-11.6-1.231c4.515,2.771,12.258,4.6,21.053,4.6,13.928,0,25.219-4.584,25.219-10.238C163.133,287.8,155.893,283.957,145.854,282.606Z" transform="translate(-112.692 -282.087)" fill="#a6a9ac" style="mix-blend-mode: multiply;isolation: isolate"/>
            <path id="Trazado_141679" data-name="Trazado 141679" d="M149.192,289.7a6.024,6.024,0,0,0-2.289-1.091,14.085,14.085,0,0,0-2.941-.487c-1.024-.066-2.263-.1-3.687-.1h-4.653l.045,4.859-1.456.008v1.351l1.4.008,0,.427h-1.4V296.1h1.406l.005,2.724h3.7V296.1h7.554v-1.421h-7.554v-.433h1.67c1.28,0,2.454-.052,3.5-.15a13.013,13.013,0,0,0,2.887-.582,5.293,5.293,0,0,0,1.945-1.062,1.83,1.83,0,0,0,.665-1.316A1.9,1.9,0,0,0,149.192,289.7Zm-3.309,2.239a2.881,2.881,0,0,1-1.117.516,10.6,10.6,0,0,1-1.726.282c-.662.057-1.408.086-2.219.086h-1.5v-3.382h.645c.979,0,1.848.018,2.583.053a14.082,14.082,0,0,1,1.939.221,3.447,3.447,0,0,1,1.308.489,1.067,1.067,0,0,1,.087,1.734Z" transform="translate(-115.378 -282.926)"/>
          </g>
        </g>
        <g id="Grupo_87323" data-name="Grupo 87323">
          <path id="Trazado_141680" data-name="Trazado 141680" d="M111.914,284.387v6.274c0,5.811,11.328,9.912,24.839,9.912s25.628-4.918,25.6-9.8l.024-6.387Z" transform="translate(-111.914 -274.149)" fill="#aed3f2" stroke="#000" stroke-linecap="round" stroke-linejoin="round" stroke-width="1.5"/>
          <g id="Grupo_87322" data-name="Grupo 87322" transform="translate(0.012)">
            <path id="Trazado_141681" data-name="Trazado 141681" d="M162.369,282.512c0,5.654-11.291,10.239-25.219,10.239s-25.222-4.584-25.222-10.239,11.291-10.238,25.222-10.238S162.369,276.857,162.369,282.512Z" transform="translate(-111.928 -272.274)" fill="#aed3f2" stroke="#000" stroke-linecap="round" stroke-linejoin="round" stroke-width="1.5"/>
            <path id="Trazado_141682" data-name="Trazado 141682" d="M156.542,283.042c0,4.055-8.1,7.342-18.085,7.342s-18.088-3.287-18.088-7.342,8.1-7.342,18.088-7.342S156.542,278.987,156.542,283.042Z" transform="translate(-113.235 -272.804)" fill="#fff" stroke="#000" stroke-linecap="round" stroke-linejoin="round" stroke-width="1.5"/>
            <path id="Trazado_141683" data-name="Trazado 141683" d="M138.457,275.7c-9.989,0-18.088,3.287-18.088,7.342s8.1,7.342,18.088,7.342,18.085-3.287,18.085-7.342S148.445,275.7,138.457,275.7Zm0,13.745c-8.713,0-15.776-2.867-15.776-6.4s7.062-6.4,15.776-6.4,15.773,2.866,15.773,6.4S147.166,289.445,138.457,289.445Z" transform="translate(-113.235 -272.804)" fill="#c2c4c6" style="mix-blend-mode: multiply;isolation: isolate"/>
            <path id="Trazado_141684" data-name="Trazado 141684" d="M118.383,281.471c1.014-3.027,6.178-5.051,12.617-6.205-.26-.022-.521-.042-.79-.057-7.089-.392-13.631,1.663-14.611,4.589-.524,1.564.653,3.058,2.937,4.171A5.119,5.119,0,0,1,118.383,281.471Z" transform="translate(-112.477 -272.721)" fill="#fff" opacity="0.3"/>
            <path id="Trazado_141686" data-name="Trazado 141686" d="M149.192,279.983a6.011,6.011,0,0,0-2.289-1.091,14.144,14.144,0,0,0-2.941-.486c-1.024-.066-2.263-.1-3.687-.1h-4.653l.045,4.859-1.456.006v1.352l1.4.007,0,.428h-1.4v1.42h1.406l.005,2.725h3.7v-2.725h7.554v-1.42h-7.554v-.434h1.67c1.28,0,2.454-.05,3.5-.15a13.013,13.013,0,0,0,2.887-.582,5.269,5.269,0,0,0,1.945-1.062,1.829,1.829,0,0,0,.665-1.315A1.908,1.908,0,0,0,149.192,279.983Zm-3.309,2.24a2.881,2.881,0,0,1-1.117.516,10.422,10.422,0,0,1-1.726.282c-.662.057-1.408.086-2.219.086h-1.5v-3.382h.645c.979,0,1.848.019,2.583.055a14.083,14.083,0,0,1,1.939.221,3.448,3.448,0,0,1,1.308.489,1.068,1.068,0,0,1,.087,1.734Z" transform="translate(-115.378 -273.208)"/>
          </g>
        </g>
      </g>
      <g id="Grupo_87331" data-name="Grupo 87331" transform="translate(41.891 39.662)">
        <g id="Grupo_87326" data-name="Grupo 87326" transform="translate(0 14.88)">
          <path id="Trazado_141687" data-name="Trazado 141687" d="M136.57,351.437v6.274c0,5.812,11.33,9.913,24.839,9.913s25.629-4.919,25.6-9.8l.025-6.388Z" transform="translate(-136.57 -339.071)" fill="#d9a171" stroke="#000" stroke-linecap="round" stroke-linejoin="round" stroke-width="1.5"/>
          <g id="Grupo_87325" data-name="Grupo 87325" transform="translate(0.014)">
            <path id="Trazado_141688" data-name="Trazado 141688" d="M187.029,348.722c0,6.58-11.293,11.915-25.221,11.915s-25.222-5.335-25.222-11.915,11.292-11.916,25.222-11.916S187.029,342.141,187.029,348.722Z" transform="translate(-136.586 -336.806)" fill="#d9a171" stroke="#000" stroke-linecap="round" stroke-linejoin="round" stroke-width="1.5"/>
            <path id="Trazado_141689" data-name="Trazado 141689" d="M181.2,349.339c0,4.718-8.1,8.544-18.085,8.544s-18.089-3.826-18.089-8.544,8.1-8.545,18.089-8.545S181.2,344.619,181.2,349.339Z" transform="translate(-137.893 -337.423)" fill="#fff" stroke="#000" stroke-linecap="round" stroke-linejoin="round" stroke-width="1.5"/>
            <path id="Trazado_141690" data-name="Trazado 141690" d="M163.115,340.794c-9.99,0-18.089,3.825-18.089,8.545s8.1,8.544,18.089,8.544,18.085-3.826,18.085-8.544S173.1,340.794,163.115,340.794Zm0,16c-8.713,0-15.773-3.335-15.773-7.45s7.06-7.451,15.773-7.451,15.771,3.336,15.771,7.451S171.824,356.789,163.115,356.789Z" transform="translate(-137.893 -337.423)" fill="#c2c4c6" style="mix-blend-mode: multiply;isolation: isolate"/>
            <path id="Trazado_141691" data-name="Trazado 141691" d="M143.041,347.511c1.014-3.524,6.178-5.879,12.617-7.221-.259-.026-.522-.049-.79-.067-7.089-.456-13.63,1.935-14.611,5.341-.524,1.82.652,3.557,2.936,4.853A6.892,6.892,0,0,1,143.041,347.511Z" transform="translate(-137.135 -337.326)" fill="#fff" opacity="0.3"/>
            <path id="Trazado_141692" data-name="Trazado 141692" d="M160.5,346.8a13.211,13.211,0,0,1,2.933-.96,17.087,17.087,0,0,1,3.51-.348,18.809,18.809,0,0,1,2.931.227v-1.434a25.606,25.606,0,0,0-2.778-.145,24.6,24.6,0,0,0-4.773.447,17.46,17.46,0,0,0-3.968,1.247,8.4,8.4,0,0,0-2.679,1.847,4.306,4.306,0,0,0-.432.553h-1.881v1.47h1.362c0,.067-.01.132-.01.2a2.723,2.723,0,0,0,.072.613h-2.13v1.471h2.938c.034.037.064.074.1.112a8.541,8.541,0,0,0,2.693,1.817,17.744,17.744,0,0,0,3.966,1.224,24.788,24.788,0,0,0,4.742.44,24.263,24.263,0,0,0,2.778-.161v-1.423a17.95,17.95,0,0,1-2.869.232,17.473,17.473,0,0,1-3.543-.349,13.238,13.238,0,0,1-2.962-.959,7.023,7.023,0,0,1-1.493-.933h8.583v-1.471h-9.675a2.066,2.066,0,0,1-.108-.655c0-.052,0-.1.008-.156h10.336v-1.47h-9.659a.263.263,0,0,1,.02-.025A6.136,6.136,0,0,1,160.5,346.8Z" transform="translate(-139.074 -337.941)"/>
          </g>
        </g>
        <g id="Grupo_87328" data-name="Grupo 87328" transform="translate(0 7.44)">
          <path id="Trazado_141694" data-name="Trazado 141694" d="M136.57,342.635v6.273c0,5.811,11.33,9.913,24.839,9.913s25.629-4.919,25.6-9.8l.025-6.386Z" transform="translate(-136.57 -330.268)" fill="#d9a171" stroke="#000" stroke-linecap="round" stroke-linejoin="round" stroke-width="1.5"/>
          <g id="Grupo_87327" data-name="Grupo 87327" transform="translate(0.014)">
            <path id="Trazado_141695" data-name="Trazado 141695" d="M187.029,339.918c0,6.581-11.293,11.915-25.221,11.915s-25.222-5.334-25.222-11.915S147.878,328,161.808,328,187.029,333.337,187.029,339.918Z" transform="translate(-136.586 -328.003)" fill="#d9a171" stroke="#000" stroke-linecap="round" stroke-linejoin="round" stroke-width="1.5"/>
            <path id="Trazado_141696" data-name="Trazado 141696" d="M181.2,340.535c0,4.72-8.1,8.545-18.085,8.545s-18.089-3.825-18.089-8.545,8.1-8.544,18.089-8.544S181.2,335.817,181.2,340.535Z" transform="translate(-137.893 -328.62)" fill="#fff" stroke="#000" stroke-linecap="round" stroke-linejoin="round" stroke-width="1.5"/>
            <path id="Trazado_141697" data-name="Trazado 141697" d="M163.115,331.991c-9.99,0-18.089,3.826-18.089,8.544s8.1,8.545,18.089,8.545,18.085-3.825,18.085-8.545S173.1,331.991,163.115,331.991Zm0,16c-8.713,0-15.773-3.336-15.773-7.451s7.06-7.451,15.773-7.451,15.771,3.336,15.771,7.451S171.824,347.986,163.115,347.986Z" transform="translate(-137.893 -328.62)" fill="#c2c4c6" style="mix-blend-mode: multiply;isolation: isolate"/>
            <path id="Trazado_141698" data-name="Trazado 141698" d="M143.041,338.707c1.014-3.523,6.178-5.878,12.617-7.221-.259-.025-.522-.049-.79-.067-7.089-.455-13.63,1.936-14.611,5.342-.524,1.818.652,3.557,2.936,4.853A6.9,6.9,0,0,1,143.041,338.707Z" transform="translate(-137.135 -328.523)" fill="#fff" opacity="0.3"/>
            <path id="Trazado_141699" data-name="Trazado 141699" d="M160.5,337.994a13.211,13.211,0,0,1,2.933-.959,17.028,17.028,0,0,1,3.51-.348,18.809,18.809,0,0,1,2.931.227v-1.435a25.816,25.816,0,0,0-2.778-.145,24.6,24.6,0,0,0-4.773.448,17.415,17.415,0,0,0-3.968,1.246,8.388,8.388,0,0,0-2.679,1.847,4.366,4.366,0,0,0-.432.553h-1.881V340.9h1.362c0,.066-.01.132-.01.2a2.71,2.71,0,0,0,.072.612h-2.13v1.471h2.938c.034.038.064.075.1.112a8.543,8.543,0,0,0,2.693,1.818,17.741,17.741,0,0,0,3.966,1.224,24.854,24.854,0,0,0,4.742.44,24.27,24.27,0,0,0,2.778-.161v-1.424a17.95,17.95,0,0,1-2.869.232,17.478,17.478,0,0,1-3.543-.348,13.151,13.151,0,0,1-2.962-.96,6.986,6.986,0,0,1-1.493-.933h8.583v-1.471h-9.675a2.062,2.062,0,0,1-.108-.655c0-.052,0-.1.008-.155h10.336v-1.471h-9.659c.006-.008.013-.017.02-.025A6.162,6.162,0,0,1,160.5,337.994Z" transform="translate(-139.074 -329.138)"/>
          </g>
        </g>
        <g id="Grupo_87330" data-name="Grupo 87330">
          <path id="Trazado_141701" data-name="Trazado 141701" d="M136.57,333.831V340.1c0,5.811,11.33,9.912,24.839,9.912s25.629-4.917,25.6-9.8l.025-6.387Z" transform="translate(-136.57 -321.465)" fill="#d9a171" stroke="#000" stroke-linecap="round" stroke-linejoin="round" stroke-width="1.5"/>
          <g id="Grupo_87329" data-name="Grupo 87329" transform="translate(0.014)">
            <path id="Trazado_141702" data-name="Trazado 141702" d="M187.029,331.115c0,6.58-11.293,11.915-25.221,11.915s-25.222-5.335-25.222-11.915S147.878,319.2,161.808,319.2,187.029,324.534,187.029,331.115Z" transform="translate(-136.586 -319.2)" fill="#d9a171" stroke="#000" stroke-linecap="round" stroke-linejoin="round" stroke-width="1.5"/>
            <path id="Trazado_141703" data-name="Trazado 141703" d="M181.2,331.732c0,4.719-8.1,8.544-18.085,8.544s-18.089-3.825-18.089-8.544,8.1-8.545,18.089-8.545S181.2,327.012,181.2,331.732Z" transform="translate(-137.893 -319.817)" fill="#fff" stroke="#000" stroke-linecap="round" stroke-linejoin="round" stroke-width="1.5"/>
            <path id="Trazado_141704" data-name="Trazado 141704" d="M163.115,323.187c-9.99,0-18.089,3.825-18.089,8.545s8.1,8.544,18.089,8.544,18.085-3.825,18.085-8.544S173.1,323.187,163.115,323.187Zm0,16c-8.713,0-15.773-3.336-15.773-7.451s7.06-7.451,15.773-7.451,15.771,3.337,15.771,7.451S171.824,339.183,163.115,339.183Z" transform="translate(-137.893 -319.817)" fill="#c2c4c6" style="mix-blend-mode: multiply;isolation: isolate"/>
            <path id="Trazado_141705" data-name="Trazado 141705" d="M143.041,329.9c1.014-3.523,6.178-5.877,12.617-7.22-.259-.027-.522-.051-.79-.067-7.089-.457-13.63,1.935-14.611,5.34-.524,1.82.652,3.558,2.936,4.854A6.9,6.9,0,0,1,143.041,329.9Z" transform="translate(-137.135 -319.72)" fill="#fff" opacity="0.3"/>
            <path id="Trazado_141706" data-name="Trazado 141706" d="M160.5,329.191a13.254,13.254,0,0,1,2.933-.959,17.031,17.031,0,0,1,3.51-.349,18.914,18.914,0,0,1,2.931.227v-1.434a25.812,25.812,0,0,0-2.778-.146,24.533,24.533,0,0,0-4.773.449,17.46,17.46,0,0,0-3.968,1.245,8.418,8.418,0,0,0-2.679,1.848,4.31,4.31,0,0,0-.432.553h-1.881v1.471h1.362c0,.066-.01.132-.01.2a2.721,2.721,0,0,0,.072.612h-2.13v1.471h2.938c.034.037.064.075.1.112a8.528,8.528,0,0,0,2.693,1.817,17.7,17.7,0,0,0,3.966,1.224,24.786,24.786,0,0,0,4.742.44,24.263,24.263,0,0,0,2.778-.161v-1.424a17.856,17.856,0,0,1-2.869.232,17.532,17.532,0,0,1-3.543-.349,13.15,13.15,0,0,1-2.962-.959,6.987,6.987,0,0,1-1.493-.933h8.583V332.9h-9.675a2.066,2.066,0,0,1-.108-.655c0-.052,0-.1.008-.155h10.336v-1.471h-9.659a.182.182,0,0,1,.02-.025A6.15,6.15,0,0,1,160.5,329.191Z" transform="translate(-139.074 -320.335)"/>
          </g>
        </g>
      </g>
      <g id="Grupo_87336" data-name="Grupo 87336" transform="translate(69.915 55.646)">
        <g id="Grupo_87333" data-name="Grupo 87333" transform="translate(0 6.937)">
          <path id="Trazado_141708" data-name="Trazado 141708" d="M169.727,358.855v5.926c0,5.488,10.7,9.362,23.461,9.362s24.207-4.645,24.183-9.256l.025-6.033Z" transform="translate(-169.727 -348.26)" fill="#f2e9e4" stroke="#000" stroke-miterlimit="10" stroke-width="1.5"/>
          <g id="Grupo_87332" data-name="Grupo 87332" transform="translate(0.011)">
            <path id="Trazado_141709" data-name="Trazado 141709" d="M217.384,356.914c0,5.852-10.664,10.6-23.821,10.6s-23.823-4.744-23.823-10.6,10.665-10.6,23.823-10.6S217.384,351.063,217.384,356.914Z" transform="translate(-169.74 -346.319)" fill="#f2e9e4" stroke="#000" stroke-miterlimit="10" stroke-width="1.5"/>
            <path id="Trazado_141710" data-name="Trazado 141710" d="M211.881,357.463c0,4.2-7.649,7.6-17.083,7.6s-17.085-3.4-17.085-7.6,7.65-7.6,17.085-7.6S211.881,353.267,211.881,357.463Z" transform="translate(-170.974 -346.868)" fill="#fff" stroke="#000" stroke-linecap="round" stroke-linejoin="round" stroke-width="1.5"/>
            <path id="Trazado_141711" data-name="Trazado 141711" d="M197.844,359.5l8.039-6.225h-3.929l-5.811,4.525-5.815-4.525H186.4l8.04,6.225v.559h-3.988v1.251h3.988v.5h-3.988v1.252h3.988v1.093h3.4v-1.093h3.987v-1.252h-3.987v-.5h3.987v-1.251h-3.987Z" transform="translate(-172.319 -347.396)"/>
            <path id="Trazado_141712" data-name="Trazado 141712" d="M194.8,349.865c-9.435,0-17.085,3.4-17.085,7.6s7.65,7.6,17.085,7.6,17.083-3.4,17.083-7.6S204.232,349.865,194.8,349.865Zm0,14.225c-8.229,0-14.9-2.967-14.9-6.627s6.669-6.626,14.9-6.626,14.9,2.967,14.9,6.626S203.026,364.09,194.8,364.09Z" transform="translate(-170.974 -346.868)" fill="#c2c4c6" style="mix-blend-mode: multiply;isolation: isolate"/>
            <path id="Trazado_141713" data-name="Trazado 141713" d="M175.837,355.838c.959-3.133,5.837-5.228,11.918-6.423-.246-.023-.5-.044-.745-.058-6.7-.406-12.873,1.721-13.8,4.749-.494,1.619.616,3.164,2.774,4.317A5.825,5.825,0,0,1,175.837,355.838Z" transform="translate(-170.259 -346.782)" fill="#fff" opacity="0.3"/>
          </g>
        </g>
        <g id="Grupo_87335" data-name="Grupo 87335">
          <path id="Trazado_141715" data-name="Trazado 141715" d="M169.727,350.649v5.925c0,5.489,10.7,9.363,23.461,9.363s24.207-4.644,24.183-9.255l.025-6.033Z" transform="translate(-169.727 -340.053)" fill="#f2e9e4" stroke="#000" stroke-miterlimit="10" stroke-width="1.5"/>
          <g id="Grupo_87334" data-name="Grupo 87334" transform="translate(0.011)">
            <path id="Trazado_141716" data-name="Trazado 141716" d="M217.384,348.708c0,5.851-10.664,10.6-23.821,10.6s-23.823-4.744-23.823-10.6,10.665-10.6,23.823-10.6S217.384,342.856,217.384,348.708Z" transform="translate(-169.74 -338.112)" fill="#f2e9e4" stroke="#000" stroke-miterlimit="10" stroke-width="1.5"/>
            <path id="Trazado_141717" data-name="Trazado 141717" d="M211.881,349.257c0,4.2-7.649,7.6-17.083,7.6s-17.085-3.4-17.085-7.6,7.65-7.6,17.085-7.6S211.881,345.06,211.881,349.257Z" transform="translate(-170.974 -338.661)" fill="#fff" stroke="#000" stroke-linecap="round" stroke-linejoin="round" stroke-width="1.5"/>
            <path id="Trazado_141718" data-name="Trazado 141718" d="M197.844,351.3l8.039-6.225h-3.929l-5.811,4.525-5.815-4.525H186.4l8.04,6.225v.56h-3.988v1.252h3.988v.5h-3.988v1.252h3.988v1.093h3.4v-1.093h3.987v-1.252h-3.987v-.5h3.987v-1.252h-3.987Z" transform="translate(-172.319 -339.19)"/>
            <path id="Trazado_141719" data-name="Trazado 141719" d="M194.8,341.658c-9.435,0-17.085,3.4-17.085,7.6s7.65,7.6,17.085,7.6,17.083-3.4,17.083-7.6S204.232,341.658,194.8,341.658Zm0,14.225c-8.229,0-14.9-2.967-14.9-6.626s6.669-6.626,14.9-6.626,14.9,2.967,14.9,6.626S203.026,355.883,194.8,355.883Z" transform="translate(-170.974 -338.661)" fill="#c2c4c6" style="mix-blend-mode: multiply;isolation: isolate"/>
            <path id="Trazado_141720" data-name="Trazado 141720" d="M175.837,347.631c.959-3.133,5.837-5.227,11.918-6.422-.246-.023-.5-.044-.745-.059-6.7-.4-12.873,1.721-13.8,4.749-.494,1.618.616,3.164,2.774,4.316A5.82,5.82,0,0,1,175.837,347.631Z" transform="translate(-170.259 -338.575)" fill="#fff" opacity="0.3"/>
          </g>
        </g>
      </g>
      <g id="Grupo_87343" data-name="Grupo 87343" transform="translate(0 47.246)">
        <g id="Grupo_87338" data-name="Grupo 87338" transform="translate(0 13.967)">
          <path id="Trazado_141722" data-name="Trazado 141722" d="M87.006,356.344v6.274c0,5.811,11.329,9.912,24.839,9.912s25.63-4.918,25.6-9.8l.025-6.387Z" transform="translate(-87.006 -346.502)" fill="#8f9394" stroke="#000" stroke-linecap="round" stroke-linejoin="round" stroke-width="1.5"/>
          <g id="Grupo_87337" data-name="Grupo 87337" transform="translate(0.014)">
            <path id="Trazado_141723" data-name="Trazado 141723" d="M137.464,355.31c0,5.861-11.292,10.613-25.222,10.613s-25.22-4.752-25.22-10.613S98.313,344.7,112.242,344.7,137.464,349.45,137.464,355.31Z" transform="translate(-87.022 -344.699)" fill="#8f9394" stroke="#000" stroke-linecap="round" stroke-linejoin="round" stroke-width="1.5"/>
            <path id="Trazado_141724" data-name="Trazado 141724" d="M131.636,355.86c0,4.2-8.1,7.611-18.088,7.611s-18.087-3.408-18.087-7.611,8.1-7.611,18.087-7.611S131.636,351.657,131.636,355.86Z" transform="translate(-88.328 -345.249)" fill="#fff" stroke="#000" stroke-linecap="round" stroke-linejoin="round" stroke-width="1.5"/>
            <path id="Trazado_141725" data-name="Trazado 141725" d="M113.548,348.249c-9.987,0-18.087,3.408-18.087,7.611s8.1,7.611,18.087,7.611,18.088-3.408,18.088-7.611S123.539,348.249,113.548,348.249Zm0,14.248c-8.711,0-15.771-2.972-15.771-6.637s7.061-6.636,15.771-6.636,15.773,2.971,15.773,6.636S122.261,362.5,113.548,362.5Z" transform="translate(-88.328 -345.249)" fill="#c2c4c6" style="mix-blend-mode: multiply;isolation: isolate"/>
            <path id="Trazado_141726" data-name="Trazado 141726" d="M93.476,354.232c1.016-3.139,6.18-5.235,12.62-6.432-.262-.024-.524-.044-.794-.059-7.087-.406-13.627,1.724-14.609,4.756-.523,1.621.652,3.169,2.937,4.324A5.526,5.526,0,0,1,93.476,354.232Z" transform="translate(-87.571 -345.162)" fill="#fff" opacity="0.3"/>
            <path id="Trazado_141727" data-name="Trazado 141727" d="M120.948,345.334c4.193,1.837,6.795,4.318,6.795,7.018,0,5.549-11,10.18-24.192,10.18a51.335,51.335,0,0,1-11.6-1.276c4.515,2.871,12.256,4.767,21.05,4.767,13.93,0,25.222-4.752,25.222-10.613C138.228,350.716,130.986,346.734,120.948,345.334Z" transform="translate(-87.786 -344.797)" fill="#a6a9ac" style="mix-blend-mode: multiply;isolation: isolate"/>
            <path id="Trazado_141728" data-name="Trazado 141728" d="M116.774,357.855l8.437-6.18h-4.12l-6.1,4.492-6.1-4.492h-4.121l8.437,6.18v.556H109.02v1.242h4.186v2.822h3.568v-2.822h4.186v-1.242h-4.186Z" transform="translate(-89.769 -345.779)" fill="#1a1818"/>
          </g>
        </g>
        <g id="Grupo_87340" data-name="Grupo 87340" transform="translate(0 7.73)">
          <path id="Trazado_141729" data-name="Trazado 141729" d="M87.006,348.966v6.273c0,5.812,11.329,9.913,24.839,9.913s25.63-4.918,25.6-9.8l.025-6.387Z" transform="translate(-87.006 -339.123)" fill="#8f9394" stroke="#000" stroke-linecap="round" stroke-linejoin="round" stroke-width="1.5"/>
          <g id="Grupo_87339" data-name="Grupo 87339" transform="translate(0.014)">
            <path id="Trazado_141730" data-name="Trazado 141730" d="M137.464,347.933c0,5.861-11.292,10.612-25.222,10.612s-25.22-4.752-25.22-10.612,11.291-10.613,25.22-10.613S137.464,342.071,137.464,347.933Z" transform="translate(-87.022 -337.32)" fill="#8f9394" stroke="#000" stroke-linecap="round" stroke-linejoin="round" stroke-width="1.5"/>
            <path id="Trazado_141731" data-name="Trazado 141731" d="M131.636,348.483c0,4.2-8.1,7.61-18.088,7.61s-18.087-3.407-18.087-7.61,8.1-7.611,18.087-7.611S131.636,344.279,131.636,348.483Z" transform="translate(-88.328 -337.87)" fill="#fff" stroke="#000" stroke-linecap="round" stroke-linejoin="round" stroke-width="1.5"/>
            <path id="Trazado_141732" data-name="Trazado 141732" d="M113.548,340.872c-9.987,0-18.087,3.407-18.087,7.611s8.1,7.61,18.087,7.61,18.088-3.407,18.088-7.61S123.539,340.872,113.548,340.872Zm0,14.247c-8.711,0-15.771-2.972-15.771-6.636s7.061-6.637,15.771-6.637,15.773,2.972,15.773,6.637S122.261,355.119,113.548,355.119Z" transform="translate(-88.328 -337.87)" fill="#c2c4c6" style="mix-blend-mode: multiply;isolation: isolate"/>
            <path id="Trazado_141733" data-name="Trazado 141733" d="M93.476,346.854c1.016-3.138,6.18-5.235,12.62-6.432-.262-.023-.524-.044-.794-.059-7.087-.406-13.627,1.724-14.609,4.757-.523,1.621.652,3.169,2.937,4.324A5.53,5.53,0,0,1,93.476,346.854Z" transform="translate(-87.571 -337.783)" fill="#fff" opacity="0.3"/>
            <path id="Trazado_141734" data-name="Trazado 141734" d="M120.948,337.956c4.193,1.837,6.795,4.318,6.795,7.018,0,5.549-11,10.179-24.192,10.179a51.388,51.388,0,0,1-11.6-1.275c4.515,2.871,12.256,4.766,21.05,4.766,13.93,0,25.222-4.752,25.222-10.612C138.228,343.338,130.986,339.356,120.948,337.956Z" transform="translate(-87.786 -337.418)" fill="#a6a9ac" style="mix-blend-mode: multiply;isolation: isolate"/>
            <path id="Trazado_141735" data-name="Trazado 141735" d="M116.774,350.478l8.437-6.18h-4.12l-6.1,4.492-6.1-4.492h-4.121l8.437,6.18v.556H109.02v1.242h4.186V355.1h3.568v-2.822h4.186v-1.242h-4.186Z" transform="translate(-89.769 -338.4)" fill="#1a1818"/>
          </g>
        </g>
        <g id="Grupo_87342" data-name="Grupo 87342">
          <path id="Trazado_141736" data-name="Trazado 141736" d="M87.006,339.82v6.273c0,5.811,11.329,9.913,24.839,9.913s25.63-4.918,25.6-9.8l.025-6.386Z" transform="translate(-87.006 -329.977)" fill="#8f9394" stroke="#000" stroke-linecap="round" stroke-linejoin="round" stroke-width="1.5"/>
          <g id="Grupo_87341" data-name="Grupo 87341" transform="translate(0.014)">
            <path id="Trazado_141737" data-name="Trazado 141737" d="M137.464,338.787c0,5.86-11.292,10.611-25.222,10.611s-25.22-4.752-25.22-10.611,11.291-10.613,25.22-10.613S137.464,332.925,137.464,338.787Z" transform="translate(-87.022 -328.174)" fill="#8f9394" stroke="#000" stroke-linecap="round" stroke-linejoin="round" stroke-width="1.5"/>
            <path id="Trazado_141738" data-name="Trazado 141738" d="M131.636,339.337c0,4.2-8.1,7.609-18.088,7.609s-18.087-3.407-18.087-7.609,8.1-7.612,18.087-7.612S131.636,335.133,131.636,339.337Z" transform="translate(-88.328 -328.724)" fill="#fff" stroke="#000" stroke-linecap="round" stroke-linejoin="round" stroke-width="1.5"/>
            <path id="Trazado_141739" data-name="Trazado 141739" d="M113.548,331.725c-9.987,0-18.087,3.408-18.087,7.612s8.1,7.609,18.087,7.609,18.088-3.407,18.088-7.609S123.539,331.725,113.548,331.725Zm0,14.247c-8.711,0-15.771-2.972-15.771-6.636s7.061-6.638,15.771-6.638,15.773,2.972,15.773,6.638S122.261,345.972,113.548,345.972Z" transform="translate(-88.328 -328.724)" fill="#c2c4c6" style="mix-blend-mode: multiply;isolation: isolate"/>
            <path id="Trazado_141740" data-name="Trazado 141740" d="M93.476,337.707c1.016-3.138,6.18-5.235,12.62-6.432-.262-.022-.524-.043-.794-.058-7.087-.406-13.627,1.723-14.609,4.756-.523,1.62.652,3.169,2.937,4.324A5.529,5.529,0,0,1,93.476,337.707Z" transform="translate(-87.571 -328.637)" fill="#fff" opacity="0.3"/>
            <path id="Trazado_141742" data-name="Trazado 141742" d="M116.774,341.332l8.437-6.181h-4.12l-6.1,4.493-6.1-4.493h-4.121l8.437,6.181v.555H109.02v1.242h4.186v2.822h3.568v-2.822h4.186v-1.242h-4.186Z" transform="translate(-89.769 -329.254)" fill="#1a1818"/>
          </g>
        </g>
      </g>
    </g>
  </g>
</svg>
