<svg xmlns="http://www.w3.org/2000/svg" width="449.744" height="462.848" viewBox="0 0 449.744 462.848">
  <g id="Grupo_93048" data-name="Grupo 93048" transform="translate(-888.439 -19830.184)">
    <g id="Sheets" transform="translate(1063.761 19988.893)">
      <g id="Grupo_81879" data-name="Grupo 81879" transform="translate(0 0)">
        <g id="Grupo_81848" data-name="Grupo 81848" transform="translate(0 0)">
          <g id="Grupo_81829" data-name="Grupo 81829">
            <g id="Grupo_81828" data-name="Grupo 81828">
              <g id="Grupo_81827" data-name="Grupo 81827">
                <g id="Grupo_81826" data-name="Grupo 81826">
                  <g id="Grupo_81825" data-name="Grupo 81825">
                    <g id="Grupo_81824" data-name="Grupo 81824">
                      <path id="Trazado_139735" data-name="Trazado 139735" d="M117.24,195.156,50.022,173.412a8.839,8.839,0,0,1-5.689-11.131l30.1-93.037a8.84,8.84,0,0,1,11.131-5.69l42.63,13.79,22,44.686-21.816,67.436A8.84,8.84,0,0,1,117.24,195.156Z" transform="translate(-43.901 -63.121)" fill="#5e6178"/>
                    </g>
                  </g>
                </g>
              </g>
            </g>
          </g>
          <g id="Grupo_81835" data-name="Grupo 81835" transform="translate(75.416 14.222)">
            <g id="Grupo_81834" data-name="Grupo 81834">
              <g id="Grupo_81833" data-name="Grupo 81833">
                <g id="Grupo_81832" data-name="Grupo 81832">
                  <g id="Grupo_81831" data-name="Grupo 81831">
                    <g id="Grupo_81830" data-name="Grupo 81830">
                      <path id="Trazado_139736" data-name="Trazado 139736" d="M106.515,73.256,98.044,99.44a8.221,8.221,0,0,0,5.291,10.352l25.177,8.149Z" transform="translate(-97.643 -73.256)" fill="#f2e9e4"/>
                    </g>
                  </g>
                </g>
              </g>
            </g>
          </g>
          <g id="Grupo_81841" data-name="Grupo 81841" transform="translate(74.995 42.815)" opacity="0.2">
            <g id="Grupo_81840" data-name="Grupo 81840">
              <g id="Grupo_81839" data-name="Grupo 81839">
                <g id="Grupo_81838" data-name="Grupo 81838">
                  <g id="Grupo_81837" data-name="Grupo 81837">
                    <g id="Grupo_81836" data-name="Grupo 81836">
                      <path id="Trazado_139737" data-name="Trazado 139737" d="M97.766,93.631s-2.386,6.243,4.169,10.671a8.757,8.757,0,0,0,.768.455c3.1,1.65,23.493,12.5,23.653,12,.175-.539,2.278-7.036,2.278-7.036l-25.178-8.145S97.238,99.331,97.766,93.631Z" transform="translate(-97.342 -93.631)"/>
                    </g>
                  </g>
                </g>
              </g>
            </g>
          </g>
        </g>
        <g id="Grupo_81853" data-name="Grupo 81853" transform="translate(39.429 27.418)">
          <g id="Grupo_81852" data-name="Grupo 81852">
            <g id="Grupo_81851" data-name="Grupo 81851">
              <g id="Grupo_81850" data-name="Grupo 81850">
                <g id="Grupo_81849" data-name="Grupo 81849">
                  <path id="Trazado_139739" data-name="Trazado 139739" d="M103.1,92.756c-.11.337-7.16-1.643-15.745-4.42S71.89,83.032,72,82.7s7.157,1.642,15.747,4.42S103.2,92.419,103.1,92.756Z" transform="translate(-71.998 -82.659)" fill="#fafafa"/>
                </g>
              </g>
            </g>
          </g>
        </g>
        <g id="Grupo_81858" data-name="Grupo 81858" transform="translate(34.64 42.236)">
          <g id="Grupo_81857" data-name="Grupo 81857">
            <g id="Grupo_81856" data-name="Grupo 81856">
              <g id="Grupo_81855" data-name="Grupo 81855">
                <g id="Grupo_81854" data-name="Grupo 81854">
                  <path id="Trazado_139740" data-name="Trazado 139740" d="M119.768,109.8c-.109.337-11.656-3.1-25.787-7.668s-25.5-8.552-25.394-8.889,11.653,3.1,25.789,7.669S119.876,109.462,119.768,109.8Z" transform="translate(-68.585 -93.219)" fill="#fafafa"/>
                </g>
              </g>
            </g>
          </g>
        </g>
        <g id="Grupo_81863" data-name="Grupo 81863" transform="translate(30.64 54.601)">
          <g id="Grupo_81862" data-name="Grupo 81862">
            <g id="Grupo_81861" data-name="Grupo 81861">
              <g id="Grupo_81860" data-name="Grupo 81860">
                <g id="Grupo_81859" data-name="Grupo 81859">
                  <path id="Trazado_139741" data-name="Trazado 139741" d="M121.528,120.1c-.109.337-12.687-3.431-28.092-8.413s-27.808-9.3-27.7-9.634,12.685,3.43,28.094,8.414S121.636,119.762,121.528,120.1Z" transform="translate(-65.736 -102.03)" fill="#fafafa"/>
                </g>
              </g>
            </g>
          </g>
        </g>
        <g id="Grupo_81868" data-name="Grupo 81868" transform="translate(26.867 66.264)">
          <g id="Grupo_81867" data-name="Grupo 81867">
            <g id="Grupo_81866" data-name="Grupo 81866">
              <g id="Grupo_81865" data-name="Grupo 81865">
                <g id="Grupo_81864" data-name="Grupo 81864">
                  <path id="Trazado_139742" data-name="Trazado 139742" d="M118.839,128.41c-.109.337-12.687-3.431-28.092-8.414s-27.808-9.3-27.7-9.634,12.685,3.431,28.094,8.416S118.948,128.073,118.839,128.41Z" transform="translate(-63.047 -110.341)" fill="#fafafa"/>
                </g>
              </g>
            </g>
          </g>
        </g>
        <g id="Grupo_81873" data-name="Grupo 81873" transform="translate(23.095 77.928)">
          <g id="Grupo_81872" data-name="Grupo 81872">
            <g id="Grupo_81871" data-name="Grupo 81871">
              <g id="Grupo_81870" data-name="Grupo 81870">
                <g id="Grupo_81869" data-name="Grupo 81869">
                  <path id="Trazado_139743" data-name="Trazado 139743" d="M116.15,136.721c-.108.337-12.687-3.43-28.09-8.413s-27.81-9.3-27.7-9.634,12.685,3.43,28.094,8.414S116.259,136.385,116.15,136.721Z" transform="translate(-60.358 -118.653)" fill="#fafafa"/>
                </g>
              </g>
            </g>
          </g>
        </g>
        <g id="Grupo_81878" data-name="Grupo 81878" transform="translate(19.321 89.592)">
          <g id="Grupo_81877" data-name="Grupo 81877">
            <g id="Grupo_81876" data-name="Grupo 81876">
              <g id="Grupo_81875" data-name="Grupo 81875">
                <g id="Grupo_81874" data-name="Grupo 81874">
                  <path id="Trazado_139744" data-name="Trazado 139744" d="M113.462,145.033c-.109.337-12.687-3.431-28.092-8.414s-27.808-9.3-27.7-9.634,12.685,3.431,28.094,8.416S113.57,144.7,113.462,145.033Z" transform="translate(-57.67 -126.964)" fill="#fafafa"/>
                </g>
              </g>
            </g>
          </g>
        </g>
      </g>
    </g>
    <g id="Grupo_93047" data-name="Grupo 93047">
      <g id="Grupo_93046" data-name="Grupo 93046">
        <g id="Grupo_93043" data-name="Grupo 93043" transform="translate(952.404 20086.234)">
          <g id="Grupo_75759" data-name="Grupo 75759" transform="translate(0 67.084)">
            <g id="Grupo_75738" data-name="Grupo 75738">
              <path id="Rectángulo_8338" data-name="Rectángulo 8338" d="M3.755,0H263.789a3.756,3.756,0,0,1,3.756,3.756v62.16a3.756,3.756,0,0,1-3.756,3.756H3.755A3.755,3.755,0,0,1,0,65.915V3.755A3.755,3.755,0,0,1,3.755,0Z" fill="#263238"/>
            </g>
            <g id="Grupo_75739" data-name="Grupo 75739" transform="translate(120.417 16.63)">
              <rect id="Rectángulo_8339" data-name="Rectángulo 8339" width="118.632" height="39.339" rx="0.708" fill="#fff"/>
            </g>
            <g id="Grupo_75740" data-name="Grupo 75740" transform="translate(44.37 19.667)">
              <ellipse id="Elipse_4159" data-name="Elipse 4159" cx="14.241" cy="14.241" rx="14.241" ry="14.241" transform="translate(2.391 2.392)" fill="#263238"/>
              <path id="Trazado_110898" data-name="Trazado 110898" d="M144.324,456.967a16.633,16.633,0,1,1,16.63-16.633A16.652,16.652,0,0,1,144.324,456.967Zm0-28.485a11.852,11.852,0,1,0,11.85,11.853A11.867,11.867,0,0,0,144.324,428.482Z" transform="translate(-127.691 -423.702)" fill="#e0e0e0"/>
            </g>
            <g id="Grupo_75742" data-name="Grupo 75742" transform="translate(132.21 23.354)">
              <g id="Grupo_75741" data-name="Grupo 75741">
                <path id="Trazado_110899" data-name="Trazado 110899" d="M165.064,425.245c.344,0,.624,5.9.624,13.186s-.28,13.186-.624,13.186-.622-5.9-.622-13.186S164.723,425.245,165.064,425.245Z" transform="translate(-164.443 -425.245)" fill="#e0e0e0"/>
              </g>
            </g>
            <g id="Grupo_75744" data-name="Grupo 75744" transform="translate(143.752 23.354)">
              <g id="Grupo_75743" data-name="Grupo 75743">
                <path id="Trazado_110900" data-name="Trazado 110900" d="M169.893,425.245c.344,0,.624,5.9.624,13.186s-.28,13.186-.624,13.186-.621-5.9-.621-13.186S169.549,425.245,169.893,425.245Z" transform="translate(-169.272 -425.245)" fill="#e0e0e0"/>
              </g>
            </g>
            <g id="Grupo_75746" data-name="Grupo 75746" transform="translate(155.291 23.354)">
              <g id="Grupo_75745" data-name="Grupo 75745">
                <path id="Trazado_110901" data-name="Trazado 110901" d="M174.724,425.245c.344,0,.621,5.9.621,13.186s-.277,13.186-.621,13.186-.624-5.9-.624-13.186S174.38,425.245,174.724,425.245Z" transform="translate(-174.1 -425.245)" fill="#e0e0e0"/>
              </g>
            </g>
            <g id="Grupo_75748" data-name="Grupo 75748" transform="translate(166.833 23.354)">
              <g id="Grupo_75747" data-name="Grupo 75747">
                <path id="Trazado_110902" data-name="Trazado 110902" d="M179.553,425.245c.342,0,.621,5.9.621,13.186s-.28,13.186-.621,13.186-.624-5.9-.624-13.186S179.209,425.245,179.553,425.245Z" transform="translate(-178.929 -425.245)" fill="#e0e0e0"/>
              </g>
            </g>
            <g id="Grupo_75750" data-name="Grupo 75750" transform="translate(178.375 23.354)">
              <g id="Grupo_75749" data-name="Grupo 75749">
                <path id="Trazado_110903" data-name="Trazado 110903" d="M184.379,425.245c.344,0,.624,5.9.624,13.186s-.28,13.186-.624,13.186-.621-5.9-.621-13.186S184.038,425.245,184.379,425.245Z" transform="translate(-183.758 -425.245)" fill="#e0e0e0"/>
              </g>
            </g>
            <g id="Grupo_75752" data-name="Grupo 75752" transform="translate(189.916 23.354)">
              <g id="Grupo_75751" data-name="Grupo 75751">
                <path id="Trazado_110904" data-name="Trazado 110904" d="M189.208,425.245c.344,0,.621,5.9.621,13.186s-.277,13.186-.621,13.186-.621-5.9-.621-13.186S188.864,425.245,189.208,425.245Z" transform="translate(-188.587 -425.245)" fill="#e0e0e0"/>
              </g>
            </g>
            <g id="Grupo_75754" data-name="Grupo 75754" transform="translate(201.456 23.354)">
              <g id="Grupo_75753" data-name="Grupo 75753">
                <path id="Trazado_110905" data-name="Trazado 110905" d="M194.039,425.245c.344,0,.621,5.9.621,13.186s-.277,13.186-.621,13.186-.624-5.9-.624-13.186S193.695,425.245,194.039,425.245Z" transform="translate(-193.415 -425.245)" fill="#e0e0e0"/>
              </g>
            </g>
            <g id="Grupo_75756" data-name="Grupo 75756" transform="translate(212.997 23.354)">
              <g id="Grupo_75755" data-name="Grupo 75755">
                <path id="Trazado_110906" data-name="Trazado 110906" d="M198.868,425.245c.342,0,.621,5.9.621,13.186s-.28,13.186-.621,13.186-.624-5.9-.624-13.186S198.524,425.245,198.868,425.245Z" transform="translate(-198.244 -425.245)" fill="#e0e0e0"/>
              </g>
            </g>
            <g id="Grupo_75758" data-name="Grupo 75758" transform="translate(224.539 23.354)">
              <g id="Grupo_75757" data-name="Grupo 75757">
                <path id="Trazado_110907" data-name="Trazado 110907" d="M203.694,425.245c.344,0,.624,5.9.624,13.186s-.28,13.186-.624,13.186-.621-5.9-.621-13.186S203.353,425.245,203.694,425.245Z" transform="translate(-203.073 -425.245)" fill="#e0e0e0"/>
              </g>
            </g>
          </g>
          <g id="Grupo_75781" data-name="Grupo 75781" transform="translate(0 0)">
            <g id="Grupo_75760" data-name="Grupo 75760">
              <path id="Rectángulo_8340" data-name="Rectángulo 8340" d="M3.755,0H263.789a3.756,3.756,0,0,1,3.756,3.756v62.16a3.756,3.756,0,0,1-3.756,3.756H3.755A3.755,3.755,0,0,1,0,65.915V3.755A3.755,3.755,0,0,1,3.755,0Z" fill="#455a64"/>
            </g>
            <g id="Grupo_75761" data-name="Grupo 75761" transform="translate(120.417 16.63)">
              <rect id="Rectángulo_8341" data-name="Rectángulo 8341" width="118.632" height="39.339" rx="0.708" fill="#fff"/>
            </g>
            <g id="Grupo_75762" data-name="Grupo 75762" transform="translate(44.37 19.668)">
              <ellipse id="Elipse_4160" data-name="Elipse 4160" cx="14.241" cy="14.241" rx="14.241" ry="14.241" transform="translate(2.391 2.39)" fill="#263238"/>
              <path id="Trazado_110908" data-name="Trazado 110908" d="M144.324,428.9a16.631,16.631,0,1,1,16.63-16.633A16.652,16.652,0,0,1,144.324,428.9Zm0-28.482a11.851,11.851,0,1,0,11.85,11.85A11.866,11.866,0,0,0,144.324,400.415Z" transform="translate(-127.691 -395.635)" fill="#e0e0e0"/>
            </g>
            <g id="Grupo_75764" data-name="Grupo 75764" transform="translate(132.21 23.354)">
              <g id="Grupo_75763" data-name="Grupo 75763">
                <path id="Trazado_110909" data-name="Trazado 110909" d="M165.064,397.177c.344,0,.624,5.9.624,13.186s-.28,13.186-.624,13.186-.622-5.9-.622-13.186S164.723,397.177,165.064,397.177Z" transform="translate(-164.443 -397.177)" fill="#e0e0e0"/>
              </g>
            </g>
            <g id="Grupo_75766" data-name="Grupo 75766" transform="translate(143.752 23.354)">
              <g id="Grupo_75765" data-name="Grupo 75765">
                <path id="Trazado_110910" data-name="Trazado 110910" d="M169.893,397.177c.344,0,.624,5.9.624,13.186s-.28,13.186-.624,13.186-.621-5.9-.621-13.186S169.549,397.177,169.893,397.177Z" transform="translate(-169.272 -397.177)" fill="#e0e0e0"/>
              </g>
            </g>
            <g id="Grupo_75768" data-name="Grupo 75768" transform="translate(155.291 23.354)">
              <g id="Grupo_75767" data-name="Grupo 75767">
                <path id="Trazado_110911" data-name="Trazado 110911" d="M174.724,397.177c.344,0,.621,5.9.621,13.186s-.277,13.186-.621,13.186-.624-5.9-.624-13.186S174.38,397.177,174.724,397.177Z" transform="translate(-174.1 -397.177)" fill="#e0e0e0"/>
              </g>
            </g>
            <g id="Grupo_75770" data-name="Grupo 75770" transform="translate(166.833 23.354)">
              <g id="Grupo_75769" data-name="Grupo 75769">
                <path id="Trazado_110912" data-name="Trazado 110912" d="M179.553,397.177c.342,0,.621,5.9.621,13.186s-.28,13.186-.621,13.186-.624-5.9-.624-13.186S179.209,397.177,179.553,397.177Z" transform="translate(-178.929 -397.177)" fill="#e0e0e0"/>
              </g>
            </g>
            <g id="Grupo_75772" data-name="Grupo 75772" transform="translate(178.375 23.354)">
              <g id="Grupo_75771" data-name="Grupo 75771">
                <path id="Trazado_110913" data-name="Trazado 110913" d="M184.379,397.177c.344,0,.624,5.9.624,13.186s-.28,13.186-.624,13.186-.621-5.9-.621-13.186S184.038,397.177,184.379,397.177Z" transform="translate(-183.758 -397.177)" fill="#e0e0e0"/>
              </g>
            </g>
            <g id="Grupo_75774" data-name="Grupo 75774" transform="translate(189.916 23.354)">
              <g id="Grupo_75773" data-name="Grupo 75773">
                <path id="Trazado_110914" data-name="Trazado 110914" d="M189.208,397.177c.344,0,.621,5.9.621,13.186s-.277,13.186-.621,13.186-.621-5.9-.621-13.186S188.864,397.177,189.208,397.177Z" transform="translate(-188.587 -397.177)" fill="#e0e0e0"/>
              </g>
            </g>
            <g id="Grupo_75776" data-name="Grupo 75776" transform="translate(201.456 23.354)">
              <g id="Grupo_75775" data-name="Grupo 75775">
                <path id="Trazado_110915" data-name="Trazado 110915" d="M194.039,397.177c.344,0,.621,5.9.621,13.186s-.277,13.186-.621,13.186-.624-5.9-.624-13.186S193.695,397.177,194.039,397.177Z" transform="translate(-193.415 -397.177)" fill="#e0e0e0"/>
              </g>
            </g>
            <g id="Grupo_75778" data-name="Grupo 75778" transform="translate(212.997 23.354)">
              <g id="Grupo_75777" data-name="Grupo 75777">
                <path id="Trazado_110916" data-name="Trazado 110916" d="M198.868,397.177c.342,0,.621,5.9.621,13.186s-.28,13.186-.621,13.186-.624-5.9-.624-13.186S198.524,397.177,198.868,397.177Z" transform="translate(-198.244 -397.177)" fill="#e0e0e0"/>
              </g>
            </g>
            <g id="Grupo_75780" data-name="Grupo 75780" transform="translate(224.539 23.354)">
              <g id="Grupo_75779" data-name="Grupo 75779">
                <path id="Trazado_110917" data-name="Trazado 110917" d="M203.694,397.177c.344,0,.624,5.9.624,13.186s-.28,13.186-.624,13.186-.621-5.9-.621-13.186S203.353,397.177,203.694,397.177Z" transform="translate(-203.073 -397.177)" fill="#e0e0e0"/>
              </g>
            </g>
          </g>
          <g id="Grupo_75803" data-name="Grupo 75803" transform="translate(0 137.127)">
            <g id="Grupo_75782" data-name="Grupo 75782">
              <path id="Rectángulo_8342" data-name="Rectángulo 8342" d="M3.755,0H263.789a3.756,3.756,0,0,1,3.756,3.756v62.16a3.756,3.756,0,0,1-3.756,3.756H3.755A3.755,3.755,0,0,1,0,65.915V3.755A3.755,3.755,0,0,1,3.755,0Z" fill="#aed3f2"/>
            </g>
            <g id="Grupo_75783" data-name="Grupo 75783" transform="translate(120.417 16.63)">
              <rect id="Rectángulo_8343" data-name="Rectángulo 8343" width="118.632" height="39.339" rx="0.708" fill="#fff"/>
            </g>
            <g id="Grupo_75784" data-name="Grupo 75784" transform="translate(44.37 19.667)">
              <path id="Trazado_110918" data-name="Trazado 110918" d="M157.174,468.251a14.241,14.241,0,1,0-14.24,14.24A14.242,14.242,0,0,0,157.174,468.251Z" transform="translate(-126.301 -451.618)" fill="#263238"/>
              <path id="Trazado_110919" data-name="Trazado 110919" d="M144.324,486.271a16.631,16.631,0,1,1,16.63-16.63A16.65,16.65,0,0,1,144.324,486.271Zm0-28.483a11.851,11.851,0,1,0,11.85,11.853A11.867,11.867,0,0,0,144.324,457.788Z" transform="translate(-127.691 -453.008)" fill="#f5f5f5"/>
            </g>
            <g id="Grupo_75786" data-name="Grupo 75786" transform="translate(132.21 23.353)">
              <g id="Grupo_75785" data-name="Grupo 75785">
                <path id="Trazado_110920" data-name="Trazado 110920" d="M165.064,454.55c.344,0,.624,5.906.624,13.186s-.28,13.188-.624,13.188-.622-5.9-.622-13.188S164.723,454.55,165.064,454.55Z" transform="translate(-164.443 -454.55)" fill="#e0e0e0"/>
              </g>
            </g>
            <g id="Grupo_75788" data-name="Grupo 75788" transform="translate(143.752 23.353)">
              <g id="Grupo_75787" data-name="Grupo 75787">
                <path id="Trazado_110921" data-name="Trazado 110921" d="M169.893,454.55c.344,0,.624,5.906.624,13.186s-.28,13.188-.624,13.188-.621-5.9-.621-13.188S169.549,454.55,169.893,454.55Z" transform="translate(-169.272 -454.55)" fill="#e0e0e0"/>
              </g>
            </g>
            <g id="Grupo_75790" data-name="Grupo 75790" transform="translate(155.291 23.353)">
              <g id="Grupo_75789" data-name="Grupo 75789">
                <path id="Trazado_110922" data-name="Trazado 110922" d="M174.724,454.55c.344,0,.621,5.906.621,13.186s-.277,13.188-.621,13.188-.624-5.9-.624-13.188S174.38,454.55,174.724,454.55Z" transform="translate(-174.1 -454.55)" fill="#e0e0e0"/>
              </g>
            </g>
            <g id="Grupo_75792" data-name="Grupo 75792" transform="translate(166.833 23.353)">
              <g id="Grupo_75791" data-name="Grupo 75791">
                <path id="Trazado_110923" data-name="Trazado 110923" d="M179.553,454.55c.342,0,.621,5.906.621,13.186s-.28,13.188-.621,13.188-.624-5.9-.624-13.188S179.209,454.55,179.553,454.55Z" transform="translate(-178.929 -454.55)" fill="#e0e0e0"/>
              </g>
            </g>
            <g id="Grupo_75794" data-name="Grupo 75794" transform="translate(178.375 23.353)">
              <g id="Grupo_75793" data-name="Grupo 75793">
                <path id="Trazado_110924" data-name="Trazado 110924" d="M184.379,454.55c.344,0,.624,5.906.624,13.186s-.28,13.188-.624,13.188-.621-5.9-.621-13.188S184.038,454.55,184.379,454.55Z" transform="translate(-183.758 -454.55)" fill="#e0e0e0"/>
              </g>
            </g>
            <g id="Grupo_75796" data-name="Grupo 75796" transform="translate(189.916 23.353)">
              <g id="Grupo_75795" data-name="Grupo 75795">
                <path id="Trazado_110925" data-name="Trazado 110925" d="M189.208,454.55c.344,0,.621,5.906.621,13.186s-.277,13.188-.621,13.188-.621-5.9-.621-13.188S188.864,454.55,189.208,454.55Z" transform="translate(-188.587 -454.55)" fill="#e0e0e0"/>
              </g>
            </g>
            <g id="Grupo_75798" data-name="Grupo 75798" transform="translate(201.456 23.353)">
              <g id="Grupo_75797" data-name="Grupo 75797">
                <path id="Trazado_110926" data-name="Trazado 110926" d="M194.039,454.55c.344,0,.621,5.906.621,13.186s-.277,13.188-.621,13.188-.624-5.9-.624-13.188S193.695,454.55,194.039,454.55Z" transform="translate(-193.415 -454.55)" fill="#e0e0e0"/>
              </g>
            </g>
            <g id="Grupo_75800" data-name="Grupo 75800" transform="translate(212.997 23.353)">
              <g id="Grupo_75799" data-name="Grupo 75799">
                <path id="Trazado_110927" data-name="Trazado 110927" d="M198.868,454.55c.342,0,.621,5.906.621,13.186s-.28,13.188-.621,13.188-.624-5.9-.624-13.188S198.524,454.55,198.868,454.55Z" transform="translate(-198.244 -454.55)" fill="#e0e0e0"/>
              </g>
            </g>
            <g id="Grupo_75802" data-name="Grupo 75802" transform="translate(224.539 23.353)">
              <g id="Grupo_75801" data-name="Grupo 75801">
                <path id="Trazado_110928" data-name="Trazado 110928" d="M203.694,454.55c.344,0,.624,5.906.624,13.186s-.28,13.188-.624,13.188-.621-5.9-.621-13.188S203.353,454.55,203.694,454.55Z" transform="translate(-203.073 -454.55)" fill="#e0e0e0"/>
              </g>
            </g>
          </g>
        </g>
        <g id="Grupo_93045" data-name="Grupo 93045" transform="translate(1116.904 19830.184)">
          <g id="Grupo_79085" data-name="Grupo 79085" transform="translate(0)">
            <rect id="Rectángulo_30234" data-name="Rectángulo 30234" width="221.28" height="213.05" rx="8.41" fill="#e6e6e6"/>
          </g>
          <g id="Grupo_79114" data-name="Grupo 79114" transform="translate(15.464 22.505)">
            <g id="Grupo_79108" data-name="Grupo 79108">
              <g id="Grupo_79086" data-name="Grupo 79086" transform="translate(0 123.446)">
                <rect id="Rectángulo_30235" data-name="Rectángulo 30235" width="7.262" height="2.093" fill="#263238"/>
              </g>
              <g id="Grupo_79087" data-name="Grupo 79087" transform="translate(16.429 134.634)">
                <rect id="Rectángulo_30236" data-name="Rectángulo 30236" width="9.287" height="2.093" fill="#263238"/>
              </g>
              <g id="Grupo_79088" data-name="Grupo 79088" transform="translate(48.76 134.634)">
                <rect id="Rectángulo_30237" data-name="Rectángulo 30237" width="9.287" height="2.093" fill="#263238"/>
              </g>
              <g id="Grupo_79089" data-name="Grupo 79089" transform="translate(81.091 134.634)">
                <rect id="Rectángulo_30238" data-name="Rectángulo 30238" width="9.287" height="2.093" fill="#263238"/>
              </g>
              <g id="Grupo_79090" data-name="Grupo 79090" transform="translate(113.421 134.634)">
                <rect id="Rectángulo_30239" data-name="Rectángulo 30239" width="9.287" height="2.093" fill="#263238"/>
              </g>
              <g id="Grupo_79091" data-name="Grupo 79091" transform="translate(145.752 134.634)">
                <rect id="Rectángulo_30240" data-name="Rectángulo 30240" width="9.287" height="2.093" fill="#263238"/>
              </g>
              <g id="Grupo_79092" data-name="Grupo 79092" transform="translate(178.082 134.634)">
                <rect id="Rectángulo_30241" data-name="Rectángulo 30241" width="9.287" height="2.093" fill="#263238"/>
              </g>
              <g id="Grupo_79093" data-name="Grupo 79093" transform="translate(0 95.495)">
                <rect id="Rectángulo_30242" data-name="Rectángulo 30242" width="7.262" height="2.093" fill="#263238"/>
              </g>
              <g id="Grupo_79094" data-name="Grupo 79094" transform="translate(0 42.89)">
                <rect id="Rectángulo_30243" data-name="Rectángulo 30243" width="7.262" height="2.093" fill="#263238"/>
              </g>
              <g id="Grupo_79095" data-name="Grupo 79095" transform="translate(0 16.454)">
                <rect id="Rectángulo_30244" data-name="Rectángulo 30244" width="7.262" height="2.093" fill="#263238"/>
              </g>
              <g id="Grupo_79096" data-name="Grupo 79096" transform="translate(0.368 69.193)">
                <rect id="Rectángulo_30245" data-name="Rectángulo 30245" width="7.262" height="2.093" fill="#263238"/>
              </g>
              <g id="Grupo_79098" data-name="Grupo 79098" transform="translate(10.711)">
                <g id="Grupo_79097" data-name="Grupo 79097">
                  <path id="Trazado_138854" data-name="Trazado 138854" d="M545.483,392.267s-.264.024-.779.036l-2.286.034-8.788.063-32.317.11-106.623.1-25.267,0h-.34v-.34c.046-35.653.087-67.028.116-89.519.044-11.215.078-20.213.1-26.436.025-3.077.045-5.468.06-7.116.013-.792.023-1.4.03-1.843.011-.414.032-.625.032-.625s.021.211.032.625c.007.44.017,1.051.03,1.843.013,1.648.033,4.038.058,7.116.025,6.222.06,15.221.1,26.436.029,22.491.07,53.865.116,89.519l-.34-.34,25.267,0,106.623.1,32.317.11,8.788.065,2.286.033C545.219,392.244,545.483,392.267,545.483,392.267Z" transform="translate(-369.084 -266.729)" fill="#263238"/>
                </g>
              </g>
              <g id="Grupo_79100" data-name="Grupo 79100" transform="translate(18.075 69.895)">
                <g id="Grupo_79099" data-name="Grupo 79099">
                  <path id="Trazado_138855" data-name="Trazado 138855" d="M545.735,319.947c0,.19-38.3.345-85.536.345-47.252,0-85.544-.155-85.544-.345s38.292-.344,85.544-.344C507.435,319.6,545.735,319.756,545.735,319.947Z" transform="translate(-374.655 -319.603)" fill="#263238"/>
                </g>
              </g>
              <g id="Grupo_79102" data-name="Grupo 79102" transform="translate(18.075 43.591)">
                <g id="Grupo_79101" data-name="Grupo 79101">
                  <path id="Trazado_138856" data-name="Trazado 138856" d="M545.735,300.05c0,.19-38.3.344-85.536.344-47.252,0-85.544-.153-85.544-.344s38.292-.345,85.544-.345C507.435,299.705,545.735,299.86,545.735,300.05Z" transform="translate(-374.655 -299.705)" fill="#263238"/>
                </g>
              </g>
              <g id="Grupo_79104" data-name="Grupo 79104" transform="translate(18.075 17.156)">
                <g id="Grupo_79103" data-name="Grupo 79103">
                  <path id="Trazado_138857" data-name="Trazado 138857" d="M545.735,280.051c0,.19-38.3.345-85.536.345-47.252,0-85.544-.155-85.544-.345s38.292-.344,85.544-.344C507.435,279.707,545.735,279.862,545.735,280.051Z" transform="translate(-374.655 -279.707)" fill="#263238"/>
                </g>
              </g>
              <g id="Grupo_79106" data-name="Grupo 79106" transform="translate(18.075 96.197)">
                <g id="Grupo_79105" data-name="Grupo 79105">
                  <path id="Trazado_138858" data-name="Trazado 138858" d="M545.735,339.845c0,.189-38.3.344-85.536.344-47.252,0-85.544-.155-85.544-.344s38.292-.345,85.544-.345C507.435,339.5,545.735,339.655,545.735,339.845Z" transform="translate(-374.655 -339.5)" fill="#263238"/>
                </g>
              </g>
              <g id="Grupo_79107" data-name="Grupo 79107" transform="translate(19.838 1.939)">
                <path id="Trazado_138859" data-name="Trazado 138859" d="M375.989,386.135V362.8l14.545-22.581,9.871,7.573,20.258-31.47,11.949,8.414,16.623-29.031,13.506,11L483,268.2l21.818,43.043L522.481,289.7l20.779-5.946V386.135Z" transform="translate(-375.989 -268.196)" fill="#aed3f2"/>
              </g>
            </g>
            <g id="Grupo_79110" data-name="Grupo 79110" transform="translate(19.838 9.022)">
              <g id="Grupo_79109" data-name="Grupo 79109">
                <path id="Trazado_138860" data-name="Trazado 138860" d="M545.305,273.746a1.8,1.8,0,0,1-.366.026l-1.083.027-4.217.049-15.945.09.152-.074c-4.645,6.072-10.431,13.634-17.084,22.332l-.082.106h-.135l-42.779.059.284-.16c-5.63,9.372-11.706,19.485-17.986,29.941-6.126,10.184-12.057,20.04-17.658,29.349l-.258.43-.294-.406c-8.451-11.62-16.266-22.367-23.172-31.864l.463-.014-21.139,32.934c-2.534,3.913-4.522,6.985-5.9,9.1l-1.564,2.377c-.357.534-.559.8-.559.8s.153-.294.487-.843q.531-.859,1.495-2.42l5.766-9.186c5.03-7.943,12.221-19.3,20.936-33.064l.221-.348.243.333c6.931,9.478,14.774,20.206,23.254,31.8l-.552.024c5.594-9.312,11.518-19.173,17.637-29.361l18.007-29.928.1-.161h.186l42.779.06-.215.106c6.7-8.66,12.533-16.188,17.213-22.235l.059-.075h.093l15.945.09,4.217.049,1.083.025A2.106,2.106,0,0,1,545.305,273.746Z" transform="translate(-375.989 -273.554)" fill="#263238"/>
              </g>
            </g>
            <g id="Grupo_79111" data-name="Grupo 79111" transform="translate(52.49 64.855)">
              <path id="Trazado_138861" data-name="Trazado 138861" d="M403.971,317.37a1.642,1.642,0,1,1-1.642-1.58A1.613,1.613,0,0,1,403.971,317.37Z" transform="translate(-400.689 -315.79)" fill="#263238"/>
            </g>
            <g id="Grupo_79112" data-name="Grupo 79112" transform="translate(101.833 36.809)">
              <path id="Trazado_138862" data-name="Trazado 138862" d="M441.3,296.154a1.642,1.642,0,1,1-1.642-1.58A1.612,1.612,0,0,1,441.3,296.154Z" transform="translate(-438.016 -294.574)" fill="#263238"/>
            </g>
            <g id="Grupo_79113" data-name="Grupo 79113" transform="translate(140.192 29.918)">
              <path id="Trazado_138863" data-name="Trazado 138863" d="M470.316,290.942a1.642,1.642,0,1,1-1.642-1.581A1.612,1.612,0,0,1,470.316,290.942Z" transform="translate(-467.034 -289.361)" fill="#263238"/>
            </g>
          </g>
          <g id="Grupo_79115" data-name="Grupo 79115" transform="translate(31.894 174.885)">
            <ellipse id="Elipse_4180" data-name="Elipse 4180" cx="10.613" cy="10.219" rx="10.613" ry="10.219" fill="#fff"/>
          </g>
          <g id="Grupo_79116" data-name="Grupo 79116" transform="translate(68.868 178.259)">
            <rect id="Rectángulo_30246" data-name="Rectángulo 30246" width="124.679" height="3.825" fill="#fff"/>
          </g>
          <g id="Grupo_79117" data-name="Grupo 79117" transform="translate(68.868 187.811)">
            <rect id="Rectángulo_30247" data-name="Rectángulo 30247" width="51.768" height="3.825" fill="#fff"/>
          </g>
        </g>
      </g>
      <g id="Grupo_93044" data-name="Grupo 93044" transform="translate(888.439 19836.406)">
        <g id="Grupo_66469" data-name="Grupo 66469" transform="translate(0 200.771)">
          <g id="Grupo_66406" data-name="Grupo 66406" transform="translate(124.027 238.385)">
            <g id="Grupo_66405" data-name="Grupo 66405">
              <g id="Grupo_66359" data-name="Grupo 66359" transform="translate(0.287)">
                <g id="Grupo_66358" data-name="Grupo 66358">
                  <g id="Grupo_66357" data-name="Grupo 66357">
                    <path id="Trazado_106032" data-name="Trazado 106032" d="M1698.18,7549.578l-.131-11.442-21.438.109.019,16.747,1.329.077c5.918.3,30.105,1.1,34.053-.121C1716.416,7553.586,1698.18,7549.578,1698.18,7549.578Z" transform="translate(-1676.611 -7538.136)" fill="#6595bf"/>
                  </g>
                </g>
              </g>
              <g id="Grupo_66362" data-name="Grupo 66362" transform="translate(0 16.212)">
                <g id="Grupo_66361" data-name="Grupo 66361">
                  <g id="Grupo_66360" data-name="Grupo 66360">
                    <path id="Trazado_106033" data-name="Trazado 106033" d="M1676.405,7549.916a2.444,2.444,0,0,0,.37.035c.316.02.665.041,1.058.06,1.058.044,2.36.091,3.9.149,3.291.105,7.839.186,12.864.168s9.575-.14,12.865-.265c1.535-.071,2.837-.132,3.895-.176.392-.031.741-.052,1.058-.073a2.436,2.436,0,0,0,.369-.039,1.687,1.687,0,0,0-.372-.014c-.318.006-.666.014-1.06.019-1.058.026-2.361.063-3.9.1-3.292.081-7.839.168-12.861.19s-9.568-.035-12.859-.093c-1.536-.025-2.838-.046-3.9-.065-.394,0-.742-.007-1.06-.007A2.218,2.218,0,0,0,1676.405,7549.916Z" transform="translate(-1676.405 -7549.76)" fill="#344154"/>
                  </g>
                </g>
              </g>
              <g id="Grupo_66365" data-name="Grupo 66365" transform="translate(28.843 13.453)">
                <g id="Grupo_66364" data-name="Grupo 66364">
                  <g id="Grupo_66363" data-name="Grupo 66363">
                    <path id="Trazado_106034" data-name="Trazado 106034" d="M1697.125,7551.148a8.908,8.908,0,0,1,.72-1.862,8.577,8.577,0,0,1,1.321-1.5,3.456,3.456,0,0,0-2.04,3.358Z" transform="translate(-1697.086 -7547.784)" fill="#344154"/>
                  </g>
                </g>
              </g>
              <g id="Grupo_66368" data-name="Grupo 66368" transform="translate(22.531 11.848)">
                <g id="Grupo_66367" data-name="Grupo 66367">
                  <g id="Grupo_66366" data-name="Grupo 66366">
                    <path id="Trazado_106035" data-name="Trazado 106035" d="M1692.571,7548.424c.061.038.363-.332.672-.826s.513-.925.452-.963-.362.334-.672.827S1692.511,7548.386,1692.571,7548.424Z" transform="translate(-1692.56 -7546.632)" fill="#344154"/>
                  </g>
                </g>
              </g>
              <g id="Grupo_66371" data-name="Grupo 66371" transform="translate(20.796 11.516)">
                <g id="Grupo_66370" data-name="Grupo 66370">
                  <g id="Grupo_66369" data-name="Grupo 66369">
                    <path id="Trazado_106036" data-name="Trazado 106036" d="M1691.323,7547.61c.047.054.385-.174.752-.506s.625-.647.579-.7-.386.174-.753.508S1691.274,7547.561,1691.323,7547.61Z" transform="translate(-1691.317 -7546.393)" fill="#344154"/>
                  </g>
                </g>
              </g>
              <g id="Grupo_66374" data-name="Grupo 66374" transform="translate(19.695 10.59)">
                <g id="Grupo_66373" data-name="Grupo 66373">
                  <g id="Grupo_66372" data-name="Grupo 66372">
                    <path id="Trazado_106037" data-name="Trazado 106037" d="M1690.527,7545.851a2.623,2.623,0,0,0,1.121.139,2.515,2.515,0,0,0,1.12-.125,2.544,2.544,0,0,0-1.119-.133A2.482,2.482,0,0,0,1690.527,7545.851Z" transform="translate(-1690.527 -7545.731)" fill="#344154"/>
                  </g>
                </g>
              </g>
              <g id="Grupo_66377" data-name="Grupo 66377" transform="translate(19.311 9.266)">
                <g id="Grupo_66376" data-name="Grupo 66376">
                  <g id="Grupo_66375" data-name="Grupo 66375">
                    <path id="Trazado_106038" data-name="Trazado 106038" d="M1690.252,7544.8a2.168,2.168,0,0,0,1.248.36,2.215,2.215,0,0,0,1.289-.179,6.868,6.868,0,0,0-1.269-.084A7,7,0,0,0,1690.252,7544.8Z" transform="translate(-1690.252 -7544.78)" fill="#344154"/>
                  </g>
                </g>
              </g>
              <g id="Grupo_66380" data-name="Grupo 66380" transform="translate(23.26 9.828)">
                <g id="Grupo_66379" data-name="Grupo 66379">
                  <g id="Grupo_66378" data-name="Grupo 66378">
                    <path id="Trazado_106039" data-name="Trazado 106039" d="M1693.083,7547.122a3.955,3.955,0,0,0,1.377-.015,7.561,7.561,0,0,0,1.466-.332,4.018,4.018,0,0,0,.837-.345.753.753,0,0,0,.338-.432.538.538,0,0,0-.21-.549,2.549,2.549,0,0,0-3.566,1.672.793.793,0,0,0-.034.375,3.9,3.9,0,0,1,.622-1.181,2.493,2.493,0,0,1,1.172-.77,2.126,2.126,0,0,1,1.644.105c.218.159.135.418-.108.561a3.988,3.988,0,0,1-.772.337,10.055,10.055,0,0,1-1.418.375C1693.609,7547.075,1693.083,7547.079,1693.083,7547.122Z" transform="translate(-1693.083 -7545.183)" fill="#344154"/>
                  </g>
                </g>
              </g>
              <g id="Grupo_66383" data-name="Grupo 66383" transform="translate(21.809 9.173)">
                <g id="Grupo_66382" data-name="Grupo 66382">
                  <g id="Grupo_66381" data-name="Grupo 66381">
                    <path id="Trazado_106040" data-name="Trazado 106040" d="M1693.853,7547.375a1.371,1.371,0,0,0,.153-.956,2.257,2.257,0,0,0-.381-1.006,1.382,1.382,0,0,0-1.149-.7.55.55,0,0,0-.423.638,1.531,1.531,0,0,0,.237.615,4.307,4.307,0,0,0,.654.832,2.011,2.011,0,0,0,.792.554c.024-.035-.277-.246-.658-.682a4.636,4.636,0,0,1-.58-.824c-.191-.292-.322-.813.022-.878.344-.033.7.308.911.579a2.29,2.29,0,0,1,.393.9A5.07,5.07,0,0,1,1693.853,7547.375Z" transform="translate(-1692.043 -7544.714)" fill="#344154"/>
                  </g>
                </g>
              </g>
              <g id="Grupo_66386" data-name="Grupo 66386" transform="translate(0.411 10.348)">
                <g id="Grupo_66385" data-name="Grupo 66385">
                  <g id="Grupo_66384" data-name="Grupo 66384">
                    <path id="Trazado_106041" data-name="Trazado 106041" d="M1676.7,7545.7c0,.052.613-.062,1.582.052a6.691,6.691,0,0,1,5.635,4.447c.332.92.366,1.537.415,1.528a1.171,1.171,0,0,0,0-.429,5.535,5.535,0,0,0-.238-1.156,6.627,6.627,0,0,0-2.187-3.187,6.554,6.554,0,0,0-3.6-1.386,5.208,5.208,0,0,0-1.179.034A1.353,1.353,0,0,0,1676.7,7545.7Z" transform="translate(-1676.7 -7545.557)" fill="#344154"/>
                  </g>
                </g>
              </g>
              <g id="Grupo_66389" data-name="Grupo 66389" transform="translate(2.421 1.566)">
                <g id="Grupo_66388" data-name="Grupo 66388">
                  <g id="Grupo_66387" data-name="Grupo 66387">
                    <path id="Trazado_106042" data-name="Trazado 106042" d="M1678.31,7539.26a74.737,74.737,0,0,0-.071,8.806,37.042,37.042,0,0,0,.166-4.4A37.544,37.544,0,0,0,1678.31,7539.26Z" transform="translate(-1678.14 -7539.26)" fill="#344154"/>
                  </g>
                </g>
              </g>
              <g id="Grupo_66392" data-name="Grupo 66392" transform="translate(10.764 14.517)">
                <g id="Grupo_66391" data-name="Grupo 66391">
                  <g id="Grupo_66390" data-name="Grupo 66390">
                    <path id="Trazado_106043" data-name="Trazado 106043" d="M1684.123,7548.572a17.493,17.493,0,0,0,6.265.03c-.007-.073-1.406.018-3.132.009S1684.131,7548.5,1684.123,7548.572Z" transform="translate(-1684.123 -7548.545)" fill="#344154"/>
                  </g>
                </g>
              </g>
              <g id="Grupo_66395" data-name="Grupo 66395" transform="translate(6.553 14.549)">
                <g id="Grupo_66394" data-name="Grupo 66394">
                  <g id="Grupo_66393" data-name="Grupo 66393">
                    <path id="Trazado_106044" data-name="Trazado 106044" d="M1681.114,7548.578c-.052.052.116.3.261.617s.223.6.3.6.108-.34-.062-.7S1681.16,7548.527,1681.114,7548.578Z" transform="translate(-1681.104 -7548.57)" fill="#344154"/>
                  </g>
                </g>
              </g>
              <g id="Grupo_66398" data-name="Grupo 66398" transform="translate(4.96 12.583)">
                <g id="Grupo_66397" data-name="Grupo 66397">
                  <g id="Grupo_66396" data-name="Grupo 66396">
                    <path id="Trazado_106045" data-name="Trazado 106045" d="M1679.972,7547.171c-.05.049.089.271.311.495s.445.367.5.315-.088-.275-.312-.5S1680.022,7547.119,1679.972,7547.171Z" transform="translate(-1679.962 -7547.16)" fill="#344154"/>
                  </g>
                </g>
              </g>
              <g id="Grupo_66401" data-name="Grupo 66401" transform="translate(2.7 11.58)">
                <g id="Grupo_66400" data-name="Grupo 66400">
                  <g id="Grupo_66399" data-name="Grupo 66399">
                    <path id="Trazado_106046" data-name="Trazado 106046" d="M1678.342,7546.564c.016.073.3.069.615.174s.543.28.6.234-.124-.351-.516-.476S1678.32,7546.5,1678.342,7546.564Z" transform="translate(-1678.341 -7546.44)" fill="#344154"/>
                  </g>
                </g>
              </g>
              <g id="Grupo_66404" data-name="Grupo 66404" transform="translate(1.083 11.237)">
                <g id="Grupo_66403" data-name="Grupo 66403">
                  <g id="Grupo_66402" data-name="Grupo 66402">
                    <path id="Trazado_106047" data-name="Trazado 106047" d="M1677.185,7546.243c-.027.065.1.176.275.245s.343.068.369,0-.1-.174-.276-.245S1677.211,7546.175,1677.185,7546.243Z" transform="translate(-1677.181 -7546.194)" fill="#344154"/>
                  </g>
                </g>
              </g>
            </g>
          </g>
          <g id="Grupo_66456" data-name="Grupo 66456" transform="translate(0 212.154)">
            <g id="Grupo_66455" data-name="Grupo 66455">
              <g id="Grupo_66409" data-name="Grupo 66409">
                <g id="Grupo_66408" data-name="Grupo 66408">
                  <g id="Grupo_66407" data-name="Grupo 66407">
                    <path id="Trazado_106048" data-name="Trazado 106048" d="M1608.543,7540.5l6.056-9.712-18.118-11.461-9.008,14.112,1.077.783c4.824,3.442,24.768,17.149,28.75,18.248C1621.743,7553.7,1608.543,7540.5,1608.543,7540.5Z" transform="translate(-1587.473 -7519.327)" fill="#6595bf"/>
                  </g>
                </g>
              </g>
              <g id="Grupo_66412" data-name="Grupo 66412" transform="translate(0.007 13.532)">
                <g id="Grupo_66411" data-name="Grupo 66411">
                  <g id="Grupo_66410" data-name="Grupo 66410">
                    <path id="Trazado_106049" data-name="Trazado 106049" d="M1587.478,7529.03a1.915,1.915,0,0,0,.29.232c.258.19.541.391.861.619q1.305.915,3.2,2.228c2.718,1.863,6.505,4.382,10.748,7.072s8.139,5.049,10.98,6.713l3.378,1.946c.344.191.648.358.927.515a2.38,2.38,0,0,0,.332.163,1.961,1.961,0,0,0-.305-.209c-.271-.168-.567-.354-.9-.555l-3.335-2.021c-2.816-1.7-6.693-4.082-10.934-6.771s-8.042-5.183-10.783-7q-1.921-1.284-3.247-2.159c-.329-.214-.622-.405-.888-.581A2.142,2.142,0,0,0,1587.478,7529.03Z" transform="translate(-1587.478 -7529.03)" fill="#344154"/>
                  </g>
                </g>
              </g>
              <g id="Grupo_66415" data-name="Grupo 66415" transform="translate(24.084 27.684)">
                <g id="Grupo_66414" data-name="Grupo 66414">
                  <g id="Grupo_66413" data-name="Grupo 66413">
                    <path id="Trazado_106050" data-name="Trazado 106050" d="M1604.748,7540.978a5.664,5.664,0,0,1,3.53-1.73,3.474,3.474,0,0,0-3.53,1.73Z" transform="translate(-1604.742 -7539.179)" fill="#344154"/>
                  </g>
                </g>
              </g>
              <g id="Grupo_66418" data-name="Grupo 66418" transform="translate(20.46 22.473)">
                <g id="Grupo_66417" data-name="Grupo 66417">
                  <g id="Grupo_66416" data-name="Grupo 66416">
                    <path id="Trazado_106051" data-name="Trazado 106051" d="M1602.145,7536.36a2.341,2.341,0,0,0,1.012-.335c.528-.248.931-.5.9-.57a2.312,2.312,0,0,0-1.012.334C1602.518,7536.037,1602.115,7536.292,1602.145,7536.36Z" transform="translate(-1602.144 -7535.441)" fill="#344154"/>
                  </g>
                </g>
              </g>
              <g id="Grupo_66421" data-name="Grupo 66421" transform="translate(19.487 21.338)">
                <g id="Grupo_66420" data-name="Grupo 66420">
                  <g id="Grupo_66419" data-name="Grupo 66419">
                    <path id="Trazado_106052" data-name="Trazado 106052" d="M1601.446,7534.975c.012.073.418.058.908-.021s.876-.208.864-.28-.419-.06-.908.021S1601.434,7534.9,1601.446,7534.975Z" transform="translate(-1601.446 -7534.627)" fill="#344154"/>
                  </g>
                </g>
              </g>
              <g id="Grupo_66424" data-name="Grupo 66424" transform="translate(19.64 19.378)">
                <g id="Grupo_66423" data-name="Grupo 66423">
                  <g id="Grupo_66422" data-name="Grupo 66422">
                    <path id="Trazado_106053" data-name="Trazado 106053" d="M1601.558,7533.232c-.039.06.349.383.869.718s.971.563,1.01.5-.35-.384-.869-.718S1601.6,7533.173,1601.558,7533.232Z" transform="translate(-1601.555 -7533.222)" fill="#344154"/>
                  </g>
                </g>
              </g>
              <g id="Grupo_66427" data-name="Grupo 66427" transform="translate(20.082 17.978)">
                <g id="Grupo_66426" data-name="Grupo 66426">
                  <g id="Grupo_66425" data-name="Grupo 66425">
                    <path id="Trazado_106054" data-name="Trazado 106054" d="M1601.878,7532.222c-.054.037.275.537.86.975a2.246,2.246,0,0,0,1.181.545c.03-.07-.471-.339-1.024-.752S1601.936,7532.173,1601.878,7532.222Z" transform="translate(-1601.872 -7532.218)" fill="#344154"/>
                  </g>
                </g>
              </g>
              <g id="Grupo_66430" data-name="Grupo 66430" transform="translate(22.051 21.639)">
                <g id="Grupo_66429" data-name="Grupo 66429">
                  <g id="Grupo_66428" data-name="Grupo 66428">
                    <path id="Trazado_106055" data-name="Trazado 106055" d="M1603.31,7535.4a3.963,3.963,0,0,0,1.169.724,7.692,7.692,0,0,0,1.411.517,4.055,4.055,0,0,0,.895.154.751.751,0,0,0,.516-.174.55.55,0,0,0,.119-.582,2.528,2.528,0,0,0-3.035-1.046,2.477,2.477,0,0,0-.872.536c-.171.174-.239.287-.227.293a3.829,3.829,0,0,1,1.158-.65,2.457,2.457,0,0,1,1.4-.019,2.128,2.128,0,0,1,1.328.971c.1.25-.111.423-.395.421a4.119,4.119,0,0,1-.831-.142,9.029,9.029,0,0,1-1.4-.443C1603.777,7535.648,1603.332,7535.366,1603.31,7535.4Z" transform="translate(-1603.285 -7534.844)" fill="#344154"/>
                  </g>
                </g>
              </g>
              <g id="Grupo_66433" data-name="Grupo 66433" transform="translate(21.784 19.424)">
                <g id="Grupo_66432" data-name="Grupo 66432">
                  <g id="Grupo_66431" data-name="Grupo 66431">
                    <path id="Trazado_106056" data-name="Trazado 106056" d="M1603.651,7536.279c.008.023.368-.169.646-.722a2.309,2.309,0,0,0,.222-1.051,1.391,1.391,0,0,0-.595-1.21.549.549,0,0,0-.7.309,1.521,1.521,0,0,0-.131.648,4.117,4.117,0,0,0,.1,1.049,1.979,1.979,0,0,0,.369.892c.037-.011-.1-.353-.189-.927a4.861,4.861,0,0,1-.044-1.006c0-.343.167-.86.492-.724.311.155.423.636.454.979a2.247,2.247,0,0,1-.149.962A5.352,5.352,0,0,1,1603.651,7536.279Z" transform="translate(-1603.093 -7533.255)" fill="#344154"/>
                  </g>
                </g>
              </g>
              <g id="Grupo_66436" data-name="Grupo 66436" transform="translate(3.514 8.81)">
                <g id="Grupo_66435" data-name="Grupo 66435">
                  <g id="Grupo_66434" data-name="Grupo 66434">
                    <path id="Trazado_106057" data-name="Trazado 106057" d="M1589.994,7525.646c-.022.047.55.284,1.307.9a6.711,6.711,0,0,1,2.348,6.785c-.214.953-.519,1.492-.475,1.509.014.011.1-.114.233-.367a5.536,5.536,0,0,0,.421-1.1,6.513,6.513,0,0,0-2.414-6.972,5.627,5.627,0,0,0-1.012-.606A1.491,1.491,0,0,0,1589.994,7525.646Z" transform="translate(-1589.993 -7525.644)" fill="#344154"/>
                  </g>
                </g>
              </g>
              <g id="Grupo_66439" data-name="Grupo 66439" transform="translate(5.354 2.465)">
                <g id="Grupo_66438" data-name="Grupo 66438">
                  <g id="Grupo_66437" data-name="Grupo 66437">
                    <path id="Trazado_106058" data-name="Trazado 106058" d="M1596.124,7521.1a36.319,36.319,0,0,0-2.513,3.617,37.411,37.411,0,0,0-2.3,3.762,36.522,36.522,0,0,0,2.514-3.621A38.045,38.045,0,0,0,1596.124,7521.1Z" transform="translate(-1591.312 -7521.096)" fill="#344154"/>
                  </g>
                </g>
              </g>
              <g id="Grupo_66442" data-name="Grupo 66442" transform="translate(10.054 17.799)">
                <g id="Grupo_66441" data-name="Grupo 66441">
                  <g id="Grupo_66440" data-name="Grupo 66440">
                    <path id="Trazado_106059" data-name="Trazado 106059" d="M1594.683,7532.092a17.61,17.61,0,0,0,5.26,3.4c.034-.069-1.194-.742-2.642-1.686S1594.731,7532.035,1594.683,7532.092Z" transform="translate(-1594.682 -7532.089)" fill="#344154"/>
                  </g>
                </g>
              </g>
              <g id="Grupo_66445" data-name="Grupo 66445" transform="translate(6.301 15.548)">
                <g id="Grupo_66444" data-name="Grupo 66444">
                  <g id="Grupo_66443" data-name="Grupo 66443">
                    <path id="Trazado_106060" data-name="Trazado 106060" d="M1592.2,7530.474c-.071.02-.062.315-.113.661s-.138.632-.073.668.275-.226.331-.631S1592.266,7530.458,1592.2,7530.474Z" transform="translate(-1591.991 -7530.473)" fill="#344154"/>
                  </g>
                </g>
              </g>
              <g id="Grupo_66448" data-name="Grupo 66448" transform="translate(6.171 13.036)">
                <g id="Grupo_66447" data-name="Grupo 66447">
                  <g id="Grupo_66446" data-name="Grupo 66446">
                    <path id="Trazado_106061" data-name="Trazado 106061" d="M1591.952,7528.675c-.07.015-.073.276-.006.587s.178.549.248.53.073-.276.007-.584S1592.022,7528.662,1591.952,7528.675Z" transform="translate(-1591.898 -7528.674)" fill="#344154"/>
                  </g>
                </g>
              </g>
              <g id="Grupo_66451" data-name="Grupo 66451" transform="translate(4.791 11.039)">
                <g id="Grupo_66450" data-name="Grupo 66450">
                  <g id="Grupo_66449" data-name="Grupo 66449">
                    <path id="Trazado_106062" data-name="Trazado 106062" d="M1590.91,7527.266c-.026.071.216.22.423.485s.308.521.382.515.081-.36-.18-.682S1590.928,7527.2,1590.91,7527.266Z" transform="translate(-1590.908 -7527.242)" fill="#344154"/>
                  </g>
                </g>
              </g>
              <g id="Grupo_66454" data-name="Grupo 66454" transform="translate(3.633 9.831)">
                <g id="Grupo_66453" data-name="Grupo 66453">
                  <g id="Grupo_66452" data-name="Grupo 66452">
                    <path id="Trazado_106063" data-name="Trazado 106063" d="M1590.1,7526.389c-.056.041-.012.2.1.354s.253.242.311.2.013-.206-.1-.363S1590.161,7526.342,1590.1,7526.389Z" transform="translate(-1590.078 -7526.376)" fill="#344154"/>
                  </g>
                </g>
              </g>
            </g>
          </g>
          <g id="Grupo_66466" data-name="Grupo 66466" transform="translate(0.785)">
            <g id="Grupo_66463" data-name="Grupo 66463">
              <g id="Grupo_66459" data-name="Grupo 66459" transform="translate(0 1.655)">
                <g id="Grupo_66458" data-name="Grupo 66458">
                  <g id="Grupo_66457" data-name="Grupo 66457">
                    <path id="Trazado_106064" data-name="Trazado 106064" d="M1691.347,7378.115s18.187,120.839,15.542,126.673-87.561,99.224-87.561,99.224l-31.293-20.735s74.171-93.383,73.611-95.627-28.109-119.257-28.109-119.257Z" transform="translate(-1588.036 -7368.392)" fill="#d9a171"/>
                  </g>
                </g>
              </g>
              <g id="Grupo_66462" data-name="Grupo 66462" transform="translate(32.561)">
                <g id="Grupo_66461" data-name="Grupo 66461">
                  <g id="Grupo_66460" data-name="Grupo 66460">
                    <path id="Trazado_106065" data-name="Trazado 106065" d="M1614,7367.205l-1.1,4.488a52.781,52.781,0,0,0,5.546,38.94l49.318,85.488a68.66,68.66,0,0,1,7.559,19.431l22.264,98.741h34.351c0,2.058-8.886-81.339-13.34-109.036-3.359-20.891-31.314-85.733-44.856-116.351l8.391-10.327-14.575-2.434Z" transform="translate(-1611.383 -7367.205)" fill="#d9a171"/>
                  </g>
                </g>
              </g>
            </g>
            <g id="Grupo_66464" data-name="Grupo 66464" transform="translate(95.98 21.463)">
              <path id="Trazado_106066" data-name="Trazado 106066" d="M1656.864,7382.595a6.368,6.368,0,0,1,.761,1.357c.446.895,1.062,2.2,1.8,3.831,1.478,3.252,3.417,7.8,5.4,12.877s3.615,9.745,4.724,13.144c.554,1.7.985,3.079,1.259,4.036a6.453,6.453,0,0,1,.359,1.518,6.348,6.348,0,0,1-.627-1.422q-.6-1.627-1.476-3.964c-1.232-3.351-2.943-7.971-4.916-13.047s-3.834-9.636-5.188-12.937c-.624-1.539-1.153-2.851-1.589-3.92A6.5,6.5,0,0,1,1656.864,7382.595Z" transform="translate(-1656.857 -7382.594)" fill="#344154"/>
            </g>
            <g id="Grupo_66465" data-name="Grupo 66465" transform="translate(59.499 77.879)">
              <path id="Trazado_106067" data-name="Trazado 106067" d="M1671.24,7509.958a5.164,5.164,0,0,1-.223-.965c-.126-.7-.291-1.624-.5-2.773-.1-.611-.219-1.278-.342-2.006q-.243-1.1-.526-2.361c-.379-1.7-.768-3.638-1.385-5.743-.286-1.049-.586-2.155-.9-3.306l-1.129-3.543c-.734-2.466-1.753-5.017-2.726-7.736-2.12-5.382-4.7-11.195-7.7-17.155a323.184,323.184,0,0,0-17.331-29.463c-2.382-3.6-4.326-6.539-5.724-8.65-.641-.973-1.156-1.758-1.55-2.356a.494.494,0,1,1,.12-.084c.423.581.976,1.334,1.664,2.281,1.435,1.984,3.47,4.892,5.919,8.528a285.822,285.822,0,0,1,17.551,29.419c3.018,5.979,5.587,11.823,7.68,17.237.962,2.743,1.964,5.313,2.676,7.8q.565,1.852,1.094,3.571.446,1.74.858,3.338c.587,2.116.943,4.074,1.285,5.782q.253,1.271.47,2.382c.1.731.2,1.407.281,2.022.151,1.159.272,2.089.364,2.8A4.892,4.892,0,0,1,1671.24,7509.958Z" transform="translate(-1630.699 -7423.049)" fill="#344154"/>
            </g>
          </g>
          <g id="Grupo_66467" data-name="Grupo 66467" transform="translate(4.583 211.724)">
            <path id="Trazado_106068" data-name="Trazado 106068" d="M1622.845,7539.569a6.027,6.027,0,0,1-1.434-.465,36.543,36.543,0,0,1-3.73-1.721,86.349,86.349,0,0,1-11.342-7.377c-4.232-3.15-8.033-6.017-10.906-7.92-2.862-1.922-4.729-2.957-4.672-3.06a5.809,5.809,0,0,1,1.379.6c.873.427,2.094,1.119,3.57,2.026,2.963,1.8,6.839,4.619,11.061,7.769a110.362,110.362,0,0,0,11.157,7.505C1620.917,7538.629,1622.894,7539.45,1622.845,7539.569Z" transform="translate(-1590.759 -7519.02)" fill="#344154"/>
          </g>
          <g id="Grupo_66468" data-name="Grupo 66468" transform="translate(117.598 241.187)">
            <path id="Trazado_106069" data-name="Trazado 106069" d="M1708.018,7540.928a5.57,5.57,0,0,1-1.427.077c-1.082,0-2.374-.017-3.883-.025-3.463-.03-7.9-.07-12.8-.111-4.9.03-9.34.062-12.8.084l-3.881.016a5.18,5.18,0,0,1-1.429-.087,5.706,5.706,0,0,1,1.417-.2c.913-.082,2.238-.171,3.877-.248,3.277-.166,7.81-.3,12.818-.293s9.54.149,12.817.318c1.638.087,2.963.177,3.878.264A5.143,5.143,0,0,1,1708.018,7540.928Z" transform="translate(-1671.795 -7540.145)" fill="#344154"/>
          </g>
        </g>
        <g id="Grupo_66498" data-name="Grupo 66498" transform="translate(42.176 21.658)">
          <path id="Trazado_106070" data-name="Trazado 106070" d="M1634.127,7294.537a15.632,15.632,0,0,1-8.833-1.331c-2.671-1.408-4.749-4.209-4.654-7.232.056-1.765.823-3.51.53-5.253s-1.589-3.139-2.423-4.707a9.768,9.768,0,0,1,2.62-11.959c1.827-1.395,4.161-2.125,5.693-3.829,1.815-2.03,2.1-4.957,3.21-7.444a12.038,12.038,0,0,1,8.958-6.859c2.138-.338,4.378-.093,6.426-.788a21.786,21.786,0,0,0,4.752-2.829,22.019,22.019,0,0,1,16.4-3.072,13.157,13.157,0,0,1,6.647,3.274c1.989,1.977,4.564,4.122,5.282,6.838.846,3.2-.192,7.214-1.051,10.414s-3.427,6.121-6.716,6.507" transform="translate(-1617.715 -7238.775)" fill="#344154"/>
          <g id="Grupo_66488" data-name="Grupo 66488" transform="translate(10.165 14.128)">
            <g id="Grupo_66485" data-name="Grupo 66485">
              <g id="Grupo_66478" data-name="Grupo 66478" transform="translate(5.544)">
                <g id="Grupo_66477" data-name="Grupo 66477">
                  <g id="Grupo_66471" data-name="Grupo 66471">
                    <g id="Grupo_66470" data-name="Grupo 66470">
                      <path id="Trazado_106071" data-name="Trazado 106071" d="M1628.978,7315.2l26.19.373c.447-3.015,1.336-14.779,1.336-14.779s10.974-.665,12.126-11.463,1.615-35.811,1.615-35.811h0a37.747,37.747,0,0,0-38.211,1.189l-1.718,1.087Z" transform="translate(-1628.978 -7248.905)" fill="#ffbf9d"/>
                    </g>
                  </g>
                  <g id="Grupo_66474" data-name="Grupo 66474" transform="translate(28.397 20.353)">
                    <g id="Grupo_66473" data-name="Grupo 66473">
                      <g id="Grupo_66472" data-name="Grupo 66472">
                        <path id="Trazado_106072" data-name="Trazado 106072" d="M1649.34,7276.527a7.159,7.159,0,0,1,2.457-.28c.393-.008.706-.068.754-.276a2.147,2.147,0,0,0-.172-1.144c-.292-1.017-.586-2.055-.893-3.134-1.222-4.463-2.028-8.133-1.8-8.193s1.4,3.5,2.622,7.968l.828,3.157a2.5,2.5,0,0,1,.059,1.64,1.023,1.023,0,0,1-.728.56,2.511,2.511,0,0,1-.673.021A7.253,7.253,0,0,1,1649.34,7276.527Z" transform="translate(-1649.34 -7263.499)" fill="#344154"/>
                      </g>
                    </g>
                  </g>
                  <g id="Grupo_66476" data-name="Grupo 66476" transform="translate(13.839 46.402)">
                    <g id="Grupo_66475" data-name="Grupo 66475">
                      <path id="Trazado_106073" data-name="Trazado 106073" d="M1652.621,7287.513a25.247,25.247,0,0,1-13.72-5.334s2.6,8.1,13.481,8.138Z" transform="translate(-1638.901 -7282.178)" fill="#ff9a6c"/>
                    </g>
                  </g>
                </g>
              </g>
              <g id="Grupo_66484" data-name="Grupo 66484" transform="translate(0 18.158)">
                <g id="Grupo_66480" data-name="Grupo 66480">
                  <g id="Grupo_66479" data-name="Grupo 66479">
                    <path id="Trazado_106074" data-name="Trazado 106074" d="M1632.016,7262.027c-.214-.09-7.4-1.26-7,7.284s8.9,5.308,8.908,5.061S1632.016,7262.027,1632.016,7262.027Z" transform="translate(-1625.003 -7261.925)" fill="#ffbf9d"/>
                  </g>
                </g>
                <g id="Grupo_66483" data-name="Grupo 66483" transform="translate(2.19 2.89)">
                  <g id="Grupo_66482" data-name="Grupo 66482">
                    <g id="Grupo_66481" data-name="Grupo 66481">
                      <path id="Trazado_106075" data-name="Trazado 106075" d="M1630.546,7270.684c-.039-.026-.144.11-.39.238a1.482,1.482,0,0,1-1.111.076c-.92-.287-1.748-1.683-1.863-3.224a4.927,4.927,0,0,1,.316-2.15,1.718,1.718,0,0,1,1.066-1.2.755.755,0,0,1,.9.363c.126.236.08.406.126.417.025.021.178-.147.093-.5a.962.962,0,0,0-.363-.517,1.108,1.108,0,0,0-.834-.179,2.089,2.089,0,0,0-1.491,1.4,5.042,5.042,0,0,0-.4,2.407c.135,1.721,1.094,3.287,2.347,3.589a1.613,1.613,0,0,0,1.35-.291C1630.541,7270.891,1630.577,7270.7,1630.546,7270.684Z" transform="translate(-1626.573 -7263.998)" fill="#ff9a6c"/>
                    </g>
                  </g>
                </g>
              </g>
            </g>
            <g id="Grupo_66486" data-name="Grupo 66486" transform="translate(24.194 16.161)">
              <path id="Trazado_106076" data-name="Trazado 106076" d="M1642.383,7262.38c-.117-.151.087-.557.641-.986a5.016,5.016,0,0,1,5.153-.351c.607.347.863.718.768.884-.213.355-1.6-.118-3.3.028C1643.952,7262.041,1642.644,7262.7,1642.383,7262.38Z" transform="translate(-1642.351 -7260.493)" fill="#344154"/>
            </g>
            <g id="Grupo_66487" data-name="Grupo 66487" transform="translate(39.381 17.216)">
              <path id="Trazado_106077" data-name="Trazado 106077" d="M1653.244,7262.177c-.074-.391,1.1-.935,2.632-.93s2.7.552,2.628.942-1.245.513-2.631.513S1653.317,7262.573,1653.244,7262.177Z" transform="translate(-1653.24 -7261.248)" fill="#344154"/>
            </g>
          </g>
          <path id="Trazado_106078" data-name="Trazado 106078" d="M1628.091,7260.491q.608,3.943,1.218,7.885a6.559,6.559,0,0,0,1.252,3.479c1.379,1.541,3.927,1.405,5.714.365,2.607-1.521,4.042-4.428,5.142-7.242s2.077-5.795,4.2-7.944a10.406,10.406,0,0,0,12.01,2.214c1.742-.876,3.193-2.232,4.866-3.236s3.765-1.641,5.567-.893c.987.406,1.875,1.219,2.945,1.172a2.38,2.38,0,0,0,1.918-1.321,4.077,4.077,0,0,0,.352-2.373c-.354-3.019-2.831-5.417-5.563-6.758-3.9-1.916-8.384-2.172-12.725-2.186a48.048,48.048,0,0,0-12.274,1.218,21.187,21.187,0,0,0-10.573,6.066,13.7,13.7,0,0,0-3.5,11.412" transform="translate(-1613.62 -7236.849)" fill="#344154"/>
          <path id="Trazado_106079" data-name="Trazado 106079" d="M1652.758,7250.779a12.914,12.914,0,0,0,4.114,7.141,5.521,5.521,0,0,0,3.62,1.625c2.2-.046,3.892-2.281,3.945-4.48a8.544,8.544,0,0,0-2.674-5.838,8.1,8.1,0,0,0-5.442-2.873c-2.105-.052-4.323,1.543-4.35,3.648" transform="translate(-1604.196 -7235.783)" fill="#344154"/>
          <g id="Grupo_66492" data-name="Grupo 66492" transform="translate(33.69 33.237)">
            <g id="Grupo_66489" data-name="Grupo 66489" transform="translate(2.275 1.719)">
              <path id="Trazado_106080" data-name="Trazado 106080" d="M1643.5,7265.108a1.368,1.368,0,0,0,1.35,1.354,1.313,1.313,0,0,0,1.385-1.265,1.372,1.372,0,0,0-1.347-1.357A1.313,1.313,0,0,0,1643.5,7265.108Z" transform="translate(-1643.503 -7263.839)" fill="#344154"/>
            </g>
            <g id="Grupo_66491" data-name="Grupo 66491">
              <g id="Grupo_66490" data-name="Grupo 66490">
                <path id="Trazado_106081" data-name="Trazado 106081" d="M1641.895,7264.1c.174.173,1.2-.614,2.671-.64,1.473-.047,2.571.69,2.727.5.076-.077-.105-.4-.583-.734a3.816,3.816,0,0,0-2.187-.625,3.63,3.63,0,0,0-2.119.733C1641.956,7263.7,1641.809,7264.023,1641.895,7264.1Z" transform="translate(-1641.871 -7262.606)" fill="#344154"/>
              </g>
            </g>
          </g>
          <g id="Grupo_66496" data-name="Grupo 66496" transform="translate(49.085 33.462)">
            <g id="Grupo_66493" data-name="Grupo 66493" transform="translate(1.978 1.45)">
              <path id="Trazado_106082" data-name="Trazado 106082" d="M1654.329,7265.07a1.368,1.368,0,0,0,1.349,1.355,1.31,1.31,0,0,0,1.387-1.262,1.366,1.366,0,0,0-1.348-1.354A1.305,1.305,0,0,0,1654.329,7265.07Z" transform="translate(-1654.329 -7263.809)" fill="#344154"/>
            </g>
            <g id="Grupo_66495" data-name="Grupo 66495">
              <g id="Grupo_66494" data-name="Grupo 66494">
                <path id="Trazado_106083" data-name="Trazado 106083" d="M1652.934,7264.261c.173.177,1.2-.613,2.67-.637,1.472-.048,2.569.691,2.725.506.076-.083-.1-.4-.581-.735a3.772,3.772,0,0,0-2.186-.628,3.614,3.614,0,0,0-2.122.734C1653,7263.858,1652.848,7264.187,1652.934,7264.261Z" transform="translate(-1652.91 -7262.767)" fill="#344154"/>
              </g>
            </g>
          </g>
          <g id="Grupo_66497" data-name="Grupo 66497" transform="translate(39.444 47.665)">
            <path id="Trazado_106084" data-name="Trazado 106084" d="M1650.305,7277.179c.013.091-.367.262-1.026.22a3.564,3.564,0,0,1-3.281-3.432c-.012-.665.175-1.035.266-1.014.2,0,.045,1.6,1.245,2.852S1650.312,7276.98,1650.305,7277.179Z" transform="translate(-1645.998 -7272.952)" fill="#344154"/>
          </g>
        </g>
        <g id="Grupo_66500" data-name="Grupo 66500" transform="translate(90.709 122.136)">
          <g id="Grupo_66499" data-name="Grupo 66499">
            <path id="Trazado_106085" data-name="Trazado 106085" d="M1652.671,7318.1l21.764-7.282s15.158,35.848,19.058,36.205c21.607,1.969,44.725-5.193,52.834-8.027.822-.921,1.762-2.033,2.808-3.392a12.924,12.924,0,0,0,2.034-3.881,19.728,19.728,0,0,0,1.157-5.337c-.046-1.683,1.978-2.544,2.914-1.335s1.173,5.838-.96,10.821,5.416,1.019,8.193-.377,11.572-5.3,12.675-4.793c1.621.755,1.112,2.631-1.694,3.957-2.839,1.346-10.938,5.908-10.131,7.335.793,1.411,14.835-5.881,14.835-5.881s2.748-2.044,3.736-.423c1.782,2.927-13.715,9.579-15.206,10.179-1.034.416-.213,2,.876,1.5,1.12-.523,13.835-7.6,15.678-4.637,1.412,2.271-12.7,5.59-14.519,8.524s10.446-3.606,11.706-1.377c.47.832.705,1.512-6.88,4.25a161.634,161.634,0,0,1-16.909,4.317l.028.077s-78.081,34.941-92.122,1.223C1650.242,7325.39,1652.671,7318.1,1652.671,7318.1Z" transform="translate(-1652.515 -7310.821)" fill="#ff9a6c"/>
          </g>
        </g>
        <path id="Trazado_106086" data-name="Trazado 106086" d="M1699.583,7330.376c-8.708-20.405-20.129-28.4-26.151-31.349a17.483,17.483,0,0,0-6.742-1.733h0l-.725-3.508-28.874-2.6-.707,4.461-4.237-.229s-24.892,2.486-24.938,31.322c-.021,13.487,7.262,26.608,9.831,33.034,1.6,13.453-4.167,37.834-4.01,43.78l70.751,5.017,2.992-44.224-.661-4.149,23.289-7.129Zm-62.491-34.687Z" transform="translate(-1579.684 -7196.433)" fill="#ececec"/>
        <g id="Grupo_66504" data-name="Grupo 66504" transform="translate(80)">
          <g id="Grupo_66501" data-name="Grupo 66501">
            <path id="Trazado_106087" data-name="Trazado 106087" d="M1839.522,7257.985a82.2,82.2,0,0,0-145.707,42.881h0a82.15,82.15,0,0,0,27.75,70.66l-71.952,84.436,10.324,8.8,72.561-85.151a81.694,81.694,0,0,0,34.316,11.724,83.323,83.323,0,0,0,8.893.478,82.209,82.209,0,0,0,63.815-133.829Zm4.273,58.908a68.633,68.633,0,1,1-14.831-50.388A68.2,68.2,0,0,1,1843.8,7316.893Z" transform="translate(-1642.951 -7221.607)" fill="#344154"/>
            <path id="Trazado_106088" data-name="Trazado 106088" d="M1835.615,7253.833a82.2,82.2,0,0,0-145.707,42.881v0a82.138,82.138,0,0,0,27.751,70.656l-72.823,85.13,11.036,8.829,72.719-85.871a81.663,81.663,0,0,0,34.316,11.724,83.382,83.382,0,0,0,8.892.474,82.206,82.206,0,0,0,63.816-133.825Zm4.272,58.911a68.63,68.63,0,1,1-14.828-50.394A68.187,68.187,0,0,1,1839.887,7312.744Z" transform="translate(-1644.836 -7223.245)" fill="#6595bf"/>
          </g>
          <g id="Grupo_66502" data-name="Grupo 66502" transform="translate(74.613 51.7)">
            <path id="Trazado_106089" data-name="Trazado 106089" d="M1713.229,7335.353a3.227,3.227,0,0,1-.542-.607c-.33-.414-.844-1.009-1.429-1.833a62.9,62.9,0,0,1-4.58-7.219,68.005,68.005,0,0,1-4.652-54.753,62.266,62.266,0,0,1,3.3-7.888c.437-.913.844-1.587,1.1-2.05a3.707,3.707,0,0,1,.433-.688,3.357,3.357,0,0,1-.3.755c-.21.485-.574,1.178-.97,2.1a74.951,74.951,0,0,0-3.066,7.924,69.862,69.862,0,0,0,4.621,54.356,74.168,74.168,0,0,0,4.357,7.3c.546.845,1.022,1.46,1.312,1.907A3.527,3.527,0,0,1,1713.229,7335.353Z" transform="translate(-1698.337 -7260.314)" fill="#344154"/>
          </g>
          <g id="Grupo_66503" data-name="Grupo 66503" transform="translate(89.75 42.302)">
            <path id="Trazado_106090" data-name="Trazado 106090" d="M1712.376,7253.6c.122.17-.715.948-1.552,2.048s-1.385,2.1-1.58,2.027.083-1.277,1.005-2.468S1712.274,7253.442,1712.376,7253.6Z" transform="translate(-1709.19 -7253.576)" fill="#344154"/>
          </g>
        </g>
        <g id="Grupo_66526" data-name="Grupo 66526" transform="translate(29.164 95.429)">
          <g id="Grupo_66506" data-name="Grupo 66506" transform="translate(71.445 23.102)">
            <g id="Grupo_66505" data-name="Grupo 66505">
              <path id="Trazado_106091" data-name="Trazado 106091" d="M1659.628,7308.234a10.64,10.64,0,0,1,.505,1.931c.281,1.249.649,3.06,1.069,5.311.843,4.5,1.86,10.741,2.718,17.67s1.386,13.235,1.662,17.806c.14,2.282.225,4.134.255,5.412a10.319,10.319,0,0,1-.023,1.991,10.555,10.555,0,0,1-.259-1.975c-.127-1.411-.289-3.219-.485-5.392-.407-4.552-1.02-10.831-1.872-17.75s-1.79-13.16-2.5-17.675c-.339-2.151-.621-3.948-.841-5.348A10.42,10.42,0,0,1,1659.628,7308.234Z" transform="translate(-1659.614 -7308.234)" fill="#344154"/>
            </g>
          </g>
          <g id="Grupo_66508" data-name="Grupo 66508" transform="translate(5.821 43.991)">
            <g id="Grupo_66507" data-name="Grupo 66507">
              <path id="Trazado_106092" data-name="Trazado 106092" d="M1716.685,7370.832s-78.052,35.022-92.095,1.3c-14.3-34.352-11.875-41.64-11.875-41.64l21.763-7.28s15.158,35.848,19.057,36.2c21.609,1.975,44.728-5.193,52.834-8.024.823-.925,1.761-2.037,2.809-3.4.9-1.164,1.832-2.844,2.751-4,2.061-2.582,3.692-3.011,4.594-4.027,2.156-2.442,4.124-.658,3.187.655-.888,1.238-3.253,2.655-5.386,7.637s5.465,2.531,8.47,1.737c3.325-.871,9.565-3.3,9.565-3.3.146,1.463-1.509,4.409-4.315,5.735a44.51,44.51,0,0,1-4.677,1.945s5.769-.7,5.925.614-1.71,11.042-7.847,13.934Z" transform="translate(-1612.559 -7323.214)" fill="#ffbf9d"/>
            </g>
          </g>
          <path id="Trazado_106093" data-name="Trazado 106093" d="M1631.054,7300.808l14.02,42.359-30.687,12.133s-16.01-41.6,4.265-51.781Z" transform="translate(-1608.385 -7288.064)" fill="#ececec"/>
          <g id="Grupo_66515" data-name="Grupo 66515" transform="translate(5.927 6.5)">
            <g id="Grupo_66509" data-name="Grupo 66509" transform="translate(8.511)">
              <path id="Trazado_106094" data-name="Trazado 106094" d="M1643.029,7343.285c-.015.011-.171-.11-.416-.4a7.793,7.793,0,0,1-.92-1.359,47.068,47.068,0,0,1-2.213-5.578c-1.719-4.741-4.046-11.316-6.573-18.592-1.253-3.635-2.445-7.1-3.537-10.268-1.082-3.151-1.93-6.069-3.539-7.961a6.47,6.47,0,0,0-5.014-2.5,6.264,6.264,0,0,0-2.08.5c-.011-.018.14-.152.469-.334a4.133,4.133,0,0,1,1.595-.446,6.64,6.64,0,0,1,5.421,2.439c1.757,1.977,2.669,4.963,3.78,8.077,1.108,3.162,2.319,6.621,3.589,10.246,2.529,7.279,4.779,13.877,6.373,18.671.812,2.387,1.373,4.355,1.98,5.609S1643.079,7343.241,1643.029,7343.285Z" transform="translate(-1618.737 -7296.334)" fill="#344154"/>
            </g>
            <g id="Grupo_66510" data-name="Grupo 66510" transform="translate(0 47.735)">
              <path id="Trazado_106095" data-name="Trazado 106095" d="M1644.786,7330.568a5.162,5.162,0,0,1-1.161.728c-.768.426-1.9,1.019-3.306,1.716-2.816,1.4-6.767,3.214-11.217,5.009s-8.558,3.227-11.556,4.173c-1.5.478-2.718.835-3.569,1.063a5.092,5.092,0,0,1-1.341.284,39.913,39.913,0,0,1,4.745-1.83c2.949-1.069,7.011-2.573,11.449-4.367s8.406-3.521,11.271-4.8A40.85,40.85,0,0,1,1644.786,7330.568Z" transform="translate(-1612.635 -7330.56)" fill="#344154"/>
            </g>
            <g id="Grupo_66511" data-name="Grupo 66511" transform="translate(2.581 52.867)">
              <path id="Trazado_106096" data-name="Trazado 106096" d="M1617.016,7340.541c-.187.07-.894-1.276-1.58-3.015s-1.092-3.211-.9-3.284.894,1.276,1.58,3.017S1617.2,7340.467,1617.016,7340.541Z" transform="translate(-1614.485 -7334.239)" fill="#344154"/>
            </g>
            <g id="Grupo_66512" data-name="Grupo 66512" transform="translate(9.325 50.595)">
              <path id="Trazado_106097" data-name="Trazado 106097" d="M1621.584,7338.692c-.171.1-1.021-1.131-1.633-2.844s-.739-3.2-.546-3.236.633,1.333,1.231,2.991S1621.766,7338.6,1621.584,7338.692Z" transform="translate(-1619.321 -7332.611)" fill="#344154"/>
            </g>
            <g id="Grupo_66513" data-name="Grupo 66513" transform="translate(15.974 47.456)">
              <path id="Trazado_106098" data-name="Trazado 106098" d="M1626.5,7336.636c-.166.106-1.085-1.144-1.742-2.925s-.779-3.317-.588-3.351.63,1.392,1.269,3.1S1626.682,7336.536,1626.5,7336.636Z" transform="translate(-1624.089 -7330.359)" fill="#344154"/>
            </g>
            <g id="Grupo_66514" data-name="Grupo 66514" transform="translate(23.508 44.115)">
              <path id="Trazado_106099" data-name="Trazado 106099" d="M1631.638,7334.646c-.191.059-.815-1.388-1.392-3.232s-.89-3.386-.7-3.448.815,1.39,1.392,3.234S1631.828,7334.587,1631.638,7334.646Z" transform="translate(-1629.49 -7327.963)" fill="#344154"/>
            </g>
          </g>
          <g id="Grupo_66520" data-name="Grupo 66520" transform="translate(77.263 56.291)">
            <g id="Grupo_66516" data-name="Grupo 66516" transform="translate(0 4.44)">
              <path id="Trazado_106100" data-name="Trazado 106100" d="M1687.637,7335.233c.061.192-5.23,2.044-11.815,4.146s-11.976,3.64-12.035,3.452,5.227-2.047,11.815-4.144S1687.575,7335.042,1687.637,7335.233Z" transform="translate(-1663.786 -7335.217)" fill="#344154"/>
            </g>
            <g id="Grupo_66517" data-name="Grupo 66517" transform="translate(3.031 4.515)">
              <path id="Trazado_106101" data-name="Trazado 106101" d="M1668.084,7340.138c-.184.072-.8-.948-1.37-2.29s-.886-2.494-.7-2.574.8.947,1.37,2.29S1668.269,7340.055,1668.084,7340.138Z" transform="translate(-1665.959 -7335.27)" fill="#344154"/>
            </g>
            <g id="Grupo_66518" data-name="Grupo 66518" transform="translate(9.463 2.213)">
              <path id="Trazado_106102" data-name="Trazado 106102" d="M1672.271,7339.43c-.184.073-.846-1.136-1.289-2.767s-.5-3.014-.3-3.041.566,1.261,1,2.846S1672.46,7339.353,1672.271,7339.43Z" transform="translate(-1670.571 -7333.622)" fill="#344154"/>
            </g>
            <g id="Grupo_66519" data-name="Grupo 66519" transform="translate(16.302)">
              <path id="Trazado_106103" data-name="Trazado 106103" d="M1676.786,7337.995c-.2.037-.627-1.265-.962-2.909s-.45-3.012-.253-3.053.628,1.263.963,2.91S1676.984,7337.952,1676.786,7337.995Z" transform="translate(-1675.475 -7332.032)" fill="#344154"/>
            </g>
          </g>
          <g id="Grupo_66521" data-name="Grupo 66521" transform="translate(30.838)">
            <path id="Trazado_106104" data-name="Trazado 106104" d="M1630.758,7295.076c-.2-.016-.309-.787-.241-1.729s.282-1.691.483-1.676.308.789.242,1.728S1630.958,7295.088,1630.758,7295.076Z" transform="translate(-1630.497 -7291.671)" fill="#344154"/>
          </g>
          <g id="Grupo_66522" data-name="Grupo 66522" transform="translate(37.021 0.368)">
            <path id="Trazado_106105" data-name="Trazado 106105" d="M1635.368,7295.339c-.2.005-.393-.75-.431-1.685s.1-1.71.294-1.72.394.749.432,1.692S1635.569,7295.334,1635.368,7295.339Z" transform="translate(-1634.931 -7291.935)" fill="#344154"/>
          </g>
          <g id="Grupo_66523" data-name="Grupo 66523" transform="translate(42.025 1.096)">
            <path id="Trazado_106106" data-name="Trazado 106106" d="M1638.868,7295.981c-.2,0-.357-.793-.349-1.767s.176-1.762.376-1.757.357.791.351,1.765S1639.068,7295.984,1638.868,7295.981Z" transform="translate(-1638.519 -7292.458)" fill="#344154"/>
          </g>
          <g id="Grupo_66524" data-name="Grupo 66524" transform="translate(48.392 1.216)">
            <path id="Trazado_106107" data-name="Trazado 106107" d="M1643.708,7296.679c-.19.05-.588-.853-.621-2.049s.3-2.121.5-2.086.194.957.23,2.065S1643.907,7296.627,1643.708,7296.679Z" transform="translate(-1643.084 -7292.542)" fill="#344154"/>
          </g>
          <g id="Grupo_66525" data-name="Grupo 66525" transform="translate(53.799 1.22)">
            <path id="Trazado_106108" data-name="Trazado 106108" d="M1647.646,7296.678c-.2.024-.471-.884-.608-2.024s-.086-2.086.113-2.107.472.879.608,2.019S1647.844,7296.654,1647.646,7296.678Z" transform="translate(-1646.961 -7292.546)" fill="#344154"/>
          </g>
        </g>
      </g>
    </g>
  </g>
</svg>
