<svg xmlns="http://www.w3.org/2000/svg" xmlns:xlink="http://www.w3.org/1999/xlink" width="255.99" height="285.021" viewBox="0 0 255.99 285.021">
  <defs>
    <linearGradient id="linear-gradient" x1="0.5" x2="0.5" y2="1" gradientUnits="objectBoundingBox">
      <stop offset="0" stop-color="#fff"/>
      <stop offset="1" stop-color="#f8f8f8"/>
    </linearGradient>
  </defs>
  <g id="Grupo_93213" data-name="Grupo 93213" transform="translate(29.492)">
    <g id="Grupo_57070" data-name="Grupo 57070" transform="translate(-29.492 0)">
      <g id="Grupo_57069" data-name="Grupo 57069" transform="translate(0 0)" opacity="0.7" style="mix-blend-mode: multiply;isolation: isolate">
        <rect id="Rectángulo_29501" data-name="Rectángulo 29501" width="255.99" height="285.021" rx="9.04" fill="#fff" opacity="0"/>
        <rect id="Rectángulo_29502" data-name="Rectángulo 29502" width="253.328" height="282.709" rx="9.04" transform="translate(1.331 1.156)" fill="#f3f3f3" opacity="0.048"/>
        <rect id="Rectángulo_29503" data-name="Rectángulo 29503" width="250.665" height="280.397" rx="9.04" transform="translate(2.662 2.312)" fill="#e7e7e7" opacity="0.095"/>
        <rect id="Rectángulo_29504" data-name="Rectángulo 29504" width="248.003" height="278.085" rx="9.04" transform="translate(3.993 3.468)" fill="#dbdbdb" opacity="0.143"/>
        <rect id="Rectángulo_29505" data-name="Rectángulo 29505" width="245.341" height="275.774" rx="9.04" transform="translate(5.324 4.624)" fill="#cecece" opacity="0.19"/>
        <rect id="Rectángulo_29506" data-name="Rectángulo 29506" width="242.679" height="273.462" rx="9.04" transform="translate(6.655 5.779)" fill="#c2c2c2" opacity="0.238"/>
        <rect id="Rectángulo_29507" data-name="Rectángulo 29507" width="240.017" height="271.15" rx="9.04" transform="translate(7.986 6.935)" fill="#b6b6b6" opacity="0.286"/>
        <rect id="Rectángulo_29508" data-name="Rectángulo 29508" width="237.355" height="268.838" rx="9.04" transform="translate(9.318 8.091)" fill="#aaa" opacity="0.333"/>
        <rect id="Rectángulo_29509" data-name="Rectángulo 29509" width="234.692" height="266.527" rx="9.04" transform="translate(10.649 9.247)" fill="#9e9e9e" opacity="0.381"/>
        <rect id="Rectángulo_29510" data-name="Rectángulo 29510" width="232.03" height="264.215" rx="9.04" transform="translate(11.98 10.403)" fill="#929292" opacity="0.429"/>
        <rect id="Rectángulo_29511" data-name="Rectángulo 29511" width="229.368" height="261.903" rx="9.04" transform="translate(13.311 11.559)" fill="#868686" opacity="0.476"/>
        <rect id="Rectángulo_29512" data-name="Rectángulo 29512" width="226.706" height="259.591" rx="9.04" transform="translate(14.642 12.715)" fill="#797979" opacity="0.524"/>
        <rect id="Rectángulo_29513" data-name="Rectángulo 29513" width="224.044" height="257.28" rx="9.04" transform="translate(15.973 13.87)" fill="#6d6d6d" opacity="0.571"/>
        <rect id="Rectángulo_29514" data-name="Rectángulo 29514" width="221.382" height="254.968" rx="9.04" transform="translate(17.304 15.026)" fill="#616161" opacity="0.619"/>
        <rect id="Rectángulo_29515" data-name="Rectángulo 29515" width="218.719" height="252.656" rx="9.04" transform="translate(18.635 16.182)" fill="#555" opacity="0.667"/>
        <rect id="Rectángulo_29516" data-name="Rectángulo 29516" width="216.057" height="250.344" rx="9.04" transform="translate(19.966 17.338)" fill="#494949" opacity="0.714"/>
        <rect id="Rectángulo_29517" data-name="Rectángulo 29517" width="213.395" height="248.033" rx="9.04" transform="translate(21.297 18.494)" fill="#3d3d3d" opacity="0.762"/>
        <rect id="Rectángulo_29518" data-name="Rectángulo 29518" width="210.733" height="245.721" rx="9.04" transform="translate(22.628 19.65)" fill="#313131" opacity="0.81"/>
        <rect id="Rectángulo_29519" data-name="Rectángulo 29519" width="208.071" height="243.409" rx="9.04" transform="translate(23.959 20.806)" fill="#242424" opacity="0.857"/>
        <rect id="Rectángulo_29520" data-name="Rectángulo 29520" width="205.409" height="241.097" rx="9.04" transform="translate(25.291 21.961)" fill="#181818" opacity="0.905"/>
        <rect id="Rectángulo_29521" data-name="Rectángulo 29521" width="202.746" height="238.786" rx="9.04" transform="translate(26.622 23.117)" fill="#0c0c0c" opacity="0.952"/>
        <rect id="Rectángulo_29522" data-name="Rectángulo 29522" width="200.084" height="236.474" rx="9.04" transform="translate(27.953 24.273)"/>
      </g>
      <rect id="Rectángulo_29523" data-name="Rectángulo 29523" width="234.484" height="266.346" rx="10" transform="translate(9.465 9.634)" fill="url(#linear-gradient)"/>
      <path id="Trazado_123976" data-name="Trazado 123976" d="M181.42,981.515H416.611v12.017l-101.8.738-13.665,11.517-14.7-11.767-105.028-.488Z" transform="translate(-171.956 -971.88)" fill="#d9a171"/>
      <path id="Trazado_123977" data-name="Trazado 123977" d="M277.9,988.778l-9.79,9.182a2.468,2.468,0,0,1-3.458.025L254.3,988.517" transform="translate(-137.118 -972.291)" fill="none" stroke="#12263f" stroke-linecap="round" stroke-miterlimit="10" stroke-width="0.806"/>
      <path id="Trazado_148689" data-name="Trazado 148689" d="M21.335,13.085H15.789V17.62h6.442V19H14.1V6.2h8.042v1.38H15.789v4.122h5.546Zm8.279,3.393a1.2,1.2,0,0,0-.5-1.024,4.78,4.78,0,0,0-1.731-.628,8.186,8.186,0,0,1-1.96-.633,2.788,2.788,0,0,1-1.072-.879,2.1,2.1,0,0,1-.347-1.213A2.467,2.467,0,0,1,25,10.123a3.861,3.861,0,0,1,2.527-.809,3.974,3.974,0,0,1,2.624.835,2.652,2.652,0,0,1,1.006,2.136H29.518a1.468,1.468,0,0,0-.567-1.151,2.124,2.124,0,0,0-1.428-.483,2.223,2.223,0,0,0-1.389.387,1.217,1.217,0,0,0-.5,1.011.986.986,0,0,0,.466.888,5.731,5.731,0,0,0,1.683.571,8.77,8.77,0,0,1,1.973.65,2.878,2.878,0,0,1,1.121.91,2.237,2.237,0,0,1,.365,1.3,2.434,2.434,0,0,1-1.02,2.043,4.277,4.277,0,0,1-2.646.769,4.789,4.789,0,0,1-2.021-.4,3.288,3.288,0,0,1-1.375-1.129,2.722,2.722,0,0,1-.5-1.569h1.626a1.683,1.683,0,0,0,.655,1.3,2.54,2.54,0,0,0,1.613.479,2.622,2.622,0,0,0,1.481-.374A1.148,1.148,0,0,0,29.614,16.478Zm5.95-9.29v2.3H37.34v1.257H35.564v5.9a1.32,1.32,0,0,0,.237.858,1,1,0,0,0,.809.286,3.937,3.937,0,0,0,.773-.105V19a4.742,4.742,0,0,1-1.248.175,2.025,2.025,0,0,1-1.644-.659,2.832,2.832,0,0,1-.554-1.872v-5.9H32.207V9.49h1.731v-2.3ZM45.109,19a3.416,3.416,0,0,1-.229-1,3.628,3.628,0,0,1-2.707,1.178,3.357,3.357,0,0,1-2.307-.8,2.573,2.573,0,0,1-.9-2.017A2.688,2.688,0,0,1,40.1,14.056a5.325,5.325,0,0,1,3.177-.822h1.582v-.747a1.826,1.826,0,0,0-.51-1.358,2.049,2.049,0,0,0-1.5-.505,2.371,2.371,0,0,0-1.459.439,1.3,1.3,0,0,0-.589,1.063H39.159a2.244,2.244,0,0,1,.505-1.375A3.449,3.449,0,0,1,41.036,9.7a4.613,4.613,0,0,1,1.9-.387,3.759,3.759,0,0,1,2.575.822A2.964,2.964,0,0,1,46.48,12.4v4.377a5.351,5.351,0,0,0,.334,2.083V19Zm-2.7-1.239a2.858,2.858,0,0,0,1.45-.4,2.392,2.392,0,0,0,.993-1.028V14.386H43.58q-2.988,0-2.988,1.749a1.48,1.48,0,0,0,.51,1.2A1.959,1.959,0,0,0,42.411,17.761Zm6.223-3.595a5.571,5.571,0,0,1,1.037-3.52,3.529,3.529,0,0,1,5.361-.189V5.5h1.626V19H55.164l-.079-1.02a3.311,3.311,0,0,1-2.716,1.2,3.248,3.248,0,0,1-2.694-1.354,5.634,5.634,0,0,1-1.042-3.533Zm1.626.185a4.218,4.218,0,0,0,.668,2.531,2.159,2.159,0,0,0,1.846.914,2.372,2.372,0,0,0,2.259-1.389V12.039a2.39,2.39,0,0,0-2.241-1.345,2.17,2.17,0,0,0-1.863.923A4.644,4.644,0,0,0,50.26,14.351Zm8.49-.193a5.617,5.617,0,0,1,.549-2.514,4.1,4.1,0,0,1,1.529-1.723,4.163,4.163,0,0,1,2.237-.606,4.01,4.01,0,0,1,3.142,1.345,5.174,5.174,0,0,1,1.2,3.577v.114a5.666,5.666,0,0,1-.532,2.492,4.038,4.038,0,0,1-1.521,1.718,4.211,4.211,0,0,1-2.272.615,4,4,0,0,1-3.133-1.345,5.147,5.147,0,0,1-1.2-3.56Zm1.635.193a4.068,4.068,0,0,0,.734,2.54,2.487,2.487,0,0,0,3.933-.013,4.449,4.449,0,0,0,.729-2.72,4.061,4.061,0,0,0-.743-2.536,2.361,2.361,0,0,0-1.973-.971,2.335,2.335,0,0,0-1.942.958A4.416,4.416,0,0,0,60.385,14.351Zm13.122-.185a5.571,5.571,0,0,1,1.037-3.52,3.529,3.529,0,0,1,5.361-.189V5.5h1.626V19H80.037l-.079-1.02a3.311,3.311,0,0,1-2.716,1.2,3.248,3.248,0,0,1-2.694-1.354,5.634,5.634,0,0,1-1.042-3.533Zm1.626.185a4.218,4.218,0,0,0,.668,2.531,2.159,2.159,0,0,0,1.846.914,2.372,2.372,0,0,0,2.259-1.389V12.039a2.39,2.39,0,0,0-2.241-1.345,2.17,2.17,0,0,0-1.863.923A4.644,4.644,0,0,0,75.133,14.351ZM88,19.176a4.155,4.155,0,0,1-3.146-1.27,4.714,4.714,0,0,1-1.213-3.4v-.3a5.707,5.707,0,0,1,.541-2.527,4.217,4.217,0,0,1,1.512-1.74,3.8,3.8,0,0,1,2.1-.628,3.562,3.562,0,0,1,2.883,1.222,5.289,5.289,0,0,1,1.028,3.5v.677H85.267a3.38,3.38,0,0,0,.822,2.272,2.583,2.583,0,0,0,2,.866,2.832,2.832,0,0,0,1.459-.352,3.666,3.666,0,0,0,1.046-.932l.993.773A3.993,3.993,0,0,1,88,19.176Zm-.2-8.525a2.169,2.169,0,0,0-1.652.716,3.482,3.482,0,0,0-.826,2.008h4.764v-.123a3.1,3.1,0,0,0-.668-1.92A2.042,2.042,0,0,0,87.8,10.65Zm14.845.3a4.873,4.873,0,0,0-.8-.062,2.143,2.143,0,0,0-2.171,1.362V19H98.046V9.49h1.582l.026,1.1a2.532,2.532,0,0,1,2.268-1.274,1.661,1.661,0,0,1,.721.123Zm5.44,8.227a4.155,4.155,0,0,1-3.146-1.27,4.714,4.714,0,0,1-1.213-3.4v-.3a5.707,5.707,0,0,1,.541-2.527,4.217,4.217,0,0,1,1.512-1.74,3.8,3.8,0,0,1,2.1-.628,3.562,3.562,0,0,1,2.883,1.222,5.289,5.289,0,0,1,1.028,3.5v.677H105.35a3.38,3.38,0,0,0,.822,2.272,2.583,2.583,0,0,0,2,.866,2.832,2.832,0,0,0,1.459-.352,3.666,3.666,0,0,0,1.046-.932l.993.773A3.993,3.993,0,0,1,108.083,19.176Zm-.2-8.525a2.169,2.169,0,0,0-1.652.716,3.482,3.482,0,0,0-.826,2.008h4.764v-.123a3.1,3.1,0,0,0-.668-1.92A2.042,2.042,0,0,0,107.881,10.65Zm11.329,5.827a1.2,1.2,0,0,0-.5-1.024,4.78,4.78,0,0,0-1.731-.628,8.186,8.186,0,0,1-1.96-.633,2.788,2.788,0,0,1-1.072-.879A2.1,2.1,0,0,1,113.6,12.1a2.467,2.467,0,0,1,.989-1.978,3.861,3.861,0,0,1,2.527-.809,3.974,3.974,0,0,1,2.624.835,2.652,2.652,0,0,1,1.006,2.136h-1.635a1.468,1.468,0,0,0-.567-1.151,2.124,2.124,0,0,0-1.428-.483,2.223,2.223,0,0,0-1.389.387,1.217,1.217,0,0,0-.5,1.011.986.986,0,0,0,.466.888,5.731,5.731,0,0,0,1.683.571,8.77,8.77,0,0,1,1.973.65,2.878,2.878,0,0,1,1.121.91,2.237,2.237,0,0,1,.365,1.3,2.434,2.434,0,0,1-1.02,2.043,4.277,4.277,0,0,1-2.646.769,4.789,4.789,0,0,1-2.021-.4,3.288,3.288,0,0,1-1.375-1.129,2.722,2.722,0,0,1-.5-1.569H114.9a1.683,1.683,0,0,0,.655,1.3,2.54,2.54,0,0,0,1.613.479,2.622,2.622,0,0,0,1.481-.374A1.148,1.148,0,0,0,119.21,16.478Zm9.615,1.582a3.454,3.454,0,0,1-2.786,1.116,2.956,2.956,0,0,1-2.316-.883,3.823,3.823,0,0,1-.8-2.615V9.49h1.626v6.144q0,2.162,1.758,2.162a2.434,2.434,0,0,0,2.479-1.389V9.49h1.626V19H128.86Zm5.818.94h-1.626V5.5h1.626Zm4.808-11.812v2.3h1.775v1.257h-1.775v5.9a1.32,1.32,0,0,0,.237.858,1,1,0,0,0,.809.286,3.937,3.937,0,0,0,.773-.105V19a4.742,4.742,0,0,1-1.248.175,2.025,2.025,0,0,1-1.644-.659,2.832,2.832,0,0,1-.554-1.872v-5.9h-1.731V9.49h1.731v-2.3ZM149,19a3.416,3.416,0,0,1-.229-1,3.628,3.628,0,0,1-2.707,1.178,3.357,3.357,0,0,1-2.307-.8,2.573,2.573,0,0,1-.9-2.017,2.688,2.688,0,0,1,1.129-2.307,5.325,5.325,0,0,1,3.177-.822h1.582v-.747a1.826,1.826,0,0,0-.51-1.358,2.049,2.049,0,0,0-1.5-.505,2.371,2.371,0,0,0-1.459.439,1.3,1.3,0,0,0-.589,1.063h-1.635a2.244,2.244,0,0,1,.505-1.375,3.449,3.449,0,0,1,1.371-1.05,4.613,4.613,0,0,1,1.9-.387,3.759,3.759,0,0,1,2.575.822,2.964,2.964,0,0,1,.967,2.263v4.377a5.351,5.351,0,0,0,.334,2.083V19Zm-2.7-1.239a2.858,2.858,0,0,0,1.45-.4,2.392,2.392,0,0,0,.993-1.028V14.386h-1.274q-2.988,0-2.988,1.749a1.48,1.48,0,0,0,.51,1.2A1.959,1.959,0,0,0,146.3,17.761Zm6.223-3.595a5.571,5.571,0,0,1,1.037-3.52,3.529,3.529,0,0,1,5.361-.189V5.5h1.626V19h-1.494l-.079-1.02a3.311,3.311,0,0,1-2.716,1.2,3.248,3.248,0,0,1-2.694-1.354,5.634,5.634,0,0,1-1.042-3.533Zm1.626.185a4.218,4.218,0,0,0,.668,2.531,2.159,2.159,0,0,0,1.846.914,2.372,2.372,0,0,0,2.259-1.389V12.039a2.39,2.39,0,0,0-2.241-1.345,2.17,2.17,0,0,0-1.863.923A4.644,4.644,0,0,0,154.146,14.351Zm8.49-.193a5.617,5.617,0,0,1,.549-2.514,4.1,4.1,0,0,1,1.529-1.723,4.163,4.163,0,0,1,2.237-.606,4.01,4.01,0,0,1,3.142,1.345,5.174,5.174,0,0,1,1.2,3.577v.114a5.666,5.666,0,0,1-.532,2.492,4.038,4.038,0,0,1-1.521,1.718,4.211,4.211,0,0,1-2.272.615,4,4,0,0,1-3.133-1.345,5.147,5.147,0,0,1-1.2-3.56Zm1.635.193a4.068,4.068,0,0,0,.734,2.54,2.487,2.487,0,0,0,3.933-.013,4.449,4.449,0,0,0,.729-2.72,4.061,4.061,0,0,0-.743-2.536,2.361,2.361,0,0,0-1.973-.971,2.335,2.335,0,0,0-1.942.958A4.416,4.416,0,0,0,164.271,14.351Zm14.6,2.127a1.2,1.2,0,0,0-.5-1.024,4.78,4.78,0,0,0-1.731-.628,8.186,8.186,0,0,1-1.96-.633,2.788,2.788,0,0,1-1.072-.879,2.1,2.1,0,0,1-.347-1.213,2.467,2.467,0,0,1,.989-1.978,3.861,3.861,0,0,1,2.527-.809,3.974,3.974,0,0,1,2.624.835,2.652,2.652,0,0,1,1.006,2.136h-1.635a1.468,1.468,0,0,0-.567-1.151,2.124,2.124,0,0,0-1.428-.483,2.223,2.223,0,0,0-1.389.387,1.217,1.217,0,0,0-.5,1.011.986.986,0,0,0,.466.888,5.731,5.731,0,0,0,1.683.571,8.77,8.77,0,0,1,1.973.65,2.878,2.878,0,0,1,1.121.91,2.237,2.237,0,0,1,.365,1.3,2.434,2.434,0,0,1-1.02,2.043,4.277,4.277,0,0,1-2.646.769,4.789,4.789,0,0,1-2.021-.4,3.288,3.288,0,0,1-1.375-1.129,2.722,2.722,0,0,1-.5-1.569h1.626a1.683,1.683,0,0,0,.655,1.3,2.54,2.54,0,0,0,1.613.479,2.622,2.622,0,0,0,1.481-.374A1.148,1.148,0,0,0,178.87,16.478ZM70.141,43H68.515V33.49h1.626ZM68.383,30.968a.971.971,0,0,1,.242-.668.907.907,0,0,1,.716-.272.922.922,0,0,1,.721.272.96.96,0,0,1,.246.668.929.929,0,0,1-.246.659.938.938,0,0,1-.721.264.924.924,0,0,1-.716-.264A.938.938,0,0,1,68.383,30.968Zm5.9,2.522.053,1.2a3.465,3.465,0,0,1,2.848-1.371q3.015,0,3.041,3.4V43H78.6V36.707a2.189,2.189,0,0,0-.47-1.521,1.884,1.884,0,0,0-1.437-.492,2.347,2.347,0,0,0-1.389.422,2.865,2.865,0,0,0-.932,1.107V43H72.742V33.49Zm10.6-2.3v2.3h1.775v1.257H84.88v5.9a1.32,1.32,0,0,0,.237.858,1,1,0,0,0,.809.286,3.937,3.937,0,0,0,.773-.105V43a4.742,4.742,0,0,1-1.248.175,2.025,2.025,0,0,1-1.644-.659,2.832,2.832,0,0,1-.554-1.872v-5.9H81.522V33.49h1.731v-2.3ZM92.5,43.176a4.155,4.155,0,0,1-3.146-1.27,4.714,4.714,0,0,1-1.213-3.4v-.3a5.707,5.707,0,0,1,.541-2.527,4.217,4.217,0,0,1,1.512-1.74,3.8,3.8,0,0,1,2.1-.628,3.562,3.562,0,0,1,2.883,1.222,5.289,5.289,0,0,1,1.028,3.5v.677H89.767a3.38,3.38,0,0,0,.822,2.272,2.583,2.583,0,0,0,2,.866,2.832,2.832,0,0,0,1.459-.352,3.666,3.666,0,0,0,1.046-.932l.993.773A3.993,3.993,0,0,1,92.5,43.176Zm-.2-8.525a2.169,2.169,0,0,0-1.652.716,3.482,3.482,0,0,0-.826,2.008h4.764v-.123a3.1,3.1,0,0,0-.668-1.92A2.042,2.042,0,0,0,92.3,34.65ZM97.7,38.166a5.589,5.589,0,0,1,1.028-3.538,3.545,3.545,0,0,1,5.44-.083l.079-1.055h1.485v9.281a3.869,3.869,0,0,1-1.094,2.909,4.038,4.038,0,0,1-2.94,1.063,4.891,4.891,0,0,1-2.013-.439,3.465,3.465,0,0,1-1.5-1.2l.844-.976a3.18,3.18,0,0,0,2.558,1.292,2.491,2.491,0,0,0,1.85-.668,2.553,2.553,0,0,0,.664-1.881v-.817a3.342,3.342,0,0,1-2.663,1.125,3.248,3.248,0,0,1-2.7-1.345A5.876,5.876,0,0,1,97.7,38.166Zm1.635.185A4.264,4.264,0,0,0,100,40.877a2.142,2.142,0,0,0,1.846.918,2.382,2.382,0,0,0,2.259-1.4V36.057a2.41,2.41,0,0,0-2.241-1.362,2.161,2.161,0,0,0-1.854.923A4.644,4.644,0,0,0,99.338,38.351Zm13.447-3.4a4.873,4.873,0,0,0-.8-.062,2.143,2.143,0,0,0-2.171,1.362V43h-1.626V33.49h1.582l.026,1.1a2.532,2.532,0,0,1,2.268-1.274,1.661,1.661,0,0,1,.721.123ZM119.8,43a3.416,3.416,0,0,1-.229-1,3.628,3.628,0,0,1-2.707,1.178,3.357,3.357,0,0,1-2.307-.8,2.573,2.573,0,0,1-.9-2.017,2.688,2.688,0,0,1,1.129-2.307,5.325,5.325,0,0,1,3.177-.822h1.582v-.747a1.826,1.826,0,0,0-.51-1.358,2.049,2.049,0,0,0-1.5-.505,2.371,2.371,0,0,0-1.459.439,1.3,1.3,0,0,0-.589,1.063h-1.635a2.244,2.244,0,0,1,.505-1.375,3.449,3.449,0,0,1,1.371-1.05,4.613,4.613,0,0,1,1.9-.387,3.759,3.759,0,0,1,2.575.822,2.964,2.964,0,0,1,.967,2.263v4.377a5.351,5.351,0,0,0,.334,2.083V43Zm-2.7-1.239a2.858,2.858,0,0,0,1.45-.4,2.392,2.392,0,0,0,.993-1.028V38.386H118.27q-2.988,0-2.988,1.749a1.48,1.48,0,0,0,.51,1.2A1.959,1.959,0,0,0,117.1,41.761ZM125.485,43h-1.626V29.5h1.626Z" transform="translate(30.954 173.705)" fill="#12263f"/>
    </g>
    <line id="Línea_1692" data-name="Línea 1692" x2="49.703" transform="translate(72.469 262.762)" fill="none" stroke="#d9a171" stroke-linecap="round" stroke-miterlimit="10" stroke-width="0.806"/>
    <g id="Grupo_92949" data-name="Grupo 92949" transform="translate(62.427 71.799)">
      <path id="Trazado_141559" data-name="Trazado 141559" d="M2038.949,735.561c0-4.492.062-8.985-.026-13.476-.043-2.208.682-3.14,2.834-4.1a21.028,21.028,0,0,1,6.762-1.543,37.147,37.147,0,0,1,10.413.433,15.264,15.264,0,0,1,4.515,1.508,3.514,3.514,0,0,1,2.025,3.371c-.046,9.1-.022,18.2-.022,27.307,0,2.171-.727,3.179-2.759,4.028a24.185,24.185,0,0,1-8,1.648,35.992,35.992,0,0,1-9.235-.526,13.317,13.317,0,0,1-5.061-1.857,3.117,3.117,0,0,1-1.462-2.784C2038.97,744.9,2038.949,740.23,2038.949,735.561Zm2.38-14.643,0,.352a18.545,18.545,0,0,0,1.921.933,25.825,25.825,0,0,0,8.545,1.276,27.325,27.325,0,0,0,9.315-1.266,4.027,4.027,0,0,0,1.946-1.159,3.083,3.083,0,0,0-.623-.493,20.23,20.23,0,0,0-2.633-1.013,31.561,31.561,0,0,0-10.2-.784,21.832,21.832,0,0,0-6.358,1.2A20.972,20.972,0,0,0,2041.329,720.918Zm.018,17.568a4.265,4.265,0,0,1-.006.742,1.61,1.61,0,0,0,1.365,2.034,39.652,39.652,0,0,0,4.971,1.214,31.817,31.817,0,0,0,10.819-.29,26.648,26.648,0,0,0,3.749-1.206,1.315,1.315,0,0,0,.767-.74,8.153,8.153,0,0,0,.035-1.758,32.579,32.579,0,0,1-21.7,0Zm0-9.509a4.422,4.422,0,0,1-.008.845,1.384,1.384,0,0,0,1.1,1.685,23.136,23.136,0,0,0,3.086.972,34.281,34.281,0,0,0,12.973.08,10.936,10.936,0,0,0,4.047-1.4,1.06,1.06,0,0,0,.483-.612,11.9,11.9,0,0,0,.023-1.582A34.338,34.338,0,0,1,2041.347,728.978Zm0,4.829a4.468,4.468,0,0,1-.008.836,1.363,1.363,0,0,0,1.1,1.678,28.609,28.609,0,0,0,3.663,1.093,33.15,33.15,0,0,0,12.1,0,27.992,27.992,0,0,0,4.144-1.31,1.194,1.194,0,0,0,.672-.736,7.684,7.684,0,0,0,.031-1.578A34.482,34.482,0,0,1,2041.347,733.807Zm0,9.635a4.725,4.725,0,0,1-.008.859,1.339,1.339,0,0,0,1.056,1.648,28.461,28.461,0,0,0,3.49,1.064,34.374,34.374,0,0,0,11.932.137,13.581,13.581,0,0,0,4.494-1.374c.279-.153.643-.407.693-.667a8.77,8.77,0,0,0,.032-1.663A34.431,34.431,0,0,1,2041.347,743.442Zm0,4.819a10.739,10.739,0,0,1-.009,1.189.961.961,0,0,0,.617,1.087,17.546,17.546,0,0,0,2.522.975,33.481,33.481,0,0,0,13.831.369,11.5,11.5,0,0,0,4.174-1.391c.221-.136.506-.365.534-.581a12.283,12.283,0,0,0,.025-1.653A34.3,34.3,0,0,1,2041.347,748.26Zm0-24.227a6.05,6.05,0,0,1-.007.932,1.409,1.409,0,0,0,1.115,1.73,31.28,31.28,0,0,0,3.38,1.026,34.562,34.562,0,0,0,10.472.355,17.5,17.5,0,0,0,5.542-1.35c1.257-.573,1.542-1.265,1.088-2.654a32.931,32.931,0,0,1-21.591-.039Z" transform="translate(-1993.319 -685.108)" fill="#344154"/>
      <path id="Trazado_141560" data-name="Trazado 141560" d="M1713.5,648.446h-58.137v26.8h.79q19.213,0,38.427,0a4.749,4.749,0,0,1,.879.067.913.913,0,0,1,.784.967.962.962,0,0,1-.826,1.006,2.965,2.965,0,0,1-.647.032h-40.023c-1.2,0-1.512-.307-1.512-1.494q0-13.984,0-27.969c0-1.23.3-1.526,1.541-1.526h59.236c1.244,0,1.533.288,1.534,1.53,0,.966.008,1.932,0,2.9-.009.788-.406,1.242-1.045,1.229-.62-.013-.985-.444-1-1.211S1713.5,649.252,1713.5,648.446Z" transform="translate(-1653.233 -623.446)" fill="#344154"/>
      <path id="Trazado_141561" data-name="Trazado 141561" d="M1678.052,516.257c-.39,1.746-.768,3.433-1.143,5.121-.334,1.5-.663,3-1,4.5-.17.756-.652,1.113-1.292.972-.594-.13-.884-.667-.724-1.393q1.145-5.192,2.3-10.38c.207-.927.669-1.2,1.591-1q19.273,4.334,38.546,8.667,4.609,1.037,9.216,2.089a1.029,1.029,0,1,1-.391,2.01c-.117-.017-.234-.036-.349-.062q-2.478-.559-4.955-1.12l-25.524-5.741Z" transform="translate(-1671.413 -506.77)" fill="#344154"/>
      <path id="Trazado_141562" data-name="Trazado 141562" d="M1827.477,708.909a10.6,10.6,0,1,1,10.617-10.589A10.614,10.614,0,0,1,1827.477,708.909Zm8.681-10.6a8.671,8.671,0,1,0-8.674,8.684A8.669,8.669,0,0,0,1836.158,698.31Z" transform="translate(-1797.537 -659.937)" fill="#344154"/>
      <path id="Trazado_141563" data-name="Trazado 141563" d="M1704.639,708.321c-1.477,0-2.955-.009-4.432,0a1.624,1.624,0,0,1-1.3-.573c-1.494-1.65-3.016-3.275-4.485-4.947a1.947,1.947,0,0,1-.44-1.164c-.038-2.659-.016-5.319-.023-7.979a1.848,1.848,0,0,1,.589-1.421q2.426-2.337,4.82-4.707a1.885,1.885,0,0,1,1.424-.578c2.758.013,5.516,0,8.273.009a2.512,2.512,0,0,1,.643.069.937.937,0,0,1,.752,1,.954.954,0,0,1-.8.966,2.775,2.775,0,0,1-.646.038c-2.58,0-5.161-.009-7.741.016a1.311,1.311,0,0,0-.813.333q-2.058,1.952-4.056,3.967a1.366,1.366,0,0,0-.36.86c-.029,2.285-.026,4.571,0,6.856a1.287,1.287,0,0,0,.3.777q1.823,2.056,3.707,4.057a1.238,1.238,0,0,0,.808.335c2.659.025,5.318.015,7.978.015.177,0,.355-.007.532.005a1.045,1.045,0,0,1,1.1,1.061,1.032,1.032,0,0,1-1.1,1c-.294.017-.591,0-.886,0Z" transform="translate(-1689.145 -659.265)" fill="#344154"/>
      <path id="Trazado_141564" data-name="Trazado 141564" d="M1789.712,455.1c-.624,1.236-1.225,2.428-1.828,3.619a2.994,2.994,0,0,1-.292.511.974.974,0,0,1-1.27.29,1,1,0,0,1-.488-1.253,3,3,0,0,1,.162-.379c.684-1.375,1.366-2.751,2.057-4.122.552-1.094.9-1.228,2.014-.766q7.114,2.96,14.224,5.927l13.95,5.82c.779.325,1.084.852.842,1.444-.255.624-.849.791-1.65.458l-26.923-11.218C1790.276,455.33,1790.04,455.235,1789.712,455.1Z" transform="translate(-1770.105 -452.748)" fill="#344154"/>
      <path id="Trazado_141565" data-name="Trazado 141565" d="M1985.293,689.075c-1.555,0-3.11.009-4.664-.006a1.032,1.032,0,0,1-1.106-.99,1.047,1.047,0,0,1,1.04-1.063,1.509,1.509,0,0,1,.177-.011c3.05,0,6.1-.008,9.151,0,.788,0,1.232.421,1.218,1.062s-.469,1-1.268,1C1988.323,689.079,1986.808,689.076,1985.293,689.075Z" transform="translate(-1940.943 -659.305)" fill="#344154"/>
      <path id="Trazado_141566" data-name="Trazado 141566" d="M1880.911,738.46a4.352,4.352,0,0,0-.7-.157c-.471-.031-.947,0-1.417-.035a2.846,2.846,0,0,1-2.625-2.463,2.789,2.789,0,0,1,2-2.812.724.724,0,0,0,.4-.331c.3-.694.671-1.018,1.236-.974a1.176,1.176,0,0,1,1.129,1.027c.007.034.041.062.1.146.315,0,.667-.015,1.018,0a1.235,1.235,0,0,1,1.3,1.184,1.2,1.2,0,0,1-1.31,1.215c-.886.023-1.773-.007-2.659.017a4.066,4.066,0,0,0-.793.179v.245a4.628,4.628,0,0,0,.731.168c.49.035.986,0,1.476.043a2.842,2.842,0,0,1,2.546,2.476,2.783,2.783,0,0,1-1.909,2.757,1.02,1.02,0,0,0-.525.5,1.206,1.206,0,0,1-1.109.832,1.048,1.048,0,0,1-1.135-.761c-.108-.384-.325-.43-.647-.414a4.239,4.239,0,0,1-.766-.023,1.188,1.188,0,0,1,.074-2.372c.925-.033,1.851,0,2.777-.022a4.748,4.748,0,0,0,.811-.158C1880.909,738.64,1880.91,738.55,1880.911,738.46Z" transform="translate(-1849.8 -698.705)" fill="#344154"/>
    </g>
  </g>
</svg>
