<svg xmlns="http://www.w3.org/2000/svg" xmlns:xlink="http://www.w3.org/1999/xlink" width="255.99" height="285.021" viewBox="0 0 255.99 285.021">
  <defs>
    <linearGradient id="linear-gradient" x1="0.5" x2="0.5" y2="1" gradientUnits="objectBoundingBox">
      <stop offset="0" stop-color="#fff"/>
      <stop offset="1" stop-color="#f8f8f8"/>
    </linearGradient>
  </defs>
  <g id="Grupo_93214" data-name="Grupo 93214" transform="translate(29.492)">
    <g id="Grupo_57070" data-name="Grupo 57070" transform="translate(-29.492 0)">
      <g id="Grupo_57069" data-name="Grupo 57069" transform="translate(0 0)" opacity="0.7" style="mix-blend-mode: multiply;isolation: isolate">
        <rect id="Rectángulo_29501" data-name="Rectángulo 29501" width="255.99" height="285.021" rx="9.04" fill="#fff" opacity="0"/>
        <rect id="Rectángulo_29502" data-name="Rectángulo 29502" width="253.328" height="282.709" rx="9.04" transform="translate(1.331 1.156)" fill="#f3f3f3" opacity="0.048"/>
        <rect id="Rectángulo_29503" data-name="Rectángulo 29503" width="250.665" height="280.397" rx="9.04" transform="translate(2.662 2.312)" fill="#e7e7e7" opacity="0.095"/>
        <rect id="Rectángulo_29504" data-name="Rectángulo 29504" width="248.003" height="278.085" rx="9.04" transform="translate(3.993 3.468)" fill="#dbdbdb" opacity="0.143"/>
        <rect id="Rectángulo_29505" data-name="Rectángulo 29505" width="245.341" height="275.774" rx="9.04" transform="translate(5.324 4.624)" fill="#cecece" opacity="0.19"/>
        <rect id="Rectángulo_29506" data-name="Rectángulo 29506" width="242.679" height="273.462" rx="9.04" transform="translate(6.655 5.779)" fill="#c2c2c2" opacity="0.238"/>
        <rect id="Rectángulo_29507" data-name="Rectángulo 29507" width="240.017" height="271.15" rx="9.04" transform="translate(7.986 6.935)" fill="#b6b6b6" opacity="0.286"/>
        <rect id="Rectángulo_29508" data-name="Rectángulo 29508" width="237.355" height="268.838" rx="9.04" transform="translate(9.318 8.091)" fill="#aaa" opacity="0.333"/>
        <rect id="Rectángulo_29509" data-name="Rectángulo 29509" width="234.692" height="266.527" rx="9.04" transform="translate(10.649 9.247)" fill="#9e9e9e" opacity="0.381"/>
        <rect id="Rectángulo_29510" data-name="Rectángulo 29510" width="232.03" height="264.215" rx="9.04" transform="translate(11.98 10.403)" fill="#929292" opacity="0.429"/>
        <rect id="Rectángulo_29511" data-name="Rectángulo 29511" width="229.368" height="261.903" rx="9.04" transform="translate(13.311 11.559)" fill="#868686" opacity="0.476"/>
        <rect id="Rectángulo_29512" data-name="Rectángulo 29512" width="226.706" height="259.591" rx="9.04" transform="translate(14.642 12.715)" fill="#797979" opacity="0.524"/>
        <rect id="Rectángulo_29513" data-name="Rectángulo 29513" width="224.044" height="257.28" rx="9.04" transform="translate(15.973 13.87)" fill="#6d6d6d" opacity="0.571"/>
        <rect id="Rectángulo_29514" data-name="Rectángulo 29514" width="221.382" height="254.968" rx="9.04" transform="translate(17.304 15.026)" fill="#616161" opacity="0.619"/>
        <rect id="Rectángulo_29515" data-name="Rectángulo 29515" width="218.719" height="252.656" rx="9.04" transform="translate(18.635 16.182)" fill="#555" opacity="0.667"/>
        <rect id="Rectángulo_29516" data-name="Rectángulo 29516" width="216.057" height="250.344" rx="9.04" transform="translate(19.966 17.338)" fill="#494949" opacity="0.714"/>
        <rect id="Rectángulo_29517" data-name="Rectángulo 29517" width="213.395" height="248.033" rx="9.04" transform="translate(21.297 18.494)" fill="#3d3d3d" opacity="0.762"/>
        <rect id="Rectángulo_29518" data-name="Rectángulo 29518" width="210.733" height="245.721" rx="9.04" transform="translate(22.628 19.65)" fill="#313131" opacity="0.81"/>
        <rect id="Rectángulo_29519" data-name="Rectángulo 29519" width="208.071" height="243.409" rx="9.04" transform="translate(23.959 20.806)" fill="#242424" opacity="0.857"/>
        <rect id="Rectángulo_29520" data-name="Rectángulo 29520" width="205.409" height="241.097" rx="9.04" transform="translate(25.291 21.961)" fill="#181818" opacity="0.905"/>
        <rect id="Rectángulo_29521" data-name="Rectángulo 29521" width="202.746" height="238.786" rx="9.04" transform="translate(26.622 23.117)" fill="#0c0c0c" opacity="0.952"/>
        <rect id="Rectángulo_29522" data-name="Rectángulo 29522" width="200.084" height="236.474" rx="9.04" transform="translate(27.953 24.273)"/>
      </g>
      <rect id="Rectángulo_29523" data-name="Rectángulo 29523" width="234.484" height="266.346" rx="10" transform="translate(9.465 9.634)" fill="url(#linear-gradient)"/>
      <path id="Trazado_123976" data-name="Trazado 123976" d="M181.42,981.515H416.611v12.017l-101.8.738-13.665,11.517-14.7-11.767-105.028-.488Z" transform="translate(-171.956 -971.88)" fill="#d9a171"/>
      <path id="Trazado_123977" data-name="Trazado 123977" d="M277.9,988.778l-9.79,9.182a2.468,2.468,0,0,1-3.458.025L254.3,988.517" transform="translate(-137.118 -972.291)" fill="none" stroke="#12263f" stroke-linecap="round" stroke-miterlimit="10" stroke-width="0.806"/>
      <path id="Trazado_148691" data-name="Trazado 148691" d="M29.553,13.085H24.007V17.62h6.442V19h-8.13V6.2h8.042v1.38H24.007v4.122h5.546Zm8.279,3.393a1.2,1.2,0,0,0-.5-1.024,4.78,4.78,0,0,0-1.731-.628,8.186,8.186,0,0,1-1.96-.633,2.788,2.788,0,0,1-1.072-.879,2.1,2.1,0,0,1-.347-1.213,2.467,2.467,0,0,1,.989-1.978,3.861,3.861,0,0,1,2.527-.809,3.974,3.974,0,0,1,2.624.835,2.652,2.652,0,0,1,1.006,2.136H37.735a1.468,1.468,0,0,0-.567-1.151,2.124,2.124,0,0,0-1.428-.483,2.223,2.223,0,0,0-1.389.387,1.217,1.217,0,0,0-.5,1.011.986.986,0,0,0,.466.888A5.731,5.731,0,0,0,36,13.507a8.77,8.77,0,0,1,1.973.65,2.878,2.878,0,0,1,1.121.91,2.237,2.237,0,0,1,.365,1.3,2.434,2.434,0,0,1-1.02,2.043,4.277,4.277,0,0,1-2.646.769,4.789,4.789,0,0,1-2.021-.4A3.288,3.288,0,0,1,32.4,17.642a2.722,2.722,0,0,1-.5-1.569h1.626a1.683,1.683,0,0,0,.655,1.3,2.54,2.54,0,0,0,1.613.479,2.622,2.622,0,0,0,1.481-.374A1.148,1.148,0,0,0,37.832,16.478Zm5.95-9.29v2.3h1.775v1.257H43.782v5.9a1.32,1.32,0,0,0,.237.858,1,1,0,0,0,.809.286,3.937,3.937,0,0,0,.773-.105V19a4.742,4.742,0,0,1-1.248.175,2.025,2.025,0,0,1-1.644-.659,2.832,2.832,0,0,1-.554-1.872v-5.9H40.425V9.49h1.731v-2.3ZM53.327,19a3.416,3.416,0,0,1-.229-1,3.628,3.628,0,0,1-2.707,1.178,3.357,3.357,0,0,1-2.307-.8,2.573,2.573,0,0,1-.9-2.017,2.688,2.688,0,0,1,1.129-2.307,5.325,5.325,0,0,1,3.177-.822h1.582v-.747a1.826,1.826,0,0,0-.51-1.358,2.049,2.049,0,0,0-1.5-.505,2.371,2.371,0,0,0-1.459.439,1.3,1.3,0,0,0-.589,1.063H47.377a2.244,2.244,0,0,1,.505-1.375A3.449,3.449,0,0,1,49.253,9.7a4.613,4.613,0,0,1,1.9-.387,3.759,3.759,0,0,1,2.575.822A2.964,2.964,0,0,1,54.7,12.4v4.377a5.351,5.351,0,0,0,.334,2.083V19Zm-2.7-1.239a2.858,2.858,0,0,0,1.45-.4,2.392,2.392,0,0,0,.993-1.028V14.386H51.8q-2.988,0-2.988,1.749a1.48,1.48,0,0,0,.51,1.2A1.959,1.959,0,0,0,50.629,17.761Zm6.223-3.595a5.571,5.571,0,0,1,1.037-3.52,3.529,3.529,0,0,1,5.361-.189V5.5h1.626V19H63.382L63.3,17.98a3.311,3.311,0,0,1-2.716,1.2,3.248,3.248,0,0,1-2.694-1.354,5.634,5.634,0,0,1-1.042-3.533Zm1.626.185a4.218,4.218,0,0,0,.668,2.531,2.159,2.159,0,0,0,1.846.914,2.372,2.372,0,0,0,2.259-1.389V12.039a2.39,2.39,0,0,0-2.241-1.345,2.17,2.17,0,0,0-1.863.923A4.644,4.644,0,0,0,58.478,14.351Zm8.49-.193a5.617,5.617,0,0,1,.549-2.514,4.1,4.1,0,0,1,1.529-1.723,4.163,4.163,0,0,1,2.237-.606,4.01,4.01,0,0,1,3.142,1.345,5.174,5.174,0,0,1,1.2,3.577v.114a5.666,5.666,0,0,1-.532,2.492,4.038,4.038,0,0,1-1.521,1.718,4.211,4.211,0,0,1-2.272.615,4,4,0,0,1-3.133-1.345,5.147,5.147,0,0,1-1.2-3.56Zm1.635.193a4.068,4.068,0,0,0,.734,2.54,2.487,2.487,0,0,0,3.933-.013A4.449,4.449,0,0,0,74,14.157a4.061,4.061,0,0,0-.743-2.536,2.361,2.361,0,0,0-1.973-.971,2.335,2.335,0,0,0-1.942.958A4.416,4.416,0,0,0,68.6,14.351Zm13.122-.185a5.571,5.571,0,0,1,1.037-3.52,3.529,3.529,0,0,1,5.361-.189V5.5h1.626V19H88.255l-.079-1.02a3.311,3.311,0,0,1-2.716,1.2,3.248,3.248,0,0,1-2.694-1.354,5.634,5.634,0,0,1-1.042-3.533Zm1.626.185a4.218,4.218,0,0,0,.668,2.531,2.159,2.159,0,0,0,1.846.914,2.372,2.372,0,0,0,2.259-1.389V12.039a2.39,2.39,0,0,0-2.241-1.345,2.17,2.17,0,0,0-1.863.923A4.644,4.644,0,0,0,83.351,14.351Zm12.867,4.825a4.155,4.155,0,0,1-3.146-1.27,4.714,4.714,0,0,1-1.213-3.4v-.3a5.707,5.707,0,0,1,.541-2.527,4.217,4.217,0,0,1,1.512-1.74,3.8,3.8,0,0,1,2.1-.628A3.562,3.562,0,0,1,98.9,10.536a5.289,5.289,0,0,1,1.028,3.5v.677H93.484a3.38,3.38,0,0,0,.822,2.272,2.583,2.583,0,0,0,2,.866,2.832,2.832,0,0,0,1.459-.352,3.666,3.666,0,0,0,1.046-.932l.993.773A3.993,3.993,0,0,1,96.218,19.176Zm-.2-8.525a2.169,2.169,0,0,0-1.652.716,3.482,3.482,0,0,0-.826,2.008H98.3v-.123a3.1,3.1,0,0,0-.668-1.92A2.042,2.042,0,0,0,96.016,10.65Zm16.189-3.779a11.567,11.567,0,0,0-1.758-.176q-1.758,0-1.758,1.851V9.49h2.03v1.257h-2.03V19h-1.626V10.747h-1.5V9.49h1.5V8.453a3.1,3.1,0,0,1,.853-2.329,3.33,3.33,0,0,1,2.4-.809,22.149,22.149,0,0,1,3.516.536V19h-1.626ZM122.356,18.06a3.454,3.454,0,0,1-2.786,1.116,2.956,2.956,0,0,1-2.316-.883,3.823,3.823,0,0,1-.8-2.615V9.49h1.626v6.144q0,2.162,1.758,2.162a2.434,2.434,0,0,0,2.479-1.389V9.49h1.626V19h-1.547Zm5.73-8.569V20.1q0,2.742-2.487,2.742a3.034,3.034,0,0,1-.993-.157V21.391a3.144,3.144,0,0,0,.738.07,1.1,1.1,0,0,0,.831-.295,1.457,1.457,0,0,0,.286-1.025V9.49Zm-1.793-2.522a.975.975,0,0,1,.242-.664.889.889,0,0,1,.708-.277.922.922,0,0,1,.721.272.96.96,0,0,1,.246.668.929.929,0,0,1-.246.659.938.938,0,0,1-.721.264.909.909,0,0,1-.712-.264A.949.949,0,0,1,126.294,6.968Zm3.981,7.189a5.617,5.617,0,0,1,.549-2.514,4.1,4.1,0,0,1,1.529-1.723,4.163,4.163,0,0,1,2.237-.606,4.01,4.01,0,0,1,3.142,1.345,5.174,5.174,0,0,1,1.2,3.577v.114a5.666,5.666,0,0,1-.532,2.492,4.038,4.038,0,0,1-1.521,1.718,4.211,4.211,0,0,1-2.272.615,4,4,0,0,1-3.133-1.345,5.147,5.147,0,0,1-1.2-3.56Zm1.635.193a4.068,4.068,0,0,0,.734,2.54,2.487,2.487,0,0,0,3.933-.013,4.449,4.449,0,0,0,.729-2.72,4.061,4.061,0,0,0-.743-2.536,2.361,2.361,0,0,0-1.973-.971,2.335,2.335,0,0,0-1.942.958A4.416,4.416,0,0,0,131.91,14.351Zm14.6,2.127a1.2,1.2,0,0,0-.5-1.024,4.78,4.78,0,0,0-1.731-.628,8.186,8.186,0,0,1-1.96-.633,2.788,2.788,0,0,1-1.072-.879A2.1,2.1,0,0,1,140.9,12.1a2.467,2.467,0,0,1,.989-1.978,3.861,3.861,0,0,1,2.527-.809,3.974,3.974,0,0,1,2.624.835,2.652,2.652,0,0,1,1.006,2.136h-1.635a1.468,1.468,0,0,0-.567-1.151,2.124,2.124,0,0,0-1.428-.483,2.223,2.223,0,0,0-1.389.387,1.217,1.217,0,0,0-.5,1.011.986.986,0,0,0,.466.888,5.731,5.731,0,0,0,1.683.571,8.77,8.77,0,0,1,1.973.65,2.878,2.878,0,0,1,1.121.91,2.237,2.237,0,0,1,.365,1.3,2.434,2.434,0,0,1-1.02,2.043,4.277,4.277,0,0,1-2.646.769,4.789,4.789,0,0,1-2.021-.4,3.288,3.288,0,0,1-1.375-1.129,2.722,2.722,0,0,1-.5-1.569H142.2a1.683,1.683,0,0,0,.655,1.3,2.54,2.54,0,0,0,1.613.479,2.622,2.622,0,0,0,1.481-.374A1.148,1.148,0,0,0,146.509,16.478Zm7.8-2.312a5.571,5.571,0,0,1,1.037-3.52,3.529,3.529,0,0,1,5.361-.189V5.5h1.626V19h-1.494l-.079-1.02a3.311,3.311,0,0,1-2.716,1.2,3.248,3.248,0,0,1-2.694-1.354,5.634,5.634,0,0,1-1.042-3.533Zm1.626.185a4.218,4.218,0,0,0,.668,2.531,2.159,2.159,0,0,0,1.846.914,2.372,2.372,0,0,0,2.259-1.389V12.039a2.39,2.39,0,0,0-2.241-1.345,2.17,2.17,0,0,0-1.863.923A4.644,4.644,0,0,0,155.939,14.351Zm12.867,4.825a4.155,4.155,0,0,1-3.146-1.27,4.714,4.714,0,0,1-1.213-3.4v-.3a5.707,5.707,0,0,1,.541-2.527,4.217,4.217,0,0,1,1.512-1.74,3.8,3.8,0,0,1,2.1-.628,3.562,3.562,0,0,1,2.883,1.222,5.289,5.289,0,0,1,1.028,3.5v.677h-6.442a3.38,3.38,0,0,0,.822,2.272,2.583,2.583,0,0,0,2,.866,2.832,2.832,0,0,0,1.459-.352,3.666,3.666,0,0,0,1.046-.932l.993.773A3.993,3.993,0,0,1,168.807,19.176Zm-.2-8.525a2.169,2.169,0,0,0-1.652.716,3.482,3.482,0,0,0-.826,2.008h4.764v-.123a3.1,3.1,0,0,0-.668-1.92A2.042,2.042,0,0,0,168.6,10.65ZM70.255,43.176a4.155,4.155,0,0,1-3.146-1.27,4.714,4.714,0,0,1-1.213-3.4v-.3a5.707,5.707,0,0,1,.541-2.527,4.217,4.217,0,0,1,1.512-1.74,3.8,3.8,0,0,1,2.1-.628,3.562,3.562,0,0,1,2.883,1.222,5.289,5.289,0,0,1,1.028,3.5v.677H67.521a3.38,3.38,0,0,0,.822,2.272,2.583,2.583,0,0,0,2,.866A2.832,2.832,0,0,0,71.8,41.5a3.666,3.666,0,0,0,1.046-.932l.993.773A3.993,3.993,0,0,1,70.255,43.176Zm-.2-8.525a2.169,2.169,0,0,0-1.652.716,3.482,3.482,0,0,0-.826,2.008h4.764v-.123a3.1,3.1,0,0,0-.668-1.92A2.042,2.042,0,0,0,70.053,34.65ZM76.645,43V34.747h-1.5V33.49h1.5v-.976a3.238,3.238,0,0,1,.817-2.364,3.088,3.088,0,0,1,2.312-.835,4.293,4.293,0,0,1,1.116.148L80.8,30.774a4.67,4.67,0,0,0-.879-.079,1.586,1.586,0,0,0-1.222.463,1.877,1.877,0,0,0-.431,1.327V33.49H80.3v1.257h-2.03V43Zm9.4.176a4.155,4.155,0,0,1-3.146-1.27,4.714,4.714,0,0,1-1.213-3.4v-.3a5.707,5.707,0,0,1,.541-2.527,4.217,4.217,0,0,1,1.512-1.74,3.8,3.8,0,0,1,2.1-.628,3.562,3.562,0,0,1,2.883,1.222,5.289,5.289,0,0,1,1.028,3.5v.677H83.307a3.38,3.38,0,0,0,.822,2.272,2.583,2.583,0,0,0,2,.866,2.832,2.832,0,0,0,1.459-.352,3.666,3.666,0,0,0,1.046-.932l.993.773A3.993,3.993,0,0,1,86.04,43.176Zm-.2-8.525a2.169,2.169,0,0,0-1.652.716,3.482,3.482,0,0,0-.826,2.008h4.764v-.123a3.1,3.1,0,0,0-.668-1.92A2.042,2.042,0,0,0,85.838,34.65Zm9.606,7.2a2.342,2.342,0,0,0,1.521-.527A1.855,1.855,0,0,0,97.686,40h1.538a2.949,2.949,0,0,1-.562,1.556,3.7,3.7,0,0,1-1.384,1.178,3.994,3.994,0,0,1-1.833.439,3.918,3.918,0,0,1-3.089-1.3,5.163,5.163,0,0,1-1.147-3.546v-.272a5.725,5.725,0,0,1,.51-2.47,3.883,3.883,0,0,1,1.463-1.679,4.157,4.157,0,0,1,2.254-.6,3.814,3.814,0,0,1,2.659.958,3.424,3.424,0,0,1,1.129,2.487H97.686a2.241,2.241,0,0,0-.7-1.516,2.174,2.174,0,0,0-1.551-.593,2.276,2.276,0,0,0-1.92.892,4.19,4.19,0,0,0-.681,2.58v.308a4.106,4.106,0,0,0,.677,2.531A2.287,2.287,0,0,0,95.444,41.849Zm7.813-10.661v2.3h1.775v1.257h-1.775v5.9a1.32,1.32,0,0,0,.237.858,1,1,0,0,0,.809.286,3.937,3.937,0,0,0,.773-.105V43a4.742,4.742,0,0,1-1.248.175,2.025,2.025,0,0,1-1.644-.659,2.832,2.832,0,0,1-.554-1.872v-5.9H99.9V33.49h1.731v-2.3ZM108.7,43h-1.626V33.49H108.7ZM106.94,30.968a.971.971,0,0,1,.242-.668.907.907,0,0,1,.716-.272.922.922,0,0,1,.721.272.96.96,0,0,1,.246.668.929.929,0,0,1-.246.659.938.938,0,0,1-.721.264.924.924,0,0,1-.716-.264A.938.938,0,0,1,106.94,30.968Zm7.5,9.826,2.355-7.3h1.661L115.044,43H113.8l-3.445-9.51h1.661Zm5.019-2.637a5.617,5.617,0,0,1,.549-2.514,4.1,4.1,0,0,1,1.529-1.723,4.163,4.163,0,0,1,2.237-.606,4.01,4.01,0,0,1,3.142,1.345,5.174,5.174,0,0,1,1.2,3.577v.114a5.666,5.666,0,0,1-.532,2.492,4.038,4.038,0,0,1-1.521,1.718,4.211,4.211,0,0,1-2.272.615,4,4,0,0,1-3.133-1.345,5.147,5.147,0,0,1-1.2-3.56Zm1.635.193a4.068,4.068,0,0,0,.734,2.54,2.487,2.487,0,0,0,3.933-.013,4.449,4.449,0,0,0,.729-2.72,4.061,4.061,0,0,0-.743-2.536,2.361,2.361,0,0,0-1.973-.971,2.335,2.335,0,0,0-1.942.958A4.416,4.416,0,0,0,121.091,38.351Z" transform="translate(30.954 173.705)" fill="#12263f"/>
    </g>
    <line id="Línea_1692" data-name="Línea 1692" x2="49.703" transform="translate(72.469 262.762)" fill="none" stroke="#d9a171" stroke-linecap="round" stroke-miterlimit="10" stroke-width="0.806"/>
    <g id="s6PUI8" transform="translate(-196.848 -511.768)">
      <g id="Grupo_87295" data-name="Grupo 87295" transform="translate(253.577 568.16)">
        <path id="Trazado_141555" data-name="Trazado 141555" d="M300.726,583.962a4.5,4.5,0,0,1-4.474,4.646c-3.58-.021-7.16-.013-10.74,0a2.553,2.553,0,0,0-1.042.239c-1.766.831-3.535,1.66-5.27,2.552a20.309,20.309,0,0,1-9.3,2.156c-1.367.01-2.734,0-4.2,0,0,.609,0,1.129,0,1.648-.006,1.016-.417,1.428-1.431,1.428q-4.63,0-9.26,0c-1.033,0-1.435-.4-1.435-1.417q0-11.836,0-23.673c0-1.031.4-1.436,1.416-1.437q4.658,0,9.315,0c.978,0,1.387.416,1.395,1.406,0,.529,0,1.057,0,1.668.7,0,1.37-.038,2.036.008a10.321,10.321,0,0,0,4.216-.7,106.6,106.6,0,0,1,12.742-3.764,20.292,20.292,0,0,1,14.836,2.014c3.178,1.794,6.308,3.673,9.491,5.459q5.609,3.146,11.275,6.188a4.765,4.765,0,0,1,1.88,6.052,4.285,4.285,0,0,1-5.651,2.2l-15.262-6.48C301.1,584.1,300.931,584.039,300.726,583.962Zm-35,7.286c1.632,0,3.2.03,4.766-.006a17.872,17.872,0,0,0,7.7-1.893q2.788-1.4,5.617-2.715a3.367,3.367,0,0,1,1.358-.3c3.689-.024,7.379-.013,11.069-.014a2.154,2.154,0,0,0,2.139-1.879,1.7,1.7,0,0,0-1.729-1.96q-6.356,0-12.713,0a5.134,5.134,0,0,1-3.4-1.3,3.742,3.742,0,0,1-1.289-2.524,1.156,1.156,0,0,1,.994-1.293,1.171,1.171,0,0,1,1.284.872,2.307,2.307,0,0,0,2.548,1.956q6.576,0,13.151.007a2.423,2.423,0,0,1,.9.157c1.989.823,3.969,1.667,5.949,2.51q6.6,2.806,13.189,5.62a1.971,1.971,0,0,0,1.889.016,2.22,2.22,0,0,0,1.146-2.051,2.282,2.282,0,0,0-1.2-2.082c-2.089-1.124-4.216-2.179-6.276-3.353-4.249-2.421-8.456-4.915-12.7-7.351a24.8,24.8,0,0,0-6.276-2.672,20.577,20.577,0,0,0-9.389.168A101.81,101.81,0,0,0,271.683,575a7.538,7.538,0,0,1-2.882.482c-1.015-.044-2.033-.01-3.073-.01Zm-9.8-18.834v21.9h7.4v-21.9Z" transform="translate(-253.576 -568.16)" fill="#344154"/>
        <path id="Trazado_141556" data-name="Trazado 141556" d="M517.666,1027.65a4.528,4.528,0,0,1,3.214-4.484,3.057,3.057,0,0,1,1.016-.16c3.616-.011,7.233,0,10.849-.02a3.239,3.239,0,0,0,1.3-.292c1.605-.744,3.208-1.5,4.774-2.32a20.925,20.925,0,0,1,9.916-2.338c1.293,0,2.586,0,3.954,0,0-.638-.006-1.18,0-1.721a1.188,1.188,0,0,1,1.34-1.352q4.712-.005,9.425,0c.943,0,1.36.426,1.36,1.382q0,11.891,0,23.781c0,.951-.416,1.363-1.376,1.363q-4.685,0-9.37,0c-.942,0-1.367-.426-1.379-1.373-.007-.544,0-1.089,0-1.7-1.043,0-2.042.026-3.039-.008a6.2,6.2,0,0,0-2.295.386,109.373,109.373,0,0,1-13.143,3.95,22.7,22.7,0,0,1-9.182.4,19.109,19.109,0,0,1-5.74-2.078c-4.024-2.262-7.99-4.628-12.013-6.891-3.037-1.708-6.116-3.341-9.195-4.974a4.746,4.746,0,0,1-1.875-6.008,4.275,4.275,0,0,1,5.633-2.237q7.607,3.224,15.211,6.457C517.238,1027.482,517.424,1027.552,517.666,1027.65Zm35-7.3c-1.646,0-3.232-.035-4.816.008a17.182,17.182,0,0,0-7.146,1.656c-2.05,1-4.1,2-6.163,2.968a3.086,3.086,0,0,1-1.254.282c-3.708.021-7.417.012-11.125.013a2.159,2.159,0,0,0-2.137,1.819,1.7,1.7,0,0,0,1.708,2.025c4.256,0,8.512-.009,12.768.005a5.034,5.034,0,0,1,3.513,1.437,3.744,3.744,0,0,1,1.137,2.371,1.152,1.152,0,0,1-.988,1.3,1.17,1.17,0,0,1-1.283-.872,2.309,2.309,0,0,0-2.549-1.955c-4.366,0-8.732.006-13.1-.011a3.155,3.155,0,0,1-1.157-.241c-1.839-.757-3.664-1.547-5.494-2.325q-6.724-2.858-13.447-5.718a1.992,1.992,0,0,0-1.984.043,2.428,2.428,0,0,0,.186,4.108c1.278.667,2.58,1.293,3.83,2.008,4.58,2.616,9.143,5.262,13.714,7.9a33.942,33.942,0,0,0,6.817,3.217,19.937,19.937,0,0,0,10.235.068,103.9,103.9,0,0,0,12.779-3.839,7.536,7.536,0,0,1,2.882-.491c1.015.046,2.033.01,3.073.01Zm2.384,18.827h7.422v-21.9h-7.422Z" transform="translate(-469.247 -965.985)" fill="#344154"/>
        <path id="Trazado_141557" data-name="Trazado 141557" d="M549.961,801.2a17.092,17.092,0,0,1-16.9-14.071c-1.19-6.927,1.3-12.567,6.987-16.641a17.218,17.218,0,0,1,22.1,1.891c4.553,4.609,6.105,10.182,4.311,16.414-1.809,6.283-6.149,10.16-12.451,11.8A37.068,37.068,0,0,1,549.961,801.2Zm14.211-16.978c-.191-1.167-.286-2.36-.59-3.5A14.085,14.085,0,0,0,547.01,770.7a13.828,13.828,0,0,0-10.543,17.6,14.211,14.211,0,0,0,27.7-4.071Z" transform="translate(-502.166 -745.506)" fill="#344154"/>
        <path id="Trazado_141558" data-name="Trazado 141558" d="M653.076,830.059c.7.223,1.308.4,1.907.613a.93.93,0,0,1,.668.961c0,.383.019.768-.008,1.149-.038.544-.193.615-.712.4a7.878,7.878,0,0,0-1.686-.623,9.85,9.85,0,0,0-2.378-.055,1.313,1.313,0,0,0-1.2,1.116,1.423,1.423,0,0,0,.621,1.578,10.147,10.147,0,0,0,1.554.788c.736.318,1.508.557,2.231.9a3.72,3.72,0,0,1,2.43,4.151,4.006,4.006,0,0,1-2.86,3.589,20.632,20.632,0,0,1-2.163.575c-.072.7-.163,1.455-.221,2.215a.511.511,0,0,1-.5.533c-1.428.24-1.707,0-1.592-1.413.037-.453.091-.9.139-1.387-.6-.164-1.18-.293-1.742-.486a1.905,1.905,0,0,1-1.229-2.68c.176-.465.5-.325.805-.154a6.546,6.546,0,0,0,3.658.942,5.419,5.419,0,0,0,1.39-.258,1.59,1.59,0,0,0,1.124-1.36,1.469,1.469,0,0,0-.766-1.575c-.649-.362-1.35-.63-2.033-.93-.633-.279-1.3-.5-1.9-.826a3.78,3.78,0,0,1-2.084-4,3.727,3.727,0,0,1,2.582-3.294,4.571,4.571,0,0,1,1.21-.325c.477-.044.6-.259.612-.7a8.454,8.454,0,0,1,.171-1.576c.04-.188.3-.333.464-.489.032-.03.106-.015.16-.02,1.47-.135,1.62.013,1.47,1.461C653.159,829.282,653.116,829.679,653.076,830.059Z" transform="translate(-603.132 -798.97)" fill="#344154"/>
      </g>
    </g>
  </g>
</svg>
